M48
; DRILL file {KiCad 7.0.7} date 2024 October 23, Wednesday 00:54:42
; FORMAT={-:-/ absolute / inch / decimal}
; #@! TF.CreationDate,2024-10-23T00:54:42-07:00
; #@! TF.GenerationSoftware,Kicad,Pcbnew,7.0.7
; #@! TF.FileFunction,Plated,1,6,PTH
FMAT,2
INCH
; #@! TA.AperFunction,Plated,PTH,ViaDrill
T1C0.0098
; #@! TA.AperFunction,Plated,PTH,ViaDrill
T2C0.0157
; #@! TA.AperFunction,Plated,PTH,ComponentDrill
T3C0.0157
; #@! TA.AperFunction,Plated,PTH,ComponentDrill
T4C0.0276
; #@! TA.AperFunction,Plated,PTH,ComponentDrill
T5C0.0354
; #@! TA.AperFunction,Plated,PTH,ComponentDrill
T6C0.0472
; #@! TA.AperFunction,Plated,PTH,ComponentDrill
T7C0.0630
; #@! TA.AperFunction,Plated,PTH,ComponentDrill
T8C0.0827
%
G90
G05
T1
X2.846Y-5.882
X2.896Y-5.45
X2.957Y-5.506
X2.9622Y-5.786
X2.988Y-5.278
X3.0073Y-5.3473
X3.022Y-5.772
X3.0622Y-5.4552
X3.0702Y-5.2552
X3.072Y-5.154
X3.108Y-5.472
X3.11Y-5.354
X3.132Y-6.174
X3.134Y-5.222
X3.1407Y-6.124
X3.1427Y-6.088
X3.156Y-6.2247
X3.1598Y-5.89
X3.16Y-5.9225
X3.1675Y-5.522
X3.186Y-5.098
X3.2127Y-5.85
X3.262Y-5.788
X3.278Y-6.0213
X3.2807Y-5.7
X3.29Y-5.2932
X3.29Y-5.75
X3.294Y-5.556
X3.3021Y-5.592
X3.316Y-5.95
X3.3345Y-5.3945
X3.3373Y-6.1782
X3.3467Y-5.4247
X3.356Y-6.2387
X3.358Y-5.8547
X3.376Y-5.93
X3.394Y-5.2901
X3.4173Y-5.4995
X3.458Y-5.834
X3.466Y-5.912
X3.518Y-5.536
X3.5464Y-5.326
X3.5483Y-6.1488
X3.552Y-5.91
X3.5574Y-5.7075
X3.578Y-6.178
X3.5837Y-6.1488
X3.586Y-5.2813
X3.588Y-6.0205
X3.604Y-5.504
X3.604Y-5.922
X3.6214Y-5.4473
X3.628Y-5.9
X3.6338Y-5.9953
X3.658Y-5.898
X3.684Y-5.3253
X3.701Y-5.835
X3.706Y-5.7075
X3.7342Y-6.0769
X3.746Y-5.282
X3.75Y-5.594
X3.772Y-5.65
X3.774Y-5.9068
X3.794Y-5.314
X3.82Y-6.0287
X3.824Y-5.554
X3.826Y-5.508
X3.8373Y-6.2487
X3.838Y-5.282
X3.842Y-5.412
X3.843Y-6.084
X3.846Y-5.6153
X3.876Y-6.196
X3.882Y-6.24
X3.886Y-6.15
X3.8972Y-5.3
X3.8972Y-5.55
X3.8972Y-5.7
X3.9041Y-5.898
X3.91Y-5.406
X3.947Y-6.301
X3.954Y-5.978
X3.954Y-6.0287
X3.9563Y-5.3888
X3.9742Y-6.2165
X3.978Y-6.174
X3.996Y-5.3947
X4.004Y-6.252
X4.006Y-5.464
X4.0309Y-5.87
X4.054Y-6.162
X4.056Y-5.3591
X4.074Y-5.928
X4.08Y-6.044
X4.094Y-6.2
X4.096Y-6.09
X4.104Y-5.144
X4.108Y-5.8797
X4.1271Y-6.162
X4.172Y-5.404
X4.19Y-5.262
X4.202Y-5.9753
X4.244Y-5.334
T2
X3.2996Y-5.4555
X3.316Y-5.798
X3.364Y-5.648
X3.4303Y-5.4495
X3.6949Y-5.4571
X3.726Y-5.918
X3.778Y-6.214
X3.826Y-5.8605
X3.9712Y-5.206
X4.0513Y-5.3298
X4.076Y-5.232
X4.148Y-5.818
X4.172Y-5.58
X4.176Y-5.752
X4.18Y-5.836
X4.216Y-5.5341
X4.258Y-5.658
X4.29Y-5.626
T3
X3.5625Y-5.5795
X3.5625Y-5.6346
X3.5901Y-5.552
X3.5901Y-5.6622
X3.6452Y-5.552
X3.6452Y-5.6622
X3.6728Y-5.5795
X3.6728Y-5.6346
T4
X3.068Y-5.546
X3.068Y-5.596
X3.068Y-5.646
X3.068Y-5.696
X3.068Y-5.746
X3.068Y-5.796
X3.118Y-5.546
X3.118Y-5.596
X3.118Y-5.646
X3.118Y-5.696
X3.118Y-5.746
X3.118Y-5.796
X4.002Y-5.546
X4.002Y-5.596
X4.002Y-5.646
X4.002Y-5.696
X4.002Y-5.746
X4.002Y-5.796
X4.052Y-5.546
X4.052Y-5.596
X4.052Y-5.646
X4.052Y-5.696
X4.052Y-5.746
X4.052Y-5.796
T5
X2.9287Y-5.6357
X2.9288Y-5.7157
T6
X3.6176Y-5.6071
T7
X3.3959Y-6.1649
X3.7361Y-6.1649
T8
X3.3959Y-6.376
X3.7361Y-6.376
T0
M30
