G04 #@! TF.GenerationSoftware,KiCad,Pcbnew,7.0.7*
G04 #@! TF.CreationDate,2024-10-23T00:24:28-07:00*
G04 #@! TF.ProjectId,ESP_POE_1.4b,4553505f-504f-4455-9f31-2e34622e6b69,K*
G04 #@! TF.SameCoordinates,Original*
G04 #@! TF.FileFunction,Copper,L2,Inr*
G04 #@! TF.FilePolarity,Positive*
%FSLAX46Y46*%
G04 Gerber Fmt 4.6, Leading zero omitted, Abs format (unit mm)*
G04 Created by KiCad (PCBNEW 7.0.7) date 2024-10-23 00:24:28*
%MOMM*%
%LPD*%
G01*
G04 APERTURE LIST*
G04 #@! TA.AperFunction,ComponentPad*
%ADD10R,1.400000X1.400000*%
G04 #@! TD*
G04 #@! TA.AperFunction,ComponentPad*
%ADD11C,1.400000*%
G04 #@! TD*
G04 #@! TA.AperFunction,ComponentPad*
%ADD12C,2.100000*%
G04 #@! TD*
G04 #@! TA.AperFunction,ComponentPad*
%ADD13C,2.600000*%
G04 #@! TD*
G04 #@! TA.AperFunction,ComponentPad*
%ADD14R,1.100000X1.100000*%
G04 #@! TD*
G04 #@! TA.AperFunction,ComponentPad*
%ADD15C,1.100000*%
G04 #@! TD*
G04 #@! TA.AperFunction,ComponentPad*
%ADD16C,0.700000*%
G04 #@! TD*
G04 #@! TA.AperFunction,ComponentPad*
%ADD17C,1.500000*%
G04 #@! TD*
G04 #@! TA.AperFunction,ViaPad*
%ADD18C,0.550000*%
G04 #@! TD*
G04 #@! TA.AperFunction,ViaPad*
%ADD19C,0.700000*%
G04 #@! TD*
G04 APERTURE END LIST*
D10*
X74389520Y-143148050D03*
D11*
X74392060Y-145177510D03*
D12*
X86256400Y-156589400D03*
D13*
X86256400Y-161949400D03*
D12*
X94896400Y-156589400D03*
D13*
X94896400Y-161949400D03*
D14*
X77927200Y-147218400D03*
D15*
X79197200Y-147218400D03*
X77927200Y-145948400D03*
X79197200Y-145948400D03*
X77927200Y-144678400D03*
X79197200Y-144678400D03*
X77927200Y-143408400D03*
X79197200Y-143408400D03*
X77927200Y-142138400D03*
X79197200Y-142138400D03*
X77927200Y-140868400D03*
X79197200Y-140868400D03*
D16*
X93288000Y-143120000D03*
X93288000Y-141720000D03*
X92588000Y-143820000D03*
X92588000Y-141020000D03*
D17*
X91888000Y-142420000D03*
D16*
X91188000Y-143820000D03*
X91188000Y-141020000D03*
X90488000Y-143120000D03*
X90488000Y-141720000D03*
D14*
X102920800Y-147218400D03*
D15*
X101650800Y-147218400D03*
X102920800Y-145948400D03*
X101650800Y-145948400D03*
X102920800Y-144678400D03*
X101650800Y-144678400D03*
X102920800Y-143408400D03*
X101650800Y-143408400D03*
X102920800Y-142138400D03*
X101650800Y-142138400D03*
X102920800Y-140868400D03*
X101650800Y-140868400D03*
D18*
X93573600Y-135261600D03*
X76384400Y-135820400D03*
X72288400Y-149402800D03*
X96367600Y-134975600D03*
X98602800Y-158496000D03*
X104241600Y-130657600D03*
X86207600Y-134367600D03*
X97180400Y-139903200D03*
X104343200Y-149343700D03*
X79774800Y-155549600D03*
X92913200Y-149809200D03*
D19*
X97180400Y-148856298D03*
D18*
X100431600Y-153130000D03*
D19*
X102903979Y-135378187D03*
D18*
X98988000Y-134620000D03*
X103479600Y-150571200D03*
X75239700Y-146964400D03*
X103987600Y-157480000D03*
X95859600Y-150032800D03*
X73558400Y-138430000D03*
D19*
X106070400Y-146100800D03*
D18*
X84767299Y-156925237D03*
X77779700Y-138561600D03*
X78028800Y-130911600D03*
X107797600Y-135483600D03*
X105968800Y-137261600D03*
X77984024Y-133483076D03*
X104827901Y-156514800D03*
X106426000Y-133654800D03*
X79552800Y-156819600D03*
X97586800Y-137464800D03*
X103632000Y-153517600D03*
D19*
X85445600Y-143459200D03*
D18*
X83566000Y-134447100D03*
X97485200Y-134162800D03*
X98988000Y-140970000D03*
X97466400Y-158718000D03*
D19*
X103530400Y-132892800D03*
X100868400Y-132232400D03*
D18*
X99314000Y-137312400D03*
X100489115Y-136874658D03*
X101041200Y-156819600D03*
D19*
X108153200Y-143713200D03*
D18*
X79603600Y-132638800D03*
X94848690Y-154352127D03*
X100431600Y-151841200D03*
X75107800Y-139852400D03*
X90078400Y-135280400D03*
X100252962Y-160044562D03*
X106730800Y-151771600D03*
X84226400Y-151130000D03*
X86798849Y-139687300D03*
D19*
X93850621Y-138610179D03*
D18*
X95148400Y-134162300D03*
X91084400Y-134144000D03*
X80924400Y-129489200D03*
X80453800Y-140258800D03*
X85293200Y-148710400D03*
X104038400Y-154686000D03*
X101701600Y-158800800D03*
D19*
X95961200Y-157835600D03*
D18*
X102972438Y-156515638D03*
D19*
X84226400Y-147269200D03*
D18*
X83874200Y-142036800D03*
X91983560Y-138360400D03*
X97028000Y-153130000D03*
X90220800Y-150114000D03*
X87833200Y-148183600D03*
X76758800Y-146608800D03*
X80162400Y-158108400D03*
X100945292Y-157900100D03*
X98988000Y-144780000D03*
X103022400Y-136120300D03*
X101752400Y-138785600D03*
X75895200Y-134061200D03*
X78943200Y-138988800D03*
X80264103Y-150432480D03*
X101498400Y-137026400D03*
X97688400Y-142627600D03*
X92151200Y-149860000D03*
X91024898Y-156179400D03*
X90881200Y-156921200D03*
X91541600Y-150418800D03*
X90152902Y-156179400D03*
X83261200Y-152940000D03*
D19*
X107086400Y-140565599D03*
X105968800Y-141732000D03*
D18*
X102385801Y-149098000D03*
X95250000Y-142087600D03*
D19*
X105359200Y-147777200D03*
X108966000Y-142900400D03*
D18*
X85750400Y-150622000D03*
D19*
X106172000Y-148234400D03*
D18*
X89357200Y-140614400D03*
X90358280Y-144969957D03*
X95808800Y-143510000D03*
X94005254Y-148208854D03*
X79825600Y-154635200D03*
X88036400Y-150164800D03*
X94132400Y-144969500D03*
X81603600Y-148590000D03*
D19*
X83810951Y-138569200D03*
X87128700Y-138417300D03*
X94640400Y-150317200D03*
D18*
X83566000Y-146050000D03*
X99163106Y-149809029D03*
X83667600Y-141122400D03*
X91541600Y-139801600D03*
X83330800Y-144780000D03*
X97129600Y-141071600D03*
X85007200Y-137787257D03*
X78994000Y-135991600D03*
X82854800Y-147015200D03*
X98450400Y-157378400D03*
X91135700Y-152921239D03*
X92298700Y-152280000D03*
X98704400Y-156210000D03*
X84696128Y-137021528D03*
X80257900Y-149606000D03*
X97611543Y-154533468D03*
X85242400Y-158464000D03*
G04 #@! TA.AperFunction,Conductor*
G36*
X78870473Y-146117371D02*
G01*
X78917086Y-146159571D01*
X78936132Y-146188723D01*
X78936134Y-146188725D01*
X78936135Y-146188726D01*
X78936136Y-146188727D01*
X78987128Y-146228415D01*
X79035800Y-146266298D01*
X79076613Y-146323009D01*
X79080288Y-146392782D01*
X79047319Y-146451833D01*
X78909137Y-146590015D01*
X78906843Y-146591267D01*
X78936902Y-146604995D01*
X78943380Y-146611027D01*
X79050794Y-146718441D01*
X79084279Y-146779764D01*
X79079295Y-146849456D01*
X79037423Y-146905389D01*
X79022131Y-146915176D01*
X78979256Y-146938379D01*
X78979251Y-146938382D01*
X78946928Y-146973495D01*
X78887041Y-147009485D01*
X78817203Y-147007384D01*
X78759587Y-146967859D01*
X78732486Y-146903460D01*
X78731699Y-146889511D01*
X78731699Y-146698708D01*
X78751384Y-146631669D01*
X78771920Y-146613873D01*
X78722189Y-146576644D01*
X78718354Y-146571225D01*
X78716934Y-146569100D01*
X78716934Y-146569099D01*
X78660684Y-146484916D01*
X78660683Y-146484915D01*
X78660682Y-146484913D01*
X78656626Y-146480857D01*
X78623141Y-146419534D01*
X78628125Y-146349842D01*
X78639313Y-146327205D01*
X78656616Y-146299668D01*
X78696237Y-146186437D01*
X78736958Y-146129662D01*
X78801911Y-146103915D01*
X78870473Y-146117371D01*
G37*
G04 #@! TD.AperFunction*
G04 #@! TA.AperFunction,Conductor*
G36*
X78870474Y-144847371D02*
G01*
X78917088Y-144889572D01*
X78936134Y-144918725D01*
X78936135Y-144918726D01*
X78936136Y-144918727D01*
X78970545Y-144945508D01*
X79035800Y-144996298D01*
X79076613Y-145053009D01*
X79080288Y-145122782D01*
X79047320Y-145181833D01*
X78915753Y-145313400D01*
X79050794Y-145448441D01*
X79084279Y-145509764D01*
X79079295Y-145579456D01*
X79037423Y-145635389D01*
X79022131Y-145645176D01*
X78979256Y-145668379D01*
X78979252Y-145668382D01*
X78903542Y-145750625D01*
X78843654Y-145786616D01*
X78773816Y-145784515D01*
X78716200Y-145744991D01*
X78695271Y-145707597D01*
X78656620Y-145597140D01*
X78656616Y-145597132D01*
X78607694Y-145519272D01*
X78560164Y-145443628D01*
X78517617Y-145401081D01*
X78484132Y-145339758D01*
X78489116Y-145270066D01*
X78517617Y-145225719D01*
X78531818Y-145211518D01*
X78560164Y-145183172D01*
X78656616Y-145029668D01*
X78656617Y-145029664D01*
X78656620Y-145029659D01*
X78696238Y-144916438D01*
X78736959Y-144859662D01*
X78801912Y-144833915D01*
X78870474Y-144847371D01*
G37*
G04 #@! TD.AperFunction*
G04 #@! TA.AperFunction,Conductor*
G36*
X78870474Y-143577371D02*
G01*
X78917088Y-143619572D01*
X78936134Y-143648725D01*
X78936135Y-143648726D01*
X78936136Y-143648727D01*
X78987128Y-143688415D01*
X79035800Y-143726298D01*
X79076613Y-143783009D01*
X79080288Y-143852782D01*
X79047320Y-143911833D01*
X78915753Y-144043400D01*
X79050794Y-144178441D01*
X79084279Y-144239764D01*
X79079295Y-144309456D01*
X79037423Y-144365389D01*
X79022131Y-144375176D01*
X78979256Y-144398379D01*
X78979252Y-144398382D01*
X78903542Y-144480625D01*
X78843654Y-144516616D01*
X78773816Y-144514515D01*
X78716200Y-144474991D01*
X78695271Y-144437597D01*
X78656620Y-144327140D01*
X78656616Y-144327132D01*
X78617029Y-144264129D01*
X78560164Y-144173628D01*
X78517617Y-144131081D01*
X78484132Y-144069758D01*
X78489116Y-144000066D01*
X78517617Y-143955719D01*
X78525990Y-143947346D01*
X78560164Y-143913172D01*
X78656616Y-143759668D01*
X78656617Y-143759664D01*
X78656620Y-143759659D01*
X78696238Y-143646438D01*
X78736959Y-143589662D01*
X78801912Y-143563915D01*
X78870474Y-143577371D01*
G37*
G04 #@! TD.AperFunction*
G04 #@! TA.AperFunction,Conductor*
G36*
X78870474Y-142307371D02*
G01*
X78917088Y-142349572D01*
X78936134Y-142378725D01*
X78936135Y-142378726D01*
X78936136Y-142378727D01*
X78982026Y-142414444D01*
X79035800Y-142456298D01*
X79076613Y-142513009D01*
X79080288Y-142582782D01*
X79047320Y-142641833D01*
X78915753Y-142773400D01*
X79050794Y-142908441D01*
X79084279Y-142969764D01*
X79079295Y-143039456D01*
X79037423Y-143095389D01*
X79022131Y-143105176D01*
X78979256Y-143128379D01*
X78979252Y-143128382D01*
X78903542Y-143210625D01*
X78843654Y-143246616D01*
X78773816Y-143244515D01*
X78716200Y-143204991D01*
X78695271Y-143167597D01*
X78656620Y-143057140D01*
X78656616Y-143057132D01*
X78617029Y-142994129D01*
X78560164Y-142903628D01*
X78517617Y-142861081D01*
X78484132Y-142799758D01*
X78489116Y-142730066D01*
X78517617Y-142685719D01*
X78519467Y-142683869D01*
X78560164Y-142643172D01*
X78656616Y-142489668D01*
X78656617Y-142489664D01*
X78656620Y-142489659D01*
X78696238Y-142376438D01*
X78736959Y-142319662D01*
X78801912Y-142293915D01*
X78870474Y-142307371D01*
G37*
G04 #@! TD.AperFunction*
G04 #@! TA.AperFunction,Conductor*
G36*
X78870474Y-141037371D02*
G01*
X78917088Y-141079572D01*
X78936134Y-141108725D01*
X78936135Y-141108726D01*
X79035800Y-141186299D01*
X79076613Y-141243009D01*
X79080287Y-141312782D01*
X79047318Y-141371833D01*
X78915753Y-141503397D01*
X78915753Y-141503399D01*
X79050794Y-141638441D01*
X79084279Y-141699764D01*
X79079295Y-141769456D01*
X79037423Y-141825389D01*
X79022131Y-141835176D01*
X78979256Y-141858379D01*
X78979252Y-141858382D01*
X78903542Y-141940625D01*
X78843654Y-141976616D01*
X78773816Y-141974515D01*
X78716200Y-141934991D01*
X78695271Y-141897597D01*
X78656620Y-141787140D01*
X78656616Y-141787132D01*
X78623629Y-141734633D01*
X78560164Y-141633628D01*
X78517617Y-141591081D01*
X78484132Y-141529758D01*
X78489116Y-141460066D01*
X78517617Y-141415719D01*
X78531305Y-141402031D01*
X78560164Y-141373172D01*
X78656616Y-141219668D01*
X78656617Y-141219664D01*
X78656620Y-141219659D01*
X78696238Y-141106438D01*
X78736959Y-141049662D01*
X78801912Y-141023915D01*
X78870474Y-141037371D01*
G37*
G04 #@! TD.AperFunction*
G04 #@! TA.AperFunction,Conductor*
G36*
X102074182Y-146112282D02*
G01*
X102131799Y-146151806D01*
X102152728Y-146189198D01*
X102174571Y-146251621D01*
X102191383Y-146299666D01*
X102191385Y-146299671D01*
X102208686Y-146327205D01*
X102227686Y-146394442D01*
X102207318Y-146461277D01*
X102191377Y-146480854D01*
X102187316Y-146484915D01*
X102129645Y-146571225D01*
X102078090Y-146614310D01*
X102091567Y-146624399D01*
X102115984Y-146689864D01*
X102116300Y-146698709D01*
X102116300Y-146883545D01*
X102096615Y-146950584D01*
X102043811Y-146996339D01*
X101974653Y-147006283D01*
X101916138Y-146981399D01*
X101812199Y-146900501D01*
X101771386Y-146843791D01*
X101767711Y-146774018D01*
X101800680Y-146714965D01*
X101904619Y-146611027D01*
X101940411Y-146591483D01*
X101938862Y-146590015D01*
X101797205Y-146448358D01*
X101763720Y-146387035D01*
X101768704Y-146317343D01*
X101810576Y-146261410D01*
X101825852Y-146251632D01*
X101868747Y-146228419D01*
X101944459Y-146146173D01*
X102004344Y-146110183D01*
X102074182Y-146112282D01*
G37*
G04 #@! TD.AperFunction*
G04 #@! TA.AperFunction,Conductor*
G36*
X102074182Y-144842282D02*
G01*
X102131799Y-144881806D01*
X102152728Y-144919198D01*
X102161935Y-144945508D01*
X102191383Y-145029666D01*
X102191383Y-145029667D01*
X102287836Y-145183172D01*
X102330383Y-145225719D01*
X102363868Y-145287042D01*
X102358884Y-145356734D01*
X102330383Y-145401081D01*
X102287836Y-145443627D01*
X102191383Y-145597132D01*
X102191379Y-145597140D01*
X102151762Y-145710362D01*
X102111041Y-145767138D01*
X102046088Y-145792885D01*
X101977526Y-145779429D01*
X101930912Y-145737228D01*
X101911865Y-145708074D01*
X101911862Y-145708071D01*
X101812199Y-145630500D01*
X101771386Y-145573790D01*
X101767711Y-145504017D01*
X101800680Y-145444965D01*
X101932246Y-145313399D01*
X101797205Y-145178358D01*
X101763720Y-145117035D01*
X101768704Y-145047343D01*
X101810576Y-144991410D01*
X101825852Y-144981632D01*
X101868747Y-144958419D01*
X101944459Y-144876173D01*
X102004344Y-144840183D01*
X102074182Y-144842282D01*
G37*
G04 #@! TD.AperFunction*
G04 #@! TA.AperFunction,Conductor*
G36*
X102074182Y-143572282D02*
G01*
X102131799Y-143611806D01*
X102152730Y-143649201D01*
X102191383Y-143759666D01*
X102191383Y-143759667D01*
X102287836Y-143913172D01*
X102330383Y-143955719D01*
X102363868Y-144017042D01*
X102358884Y-144086734D01*
X102330383Y-144131081D01*
X102287836Y-144173627D01*
X102191383Y-144327132D01*
X102191379Y-144327140D01*
X102151762Y-144440362D01*
X102111041Y-144497138D01*
X102046088Y-144522885D01*
X101977526Y-144509429D01*
X101930912Y-144467228D01*
X101911865Y-144438074D01*
X101911862Y-144438071D01*
X101812199Y-144360500D01*
X101771386Y-144303790D01*
X101767711Y-144234017D01*
X101800680Y-144174965D01*
X101932246Y-144043399D01*
X101797205Y-143908358D01*
X101763720Y-143847035D01*
X101768704Y-143777343D01*
X101810576Y-143721410D01*
X101825852Y-143711632D01*
X101868747Y-143688419D01*
X101944459Y-143606173D01*
X102004344Y-143570183D01*
X102074182Y-143572282D01*
G37*
G04 #@! TD.AperFunction*
G04 #@! TA.AperFunction,Conductor*
G36*
X102074182Y-142302282D02*
G01*
X102131799Y-142341806D01*
X102152728Y-142379198D01*
X102165062Y-142414444D01*
X102191383Y-142489666D01*
X102191383Y-142489667D01*
X102287836Y-142643172D01*
X102330383Y-142685719D01*
X102363868Y-142747042D01*
X102358884Y-142816734D01*
X102330383Y-142861081D01*
X102287836Y-142903627D01*
X102191383Y-143057132D01*
X102191379Y-143057140D01*
X102151762Y-143170362D01*
X102111041Y-143227138D01*
X102046088Y-143252885D01*
X101977526Y-143239429D01*
X101930912Y-143197228D01*
X101911865Y-143168074D01*
X101911862Y-143168071D01*
X101812199Y-143090500D01*
X101771386Y-143033790D01*
X101767711Y-142964017D01*
X101800680Y-142904965D01*
X101932246Y-142773399D01*
X101797205Y-142638358D01*
X101763720Y-142577035D01*
X101768704Y-142507343D01*
X101810576Y-142451410D01*
X101825852Y-142441632D01*
X101868747Y-142418419D01*
X101944459Y-142336173D01*
X102004344Y-142300183D01*
X102074182Y-142302282D01*
G37*
G04 #@! TD.AperFunction*
G04 #@! TA.AperFunction,Conductor*
G36*
X102074182Y-141032282D02*
G01*
X102131799Y-141071806D01*
X102152728Y-141109198D01*
X102168594Y-141154538D01*
X102191383Y-141219666D01*
X102191383Y-141219667D01*
X102287836Y-141373172D01*
X102330383Y-141415719D01*
X102363868Y-141477042D01*
X102358884Y-141546734D01*
X102330383Y-141591081D01*
X102287836Y-141633627D01*
X102191383Y-141787132D01*
X102191379Y-141787140D01*
X102151762Y-141900362D01*
X102111041Y-141957138D01*
X102046088Y-141982885D01*
X101977526Y-141969429D01*
X101930912Y-141927228D01*
X101911865Y-141898074D01*
X101860866Y-141858380D01*
X101819685Y-141826328D01*
X101819684Y-141826327D01*
X101812198Y-141820501D01*
X101771385Y-141763791D01*
X101767710Y-141694018D01*
X101800679Y-141634965D01*
X101932246Y-141503397D01*
X101797206Y-141368358D01*
X101763721Y-141307035D01*
X101768705Y-141237344D01*
X101810576Y-141181410D01*
X101825862Y-141171627D01*
X101868747Y-141148419D01*
X101944459Y-141066173D01*
X102004344Y-141030183D01*
X102074182Y-141032282D01*
G37*
G04 #@! TD.AperFunction*
G04 #@! TA.AperFunction,Conductor*
G36*
X80898775Y-128574253D02*
G01*
X80965727Y-128594225D01*
X81011254Y-128647225D01*
X81022184Y-128701970D01*
X81018111Y-128837759D01*
X80996426Y-128904178D01*
X80942274Y-128948329D01*
X80910353Y-128956980D01*
X80786173Y-128973329D01*
X80786172Y-128973329D01*
X80657366Y-129026682D01*
X80546756Y-129111556D01*
X80461882Y-129222166D01*
X80408529Y-129350972D01*
X80408529Y-129350973D01*
X80390331Y-129489200D01*
X80408529Y-129627427D01*
X80461883Y-129756235D01*
X80546756Y-129866844D01*
X80657365Y-129951717D01*
X80786173Y-130005071D01*
X80871197Y-130016264D01*
X80935092Y-130044530D01*
X80973564Y-130102854D01*
X80978955Y-130142921D01*
X80873599Y-133654800D01*
X90540910Y-133654800D01*
X90607949Y-133674485D01*
X90653704Y-133727289D01*
X90663648Y-133796447D01*
X90639285Y-133854287D01*
X90621882Y-133876965D01*
X90571356Y-133998947D01*
X90568529Y-134005773D01*
X90550331Y-134144000D01*
X90568529Y-134282227D01*
X90621883Y-134411035D01*
X90706756Y-134521644D01*
X90817365Y-134606517D01*
X90946173Y-134659871D01*
X91084400Y-134678069D01*
X91222627Y-134659871D01*
X91351435Y-134606517D01*
X91462044Y-134521644D01*
X91546917Y-134411035D01*
X91600271Y-134282227D01*
X91618469Y-134144000D01*
X91600271Y-134005773D01*
X91546917Y-133876966D01*
X91546916Y-133876965D01*
X91529514Y-133854285D01*
X91504321Y-133789115D01*
X91518360Y-133720671D01*
X91567175Y-133670682D01*
X91627891Y-133654800D01*
X94618952Y-133654800D01*
X94685991Y-133674485D01*
X94731746Y-133727289D01*
X94741690Y-133796447D01*
X94717329Y-133854283D01*
X94710756Y-133862851D01*
X94685881Y-133895268D01*
X94632529Y-134024072D01*
X94632529Y-134024073D01*
X94614331Y-134162300D01*
X94632529Y-134300527D01*
X94685883Y-134429335D01*
X94770756Y-134539944D01*
X94881365Y-134624817D01*
X95010173Y-134678171D01*
X95148400Y-134696369D01*
X95286627Y-134678171D01*
X95415435Y-134624817D01*
X95526044Y-134539944D01*
X95610917Y-134429335D01*
X95664271Y-134300527D01*
X95682469Y-134162300D01*
X95664271Y-134024073D01*
X95610917Y-133895266D01*
X95596875Y-133876966D01*
X95579472Y-133854285D01*
X95554279Y-133789116D01*
X95568318Y-133720671D01*
X95617132Y-133670682D01*
X95677849Y-133654800D01*
X96956135Y-133654800D01*
X97023174Y-133674485D01*
X97068929Y-133727289D01*
X97078873Y-133796447D01*
X97054511Y-133854286D01*
X97022682Y-133895765D01*
X96969329Y-134024572D01*
X96969329Y-134024573D01*
X96951131Y-134162799D01*
X96969329Y-134301026D01*
X96969329Y-134301027D01*
X96972578Y-134308872D01*
X97022683Y-134429835D01*
X97107556Y-134540444D01*
X97218165Y-134625317D01*
X97346973Y-134678671D01*
X97485200Y-134696869D01*
X97623427Y-134678671D01*
X97752235Y-134625317D01*
X97862844Y-134540444D01*
X97947717Y-134429835D01*
X98001071Y-134301027D01*
X98019269Y-134162800D01*
X98001071Y-134024573D01*
X97968356Y-133945593D01*
X97947717Y-133895765D01*
X97915889Y-133854286D01*
X97890695Y-133789117D01*
X97904734Y-133720672D01*
X97953548Y-133670682D01*
X98014265Y-133654800D01*
X99720400Y-133654800D01*
X105891931Y-133654800D01*
X105910129Y-133793026D01*
X105910129Y-133793027D01*
X105952478Y-133895268D01*
X105963483Y-133921835D01*
X106048356Y-134032444D01*
X106158965Y-134117317D01*
X106287773Y-134170671D01*
X106426000Y-134188869D01*
X106564227Y-134170671D01*
X106693035Y-134117317D01*
X106803644Y-134032444D01*
X106888517Y-133921835D01*
X106941871Y-133793027D01*
X106960069Y-133654800D01*
X106941871Y-133516573D01*
X106888517Y-133387766D01*
X106888517Y-133387765D01*
X106803647Y-133277159D01*
X106803645Y-133277157D01*
X106803644Y-133277156D01*
X106693035Y-133192283D01*
X106564227Y-133138929D01*
X106426000Y-133120731D01*
X106287773Y-133138929D01*
X106287772Y-133138929D01*
X106158966Y-133192282D01*
X106048356Y-133277156D01*
X105963482Y-133387766D01*
X105910129Y-133516572D01*
X105910129Y-133516573D01*
X105891931Y-133654800D01*
X99720400Y-133654800D01*
X99728256Y-132892800D01*
X102920684Y-132892800D01*
X102941460Y-133050605D01*
X102941461Y-133050609D01*
X103002368Y-133197655D01*
X103002369Y-133197657D01*
X103002370Y-133197658D01*
X103099266Y-133323934D01*
X103225542Y-133420830D01*
X103372594Y-133481740D01*
X103512040Y-133500098D01*
X103530399Y-133502516D01*
X103530400Y-133502516D01*
X103530401Y-133502516D01*
X103546846Y-133500350D01*
X103688206Y-133481740D01*
X103835258Y-133420830D01*
X103961534Y-133323934D01*
X104058430Y-133197658D01*
X104119340Y-133050606D01*
X104140116Y-132892800D01*
X104119340Y-132734994D01*
X104058430Y-132587942D01*
X103961534Y-132461666D01*
X103835258Y-132364770D01*
X103835257Y-132364769D01*
X103835255Y-132364768D01*
X103688209Y-132303861D01*
X103688207Y-132303860D01*
X103688206Y-132303860D01*
X103557562Y-132286660D01*
X103530401Y-132283084D01*
X103530399Y-132283084D01*
X103372594Y-132303860D01*
X103372590Y-132303861D01*
X103225544Y-132364768D01*
X103099266Y-132461666D01*
X103002368Y-132587944D01*
X102941461Y-132734990D01*
X102941460Y-132734994D01*
X102920684Y-132892799D01*
X102920684Y-132892800D01*
X99728256Y-132892800D01*
X99735064Y-132232400D01*
X100258684Y-132232400D01*
X100279460Y-132390205D01*
X100279461Y-132390209D01*
X100340368Y-132537255D01*
X100340369Y-132537257D01*
X100340370Y-132537258D01*
X100437266Y-132663534D01*
X100563542Y-132760430D01*
X100710594Y-132821340D01*
X100850040Y-132839698D01*
X100868399Y-132842116D01*
X100868400Y-132842116D01*
X100868401Y-132842116D01*
X100884846Y-132839950D01*
X101026206Y-132821340D01*
X101173258Y-132760430D01*
X101299534Y-132663534D01*
X101396430Y-132537258D01*
X101457340Y-132390206D01*
X101478116Y-132232400D01*
X101457340Y-132074594D01*
X101396430Y-131927542D01*
X101299534Y-131801266D01*
X101173258Y-131704370D01*
X101173257Y-131704369D01*
X101173255Y-131704368D01*
X101026209Y-131643461D01*
X101026207Y-131643460D01*
X101026206Y-131643460D01*
X100947302Y-131633072D01*
X100868401Y-131622684D01*
X100868399Y-131622684D01*
X100710594Y-131643460D01*
X100710590Y-131643461D01*
X100563544Y-131704368D01*
X100437266Y-131801266D01*
X100340368Y-131927544D01*
X100279461Y-132074590D01*
X100279460Y-132074594D01*
X100258684Y-132232399D01*
X100258684Y-132232400D01*
X99735064Y-132232400D01*
X99769940Y-128849402D01*
X99790314Y-128782570D01*
X99843587Y-128737362D01*
X99893407Y-128726682D01*
X103135899Y-128712942D01*
X103203017Y-128732341D01*
X103215882Y-128741747D01*
X103463328Y-128948329D01*
X103652993Y-129106673D01*
X103655088Y-129108504D01*
X104308874Y-129706090D01*
X104310885Y-129708013D01*
X104937186Y-130334314D01*
X104939109Y-130336325D01*
X105536695Y-130990111D01*
X105538526Y-130992206D01*
X106106189Y-131672157D01*
X106107907Y-131674311D01*
X106300718Y-131927542D01*
X106644487Y-132379037D01*
X106646123Y-132381288D01*
X106701809Y-132461666D01*
X107147811Y-133105432D01*
X107150535Y-133109363D01*
X107152068Y-133111685D01*
X107623317Y-133861674D01*
X107624744Y-133864063D01*
X108061862Y-134634423D01*
X108063180Y-134636873D01*
X108465306Y-135426090D01*
X108466505Y-135428578D01*
X108633519Y-135796271D01*
X108832815Y-136235036D01*
X108833908Y-136237594D01*
X109163655Y-137059642D01*
X109164633Y-137062247D01*
X109457188Y-137898320D01*
X109458045Y-137900957D01*
X109494164Y-138021239D01*
X109712778Y-138749256D01*
X109713519Y-138751939D01*
X109929945Y-139610852D01*
X109930565Y-139613565D01*
X110108237Y-140481311D01*
X110108730Y-140484028D01*
X110231732Y-141260627D01*
X110247292Y-141358871D01*
X110247663Y-141361611D01*
X110343064Y-142208314D01*
X110346837Y-142241801D01*
X110347084Y-142244544D01*
X110406669Y-143128302D01*
X110406794Y-143131082D01*
X110426668Y-144016608D01*
X110426668Y-144019392D01*
X110406794Y-144904917D01*
X110406669Y-144907691D01*
X110347084Y-145791451D01*
X110346837Y-145794195D01*
X110251163Y-146643336D01*
X110247666Y-146674370D01*
X110247292Y-146677128D01*
X110109159Y-147549269D01*
X110108734Y-147551950D01*
X110108237Y-147554688D01*
X109930565Y-148422434D01*
X109929945Y-148425147D01*
X109713519Y-149284060D01*
X109712778Y-149286743D01*
X109458048Y-150135033D01*
X109457188Y-150137679D01*
X109164633Y-150973752D01*
X109163655Y-150976357D01*
X108833908Y-151798405D01*
X108832815Y-151800963D01*
X108466514Y-152607402D01*
X108465306Y-152609909D01*
X108063180Y-153399126D01*
X108061862Y-153401576D01*
X107624744Y-154171936D01*
X107623317Y-154174325D01*
X107152068Y-154924314D01*
X107150535Y-154926636D01*
X106646123Y-155654711D01*
X106644487Y-155656962D01*
X106107924Y-156361667D01*
X106106189Y-156363842D01*
X105538526Y-157043793D01*
X105536695Y-157045888D01*
X104939109Y-157699674D01*
X104937186Y-157701685D01*
X104310885Y-158327986D01*
X104308874Y-158329909D01*
X103655088Y-158927495D01*
X103652993Y-158929326D01*
X102973042Y-159496989D01*
X102970867Y-159498724D01*
X102266162Y-160035287D01*
X102263911Y-160036923D01*
X101535836Y-160541335D01*
X101533514Y-160542868D01*
X100783525Y-161014117D01*
X100781136Y-161015544D01*
X100010776Y-161452662D01*
X100008326Y-161453980D01*
X99219109Y-161856106D01*
X99216602Y-161857314D01*
X98410163Y-162223615D01*
X98407605Y-162224708D01*
X97585557Y-162554455D01*
X97582952Y-162555433D01*
X96746879Y-162847988D01*
X96744233Y-162848848D01*
X96349636Y-162967339D01*
X96279768Y-162967767D01*
X96220760Y-162930353D01*
X96191346Y-162866976D01*
X96200867Y-162797758D01*
X96208239Y-162783802D01*
X96285753Y-162657311D01*
X96379389Y-162431252D01*
X96436509Y-162193329D01*
X96455707Y-161949400D01*
X96436509Y-161705471D01*
X96379389Y-161467548D01*
X96379388Y-161467545D01*
X96379388Y-161467544D01*
X96285755Y-161241492D01*
X96285753Y-161241489D01*
X96157909Y-161032867D01*
X96157903Y-161032858D01*
X95998999Y-160846805D01*
X95998994Y-160846800D01*
X95812941Y-160687896D01*
X95812932Y-160687890D01*
X95604310Y-160560046D01*
X95604307Y-160560044D01*
X95378254Y-160466411D01*
X95140332Y-160409291D01*
X94957382Y-160394892D01*
X94896400Y-160390093D01*
X94896399Y-160390093D01*
X94652467Y-160409291D01*
X94414546Y-160466411D01*
X94414544Y-160466411D01*
X94188492Y-160560044D01*
X94188489Y-160560046D01*
X93979867Y-160687890D01*
X93979858Y-160687896D01*
X93793805Y-160846800D01*
X93793800Y-160846805D01*
X93634896Y-161032858D01*
X93634890Y-161032867D01*
X93507046Y-161241489D01*
X93507044Y-161241492D01*
X93413411Y-161467544D01*
X93413411Y-161467546D01*
X93356291Y-161705467D01*
X93337093Y-161949400D01*
X93356291Y-162193332D01*
X93413411Y-162431253D01*
X93413411Y-162431255D01*
X93507044Y-162657307D01*
X93507046Y-162657310D01*
X93634890Y-162865932D01*
X93634896Y-162865941D01*
X93793800Y-163051994D01*
X93793805Y-163051999D01*
X93979858Y-163210903D01*
X93979866Y-163210909D01*
X94104773Y-163287452D01*
X94151648Y-163339263D01*
X94163071Y-163408193D01*
X94135414Y-163472356D01*
X94077458Y-163511381D01*
X94059381Y-163515652D01*
X93286328Y-163638092D01*
X93283582Y-163638464D01*
X92403398Y-163737637D01*
X92400651Y-163737884D01*
X91516891Y-163797469D01*
X91514117Y-163797594D01*
X90628591Y-163817468D01*
X90625809Y-163817468D01*
X89740282Y-163797594D01*
X89737510Y-163797469D01*
X88853744Y-163737884D01*
X88851008Y-163737637D01*
X87970811Y-163638463D01*
X87968075Y-163638092D01*
X87762041Y-163605460D01*
X87114285Y-163502865D01*
X87051150Y-163472936D01*
X87014219Y-163413624D01*
X87015217Y-163343762D01*
X87053827Y-163285529D01*
X87068884Y-163274670D01*
X87172938Y-163210906D01*
X87358997Y-163051997D01*
X87517906Y-162865938D01*
X87645753Y-162657311D01*
X87645756Y-162657305D01*
X87739388Y-162431255D01*
X87739388Y-162431254D01*
X87739389Y-162431252D01*
X87796509Y-162193329D01*
X87815707Y-161949400D01*
X87796509Y-161705471D01*
X87739389Y-161467548D01*
X87739388Y-161467545D01*
X87739388Y-161467544D01*
X87645755Y-161241492D01*
X87645753Y-161241489D01*
X87517909Y-161032867D01*
X87517903Y-161032858D01*
X87358999Y-160846805D01*
X87358994Y-160846800D01*
X87172941Y-160687896D01*
X87172932Y-160687890D01*
X86964310Y-160560046D01*
X86964307Y-160560044D01*
X86738254Y-160466411D01*
X86500332Y-160409291D01*
X86256400Y-160390093D01*
X86012467Y-160409291D01*
X85774546Y-160466411D01*
X85774544Y-160466411D01*
X85548492Y-160560044D01*
X85548489Y-160560046D01*
X85339867Y-160687890D01*
X85339858Y-160687896D01*
X85153805Y-160846800D01*
X85153800Y-160846805D01*
X84994896Y-161032858D01*
X84994890Y-161032867D01*
X84867046Y-161241489D01*
X84867044Y-161241492D01*
X84773411Y-161467544D01*
X84773411Y-161467546D01*
X84716291Y-161705467D01*
X84697093Y-161949399D01*
X84716291Y-162193332D01*
X84773411Y-162431253D01*
X84773411Y-162431255D01*
X84867043Y-162657304D01*
X84921641Y-162746400D01*
X84939885Y-162813846D01*
X84918768Y-162880449D01*
X84864996Y-162925062D01*
X84795641Y-162933522D01*
X84780255Y-162929952D01*
X84510157Y-162848845D01*
X84507520Y-162847988D01*
X83671447Y-162555433D01*
X83668842Y-162554455D01*
X82846794Y-162224708D01*
X82844236Y-162223615D01*
X82482944Y-162059508D01*
X82037778Y-161857305D01*
X82035290Y-161856106D01*
X81246073Y-161453980D01*
X81243623Y-161452662D01*
X80473263Y-161015544D01*
X80470874Y-161014117D01*
X79720885Y-160542868D01*
X79718563Y-160541335D01*
X79669117Y-160507079D01*
X79001514Y-160044562D01*
X99718893Y-160044562D01*
X99737091Y-160182789D01*
X99790445Y-160311597D01*
X99875318Y-160422206D01*
X99985927Y-160507079D01*
X100114735Y-160560433D01*
X100252962Y-160578631D01*
X100391189Y-160560433D01*
X100519997Y-160507079D01*
X100630606Y-160422206D01*
X100715479Y-160311597D01*
X100768833Y-160182789D01*
X100787031Y-160044562D01*
X100768833Y-159906335D01*
X100715479Y-159777528D01*
X100715479Y-159777527D01*
X100630609Y-159666921D01*
X100630607Y-159666919D01*
X100630606Y-159666918D01*
X100519997Y-159582045D01*
X100391189Y-159528691D01*
X100252962Y-159510493D01*
X100114735Y-159528691D01*
X100114734Y-159528691D01*
X99985928Y-159582044D01*
X99875318Y-159666918D01*
X99790444Y-159777528D01*
X99737091Y-159906334D01*
X99737091Y-159906335D01*
X99718893Y-160044562D01*
X79001514Y-160044562D01*
X78990488Y-160036923D01*
X78988237Y-160035287D01*
X78504433Y-159666918D01*
X78283511Y-159498707D01*
X78281357Y-159496989D01*
X77601406Y-158929326D01*
X77599311Y-158927495D01*
X76945525Y-158329909D01*
X76943514Y-158327986D01*
X76723928Y-158108400D01*
X79628331Y-158108400D01*
X79636064Y-158167133D01*
X79646529Y-158246626D01*
X79646529Y-158246627D01*
X79694993Y-158363631D01*
X79699883Y-158375435D01*
X79784756Y-158486044D01*
X79895365Y-158570917D01*
X80024173Y-158624271D01*
X80162400Y-158642469D01*
X80300627Y-158624271D01*
X80429435Y-158570917D01*
X80540044Y-158486044D01*
X80556959Y-158464000D01*
X84708331Y-158464000D01*
X84726529Y-158602226D01*
X84726529Y-158602227D01*
X84735659Y-158624270D01*
X84779883Y-158731035D01*
X84864756Y-158841644D01*
X84975365Y-158926517D01*
X85104173Y-158979871D01*
X85242400Y-158998069D01*
X85380627Y-158979871D01*
X85509435Y-158926517D01*
X85620044Y-158841644D01*
X85704917Y-158731035D01*
X85710316Y-158718000D01*
X96932331Y-158718000D01*
X96950529Y-158856226D01*
X96950529Y-158856227D01*
X97001743Y-158979870D01*
X97003883Y-158985035D01*
X97088756Y-159095644D01*
X97199365Y-159180517D01*
X97328173Y-159233871D01*
X97466400Y-159252069D01*
X97604627Y-159233871D01*
X97733435Y-159180517D01*
X97844044Y-159095644D01*
X97928917Y-158985035D01*
X97982271Y-158856227D01*
X98000469Y-158718000D01*
X97982271Y-158579773D01*
X97943447Y-158486044D01*
X97928917Y-158450965D01*
X97844047Y-158340359D01*
X97844045Y-158340357D01*
X97844044Y-158340356D01*
X97733435Y-158255483D01*
X97604627Y-158202129D01*
X97466400Y-158183931D01*
X97328173Y-158202129D01*
X97328172Y-158202129D01*
X97199366Y-158255482D01*
X97088756Y-158340356D01*
X97003882Y-158450966D01*
X96950529Y-158579772D01*
X96950529Y-158579773D01*
X96932331Y-158718000D01*
X85710316Y-158718000D01*
X85758271Y-158602227D01*
X85776469Y-158464000D01*
X85758271Y-158325773D01*
X85704917Y-158196966D01*
X85704917Y-158196965D01*
X85620047Y-158086359D01*
X85620045Y-158086357D01*
X85620044Y-158086356D01*
X85509435Y-158001483D01*
X85489935Y-157993406D01*
X85433846Y-157970173D01*
X85380627Y-157948129D01*
X85242400Y-157929931D01*
X85104173Y-157948129D01*
X85104172Y-157948129D01*
X84975366Y-158001482D01*
X84864756Y-158086356D01*
X84779882Y-158196966D01*
X84726529Y-158325772D01*
X84726529Y-158325773D01*
X84708331Y-158464000D01*
X80556959Y-158464000D01*
X80624917Y-158375435D01*
X80678271Y-158246627D01*
X80696469Y-158108400D01*
X80678271Y-157970173D01*
X80640500Y-157878987D01*
X80624917Y-157841365D01*
X80540047Y-157730759D01*
X80540045Y-157730757D01*
X80540044Y-157730756D01*
X80429435Y-157645883D01*
X80428353Y-157645435D01*
X80391706Y-157630255D01*
X80300627Y-157592529D01*
X80162400Y-157574331D01*
X80024173Y-157592529D01*
X80024172Y-157592529D01*
X79895366Y-157645882D01*
X79784756Y-157730756D01*
X79699882Y-157841366D01*
X79651255Y-157958763D01*
X79646529Y-157970173D01*
X79628331Y-158108400D01*
X76723928Y-158108400D01*
X76317213Y-157701685D01*
X76315290Y-157699674D01*
X75717704Y-157045888D01*
X75715873Y-157043793D01*
X75528704Y-156819600D01*
X79018731Y-156819600D01*
X79028431Y-156893282D01*
X79036929Y-156957826D01*
X79036929Y-156957827D01*
X79074986Y-157049706D01*
X79090283Y-157086635D01*
X79175156Y-157197244D01*
X79285765Y-157282117D01*
X79414573Y-157335471D01*
X79552800Y-157353669D01*
X79691027Y-157335471D01*
X79819835Y-157282117D01*
X79930444Y-157197244D01*
X80015317Y-157086635D01*
X80068671Y-156957827D01*
X80086869Y-156819600D01*
X80068671Y-156681373D01*
X80030574Y-156589401D01*
X84946917Y-156589401D01*
X84966810Y-156816783D01*
X84966812Y-156816794D01*
X85025885Y-157037262D01*
X85025887Y-157037266D01*
X85025888Y-157037270D01*
X85054258Y-157098110D01*
X85122353Y-157244141D01*
X85122355Y-157244145D01*
X85253272Y-157431112D01*
X85253281Y-157431122D01*
X85414677Y-157592518D01*
X85414687Y-157592527D01*
X85601654Y-157723444D01*
X85601658Y-157723446D01*
X85808530Y-157819912D01*
X86029011Y-157878989D01*
X86191431Y-157893199D01*
X86256398Y-157898883D01*
X86256400Y-157898883D01*
X86256402Y-157898883D01*
X86313247Y-157893909D01*
X86483789Y-157878989D01*
X86704270Y-157819912D01*
X86911142Y-157723446D01*
X86943634Y-157700695D01*
X87098112Y-157592527D01*
X87098112Y-157592526D01*
X87098119Y-157592522D01*
X87259522Y-157431119D01*
X87390446Y-157244142D01*
X87486912Y-157037270D01*
X87545989Y-156816789D01*
X87565883Y-156589400D01*
X87565729Y-156587645D01*
X87553375Y-156446433D01*
X87545989Y-156362011D01*
X87497059Y-156179400D01*
X89618833Y-156179400D01*
X89632805Y-156285531D01*
X89637031Y-156317626D01*
X89637031Y-156317627D01*
X89655417Y-156362016D01*
X89690385Y-156446435D01*
X89775258Y-156557044D01*
X89885867Y-156641917D01*
X90014675Y-156695271D01*
X90152902Y-156713469D01*
X90218170Y-156704876D01*
X90287204Y-156715641D01*
X90339460Y-156762021D01*
X90358346Y-156829290D01*
X90357294Y-156844000D01*
X90347831Y-156915882D01*
X90347131Y-156921200D01*
X90361654Y-157031508D01*
X90365329Y-157059426D01*
X90365329Y-157059427D01*
X90404892Y-157154942D01*
X90418683Y-157188235D01*
X90503556Y-157298844D01*
X90614165Y-157383717D01*
X90742973Y-157437071D01*
X90881200Y-157455269D01*
X91019427Y-157437071D01*
X91148235Y-157383717D01*
X91258844Y-157298844D01*
X91343717Y-157188235D01*
X91397071Y-157059427D01*
X91415269Y-156921200D01*
X91397071Y-156782973D01*
X91363788Y-156702623D01*
X91356320Y-156633156D01*
X91378222Y-156589401D01*
X93586917Y-156589401D01*
X93606810Y-156816783D01*
X93606812Y-156816794D01*
X93665885Y-157037262D01*
X93665887Y-157037266D01*
X93665888Y-157037270D01*
X93694258Y-157098110D01*
X93762353Y-157244141D01*
X93762355Y-157244145D01*
X93893272Y-157431112D01*
X93893281Y-157431122D01*
X94054677Y-157592518D01*
X94054687Y-157592527D01*
X94241654Y-157723444D01*
X94241658Y-157723446D01*
X94448530Y-157819912D01*
X94669011Y-157878989D01*
X94831431Y-157893199D01*
X94896398Y-157898883D01*
X94896400Y-157898883D01*
X94896402Y-157898883D01*
X94953247Y-157893909D01*
X95123789Y-157878989D01*
X95212668Y-157855174D01*
X95282516Y-157856837D01*
X95340379Y-157895999D01*
X95367699Y-157958763D01*
X95372260Y-157993404D01*
X95372261Y-157993409D01*
X95433168Y-158140455D01*
X95433169Y-158140457D01*
X95433170Y-158140458D01*
X95530066Y-158266734D01*
X95656342Y-158363630D01*
X95803394Y-158424540D01*
X95942840Y-158442898D01*
X95961199Y-158445316D01*
X95961200Y-158445316D01*
X95961201Y-158445316D01*
X95977646Y-158443150D01*
X96119006Y-158424540D01*
X96266058Y-158363630D01*
X96392334Y-158266734D01*
X96489230Y-158140458D01*
X96550140Y-157993406D01*
X96570916Y-157835600D01*
X96550140Y-157677794D01*
X96489230Y-157530742D01*
X96392334Y-157404466D01*
X96358364Y-157378400D01*
X97916331Y-157378400D01*
X97923587Y-157433518D01*
X97934529Y-157516626D01*
X97934529Y-157516627D01*
X97982759Y-157633066D01*
X97987883Y-157645435D01*
X98072756Y-157756044D01*
X98183365Y-157840917D01*
X98312173Y-157894271D01*
X98450400Y-157912469D01*
X98544352Y-157900100D01*
X100411223Y-157900100D01*
X100429421Y-158038326D01*
X100429421Y-158038327D01*
X100461162Y-158114958D01*
X100482775Y-158167135D01*
X100567648Y-158277744D01*
X100678257Y-158362617D01*
X100807065Y-158415971D01*
X100945292Y-158434169D01*
X101083519Y-158415971D01*
X101083522Y-158415969D01*
X101086724Y-158415548D01*
X101155759Y-158426313D01*
X101208015Y-158472693D01*
X101226901Y-158539962D01*
X101217471Y-158585939D01*
X101185730Y-158662569D01*
X101185729Y-158662573D01*
X101167531Y-158800800D01*
X101185729Y-158939026D01*
X101185729Y-158939027D01*
X101210184Y-158998068D01*
X101239083Y-159067835D01*
X101323956Y-159178444D01*
X101434565Y-159263317D01*
X101563373Y-159316671D01*
X101701600Y-159334869D01*
X101839827Y-159316671D01*
X101968635Y-159263317D01*
X102079244Y-159178444D01*
X102164117Y-159067835D01*
X102217471Y-158939027D01*
X102235669Y-158800800D01*
X102217471Y-158662573D01*
X102183174Y-158579773D01*
X102164117Y-158533765D01*
X102079247Y-158423159D01*
X102079245Y-158423157D01*
X102079244Y-158423156D01*
X101968635Y-158338283D01*
X101948418Y-158329909D01*
X101930906Y-158322655D01*
X101839827Y-158284929D01*
X101701600Y-158266731D01*
X101701599Y-158266731D01*
X101560166Y-158285351D01*
X101491131Y-158274585D01*
X101438875Y-158228205D01*
X101419990Y-158160936D01*
X101429418Y-158114964D01*
X101461163Y-158038327D01*
X101479361Y-157900100D01*
X101461163Y-157761873D01*
X101413118Y-157645882D01*
X101407809Y-157633065D01*
X101322937Y-157522457D01*
X101284761Y-157493163D01*
X101243559Y-157436735D01*
X101239404Y-157366989D01*
X101273617Y-157306069D01*
X101301910Y-157287413D01*
X101301198Y-157286180D01*
X101308230Y-157282120D01*
X101308232Y-157282117D01*
X101308235Y-157282117D01*
X101418844Y-157197244D01*
X101503717Y-157086635D01*
X101557071Y-156957827D01*
X101575269Y-156819600D01*
X101557071Y-156681373D01*
X101518974Y-156589400D01*
X101503717Y-156552565D01*
X101475382Y-156515638D01*
X102438369Y-156515638D01*
X102456567Y-156653864D01*
X102456567Y-156653865D01*
X102473717Y-156695270D01*
X102509921Y-156782673D01*
X102594794Y-156893282D01*
X102705403Y-156978155D01*
X102834211Y-157031509D01*
X102972438Y-157049707D01*
X103110665Y-157031509D01*
X103239473Y-156978155D01*
X103350082Y-156893282D01*
X103434955Y-156782673D01*
X103488309Y-156653865D01*
X103506507Y-156515638D01*
X103506397Y-156514800D01*
X104293832Y-156514800D01*
X104310104Y-156638393D01*
X104312030Y-156653026D01*
X104312030Y-156653027D01*
X104342202Y-156725870D01*
X104365384Y-156781835D01*
X104450257Y-156892444D01*
X104560866Y-156977317D01*
X104689674Y-157030671D01*
X104827901Y-157048869D01*
X104966128Y-157030671D01*
X105094936Y-156977317D01*
X105205545Y-156892444D01*
X105290418Y-156781835D01*
X105343772Y-156653027D01*
X105361970Y-156514800D01*
X105343772Y-156376573D01*
X105306061Y-156285531D01*
X105290418Y-156247765D01*
X105205548Y-156137159D01*
X105205546Y-156137157D01*
X105205545Y-156137156D01*
X105094936Y-156052283D01*
X104966128Y-155998929D01*
X104827901Y-155980731D01*
X104689674Y-155998929D01*
X104689673Y-155998929D01*
X104560867Y-156052282D01*
X104450257Y-156137156D01*
X104365383Y-156247766D01*
X104317303Y-156363842D01*
X104312030Y-156376573D01*
X104293832Y-156514800D01*
X103506397Y-156514800D01*
X103488309Y-156377411D01*
X103434955Y-156248604D01*
X103434955Y-156248603D01*
X103350085Y-156137997D01*
X103350083Y-156137995D01*
X103350082Y-156137994D01*
X103239473Y-156053121D01*
X103237447Y-156052282D01*
X103201744Y-156037493D01*
X103110665Y-155999767D01*
X102972438Y-155981569D01*
X102834211Y-155999767D01*
X102834210Y-155999767D01*
X102705404Y-156053120D01*
X102594794Y-156137994D01*
X102509920Y-156248604D01*
X102456567Y-156377410D01*
X102456567Y-156377411D01*
X102438369Y-156515638D01*
X101475382Y-156515638D01*
X101418847Y-156441959D01*
X101418845Y-156441957D01*
X101418844Y-156441956D01*
X101308235Y-156357083D01*
X101179427Y-156303729D01*
X101041200Y-156285531D01*
X100902973Y-156303729D01*
X100902972Y-156303729D01*
X100774166Y-156357082D01*
X100663556Y-156441956D01*
X100578682Y-156552566D01*
X100528997Y-156672517D01*
X100525329Y-156681373D01*
X100507131Y-156819600D01*
X100516831Y-156893282D01*
X100525329Y-156957826D01*
X100525329Y-156957827D01*
X100563386Y-157049706D01*
X100578683Y-157086635D01*
X100663556Y-157197244D01*
X100701731Y-157226536D01*
X100742932Y-157282963D01*
X100747087Y-157352709D01*
X100712875Y-157413630D01*
X100684587Y-157432289D01*
X100685297Y-157433518D01*
X100678261Y-157437580D01*
X100567648Y-157522456D01*
X100482774Y-157633066D01*
X100429421Y-157761872D01*
X100429421Y-157761873D01*
X100411223Y-157900100D01*
X98544352Y-157900100D01*
X98588627Y-157894271D01*
X98717435Y-157840917D01*
X98828044Y-157756044D01*
X98912917Y-157645435D01*
X98966271Y-157516627D01*
X98984469Y-157378400D01*
X98966271Y-157240173D01*
X98912917Y-157111366D01*
X98912917Y-157111365D01*
X98828046Y-157000757D01*
X98761905Y-156950006D01*
X98720702Y-156893578D01*
X98716547Y-156823832D01*
X98750759Y-156762912D01*
X98812477Y-156730159D01*
X98821202Y-156728691D01*
X98842627Y-156725871D01*
X98971435Y-156672517D01*
X99082044Y-156587644D01*
X99166917Y-156477035D01*
X99220271Y-156348227D01*
X99238469Y-156210000D01*
X99220271Y-156071773D01*
X99166917Y-155942966D01*
X99166917Y-155942965D01*
X99082047Y-155832359D01*
X99082045Y-155832357D01*
X99082044Y-155832356D01*
X98971435Y-155747483D01*
X98842627Y-155694129D01*
X98704400Y-155675931D01*
X98566173Y-155694129D01*
X98566172Y-155694129D01*
X98437366Y-155747482D01*
X98326756Y-155832356D01*
X98241882Y-155942966D01*
X98188529Y-156071772D01*
X98188529Y-156071773D01*
X98170331Y-156210000D01*
X98184500Y-156317627D01*
X98188529Y-156348226D01*
X98188529Y-156348227D01*
X98194238Y-156362011D01*
X98241883Y-156477035D01*
X98303661Y-156557546D01*
X98326757Y-156587645D01*
X98355092Y-156609387D01*
X98377678Y-156626718D01*
X98392894Y-156638393D01*
X98434097Y-156694821D01*
X98438252Y-156764567D01*
X98404040Y-156825487D01*
X98342323Y-156858240D01*
X98333598Y-156859708D01*
X98312172Y-156862529D01*
X98183366Y-156915882D01*
X98072756Y-157000756D01*
X97987882Y-157111366D01*
X97934529Y-157240172D01*
X97934529Y-157240173D01*
X97916331Y-157378400D01*
X96358364Y-157378400D01*
X96266058Y-157307570D01*
X96266057Y-157307569D01*
X96266055Y-157307568D01*
X96163470Y-157265077D01*
X96109066Y-157221237D01*
X96087001Y-157154942D01*
X96098540Y-157098112D01*
X96126912Y-157037270D01*
X96185989Y-156816789D01*
X96205883Y-156589400D01*
X96205729Y-156587645D01*
X96193375Y-156446433D01*
X96185989Y-156362011D01*
X96126912Y-156141530D01*
X96030446Y-155934659D01*
X96030444Y-155934655D01*
X95928181Y-155788610D01*
X95899522Y-155747681D01*
X95738119Y-155586278D01*
X95738117Y-155586276D01*
X95738112Y-155586272D01*
X95551145Y-155455355D01*
X95551141Y-155455353D01*
X95447705Y-155407121D01*
X95344270Y-155358888D01*
X95344266Y-155358887D01*
X95344262Y-155358885D01*
X95123794Y-155299812D01*
X95123790Y-155299811D01*
X95123789Y-155299811D01*
X95123788Y-155299810D01*
X95123783Y-155299810D01*
X94896402Y-155279917D01*
X94896398Y-155279917D01*
X94669016Y-155299810D01*
X94669005Y-155299812D01*
X94448537Y-155358885D01*
X94448528Y-155358889D01*
X94241659Y-155455353D01*
X94241655Y-155455355D01*
X94054680Y-155586278D01*
X93893278Y-155747680D01*
X93762355Y-155934655D01*
X93762353Y-155934659D01*
X93707114Y-156053120D01*
X93667536Y-156137997D01*
X93665889Y-156141528D01*
X93665885Y-156141537D01*
X93606812Y-156362005D01*
X93606810Y-156362016D01*
X93586917Y-156589398D01*
X93586917Y-156589401D01*
X91378222Y-156589401D01*
X91387595Y-156570677D01*
X91402039Y-156557546D01*
X91402535Y-156557050D01*
X91402536Y-156557048D01*
X91402542Y-156557044D01*
X91487415Y-156446435D01*
X91540769Y-156317627D01*
X91558967Y-156179400D01*
X91540769Y-156041173D01*
X91496649Y-155934659D01*
X91487415Y-155912365D01*
X91402545Y-155801759D01*
X91402543Y-155801757D01*
X91402542Y-155801756D01*
X91291933Y-155716883D01*
X91163125Y-155663529D01*
X91024898Y-155645331D01*
X90886671Y-155663529D01*
X90886670Y-155663529D01*
X90757863Y-155716882D01*
X90664386Y-155788610D01*
X90599217Y-155813804D01*
X90530772Y-155799765D01*
X90513414Y-155788610D01*
X90419938Y-155716883D01*
X90321070Y-155675931D01*
X90291129Y-155663529D01*
X90152902Y-155645331D01*
X90014675Y-155663529D01*
X90014674Y-155663529D01*
X89885868Y-155716882D01*
X89775258Y-155801756D01*
X89690384Y-155912366D01*
X89637031Y-156041172D01*
X89637031Y-156041173D01*
X89618833Y-156179400D01*
X87497059Y-156179400D01*
X87486912Y-156141530D01*
X87390446Y-155934659D01*
X87390444Y-155934655D01*
X87288181Y-155788610D01*
X87259522Y-155747681D01*
X87098119Y-155586278D01*
X87098117Y-155586276D01*
X87098112Y-155586272D01*
X86911145Y-155455355D01*
X86911141Y-155455353D01*
X86807705Y-155407121D01*
X86704270Y-155358888D01*
X86704266Y-155358887D01*
X86704262Y-155358885D01*
X86483794Y-155299812D01*
X86483790Y-155299811D01*
X86483789Y-155299811D01*
X86483788Y-155299810D01*
X86483783Y-155299810D01*
X86256402Y-155279917D01*
X86256398Y-155279917D01*
X86029016Y-155299810D01*
X86029005Y-155299812D01*
X85808537Y-155358885D01*
X85808528Y-155358889D01*
X85601659Y-155455353D01*
X85601655Y-155455355D01*
X85414680Y-155586278D01*
X85253278Y-155747680D01*
X85122355Y-155934655D01*
X85122353Y-155934659D01*
X85067114Y-156053120D01*
X85027536Y-156137997D01*
X85025889Y-156141528D01*
X85025885Y-156141537D01*
X84966812Y-156362005D01*
X84966810Y-156362016D01*
X84946917Y-156589398D01*
X84946917Y-156589401D01*
X80030574Y-156589401D01*
X80030574Y-156589400D01*
X80015317Y-156552565D01*
X79930447Y-156441959D01*
X79930445Y-156441957D01*
X79930444Y-156441956D01*
X79819835Y-156357083D01*
X79691027Y-156303729D01*
X79552800Y-156285531D01*
X79414573Y-156303729D01*
X79414572Y-156303729D01*
X79285766Y-156357082D01*
X79175156Y-156441956D01*
X79090282Y-156552566D01*
X79040597Y-156672517D01*
X79036929Y-156681373D01*
X79018731Y-156819600D01*
X75528704Y-156819600D01*
X75148210Y-156363842D01*
X75146496Y-156361694D01*
X74729332Y-155813804D01*
X74609912Y-155656962D01*
X74608276Y-155654711D01*
X74560868Y-155586281D01*
X74103855Y-154926623D01*
X74102331Y-154924314D01*
X74066945Y-154867998D01*
X73920669Y-154635200D01*
X79291531Y-154635200D01*
X79303982Y-154729770D01*
X79309729Y-154773426D01*
X79309729Y-154773427D01*
X79348901Y-154867998D01*
X79363083Y-154902235D01*
X79447956Y-155012844D01*
X79558565Y-155097717D01*
X79687373Y-155151071D01*
X79825600Y-155169269D01*
X79963827Y-155151071D01*
X80092635Y-155097717D01*
X80203244Y-155012844D01*
X80288117Y-154902235D01*
X80341471Y-154773427D01*
X80359669Y-154635200D01*
X80341471Y-154496973D01*
X80288117Y-154368166D01*
X80288117Y-154368165D01*
X80275811Y-154352127D01*
X94314621Y-154352127D01*
X94332819Y-154490354D01*
X94386173Y-154619162D01*
X94471046Y-154729771D01*
X94581655Y-154814644D01*
X94710463Y-154867998D01*
X94848690Y-154886196D01*
X94986917Y-154867998D01*
X95115725Y-154814644D01*
X95226334Y-154729771D01*
X95311207Y-154619162D01*
X95346703Y-154533468D01*
X97077474Y-154533468D01*
X97095672Y-154671695D01*
X97149026Y-154800503D01*
X97233899Y-154911112D01*
X97344508Y-154995985D01*
X97473316Y-155049339D01*
X97611543Y-155067537D01*
X97749770Y-155049339D01*
X97878578Y-154995985D01*
X97989187Y-154911112D01*
X98074060Y-154800503D01*
X98127414Y-154671695D01*
X98145612Y-154533468D01*
X98127414Y-154395241D01*
X98074060Y-154266434D01*
X98074060Y-154266433D01*
X97989190Y-154155827D01*
X97989188Y-154155825D01*
X97989187Y-154155824D01*
X97878578Y-154070951D01*
X97749770Y-154017597D01*
X97611543Y-153999399D01*
X97473316Y-154017597D01*
X97473315Y-154017597D01*
X97344509Y-154070950D01*
X97233899Y-154155824D01*
X97149025Y-154266434D01*
X97095672Y-154395240D01*
X97095672Y-154395241D01*
X97077474Y-154533468D01*
X95346703Y-154533468D01*
X95364561Y-154490354D01*
X95382759Y-154352127D01*
X95364561Y-154213900D01*
X95311207Y-154085093D01*
X95311207Y-154085092D01*
X95226337Y-153974486D01*
X95226335Y-153974484D01*
X95226334Y-153974483D01*
X95115725Y-153889610D01*
X94986917Y-153836256D01*
X94848690Y-153818058D01*
X94710463Y-153836256D01*
X94710462Y-153836256D01*
X94581656Y-153889609D01*
X94471046Y-153974483D01*
X94386172Y-154085093D01*
X94341345Y-154193316D01*
X94332819Y-154213900D01*
X94314621Y-154352127D01*
X80275811Y-154352127D01*
X80203247Y-154257559D01*
X80203245Y-154257557D01*
X80203244Y-154257556D01*
X80092635Y-154172683D01*
X79963827Y-154119329D01*
X79825600Y-154101131D01*
X79687373Y-154119329D01*
X79687372Y-154119329D01*
X79558566Y-154172682D01*
X79447956Y-154257556D01*
X79363082Y-154368166D01*
X79309729Y-154496972D01*
X79309729Y-154496973D01*
X79291531Y-154635200D01*
X73920669Y-154635200D01*
X73631082Y-154174325D01*
X73629655Y-154171936D01*
X73331155Y-153645871D01*
X73192531Y-153401566D01*
X73191219Y-153399126D01*
X72957283Y-152940000D01*
X82727131Y-152940000D01*
X82745329Y-153078227D01*
X82798683Y-153207035D01*
X82883556Y-153317644D01*
X82994165Y-153402517D01*
X83122973Y-153455871D01*
X83261200Y-153474069D01*
X83399427Y-153455871D01*
X83528235Y-153402517D01*
X83638844Y-153317644D01*
X83723717Y-153207035D01*
X83777071Y-153078227D01*
X83795269Y-152940000D01*
X83792799Y-152921239D01*
X90601631Y-152921239D01*
X90619829Y-153059466D01*
X90673183Y-153188274D01*
X90758056Y-153298883D01*
X90868665Y-153383756D01*
X90997473Y-153437110D01*
X91135700Y-153455308D01*
X91273927Y-153437110D01*
X91402735Y-153383756D01*
X91513344Y-153298883D01*
X91598217Y-153188274D01*
X91622355Y-153130000D01*
X96493931Y-153130000D01*
X96512129Y-153268227D01*
X96565483Y-153397035D01*
X96650356Y-153507644D01*
X96760965Y-153592517D01*
X96889773Y-153645871D01*
X97028000Y-153664069D01*
X97166227Y-153645871D01*
X97295035Y-153592517D01*
X97392669Y-153517600D01*
X103097931Y-153517600D01*
X103116129Y-153655827D01*
X103169483Y-153784635D01*
X103254356Y-153895244D01*
X103364965Y-153980117D01*
X103493773Y-154033471D01*
X103632000Y-154051669D01*
X103640059Y-154052730D01*
X103639818Y-154054556D01*
X103697025Y-154071354D01*
X103742780Y-154124158D01*
X103752724Y-154193316D01*
X103723699Y-154256872D01*
X103705472Y-154274045D01*
X103660756Y-154308356D01*
X103575882Y-154418966D01*
X103528454Y-154533468D01*
X103522529Y-154547773D01*
X103504331Y-154686000D01*
X103519405Y-154800501D01*
X103522529Y-154824226D01*
X103522529Y-154824227D01*
X103558517Y-154911111D01*
X103575883Y-154953035D01*
X103660756Y-155063644D01*
X103771365Y-155148517D01*
X103900173Y-155201871D01*
X104038400Y-155220069D01*
X104176627Y-155201871D01*
X104305435Y-155148517D01*
X104416044Y-155063644D01*
X104500917Y-154953035D01*
X104554271Y-154824227D01*
X104572469Y-154686000D01*
X104554271Y-154547773D01*
X104500917Y-154418966D01*
X104500917Y-154418965D01*
X104416047Y-154308359D01*
X104416045Y-154308357D01*
X104416044Y-154308356D01*
X104305435Y-154223483D01*
X104176627Y-154170129D01*
X104038400Y-154151931D01*
X104030341Y-154150870D01*
X104030581Y-154149043D01*
X103973376Y-154132246D01*
X103927621Y-154079442D01*
X103917677Y-154010284D01*
X103946702Y-153946728D01*
X103964924Y-153929558D01*
X104009644Y-153895244D01*
X104094517Y-153784635D01*
X104147871Y-153655827D01*
X104166069Y-153517600D01*
X104147871Y-153379373D01*
X104114530Y-153298882D01*
X104094517Y-153250565D01*
X104009647Y-153139959D01*
X104009645Y-153139957D01*
X104009644Y-153139956D01*
X103899035Y-153055083D01*
X103770227Y-153001729D01*
X103632000Y-152983531D01*
X103493773Y-153001729D01*
X103493772Y-153001729D01*
X103364966Y-153055082D01*
X103254356Y-153139956D01*
X103169482Y-153250566D01*
X103116129Y-153379372D01*
X103116129Y-153379373D01*
X103097931Y-153517600D01*
X97392669Y-153517600D01*
X97405644Y-153507644D01*
X97490517Y-153397035D01*
X97543871Y-153268227D01*
X97562069Y-153130000D01*
X97543871Y-152991773D01*
X97490517Y-152862966D01*
X97490517Y-152862965D01*
X97405647Y-152752359D01*
X97405645Y-152752357D01*
X97405644Y-152752356D01*
X97295035Y-152667483D01*
X97166227Y-152614129D01*
X97028000Y-152595931D01*
X96889773Y-152614129D01*
X96889772Y-152614129D01*
X96760966Y-152667482D01*
X96650356Y-152752356D01*
X96565482Y-152862966D01*
X96541345Y-152921239D01*
X96512129Y-152991773D01*
X96493931Y-153130000D01*
X91622355Y-153130000D01*
X91651571Y-153059466D01*
X91669769Y-152921239D01*
X91651571Y-152783012D01*
X91603717Y-152667482D01*
X91598217Y-152654204D01*
X91513347Y-152543598D01*
X91513345Y-152543596D01*
X91513344Y-152543595D01*
X91402735Y-152458722D01*
X91273927Y-152405368D01*
X91135700Y-152387170D01*
X90997473Y-152405368D01*
X90997472Y-152405368D01*
X90868666Y-152458721D01*
X90758056Y-152543595D01*
X90673182Y-152654205D01*
X90619829Y-152783011D01*
X90619829Y-152783012D01*
X90601631Y-152921239D01*
X83792799Y-152921239D01*
X83777071Y-152801773D01*
X83723717Y-152672966D01*
X83723717Y-152672965D01*
X83638847Y-152562359D01*
X83638845Y-152562357D01*
X83638844Y-152562356D01*
X83528235Y-152477483D01*
X83399427Y-152424129D01*
X83261200Y-152405931D01*
X83122973Y-152424129D01*
X83122972Y-152424129D01*
X82994166Y-152477482D01*
X82883556Y-152562356D01*
X82798682Y-152672966D01*
X82745329Y-152801772D01*
X82745329Y-152801773D01*
X82727131Y-152940000D01*
X72957283Y-152940000D01*
X72789093Y-152609909D01*
X72787903Y-152607440D01*
X72639173Y-152280000D01*
X91764631Y-152280000D01*
X91782829Y-152418227D01*
X91836183Y-152547035D01*
X91921056Y-152657644D01*
X92031665Y-152742517D01*
X92160473Y-152795871D01*
X92298700Y-152814069D01*
X92436927Y-152795871D01*
X92565735Y-152742517D01*
X92676344Y-152657644D01*
X92761217Y-152547035D01*
X92814571Y-152418227D01*
X92832769Y-152280000D01*
X92814571Y-152141773D01*
X92761217Y-152012966D01*
X92761217Y-152012965D01*
X92676347Y-151902359D01*
X92676345Y-151902357D01*
X92676344Y-151902356D01*
X92596644Y-151841200D01*
X99897531Y-151841200D01*
X99915729Y-151979427D01*
X99969083Y-152108235D01*
X100053956Y-152218844D01*
X100164565Y-152303717D01*
X100293373Y-152357071D01*
X100431600Y-152375269D01*
X100569827Y-152357071D01*
X100698635Y-152303717D01*
X100809244Y-152218844D01*
X100894117Y-152108235D01*
X100947471Y-151979427D01*
X100965669Y-151841200D01*
X100956506Y-151771600D01*
X106196731Y-151771600D01*
X106213945Y-151902356D01*
X106214929Y-151909826D01*
X106214929Y-151909827D01*
X106257650Y-152012966D01*
X106268283Y-152038635D01*
X106353156Y-152149244D01*
X106463765Y-152234117D01*
X106592573Y-152287471D01*
X106730800Y-152305669D01*
X106869027Y-152287471D01*
X106997835Y-152234117D01*
X107108444Y-152149244D01*
X107193317Y-152038635D01*
X107246671Y-151909827D01*
X107264869Y-151771600D01*
X107246671Y-151633373D01*
X107193317Y-151504566D01*
X107193317Y-151504565D01*
X107108447Y-151393959D01*
X107108445Y-151393957D01*
X107108444Y-151393956D01*
X106997835Y-151309083D01*
X106993122Y-151307131D01*
X106960106Y-151293455D01*
X106869027Y-151255729D01*
X106730800Y-151237531D01*
X106592573Y-151255729D01*
X106592572Y-151255729D01*
X106463766Y-151309082D01*
X106353156Y-151393956D01*
X106268282Y-151504566D01*
X106231852Y-151592517D01*
X106214929Y-151633373D01*
X106196731Y-151771600D01*
X100956506Y-151771600D01*
X100947471Y-151702973D01*
X100916216Y-151627519D01*
X100894117Y-151574165D01*
X100809247Y-151463559D01*
X100809245Y-151463557D01*
X100809244Y-151463556D01*
X100698635Y-151378683D01*
X100569827Y-151325329D01*
X100431600Y-151307131D01*
X100293373Y-151325329D01*
X100293372Y-151325329D01*
X100164566Y-151378682D01*
X100053956Y-151463556D01*
X99969082Y-151574166D01*
X99915729Y-151702972D01*
X99915729Y-151702973D01*
X99897531Y-151841200D01*
X92596644Y-151841200D01*
X92565735Y-151817483D01*
X92436927Y-151764129D01*
X92298700Y-151745931D01*
X92160473Y-151764129D01*
X92160472Y-151764129D01*
X92031666Y-151817482D01*
X91921056Y-151902356D01*
X91836182Y-152012966D01*
X91782829Y-152141772D01*
X91782829Y-152141773D01*
X91764631Y-152280000D01*
X72639173Y-152280000D01*
X72421581Y-151800957D01*
X72420491Y-151798405D01*
X72152375Y-151130000D01*
X83692331Y-151130000D01*
X83710529Y-151268226D01*
X83710529Y-151268227D01*
X83762607Y-151393956D01*
X83763883Y-151397035D01*
X83848756Y-151507644D01*
X83959365Y-151592517D01*
X84088173Y-151645871D01*
X84226400Y-151664069D01*
X84364627Y-151645871D01*
X84493435Y-151592517D01*
X84604044Y-151507644D01*
X84688917Y-151397035D01*
X84742271Y-151268227D01*
X84760469Y-151130000D01*
X84742271Y-150991773D01*
X84699715Y-150889035D01*
X84688917Y-150862965D01*
X84604047Y-150752359D01*
X84604045Y-150752357D01*
X84604044Y-150752356D01*
X84493435Y-150667483D01*
X84383629Y-150622000D01*
X85216331Y-150622000D01*
X85234529Y-150760227D01*
X85287883Y-150889035D01*
X85372756Y-150999644D01*
X85483365Y-151084517D01*
X85612173Y-151137871D01*
X85750400Y-151156069D01*
X85888627Y-151137871D01*
X86017435Y-151084517D01*
X86128044Y-150999644D01*
X86212917Y-150889035D01*
X86266271Y-150760227D01*
X86284469Y-150622000D01*
X86266271Y-150483773D01*
X86229114Y-150394069D01*
X86212917Y-150354965D01*
X86128047Y-150244359D01*
X86128045Y-150244357D01*
X86128044Y-150244356D01*
X86024364Y-150164800D01*
X87502331Y-150164800D01*
X87516384Y-150271546D01*
X87520529Y-150303026D01*
X87520529Y-150303027D01*
X87550701Y-150375870D01*
X87573883Y-150431835D01*
X87658756Y-150542444D01*
X87769365Y-150627317D01*
X87898173Y-150680671D01*
X88036400Y-150698869D01*
X88174627Y-150680671D01*
X88303435Y-150627317D01*
X88414044Y-150542444D01*
X88498917Y-150431835D01*
X88552271Y-150303027D01*
X88570469Y-150164800D01*
X88563781Y-150114000D01*
X89686731Y-150114000D01*
X89696298Y-150186672D01*
X89704929Y-150252226D01*
X89704929Y-150252227D01*
X89756143Y-150375870D01*
X89758283Y-150381035D01*
X89843156Y-150491644D01*
X89953765Y-150576517D01*
X90082573Y-150629871D01*
X90220800Y-150648069D01*
X90359027Y-150629871D01*
X90487835Y-150576517D01*
X90598444Y-150491644D01*
X90654339Y-150418800D01*
X91007531Y-150418800D01*
X91017970Y-150498087D01*
X91025729Y-150557026D01*
X91025729Y-150557027D01*
X91076943Y-150680670D01*
X91079083Y-150685835D01*
X91163956Y-150796444D01*
X91274565Y-150881317D01*
X91403373Y-150934671D01*
X91541600Y-150952869D01*
X91679827Y-150934671D01*
X91808635Y-150881317D01*
X91919244Y-150796444D01*
X92004117Y-150685835D01*
X92057471Y-150557027D01*
X92065230Y-150498084D01*
X92093496Y-150434190D01*
X92151820Y-150395718D01*
X92171975Y-150391333D01*
X92289427Y-150375871D01*
X92418235Y-150322517D01*
X92425164Y-150317200D01*
X94030684Y-150317200D01*
X94039414Y-150383513D01*
X94051460Y-150475005D01*
X94051461Y-150475009D01*
X94112368Y-150622055D01*
X94112369Y-150622057D01*
X94112370Y-150622058D01*
X94209266Y-150748334D01*
X94335542Y-150845230D01*
X94482594Y-150906140D01*
X94622040Y-150924498D01*
X94640399Y-150926916D01*
X94640400Y-150926916D01*
X94640401Y-150926916D01*
X94656846Y-150924750D01*
X94798206Y-150906140D01*
X94945258Y-150845230D01*
X95071534Y-150748334D01*
X95168430Y-150622058D01*
X95229340Y-150475006D01*
X95250116Y-150317200D01*
X95229340Y-150159394D01*
X95172273Y-150021620D01*
X95168431Y-150012344D01*
X95168430Y-150012343D01*
X95168430Y-150012342D01*
X95071534Y-149886066D01*
X94971138Y-149809029D01*
X98629037Y-149809029D01*
X98645867Y-149936868D01*
X98647235Y-149947255D01*
X98647235Y-149947256D01*
X98678037Y-150021620D01*
X98700589Y-150076064D01*
X98785462Y-150186673D01*
X98896071Y-150271546D01*
X99024879Y-150324900D01*
X99163106Y-150343098D01*
X99301333Y-150324900D01*
X99430141Y-150271546D01*
X99540750Y-150186673D01*
X99625623Y-150076064D01*
X99678977Y-149947256D01*
X99697175Y-149809029D01*
X99678977Y-149670802D01*
X99625623Y-149541995D01*
X99625623Y-149541994D01*
X99540753Y-149431388D01*
X99540751Y-149431386D01*
X99540750Y-149431385D01*
X99430141Y-149346512D01*
X99416061Y-149340680D01*
X99362432Y-149318466D01*
X99301333Y-149293158D01*
X99163106Y-149274960D01*
X99024879Y-149293158D01*
X99024878Y-149293158D01*
X98896072Y-149346511D01*
X98785462Y-149431385D01*
X98700588Y-149541995D01*
X98647235Y-149670801D01*
X98647235Y-149670802D01*
X98629037Y-149809029D01*
X94971138Y-149809029D01*
X94945258Y-149789170D01*
X94945257Y-149789169D01*
X94945255Y-149789168D01*
X94798209Y-149728261D01*
X94798207Y-149728260D01*
X94798206Y-149728260D01*
X94719302Y-149717872D01*
X94640401Y-149707484D01*
X94640399Y-149707484D01*
X94482594Y-149728260D01*
X94482590Y-149728261D01*
X94335544Y-149789168D01*
X94209266Y-149886066D01*
X94112368Y-150012344D01*
X94051461Y-150159390D01*
X94051460Y-150159394D01*
X94036695Y-150271546D01*
X94030684Y-150317200D01*
X92425164Y-150317200D01*
X92528844Y-150237644D01*
X92613717Y-150127035D01*
X92667071Y-149998227D01*
X92685269Y-149860000D01*
X92667071Y-149721773D01*
X92619116Y-149606000D01*
X92613717Y-149592965D01*
X92528847Y-149482359D01*
X92528845Y-149482357D01*
X92528844Y-149482356D01*
X92418235Y-149397483D01*
X92289427Y-149344129D01*
X92151200Y-149325931D01*
X92012973Y-149344129D01*
X92012972Y-149344129D01*
X91884166Y-149397482D01*
X91773556Y-149482356D01*
X91688682Y-149592966D01*
X91635329Y-149721772D01*
X91635329Y-149721774D01*
X91627569Y-149780714D01*
X91599302Y-149844611D01*
X91540977Y-149883081D01*
X91520816Y-149887467D01*
X91403373Y-149902929D01*
X91403372Y-149902929D01*
X91274566Y-149956282D01*
X91163956Y-150041156D01*
X91079082Y-150151766D01*
X91025729Y-150280572D01*
X91025729Y-150280573D01*
X91017498Y-150343097D01*
X91007531Y-150418800D01*
X90654339Y-150418800D01*
X90683317Y-150381035D01*
X90736671Y-150252227D01*
X90754869Y-150114000D01*
X90736671Y-149975773D01*
X90698960Y-149884731D01*
X90683317Y-149846965D01*
X90598447Y-149736359D01*
X90598445Y-149736357D01*
X90598444Y-149736356D01*
X90487835Y-149651483D01*
X90359027Y-149598129D01*
X90220800Y-149579931D01*
X90082573Y-149598129D01*
X90082572Y-149598129D01*
X89953766Y-149651482D01*
X89843156Y-149736356D01*
X89758282Y-149846966D01*
X89704929Y-149975772D01*
X89704929Y-149975773D01*
X89686731Y-150114000D01*
X88563781Y-150114000D01*
X88552271Y-150026573D01*
X88498917Y-149897766D01*
X88498917Y-149897765D01*
X88414047Y-149787159D01*
X88414045Y-149787157D01*
X88414044Y-149787156D01*
X88303435Y-149702283D01*
X88174627Y-149648929D01*
X88036400Y-149630731D01*
X87898173Y-149648929D01*
X87898172Y-149648929D01*
X87769366Y-149702282D01*
X87658756Y-149787156D01*
X87573882Y-149897766D01*
X87520529Y-150026572D01*
X87520529Y-150026573D01*
X87502331Y-150164800D01*
X86024364Y-150164800D01*
X86017435Y-150159483D01*
X86017220Y-150159394D01*
X85958407Y-150135033D01*
X85888627Y-150106129D01*
X85750400Y-150087931D01*
X85612173Y-150106129D01*
X85612172Y-150106129D01*
X85483366Y-150159482D01*
X85372756Y-150244356D01*
X85287882Y-150354966D01*
X85238160Y-150475006D01*
X85234529Y-150483773D01*
X85216331Y-150622000D01*
X84383629Y-150622000D01*
X84364627Y-150614129D01*
X84226400Y-150595931D01*
X84088173Y-150614129D01*
X84088172Y-150614129D01*
X83959366Y-150667482D01*
X83848756Y-150752356D01*
X83763882Y-150862966D01*
X83710529Y-150991772D01*
X83710529Y-150991773D01*
X83692331Y-151130000D01*
X72152375Y-151130000D01*
X72090744Y-150976357D01*
X72089766Y-150973752D01*
X71797211Y-150137679D01*
X71796362Y-150135069D01*
X71734198Y-149928054D01*
X71733771Y-149858188D01*
X71771185Y-149799180D01*
X71834562Y-149769766D01*
X71903780Y-149779287D01*
X71928446Y-149794018D01*
X72021363Y-149865316D01*
X72021364Y-149865316D01*
X72021365Y-149865317D01*
X72150173Y-149918671D01*
X72288400Y-149936869D01*
X72426627Y-149918671D01*
X72555435Y-149865317D01*
X72666044Y-149780444D01*
X72750917Y-149669835D01*
X72777358Y-149606000D01*
X79723831Y-149606000D01*
X79732363Y-149670802D01*
X79742029Y-149744226D01*
X79742029Y-149744227D01*
X79795383Y-149873036D01*
X79852748Y-149947795D01*
X79877942Y-150012964D01*
X79863904Y-150081409D01*
X79852749Y-150098765D01*
X79801586Y-150165444D01*
X79748232Y-150294252D01*
X79748232Y-150294253D01*
X79730034Y-150432479D01*
X79748232Y-150570706D01*
X79748232Y-150570707D01*
X79795919Y-150685835D01*
X79801586Y-150699515D01*
X79886459Y-150810124D01*
X79997068Y-150894997D01*
X80125876Y-150948351D01*
X80264103Y-150966549D01*
X80402330Y-150948351D01*
X80531138Y-150894997D01*
X80641747Y-150810124D01*
X80726620Y-150699515D01*
X80779974Y-150570707D01*
X80798172Y-150432480D01*
X80779974Y-150294253D01*
X80726620Y-150165446D01*
X80669251Y-150090680D01*
X80644059Y-150025516D01*
X80658097Y-149957071D01*
X80669249Y-149939717D01*
X80720417Y-149873035D01*
X80773771Y-149744227D01*
X80791969Y-149606000D01*
X80773771Y-149467773D01*
X80731215Y-149365035D01*
X80720417Y-149338965D01*
X80635547Y-149228359D01*
X80635545Y-149228357D01*
X80635544Y-149228356D01*
X80524935Y-149143483D01*
X80396127Y-149090129D01*
X80257900Y-149071931D01*
X80119673Y-149090129D01*
X80119672Y-149090129D01*
X79990866Y-149143482D01*
X79880256Y-149228356D01*
X79795382Y-149338966D01*
X79757100Y-149431388D01*
X79742029Y-149467773D01*
X79723831Y-149606000D01*
X72777358Y-149606000D01*
X72804271Y-149541027D01*
X72822469Y-149402800D01*
X72804271Y-149264573D01*
X72750917Y-149135766D01*
X72750917Y-149135765D01*
X72666047Y-149025159D01*
X72666045Y-149025157D01*
X72666044Y-149025156D01*
X72555435Y-148940283D01*
X72426627Y-148886929D01*
X72288400Y-148868731D01*
X72150173Y-148886929D01*
X72150172Y-148886929D01*
X72021366Y-148940282D01*
X71910756Y-149025156D01*
X71825882Y-149135766D01*
X71822686Y-149143483D01*
X71772530Y-149264572D01*
X71769419Y-149272082D01*
X71766674Y-149270945D01*
X71737699Y-149318466D01*
X71674847Y-149348985D01*
X71605473Y-149340680D01*
X71551602Y-149296186D01*
X71534062Y-149256997D01*
X71365993Y-148590000D01*
X81069531Y-148590000D01*
X81087729Y-148728227D01*
X81141083Y-148857035D01*
X81225956Y-148967644D01*
X81336565Y-149052517D01*
X81465373Y-149105871D01*
X81603600Y-149124069D01*
X81741827Y-149105871D01*
X81870635Y-149052517D01*
X81981244Y-148967644D01*
X82066117Y-148857035D01*
X82119471Y-148728227D01*
X82121818Y-148710400D01*
X84759131Y-148710400D01*
X84777329Y-148848627D01*
X84830683Y-148977435D01*
X84915556Y-149088044D01*
X85026165Y-149172917D01*
X85154973Y-149226271D01*
X85293200Y-149244469D01*
X85431427Y-149226271D01*
X85560235Y-149172917D01*
X85657870Y-149097999D01*
X101851732Y-149097999D01*
X101869930Y-149236226D01*
X101869930Y-149236227D01*
X101915611Y-149346512D01*
X101923284Y-149365035D01*
X102008157Y-149475644D01*
X102118766Y-149560517D01*
X102247574Y-149613871D01*
X102385801Y-149632069D01*
X102524028Y-149613871D01*
X102652836Y-149560517D01*
X102763445Y-149475644D01*
X102848318Y-149365035D01*
X102901672Y-149236227D01*
X102919870Y-149098000D01*
X102901672Y-148959773D01*
X102859116Y-148857035D01*
X102848318Y-148830965D01*
X102763448Y-148720359D01*
X102763446Y-148720357D01*
X102763445Y-148720356D01*
X102652836Y-148635483D01*
X102524028Y-148582129D01*
X102385801Y-148563931D01*
X102247574Y-148582129D01*
X102247573Y-148582129D01*
X102118767Y-148635482D01*
X102008157Y-148720356D01*
X101923283Y-148830966D01*
X101869930Y-148959772D01*
X101869930Y-148959773D01*
X101851732Y-149097999D01*
X85657870Y-149097999D01*
X85670844Y-149088044D01*
X85755717Y-148977435D01*
X85809071Y-148848627D01*
X85827269Y-148710400D01*
X85809071Y-148572173D01*
X85769188Y-148475887D01*
X85755717Y-148443365D01*
X85670847Y-148332759D01*
X85670845Y-148332757D01*
X85670844Y-148332756D01*
X85560235Y-148247883D01*
X85431427Y-148194529D01*
X85348413Y-148183600D01*
X87299131Y-148183600D01*
X87317329Y-148321826D01*
X87317329Y-148321827D01*
X87369238Y-148447148D01*
X87370683Y-148450635D01*
X87455556Y-148561244D01*
X87566165Y-148646117D01*
X87694973Y-148699471D01*
X87833200Y-148717669D01*
X87971427Y-148699471D01*
X88100235Y-148646117D01*
X88210844Y-148561244D01*
X88295717Y-148450635D01*
X88349071Y-148321827D01*
X88363944Y-148208854D01*
X93471185Y-148208854D01*
X93487498Y-148332759D01*
X93489383Y-148347080D01*
X93489383Y-148347081D01*
X93532275Y-148450633D01*
X93542737Y-148475889D01*
X93627610Y-148586498D01*
X93738219Y-148671371D01*
X93867027Y-148724725D01*
X94005254Y-148742923D01*
X94143481Y-148724725D01*
X94272289Y-148671371D01*
X94382898Y-148586498D01*
X94467771Y-148475889D01*
X94521125Y-148347081D01*
X94539323Y-148208854D01*
X94521125Y-148070627D01*
X94467771Y-147941820D01*
X94467771Y-147941819D01*
X94382901Y-147831213D01*
X94382899Y-147831211D01*
X94382898Y-147831210D01*
X94272289Y-147746337D01*
X94143481Y-147692983D01*
X94005254Y-147674785D01*
X93867027Y-147692983D01*
X93867026Y-147692983D01*
X93738220Y-147746336D01*
X93627610Y-147831210D01*
X93542736Y-147941820D01*
X93489383Y-148070626D01*
X93489383Y-148070627D01*
X93471254Y-148208333D01*
X93471185Y-148208854D01*
X88363944Y-148208854D01*
X88367269Y-148183600D01*
X88349071Y-148045373D01*
X88306177Y-147941819D01*
X88295717Y-147916565D01*
X88210847Y-147805959D01*
X88210845Y-147805957D01*
X88210844Y-147805956D01*
X88100235Y-147721083D01*
X88093656Y-147718358D01*
X88050140Y-147700333D01*
X87971427Y-147667729D01*
X87833200Y-147649531D01*
X87694973Y-147667729D01*
X87694972Y-147667729D01*
X87566166Y-147721082D01*
X87455556Y-147805956D01*
X87370682Y-147916566D01*
X87317329Y-148045372D01*
X87317329Y-148045373D01*
X87299131Y-148183600D01*
X85348413Y-148183600D01*
X85293200Y-148176331D01*
X85154973Y-148194529D01*
X85154972Y-148194529D01*
X85026166Y-148247882D01*
X84915556Y-148332756D01*
X84830682Y-148443366D01*
X84781856Y-148561243D01*
X84777329Y-148572173D01*
X84759131Y-148710400D01*
X82121818Y-148710400D01*
X82137669Y-148590000D01*
X82119471Y-148451773D01*
X82076106Y-148347081D01*
X82066117Y-148322965D01*
X81981247Y-148212359D01*
X81981245Y-148212357D01*
X81981244Y-148212356D01*
X81870635Y-148127483D01*
X81741827Y-148074129D01*
X81603600Y-148055931D01*
X81465373Y-148074129D01*
X81465372Y-148074129D01*
X81336566Y-148127482D01*
X81225956Y-148212356D01*
X81141082Y-148322966D01*
X81088201Y-148450633D01*
X81087729Y-148451773D01*
X81069531Y-148590000D01*
X71365993Y-148590000D01*
X71324454Y-148425147D01*
X71323840Y-148422463D01*
X71146157Y-147554661D01*
X71145675Y-147552007D01*
X71007101Y-146677086D01*
X71006740Y-146674426D01*
X70999346Y-146608800D01*
X76224731Y-146608800D01*
X76233363Y-146674370D01*
X76242929Y-146747026D01*
X76242929Y-146747027D01*
X76283009Y-146843790D01*
X76296283Y-146875835D01*
X76381156Y-146986444D01*
X76491765Y-147071317D01*
X76620573Y-147124671D01*
X76758800Y-147142869D01*
X76897027Y-147124671D01*
X76951248Y-147102211D01*
X77020717Y-147094743D01*
X77083196Y-147126018D01*
X77118848Y-147186107D01*
X77122700Y-147216773D01*
X77122700Y-147793463D01*
X77137466Y-147867701D01*
X77193715Y-147951884D01*
X77227434Y-147974414D01*
X77277899Y-148008134D01*
X77277902Y-148008134D01*
X77277903Y-148008135D01*
X77302866Y-148013100D01*
X77352133Y-148022900D01*
X78477990Y-148022899D01*
X78545029Y-148042584D01*
X78556654Y-148051045D01*
X78611027Y-148095667D01*
X78611033Y-148095671D01*
X78793433Y-148193166D01*
X78991365Y-148253208D01*
X79197200Y-148273480D01*
X79403034Y-148253208D01*
X79600964Y-148193166D01*
X79742669Y-148117422D01*
X79343605Y-147718358D01*
X79310120Y-147657035D01*
X79315104Y-147587343D01*
X79356976Y-147531410D01*
X79372252Y-147521632D01*
X79415147Y-147498419D01*
X79494260Y-147412479D01*
X79497755Y-147404510D01*
X79542710Y-147351024D01*
X79609446Y-147330334D01*
X79676774Y-147349008D01*
X79698992Y-147366639D01*
X80096222Y-147763869D01*
X80171966Y-147622164D01*
X80232008Y-147424234D01*
X80252280Y-147218400D01*
X80232268Y-147015200D01*
X82320731Y-147015200D01*
X82338929Y-147153427D01*
X82392283Y-147282235D01*
X82477156Y-147392844D01*
X82587765Y-147477717D01*
X82716573Y-147531071D01*
X82854800Y-147549269D01*
X82993027Y-147531071D01*
X83121835Y-147477717D01*
X83232444Y-147392844D01*
X83317317Y-147282235D01*
X83322716Y-147269200D01*
X83616684Y-147269200D01*
X83635547Y-147412479D01*
X83637460Y-147427005D01*
X83637461Y-147427009D01*
X83698368Y-147574055D01*
X83698369Y-147574057D01*
X83698370Y-147574058D01*
X83795266Y-147700334D01*
X83921542Y-147797230D01*
X84068594Y-147858140D01*
X84208040Y-147876498D01*
X84226399Y-147878916D01*
X84226400Y-147878916D01*
X84226401Y-147878916D01*
X84242846Y-147876750D01*
X84384206Y-147858140D01*
X84531258Y-147797230D01*
X84657534Y-147700334D01*
X84754430Y-147574058D01*
X84815340Y-147427006D01*
X84836116Y-147269200D01*
X84829428Y-147218400D01*
X100595719Y-147218400D01*
X100615991Y-147424234D01*
X100676033Y-147622166D01*
X100751775Y-147763869D01*
X100751776Y-147763869D01*
X101150247Y-147365399D01*
X101211570Y-147331914D01*
X101281262Y-147336898D01*
X101337195Y-147378770D01*
X101341737Y-147385259D01*
X101389734Y-147458725D01*
X101389735Y-147458726D01*
X101389736Y-147458727D01*
X101414135Y-147477717D01*
X101489400Y-147536298D01*
X101530213Y-147593009D01*
X101533888Y-147662782D01*
X101500919Y-147721833D01*
X101105328Y-148117423D01*
X101247033Y-148193166D01*
X101444965Y-148253208D01*
X101650799Y-148273480D01*
X101856634Y-148253208D01*
X102054566Y-148193166D01*
X102236971Y-148095668D01*
X102236975Y-148095665D01*
X102291339Y-148051048D01*
X102355648Y-148023733D01*
X102369989Y-148022899D01*
X103495866Y-148022899D01*
X103570101Y-148008134D01*
X103654284Y-147951884D01*
X103710534Y-147867701D01*
X103725300Y-147793467D01*
X103725300Y-147777200D01*
X104749484Y-147777200D01*
X104762875Y-147878916D01*
X104770260Y-147935005D01*
X104770261Y-147935009D01*
X104831168Y-148082055D01*
X104831169Y-148082057D01*
X104831170Y-148082058D01*
X104928066Y-148208334D01*
X105054342Y-148305230D01*
X105201394Y-148366140D01*
X105340840Y-148384498D01*
X105359199Y-148386916D01*
X105359200Y-148386916D01*
X105359201Y-148386916D01*
X105425726Y-148378157D01*
X105475070Y-148371661D01*
X105544106Y-148382426D01*
X105596362Y-148428806D01*
X105605817Y-148447148D01*
X105643968Y-148539255D01*
X105643969Y-148539257D01*
X105643970Y-148539258D01*
X105740866Y-148665534D01*
X105867142Y-148762430D01*
X106014194Y-148823340D01*
X106153640Y-148841698D01*
X106171999Y-148844116D01*
X106172000Y-148844116D01*
X106172001Y-148844116D01*
X106188446Y-148841950D01*
X106329806Y-148823340D01*
X106476858Y-148762430D01*
X106603134Y-148665534D01*
X106700030Y-148539258D01*
X106760940Y-148392206D01*
X106781716Y-148234400D01*
X106760940Y-148076594D01*
X106705115Y-147941819D01*
X106700031Y-147929544D01*
X106700030Y-147929543D01*
X106700030Y-147929542D01*
X106603134Y-147803266D01*
X106476858Y-147706370D01*
X106476857Y-147706369D01*
X106476855Y-147706368D01*
X106329809Y-147645461D01*
X106329807Y-147645460D01*
X106329806Y-147645460D01*
X106250903Y-147635072D01*
X106172001Y-147624684D01*
X106171999Y-147624684D01*
X106056129Y-147639939D01*
X105987093Y-147629174D01*
X105934837Y-147582794D01*
X105925387Y-147564462D01*
X105887230Y-147472342D01*
X105790334Y-147346066D01*
X105664058Y-147249170D01*
X105664057Y-147249169D01*
X105664055Y-147249168D01*
X105517009Y-147188261D01*
X105517007Y-147188260D01*
X105517006Y-147188260D01*
X105438102Y-147177872D01*
X105359201Y-147167484D01*
X105359199Y-147167484D01*
X105201394Y-147188260D01*
X105201390Y-147188261D01*
X105054344Y-147249168D01*
X104928066Y-147346066D01*
X104831168Y-147472344D01*
X104770261Y-147619390D01*
X104770260Y-147619394D01*
X104749484Y-147777200D01*
X103725300Y-147777200D01*
X103725299Y-146643334D01*
X103710534Y-146569099D01*
X103676056Y-146517499D01*
X103654283Y-146484914D01*
X103650226Y-146480857D01*
X103616741Y-146419534D01*
X103621725Y-146349842D01*
X103632913Y-146327205D01*
X103650216Y-146299668D01*
X103710093Y-146128551D01*
X103710093Y-146128549D01*
X103710094Y-146128547D01*
X103730391Y-145948403D01*
X103730391Y-145948396D01*
X103710094Y-145768254D01*
X103710093Y-145768252D01*
X103710093Y-145768249D01*
X103650216Y-145597132D01*
X103553764Y-145443628D01*
X103511217Y-145401081D01*
X103477732Y-145339758D01*
X103482716Y-145270066D01*
X103511217Y-145225719D01*
X103525418Y-145211518D01*
X103553764Y-145183172D01*
X103650216Y-145029668D01*
X103710093Y-144858551D01*
X103713115Y-144831729D01*
X103730391Y-144678403D01*
X103730391Y-144678396D01*
X103710094Y-144498254D01*
X103710093Y-144498252D01*
X103710093Y-144498249D01*
X103650216Y-144327132D01*
X103553764Y-144173628D01*
X103511217Y-144131081D01*
X103477732Y-144069758D01*
X103482716Y-144000066D01*
X103511217Y-143955719D01*
X103519590Y-143947346D01*
X103553764Y-143913172D01*
X103650216Y-143759668D01*
X103666476Y-143713200D01*
X107543484Y-143713200D01*
X107549601Y-143759666D01*
X107564260Y-143871005D01*
X107564261Y-143871009D01*
X107625168Y-144018055D01*
X107625169Y-144018057D01*
X107625170Y-144018058D01*
X107722066Y-144144334D01*
X107848342Y-144241230D01*
X107995394Y-144302140D01*
X108134840Y-144320498D01*
X108153199Y-144322916D01*
X108153200Y-144322916D01*
X108153201Y-144322916D01*
X108169646Y-144320750D01*
X108311006Y-144302140D01*
X108458058Y-144241230D01*
X108584334Y-144144334D01*
X108681230Y-144018058D01*
X108742140Y-143871006D01*
X108762916Y-143713200D01*
X108753218Y-143639541D01*
X108763983Y-143570508D01*
X108810362Y-143518252D01*
X108877631Y-143499366D01*
X108892330Y-143500417D01*
X108966000Y-143510116D01*
X109123806Y-143489340D01*
X109270858Y-143428430D01*
X109397134Y-143331534D01*
X109494030Y-143205258D01*
X109554940Y-143058206D01*
X109575716Y-142900400D01*
X109554940Y-142742594D01*
X109494030Y-142595542D01*
X109397134Y-142469266D01*
X109270858Y-142372370D01*
X109270857Y-142372369D01*
X109270855Y-142372368D01*
X109123809Y-142311461D01*
X109123807Y-142311460D01*
X109123806Y-142311460D01*
X109027418Y-142298770D01*
X108966001Y-142290684D01*
X108965999Y-142290684D01*
X108808194Y-142311460D01*
X108808190Y-142311461D01*
X108661144Y-142372368D01*
X108534866Y-142469266D01*
X108437968Y-142595544D01*
X108377061Y-142742590D01*
X108377060Y-142742594D01*
X108356284Y-142900399D01*
X108356284Y-142900401D01*
X108365981Y-142974057D01*
X108355216Y-143043092D01*
X108308836Y-143095348D01*
X108241567Y-143114233D01*
X108226857Y-143113181D01*
X108153202Y-143103484D01*
X108153199Y-143103484D01*
X107995394Y-143124260D01*
X107995390Y-143124261D01*
X107848344Y-143185168D01*
X107722066Y-143282066D01*
X107625168Y-143408344D01*
X107564261Y-143555390D01*
X107564260Y-143555394D01*
X107546747Y-143688419D01*
X107543484Y-143713200D01*
X103666476Y-143713200D01*
X103710093Y-143588551D01*
X103713689Y-143556639D01*
X103730391Y-143408403D01*
X103730391Y-143408396D01*
X103710094Y-143228254D01*
X103710093Y-143228252D01*
X103710093Y-143228249D01*
X103650216Y-143057132D01*
X103553764Y-142903628D01*
X103511217Y-142861081D01*
X103477732Y-142799758D01*
X103482716Y-142730066D01*
X103511217Y-142685719D01*
X103513067Y-142683869D01*
X103553764Y-142643172D01*
X103650216Y-142489668D01*
X103710093Y-142318551D01*
X103711751Y-142303835D01*
X103730391Y-142138403D01*
X103730391Y-142138396D01*
X103710094Y-141958254D01*
X103710093Y-141958252D01*
X103710093Y-141958249D01*
X103650216Y-141787132D01*
X103615575Y-141732000D01*
X105359084Y-141732000D01*
X105375722Y-141858379D01*
X105379860Y-141889805D01*
X105379861Y-141889809D01*
X105440768Y-142036855D01*
X105440769Y-142036857D01*
X105440770Y-142036858D01*
X105537666Y-142163134D01*
X105663942Y-142260030D01*
X105663943Y-142260030D01*
X105663944Y-142260031D01*
X105674893Y-142264566D01*
X105810994Y-142320940D01*
X105950440Y-142339298D01*
X105968799Y-142341716D01*
X105968800Y-142341716D01*
X105968801Y-142341716D01*
X105985246Y-142339550D01*
X106126606Y-142320940D01*
X106273658Y-142260030D01*
X106399934Y-142163134D01*
X106496830Y-142036858D01*
X106557740Y-141889806D01*
X106578516Y-141732000D01*
X106557740Y-141574194D01*
X106505984Y-141449243D01*
X106496831Y-141427144D01*
X106496830Y-141427143D01*
X106496830Y-141427142D01*
X106399934Y-141300866D01*
X106273658Y-141203970D01*
X106273657Y-141203969D01*
X106273655Y-141203968D01*
X106126609Y-141143061D01*
X106126607Y-141143060D01*
X106126606Y-141143060D01*
X106029466Y-141130271D01*
X105968801Y-141122284D01*
X105968799Y-141122284D01*
X105810994Y-141143060D01*
X105810990Y-141143061D01*
X105663944Y-141203968D01*
X105537666Y-141300866D01*
X105440768Y-141427144D01*
X105379861Y-141574190D01*
X105379860Y-141574194D01*
X105364085Y-141694018D01*
X105359084Y-141732000D01*
X103615575Y-141732000D01*
X103553764Y-141633628D01*
X103511217Y-141591081D01*
X103477732Y-141529758D01*
X103482716Y-141460066D01*
X103511217Y-141415719D01*
X103524905Y-141402031D01*
X103553764Y-141373172D01*
X103650216Y-141219668D01*
X103710093Y-141048551D01*
X103713689Y-141016639D01*
X103730391Y-140868403D01*
X103730391Y-140868396D01*
X103710094Y-140688254D01*
X103710093Y-140688252D01*
X103710093Y-140688249D01*
X103667175Y-140565599D01*
X106476684Y-140565599D01*
X106494303Y-140699429D01*
X106497460Y-140723404D01*
X106497461Y-140723408D01*
X106558368Y-140870454D01*
X106558369Y-140870456D01*
X106558370Y-140870457D01*
X106655266Y-140996733D01*
X106781542Y-141093629D01*
X106781543Y-141093629D01*
X106781544Y-141093630D01*
X106817990Y-141108726D01*
X106928594Y-141154539D01*
X107068040Y-141172897D01*
X107086399Y-141175315D01*
X107086400Y-141175315D01*
X107086401Y-141175315D01*
X107102846Y-141173149D01*
X107244206Y-141154539D01*
X107391258Y-141093629D01*
X107517534Y-140996733D01*
X107614430Y-140870457D01*
X107675340Y-140723405D01*
X107696116Y-140565599D01*
X107675340Y-140407793D01*
X107634733Y-140309758D01*
X107614431Y-140260743D01*
X107614430Y-140260742D01*
X107614430Y-140260741D01*
X107517534Y-140134465D01*
X107391258Y-140037569D01*
X107391257Y-140037568D01*
X107391255Y-140037567D01*
X107244209Y-139976660D01*
X107244207Y-139976659D01*
X107244206Y-139976659D01*
X107165303Y-139966270D01*
X107086401Y-139955883D01*
X107086399Y-139955883D01*
X106928594Y-139976659D01*
X106928590Y-139976660D01*
X106781544Y-140037567D01*
X106655266Y-140134465D01*
X106558368Y-140260743D01*
X106497461Y-140407789D01*
X106497460Y-140407793D01*
X106477905Y-140556328D01*
X106476684Y-140565599D01*
X103667175Y-140565599D01*
X103650216Y-140517132D01*
X103553764Y-140363628D01*
X103425572Y-140235436D01*
X103374222Y-140203171D01*
X103272067Y-140138983D01*
X103272064Y-140138982D01*
X103100945Y-140079105D01*
X102920804Y-140058809D01*
X102920796Y-140058809D01*
X102740654Y-140079105D01*
X102569535Y-140138982D01*
X102569532Y-140138983D01*
X102416027Y-140235436D01*
X102287836Y-140363627D01*
X102191383Y-140517132D01*
X102191379Y-140517140D01*
X102151762Y-140630362D01*
X102111041Y-140687138D01*
X102046088Y-140712885D01*
X101977526Y-140699429D01*
X101930912Y-140657228D01*
X101911865Y-140628074D01*
X101911862Y-140628071D01*
X101812199Y-140550500D01*
X101771386Y-140493790D01*
X101767711Y-140424017D01*
X101800680Y-140364966D01*
X102196269Y-139969376D01*
X102196269Y-139969375D01*
X102054566Y-139893633D01*
X101856634Y-139833591D01*
X101650799Y-139813319D01*
X101444966Y-139833591D01*
X101247034Y-139893634D01*
X101105329Y-139969375D01*
X101105329Y-139969376D01*
X101504394Y-140368441D01*
X101537879Y-140429764D01*
X101532895Y-140499456D01*
X101491023Y-140555389D01*
X101475731Y-140565176D01*
X101432856Y-140588379D01*
X101432852Y-140588381D01*
X101353739Y-140674322D01*
X101350241Y-140682296D01*
X101305281Y-140735779D01*
X101238544Y-140756465D01*
X101171217Y-140737786D01*
X101149007Y-140720160D01*
X100751776Y-140322929D01*
X100751775Y-140322929D01*
X100676034Y-140464634D01*
X100615991Y-140662566D01*
X100595719Y-140868399D01*
X100615991Y-141074234D01*
X100676033Y-141272166D01*
X100751775Y-141413869D01*
X101150247Y-141015399D01*
X101211570Y-140981914D01*
X101281262Y-140986898D01*
X101337195Y-141028770D01*
X101341737Y-141035259D01*
X101389734Y-141108725D01*
X101389735Y-141108726D01*
X101489400Y-141186299D01*
X101530213Y-141243009D01*
X101533887Y-141312782D01*
X101500919Y-141371833D01*
X101369353Y-141503399D01*
X101369353Y-141503400D01*
X101504393Y-141638441D01*
X101537878Y-141699764D01*
X101532894Y-141769456D01*
X101491022Y-141825389D01*
X101475731Y-141835176D01*
X101432854Y-141858380D01*
X101432852Y-141858381D01*
X101353739Y-141944322D01*
X101350241Y-141952296D01*
X101305281Y-142005779D01*
X101238544Y-142026465D01*
X101171217Y-142007786D01*
X101149007Y-141990160D01*
X100751775Y-141592928D01*
X100676034Y-141734634D01*
X100615991Y-141932566D01*
X100595719Y-142138400D01*
X100615991Y-142344234D01*
X100676033Y-142542166D01*
X100751775Y-142683869D01*
X101150247Y-142285399D01*
X101211570Y-142251914D01*
X101281262Y-142256898D01*
X101337195Y-142298770D01*
X101341737Y-142305259D01*
X101389734Y-142378725D01*
X101389735Y-142378726D01*
X101389736Y-142378727D01*
X101435626Y-142414444D01*
X101489400Y-142456298D01*
X101530213Y-142513009D01*
X101533888Y-142582782D01*
X101500919Y-142641833D01*
X101369353Y-142773399D01*
X101369353Y-142773400D01*
X101504393Y-142908441D01*
X101537878Y-142969764D01*
X101532894Y-143039456D01*
X101491022Y-143095389D01*
X101475731Y-143105176D01*
X101432854Y-143128380D01*
X101432852Y-143128381D01*
X101353739Y-143214322D01*
X101350241Y-143222296D01*
X101305281Y-143275779D01*
X101238544Y-143296465D01*
X101171217Y-143277786D01*
X101149007Y-143260160D01*
X100751775Y-142862928D01*
X100676034Y-143004634D01*
X100615991Y-143202566D01*
X100595719Y-143408400D01*
X100615991Y-143614234D01*
X100676033Y-143812166D01*
X100751775Y-143953869D01*
X101150247Y-143555399D01*
X101211570Y-143521914D01*
X101281262Y-143526898D01*
X101337195Y-143568770D01*
X101341737Y-143575259D01*
X101389734Y-143648725D01*
X101389735Y-143648726D01*
X101389736Y-143648727D01*
X101440728Y-143688415D01*
X101489400Y-143726298D01*
X101530213Y-143783009D01*
X101533888Y-143852782D01*
X101500919Y-143911833D01*
X101369353Y-144043399D01*
X101369353Y-144043400D01*
X101504393Y-144178441D01*
X101537878Y-144239764D01*
X101532894Y-144309456D01*
X101491022Y-144365389D01*
X101475731Y-144375176D01*
X101432854Y-144398380D01*
X101432852Y-144398381D01*
X101353739Y-144484322D01*
X101350241Y-144492296D01*
X101305281Y-144545779D01*
X101238544Y-144566465D01*
X101171217Y-144547786D01*
X101149007Y-144530160D01*
X100751775Y-144132928D01*
X100676034Y-144274634D01*
X100615991Y-144472566D01*
X100595719Y-144678400D01*
X100615991Y-144884234D01*
X100676033Y-145082166D01*
X100751775Y-145223869D01*
X101150247Y-144825399D01*
X101211570Y-144791914D01*
X101281262Y-144796898D01*
X101337195Y-144838770D01*
X101341737Y-144845259D01*
X101389734Y-144918725D01*
X101389735Y-144918726D01*
X101389736Y-144918727D01*
X101424145Y-144945508D01*
X101489400Y-144996298D01*
X101530213Y-145053009D01*
X101533888Y-145122782D01*
X101500920Y-145181833D01*
X101369353Y-145313400D01*
X101504394Y-145448441D01*
X101537879Y-145509764D01*
X101532895Y-145579456D01*
X101491023Y-145635389D01*
X101475731Y-145645176D01*
X101432856Y-145668379D01*
X101432852Y-145668381D01*
X101353739Y-145754322D01*
X101350241Y-145762296D01*
X101305281Y-145815779D01*
X101238544Y-145836465D01*
X101171217Y-145817786D01*
X101149007Y-145800160D01*
X100751775Y-145402928D01*
X100676034Y-145544634D01*
X100615991Y-145742566D01*
X100595719Y-145948400D01*
X100615991Y-146154234D01*
X100676033Y-146352166D01*
X100751775Y-146493869D01*
X101150247Y-146095399D01*
X101211570Y-146061914D01*
X101281262Y-146066898D01*
X101337195Y-146108770D01*
X101341733Y-146115253D01*
X101350418Y-146128547D01*
X101389734Y-146188725D01*
X101389735Y-146188726D01*
X101489400Y-146266299D01*
X101530213Y-146323009D01*
X101533887Y-146392782D01*
X101500918Y-146451833D01*
X101369352Y-146583399D01*
X101369352Y-146583400D01*
X101504393Y-146718441D01*
X101537878Y-146779764D01*
X101532894Y-146849455D01*
X101491023Y-146905389D01*
X101475731Y-146915176D01*
X101432854Y-146938380D01*
X101432852Y-146938381D01*
X101353739Y-147024322D01*
X101350241Y-147032296D01*
X101305281Y-147085779D01*
X101238544Y-147106465D01*
X101171217Y-147087786D01*
X101149007Y-147070160D01*
X100751775Y-146672928D01*
X100676034Y-146814634D01*
X100615991Y-147012566D01*
X100595719Y-147218400D01*
X84829428Y-147218400D01*
X84815340Y-147111394D01*
X84760118Y-146978074D01*
X84754431Y-146964344D01*
X84754430Y-146964343D01*
X84754430Y-146964342D01*
X84657534Y-146838066D01*
X84531258Y-146741170D01*
X84531257Y-146741169D01*
X84531255Y-146741168D01*
X84384209Y-146680261D01*
X84384207Y-146680260D01*
X84384206Y-146680260D01*
X84305303Y-146669872D01*
X84226401Y-146659484D01*
X84226399Y-146659484D01*
X84068594Y-146680260D01*
X83951854Y-146728614D01*
X83931734Y-146730776D01*
X83927980Y-146736185D01*
X83925660Y-146738009D01*
X83795268Y-146838063D01*
X83698368Y-146964344D01*
X83637461Y-147111390D01*
X83637460Y-147111394D01*
X83616684Y-147269200D01*
X83322716Y-147269200D01*
X83370671Y-147153427D01*
X83388869Y-147015200D01*
X83370671Y-146876973D01*
X83335422Y-146791876D01*
X83314207Y-146740657D01*
X83316819Y-146739574D01*
X83303575Y-146685015D01*
X83326416Y-146618985D01*
X83381331Y-146575785D01*
X83443619Y-146567957D01*
X83566000Y-146584069D01*
X83704227Y-146565871D01*
X83802722Y-146525072D01*
X83822841Y-146522909D01*
X83826598Y-146517499D01*
X83828917Y-146515676D01*
X83833032Y-146512517D01*
X83833035Y-146512517D01*
X83943644Y-146427644D01*
X84028517Y-146317035D01*
X84081871Y-146188227D01*
X84100069Y-146050000D01*
X84081871Y-145911773D01*
X84040518Y-145811938D01*
X84028517Y-145782965D01*
X83943647Y-145672359D01*
X83943645Y-145672357D01*
X83943644Y-145672356D01*
X83833035Y-145587483D01*
X83704227Y-145534129D01*
X83566000Y-145515931D01*
X83561145Y-145515931D01*
X83494106Y-145496246D01*
X83458274Y-145454894D01*
X83458393Y-145455716D01*
X83429368Y-145519272D01*
X83383108Y-145552630D01*
X83298966Y-145587482D01*
X83188356Y-145672356D01*
X83103482Y-145782966D01*
X83050129Y-145911772D01*
X83050129Y-145911773D01*
X83040231Y-145986959D01*
X83031931Y-146050000D01*
X83050129Y-146188227D01*
X83082467Y-146266299D01*
X83106593Y-146324543D01*
X83103982Y-146325624D01*
X83117224Y-146380201D01*
X83094373Y-146446228D01*
X83039452Y-146489420D01*
X82977179Y-146497242D01*
X82854801Y-146481131D01*
X82854800Y-146481131D01*
X82716573Y-146499329D01*
X82716572Y-146499329D01*
X82587766Y-146552682D01*
X82477156Y-146637556D01*
X82392282Y-146748166D01*
X82338929Y-146876972D01*
X82338929Y-146876973D01*
X82323129Y-146996989D01*
X82320731Y-147015200D01*
X80232268Y-147015200D01*
X80232008Y-147012565D01*
X80171966Y-146814633D01*
X80096222Y-146672928D01*
X79697752Y-147071400D01*
X79636429Y-147104885D01*
X79566738Y-147099901D01*
X79510804Y-147058030D01*
X79506270Y-147051552D01*
X79476216Y-147005550D01*
X79458265Y-146978074D01*
X79458262Y-146978071D01*
X79358599Y-146900500D01*
X79317786Y-146843790D01*
X79314111Y-146774017D01*
X79347080Y-146714965D01*
X79478646Y-146583399D01*
X79343605Y-146448358D01*
X79310120Y-146387035D01*
X79315104Y-146317343D01*
X79356976Y-146261410D01*
X79372252Y-146251632D01*
X79415147Y-146228419D01*
X79494260Y-146142479D01*
X79497755Y-146134510D01*
X79542710Y-146081024D01*
X79609446Y-146060334D01*
X79676774Y-146079008D01*
X79698992Y-146096639D01*
X80096222Y-146493869D01*
X80171966Y-146352164D01*
X80232008Y-146154234D01*
X80252280Y-145948400D01*
X80232008Y-145742565D01*
X80171966Y-145544633D01*
X80096222Y-145402928D01*
X79697752Y-145801400D01*
X79636429Y-145834885D01*
X79566738Y-145829901D01*
X79510804Y-145788030D01*
X79506270Y-145781552D01*
X79476216Y-145735550D01*
X79458265Y-145708074D01*
X79458262Y-145708071D01*
X79358599Y-145630500D01*
X79317786Y-145573790D01*
X79314111Y-145504017D01*
X79347080Y-145444966D01*
X79478646Y-145313400D01*
X79478646Y-145313399D01*
X79343605Y-145178358D01*
X79310120Y-145117035D01*
X79315104Y-145047343D01*
X79356976Y-144991410D01*
X79372252Y-144981632D01*
X79415147Y-144958419D01*
X79494260Y-144872479D01*
X79497755Y-144864510D01*
X79542710Y-144811024D01*
X79609446Y-144790334D01*
X79676774Y-144809008D01*
X79698992Y-144826639D01*
X80096222Y-145223869D01*
X80171966Y-145082164D01*
X80232008Y-144884234D01*
X80242274Y-144780000D01*
X82796731Y-144780000D01*
X82814693Y-144916438D01*
X82814929Y-144918226D01*
X82814929Y-144918227D01*
X82861088Y-145029666D01*
X82868283Y-145047035D01*
X82953156Y-145157644D01*
X83063765Y-145242517D01*
X83192573Y-145295871D01*
X83330800Y-145314069D01*
X83335655Y-145314069D01*
X83402694Y-145333754D01*
X83438525Y-145375105D01*
X83438407Y-145374284D01*
X83467432Y-145310728D01*
X83513692Y-145277370D01*
X83597835Y-145242517D01*
X83708444Y-145157644D01*
X83793317Y-145047035D01*
X83825244Y-144969957D01*
X89824211Y-144969957D01*
X89842409Y-145108183D01*
X89842409Y-145108184D01*
X89891093Y-145225719D01*
X89895763Y-145236992D01*
X89980636Y-145347601D01*
X90091245Y-145432474D01*
X90220053Y-145485828D01*
X90358280Y-145504026D01*
X90496507Y-145485828D01*
X90625315Y-145432474D01*
X90735924Y-145347601D01*
X90820797Y-145236992D01*
X90874151Y-145108184D01*
X90892349Y-144969957D01*
X90892289Y-144969500D01*
X93598331Y-144969500D01*
X93608538Y-145047033D01*
X93616529Y-145107726D01*
X93616529Y-145107727D01*
X93664636Y-145223869D01*
X93669883Y-145236535D01*
X93754756Y-145347144D01*
X93865365Y-145432017D01*
X93994173Y-145485371D01*
X94132400Y-145503569D01*
X94270627Y-145485371D01*
X94399435Y-145432017D01*
X94510044Y-145347144D01*
X94594917Y-145236535D01*
X94648271Y-145107727D01*
X94666469Y-144969500D01*
X94648271Y-144831273D01*
X94627033Y-144780000D01*
X98453931Y-144780000D01*
X98471893Y-144916438D01*
X98472129Y-144918226D01*
X98472129Y-144918227D01*
X98518288Y-145029666D01*
X98525483Y-145047035D01*
X98610356Y-145157644D01*
X98720965Y-145242517D01*
X98849773Y-145295871D01*
X98988000Y-145314069D01*
X99126227Y-145295871D01*
X99255035Y-145242517D01*
X99365644Y-145157644D01*
X99450517Y-145047035D01*
X99503871Y-144918227D01*
X99522069Y-144780000D01*
X99503871Y-144641773D01*
X99462995Y-144543090D01*
X99450517Y-144512965D01*
X99365647Y-144402359D01*
X99365645Y-144402357D01*
X99365644Y-144402356D01*
X99255035Y-144317483D01*
X99126227Y-144264129D01*
X98988000Y-144245931D01*
X98849773Y-144264129D01*
X98849772Y-144264129D01*
X98720966Y-144317482D01*
X98610356Y-144402356D01*
X98525482Y-144512966D01*
X98485924Y-144608469D01*
X98472129Y-144641773D01*
X98453931Y-144780000D01*
X94627033Y-144780000D01*
X94597086Y-144707702D01*
X94594917Y-144702465D01*
X94510047Y-144591859D01*
X94510045Y-144591857D01*
X94510044Y-144591856D01*
X94399435Y-144506983D01*
X94378361Y-144498254D01*
X94322199Y-144474991D01*
X94270627Y-144453629D01*
X94132400Y-144435431D01*
X93994173Y-144453629D01*
X93994172Y-144453629D01*
X93865366Y-144506982D01*
X93754756Y-144591856D01*
X93669882Y-144702466D01*
X93618962Y-144825399D01*
X93616529Y-144831273D01*
X93598331Y-144969500D01*
X90892289Y-144969500D01*
X90874151Y-144831730D01*
X90833220Y-144732914D01*
X90820797Y-144702922D01*
X90735927Y-144592316D01*
X90735925Y-144592314D01*
X90735924Y-144592313D01*
X90625315Y-144507440D01*
X90624209Y-144506982D01*
X90546976Y-144474991D01*
X90496507Y-144454086D01*
X90358280Y-144435888D01*
X90220053Y-144454086D01*
X90220052Y-144454086D01*
X90091246Y-144507439D01*
X89980636Y-144592313D01*
X89895762Y-144702923D01*
X89842409Y-144831729D01*
X89842409Y-144831730D01*
X89824211Y-144969957D01*
X83825244Y-144969957D01*
X83846671Y-144918227D01*
X83864869Y-144780000D01*
X83846671Y-144641773D01*
X83805795Y-144543090D01*
X83793317Y-144512965D01*
X83708447Y-144402359D01*
X83708445Y-144402357D01*
X83708444Y-144402356D01*
X83597835Y-144317483D01*
X83469027Y-144264129D01*
X83330800Y-144245931D01*
X83192573Y-144264129D01*
X83192572Y-144264129D01*
X83063766Y-144317482D01*
X82953156Y-144402356D01*
X82868282Y-144512966D01*
X82828724Y-144608469D01*
X82814929Y-144641773D01*
X82796731Y-144780000D01*
X80242274Y-144780000D01*
X80252280Y-144678400D01*
X80232008Y-144472565D01*
X80171966Y-144274633D01*
X80096222Y-144132928D01*
X79697752Y-144531400D01*
X79636429Y-144564885D01*
X79566738Y-144559901D01*
X79510804Y-144518030D01*
X79506270Y-144511552D01*
X79468427Y-144453629D01*
X79458265Y-144438074D01*
X79458262Y-144438071D01*
X79358599Y-144360500D01*
X79317786Y-144303790D01*
X79314111Y-144234017D01*
X79347080Y-144174965D01*
X79478646Y-144043399D01*
X79343605Y-143908358D01*
X79310120Y-143847035D01*
X79315104Y-143777343D01*
X79356976Y-143721410D01*
X79372252Y-143711632D01*
X79415147Y-143688419D01*
X79494260Y-143602479D01*
X79497755Y-143594510D01*
X79542710Y-143541024D01*
X79609446Y-143520334D01*
X79676774Y-143539008D01*
X79698992Y-143556639D01*
X80096222Y-143953869D01*
X80171966Y-143812164D01*
X80232008Y-143614234D01*
X80247277Y-143459200D01*
X84835884Y-143459200D01*
X84855975Y-143611806D01*
X84856660Y-143617005D01*
X84856661Y-143617009D01*
X84917568Y-143764055D01*
X84917569Y-143764057D01*
X84917570Y-143764058D01*
X85014466Y-143890334D01*
X85140742Y-143987230D01*
X85287794Y-144048140D01*
X85427240Y-144066498D01*
X85445599Y-144068916D01*
X85445600Y-144068916D01*
X85445601Y-144068916D01*
X85462046Y-144066750D01*
X85603406Y-144048140D01*
X85750458Y-143987230D01*
X85876734Y-143890334D01*
X85973630Y-143764058D01*
X86034540Y-143617006D01*
X86048628Y-143510000D01*
X95274731Y-143510000D01*
X95292693Y-143646438D01*
X95292929Y-143648226D01*
X95292929Y-143648227D01*
X95340906Y-143764055D01*
X95346283Y-143777035D01*
X95431156Y-143887644D01*
X95541765Y-143972517D01*
X95670573Y-144025871D01*
X95808800Y-144044069D01*
X95947027Y-144025871D01*
X96075835Y-143972517D01*
X96186444Y-143887644D01*
X96271317Y-143777035D01*
X96324671Y-143648227D01*
X96342869Y-143510000D01*
X96324671Y-143371773D01*
X96271317Y-143242966D01*
X96271317Y-143242965D01*
X96186447Y-143132359D01*
X96186445Y-143132357D01*
X96186444Y-143132356D01*
X96075835Y-143047483D01*
X95947027Y-142994129D01*
X95808800Y-142975931D01*
X95670573Y-142994129D01*
X95670572Y-142994129D01*
X95541766Y-143047482D01*
X95431156Y-143132356D01*
X95346282Y-143242966D01*
X95292929Y-143371772D01*
X95292929Y-143371773D01*
X95274731Y-143510000D01*
X86048628Y-143510000D01*
X86055316Y-143459200D01*
X86034540Y-143301394D01*
X85979318Y-143168074D01*
X85973631Y-143154344D01*
X85973630Y-143154343D01*
X85973630Y-143154342D01*
X85876734Y-143028066D01*
X85750458Y-142931170D01*
X85750457Y-142931169D01*
X85750455Y-142931168D01*
X85603409Y-142870261D01*
X85603407Y-142870260D01*
X85603406Y-142870260D01*
X85524502Y-142859872D01*
X85445601Y-142849484D01*
X85445599Y-142849484D01*
X85287794Y-142870260D01*
X85287790Y-142870261D01*
X85140744Y-142931168D01*
X85014466Y-143028066D01*
X84917568Y-143154344D01*
X84856661Y-143301390D01*
X84856660Y-143301394D01*
X84835884Y-143459200D01*
X80247277Y-143459200D01*
X80252280Y-143408399D01*
X80232008Y-143202565D01*
X80171966Y-143004633D01*
X80096222Y-142862928D01*
X79697752Y-143261400D01*
X79636429Y-143294885D01*
X79566738Y-143289901D01*
X79510804Y-143248030D01*
X79506270Y-143241552D01*
X79460154Y-143170966D01*
X79458265Y-143168074D01*
X79458262Y-143168071D01*
X79358599Y-143090500D01*
X79317786Y-143033790D01*
X79314111Y-142964017D01*
X79347080Y-142904965D01*
X79478646Y-142773399D01*
X79343605Y-142638358D01*
X79310120Y-142577035D01*
X79315104Y-142507343D01*
X79356976Y-142451410D01*
X79372252Y-142441632D01*
X79415147Y-142418419D01*
X79494260Y-142332479D01*
X79497755Y-142324510D01*
X79542710Y-142271024D01*
X79609446Y-142250334D01*
X79676774Y-142269008D01*
X79698992Y-142286639D01*
X80096222Y-142683869D01*
X80126299Y-142627600D01*
X97154331Y-142627600D01*
X97172529Y-142765826D01*
X97172529Y-142765827D01*
X97215786Y-142870260D01*
X97225883Y-142894635D01*
X97310756Y-143005244D01*
X97421365Y-143090117D01*
X97550173Y-143143471D01*
X97688400Y-143161669D01*
X97826627Y-143143471D01*
X97955435Y-143090117D01*
X98066044Y-143005244D01*
X98150917Y-142894635D01*
X98204271Y-142765827D01*
X98222469Y-142627600D01*
X98204271Y-142489373D01*
X98158439Y-142378725D01*
X98150917Y-142360565D01*
X98066047Y-142249959D01*
X98066045Y-142249957D01*
X98066044Y-142249956D01*
X97955435Y-142165083D01*
X97950727Y-142163133D01*
X97917706Y-142149455D01*
X97826627Y-142111729D01*
X97688400Y-142093531D01*
X97550173Y-142111729D01*
X97550172Y-142111729D01*
X97421366Y-142165082D01*
X97310756Y-142249956D01*
X97225882Y-142360566D01*
X97172529Y-142489372D01*
X97172529Y-142489373D01*
X97154331Y-142627600D01*
X80126299Y-142627600D01*
X80171966Y-142542164D01*
X80232008Y-142344234D01*
X80252280Y-142138400D01*
X80232008Y-141932565D01*
X80171966Y-141734633D01*
X80096222Y-141592928D01*
X79697752Y-141991400D01*
X79636429Y-142024885D01*
X79566738Y-142019901D01*
X79510804Y-141978030D01*
X79506270Y-141971552D01*
X79476216Y-141925550D01*
X79458265Y-141898074D01*
X79458262Y-141898071D01*
X79358599Y-141820500D01*
X79317786Y-141763790D01*
X79314111Y-141694017D01*
X79347080Y-141634965D01*
X79478646Y-141503399D01*
X79343605Y-141368358D01*
X79310120Y-141307035D01*
X79315104Y-141237343D01*
X79356976Y-141181410D01*
X79372252Y-141171632D01*
X79415147Y-141148419D01*
X79494260Y-141062479D01*
X79497755Y-141054510D01*
X79542710Y-141001024D01*
X79609446Y-140980334D01*
X79676774Y-140999008D01*
X79698992Y-141016639D01*
X80096222Y-141413869D01*
X80171966Y-141272164D01*
X80217397Y-141122400D01*
X83133531Y-141122400D01*
X83146336Y-141219667D01*
X83151729Y-141260626D01*
X83151729Y-141260627D01*
X83198346Y-141373172D01*
X83205083Y-141389435D01*
X83289956Y-141500044D01*
X83388810Y-141575897D01*
X83398462Y-141583303D01*
X83439664Y-141639731D01*
X83443819Y-141709477D01*
X83421353Y-141757163D01*
X83411682Y-141769766D01*
X83358329Y-141898572D01*
X83358329Y-141898573D01*
X83340131Y-142036800D01*
X83353506Y-142138396D01*
X83358329Y-142175026D01*
X83358329Y-142175027D01*
X83404046Y-142285399D01*
X83411683Y-142303835D01*
X83496556Y-142414444D01*
X83607165Y-142499317D01*
X83735973Y-142552671D01*
X83874200Y-142570869D01*
X84012427Y-142552671D01*
X84141235Y-142499317D01*
X84251844Y-142414444D01*
X84336717Y-142303835D01*
X84390071Y-142175027D01*
X84401581Y-142087600D01*
X94715931Y-142087600D01*
X94734129Y-142225826D01*
X94734129Y-142225827D01*
X94785046Y-142348753D01*
X94787483Y-142354635D01*
X94872356Y-142465244D01*
X94982965Y-142550117D01*
X95111773Y-142603471D01*
X95250000Y-142621669D01*
X95388227Y-142603471D01*
X95517035Y-142550117D01*
X95627644Y-142465244D01*
X95712517Y-142354635D01*
X95765871Y-142225827D01*
X95784069Y-142087600D01*
X95765871Y-141949373D01*
X95712517Y-141820566D01*
X95712517Y-141820565D01*
X95627647Y-141709959D01*
X95627645Y-141709957D01*
X95627644Y-141709956D01*
X95517035Y-141625083D01*
X95388227Y-141571729D01*
X95250000Y-141553531D01*
X95111773Y-141571729D01*
X95111772Y-141571729D01*
X94982966Y-141625082D01*
X94872356Y-141709956D01*
X94787482Y-141820566D01*
X94734129Y-141949372D01*
X94734129Y-141949373D01*
X94715931Y-142087600D01*
X84401581Y-142087600D01*
X84408269Y-142036800D01*
X84390071Y-141898573D01*
X84357732Y-141820500D01*
X84336717Y-141769765D01*
X84251846Y-141659157D01*
X84165534Y-141592928D01*
X84143337Y-141575896D01*
X84102135Y-141519469D01*
X84097980Y-141449723D01*
X84120449Y-141402033D01*
X84130117Y-141389435D01*
X84183471Y-141260627D01*
X84201669Y-141122400D01*
X84183471Y-140984173D01*
X84140915Y-140881435D01*
X84130117Y-140855365D01*
X84045247Y-140744759D01*
X84045245Y-140744757D01*
X84045244Y-140744756D01*
X83934635Y-140659883D01*
X83928225Y-140657228D01*
X83857841Y-140628074D01*
X83824829Y-140614400D01*
X88823131Y-140614400D01*
X88832854Y-140688249D01*
X88841329Y-140752626D01*
X88841329Y-140752627D01*
X88890134Y-140870454D01*
X88894683Y-140881435D01*
X88979556Y-140992044D01*
X89090165Y-141076917D01*
X89218973Y-141130271D01*
X89357200Y-141148469D01*
X89495427Y-141130271D01*
X89624235Y-141076917D01*
X89631164Y-141071600D01*
X96595531Y-141071600D01*
X96610632Y-141186299D01*
X96613729Y-141209826D01*
X96613729Y-141209827D01*
X96651438Y-141300866D01*
X96667083Y-141338635D01*
X96751956Y-141449244D01*
X96862565Y-141534117D01*
X96991373Y-141587471D01*
X97129600Y-141605669D01*
X97267827Y-141587471D01*
X97396635Y-141534117D01*
X97507244Y-141449244D01*
X97592117Y-141338635D01*
X97645471Y-141209827D01*
X97663669Y-141071600D01*
X97650293Y-140970000D01*
X98453931Y-140970000D01*
X98471893Y-141106438D01*
X98472129Y-141108226D01*
X98472129Y-141108227D01*
X98518288Y-141219666D01*
X98525483Y-141237035D01*
X98610356Y-141347644D01*
X98720965Y-141432517D01*
X98849773Y-141485871D01*
X98988000Y-141504069D01*
X99126227Y-141485871D01*
X99255035Y-141432517D01*
X99365644Y-141347644D01*
X99450517Y-141237035D01*
X99503871Y-141108227D01*
X99522069Y-140970000D01*
X99503871Y-140831773D01*
X99460001Y-140725862D01*
X99450517Y-140702965D01*
X99365647Y-140592359D01*
X99365645Y-140592357D01*
X99365644Y-140592356D01*
X99255035Y-140507483D01*
X99126227Y-140454129D01*
X98988000Y-140435931D01*
X98849773Y-140454129D01*
X98849772Y-140454129D01*
X98720966Y-140507482D01*
X98610356Y-140592356D01*
X98525482Y-140702966D01*
X98472129Y-140831772D01*
X98472129Y-140831773D01*
X98453931Y-140970000D01*
X97650293Y-140970000D01*
X97645471Y-140933373D01*
X97592117Y-140804566D01*
X97592117Y-140804565D01*
X97507247Y-140693959D01*
X97507245Y-140693957D01*
X97507244Y-140693956D01*
X97396635Y-140609083D01*
X97267827Y-140555729D01*
X97129600Y-140537531D01*
X96991373Y-140555729D01*
X96991372Y-140555729D01*
X96862566Y-140609082D01*
X96751956Y-140693956D01*
X96667082Y-140804566D01*
X96613729Y-140933372D01*
X96613729Y-140933373D01*
X96604823Y-141001024D01*
X96595531Y-141071600D01*
X89631164Y-141071600D01*
X89734844Y-140992044D01*
X89819717Y-140881435D01*
X89873071Y-140752627D01*
X89891269Y-140614400D01*
X89873071Y-140476173D01*
X89819717Y-140347366D01*
X89819717Y-140347365D01*
X89734847Y-140236759D01*
X89734845Y-140236757D01*
X89734844Y-140236756D01*
X89624235Y-140151883D01*
X89619247Y-140149817D01*
X89548646Y-140120573D01*
X89495427Y-140098529D01*
X89357200Y-140080331D01*
X89218973Y-140098529D01*
X89218972Y-140098529D01*
X89090166Y-140151882D01*
X88979556Y-140236756D01*
X88894682Y-140347366D01*
X88841329Y-140476172D01*
X88841329Y-140476173D01*
X88823131Y-140614400D01*
X83824829Y-140614400D01*
X83805827Y-140606529D01*
X83667600Y-140588331D01*
X83529373Y-140606529D01*
X83529372Y-140606529D01*
X83400566Y-140659882D01*
X83289956Y-140744756D01*
X83205082Y-140855366D01*
X83151729Y-140984172D01*
X83151729Y-140984173D01*
X83133531Y-141122400D01*
X80217397Y-141122400D01*
X80232008Y-141074234D01*
X80249645Y-140895154D01*
X80275805Y-140830366D01*
X80332840Y-140790007D01*
X80389231Y-140784368D01*
X80453800Y-140792869D01*
X80592027Y-140774671D01*
X80720835Y-140721317D01*
X80831444Y-140636444D01*
X80916317Y-140525835D01*
X80969671Y-140397027D01*
X80987869Y-140258800D01*
X80969671Y-140120573D01*
X80934485Y-140035627D01*
X80916317Y-139991765D01*
X80831447Y-139881159D01*
X80831445Y-139881157D01*
X80831444Y-139881156D01*
X80720835Y-139796283D01*
X80592027Y-139742929D01*
X80453800Y-139724731D01*
X80315573Y-139742929D01*
X80315572Y-139742929D01*
X80186766Y-139796282D01*
X80076157Y-139881154D01*
X79989242Y-139994425D01*
X79932814Y-140035627D01*
X79863067Y-140039782D01*
X79812201Y-140014791D01*
X79783373Y-139991132D01*
X79783366Y-139991128D01*
X79600966Y-139893633D01*
X79403034Y-139833591D01*
X79197200Y-139813319D01*
X78991366Y-139833591D01*
X78793434Y-139893634D01*
X78651729Y-139969375D01*
X78651729Y-139969376D01*
X79050794Y-140368441D01*
X79084279Y-140429764D01*
X79079295Y-140499456D01*
X79037423Y-140555389D01*
X79022131Y-140565176D01*
X78979256Y-140588379D01*
X78979252Y-140588382D01*
X78903542Y-140670625D01*
X78843654Y-140706616D01*
X78773816Y-140704515D01*
X78716200Y-140664991D01*
X78695271Y-140627597D01*
X78656620Y-140517140D01*
X78656616Y-140517132D01*
X78617029Y-140454129D01*
X78560164Y-140363628D01*
X78431972Y-140235436D01*
X78380622Y-140203171D01*
X78278467Y-140138983D01*
X78278464Y-140138982D01*
X78107345Y-140079105D01*
X77927204Y-140058809D01*
X77927196Y-140058809D01*
X77747054Y-140079105D01*
X77575935Y-140138982D01*
X77575932Y-140138983D01*
X77422427Y-140235436D01*
X77294236Y-140363627D01*
X77197783Y-140517132D01*
X77197782Y-140517135D01*
X77137905Y-140688254D01*
X77117609Y-140868396D01*
X77117609Y-140868403D01*
X77137905Y-141048545D01*
X77197782Y-141219664D01*
X77197783Y-141219667D01*
X77294236Y-141373172D01*
X77336783Y-141415719D01*
X77370268Y-141477042D01*
X77365284Y-141546734D01*
X77336783Y-141591081D01*
X77294236Y-141633627D01*
X77197783Y-141787132D01*
X77197782Y-141787135D01*
X77137905Y-141958254D01*
X77117609Y-142138396D01*
X77117609Y-142138403D01*
X77137905Y-142318545D01*
X77197782Y-142489664D01*
X77197783Y-142489667D01*
X77294236Y-142643172D01*
X77336783Y-142685719D01*
X77370268Y-142747042D01*
X77365284Y-142816734D01*
X77336783Y-142861081D01*
X77294236Y-142903627D01*
X77197783Y-143057132D01*
X77197782Y-143057135D01*
X77137905Y-143228254D01*
X77117609Y-143408396D01*
X77117609Y-143408403D01*
X77137905Y-143588545D01*
X77197782Y-143759664D01*
X77197783Y-143759667D01*
X77294236Y-143913172D01*
X77336783Y-143955719D01*
X77370268Y-144017042D01*
X77365284Y-144086734D01*
X77336783Y-144131081D01*
X77294236Y-144173627D01*
X77197783Y-144327132D01*
X77197782Y-144327135D01*
X77137905Y-144498254D01*
X77117609Y-144678396D01*
X77117609Y-144678403D01*
X77137905Y-144858545D01*
X77197782Y-145029664D01*
X77197783Y-145029667D01*
X77294236Y-145183172D01*
X77336783Y-145225719D01*
X77370268Y-145287042D01*
X77365284Y-145356734D01*
X77336783Y-145401081D01*
X77294236Y-145443627D01*
X77197783Y-145597132D01*
X77197782Y-145597135D01*
X77137905Y-145768254D01*
X77117609Y-145948396D01*
X77117609Y-145948400D01*
X77118913Y-145959973D01*
X77121953Y-145986959D01*
X77109896Y-146055781D01*
X77062546Y-146107159D01*
X76994936Y-146124782D01*
X76951280Y-146115401D01*
X76897030Y-146092930D01*
X76897028Y-146092929D01*
X76897027Y-146092929D01*
X76758800Y-146074731D01*
X76620573Y-146092929D01*
X76620572Y-146092929D01*
X76491766Y-146146282D01*
X76381156Y-146231156D01*
X76296282Y-146341766D01*
X76242929Y-146470572D01*
X76242929Y-146470573D01*
X76224731Y-146608800D01*
X70999346Y-146608800D01*
X70907557Y-145794151D01*
X70907318Y-145791495D01*
X70865922Y-145177510D01*
X73186919Y-145177510D01*
X73207438Y-145398949D01*
X73268300Y-145612860D01*
X73367429Y-145811938D01*
X73383197Y-145832818D01*
X73383198Y-145832818D01*
X73816874Y-145399141D01*
X73878197Y-145365656D01*
X73947888Y-145370640D01*
X74001503Y-145409510D01*
X74082524Y-145511109D01*
X74082526Y-145511110D01*
X74154783Y-145560375D01*
X74199085Y-145614404D01*
X74207143Y-145683807D01*
X74176400Y-145746550D01*
X74172612Y-145750509D01*
X73738731Y-146184389D01*
X73738732Y-146184390D01*
X73854881Y-146256307D01*
X73854882Y-146256308D01*
X74062255Y-146336644D01*
X74280867Y-146377510D01*
X74503253Y-146377510D01*
X74721869Y-146336643D01*
X74929228Y-146256311D01*
X74929241Y-146256305D01*
X75045386Y-146184389D01*
X74614117Y-145753120D01*
X74580632Y-145691797D01*
X74585616Y-145622105D01*
X74627488Y-145566172D01*
X74647990Y-145553722D01*
X74648417Y-145553517D01*
X74747858Y-145461250D01*
X74770093Y-145422736D01*
X74820656Y-145374524D01*
X74889263Y-145361299D01*
X74954128Y-145387266D01*
X74965160Y-145397057D01*
X75400921Y-145832818D01*
X75416691Y-145811935D01*
X75416693Y-145811932D01*
X75515819Y-145612860D01*
X75576681Y-145398949D01*
X75597201Y-145177510D01*
X75597201Y-145177509D01*
X75576681Y-144956070D01*
X75515819Y-144742159D01*
X75416695Y-144543090D01*
X75416690Y-144543082D01*
X75400920Y-144522200D01*
X74967244Y-144955877D01*
X74905921Y-144989362D01*
X74836229Y-144984378D01*
X74782615Y-144945508D01*
X74701595Y-144843910D01*
X74701593Y-144843909D01*
X74629335Y-144794644D01*
X74585033Y-144740616D01*
X74576975Y-144671212D01*
X74607717Y-144608469D01*
X74611506Y-144604510D01*
X75086591Y-144129425D01*
X75147914Y-144095940D01*
X75150018Y-144095501D01*
X75188821Y-144087784D01*
X75273004Y-144031534D01*
X75329254Y-143947351D01*
X75344020Y-143873117D01*
X75344019Y-142422984D01*
X75329254Y-142348749D01*
X75299242Y-142303833D01*
X75273004Y-142264565D01*
X75214550Y-142225508D01*
X75188821Y-142208316D01*
X75188819Y-142208315D01*
X75188816Y-142208314D01*
X75114589Y-142193550D01*
X73664456Y-142193550D01*
X73590218Y-142208316D01*
X73506035Y-142264565D01*
X73449786Y-142348749D01*
X73449784Y-142348753D01*
X73435020Y-142422978D01*
X73435020Y-143873113D01*
X73449786Y-143947351D01*
X73506035Y-144031534D01*
X73530885Y-144048138D01*
X73590219Y-144087784D01*
X73635300Y-144096751D01*
X73697210Y-144129134D01*
X73698790Y-144130687D01*
X74170002Y-144601899D01*
X74203487Y-144663222D01*
X74198503Y-144732914D01*
X74156631Y-144788847D01*
X74136133Y-144801295D01*
X74135706Y-144801500D01*
X74135705Y-144801500D01*
X74036262Y-144893770D01*
X74036259Y-144893774D01*
X74014027Y-144932281D01*
X73963460Y-144980497D01*
X73894853Y-144993719D01*
X73829988Y-144967751D01*
X73818959Y-144957962D01*
X73383197Y-144522200D01*
X73383197Y-144522201D01*
X73367428Y-144543084D01*
X73268300Y-144742159D01*
X73207438Y-144956070D01*
X73186919Y-145177509D01*
X73186919Y-145177510D01*
X70865922Y-145177510D01*
X70847727Y-144907647D01*
X70847606Y-144904958D01*
X70827731Y-144019381D01*
X70827731Y-144016609D01*
X70827731Y-144016608D01*
X70847606Y-143131039D01*
X70847727Y-143128354D01*
X70907318Y-142244500D01*
X70907557Y-142241852D01*
X71006741Y-141361567D01*
X71007100Y-141358919D01*
X71145676Y-140483985D01*
X71146155Y-140481346D01*
X71274932Y-139852400D01*
X74573731Y-139852400D01*
X74591929Y-139990626D01*
X74591929Y-139990627D01*
X74629085Y-140080331D01*
X74645283Y-140119435D01*
X74730156Y-140230044D01*
X74840765Y-140314917D01*
X74969573Y-140368271D01*
X75107800Y-140386469D01*
X75246027Y-140368271D01*
X75374835Y-140314917D01*
X75485444Y-140230044D01*
X75570317Y-140119435D01*
X75623671Y-139990627D01*
X75641869Y-139852400D01*
X75623671Y-139714173D01*
X75612540Y-139687300D01*
X86264780Y-139687300D01*
X86282978Y-139825526D01*
X86282978Y-139825527D01*
X86330322Y-139939827D01*
X86336332Y-139954335D01*
X86421205Y-140064944D01*
X86531814Y-140149817D01*
X86660622Y-140203171D01*
X86798849Y-140221369D01*
X86937076Y-140203171D01*
X87065884Y-140149817D01*
X87176493Y-140064944D01*
X87261366Y-139954335D01*
X87314720Y-139825527D01*
X87317870Y-139801600D01*
X91007531Y-139801600D01*
X91019648Y-139893633D01*
X91025729Y-139939826D01*
X91025729Y-139939827D01*
X91046978Y-139991128D01*
X91079083Y-140068635D01*
X91163956Y-140179244D01*
X91274565Y-140264117D01*
X91403373Y-140317471D01*
X91541600Y-140335669D01*
X91679827Y-140317471D01*
X91808635Y-140264117D01*
X91919244Y-140179244D01*
X92004117Y-140068635D01*
X92057471Y-139939827D01*
X92075669Y-139801600D01*
X92057471Y-139663373D01*
X92004117Y-139534566D01*
X92004117Y-139534565D01*
X91919247Y-139423959D01*
X91919245Y-139423957D01*
X91919244Y-139423956D01*
X91808635Y-139339083D01*
X91679827Y-139285729D01*
X91541600Y-139267531D01*
X91403373Y-139285729D01*
X91403372Y-139285729D01*
X91274566Y-139339082D01*
X91163956Y-139423956D01*
X91079082Y-139534566D01*
X91046360Y-139613565D01*
X91025729Y-139663373D01*
X91007531Y-139801600D01*
X87317870Y-139801600D01*
X87332918Y-139687300D01*
X87314720Y-139549073D01*
X87262896Y-139423959D01*
X87261366Y-139420265D01*
X87176496Y-139309659D01*
X87176494Y-139309657D01*
X87176493Y-139309656D01*
X87092591Y-139245276D01*
X87051390Y-139188849D01*
X87047235Y-139119102D01*
X87081448Y-139058182D01*
X87143165Y-139025430D01*
X87151883Y-139023963D01*
X87286506Y-139006240D01*
X87433558Y-138945330D01*
X87559834Y-138848434D01*
X87656730Y-138722158D01*
X87717640Y-138575106D01*
X87738416Y-138417300D01*
X87737638Y-138411394D01*
X87730925Y-138360400D01*
X91449491Y-138360400D01*
X91467689Y-138498627D01*
X91521043Y-138627435D01*
X91605916Y-138738044D01*
X91716525Y-138822917D01*
X91845333Y-138876271D01*
X91983560Y-138894469D01*
X92121787Y-138876271D01*
X92250595Y-138822917D01*
X92361204Y-138738044D01*
X92446077Y-138627435D01*
X92453225Y-138610179D01*
X93240905Y-138610179D01*
X93259568Y-138751939D01*
X93261681Y-138767984D01*
X93261682Y-138767988D01*
X93322589Y-138915034D01*
X93322590Y-138915036D01*
X93322591Y-138915037D01*
X93419487Y-139041313D01*
X93545763Y-139138209D01*
X93692815Y-139199119D01*
X93832261Y-139217477D01*
X93850620Y-139219895D01*
X93850621Y-139219895D01*
X93850622Y-139219895D01*
X93867067Y-139217729D01*
X94008427Y-139199119D01*
X94155479Y-139138209D01*
X94281755Y-139041313D01*
X94378651Y-138915037D01*
X94432265Y-138785600D01*
X101218331Y-138785600D01*
X101236529Y-138923826D01*
X101236529Y-138923827D01*
X101270665Y-139006240D01*
X101289883Y-139052635D01*
X101374756Y-139163244D01*
X101485365Y-139248117D01*
X101614173Y-139301471D01*
X101752400Y-139319669D01*
X101890627Y-139301471D01*
X102019435Y-139248117D01*
X102130044Y-139163244D01*
X102214917Y-139052635D01*
X102268271Y-138923827D01*
X102286469Y-138785600D01*
X102268271Y-138647373D01*
X102214917Y-138518566D01*
X102214917Y-138518565D01*
X102130047Y-138407959D01*
X102130045Y-138407957D01*
X102130044Y-138407956D01*
X102019435Y-138323083D01*
X102015193Y-138321326D01*
X101981706Y-138307455D01*
X101890627Y-138269729D01*
X101752400Y-138251531D01*
X101614173Y-138269729D01*
X101614172Y-138269729D01*
X101485366Y-138323082D01*
X101374756Y-138407956D01*
X101289882Y-138518566D01*
X101236529Y-138647372D01*
X101236529Y-138647373D01*
X101218331Y-138785600D01*
X94432265Y-138785600D01*
X94439561Y-138767985D01*
X94460337Y-138610179D01*
X94439561Y-138452373D01*
X94386008Y-138323082D01*
X94378652Y-138305323D01*
X94378651Y-138305322D01*
X94378651Y-138305321D01*
X94281755Y-138179045D01*
X94155479Y-138082149D01*
X94155478Y-138082148D01*
X94155476Y-138082147D01*
X94008430Y-138021240D01*
X94008428Y-138021239D01*
X94008427Y-138021239D01*
X93929523Y-138010851D01*
X93850622Y-138000463D01*
X93850620Y-138000463D01*
X93692815Y-138021239D01*
X93692811Y-138021240D01*
X93545765Y-138082147D01*
X93419487Y-138179045D01*
X93322589Y-138305323D01*
X93261682Y-138452369D01*
X93261681Y-138452373D01*
X93245523Y-138575106D01*
X93240905Y-138610179D01*
X92453225Y-138610179D01*
X92499431Y-138498627D01*
X92517629Y-138360400D01*
X92499431Y-138222173D01*
X92468176Y-138146719D01*
X92446077Y-138093365D01*
X92361207Y-137982759D01*
X92361205Y-137982757D01*
X92361204Y-137982756D01*
X92250595Y-137897883D01*
X92229801Y-137889270D01*
X92157360Y-137859264D01*
X92121787Y-137844529D01*
X91983560Y-137826331D01*
X91845333Y-137844529D01*
X91845332Y-137844529D01*
X91716526Y-137897882D01*
X91605916Y-137982756D01*
X91521042Y-138093366D01*
X91485553Y-138179045D01*
X91467689Y-138222173D01*
X91449491Y-138360400D01*
X87730925Y-138360400D01*
X87717640Y-138259494D01*
X87656730Y-138112442D01*
X87559834Y-137986166D01*
X87433558Y-137889270D01*
X87433557Y-137889269D01*
X87433555Y-137889268D01*
X87286509Y-137828361D01*
X87286507Y-137828360D01*
X87286506Y-137828360D01*
X87207603Y-137817972D01*
X87128701Y-137807584D01*
X87128699Y-137807584D01*
X86970894Y-137828360D01*
X86970890Y-137828361D01*
X86823844Y-137889268D01*
X86697566Y-137986166D01*
X86600668Y-138112444D01*
X86539761Y-138259490D01*
X86539760Y-138259494D01*
X86519762Y-138411394D01*
X86518984Y-138417300D01*
X86538982Y-138569200D01*
X86539760Y-138575105D01*
X86539761Y-138575109D01*
X86600668Y-138722155D01*
X86600669Y-138722157D01*
X86600670Y-138722158D01*
X86697566Y-138848434D01*
X86813946Y-138937736D01*
X86855147Y-138994163D01*
X86859302Y-139063909D01*
X86825089Y-139124830D01*
X86763372Y-139157582D01*
X86754644Y-139159050D01*
X86675138Y-139169517D01*
X86660622Y-139171429D01*
X86660621Y-139171429D01*
X86531815Y-139224782D01*
X86421205Y-139309656D01*
X86336331Y-139420266D01*
X86282978Y-139549072D01*
X86282978Y-139549073D01*
X86264780Y-139687300D01*
X75612540Y-139687300D01*
X75592416Y-139638718D01*
X75570317Y-139585365D01*
X75485447Y-139474759D01*
X75485445Y-139474757D01*
X75485444Y-139474756D01*
X75374835Y-139389883D01*
X75246027Y-139336529D01*
X75107800Y-139318331D01*
X74969573Y-139336529D01*
X74969572Y-139336529D01*
X74840766Y-139389882D01*
X74730156Y-139474756D01*
X74645282Y-139585366D01*
X74591929Y-139714172D01*
X74591929Y-139714173D01*
X74573731Y-139852400D01*
X71274932Y-139852400D01*
X71323842Y-139613527D01*
X71324454Y-139610852D01*
X71397826Y-139319668D01*
X71481197Y-138988800D01*
X78409131Y-138988800D01*
X78416044Y-139041313D01*
X78427329Y-139127026D01*
X78427329Y-139127027D01*
X78452936Y-139188849D01*
X78480683Y-139255835D01*
X78565556Y-139366444D01*
X78676165Y-139451317D01*
X78804973Y-139504671D01*
X78943200Y-139522869D01*
X79081427Y-139504671D01*
X79210235Y-139451317D01*
X79320844Y-139366444D01*
X79405717Y-139255835D01*
X79459071Y-139127027D01*
X79477269Y-138988800D01*
X79459071Y-138850573D01*
X79407889Y-138727009D01*
X79405717Y-138721765D01*
X79320847Y-138611159D01*
X79320845Y-138611157D01*
X79320844Y-138611156D01*
X79266166Y-138569200D01*
X83201235Y-138569200D01*
X83222011Y-138727005D01*
X83222012Y-138727009D01*
X83282919Y-138874055D01*
X83282920Y-138874057D01*
X83282921Y-138874058D01*
X83379817Y-139000334D01*
X83506093Y-139097230D01*
X83653145Y-139158140D01*
X83792591Y-139176498D01*
X83810950Y-139178916D01*
X83810951Y-139178916D01*
X83810952Y-139178916D01*
X83827397Y-139176750D01*
X83968757Y-139158140D01*
X84115809Y-139097230D01*
X84242085Y-139000334D01*
X84338981Y-138874058D01*
X84399891Y-138727006D01*
X84420667Y-138569200D01*
X84399891Y-138411394D01*
X84338981Y-138264342D01*
X84242085Y-138138066D01*
X84115809Y-138041170D01*
X84115808Y-138041169D01*
X84115806Y-138041168D01*
X83968760Y-137980261D01*
X83968758Y-137980260D01*
X83968757Y-137980260D01*
X83889854Y-137969872D01*
X83810952Y-137959484D01*
X83810950Y-137959484D01*
X83653145Y-137980260D01*
X83653141Y-137980261D01*
X83506095Y-138041168D01*
X83379817Y-138138066D01*
X83282919Y-138264344D01*
X83222012Y-138411390D01*
X83222011Y-138411394D01*
X83201235Y-138569199D01*
X83201235Y-138569200D01*
X79266166Y-138569200D01*
X79210235Y-138526283D01*
X79081427Y-138472929D01*
X78943200Y-138454731D01*
X78804973Y-138472929D01*
X78804972Y-138472929D01*
X78676166Y-138526282D01*
X78565556Y-138611156D01*
X78480682Y-138721766D01*
X78428215Y-138848433D01*
X78427329Y-138850573D01*
X78409131Y-138988800D01*
X71481197Y-138988800D01*
X71540884Y-138751924D01*
X71541621Y-138749256D01*
X71544988Y-138738044D01*
X71796366Y-137900916D01*
X71797211Y-137898320D01*
X71800379Y-137889268D01*
X71908794Y-137579435D01*
X72089766Y-137062247D01*
X72090744Y-137059642D01*
X72097448Y-137042930D01*
X72106033Y-137021528D01*
X84162059Y-137021528D01*
X84180256Y-137159751D01*
X84180257Y-137159754D01*
X84180257Y-137159755D01*
X84222442Y-137261600D01*
X84233611Y-137288563D01*
X84318484Y-137399172D01*
X84429093Y-137484045D01*
X84429097Y-137484048D01*
X84436130Y-137488108D01*
X84435015Y-137490037D01*
X84480381Y-137526587D01*
X84502453Y-137592879D01*
X84493095Y-137644766D01*
X84491329Y-137649030D01*
X84473131Y-137787257D01*
X84491329Y-137925484D01*
X84544683Y-138054292D01*
X84629556Y-138164901D01*
X84740165Y-138249774D01*
X84868973Y-138303128D01*
X85007200Y-138321326D01*
X85145427Y-138303128D01*
X85274235Y-138249774D01*
X85384844Y-138164901D01*
X85469717Y-138054292D01*
X85523071Y-137925484D01*
X85541269Y-137787257D01*
X85523071Y-137649030D01*
X85473854Y-137530210D01*
X85469717Y-137520222D01*
X85427191Y-137464800D01*
X97052731Y-137464800D01*
X97060865Y-137526587D01*
X97070929Y-137603026D01*
X97070929Y-137603027D01*
X97106972Y-137690044D01*
X97124283Y-137731835D01*
X97209156Y-137842444D01*
X97319765Y-137927317D01*
X97448573Y-137980671D01*
X97586800Y-137998869D01*
X97725027Y-137980671D01*
X97853835Y-137927317D01*
X97964444Y-137842444D01*
X98049317Y-137731835D01*
X98102671Y-137603027D01*
X98120869Y-137464800D01*
X98102671Y-137326573D01*
X98096800Y-137312400D01*
X98779931Y-137312400D01*
X98798129Y-137450626D01*
X98798129Y-137450627D01*
X98843626Y-137560468D01*
X98851483Y-137579435D01*
X98936356Y-137690044D01*
X99046965Y-137774917D01*
X99175773Y-137828271D01*
X99314000Y-137846469D01*
X99452227Y-137828271D01*
X99581035Y-137774917D01*
X99691644Y-137690044D01*
X99776517Y-137579435D01*
X99829871Y-137450627D01*
X99848069Y-137312400D01*
X99844370Y-137284303D01*
X99855135Y-137215268D01*
X99901515Y-137163012D01*
X99968784Y-137144127D01*
X100035585Y-137164608D01*
X100065684Y-137192631D01*
X100069624Y-137197766D01*
X100109640Y-137249917D01*
X100111471Y-137252302D01*
X100222080Y-137337175D01*
X100350888Y-137390529D01*
X100489115Y-137408727D01*
X100627342Y-137390529D01*
X100756150Y-137337175D01*
X100855328Y-137261073D01*
X100920495Y-137235879D01*
X100988940Y-137249917D01*
X101028942Y-137288515D01*
X101030935Y-137286986D01*
X101035882Y-137293433D01*
X101035883Y-137293435D01*
X101120756Y-137404044D01*
X101231365Y-137488917D01*
X101360173Y-137542271D01*
X101498400Y-137560469D01*
X101636627Y-137542271D01*
X101765435Y-137488917D01*
X101876044Y-137404044D01*
X101960917Y-137293435D01*
X101974103Y-137261600D01*
X105434731Y-137261600D01*
X105438281Y-137288561D01*
X105452929Y-137399826D01*
X105452929Y-137399827D01*
X105502798Y-137520223D01*
X105506283Y-137528635D01*
X105591156Y-137639244D01*
X105701765Y-137724117D01*
X105830573Y-137777471D01*
X105968800Y-137795669D01*
X106107027Y-137777471D01*
X106235835Y-137724117D01*
X106346444Y-137639244D01*
X106431317Y-137528635D01*
X106484671Y-137399827D01*
X106502869Y-137261600D01*
X106484671Y-137123373D01*
X106431317Y-136994566D01*
X106431317Y-136994565D01*
X106346447Y-136883959D01*
X106346445Y-136883957D01*
X106346444Y-136883956D01*
X106235835Y-136799083D01*
X106107027Y-136745729D01*
X105968800Y-136727531D01*
X105830573Y-136745729D01*
X105830572Y-136745729D01*
X105701766Y-136799082D01*
X105591156Y-136883956D01*
X105506282Y-136994566D01*
X105452929Y-137123372D01*
X105452929Y-137123373D01*
X105434731Y-137261600D01*
X101974103Y-137261600D01*
X102014271Y-137164627D01*
X102032469Y-137026400D01*
X102014271Y-136888173D01*
X101982071Y-136810435D01*
X101960917Y-136759365D01*
X101876047Y-136648759D01*
X101876045Y-136648757D01*
X101876044Y-136648756D01*
X101765435Y-136563883D01*
X101636627Y-136510529D01*
X101498400Y-136492331D01*
X101360173Y-136510529D01*
X101360172Y-136510529D01*
X101231365Y-136563882D01*
X101132187Y-136639984D01*
X101067017Y-136665178D01*
X100998572Y-136651139D01*
X100958571Y-136612543D01*
X100956580Y-136614072D01*
X100866762Y-136497017D01*
X100866760Y-136497015D01*
X100866759Y-136497014D01*
X100756150Y-136412141D01*
X100627342Y-136358787D01*
X100489115Y-136340589D01*
X100350888Y-136358787D01*
X100350887Y-136358787D01*
X100222081Y-136412140D01*
X100111471Y-136497014D01*
X100026597Y-136607624D01*
X99973244Y-136736430D01*
X99973244Y-136736431D01*
X99955046Y-136874658D01*
X99955046Y-136874662D01*
X99958744Y-136902756D01*
X99947977Y-136971791D01*
X99901596Y-137024046D01*
X99834327Y-137042930D01*
X99767527Y-137022448D01*
X99737428Y-136994424D01*
X99720061Y-136971791D01*
X99691644Y-136934756D01*
X99581035Y-136849883D01*
X99452227Y-136796529D01*
X99314000Y-136778331D01*
X99175773Y-136796529D01*
X99175772Y-136796529D01*
X99046966Y-136849882D01*
X98936356Y-136934756D01*
X98851482Y-137045366D01*
X98798129Y-137174172D01*
X98798129Y-137174173D01*
X98779931Y-137312400D01*
X98096800Y-137312400D01*
X98049317Y-137197766D01*
X98049317Y-137197765D01*
X97964447Y-137087159D01*
X97964445Y-137087157D01*
X97964444Y-137087156D01*
X97853835Y-137002283D01*
X97725027Y-136948929D01*
X97586800Y-136930731D01*
X97448573Y-136948929D01*
X97448572Y-136948929D01*
X97319766Y-137002282D01*
X97209156Y-137087156D01*
X97124282Y-137197766D01*
X97073372Y-137320674D01*
X97070929Y-137326573D01*
X97052731Y-137464800D01*
X85427191Y-137464800D01*
X85384846Y-137409614D01*
X85274235Y-137324740D01*
X85267193Y-137320674D01*
X85268307Y-137318744D01*
X85222944Y-137282193D01*
X85200874Y-137215901D01*
X85210235Y-137164011D01*
X85211999Y-137159755D01*
X85230197Y-137021528D01*
X85211999Y-136883301D01*
X85158645Y-136754494D01*
X85158645Y-136754493D01*
X85073775Y-136643887D01*
X85073773Y-136643885D01*
X85073772Y-136643884D01*
X84963163Y-136559011D01*
X84834355Y-136505657D01*
X84696128Y-136487459D01*
X84557901Y-136505657D01*
X84557900Y-136505657D01*
X84429094Y-136559010D01*
X84318484Y-136643884D01*
X84233610Y-136754494D01*
X84194099Y-136849883D01*
X84180257Y-136883301D01*
X84162059Y-137021528D01*
X72106033Y-137021528D01*
X72420496Y-136237580D01*
X72421574Y-136235057D01*
X72609920Y-135820400D01*
X75850331Y-135820400D01*
X75868529Y-135958627D01*
X75921883Y-136087435D01*
X76006756Y-136198044D01*
X76117365Y-136282917D01*
X76246173Y-136336271D01*
X76384400Y-136354469D01*
X76522627Y-136336271D01*
X76651435Y-136282917D01*
X76762044Y-136198044D01*
X76846917Y-136087435D01*
X76886613Y-135991600D01*
X78459931Y-135991600D01*
X78478129Y-136129826D01*
X78478129Y-136129827D01*
X78522767Y-136237594D01*
X78531483Y-136258635D01*
X78616356Y-136369244D01*
X78726965Y-136454117D01*
X78855773Y-136507471D01*
X78994000Y-136525669D01*
X79132227Y-136507471D01*
X79261035Y-136454117D01*
X79371644Y-136369244D01*
X79456517Y-136258635D01*
X79509871Y-136129827D01*
X79511125Y-136120300D01*
X102488331Y-136120300D01*
X102506529Y-136258527D01*
X102559883Y-136387335D01*
X102644756Y-136497944D01*
X102755365Y-136582817D01*
X102884173Y-136636171D01*
X103022400Y-136654369D01*
X103160627Y-136636171D01*
X103289435Y-136582817D01*
X103400044Y-136497944D01*
X103484917Y-136387335D01*
X103538271Y-136258527D01*
X103556469Y-136120300D01*
X103538271Y-135982073D01*
X103507016Y-135906619D01*
X103484917Y-135853265D01*
X103400047Y-135742659D01*
X103400045Y-135742657D01*
X103400044Y-135742656D01*
X103289435Y-135657783D01*
X103160627Y-135604429D01*
X103022400Y-135586231D01*
X102884173Y-135604429D01*
X102884172Y-135604429D01*
X102755366Y-135657782D01*
X102644756Y-135742656D01*
X102559882Y-135853266D01*
X102506529Y-135982072D01*
X102506529Y-135982073D01*
X102488331Y-136120300D01*
X79511125Y-136120300D01*
X79528069Y-135991600D01*
X79509871Y-135853373D01*
X79478431Y-135777470D01*
X79456517Y-135724565D01*
X79371647Y-135613959D01*
X79371645Y-135613957D01*
X79371644Y-135613956D01*
X79261035Y-135529083D01*
X79259953Y-135528635D01*
X79214163Y-135509668D01*
X79132227Y-135475729D01*
X78994000Y-135457531D01*
X78855773Y-135475729D01*
X78855772Y-135475729D01*
X78726966Y-135529082D01*
X78616356Y-135613956D01*
X78531482Y-135724566D01*
X78478129Y-135853372D01*
X78478129Y-135853373D01*
X78459931Y-135991600D01*
X76886613Y-135991600D01*
X76900271Y-135958627D01*
X76918469Y-135820400D01*
X76900271Y-135682173D01*
X76846917Y-135553366D01*
X76846917Y-135553365D01*
X76762047Y-135442759D01*
X76762045Y-135442757D01*
X76762044Y-135442756D01*
X76651435Y-135357883D01*
X76640235Y-135353244D01*
X76613706Y-135342255D01*
X76522627Y-135304529D01*
X76384400Y-135286331D01*
X76246173Y-135304529D01*
X76246172Y-135304529D01*
X76117366Y-135357882D01*
X76006756Y-135442756D01*
X75921882Y-135553366D01*
X75868529Y-135682172D01*
X75868529Y-135682173D01*
X75850331Y-135820400D01*
X72609920Y-135820400D01*
X72787911Y-135428542D01*
X72789093Y-135426090D01*
X72826210Y-135353244D01*
X72863326Y-135280399D01*
X89544331Y-135280399D01*
X89562529Y-135418626D01*
X89562529Y-135418627D01*
X89592701Y-135491470D01*
X89615883Y-135547435D01*
X89700756Y-135658044D01*
X89811365Y-135742917D01*
X89940173Y-135796271D01*
X90078400Y-135814469D01*
X90216627Y-135796271D01*
X90345435Y-135742917D01*
X90456044Y-135658044D01*
X90540917Y-135547435D01*
X90594271Y-135418627D01*
X90612469Y-135280400D01*
X90609994Y-135261600D01*
X93039531Y-135261600D01*
X93057729Y-135399826D01*
X93057729Y-135399827D01*
X93103226Y-135509668D01*
X93111083Y-135528635D01*
X93195956Y-135639244D01*
X93306565Y-135724117D01*
X93435373Y-135777471D01*
X93573600Y-135795669D01*
X93711827Y-135777471D01*
X93840635Y-135724117D01*
X93951244Y-135639244D01*
X94036117Y-135528635D01*
X94089471Y-135399827D01*
X94107669Y-135261600D01*
X94089471Y-135123373D01*
X94058216Y-135047919D01*
X94036117Y-134994565D01*
X94021565Y-134975600D01*
X95833531Y-134975600D01*
X95851729Y-135113827D01*
X95905083Y-135242635D01*
X95989956Y-135353244D01*
X96100565Y-135438117D01*
X96229373Y-135491471D01*
X96367600Y-135509669D01*
X96505827Y-135491471D01*
X96634635Y-135438117D01*
X96745244Y-135353244D01*
X96830117Y-135242635D01*
X96883471Y-135113827D01*
X96901669Y-134975600D01*
X96883471Y-134837373D01*
X96830117Y-134708566D01*
X96830117Y-134708565D01*
X96745247Y-134597959D01*
X96745245Y-134597957D01*
X96745244Y-134597956D01*
X96634635Y-134513083D01*
X96505827Y-134459729D01*
X96367600Y-134441531D01*
X96229373Y-134459729D01*
X96229372Y-134459729D01*
X96100566Y-134513082D01*
X95989956Y-134597956D01*
X95905082Y-134708566D01*
X95856960Y-134824744D01*
X95851729Y-134837373D01*
X95833531Y-134975600D01*
X94021565Y-134975600D01*
X93951247Y-134883959D01*
X93951245Y-134883957D01*
X93951244Y-134883956D01*
X93840635Y-134799083D01*
X93711827Y-134745729D01*
X93573600Y-134727531D01*
X93435373Y-134745729D01*
X93435372Y-134745729D01*
X93306566Y-134799082D01*
X93195956Y-134883956D01*
X93111082Y-134994566D01*
X93057729Y-135123372D01*
X93057729Y-135123373D01*
X93039531Y-135261600D01*
X90609994Y-135261600D01*
X90594271Y-135142173D01*
X90540917Y-135013366D01*
X90540917Y-135013365D01*
X90456047Y-134902759D01*
X90456045Y-134902757D01*
X90456044Y-134902756D01*
X90345435Y-134817883D01*
X90216627Y-134764529D01*
X90078400Y-134746331D01*
X89940173Y-134764529D01*
X89940172Y-134764529D01*
X89811366Y-134817882D01*
X89700756Y-134902756D01*
X89615882Y-135013366D01*
X89562529Y-135142172D01*
X89562529Y-135142173D01*
X89544331Y-135280399D01*
X72863326Y-135280399D01*
X73191223Y-134636865D01*
X73192521Y-134634451D01*
X73517795Y-134061200D01*
X75361131Y-134061200D01*
X75379329Y-134199426D01*
X75379329Y-134199427D01*
X75424662Y-134308872D01*
X75432683Y-134328235D01*
X75517556Y-134438844D01*
X75628165Y-134523717D01*
X75756973Y-134577071D01*
X75895200Y-134595269D01*
X76033427Y-134577071D01*
X76162235Y-134523717D01*
X76262085Y-134447100D01*
X83031931Y-134447100D01*
X83050129Y-134585326D01*
X83050129Y-134585327D01*
X83088543Y-134678068D01*
X83103483Y-134714135D01*
X83188356Y-134824744D01*
X83298965Y-134909617D01*
X83427773Y-134962971D01*
X83566000Y-134981169D01*
X83704227Y-134962971D01*
X83833035Y-134909617D01*
X83943644Y-134824744D01*
X84028517Y-134714135D01*
X84081871Y-134585327D01*
X84100069Y-134447100D01*
X84081871Y-134308873D01*
X84036536Y-134199426D01*
X84028517Y-134180065D01*
X83943647Y-134069459D01*
X83943645Y-134069457D01*
X83943644Y-134069456D01*
X83833035Y-133984583D01*
X83704227Y-133931229D01*
X83566000Y-133913031D01*
X83427773Y-133931229D01*
X83427772Y-133931229D01*
X83298966Y-133984582D01*
X83188356Y-134069456D01*
X83103482Y-134180066D01*
X83050129Y-134308872D01*
X83050129Y-134308873D01*
X83031931Y-134447100D01*
X76262085Y-134447100D01*
X76272844Y-134438844D01*
X76357717Y-134328235D01*
X76411071Y-134199427D01*
X76429269Y-134061200D01*
X76411071Y-133922973D01*
X76357717Y-133794166D01*
X76357717Y-133794165D01*
X76272847Y-133683559D01*
X76272845Y-133683557D01*
X76272844Y-133683556D01*
X76162235Y-133598683D01*
X76033427Y-133545329D01*
X75895200Y-133527131D01*
X75756973Y-133545329D01*
X75756972Y-133545329D01*
X75628166Y-133598682D01*
X75517556Y-133683556D01*
X75432682Y-133794166D01*
X75379329Y-133922972D01*
X75379329Y-133922973D01*
X75361131Y-134061200D01*
X73517795Y-134061200D01*
X73629660Y-133864053D01*
X73631071Y-133861691D01*
X73868971Y-133483076D01*
X77449955Y-133483076D01*
X77468153Y-133621302D01*
X77468153Y-133621303D01*
X77509312Y-133720671D01*
X77521507Y-133750111D01*
X77606380Y-133860720D01*
X77716989Y-133945593D01*
X77845797Y-133998947D01*
X77984024Y-134017145D01*
X78122251Y-133998947D01*
X78251059Y-133945593D01*
X78361668Y-133860720D01*
X78446541Y-133750111D01*
X78499895Y-133621303D01*
X78518093Y-133483076D01*
X78499895Y-133344849D01*
X78446541Y-133216042D01*
X78446541Y-133216041D01*
X78361671Y-133105435D01*
X78361669Y-133105433D01*
X78361668Y-133105432D01*
X78251059Y-133020559D01*
X78122251Y-132967205D01*
X77984024Y-132949007D01*
X77845797Y-132967205D01*
X77845796Y-132967205D01*
X77716990Y-133020558D01*
X77606380Y-133105432D01*
X77521506Y-133216042D01*
X77468153Y-133344848D01*
X77468153Y-133344849D01*
X77449955Y-133483076D01*
X73868971Y-133483076D01*
X74102348Y-133111658D01*
X74103841Y-133109396D01*
X74429871Y-132638800D01*
X79069531Y-132638800D01*
X79087729Y-132777027D01*
X79141083Y-132905835D01*
X79225956Y-133016444D01*
X79336565Y-133101317D01*
X79465373Y-133154671D01*
X79603600Y-133172869D01*
X79741827Y-133154671D01*
X79870635Y-133101317D01*
X79981244Y-133016444D01*
X80066117Y-132905835D01*
X80119471Y-132777027D01*
X80137669Y-132638800D01*
X80119471Y-132500573D01*
X80088216Y-132425119D01*
X80066117Y-132371765D01*
X79981247Y-132261159D01*
X79981245Y-132261157D01*
X79981244Y-132261156D01*
X79870635Y-132176283D01*
X79741827Y-132122929D01*
X79603600Y-132104731D01*
X79465373Y-132122929D01*
X79465372Y-132122929D01*
X79336566Y-132176282D01*
X79225956Y-132261156D01*
X79141082Y-132371766D01*
X79087729Y-132500572D01*
X79087729Y-132500573D01*
X79069531Y-132638800D01*
X74429871Y-132638800D01*
X74608293Y-132381263D01*
X74609912Y-132379037D01*
X75146513Y-131674283D01*
X75148210Y-131672157D01*
X75715888Y-130992187D01*
X75717704Y-130990111D01*
X75819607Y-130878625D01*
X76315305Y-130336308D01*
X76317191Y-130334336D01*
X76943536Y-129707991D01*
X76945508Y-129706105D01*
X77599320Y-129108495D01*
X77601387Y-129106688D01*
X78218005Y-128591900D01*
X78282079Y-128564049D01*
X78297990Y-128563091D01*
X80898775Y-128574253D01*
G37*
G04 #@! TD.AperFunction*
M02*
