%TF.GenerationSoftware,KiCad,Pcbnew,7.0.7*%
%TF.CreationDate,2024-10-23T00:54:41-07:00*%
%TF.ProjectId,ESP_POE_1.4b,4553505f-504f-4455-9f31-2e34622e6b69,K*%
%TF.SameCoordinates,Original*%
%TF.FileFunction,Drillmap*%
%TF.FilePolarity,Positive*%
%FSLAX45Y45*%
G04 Gerber Fmt 4.5, Leading zero omitted, Abs format (unit mm)*
G04 Created by KiCad (PCBNEW 7.0.7) date 2024-10-23 00:54:41*
%MOMM*%
%LPD*%
G01*
G04 APERTURE LIST*
%ADD10C,0.050000*%
%ADD11C,0.200000*%
%ADD12C,0.025000*%
%ADD13C,0.040000*%
%ADD14C,0.070000*%
%ADD15C,0.090000*%
%ADD16C,0.120000*%
%ADD17C,0.160000*%
%ADD18C,0.210000*%
G04 APERTURE END LIST*
D10*
X11062720Y-14401800D02*
G75*
G03*
X11062720Y-14401800I-2000000J0D01*
G01*
D11*
D12*
X7216340Y-14927780D02*
X7241340Y-14952780D01*
X7241340Y-14927780D02*
X7216340Y-14952780D01*
X7343340Y-13830500D02*
X7368340Y-13855500D01*
X7368340Y-13830500D02*
X7343340Y-13855500D01*
X7498280Y-13972740D02*
X7523280Y-13997740D01*
X7523280Y-13972740D02*
X7498280Y-13997740D01*
X7511470Y-14683940D02*
X7536470Y-14708940D01*
X7536470Y-14683940D02*
X7511470Y-14708940D01*
X7577020Y-13393620D02*
X7602020Y-13418620D01*
X7602020Y-13393620D02*
X7577020Y-13418620D01*
X7625940Y-13569540D02*
X7650940Y-13594540D01*
X7650940Y-13569540D02*
X7625940Y-13594540D01*
X7663380Y-14648380D02*
X7688380Y-14673380D01*
X7688380Y-14648380D02*
X7663380Y-14673380D01*
X7765470Y-13843660D02*
X7790470Y-13868660D01*
X7790470Y-13843660D02*
X7765470Y-13868660D01*
X7785902Y-13335808D02*
X7810902Y-13360808D01*
X7810902Y-13335808D02*
X7785902Y-13360808D01*
X7790380Y-13078660D02*
X7815380Y-13103660D01*
X7815380Y-13078660D02*
X7790380Y-13103660D01*
X7881820Y-13886380D02*
X7906820Y-13911380D01*
X7906820Y-13886380D02*
X7881820Y-13911380D01*
X7886900Y-13586660D02*
X7911900Y-13611660D01*
X7911900Y-13586660D02*
X7886900Y-13611660D01*
X7942780Y-15669460D02*
X7967780Y-15694460D01*
X7967780Y-15669460D02*
X7942780Y-15694460D01*
X7947860Y-13251380D02*
X7972860Y-13276380D01*
X7972860Y-13251380D02*
X7947860Y-13276380D01*
X7964980Y-15542460D02*
X7989980Y-15567460D01*
X7989980Y-15542460D02*
X7964980Y-15567460D01*
X7970060Y-15451020D02*
X7995060Y-15476020D01*
X7995060Y-15451020D02*
X7970060Y-15476020D01*
X8003740Y-15798340D02*
X8028740Y-15823340D01*
X8028740Y-15798340D02*
X8003740Y-15823340D01*
X8013290Y-14948100D02*
X8038290Y-14973100D01*
X8038290Y-14948100D02*
X8013290Y-14973100D01*
X8013910Y-15030748D02*
X8038910Y-15055748D01*
X8038910Y-15030748D02*
X8013910Y-15055748D01*
X8032880Y-14013380D02*
X8057880Y-14038380D01*
X8057880Y-14013380D02*
X8032880Y-14038380D01*
X8079940Y-12936420D02*
X8104940Y-12961420D01*
X8104940Y-12936420D02*
X8079940Y-12961420D01*
X8147860Y-14846500D02*
X8172860Y-14871500D01*
X8172860Y-14846500D02*
X8147860Y-14871500D01*
X8272980Y-14689020D02*
X8297980Y-14714020D01*
X8297980Y-14689020D02*
X8272980Y-14714020D01*
X8313620Y-15281500D02*
X8338620Y-15306500D01*
X8338620Y-15281500D02*
X8313620Y-15306500D01*
X8320580Y-14465500D02*
X8345580Y-14490500D01*
X8345580Y-14465500D02*
X8320580Y-14490500D01*
X8344100Y-13432210D02*
X8369100Y-13457210D01*
X8369100Y-13432210D02*
X8344100Y-13457210D01*
X8344100Y-14592500D02*
X8369100Y-14617500D01*
X8369100Y-14592500D02*
X8344100Y-14617500D01*
X8354260Y-14099740D02*
X8379260Y-14124740D01*
X8379260Y-14099740D02*
X8354260Y-14124740D01*
X8374920Y-14191180D02*
X8399920Y-14216180D01*
X8399920Y-14191180D02*
X8374920Y-14216180D01*
X8410140Y-15100500D02*
X8435140Y-15125500D01*
X8435140Y-15100500D02*
X8410140Y-15125500D01*
X8457113Y-13689653D02*
X8482113Y-13714653D01*
X8482113Y-13689653D02*
X8457113Y-13714653D01*
X8464230Y-15680024D02*
X8489230Y-15705024D01*
X8489230Y-15680024D02*
X8464230Y-15705024D01*
X8488220Y-13766226D02*
X8513220Y-13791226D01*
X8513220Y-13766226D02*
X8488220Y-13791226D01*
X8511740Y-15833900D02*
X8536740Y-15858900D01*
X8536740Y-15833900D02*
X8511740Y-15858900D01*
X8516820Y-14858540D02*
X8541820Y-14883540D01*
X8541820Y-14858540D02*
X8516820Y-14883540D01*
X8562540Y-15049700D02*
X8587540Y-15074700D01*
X8587540Y-15049700D02*
X8562540Y-15074700D01*
X8608260Y-13424260D02*
X8633260Y-13449260D01*
X8633260Y-13424260D02*
X8608260Y-13449260D01*
X8667385Y-13956230D02*
X8692385Y-13981230D01*
X8692385Y-13956230D02*
X8667385Y-13981230D01*
X8770820Y-14805860D02*
X8795820Y-14830860D01*
X8795820Y-14805860D02*
X8770820Y-14830860D01*
X8791140Y-15003980D02*
X8816140Y-15028980D01*
X8816140Y-15003980D02*
X8791140Y-15028980D01*
X8923220Y-14048940D02*
X8948220Y-14073940D01*
X8948220Y-14048940D02*
X8923220Y-14073940D01*
X8995340Y-13515540D02*
X9020340Y-13540540D01*
X9020340Y-13515540D02*
X8995340Y-13540540D01*
X9000290Y-15605440D02*
X9025290Y-15630440D01*
X9025290Y-15605440D02*
X9000290Y-15630440D01*
X9009580Y-14998900D02*
X9034580Y-15023900D01*
X9034580Y-14998900D02*
X9009580Y-15023900D01*
X9023328Y-14484496D02*
X9048328Y-14509496D01*
X9048328Y-14484496D02*
X9023328Y-14509496D01*
X9075620Y-15679620D02*
X9100620Y-15704620D01*
X9100620Y-15679620D02*
X9075620Y-15704620D01*
X9089990Y-15605440D02*
X9114990Y-15630440D01*
X9114990Y-15605440D02*
X9089990Y-15630440D01*
X9095940Y-13401900D02*
X9120940Y-13426900D01*
X9120940Y-13401900D02*
X9095940Y-13426900D01*
X9101070Y-15279624D02*
X9126070Y-15304624D01*
X9126070Y-15279624D02*
X9101070Y-15304624D01*
X9141660Y-13967660D02*
X9166660Y-13992660D01*
X9166660Y-13967660D02*
X9141660Y-13992660D01*
X9141660Y-15029380D02*
X9166660Y-15054380D01*
X9166660Y-15029380D02*
X9141660Y-15054380D01*
X9185856Y-13823540D02*
X9210856Y-13848540D01*
X9210856Y-13823540D02*
X9185856Y-13848540D01*
X9202620Y-14973500D02*
X9227620Y-14998500D01*
X9227620Y-14973500D02*
X9202620Y-14998500D01*
X9217370Y-15215500D02*
X9242370Y-15240500D01*
X9242370Y-15215500D02*
X9217370Y-15240500D01*
X9278820Y-14968420D02*
X9303820Y-14993420D01*
X9303820Y-14968420D02*
X9278820Y-14993420D01*
X9344860Y-13513660D02*
X9369860Y-13538660D01*
X9369860Y-13513660D02*
X9344860Y-13538660D01*
X9388025Y-14808385D02*
X9413025Y-14833385D01*
X9413025Y-14808385D02*
X9388025Y-14833385D01*
X9400740Y-14484450D02*
X9425740Y-14509450D01*
X9425740Y-14484450D02*
X9400740Y-14509450D01*
X9472369Y-15422713D02*
X9497369Y-15447713D01*
X9497369Y-15422713D02*
X9472369Y-15447713D01*
X9502340Y-13403730D02*
X9527340Y-13428730D01*
X9527340Y-13403730D02*
X9502340Y-13428730D01*
X9512500Y-14196260D02*
X9537500Y-14221260D01*
X9537500Y-14196260D02*
X9512500Y-14221260D01*
X9568380Y-14338500D02*
X9593380Y-14363500D01*
X9593380Y-14338500D02*
X9568380Y-14363500D01*
X9573460Y-14990780D02*
X9598460Y-15015780D01*
X9598460Y-14990780D02*
X9573460Y-15015780D01*
X9624260Y-13485060D02*
X9649260Y-13510060D01*
X9649260Y-13485060D02*
X9624260Y-13510060D01*
X9690300Y-15300500D02*
X9715300Y-15325500D01*
X9715300Y-15300500D02*
X9690300Y-15325500D01*
X9700460Y-14094660D02*
X9725460Y-14119660D01*
X9725460Y-14094660D02*
X9700460Y-14119660D01*
X9705540Y-13977820D02*
X9730540Y-14002820D01*
X9730540Y-13977820D02*
X9705540Y-14002820D01*
X9734140Y-15859300D02*
X9759140Y-15884300D01*
X9759140Y-15859300D02*
X9734140Y-15884300D01*
X9736020Y-13403780D02*
X9761020Y-13428780D01*
X9761020Y-13403780D02*
X9736020Y-13428780D01*
X9746180Y-13733980D02*
X9771180Y-13758980D01*
X9771180Y-13733980D02*
X9746180Y-13758980D01*
X9748654Y-15440847D02*
X9773654Y-15465847D01*
X9773654Y-15440847D02*
X9748654Y-15465847D01*
X9756340Y-14250260D02*
X9781340Y-14275260D01*
X9781340Y-14250260D02*
X9756340Y-14275260D01*
X9832540Y-15725340D02*
X9857540Y-15750340D01*
X9857540Y-15725340D02*
X9832540Y-15750340D01*
X9847780Y-15837100D02*
X9872780Y-15862100D01*
X9872780Y-15837100D02*
X9847780Y-15862100D01*
X9857940Y-15608500D02*
X9882940Y-15633500D01*
X9882940Y-15608500D02*
X9857940Y-15633500D01*
X9886300Y-13449500D02*
X9911300Y-13474500D01*
X9911300Y-13449500D02*
X9886300Y-13474500D01*
X9886300Y-14084500D02*
X9911300Y-14109500D01*
X9911300Y-14084500D02*
X9886300Y-14109500D01*
X9886300Y-14465500D02*
X9911300Y-14490500D01*
X9911300Y-14465500D02*
X9886300Y-14490500D01*
X9903811Y-14968403D02*
X9928811Y-14993403D01*
X9928811Y-14968403D02*
X9903811Y-14993403D01*
X9918900Y-13718740D02*
X9943900Y-13743740D01*
X9943900Y-13718740D02*
X9918900Y-13743740D01*
X10012796Y-15991956D02*
X10037796Y-16016956D01*
X10037796Y-15991956D02*
X10012796Y-16016956D01*
X10030660Y-15171620D02*
X10055660Y-15196620D01*
X10055660Y-15171620D02*
X10030660Y-15196620D01*
X10030660Y-15300500D02*
X10055660Y-15325500D01*
X10055660Y-15300500D02*
X10030660Y-15325500D01*
X10036412Y-13674966D02*
X10061412Y-13699966D01*
X10061412Y-13674966D02*
X10036412Y-13699966D01*
X10082029Y-15777510D02*
X10107029Y-15802510D01*
X10107029Y-15777510D02*
X10082029Y-15802510D01*
X10091620Y-15669460D02*
X10116620Y-15694460D01*
X10116620Y-15669460D02*
X10091620Y-15694460D01*
X10137340Y-13690140D02*
X10162340Y-13715140D01*
X10162340Y-13690140D02*
X10137340Y-13715140D01*
X10157660Y-15867580D02*
X10182660Y-15892580D01*
X10182660Y-15867580D02*
X10157660Y-15892580D01*
X10162740Y-13866060D02*
X10187740Y-13891060D01*
X10187740Y-13866060D02*
X10162740Y-13891060D01*
X10226080Y-14897300D02*
X10251080Y-14922300D01*
X10251080Y-14897300D02*
X10226080Y-14922300D01*
X10284744Y-15639064D02*
X10309744Y-15664064D01*
X10309744Y-15639064D02*
X10284744Y-15664064D01*
X10289740Y-13599530D02*
X10314740Y-13624530D01*
X10314740Y-13599530D02*
X10289740Y-13624530D01*
X10335460Y-15044620D02*
X10360460Y-15069620D01*
X10360460Y-15044620D02*
X10335460Y-15069620D01*
X10350700Y-15339260D02*
X10375700Y-15364260D01*
X10375700Y-15339260D02*
X10350700Y-15364260D01*
X10386260Y-15735500D02*
X10411260Y-15760500D01*
X10411260Y-15735500D02*
X10386260Y-15760500D01*
X10391340Y-15456100D02*
X10416340Y-15481100D01*
X10416340Y-15456100D02*
X10391340Y-15481100D01*
X10411660Y-13053260D02*
X10436660Y-13078260D01*
X10436660Y-13053260D02*
X10411660Y-13078260D01*
X10421820Y-14921870D02*
X10446820Y-14946870D01*
X10446820Y-14921870D02*
X10421820Y-14946870D01*
X10470290Y-15638980D02*
X10495290Y-15663980D01*
X10495290Y-15638980D02*
X10470290Y-15663980D01*
X10584380Y-13713660D02*
X10609380Y-13738660D01*
X10609380Y-13713660D02*
X10584380Y-13738660D01*
X10630100Y-13352980D02*
X10655100Y-13377980D01*
X10655100Y-13352980D02*
X10630100Y-13377980D01*
X10660580Y-15164660D02*
X10685580Y-15189660D01*
X10685580Y-15164660D02*
X10660580Y-15189660D01*
X10767260Y-13535860D02*
X10792260Y-13560860D01*
X10792260Y-13535860D02*
X10767260Y-13560860D01*
D13*
X8401095Y-13856920D02*
G75*
G03*
X8401095Y-13856920I-20000J0D01*
G01*
X8442640Y-14726920D02*
G75*
G03*
X8442640Y-14726920I-20000J0D01*
G01*
X8564560Y-14345920D02*
G75*
G03*
X8564560Y-14345920I-20000J0D01*
G01*
X8732870Y-13841730D02*
G75*
G03*
X8732870Y-13841730I-20000J0D01*
G01*
X9405062Y-13861018D02*
G75*
G03*
X9405062Y-13861018I-20000J0D01*
G01*
X9484040Y-15031720D02*
G75*
G03*
X9484040Y-15031720I-20000J0D01*
G01*
X9616120Y-15783560D02*
G75*
G03*
X9616120Y-15783560I-20000J0D01*
G01*
X9738040Y-14885630D02*
G75*
G03*
X9738040Y-14885630I-20000J0D01*
G01*
X10106840Y-13223240D02*
G75*
G03*
X10106840Y-13223240I-20000J0D01*
G01*
X10310398Y-13537819D02*
G75*
G03*
X10310398Y-13537819I-20000J0D01*
G01*
X10373040Y-13289280D02*
G75*
G03*
X10373040Y-13289280I-20000J0D01*
G01*
X10555920Y-14777720D02*
G75*
G03*
X10555920Y-14777720I-20000J0D01*
G01*
X10616880Y-14173200D02*
G75*
G03*
X10616880Y-14173200I-20000J0D01*
G01*
X10627040Y-14610080D02*
G75*
G03*
X10627040Y-14610080I-20000J0D01*
G01*
X10637200Y-14823440D02*
G75*
G03*
X10637200Y-14823440I-20000J0D01*
G01*
X10728640Y-14056560D02*
G75*
G03*
X10728640Y-14056560I-20000J0D01*
G01*
X10835320Y-14371320D02*
G75*
G03*
X10835320Y-14371320I-20000J0D01*
G01*
X10916600Y-14290040D02*
G75*
G03*
X10916600Y-14290040I-20000J0D01*
G01*
X9048800Y-14152000D02*
X9048800Y-14192000D01*
X9028800Y-14172000D02*
X9068800Y-14172000D01*
X9048800Y-14292000D02*
X9048800Y-14332000D01*
X9028800Y-14312000D02*
X9068800Y-14312000D01*
X9118800Y-14082000D02*
X9118800Y-14122000D01*
X9098800Y-14102000D02*
X9138800Y-14102000D01*
X9118800Y-14362000D02*
X9118800Y-14402000D01*
X9098800Y-14382000D02*
X9138800Y-14382000D01*
X9258800Y-14082000D02*
X9258800Y-14122000D01*
X9238800Y-14102000D02*
X9278800Y-14102000D01*
X9258800Y-14362000D02*
X9258800Y-14402000D01*
X9238800Y-14382000D02*
X9278800Y-14382000D01*
X9328800Y-14152000D02*
X9328800Y-14192000D01*
X9308800Y-14172000D02*
X9348800Y-14172000D01*
X9328800Y-14292000D02*
X9328800Y-14332000D01*
X9308800Y-14312000D02*
X9348800Y-14312000D01*
D14*
X7817469Y-14111589D02*
X7817469Y-14062091D01*
X7767971Y-14062091D01*
X7767971Y-14111589D01*
X7817469Y-14111589D01*
X7817469Y-14238589D02*
X7817469Y-14189091D01*
X7767971Y-14189091D01*
X7767971Y-14238589D01*
X7817469Y-14238589D01*
X7817469Y-14365589D02*
X7817469Y-14316091D01*
X7767971Y-14316091D01*
X7767971Y-14365589D01*
X7817469Y-14365589D01*
X7817469Y-14492589D02*
X7817469Y-14443091D01*
X7767971Y-14443091D01*
X7767971Y-14492589D01*
X7817469Y-14492589D01*
X7817469Y-14619589D02*
X7817469Y-14570091D01*
X7767971Y-14570091D01*
X7767971Y-14619589D01*
X7817469Y-14619589D01*
X7817469Y-14746589D02*
X7817469Y-14697091D01*
X7767971Y-14697091D01*
X7767971Y-14746589D01*
X7817469Y-14746589D01*
X7944469Y-14111589D02*
X7944469Y-14062091D01*
X7894971Y-14062091D01*
X7894971Y-14111589D01*
X7944469Y-14111589D01*
X7944469Y-14238589D02*
X7944469Y-14189091D01*
X7894971Y-14189091D01*
X7894971Y-14238589D01*
X7944469Y-14238589D01*
X7944469Y-14365589D02*
X7944469Y-14316091D01*
X7894971Y-14316091D01*
X7894971Y-14365589D01*
X7944469Y-14365589D01*
X7944469Y-14492589D02*
X7944469Y-14443091D01*
X7894971Y-14443091D01*
X7894971Y-14492589D01*
X7944469Y-14492589D01*
X7944469Y-14619589D02*
X7944469Y-14570091D01*
X7894971Y-14570091D01*
X7894971Y-14619589D01*
X7944469Y-14619589D01*
X7944469Y-14746589D02*
X7944469Y-14697091D01*
X7894971Y-14697091D01*
X7894971Y-14746589D01*
X7944469Y-14746589D01*
X10189829Y-14111589D02*
X10189829Y-14062091D01*
X10140331Y-14062091D01*
X10140331Y-14111589D01*
X10189829Y-14111589D01*
X10189829Y-14238589D02*
X10189829Y-14189091D01*
X10140331Y-14189091D01*
X10140331Y-14238589D01*
X10189829Y-14238589D01*
X10189829Y-14365589D02*
X10189829Y-14316091D01*
X10140331Y-14316091D01*
X10140331Y-14365589D01*
X10189829Y-14365589D01*
X10189829Y-14492589D02*
X10189829Y-14443091D01*
X10140331Y-14443091D01*
X10140331Y-14492589D01*
X10189829Y-14492589D01*
X10189829Y-14619589D02*
X10189829Y-14570091D01*
X10140331Y-14570091D01*
X10140331Y-14619589D01*
X10189829Y-14619589D01*
X10189829Y-14746589D02*
X10189829Y-14697091D01*
X10140331Y-14697091D01*
X10140331Y-14746589D01*
X10189829Y-14746589D01*
X10316829Y-14111589D02*
X10316829Y-14062091D01*
X10267331Y-14062091D01*
X10267331Y-14111589D01*
X10316829Y-14111589D01*
X10316829Y-14238589D02*
X10316829Y-14189091D01*
X10267331Y-14189091D01*
X10267331Y-14238589D01*
X10316829Y-14238589D01*
X10316829Y-14365589D02*
X10316829Y-14316091D01*
X10267331Y-14316091D01*
X10267331Y-14365589D01*
X10316829Y-14365589D01*
X10316829Y-14492589D02*
X10316829Y-14443091D01*
X10267331Y-14443091D01*
X10267331Y-14492589D01*
X10316829Y-14492589D01*
X10316829Y-14619589D02*
X10316829Y-14570091D01*
X10267331Y-14570091D01*
X10267331Y-14619589D01*
X10316829Y-14619589D01*
X10316829Y-14746589D02*
X10316829Y-14697091D01*
X10267331Y-14697091D01*
X10267331Y-14746589D01*
X10316829Y-14746589D01*
D15*
X7438952Y-14359805D02*
X7483952Y-14314805D01*
X7438952Y-14269805D01*
X7393952Y-14314805D01*
X7438952Y-14359805D01*
X7439206Y-14562751D02*
X7484206Y-14517751D01*
X7439206Y-14472751D01*
X7394206Y-14517751D01*
X7439206Y-14562751D01*
D16*
X9128800Y-14182000D02*
X9248800Y-14302000D01*
X9248800Y-14182000D02*
X9128800Y-14302000D01*
X9248800Y-14242000D02*
G75*
G03*
X9248800Y-14242000I-60000J0D01*
G01*
D17*
X8545640Y-15578940D02*
X8705640Y-15738940D01*
X8705640Y-15578940D02*
X8545640Y-15738940D01*
X8625640Y-15578940D02*
X8625640Y-15738940D01*
X8545640Y-15658940D02*
X8705640Y-15658940D01*
X9409640Y-15578940D02*
X9569640Y-15738940D01*
X9569640Y-15578940D02*
X9409640Y-15738940D01*
X9489640Y-15578940D02*
X9489640Y-15738940D01*
X9409640Y-15658940D02*
X9569640Y-15658940D01*
D18*
X8520640Y-16089940D02*
X8730640Y-16299940D01*
X8730640Y-16089940D02*
X8520640Y-16299940D01*
X8699887Y-16269187D02*
X8699887Y-16120693D01*
X8551393Y-16120693D01*
X8551393Y-16269187D01*
X8699887Y-16269187D01*
X9384640Y-16089940D02*
X9594640Y-16299940D01*
X9594640Y-16089940D02*
X9384640Y-16299940D01*
X9563887Y-16269187D02*
X9563887Y-16120693D01*
X9415393Y-16120693D01*
X9415393Y-16269187D01*
X9563887Y-16269187D01*
D11*
X7320997Y-16715784D02*
X7320997Y-16515784D01*
X7320997Y-16515784D02*
X7368616Y-16515784D01*
X7368616Y-16515784D02*
X7397187Y-16525308D01*
X7397187Y-16525308D02*
X7416235Y-16544355D01*
X7416235Y-16544355D02*
X7425759Y-16563403D01*
X7425759Y-16563403D02*
X7435282Y-16601498D01*
X7435282Y-16601498D02*
X7435282Y-16630069D01*
X7435282Y-16630069D02*
X7425759Y-16668165D01*
X7425759Y-16668165D02*
X7416235Y-16687212D01*
X7416235Y-16687212D02*
X7397187Y-16706260D01*
X7397187Y-16706260D02*
X7368616Y-16715784D01*
X7368616Y-16715784D02*
X7320997Y-16715784D01*
X7520997Y-16715784D02*
X7520997Y-16582450D01*
X7520997Y-16620546D02*
X7530521Y-16601498D01*
X7530521Y-16601498D02*
X7540044Y-16591974D01*
X7540044Y-16591974D02*
X7559092Y-16582450D01*
X7559092Y-16582450D02*
X7578140Y-16582450D01*
X7644806Y-16715784D02*
X7644806Y-16582450D01*
X7644806Y-16515784D02*
X7635282Y-16525308D01*
X7635282Y-16525308D02*
X7644806Y-16534831D01*
X7644806Y-16534831D02*
X7654330Y-16525308D01*
X7654330Y-16525308D02*
X7644806Y-16515784D01*
X7644806Y-16515784D02*
X7644806Y-16534831D01*
X7768616Y-16715784D02*
X7749568Y-16706260D01*
X7749568Y-16706260D02*
X7740044Y-16687212D01*
X7740044Y-16687212D02*
X7740044Y-16515784D01*
X7873378Y-16715784D02*
X7854330Y-16706260D01*
X7854330Y-16706260D02*
X7844806Y-16687212D01*
X7844806Y-16687212D02*
X7844806Y-16515784D01*
X8101949Y-16715784D02*
X8101949Y-16515784D01*
X8101949Y-16515784D02*
X8168616Y-16658641D01*
X8168616Y-16658641D02*
X8235282Y-16515784D01*
X8235282Y-16515784D02*
X8235282Y-16715784D01*
X8416235Y-16715784D02*
X8416235Y-16611022D01*
X8416235Y-16611022D02*
X8406711Y-16591974D01*
X8406711Y-16591974D02*
X8387663Y-16582450D01*
X8387663Y-16582450D02*
X8349568Y-16582450D01*
X8349568Y-16582450D02*
X8330521Y-16591974D01*
X8416235Y-16706260D02*
X8397187Y-16715784D01*
X8397187Y-16715784D02*
X8349568Y-16715784D01*
X8349568Y-16715784D02*
X8330521Y-16706260D01*
X8330521Y-16706260D02*
X8320997Y-16687212D01*
X8320997Y-16687212D02*
X8320997Y-16668165D01*
X8320997Y-16668165D02*
X8330521Y-16649117D01*
X8330521Y-16649117D02*
X8349568Y-16639593D01*
X8349568Y-16639593D02*
X8397187Y-16639593D01*
X8397187Y-16639593D02*
X8416235Y-16630069D01*
X8511473Y-16582450D02*
X8511473Y-16782450D01*
X8511473Y-16591974D02*
X8530521Y-16582450D01*
X8530521Y-16582450D02*
X8568616Y-16582450D01*
X8568616Y-16582450D02*
X8587664Y-16591974D01*
X8587664Y-16591974D02*
X8597187Y-16601498D01*
X8597187Y-16601498D02*
X8606711Y-16620546D01*
X8606711Y-16620546D02*
X8606711Y-16677688D01*
X8606711Y-16677688D02*
X8597187Y-16696736D01*
X8597187Y-16696736D02*
X8587664Y-16706260D01*
X8587664Y-16706260D02*
X8568616Y-16715784D01*
X8568616Y-16715784D02*
X8530521Y-16715784D01*
X8530521Y-16715784D02*
X8511473Y-16706260D01*
X8692425Y-16696736D02*
X8701949Y-16706260D01*
X8701949Y-16706260D02*
X8692425Y-16715784D01*
X8692425Y-16715784D02*
X8682902Y-16706260D01*
X8682902Y-16706260D02*
X8692425Y-16696736D01*
X8692425Y-16696736D02*
X8692425Y-16715784D01*
X8692425Y-16591974D02*
X8701949Y-16601498D01*
X8701949Y-16601498D02*
X8692425Y-16611022D01*
X8692425Y-16611022D02*
X8682902Y-16601498D01*
X8682902Y-16601498D02*
X8692425Y-16591974D01*
X8692425Y-16591974D02*
X8692425Y-16611022D01*
D12*
X7035220Y-17031800D02*
X7060220Y-17056800D01*
X7060220Y-17031800D02*
X7035220Y-17056800D01*
D11*
X7359092Y-16935784D02*
X7378140Y-16935784D01*
X7378140Y-16935784D02*
X7397187Y-16945308D01*
X7397187Y-16945308D02*
X7406711Y-16954831D01*
X7406711Y-16954831D02*
X7416235Y-16973879D01*
X7416235Y-16973879D02*
X7425759Y-17011974D01*
X7425759Y-17011974D02*
X7425759Y-17059593D01*
X7425759Y-17059593D02*
X7416235Y-17097689D01*
X7416235Y-17097689D02*
X7406711Y-17116736D01*
X7406711Y-17116736D02*
X7397187Y-17126260D01*
X7397187Y-17126260D02*
X7378140Y-17135784D01*
X7378140Y-17135784D02*
X7359092Y-17135784D01*
X7359092Y-17135784D02*
X7340044Y-17126260D01*
X7340044Y-17126260D02*
X7330521Y-17116736D01*
X7330521Y-17116736D02*
X7320997Y-17097689D01*
X7320997Y-17097689D02*
X7311473Y-17059593D01*
X7311473Y-17059593D02*
X7311473Y-17011974D01*
X7311473Y-17011974D02*
X7320997Y-16973879D01*
X7320997Y-16973879D02*
X7330521Y-16954831D01*
X7330521Y-16954831D02*
X7340044Y-16945308D01*
X7340044Y-16945308D02*
X7359092Y-16935784D01*
X7511473Y-17116736D02*
X7520997Y-17126260D01*
X7520997Y-17126260D02*
X7511473Y-17135784D01*
X7511473Y-17135784D02*
X7501949Y-17126260D01*
X7501949Y-17126260D02*
X7511473Y-17116736D01*
X7511473Y-17116736D02*
X7511473Y-17135784D01*
X7597187Y-16954831D02*
X7606711Y-16945308D01*
X7606711Y-16945308D02*
X7625759Y-16935784D01*
X7625759Y-16935784D02*
X7673378Y-16935784D01*
X7673378Y-16935784D02*
X7692425Y-16945308D01*
X7692425Y-16945308D02*
X7701949Y-16954831D01*
X7701949Y-16954831D02*
X7711473Y-16973879D01*
X7711473Y-16973879D02*
X7711473Y-16992927D01*
X7711473Y-16992927D02*
X7701949Y-17021498D01*
X7701949Y-17021498D02*
X7587663Y-17135784D01*
X7587663Y-17135784D02*
X7711473Y-17135784D01*
X7892425Y-16935784D02*
X7797187Y-16935784D01*
X7797187Y-16935784D02*
X7787663Y-17031022D01*
X7787663Y-17031022D02*
X7797187Y-17021498D01*
X7797187Y-17021498D02*
X7816235Y-17011974D01*
X7816235Y-17011974D02*
X7863854Y-17011974D01*
X7863854Y-17011974D02*
X7882902Y-17021498D01*
X7882902Y-17021498D02*
X7892425Y-17031022D01*
X7892425Y-17031022D02*
X7901949Y-17050070D01*
X7901949Y-17050070D02*
X7901949Y-17097689D01*
X7901949Y-17097689D02*
X7892425Y-17116736D01*
X7892425Y-17116736D02*
X7882902Y-17126260D01*
X7882902Y-17126260D02*
X7863854Y-17135784D01*
X7863854Y-17135784D02*
X7816235Y-17135784D01*
X7816235Y-17135784D02*
X7797187Y-17126260D01*
X7797187Y-17126260D02*
X7787663Y-17116736D01*
X8025759Y-16935784D02*
X8044806Y-16935784D01*
X8044806Y-16935784D02*
X8063854Y-16945308D01*
X8063854Y-16945308D02*
X8073378Y-16954831D01*
X8073378Y-16954831D02*
X8082902Y-16973879D01*
X8082902Y-16973879D02*
X8092425Y-17011974D01*
X8092425Y-17011974D02*
X8092425Y-17059593D01*
X8092425Y-17059593D02*
X8082902Y-17097689D01*
X8082902Y-17097689D02*
X8073378Y-17116736D01*
X8073378Y-17116736D02*
X8063854Y-17126260D01*
X8063854Y-17126260D02*
X8044806Y-17135784D01*
X8044806Y-17135784D02*
X8025759Y-17135784D01*
X8025759Y-17135784D02*
X8006711Y-17126260D01*
X8006711Y-17126260D02*
X7997187Y-17116736D01*
X7997187Y-17116736D02*
X7987663Y-17097689D01*
X7987663Y-17097689D02*
X7978140Y-17059593D01*
X7978140Y-17059593D02*
X7978140Y-17011974D01*
X7978140Y-17011974D02*
X7987663Y-16973879D01*
X7987663Y-16973879D02*
X7997187Y-16954831D01*
X7997187Y-16954831D02*
X8006711Y-16945308D01*
X8006711Y-16945308D02*
X8025759Y-16935784D01*
X8178140Y-17135784D02*
X8178140Y-17002450D01*
X8178140Y-17021498D02*
X8187663Y-17011974D01*
X8187663Y-17011974D02*
X8206711Y-17002450D01*
X8206711Y-17002450D02*
X8235283Y-17002450D01*
X8235283Y-17002450D02*
X8254330Y-17011974D01*
X8254330Y-17011974D02*
X8263854Y-17031022D01*
X8263854Y-17031022D02*
X8263854Y-17135784D01*
X8263854Y-17031022D02*
X8273378Y-17011974D01*
X8273378Y-17011974D02*
X8292425Y-17002450D01*
X8292425Y-17002450D02*
X8320997Y-17002450D01*
X8320997Y-17002450D02*
X8340044Y-17011974D01*
X8340044Y-17011974D02*
X8349568Y-17031022D01*
X8349568Y-17031022D02*
X8349568Y-17135784D01*
X8444806Y-17135784D02*
X8444806Y-17002450D01*
X8444806Y-17021498D02*
X8454330Y-17011974D01*
X8454330Y-17011974D02*
X8473378Y-17002450D01*
X8473378Y-17002450D02*
X8501949Y-17002450D01*
X8501949Y-17002450D02*
X8520997Y-17011974D01*
X8520997Y-17011974D02*
X8530521Y-17031022D01*
X8530521Y-17031022D02*
X8530521Y-17135784D01*
X8530521Y-17031022D02*
X8540045Y-17011974D01*
X8540045Y-17011974D02*
X8559092Y-17002450D01*
X8559092Y-17002450D02*
X8587664Y-17002450D01*
X8587664Y-17002450D02*
X8606711Y-17011974D01*
X8606711Y-17011974D02*
X8616235Y-17031022D01*
X8616235Y-17031022D02*
X8616235Y-17135784D01*
X9006711Y-16926260D02*
X8835283Y-17183403D01*
X9263854Y-16935784D02*
X9282902Y-16935784D01*
X9282902Y-16935784D02*
X9301949Y-16945308D01*
X9301949Y-16945308D02*
X9311473Y-16954831D01*
X9311473Y-16954831D02*
X9320997Y-16973879D01*
X9320997Y-16973879D02*
X9330521Y-17011974D01*
X9330521Y-17011974D02*
X9330521Y-17059593D01*
X9330521Y-17059593D02*
X9320997Y-17097689D01*
X9320997Y-17097689D02*
X9311473Y-17116736D01*
X9311473Y-17116736D02*
X9301949Y-17126260D01*
X9301949Y-17126260D02*
X9282902Y-17135784D01*
X9282902Y-17135784D02*
X9263854Y-17135784D01*
X9263854Y-17135784D02*
X9244807Y-17126260D01*
X9244807Y-17126260D02*
X9235283Y-17116736D01*
X9235283Y-17116736D02*
X9225759Y-17097689D01*
X9225759Y-17097689D02*
X9216235Y-17059593D01*
X9216235Y-17059593D02*
X9216235Y-17011974D01*
X9216235Y-17011974D02*
X9225759Y-16973879D01*
X9225759Y-16973879D02*
X9235283Y-16954831D01*
X9235283Y-16954831D02*
X9244807Y-16945308D01*
X9244807Y-16945308D02*
X9263854Y-16935784D01*
X9416235Y-17116736D02*
X9425759Y-17126260D01*
X9425759Y-17126260D02*
X9416235Y-17135784D01*
X9416235Y-17135784D02*
X9406711Y-17126260D01*
X9406711Y-17126260D02*
X9416235Y-17116736D01*
X9416235Y-17116736D02*
X9416235Y-17135784D01*
X9549568Y-16935784D02*
X9568616Y-16935784D01*
X9568616Y-16935784D02*
X9587664Y-16945308D01*
X9587664Y-16945308D02*
X9597188Y-16954831D01*
X9597188Y-16954831D02*
X9606711Y-16973879D01*
X9606711Y-16973879D02*
X9616235Y-17011974D01*
X9616235Y-17011974D02*
X9616235Y-17059593D01*
X9616235Y-17059593D02*
X9606711Y-17097689D01*
X9606711Y-17097689D02*
X9597188Y-17116736D01*
X9597188Y-17116736D02*
X9587664Y-17126260D01*
X9587664Y-17126260D02*
X9568616Y-17135784D01*
X9568616Y-17135784D02*
X9549568Y-17135784D01*
X9549568Y-17135784D02*
X9530521Y-17126260D01*
X9530521Y-17126260D02*
X9520997Y-17116736D01*
X9520997Y-17116736D02*
X9511473Y-17097689D01*
X9511473Y-17097689D02*
X9501949Y-17059593D01*
X9501949Y-17059593D02*
X9501949Y-17011974D01*
X9501949Y-17011974D02*
X9511473Y-16973879D01*
X9511473Y-16973879D02*
X9520997Y-16954831D01*
X9520997Y-16954831D02*
X9530521Y-16945308D01*
X9530521Y-16945308D02*
X9549568Y-16935784D01*
X9740045Y-16935784D02*
X9759092Y-16935784D01*
X9759092Y-16935784D02*
X9778140Y-16945308D01*
X9778140Y-16945308D02*
X9787664Y-16954831D01*
X9787664Y-16954831D02*
X9797188Y-16973879D01*
X9797188Y-16973879D02*
X9806711Y-17011974D01*
X9806711Y-17011974D02*
X9806711Y-17059593D01*
X9806711Y-17059593D02*
X9797188Y-17097689D01*
X9797188Y-17097689D02*
X9787664Y-17116736D01*
X9787664Y-17116736D02*
X9778140Y-17126260D01*
X9778140Y-17126260D02*
X9759092Y-17135784D01*
X9759092Y-17135784D02*
X9740045Y-17135784D01*
X9740045Y-17135784D02*
X9720997Y-17126260D01*
X9720997Y-17126260D02*
X9711473Y-17116736D01*
X9711473Y-17116736D02*
X9701949Y-17097689D01*
X9701949Y-17097689D02*
X9692426Y-17059593D01*
X9692426Y-17059593D02*
X9692426Y-17011974D01*
X9692426Y-17011974D02*
X9701949Y-16973879D01*
X9701949Y-16973879D02*
X9711473Y-16954831D01*
X9711473Y-16954831D02*
X9720997Y-16945308D01*
X9720997Y-16945308D02*
X9740045Y-16935784D01*
X9901949Y-17135784D02*
X9940045Y-17135784D01*
X9940045Y-17135784D02*
X9959092Y-17126260D01*
X9959092Y-17126260D02*
X9968616Y-17116736D01*
X9968616Y-17116736D02*
X9987664Y-17088165D01*
X9987664Y-17088165D02*
X9997188Y-17050070D01*
X9997188Y-17050070D02*
X9997188Y-16973879D01*
X9997188Y-16973879D02*
X9987664Y-16954831D01*
X9987664Y-16954831D02*
X9978140Y-16945308D01*
X9978140Y-16945308D02*
X9959092Y-16935784D01*
X9959092Y-16935784D02*
X9920997Y-16935784D01*
X9920997Y-16935784D02*
X9901949Y-16945308D01*
X9901949Y-16945308D02*
X9892426Y-16954831D01*
X9892426Y-16954831D02*
X9882902Y-16973879D01*
X9882902Y-16973879D02*
X9882902Y-17021498D01*
X9882902Y-17021498D02*
X9892426Y-17040546D01*
X9892426Y-17040546D02*
X9901949Y-17050070D01*
X9901949Y-17050070D02*
X9920997Y-17059593D01*
X9920997Y-17059593D02*
X9959092Y-17059593D01*
X9959092Y-17059593D02*
X9978140Y-17050070D01*
X9978140Y-17050070D02*
X9987664Y-17040546D01*
X9987664Y-17040546D02*
X9997188Y-17021498D01*
X10111473Y-17021498D02*
X10092426Y-17011974D01*
X10092426Y-17011974D02*
X10082902Y-17002450D01*
X10082902Y-17002450D02*
X10073378Y-16983403D01*
X10073378Y-16983403D02*
X10073378Y-16973879D01*
X10073378Y-16973879D02*
X10082902Y-16954831D01*
X10082902Y-16954831D02*
X10092426Y-16945308D01*
X10092426Y-16945308D02*
X10111473Y-16935784D01*
X10111473Y-16935784D02*
X10149569Y-16935784D01*
X10149569Y-16935784D02*
X10168616Y-16945308D01*
X10168616Y-16945308D02*
X10178140Y-16954831D01*
X10178140Y-16954831D02*
X10187664Y-16973879D01*
X10187664Y-16973879D02*
X10187664Y-16983403D01*
X10187664Y-16983403D02*
X10178140Y-17002450D01*
X10178140Y-17002450D02*
X10168616Y-17011974D01*
X10168616Y-17011974D02*
X10149569Y-17021498D01*
X10149569Y-17021498D02*
X10111473Y-17021498D01*
X10111473Y-17021498D02*
X10092426Y-17031022D01*
X10092426Y-17031022D02*
X10082902Y-17040546D01*
X10082902Y-17040546D02*
X10073378Y-17059593D01*
X10073378Y-17059593D02*
X10073378Y-17097689D01*
X10073378Y-17097689D02*
X10082902Y-17116736D01*
X10082902Y-17116736D02*
X10092426Y-17126260D01*
X10092426Y-17126260D02*
X10111473Y-17135784D01*
X10111473Y-17135784D02*
X10149569Y-17135784D01*
X10149569Y-17135784D02*
X10168616Y-17126260D01*
X10168616Y-17126260D02*
X10178140Y-17116736D01*
X10178140Y-17116736D02*
X10187664Y-17097689D01*
X10187664Y-17097689D02*
X10187664Y-17059593D01*
X10187664Y-17059593D02*
X10178140Y-17040546D01*
X10178140Y-17040546D02*
X10168616Y-17031022D01*
X10168616Y-17031022D02*
X10149569Y-17021498D01*
X10263854Y-16935784D02*
X10263854Y-16973879D01*
X10340045Y-16935784D02*
X10340045Y-16973879D01*
X10635283Y-17211974D02*
X10625759Y-17202450D01*
X10625759Y-17202450D02*
X10606711Y-17173879D01*
X10606711Y-17173879D02*
X10597188Y-17154831D01*
X10597188Y-17154831D02*
X10587664Y-17126260D01*
X10587664Y-17126260D02*
X10578140Y-17078641D01*
X10578140Y-17078641D02*
X10578140Y-17040546D01*
X10578140Y-17040546D02*
X10587664Y-16992927D01*
X10587664Y-16992927D02*
X10597188Y-16964355D01*
X10597188Y-16964355D02*
X10606711Y-16945308D01*
X10606711Y-16945308D02*
X10625759Y-16916736D01*
X10625759Y-16916736D02*
X10635283Y-16907212D01*
X10816235Y-17135784D02*
X10701950Y-17135784D01*
X10759092Y-17135784D02*
X10759092Y-16935784D01*
X10759092Y-16935784D02*
X10740045Y-16964355D01*
X10740045Y-16964355D02*
X10720997Y-16983403D01*
X10720997Y-16983403D02*
X10701950Y-16992927D01*
X10940045Y-16935784D02*
X10959092Y-16935784D01*
X10959092Y-16935784D02*
X10978140Y-16945308D01*
X10978140Y-16945308D02*
X10987664Y-16954831D01*
X10987664Y-16954831D02*
X10997188Y-16973879D01*
X10997188Y-16973879D02*
X11006711Y-17011974D01*
X11006711Y-17011974D02*
X11006711Y-17059593D01*
X11006711Y-17059593D02*
X10997188Y-17097689D01*
X10997188Y-17097689D02*
X10987664Y-17116736D01*
X10987664Y-17116736D02*
X10978140Y-17126260D01*
X10978140Y-17126260D02*
X10959092Y-17135784D01*
X10959092Y-17135784D02*
X10940045Y-17135784D01*
X10940045Y-17135784D02*
X10920997Y-17126260D01*
X10920997Y-17126260D02*
X10911473Y-17116736D01*
X10911473Y-17116736D02*
X10901950Y-17097689D01*
X10901950Y-17097689D02*
X10892426Y-17059593D01*
X10892426Y-17059593D02*
X10892426Y-17011974D01*
X10892426Y-17011974D02*
X10901950Y-16973879D01*
X10901950Y-16973879D02*
X10911473Y-16954831D01*
X10911473Y-16954831D02*
X10920997Y-16945308D01*
X10920997Y-16945308D02*
X10940045Y-16935784D01*
X11073378Y-16935784D02*
X11197188Y-16935784D01*
X11197188Y-16935784D02*
X11130521Y-17011974D01*
X11130521Y-17011974D02*
X11159092Y-17011974D01*
X11159092Y-17011974D02*
X11178140Y-17021498D01*
X11178140Y-17021498D02*
X11187664Y-17031022D01*
X11187664Y-17031022D02*
X11197188Y-17050070D01*
X11197188Y-17050070D02*
X11197188Y-17097689D01*
X11197188Y-17097689D02*
X11187664Y-17116736D01*
X11187664Y-17116736D02*
X11178140Y-17126260D01*
X11178140Y-17126260D02*
X11159092Y-17135784D01*
X11159092Y-17135784D02*
X11101950Y-17135784D01*
X11101950Y-17135784D02*
X11082902Y-17126260D01*
X11082902Y-17126260D02*
X11073378Y-17116736D01*
X11435283Y-17135784D02*
X11435283Y-16935784D01*
X11520997Y-17135784D02*
X11520997Y-17031022D01*
X11520997Y-17031022D02*
X11511473Y-17011974D01*
X11511473Y-17011974D02*
X11492426Y-17002450D01*
X11492426Y-17002450D02*
X11463854Y-17002450D01*
X11463854Y-17002450D02*
X11444807Y-17011974D01*
X11444807Y-17011974D02*
X11435283Y-17021498D01*
X11644807Y-17135784D02*
X11625759Y-17126260D01*
X11625759Y-17126260D02*
X11616235Y-17116736D01*
X11616235Y-17116736D02*
X11606711Y-17097689D01*
X11606711Y-17097689D02*
X11606711Y-17040546D01*
X11606711Y-17040546D02*
X11616235Y-17021498D01*
X11616235Y-17021498D02*
X11625759Y-17011974D01*
X11625759Y-17011974D02*
X11644807Y-17002450D01*
X11644807Y-17002450D02*
X11673378Y-17002450D01*
X11673378Y-17002450D02*
X11692426Y-17011974D01*
X11692426Y-17011974D02*
X11701950Y-17021498D01*
X11701950Y-17021498D02*
X11711473Y-17040546D01*
X11711473Y-17040546D02*
X11711473Y-17097689D01*
X11711473Y-17097689D02*
X11701950Y-17116736D01*
X11701950Y-17116736D02*
X11692426Y-17126260D01*
X11692426Y-17126260D02*
X11673378Y-17135784D01*
X11673378Y-17135784D02*
X11644807Y-17135784D01*
X11825759Y-17135784D02*
X11806711Y-17126260D01*
X11806711Y-17126260D02*
X11797188Y-17107212D01*
X11797188Y-17107212D02*
X11797188Y-16935784D01*
X11978140Y-17126260D02*
X11959092Y-17135784D01*
X11959092Y-17135784D02*
X11920997Y-17135784D01*
X11920997Y-17135784D02*
X11901950Y-17126260D01*
X11901950Y-17126260D02*
X11892426Y-17107212D01*
X11892426Y-17107212D02*
X11892426Y-17031022D01*
X11892426Y-17031022D02*
X11901950Y-17011974D01*
X11901950Y-17011974D02*
X11920997Y-17002450D01*
X11920997Y-17002450D02*
X11959092Y-17002450D01*
X11959092Y-17002450D02*
X11978140Y-17011974D01*
X11978140Y-17011974D02*
X11987664Y-17031022D01*
X11987664Y-17031022D02*
X11987664Y-17050070D01*
X11987664Y-17050070D02*
X11892426Y-17069117D01*
X12063854Y-17126260D02*
X12082902Y-17135784D01*
X12082902Y-17135784D02*
X12120997Y-17135784D01*
X12120997Y-17135784D02*
X12140045Y-17126260D01*
X12140045Y-17126260D02*
X12149569Y-17107212D01*
X12149569Y-17107212D02*
X12149569Y-17097689D01*
X12149569Y-17097689D02*
X12140045Y-17078641D01*
X12140045Y-17078641D02*
X12120997Y-17069117D01*
X12120997Y-17069117D02*
X12092426Y-17069117D01*
X12092426Y-17069117D02*
X12073378Y-17059593D01*
X12073378Y-17059593D02*
X12063854Y-17040546D01*
X12063854Y-17040546D02*
X12063854Y-17031022D01*
X12063854Y-17031022D02*
X12073378Y-17011974D01*
X12073378Y-17011974D02*
X12092426Y-17002450D01*
X12092426Y-17002450D02*
X12120997Y-17002450D01*
X12120997Y-17002450D02*
X12140045Y-17011974D01*
X12216235Y-17211974D02*
X12225759Y-17202450D01*
X12225759Y-17202450D02*
X12244807Y-17173879D01*
X12244807Y-17173879D02*
X12254331Y-17154831D01*
X12254331Y-17154831D02*
X12263854Y-17126260D01*
X12263854Y-17126260D02*
X12273378Y-17078641D01*
X12273378Y-17078641D02*
X12273378Y-17040546D01*
X12273378Y-17040546D02*
X12263854Y-16992927D01*
X12263854Y-16992927D02*
X12254331Y-16964355D01*
X12254331Y-16964355D02*
X12244807Y-16945308D01*
X12244807Y-16945308D02*
X12225759Y-16916736D01*
X12225759Y-16916736D02*
X12216235Y-16907212D01*
D13*
X7060220Y-17308300D02*
G75*
G03*
X7060220Y-17308300I-20000J0D01*
G01*
D11*
X7359092Y-17199784D02*
X7378140Y-17199784D01*
X7378140Y-17199784D02*
X7397187Y-17209308D01*
X7397187Y-17209308D02*
X7406711Y-17218831D01*
X7406711Y-17218831D02*
X7416235Y-17237879D01*
X7416235Y-17237879D02*
X7425759Y-17275974D01*
X7425759Y-17275974D02*
X7425759Y-17323593D01*
X7425759Y-17323593D02*
X7416235Y-17361689D01*
X7416235Y-17361689D02*
X7406711Y-17380736D01*
X7406711Y-17380736D02*
X7397187Y-17390260D01*
X7397187Y-17390260D02*
X7378140Y-17399784D01*
X7378140Y-17399784D02*
X7359092Y-17399784D01*
X7359092Y-17399784D02*
X7340044Y-17390260D01*
X7340044Y-17390260D02*
X7330521Y-17380736D01*
X7330521Y-17380736D02*
X7320997Y-17361689D01*
X7320997Y-17361689D02*
X7311473Y-17323593D01*
X7311473Y-17323593D02*
X7311473Y-17275974D01*
X7311473Y-17275974D02*
X7320997Y-17237879D01*
X7320997Y-17237879D02*
X7330521Y-17218831D01*
X7330521Y-17218831D02*
X7340044Y-17209308D01*
X7340044Y-17209308D02*
X7359092Y-17199784D01*
X7511473Y-17380736D02*
X7520997Y-17390260D01*
X7520997Y-17390260D02*
X7511473Y-17399784D01*
X7511473Y-17399784D02*
X7501949Y-17390260D01*
X7501949Y-17390260D02*
X7511473Y-17380736D01*
X7511473Y-17380736D02*
X7511473Y-17399784D01*
X7692425Y-17266450D02*
X7692425Y-17399784D01*
X7644806Y-17190260D02*
X7597187Y-17333117D01*
X7597187Y-17333117D02*
X7720997Y-17333117D01*
X7835282Y-17199784D02*
X7854330Y-17199784D01*
X7854330Y-17199784D02*
X7873378Y-17209308D01*
X7873378Y-17209308D02*
X7882902Y-17218831D01*
X7882902Y-17218831D02*
X7892425Y-17237879D01*
X7892425Y-17237879D02*
X7901949Y-17275974D01*
X7901949Y-17275974D02*
X7901949Y-17323593D01*
X7901949Y-17323593D02*
X7892425Y-17361689D01*
X7892425Y-17361689D02*
X7882902Y-17380736D01*
X7882902Y-17380736D02*
X7873378Y-17390260D01*
X7873378Y-17390260D02*
X7854330Y-17399784D01*
X7854330Y-17399784D02*
X7835282Y-17399784D01*
X7835282Y-17399784D02*
X7816235Y-17390260D01*
X7816235Y-17390260D02*
X7806711Y-17380736D01*
X7806711Y-17380736D02*
X7797187Y-17361689D01*
X7797187Y-17361689D02*
X7787663Y-17323593D01*
X7787663Y-17323593D02*
X7787663Y-17275974D01*
X7787663Y-17275974D02*
X7797187Y-17237879D01*
X7797187Y-17237879D02*
X7806711Y-17218831D01*
X7806711Y-17218831D02*
X7816235Y-17209308D01*
X7816235Y-17209308D02*
X7835282Y-17199784D01*
X8025759Y-17199784D02*
X8044806Y-17199784D01*
X8044806Y-17199784D02*
X8063854Y-17209308D01*
X8063854Y-17209308D02*
X8073378Y-17218831D01*
X8073378Y-17218831D02*
X8082902Y-17237879D01*
X8082902Y-17237879D02*
X8092425Y-17275974D01*
X8092425Y-17275974D02*
X8092425Y-17323593D01*
X8092425Y-17323593D02*
X8082902Y-17361689D01*
X8082902Y-17361689D02*
X8073378Y-17380736D01*
X8073378Y-17380736D02*
X8063854Y-17390260D01*
X8063854Y-17390260D02*
X8044806Y-17399784D01*
X8044806Y-17399784D02*
X8025759Y-17399784D01*
X8025759Y-17399784D02*
X8006711Y-17390260D01*
X8006711Y-17390260D02*
X7997187Y-17380736D01*
X7997187Y-17380736D02*
X7987663Y-17361689D01*
X7987663Y-17361689D02*
X7978140Y-17323593D01*
X7978140Y-17323593D02*
X7978140Y-17275974D01*
X7978140Y-17275974D02*
X7987663Y-17237879D01*
X7987663Y-17237879D02*
X7997187Y-17218831D01*
X7997187Y-17218831D02*
X8006711Y-17209308D01*
X8006711Y-17209308D02*
X8025759Y-17199784D01*
X8178140Y-17399784D02*
X8178140Y-17266450D01*
X8178140Y-17285498D02*
X8187663Y-17275974D01*
X8187663Y-17275974D02*
X8206711Y-17266450D01*
X8206711Y-17266450D02*
X8235283Y-17266450D01*
X8235283Y-17266450D02*
X8254330Y-17275974D01*
X8254330Y-17275974D02*
X8263854Y-17295022D01*
X8263854Y-17295022D02*
X8263854Y-17399784D01*
X8263854Y-17295022D02*
X8273378Y-17275974D01*
X8273378Y-17275974D02*
X8292425Y-17266450D01*
X8292425Y-17266450D02*
X8320997Y-17266450D01*
X8320997Y-17266450D02*
X8340044Y-17275974D01*
X8340044Y-17275974D02*
X8349568Y-17295022D01*
X8349568Y-17295022D02*
X8349568Y-17399784D01*
X8444806Y-17399784D02*
X8444806Y-17266450D01*
X8444806Y-17285498D02*
X8454330Y-17275974D01*
X8454330Y-17275974D02*
X8473378Y-17266450D01*
X8473378Y-17266450D02*
X8501949Y-17266450D01*
X8501949Y-17266450D02*
X8520997Y-17275974D01*
X8520997Y-17275974D02*
X8530521Y-17295022D01*
X8530521Y-17295022D02*
X8530521Y-17399784D01*
X8530521Y-17295022D02*
X8540045Y-17275974D01*
X8540045Y-17275974D02*
X8559092Y-17266450D01*
X8559092Y-17266450D02*
X8587664Y-17266450D01*
X8587664Y-17266450D02*
X8606711Y-17275974D01*
X8606711Y-17275974D02*
X8616235Y-17295022D01*
X8616235Y-17295022D02*
X8616235Y-17399784D01*
X9006711Y-17190260D02*
X8835283Y-17447403D01*
X9263854Y-17199784D02*
X9282902Y-17199784D01*
X9282902Y-17199784D02*
X9301949Y-17209308D01*
X9301949Y-17209308D02*
X9311473Y-17218831D01*
X9311473Y-17218831D02*
X9320997Y-17237879D01*
X9320997Y-17237879D02*
X9330521Y-17275974D01*
X9330521Y-17275974D02*
X9330521Y-17323593D01*
X9330521Y-17323593D02*
X9320997Y-17361689D01*
X9320997Y-17361689D02*
X9311473Y-17380736D01*
X9311473Y-17380736D02*
X9301949Y-17390260D01*
X9301949Y-17390260D02*
X9282902Y-17399784D01*
X9282902Y-17399784D02*
X9263854Y-17399784D01*
X9263854Y-17399784D02*
X9244807Y-17390260D01*
X9244807Y-17390260D02*
X9235283Y-17380736D01*
X9235283Y-17380736D02*
X9225759Y-17361689D01*
X9225759Y-17361689D02*
X9216235Y-17323593D01*
X9216235Y-17323593D02*
X9216235Y-17275974D01*
X9216235Y-17275974D02*
X9225759Y-17237879D01*
X9225759Y-17237879D02*
X9235283Y-17218831D01*
X9235283Y-17218831D02*
X9244807Y-17209308D01*
X9244807Y-17209308D02*
X9263854Y-17199784D01*
X9416235Y-17380736D02*
X9425759Y-17390260D01*
X9425759Y-17390260D02*
X9416235Y-17399784D01*
X9416235Y-17399784D02*
X9406711Y-17390260D01*
X9406711Y-17390260D02*
X9416235Y-17380736D01*
X9416235Y-17380736D02*
X9416235Y-17399784D01*
X9549568Y-17199784D02*
X9568616Y-17199784D01*
X9568616Y-17199784D02*
X9587664Y-17209308D01*
X9587664Y-17209308D02*
X9597188Y-17218831D01*
X9597188Y-17218831D02*
X9606711Y-17237879D01*
X9606711Y-17237879D02*
X9616235Y-17275974D01*
X9616235Y-17275974D02*
X9616235Y-17323593D01*
X9616235Y-17323593D02*
X9606711Y-17361689D01*
X9606711Y-17361689D02*
X9597188Y-17380736D01*
X9597188Y-17380736D02*
X9587664Y-17390260D01*
X9587664Y-17390260D02*
X9568616Y-17399784D01*
X9568616Y-17399784D02*
X9549568Y-17399784D01*
X9549568Y-17399784D02*
X9530521Y-17390260D01*
X9530521Y-17390260D02*
X9520997Y-17380736D01*
X9520997Y-17380736D02*
X9511473Y-17361689D01*
X9511473Y-17361689D02*
X9501949Y-17323593D01*
X9501949Y-17323593D02*
X9501949Y-17275974D01*
X9501949Y-17275974D02*
X9511473Y-17237879D01*
X9511473Y-17237879D02*
X9520997Y-17218831D01*
X9520997Y-17218831D02*
X9530521Y-17209308D01*
X9530521Y-17209308D02*
X9549568Y-17199784D01*
X9806711Y-17399784D02*
X9692426Y-17399784D01*
X9749568Y-17399784D02*
X9749568Y-17199784D01*
X9749568Y-17199784D02*
X9730521Y-17228355D01*
X9730521Y-17228355D02*
X9711473Y-17247403D01*
X9711473Y-17247403D02*
X9692426Y-17256927D01*
X9987664Y-17199784D02*
X9892426Y-17199784D01*
X9892426Y-17199784D02*
X9882902Y-17295022D01*
X9882902Y-17295022D02*
X9892426Y-17285498D01*
X9892426Y-17285498D02*
X9911473Y-17275974D01*
X9911473Y-17275974D02*
X9959092Y-17275974D01*
X9959092Y-17275974D02*
X9978140Y-17285498D01*
X9978140Y-17285498D02*
X9987664Y-17295022D01*
X9987664Y-17295022D02*
X9997188Y-17314070D01*
X9997188Y-17314070D02*
X9997188Y-17361689D01*
X9997188Y-17361689D02*
X9987664Y-17380736D01*
X9987664Y-17380736D02*
X9978140Y-17390260D01*
X9978140Y-17390260D02*
X9959092Y-17399784D01*
X9959092Y-17399784D02*
X9911473Y-17399784D01*
X9911473Y-17399784D02*
X9892426Y-17390260D01*
X9892426Y-17390260D02*
X9882902Y-17380736D01*
X10063854Y-17199784D02*
X10197188Y-17199784D01*
X10197188Y-17199784D02*
X10111473Y-17399784D01*
X10263854Y-17199784D02*
X10263854Y-17237879D01*
X10340045Y-17199784D02*
X10340045Y-17237879D01*
X10635283Y-17475974D02*
X10625759Y-17466450D01*
X10625759Y-17466450D02*
X10606711Y-17437879D01*
X10606711Y-17437879D02*
X10597188Y-17418831D01*
X10597188Y-17418831D02*
X10587664Y-17390260D01*
X10587664Y-17390260D02*
X10578140Y-17342641D01*
X10578140Y-17342641D02*
X10578140Y-17304546D01*
X10578140Y-17304546D02*
X10587664Y-17256927D01*
X10587664Y-17256927D02*
X10597188Y-17228355D01*
X10597188Y-17228355D02*
X10606711Y-17209308D01*
X10606711Y-17209308D02*
X10625759Y-17180736D01*
X10625759Y-17180736D02*
X10635283Y-17171212D01*
X10816235Y-17399784D02*
X10701950Y-17399784D01*
X10759092Y-17399784D02*
X10759092Y-17199784D01*
X10759092Y-17199784D02*
X10740045Y-17228355D01*
X10740045Y-17228355D02*
X10720997Y-17247403D01*
X10720997Y-17247403D02*
X10701950Y-17256927D01*
X10930521Y-17285498D02*
X10911473Y-17275974D01*
X10911473Y-17275974D02*
X10901950Y-17266450D01*
X10901950Y-17266450D02*
X10892426Y-17247403D01*
X10892426Y-17247403D02*
X10892426Y-17237879D01*
X10892426Y-17237879D02*
X10901950Y-17218831D01*
X10901950Y-17218831D02*
X10911473Y-17209308D01*
X10911473Y-17209308D02*
X10930521Y-17199784D01*
X10930521Y-17199784D02*
X10968616Y-17199784D01*
X10968616Y-17199784D02*
X10987664Y-17209308D01*
X10987664Y-17209308D02*
X10997188Y-17218831D01*
X10997188Y-17218831D02*
X11006711Y-17237879D01*
X11006711Y-17237879D02*
X11006711Y-17247403D01*
X11006711Y-17247403D02*
X10997188Y-17266450D01*
X10997188Y-17266450D02*
X10987664Y-17275974D01*
X10987664Y-17275974D02*
X10968616Y-17285498D01*
X10968616Y-17285498D02*
X10930521Y-17285498D01*
X10930521Y-17285498D02*
X10911473Y-17295022D01*
X10911473Y-17295022D02*
X10901950Y-17304546D01*
X10901950Y-17304546D02*
X10892426Y-17323593D01*
X10892426Y-17323593D02*
X10892426Y-17361689D01*
X10892426Y-17361689D02*
X10901950Y-17380736D01*
X10901950Y-17380736D02*
X10911473Y-17390260D01*
X10911473Y-17390260D02*
X10930521Y-17399784D01*
X10930521Y-17399784D02*
X10968616Y-17399784D01*
X10968616Y-17399784D02*
X10987664Y-17390260D01*
X10987664Y-17390260D02*
X10997188Y-17380736D01*
X10997188Y-17380736D02*
X11006711Y-17361689D01*
X11006711Y-17361689D02*
X11006711Y-17323593D01*
X11006711Y-17323593D02*
X10997188Y-17304546D01*
X10997188Y-17304546D02*
X10987664Y-17295022D01*
X10987664Y-17295022D02*
X10968616Y-17285498D01*
X11244807Y-17399784D02*
X11244807Y-17199784D01*
X11330521Y-17399784D02*
X11330521Y-17295022D01*
X11330521Y-17295022D02*
X11320997Y-17275974D01*
X11320997Y-17275974D02*
X11301950Y-17266450D01*
X11301950Y-17266450D02*
X11273378Y-17266450D01*
X11273378Y-17266450D02*
X11254330Y-17275974D01*
X11254330Y-17275974D02*
X11244807Y-17285498D01*
X11454330Y-17399784D02*
X11435283Y-17390260D01*
X11435283Y-17390260D02*
X11425759Y-17380736D01*
X11425759Y-17380736D02*
X11416235Y-17361689D01*
X11416235Y-17361689D02*
X11416235Y-17304546D01*
X11416235Y-17304546D02*
X11425759Y-17285498D01*
X11425759Y-17285498D02*
X11435283Y-17275974D01*
X11435283Y-17275974D02*
X11454330Y-17266450D01*
X11454330Y-17266450D02*
X11482902Y-17266450D01*
X11482902Y-17266450D02*
X11501950Y-17275974D01*
X11501950Y-17275974D02*
X11511473Y-17285498D01*
X11511473Y-17285498D02*
X11520997Y-17304546D01*
X11520997Y-17304546D02*
X11520997Y-17361689D01*
X11520997Y-17361689D02*
X11511473Y-17380736D01*
X11511473Y-17380736D02*
X11501950Y-17390260D01*
X11501950Y-17390260D02*
X11482902Y-17399784D01*
X11482902Y-17399784D02*
X11454330Y-17399784D01*
X11635283Y-17399784D02*
X11616235Y-17390260D01*
X11616235Y-17390260D02*
X11606711Y-17371212D01*
X11606711Y-17371212D02*
X11606711Y-17199784D01*
X11787664Y-17390260D02*
X11768616Y-17399784D01*
X11768616Y-17399784D02*
X11730521Y-17399784D01*
X11730521Y-17399784D02*
X11711473Y-17390260D01*
X11711473Y-17390260D02*
X11701950Y-17371212D01*
X11701950Y-17371212D02*
X11701950Y-17295022D01*
X11701950Y-17295022D02*
X11711473Y-17275974D01*
X11711473Y-17275974D02*
X11730521Y-17266450D01*
X11730521Y-17266450D02*
X11768616Y-17266450D01*
X11768616Y-17266450D02*
X11787664Y-17275974D01*
X11787664Y-17275974D02*
X11797188Y-17295022D01*
X11797188Y-17295022D02*
X11797188Y-17314070D01*
X11797188Y-17314070D02*
X11701950Y-17333117D01*
X11873378Y-17390260D02*
X11892426Y-17399784D01*
X11892426Y-17399784D02*
X11930521Y-17399784D01*
X11930521Y-17399784D02*
X11949569Y-17390260D01*
X11949569Y-17390260D02*
X11959092Y-17371212D01*
X11959092Y-17371212D02*
X11959092Y-17361689D01*
X11959092Y-17361689D02*
X11949569Y-17342641D01*
X11949569Y-17342641D02*
X11930521Y-17333117D01*
X11930521Y-17333117D02*
X11901950Y-17333117D01*
X11901950Y-17333117D02*
X11882902Y-17323593D01*
X11882902Y-17323593D02*
X11873378Y-17304546D01*
X11873378Y-17304546D02*
X11873378Y-17295022D01*
X11873378Y-17295022D02*
X11882902Y-17275974D01*
X11882902Y-17275974D02*
X11901950Y-17266450D01*
X11901950Y-17266450D02*
X11930521Y-17266450D01*
X11930521Y-17266450D02*
X11949569Y-17275974D01*
X12025759Y-17475974D02*
X12035283Y-17466450D01*
X12035283Y-17466450D02*
X12054331Y-17437879D01*
X12054331Y-17437879D02*
X12063854Y-17418831D01*
X12063854Y-17418831D02*
X12073378Y-17390260D01*
X12073378Y-17390260D02*
X12082902Y-17342641D01*
X12082902Y-17342641D02*
X12082902Y-17304546D01*
X12082902Y-17304546D02*
X12073378Y-17256927D01*
X12073378Y-17256927D02*
X12063854Y-17228355D01*
X12063854Y-17228355D02*
X12054331Y-17209308D01*
X12054331Y-17209308D02*
X12035283Y-17180736D01*
X12035283Y-17180736D02*
X12025759Y-17171212D01*
D13*
X7040220Y-17552300D02*
X7040220Y-17592300D01*
X7020220Y-17572300D02*
X7060220Y-17572300D01*
D11*
X7359092Y-17463784D02*
X7378140Y-17463784D01*
X7378140Y-17463784D02*
X7397187Y-17473308D01*
X7397187Y-17473308D02*
X7406711Y-17482831D01*
X7406711Y-17482831D02*
X7416235Y-17501879D01*
X7416235Y-17501879D02*
X7425759Y-17539974D01*
X7425759Y-17539974D02*
X7425759Y-17587593D01*
X7425759Y-17587593D02*
X7416235Y-17625689D01*
X7416235Y-17625689D02*
X7406711Y-17644736D01*
X7406711Y-17644736D02*
X7397187Y-17654260D01*
X7397187Y-17654260D02*
X7378140Y-17663784D01*
X7378140Y-17663784D02*
X7359092Y-17663784D01*
X7359092Y-17663784D02*
X7340044Y-17654260D01*
X7340044Y-17654260D02*
X7330521Y-17644736D01*
X7330521Y-17644736D02*
X7320997Y-17625689D01*
X7320997Y-17625689D02*
X7311473Y-17587593D01*
X7311473Y-17587593D02*
X7311473Y-17539974D01*
X7311473Y-17539974D02*
X7320997Y-17501879D01*
X7320997Y-17501879D02*
X7330521Y-17482831D01*
X7330521Y-17482831D02*
X7340044Y-17473308D01*
X7340044Y-17473308D02*
X7359092Y-17463784D01*
X7511473Y-17644736D02*
X7520997Y-17654260D01*
X7520997Y-17654260D02*
X7511473Y-17663784D01*
X7511473Y-17663784D02*
X7501949Y-17654260D01*
X7501949Y-17654260D02*
X7511473Y-17644736D01*
X7511473Y-17644736D02*
X7511473Y-17663784D01*
X7692425Y-17530450D02*
X7692425Y-17663784D01*
X7644806Y-17454260D02*
X7597187Y-17597117D01*
X7597187Y-17597117D02*
X7720997Y-17597117D01*
X7835282Y-17463784D02*
X7854330Y-17463784D01*
X7854330Y-17463784D02*
X7873378Y-17473308D01*
X7873378Y-17473308D02*
X7882902Y-17482831D01*
X7882902Y-17482831D02*
X7892425Y-17501879D01*
X7892425Y-17501879D02*
X7901949Y-17539974D01*
X7901949Y-17539974D02*
X7901949Y-17587593D01*
X7901949Y-17587593D02*
X7892425Y-17625689D01*
X7892425Y-17625689D02*
X7882902Y-17644736D01*
X7882902Y-17644736D02*
X7873378Y-17654260D01*
X7873378Y-17654260D02*
X7854330Y-17663784D01*
X7854330Y-17663784D02*
X7835282Y-17663784D01*
X7835282Y-17663784D02*
X7816235Y-17654260D01*
X7816235Y-17654260D02*
X7806711Y-17644736D01*
X7806711Y-17644736D02*
X7797187Y-17625689D01*
X7797187Y-17625689D02*
X7787663Y-17587593D01*
X7787663Y-17587593D02*
X7787663Y-17539974D01*
X7787663Y-17539974D02*
X7797187Y-17501879D01*
X7797187Y-17501879D02*
X7806711Y-17482831D01*
X7806711Y-17482831D02*
X7816235Y-17473308D01*
X7816235Y-17473308D02*
X7835282Y-17463784D01*
X8025759Y-17463784D02*
X8044806Y-17463784D01*
X8044806Y-17463784D02*
X8063854Y-17473308D01*
X8063854Y-17473308D02*
X8073378Y-17482831D01*
X8073378Y-17482831D02*
X8082902Y-17501879D01*
X8082902Y-17501879D02*
X8092425Y-17539974D01*
X8092425Y-17539974D02*
X8092425Y-17587593D01*
X8092425Y-17587593D02*
X8082902Y-17625689D01*
X8082902Y-17625689D02*
X8073378Y-17644736D01*
X8073378Y-17644736D02*
X8063854Y-17654260D01*
X8063854Y-17654260D02*
X8044806Y-17663784D01*
X8044806Y-17663784D02*
X8025759Y-17663784D01*
X8025759Y-17663784D02*
X8006711Y-17654260D01*
X8006711Y-17654260D02*
X7997187Y-17644736D01*
X7997187Y-17644736D02*
X7987663Y-17625689D01*
X7987663Y-17625689D02*
X7978140Y-17587593D01*
X7978140Y-17587593D02*
X7978140Y-17539974D01*
X7978140Y-17539974D02*
X7987663Y-17501879D01*
X7987663Y-17501879D02*
X7997187Y-17482831D01*
X7997187Y-17482831D02*
X8006711Y-17473308D01*
X8006711Y-17473308D02*
X8025759Y-17463784D01*
X8178140Y-17663784D02*
X8178140Y-17530450D01*
X8178140Y-17549498D02*
X8187663Y-17539974D01*
X8187663Y-17539974D02*
X8206711Y-17530450D01*
X8206711Y-17530450D02*
X8235283Y-17530450D01*
X8235283Y-17530450D02*
X8254330Y-17539974D01*
X8254330Y-17539974D02*
X8263854Y-17559022D01*
X8263854Y-17559022D02*
X8263854Y-17663784D01*
X8263854Y-17559022D02*
X8273378Y-17539974D01*
X8273378Y-17539974D02*
X8292425Y-17530450D01*
X8292425Y-17530450D02*
X8320997Y-17530450D01*
X8320997Y-17530450D02*
X8340044Y-17539974D01*
X8340044Y-17539974D02*
X8349568Y-17559022D01*
X8349568Y-17559022D02*
X8349568Y-17663784D01*
X8444806Y-17663784D02*
X8444806Y-17530450D01*
X8444806Y-17549498D02*
X8454330Y-17539974D01*
X8454330Y-17539974D02*
X8473378Y-17530450D01*
X8473378Y-17530450D02*
X8501949Y-17530450D01*
X8501949Y-17530450D02*
X8520997Y-17539974D01*
X8520997Y-17539974D02*
X8530521Y-17559022D01*
X8530521Y-17559022D02*
X8530521Y-17663784D01*
X8530521Y-17559022D02*
X8540045Y-17539974D01*
X8540045Y-17539974D02*
X8559092Y-17530450D01*
X8559092Y-17530450D02*
X8587664Y-17530450D01*
X8587664Y-17530450D02*
X8606711Y-17539974D01*
X8606711Y-17539974D02*
X8616235Y-17559022D01*
X8616235Y-17559022D02*
X8616235Y-17663784D01*
X9006711Y-17454260D02*
X8835283Y-17711403D01*
X9263854Y-17463784D02*
X9282902Y-17463784D01*
X9282902Y-17463784D02*
X9301949Y-17473308D01*
X9301949Y-17473308D02*
X9311473Y-17482831D01*
X9311473Y-17482831D02*
X9320997Y-17501879D01*
X9320997Y-17501879D02*
X9330521Y-17539974D01*
X9330521Y-17539974D02*
X9330521Y-17587593D01*
X9330521Y-17587593D02*
X9320997Y-17625689D01*
X9320997Y-17625689D02*
X9311473Y-17644736D01*
X9311473Y-17644736D02*
X9301949Y-17654260D01*
X9301949Y-17654260D02*
X9282902Y-17663784D01*
X9282902Y-17663784D02*
X9263854Y-17663784D01*
X9263854Y-17663784D02*
X9244807Y-17654260D01*
X9244807Y-17654260D02*
X9235283Y-17644736D01*
X9235283Y-17644736D02*
X9225759Y-17625689D01*
X9225759Y-17625689D02*
X9216235Y-17587593D01*
X9216235Y-17587593D02*
X9216235Y-17539974D01*
X9216235Y-17539974D02*
X9225759Y-17501879D01*
X9225759Y-17501879D02*
X9235283Y-17482831D01*
X9235283Y-17482831D02*
X9244807Y-17473308D01*
X9244807Y-17473308D02*
X9263854Y-17463784D01*
X9416235Y-17644736D02*
X9425759Y-17654260D01*
X9425759Y-17654260D02*
X9416235Y-17663784D01*
X9416235Y-17663784D02*
X9406711Y-17654260D01*
X9406711Y-17654260D02*
X9416235Y-17644736D01*
X9416235Y-17644736D02*
X9416235Y-17663784D01*
X9549568Y-17463784D02*
X9568616Y-17463784D01*
X9568616Y-17463784D02*
X9587664Y-17473308D01*
X9587664Y-17473308D02*
X9597188Y-17482831D01*
X9597188Y-17482831D02*
X9606711Y-17501879D01*
X9606711Y-17501879D02*
X9616235Y-17539974D01*
X9616235Y-17539974D02*
X9616235Y-17587593D01*
X9616235Y-17587593D02*
X9606711Y-17625689D01*
X9606711Y-17625689D02*
X9597188Y-17644736D01*
X9597188Y-17644736D02*
X9587664Y-17654260D01*
X9587664Y-17654260D02*
X9568616Y-17663784D01*
X9568616Y-17663784D02*
X9549568Y-17663784D01*
X9549568Y-17663784D02*
X9530521Y-17654260D01*
X9530521Y-17654260D02*
X9520997Y-17644736D01*
X9520997Y-17644736D02*
X9511473Y-17625689D01*
X9511473Y-17625689D02*
X9501949Y-17587593D01*
X9501949Y-17587593D02*
X9501949Y-17539974D01*
X9501949Y-17539974D02*
X9511473Y-17501879D01*
X9511473Y-17501879D02*
X9520997Y-17482831D01*
X9520997Y-17482831D02*
X9530521Y-17473308D01*
X9530521Y-17473308D02*
X9549568Y-17463784D01*
X9806711Y-17663784D02*
X9692426Y-17663784D01*
X9749568Y-17663784D02*
X9749568Y-17463784D01*
X9749568Y-17463784D02*
X9730521Y-17492355D01*
X9730521Y-17492355D02*
X9711473Y-17511403D01*
X9711473Y-17511403D02*
X9692426Y-17520927D01*
X9987664Y-17463784D02*
X9892426Y-17463784D01*
X9892426Y-17463784D02*
X9882902Y-17559022D01*
X9882902Y-17559022D02*
X9892426Y-17549498D01*
X9892426Y-17549498D02*
X9911473Y-17539974D01*
X9911473Y-17539974D02*
X9959092Y-17539974D01*
X9959092Y-17539974D02*
X9978140Y-17549498D01*
X9978140Y-17549498D02*
X9987664Y-17559022D01*
X9987664Y-17559022D02*
X9997188Y-17578070D01*
X9997188Y-17578070D02*
X9997188Y-17625689D01*
X9997188Y-17625689D02*
X9987664Y-17644736D01*
X9987664Y-17644736D02*
X9978140Y-17654260D01*
X9978140Y-17654260D02*
X9959092Y-17663784D01*
X9959092Y-17663784D02*
X9911473Y-17663784D01*
X9911473Y-17663784D02*
X9892426Y-17654260D01*
X9892426Y-17654260D02*
X9882902Y-17644736D01*
X10063854Y-17463784D02*
X10197188Y-17463784D01*
X10197188Y-17463784D02*
X10111473Y-17663784D01*
X10263854Y-17463784D02*
X10263854Y-17501879D01*
X10340045Y-17463784D02*
X10340045Y-17501879D01*
X10635283Y-17739974D02*
X10625759Y-17730450D01*
X10625759Y-17730450D02*
X10606711Y-17701879D01*
X10606711Y-17701879D02*
X10597188Y-17682831D01*
X10597188Y-17682831D02*
X10587664Y-17654260D01*
X10587664Y-17654260D02*
X10578140Y-17606641D01*
X10578140Y-17606641D02*
X10578140Y-17568546D01*
X10578140Y-17568546D02*
X10587664Y-17520927D01*
X10587664Y-17520927D02*
X10597188Y-17492355D01*
X10597188Y-17492355D02*
X10606711Y-17473308D01*
X10606711Y-17473308D02*
X10625759Y-17444736D01*
X10625759Y-17444736D02*
X10635283Y-17435212D01*
X10740045Y-17549498D02*
X10720997Y-17539974D01*
X10720997Y-17539974D02*
X10711473Y-17530450D01*
X10711473Y-17530450D02*
X10701950Y-17511403D01*
X10701950Y-17511403D02*
X10701950Y-17501879D01*
X10701950Y-17501879D02*
X10711473Y-17482831D01*
X10711473Y-17482831D02*
X10720997Y-17473308D01*
X10720997Y-17473308D02*
X10740045Y-17463784D01*
X10740045Y-17463784D02*
X10778140Y-17463784D01*
X10778140Y-17463784D02*
X10797188Y-17473308D01*
X10797188Y-17473308D02*
X10806711Y-17482831D01*
X10806711Y-17482831D02*
X10816235Y-17501879D01*
X10816235Y-17501879D02*
X10816235Y-17511403D01*
X10816235Y-17511403D02*
X10806711Y-17530450D01*
X10806711Y-17530450D02*
X10797188Y-17539974D01*
X10797188Y-17539974D02*
X10778140Y-17549498D01*
X10778140Y-17549498D02*
X10740045Y-17549498D01*
X10740045Y-17549498D02*
X10720997Y-17559022D01*
X10720997Y-17559022D02*
X10711473Y-17568546D01*
X10711473Y-17568546D02*
X10701950Y-17587593D01*
X10701950Y-17587593D02*
X10701950Y-17625689D01*
X10701950Y-17625689D02*
X10711473Y-17644736D01*
X10711473Y-17644736D02*
X10720997Y-17654260D01*
X10720997Y-17654260D02*
X10740045Y-17663784D01*
X10740045Y-17663784D02*
X10778140Y-17663784D01*
X10778140Y-17663784D02*
X10797188Y-17654260D01*
X10797188Y-17654260D02*
X10806711Y-17644736D01*
X10806711Y-17644736D02*
X10816235Y-17625689D01*
X10816235Y-17625689D02*
X10816235Y-17587593D01*
X10816235Y-17587593D02*
X10806711Y-17568546D01*
X10806711Y-17568546D02*
X10797188Y-17559022D01*
X10797188Y-17559022D02*
X10778140Y-17549498D01*
X11054331Y-17663784D02*
X11054331Y-17463784D01*
X11140045Y-17663784D02*
X11140045Y-17559022D01*
X11140045Y-17559022D02*
X11130521Y-17539974D01*
X11130521Y-17539974D02*
X11111473Y-17530450D01*
X11111473Y-17530450D02*
X11082902Y-17530450D01*
X11082902Y-17530450D02*
X11063854Y-17539974D01*
X11063854Y-17539974D02*
X11054331Y-17549498D01*
X11263854Y-17663784D02*
X11244807Y-17654260D01*
X11244807Y-17654260D02*
X11235283Y-17644736D01*
X11235283Y-17644736D02*
X11225759Y-17625689D01*
X11225759Y-17625689D02*
X11225759Y-17568546D01*
X11225759Y-17568546D02*
X11235283Y-17549498D01*
X11235283Y-17549498D02*
X11244807Y-17539974D01*
X11244807Y-17539974D02*
X11263854Y-17530450D01*
X11263854Y-17530450D02*
X11292426Y-17530450D01*
X11292426Y-17530450D02*
X11311473Y-17539974D01*
X11311473Y-17539974D02*
X11320997Y-17549498D01*
X11320997Y-17549498D02*
X11330521Y-17568546D01*
X11330521Y-17568546D02*
X11330521Y-17625689D01*
X11330521Y-17625689D02*
X11320997Y-17644736D01*
X11320997Y-17644736D02*
X11311473Y-17654260D01*
X11311473Y-17654260D02*
X11292426Y-17663784D01*
X11292426Y-17663784D02*
X11263854Y-17663784D01*
X11444807Y-17663784D02*
X11425759Y-17654260D01*
X11425759Y-17654260D02*
X11416235Y-17635212D01*
X11416235Y-17635212D02*
X11416235Y-17463784D01*
X11597188Y-17654260D02*
X11578140Y-17663784D01*
X11578140Y-17663784D02*
X11540045Y-17663784D01*
X11540045Y-17663784D02*
X11520997Y-17654260D01*
X11520997Y-17654260D02*
X11511473Y-17635212D01*
X11511473Y-17635212D02*
X11511473Y-17559022D01*
X11511473Y-17559022D02*
X11520997Y-17539974D01*
X11520997Y-17539974D02*
X11540045Y-17530450D01*
X11540045Y-17530450D02*
X11578140Y-17530450D01*
X11578140Y-17530450D02*
X11597188Y-17539974D01*
X11597188Y-17539974D02*
X11606711Y-17559022D01*
X11606711Y-17559022D02*
X11606711Y-17578070D01*
X11606711Y-17578070D02*
X11511473Y-17597117D01*
X11682902Y-17654260D02*
X11701950Y-17663784D01*
X11701950Y-17663784D02*
X11740045Y-17663784D01*
X11740045Y-17663784D02*
X11759092Y-17654260D01*
X11759092Y-17654260D02*
X11768616Y-17635212D01*
X11768616Y-17635212D02*
X11768616Y-17625689D01*
X11768616Y-17625689D02*
X11759092Y-17606641D01*
X11759092Y-17606641D02*
X11740045Y-17597117D01*
X11740045Y-17597117D02*
X11711473Y-17597117D01*
X11711473Y-17597117D02*
X11692426Y-17587593D01*
X11692426Y-17587593D02*
X11682902Y-17568546D01*
X11682902Y-17568546D02*
X11682902Y-17559022D01*
X11682902Y-17559022D02*
X11692426Y-17539974D01*
X11692426Y-17539974D02*
X11711473Y-17530450D01*
X11711473Y-17530450D02*
X11740045Y-17530450D01*
X11740045Y-17530450D02*
X11759092Y-17539974D01*
X11835283Y-17739974D02*
X11844807Y-17730450D01*
X11844807Y-17730450D02*
X11863854Y-17701879D01*
X11863854Y-17701879D02*
X11873378Y-17682831D01*
X11873378Y-17682831D02*
X11882902Y-17654260D01*
X11882902Y-17654260D02*
X11892426Y-17606641D01*
X11892426Y-17606641D02*
X11892426Y-17568546D01*
X11892426Y-17568546D02*
X11882902Y-17520927D01*
X11882902Y-17520927D02*
X11873378Y-17492355D01*
X11873378Y-17492355D02*
X11863854Y-17473308D01*
X11863854Y-17473308D02*
X11844807Y-17444736D01*
X11844807Y-17444736D02*
X11835283Y-17435212D01*
D14*
X7049969Y-17861049D02*
X7049969Y-17811551D01*
X7000471Y-17811551D01*
X7000471Y-17861049D01*
X7049969Y-17861049D01*
D11*
X7359092Y-17727784D02*
X7378140Y-17727784D01*
X7378140Y-17727784D02*
X7397187Y-17737308D01*
X7397187Y-17737308D02*
X7406711Y-17746831D01*
X7406711Y-17746831D02*
X7416235Y-17765879D01*
X7416235Y-17765879D02*
X7425759Y-17803974D01*
X7425759Y-17803974D02*
X7425759Y-17851593D01*
X7425759Y-17851593D02*
X7416235Y-17889689D01*
X7416235Y-17889689D02*
X7406711Y-17908736D01*
X7406711Y-17908736D02*
X7397187Y-17918260D01*
X7397187Y-17918260D02*
X7378140Y-17927784D01*
X7378140Y-17927784D02*
X7359092Y-17927784D01*
X7359092Y-17927784D02*
X7340044Y-17918260D01*
X7340044Y-17918260D02*
X7330521Y-17908736D01*
X7330521Y-17908736D02*
X7320997Y-17889689D01*
X7320997Y-17889689D02*
X7311473Y-17851593D01*
X7311473Y-17851593D02*
X7311473Y-17803974D01*
X7311473Y-17803974D02*
X7320997Y-17765879D01*
X7320997Y-17765879D02*
X7330521Y-17746831D01*
X7330521Y-17746831D02*
X7340044Y-17737308D01*
X7340044Y-17737308D02*
X7359092Y-17727784D01*
X7511473Y-17908736D02*
X7520997Y-17918260D01*
X7520997Y-17918260D02*
X7511473Y-17927784D01*
X7511473Y-17927784D02*
X7501949Y-17918260D01*
X7501949Y-17918260D02*
X7511473Y-17908736D01*
X7511473Y-17908736D02*
X7511473Y-17927784D01*
X7587663Y-17727784D02*
X7720997Y-17727784D01*
X7720997Y-17727784D02*
X7635282Y-17927784D01*
X7835282Y-17727784D02*
X7854330Y-17727784D01*
X7854330Y-17727784D02*
X7873378Y-17737308D01*
X7873378Y-17737308D02*
X7882902Y-17746831D01*
X7882902Y-17746831D02*
X7892425Y-17765879D01*
X7892425Y-17765879D02*
X7901949Y-17803974D01*
X7901949Y-17803974D02*
X7901949Y-17851593D01*
X7901949Y-17851593D02*
X7892425Y-17889689D01*
X7892425Y-17889689D02*
X7882902Y-17908736D01*
X7882902Y-17908736D02*
X7873378Y-17918260D01*
X7873378Y-17918260D02*
X7854330Y-17927784D01*
X7854330Y-17927784D02*
X7835282Y-17927784D01*
X7835282Y-17927784D02*
X7816235Y-17918260D01*
X7816235Y-17918260D02*
X7806711Y-17908736D01*
X7806711Y-17908736D02*
X7797187Y-17889689D01*
X7797187Y-17889689D02*
X7787663Y-17851593D01*
X7787663Y-17851593D02*
X7787663Y-17803974D01*
X7787663Y-17803974D02*
X7797187Y-17765879D01*
X7797187Y-17765879D02*
X7806711Y-17746831D01*
X7806711Y-17746831D02*
X7816235Y-17737308D01*
X7816235Y-17737308D02*
X7835282Y-17727784D01*
X8025759Y-17727784D02*
X8044806Y-17727784D01*
X8044806Y-17727784D02*
X8063854Y-17737308D01*
X8063854Y-17737308D02*
X8073378Y-17746831D01*
X8073378Y-17746831D02*
X8082902Y-17765879D01*
X8082902Y-17765879D02*
X8092425Y-17803974D01*
X8092425Y-17803974D02*
X8092425Y-17851593D01*
X8092425Y-17851593D02*
X8082902Y-17889689D01*
X8082902Y-17889689D02*
X8073378Y-17908736D01*
X8073378Y-17908736D02*
X8063854Y-17918260D01*
X8063854Y-17918260D02*
X8044806Y-17927784D01*
X8044806Y-17927784D02*
X8025759Y-17927784D01*
X8025759Y-17927784D02*
X8006711Y-17918260D01*
X8006711Y-17918260D02*
X7997187Y-17908736D01*
X7997187Y-17908736D02*
X7987663Y-17889689D01*
X7987663Y-17889689D02*
X7978140Y-17851593D01*
X7978140Y-17851593D02*
X7978140Y-17803974D01*
X7978140Y-17803974D02*
X7987663Y-17765879D01*
X7987663Y-17765879D02*
X7997187Y-17746831D01*
X7997187Y-17746831D02*
X8006711Y-17737308D01*
X8006711Y-17737308D02*
X8025759Y-17727784D01*
X8178140Y-17927784D02*
X8178140Y-17794450D01*
X8178140Y-17813498D02*
X8187663Y-17803974D01*
X8187663Y-17803974D02*
X8206711Y-17794450D01*
X8206711Y-17794450D02*
X8235283Y-17794450D01*
X8235283Y-17794450D02*
X8254330Y-17803974D01*
X8254330Y-17803974D02*
X8263854Y-17823022D01*
X8263854Y-17823022D02*
X8263854Y-17927784D01*
X8263854Y-17823022D02*
X8273378Y-17803974D01*
X8273378Y-17803974D02*
X8292425Y-17794450D01*
X8292425Y-17794450D02*
X8320997Y-17794450D01*
X8320997Y-17794450D02*
X8340044Y-17803974D01*
X8340044Y-17803974D02*
X8349568Y-17823022D01*
X8349568Y-17823022D02*
X8349568Y-17927784D01*
X8444806Y-17927784D02*
X8444806Y-17794450D01*
X8444806Y-17813498D02*
X8454330Y-17803974D01*
X8454330Y-17803974D02*
X8473378Y-17794450D01*
X8473378Y-17794450D02*
X8501949Y-17794450D01*
X8501949Y-17794450D02*
X8520997Y-17803974D01*
X8520997Y-17803974D02*
X8530521Y-17823022D01*
X8530521Y-17823022D02*
X8530521Y-17927784D01*
X8530521Y-17823022D02*
X8540045Y-17803974D01*
X8540045Y-17803974D02*
X8559092Y-17794450D01*
X8559092Y-17794450D02*
X8587664Y-17794450D01*
X8587664Y-17794450D02*
X8606711Y-17803974D01*
X8606711Y-17803974D02*
X8616235Y-17823022D01*
X8616235Y-17823022D02*
X8616235Y-17927784D01*
X9006711Y-17718260D02*
X8835283Y-17975403D01*
X9263854Y-17727784D02*
X9282902Y-17727784D01*
X9282902Y-17727784D02*
X9301949Y-17737308D01*
X9301949Y-17737308D02*
X9311473Y-17746831D01*
X9311473Y-17746831D02*
X9320997Y-17765879D01*
X9320997Y-17765879D02*
X9330521Y-17803974D01*
X9330521Y-17803974D02*
X9330521Y-17851593D01*
X9330521Y-17851593D02*
X9320997Y-17889689D01*
X9320997Y-17889689D02*
X9311473Y-17908736D01*
X9311473Y-17908736D02*
X9301949Y-17918260D01*
X9301949Y-17918260D02*
X9282902Y-17927784D01*
X9282902Y-17927784D02*
X9263854Y-17927784D01*
X9263854Y-17927784D02*
X9244807Y-17918260D01*
X9244807Y-17918260D02*
X9235283Y-17908736D01*
X9235283Y-17908736D02*
X9225759Y-17889689D01*
X9225759Y-17889689D02*
X9216235Y-17851593D01*
X9216235Y-17851593D02*
X9216235Y-17803974D01*
X9216235Y-17803974D02*
X9225759Y-17765879D01*
X9225759Y-17765879D02*
X9235283Y-17746831D01*
X9235283Y-17746831D02*
X9244807Y-17737308D01*
X9244807Y-17737308D02*
X9263854Y-17727784D01*
X9416235Y-17908736D02*
X9425759Y-17918260D01*
X9425759Y-17918260D02*
X9416235Y-17927784D01*
X9416235Y-17927784D02*
X9406711Y-17918260D01*
X9406711Y-17918260D02*
X9416235Y-17908736D01*
X9416235Y-17908736D02*
X9416235Y-17927784D01*
X9549568Y-17727784D02*
X9568616Y-17727784D01*
X9568616Y-17727784D02*
X9587664Y-17737308D01*
X9587664Y-17737308D02*
X9597188Y-17746831D01*
X9597188Y-17746831D02*
X9606711Y-17765879D01*
X9606711Y-17765879D02*
X9616235Y-17803974D01*
X9616235Y-17803974D02*
X9616235Y-17851593D01*
X9616235Y-17851593D02*
X9606711Y-17889689D01*
X9606711Y-17889689D02*
X9597188Y-17908736D01*
X9597188Y-17908736D02*
X9587664Y-17918260D01*
X9587664Y-17918260D02*
X9568616Y-17927784D01*
X9568616Y-17927784D02*
X9549568Y-17927784D01*
X9549568Y-17927784D02*
X9530521Y-17918260D01*
X9530521Y-17918260D02*
X9520997Y-17908736D01*
X9520997Y-17908736D02*
X9511473Y-17889689D01*
X9511473Y-17889689D02*
X9501949Y-17851593D01*
X9501949Y-17851593D02*
X9501949Y-17803974D01*
X9501949Y-17803974D02*
X9511473Y-17765879D01*
X9511473Y-17765879D02*
X9520997Y-17746831D01*
X9520997Y-17746831D02*
X9530521Y-17737308D01*
X9530521Y-17737308D02*
X9549568Y-17727784D01*
X9692426Y-17746831D02*
X9701949Y-17737308D01*
X9701949Y-17737308D02*
X9720997Y-17727784D01*
X9720997Y-17727784D02*
X9768616Y-17727784D01*
X9768616Y-17727784D02*
X9787664Y-17737308D01*
X9787664Y-17737308D02*
X9797188Y-17746831D01*
X9797188Y-17746831D02*
X9806711Y-17765879D01*
X9806711Y-17765879D02*
X9806711Y-17784927D01*
X9806711Y-17784927D02*
X9797188Y-17813498D01*
X9797188Y-17813498D02*
X9682902Y-17927784D01*
X9682902Y-17927784D02*
X9806711Y-17927784D01*
X9873378Y-17727784D02*
X10006711Y-17727784D01*
X10006711Y-17727784D02*
X9920997Y-17927784D01*
X10168616Y-17727784D02*
X10130521Y-17727784D01*
X10130521Y-17727784D02*
X10111473Y-17737308D01*
X10111473Y-17737308D02*
X10101949Y-17746831D01*
X10101949Y-17746831D02*
X10082902Y-17775403D01*
X10082902Y-17775403D02*
X10073378Y-17813498D01*
X10073378Y-17813498D02*
X10073378Y-17889689D01*
X10073378Y-17889689D02*
X10082902Y-17908736D01*
X10082902Y-17908736D02*
X10092426Y-17918260D01*
X10092426Y-17918260D02*
X10111473Y-17927784D01*
X10111473Y-17927784D02*
X10149569Y-17927784D01*
X10149569Y-17927784D02*
X10168616Y-17918260D01*
X10168616Y-17918260D02*
X10178140Y-17908736D01*
X10178140Y-17908736D02*
X10187664Y-17889689D01*
X10187664Y-17889689D02*
X10187664Y-17842070D01*
X10187664Y-17842070D02*
X10178140Y-17823022D01*
X10178140Y-17823022D02*
X10168616Y-17813498D01*
X10168616Y-17813498D02*
X10149569Y-17803974D01*
X10149569Y-17803974D02*
X10111473Y-17803974D01*
X10111473Y-17803974D02*
X10092426Y-17813498D01*
X10092426Y-17813498D02*
X10082902Y-17823022D01*
X10082902Y-17823022D02*
X10073378Y-17842070D01*
X10263854Y-17727784D02*
X10263854Y-17765879D01*
X10340045Y-17727784D02*
X10340045Y-17765879D01*
X10635283Y-18003974D02*
X10625759Y-17994450D01*
X10625759Y-17994450D02*
X10606711Y-17965879D01*
X10606711Y-17965879D02*
X10597188Y-17946831D01*
X10597188Y-17946831D02*
X10587664Y-17918260D01*
X10587664Y-17918260D02*
X10578140Y-17870641D01*
X10578140Y-17870641D02*
X10578140Y-17832546D01*
X10578140Y-17832546D02*
X10587664Y-17784927D01*
X10587664Y-17784927D02*
X10597188Y-17756355D01*
X10597188Y-17756355D02*
X10606711Y-17737308D01*
X10606711Y-17737308D02*
X10625759Y-17708736D01*
X10625759Y-17708736D02*
X10635283Y-17699212D01*
X10701950Y-17746831D02*
X10711473Y-17737308D01*
X10711473Y-17737308D02*
X10730521Y-17727784D01*
X10730521Y-17727784D02*
X10778140Y-17727784D01*
X10778140Y-17727784D02*
X10797188Y-17737308D01*
X10797188Y-17737308D02*
X10806711Y-17746831D01*
X10806711Y-17746831D02*
X10816235Y-17765879D01*
X10816235Y-17765879D02*
X10816235Y-17784927D01*
X10816235Y-17784927D02*
X10806711Y-17813498D01*
X10806711Y-17813498D02*
X10692426Y-17927784D01*
X10692426Y-17927784D02*
X10816235Y-17927784D01*
X10987664Y-17794450D02*
X10987664Y-17927784D01*
X10940045Y-17718260D02*
X10892426Y-17861117D01*
X10892426Y-17861117D02*
X11016235Y-17861117D01*
X11244807Y-17927784D02*
X11244807Y-17727784D01*
X11330521Y-17927784D02*
X11330521Y-17823022D01*
X11330521Y-17823022D02*
X11320997Y-17803974D01*
X11320997Y-17803974D02*
X11301950Y-17794450D01*
X11301950Y-17794450D02*
X11273378Y-17794450D01*
X11273378Y-17794450D02*
X11254330Y-17803974D01*
X11254330Y-17803974D02*
X11244807Y-17813498D01*
X11454330Y-17927784D02*
X11435283Y-17918260D01*
X11435283Y-17918260D02*
X11425759Y-17908736D01*
X11425759Y-17908736D02*
X11416235Y-17889689D01*
X11416235Y-17889689D02*
X11416235Y-17832546D01*
X11416235Y-17832546D02*
X11425759Y-17813498D01*
X11425759Y-17813498D02*
X11435283Y-17803974D01*
X11435283Y-17803974D02*
X11454330Y-17794450D01*
X11454330Y-17794450D02*
X11482902Y-17794450D01*
X11482902Y-17794450D02*
X11501950Y-17803974D01*
X11501950Y-17803974D02*
X11511473Y-17813498D01*
X11511473Y-17813498D02*
X11520997Y-17832546D01*
X11520997Y-17832546D02*
X11520997Y-17889689D01*
X11520997Y-17889689D02*
X11511473Y-17908736D01*
X11511473Y-17908736D02*
X11501950Y-17918260D01*
X11501950Y-17918260D02*
X11482902Y-17927784D01*
X11482902Y-17927784D02*
X11454330Y-17927784D01*
X11635283Y-17927784D02*
X11616235Y-17918260D01*
X11616235Y-17918260D02*
X11606711Y-17899212D01*
X11606711Y-17899212D02*
X11606711Y-17727784D01*
X11787664Y-17918260D02*
X11768616Y-17927784D01*
X11768616Y-17927784D02*
X11730521Y-17927784D01*
X11730521Y-17927784D02*
X11711473Y-17918260D01*
X11711473Y-17918260D02*
X11701950Y-17899212D01*
X11701950Y-17899212D02*
X11701950Y-17823022D01*
X11701950Y-17823022D02*
X11711473Y-17803974D01*
X11711473Y-17803974D02*
X11730521Y-17794450D01*
X11730521Y-17794450D02*
X11768616Y-17794450D01*
X11768616Y-17794450D02*
X11787664Y-17803974D01*
X11787664Y-17803974D02*
X11797188Y-17823022D01*
X11797188Y-17823022D02*
X11797188Y-17842070D01*
X11797188Y-17842070D02*
X11701950Y-17861117D01*
X11873378Y-17918260D02*
X11892426Y-17927784D01*
X11892426Y-17927784D02*
X11930521Y-17927784D01*
X11930521Y-17927784D02*
X11949569Y-17918260D01*
X11949569Y-17918260D02*
X11959092Y-17899212D01*
X11959092Y-17899212D02*
X11959092Y-17889689D01*
X11959092Y-17889689D02*
X11949569Y-17870641D01*
X11949569Y-17870641D02*
X11930521Y-17861117D01*
X11930521Y-17861117D02*
X11901950Y-17861117D01*
X11901950Y-17861117D02*
X11882902Y-17851593D01*
X11882902Y-17851593D02*
X11873378Y-17832546D01*
X11873378Y-17832546D02*
X11873378Y-17823022D01*
X11873378Y-17823022D02*
X11882902Y-17803974D01*
X11882902Y-17803974D02*
X11901950Y-17794450D01*
X11901950Y-17794450D02*
X11930521Y-17794450D01*
X11930521Y-17794450D02*
X11949569Y-17803974D01*
X12025759Y-18003974D02*
X12035283Y-17994450D01*
X12035283Y-17994450D02*
X12054331Y-17965879D01*
X12054331Y-17965879D02*
X12063854Y-17946831D01*
X12063854Y-17946831D02*
X12073378Y-17918260D01*
X12073378Y-17918260D02*
X12082902Y-17870641D01*
X12082902Y-17870641D02*
X12082902Y-17832546D01*
X12082902Y-17832546D02*
X12073378Y-17784927D01*
X12073378Y-17784927D02*
X12063854Y-17756355D01*
X12063854Y-17756355D02*
X12054331Y-17737308D01*
X12054331Y-17737308D02*
X12035283Y-17708736D01*
X12035283Y-17708736D02*
X12025759Y-17699212D01*
D15*
X7015220Y-18145300D02*
X7060220Y-18100300D01*
X7015220Y-18055300D01*
X6970220Y-18100300D01*
X7015220Y-18145300D01*
D11*
X7359092Y-17991784D02*
X7378140Y-17991784D01*
X7378140Y-17991784D02*
X7397187Y-18001308D01*
X7397187Y-18001308D02*
X7406711Y-18010831D01*
X7406711Y-18010831D02*
X7416235Y-18029879D01*
X7416235Y-18029879D02*
X7425759Y-18067974D01*
X7425759Y-18067974D02*
X7425759Y-18115593D01*
X7425759Y-18115593D02*
X7416235Y-18153689D01*
X7416235Y-18153689D02*
X7406711Y-18172736D01*
X7406711Y-18172736D02*
X7397187Y-18182260D01*
X7397187Y-18182260D02*
X7378140Y-18191784D01*
X7378140Y-18191784D02*
X7359092Y-18191784D01*
X7359092Y-18191784D02*
X7340044Y-18182260D01*
X7340044Y-18182260D02*
X7330521Y-18172736D01*
X7330521Y-18172736D02*
X7320997Y-18153689D01*
X7320997Y-18153689D02*
X7311473Y-18115593D01*
X7311473Y-18115593D02*
X7311473Y-18067974D01*
X7311473Y-18067974D02*
X7320997Y-18029879D01*
X7320997Y-18029879D02*
X7330521Y-18010831D01*
X7330521Y-18010831D02*
X7340044Y-18001308D01*
X7340044Y-18001308D02*
X7359092Y-17991784D01*
X7511473Y-18172736D02*
X7520997Y-18182260D01*
X7520997Y-18182260D02*
X7511473Y-18191784D01*
X7511473Y-18191784D02*
X7501949Y-18182260D01*
X7501949Y-18182260D02*
X7511473Y-18172736D01*
X7511473Y-18172736D02*
X7511473Y-18191784D01*
X7616235Y-18191784D02*
X7654330Y-18191784D01*
X7654330Y-18191784D02*
X7673378Y-18182260D01*
X7673378Y-18182260D02*
X7682902Y-18172736D01*
X7682902Y-18172736D02*
X7701949Y-18144165D01*
X7701949Y-18144165D02*
X7711473Y-18106070D01*
X7711473Y-18106070D02*
X7711473Y-18029879D01*
X7711473Y-18029879D02*
X7701949Y-18010831D01*
X7701949Y-18010831D02*
X7692425Y-18001308D01*
X7692425Y-18001308D02*
X7673378Y-17991784D01*
X7673378Y-17991784D02*
X7635282Y-17991784D01*
X7635282Y-17991784D02*
X7616235Y-18001308D01*
X7616235Y-18001308D02*
X7606711Y-18010831D01*
X7606711Y-18010831D02*
X7597187Y-18029879D01*
X7597187Y-18029879D02*
X7597187Y-18077498D01*
X7597187Y-18077498D02*
X7606711Y-18096546D01*
X7606711Y-18096546D02*
X7616235Y-18106070D01*
X7616235Y-18106070D02*
X7635282Y-18115593D01*
X7635282Y-18115593D02*
X7673378Y-18115593D01*
X7673378Y-18115593D02*
X7692425Y-18106070D01*
X7692425Y-18106070D02*
X7701949Y-18096546D01*
X7701949Y-18096546D02*
X7711473Y-18077498D01*
X7835282Y-17991784D02*
X7854330Y-17991784D01*
X7854330Y-17991784D02*
X7873378Y-18001308D01*
X7873378Y-18001308D02*
X7882902Y-18010831D01*
X7882902Y-18010831D02*
X7892425Y-18029879D01*
X7892425Y-18029879D02*
X7901949Y-18067974D01*
X7901949Y-18067974D02*
X7901949Y-18115593D01*
X7901949Y-18115593D02*
X7892425Y-18153689D01*
X7892425Y-18153689D02*
X7882902Y-18172736D01*
X7882902Y-18172736D02*
X7873378Y-18182260D01*
X7873378Y-18182260D02*
X7854330Y-18191784D01*
X7854330Y-18191784D02*
X7835282Y-18191784D01*
X7835282Y-18191784D02*
X7816235Y-18182260D01*
X7816235Y-18182260D02*
X7806711Y-18172736D01*
X7806711Y-18172736D02*
X7797187Y-18153689D01*
X7797187Y-18153689D02*
X7787663Y-18115593D01*
X7787663Y-18115593D02*
X7787663Y-18067974D01*
X7787663Y-18067974D02*
X7797187Y-18029879D01*
X7797187Y-18029879D02*
X7806711Y-18010831D01*
X7806711Y-18010831D02*
X7816235Y-18001308D01*
X7816235Y-18001308D02*
X7835282Y-17991784D01*
X8025759Y-17991784D02*
X8044806Y-17991784D01*
X8044806Y-17991784D02*
X8063854Y-18001308D01*
X8063854Y-18001308D02*
X8073378Y-18010831D01*
X8073378Y-18010831D02*
X8082902Y-18029879D01*
X8082902Y-18029879D02*
X8092425Y-18067974D01*
X8092425Y-18067974D02*
X8092425Y-18115593D01*
X8092425Y-18115593D02*
X8082902Y-18153689D01*
X8082902Y-18153689D02*
X8073378Y-18172736D01*
X8073378Y-18172736D02*
X8063854Y-18182260D01*
X8063854Y-18182260D02*
X8044806Y-18191784D01*
X8044806Y-18191784D02*
X8025759Y-18191784D01*
X8025759Y-18191784D02*
X8006711Y-18182260D01*
X8006711Y-18182260D02*
X7997187Y-18172736D01*
X7997187Y-18172736D02*
X7987663Y-18153689D01*
X7987663Y-18153689D02*
X7978140Y-18115593D01*
X7978140Y-18115593D02*
X7978140Y-18067974D01*
X7978140Y-18067974D02*
X7987663Y-18029879D01*
X7987663Y-18029879D02*
X7997187Y-18010831D01*
X7997187Y-18010831D02*
X8006711Y-18001308D01*
X8006711Y-18001308D02*
X8025759Y-17991784D01*
X8178140Y-18191784D02*
X8178140Y-18058450D01*
X8178140Y-18077498D02*
X8187663Y-18067974D01*
X8187663Y-18067974D02*
X8206711Y-18058450D01*
X8206711Y-18058450D02*
X8235283Y-18058450D01*
X8235283Y-18058450D02*
X8254330Y-18067974D01*
X8254330Y-18067974D02*
X8263854Y-18087022D01*
X8263854Y-18087022D02*
X8263854Y-18191784D01*
X8263854Y-18087022D02*
X8273378Y-18067974D01*
X8273378Y-18067974D02*
X8292425Y-18058450D01*
X8292425Y-18058450D02*
X8320997Y-18058450D01*
X8320997Y-18058450D02*
X8340044Y-18067974D01*
X8340044Y-18067974D02*
X8349568Y-18087022D01*
X8349568Y-18087022D02*
X8349568Y-18191784D01*
X8444806Y-18191784D02*
X8444806Y-18058450D01*
X8444806Y-18077498D02*
X8454330Y-18067974D01*
X8454330Y-18067974D02*
X8473378Y-18058450D01*
X8473378Y-18058450D02*
X8501949Y-18058450D01*
X8501949Y-18058450D02*
X8520997Y-18067974D01*
X8520997Y-18067974D02*
X8530521Y-18087022D01*
X8530521Y-18087022D02*
X8530521Y-18191784D01*
X8530521Y-18087022D02*
X8540045Y-18067974D01*
X8540045Y-18067974D02*
X8559092Y-18058450D01*
X8559092Y-18058450D02*
X8587664Y-18058450D01*
X8587664Y-18058450D02*
X8606711Y-18067974D01*
X8606711Y-18067974D02*
X8616235Y-18087022D01*
X8616235Y-18087022D02*
X8616235Y-18191784D01*
X9006711Y-17982260D02*
X8835283Y-18239403D01*
X9263854Y-17991784D02*
X9282902Y-17991784D01*
X9282902Y-17991784D02*
X9301949Y-18001308D01*
X9301949Y-18001308D02*
X9311473Y-18010831D01*
X9311473Y-18010831D02*
X9320997Y-18029879D01*
X9320997Y-18029879D02*
X9330521Y-18067974D01*
X9330521Y-18067974D02*
X9330521Y-18115593D01*
X9330521Y-18115593D02*
X9320997Y-18153689D01*
X9320997Y-18153689D02*
X9311473Y-18172736D01*
X9311473Y-18172736D02*
X9301949Y-18182260D01*
X9301949Y-18182260D02*
X9282902Y-18191784D01*
X9282902Y-18191784D02*
X9263854Y-18191784D01*
X9263854Y-18191784D02*
X9244807Y-18182260D01*
X9244807Y-18182260D02*
X9235283Y-18172736D01*
X9235283Y-18172736D02*
X9225759Y-18153689D01*
X9225759Y-18153689D02*
X9216235Y-18115593D01*
X9216235Y-18115593D02*
X9216235Y-18067974D01*
X9216235Y-18067974D02*
X9225759Y-18029879D01*
X9225759Y-18029879D02*
X9235283Y-18010831D01*
X9235283Y-18010831D02*
X9244807Y-18001308D01*
X9244807Y-18001308D02*
X9263854Y-17991784D01*
X9416235Y-18172736D02*
X9425759Y-18182260D01*
X9425759Y-18182260D02*
X9416235Y-18191784D01*
X9416235Y-18191784D02*
X9406711Y-18182260D01*
X9406711Y-18182260D02*
X9416235Y-18172736D01*
X9416235Y-18172736D02*
X9416235Y-18191784D01*
X9549568Y-17991784D02*
X9568616Y-17991784D01*
X9568616Y-17991784D02*
X9587664Y-18001308D01*
X9587664Y-18001308D02*
X9597188Y-18010831D01*
X9597188Y-18010831D02*
X9606711Y-18029879D01*
X9606711Y-18029879D02*
X9616235Y-18067974D01*
X9616235Y-18067974D02*
X9616235Y-18115593D01*
X9616235Y-18115593D02*
X9606711Y-18153689D01*
X9606711Y-18153689D02*
X9597188Y-18172736D01*
X9597188Y-18172736D02*
X9587664Y-18182260D01*
X9587664Y-18182260D02*
X9568616Y-18191784D01*
X9568616Y-18191784D02*
X9549568Y-18191784D01*
X9549568Y-18191784D02*
X9530521Y-18182260D01*
X9530521Y-18182260D02*
X9520997Y-18172736D01*
X9520997Y-18172736D02*
X9511473Y-18153689D01*
X9511473Y-18153689D02*
X9501949Y-18115593D01*
X9501949Y-18115593D02*
X9501949Y-18067974D01*
X9501949Y-18067974D02*
X9511473Y-18029879D01*
X9511473Y-18029879D02*
X9520997Y-18010831D01*
X9520997Y-18010831D02*
X9530521Y-18001308D01*
X9530521Y-18001308D02*
X9549568Y-17991784D01*
X9682902Y-17991784D02*
X9806711Y-17991784D01*
X9806711Y-17991784D02*
X9740045Y-18067974D01*
X9740045Y-18067974D02*
X9768616Y-18067974D01*
X9768616Y-18067974D02*
X9787664Y-18077498D01*
X9787664Y-18077498D02*
X9797188Y-18087022D01*
X9797188Y-18087022D02*
X9806711Y-18106070D01*
X9806711Y-18106070D02*
X9806711Y-18153689D01*
X9806711Y-18153689D02*
X9797188Y-18172736D01*
X9797188Y-18172736D02*
X9787664Y-18182260D01*
X9787664Y-18182260D02*
X9768616Y-18191784D01*
X9768616Y-18191784D02*
X9711473Y-18191784D01*
X9711473Y-18191784D02*
X9692426Y-18182260D01*
X9692426Y-18182260D02*
X9682902Y-18172736D01*
X9987664Y-17991784D02*
X9892426Y-17991784D01*
X9892426Y-17991784D02*
X9882902Y-18087022D01*
X9882902Y-18087022D02*
X9892426Y-18077498D01*
X9892426Y-18077498D02*
X9911473Y-18067974D01*
X9911473Y-18067974D02*
X9959092Y-18067974D01*
X9959092Y-18067974D02*
X9978140Y-18077498D01*
X9978140Y-18077498D02*
X9987664Y-18087022D01*
X9987664Y-18087022D02*
X9997188Y-18106070D01*
X9997188Y-18106070D02*
X9997188Y-18153689D01*
X9997188Y-18153689D02*
X9987664Y-18172736D01*
X9987664Y-18172736D02*
X9978140Y-18182260D01*
X9978140Y-18182260D02*
X9959092Y-18191784D01*
X9959092Y-18191784D02*
X9911473Y-18191784D01*
X9911473Y-18191784D02*
X9892426Y-18182260D01*
X9892426Y-18182260D02*
X9882902Y-18172736D01*
X10168616Y-18058450D02*
X10168616Y-18191784D01*
X10120997Y-17982260D02*
X10073378Y-18125117D01*
X10073378Y-18125117D02*
X10197188Y-18125117D01*
X10263854Y-17991784D02*
X10263854Y-18029879D01*
X10340045Y-17991784D02*
X10340045Y-18029879D01*
X10635283Y-18267974D02*
X10625759Y-18258450D01*
X10625759Y-18258450D02*
X10606711Y-18229879D01*
X10606711Y-18229879D02*
X10597188Y-18210831D01*
X10597188Y-18210831D02*
X10587664Y-18182260D01*
X10587664Y-18182260D02*
X10578140Y-18134641D01*
X10578140Y-18134641D02*
X10578140Y-18096546D01*
X10578140Y-18096546D02*
X10587664Y-18048927D01*
X10587664Y-18048927D02*
X10597188Y-18020355D01*
X10597188Y-18020355D02*
X10606711Y-18001308D01*
X10606711Y-18001308D02*
X10625759Y-17972736D01*
X10625759Y-17972736D02*
X10635283Y-17963212D01*
X10701950Y-18010831D02*
X10711473Y-18001308D01*
X10711473Y-18001308D02*
X10730521Y-17991784D01*
X10730521Y-17991784D02*
X10778140Y-17991784D01*
X10778140Y-17991784D02*
X10797188Y-18001308D01*
X10797188Y-18001308D02*
X10806711Y-18010831D01*
X10806711Y-18010831D02*
X10816235Y-18029879D01*
X10816235Y-18029879D02*
X10816235Y-18048927D01*
X10816235Y-18048927D02*
X10806711Y-18077498D01*
X10806711Y-18077498D02*
X10692426Y-18191784D01*
X10692426Y-18191784D02*
X10816235Y-18191784D01*
X11054331Y-18191784D02*
X11054331Y-17991784D01*
X11140045Y-18191784D02*
X11140045Y-18087022D01*
X11140045Y-18087022D02*
X11130521Y-18067974D01*
X11130521Y-18067974D02*
X11111473Y-18058450D01*
X11111473Y-18058450D02*
X11082902Y-18058450D01*
X11082902Y-18058450D02*
X11063854Y-18067974D01*
X11063854Y-18067974D02*
X11054331Y-18077498D01*
X11263854Y-18191784D02*
X11244807Y-18182260D01*
X11244807Y-18182260D02*
X11235283Y-18172736D01*
X11235283Y-18172736D02*
X11225759Y-18153689D01*
X11225759Y-18153689D02*
X11225759Y-18096546D01*
X11225759Y-18096546D02*
X11235283Y-18077498D01*
X11235283Y-18077498D02*
X11244807Y-18067974D01*
X11244807Y-18067974D02*
X11263854Y-18058450D01*
X11263854Y-18058450D02*
X11292426Y-18058450D01*
X11292426Y-18058450D02*
X11311473Y-18067974D01*
X11311473Y-18067974D02*
X11320997Y-18077498D01*
X11320997Y-18077498D02*
X11330521Y-18096546D01*
X11330521Y-18096546D02*
X11330521Y-18153689D01*
X11330521Y-18153689D02*
X11320997Y-18172736D01*
X11320997Y-18172736D02*
X11311473Y-18182260D01*
X11311473Y-18182260D02*
X11292426Y-18191784D01*
X11292426Y-18191784D02*
X11263854Y-18191784D01*
X11444807Y-18191784D02*
X11425759Y-18182260D01*
X11425759Y-18182260D02*
X11416235Y-18163212D01*
X11416235Y-18163212D02*
X11416235Y-17991784D01*
X11597188Y-18182260D02*
X11578140Y-18191784D01*
X11578140Y-18191784D02*
X11540045Y-18191784D01*
X11540045Y-18191784D02*
X11520997Y-18182260D01*
X11520997Y-18182260D02*
X11511473Y-18163212D01*
X11511473Y-18163212D02*
X11511473Y-18087022D01*
X11511473Y-18087022D02*
X11520997Y-18067974D01*
X11520997Y-18067974D02*
X11540045Y-18058450D01*
X11540045Y-18058450D02*
X11578140Y-18058450D01*
X11578140Y-18058450D02*
X11597188Y-18067974D01*
X11597188Y-18067974D02*
X11606711Y-18087022D01*
X11606711Y-18087022D02*
X11606711Y-18106070D01*
X11606711Y-18106070D02*
X11511473Y-18125117D01*
X11682902Y-18182260D02*
X11701950Y-18191784D01*
X11701950Y-18191784D02*
X11740045Y-18191784D01*
X11740045Y-18191784D02*
X11759092Y-18182260D01*
X11759092Y-18182260D02*
X11768616Y-18163212D01*
X11768616Y-18163212D02*
X11768616Y-18153689D01*
X11768616Y-18153689D02*
X11759092Y-18134641D01*
X11759092Y-18134641D02*
X11740045Y-18125117D01*
X11740045Y-18125117D02*
X11711473Y-18125117D01*
X11711473Y-18125117D02*
X11692426Y-18115593D01*
X11692426Y-18115593D02*
X11682902Y-18096546D01*
X11682902Y-18096546D02*
X11682902Y-18087022D01*
X11682902Y-18087022D02*
X11692426Y-18067974D01*
X11692426Y-18067974D02*
X11711473Y-18058450D01*
X11711473Y-18058450D02*
X11740045Y-18058450D01*
X11740045Y-18058450D02*
X11759092Y-18067974D01*
X11835283Y-18267974D02*
X11844807Y-18258450D01*
X11844807Y-18258450D02*
X11863854Y-18229879D01*
X11863854Y-18229879D02*
X11873378Y-18210831D01*
X11873378Y-18210831D02*
X11882902Y-18182260D01*
X11882902Y-18182260D02*
X11892426Y-18134641D01*
X11892426Y-18134641D02*
X11892426Y-18096546D01*
X11892426Y-18096546D02*
X11882902Y-18048927D01*
X11882902Y-18048927D02*
X11873378Y-18020355D01*
X11873378Y-18020355D02*
X11863854Y-18001308D01*
X11863854Y-18001308D02*
X11844807Y-17972736D01*
X11844807Y-17972736D02*
X11835283Y-17963212D01*
D16*
X6940220Y-18304300D02*
X7060220Y-18424300D01*
X7060220Y-18304300D02*
X6940220Y-18424300D01*
X7060220Y-18364300D02*
G75*
G03*
X7060220Y-18364300I-60000J0D01*
G01*
D11*
X7425759Y-18455784D02*
X7311473Y-18455784D01*
X7368616Y-18455784D02*
X7368616Y-18255784D01*
X7368616Y-18255784D02*
X7349568Y-18284355D01*
X7349568Y-18284355D02*
X7330521Y-18303403D01*
X7330521Y-18303403D02*
X7311473Y-18312927D01*
X7511473Y-18436736D02*
X7520997Y-18446260D01*
X7520997Y-18446260D02*
X7511473Y-18455784D01*
X7511473Y-18455784D02*
X7501949Y-18446260D01*
X7501949Y-18446260D02*
X7511473Y-18436736D01*
X7511473Y-18436736D02*
X7511473Y-18455784D01*
X7597187Y-18274831D02*
X7606711Y-18265308D01*
X7606711Y-18265308D02*
X7625759Y-18255784D01*
X7625759Y-18255784D02*
X7673378Y-18255784D01*
X7673378Y-18255784D02*
X7692425Y-18265308D01*
X7692425Y-18265308D02*
X7701949Y-18274831D01*
X7701949Y-18274831D02*
X7711473Y-18293879D01*
X7711473Y-18293879D02*
X7711473Y-18312927D01*
X7711473Y-18312927D02*
X7701949Y-18341498D01*
X7701949Y-18341498D02*
X7587663Y-18455784D01*
X7587663Y-18455784D02*
X7711473Y-18455784D01*
X7835282Y-18255784D02*
X7854330Y-18255784D01*
X7854330Y-18255784D02*
X7873378Y-18265308D01*
X7873378Y-18265308D02*
X7882902Y-18274831D01*
X7882902Y-18274831D02*
X7892425Y-18293879D01*
X7892425Y-18293879D02*
X7901949Y-18331974D01*
X7901949Y-18331974D02*
X7901949Y-18379593D01*
X7901949Y-18379593D02*
X7892425Y-18417689D01*
X7892425Y-18417689D02*
X7882902Y-18436736D01*
X7882902Y-18436736D02*
X7873378Y-18446260D01*
X7873378Y-18446260D02*
X7854330Y-18455784D01*
X7854330Y-18455784D02*
X7835282Y-18455784D01*
X7835282Y-18455784D02*
X7816235Y-18446260D01*
X7816235Y-18446260D02*
X7806711Y-18436736D01*
X7806711Y-18436736D02*
X7797187Y-18417689D01*
X7797187Y-18417689D02*
X7787663Y-18379593D01*
X7787663Y-18379593D02*
X7787663Y-18331974D01*
X7787663Y-18331974D02*
X7797187Y-18293879D01*
X7797187Y-18293879D02*
X7806711Y-18274831D01*
X7806711Y-18274831D02*
X7816235Y-18265308D01*
X7816235Y-18265308D02*
X7835282Y-18255784D01*
X8025759Y-18255784D02*
X8044806Y-18255784D01*
X8044806Y-18255784D02*
X8063854Y-18265308D01*
X8063854Y-18265308D02*
X8073378Y-18274831D01*
X8073378Y-18274831D02*
X8082902Y-18293879D01*
X8082902Y-18293879D02*
X8092425Y-18331974D01*
X8092425Y-18331974D02*
X8092425Y-18379593D01*
X8092425Y-18379593D02*
X8082902Y-18417689D01*
X8082902Y-18417689D02*
X8073378Y-18436736D01*
X8073378Y-18436736D02*
X8063854Y-18446260D01*
X8063854Y-18446260D02*
X8044806Y-18455784D01*
X8044806Y-18455784D02*
X8025759Y-18455784D01*
X8025759Y-18455784D02*
X8006711Y-18446260D01*
X8006711Y-18446260D02*
X7997187Y-18436736D01*
X7997187Y-18436736D02*
X7987663Y-18417689D01*
X7987663Y-18417689D02*
X7978140Y-18379593D01*
X7978140Y-18379593D02*
X7978140Y-18331974D01*
X7978140Y-18331974D02*
X7987663Y-18293879D01*
X7987663Y-18293879D02*
X7997187Y-18274831D01*
X7997187Y-18274831D02*
X8006711Y-18265308D01*
X8006711Y-18265308D02*
X8025759Y-18255784D01*
X8178140Y-18455784D02*
X8178140Y-18322450D01*
X8178140Y-18341498D02*
X8187663Y-18331974D01*
X8187663Y-18331974D02*
X8206711Y-18322450D01*
X8206711Y-18322450D02*
X8235283Y-18322450D01*
X8235283Y-18322450D02*
X8254330Y-18331974D01*
X8254330Y-18331974D02*
X8263854Y-18351022D01*
X8263854Y-18351022D02*
X8263854Y-18455784D01*
X8263854Y-18351022D02*
X8273378Y-18331974D01*
X8273378Y-18331974D02*
X8292425Y-18322450D01*
X8292425Y-18322450D02*
X8320997Y-18322450D01*
X8320997Y-18322450D02*
X8340044Y-18331974D01*
X8340044Y-18331974D02*
X8349568Y-18351022D01*
X8349568Y-18351022D02*
X8349568Y-18455784D01*
X8444806Y-18455784D02*
X8444806Y-18322450D01*
X8444806Y-18341498D02*
X8454330Y-18331974D01*
X8454330Y-18331974D02*
X8473378Y-18322450D01*
X8473378Y-18322450D02*
X8501949Y-18322450D01*
X8501949Y-18322450D02*
X8520997Y-18331974D01*
X8520997Y-18331974D02*
X8530521Y-18351022D01*
X8530521Y-18351022D02*
X8530521Y-18455784D01*
X8530521Y-18351022D02*
X8540045Y-18331974D01*
X8540045Y-18331974D02*
X8559092Y-18322450D01*
X8559092Y-18322450D02*
X8587664Y-18322450D01*
X8587664Y-18322450D02*
X8606711Y-18331974D01*
X8606711Y-18331974D02*
X8616235Y-18351022D01*
X8616235Y-18351022D02*
X8616235Y-18455784D01*
X9006711Y-18246260D02*
X8835283Y-18503403D01*
X9263854Y-18255784D02*
X9282902Y-18255784D01*
X9282902Y-18255784D02*
X9301949Y-18265308D01*
X9301949Y-18265308D02*
X9311473Y-18274831D01*
X9311473Y-18274831D02*
X9320997Y-18293879D01*
X9320997Y-18293879D02*
X9330521Y-18331974D01*
X9330521Y-18331974D02*
X9330521Y-18379593D01*
X9330521Y-18379593D02*
X9320997Y-18417689D01*
X9320997Y-18417689D02*
X9311473Y-18436736D01*
X9311473Y-18436736D02*
X9301949Y-18446260D01*
X9301949Y-18446260D02*
X9282902Y-18455784D01*
X9282902Y-18455784D02*
X9263854Y-18455784D01*
X9263854Y-18455784D02*
X9244807Y-18446260D01*
X9244807Y-18446260D02*
X9235283Y-18436736D01*
X9235283Y-18436736D02*
X9225759Y-18417689D01*
X9225759Y-18417689D02*
X9216235Y-18379593D01*
X9216235Y-18379593D02*
X9216235Y-18331974D01*
X9216235Y-18331974D02*
X9225759Y-18293879D01*
X9225759Y-18293879D02*
X9235283Y-18274831D01*
X9235283Y-18274831D02*
X9244807Y-18265308D01*
X9244807Y-18265308D02*
X9263854Y-18255784D01*
X9416235Y-18436736D02*
X9425759Y-18446260D01*
X9425759Y-18446260D02*
X9416235Y-18455784D01*
X9416235Y-18455784D02*
X9406711Y-18446260D01*
X9406711Y-18446260D02*
X9416235Y-18436736D01*
X9416235Y-18436736D02*
X9416235Y-18455784D01*
X9549568Y-18255784D02*
X9568616Y-18255784D01*
X9568616Y-18255784D02*
X9587664Y-18265308D01*
X9587664Y-18265308D02*
X9597188Y-18274831D01*
X9597188Y-18274831D02*
X9606711Y-18293879D01*
X9606711Y-18293879D02*
X9616235Y-18331974D01*
X9616235Y-18331974D02*
X9616235Y-18379593D01*
X9616235Y-18379593D02*
X9606711Y-18417689D01*
X9606711Y-18417689D02*
X9597188Y-18436736D01*
X9597188Y-18436736D02*
X9587664Y-18446260D01*
X9587664Y-18446260D02*
X9568616Y-18455784D01*
X9568616Y-18455784D02*
X9549568Y-18455784D01*
X9549568Y-18455784D02*
X9530521Y-18446260D01*
X9530521Y-18446260D02*
X9520997Y-18436736D01*
X9520997Y-18436736D02*
X9511473Y-18417689D01*
X9511473Y-18417689D02*
X9501949Y-18379593D01*
X9501949Y-18379593D02*
X9501949Y-18331974D01*
X9501949Y-18331974D02*
X9511473Y-18293879D01*
X9511473Y-18293879D02*
X9520997Y-18274831D01*
X9520997Y-18274831D02*
X9530521Y-18265308D01*
X9530521Y-18265308D02*
X9549568Y-18255784D01*
X9787664Y-18322450D02*
X9787664Y-18455784D01*
X9740045Y-18246260D02*
X9692426Y-18389117D01*
X9692426Y-18389117D02*
X9816235Y-18389117D01*
X9873378Y-18255784D02*
X10006711Y-18255784D01*
X10006711Y-18255784D02*
X9920997Y-18455784D01*
X10073378Y-18274831D02*
X10082902Y-18265308D01*
X10082902Y-18265308D02*
X10101949Y-18255784D01*
X10101949Y-18255784D02*
X10149569Y-18255784D01*
X10149569Y-18255784D02*
X10168616Y-18265308D01*
X10168616Y-18265308D02*
X10178140Y-18274831D01*
X10178140Y-18274831D02*
X10187664Y-18293879D01*
X10187664Y-18293879D02*
X10187664Y-18312927D01*
X10187664Y-18312927D02*
X10178140Y-18341498D01*
X10178140Y-18341498D02*
X10063854Y-18455784D01*
X10063854Y-18455784D02*
X10187664Y-18455784D01*
X10263854Y-18255784D02*
X10263854Y-18293879D01*
X10340045Y-18255784D02*
X10340045Y-18293879D01*
X10635283Y-18531974D02*
X10625759Y-18522450D01*
X10625759Y-18522450D02*
X10606711Y-18493879D01*
X10606711Y-18493879D02*
X10597188Y-18474831D01*
X10597188Y-18474831D02*
X10587664Y-18446260D01*
X10587664Y-18446260D02*
X10578140Y-18398641D01*
X10578140Y-18398641D02*
X10578140Y-18360546D01*
X10578140Y-18360546D02*
X10587664Y-18312927D01*
X10587664Y-18312927D02*
X10597188Y-18284355D01*
X10597188Y-18284355D02*
X10606711Y-18265308D01*
X10606711Y-18265308D02*
X10625759Y-18236736D01*
X10625759Y-18236736D02*
X10635283Y-18227212D01*
X10816235Y-18455784D02*
X10701950Y-18455784D01*
X10759092Y-18455784D02*
X10759092Y-18255784D01*
X10759092Y-18255784D02*
X10740045Y-18284355D01*
X10740045Y-18284355D02*
X10720997Y-18303403D01*
X10720997Y-18303403D02*
X10701950Y-18312927D01*
X11054331Y-18455784D02*
X11054331Y-18255784D01*
X11140045Y-18455784D02*
X11140045Y-18351022D01*
X11140045Y-18351022D02*
X11130521Y-18331974D01*
X11130521Y-18331974D02*
X11111473Y-18322450D01*
X11111473Y-18322450D02*
X11082902Y-18322450D01*
X11082902Y-18322450D02*
X11063854Y-18331974D01*
X11063854Y-18331974D02*
X11054331Y-18341498D01*
X11263854Y-18455784D02*
X11244807Y-18446260D01*
X11244807Y-18446260D02*
X11235283Y-18436736D01*
X11235283Y-18436736D02*
X11225759Y-18417689D01*
X11225759Y-18417689D02*
X11225759Y-18360546D01*
X11225759Y-18360546D02*
X11235283Y-18341498D01*
X11235283Y-18341498D02*
X11244807Y-18331974D01*
X11244807Y-18331974D02*
X11263854Y-18322450D01*
X11263854Y-18322450D02*
X11292426Y-18322450D01*
X11292426Y-18322450D02*
X11311473Y-18331974D01*
X11311473Y-18331974D02*
X11320997Y-18341498D01*
X11320997Y-18341498D02*
X11330521Y-18360546D01*
X11330521Y-18360546D02*
X11330521Y-18417689D01*
X11330521Y-18417689D02*
X11320997Y-18436736D01*
X11320997Y-18436736D02*
X11311473Y-18446260D01*
X11311473Y-18446260D02*
X11292426Y-18455784D01*
X11292426Y-18455784D02*
X11263854Y-18455784D01*
X11444807Y-18455784D02*
X11425759Y-18446260D01*
X11425759Y-18446260D02*
X11416235Y-18427212D01*
X11416235Y-18427212D02*
X11416235Y-18255784D01*
X11597188Y-18446260D02*
X11578140Y-18455784D01*
X11578140Y-18455784D02*
X11540045Y-18455784D01*
X11540045Y-18455784D02*
X11520997Y-18446260D01*
X11520997Y-18446260D02*
X11511473Y-18427212D01*
X11511473Y-18427212D02*
X11511473Y-18351022D01*
X11511473Y-18351022D02*
X11520997Y-18331974D01*
X11520997Y-18331974D02*
X11540045Y-18322450D01*
X11540045Y-18322450D02*
X11578140Y-18322450D01*
X11578140Y-18322450D02*
X11597188Y-18331974D01*
X11597188Y-18331974D02*
X11606711Y-18351022D01*
X11606711Y-18351022D02*
X11606711Y-18370070D01*
X11606711Y-18370070D02*
X11511473Y-18389117D01*
X11673378Y-18531974D02*
X11682902Y-18522450D01*
X11682902Y-18522450D02*
X11701950Y-18493879D01*
X11701950Y-18493879D02*
X11711473Y-18474831D01*
X11711473Y-18474831D02*
X11720997Y-18446260D01*
X11720997Y-18446260D02*
X11730521Y-18398641D01*
X11730521Y-18398641D02*
X11730521Y-18360546D01*
X11730521Y-18360546D02*
X11720997Y-18312927D01*
X11720997Y-18312927D02*
X11711473Y-18284355D01*
X11711473Y-18284355D02*
X11701950Y-18265308D01*
X11701950Y-18265308D02*
X11682902Y-18236736D01*
X11682902Y-18236736D02*
X11673378Y-18227212D01*
D17*
X6900220Y-18548300D02*
X7060220Y-18708300D01*
X7060220Y-18548300D02*
X6900220Y-18708300D01*
X6980220Y-18548300D02*
X6980220Y-18708300D01*
X6900220Y-18628300D02*
X7060220Y-18628300D01*
D11*
X7425759Y-18719784D02*
X7311473Y-18719784D01*
X7368616Y-18719784D02*
X7368616Y-18519784D01*
X7368616Y-18519784D02*
X7349568Y-18548355D01*
X7349568Y-18548355D02*
X7330521Y-18567403D01*
X7330521Y-18567403D02*
X7311473Y-18576927D01*
X7511473Y-18700736D02*
X7520997Y-18710260D01*
X7520997Y-18710260D02*
X7511473Y-18719784D01*
X7511473Y-18719784D02*
X7501949Y-18710260D01*
X7501949Y-18710260D02*
X7511473Y-18700736D01*
X7511473Y-18700736D02*
X7511473Y-18719784D01*
X7692425Y-18519784D02*
X7654330Y-18519784D01*
X7654330Y-18519784D02*
X7635282Y-18529308D01*
X7635282Y-18529308D02*
X7625759Y-18538831D01*
X7625759Y-18538831D02*
X7606711Y-18567403D01*
X7606711Y-18567403D02*
X7597187Y-18605498D01*
X7597187Y-18605498D02*
X7597187Y-18681689D01*
X7597187Y-18681689D02*
X7606711Y-18700736D01*
X7606711Y-18700736D02*
X7616235Y-18710260D01*
X7616235Y-18710260D02*
X7635282Y-18719784D01*
X7635282Y-18719784D02*
X7673378Y-18719784D01*
X7673378Y-18719784D02*
X7692425Y-18710260D01*
X7692425Y-18710260D02*
X7701949Y-18700736D01*
X7701949Y-18700736D02*
X7711473Y-18681689D01*
X7711473Y-18681689D02*
X7711473Y-18634070D01*
X7711473Y-18634070D02*
X7701949Y-18615022D01*
X7701949Y-18615022D02*
X7692425Y-18605498D01*
X7692425Y-18605498D02*
X7673378Y-18595974D01*
X7673378Y-18595974D02*
X7635282Y-18595974D01*
X7635282Y-18595974D02*
X7616235Y-18605498D01*
X7616235Y-18605498D02*
X7606711Y-18615022D01*
X7606711Y-18615022D02*
X7597187Y-18634070D01*
X7835282Y-18519784D02*
X7854330Y-18519784D01*
X7854330Y-18519784D02*
X7873378Y-18529308D01*
X7873378Y-18529308D02*
X7882902Y-18538831D01*
X7882902Y-18538831D02*
X7892425Y-18557879D01*
X7892425Y-18557879D02*
X7901949Y-18595974D01*
X7901949Y-18595974D02*
X7901949Y-18643593D01*
X7901949Y-18643593D02*
X7892425Y-18681689D01*
X7892425Y-18681689D02*
X7882902Y-18700736D01*
X7882902Y-18700736D02*
X7873378Y-18710260D01*
X7873378Y-18710260D02*
X7854330Y-18719784D01*
X7854330Y-18719784D02*
X7835282Y-18719784D01*
X7835282Y-18719784D02*
X7816235Y-18710260D01*
X7816235Y-18710260D02*
X7806711Y-18700736D01*
X7806711Y-18700736D02*
X7797187Y-18681689D01*
X7797187Y-18681689D02*
X7787663Y-18643593D01*
X7787663Y-18643593D02*
X7787663Y-18595974D01*
X7787663Y-18595974D02*
X7797187Y-18557879D01*
X7797187Y-18557879D02*
X7806711Y-18538831D01*
X7806711Y-18538831D02*
X7816235Y-18529308D01*
X7816235Y-18529308D02*
X7835282Y-18519784D01*
X8025759Y-18519784D02*
X8044806Y-18519784D01*
X8044806Y-18519784D02*
X8063854Y-18529308D01*
X8063854Y-18529308D02*
X8073378Y-18538831D01*
X8073378Y-18538831D02*
X8082902Y-18557879D01*
X8082902Y-18557879D02*
X8092425Y-18595974D01*
X8092425Y-18595974D02*
X8092425Y-18643593D01*
X8092425Y-18643593D02*
X8082902Y-18681689D01*
X8082902Y-18681689D02*
X8073378Y-18700736D01*
X8073378Y-18700736D02*
X8063854Y-18710260D01*
X8063854Y-18710260D02*
X8044806Y-18719784D01*
X8044806Y-18719784D02*
X8025759Y-18719784D01*
X8025759Y-18719784D02*
X8006711Y-18710260D01*
X8006711Y-18710260D02*
X7997187Y-18700736D01*
X7997187Y-18700736D02*
X7987663Y-18681689D01*
X7987663Y-18681689D02*
X7978140Y-18643593D01*
X7978140Y-18643593D02*
X7978140Y-18595974D01*
X7978140Y-18595974D02*
X7987663Y-18557879D01*
X7987663Y-18557879D02*
X7997187Y-18538831D01*
X7997187Y-18538831D02*
X8006711Y-18529308D01*
X8006711Y-18529308D02*
X8025759Y-18519784D01*
X8178140Y-18719784D02*
X8178140Y-18586450D01*
X8178140Y-18605498D02*
X8187663Y-18595974D01*
X8187663Y-18595974D02*
X8206711Y-18586450D01*
X8206711Y-18586450D02*
X8235283Y-18586450D01*
X8235283Y-18586450D02*
X8254330Y-18595974D01*
X8254330Y-18595974D02*
X8263854Y-18615022D01*
X8263854Y-18615022D02*
X8263854Y-18719784D01*
X8263854Y-18615022D02*
X8273378Y-18595974D01*
X8273378Y-18595974D02*
X8292425Y-18586450D01*
X8292425Y-18586450D02*
X8320997Y-18586450D01*
X8320997Y-18586450D02*
X8340044Y-18595974D01*
X8340044Y-18595974D02*
X8349568Y-18615022D01*
X8349568Y-18615022D02*
X8349568Y-18719784D01*
X8444806Y-18719784D02*
X8444806Y-18586450D01*
X8444806Y-18605498D02*
X8454330Y-18595974D01*
X8454330Y-18595974D02*
X8473378Y-18586450D01*
X8473378Y-18586450D02*
X8501949Y-18586450D01*
X8501949Y-18586450D02*
X8520997Y-18595974D01*
X8520997Y-18595974D02*
X8530521Y-18615022D01*
X8530521Y-18615022D02*
X8530521Y-18719784D01*
X8530521Y-18615022D02*
X8540045Y-18595974D01*
X8540045Y-18595974D02*
X8559092Y-18586450D01*
X8559092Y-18586450D02*
X8587664Y-18586450D01*
X8587664Y-18586450D02*
X8606711Y-18595974D01*
X8606711Y-18595974D02*
X8616235Y-18615022D01*
X8616235Y-18615022D02*
X8616235Y-18719784D01*
X9006711Y-18510260D02*
X8835283Y-18767403D01*
X9263854Y-18519784D02*
X9282902Y-18519784D01*
X9282902Y-18519784D02*
X9301949Y-18529308D01*
X9301949Y-18529308D02*
X9311473Y-18538831D01*
X9311473Y-18538831D02*
X9320997Y-18557879D01*
X9320997Y-18557879D02*
X9330521Y-18595974D01*
X9330521Y-18595974D02*
X9330521Y-18643593D01*
X9330521Y-18643593D02*
X9320997Y-18681689D01*
X9320997Y-18681689D02*
X9311473Y-18700736D01*
X9311473Y-18700736D02*
X9301949Y-18710260D01*
X9301949Y-18710260D02*
X9282902Y-18719784D01*
X9282902Y-18719784D02*
X9263854Y-18719784D01*
X9263854Y-18719784D02*
X9244807Y-18710260D01*
X9244807Y-18710260D02*
X9235283Y-18700736D01*
X9235283Y-18700736D02*
X9225759Y-18681689D01*
X9225759Y-18681689D02*
X9216235Y-18643593D01*
X9216235Y-18643593D02*
X9216235Y-18595974D01*
X9216235Y-18595974D02*
X9225759Y-18557879D01*
X9225759Y-18557879D02*
X9235283Y-18538831D01*
X9235283Y-18538831D02*
X9244807Y-18529308D01*
X9244807Y-18529308D02*
X9263854Y-18519784D01*
X9416235Y-18700736D02*
X9425759Y-18710260D01*
X9425759Y-18710260D02*
X9416235Y-18719784D01*
X9416235Y-18719784D02*
X9406711Y-18710260D01*
X9406711Y-18710260D02*
X9416235Y-18700736D01*
X9416235Y-18700736D02*
X9416235Y-18719784D01*
X9549568Y-18519784D02*
X9568616Y-18519784D01*
X9568616Y-18519784D02*
X9587664Y-18529308D01*
X9587664Y-18529308D02*
X9597188Y-18538831D01*
X9597188Y-18538831D02*
X9606711Y-18557879D01*
X9606711Y-18557879D02*
X9616235Y-18595974D01*
X9616235Y-18595974D02*
X9616235Y-18643593D01*
X9616235Y-18643593D02*
X9606711Y-18681689D01*
X9606711Y-18681689D02*
X9597188Y-18700736D01*
X9597188Y-18700736D02*
X9587664Y-18710260D01*
X9587664Y-18710260D02*
X9568616Y-18719784D01*
X9568616Y-18719784D02*
X9549568Y-18719784D01*
X9549568Y-18719784D02*
X9530521Y-18710260D01*
X9530521Y-18710260D02*
X9520997Y-18700736D01*
X9520997Y-18700736D02*
X9511473Y-18681689D01*
X9511473Y-18681689D02*
X9501949Y-18643593D01*
X9501949Y-18643593D02*
X9501949Y-18595974D01*
X9501949Y-18595974D02*
X9511473Y-18557879D01*
X9511473Y-18557879D02*
X9520997Y-18538831D01*
X9520997Y-18538831D02*
X9530521Y-18529308D01*
X9530521Y-18529308D02*
X9549568Y-18519784D01*
X9787664Y-18519784D02*
X9749568Y-18519784D01*
X9749568Y-18519784D02*
X9730521Y-18529308D01*
X9730521Y-18529308D02*
X9720997Y-18538831D01*
X9720997Y-18538831D02*
X9701949Y-18567403D01*
X9701949Y-18567403D02*
X9692426Y-18605498D01*
X9692426Y-18605498D02*
X9692426Y-18681689D01*
X9692426Y-18681689D02*
X9701949Y-18700736D01*
X9701949Y-18700736D02*
X9711473Y-18710260D01*
X9711473Y-18710260D02*
X9730521Y-18719784D01*
X9730521Y-18719784D02*
X9768616Y-18719784D01*
X9768616Y-18719784D02*
X9787664Y-18710260D01*
X9787664Y-18710260D02*
X9797188Y-18700736D01*
X9797188Y-18700736D02*
X9806711Y-18681689D01*
X9806711Y-18681689D02*
X9806711Y-18634070D01*
X9806711Y-18634070D02*
X9797188Y-18615022D01*
X9797188Y-18615022D02*
X9787664Y-18605498D01*
X9787664Y-18605498D02*
X9768616Y-18595974D01*
X9768616Y-18595974D02*
X9730521Y-18595974D01*
X9730521Y-18595974D02*
X9711473Y-18605498D01*
X9711473Y-18605498D02*
X9701949Y-18615022D01*
X9701949Y-18615022D02*
X9692426Y-18634070D01*
X9873378Y-18519784D02*
X9997188Y-18519784D01*
X9997188Y-18519784D02*
X9930521Y-18595974D01*
X9930521Y-18595974D02*
X9959092Y-18595974D01*
X9959092Y-18595974D02*
X9978140Y-18605498D01*
X9978140Y-18605498D02*
X9987664Y-18615022D01*
X9987664Y-18615022D02*
X9997188Y-18634070D01*
X9997188Y-18634070D02*
X9997188Y-18681689D01*
X9997188Y-18681689D02*
X9987664Y-18700736D01*
X9987664Y-18700736D02*
X9978140Y-18710260D01*
X9978140Y-18710260D02*
X9959092Y-18719784D01*
X9959092Y-18719784D02*
X9901949Y-18719784D01*
X9901949Y-18719784D02*
X9882902Y-18710260D01*
X9882902Y-18710260D02*
X9873378Y-18700736D01*
X10120997Y-18519784D02*
X10140045Y-18519784D01*
X10140045Y-18519784D02*
X10159092Y-18529308D01*
X10159092Y-18529308D02*
X10168616Y-18538831D01*
X10168616Y-18538831D02*
X10178140Y-18557879D01*
X10178140Y-18557879D02*
X10187664Y-18595974D01*
X10187664Y-18595974D02*
X10187664Y-18643593D01*
X10187664Y-18643593D02*
X10178140Y-18681689D01*
X10178140Y-18681689D02*
X10168616Y-18700736D01*
X10168616Y-18700736D02*
X10159092Y-18710260D01*
X10159092Y-18710260D02*
X10140045Y-18719784D01*
X10140045Y-18719784D02*
X10120997Y-18719784D01*
X10120997Y-18719784D02*
X10101949Y-18710260D01*
X10101949Y-18710260D02*
X10092426Y-18700736D01*
X10092426Y-18700736D02*
X10082902Y-18681689D01*
X10082902Y-18681689D02*
X10073378Y-18643593D01*
X10073378Y-18643593D02*
X10073378Y-18595974D01*
X10073378Y-18595974D02*
X10082902Y-18557879D01*
X10082902Y-18557879D02*
X10092426Y-18538831D01*
X10092426Y-18538831D02*
X10101949Y-18529308D01*
X10101949Y-18529308D02*
X10120997Y-18519784D01*
X10263854Y-18519784D02*
X10263854Y-18557879D01*
X10340045Y-18519784D02*
X10340045Y-18557879D01*
X10635283Y-18795974D02*
X10625759Y-18786450D01*
X10625759Y-18786450D02*
X10606711Y-18757879D01*
X10606711Y-18757879D02*
X10597188Y-18738831D01*
X10597188Y-18738831D02*
X10587664Y-18710260D01*
X10587664Y-18710260D02*
X10578140Y-18662641D01*
X10578140Y-18662641D02*
X10578140Y-18624546D01*
X10578140Y-18624546D02*
X10587664Y-18576927D01*
X10587664Y-18576927D02*
X10597188Y-18548355D01*
X10597188Y-18548355D02*
X10606711Y-18529308D01*
X10606711Y-18529308D02*
X10625759Y-18500736D01*
X10625759Y-18500736D02*
X10635283Y-18491212D01*
X10701950Y-18538831D02*
X10711473Y-18529308D01*
X10711473Y-18529308D02*
X10730521Y-18519784D01*
X10730521Y-18519784D02*
X10778140Y-18519784D01*
X10778140Y-18519784D02*
X10797188Y-18529308D01*
X10797188Y-18529308D02*
X10806711Y-18538831D01*
X10806711Y-18538831D02*
X10816235Y-18557879D01*
X10816235Y-18557879D02*
X10816235Y-18576927D01*
X10816235Y-18576927D02*
X10806711Y-18605498D01*
X10806711Y-18605498D02*
X10692426Y-18719784D01*
X10692426Y-18719784D02*
X10816235Y-18719784D01*
X11054331Y-18719784D02*
X11054331Y-18519784D01*
X11140045Y-18719784D02*
X11140045Y-18615022D01*
X11140045Y-18615022D02*
X11130521Y-18595974D01*
X11130521Y-18595974D02*
X11111473Y-18586450D01*
X11111473Y-18586450D02*
X11082902Y-18586450D01*
X11082902Y-18586450D02*
X11063854Y-18595974D01*
X11063854Y-18595974D02*
X11054331Y-18605498D01*
X11263854Y-18719784D02*
X11244807Y-18710260D01*
X11244807Y-18710260D02*
X11235283Y-18700736D01*
X11235283Y-18700736D02*
X11225759Y-18681689D01*
X11225759Y-18681689D02*
X11225759Y-18624546D01*
X11225759Y-18624546D02*
X11235283Y-18605498D01*
X11235283Y-18605498D02*
X11244807Y-18595974D01*
X11244807Y-18595974D02*
X11263854Y-18586450D01*
X11263854Y-18586450D02*
X11292426Y-18586450D01*
X11292426Y-18586450D02*
X11311473Y-18595974D01*
X11311473Y-18595974D02*
X11320997Y-18605498D01*
X11320997Y-18605498D02*
X11330521Y-18624546D01*
X11330521Y-18624546D02*
X11330521Y-18681689D01*
X11330521Y-18681689D02*
X11320997Y-18700736D01*
X11320997Y-18700736D02*
X11311473Y-18710260D01*
X11311473Y-18710260D02*
X11292426Y-18719784D01*
X11292426Y-18719784D02*
X11263854Y-18719784D01*
X11444807Y-18719784D02*
X11425759Y-18710260D01*
X11425759Y-18710260D02*
X11416235Y-18691212D01*
X11416235Y-18691212D02*
X11416235Y-18519784D01*
X11597188Y-18710260D02*
X11578140Y-18719784D01*
X11578140Y-18719784D02*
X11540045Y-18719784D01*
X11540045Y-18719784D02*
X11520997Y-18710260D01*
X11520997Y-18710260D02*
X11511473Y-18691212D01*
X11511473Y-18691212D02*
X11511473Y-18615022D01*
X11511473Y-18615022D02*
X11520997Y-18595974D01*
X11520997Y-18595974D02*
X11540045Y-18586450D01*
X11540045Y-18586450D02*
X11578140Y-18586450D01*
X11578140Y-18586450D02*
X11597188Y-18595974D01*
X11597188Y-18595974D02*
X11606711Y-18615022D01*
X11606711Y-18615022D02*
X11606711Y-18634070D01*
X11606711Y-18634070D02*
X11511473Y-18653117D01*
X11682902Y-18710260D02*
X11701950Y-18719784D01*
X11701950Y-18719784D02*
X11740045Y-18719784D01*
X11740045Y-18719784D02*
X11759092Y-18710260D01*
X11759092Y-18710260D02*
X11768616Y-18691212D01*
X11768616Y-18691212D02*
X11768616Y-18681689D01*
X11768616Y-18681689D02*
X11759092Y-18662641D01*
X11759092Y-18662641D02*
X11740045Y-18653117D01*
X11740045Y-18653117D02*
X11711473Y-18653117D01*
X11711473Y-18653117D02*
X11692426Y-18643593D01*
X11692426Y-18643593D02*
X11682902Y-18624546D01*
X11682902Y-18624546D02*
X11682902Y-18615022D01*
X11682902Y-18615022D02*
X11692426Y-18595974D01*
X11692426Y-18595974D02*
X11711473Y-18586450D01*
X11711473Y-18586450D02*
X11740045Y-18586450D01*
X11740045Y-18586450D02*
X11759092Y-18595974D01*
X11835283Y-18795974D02*
X11844807Y-18786450D01*
X11844807Y-18786450D02*
X11863854Y-18757879D01*
X11863854Y-18757879D02*
X11873378Y-18738831D01*
X11873378Y-18738831D02*
X11882902Y-18710260D01*
X11882902Y-18710260D02*
X11892426Y-18662641D01*
X11892426Y-18662641D02*
X11892426Y-18624546D01*
X11892426Y-18624546D02*
X11882902Y-18576927D01*
X11882902Y-18576927D02*
X11873378Y-18548355D01*
X11873378Y-18548355D02*
X11863854Y-18529308D01*
X11863854Y-18529308D02*
X11844807Y-18500736D01*
X11844807Y-18500736D02*
X11835283Y-18491212D01*
X6860220Y-18808300D02*
X7060220Y-19008300D01*
X7060220Y-18808300D02*
X6860220Y-19008300D01*
X7030931Y-18979011D02*
X7030931Y-18837589D01*
X6889509Y-18837589D01*
X6889509Y-18979011D01*
X7030931Y-18979011D01*
X7311473Y-18818831D02*
X7320997Y-18809308D01*
X7320997Y-18809308D02*
X7340044Y-18799784D01*
X7340044Y-18799784D02*
X7387663Y-18799784D01*
X7387663Y-18799784D02*
X7406711Y-18809308D01*
X7406711Y-18809308D02*
X7416235Y-18818831D01*
X7416235Y-18818831D02*
X7425759Y-18837879D01*
X7425759Y-18837879D02*
X7425759Y-18856927D01*
X7425759Y-18856927D02*
X7416235Y-18885498D01*
X7416235Y-18885498D02*
X7301949Y-18999784D01*
X7301949Y-18999784D02*
X7425759Y-18999784D01*
X7511473Y-18980736D02*
X7520997Y-18990260D01*
X7520997Y-18990260D02*
X7511473Y-18999784D01*
X7511473Y-18999784D02*
X7501949Y-18990260D01*
X7501949Y-18990260D02*
X7511473Y-18980736D01*
X7511473Y-18980736D02*
X7511473Y-18999784D01*
X7711473Y-18999784D02*
X7597187Y-18999784D01*
X7654330Y-18999784D02*
X7654330Y-18799784D01*
X7654330Y-18799784D02*
X7635282Y-18828355D01*
X7635282Y-18828355D02*
X7616235Y-18847403D01*
X7616235Y-18847403D02*
X7597187Y-18856927D01*
X7835282Y-18799784D02*
X7854330Y-18799784D01*
X7854330Y-18799784D02*
X7873378Y-18809308D01*
X7873378Y-18809308D02*
X7882902Y-18818831D01*
X7882902Y-18818831D02*
X7892425Y-18837879D01*
X7892425Y-18837879D02*
X7901949Y-18875974D01*
X7901949Y-18875974D02*
X7901949Y-18923593D01*
X7901949Y-18923593D02*
X7892425Y-18961689D01*
X7892425Y-18961689D02*
X7882902Y-18980736D01*
X7882902Y-18980736D02*
X7873378Y-18990260D01*
X7873378Y-18990260D02*
X7854330Y-18999784D01*
X7854330Y-18999784D02*
X7835282Y-18999784D01*
X7835282Y-18999784D02*
X7816235Y-18990260D01*
X7816235Y-18990260D02*
X7806711Y-18980736D01*
X7806711Y-18980736D02*
X7797187Y-18961689D01*
X7797187Y-18961689D02*
X7787663Y-18923593D01*
X7787663Y-18923593D02*
X7787663Y-18875974D01*
X7787663Y-18875974D02*
X7797187Y-18837879D01*
X7797187Y-18837879D02*
X7806711Y-18818831D01*
X7806711Y-18818831D02*
X7816235Y-18809308D01*
X7816235Y-18809308D02*
X7835282Y-18799784D01*
X8025759Y-18799784D02*
X8044806Y-18799784D01*
X8044806Y-18799784D02*
X8063854Y-18809308D01*
X8063854Y-18809308D02*
X8073378Y-18818831D01*
X8073378Y-18818831D02*
X8082902Y-18837879D01*
X8082902Y-18837879D02*
X8092425Y-18875974D01*
X8092425Y-18875974D02*
X8092425Y-18923593D01*
X8092425Y-18923593D02*
X8082902Y-18961689D01*
X8082902Y-18961689D02*
X8073378Y-18980736D01*
X8073378Y-18980736D02*
X8063854Y-18990260D01*
X8063854Y-18990260D02*
X8044806Y-18999784D01*
X8044806Y-18999784D02*
X8025759Y-18999784D01*
X8025759Y-18999784D02*
X8006711Y-18990260D01*
X8006711Y-18990260D02*
X7997187Y-18980736D01*
X7997187Y-18980736D02*
X7987663Y-18961689D01*
X7987663Y-18961689D02*
X7978140Y-18923593D01*
X7978140Y-18923593D02*
X7978140Y-18875974D01*
X7978140Y-18875974D02*
X7987663Y-18837879D01*
X7987663Y-18837879D02*
X7997187Y-18818831D01*
X7997187Y-18818831D02*
X8006711Y-18809308D01*
X8006711Y-18809308D02*
X8025759Y-18799784D01*
X8178140Y-18999784D02*
X8178140Y-18866450D01*
X8178140Y-18885498D02*
X8187663Y-18875974D01*
X8187663Y-18875974D02*
X8206711Y-18866450D01*
X8206711Y-18866450D02*
X8235283Y-18866450D01*
X8235283Y-18866450D02*
X8254330Y-18875974D01*
X8254330Y-18875974D02*
X8263854Y-18895022D01*
X8263854Y-18895022D02*
X8263854Y-18999784D01*
X8263854Y-18895022D02*
X8273378Y-18875974D01*
X8273378Y-18875974D02*
X8292425Y-18866450D01*
X8292425Y-18866450D02*
X8320997Y-18866450D01*
X8320997Y-18866450D02*
X8340044Y-18875974D01*
X8340044Y-18875974D02*
X8349568Y-18895022D01*
X8349568Y-18895022D02*
X8349568Y-18999784D01*
X8444806Y-18999784D02*
X8444806Y-18866450D01*
X8444806Y-18885498D02*
X8454330Y-18875974D01*
X8454330Y-18875974D02*
X8473378Y-18866450D01*
X8473378Y-18866450D02*
X8501949Y-18866450D01*
X8501949Y-18866450D02*
X8520997Y-18875974D01*
X8520997Y-18875974D02*
X8530521Y-18895022D01*
X8530521Y-18895022D02*
X8530521Y-18999784D01*
X8530521Y-18895022D02*
X8540045Y-18875974D01*
X8540045Y-18875974D02*
X8559092Y-18866450D01*
X8559092Y-18866450D02*
X8587664Y-18866450D01*
X8587664Y-18866450D02*
X8606711Y-18875974D01*
X8606711Y-18875974D02*
X8616235Y-18895022D01*
X8616235Y-18895022D02*
X8616235Y-18999784D01*
X9006711Y-18790260D02*
X8835283Y-19047403D01*
X9263854Y-18799784D02*
X9282902Y-18799784D01*
X9282902Y-18799784D02*
X9301949Y-18809308D01*
X9301949Y-18809308D02*
X9311473Y-18818831D01*
X9311473Y-18818831D02*
X9320997Y-18837879D01*
X9320997Y-18837879D02*
X9330521Y-18875974D01*
X9330521Y-18875974D02*
X9330521Y-18923593D01*
X9330521Y-18923593D02*
X9320997Y-18961689D01*
X9320997Y-18961689D02*
X9311473Y-18980736D01*
X9311473Y-18980736D02*
X9301949Y-18990260D01*
X9301949Y-18990260D02*
X9282902Y-18999784D01*
X9282902Y-18999784D02*
X9263854Y-18999784D01*
X9263854Y-18999784D02*
X9244807Y-18990260D01*
X9244807Y-18990260D02*
X9235283Y-18980736D01*
X9235283Y-18980736D02*
X9225759Y-18961689D01*
X9225759Y-18961689D02*
X9216235Y-18923593D01*
X9216235Y-18923593D02*
X9216235Y-18875974D01*
X9216235Y-18875974D02*
X9225759Y-18837879D01*
X9225759Y-18837879D02*
X9235283Y-18818831D01*
X9235283Y-18818831D02*
X9244807Y-18809308D01*
X9244807Y-18809308D02*
X9263854Y-18799784D01*
X9416235Y-18980736D02*
X9425759Y-18990260D01*
X9425759Y-18990260D02*
X9416235Y-18999784D01*
X9416235Y-18999784D02*
X9406711Y-18990260D01*
X9406711Y-18990260D02*
X9416235Y-18980736D01*
X9416235Y-18980736D02*
X9416235Y-18999784D01*
X9549568Y-18799784D02*
X9568616Y-18799784D01*
X9568616Y-18799784D02*
X9587664Y-18809308D01*
X9587664Y-18809308D02*
X9597188Y-18818831D01*
X9597188Y-18818831D02*
X9606711Y-18837879D01*
X9606711Y-18837879D02*
X9616235Y-18875974D01*
X9616235Y-18875974D02*
X9616235Y-18923593D01*
X9616235Y-18923593D02*
X9606711Y-18961689D01*
X9606711Y-18961689D02*
X9597188Y-18980736D01*
X9597188Y-18980736D02*
X9587664Y-18990260D01*
X9587664Y-18990260D02*
X9568616Y-18999784D01*
X9568616Y-18999784D02*
X9549568Y-18999784D01*
X9549568Y-18999784D02*
X9530521Y-18990260D01*
X9530521Y-18990260D02*
X9520997Y-18980736D01*
X9520997Y-18980736D02*
X9511473Y-18961689D01*
X9511473Y-18961689D02*
X9501949Y-18923593D01*
X9501949Y-18923593D02*
X9501949Y-18875974D01*
X9501949Y-18875974D02*
X9511473Y-18837879D01*
X9511473Y-18837879D02*
X9520997Y-18818831D01*
X9520997Y-18818831D02*
X9530521Y-18809308D01*
X9530521Y-18809308D02*
X9549568Y-18799784D01*
X9730521Y-18885498D02*
X9711473Y-18875974D01*
X9711473Y-18875974D02*
X9701949Y-18866450D01*
X9701949Y-18866450D02*
X9692426Y-18847403D01*
X9692426Y-18847403D02*
X9692426Y-18837879D01*
X9692426Y-18837879D02*
X9701949Y-18818831D01*
X9701949Y-18818831D02*
X9711473Y-18809308D01*
X9711473Y-18809308D02*
X9730521Y-18799784D01*
X9730521Y-18799784D02*
X9768616Y-18799784D01*
X9768616Y-18799784D02*
X9787664Y-18809308D01*
X9787664Y-18809308D02*
X9797188Y-18818831D01*
X9797188Y-18818831D02*
X9806711Y-18837879D01*
X9806711Y-18837879D02*
X9806711Y-18847403D01*
X9806711Y-18847403D02*
X9797188Y-18866450D01*
X9797188Y-18866450D02*
X9787664Y-18875974D01*
X9787664Y-18875974D02*
X9768616Y-18885498D01*
X9768616Y-18885498D02*
X9730521Y-18885498D01*
X9730521Y-18885498D02*
X9711473Y-18895022D01*
X9711473Y-18895022D02*
X9701949Y-18904546D01*
X9701949Y-18904546D02*
X9692426Y-18923593D01*
X9692426Y-18923593D02*
X9692426Y-18961689D01*
X9692426Y-18961689D02*
X9701949Y-18980736D01*
X9701949Y-18980736D02*
X9711473Y-18990260D01*
X9711473Y-18990260D02*
X9730521Y-18999784D01*
X9730521Y-18999784D02*
X9768616Y-18999784D01*
X9768616Y-18999784D02*
X9787664Y-18990260D01*
X9787664Y-18990260D02*
X9797188Y-18980736D01*
X9797188Y-18980736D02*
X9806711Y-18961689D01*
X9806711Y-18961689D02*
X9806711Y-18923593D01*
X9806711Y-18923593D02*
X9797188Y-18904546D01*
X9797188Y-18904546D02*
X9787664Y-18895022D01*
X9787664Y-18895022D02*
X9768616Y-18885498D01*
X9882902Y-18818831D02*
X9892426Y-18809308D01*
X9892426Y-18809308D02*
X9911473Y-18799784D01*
X9911473Y-18799784D02*
X9959092Y-18799784D01*
X9959092Y-18799784D02*
X9978140Y-18809308D01*
X9978140Y-18809308D02*
X9987664Y-18818831D01*
X9987664Y-18818831D02*
X9997188Y-18837879D01*
X9997188Y-18837879D02*
X9997188Y-18856927D01*
X9997188Y-18856927D02*
X9987664Y-18885498D01*
X9987664Y-18885498D02*
X9873378Y-18999784D01*
X9873378Y-18999784D02*
X9997188Y-18999784D01*
X10063854Y-18799784D02*
X10197188Y-18799784D01*
X10197188Y-18799784D02*
X10111473Y-18999784D01*
X10263854Y-18799784D02*
X10263854Y-18837879D01*
X10340045Y-18799784D02*
X10340045Y-18837879D01*
X10635283Y-19075974D02*
X10625759Y-19066450D01*
X10625759Y-19066450D02*
X10606711Y-19037879D01*
X10606711Y-19037879D02*
X10597188Y-19018831D01*
X10597188Y-19018831D02*
X10587664Y-18990260D01*
X10587664Y-18990260D02*
X10578140Y-18942641D01*
X10578140Y-18942641D02*
X10578140Y-18904546D01*
X10578140Y-18904546D02*
X10587664Y-18856927D01*
X10587664Y-18856927D02*
X10597188Y-18828355D01*
X10597188Y-18828355D02*
X10606711Y-18809308D01*
X10606711Y-18809308D02*
X10625759Y-18780736D01*
X10625759Y-18780736D02*
X10635283Y-18771212D01*
X10701950Y-18818831D02*
X10711473Y-18809308D01*
X10711473Y-18809308D02*
X10730521Y-18799784D01*
X10730521Y-18799784D02*
X10778140Y-18799784D01*
X10778140Y-18799784D02*
X10797188Y-18809308D01*
X10797188Y-18809308D02*
X10806711Y-18818831D01*
X10806711Y-18818831D02*
X10816235Y-18837879D01*
X10816235Y-18837879D02*
X10816235Y-18856927D01*
X10816235Y-18856927D02*
X10806711Y-18885498D01*
X10806711Y-18885498D02*
X10692426Y-18999784D01*
X10692426Y-18999784D02*
X10816235Y-18999784D01*
X11054331Y-18999784D02*
X11054331Y-18799784D01*
X11140045Y-18999784D02*
X11140045Y-18895022D01*
X11140045Y-18895022D02*
X11130521Y-18875974D01*
X11130521Y-18875974D02*
X11111473Y-18866450D01*
X11111473Y-18866450D02*
X11082902Y-18866450D01*
X11082902Y-18866450D02*
X11063854Y-18875974D01*
X11063854Y-18875974D02*
X11054331Y-18885498D01*
X11263854Y-18999784D02*
X11244807Y-18990260D01*
X11244807Y-18990260D02*
X11235283Y-18980736D01*
X11235283Y-18980736D02*
X11225759Y-18961689D01*
X11225759Y-18961689D02*
X11225759Y-18904546D01*
X11225759Y-18904546D02*
X11235283Y-18885498D01*
X11235283Y-18885498D02*
X11244807Y-18875974D01*
X11244807Y-18875974D02*
X11263854Y-18866450D01*
X11263854Y-18866450D02*
X11292426Y-18866450D01*
X11292426Y-18866450D02*
X11311473Y-18875974D01*
X11311473Y-18875974D02*
X11320997Y-18885498D01*
X11320997Y-18885498D02*
X11330521Y-18904546D01*
X11330521Y-18904546D02*
X11330521Y-18961689D01*
X11330521Y-18961689D02*
X11320997Y-18980736D01*
X11320997Y-18980736D02*
X11311473Y-18990260D01*
X11311473Y-18990260D02*
X11292426Y-18999784D01*
X11292426Y-18999784D02*
X11263854Y-18999784D01*
X11444807Y-18999784D02*
X11425759Y-18990260D01*
X11425759Y-18990260D02*
X11416235Y-18971212D01*
X11416235Y-18971212D02*
X11416235Y-18799784D01*
X11597188Y-18990260D02*
X11578140Y-18999784D01*
X11578140Y-18999784D02*
X11540045Y-18999784D01*
X11540045Y-18999784D02*
X11520997Y-18990260D01*
X11520997Y-18990260D02*
X11511473Y-18971212D01*
X11511473Y-18971212D02*
X11511473Y-18895022D01*
X11511473Y-18895022D02*
X11520997Y-18875974D01*
X11520997Y-18875974D02*
X11540045Y-18866450D01*
X11540045Y-18866450D02*
X11578140Y-18866450D01*
X11578140Y-18866450D02*
X11597188Y-18875974D01*
X11597188Y-18875974D02*
X11606711Y-18895022D01*
X11606711Y-18895022D02*
X11606711Y-18914070D01*
X11606711Y-18914070D02*
X11511473Y-18933117D01*
X11682902Y-18990260D02*
X11701950Y-18999784D01*
X11701950Y-18999784D02*
X11740045Y-18999784D01*
X11740045Y-18999784D02*
X11759092Y-18990260D01*
X11759092Y-18990260D02*
X11768616Y-18971212D01*
X11768616Y-18971212D02*
X11768616Y-18961689D01*
X11768616Y-18961689D02*
X11759092Y-18942641D01*
X11759092Y-18942641D02*
X11740045Y-18933117D01*
X11740045Y-18933117D02*
X11711473Y-18933117D01*
X11711473Y-18933117D02*
X11692426Y-18923593D01*
X11692426Y-18923593D02*
X11682902Y-18904546D01*
X11682902Y-18904546D02*
X11682902Y-18895022D01*
X11682902Y-18895022D02*
X11692426Y-18875974D01*
X11692426Y-18875974D02*
X11711473Y-18866450D01*
X11711473Y-18866450D02*
X11740045Y-18866450D01*
X11740045Y-18866450D02*
X11759092Y-18875974D01*
X11835283Y-19075974D02*
X11844807Y-19066450D01*
X11844807Y-19066450D02*
X11863854Y-19037879D01*
X11863854Y-19037879D02*
X11873378Y-19018831D01*
X11873378Y-19018831D02*
X11882902Y-18990260D01*
X11882902Y-18990260D02*
X11892426Y-18942641D01*
X11892426Y-18942641D02*
X11892426Y-18904546D01*
X11892426Y-18904546D02*
X11882902Y-18856927D01*
X11882902Y-18856927D02*
X11873378Y-18828355D01*
X11873378Y-18828355D02*
X11863854Y-18809308D01*
X11863854Y-18809308D02*
X11844807Y-18780736D01*
X11844807Y-18780736D02*
X11835283Y-18771212D01*
M02*
