M48
; DRILL file {KiCad 9.0.2} date 2025-07-25T10:59:25-0700
; FORMAT={-:-/ absolute / metric / decimal}
; #@! TF.CreationDate,2025-07-25T10:59:25-07:00
; #@! TF.GenerationSoftware,Kicad,Pcbnew,9.0.2
; #@! TF.FileFunction,Plated,1,6,PTH
FMAT,2
METRIC
; #@! TA.AperFunction,Plated,PTH,ViaDrill
T1C0.200
; #@! TA.AperFunction,Plated,PTH,ComponentDrill
T2C0.500
; #@! TA.AperFunction,Plated,PTH,ComponentDrill
T3C0.550
; #@! TA.AperFunction,Plated,PTH,ComponentDrill
T4C0.900
; #@! TA.AperFunction,Plated,PTH,ComponentDrill
T5C1.000
; #@! TA.AperFunction,Plated,PTH,ComponentDrill
T6C1.100
%
G90
G05
T1
X118.965Y-79.25
X120.59Y-96.45
X120.6Y-94.2
X120.87Y-84.9
X120.88Y-83.85
X120.89Y-82.3
X120.94Y-99.645
X122.1Y-92.94
X122.145Y-97.15
X122.279Y-94.225
X122.98Y-96.12
X123.32Y-101.75
X123.52Y-99.4
X123.79Y-79.772
X123.865Y-97.89
X123.97Y-94.0
X124.019Y-90.024
X124.02Y-92.23
X124.03Y-96.27
X124.23Y-83.73
X125.355Y-86.405
X125.995Y-87.57
X126.2Y-94.59
X126.65Y-81.68
X126.65Y-90.55
X126.66Y-101.76
X126.661Y-92.009
X127.342Y-86.909
X127.35Y-87.831
X127.53Y-83.05
X127.64Y-90.72
X127.78Y-89.331
X127.99Y-85.556
X128.0Y-95.5
X128.55Y-81.6
X129.22Y-92.28
X129.54Y-96.12
X129.555Y-97.1
X129.57Y-98.16
X129.716Y-92.605
X130.078Y-87.58
X131.01Y-94.19
X131.52Y-79.74
X132.27Y-97.05
X132.36Y-95.41
X132.74Y-92.59
X133.13Y-84.72
X133.33Y-91.95
X133.37Y-83.06
X133.37Y-83.06
X133.62Y-81.38
X133.85Y-77.12
X134.11Y-86.72
X135.2Y-90.93
X135.296Y-87.806
X135.83Y-94.4
X135.94Y-101.65
X136.141Y-97.935
X136.63Y-86.07
X136.63Y-88.56
X137.0Y-96.987
X137.92Y-90.67
X137.924Y-94.704
X137.95Y-95.35
X138.0Y-95.87
X138.4Y-90.9
X139.299Y-89.051
X139.313Y-91.32
X139.53Y-96.0
X139.675Y-90.975
X140.147Y-90.692
X140.15Y-95.628
X140.369Y-98.085
X140.37Y-103.64
X140.39Y-101.485
X140.77Y-94.54
X140.86Y-80.785
X141.0Y-105.29
X141.32Y-84.19
X141.52Y-93.25
X141.56Y-80.76
X141.572Y-93.995
X141.835Y-82.61
X141.835Y-82.61
X141.98Y-95.445
X142.11Y-105.32
X142.375Y-84.209
X142.41Y-85.19
X142.41Y-86.21
X142.61Y-97.57
X142.781Y-95.895
X142.8Y-92.63
X142.958Y-85.687
X143.17Y-97.02
X143.51Y-85.19
X143.99Y-84.08
X144.6Y-98.6
X144.665Y-92.345
X144.757Y-96.658
X144.848Y-94.823
X144.861Y-91.351
X144.91Y-103.64
X144.94Y-93.336
X144.991Y-95.355
X145.018Y-89.85
X145.111Y-91.84
X145.13Y-92.82
X145.145Y-90.394
X145.246Y-94.364
X145.329Y-93.82
X145.76Y-101.13
X146.62Y-81.53
X146.68Y-79.11
X147.15Y-103.66
X147.225Y-101.507
X147.949Y-89.22
X147.99Y-91.19
X148.0Y-83.257
X148.01Y-94.78
X148.48Y-86.77
X148.554Y-84.229
X148.617Y-87.686
X149.177Y-86.5
X149.178Y-85.801
X149.36Y-99.011
X149.955Y-83.55
X150.11Y-94.08
X150.123Y-95.04
X150.257Y-82.6
X150.26Y-87.3
X150.54Y-98.41
X151.05Y-89.19
X151.05Y-91.2
X151.68Y-103.64
X152.33Y-100.23
X152.397Y-95.04
X152.43Y-85.37
X152.56Y-98.42
X152.6Y-89.19
X152.705Y-83.55
T2
X118.21Y-81.93
X118.22Y-84.17
X122.5Y-77.77
X123.75Y-77.77
X130.19Y-77.74
X131.44Y-77.74
X153.31Y-78.03
X153.37Y-80.17
T4
X119.2Y-103.47
X121.37Y-104.62
X144.36Y-79.71
X151.55Y-79.29
X151.65Y-76.71
T5
X124.62Y-104.54
X128.03Y-104.54
T6
X118.94Y-87.13
X118.94Y-89.67
X118.94Y-92.21
X118.94Y-94.75
X118.94Y-97.29
X118.94Y-99.83
X136.8Y-77.5
X139.34Y-77.5
X141.88Y-77.5
X144.42Y-77.5
X146.96Y-77.5
X149.5Y-77.5
T2
G00X131.15Y-102.815
M15
G01X131.15Y-103.465
M16
G05
G00X138.15Y-102.815
M15
G01X138.15Y-103.465
M16
G05
T3
G00X131.975Y-100.44
M15
G01X132.325Y-100.44
M16
G05
G00X136.975Y-100.44
M15
G01X137.325Y-100.44
M16
G05
M30
