%TF.GenerationSoftware,KiCad,Pcbnew,7.0.7*%
%TF.CreationDate,2024-11-27T13:26:34-08:00*%
%TF.ProjectId,OuterBoard_rev2.1,4f757465-7242-46f6-9172-645f72657632,rev?*%
%TF.SameCoordinates,Original*%
%TF.FileFunction,Drillmap*%
%TF.FilePolarity,Positive*%
%FSLAX45Y45*%
G04 Gerber Fmt 4.5, Leading zero omitted, Abs format (unit mm)*
G04 Created by KiCad (PCBNEW 7.0.7) date 2024-11-27 13:26:34*
%MOMM*%
%LPD*%
G01*
G04 APERTURE LIST*
%ADD10C,0.100000*%
%ADD11C,0.200000*%
%ADD12C,0.040000*%
%ADD13C,0.050000*%
%ADD14C,0.080000*%
%ADD15C,0.102000*%
%ADD16C,0.238000*%
G04 APERTURE END LIST*
D10*
X18272760Y-6497320D02*
G75*
G03*
X17795240Y-6019800I-477520J0D01*
G01*
X8112760Y-6497320D02*
X8112760Y-13162280D01*
X8590280Y-6019800D02*
X17795240Y-6019800D01*
X8590280Y-13639800D02*
X17795402Y-13639962D01*
X17795402Y-13639962D02*
G75*
G03*
X18272922Y-13162442I-2J477522D01*
G01*
X8590280Y-6019800D02*
G75*
G03*
X8112760Y-6497320I0J-477520D01*
G01*
X8112760Y-13162280D02*
G75*
G03*
X8590280Y-13639800I477520J0D01*
G01*
X18272922Y-13162442D02*
X18272760Y-6497320D01*
D11*
D12*
X9031790Y-12055160D02*
X9071790Y-12095160D01*
X9071790Y-12055160D02*
X9031790Y-12095160D01*
X9088440Y-8722680D02*
X9128440Y-8762680D01*
X9128440Y-8722680D02*
X9088440Y-8762680D01*
X9160373Y-12167699D02*
X9200373Y-12207699D01*
X9200373Y-12167699D02*
X9160373Y-12207699D01*
X9184960Y-9540560D02*
X9224960Y-9580560D01*
X9224960Y-9540560D02*
X9184960Y-9580560D01*
X9198430Y-11968181D02*
X9238430Y-12008181D01*
X9238430Y-11968181D02*
X9198430Y-12008181D01*
X9281480Y-9372920D02*
X9321480Y-9412920D01*
X9321480Y-9372920D02*
X9281480Y-9412920D01*
X9347520Y-10490520D02*
X9387520Y-10530520D01*
X9387520Y-10490520D02*
X9347520Y-10530520D01*
X9388160Y-9936800D02*
X9428160Y-9976800D01*
X9428160Y-9936800D02*
X9388160Y-9976800D01*
X9555800Y-13355640D02*
X9595800Y-13395640D01*
X9595800Y-13355640D02*
X9555800Y-13395640D01*
X9565960Y-11267760D02*
X9605960Y-11307760D01*
X9605960Y-11267760D02*
X9565960Y-11307760D01*
X9718360Y-12867960D02*
X9758360Y-12907960D01*
X9758360Y-12867960D02*
X9718360Y-12907960D01*
X9789480Y-10602280D02*
X9829480Y-10642280D01*
X9829480Y-10602280D02*
X9789480Y-10642280D01*
X9814880Y-10993440D02*
X9854880Y-11033440D01*
X9854880Y-10993440D02*
X9814880Y-11033440D01*
X9830120Y-13274360D02*
X9870120Y-13314360D01*
X9870120Y-13274360D02*
X9830120Y-13314360D01*
X9896160Y-12898440D02*
X9936160Y-12938440D01*
X9936160Y-12898440D02*
X9896160Y-12938440D01*
X9921560Y-12055160D02*
X9961560Y-12095160D01*
X9961560Y-12055160D02*
X9921560Y-12095160D01*
X9952040Y-11811320D02*
X9992040Y-11851320D01*
X9992040Y-11811320D02*
X9952040Y-11851320D01*
X9972360Y-9184960D02*
X10012360Y-9224960D01*
X10012360Y-9184960D02*
X9972360Y-9224960D01*
X9982520Y-8610920D02*
X10022520Y-8650920D01*
X10022520Y-8610920D02*
X9982520Y-8650920D01*
X10013000Y-9012240D02*
X10053000Y-9052240D01*
X10053000Y-9012240D02*
X10013000Y-9052240D01*
X10023160Y-10810560D02*
X10063160Y-10850560D01*
X10063160Y-10810560D02*
X10023160Y-10850560D01*
X10094280Y-9230680D02*
X10134280Y-9270680D01*
X10134280Y-9230680D02*
X10094280Y-9270680D01*
X10129840Y-11095040D02*
X10169840Y-11135040D01*
X10169840Y-11095040D02*
X10129840Y-11135040D01*
X10134920Y-12867960D02*
X10174920Y-12907960D01*
X10174920Y-12867960D02*
X10134920Y-12907960D01*
X10282240Y-11714800D02*
X10322240Y-11754800D01*
X10322240Y-11714800D02*
X10282240Y-11754800D01*
X10292400Y-10830880D02*
X10332400Y-10870880D01*
X10332400Y-10830880D02*
X10292400Y-10870880D01*
X10302560Y-13370880D02*
X10342560Y-13410880D01*
X10342560Y-13370880D02*
X10302560Y-13410880D01*
X10338120Y-13035600D02*
X10378120Y-13075600D01*
X10378120Y-13035600D02*
X10338120Y-13075600D01*
X10505760Y-8778560D02*
X10545760Y-8818560D01*
X10545760Y-8778560D02*
X10505760Y-8818560D01*
X10556560Y-10551480D02*
X10596560Y-10591480D01*
X10596560Y-10551480D02*
X10556560Y-10591480D01*
X10800400Y-13213400D02*
X10840400Y-13253400D01*
X10840400Y-13213400D02*
X10800400Y-13253400D01*
X10896920Y-8824280D02*
X10936920Y-8864280D01*
X10936920Y-8824280D02*
X10896920Y-8864280D01*
X11003600Y-12420920D02*
X11043600Y-12460920D01*
X11043600Y-12420920D02*
X11003600Y-12460920D01*
X11044240Y-11186480D02*
X11084240Y-11226480D01*
X11084240Y-11186480D02*
X11044240Y-11226480D01*
X11145840Y-12827320D02*
X11185840Y-12867320D01*
X11185840Y-12827320D02*
X11145840Y-12867320D01*
X11161080Y-11826560D02*
X11201080Y-11866560D01*
X11201080Y-11826560D02*
X11161080Y-11866560D01*
X11308400Y-12334560D02*
X11348400Y-12374560D01*
X11348400Y-12334560D02*
X11308400Y-12374560D01*
X11354120Y-9301800D02*
X11394120Y-9341800D01*
X11394120Y-9301800D02*
X11354120Y-9341800D01*
X11399840Y-12299000D02*
X11439840Y-12339000D01*
X11439840Y-12299000D02*
X11399840Y-12339000D01*
X11465880Y-9012240D02*
X11505880Y-9052240D01*
X11505880Y-9012240D02*
X11465880Y-9052240D01*
X11531920Y-6365560D02*
X11571920Y-6405560D01*
X11571920Y-6365560D02*
X11531920Y-6405560D01*
X11547160Y-11516680D02*
X11587160Y-11556680D01*
X11587160Y-11516680D02*
X11547160Y-11556680D01*
X11552240Y-6843080D02*
X11592240Y-6883080D01*
X11592240Y-6843080D02*
X11552240Y-6883080D01*
X11628440Y-12644440D02*
X11668440Y-12684440D01*
X11668440Y-12644440D02*
X11628440Y-12684440D01*
X11674160Y-11186480D02*
X11714160Y-11226480D01*
X11714160Y-11186480D02*
X11674160Y-11226480D01*
X11689400Y-10703880D02*
X11729400Y-10743880D01*
X11729400Y-10703880D02*
X11689400Y-10743880D01*
X11730040Y-10297480D02*
X11770040Y-10337480D01*
X11770040Y-10297480D02*
X11730040Y-10337480D01*
X11745280Y-10119680D02*
X11785280Y-10159680D01*
X11785280Y-10119680D02*
X11745280Y-10159680D01*
X11760520Y-11669080D02*
X11800520Y-11709080D01*
X11800520Y-11669080D02*
X11760520Y-11709080D01*
X11760520Y-12156760D02*
X11800520Y-12196760D01*
X11800520Y-12156760D02*
X11760520Y-12196760D01*
X11821480Y-12547920D02*
X11861480Y-12587920D01*
X11861480Y-12547920D02*
X11821480Y-12587920D01*
X11826560Y-10805480D02*
X11866560Y-10845480D01*
X11866560Y-10805480D02*
X11826560Y-10845480D01*
X11831640Y-12238040D02*
X11871640Y-12278040D01*
X11871640Y-12238040D02*
X11831640Y-12278040D01*
X11857040Y-6893880D02*
X11897040Y-6933880D01*
X11897040Y-6893880D02*
X11857040Y-6933880D01*
X11861930Y-12391050D02*
X11901930Y-12431050D01*
X11901930Y-12391050D02*
X11861930Y-12431050D01*
X11862120Y-7234240D02*
X11902120Y-7274240D01*
X11902120Y-7234240D02*
X11862120Y-7274240D01*
X11912920Y-8885240D02*
X11952920Y-8925240D01*
X11952920Y-8885240D02*
X11912920Y-8925240D01*
X11912920Y-8991920D02*
X11952920Y-9031920D01*
X11952920Y-8991920D02*
X11912920Y-9031920D01*
X11933240Y-12243120D02*
X11973240Y-12283120D01*
X11973240Y-12243120D02*
X11933240Y-12283120D01*
X11933240Y-12669840D02*
X11973240Y-12709840D01*
X11973240Y-12669840D02*
X11933240Y-12709840D01*
X11951402Y-12327599D02*
X11991402Y-12367599D01*
X11991402Y-12327599D02*
X11951402Y-12367599D01*
X11971448Y-11969354D02*
X12011448Y-12009354D01*
X12011448Y-11969354D02*
X11971448Y-12009354D01*
X11982910Y-12053770D02*
X12022910Y-12093770D01*
X12022910Y-12053770D02*
X11982910Y-12093770D01*
X11989120Y-12451400D02*
X12029120Y-12491400D01*
X12029120Y-12451400D02*
X11989120Y-12491400D01*
X12018981Y-12147219D02*
X12058981Y-12187219D01*
X12058981Y-12147219D02*
X12018981Y-12187219D01*
X12072290Y-11882440D02*
X12112290Y-11922440D01*
X12112290Y-11882440D02*
X12072290Y-11922440D01*
X12146600Y-11191560D02*
X12186600Y-11231560D01*
X12186600Y-11191560D02*
X12146600Y-11231560D01*
X12156760Y-9977440D02*
X12196760Y-10017440D01*
X12196760Y-9977440D02*
X12156760Y-10017440D01*
X12167640Y-10592120D02*
X12207640Y-10632120D01*
X12207640Y-10592120D02*
X12167640Y-10632120D01*
X12198019Y-12562390D02*
X12238019Y-12602390D01*
X12238019Y-12562390D02*
X12198019Y-12602390D01*
X12218157Y-11649197D02*
X12258157Y-11689197D01*
X12258157Y-11649197D02*
X12218157Y-11689197D01*
X12221044Y-12649935D02*
X12261044Y-12689935D01*
X12261044Y-12649935D02*
X12221044Y-12689935D01*
X12226115Y-12770365D02*
X12266115Y-12810365D01*
X12266115Y-12770365D02*
X12226115Y-12810365D01*
X12283550Y-9540560D02*
X12323550Y-9580560D01*
X12323550Y-9540560D02*
X12283550Y-9580560D01*
X12283550Y-9982520D02*
X12323550Y-10022520D01*
X12323550Y-9982520D02*
X12283550Y-10022520D01*
X12329480Y-11257600D02*
X12369480Y-11297600D01*
X12369480Y-11257600D02*
X12329480Y-11297600D01*
X12349800Y-8605840D02*
X12389800Y-8645840D01*
X12389800Y-8605840D02*
X12349800Y-8645840D01*
X12356126Y-12350206D02*
X12396126Y-12390206D01*
X12396126Y-12350206D02*
X12356126Y-12390206D01*
X12361540Y-12061410D02*
X12401540Y-12101410D01*
X12401540Y-12061410D02*
X12361540Y-12101410D01*
X12361540Y-12146600D02*
X12401540Y-12186600D01*
X12401540Y-12146600D02*
X12361540Y-12186600D01*
X12361540Y-12231790D02*
X12401540Y-12271790D01*
X12401540Y-12231790D02*
X12361540Y-12271790D01*
X12365040Y-6741480D02*
X12405040Y-6781480D01*
X12405040Y-6741480D02*
X12365040Y-6781480D01*
X12365040Y-8021600D02*
X12405040Y-8061600D01*
X12405040Y-8021600D02*
X12365040Y-8061600D01*
X12365040Y-11933240D02*
X12405040Y-11973240D01*
X12405040Y-11933240D02*
X12365040Y-11973240D01*
X12382694Y-9593274D02*
X12422694Y-9633274D01*
X12422694Y-9593274D02*
X12382694Y-9633274D01*
X12385360Y-12441240D02*
X12425360Y-12481240D01*
X12425360Y-12441240D02*
X12385360Y-12481240D01*
X12395520Y-11638600D02*
X12435520Y-11678600D01*
X12435520Y-11638600D02*
X12395520Y-11678600D01*
X12451400Y-10703880D02*
X12491400Y-10743880D01*
X12491400Y-10703880D02*
X12451400Y-10743880D01*
X12471720Y-11927640D02*
X12511720Y-11967640D01*
X12511720Y-11927640D02*
X12471720Y-11967640D01*
X12486960Y-12441240D02*
X12526960Y-12481240D01*
X12526960Y-12441240D02*
X12486960Y-12481240D01*
X12497120Y-8585520D02*
X12537120Y-8625520D01*
X12537120Y-8585520D02*
X12497120Y-8625520D01*
X12501927Y-11617315D02*
X12541927Y-11657315D01*
X12541927Y-11617315D02*
X12501927Y-11657315D01*
X12503774Y-12794197D02*
X12543774Y-12834197D01*
X12543774Y-12794197D02*
X12503774Y-12834197D01*
X12553000Y-12919530D02*
X12593000Y-12959530D01*
X12593000Y-12919530D02*
X12553000Y-12959530D01*
X12558080Y-8509320D02*
X12598080Y-8549320D01*
X12598080Y-8509320D02*
X12558080Y-8549320D01*
X12561592Y-9314702D02*
X12601592Y-9354702D01*
X12601592Y-9314702D02*
X12561592Y-9354702D01*
X12603950Y-12796840D02*
X12643950Y-12836840D01*
X12643950Y-12796840D02*
X12603950Y-12836840D01*
X12619040Y-10952800D02*
X12659040Y-10992800D01*
X12659040Y-10952800D02*
X12619040Y-10992800D01*
X12624706Y-12437020D02*
X12664706Y-12477020D01*
X12664706Y-12437020D02*
X12624706Y-12477020D01*
X12653470Y-11615867D02*
X12693470Y-11655867D01*
X12693470Y-11615867D02*
X12653470Y-11655867D01*
X12746040Y-7457760D02*
X12786040Y-7497760D01*
X12786040Y-7457760D02*
X12746040Y-7497760D01*
X12817160Y-8885240D02*
X12857160Y-8925240D01*
X12857160Y-8885240D02*
X12817160Y-8925240D01*
X12852720Y-9240040D02*
X12892720Y-9280040D01*
X12892720Y-9240040D02*
X12852720Y-9280040D01*
X12867190Y-12355554D02*
X12907190Y-12395554D01*
X12907190Y-12355554D02*
X12867190Y-12395554D01*
X12870970Y-12442210D02*
X12910970Y-12482210D01*
X12910970Y-12442210D02*
X12870970Y-12482210D01*
X12873040Y-12207560D02*
X12913040Y-12247560D01*
X12913040Y-12207560D02*
X12873040Y-12247560D01*
X12878120Y-10932480D02*
X12918120Y-10972480D01*
X12918120Y-10932480D02*
X12878120Y-10972480D01*
X12944160Y-12888280D02*
X12984160Y-12928280D01*
X12984160Y-12888280D02*
X12944160Y-12928280D01*
X12979910Y-11532110D02*
X13019910Y-11572110D01*
X13019910Y-11532110D02*
X12979910Y-11572110D01*
X13045760Y-12542840D02*
X13085760Y-12582840D01*
X13085760Y-12542840D02*
X13045760Y-12582840D01*
X13081320Y-11237280D02*
X13121320Y-11277280D01*
X13121320Y-11237280D02*
X13081320Y-11277280D01*
X13157520Y-12837480D02*
X13197520Y-12877480D01*
X13197520Y-12837480D02*
X13157520Y-12877480D01*
X13181030Y-12455637D02*
X13221030Y-12495637D01*
X13221030Y-12455637D02*
X13181030Y-12495637D01*
X13198160Y-12153730D02*
X13238160Y-12193730D01*
X13238160Y-12153730D02*
X13198160Y-12193730D01*
X13254040Y-12268310D02*
X13294040Y-12308310D01*
X13294040Y-12268310D02*
X13254040Y-12308310D01*
X13269899Y-11598579D02*
X13309899Y-11638579D01*
X13309899Y-11598579D02*
X13269899Y-11638579D01*
X13309920Y-12747930D02*
X13349920Y-12787930D01*
X13349920Y-12747930D02*
X13309920Y-12787930D01*
X13325160Y-8956360D02*
X13365160Y-8996360D01*
X13365160Y-8956360D02*
X13325160Y-8996360D01*
X13340400Y-12426000D02*
X13380400Y-12466000D01*
X13380400Y-12426000D02*
X13340400Y-12466000D01*
X13411520Y-10429560D02*
X13451520Y-10469560D01*
X13451520Y-10429560D02*
X13411520Y-10469560D01*
X13467400Y-11577640D02*
X13507400Y-11617640D01*
X13507400Y-11577640D02*
X13467400Y-11617640D01*
X13467400Y-11704430D02*
X13507400Y-11744430D01*
X13507400Y-11704430D02*
X13467400Y-11744430D01*
X13473250Y-6991170D02*
X13513250Y-7031170D01*
X13513250Y-6991170D02*
X13473250Y-7031170D01*
X13502960Y-9972360D02*
X13542960Y-10012360D01*
X13542960Y-9972360D02*
X13502960Y-10012360D01*
X13558840Y-7173280D02*
X13598840Y-7213280D01*
X13598840Y-7173280D02*
X13558840Y-7213280D01*
X13574080Y-6777040D02*
X13614080Y-6817040D01*
X13614080Y-6777040D02*
X13574080Y-6817040D01*
X13574080Y-6893880D02*
X13614080Y-6933880D01*
X13614080Y-6893880D02*
X13574080Y-6933880D01*
X13579160Y-12888280D02*
X13619160Y-12928280D01*
X13619160Y-12888280D02*
X13579160Y-12928280D01*
X13584240Y-12431080D02*
X13624240Y-12471080D01*
X13624240Y-12431080D02*
X13584240Y-12471080D01*
X13614720Y-7244400D02*
X13654720Y-7284400D01*
X13654720Y-7244400D02*
X13614720Y-7284400D01*
X13838240Y-10216200D02*
X13878240Y-10256200D01*
X13878240Y-10216200D02*
X13838240Y-10256200D01*
X13863640Y-11836720D02*
X13903640Y-11876720D01*
X13903640Y-11836720D02*
X13863640Y-11876720D01*
X13980480Y-9789480D02*
X14020480Y-9829480D01*
X14020480Y-9789480D02*
X13980480Y-9829480D01*
X13990640Y-9174800D02*
X14030640Y-9214800D01*
X14030640Y-9174800D02*
X13990640Y-9214800D01*
X14005880Y-11373350D02*
X14045880Y-11413350D01*
X14045880Y-11373350D02*
X14005880Y-11413350D01*
X14310680Y-7493320D02*
X14350680Y-7533320D01*
X14350680Y-7493320D02*
X14310680Y-7533320D01*
X14341160Y-9007160D02*
X14381160Y-9047160D01*
X14381160Y-9007160D02*
X14341160Y-9047160D01*
X14358225Y-11375080D02*
X14398225Y-11415080D01*
X14398225Y-11375080D02*
X14358225Y-11415080D01*
X14529120Y-6883720D02*
X14569120Y-6923720D01*
X14569120Y-6883720D02*
X14529120Y-6923720D01*
X14564680Y-12156710D02*
X14604680Y-12196710D01*
X14604680Y-12156710D02*
X14564680Y-12196710D01*
X14590080Y-11638600D02*
X14630080Y-11678600D01*
X14630080Y-11638600D02*
X14590080Y-11678600D01*
X14590080Y-13477560D02*
X14630080Y-13517560D01*
X14630080Y-13477560D02*
X14590080Y-13517560D01*
X14689140Y-11768140D02*
X14729140Y-11808140D01*
X14729140Y-11768140D02*
X14689140Y-11808140D01*
X14737400Y-13066080D02*
X14777400Y-13106080D01*
X14777400Y-13066080D02*
X14737400Y-13106080D01*
X14818680Y-12486960D02*
X14858680Y-12526960D01*
X14858680Y-12486960D02*
X14818680Y-12526960D01*
X14828840Y-8854760D02*
X14868840Y-8894760D01*
X14868840Y-8854760D02*
X14828840Y-8894760D01*
X14844080Y-7914960D02*
X14884080Y-7954960D01*
X14884080Y-7914960D02*
X14844080Y-7954960D01*
X14879640Y-6878640D02*
X14919640Y-6918640D01*
X14919640Y-6878640D02*
X14879640Y-6918640D01*
X15143800Y-12750910D02*
X15183800Y-12790910D01*
X15183800Y-12750910D02*
X15143800Y-12790910D01*
X15148880Y-8849680D02*
X15188880Y-8889680D01*
X15188880Y-8849680D02*
X15148880Y-8889680D01*
X15174280Y-12359960D02*
X15214280Y-12399960D01*
X15214280Y-12359960D02*
X15174280Y-12399960D01*
X15179360Y-7904800D02*
X15219360Y-7944800D01*
X15219360Y-7904800D02*
X15179360Y-7944800D01*
X15226995Y-11886906D02*
X15266995Y-11926906D01*
X15266995Y-11886906D02*
X15226995Y-11926906D01*
X15235240Y-12558080D02*
X15275240Y-12598080D01*
X15275240Y-12558080D02*
X15235240Y-12598080D01*
X15291120Y-12420920D02*
X15331120Y-12460920D01*
X15331120Y-12420920D02*
X15291120Y-12460920D01*
X15311440Y-11582720D02*
X15351440Y-11622720D01*
X15351440Y-11582720D02*
X15311440Y-11622720D01*
X15336840Y-11938320D02*
X15376840Y-11978320D01*
X15376840Y-11938320D02*
X15336840Y-11978320D01*
X15397800Y-10267000D02*
X15437800Y-10307000D01*
X15437800Y-10267000D02*
X15397800Y-10307000D01*
X15443520Y-12751120D02*
X15483520Y-12791120D01*
X15483520Y-12751120D02*
X15443520Y-12791120D01*
X15529880Y-6670360D02*
X15569880Y-6710360D01*
X15569880Y-6670360D02*
X15529880Y-6710360D01*
X15606080Y-9713280D02*
X15646080Y-9753280D01*
X15646080Y-9713280D02*
X15606080Y-9753280D01*
X15621320Y-12882430D02*
X15661320Y-12922430D01*
X15661320Y-12882430D02*
X15621320Y-12922430D01*
X15667040Y-12497890D02*
X15707040Y-12537890D01*
X15707040Y-12497890D02*
X15667040Y-12537890D01*
X15809280Y-13030520D02*
X15849280Y-13070520D01*
X15849280Y-13030520D02*
X15809280Y-13070520D01*
X15814360Y-12751120D02*
X15854360Y-12791120D01*
X15854360Y-12751120D02*
X15814360Y-12791120D01*
X15819440Y-8631240D02*
X15859440Y-8671240D01*
X15859440Y-8631240D02*
X15819440Y-8671240D01*
X15819440Y-12502200D02*
X15859440Y-12542200D01*
X15859440Y-12502200D02*
X15819440Y-12542200D01*
X15824520Y-12126280D02*
X15864520Y-12166280D01*
X15864520Y-12126280D02*
X15824520Y-12166280D01*
X15890560Y-10703880D02*
X15930560Y-10743880D01*
X15930560Y-10703880D02*
X15890560Y-10743880D01*
X16053120Y-13279440D02*
X16093120Y-13319440D01*
X16093120Y-13279440D02*
X16053120Y-13319440D01*
X16154720Y-7884480D02*
X16194720Y-7924480D01*
X16194720Y-7884480D02*
X16154720Y-7924480D01*
X16296960Y-12100880D02*
X16336960Y-12140880D01*
X16336960Y-12100880D02*
X16296960Y-12140880D01*
X16363000Y-10708960D02*
X16403000Y-10748960D01*
X16403000Y-10708960D02*
X16363000Y-10748960D01*
X16530640Y-13274360D02*
X16570640Y-13314360D01*
X16570640Y-13274360D02*
X16530640Y-13314360D01*
X16604300Y-9898700D02*
X16644300Y-9938700D01*
X16644300Y-9898700D02*
X16604300Y-9938700D01*
X16667800Y-12492040D02*
X16707800Y-12532040D01*
X16707800Y-12492040D02*
X16667800Y-12532040D01*
X16830360Y-6848160D02*
X16870360Y-6888160D01*
X16870360Y-6848160D02*
X16830360Y-6888160D01*
X16840520Y-9317040D02*
X16880520Y-9357040D01*
X16880520Y-9317040D02*
X16840520Y-9357040D01*
X17008160Y-11867200D02*
X17048160Y-11907200D01*
X17048160Y-11867200D02*
X17008160Y-11907200D01*
X17028480Y-9322120D02*
X17068480Y-9362120D01*
X17068480Y-9322120D02*
X17028480Y-9362120D01*
X17033560Y-12954320D02*
X17073560Y-12994320D01*
X17073560Y-12954320D02*
X17033560Y-12994320D01*
X17079280Y-11918000D02*
X17119280Y-11958000D01*
X17119280Y-11918000D02*
X17079280Y-11958000D01*
X17094520Y-12603800D02*
X17134520Y-12643800D01*
X17134520Y-12603800D02*
X17094520Y-12643800D01*
X17130080Y-7848920D02*
X17170080Y-7888920D01*
X17170080Y-7848920D02*
X17130080Y-7888920D01*
X17155480Y-10480570D02*
X17195480Y-10520570D01*
X17195480Y-10480570D02*
X17155480Y-10520570D01*
X17165640Y-8798880D02*
X17205640Y-8838880D01*
X17205640Y-8798880D02*
X17165640Y-8838880D01*
X17185960Y-10307640D02*
X17225960Y-10347640D01*
X17225960Y-10307640D02*
X17185960Y-10347640D01*
X17201200Y-6990400D02*
X17241200Y-7030400D01*
X17241200Y-6990400D02*
X17201200Y-7030400D01*
X17262160Y-12420920D02*
X17302160Y-12460920D01*
X17302160Y-12420920D02*
X17262160Y-12460920D01*
X17287560Y-12034840D02*
X17327560Y-12074840D01*
X17327560Y-12034840D02*
X17287560Y-12074840D01*
X17297720Y-12690160D02*
X17337720Y-12730160D01*
X17337720Y-12690160D02*
X17297720Y-12730160D01*
X17307880Y-11770890D02*
X17347880Y-11810890D01*
X17347880Y-11770890D02*
X17307880Y-11810890D01*
X17419640Y-13340400D02*
X17459640Y-13380400D01*
X17459640Y-13340400D02*
X17419640Y-13380400D01*
X17627920Y-12253280D02*
X17667920Y-12293280D01*
X17667920Y-12253280D02*
X17627920Y-12293280D01*
X17638080Y-12339640D02*
X17678080Y-12379640D01*
X17678080Y-12339640D02*
X17638080Y-12379640D01*
X17643160Y-11745280D02*
X17683160Y-11785280D01*
X17683160Y-11745280D02*
X17643160Y-11785280D01*
X17643160Y-11846880D02*
X17683160Y-11886880D01*
X17683160Y-11846880D02*
X17643160Y-11886880D01*
X17643160Y-11989120D02*
X17683160Y-12029120D01*
X17683160Y-11989120D02*
X17643160Y-12029120D01*
X17648240Y-12588560D02*
X17688240Y-12628560D01*
X17688240Y-12588560D02*
X17648240Y-12628560D01*
X17760000Y-10714250D02*
X17800000Y-10754250D01*
X17800000Y-10714250D02*
X17760000Y-10754250D01*
X17780320Y-10993440D02*
X17820320Y-11033440D01*
X17820320Y-10993440D02*
X17780320Y-11033440D01*
X17805720Y-11506520D02*
X17845720Y-11546520D01*
X17845720Y-11506520D02*
X17805720Y-11546520D01*
X17831120Y-8102920D02*
X17871120Y-8142920D01*
X17871120Y-8102920D02*
X17831120Y-8142920D01*
X17866680Y-9134160D02*
X17906680Y-9174160D01*
X17906680Y-9134160D02*
X17866680Y-9174160D01*
X17993148Y-12164881D02*
X18033148Y-12204881D01*
X18033148Y-12164881D02*
X17993148Y-12204881D01*
X18001290Y-12078010D02*
X18041290Y-12118010D01*
X18041290Y-12078010D02*
X18001290Y-12118010D01*
X18100570Y-11140760D02*
X18140570Y-11180760D01*
X18140570Y-11140760D02*
X18100570Y-11180760D01*
X8714170Y-12160280D02*
G75*
G03*
X8714170Y-12160280I-20000J0D01*
G01*
X8714170Y-12240280D02*
G75*
G03*
X8714170Y-12240280I-20000J0D01*
G01*
X8714170Y-12320280D02*
G75*
G03*
X8714170Y-12320280I-20000J0D01*
G01*
X8714170Y-12480280D02*
G75*
G03*
X8714170Y-12480280I-20000J0D01*
G01*
X8714170Y-12560280D02*
G75*
G03*
X8714170Y-12560280I-20000J0D01*
G01*
X8714170Y-12640280D02*
G75*
G03*
X8714170Y-12640280I-20000J0D01*
G01*
X8784170Y-12095280D02*
G75*
G03*
X8784170Y-12095280I-20000J0D01*
G01*
X8784170Y-12280280D02*
G75*
G03*
X8784170Y-12280280I-20000J0D01*
G01*
X8784170Y-12360280D02*
G75*
G03*
X8784170Y-12360280I-20000J0D01*
G01*
X8784170Y-12440280D02*
G75*
G03*
X8784170Y-12440280I-20000J0D01*
G01*
X8784170Y-12520280D02*
G75*
G03*
X8784170Y-12520280I-20000J0D01*
G01*
X8784170Y-12705280D02*
G75*
G03*
X8784170Y-12705280I-20000J0D01*
G01*
X12838000Y-6858860D02*
G75*
G03*
X12838000Y-6858860I-20000J0D01*
G01*
X12838000Y-6978860D02*
G75*
G03*
X12838000Y-6978860I-20000J0D01*
G01*
X12838000Y-7098860D02*
G75*
G03*
X12838000Y-7098860I-20000J0D01*
G01*
X12838000Y-7218860D02*
G75*
G03*
X12838000Y-7218860I-20000J0D01*
G01*
X12938000Y-6858860D02*
G75*
G03*
X12938000Y-6858860I-20000J0D01*
G01*
X12938000Y-6978860D02*
G75*
G03*
X12938000Y-6978860I-20000J0D01*
G01*
X12938000Y-7098860D02*
G75*
G03*
X12938000Y-7098860I-20000J0D01*
G01*
X12938000Y-7218860D02*
G75*
G03*
X12938000Y-7218860I-20000J0D01*
G01*
X13038000Y-6858860D02*
G75*
G03*
X13038000Y-6858860I-20000J0D01*
G01*
X13038000Y-6978860D02*
G75*
G03*
X13038000Y-6978860I-20000J0D01*
G01*
X13038000Y-7098860D02*
G75*
G03*
X13038000Y-7098860I-20000J0D01*
G01*
X13038000Y-7218860D02*
G75*
G03*
X13038000Y-7218860I-20000J0D01*
G01*
D13*
X8284170Y-11925280D02*
X8284170Y-11975280D01*
X8259170Y-11950280D02*
X8309170Y-11950280D01*
D11*
X8324170Y-11925280D02*
X8244170Y-11925280D01*
X8244170Y-11925280D02*
G75*
G03*
X8244170Y-11975280I0J-25000D01*
G01*
X8244170Y-11975280D02*
X8324170Y-11975280D01*
X8324170Y-11975280D02*
G75*
G03*
X8324170Y-11925280I0J25000D01*
G01*
D13*
X8284170Y-12825280D02*
X8284170Y-12875280D01*
X8259170Y-12850280D02*
X8309170Y-12850280D01*
D11*
X8324170Y-12825280D02*
X8244170Y-12825280D01*
X8244170Y-12825280D02*
G75*
G03*
X8244170Y-12875280I0J-25000D01*
G01*
X8244170Y-12875280D02*
X8324170Y-12875280D01*
X8324170Y-12875280D02*
G75*
G03*
X8324170Y-12825280I0J25000D01*
G01*
D13*
X8478520Y-8655180D02*
X8478520Y-8705180D01*
X8453520Y-8680180D02*
X8503520Y-8680180D01*
X8478520Y-8780180D02*
X8478520Y-8830180D01*
X8453520Y-8805180D02*
X8503520Y-8805180D01*
X8479240Y-9366380D02*
X8479240Y-9416380D01*
X8454240Y-9391380D02*
X8504240Y-9391380D01*
X8479240Y-9491380D02*
X8479240Y-9541380D01*
X8454240Y-9516380D02*
X8504240Y-9516380D01*
X8844170Y-11925280D02*
X8844170Y-11975280D01*
X8819170Y-11950280D02*
X8869170Y-11950280D01*
D11*
X8874170Y-11925280D02*
X8814170Y-11925280D01*
X8814170Y-11925280D02*
G75*
G03*
X8814170Y-11975280I0J-25000D01*
G01*
X8814170Y-11975280D02*
X8874170Y-11975280D01*
X8874170Y-11975280D02*
G75*
G03*
X8874170Y-11925280I0J25000D01*
G01*
D13*
X8844170Y-12825280D02*
X8844170Y-12875280D01*
X8819170Y-12850280D02*
X8869170Y-12850280D01*
D11*
X8874170Y-12825280D02*
X8814170Y-12825280D01*
X8814170Y-12825280D02*
G75*
G03*
X8814170Y-12875280I0J-25000D01*
G01*
X8814170Y-12875280D02*
X8874170Y-12875280D01*
X8874170Y-12875280D02*
G75*
G03*
X8874170Y-12825280I0J25000D01*
G01*
D14*
X13871944Y-6782144D02*
X13871944Y-6725575D01*
X13815375Y-6725575D01*
X13815375Y-6782144D01*
X13871944Y-6782144D01*
X14071944Y-6782144D02*
X14071944Y-6725575D01*
X14015375Y-6725575D01*
X14015375Y-6782144D01*
X14071944Y-6782144D01*
D10*
X8514080Y-6574400D02*
X8564080Y-6524400D01*
X8514080Y-6474400D01*
X8464080Y-6524400D01*
X8514080Y-6574400D01*
X8516620Y-7195020D02*
X8566620Y-7145020D01*
X8516620Y-7095020D01*
X8466620Y-7145020D01*
X8516620Y-7195020D01*
X9172610Y-10466755D02*
X9222610Y-10416755D01*
X9172610Y-10366755D01*
X9122610Y-10416755D01*
X9172610Y-10466755D01*
X9172610Y-10716755D02*
X9222610Y-10666755D01*
X9172610Y-10616755D01*
X9122610Y-10666755D01*
X9172610Y-10716755D01*
X9172610Y-10916755D02*
X9222610Y-10866755D01*
X9172610Y-10816755D01*
X9122610Y-10866755D01*
X9172610Y-10916755D01*
X9172610Y-11166755D02*
X9222610Y-11116755D01*
X9172610Y-11066755D01*
X9122610Y-11116755D01*
X9172610Y-11166755D01*
D15*
X8831380Y-6471720D02*
X8933380Y-6573720D01*
X8933380Y-6471720D02*
X8831380Y-6573720D01*
X8933380Y-6522720D02*
G75*
G03*
X8933380Y-6522720I-51000J0D01*
G01*
X8833920Y-7094020D02*
X8935920Y-7196020D01*
X8935920Y-7094020D02*
X8833920Y-7196020D01*
X8935920Y-7145020D02*
G75*
G03*
X8935920Y-7145020I-51000J0D01*
G01*
X9085380Y-6471720D02*
X9187380Y-6573720D01*
X9187380Y-6471720D02*
X9085380Y-6573720D01*
X9187380Y-6522720D02*
G75*
G03*
X9187380Y-6522720I-51000J0D01*
G01*
X9087920Y-7094020D02*
X9189920Y-7196020D01*
X9189920Y-7094020D02*
X9087920Y-7196020D01*
X9189920Y-7145020D02*
G75*
G03*
X9189920Y-7145020I-51000J0D01*
G01*
X9245400Y-12943640D02*
X9347400Y-13045640D01*
X9347400Y-12943640D02*
X9245400Y-13045640D01*
X9347400Y-12994640D02*
G75*
G03*
X9347400Y-12994640I-51000J0D01*
G01*
X9443520Y-11353600D02*
X9545520Y-11455600D01*
X9545520Y-11353600D02*
X9443520Y-11455600D01*
X9545520Y-11404600D02*
G75*
G03*
X9545520Y-11404600I-51000J0D01*
G01*
X9443520Y-11688880D02*
X9545520Y-11790880D01*
X9545520Y-11688880D02*
X9443520Y-11790880D01*
X9545520Y-11739880D02*
G75*
G03*
X9545520Y-11739880I-51000J0D01*
G01*
X9494320Y-8905040D02*
X9596320Y-9007040D01*
X9596320Y-8905040D02*
X9494320Y-9007040D01*
X9596320Y-8956040D02*
G75*
G03*
X9596320Y-8956040I-51000J0D01*
G01*
X9499400Y-12943640D02*
X9601400Y-13045640D01*
X9601400Y-12943640D02*
X9499400Y-13045640D01*
X9601400Y-12994640D02*
G75*
G03*
X9601400Y-12994640I-51000J0D01*
G01*
X9606080Y-10724830D02*
X9708080Y-10826830D01*
X9708080Y-10724830D02*
X9606080Y-10826830D01*
X9708080Y-10775830D02*
G75*
G03*
X9708080Y-10775830I-51000J0D01*
G01*
X9606080Y-10978830D02*
X9708080Y-11080830D01*
X9708080Y-10978830D02*
X9606080Y-11080830D01*
X9708080Y-11029830D02*
G75*
G03*
X9708080Y-11029830I-51000J0D01*
G01*
X9697520Y-11353600D02*
X9799520Y-11455600D01*
X9799520Y-11353600D02*
X9697520Y-11455600D01*
X9799520Y-11404600D02*
G75*
G03*
X9799520Y-11404600I-51000J0D01*
G01*
X9697520Y-11688880D02*
X9799520Y-11790880D01*
X9799520Y-11688880D02*
X9697520Y-11790880D01*
X9799520Y-11739880D02*
G75*
G03*
X9799520Y-11739880I-51000J0D01*
G01*
X9748320Y-8905040D02*
X9850320Y-9007040D01*
X9850320Y-8905040D02*
X9748320Y-9007040D01*
X9850320Y-8956040D02*
G75*
G03*
X9850320Y-8956040I-51000J0D01*
G01*
X9875320Y-9758480D02*
X9977320Y-9860480D01*
X9977320Y-9758480D02*
X9875320Y-9860480D01*
X9977320Y-9809480D02*
G75*
G03*
X9977320Y-9809480I-51000J0D01*
G01*
X9880400Y-10098840D02*
X9982400Y-10200840D01*
X9982400Y-10098840D02*
X9880400Y-10200840D01*
X9982400Y-10149840D02*
G75*
G03*
X9982400Y-10149840I-51000J0D01*
G01*
X10129320Y-9758480D02*
X10231320Y-9860480D01*
X10231320Y-9758480D02*
X10129320Y-9860480D01*
X10231320Y-9809480D02*
G75*
G03*
X10231320Y-9809480I-51000J0D01*
G01*
X10134400Y-10098840D02*
X10236400Y-10200840D01*
X10236400Y-10098840D02*
X10134400Y-10200840D01*
X10236400Y-10149840D02*
G75*
G03*
X10236400Y-10149840I-51000J0D01*
G01*
X10144560Y-11262160D02*
X10246560Y-11364160D01*
X10246560Y-11262160D02*
X10144560Y-11364160D01*
X10246560Y-11313160D02*
G75*
G03*
X10246560Y-11313160I-51000J0D01*
G01*
X10144560Y-11592360D02*
X10246560Y-11694360D01*
X10246560Y-11592360D02*
X10144560Y-11694360D01*
X10246560Y-11643360D02*
G75*
G03*
X10246560Y-11643360I-51000J0D01*
G01*
X10144560Y-11912400D02*
X10246560Y-12014400D01*
X10246560Y-11912400D02*
X10144560Y-12014400D01*
X10246560Y-11963400D02*
G75*
G03*
X10246560Y-11963400I-51000J0D01*
G01*
X10398560Y-11262160D02*
X10500560Y-11364160D01*
X10500560Y-11262160D02*
X10398560Y-11364160D01*
X10500560Y-11313160D02*
G75*
G03*
X10500560Y-11313160I-51000J0D01*
G01*
X10398560Y-11592360D02*
X10500560Y-11694360D01*
X10500560Y-11592360D02*
X10398560Y-11694360D01*
X10500560Y-11643360D02*
G75*
G03*
X10500560Y-11643360I-51000J0D01*
G01*
X10398560Y-11912400D02*
X10500560Y-12014400D01*
X10500560Y-11912400D02*
X10398560Y-12014400D01*
X10500560Y-11963400D02*
G75*
G03*
X10500560Y-11963400I-51000J0D01*
G01*
X10469680Y-9758480D02*
X10571680Y-9860480D01*
X10571680Y-9758480D02*
X10469680Y-9860480D01*
X10571680Y-9809480D02*
G75*
G03*
X10571680Y-9809480I-51000J0D01*
G01*
X10474760Y-10083600D02*
X10576760Y-10185600D01*
X10576760Y-10083600D02*
X10474760Y-10185600D01*
X10576760Y-10134600D02*
G75*
G03*
X10576760Y-10134600I-51000J0D01*
G01*
X10484920Y-12593120D02*
X10586920Y-12695120D01*
X10586920Y-12593120D02*
X10484920Y-12695120D01*
X10586920Y-12644120D02*
G75*
G03*
X10586920Y-12644120I-51000J0D01*
G01*
X10484920Y-12847120D02*
X10586920Y-12949120D01*
X10586920Y-12847120D02*
X10484920Y-12949120D01*
X10586920Y-12898120D02*
G75*
G03*
X10586920Y-12898120I-51000J0D01*
G01*
X10526950Y-6474260D02*
X10628950Y-6576260D01*
X10628950Y-6474260D02*
X10526950Y-6576260D01*
X10628950Y-6525260D02*
G75*
G03*
X10628950Y-6525260I-51000J0D01*
G01*
X10539410Y-7099100D02*
X10641410Y-7201100D01*
X10641410Y-7099100D02*
X10539410Y-7201100D01*
X10641410Y-7150100D02*
G75*
G03*
X10641410Y-7150100I-51000J0D01*
G01*
X10562270Y-12217200D02*
X10664270Y-12319200D01*
X10664270Y-12217200D02*
X10562270Y-12319200D01*
X10664270Y-12268200D02*
G75*
G03*
X10664270Y-12268200I-51000J0D01*
G01*
X10632240Y-9011720D02*
X10734240Y-9113720D01*
X10734240Y-9011720D02*
X10632240Y-9113720D01*
X10734240Y-9062720D02*
G75*
G03*
X10734240Y-9062720I-51000J0D01*
G01*
X10632240Y-9265720D02*
X10734240Y-9367720D01*
X10734240Y-9265720D02*
X10632240Y-9367720D01*
X10734240Y-9316720D02*
G75*
G03*
X10734240Y-9316720I-51000J0D01*
G01*
X10723680Y-9758480D02*
X10825680Y-9860480D01*
X10825680Y-9758480D02*
X10723680Y-9860480D01*
X10825680Y-9809480D02*
G75*
G03*
X10825680Y-9809480I-51000J0D01*
G01*
X10728760Y-10083600D02*
X10830760Y-10185600D01*
X10830760Y-10083600D02*
X10728760Y-10185600D01*
X10830760Y-10134600D02*
G75*
G03*
X10830760Y-10134600I-51000J0D01*
G01*
X10780950Y-6474260D02*
X10882950Y-6576260D01*
X10882950Y-6474260D02*
X10780950Y-6576260D01*
X10882950Y-6525260D02*
G75*
G03*
X10882950Y-6525260I-51000J0D01*
G01*
X10793410Y-7099100D02*
X10895410Y-7201100D01*
X10895410Y-7099100D02*
X10793410Y-7201100D01*
X10895410Y-7150100D02*
G75*
G03*
X10895410Y-7150100I-51000J0D01*
G01*
X10816270Y-12217200D02*
X10918270Y-12319200D01*
X10918270Y-12217200D02*
X10816270Y-12319200D01*
X10918270Y-12268200D02*
G75*
G03*
X10918270Y-12268200I-51000J0D01*
G01*
X10901480Y-12613440D02*
X11003480Y-12715440D01*
X11003480Y-12613440D02*
X10901480Y-12715440D01*
X11003480Y-12664440D02*
G75*
G03*
X11003480Y-12664440I-51000J0D01*
G01*
X11084360Y-11373920D02*
X11186360Y-11475920D01*
X11186360Y-11373920D02*
X11084360Y-11475920D01*
X11186360Y-11424920D02*
G75*
G03*
X11186360Y-11424920I-51000J0D01*
G01*
X11084360Y-11627920D02*
X11186360Y-11729920D01*
X11186360Y-11627920D02*
X11084360Y-11729920D01*
X11186360Y-11678920D02*
G75*
G03*
X11186360Y-11678920I-51000J0D01*
G01*
X11155480Y-12613440D02*
X11257480Y-12715440D01*
X11257480Y-12613440D02*
X11155480Y-12715440D01*
X11257480Y-12664440D02*
G75*
G03*
X11257480Y-12664440I-51000J0D01*
G01*
X11513620Y-9514640D02*
X11615620Y-9616640D01*
X11615620Y-9514640D02*
X11513620Y-9616640D01*
X11615620Y-9565640D02*
G75*
G03*
X11615620Y-9565640I-51000J0D01*
G01*
X11513620Y-9768640D02*
X11615620Y-9870640D01*
X11615620Y-9768640D02*
X11513620Y-9870640D01*
X11615620Y-9819640D02*
G75*
G03*
X11615620Y-9819640I-51000J0D01*
G01*
X11521240Y-8071920D02*
X11623240Y-8173920D01*
X11623240Y-8071920D02*
X11521240Y-8173920D01*
X11623240Y-8122920D02*
G75*
G03*
X11623240Y-8122920I-51000J0D01*
G01*
X11521240Y-8325920D02*
X11623240Y-8427920D01*
X11623240Y-8325920D02*
X11521240Y-8427920D01*
X11623240Y-8376920D02*
G75*
G03*
X11623240Y-8376920I-51000J0D01*
G01*
X11737140Y-12806480D02*
X11839140Y-12908480D01*
X11839140Y-12806480D02*
X11737140Y-12908480D01*
X11839140Y-12857480D02*
G75*
G03*
X11839140Y-12857480I-51000J0D01*
G01*
X11737140Y-13314480D02*
X11839140Y-13416480D01*
X11839140Y-13314480D02*
X11737140Y-13416480D01*
X11839140Y-13365480D02*
G75*
G03*
X11839140Y-13365480I-51000J0D01*
G01*
X11991140Y-12806480D02*
X12093140Y-12908480D01*
X12093140Y-12806480D02*
X11991140Y-12908480D01*
X12093140Y-12857480D02*
G75*
G03*
X12093140Y-12857480I-51000J0D01*
G01*
X11991140Y-13314480D02*
X12093140Y-13416480D01*
X12093140Y-13314480D02*
X11991140Y-13416480D01*
X12093140Y-13365480D02*
G75*
G03*
X12093140Y-13365480I-51000J0D01*
G01*
X12072420Y-10917740D02*
X12174420Y-11019740D01*
X12174420Y-10917740D02*
X12072420Y-11019740D01*
X12174420Y-10968740D02*
G75*
G03*
X12174420Y-10968740I-51000J0D01*
G01*
X12304710Y-11373920D02*
X12406710Y-11475920D01*
X12406710Y-11373920D02*
X12304710Y-11475920D01*
X12406710Y-11424920D02*
G75*
G03*
X12406710Y-11424920I-51000J0D01*
G01*
X12326420Y-10917740D02*
X12428420Y-11019740D01*
X12428420Y-10917740D02*
X12326420Y-11019740D01*
X12428420Y-10968740D02*
G75*
G03*
X12428420Y-10968740I-51000J0D01*
G01*
X12351820Y-13314480D02*
X12453820Y-13416480D01*
X12453820Y-13314480D02*
X12351820Y-13416480D01*
X12453820Y-13365480D02*
G75*
G03*
X12453820Y-13365480I-51000J0D01*
G01*
X12398690Y-6199940D02*
X12500690Y-6301940D01*
X12500690Y-6199940D02*
X12398690Y-6301940D01*
X12500690Y-6250940D02*
G75*
G03*
X12500690Y-6250940I-51000J0D01*
G01*
X12558710Y-11373920D02*
X12660710Y-11475920D01*
X12660710Y-11373920D02*
X12558710Y-11475920D01*
X12660710Y-11424920D02*
G75*
G03*
X12660710Y-11424920I-51000J0D01*
G01*
X12605820Y-13314480D02*
X12707820Y-13416480D01*
X12707820Y-13314480D02*
X12605820Y-13416480D01*
X12707820Y-13365480D02*
G75*
G03*
X12707820Y-13365480I-51000J0D01*
G01*
X12652690Y-6199940D02*
X12754690Y-6301940D01*
X12754690Y-6199940D02*
X12652690Y-6301940D01*
X12754690Y-6250940D02*
G75*
G03*
X12754690Y-6250940I-51000J0D01*
G01*
X12875060Y-10342680D02*
X12977060Y-10444680D01*
X12977060Y-10342680D02*
X12875060Y-10444680D01*
X12977060Y-10393680D02*
G75*
G03*
X12977060Y-10393680I-51000J0D01*
G01*
X12989360Y-13311940D02*
X13091360Y-13413940D01*
X13091360Y-13311940D02*
X12989360Y-13413940D01*
X13091360Y-13362940D02*
G75*
G03*
X13091360Y-13362940I-51000J0D01*
G01*
X13037620Y-8059220D02*
X13139620Y-8161220D01*
X13139620Y-8059220D02*
X13037620Y-8161220D01*
X13139620Y-8110220D02*
G75*
G03*
X13139620Y-8110220I-51000J0D01*
G01*
X13037620Y-8313220D02*
X13139620Y-8415220D01*
X13139620Y-8313220D02*
X13037620Y-8415220D01*
X13139620Y-8364220D02*
G75*
G03*
X13139620Y-8364220I-51000J0D01*
G01*
X13052860Y-9496860D02*
X13154860Y-9598860D01*
X13154860Y-9496860D02*
X13052860Y-9598860D01*
X13154860Y-9547860D02*
G75*
G03*
X13154860Y-9547860I-51000J0D01*
G01*
X13052860Y-9750860D02*
X13154860Y-9852860D01*
X13154860Y-9750860D02*
X13052860Y-9852860D01*
X13154860Y-9801860D02*
G75*
G03*
X13154860Y-9801860I-51000J0D01*
G01*
X13083340Y-6202480D02*
X13185340Y-6304480D01*
X13185340Y-6202480D02*
X13083340Y-6304480D01*
X13185340Y-6253480D02*
G75*
G03*
X13185340Y-6253480I-51000J0D01*
G01*
X13129060Y-10342680D02*
X13231060Y-10444680D01*
X13231060Y-10342680D02*
X13129060Y-10444680D01*
X13231060Y-10393680D02*
G75*
G03*
X13231060Y-10393680I-51000J0D01*
G01*
X13243360Y-13311940D02*
X13345360Y-13413940D01*
X13345360Y-13311940D02*
X13243360Y-13413940D01*
X13345360Y-13362940D02*
G75*
G03*
X13345360Y-13362940I-51000J0D01*
G01*
X13337340Y-6202480D02*
X13439340Y-6304480D01*
X13439340Y-6202480D02*
X13337340Y-6304480D01*
X13439340Y-6253480D02*
G75*
G03*
X13439340Y-6253480I-51000J0D01*
G01*
X13449100Y-10931960D02*
X13551100Y-11033960D01*
X13551100Y-10931960D02*
X13449100Y-11033960D01*
X13551100Y-10982960D02*
G75*
G03*
X13551100Y-10982960I-51000J0D01*
G01*
X13629440Y-13311940D02*
X13731440Y-13413940D01*
X13731440Y-13311940D02*
X13629440Y-13413940D01*
X13731440Y-13362940D02*
G75*
G03*
X13731440Y-13362940I-51000J0D01*
G01*
X13648610Y-7350560D02*
X13750610Y-7452560D01*
X13750610Y-7350560D02*
X13648610Y-7452560D01*
X13750610Y-7401560D02*
G75*
G03*
X13750610Y-7401560I-51000J0D01*
G01*
X13703100Y-10931960D02*
X13805100Y-11033960D01*
X13805100Y-10931960D02*
X13703100Y-11033960D01*
X13805100Y-10982960D02*
G75*
G03*
X13805100Y-10982960I-51000J0D01*
G01*
X13883440Y-13311940D02*
X13985440Y-13413940D01*
X13985440Y-13311940D02*
X13883440Y-13413940D01*
X13985440Y-13362940D02*
G75*
G03*
X13985440Y-13362940I-51000J0D01*
G01*
X13902610Y-7350560D02*
X14004610Y-7452560D01*
X14004610Y-7350560D02*
X13902610Y-7452560D01*
X14004610Y-7401560D02*
G75*
G03*
X14004610Y-7401560I-51000J0D01*
G01*
X14081560Y-10558580D02*
X14183560Y-10660580D01*
X14183560Y-10558580D02*
X14081560Y-10660580D01*
X14183560Y-10609580D02*
G75*
G03*
X14183560Y-10609580I-51000J0D01*
G01*
X14081560Y-10931960D02*
X14183560Y-11033960D01*
X14183560Y-10931960D02*
X14081560Y-11033960D01*
X14183560Y-10982960D02*
G75*
G03*
X14183560Y-10982960I-51000J0D01*
G01*
X14335560Y-10558580D02*
X14437560Y-10660580D01*
X14437560Y-10558580D02*
X14335560Y-10660580D01*
X14437560Y-10609580D02*
G75*
G03*
X14437560Y-10609580I-51000J0D01*
G01*
X14335560Y-10931960D02*
X14437560Y-11033960D01*
X14437560Y-10931960D02*
X14335560Y-11033960D01*
X14437560Y-10982960D02*
G75*
G03*
X14437560Y-10982960I-51000J0D01*
G01*
X14945160Y-9067600D02*
X15047160Y-9169600D01*
X15047160Y-9067600D02*
X14945160Y-9169600D01*
X15047160Y-9118600D02*
G75*
G03*
X15047160Y-9118600I-51000J0D01*
G01*
X14945160Y-9321600D02*
X15047160Y-9423600D01*
X15047160Y-9321600D02*
X14945160Y-9423600D01*
X15047160Y-9372600D02*
G75*
G03*
X15047160Y-9372600I-51000J0D01*
G01*
X15267740Y-6504550D02*
X15369740Y-6606550D01*
X15369740Y-6504550D02*
X15267740Y-6606550D01*
X15369740Y-6555550D02*
G75*
G03*
X15369740Y-6555550I-51000J0D01*
G01*
X15267740Y-6758550D02*
X15369740Y-6860550D01*
X15369740Y-6758550D02*
X15267740Y-6860550D01*
X15369740Y-6809550D02*
G75*
G03*
X15369740Y-6809550I-51000J0D01*
G01*
X15542060Y-8480670D02*
X15644060Y-8582670D01*
X15644060Y-8480670D02*
X15542060Y-8582670D01*
X15644060Y-8531670D02*
G75*
G03*
X15644060Y-8531670I-51000J0D01*
G01*
X15542060Y-8734670D02*
X15644060Y-8836670D01*
X15644060Y-8734670D02*
X15542060Y-8836670D01*
X15644060Y-8785670D02*
G75*
G03*
X15644060Y-8785670I-51000J0D01*
G01*
X15549680Y-7525630D02*
X15651680Y-7627630D01*
X15651680Y-7525630D02*
X15549680Y-7627630D01*
X15651680Y-7576630D02*
G75*
G03*
X15651680Y-7576630I-51000J0D01*
G01*
X15549680Y-7779630D02*
X15651680Y-7881630D01*
X15651680Y-7779630D02*
X15549680Y-7881630D01*
X15651680Y-7830630D02*
G75*
G03*
X15651680Y-7830630I-51000J0D01*
G01*
X16268500Y-6504550D02*
X16370500Y-6606550D01*
X16370500Y-6504550D02*
X16268500Y-6606550D01*
X16370500Y-6555550D02*
G75*
G03*
X16370500Y-6555550I-51000J0D01*
G01*
X16268500Y-6758550D02*
X16370500Y-6860550D01*
X16370500Y-6758550D02*
X16268500Y-6860550D01*
X16370500Y-6809550D02*
G75*
G03*
X16370500Y-6809550I-51000J0D01*
G01*
X16525040Y-7525630D02*
X16627040Y-7627630D01*
X16627040Y-7525630D02*
X16525040Y-7627630D01*
X16627040Y-7576630D02*
G75*
G03*
X16627040Y-7576630I-51000J0D01*
G01*
X16525040Y-7779630D02*
X16627040Y-7881630D01*
X16627040Y-7779630D02*
X16525040Y-7881630D01*
X16627040Y-7830630D02*
G75*
G03*
X16627040Y-7830630I-51000J0D01*
G01*
X16578380Y-8475590D02*
X16680380Y-8577590D01*
X16680380Y-8475590D02*
X16578380Y-8577590D01*
X16680380Y-8526590D02*
G75*
G03*
X16680380Y-8526590I-51000J0D01*
G01*
X16578380Y-8729590D02*
X16680380Y-8831590D01*
X16680380Y-8729590D02*
X16578380Y-8831590D01*
X16680380Y-8780590D02*
G75*
G03*
X16680380Y-8780590I-51000J0D01*
G01*
D16*
X8782610Y-9990755D02*
X9020610Y-10228755D01*
X9020610Y-9990755D02*
X8782610Y-10228755D01*
X8901610Y-9990755D02*
X8901610Y-10228755D01*
X8782610Y-10109755D02*
X9020610Y-10109755D01*
X8782610Y-11304755D02*
X9020610Y-11542755D01*
X9020610Y-11304755D02*
X8782610Y-11542755D01*
X8901610Y-11304755D02*
X8901610Y-11542755D01*
X8782610Y-11423755D02*
X9020610Y-11423755D01*
D11*
X8368537Y-13956446D02*
X8368537Y-13756446D01*
X8368537Y-13756446D02*
X8416156Y-13756446D01*
X8416156Y-13756446D02*
X8444727Y-13765970D01*
X8444727Y-13765970D02*
X8463775Y-13785018D01*
X8463775Y-13785018D02*
X8473299Y-13804065D01*
X8473299Y-13804065D02*
X8482823Y-13842160D01*
X8482823Y-13842160D02*
X8482823Y-13870732D01*
X8482823Y-13870732D02*
X8473299Y-13908827D01*
X8473299Y-13908827D02*
X8463775Y-13927875D01*
X8463775Y-13927875D02*
X8444727Y-13946922D01*
X8444727Y-13946922D02*
X8416156Y-13956446D01*
X8416156Y-13956446D02*
X8368537Y-13956446D01*
X8568537Y-13956446D02*
X8568537Y-13823113D01*
X8568537Y-13861208D02*
X8578061Y-13842160D01*
X8578061Y-13842160D02*
X8587584Y-13832637D01*
X8587584Y-13832637D02*
X8606632Y-13823113D01*
X8606632Y-13823113D02*
X8625680Y-13823113D01*
X8692346Y-13956446D02*
X8692346Y-13823113D01*
X8692346Y-13756446D02*
X8682823Y-13765970D01*
X8682823Y-13765970D02*
X8692346Y-13775494D01*
X8692346Y-13775494D02*
X8701870Y-13765970D01*
X8701870Y-13765970D02*
X8692346Y-13756446D01*
X8692346Y-13756446D02*
X8692346Y-13775494D01*
X8816156Y-13956446D02*
X8797108Y-13946922D01*
X8797108Y-13946922D02*
X8787584Y-13927875D01*
X8787584Y-13927875D02*
X8787584Y-13756446D01*
X8920918Y-13956446D02*
X8901870Y-13946922D01*
X8901870Y-13946922D02*
X8892346Y-13927875D01*
X8892346Y-13927875D02*
X8892346Y-13756446D01*
X9149489Y-13956446D02*
X9149489Y-13756446D01*
X9149489Y-13756446D02*
X9216156Y-13899303D01*
X9216156Y-13899303D02*
X9282823Y-13756446D01*
X9282823Y-13756446D02*
X9282823Y-13956446D01*
X9463775Y-13956446D02*
X9463775Y-13851684D01*
X9463775Y-13851684D02*
X9454251Y-13832637D01*
X9454251Y-13832637D02*
X9435204Y-13823113D01*
X9435204Y-13823113D02*
X9397108Y-13823113D01*
X9397108Y-13823113D02*
X9378061Y-13832637D01*
X9463775Y-13946922D02*
X9444727Y-13956446D01*
X9444727Y-13956446D02*
X9397108Y-13956446D01*
X9397108Y-13956446D02*
X9378061Y-13946922D01*
X9378061Y-13946922D02*
X9368537Y-13927875D01*
X9368537Y-13927875D02*
X9368537Y-13908827D01*
X9368537Y-13908827D02*
X9378061Y-13889779D01*
X9378061Y-13889779D02*
X9397108Y-13880256D01*
X9397108Y-13880256D02*
X9444727Y-13880256D01*
X9444727Y-13880256D02*
X9463775Y-13870732D01*
X9559013Y-13823113D02*
X9559013Y-14023113D01*
X9559013Y-13832637D02*
X9578061Y-13823113D01*
X9578061Y-13823113D02*
X9616156Y-13823113D01*
X9616156Y-13823113D02*
X9635204Y-13832637D01*
X9635204Y-13832637D02*
X9644727Y-13842160D01*
X9644727Y-13842160D02*
X9654251Y-13861208D01*
X9654251Y-13861208D02*
X9654251Y-13918351D01*
X9654251Y-13918351D02*
X9644727Y-13937398D01*
X9644727Y-13937398D02*
X9635204Y-13946922D01*
X9635204Y-13946922D02*
X9616156Y-13956446D01*
X9616156Y-13956446D02*
X9578061Y-13956446D01*
X9578061Y-13956446D02*
X9559013Y-13946922D01*
X9739965Y-13937398D02*
X9749489Y-13946922D01*
X9749489Y-13946922D02*
X9739965Y-13956446D01*
X9739965Y-13956446D02*
X9730442Y-13946922D01*
X9730442Y-13946922D02*
X9739965Y-13937398D01*
X9739965Y-13937398D02*
X9739965Y-13956446D01*
X9739965Y-13832637D02*
X9749489Y-13842160D01*
X9749489Y-13842160D02*
X9739965Y-13851684D01*
X9739965Y-13851684D02*
X9730442Y-13842160D01*
X9730442Y-13842160D02*
X9739965Y-13832637D01*
X9739965Y-13832637D02*
X9739965Y-13851684D01*
D12*
X8067760Y-14264962D02*
X8107760Y-14304962D01*
X8107760Y-14264962D02*
X8067760Y-14304962D01*
D11*
X8406632Y-14176446D02*
X8425680Y-14176446D01*
X8425680Y-14176446D02*
X8444727Y-14185970D01*
X8444727Y-14185970D02*
X8454251Y-14195494D01*
X8454251Y-14195494D02*
X8463775Y-14214541D01*
X8463775Y-14214541D02*
X8473299Y-14252637D01*
X8473299Y-14252637D02*
X8473299Y-14300256D01*
X8473299Y-14300256D02*
X8463775Y-14338351D01*
X8463775Y-14338351D02*
X8454251Y-14357398D01*
X8454251Y-14357398D02*
X8444727Y-14366922D01*
X8444727Y-14366922D02*
X8425680Y-14376446D01*
X8425680Y-14376446D02*
X8406632Y-14376446D01*
X8406632Y-14376446D02*
X8387584Y-14366922D01*
X8387584Y-14366922D02*
X8378061Y-14357398D01*
X8378061Y-14357398D02*
X8368537Y-14338351D01*
X8368537Y-14338351D02*
X8359013Y-14300256D01*
X8359013Y-14300256D02*
X8359013Y-14252637D01*
X8359013Y-14252637D02*
X8368537Y-14214541D01*
X8368537Y-14214541D02*
X8378061Y-14195494D01*
X8378061Y-14195494D02*
X8387584Y-14185970D01*
X8387584Y-14185970D02*
X8406632Y-14176446D01*
X8559013Y-14357398D02*
X8568537Y-14366922D01*
X8568537Y-14366922D02*
X8559013Y-14376446D01*
X8559013Y-14376446D02*
X8549489Y-14366922D01*
X8549489Y-14366922D02*
X8559013Y-14357398D01*
X8559013Y-14357398D02*
X8559013Y-14376446D01*
X8739965Y-14243113D02*
X8739965Y-14376446D01*
X8692346Y-14166922D02*
X8644727Y-14309779D01*
X8644727Y-14309779D02*
X8768537Y-14309779D01*
X8882823Y-14176446D02*
X8901870Y-14176446D01*
X8901870Y-14176446D02*
X8920918Y-14185970D01*
X8920918Y-14185970D02*
X8930442Y-14195494D01*
X8930442Y-14195494D02*
X8939965Y-14214541D01*
X8939965Y-14214541D02*
X8949489Y-14252637D01*
X8949489Y-14252637D02*
X8949489Y-14300256D01*
X8949489Y-14300256D02*
X8939965Y-14338351D01*
X8939965Y-14338351D02*
X8930442Y-14357398D01*
X8930442Y-14357398D02*
X8920918Y-14366922D01*
X8920918Y-14366922D02*
X8901870Y-14376446D01*
X8901870Y-14376446D02*
X8882823Y-14376446D01*
X8882823Y-14376446D02*
X8863775Y-14366922D01*
X8863775Y-14366922D02*
X8854251Y-14357398D01*
X8854251Y-14357398D02*
X8844727Y-14338351D01*
X8844727Y-14338351D02*
X8835204Y-14300256D01*
X8835204Y-14300256D02*
X8835204Y-14252637D01*
X8835204Y-14252637D02*
X8844727Y-14214541D01*
X8844727Y-14214541D02*
X8854251Y-14195494D01*
X8854251Y-14195494D02*
X8863775Y-14185970D01*
X8863775Y-14185970D02*
X8882823Y-14176446D01*
X9073299Y-14176446D02*
X9092346Y-14176446D01*
X9092346Y-14176446D02*
X9111394Y-14185970D01*
X9111394Y-14185970D02*
X9120918Y-14195494D01*
X9120918Y-14195494D02*
X9130442Y-14214541D01*
X9130442Y-14214541D02*
X9139965Y-14252637D01*
X9139965Y-14252637D02*
X9139965Y-14300256D01*
X9139965Y-14300256D02*
X9130442Y-14338351D01*
X9130442Y-14338351D02*
X9120918Y-14357398D01*
X9120918Y-14357398D02*
X9111394Y-14366922D01*
X9111394Y-14366922D02*
X9092346Y-14376446D01*
X9092346Y-14376446D02*
X9073299Y-14376446D01*
X9073299Y-14376446D02*
X9054251Y-14366922D01*
X9054251Y-14366922D02*
X9044727Y-14357398D01*
X9044727Y-14357398D02*
X9035204Y-14338351D01*
X9035204Y-14338351D02*
X9025680Y-14300256D01*
X9025680Y-14300256D02*
X9025680Y-14252637D01*
X9025680Y-14252637D02*
X9035204Y-14214541D01*
X9035204Y-14214541D02*
X9044727Y-14195494D01*
X9044727Y-14195494D02*
X9054251Y-14185970D01*
X9054251Y-14185970D02*
X9073299Y-14176446D01*
X9225680Y-14376446D02*
X9225680Y-14243113D01*
X9225680Y-14262160D02*
X9235204Y-14252637D01*
X9235204Y-14252637D02*
X9254251Y-14243113D01*
X9254251Y-14243113D02*
X9282823Y-14243113D01*
X9282823Y-14243113D02*
X9301870Y-14252637D01*
X9301870Y-14252637D02*
X9311394Y-14271684D01*
X9311394Y-14271684D02*
X9311394Y-14376446D01*
X9311394Y-14271684D02*
X9320918Y-14252637D01*
X9320918Y-14252637D02*
X9339965Y-14243113D01*
X9339965Y-14243113D02*
X9368537Y-14243113D01*
X9368537Y-14243113D02*
X9387585Y-14252637D01*
X9387585Y-14252637D02*
X9397108Y-14271684D01*
X9397108Y-14271684D02*
X9397108Y-14376446D01*
X9492346Y-14376446D02*
X9492346Y-14243113D01*
X9492346Y-14262160D02*
X9501870Y-14252637D01*
X9501870Y-14252637D02*
X9520918Y-14243113D01*
X9520918Y-14243113D02*
X9549489Y-14243113D01*
X9549489Y-14243113D02*
X9568537Y-14252637D01*
X9568537Y-14252637D02*
X9578061Y-14271684D01*
X9578061Y-14271684D02*
X9578061Y-14376446D01*
X9578061Y-14271684D02*
X9587585Y-14252637D01*
X9587585Y-14252637D02*
X9606632Y-14243113D01*
X9606632Y-14243113D02*
X9635204Y-14243113D01*
X9635204Y-14243113D02*
X9654251Y-14252637D01*
X9654251Y-14252637D02*
X9663775Y-14271684D01*
X9663775Y-14271684D02*
X9663775Y-14376446D01*
X10054251Y-14166922D02*
X9882823Y-14424065D01*
X10311394Y-14176446D02*
X10330442Y-14176446D01*
X10330442Y-14176446D02*
X10349489Y-14185970D01*
X10349489Y-14185970D02*
X10359013Y-14195494D01*
X10359013Y-14195494D02*
X10368537Y-14214541D01*
X10368537Y-14214541D02*
X10378061Y-14252637D01*
X10378061Y-14252637D02*
X10378061Y-14300256D01*
X10378061Y-14300256D02*
X10368537Y-14338351D01*
X10368537Y-14338351D02*
X10359013Y-14357398D01*
X10359013Y-14357398D02*
X10349489Y-14366922D01*
X10349489Y-14366922D02*
X10330442Y-14376446D01*
X10330442Y-14376446D02*
X10311394Y-14376446D01*
X10311394Y-14376446D02*
X10292347Y-14366922D01*
X10292347Y-14366922D02*
X10282823Y-14357398D01*
X10282823Y-14357398D02*
X10273299Y-14338351D01*
X10273299Y-14338351D02*
X10263775Y-14300256D01*
X10263775Y-14300256D02*
X10263775Y-14252637D01*
X10263775Y-14252637D02*
X10273299Y-14214541D01*
X10273299Y-14214541D02*
X10282823Y-14195494D01*
X10282823Y-14195494D02*
X10292347Y-14185970D01*
X10292347Y-14185970D02*
X10311394Y-14176446D01*
X10463775Y-14357398D02*
X10473299Y-14366922D01*
X10473299Y-14366922D02*
X10463775Y-14376446D01*
X10463775Y-14376446D02*
X10454251Y-14366922D01*
X10454251Y-14366922D02*
X10463775Y-14357398D01*
X10463775Y-14357398D02*
X10463775Y-14376446D01*
X10597108Y-14176446D02*
X10616156Y-14176446D01*
X10616156Y-14176446D02*
X10635204Y-14185970D01*
X10635204Y-14185970D02*
X10644728Y-14195494D01*
X10644728Y-14195494D02*
X10654251Y-14214541D01*
X10654251Y-14214541D02*
X10663775Y-14252637D01*
X10663775Y-14252637D02*
X10663775Y-14300256D01*
X10663775Y-14300256D02*
X10654251Y-14338351D01*
X10654251Y-14338351D02*
X10644728Y-14357398D01*
X10644728Y-14357398D02*
X10635204Y-14366922D01*
X10635204Y-14366922D02*
X10616156Y-14376446D01*
X10616156Y-14376446D02*
X10597108Y-14376446D01*
X10597108Y-14376446D02*
X10578061Y-14366922D01*
X10578061Y-14366922D02*
X10568537Y-14357398D01*
X10568537Y-14357398D02*
X10559013Y-14338351D01*
X10559013Y-14338351D02*
X10549489Y-14300256D01*
X10549489Y-14300256D02*
X10549489Y-14252637D01*
X10549489Y-14252637D02*
X10559013Y-14214541D01*
X10559013Y-14214541D02*
X10568537Y-14195494D01*
X10568537Y-14195494D02*
X10578061Y-14185970D01*
X10578061Y-14185970D02*
X10597108Y-14176446D01*
X10854251Y-14376446D02*
X10739966Y-14376446D01*
X10797108Y-14376446D02*
X10797108Y-14176446D01*
X10797108Y-14176446D02*
X10778061Y-14205018D01*
X10778061Y-14205018D02*
X10759013Y-14224065D01*
X10759013Y-14224065D02*
X10739966Y-14233589D01*
X11035204Y-14176446D02*
X10939966Y-14176446D01*
X10939966Y-14176446D02*
X10930442Y-14271684D01*
X10930442Y-14271684D02*
X10939966Y-14262160D01*
X10939966Y-14262160D02*
X10959013Y-14252637D01*
X10959013Y-14252637D02*
X11006632Y-14252637D01*
X11006632Y-14252637D02*
X11025680Y-14262160D01*
X11025680Y-14262160D02*
X11035204Y-14271684D01*
X11035204Y-14271684D02*
X11044728Y-14290732D01*
X11044728Y-14290732D02*
X11044728Y-14338351D01*
X11044728Y-14338351D02*
X11035204Y-14357398D01*
X11035204Y-14357398D02*
X11025680Y-14366922D01*
X11025680Y-14366922D02*
X11006632Y-14376446D01*
X11006632Y-14376446D02*
X10959013Y-14376446D01*
X10959013Y-14376446D02*
X10939966Y-14366922D01*
X10939966Y-14366922D02*
X10930442Y-14357398D01*
X11111394Y-14176446D02*
X11244727Y-14176446D01*
X11244727Y-14176446D02*
X11159013Y-14376446D01*
X11311394Y-14176446D02*
X11311394Y-14214541D01*
X11387585Y-14176446D02*
X11387585Y-14214541D01*
X11682823Y-14452637D02*
X11673299Y-14443113D01*
X11673299Y-14443113D02*
X11654251Y-14414541D01*
X11654251Y-14414541D02*
X11644728Y-14395494D01*
X11644728Y-14395494D02*
X11635204Y-14366922D01*
X11635204Y-14366922D02*
X11625680Y-14319303D01*
X11625680Y-14319303D02*
X11625680Y-14281208D01*
X11625680Y-14281208D02*
X11635204Y-14233589D01*
X11635204Y-14233589D02*
X11644728Y-14205018D01*
X11644728Y-14205018D02*
X11654251Y-14185970D01*
X11654251Y-14185970D02*
X11673299Y-14157398D01*
X11673299Y-14157398D02*
X11682823Y-14147875D01*
X11749489Y-14195494D02*
X11759013Y-14185970D01*
X11759013Y-14185970D02*
X11778061Y-14176446D01*
X11778061Y-14176446D02*
X11825680Y-14176446D01*
X11825680Y-14176446D02*
X11844728Y-14185970D01*
X11844728Y-14185970D02*
X11854251Y-14195494D01*
X11854251Y-14195494D02*
X11863775Y-14214541D01*
X11863775Y-14214541D02*
X11863775Y-14233589D01*
X11863775Y-14233589D02*
X11854251Y-14262160D01*
X11854251Y-14262160D02*
X11739966Y-14376446D01*
X11739966Y-14376446D02*
X11863775Y-14376446D01*
X11987585Y-14176446D02*
X12006632Y-14176446D01*
X12006632Y-14176446D02*
X12025680Y-14185970D01*
X12025680Y-14185970D02*
X12035204Y-14195494D01*
X12035204Y-14195494D02*
X12044728Y-14214541D01*
X12044728Y-14214541D02*
X12054251Y-14252637D01*
X12054251Y-14252637D02*
X12054251Y-14300256D01*
X12054251Y-14300256D02*
X12044728Y-14338351D01*
X12044728Y-14338351D02*
X12035204Y-14357398D01*
X12035204Y-14357398D02*
X12025680Y-14366922D01*
X12025680Y-14366922D02*
X12006632Y-14376446D01*
X12006632Y-14376446D02*
X11987585Y-14376446D01*
X11987585Y-14376446D02*
X11968537Y-14366922D01*
X11968537Y-14366922D02*
X11959013Y-14357398D01*
X11959013Y-14357398D02*
X11949489Y-14338351D01*
X11949489Y-14338351D02*
X11939966Y-14300256D01*
X11939966Y-14300256D02*
X11939966Y-14252637D01*
X11939966Y-14252637D02*
X11949489Y-14214541D01*
X11949489Y-14214541D02*
X11959013Y-14195494D01*
X11959013Y-14195494D02*
X11968537Y-14185970D01*
X11968537Y-14185970D02*
X11987585Y-14176446D01*
X12120918Y-14176446D02*
X12254251Y-14176446D01*
X12254251Y-14176446D02*
X12168537Y-14376446D01*
X12482823Y-14376446D02*
X12482823Y-14176446D01*
X12568537Y-14376446D02*
X12568537Y-14271684D01*
X12568537Y-14271684D02*
X12559013Y-14252637D01*
X12559013Y-14252637D02*
X12539966Y-14243113D01*
X12539966Y-14243113D02*
X12511394Y-14243113D01*
X12511394Y-14243113D02*
X12492347Y-14252637D01*
X12492347Y-14252637D02*
X12482823Y-14262160D01*
X12692347Y-14376446D02*
X12673299Y-14366922D01*
X12673299Y-14366922D02*
X12663775Y-14357398D01*
X12663775Y-14357398D02*
X12654251Y-14338351D01*
X12654251Y-14338351D02*
X12654251Y-14281208D01*
X12654251Y-14281208D02*
X12663775Y-14262160D01*
X12663775Y-14262160D02*
X12673299Y-14252637D01*
X12673299Y-14252637D02*
X12692347Y-14243113D01*
X12692347Y-14243113D02*
X12720918Y-14243113D01*
X12720918Y-14243113D02*
X12739966Y-14252637D01*
X12739966Y-14252637D02*
X12749490Y-14262160D01*
X12749490Y-14262160D02*
X12759013Y-14281208D01*
X12759013Y-14281208D02*
X12759013Y-14338351D01*
X12759013Y-14338351D02*
X12749490Y-14357398D01*
X12749490Y-14357398D02*
X12739966Y-14366922D01*
X12739966Y-14366922D02*
X12720918Y-14376446D01*
X12720918Y-14376446D02*
X12692347Y-14376446D01*
X12873299Y-14376446D02*
X12854251Y-14366922D01*
X12854251Y-14366922D02*
X12844728Y-14347875D01*
X12844728Y-14347875D02*
X12844728Y-14176446D01*
X13025680Y-14366922D02*
X13006632Y-14376446D01*
X13006632Y-14376446D02*
X12968537Y-14376446D01*
X12968537Y-14376446D02*
X12949490Y-14366922D01*
X12949490Y-14366922D02*
X12939966Y-14347875D01*
X12939966Y-14347875D02*
X12939966Y-14271684D01*
X12939966Y-14271684D02*
X12949490Y-14252637D01*
X12949490Y-14252637D02*
X12968537Y-14243113D01*
X12968537Y-14243113D02*
X13006632Y-14243113D01*
X13006632Y-14243113D02*
X13025680Y-14252637D01*
X13025680Y-14252637D02*
X13035204Y-14271684D01*
X13035204Y-14271684D02*
X13035204Y-14290732D01*
X13035204Y-14290732D02*
X12939966Y-14309779D01*
X13111394Y-14366922D02*
X13130442Y-14376446D01*
X13130442Y-14376446D02*
X13168537Y-14376446D01*
X13168537Y-14376446D02*
X13187585Y-14366922D01*
X13187585Y-14366922D02*
X13197109Y-14347875D01*
X13197109Y-14347875D02*
X13197109Y-14338351D01*
X13197109Y-14338351D02*
X13187585Y-14319303D01*
X13187585Y-14319303D02*
X13168537Y-14309779D01*
X13168537Y-14309779D02*
X13139966Y-14309779D01*
X13139966Y-14309779D02*
X13120918Y-14300256D01*
X13120918Y-14300256D02*
X13111394Y-14281208D01*
X13111394Y-14281208D02*
X13111394Y-14271684D01*
X13111394Y-14271684D02*
X13120918Y-14252637D01*
X13120918Y-14252637D02*
X13139966Y-14243113D01*
X13139966Y-14243113D02*
X13168537Y-14243113D01*
X13168537Y-14243113D02*
X13187585Y-14252637D01*
X13263775Y-14452637D02*
X13273299Y-14443113D01*
X13273299Y-14443113D02*
X13292347Y-14414541D01*
X13292347Y-14414541D02*
X13301871Y-14395494D01*
X13301871Y-14395494D02*
X13311394Y-14366922D01*
X13311394Y-14366922D02*
X13320918Y-14319303D01*
X13320918Y-14319303D02*
X13320918Y-14281208D01*
X13320918Y-14281208D02*
X13311394Y-14233589D01*
X13311394Y-14233589D02*
X13301871Y-14205018D01*
X13301871Y-14205018D02*
X13292347Y-14185970D01*
X13292347Y-14185970D02*
X13273299Y-14157398D01*
X13273299Y-14157398D02*
X13263775Y-14147875D01*
D12*
X8107760Y-14548962D02*
G75*
G03*
X8107760Y-14548962I-20000J0D01*
G01*
D11*
X8406632Y-14440446D02*
X8425680Y-14440446D01*
X8425680Y-14440446D02*
X8444727Y-14449970D01*
X8444727Y-14449970D02*
X8454251Y-14459494D01*
X8454251Y-14459494D02*
X8463775Y-14478541D01*
X8463775Y-14478541D02*
X8473299Y-14516637D01*
X8473299Y-14516637D02*
X8473299Y-14564256D01*
X8473299Y-14564256D02*
X8463775Y-14602351D01*
X8463775Y-14602351D02*
X8454251Y-14621398D01*
X8454251Y-14621398D02*
X8444727Y-14630922D01*
X8444727Y-14630922D02*
X8425680Y-14640446D01*
X8425680Y-14640446D02*
X8406632Y-14640446D01*
X8406632Y-14640446D02*
X8387584Y-14630922D01*
X8387584Y-14630922D02*
X8378061Y-14621398D01*
X8378061Y-14621398D02*
X8368537Y-14602351D01*
X8368537Y-14602351D02*
X8359013Y-14564256D01*
X8359013Y-14564256D02*
X8359013Y-14516637D01*
X8359013Y-14516637D02*
X8368537Y-14478541D01*
X8368537Y-14478541D02*
X8378061Y-14459494D01*
X8378061Y-14459494D02*
X8387584Y-14449970D01*
X8387584Y-14449970D02*
X8406632Y-14440446D01*
X8559013Y-14621398D02*
X8568537Y-14630922D01*
X8568537Y-14630922D02*
X8559013Y-14640446D01*
X8559013Y-14640446D02*
X8549489Y-14630922D01*
X8549489Y-14630922D02*
X8559013Y-14621398D01*
X8559013Y-14621398D02*
X8559013Y-14640446D01*
X8739965Y-14507113D02*
X8739965Y-14640446D01*
X8692346Y-14430922D02*
X8644727Y-14573779D01*
X8644727Y-14573779D02*
X8768537Y-14573779D01*
X8882823Y-14440446D02*
X8901870Y-14440446D01*
X8901870Y-14440446D02*
X8920918Y-14449970D01*
X8920918Y-14449970D02*
X8930442Y-14459494D01*
X8930442Y-14459494D02*
X8939965Y-14478541D01*
X8939965Y-14478541D02*
X8949489Y-14516637D01*
X8949489Y-14516637D02*
X8949489Y-14564256D01*
X8949489Y-14564256D02*
X8939965Y-14602351D01*
X8939965Y-14602351D02*
X8930442Y-14621398D01*
X8930442Y-14621398D02*
X8920918Y-14630922D01*
X8920918Y-14630922D02*
X8901870Y-14640446D01*
X8901870Y-14640446D02*
X8882823Y-14640446D01*
X8882823Y-14640446D02*
X8863775Y-14630922D01*
X8863775Y-14630922D02*
X8854251Y-14621398D01*
X8854251Y-14621398D02*
X8844727Y-14602351D01*
X8844727Y-14602351D02*
X8835204Y-14564256D01*
X8835204Y-14564256D02*
X8835204Y-14516637D01*
X8835204Y-14516637D02*
X8844727Y-14478541D01*
X8844727Y-14478541D02*
X8854251Y-14459494D01*
X8854251Y-14459494D02*
X8863775Y-14449970D01*
X8863775Y-14449970D02*
X8882823Y-14440446D01*
X9073299Y-14440446D02*
X9092346Y-14440446D01*
X9092346Y-14440446D02*
X9111394Y-14449970D01*
X9111394Y-14449970D02*
X9120918Y-14459494D01*
X9120918Y-14459494D02*
X9130442Y-14478541D01*
X9130442Y-14478541D02*
X9139965Y-14516637D01*
X9139965Y-14516637D02*
X9139965Y-14564256D01*
X9139965Y-14564256D02*
X9130442Y-14602351D01*
X9130442Y-14602351D02*
X9120918Y-14621398D01*
X9120918Y-14621398D02*
X9111394Y-14630922D01*
X9111394Y-14630922D02*
X9092346Y-14640446D01*
X9092346Y-14640446D02*
X9073299Y-14640446D01*
X9073299Y-14640446D02*
X9054251Y-14630922D01*
X9054251Y-14630922D02*
X9044727Y-14621398D01*
X9044727Y-14621398D02*
X9035204Y-14602351D01*
X9035204Y-14602351D02*
X9025680Y-14564256D01*
X9025680Y-14564256D02*
X9025680Y-14516637D01*
X9025680Y-14516637D02*
X9035204Y-14478541D01*
X9035204Y-14478541D02*
X9044727Y-14459494D01*
X9044727Y-14459494D02*
X9054251Y-14449970D01*
X9054251Y-14449970D02*
X9073299Y-14440446D01*
X9225680Y-14640446D02*
X9225680Y-14507113D01*
X9225680Y-14526160D02*
X9235204Y-14516637D01*
X9235204Y-14516637D02*
X9254251Y-14507113D01*
X9254251Y-14507113D02*
X9282823Y-14507113D01*
X9282823Y-14507113D02*
X9301870Y-14516637D01*
X9301870Y-14516637D02*
X9311394Y-14535684D01*
X9311394Y-14535684D02*
X9311394Y-14640446D01*
X9311394Y-14535684D02*
X9320918Y-14516637D01*
X9320918Y-14516637D02*
X9339965Y-14507113D01*
X9339965Y-14507113D02*
X9368537Y-14507113D01*
X9368537Y-14507113D02*
X9387585Y-14516637D01*
X9387585Y-14516637D02*
X9397108Y-14535684D01*
X9397108Y-14535684D02*
X9397108Y-14640446D01*
X9492346Y-14640446D02*
X9492346Y-14507113D01*
X9492346Y-14526160D02*
X9501870Y-14516637D01*
X9501870Y-14516637D02*
X9520918Y-14507113D01*
X9520918Y-14507113D02*
X9549489Y-14507113D01*
X9549489Y-14507113D02*
X9568537Y-14516637D01*
X9568537Y-14516637D02*
X9578061Y-14535684D01*
X9578061Y-14535684D02*
X9578061Y-14640446D01*
X9578061Y-14535684D02*
X9587585Y-14516637D01*
X9587585Y-14516637D02*
X9606632Y-14507113D01*
X9606632Y-14507113D02*
X9635204Y-14507113D01*
X9635204Y-14507113D02*
X9654251Y-14516637D01*
X9654251Y-14516637D02*
X9663775Y-14535684D01*
X9663775Y-14535684D02*
X9663775Y-14640446D01*
X10054251Y-14430922D02*
X9882823Y-14688065D01*
X10311394Y-14440446D02*
X10330442Y-14440446D01*
X10330442Y-14440446D02*
X10349489Y-14449970D01*
X10349489Y-14449970D02*
X10359013Y-14459494D01*
X10359013Y-14459494D02*
X10368537Y-14478541D01*
X10368537Y-14478541D02*
X10378061Y-14516637D01*
X10378061Y-14516637D02*
X10378061Y-14564256D01*
X10378061Y-14564256D02*
X10368537Y-14602351D01*
X10368537Y-14602351D02*
X10359013Y-14621398D01*
X10359013Y-14621398D02*
X10349489Y-14630922D01*
X10349489Y-14630922D02*
X10330442Y-14640446D01*
X10330442Y-14640446D02*
X10311394Y-14640446D01*
X10311394Y-14640446D02*
X10292347Y-14630922D01*
X10292347Y-14630922D02*
X10282823Y-14621398D01*
X10282823Y-14621398D02*
X10273299Y-14602351D01*
X10273299Y-14602351D02*
X10263775Y-14564256D01*
X10263775Y-14564256D02*
X10263775Y-14516637D01*
X10263775Y-14516637D02*
X10273299Y-14478541D01*
X10273299Y-14478541D02*
X10282823Y-14459494D01*
X10282823Y-14459494D02*
X10292347Y-14449970D01*
X10292347Y-14449970D02*
X10311394Y-14440446D01*
X10463775Y-14621398D02*
X10473299Y-14630922D01*
X10473299Y-14630922D02*
X10463775Y-14640446D01*
X10463775Y-14640446D02*
X10454251Y-14630922D01*
X10454251Y-14630922D02*
X10463775Y-14621398D01*
X10463775Y-14621398D02*
X10463775Y-14640446D01*
X10597108Y-14440446D02*
X10616156Y-14440446D01*
X10616156Y-14440446D02*
X10635204Y-14449970D01*
X10635204Y-14449970D02*
X10644728Y-14459494D01*
X10644728Y-14459494D02*
X10654251Y-14478541D01*
X10654251Y-14478541D02*
X10663775Y-14516637D01*
X10663775Y-14516637D02*
X10663775Y-14564256D01*
X10663775Y-14564256D02*
X10654251Y-14602351D01*
X10654251Y-14602351D02*
X10644728Y-14621398D01*
X10644728Y-14621398D02*
X10635204Y-14630922D01*
X10635204Y-14630922D02*
X10616156Y-14640446D01*
X10616156Y-14640446D02*
X10597108Y-14640446D01*
X10597108Y-14640446D02*
X10578061Y-14630922D01*
X10578061Y-14630922D02*
X10568537Y-14621398D01*
X10568537Y-14621398D02*
X10559013Y-14602351D01*
X10559013Y-14602351D02*
X10549489Y-14564256D01*
X10549489Y-14564256D02*
X10549489Y-14516637D01*
X10549489Y-14516637D02*
X10559013Y-14478541D01*
X10559013Y-14478541D02*
X10568537Y-14459494D01*
X10568537Y-14459494D02*
X10578061Y-14449970D01*
X10578061Y-14449970D02*
X10597108Y-14440446D01*
X10854251Y-14640446D02*
X10739966Y-14640446D01*
X10797108Y-14640446D02*
X10797108Y-14440446D01*
X10797108Y-14440446D02*
X10778061Y-14469018D01*
X10778061Y-14469018D02*
X10759013Y-14488065D01*
X10759013Y-14488065D02*
X10739966Y-14497589D01*
X11035204Y-14440446D02*
X10939966Y-14440446D01*
X10939966Y-14440446D02*
X10930442Y-14535684D01*
X10930442Y-14535684D02*
X10939966Y-14526160D01*
X10939966Y-14526160D02*
X10959013Y-14516637D01*
X10959013Y-14516637D02*
X11006632Y-14516637D01*
X11006632Y-14516637D02*
X11025680Y-14526160D01*
X11025680Y-14526160D02*
X11035204Y-14535684D01*
X11035204Y-14535684D02*
X11044728Y-14554732D01*
X11044728Y-14554732D02*
X11044728Y-14602351D01*
X11044728Y-14602351D02*
X11035204Y-14621398D01*
X11035204Y-14621398D02*
X11025680Y-14630922D01*
X11025680Y-14630922D02*
X11006632Y-14640446D01*
X11006632Y-14640446D02*
X10959013Y-14640446D01*
X10959013Y-14640446D02*
X10939966Y-14630922D01*
X10939966Y-14630922D02*
X10930442Y-14621398D01*
X11111394Y-14440446D02*
X11244727Y-14440446D01*
X11244727Y-14440446D02*
X11159013Y-14640446D01*
X11311394Y-14440446D02*
X11311394Y-14478541D01*
X11387585Y-14440446D02*
X11387585Y-14478541D01*
X11682823Y-14716637D02*
X11673299Y-14707113D01*
X11673299Y-14707113D02*
X11654251Y-14678541D01*
X11654251Y-14678541D02*
X11644728Y-14659494D01*
X11644728Y-14659494D02*
X11635204Y-14630922D01*
X11635204Y-14630922D02*
X11625680Y-14583303D01*
X11625680Y-14583303D02*
X11625680Y-14545208D01*
X11625680Y-14545208D02*
X11635204Y-14497589D01*
X11635204Y-14497589D02*
X11644728Y-14469018D01*
X11644728Y-14469018D02*
X11654251Y-14449970D01*
X11654251Y-14449970D02*
X11673299Y-14421398D01*
X11673299Y-14421398D02*
X11682823Y-14411875D01*
X11749489Y-14459494D02*
X11759013Y-14449970D01*
X11759013Y-14449970D02*
X11778061Y-14440446D01*
X11778061Y-14440446D02*
X11825680Y-14440446D01*
X11825680Y-14440446D02*
X11844728Y-14449970D01*
X11844728Y-14449970D02*
X11854251Y-14459494D01*
X11854251Y-14459494D02*
X11863775Y-14478541D01*
X11863775Y-14478541D02*
X11863775Y-14497589D01*
X11863775Y-14497589D02*
X11854251Y-14526160D01*
X11854251Y-14526160D02*
X11739966Y-14640446D01*
X11739966Y-14640446D02*
X11863775Y-14640446D01*
X12035204Y-14507113D02*
X12035204Y-14640446D01*
X11987585Y-14430922D02*
X11939966Y-14573779D01*
X11939966Y-14573779D02*
X12063775Y-14573779D01*
X12292347Y-14640446D02*
X12292347Y-14440446D01*
X12378061Y-14640446D02*
X12378061Y-14535684D01*
X12378061Y-14535684D02*
X12368537Y-14516637D01*
X12368537Y-14516637D02*
X12349490Y-14507113D01*
X12349490Y-14507113D02*
X12320918Y-14507113D01*
X12320918Y-14507113D02*
X12301870Y-14516637D01*
X12301870Y-14516637D02*
X12292347Y-14526160D01*
X12501870Y-14640446D02*
X12482823Y-14630922D01*
X12482823Y-14630922D02*
X12473299Y-14621398D01*
X12473299Y-14621398D02*
X12463775Y-14602351D01*
X12463775Y-14602351D02*
X12463775Y-14545208D01*
X12463775Y-14545208D02*
X12473299Y-14526160D01*
X12473299Y-14526160D02*
X12482823Y-14516637D01*
X12482823Y-14516637D02*
X12501870Y-14507113D01*
X12501870Y-14507113D02*
X12530442Y-14507113D01*
X12530442Y-14507113D02*
X12549490Y-14516637D01*
X12549490Y-14516637D02*
X12559013Y-14526160D01*
X12559013Y-14526160D02*
X12568537Y-14545208D01*
X12568537Y-14545208D02*
X12568537Y-14602351D01*
X12568537Y-14602351D02*
X12559013Y-14621398D01*
X12559013Y-14621398D02*
X12549490Y-14630922D01*
X12549490Y-14630922D02*
X12530442Y-14640446D01*
X12530442Y-14640446D02*
X12501870Y-14640446D01*
X12682823Y-14640446D02*
X12663775Y-14630922D01*
X12663775Y-14630922D02*
X12654251Y-14611875D01*
X12654251Y-14611875D02*
X12654251Y-14440446D01*
X12835204Y-14630922D02*
X12816156Y-14640446D01*
X12816156Y-14640446D02*
X12778061Y-14640446D01*
X12778061Y-14640446D02*
X12759013Y-14630922D01*
X12759013Y-14630922D02*
X12749490Y-14611875D01*
X12749490Y-14611875D02*
X12749490Y-14535684D01*
X12749490Y-14535684D02*
X12759013Y-14516637D01*
X12759013Y-14516637D02*
X12778061Y-14507113D01*
X12778061Y-14507113D02*
X12816156Y-14507113D01*
X12816156Y-14507113D02*
X12835204Y-14516637D01*
X12835204Y-14516637D02*
X12844728Y-14535684D01*
X12844728Y-14535684D02*
X12844728Y-14554732D01*
X12844728Y-14554732D02*
X12749490Y-14573779D01*
X12920918Y-14630922D02*
X12939966Y-14640446D01*
X12939966Y-14640446D02*
X12978061Y-14640446D01*
X12978061Y-14640446D02*
X12997109Y-14630922D01*
X12997109Y-14630922D02*
X13006632Y-14611875D01*
X13006632Y-14611875D02*
X13006632Y-14602351D01*
X13006632Y-14602351D02*
X12997109Y-14583303D01*
X12997109Y-14583303D02*
X12978061Y-14573779D01*
X12978061Y-14573779D02*
X12949490Y-14573779D01*
X12949490Y-14573779D02*
X12930442Y-14564256D01*
X12930442Y-14564256D02*
X12920918Y-14545208D01*
X12920918Y-14545208D02*
X12920918Y-14535684D01*
X12920918Y-14535684D02*
X12930442Y-14516637D01*
X12930442Y-14516637D02*
X12949490Y-14507113D01*
X12949490Y-14507113D02*
X12978061Y-14507113D01*
X12978061Y-14507113D02*
X12997109Y-14516637D01*
X13073299Y-14716637D02*
X13082823Y-14707113D01*
X13082823Y-14707113D02*
X13101871Y-14678541D01*
X13101871Y-14678541D02*
X13111394Y-14659494D01*
X13111394Y-14659494D02*
X13120918Y-14630922D01*
X13120918Y-14630922D02*
X13130442Y-14583303D01*
X13130442Y-14583303D02*
X13130442Y-14545208D01*
X13130442Y-14545208D02*
X13120918Y-14497589D01*
X13120918Y-14497589D02*
X13111394Y-14469018D01*
X13111394Y-14469018D02*
X13101871Y-14449970D01*
X13101871Y-14449970D02*
X13082823Y-14421398D01*
X13082823Y-14421398D02*
X13073299Y-14411875D01*
D13*
X8082760Y-14787962D02*
X8082760Y-14837962D01*
X8057760Y-14812962D02*
X8107760Y-14812962D01*
D11*
X8406632Y-14704446D02*
X8425680Y-14704446D01*
X8425680Y-14704446D02*
X8444727Y-14713970D01*
X8444727Y-14713970D02*
X8454251Y-14723494D01*
X8454251Y-14723494D02*
X8463775Y-14742541D01*
X8463775Y-14742541D02*
X8473299Y-14780637D01*
X8473299Y-14780637D02*
X8473299Y-14828256D01*
X8473299Y-14828256D02*
X8463775Y-14866351D01*
X8463775Y-14866351D02*
X8454251Y-14885398D01*
X8454251Y-14885398D02*
X8444727Y-14894922D01*
X8444727Y-14894922D02*
X8425680Y-14904446D01*
X8425680Y-14904446D02*
X8406632Y-14904446D01*
X8406632Y-14904446D02*
X8387584Y-14894922D01*
X8387584Y-14894922D02*
X8378061Y-14885398D01*
X8378061Y-14885398D02*
X8368537Y-14866351D01*
X8368537Y-14866351D02*
X8359013Y-14828256D01*
X8359013Y-14828256D02*
X8359013Y-14780637D01*
X8359013Y-14780637D02*
X8368537Y-14742541D01*
X8368537Y-14742541D02*
X8378061Y-14723494D01*
X8378061Y-14723494D02*
X8387584Y-14713970D01*
X8387584Y-14713970D02*
X8406632Y-14704446D01*
X8559013Y-14885398D02*
X8568537Y-14894922D01*
X8568537Y-14894922D02*
X8559013Y-14904446D01*
X8559013Y-14904446D02*
X8549489Y-14894922D01*
X8549489Y-14894922D02*
X8559013Y-14885398D01*
X8559013Y-14885398D02*
X8559013Y-14904446D01*
X8749489Y-14704446D02*
X8654251Y-14704446D01*
X8654251Y-14704446D02*
X8644727Y-14799684D01*
X8644727Y-14799684D02*
X8654251Y-14790160D01*
X8654251Y-14790160D02*
X8673299Y-14780637D01*
X8673299Y-14780637D02*
X8720918Y-14780637D01*
X8720918Y-14780637D02*
X8739965Y-14790160D01*
X8739965Y-14790160D02*
X8749489Y-14799684D01*
X8749489Y-14799684D02*
X8759013Y-14818732D01*
X8759013Y-14818732D02*
X8759013Y-14866351D01*
X8759013Y-14866351D02*
X8749489Y-14885398D01*
X8749489Y-14885398D02*
X8739965Y-14894922D01*
X8739965Y-14894922D02*
X8720918Y-14904446D01*
X8720918Y-14904446D02*
X8673299Y-14904446D01*
X8673299Y-14904446D02*
X8654251Y-14894922D01*
X8654251Y-14894922D02*
X8644727Y-14885398D01*
X8882823Y-14704446D02*
X8901870Y-14704446D01*
X8901870Y-14704446D02*
X8920918Y-14713970D01*
X8920918Y-14713970D02*
X8930442Y-14723494D01*
X8930442Y-14723494D02*
X8939965Y-14742541D01*
X8939965Y-14742541D02*
X8949489Y-14780637D01*
X8949489Y-14780637D02*
X8949489Y-14828256D01*
X8949489Y-14828256D02*
X8939965Y-14866351D01*
X8939965Y-14866351D02*
X8930442Y-14885398D01*
X8930442Y-14885398D02*
X8920918Y-14894922D01*
X8920918Y-14894922D02*
X8901870Y-14904446D01*
X8901870Y-14904446D02*
X8882823Y-14904446D01*
X8882823Y-14904446D02*
X8863775Y-14894922D01*
X8863775Y-14894922D02*
X8854251Y-14885398D01*
X8854251Y-14885398D02*
X8844727Y-14866351D01*
X8844727Y-14866351D02*
X8835204Y-14828256D01*
X8835204Y-14828256D02*
X8835204Y-14780637D01*
X8835204Y-14780637D02*
X8844727Y-14742541D01*
X8844727Y-14742541D02*
X8854251Y-14723494D01*
X8854251Y-14723494D02*
X8863775Y-14713970D01*
X8863775Y-14713970D02*
X8882823Y-14704446D01*
X9073299Y-14704446D02*
X9092346Y-14704446D01*
X9092346Y-14704446D02*
X9111394Y-14713970D01*
X9111394Y-14713970D02*
X9120918Y-14723494D01*
X9120918Y-14723494D02*
X9130442Y-14742541D01*
X9130442Y-14742541D02*
X9139965Y-14780637D01*
X9139965Y-14780637D02*
X9139965Y-14828256D01*
X9139965Y-14828256D02*
X9130442Y-14866351D01*
X9130442Y-14866351D02*
X9120918Y-14885398D01*
X9120918Y-14885398D02*
X9111394Y-14894922D01*
X9111394Y-14894922D02*
X9092346Y-14904446D01*
X9092346Y-14904446D02*
X9073299Y-14904446D01*
X9073299Y-14904446D02*
X9054251Y-14894922D01*
X9054251Y-14894922D02*
X9044727Y-14885398D01*
X9044727Y-14885398D02*
X9035204Y-14866351D01*
X9035204Y-14866351D02*
X9025680Y-14828256D01*
X9025680Y-14828256D02*
X9025680Y-14780637D01*
X9025680Y-14780637D02*
X9035204Y-14742541D01*
X9035204Y-14742541D02*
X9044727Y-14723494D01*
X9044727Y-14723494D02*
X9054251Y-14713970D01*
X9054251Y-14713970D02*
X9073299Y-14704446D01*
X9225680Y-14904446D02*
X9225680Y-14771113D01*
X9225680Y-14790160D02*
X9235204Y-14780637D01*
X9235204Y-14780637D02*
X9254251Y-14771113D01*
X9254251Y-14771113D02*
X9282823Y-14771113D01*
X9282823Y-14771113D02*
X9301870Y-14780637D01*
X9301870Y-14780637D02*
X9311394Y-14799684D01*
X9311394Y-14799684D02*
X9311394Y-14904446D01*
X9311394Y-14799684D02*
X9320918Y-14780637D01*
X9320918Y-14780637D02*
X9339965Y-14771113D01*
X9339965Y-14771113D02*
X9368537Y-14771113D01*
X9368537Y-14771113D02*
X9387585Y-14780637D01*
X9387585Y-14780637D02*
X9397108Y-14799684D01*
X9397108Y-14799684D02*
X9397108Y-14904446D01*
X9492346Y-14904446D02*
X9492346Y-14771113D01*
X9492346Y-14790160D02*
X9501870Y-14780637D01*
X9501870Y-14780637D02*
X9520918Y-14771113D01*
X9520918Y-14771113D02*
X9549489Y-14771113D01*
X9549489Y-14771113D02*
X9568537Y-14780637D01*
X9568537Y-14780637D02*
X9578061Y-14799684D01*
X9578061Y-14799684D02*
X9578061Y-14904446D01*
X9578061Y-14799684D02*
X9587585Y-14780637D01*
X9587585Y-14780637D02*
X9606632Y-14771113D01*
X9606632Y-14771113D02*
X9635204Y-14771113D01*
X9635204Y-14771113D02*
X9654251Y-14780637D01*
X9654251Y-14780637D02*
X9663775Y-14799684D01*
X9663775Y-14799684D02*
X9663775Y-14904446D01*
X10054251Y-14694922D02*
X9882823Y-14952065D01*
X10311394Y-14704446D02*
X10330442Y-14704446D01*
X10330442Y-14704446D02*
X10349489Y-14713970D01*
X10349489Y-14713970D02*
X10359013Y-14723494D01*
X10359013Y-14723494D02*
X10368537Y-14742541D01*
X10368537Y-14742541D02*
X10378061Y-14780637D01*
X10378061Y-14780637D02*
X10378061Y-14828256D01*
X10378061Y-14828256D02*
X10368537Y-14866351D01*
X10368537Y-14866351D02*
X10359013Y-14885398D01*
X10359013Y-14885398D02*
X10349489Y-14894922D01*
X10349489Y-14894922D02*
X10330442Y-14904446D01*
X10330442Y-14904446D02*
X10311394Y-14904446D01*
X10311394Y-14904446D02*
X10292347Y-14894922D01*
X10292347Y-14894922D02*
X10282823Y-14885398D01*
X10282823Y-14885398D02*
X10273299Y-14866351D01*
X10273299Y-14866351D02*
X10263775Y-14828256D01*
X10263775Y-14828256D02*
X10263775Y-14780637D01*
X10263775Y-14780637D02*
X10273299Y-14742541D01*
X10273299Y-14742541D02*
X10282823Y-14723494D01*
X10282823Y-14723494D02*
X10292347Y-14713970D01*
X10292347Y-14713970D02*
X10311394Y-14704446D01*
X10463775Y-14885398D02*
X10473299Y-14894922D01*
X10473299Y-14894922D02*
X10463775Y-14904446D01*
X10463775Y-14904446D02*
X10454251Y-14894922D01*
X10454251Y-14894922D02*
X10463775Y-14885398D01*
X10463775Y-14885398D02*
X10463775Y-14904446D01*
X10597108Y-14704446D02*
X10616156Y-14704446D01*
X10616156Y-14704446D02*
X10635204Y-14713970D01*
X10635204Y-14713970D02*
X10644728Y-14723494D01*
X10644728Y-14723494D02*
X10654251Y-14742541D01*
X10654251Y-14742541D02*
X10663775Y-14780637D01*
X10663775Y-14780637D02*
X10663775Y-14828256D01*
X10663775Y-14828256D02*
X10654251Y-14866351D01*
X10654251Y-14866351D02*
X10644728Y-14885398D01*
X10644728Y-14885398D02*
X10635204Y-14894922D01*
X10635204Y-14894922D02*
X10616156Y-14904446D01*
X10616156Y-14904446D02*
X10597108Y-14904446D01*
X10597108Y-14904446D02*
X10578061Y-14894922D01*
X10578061Y-14894922D02*
X10568537Y-14885398D01*
X10568537Y-14885398D02*
X10559013Y-14866351D01*
X10559013Y-14866351D02*
X10549489Y-14828256D01*
X10549489Y-14828256D02*
X10549489Y-14780637D01*
X10549489Y-14780637D02*
X10559013Y-14742541D01*
X10559013Y-14742541D02*
X10568537Y-14723494D01*
X10568537Y-14723494D02*
X10578061Y-14713970D01*
X10578061Y-14713970D02*
X10597108Y-14704446D01*
X10854251Y-14904446D02*
X10739966Y-14904446D01*
X10797108Y-14904446D02*
X10797108Y-14704446D01*
X10797108Y-14704446D02*
X10778061Y-14733018D01*
X10778061Y-14733018D02*
X10759013Y-14752065D01*
X10759013Y-14752065D02*
X10739966Y-14761589D01*
X10949489Y-14904446D02*
X10987585Y-14904446D01*
X10987585Y-14904446D02*
X11006632Y-14894922D01*
X11006632Y-14894922D02*
X11016156Y-14885398D01*
X11016156Y-14885398D02*
X11035204Y-14856827D01*
X11035204Y-14856827D02*
X11044728Y-14818732D01*
X11044728Y-14818732D02*
X11044728Y-14742541D01*
X11044728Y-14742541D02*
X11035204Y-14723494D01*
X11035204Y-14723494D02*
X11025680Y-14713970D01*
X11025680Y-14713970D02*
X11006632Y-14704446D01*
X11006632Y-14704446D02*
X10968537Y-14704446D01*
X10968537Y-14704446D02*
X10949489Y-14713970D01*
X10949489Y-14713970D02*
X10939966Y-14723494D01*
X10939966Y-14723494D02*
X10930442Y-14742541D01*
X10930442Y-14742541D02*
X10930442Y-14790160D01*
X10930442Y-14790160D02*
X10939966Y-14809208D01*
X10939966Y-14809208D02*
X10949489Y-14818732D01*
X10949489Y-14818732D02*
X10968537Y-14828256D01*
X10968537Y-14828256D02*
X11006632Y-14828256D01*
X11006632Y-14828256D02*
X11025680Y-14818732D01*
X11025680Y-14818732D02*
X11035204Y-14809208D01*
X11035204Y-14809208D02*
X11044728Y-14790160D01*
X11111394Y-14704446D02*
X11244727Y-14704446D01*
X11244727Y-14704446D02*
X11159013Y-14904446D01*
X11311394Y-14704446D02*
X11311394Y-14742541D01*
X11387585Y-14704446D02*
X11387585Y-14742541D01*
X11682823Y-14980637D02*
X11673299Y-14971113D01*
X11673299Y-14971113D02*
X11654251Y-14942541D01*
X11654251Y-14942541D02*
X11644728Y-14923494D01*
X11644728Y-14923494D02*
X11635204Y-14894922D01*
X11635204Y-14894922D02*
X11625680Y-14847303D01*
X11625680Y-14847303D02*
X11625680Y-14809208D01*
X11625680Y-14809208D02*
X11635204Y-14761589D01*
X11635204Y-14761589D02*
X11644728Y-14733018D01*
X11644728Y-14733018D02*
X11654251Y-14713970D01*
X11654251Y-14713970D02*
X11673299Y-14685398D01*
X11673299Y-14685398D02*
X11682823Y-14675875D01*
X11844728Y-14771113D02*
X11844728Y-14904446D01*
X11797108Y-14694922D02*
X11749489Y-14837779D01*
X11749489Y-14837779D02*
X11873299Y-14837779D01*
X12101870Y-14904446D02*
X12101870Y-14704446D01*
X12187585Y-14904446D02*
X12187585Y-14799684D01*
X12187585Y-14799684D02*
X12178061Y-14780637D01*
X12178061Y-14780637D02*
X12159013Y-14771113D01*
X12159013Y-14771113D02*
X12130442Y-14771113D01*
X12130442Y-14771113D02*
X12111394Y-14780637D01*
X12111394Y-14780637D02*
X12101870Y-14790160D01*
X12311394Y-14904446D02*
X12292347Y-14894922D01*
X12292347Y-14894922D02*
X12282823Y-14885398D01*
X12282823Y-14885398D02*
X12273299Y-14866351D01*
X12273299Y-14866351D02*
X12273299Y-14809208D01*
X12273299Y-14809208D02*
X12282823Y-14790160D01*
X12282823Y-14790160D02*
X12292347Y-14780637D01*
X12292347Y-14780637D02*
X12311394Y-14771113D01*
X12311394Y-14771113D02*
X12339966Y-14771113D01*
X12339966Y-14771113D02*
X12359013Y-14780637D01*
X12359013Y-14780637D02*
X12368537Y-14790160D01*
X12368537Y-14790160D02*
X12378061Y-14809208D01*
X12378061Y-14809208D02*
X12378061Y-14866351D01*
X12378061Y-14866351D02*
X12368537Y-14885398D01*
X12368537Y-14885398D02*
X12359013Y-14894922D01*
X12359013Y-14894922D02*
X12339966Y-14904446D01*
X12339966Y-14904446D02*
X12311394Y-14904446D01*
X12492347Y-14904446D02*
X12473299Y-14894922D01*
X12473299Y-14894922D02*
X12463775Y-14875875D01*
X12463775Y-14875875D02*
X12463775Y-14704446D01*
X12644728Y-14894922D02*
X12625680Y-14904446D01*
X12625680Y-14904446D02*
X12587585Y-14904446D01*
X12587585Y-14904446D02*
X12568537Y-14894922D01*
X12568537Y-14894922D02*
X12559013Y-14875875D01*
X12559013Y-14875875D02*
X12559013Y-14799684D01*
X12559013Y-14799684D02*
X12568537Y-14780637D01*
X12568537Y-14780637D02*
X12587585Y-14771113D01*
X12587585Y-14771113D02*
X12625680Y-14771113D01*
X12625680Y-14771113D02*
X12644728Y-14780637D01*
X12644728Y-14780637D02*
X12654251Y-14799684D01*
X12654251Y-14799684D02*
X12654251Y-14818732D01*
X12654251Y-14818732D02*
X12559013Y-14837779D01*
X12730442Y-14894922D02*
X12749490Y-14904446D01*
X12749490Y-14904446D02*
X12787585Y-14904446D01*
X12787585Y-14904446D02*
X12806632Y-14894922D01*
X12806632Y-14894922D02*
X12816156Y-14875875D01*
X12816156Y-14875875D02*
X12816156Y-14866351D01*
X12816156Y-14866351D02*
X12806632Y-14847303D01*
X12806632Y-14847303D02*
X12787585Y-14837779D01*
X12787585Y-14837779D02*
X12759013Y-14837779D01*
X12759013Y-14837779D02*
X12739966Y-14828256D01*
X12739966Y-14828256D02*
X12730442Y-14809208D01*
X12730442Y-14809208D02*
X12730442Y-14799684D01*
X12730442Y-14799684D02*
X12739966Y-14780637D01*
X12739966Y-14780637D02*
X12759013Y-14771113D01*
X12759013Y-14771113D02*
X12787585Y-14771113D01*
X12787585Y-14771113D02*
X12806632Y-14780637D01*
X13054252Y-14828256D02*
X13206633Y-14828256D01*
X13130442Y-14904446D02*
X13130442Y-14752065D01*
X13539966Y-14771113D02*
X13539966Y-14904446D01*
X13492347Y-14694922D02*
X13444728Y-14837779D01*
X13444728Y-14837779D02*
X13568537Y-14837779D01*
X13787585Y-14894922D02*
X13806633Y-14904446D01*
X13806633Y-14904446D02*
X13844728Y-14904446D01*
X13844728Y-14904446D02*
X13863775Y-14894922D01*
X13863775Y-14894922D02*
X13873299Y-14875875D01*
X13873299Y-14875875D02*
X13873299Y-14866351D01*
X13873299Y-14866351D02*
X13863775Y-14847303D01*
X13863775Y-14847303D02*
X13844728Y-14837779D01*
X13844728Y-14837779D02*
X13816156Y-14837779D01*
X13816156Y-14837779D02*
X13797109Y-14828256D01*
X13797109Y-14828256D02*
X13787585Y-14809208D01*
X13787585Y-14809208D02*
X13787585Y-14799684D01*
X13787585Y-14799684D02*
X13797109Y-14780637D01*
X13797109Y-14780637D02*
X13816156Y-14771113D01*
X13816156Y-14771113D02*
X13844728Y-14771113D01*
X13844728Y-14771113D02*
X13863775Y-14780637D01*
X13987585Y-14904446D02*
X13968537Y-14894922D01*
X13968537Y-14894922D02*
X13959014Y-14875875D01*
X13959014Y-14875875D02*
X13959014Y-14704446D01*
X14092347Y-14904446D02*
X14073299Y-14894922D01*
X14073299Y-14894922D02*
X14063775Y-14885398D01*
X14063775Y-14885398D02*
X14054252Y-14866351D01*
X14054252Y-14866351D02*
X14054252Y-14809208D01*
X14054252Y-14809208D02*
X14063775Y-14790160D01*
X14063775Y-14790160D02*
X14073299Y-14780637D01*
X14073299Y-14780637D02*
X14092347Y-14771113D01*
X14092347Y-14771113D02*
X14120918Y-14771113D01*
X14120918Y-14771113D02*
X14139966Y-14780637D01*
X14139966Y-14780637D02*
X14149490Y-14790160D01*
X14149490Y-14790160D02*
X14159014Y-14809208D01*
X14159014Y-14809208D02*
X14159014Y-14866351D01*
X14159014Y-14866351D02*
X14149490Y-14885398D01*
X14149490Y-14885398D02*
X14139966Y-14894922D01*
X14139966Y-14894922D02*
X14120918Y-14904446D01*
X14120918Y-14904446D02*
X14092347Y-14904446D01*
X14216156Y-14771113D02*
X14292347Y-14771113D01*
X14244728Y-14704446D02*
X14244728Y-14875875D01*
X14244728Y-14875875D02*
X14254252Y-14894922D01*
X14254252Y-14894922D02*
X14273299Y-14904446D01*
X14273299Y-14904446D02*
X14292347Y-14904446D01*
X14349490Y-14894922D02*
X14368537Y-14904446D01*
X14368537Y-14904446D02*
X14406633Y-14904446D01*
X14406633Y-14904446D02*
X14425680Y-14894922D01*
X14425680Y-14894922D02*
X14435204Y-14875875D01*
X14435204Y-14875875D02*
X14435204Y-14866351D01*
X14435204Y-14866351D02*
X14425680Y-14847303D01*
X14425680Y-14847303D02*
X14406633Y-14837779D01*
X14406633Y-14837779D02*
X14378061Y-14837779D01*
X14378061Y-14837779D02*
X14359014Y-14828256D01*
X14359014Y-14828256D02*
X14349490Y-14809208D01*
X14349490Y-14809208D02*
X14349490Y-14799684D01*
X14349490Y-14799684D02*
X14359014Y-14780637D01*
X14359014Y-14780637D02*
X14378061Y-14771113D01*
X14378061Y-14771113D02*
X14406633Y-14771113D01*
X14406633Y-14771113D02*
X14425680Y-14780637D01*
X14501871Y-14980637D02*
X14511395Y-14971113D01*
X14511395Y-14971113D02*
X14530442Y-14942541D01*
X14530442Y-14942541D02*
X14539966Y-14923494D01*
X14539966Y-14923494D02*
X14549490Y-14894922D01*
X14549490Y-14894922D02*
X14559014Y-14847303D01*
X14559014Y-14847303D02*
X14559014Y-14809208D01*
X14559014Y-14809208D02*
X14549490Y-14761589D01*
X14549490Y-14761589D02*
X14539966Y-14733018D01*
X14539966Y-14733018D02*
X14530442Y-14713970D01*
X14530442Y-14713970D02*
X14511395Y-14685398D01*
X14511395Y-14685398D02*
X14501871Y-14675875D01*
D14*
X8096044Y-15105247D02*
X8096044Y-15048678D01*
X8039475Y-15048678D01*
X8039475Y-15105247D01*
X8096044Y-15105247D01*
D11*
X8406632Y-14968446D02*
X8425680Y-14968446D01*
X8425680Y-14968446D02*
X8444727Y-14977970D01*
X8444727Y-14977970D02*
X8454251Y-14987494D01*
X8454251Y-14987494D02*
X8463775Y-15006541D01*
X8463775Y-15006541D02*
X8473299Y-15044637D01*
X8473299Y-15044637D02*
X8473299Y-15092256D01*
X8473299Y-15092256D02*
X8463775Y-15130351D01*
X8463775Y-15130351D02*
X8454251Y-15149398D01*
X8454251Y-15149398D02*
X8444727Y-15158922D01*
X8444727Y-15158922D02*
X8425680Y-15168446D01*
X8425680Y-15168446D02*
X8406632Y-15168446D01*
X8406632Y-15168446D02*
X8387584Y-15158922D01*
X8387584Y-15158922D02*
X8378061Y-15149398D01*
X8378061Y-15149398D02*
X8368537Y-15130351D01*
X8368537Y-15130351D02*
X8359013Y-15092256D01*
X8359013Y-15092256D02*
X8359013Y-15044637D01*
X8359013Y-15044637D02*
X8368537Y-15006541D01*
X8368537Y-15006541D02*
X8378061Y-14987494D01*
X8378061Y-14987494D02*
X8387584Y-14977970D01*
X8387584Y-14977970D02*
X8406632Y-14968446D01*
X8559013Y-15149398D02*
X8568537Y-15158922D01*
X8568537Y-15158922D02*
X8559013Y-15168446D01*
X8559013Y-15168446D02*
X8549489Y-15158922D01*
X8549489Y-15158922D02*
X8559013Y-15149398D01*
X8559013Y-15149398D02*
X8559013Y-15168446D01*
X8682823Y-15054160D02*
X8663775Y-15044637D01*
X8663775Y-15044637D02*
X8654251Y-15035113D01*
X8654251Y-15035113D02*
X8644727Y-15016065D01*
X8644727Y-15016065D02*
X8644727Y-15006541D01*
X8644727Y-15006541D02*
X8654251Y-14987494D01*
X8654251Y-14987494D02*
X8663775Y-14977970D01*
X8663775Y-14977970D02*
X8682823Y-14968446D01*
X8682823Y-14968446D02*
X8720918Y-14968446D01*
X8720918Y-14968446D02*
X8739965Y-14977970D01*
X8739965Y-14977970D02*
X8749489Y-14987494D01*
X8749489Y-14987494D02*
X8759013Y-15006541D01*
X8759013Y-15006541D02*
X8759013Y-15016065D01*
X8759013Y-15016065D02*
X8749489Y-15035113D01*
X8749489Y-15035113D02*
X8739965Y-15044637D01*
X8739965Y-15044637D02*
X8720918Y-15054160D01*
X8720918Y-15054160D02*
X8682823Y-15054160D01*
X8682823Y-15054160D02*
X8663775Y-15063684D01*
X8663775Y-15063684D02*
X8654251Y-15073208D01*
X8654251Y-15073208D02*
X8644727Y-15092256D01*
X8644727Y-15092256D02*
X8644727Y-15130351D01*
X8644727Y-15130351D02*
X8654251Y-15149398D01*
X8654251Y-15149398D02*
X8663775Y-15158922D01*
X8663775Y-15158922D02*
X8682823Y-15168446D01*
X8682823Y-15168446D02*
X8720918Y-15168446D01*
X8720918Y-15168446D02*
X8739965Y-15158922D01*
X8739965Y-15158922D02*
X8749489Y-15149398D01*
X8749489Y-15149398D02*
X8759013Y-15130351D01*
X8759013Y-15130351D02*
X8759013Y-15092256D01*
X8759013Y-15092256D02*
X8749489Y-15073208D01*
X8749489Y-15073208D02*
X8739965Y-15063684D01*
X8739965Y-15063684D02*
X8720918Y-15054160D01*
X8882823Y-14968446D02*
X8901870Y-14968446D01*
X8901870Y-14968446D02*
X8920918Y-14977970D01*
X8920918Y-14977970D02*
X8930442Y-14987494D01*
X8930442Y-14987494D02*
X8939965Y-15006541D01*
X8939965Y-15006541D02*
X8949489Y-15044637D01*
X8949489Y-15044637D02*
X8949489Y-15092256D01*
X8949489Y-15092256D02*
X8939965Y-15130351D01*
X8939965Y-15130351D02*
X8930442Y-15149398D01*
X8930442Y-15149398D02*
X8920918Y-15158922D01*
X8920918Y-15158922D02*
X8901870Y-15168446D01*
X8901870Y-15168446D02*
X8882823Y-15168446D01*
X8882823Y-15168446D02*
X8863775Y-15158922D01*
X8863775Y-15158922D02*
X8854251Y-15149398D01*
X8854251Y-15149398D02*
X8844727Y-15130351D01*
X8844727Y-15130351D02*
X8835204Y-15092256D01*
X8835204Y-15092256D02*
X8835204Y-15044637D01*
X8835204Y-15044637D02*
X8844727Y-15006541D01*
X8844727Y-15006541D02*
X8854251Y-14987494D01*
X8854251Y-14987494D02*
X8863775Y-14977970D01*
X8863775Y-14977970D02*
X8882823Y-14968446D01*
X9073299Y-14968446D02*
X9092346Y-14968446D01*
X9092346Y-14968446D02*
X9111394Y-14977970D01*
X9111394Y-14977970D02*
X9120918Y-14987494D01*
X9120918Y-14987494D02*
X9130442Y-15006541D01*
X9130442Y-15006541D02*
X9139965Y-15044637D01*
X9139965Y-15044637D02*
X9139965Y-15092256D01*
X9139965Y-15092256D02*
X9130442Y-15130351D01*
X9130442Y-15130351D02*
X9120918Y-15149398D01*
X9120918Y-15149398D02*
X9111394Y-15158922D01*
X9111394Y-15158922D02*
X9092346Y-15168446D01*
X9092346Y-15168446D02*
X9073299Y-15168446D01*
X9073299Y-15168446D02*
X9054251Y-15158922D01*
X9054251Y-15158922D02*
X9044727Y-15149398D01*
X9044727Y-15149398D02*
X9035204Y-15130351D01*
X9035204Y-15130351D02*
X9025680Y-15092256D01*
X9025680Y-15092256D02*
X9025680Y-15044637D01*
X9025680Y-15044637D02*
X9035204Y-15006541D01*
X9035204Y-15006541D02*
X9044727Y-14987494D01*
X9044727Y-14987494D02*
X9054251Y-14977970D01*
X9054251Y-14977970D02*
X9073299Y-14968446D01*
X9225680Y-15168446D02*
X9225680Y-15035113D01*
X9225680Y-15054160D02*
X9235204Y-15044637D01*
X9235204Y-15044637D02*
X9254251Y-15035113D01*
X9254251Y-15035113D02*
X9282823Y-15035113D01*
X9282823Y-15035113D02*
X9301870Y-15044637D01*
X9301870Y-15044637D02*
X9311394Y-15063684D01*
X9311394Y-15063684D02*
X9311394Y-15168446D01*
X9311394Y-15063684D02*
X9320918Y-15044637D01*
X9320918Y-15044637D02*
X9339965Y-15035113D01*
X9339965Y-15035113D02*
X9368537Y-15035113D01*
X9368537Y-15035113D02*
X9387585Y-15044637D01*
X9387585Y-15044637D02*
X9397108Y-15063684D01*
X9397108Y-15063684D02*
X9397108Y-15168446D01*
X9492346Y-15168446D02*
X9492346Y-15035113D01*
X9492346Y-15054160D02*
X9501870Y-15044637D01*
X9501870Y-15044637D02*
X9520918Y-15035113D01*
X9520918Y-15035113D02*
X9549489Y-15035113D01*
X9549489Y-15035113D02*
X9568537Y-15044637D01*
X9568537Y-15044637D02*
X9578061Y-15063684D01*
X9578061Y-15063684D02*
X9578061Y-15168446D01*
X9578061Y-15063684D02*
X9587585Y-15044637D01*
X9587585Y-15044637D02*
X9606632Y-15035113D01*
X9606632Y-15035113D02*
X9635204Y-15035113D01*
X9635204Y-15035113D02*
X9654251Y-15044637D01*
X9654251Y-15044637D02*
X9663775Y-15063684D01*
X9663775Y-15063684D02*
X9663775Y-15168446D01*
X10054251Y-14958922D02*
X9882823Y-15216065D01*
X10311394Y-14968446D02*
X10330442Y-14968446D01*
X10330442Y-14968446D02*
X10349489Y-14977970D01*
X10349489Y-14977970D02*
X10359013Y-14987494D01*
X10359013Y-14987494D02*
X10368537Y-15006541D01*
X10368537Y-15006541D02*
X10378061Y-15044637D01*
X10378061Y-15044637D02*
X10378061Y-15092256D01*
X10378061Y-15092256D02*
X10368537Y-15130351D01*
X10368537Y-15130351D02*
X10359013Y-15149398D01*
X10359013Y-15149398D02*
X10349489Y-15158922D01*
X10349489Y-15158922D02*
X10330442Y-15168446D01*
X10330442Y-15168446D02*
X10311394Y-15168446D01*
X10311394Y-15168446D02*
X10292347Y-15158922D01*
X10292347Y-15158922D02*
X10282823Y-15149398D01*
X10282823Y-15149398D02*
X10273299Y-15130351D01*
X10273299Y-15130351D02*
X10263775Y-15092256D01*
X10263775Y-15092256D02*
X10263775Y-15044637D01*
X10263775Y-15044637D02*
X10273299Y-15006541D01*
X10273299Y-15006541D02*
X10282823Y-14987494D01*
X10282823Y-14987494D02*
X10292347Y-14977970D01*
X10292347Y-14977970D02*
X10311394Y-14968446D01*
X10463775Y-15149398D02*
X10473299Y-15158922D01*
X10473299Y-15158922D02*
X10463775Y-15168446D01*
X10463775Y-15168446D02*
X10454251Y-15158922D01*
X10454251Y-15158922D02*
X10463775Y-15149398D01*
X10463775Y-15149398D02*
X10463775Y-15168446D01*
X10597108Y-14968446D02*
X10616156Y-14968446D01*
X10616156Y-14968446D02*
X10635204Y-14977970D01*
X10635204Y-14977970D02*
X10644728Y-14987494D01*
X10644728Y-14987494D02*
X10654251Y-15006541D01*
X10654251Y-15006541D02*
X10663775Y-15044637D01*
X10663775Y-15044637D02*
X10663775Y-15092256D01*
X10663775Y-15092256D02*
X10654251Y-15130351D01*
X10654251Y-15130351D02*
X10644728Y-15149398D01*
X10644728Y-15149398D02*
X10635204Y-15158922D01*
X10635204Y-15158922D02*
X10616156Y-15168446D01*
X10616156Y-15168446D02*
X10597108Y-15168446D01*
X10597108Y-15168446D02*
X10578061Y-15158922D01*
X10578061Y-15158922D02*
X10568537Y-15149398D01*
X10568537Y-15149398D02*
X10559013Y-15130351D01*
X10559013Y-15130351D02*
X10549489Y-15092256D01*
X10549489Y-15092256D02*
X10549489Y-15044637D01*
X10549489Y-15044637D02*
X10559013Y-15006541D01*
X10559013Y-15006541D02*
X10568537Y-14987494D01*
X10568537Y-14987494D02*
X10578061Y-14977970D01*
X10578061Y-14977970D02*
X10597108Y-14968446D01*
X10730442Y-14968446D02*
X10854251Y-14968446D01*
X10854251Y-14968446D02*
X10787585Y-15044637D01*
X10787585Y-15044637D02*
X10816156Y-15044637D01*
X10816156Y-15044637D02*
X10835204Y-15054160D01*
X10835204Y-15054160D02*
X10844728Y-15063684D01*
X10844728Y-15063684D02*
X10854251Y-15082732D01*
X10854251Y-15082732D02*
X10854251Y-15130351D01*
X10854251Y-15130351D02*
X10844728Y-15149398D01*
X10844728Y-15149398D02*
X10835204Y-15158922D01*
X10835204Y-15158922D02*
X10816156Y-15168446D01*
X10816156Y-15168446D02*
X10759013Y-15168446D01*
X10759013Y-15168446D02*
X10739966Y-15158922D01*
X10739966Y-15158922D02*
X10730442Y-15149398D01*
X11044728Y-15168446D02*
X10930442Y-15168446D01*
X10987585Y-15168446D02*
X10987585Y-14968446D01*
X10987585Y-14968446D02*
X10968537Y-14997018D01*
X10968537Y-14997018D02*
X10949489Y-15016065D01*
X10949489Y-15016065D02*
X10930442Y-15025589D01*
X11225680Y-14968446D02*
X11130442Y-14968446D01*
X11130442Y-14968446D02*
X11120918Y-15063684D01*
X11120918Y-15063684D02*
X11130442Y-15054160D01*
X11130442Y-15054160D02*
X11149489Y-15044637D01*
X11149489Y-15044637D02*
X11197108Y-15044637D01*
X11197108Y-15044637D02*
X11216156Y-15054160D01*
X11216156Y-15054160D02*
X11225680Y-15063684D01*
X11225680Y-15063684D02*
X11235204Y-15082732D01*
X11235204Y-15082732D02*
X11235204Y-15130351D01*
X11235204Y-15130351D02*
X11225680Y-15149398D01*
X11225680Y-15149398D02*
X11216156Y-15158922D01*
X11216156Y-15158922D02*
X11197108Y-15168446D01*
X11197108Y-15168446D02*
X11149489Y-15168446D01*
X11149489Y-15168446D02*
X11130442Y-15158922D01*
X11130442Y-15158922D02*
X11120918Y-15149398D01*
X11311394Y-14968446D02*
X11311394Y-15006541D01*
X11387585Y-14968446D02*
X11387585Y-15006541D01*
X11682823Y-15244637D02*
X11673299Y-15235113D01*
X11673299Y-15235113D02*
X11654251Y-15206541D01*
X11654251Y-15206541D02*
X11644728Y-15187494D01*
X11644728Y-15187494D02*
X11635204Y-15158922D01*
X11635204Y-15158922D02*
X11625680Y-15111303D01*
X11625680Y-15111303D02*
X11625680Y-15073208D01*
X11625680Y-15073208D02*
X11635204Y-15025589D01*
X11635204Y-15025589D02*
X11644728Y-14997018D01*
X11644728Y-14997018D02*
X11654251Y-14977970D01*
X11654251Y-14977970D02*
X11673299Y-14949398D01*
X11673299Y-14949398D02*
X11682823Y-14939875D01*
X11749489Y-14987494D02*
X11759013Y-14977970D01*
X11759013Y-14977970D02*
X11778061Y-14968446D01*
X11778061Y-14968446D02*
X11825680Y-14968446D01*
X11825680Y-14968446D02*
X11844728Y-14977970D01*
X11844728Y-14977970D02*
X11854251Y-14987494D01*
X11854251Y-14987494D02*
X11863775Y-15006541D01*
X11863775Y-15006541D02*
X11863775Y-15025589D01*
X11863775Y-15025589D02*
X11854251Y-15054160D01*
X11854251Y-15054160D02*
X11739966Y-15168446D01*
X11739966Y-15168446D02*
X11863775Y-15168446D01*
X12101870Y-15168446D02*
X12101870Y-14968446D01*
X12187585Y-15168446D02*
X12187585Y-15063684D01*
X12187585Y-15063684D02*
X12178061Y-15044637D01*
X12178061Y-15044637D02*
X12159013Y-15035113D01*
X12159013Y-15035113D02*
X12130442Y-15035113D01*
X12130442Y-15035113D02*
X12111394Y-15044637D01*
X12111394Y-15044637D02*
X12101870Y-15054160D01*
X12311394Y-15168446D02*
X12292347Y-15158922D01*
X12292347Y-15158922D02*
X12282823Y-15149398D01*
X12282823Y-15149398D02*
X12273299Y-15130351D01*
X12273299Y-15130351D02*
X12273299Y-15073208D01*
X12273299Y-15073208D02*
X12282823Y-15054160D01*
X12282823Y-15054160D02*
X12292347Y-15044637D01*
X12292347Y-15044637D02*
X12311394Y-15035113D01*
X12311394Y-15035113D02*
X12339966Y-15035113D01*
X12339966Y-15035113D02*
X12359013Y-15044637D01*
X12359013Y-15044637D02*
X12368537Y-15054160D01*
X12368537Y-15054160D02*
X12378061Y-15073208D01*
X12378061Y-15073208D02*
X12378061Y-15130351D01*
X12378061Y-15130351D02*
X12368537Y-15149398D01*
X12368537Y-15149398D02*
X12359013Y-15158922D01*
X12359013Y-15158922D02*
X12339966Y-15168446D01*
X12339966Y-15168446D02*
X12311394Y-15168446D01*
X12492347Y-15168446D02*
X12473299Y-15158922D01*
X12473299Y-15158922D02*
X12463775Y-15139875D01*
X12463775Y-15139875D02*
X12463775Y-14968446D01*
X12644728Y-15158922D02*
X12625680Y-15168446D01*
X12625680Y-15168446D02*
X12587585Y-15168446D01*
X12587585Y-15168446D02*
X12568537Y-15158922D01*
X12568537Y-15158922D02*
X12559013Y-15139875D01*
X12559013Y-15139875D02*
X12559013Y-15063684D01*
X12559013Y-15063684D02*
X12568537Y-15044637D01*
X12568537Y-15044637D02*
X12587585Y-15035113D01*
X12587585Y-15035113D02*
X12625680Y-15035113D01*
X12625680Y-15035113D02*
X12644728Y-15044637D01*
X12644728Y-15044637D02*
X12654251Y-15063684D01*
X12654251Y-15063684D02*
X12654251Y-15082732D01*
X12654251Y-15082732D02*
X12559013Y-15101779D01*
X12730442Y-15158922D02*
X12749490Y-15168446D01*
X12749490Y-15168446D02*
X12787585Y-15168446D01*
X12787585Y-15168446D02*
X12806632Y-15158922D01*
X12806632Y-15158922D02*
X12816156Y-15139875D01*
X12816156Y-15139875D02*
X12816156Y-15130351D01*
X12816156Y-15130351D02*
X12806632Y-15111303D01*
X12806632Y-15111303D02*
X12787585Y-15101779D01*
X12787585Y-15101779D02*
X12759013Y-15101779D01*
X12759013Y-15101779D02*
X12739966Y-15092256D01*
X12739966Y-15092256D02*
X12730442Y-15073208D01*
X12730442Y-15073208D02*
X12730442Y-15063684D01*
X12730442Y-15063684D02*
X12739966Y-15044637D01*
X12739966Y-15044637D02*
X12759013Y-15035113D01*
X12759013Y-15035113D02*
X12787585Y-15035113D01*
X12787585Y-15035113D02*
X12806632Y-15044637D01*
X12882823Y-15244637D02*
X12892347Y-15235113D01*
X12892347Y-15235113D02*
X12911394Y-15206541D01*
X12911394Y-15206541D02*
X12920918Y-15187494D01*
X12920918Y-15187494D02*
X12930442Y-15158922D01*
X12930442Y-15158922D02*
X12939966Y-15111303D01*
X12939966Y-15111303D02*
X12939966Y-15073208D01*
X12939966Y-15073208D02*
X12930442Y-15025589D01*
X12930442Y-15025589D02*
X12920918Y-14997018D01*
X12920918Y-14997018D02*
X12911394Y-14977970D01*
X12911394Y-14977970D02*
X12892347Y-14949398D01*
X12892347Y-14949398D02*
X12882823Y-14939875D01*
D10*
X8057760Y-15390962D02*
X8107760Y-15340962D01*
X8057760Y-15290962D01*
X8007760Y-15340962D01*
X8057760Y-15390962D01*
D11*
X8473299Y-15432446D02*
X8359013Y-15432446D01*
X8416156Y-15432446D02*
X8416156Y-15232446D01*
X8416156Y-15232446D02*
X8397108Y-15261018D01*
X8397108Y-15261018D02*
X8378061Y-15280065D01*
X8378061Y-15280065D02*
X8359013Y-15289589D01*
X8559013Y-15413398D02*
X8568537Y-15422922D01*
X8568537Y-15422922D02*
X8559013Y-15432446D01*
X8559013Y-15432446D02*
X8549489Y-15422922D01*
X8549489Y-15422922D02*
X8559013Y-15413398D01*
X8559013Y-15413398D02*
X8559013Y-15432446D01*
X8692346Y-15232446D02*
X8711394Y-15232446D01*
X8711394Y-15232446D02*
X8730442Y-15241970D01*
X8730442Y-15241970D02*
X8739965Y-15251494D01*
X8739965Y-15251494D02*
X8749489Y-15270541D01*
X8749489Y-15270541D02*
X8759013Y-15308637D01*
X8759013Y-15308637D02*
X8759013Y-15356256D01*
X8759013Y-15356256D02*
X8749489Y-15394351D01*
X8749489Y-15394351D02*
X8739965Y-15413398D01*
X8739965Y-15413398D02*
X8730442Y-15422922D01*
X8730442Y-15422922D02*
X8711394Y-15432446D01*
X8711394Y-15432446D02*
X8692346Y-15432446D01*
X8692346Y-15432446D02*
X8673299Y-15422922D01*
X8673299Y-15422922D02*
X8663775Y-15413398D01*
X8663775Y-15413398D02*
X8654251Y-15394351D01*
X8654251Y-15394351D02*
X8644727Y-15356256D01*
X8644727Y-15356256D02*
X8644727Y-15308637D01*
X8644727Y-15308637D02*
X8654251Y-15270541D01*
X8654251Y-15270541D02*
X8663775Y-15251494D01*
X8663775Y-15251494D02*
X8673299Y-15241970D01*
X8673299Y-15241970D02*
X8692346Y-15232446D01*
X8882823Y-15232446D02*
X8901870Y-15232446D01*
X8901870Y-15232446D02*
X8920918Y-15241970D01*
X8920918Y-15241970D02*
X8930442Y-15251494D01*
X8930442Y-15251494D02*
X8939965Y-15270541D01*
X8939965Y-15270541D02*
X8949489Y-15308637D01*
X8949489Y-15308637D02*
X8949489Y-15356256D01*
X8949489Y-15356256D02*
X8939965Y-15394351D01*
X8939965Y-15394351D02*
X8930442Y-15413398D01*
X8930442Y-15413398D02*
X8920918Y-15422922D01*
X8920918Y-15422922D02*
X8901870Y-15432446D01*
X8901870Y-15432446D02*
X8882823Y-15432446D01*
X8882823Y-15432446D02*
X8863775Y-15422922D01*
X8863775Y-15422922D02*
X8854251Y-15413398D01*
X8854251Y-15413398D02*
X8844727Y-15394351D01*
X8844727Y-15394351D02*
X8835204Y-15356256D01*
X8835204Y-15356256D02*
X8835204Y-15308637D01*
X8835204Y-15308637D02*
X8844727Y-15270541D01*
X8844727Y-15270541D02*
X8854251Y-15251494D01*
X8854251Y-15251494D02*
X8863775Y-15241970D01*
X8863775Y-15241970D02*
X8882823Y-15232446D01*
X9073299Y-15232446D02*
X9092346Y-15232446D01*
X9092346Y-15232446D02*
X9111394Y-15241970D01*
X9111394Y-15241970D02*
X9120918Y-15251494D01*
X9120918Y-15251494D02*
X9130442Y-15270541D01*
X9130442Y-15270541D02*
X9139965Y-15308637D01*
X9139965Y-15308637D02*
X9139965Y-15356256D01*
X9139965Y-15356256D02*
X9130442Y-15394351D01*
X9130442Y-15394351D02*
X9120918Y-15413398D01*
X9120918Y-15413398D02*
X9111394Y-15422922D01*
X9111394Y-15422922D02*
X9092346Y-15432446D01*
X9092346Y-15432446D02*
X9073299Y-15432446D01*
X9073299Y-15432446D02*
X9054251Y-15422922D01*
X9054251Y-15422922D02*
X9044727Y-15413398D01*
X9044727Y-15413398D02*
X9035204Y-15394351D01*
X9035204Y-15394351D02*
X9025680Y-15356256D01*
X9025680Y-15356256D02*
X9025680Y-15308637D01*
X9025680Y-15308637D02*
X9035204Y-15270541D01*
X9035204Y-15270541D02*
X9044727Y-15251494D01*
X9044727Y-15251494D02*
X9054251Y-15241970D01*
X9054251Y-15241970D02*
X9073299Y-15232446D01*
X9225680Y-15432446D02*
X9225680Y-15299113D01*
X9225680Y-15318160D02*
X9235204Y-15308637D01*
X9235204Y-15308637D02*
X9254251Y-15299113D01*
X9254251Y-15299113D02*
X9282823Y-15299113D01*
X9282823Y-15299113D02*
X9301870Y-15308637D01*
X9301870Y-15308637D02*
X9311394Y-15327684D01*
X9311394Y-15327684D02*
X9311394Y-15432446D01*
X9311394Y-15327684D02*
X9320918Y-15308637D01*
X9320918Y-15308637D02*
X9339965Y-15299113D01*
X9339965Y-15299113D02*
X9368537Y-15299113D01*
X9368537Y-15299113D02*
X9387585Y-15308637D01*
X9387585Y-15308637D02*
X9397108Y-15327684D01*
X9397108Y-15327684D02*
X9397108Y-15432446D01*
X9492346Y-15432446D02*
X9492346Y-15299113D01*
X9492346Y-15318160D02*
X9501870Y-15308637D01*
X9501870Y-15308637D02*
X9520918Y-15299113D01*
X9520918Y-15299113D02*
X9549489Y-15299113D01*
X9549489Y-15299113D02*
X9568537Y-15308637D01*
X9568537Y-15308637D02*
X9578061Y-15327684D01*
X9578061Y-15327684D02*
X9578061Y-15432446D01*
X9578061Y-15327684D02*
X9587585Y-15308637D01*
X9587585Y-15308637D02*
X9606632Y-15299113D01*
X9606632Y-15299113D02*
X9635204Y-15299113D01*
X9635204Y-15299113D02*
X9654251Y-15308637D01*
X9654251Y-15308637D02*
X9663775Y-15327684D01*
X9663775Y-15327684D02*
X9663775Y-15432446D01*
X10054251Y-15222922D02*
X9882823Y-15480065D01*
X10311394Y-15232446D02*
X10330442Y-15232446D01*
X10330442Y-15232446D02*
X10349489Y-15241970D01*
X10349489Y-15241970D02*
X10359013Y-15251494D01*
X10359013Y-15251494D02*
X10368537Y-15270541D01*
X10368537Y-15270541D02*
X10378061Y-15308637D01*
X10378061Y-15308637D02*
X10378061Y-15356256D01*
X10378061Y-15356256D02*
X10368537Y-15394351D01*
X10368537Y-15394351D02*
X10359013Y-15413398D01*
X10359013Y-15413398D02*
X10349489Y-15422922D01*
X10349489Y-15422922D02*
X10330442Y-15432446D01*
X10330442Y-15432446D02*
X10311394Y-15432446D01*
X10311394Y-15432446D02*
X10292347Y-15422922D01*
X10292347Y-15422922D02*
X10282823Y-15413398D01*
X10282823Y-15413398D02*
X10273299Y-15394351D01*
X10273299Y-15394351D02*
X10263775Y-15356256D01*
X10263775Y-15356256D02*
X10263775Y-15308637D01*
X10263775Y-15308637D02*
X10273299Y-15270541D01*
X10273299Y-15270541D02*
X10282823Y-15251494D01*
X10282823Y-15251494D02*
X10292347Y-15241970D01*
X10292347Y-15241970D02*
X10311394Y-15232446D01*
X10463775Y-15413398D02*
X10473299Y-15422922D01*
X10473299Y-15422922D02*
X10463775Y-15432446D01*
X10463775Y-15432446D02*
X10454251Y-15422922D01*
X10454251Y-15422922D02*
X10463775Y-15413398D01*
X10463775Y-15413398D02*
X10463775Y-15432446D01*
X10597108Y-15232446D02*
X10616156Y-15232446D01*
X10616156Y-15232446D02*
X10635204Y-15241970D01*
X10635204Y-15241970D02*
X10644728Y-15251494D01*
X10644728Y-15251494D02*
X10654251Y-15270541D01*
X10654251Y-15270541D02*
X10663775Y-15308637D01*
X10663775Y-15308637D02*
X10663775Y-15356256D01*
X10663775Y-15356256D02*
X10654251Y-15394351D01*
X10654251Y-15394351D02*
X10644728Y-15413398D01*
X10644728Y-15413398D02*
X10635204Y-15422922D01*
X10635204Y-15422922D02*
X10616156Y-15432446D01*
X10616156Y-15432446D02*
X10597108Y-15432446D01*
X10597108Y-15432446D02*
X10578061Y-15422922D01*
X10578061Y-15422922D02*
X10568537Y-15413398D01*
X10568537Y-15413398D02*
X10559013Y-15394351D01*
X10559013Y-15394351D02*
X10549489Y-15356256D01*
X10549489Y-15356256D02*
X10549489Y-15308637D01*
X10549489Y-15308637D02*
X10559013Y-15270541D01*
X10559013Y-15270541D02*
X10568537Y-15251494D01*
X10568537Y-15251494D02*
X10578061Y-15241970D01*
X10578061Y-15241970D02*
X10597108Y-15232446D01*
X10730442Y-15232446D02*
X10854251Y-15232446D01*
X10854251Y-15232446D02*
X10787585Y-15308637D01*
X10787585Y-15308637D02*
X10816156Y-15308637D01*
X10816156Y-15308637D02*
X10835204Y-15318160D01*
X10835204Y-15318160D02*
X10844728Y-15327684D01*
X10844728Y-15327684D02*
X10854251Y-15346732D01*
X10854251Y-15346732D02*
X10854251Y-15394351D01*
X10854251Y-15394351D02*
X10844728Y-15413398D01*
X10844728Y-15413398D02*
X10835204Y-15422922D01*
X10835204Y-15422922D02*
X10816156Y-15432446D01*
X10816156Y-15432446D02*
X10759013Y-15432446D01*
X10759013Y-15432446D02*
X10739966Y-15422922D01*
X10739966Y-15422922D02*
X10730442Y-15413398D01*
X10949489Y-15432446D02*
X10987585Y-15432446D01*
X10987585Y-15432446D02*
X11006632Y-15422922D01*
X11006632Y-15422922D02*
X11016156Y-15413398D01*
X11016156Y-15413398D02*
X11035204Y-15384827D01*
X11035204Y-15384827D02*
X11044728Y-15346732D01*
X11044728Y-15346732D02*
X11044728Y-15270541D01*
X11044728Y-15270541D02*
X11035204Y-15251494D01*
X11035204Y-15251494D02*
X11025680Y-15241970D01*
X11025680Y-15241970D02*
X11006632Y-15232446D01*
X11006632Y-15232446D02*
X10968537Y-15232446D01*
X10968537Y-15232446D02*
X10949489Y-15241970D01*
X10949489Y-15241970D02*
X10939966Y-15251494D01*
X10939966Y-15251494D02*
X10930442Y-15270541D01*
X10930442Y-15270541D02*
X10930442Y-15318160D01*
X10930442Y-15318160D02*
X10939966Y-15337208D01*
X10939966Y-15337208D02*
X10949489Y-15346732D01*
X10949489Y-15346732D02*
X10968537Y-15356256D01*
X10968537Y-15356256D02*
X11006632Y-15356256D01*
X11006632Y-15356256D02*
X11025680Y-15346732D01*
X11025680Y-15346732D02*
X11035204Y-15337208D01*
X11035204Y-15337208D02*
X11044728Y-15318160D01*
X11216156Y-15299113D02*
X11216156Y-15432446D01*
X11168537Y-15222922D02*
X11120918Y-15365779D01*
X11120918Y-15365779D02*
X11244727Y-15365779D01*
X11311394Y-15232446D02*
X11311394Y-15270541D01*
X11387585Y-15232446D02*
X11387585Y-15270541D01*
X11682823Y-15508637D02*
X11673299Y-15499113D01*
X11673299Y-15499113D02*
X11654251Y-15470541D01*
X11654251Y-15470541D02*
X11644728Y-15451494D01*
X11644728Y-15451494D02*
X11635204Y-15422922D01*
X11635204Y-15422922D02*
X11625680Y-15375303D01*
X11625680Y-15375303D02*
X11625680Y-15337208D01*
X11625680Y-15337208D02*
X11635204Y-15289589D01*
X11635204Y-15289589D02*
X11644728Y-15261018D01*
X11644728Y-15261018D02*
X11654251Y-15241970D01*
X11654251Y-15241970D02*
X11673299Y-15213398D01*
X11673299Y-15213398D02*
X11682823Y-15203875D01*
X11844728Y-15232446D02*
X11806632Y-15232446D01*
X11806632Y-15232446D02*
X11787585Y-15241970D01*
X11787585Y-15241970D02*
X11778061Y-15251494D01*
X11778061Y-15251494D02*
X11759013Y-15280065D01*
X11759013Y-15280065D02*
X11749489Y-15318160D01*
X11749489Y-15318160D02*
X11749489Y-15394351D01*
X11749489Y-15394351D02*
X11759013Y-15413398D01*
X11759013Y-15413398D02*
X11768537Y-15422922D01*
X11768537Y-15422922D02*
X11787585Y-15432446D01*
X11787585Y-15432446D02*
X11825680Y-15432446D01*
X11825680Y-15432446D02*
X11844728Y-15422922D01*
X11844728Y-15422922D02*
X11854251Y-15413398D01*
X11854251Y-15413398D02*
X11863775Y-15394351D01*
X11863775Y-15394351D02*
X11863775Y-15346732D01*
X11863775Y-15346732D02*
X11854251Y-15327684D01*
X11854251Y-15327684D02*
X11844728Y-15318160D01*
X11844728Y-15318160D02*
X11825680Y-15308637D01*
X11825680Y-15308637D02*
X11787585Y-15308637D01*
X11787585Y-15308637D02*
X11768537Y-15318160D01*
X11768537Y-15318160D02*
X11759013Y-15327684D01*
X11759013Y-15327684D02*
X11749489Y-15346732D01*
X12101870Y-15432446D02*
X12101870Y-15232446D01*
X12187585Y-15432446D02*
X12187585Y-15327684D01*
X12187585Y-15327684D02*
X12178061Y-15308637D01*
X12178061Y-15308637D02*
X12159013Y-15299113D01*
X12159013Y-15299113D02*
X12130442Y-15299113D01*
X12130442Y-15299113D02*
X12111394Y-15308637D01*
X12111394Y-15308637D02*
X12101870Y-15318160D01*
X12311394Y-15432446D02*
X12292347Y-15422922D01*
X12292347Y-15422922D02*
X12282823Y-15413398D01*
X12282823Y-15413398D02*
X12273299Y-15394351D01*
X12273299Y-15394351D02*
X12273299Y-15337208D01*
X12273299Y-15337208D02*
X12282823Y-15318160D01*
X12282823Y-15318160D02*
X12292347Y-15308637D01*
X12292347Y-15308637D02*
X12311394Y-15299113D01*
X12311394Y-15299113D02*
X12339966Y-15299113D01*
X12339966Y-15299113D02*
X12359013Y-15308637D01*
X12359013Y-15308637D02*
X12368537Y-15318160D01*
X12368537Y-15318160D02*
X12378061Y-15337208D01*
X12378061Y-15337208D02*
X12378061Y-15394351D01*
X12378061Y-15394351D02*
X12368537Y-15413398D01*
X12368537Y-15413398D02*
X12359013Y-15422922D01*
X12359013Y-15422922D02*
X12339966Y-15432446D01*
X12339966Y-15432446D02*
X12311394Y-15432446D01*
X12492347Y-15432446D02*
X12473299Y-15422922D01*
X12473299Y-15422922D02*
X12463775Y-15403875D01*
X12463775Y-15403875D02*
X12463775Y-15232446D01*
X12644728Y-15422922D02*
X12625680Y-15432446D01*
X12625680Y-15432446D02*
X12587585Y-15432446D01*
X12587585Y-15432446D02*
X12568537Y-15422922D01*
X12568537Y-15422922D02*
X12559013Y-15403875D01*
X12559013Y-15403875D02*
X12559013Y-15327684D01*
X12559013Y-15327684D02*
X12568537Y-15308637D01*
X12568537Y-15308637D02*
X12587585Y-15299113D01*
X12587585Y-15299113D02*
X12625680Y-15299113D01*
X12625680Y-15299113D02*
X12644728Y-15308637D01*
X12644728Y-15308637D02*
X12654251Y-15327684D01*
X12654251Y-15327684D02*
X12654251Y-15346732D01*
X12654251Y-15346732D02*
X12559013Y-15365779D01*
X12730442Y-15422922D02*
X12749490Y-15432446D01*
X12749490Y-15432446D02*
X12787585Y-15432446D01*
X12787585Y-15432446D02*
X12806632Y-15422922D01*
X12806632Y-15422922D02*
X12816156Y-15403875D01*
X12816156Y-15403875D02*
X12816156Y-15394351D01*
X12816156Y-15394351D02*
X12806632Y-15375303D01*
X12806632Y-15375303D02*
X12787585Y-15365779D01*
X12787585Y-15365779D02*
X12759013Y-15365779D01*
X12759013Y-15365779D02*
X12739966Y-15356256D01*
X12739966Y-15356256D02*
X12730442Y-15337208D01*
X12730442Y-15337208D02*
X12730442Y-15327684D01*
X12730442Y-15327684D02*
X12739966Y-15308637D01*
X12739966Y-15308637D02*
X12759013Y-15299113D01*
X12759013Y-15299113D02*
X12787585Y-15299113D01*
X12787585Y-15299113D02*
X12806632Y-15308637D01*
X12882823Y-15508637D02*
X12892347Y-15499113D01*
X12892347Y-15499113D02*
X12911394Y-15470541D01*
X12911394Y-15470541D02*
X12920918Y-15451494D01*
X12920918Y-15451494D02*
X12930442Y-15422922D01*
X12930442Y-15422922D02*
X12939966Y-15375303D01*
X12939966Y-15375303D02*
X12939966Y-15337208D01*
X12939966Y-15337208D02*
X12930442Y-15289589D01*
X12930442Y-15289589D02*
X12920918Y-15261018D01*
X12920918Y-15261018D02*
X12911394Y-15241970D01*
X12911394Y-15241970D02*
X12892347Y-15213398D01*
X12892347Y-15213398D02*
X12882823Y-15203875D01*
D15*
X8005760Y-15553962D02*
X8107760Y-15655962D01*
X8107760Y-15553962D02*
X8005760Y-15655962D01*
X8107760Y-15604962D02*
G75*
G03*
X8107760Y-15604962I-51000J0D01*
G01*
D11*
X8473299Y-15696446D02*
X8359013Y-15696446D01*
X8416156Y-15696446D02*
X8416156Y-15496446D01*
X8416156Y-15496446D02*
X8397108Y-15525018D01*
X8397108Y-15525018D02*
X8378061Y-15544065D01*
X8378061Y-15544065D02*
X8359013Y-15553589D01*
X8559013Y-15677398D02*
X8568537Y-15686922D01*
X8568537Y-15686922D02*
X8559013Y-15696446D01*
X8559013Y-15696446D02*
X8549489Y-15686922D01*
X8549489Y-15686922D02*
X8559013Y-15677398D01*
X8559013Y-15677398D02*
X8559013Y-15696446D01*
X8692346Y-15496446D02*
X8711394Y-15496446D01*
X8711394Y-15496446D02*
X8730442Y-15505970D01*
X8730442Y-15505970D02*
X8739965Y-15515494D01*
X8739965Y-15515494D02*
X8749489Y-15534541D01*
X8749489Y-15534541D02*
X8759013Y-15572637D01*
X8759013Y-15572637D02*
X8759013Y-15620256D01*
X8759013Y-15620256D02*
X8749489Y-15658351D01*
X8749489Y-15658351D02*
X8739965Y-15677398D01*
X8739965Y-15677398D02*
X8730442Y-15686922D01*
X8730442Y-15686922D02*
X8711394Y-15696446D01*
X8711394Y-15696446D02*
X8692346Y-15696446D01*
X8692346Y-15696446D02*
X8673299Y-15686922D01*
X8673299Y-15686922D02*
X8663775Y-15677398D01*
X8663775Y-15677398D02*
X8654251Y-15658351D01*
X8654251Y-15658351D02*
X8644727Y-15620256D01*
X8644727Y-15620256D02*
X8644727Y-15572637D01*
X8644727Y-15572637D02*
X8654251Y-15534541D01*
X8654251Y-15534541D02*
X8663775Y-15515494D01*
X8663775Y-15515494D02*
X8673299Y-15505970D01*
X8673299Y-15505970D02*
X8692346Y-15496446D01*
X8835204Y-15515494D02*
X8844727Y-15505970D01*
X8844727Y-15505970D02*
X8863775Y-15496446D01*
X8863775Y-15496446D02*
X8911394Y-15496446D01*
X8911394Y-15496446D02*
X8930442Y-15505970D01*
X8930442Y-15505970D02*
X8939965Y-15515494D01*
X8939965Y-15515494D02*
X8949489Y-15534541D01*
X8949489Y-15534541D02*
X8949489Y-15553589D01*
X8949489Y-15553589D02*
X8939965Y-15582160D01*
X8939965Y-15582160D02*
X8825680Y-15696446D01*
X8825680Y-15696446D02*
X8949489Y-15696446D01*
X9073299Y-15496446D02*
X9092346Y-15496446D01*
X9092346Y-15496446D02*
X9111394Y-15505970D01*
X9111394Y-15505970D02*
X9120918Y-15515494D01*
X9120918Y-15515494D02*
X9130442Y-15534541D01*
X9130442Y-15534541D02*
X9139965Y-15572637D01*
X9139965Y-15572637D02*
X9139965Y-15620256D01*
X9139965Y-15620256D02*
X9130442Y-15658351D01*
X9130442Y-15658351D02*
X9120918Y-15677398D01*
X9120918Y-15677398D02*
X9111394Y-15686922D01*
X9111394Y-15686922D02*
X9092346Y-15696446D01*
X9092346Y-15696446D02*
X9073299Y-15696446D01*
X9073299Y-15696446D02*
X9054251Y-15686922D01*
X9054251Y-15686922D02*
X9044727Y-15677398D01*
X9044727Y-15677398D02*
X9035204Y-15658351D01*
X9035204Y-15658351D02*
X9025680Y-15620256D01*
X9025680Y-15620256D02*
X9025680Y-15572637D01*
X9025680Y-15572637D02*
X9035204Y-15534541D01*
X9035204Y-15534541D02*
X9044727Y-15515494D01*
X9044727Y-15515494D02*
X9054251Y-15505970D01*
X9054251Y-15505970D02*
X9073299Y-15496446D01*
X9225680Y-15696446D02*
X9225680Y-15563113D01*
X9225680Y-15582160D02*
X9235204Y-15572637D01*
X9235204Y-15572637D02*
X9254251Y-15563113D01*
X9254251Y-15563113D02*
X9282823Y-15563113D01*
X9282823Y-15563113D02*
X9301870Y-15572637D01*
X9301870Y-15572637D02*
X9311394Y-15591684D01*
X9311394Y-15591684D02*
X9311394Y-15696446D01*
X9311394Y-15591684D02*
X9320918Y-15572637D01*
X9320918Y-15572637D02*
X9339965Y-15563113D01*
X9339965Y-15563113D02*
X9368537Y-15563113D01*
X9368537Y-15563113D02*
X9387585Y-15572637D01*
X9387585Y-15572637D02*
X9397108Y-15591684D01*
X9397108Y-15591684D02*
X9397108Y-15696446D01*
X9492346Y-15696446D02*
X9492346Y-15563113D01*
X9492346Y-15582160D02*
X9501870Y-15572637D01*
X9501870Y-15572637D02*
X9520918Y-15563113D01*
X9520918Y-15563113D02*
X9549489Y-15563113D01*
X9549489Y-15563113D02*
X9568537Y-15572637D01*
X9568537Y-15572637D02*
X9578061Y-15591684D01*
X9578061Y-15591684D02*
X9578061Y-15696446D01*
X9578061Y-15591684D02*
X9587585Y-15572637D01*
X9587585Y-15572637D02*
X9606632Y-15563113D01*
X9606632Y-15563113D02*
X9635204Y-15563113D01*
X9635204Y-15563113D02*
X9654251Y-15572637D01*
X9654251Y-15572637D02*
X9663775Y-15591684D01*
X9663775Y-15591684D02*
X9663775Y-15696446D01*
X10054251Y-15486922D02*
X9882823Y-15744065D01*
X10311394Y-15496446D02*
X10330442Y-15496446D01*
X10330442Y-15496446D02*
X10349489Y-15505970D01*
X10349489Y-15505970D02*
X10359013Y-15515494D01*
X10359013Y-15515494D02*
X10368537Y-15534541D01*
X10368537Y-15534541D02*
X10378061Y-15572637D01*
X10378061Y-15572637D02*
X10378061Y-15620256D01*
X10378061Y-15620256D02*
X10368537Y-15658351D01*
X10368537Y-15658351D02*
X10359013Y-15677398D01*
X10359013Y-15677398D02*
X10349489Y-15686922D01*
X10349489Y-15686922D02*
X10330442Y-15696446D01*
X10330442Y-15696446D02*
X10311394Y-15696446D01*
X10311394Y-15696446D02*
X10292347Y-15686922D01*
X10292347Y-15686922D02*
X10282823Y-15677398D01*
X10282823Y-15677398D02*
X10273299Y-15658351D01*
X10273299Y-15658351D02*
X10263775Y-15620256D01*
X10263775Y-15620256D02*
X10263775Y-15572637D01*
X10263775Y-15572637D02*
X10273299Y-15534541D01*
X10273299Y-15534541D02*
X10282823Y-15515494D01*
X10282823Y-15515494D02*
X10292347Y-15505970D01*
X10292347Y-15505970D02*
X10311394Y-15496446D01*
X10463775Y-15677398D02*
X10473299Y-15686922D01*
X10473299Y-15686922D02*
X10463775Y-15696446D01*
X10463775Y-15696446D02*
X10454251Y-15686922D01*
X10454251Y-15686922D02*
X10463775Y-15677398D01*
X10463775Y-15677398D02*
X10463775Y-15696446D01*
X10597108Y-15496446D02*
X10616156Y-15496446D01*
X10616156Y-15496446D02*
X10635204Y-15505970D01*
X10635204Y-15505970D02*
X10644728Y-15515494D01*
X10644728Y-15515494D02*
X10654251Y-15534541D01*
X10654251Y-15534541D02*
X10663775Y-15572637D01*
X10663775Y-15572637D02*
X10663775Y-15620256D01*
X10663775Y-15620256D02*
X10654251Y-15658351D01*
X10654251Y-15658351D02*
X10644728Y-15677398D01*
X10644728Y-15677398D02*
X10635204Y-15686922D01*
X10635204Y-15686922D02*
X10616156Y-15696446D01*
X10616156Y-15696446D02*
X10597108Y-15696446D01*
X10597108Y-15696446D02*
X10578061Y-15686922D01*
X10578061Y-15686922D02*
X10568537Y-15677398D01*
X10568537Y-15677398D02*
X10559013Y-15658351D01*
X10559013Y-15658351D02*
X10549489Y-15620256D01*
X10549489Y-15620256D02*
X10549489Y-15572637D01*
X10549489Y-15572637D02*
X10559013Y-15534541D01*
X10559013Y-15534541D02*
X10568537Y-15515494D01*
X10568537Y-15515494D02*
X10578061Y-15505970D01*
X10578061Y-15505970D02*
X10597108Y-15496446D01*
X10835204Y-15563113D02*
X10835204Y-15696446D01*
X10787585Y-15486922D02*
X10739966Y-15629779D01*
X10739966Y-15629779D02*
X10863775Y-15629779D01*
X10978061Y-15496446D02*
X10997109Y-15496446D01*
X10997109Y-15496446D02*
X11016156Y-15505970D01*
X11016156Y-15505970D02*
X11025680Y-15515494D01*
X11025680Y-15515494D02*
X11035204Y-15534541D01*
X11035204Y-15534541D02*
X11044728Y-15572637D01*
X11044728Y-15572637D02*
X11044728Y-15620256D01*
X11044728Y-15620256D02*
X11035204Y-15658351D01*
X11035204Y-15658351D02*
X11025680Y-15677398D01*
X11025680Y-15677398D02*
X11016156Y-15686922D01*
X11016156Y-15686922D02*
X10997109Y-15696446D01*
X10997109Y-15696446D02*
X10978061Y-15696446D01*
X10978061Y-15696446D02*
X10959013Y-15686922D01*
X10959013Y-15686922D02*
X10949489Y-15677398D01*
X10949489Y-15677398D02*
X10939966Y-15658351D01*
X10939966Y-15658351D02*
X10930442Y-15620256D01*
X10930442Y-15620256D02*
X10930442Y-15572637D01*
X10930442Y-15572637D02*
X10939966Y-15534541D01*
X10939966Y-15534541D02*
X10949489Y-15515494D01*
X10949489Y-15515494D02*
X10959013Y-15505970D01*
X10959013Y-15505970D02*
X10978061Y-15496446D01*
X11120918Y-15515494D02*
X11130442Y-15505970D01*
X11130442Y-15505970D02*
X11149489Y-15496446D01*
X11149489Y-15496446D02*
X11197108Y-15496446D01*
X11197108Y-15496446D02*
X11216156Y-15505970D01*
X11216156Y-15505970D02*
X11225680Y-15515494D01*
X11225680Y-15515494D02*
X11235204Y-15534541D01*
X11235204Y-15534541D02*
X11235204Y-15553589D01*
X11235204Y-15553589D02*
X11225680Y-15582160D01*
X11225680Y-15582160D02*
X11111394Y-15696446D01*
X11111394Y-15696446D02*
X11235204Y-15696446D01*
X11311394Y-15496446D02*
X11311394Y-15534541D01*
X11387585Y-15496446D02*
X11387585Y-15534541D01*
X11682823Y-15772637D02*
X11673299Y-15763113D01*
X11673299Y-15763113D02*
X11654251Y-15734541D01*
X11654251Y-15734541D02*
X11644728Y-15715494D01*
X11644728Y-15715494D02*
X11635204Y-15686922D01*
X11635204Y-15686922D02*
X11625680Y-15639303D01*
X11625680Y-15639303D02*
X11625680Y-15601208D01*
X11625680Y-15601208D02*
X11635204Y-15553589D01*
X11635204Y-15553589D02*
X11644728Y-15525018D01*
X11644728Y-15525018D02*
X11654251Y-15505970D01*
X11654251Y-15505970D02*
X11673299Y-15477398D01*
X11673299Y-15477398D02*
X11682823Y-15467875D01*
X11768537Y-15696446D02*
X11806632Y-15696446D01*
X11806632Y-15696446D02*
X11825680Y-15686922D01*
X11825680Y-15686922D02*
X11835204Y-15677398D01*
X11835204Y-15677398D02*
X11854251Y-15648827D01*
X11854251Y-15648827D02*
X11863775Y-15610732D01*
X11863775Y-15610732D02*
X11863775Y-15534541D01*
X11863775Y-15534541D02*
X11854251Y-15515494D01*
X11854251Y-15515494D02*
X11844728Y-15505970D01*
X11844728Y-15505970D02*
X11825680Y-15496446D01*
X11825680Y-15496446D02*
X11787585Y-15496446D01*
X11787585Y-15496446D02*
X11768537Y-15505970D01*
X11768537Y-15505970D02*
X11759013Y-15515494D01*
X11759013Y-15515494D02*
X11749489Y-15534541D01*
X11749489Y-15534541D02*
X11749489Y-15582160D01*
X11749489Y-15582160D02*
X11759013Y-15601208D01*
X11759013Y-15601208D02*
X11768537Y-15610732D01*
X11768537Y-15610732D02*
X11787585Y-15620256D01*
X11787585Y-15620256D02*
X11825680Y-15620256D01*
X11825680Y-15620256D02*
X11844728Y-15610732D01*
X11844728Y-15610732D02*
X11854251Y-15601208D01*
X11854251Y-15601208D02*
X11863775Y-15582160D01*
X11939966Y-15515494D02*
X11949489Y-15505970D01*
X11949489Y-15505970D02*
X11968537Y-15496446D01*
X11968537Y-15496446D02*
X12016156Y-15496446D01*
X12016156Y-15496446D02*
X12035204Y-15505970D01*
X12035204Y-15505970D02*
X12044728Y-15515494D01*
X12044728Y-15515494D02*
X12054251Y-15534541D01*
X12054251Y-15534541D02*
X12054251Y-15553589D01*
X12054251Y-15553589D02*
X12044728Y-15582160D01*
X12044728Y-15582160D02*
X11930442Y-15696446D01*
X11930442Y-15696446D02*
X12054251Y-15696446D01*
X12292347Y-15696446D02*
X12292347Y-15496446D01*
X12378061Y-15696446D02*
X12378061Y-15591684D01*
X12378061Y-15591684D02*
X12368537Y-15572637D01*
X12368537Y-15572637D02*
X12349490Y-15563113D01*
X12349490Y-15563113D02*
X12320918Y-15563113D01*
X12320918Y-15563113D02*
X12301870Y-15572637D01*
X12301870Y-15572637D02*
X12292347Y-15582160D01*
X12501870Y-15696446D02*
X12482823Y-15686922D01*
X12482823Y-15686922D02*
X12473299Y-15677398D01*
X12473299Y-15677398D02*
X12463775Y-15658351D01*
X12463775Y-15658351D02*
X12463775Y-15601208D01*
X12463775Y-15601208D02*
X12473299Y-15582160D01*
X12473299Y-15582160D02*
X12482823Y-15572637D01*
X12482823Y-15572637D02*
X12501870Y-15563113D01*
X12501870Y-15563113D02*
X12530442Y-15563113D01*
X12530442Y-15563113D02*
X12549490Y-15572637D01*
X12549490Y-15572637D02*
X12559013Y-15582160D01*
X12559013Y-15582160D02*
X12568537Y-15601208D01*
X12568537Y-15601208D02*
X12568537Y-15658351D01*
X12568537Y-15658351D02*
X12559013Y-15677398D01*
X12559013Y-15677398D02*
X12549490Y-15686922D01*
X12549490Y-15686922D02*
X12530442Y-15696446D01*
X12530442Y-15696446D02*
X12501870Y-15696446D01*
X12682823Y-15696446D02*
X12663775Y-15686922D01*
X12663775Y-15686922D02*
X12654251Y-15667875D01*
X12654251Y-15667875D02*
X12654251Y-15496446D01*
X12835204Y-15686922D02*
X12816156Y-15696446D01*
X12816156Y-15696446D02*
X12778061Y-15696446D01*
X12778061Y-15696446D02*
X12759013Y-15686922D01*
X12759013Y-15686922D02*
X12749490Y-15667875D01*
X12749490Y-15667875D02*
X12749490Y-15591684D01*
X12749490Y-15591684D02*
X12759013Y-15572637D01*
X12759013Y-15572637D02*
X12778061Y-15563113D01*
X12778061Y-15563113D02*
X12816156Y-15563113D01*
X12816156Y-15563113D02*
X12835204Y-15572637D01*
X12835204Y-15572637D02*
X12844728Y-15591684D01*
X12844728Y-15591684D02*
X12844728Y-15610732D01*
X12844728Y-15610732D02*
X12749490Y-15629779D01*
X12920918Y-15686922D02*
X12939966Y-15696446D01*
X12939966Y-15696446D02*
X12978061Y-15696446D01*
X12978061Y-15696446D02*
X12997109Y-15686922D01*
X12997109Y-15686922D02*
X13006632Y-15667875D01*
X13006632Y-15667875D02*
X13006632Y-15658351D01*
X13006632Y-15658351D02*
X12997109Y-15639303D01*
X12997109Y-15639303D02*
X12978061Y-15629779D01*
X12978061Y-15629779D02*
X12949490Y-15629779D01*
X12949490Y-15629779D02*
X12930442Y-15620256D01*
X12930442Y-15620256D02*
X12920918Y-15601208D01*
X12920918Y-15601208D02*
X12920918Y-15591684D01*
X12920918Y-15591684D02*
X12930442Y-15572637D01*
X12930442Y-15572637D02*
X12949490Y-15563113D01*
X12949490Y-15563113D02*
X12978061Y-15563113D01*
X12978061Y-15563113D02*
X12997109Y-15572637D01*
X13073299Y-15772637D02*
X13082823Y-15763113D01*
X13082823Y-15763113D02*
X13101871Y-15734541D01*
X13101871Y-15734541D02*
X13111394Y-15715494D01*
X13111394Y-15715494D02*
X13120918Y-15686922D01*
X13120918Y-15686922D02*
X13130442Y-15639303D01*
X13130442Y-15639303D02*
X13130442Y-15601208D01*
X13130442Y-15601208D02*
X13120918Y-15553589D01*
X13120918Y-15553589D02*
X13111394Y-15525018D01*
X13111394Y-15525018D02*
X13101871Y-15505970D01*
X13101871Y-15505970D02*
X13082823Y-15477398D01*
X13082823Y-15477398D02*
X13073299Y-15467875D01*
X7907760Y-15768962D02*
X8107760Y-15968962D01*
X8107760Y-15768962D02*
X7907760Y-15968962D01*
X8007760Y-15768962D02*
X8007760Y-15968962D01*
X7907760Y-15868962D02*
X8107760Y-15868962D01*
X8359013Y-15779494D02*
X8368537Y-15769970D01*
X8368537Y-15769970D02*
X8387584Y-15760446D01*
X8387584Y-15760446D02*
X8435204Y-15760446D01*
X8435204Y-15760446D02*
X8454251Y-15769970D01*
X8454251Y-15769970D02*
X8463775Y-15779494D01*
X8463775Y-15779494D02*
X8473299Y-15798541D01*
X8473299Y-15798541D02*
X8473299Y-15817589D01*
X8473299Y-15817589D02*
X8463775Y-15846160D01*
X8463775Y-15846160D02*
X8349489Y-15960446D01*
X8349489Y-15960446D02*
X8473299Y-15960446D01*
X8559013Y-15941398D02*
X8568537Y-15950922D01*
X8568537Y-15950922D02*
X8559013Y-15960446D01*
X8559013Y-15960446D02*
X8549489Y-15950922D01*
X8549489Y-15950922D02*
X8559013Y-15941398D01*
X8559013Y-15941398D02*
X8559013Y-15960446D01*
X8635204Y-15760446D02*
X8759013Y-15760446D01*
X8759013Y-15760446D02*
X8692346Y-15836637D01*
X8692346Y-15836637D02*
X8720918Y-15836637D01*
X8720918Y-15836637D02*
X8739965Y-15846160D01*
X8739965Y-15846160D02*
X8749489Y-15855684D01*
X8749489Y-15855684D02*
X8759013Y-15874732D01*
X8759013Y-15874732D02*
X8759013Y-15922351D01*
X8759013Y-15922351D02*
X8749489Y-15941398D01*
X8749489Y-15941398D02*
X8739965Y-15950922D01*
X8739965Y-15950922D02*
X8720918Y-15960446D01*
X8720918Y-15960446D02*
X8663775Y-15960446D01*
X8663775Y-15960446D02*
X8644727Y-15950922D01*
X8644727Y-15950922D02*
X8635204Y-15941398D01*
X8873299Y-15846160D02*
X8854251Y-15836637D01*
X8854251Y-15836637D02*
X8844727Y-15827113D01*
X8844727Y-15827113D02*
X8835204Y-15808065D01*
X8835204Y-15808065D02*
X8835204Y-15798541D01*
X8835204Y-15798541D02*
X8844727Y-15779494D01*
X8844727Y-15779494D02*
X8854251Y-15769970D01*
X8854251Y-15769970D02*
X8873299Y-15760446D01*
X8873299Y-15760446D02*
X8911394Y-15760446D01*
X8911394Y-15760446D02*
X8930442Y-15769970D01*
X8930442Y-15769970D02*
X8939965Y-15779494D01*
X8939965Y-15779494D02*
X8949489Y-15798541D01*
X8949489Y-15798541D02*
X8949489Y-15808065D01*
X8949489Y-15808065D02*
X8939965Y-15827113D01*
X8939965Y-15827113D02*
X8930442Y-15836637D01*
X8930442Y-15836637D02*
X8911394Y-15846160D01*
X8911394Y-15846160D02*
X8873299Y-15846160D01*
X8873299Y-15846160D02*
X8854251Y-15855684D01*
X8854251Y-15855684D02*
X8844727Y-15865208D01*
X8844727Y-15865208D02*
X8835204Y-15884256D01*
X8835204Y-15884256D02*
X8835204Y-15922351D01*
X8835204Y-15922351D02*
X8844727Y-15941398D01*
X8844727Y-15941398D02*
X8854251Y-15950922D01*
X8854251Y-15950922D02*
X8873299Y-15960446D01*
X8873299Y-15960446D02*
X8911394Y-15960446D01*
X8911394Y-15960446D02*
X8930442Y-15950922D01*
X8930442Y-15950922D02*
X8939965Y-15941398D01*
X8939965Y-15941398D02*
X8949489Y-15922351D01*
X8949489Y-15922351D02*
X8949489Y-15884256D01*
X8949489Y-15884256D02*
X8939965Y-15865208D01*
X8939965Y-15865208D02*
X8930442Y-15855684D01*
X8930442Y-15855684D02*
X8911394Y-15846160D01*
X9073299Y-15760446D02*
X9092346Y-15760446D01*
X9092346Y-15760446D02*
X9111394Y-15769970D01*
X9111394Y-15769970D02*
X9120918Y-15779494D01*
X9120918Y-15779494D02*
X9130442Y-15798541D01*
X9130442Y-15798541D02*
X9139965Y-15836637D01*
X9139965Y-15836637D02*
X9139965Y-15884256D01*
X9139965Y-15884256D02*
X9130442Y-15922351D01*
X9130442Y-15922351D02*
X9120918Y-15941398D01*
X9120918Y-15941398D02*
X9111394Y-15950922D01*
X9111394Y-15950922D02*
X9092346Y-15960446D01*
X9092346Y-15960446D02*
X9073299Y-15960446D01*
X9073299Y-15960446D02*
X9054251Y-15950922D01*
X9054251Y-15950922D02*
X9044727Y-15941398D01*
X9044727Y-15941398D02*
X9035204Y-15922351D01*
X9035204Y-15922351D02*
X9025680Y-15884256D01*
X9025680Y-15884256D02*
X9025680Y-15836637D01*
X9025680Y-15836637D02*
X9035204Y-15798541D01*
X9035204Y-15798541D02*
X9044727Y-15779494D01*
X9044727Y-15779494D02*
X9054251Y-15769970D01*
X9054251Y-15769970D02*
X9073299Y-15760446D01*
X9225680Y-15960446D02*
X9225680Y-15827113D01*
X9225680Y-15846160D02*
X9235204Y-15836637D01*
X9235204Y-15836637D02*
X9254251Y-15827113D01*
X9254251Y-15827113D02*
X9282823Y-15827113D01*
X9282823Y-15827113D02*
X9301870Y-15836637D01*
X9301870Y-15836637D02*
X9311394Y-15855684D01*
X9311394Y-15855684D02*
X9311394Y-15960446D01*
X9311394Y-15855684D02*
X9320918Y-15836637D01*
X9320918Y-15836637D02*
X9339965Y-15827113D01*
X9339965Y-15827113D02*
X9368537Y-15827113D01*
X9368537Y-15827113D02*
X9387585Y-15836637D01*
X9387585Y-15836637D02*
X9397108Y-15855684D01*
X9397108Y-15855684D02*
X9397108Y-15960446D01*
X9492346Y-15960446D02*
X9492346Y-15827113D01*
X9492346Y-15846160D02*
X9501870Y-15836637D01*
X9501870Y-15836637D02*
X9520918Y-15827113D01*
X9520918Y-15827113D02*
X9549489Y-15827113D01*
X9549489Y-15827113D02*
X9568537Y-15836637D01*
X9568537Y-15836637D02*
X9578061Y-15855684D01*
X9578061Y-15855684D02*
X9578061Y-15960446D01*
X9578061Y-15855684D02*
X9587585Y-15836637D01*
X9587585Y-15836637D02*
X9606632Y-15827113D01*
X9606632Y-15827113D02*
X9635204Y-15827113D01*
X9635204Y-15827113D02*
X9654251Y-15836637D01*
X9654251Y-15836637D02*
X9663775Y-15855684D01*
X9663775Y-15855684D02*
X9663775Y-15960446D01*
X10054251Y-15750922D02*
X9882823Y-16008065D01*
X10311394Y-15760446D02*
X10330442Y-15760446D01*
X10330442Y-15760446D02*
X10349489Y-15769970D01*
X10349489Y-15769970D02*
X10359013Y-15779494D01*
X10359013Y-15779494D02*
X10368537Y-15798541D01*
X10368537Y-15798541D02*
X10378061Y-15836637D01*
X10378061Y-15836637D02*
X10378061Y-15884256D01*
X10378061Y-15884256D02*
X10368537Y-15922351D01*
X10368537Y-15922351D02*
X10359013Y-15941398D01*
X10359013Y-15941398D02*
X10349489Y-15950922D01*
X10349489Y-15950922D02*
X10330442Y-15960446D01*
X10330442Y-15960446D02*
X10311394Y-15960446D01*
X10311394Y-15960446D02*
X10292347Y-15950922D01*
X10292347Y-15950922D02*
X10282823Y-15941398D01*
X10282823Y-15941398D02*
X10273299Y-15922351D01*
X10273299Y-15922351D02*
X10263775Y-15884256D01*
X10263775Y-15884256D02*
X10263775Y-15836637D01*
X10263775Y-15836637D02*
X10273299Y-15798541D01*
X10273299Y-15798541D02*
X10282823Y-15779494D01*
X10282823Y-15779494D02*
X10292347Y-15769970D01*
X10292347Y-15769970D02*
X10311394Y-15760446D01*
X10463775Y-15941398D02*
X10473299Y-15950922D01*
X10473299Y-15950922D02*
X10463775Y-15960446D01*
X10463775Y-15960446D02*
X10454251Y-15950922D01*
X10454251Y-15950922D02*
X10463775Y-15941398D01*
X10463775Y-15941398D02*
X10463775Y-15960446D01*
X10597108Y-15760446D02*
X10616156Y-15760446D01*
X10616156Y-15760446D02*
X10635204Y-15769970D01*
X10635204Y-15769970D02*
X10644728Y-15779494D01*
X10644728Y-15779494D02*
X10654251Y-15798541D01*
X10654251Y-15798541D02*
X10663775Y-15836637D01*
X10663775Y-15836637D02*
X10663775Y-15884256D01*
X10663775Y-15884256D02*
X10654251Y-15922351D01*
X10654251Y-15922351D02*
X10644728Y-15941398D01*
X10644728Y-15941398D02*
X10635204Y-15950922D01*
X10635204Y-15950922D02*
X10616156Y-15960446D01*
X10616156Y-15960446D02*
X10597108Y-15960446D01*
X10597108Y-15960446D02*
X10578061Y-15950922D01*
X10578061Y-15950922D02*
X10568537Y-15941398D01*
X10568537Y-15941398D02*
X10559013Y-15922351D01*
X10559013Y-15922351D02*
X10549489Y-15884256D01*
X10549489Y-15884256D02*
X10549489Y-15836637D01*
X10549489Y-15836637D02*
X10559013Y-15798541D01*
X10559013Y-15798541D02*
X10568537Y-15779494D01*
X10568537Y-15779494D02*
X10578061Y-15769970D01*
X10578061Y-15769970D02*
X10597108Y-15760446D01*
X10759013Y-15960446D02*
X10797108Y-15960446D01*
X10797108Y-15960446D02*
X10816156Y-15950922D01*
X10816156Y-15950922D02*
X10825680Y-15941398D01*
X10825680Y-15941398D02*
X10844728Y-15912827D01*
X10844728Y-15912827D02*
X10854251Y-15874732D01*
X10854251Y-15874732D02*
X10854251Y-15798541D01*
X10854251Y-15798541D02*
X10844728Y-15779494D01*
X10844728Y-15779494D02*
X10835204Y-15769970D01*
X10835204Y-15769970D02*
X10816156Y-15760446D01*
X10816156Y-15760446D02*
X10778061Y-15760446D01*
X10778061Y-15760446D02*
X10759013Y-15769970D01*
X10759013Y-15769970D02*
X10749489Y-15779494D01*
X10749489Y-15779494D02*
X10739966Y-15798541D01*
X10739966Y-15798541D02*
X10739966Y-15846160D01*
X10739966Y-15846160D02*
X10749489Y-15865208D01*
X10749489Y-15865208D02*
X10759013Y-15874732D01*
X10759013Y-15874732D02*
X10778061Y-15884256D01*
X10778061Y-15884256D02*
X10816156Y-15884256D01*
X10816156Y-15884256D02*
X10835204Y-15874732D01*
X10835204Y-15874732D02*
X10844728Y-15865208D01*
X10844728Y-15865208D02*
X10854251Y-15846160D01*
X10920918Y-15760446D02*
X11044728Y-15760446D01*
X11044728Y-15760446D02*
X10978061Y-15836637D01*
X10978061Y-15836637D02*
X11006632Y-15836637D01*
X11006632Y-15836637D02*
X11025680Y-15846160D01*
X11025680Y-15846160D02*
X11035204Y-15855684D01*
X11035204Y-15855684D02*
X11044728Y-15874732D01*
X11044728Y-15874732D02*
X11044728Y-15922351D01*
X11044728Y-15922351D02*
X11035204Y-15941398D01*
X11035204Y-15941398D02*
X11025680Y-15950922D01*
X11025680Y-15950922D02*
X11006632Y-15960446D01*
X11006632Y-15960446D02*
X10949489Y-15960446D01*
X10949489Y-15960446D02*
X10930442Y-15950922D01*
X10930442Y-15950922D02*
X10920918Y-15941398D01*
X11111394Y-15760446D02*
X11244727Y-15760446D01*
X11244727Y-15760446D02*
X11159013Y-15960446D01*
X11311394Y-15760446D02*
X11311394Y-15798541D01*
X11387585Y-15760446D02*
X11387585Y-15798541D01*
X11682823Y-16036637D02*
X11673299Y-16027113D01*
X11673299Y-16027113D02*
X11654251Y-15998541D01*
X11654251Y-15998541D02*
X11644728Y-15979494D01*
X11644728Y-15979494D02*
X11635204Y-15950922D01*
X11635204Y-15950922D02*
X11625680Y-15903303D01*
X11625680Y-15903303D02*
X11625680Y-15865208D01*
X11625680Y-15865208D02*
X11635204Y-15817589D01*
X11635204Y-15817589D02*
X11644728Y-15789018D01*
X11644728Y-15789018D02*
X11654251Y-15769970D01*
X11654251Y-15769970D02*
X11673299Y-15741398D01*
X11673299Y-15741398D02*
X11682823Y-15731875D01*
X11749489Y-15779494D02*
X11759013Y-15769970D01*
X11759013Y-15769970D02*
X11778061Y-15760446D01*
X11778061Y-15760446D02*
X11825680Y-15760446D01*
X11825680Y-15760446D02*
X11844728Y-15769970D01*
X11844728Y-15769970D02*
X11854251Y-15779494D01*
X11854251Y-15779494D02*
X11863775Y-15798541D01*
X11863775Y-15798541D02*
X11863775Y-15817589D01*
X11863775Y-15817589D02*
X11854251Y-15846160D01*
X11854251Y-15846160D02*
X11739966Y-15960446D01*
X11739966Y-15960446D02*
X11863775Y-15960446D01*
X12101870Y-15960446D02*
X12101870Y-15760446D01*
X12187585Y-15960446D02*
X12187585Y-15855684D01*
X12187585Y-15855684D02*
X12178061Y-15836637D01*
X12178061Y-15836637D02*
X12159013Y-15827113D01*
X12159013Y-15827113D02*
X12130442Y-15827113D01*
X12130442Y-15827113D02*
X12111394Y-15836637D01*
X12111394Y-15836637D02*
X12101870Y-15846160D01*
X12311394Y-15960446D02*
X12292347Y-15950922D01*
X12292347Y-15950922D02*
X12282823Y-15941398D01*
X12282823Y-15941398D02*
X12273299Y-15922351D01*
X12273299Y-15922351D02*
X12273299Y-15865208D01*
X12273299Y-15865208D02*
X12282823Y-15846160D01*
X12282823Y-15846160D02*
X12292347Y-15836637D01*
X12292347Y-15836637D02*
X12311394Y-15827113D01*
X12311394Y-15827113D02*
X12339966Y-15827113D01*
X12339966Y-15827113D02*
X12359013Y-15836637D01*
X12359013Y-15836637D02*
X12368537Y-15846160D01*
X12368537Y-15846160D02*
X12378061Y-15865208D01*
X12378061Y-15865208D02*
X12378061Y-15922351D01*
X12378061Y-15922351D02*
X12368537Y-15941398D01*
X12368537Y-15941398D02*
X12359013Y-15950922D01*
X12359013Y-15950922D02*
X12339966Y-15960446D01*
X12339966Y-15960446D02*
X12311394Y-15960446D01*
X12492347Y-15960446D02*
X12473299Y-15950922D01*
X12473299Y-15950922D02*
X12463775Y-15931875D01*
X12463775Y-15931875D02*
X12463775Y-15760446D01*
X12644728Y-15950922D02*
X12625680Y-15960446D01*
X12625680Y-15960446D02*
X12587585Y-15960446D01*
X12587585Y-15960446D02*
X12568537Y-15950922D01*
X12568537Y-15950922D02*
X12559013Y-15931875D01*
X12559013Y-15931875D02*
X12559013Y-15855684D01*
X12559013Y-15855684D02*
X12568537Y-15836637D01*
X12568537Y-15836637D02*
X12587585Y-15827113D01*
X12587585Y-15827113D02*
X12625680Y-15827113D01*
X12625680Y-15827113D02*
X12644728Y-15836637D01*
X12644728Y-15836637D02*
X12654251Y-15855684D01*
X12654251Y-15855684D02*
X12654251Y-15874732D01*
X12654251Y-15874732D02*
X12559013Y-15893779D01*
X12730442Y-15950922D02*
X12749490Y-15960446D01*
X12749490Y-15960446D02*
X12787585Y-15960446D01*
X12787585Y-15960446D02*
X12806632Y-15950922D01*
X12806632Y-15950922D02*
X12816156Y-15931875D01*
X12816156Y-15931875D02*
X12816156Y-15922351D01*
X12816156Y-15922351D02*
X12806632Y-15903303D01*
X12806632Y-15903303D02*
X12787585Y-15893779D01*
X12787585Y-15893779D02*
X12759013Y-15893779D01*
X12759013Y-15893779D02*
X12739966Y-15884256D01*
X12739966Y-15884256D02*
X12730442Y-15865208D01*
X12730442Y-15865208D02*
X12730442Y-15855684D01*
X12730442Y-15855684D02*
X12739966Y-15836637D01*
X12739966Y-15836637D02*
X12759013Y-15827113D01*
X12759013Y-15827113D02*
X12787585Y-15827113D01*
X12787585Y-15827113D02*
X12806632Y-15836637D01*
X12882823Y-16036637D02*
X12892347Y-16027113D01*
X12892347Y-16027113D02*
X12911394Y-15998541D01*
X12911394Y-15998541D02*
X12920918Y-15979494D01*
X12920918Y-15979494D02*
X12930442Y-15950922D01*
X12930442Y-15950922D02*
X12939966Y-15903303D01*
X12939966Y-15903303D02*
X12939966Y-15865208D01*
X12939966Y-15865208D02*
X12930442Y-15817589D01*
X12930442Y-15817589D02*
X12920918Y-15789018D01*
X12920918Y-15789018D02*
X12911394Y-15769970D01*
X12911394Y-15769970D02*
X12892347Y-15741398D01*
X12892347Y-15741398D02*
X12882823Y-15731875D01*
M02*
