%TF.GenerationSoftware,KiCad,Pcbnew,7.0.7*%
%TF.CreationDate,2024-11-27T13:26:37-08:00*%
%TF.ProjectId,OuterBoard_rev2.1,4f757465-7242-46f6-9172-645f72657632,rev?*%
%TF.SameCoordinates,Original*%
%TF.FileFunction,Legend,Bot*%
%TF.FilePolarity,Positive*%
%FSLAX46Y46*%
G04 Gerber Fmt 4.6, Leading zero omitted, Abs format (unit mm)*
G04 Created by KiCad (PCBNEW 7.0.7) date 2024-11-27 13:26:37*
%MOMM*%
%LPD*%
G01*
G04 APERTURE LIST*
%ADD10C,0.300000*%
%ADD11C,0.508000*%
G04 APERTURE END LIST*
D10*
X177215317Y-122813800D02*
X177001032Y-122885228D01*
X177001032Y-122885228D02*
X176643889Y-122885228D01*
X176643889Y-122885228D02*
X176501032Y-122813800D01*
X176501032Y-122813800D02*
X176429603Y-122742371D01*
X176429603Y-122742371D02*
X176358174Y-122599514D01*
X176358174Y-122599514D02*
X176358174Y-122456657D01*
X176358174Y-122456657D02*
X176429603Y-122313800D01*
X176429603Y-122313800D02*
X176501032Y-122242371D01*
X176501032Y-122242371D02*
X176643889Y-122170942D01*
X176643889Y-122170942D02*
X176929603Y-122099514D01*
X176929603Y-122099514D02*
X177072460Y-122028085D01*
X177072460Y-122028085D02*
X177143889Y-121956657D01*
X177143889Y-121956657D02*
X177215317Y-121813800D01*
X177215317Y-121813800D02*
X177215317Y-121670942D01*
X177215317Y-121670942D02*
X177143889Y-121528085D01*
X177143889Y-121528085D02*
X177072460Y-121456657D01*
X177072460Y-121456657D02*
X176929603Y-121385228D01*
X176929603Y-121385228D02*
X176572460Y-121385228D01*
X176572460Y-121385228D02*
X176358174Y-121456657D01*
X175143889Y-122813800D02*
X175286746Y-122885228D01*
X175286746Y-122885228D02*
X175572461Y-122885228D01*
X175572461Y-122885228D02*
X175715318Y-122813800D01*
X175715318Y-122813800D02*
X175786746Y-122670942D01*
X175786746Y-122670942D02*
X175786746Y-122099514D01*
X175786746Y-122099514D02*
X175715318Y-121956657D01*
X175715318Y-121956657D02*
X175572461Y-121885228D01*
X175572461Y-121885228D02*
X175286746Y-121885228D01*
X175286746Y-121885228D02*
X175143889Y-121956657D01*
X175143889Y-121956657D02*
X175072461Y-122099514D01*
X175072461Y-122099514D02*
X175072461Y-122242371D01*
X175072461Y-122242371D02*
X175786746Y-122385228D01*
X174429604Y-121885228D02*
X174429604Y-122885228D01*
X174429604Y-122028085D02*
X174358175Y-121956657D01*
X174358175Y-121956657D02*
X174215318Y-121885228D01*
X174215318Y-121885228D02*
X174001032Y-121885228D01*
X174001032Y-121885228D02*
X173858175Y-121956657D01*
X173858175Y-121956657D02*
X173786747Y-122099514D01*
X173786747Y-122099514D02*
X173786747Y-122885228D01*
X173143889Y-122813800D02*
X173001032Y-122885228D01*
X173001032Y-122885228D02*
X172715318Y-122885228D01*
X172715318Y-122885228D02*
X172572461Y-122813800D01*
X172572461Y-122813800D02*
X172501032Y-122670942D01*
X172501032Y-122670942D02*
X172501032Y-122599514D01*
X172501032Y-122599514D02*
X172572461Y-122456657D01*
X172572461Y-122456657D02*
X172715318Y-122385228D01*
X172715318Y-122385228D02*
X172929604Y-122385228D01*
X172929604Y-122385228D02*
X173072461Y-122313800D01*
X173072461Y-122313800D02*
X173143889Y-122170942D01*
X173143889Y-122170942D02*
X173143889Y-122099514D01*
X173143889Y-122099514D02*
X173072461Y-121956657D01*
X173072461Y-121956657D02*
X172929604Y-121885228D01*
X172929604Y-121885228D02*
X172715318Y-121885228D01*
X172715318Y-121885228D02*
X172572461Y-121956657D01*
X171286746Y-122813800D02*
X171429603Y-122885228D01*
X171429603Y-122885228D02*
X171715318Y-122885228D01*
X171715318Y-122885228D02*
X171858175Y-122813800D01*
X171858175Y-122813800D02*
X171929603Y-122670942D01*
X171929603Y-122670942D02*
X171929603Y-122099514D01*
X171929603Y-122099514D02*
X171858175Y-121956657D01*
X171858175Y-121956657D02*
X171715318Y-121885228D01*
X171715318Y-121885228D02*
X171429603Y-121885228D01*
X171429603Y-121885228D02*
X171286746Y-121956657D01*
X171286746Y-121956657D02*
X171215318Y-122099514D01*
X171215318Y-122099514D02*
X171215318Y-122242371D01*
X171215318Y-122242371D02*
X171929603Y-122385228D01*
X170572461Y-122885228D02*
X170572461Y-121385228D01*
X170572461Y-121385228D02*
X170215318Y-121385228D01*
X170215318Y-121385228D02*
X170001032Y-121456657D01*
X170001032Y-121456657D02*
X169858175Y-121599514D01*
X169858175Y-121599514D02*
X169786746Y-121742371D01*
X169786746Y-121742371D02*
X169715318Y-122028085D01*
X169715318Y-122028085D02*
X169715318Y-122242371D01*
X169715318Y-122242371D02*
X169786746Y-122528085D01*
X169786746Y-122528085D02*
X169858175Y-122670942D01*
X169858175Y-122670942D02*
X170001032Y-122813800D01*
X170001032Y-122813800D02*
X170215318Y-122885228D01*
X170215318Y-122885228D02*
X170572461Y-122885228D01*
X168501032Y-122813800D02*
X168643889Y-122885228D01*
X168643889Y-122885228D02*
X168929604Y-122885228D01*
X168929604Y-122885228D02*
X169072461Y-122813800D01*
X169072461Y-122813800D02*
X169143889Y-122670942D01*
X169143889Y-122670942D02*
X169143889Y-122099514D01*
X169143889Y-122099514D02*
X169072461Y-121956657D01*
X169072461Y-121956657D02*
X168929604Y-121885228D01*
X168929604Y-121885228D02*
X168643889Y-121885228D01*
X168643889Y-121885228D02*
X168501032Y-121956657D01*
X168501032Y-121956657D02*
X168429604Y-122099514D01*
X168429604Y-122099514D02*
X168429604Y-122242371D01*
X168429604Y-122242371D02*
X169143889Y-122385228D01*
X167929604Y-121885228D02*
X167572461Y-122885228D01*
X167572461Y-122885228D02*
X167215318Y-121885228D01*
X165001033Y-122099514D02*
X164786747Y-122170942D01*
X164786747Y-122170942D02*
X164715318Y-122242371D01*
X164715318Y-122242371D02*
X164643890Y-122385228D01*
X164643890Y-122385228D02*
X164643890Y-122599514D01*
X164643890Y-122599514D02*
X164715318Y-122742371D01*
X164715318Y-122742371D02*
X164786747Y-122813800D01*
X164786747Y-122813800D02*
X164929604Y-122885228D01*
X164929604Y-122885228D02*
X165501033Y-122885228D01*
X165501033Y-122885228D02*
X165501033Y-121385228D01*
X165501033Y-121385228D02*
X165001033Y-121385228D01*
X165001033Y-121385228D02*
X164858176Y-121456657D01*
X164858176Y-121456657D02*
X164786747Y-121528085D01*
X164786747Y-121528085D02*
X164715318Y-121670942D01*
X164715318Y-121670942D02*
X164715318Y-121813800D01*
X164715318Y-121813800D02*
X164786747Y-121956657D01*
X164786747Y-121956657D02*
X164858176Y-122028085D01*
X164858176Y-122028085D02*
X165001033Y-122099514D01*
X165001033Y-122099514D02*
X165501033Y-122099514D01*
X163786747Y-122885228D02*
X163929604Y-122813800D01*
X163929604Y-122813800D02*
X164001033Y-122742371D01*
X164001033Y-122742371D02*
X164072461Y-122599514D01*
X164072461Y-122599514D02*
X164072461Y-122170942D01*
X164072461Y-122170942D02*
X164001033Y-122028085D01*
X164001033Y-122028085D02*
X163929604Y-121956657D01*
X163929604Y-121956657D02*
X163786747Y-121885228D01*
X163786747Y-121885228D02*
X163572461Y-121885228D01*
X163572461Y-121885228D02*
X163429604Y-121956657D01*
X163429604Y-121956657D02*
X163358176Y-122028085D01*
X163358176Y-122028085D02*
X163286747Y-122170942D01*
X163286747Y-122170942D02*
X163286747Y-122599514D01*
X163286747Y-122599514D02*
X163358176Y-122742371D01*
X163358176Y-122742371D02*
X163429604Y-122813800D01*
X163429604Y-122813800D02*
X163572461Y-122885228D01*
X163572461Y-122885228D02*
X163786747Y-122885228D01*
X162001033Y-122885228D02*
X162001033Y-122099514D01*
X162001033Y-122099514D02*
X162072461Y-121956657D01*
X162072461Y-121956657D02*
X162215318Y-121885228D01*
X162215318Y-121885228D02*
X162501033Y-121885228D01*
X162501033Y-121885228D02*
X162643890Y-121956657D01*
X162001033Y-122813800D02*
X162143890Y-122885228D01*
X162143890Y-122885228D02*
X162501033Y-122885228D01*
X162501033Y-122885228D02*
X162643890Y-122813800D01*
X162643890Y-122813800D02*
X162715318Y-122670942D01*
X162715318Y-122670942D02*
X162715318Y-122528085D01*
X162715318Y-122528085D02*
X162643890Y-122385228D01*
X162643890Y-122385228D02*
X162501033Y-122313800D01*
X162501033Y-122313800D02*
X162143890Y-122313800D01*
X162143890Y-122313800D02*
X162001033Y-122242371D01*
X161286747Y-122885228D02*
X161286747Y-121885228D01*
X161286747Y-122170942D02*
X161215318Y-122028085D01*
X161215318Y-122028085D02*
X161143890Y-121956657D01*
X161143890Y-121956657D02*
X161001032Y-121885228D01*
X161001032Y-121885228D02*
X160858175Y-121885228D01*
X159715319Y-122885228D02*
X159715319Y-121385228D01*
X159715319Y-122813800D02*
X159858176Y-122885228D01*
X159858176Y-122885228D02*
X160143890Y-122885228D01*
X160143890Y-122885228D02*
X160286747Y-122813800D01*
X160286747Y-122813800D02*
X160358176Y-122742371D01*
X160358176Y-122742371D02*
X160429604Y-122599514D01*
X160429604Y-122599514D02*
X160429604Y-122170942D01*
X160429604Y-122170942D02*
X160358176Y-122028085D01*
X160358176Y-122028085D02*
X160286747Y-121956657D01*
X160286747Y-121956657D02*
X160143890Y-121885228D01*
X160143890Y-121885228D02*
X159858176Y-121885228D01*
X159858176Y-121885228D02*
X159715319Y-121956657D01*
X177358174Y-123800228D02*
X176858174Y-125300228D01*
X176858174Y-125300228D02*
X176358174Y-123800228D01*
X175286746Y-125228800D02*
X175429603Y-125300228D01*
X175429603Y-125300228D02*
X175715318Y-125300228D01*
X175715318Y-125300228D02*
X175858175Y-125228800D01*
X175858175Y-125228800D02*
X175929603Y-125085942D01*
X175929603Y-125085942D02*
X175929603Y-124514514D01*
X175929603Y-124514514D02*
X175858175Y-124371657D01*
X175858175Y-124371657D02*
X175715318Y-124300228D01*
X175715318Y-124300228D02*
X175429603Y-124300228D01*
X175429603Y-124300228D02*
X175286746Y-124371657D01*
X175286746Y-124371657D02*
X175215318Y-124514514D01*
X175215318Y-124514514D02*
X175215318Y-124657371D01*
X175215318Y-124657371D02*
X175929603Y-124800228D01*
X174572461Y-125300228D02*
X174572461Y-124300228D01*
X174572461Y-124585942D02*
X174501032Y-124443085D01*
X174501032Y-124443085D02*
X174429604Y-124371657D01*
X174429604Y-124371657D02*
X174286746Y-124300228D01*
X174286746Y-124300228D02*
X174143889Y-124300228D01*
X173715318Y-125228800D02*
X173572461Y-125300228D01*
X173572461Y-125300228D02*
X173286747Y-125300228D01*
X173286747Y-125300228D02*
X173143890Y-125228800D01*
X173143890Y-125228800D02*
X173072461Y-125085942D01*
X173072461Y-125085942D02*
X173072461Y-125014514D01*
X173072461Y-125014514D02*
X173143890Y-124871657D01*
X173143890Y-124871657D02*
X173286747Y-124800228D01*
X173286747Y-124800228D02*
X173501033Y-124800228D01*
X173501033Y-124800228D02*
X173643890Y-124728800D01*
X173643890Y-124728800D02*
X173715318Y-124585942D01*
X173715318Y-124585942D02*
X173715318Y-124514514D01*
X173715318Y-124514514D02*
X173643890Y-124371657D01*
X173643890Y-124371657D02*
X173501033Y-124300228D01*
X173501033Y-124300228D02*
X173286747Y-124300228D01*
X173286747Y-124300228D02*
X173143890Y-124371657D01*
X172429604Y-125300228D02*
X172429604Y-124300228D01*
X172429604Y-123800228D02*
X172501032Y-123871657D01*
X172501032Y-123871657D02*
X172429604Y-123943085D01*
X172429604Y-123943085D02*
X172358175Y-123871657D01*
X172358175Y-123871657D02*
X172429604Y-123800228D01*
X172429604Y-123800228D02*
X172429604Y-123943085D01*
X171501032Y-125300228D02*
X171643889Y-125228800D01*
X171643889Y-125228800D02*
X171715318Y-125157371D01*
X171715318Y-125157371D02*
X171786746Y-125014514D01*
X171786746Y-125014514D02*
X171786746Y-124585942D01*
X171786746Y-124585942D02*
X171715318Y-124443085D01*
X171715318Y-124443085D02*
X171643889Y-124371657D01*
X171643889Y-124371657D02*
X171501032Y-124300228D01*
X171501032Y-124300228D02*
X171286746Y-124300228D01*
X171286746Y-124300228D02*
X171143889Y-124371657D01*
X171143889Y-124371657D02*
X171072461Y-124443085D01*
X171072461Y-124443085D02*
X171001032Y-124585942D01*
X171001032Y-124585942D02*
X171001032Y-125014514D01*
X171001032Y-125014514D02*
X171072461Y-125157371D01*
X171072461Y-125157371D02*
X171143889Y-125228800D01*
X171143889Y-125228800D02*
X171286746Y-125300228D01*
X171286746Y-125300228D02*
X171501032Y-125300228D01*
X170358175Y-124300228D02*
X170358175Y-125300228D01*
X170358175Y-124443085D02*
X170286746Y-124371657D01*
X170286746Y-124371657D02*
X170143889Y-124300228D01*
X170143889Y-124300228D02*
X169929603Y-124300228D01*
X169929603Y-124300228D02*
X169786746Y-124371657D01*
X169786746Y-124371657D02*
X169715318Y-124514514D01*
X169715318Y-124514514D02*
X169715318Y-125300228D01*
X167929603Y-123943085D02*
X167858175Y-123871657D01*
X167858175Y-123871657D02*
X167715318Y-123800228D01*
X167715318Y-123800228D02*
X167358175Y-123800228D01*
X167358175Y-123800228D02*
X167215318Y-123871657D01*
X167215318Y-123871657D02*
X167143889Y-123943085D01*
X167143889Y-123943085D02*
X167072460Y-124085942D01*
X167072460Y-124085942D02*
X167072460Y-124228800D01*
X167072460Y-124228800D02*
X167143889Y-124443085D01*
X167143889Y-124443085D02*
X168001032Y-125300228D01*
X168001032Y-125300228D02*
X167072460Y-125300228D01*
X166429604Y-125157371D02*
X166358175Y-125228800D01*
X166358175Y-125228800D02*
X166429604Y-125300228D01*
X166429604Y-125300228D02*
X166501032Y-125228800D01*
X166501032Y-125228800D02*
X166429604Y-125157371D01*
X166429604Y-125157371D02*
X166429604Y-125300228D01*
X164929603Y-125300228D02*
X165786746Y-125300228D01*
X165358175Y-125300228D02*
X165358175Y-123800228D01*
X165358175Y-123800228D02*
X165501032Y-124014514D01*
X165501032Y-124014514D02*
X165643889Y-124157371D01*
X165643889Y-124157371D02*
X165786746Y-124228800D01*
X177143889Y-127715228D02*
X177143889Y-126215228D01*
X177143889Y-126215228D02*
X176786746Y-126215228D01*
X176786746Y-126215228D02*
X176572460Y-126286657D01*
X176572460Y-126286657D02*
X176429603Y-126429514D01*
X176429603Y-126429514D02*
X176358174Y-126572371D01*
X176358174Y-126572371D02*
X176286746Y-126858085D01*
X176286746Y-126858085D02*
X176286746Y-127072371D01*
X176286746Y-127072371D02*
X176358174Y-127358085D01*
X176358174Y-127358085D02*
X176429603Y-127500942D01*
X176429603Y-127500942D02*
X176572460Y-127643800D01*
X176572460Y-127643800D02*
X176786746Y-127715228D01*
X176786746Y-127715228D02*
X177143889Y-127715228D01*
X175072460Y-127643800D02*
X175215317Y-127715228D01*
X175215317Y-127715228D02*
X175501032Y-127715228D01*
X175501032Y-127715228D02*
X175643889Y-127643800D01*
X175643889Y-127643800D02*
X175715317Y-127500942D01*
X175715317Y-127500942D02*
X175715317Y-126929514D01*
X175715317Y-126929514D02*
X175643889Y-126786657D01*
X175643889Y-126786657D02*
X175501032Y-126715228D01*
X175501032Y-126715228D02*
X175215317Y-126715228D01*
X175215317Y-126715228D02*
X175072460Y-126786657D01*
X175072460Y-126786657D02*
X175001032Y-126929514D01*
X175001032Y-126929514D02*
X175001032Y-127072371D01*
X175001032Y-127072371D02*
X175715317Y-127215228D01*
X174429603Y-127643800D02*
X174286746Y-127715228D01*
X174286746Y-127715228D02*
X174001032Y-127715228D01*
X174001032Y-127715228D02*
X173858175Y-127643800D01*
X173858175Y-127643800D02*
X173786746Y-127500942D01*
X173786746Y-127500942D02*
X173786746Y-127429514D01*
X173786746Y-127429514D02*
X173858175Y-127286657D01*
X173858175Y-127286657D02*
X174001032Y-127215228D01*
X174001032Y-127215228D02*
X174215318Y-127215228D01*
X174215318Y-127215228D02*
X174358175Y-127143800D01*
X174358175Y-127143800D02*
X174429603Y-127000942D01*
X174429603Y-127000942D02*
X174429603Y-126929514D01*
X174429603Y-126929514D02*
X174358175Y-126786657D01*
X174358175Y-126786657D02*
X174215318Y-126715228D01*
X174215318Y-126715228D02*
X174001032Y-126715228D01*
X174001032Y-126715228D02*
X173858175Y-126786657D01*
X173143889Y-127715228D02*
X173143889Y-126715228D01*
X173143889Y-126215228D02*
X173215317Y-126286657D01*
X173215317Y-126286657D02*
X173143889Y-126358085D01*
X173143889Y-126358085D02*
X173072460Y-126286657D01*
X173072460Y-126286657D02*
X173143889Y-126215228D01*
X173143889Y-126215228D02*
X173143889Y-126358085D01*
X171786746Y-126715228D02*
X171786746Y-127929514D01*
X171786746Y-127929514D02*
X171858174Y-128072371D01*
X171858174Y-128072371D02*
X171929603Y-128143800D01*
X171929603Y-128143800D02*
X172072460Y-128215228D01*
X172072460Y-128215228D02*
X172286746Y-128215228D01*
X172286746Y-128215228D02*
X172429603Y-128143800D01*
X171786746Y-127643800D02*
X171929603Y-127715228D01*
X171929603Y-127715228D02*
X172215317Y-127715228D01*
X172215317Y-127715228D02*
X172358174Y-127643800D01*
X172358174Y-127643800D02*
X172429603Y-127572371D01*
X172429603Y-127572371D02*
X172501031Y-127429514D01*
X172501031Y-127429514D02*
X172501031Y-127000942D01*
X172501031Y-127000942D02*
X172429603Y-126858085D01*
X172429603Y-126858085D02*
X172358174Y-126786657D01*
X172358174Y-126786657D02*
X172215317Y-126715228D01*
X172215317Y-126715228D02*
X171929603Y-126715228D01*
X171929603Y-126715228D02*
X171786746Y-126786657D01*
X171072460Y-126715228D02*
X171072460Y-127715228D01*
X171072460Y-126858085D02*
X171001031Y-126786657D01*
X171001031Y-126786657D02*
X170858174Y-126715228D01*
X170858174Y-126715228D02*
X170643888Y-126715228D01*
X170643888Y-126715228D02*
X170501031Y-126786657D01*
X170501031Y-126786657D02*
X170429603Y-126929514D01*
X170429603Y-126929514D02*
X170429603Y-127715228D01*
X169143888Y-127643800D02*
X169286745Y-127715228D01*
X169286745Y-127715228D02*
X169572460Y-127715228D01*
X169572460Y-127715228D02*
X169715317Y-127643800D01*
X169715317Y-127643800D02*
X169786745Y-127500942D01*
X169786745Y-127500942D02*
X169786745Y-126929514D01*
X169786745Y-126929514D02*
X169715317Y-126786657D01*
X169715317Y-126786657D02*
X169572460Y-126715228D01*
X169572460Y-126715228D02*
X169286745Y-126715228D01*
X169286745Y-126715228D02*
X169143888Y-126786657D01*
X169143888Y-126786657D02*
X169072460Y-126929514D01*
X169072460Y-126929514D02*
X169072460Y-127072371D01*
X169072460Y-127072371D02*
X169786745Y-127215228D01*
X167786746Y-127715228D02*
X167786746Y-126215228D01*
X167786746Y-127643800D02*
X167929603Y-127715228D01*
X167929603Y-127715228D02*
X168215317Y-127715228D01*
X168215317Y-127715228D02*
X168358174Y-127643800D01*
X168358174Y-127643800D02*
X168429603Y-127572371D01*
X168429603Y-127572371D02*
X168501031Y-127429514D01*
X168501031Y-127429514D02*
X168501031Y-127000942D01*
X168501031Y-127000942D02*
X168429603Y-126858085D01*
X168429603Y-126858085D02*
X168358174Y-126786657D01*
X168358174Y-126786657D02*
X168215317Y-126715228D01*
X168215317Y-126715228D02*
X167929603Y-126715228D01*
X167929603Y-126715228D02*
X167786746Y-126786657D01*
X165929603Y-127715228D02*
X165929603Y-126715228D01*
X165929603Y-126215228D02*
X166001031Y-126286657D01*
X166001031Y-126286657D02*
X165929603Y-126358085D01*
X165929603Y-126358085D02*
X165858174Y-126286657D01*
X165858174Y-126286657D02*
X165929603Y-126215228D01*
X165929603Y-126215228D02*
X165929603Y-126358085D01*
X165215317Y-126715228D02*
X165215317Y-127715228D01*
X165215317Y-126858085D02*
X165143888Y-126786657D01*
X165143888Y-126786657D02*
X165001031Y-126715228D01*
X165001031Y-126715228D02*
X164786745Y-126715228D01*
X164786745Y-126715228D02*
X164643888Y-126786657D01*
X164643888Y-126786657D02*
X164572460Y-126929514D01*
X164572460Y-126929514D02*
X164572460Y-127715228D01*
X162786745Y-127643800D02*
X162572460Y-127715228D01*
X162572460Y-127715228D02*
X162215317Y-127715228D01*
X162215317Y-127715228D02*
X162072460Y-127643800D01*
X162072460Y-127643800D02*
X162001031Y-127572371D01*
X162001031Y-127572371D02*
X161929602Y-127429514D01*
X161929602Y-127429514D02*
X161929602Y-127286657D01*
X161929602Y-127286657D02*
X162001031Y-127143800D01*
X162001031Y-127143800D02*
X162072460Y-127072371D01*
X162072460Y-127072371D02*
X162215317Y-127000942D01*
X162215317Y-127000942D02*
X162501031Y-126929514D01*
X162501031Y-126929514D02*
X162643888Y-126858085D01*
X162643888Y-126858085D02*
X162715317Y-126786657D01*
X162715317Y-126786657D02*
X162786745Y-126643800D01*
X162786745Y-126643800D02*
X162786745Y-126500942D01*
X162786745Y-126500942D02*
X162715317Y-126358085D01*
X162715317Y-126358085D02*
X162643888Y-126286657D01*
X162643888Y-126286657D02*
X162501031Y-126215228D01*
X162501031Y-126215228D02*
X162143888Y-126215228D01*
X162143888Y-126215228D02*
X161929602Y-126286657D01*
X161501031Y-126715228D02*
X160929603Y-126715228D01*
X161286746Y-126215228D02*
X161286746Y-127500942D01*
X161286746Y-127500942D02*
X161215317Y-127643800D01*
X161215317Y-127643800D02*
X161072460Y-127715228D01*
X161072460Y-127715228D02*
X160929603Y-127715228D01*
X159786746Y-127715228D02*
X159786746Y-126929514D01*
X159786746Y-126929514D02*
X159858174Y-126786657D01*
X159858174Y-126786657D02*
X160001031Y-126715228D01*
X160001031Y-126715228D02*
X160286746Y-126715228D01*
X160286746Y-126715228D02*
X160429603Y-126786657D01*
X159786746Y-127643800D02*
X159929603Y-127715228D01*
X159929603Y-127715228D02*
X160286746Y-127715228D01*
X160286746Y-127715228D02*
X160429603Y-127643800D01*
X160429603Y-127643800D02*
X160501031Y-127500942D01*
X160501031Y-127500942D02*
X160501031Y-127358085D01*
X160501031Y-127358085D02*
X160429603Y-127215228D01*
X160429603Y-127215228D02*
X160286746Y-127143800D01*
X160286746Y-127143800D02*
X159929603Y-127143800D01*
X159929603Y-127143800D02*
X159786746Y-127072371D01*
X159072460Y-126715228D02*
X159072460Y-127715228D01*
X159072460Y-126858085D02*
X159001031Y-126786657D01*
X159001031Y-126786657D02*
X158858174Y-126715228D01*
X158858174Y-126715228D02*
X158643888Y-126715228D01*
X158643888Y-126715228D02*
X158501031Y-126786657D01*
X158501031Y-126786657D02*
X158429603Y-126929514D01*
X158429603Y-126929514D02*
X158429603Y-127715228D01*
X157929602Y-126715228D02*
X157358174Y-126715228D01*
X157715317Y-127715228D02*
X157715317Y-126429514D01*
X157715317Y-126429514D02*
X157643888Y-126286657D01*
X157643888Y-126286657D02*
X157501031Y-126215228D01*
X157501031Y-126215228D02*
X157358174Y-126215228D01*
X156643888Y-127715228D02*
X156786745Y-127643800D01*
X156786745Y-127643800D02*
X156858174Y-127572371D01*
X156858174Y-127572371D02*
X156929602Y-127429514D01*
X156929602Y-127429514D02*
X156929602Y-127000942D01*
X156929602Y-127000942D02*
X156858174Y-126858085D01*
X156858174Y-126858085D02*
X156786745Y-126786657D01*
X156786745Y-126786657D02*
X156643888Y-126715228D01*
X156643888Y-126715228D02*
X156429602Y-126715228D01*
X156429602Y-126715228D02*
X156286745Y-126786657D01*
X156286745Y-126786657D02*
X156215317Y-126858085D01*
X156215317Y-126858085D02*
X156143888Y-127000942D01*
X156143888Y-127000942D02*
X156143888Y-127429514D01*
X156143888Y-127429514D02*
X156215317Y-127572371D01*
X156215317Y-127572371D02*
X156286745Y-127643800D01*
X156286745Y-127643800D02*
X156429602Y-127715228D01*
X156429602Y-127715228D02*
X156643888Y-127715228D01*
X155501031Y-127715228D02*
X155501031Y-126715228D01*
X155501031Y-127000942D02*
X155429602Y-126858085D01*
X155429602Y-126858085D02*
X155358174Y-126786657D01*
X155358174Y-126786657D02*
X155215316Y-126715228D01*
X155215316Y-126715228D02*
X155072459Y-126715228D01*
X153929603Y-127715228D02*
X153929603Y-126215228D01*
X153929603Y-127643800D02*
X154072460Y-127715228D01*
X154072460Y-127715228D02*
X154358174Y-127715228D01*
X154358174Y-127715228D02*
X154501031Y-127643800D01*
X154501031Y-127643800D02*
X154572460Y-127572371D01*
X154572460Y-127572371D02*
X154643888Y-127429514D01*
X154643888Y-127429514D02*
X154643888Y-127000942D01*
X154643888Y-127000942D02*
X154572460Y-126858085D01*
X154572460Y-126858085D02*
X154501031Y-126786657D01*
X154501031Y-126786657D02*
X154358174Y-126715228D01*
X154358174Y-126715228D02*
X154072460Y-126715228D01*
X154072460Y-126715228D02*
X153929603Y-126786657D01*
X153143888Y-127643800D02*
X153143888Y-127715228D01*
X153143888Y-127715228D02*
X153215317Y-127858085D01*
X153215317Y-127858085D02*
X153286745Y-127929514D01*
X150501031Y-127572371D02*
X150572459Y-127643800D01*
X150572459Y-127643800D02*
X150786745Y-127715228D01*
X150786745Y-127715228D02*
X150929602Y-127715228D01*
X150929602Y-127715228D02*
X151143888Y-127643800D01*
X151143888Y-127643800D02*
X151286745Y-127500942D01*
X151286745Y-127500942D02*
X151358174Y-127358085D01*
X151358174Y-127358085D02*
X151429602Y-127072371D01*
X151429602Y-127072371D02*
X151429602Y-126858085D01*
X151429602Y-126858085D02*
X151358174Y-126572371D01*
X151358174Y-126572371D02*
X151286745Y-126429514D01*
X151286745Y-126429514D02*
X151143888Y-126286657D01*
X151143888Y-126286657D02*
X150929602Y-126215228D01*
X150929602Y-126215228D02*
X150786745Y-126215228D01*
X150786745Y-126215228D02*
X150572459Y-126286657D01*
X150572459Y-126286657D02*
X150501031Y-126358085D01*
X149929602Y-127286657D02*
X149215317Y-127286657D01*
X150072459Y-127715228D02*
X149572459Y-126215228D01*
X149572459Y-126215228D02*
X149072459Y-127715228D01*
D11*
%TO.C,J11*%
X160096200Y-97256598D02*
G75*
G03*
X160096200Y-97256598I-381000J0D01*
G01*
%TO.C,SW2*%
X112922051Y-119346400D02*
G75*
G03*
X112922051Y-119346400I-381000J0D01*
G01*
%TO.C,SW1*%
X112922051Y-114575300D02*
G75*
G03*
X112922051Y-114575300I-381000J0D01*
G01*
%TO.C,G\u002A\u002A\u002A*%
G36*
X177663154Y-130430321D02*
G01*
X177681424Y-130438799D01*
X177691375Y-130453701D01*
X177691102Y-130470449D01*
X177678697Y-130484468D01*
X177665211Y-130491211D01*
X177654476Y-130489991D01*
X177641625Y-130477756D01*
X177635516Y-130468933D01*
X177632034Y-130450528D01*
X177639326Y-130435762D01*
X177655888Y-130429712D01*
X177663154Y-130430321D01*
G37*
G36*
X173650784Y-130626112D02*
G01*
X173654772Y-130639789D01*
X173648157Y-130664749D01*
X173635813Y-130687316D01*
X173609635Y-130708473D01*
X173593619Y-130715658D01*
X173579434Y-130717547D01*
X173566311Y-130711523D01*
X173552223Y-130697745D01*
X173547990Y-130678806D01*
X173557061Y-130659519D01*
X173578344Y-130641936D01*
X173610745Y-130628110D01*
X173635304Y-130622846D01*
X173650784Y-130626112D01*
G37*
G36*
X177461859Y-129810038D02*
G01*
X177488658Y-129823487D01*
X177517209Y-129848396D01*
X177546149Y-129883191D01*
X177574117Y-129926298D01*
X177599750Y-129976145D01*
X177621687Y-130031156D01*
X177630133Y-130059913D01*
X177636027Y-130091989D01*
X177636741Y-130117205D01*
X177631880Y-130131665D01*
X177623211Y-130136668D01*
X177614403Y-130130067D01*
X177606353Y-130108665D01*
X177602456Y-130097937D01*
X177588922Y-130072230D01*
X177571517Y-130047341D01*
X177558912Y-130030812D01*
X177537938Y-130000124D01*
X177519328Y-129969638D01*
X177516338Y-129964449D01*
X177493061Y-129932146D01*
X177470440Y-129915156D01*
X177462433Y-129911361D01*
X177439072Y-129893634D01*
X177423045Y-129871304D01*
X177415670Y-129847915D01*
X177418262Y-129827009D01*
X177432141Y-129812132D01*
X177438173Y-129809622D01*
X177461859Y-129810038D01*
G37*
G36*
X177408544Y-130850792D02*
G01*
X177426659Y-130853833D01*
X177434001Y-130861997D01*
X177435379Y-130880361D01*
X177435990Y-130893082D01*
X177441379Y-130906185D01*
X177455161Y-130912346D01*
X177470800Y-130920768D01*
X177478900Y-130940419D01*
X177482608Y-130952960D01*
X177492545Y-130977899D01*
X177506828Y-131009679D01*
X177523759Y-131044369D01*
X177548494Y-131098397D01*
X177566758Y-131153574D01*
X177573730Y-131200033D01*
X177569316Y-131237082D01*
X177553421Y-131264029D01*
X177544409Y-131270851D01*
X177534519Y-131272565D01*
X177531709Y-131269209D01*
X177522502Y-131254048D01*
X177509359Y-131229871D01*
X177494126Y-131199998D01*
X177491551Y-131194874D01*
X177455202Y-131133919D01*
X177413471Y-131081502D01*
X177410117Y-131077869D01*
X177378017Y-131037036D01*
X177354886Y-130996061D01*
X177340776Y-130956790D01*
X177335735Y-130921072D01*
X177339814Y-130890755D01*
X177353061Y-130867686D01*
X177375528Y-130853712D01*
X177407263Y-130850683D01*
X177408544Y-130850792D01*
G37*
G36*
X177466524Y-130018826D02*
G01*
X177493692Y-130029530D01*
X177521735Y-130051502D01*
X177547456Y-130081806D01*
X177567655Y-130117508D01*
X177568171Y-130118670D01*
X177577699Y-130138039D01*
X177592031Y-130165121D01*
X177608273Y-130194432D01*
X177624442Y-130224671D01*
X177633789Y-130248709D01*
X177638280Y-130273487D01*
X177639884Y-130305955D01*
X177639850Y-130329916D01*
X177636871Y-130360343D01*
X177630033Y-130377308D01*
X177621648Y-130384759D01*
X177610251Y-130387895D01*
X177600099Y-130378320D01*
X177585634Y-130355589D01*
X177567832Y-130321517D01*
X177547637Y-130277907D01*
X177525990Y-130226564D01*
X177522632Y-130218297D01*
X177507279Y-130182588D01*
X177494744Y-130159006D01*
X177483118Y-130145142D01*
X177470494Y-130138589D01*
X177454963Y-130136940D01*
X177448509Y-130135941D01*
X177432142Y-130124155D01*
X177420213Y-130102631D01*
X177415597Y-130075833D01*
X177416399Y-130066638D01*
X177425284Y-130043118D01*
X177440937Y-130025306D01*
X177459511Y-130018248D01*
X177466524Y-130018826D01*
G37*
G36*
X177475070Y-130621677D02*
G01*
X177486767Y-130632822D01*
X177492129Y-130644248D01*
X177487878Y-130657192D01*
X177485640Y-130661535D01*
X177479091Y-130682412D01*
X177485207Y-130694773D01*
X177504616Y-130700223D01*
X177518752Y-130702740D01*
X177528787Y-130709498D01*
X177537191Y-130724093D01*
X177547069Y-130750180D01*
X177550106Y-130758413D01*
X177563530Y-130790910D01*
X177580646Y-130828605D01*
X177598502Y-130864915D01*
X177620856Y-130915184D01*
X177632577Y-130961894D01*
X177632838Y-131006397D01*
X177622128Y-131052581D01*
X177615642Y-131068478D01*
X177606914Y-131080137D01*
X177600247Y-131078955D01*
X177597591Y-131064022D01*
X177597030Y-131057547D01*
X177589912Y-131033680D01*
X177574389Y-130999918D01*
X177550178Y-130955759D01*
X177516992Y-130900701D01*
X177474548Y-130834243D01*
X177422560Y-130755883D01*
X177404857Y-130719351D01*
X177400807Y-130679762D01*
X177410930Y-130635444D01*
X177416174Y-130623659D01*
X177431475Y-130607838D01*
X177451230Y-130607152D01*
X177475070Y-130621677D01*
G37*
G36*
X173965629Y-130124169D02*
G01*
X173965539Y-130125279D01*
X173959528Y-130140033D01*
X173945107Y-130164858D01*
X173923691Y-130197832D01*
X173896698Y-130237034D01*
X173865544Y-130280542D01*
X173831645Y-130326433D01*
X173796420Y-130372787D01*
X173761284Y-130417681D01*
X173727655Y-130459194D01*
X173696948Y-130495404D01*
X173670581Y-130524389D01*
X173640662Y-130555006D01*
X173618694Y-130575768D01*
X173602728Y-130588102D01*
X173590523Y-130593736D01*
X173579836Y-130594399D01*
X173566639Y-130589702D01*
X173553528Y-130573331D01*
X173548215Y-130548654D01*
X173550715Y-130518946D01*
X173561042Y-130487483D01*
X173579211Y-130457541D01*
X173590283Y-130445924D01*
X173612746Y-130427019D01*
X173638427Y-130408835D01*
X173654595Y-130397172D01*
X173686210Y-130368377D01*
X173713322Y-130336579D01*
X173720146Y-130327445D01*
X173746935Y-130294757D01*
X173779757Y-130258028D01*
X173815429Y-130220538D01*
X173850768Y-130185566D01*
X173882588Y-130156393D01*
X173907709Y-130136299D01*
X173920893Y-130127629D01*
X173944900Y-130115748D01*
X173960235Y-130114506D01*
X173965629Y-130124169D01*
G37*
G36*
X162571236Y-131152412D02*
G01*
X162571236Y-131155802D01*
X162571204Y-131299268D01*
X162571111Y-131438434D01*
X162570963Y-131572478D01*
X162570761Y-131700576D01*
X162570509Y-131821905D01*
X162570210Y-131935641D01*
X162569868Y-132040961D01*
X162569486Y-132137042D01*
X162569067Y-132223061D01*
X162568614Y-132298194D01*
X162568131Y-132361618D01*
X162567621Y-132412510D01*
X162567087Y-132450046D01*
X162566533Y-132473403D01*
X162565961Y-132481758D01*
X162564486Y-132482186D01*
X162550317Y-132483305D01*
X162522651Y-132484329D01*
X162483193Y-132485229D01*
X162433647Y-132485976D01*
X162375719Y-132486545D01*
X162311114Y-132486907D01*
X162241537Y-132487033D01*
X161922389Y-132487033D01*
X161922389Y-132384167D01*
X162017342Y-132384167D01*
X162242856Y-132384167D01*
X162468370Y-132384167D01*
X162468370Y-131157687D01*
X162468370Y-129931208D01*
X162242856Y-129931208D01*
X162017342Y-129931208D01*
X162017342Y-131157687D01*
X162017342Y-132384167D01*
X161922389Y-132384167D01*
X161922389Y-131157687D01*
X161922389Y-129828342D01*
X162246812Y-129828342D01*
X162571236Y-129828342D01*
X162571236Y-129931208D01*
X162571236Y-131152412D01*
G37*
G36*
X177496908Y-130300920D02*
G01*
X177509728Y-130318253D01*
X177522944Y-130350504D01*
X177537381Y-130398061D01*
X177537505Y-130398505D01*
X177548561Y-130427435D01*
X177565748Y-130461354D01*
X177585399Y-130493014D01*
X177606357Y-130524058D01*
X177628477Y-130561423D01*
X177641074Y-130590603D01*
X177645068Y-130613455D01*
X177645070Y-130613727D01*
X177647311Y-130630550D01*
X177652985Y-130656786D01*
X177660893Y-130686877D01*
X177663784Y-130697380D01*
X177673738Y-130745073D01*
X177676530Y-130784487D01*
X177671916Y-130812835D01*
X177668960Y-130818960D01*
X177658906Y-130825245D01*
X177646158Y-130816700D01*
X177631008Y-130793830D01*
X177613752Y-130757141D01*
X177594681Y-130707137D01*
X177574088Y-130644324D01*
X177570000Y-130631172D01*
X177557836Y-130595278D01*
X177546163Y-130569361D01*
X177532314Y-130549296D01*
X177513623Y-130530956D01*
X177487422Y-130510216D01*
X177476220Y-130500744D01*
X177465697Y-130484156D01*
X177463074Y-130460382D01*
X177462899Y-130453064D01*
X177457623Y-130429527D01*
X177442683Y-130411414D01*
X177422292Y-130393874D01*
X177442563Y-130353516D01*
X177452580Y-130334556D01*
X177469158Y-130309459D01*
X177483659Y-130298117D01*
X177496908Y-130300920D01*
G37*
G36*
X175117096Y-132542796D02*
G01*
X175129744Y-132551832D01*
X175145228Y-132569534D01*
X175160316Y-132591341D01*
X175171771Y-132612694D01*
X175176360Y-132629034D01*
X175178600Y-132643114D01*
X175190927Y-132672993D01*
X175212580Y-132709041D01*
X175241920Y-132748657D01*
X175277306Y-132789239D01*
X175300298Y-132814407D01*
X175322536Y-132840436D01*
X175338605Y-132861182D01*
X175346051Y-132873635D01*
X175347687Y-132877289D01*
X175360939Y-132892328D01*
X175380968Y-132905876D01*
X175382152Y-132906500D01*
X175401223Y-132919789D01*
X175424941Y-132940512D01*
X175450544Y-132965697D01*
X175475269Y-132992373D01*
X175496350Y-133017568D01*
X175511026Y-133038311D01*
X175516532Y-133051631D01*
X175511378Y-133051776D01*
X175495025Y-133045537D01*
X175470021Y-133033890D01*
X175438990Y-133018232D01*
X175404555Y-132999959D01*
X175369339Y-132980464D01*
X175335966Y-132961145D01*
X175307059Y-132943395D01*
X175285241Y-132928610D01*
X175260314Y-132908663D01*
X175219423Y-132870637D01*
X175179290Y-132827837D01*
X175144052Y-132784778D01*
X175117848Y-132745976D01*
X175114649Y-132740149D01*
X175101395Y-132711166D01*
X175088189Y-132676115D01*
X175076696Y-132640096D01*
X175068579Y-132608210D01*
X175065504Y-132585558D01*
X175065752Y-132582144D01*
X175074903Y-132563340D01*
X175093160Y-132548468D01*
X175114916Y-132542423D01*
X175117096Y-132542796D01*
G37*
G36*
X166130657Y-130559225D02*
G01*
X166211099Y-130573344D01*
X166292054Y-130598911D01*
X166370926Y-130635065D01*
X166445120Y-130680943D01*
X166512042Y-130735684D01*
X166536873Y-130759848D01*
X166579865Y-130807174D01*
X166614643Y-130854983D01*
X166645184Y-130908435D01*
X166669539Y-130955912D01*
X166671774Y-130781831D01*
X166674009Y-130607750D01*
X166917326Y-130605657D01*
X167160644Y-130603565D01*
X167160644Y-131541452D01*
X167160644Y-132479340D01*
X166905457Y-132477252D01*
X166650270Y-132475164D01*
X166645597Y-131972703D01*
X166645376Y-131948989D01*
X166644395Y-131846645D01*
X166643437Y-131758504D01*
X166642406Y-131683226D01*
X166641207Y-131619473D01*
X166639742Y-131565908D01*
X166637915Y-131521192D01*
X166635631Y-131483987D01*
X166632793Y-131452953D01*
X166629304Y-131426754D01*
X166625068Y-131404051D01*
X166619989Y-131383505D01*
X166613970Y-131363778D01*
X166606916Y-131343532D01*
X166598730Y-131321428D01*
X166594523Y-131310668D01*
X166558599Y-131241719D01*
X166510758Y-131179626D01*
X166453479Y-131127165D01*
X166389242Y-131087109D01*
X166364705Y-131075666D01*
X166322885Y-131059807D01*
X166279948Y-131049018D01*
X166232275Y-131042707D01*
X166176247Y-131040281D01*
X166108245Y-131041149D01*
X166085387Y-131041945D01*
X166044129Y-131043871D01*
X166009364Y-131046121D01*
X165984201Y-131048477D01*
X165971750Y-131050722D01*
X165967907Y-131051550D01*
X165964795Y-131049382D01*
X165962403Y-131042582D01*
X165960637Y-131029553D01*
X165959402Y-131008695D01*
X165958605Y-130978408D01*
X165958152Y-130937093D01*
X165957949Y-130883152D01*
X165957903Y-130814984D01*
X165957903Y-130573454D01*
X165997856Y-130564885D01*
X166053323Y-130557417D01*
X166130657Y-130559225D01*
G37*
G36*
X174619656Y-129275366D02*
G01*
X174634053Y-129278992D01*
X174638214Y-129286113D01*
X174637008Y-129290786D01*
X174624532Y-129303389D01*
X174601355Y-129315615D01*
X174571000Y-129325406D01*
X174547902Y-129333294D01*
X174529740Y-129348291D01*
X174515732Y-129374180D01*
X174515657Y-129374360D01*
X174500884Y-129396201D01*
X174480609Y-129412585D01*
X174480336Y-129412727D01*
X174460110Y-129429233D01*
X174445438Y-129451104D01*
X174441880Y-129458667D01*
X174427258Y-129475715D01*
X174402765Y-129486578D01*
X174391564Y-129490806D01*
X174378231Y-129498055D01*
X174361875Y-129509335D01*
X174341104Y-129525804D01*
X174314521Y-129548621D01*
X174280731Y-129578947D01*
X174238341Y-129617940D01*
X174185954Y-129666759D01*
X174182374Y-129670150D01*
X174154311Y-129698667D01*
X174123709Y-129732326D01*
X174096583Y-129764546D01*
X174095110Y-129766382D01*
X174068351Y-129796685D01*
X174042183Y-129821309D01*
X174020620Y-129836457D01*
X174008376Y-129844080D01*
X173979877Y-129869976D01*
X173949128Y-129907645D01*
X173942988Y-129915961D01*
X173922543Y-129942041D01*
X173904445Y-129962931D01*
X173892024Y-129974720D01*
X173879198Y-129982435D01*
X173867560Y-129986597D01*
X173863919Y-129986164D01*
X173848548Y-129976421D01*
X173836184Y-129958197D01*
X173831111Y-129937285D01*
X173831114Y-129936836D01*
X173834905Y-129919130D01*
X173847149Y-129900230D01*
X173869648Y-129877990D01*
X173904205Y-129850262D01*
X173919779Y-129835349D01*
X173944150Y-129802445D01*
X173970591Y-129756856D01*
X173973992Y-129750465D01*
X173998918Y-129708070D01*
X174023365Y-129675749D01*
X174050725Y-129648934D01*
X174055389Y-129644832D01*
X174081788Y-129618710D01*
X174110450Y-129586681D01*
X174135944Y-129554748D01*
X174150290Y-129535984D01*
X174168085Y-129515354D01*
X174187798Y-129496405D01*
X174212324Y-129476650D01*
X174244558Y-129453606D01*
X174287396Y-129424787D01*
X174302199Y-129415087D01*
X174348022Y-129386135D01*
X174395153Y-129357690D01*
X174438820Y-129332590D01*
X174474254Y-129313672D01*
X174491293Y-129305245D01*
X174524939Y-129289762D01*
X174550748Y-129280361D01*
X174572860Y-129275703D01*
X174595410Y-129274448D01*
X174619656Y-129275366D01*
G37*
G36*
X161208340Y-131907515D02*
G01*
X161198239Y-131970322D01*
X161194874Y-131981655D01*
X161170100Y-132033778D01*
X161132794Y-132076530D01*
X161083327Y-132109649D01*
X161022070Y-132132873D01*
X160949397Y-132145939D01*
X160886736Y-132149907D01*
X160797255Y-132146005D01*
X160717372Y-132129958D01*
X160647309Y-132101864D01*
X160587287Y-132061822D01*
X160537528Y-132009930D01*
X160498254Y-131946285D01*
X160490809Y-131930602D01*
X160477883Y-131899693D01*
X160467994Y-131868717D01*
X160460759Y-131835051D01*
X160455793Y-131796071D01*
X160452712Y-131749153D01*
X160451133Y-131691674D01*
X160450934Y-131661060D01*
X160546173Y-131661060D01*
X160546325Y-131683718D01*
X160548599Y-131715028D01*
X160552564Y-131751492D01*
X160557788Y-131789611D01*
X160563837Y-131825886D01*
X160570279Y-131856820D01*
X160576682Y-131878914D01*
X160588442Y-131905578D01*
X160622929Y-131956609D01*
X160668733Y-131997057D01*
X160724995Y-132026264D01*
X160790862Y-132043572D01*
X160817263Y-132047039D01*
X160862539Y-132050269D01*
X160904565Y-132050262D01*
X160937249Y-132046879D01*
X160939017Y-132046530D01*
X160981340Y-132037813D01*
X161011430Y-132030492D01*
X161032563Y-132023487D01*
X161048016Y-132015721D01*
X161061064Y-132006114D01*
X161085668Y-131978646D01*
X161102065Y-131940183D01*
X161107199Y-131891851D01*
X161103867Y-131852995D01*
X161092289Y-131816284D01*
X161071382Y-131785099D01*
X161040073Y-131758751D01*
X160997290Y-131736552D01*
X160941960Y-131717814D01*
X160873012Y-131701851D01*
X160789372Y-131687973D01*
X160782988Y-131687054D01*
X160735471Y-131679871D01*
X160688131Y-131672202D01*
X160646137Y-131664909D01*
X160614660Y-131658852D01*
X160606865Y-131657259D01*
X160578712Y-131652325D01*
X160557899Y-131649958D01*
X160548464Y-131650657D01*
X160546173Y-131661060D01*
X160450934Y-131661060D01*
X160450673Y-131621011D01*
X160450613Y-131463181D01*
X160476330Y-131487619D01*
X160498407Y-131506113D01*
X160525516Y-131522957D01*
X160558318Y-131537487D01*
X160598837Y-131550336D01*
X160649094Y-131562139D01*
X160711110Y-131573533D01*
X160786906Y-131585150D01*
X160814557Y-131589235D01*
X160893773Y-131602770D01*
X160959766Y-131617435D01*
X161014519Y-131633895D01*
X161060013Y-131652815D01*
X161098232Y-131674860D01*
X161131160Y-131700697D01*
X161162804Y-131736732D01*
X161189920Y-131787896D01*
X161205333Y-131845765D01*
X161207577Y-131891851D01*
X161208340Y-131907515D01*
G37*
G36*
X175702027Y-130985774D02*
G01*
X175715041Y-130997987D01*
X175731208Y-131021152D01*
X175751723Y-131056390D01*
X175777781Y-131104825D01*
X175796179Y-131138734D01*
X175818519Y-131175917D01*
X175841935Y-131209063D01*
X175869962Y-131243077D01*
X175906137Y-131282863D01*
X175934103Y-131313086D01*
X176007824Y-131395878D01*
X176082940Y-131484907D01*
X176161551Y-131582704D01*
X176245759Y-131691800D01*
X176263211Y-131714750D01*
X176301860Y-131765024D01*
X176333822Y-131805442D01*
X176360961Y-131838125D01*
X176385143Y-131865197D01*
X176408233Y-131888778D01*
X176432095Y-131910992D01*
X176458597Y-131933960D01*
X176461538Y-131936504D01*
X176490127Y-131965678D01*
X176521760Y-132004627D01*
X176553105Y-132049286D01*
X176567516Y-132070620D01*
X176593685Y-132105903D01*
X176617940Y-132134544D01*
X176637371Y-132152960D01*
X176647317Y-132161138D01*
X176672868Y-132186602D01*
X176694148Y-132213214D01*
X176702447Y-132225401D01*
X176720470Y-132251306D01*
X176735337Y-132272018D01*
X176737966Y-132275953D01*
X176748509Y-132304424D01*
X176752338Y-132340002D01*
X176749277Y-132376497D01*
X176739153Y-132407717D01*
X176724770Y-132425589D01*
X176704330Y-132433037D01*
X176682951Y-132426568D01*
X176664032Y-132406247D01*
X176663110Y-132404708D01*
X176651373Y-132381205D01*
X176643956Y-132359764D01*
X176635402Y-132340133D01*
X176620277Y-132320783D01*
X176605799Y-132300215D01*
X176595950Y-132267683D01*
X176585290Y-132233602D01*
X176561235Y-132198468D01*
X176550298Y-132185396D01*
X176530281Y-132159616D01*
X176515103Y-132137818D01*
X176508838Y-132129457D01*
X176491129Y-132109411D01*
X176465682Y-132082751D01*
X176434872Y-132051940D01*
X176401073Y-132019445D01*
X176373436Y-131993120D01*
X176327415Y-131947364D01*
X176290342Y-131907122D01*
X176259871Y-131869608D01*
X176233657Y-131832034D01*
X176209354Y-131791613D01*
X176189178Y-131759160D01*
X176148211Y-131704218D01*
X176099444Y-131648521D01*
X176046620Y-131596233D01*
X175993482Y-131551515D01*
X175992432Y-131550714D01*
X175965238Y-131527687D01*
X175940783Y-131503207D01*
X175924248Y-131482441D01*
X175919288Y-131475332D01*
X175897592Y-131452213D01*
X175874037Y-131435364D01*
X175866888Y-131431206D01*
X175842790Y-131411649D01*
X175822933Y-131388396D01*
X175813736Y-131375925D01*
X175791049Y-131350273D01*
X175766642Y-131327247D01*
X175748449Y-131309304D01*
X175718559Y-131265773D01*
X175693668Y-131210076D01*
X175674625Y-131144298D01*
X175662275Y-131070521D01*
X175660138Y-131040516D01*
X175662478Y-131019758D01*
X175670008Y-131003534D01*
X175680680Y-130989709D01*
X175690972Y-130983389D01*
X175702027Y-130985774D01*
G37*
G36*
X171211984Y-131189338D02*
G01*
X171211984Y-132479120D01*
X170955250Y-132479120D01*
X170698516Y-132479120D01*
X170695783Y-131911379D01*
X170695594Y-131872279D01*
X170695009Y-131761237D01*
X170694359Y-131664427D01*
X170693553Y-131580644D01*
X170692500Y-131508685D01*
X170691109Y-131447344D01*
X170689291Y-131395417D01*
X170686954Y-131351699D01*
X170684007Y-131314987D01*
X170680361Y-131284075D01*
X170675924Y-131257760D01*
X170670605Y-131234836D01*
X170664315Y-131214099D01*
X170656962Y-131194344D01*
X170648456Y-131174368D01*
X170638706Y-131152966D01*
X170637070Y-131149464D01*
X170603405Y-131091249D01*
X170562433Y-131045010D01*
X170512973Y-131010093D01*
X170453845Y-130985845D01*
X170383865Y-130971613D01*
X170301855Y-130966745D01*
X170276907Y-130967088D01*
X170207832Y-130974163D01*
X170149487Y-130991006D01*
X170100894Y-131018501D01*
X170061071Y-131057529D01*
X170029040Y-131108974D01*
X170003821Y-131173717D01*
X169984433Y-131252641D01*
X169982851Y-131267166D01*
X169981147Y-131297838D01*
X169979524Y-131343155D01*
X169977992Y-131402495D01*
X169976565Y-131475236D01*
X169975253Y-131560754D01*
X169974069Y-131658427D01*
X169973026Y-131767633D01*
X169972134Y-131887749D01*
X169968305Y-132479338D01*
X169713805Y-132477251D01*
X169459305Y-132475164D01*
X169456955Y-131913357D01*
X169456680Y-131838354D01*
X169456440Y-131713727D01*
X169456568Y-131603188D01*
X169457100Y-131505621D01*
X169458073Y-131419905D01*
X169459525Y-131344923D01*
X169461491Y-131279558D01*
X169464009Y-131222689D01*
X169467116Y-131173200D01*
X169470849Y-131129972D01*
X169475243Y-131091887D01*
X169480337Y-131057826D01*
X169486167Y-131026671D01*
X169491459Y-131002787D01*
X169520882Y-130907429D01*
X169561208Y-130823539D01*
X169612428Y-130751124D01*
X169674537Y-130690191D01*
X169747527Y-130640747D01*
X169831392Y-130602800D01*
X169926125Y-130576357D01*
X169930387Y-130575493D01*
X169988842Y-130566307D01*
X170052952Y-130560317D01*
X170117479Y-130557742D01*
X170177189Y-130558803D01*
X170226843Y-130563719D01*
X170259891Y-130569844D01*
X170353819Y-130596301D01*
X170441324Y-130634482D01*
X170520498Y-130683274D01*
X170589433Y-130741565D01*
X170646221Y-130808242D01*
X170653704Y-130818639D01*
X170671268Y-130841905D01*
X170684756Y-130858175D01*
X170691719Y-130864427D01*
X170691801Y-130864389D01*
X170692851Y-130855647D01*
X170693841Y-130832537D01*
X170694752Y-130796413D01*
X170695569Y-130748630D01*
X170696275Y-130690543D01*
X170696853Y-130623505D01*
X170697287Y-130548871D01*
X170697559Y-130467997D01*
X170697654Y-130382236D01*
X170697654Y-129899557D01*
X170954819Y-129899557D01*
X171211984Y-129899557D01*
X171211984Y-131189338D01*
G37*
G36*
X159131676Y-131540407D02*
G01*
X159131161Y-131585936D01*
X159129881Y-131621370D01*
X159127526Y-131650120D01*
X159123784Y-131675592D01*
X159118344Y-131701197D01*
X159110895Y-131730342D01*
X159106811Y-131744858D01*
X159092565Y-131788842D01*
X159076133Y-131832643D01*
X159060309Y-131868624D01*
X159023159Y-131930315D01*
X158974402Y-131987894D01*
X158918062Y-132036194D01*
X158856702Y-132073033D01*
X158792887Y-132096229D01*
X158780664Y-132098829D01*
X158735323Y-132104401D01*
X158683741Y-132106236D01*
X158632836Y-132104260D01*
X158589523Y-132098401D01*
X158523880Y-132077434D01*
X158459594Y-132041495D01*
X158401692Y-131992561D01*
X158351633Y-131931877D01*
X158310879Y-131860690D01*
X158297601Y-131830661D01*
X158262634Y-131726455D01*
X158241796Y-131616152D01*
X158235301Y-131501893D01*
X158342986Y-131501893D01*
X158342992Y-131508297D01*
X158344231Y-131578543D01*
X158348072Y-131636906D01*
X158355174Y-131686930D01*
X158366195Y-131732153D01*
X158381796Y-131776116D01*
X158402635Y-131822360D01*
X158412021Y-131840056D01*
X158444589Y-131887564D01*
X158484097Y-131930282D01*
X158526974Y-131964684D01*
X158569648Y-131987243D01*
X158596274Y-131995162D01*
X158648088Y-132003103D01*
X158703904Y-132004472D01*
X158757593Y-131999264D01*
X158803023Y-131987472D01*
X158849338Y-131962755D01*
X158895371Y-131924649D01*
X158936671Y-131876697D01*
X158970199Y-131821911D01*
X158990655Y-131777496D01*
X159006650Y-131732966D01*
X159017960Y-131686605D01*
X159025232Y-131634948D01*
X159029119Y-131574532D01*
X159030270Y-131501893D01*
X159029205Y-131431660D01*
X159025429Y-131370860D01*
X159018291Y-131318946D01*
X159007140Y-131272453D01*
X158991326Y-131227917D01*
X158970199Y-131181875D01*
X158941928Y-131134186D01*
X158899470Y-131082978D01*
X158851053Y-131042529D01*
X158799266Y-131015363D01*
X158795881Y-131014132D01*
X158743043Y-131001604D01*
X158683902Y-130997633D01*
X158624996Y-131002219D01*
X158572863Y-131015363D01*
X158571148Y-131016012D01*
X158515675Y-131045605D01*
X158466225Y-131089236D01*
X158423419Y-131146085D01*
X158387877Y-131215333D01*
X158360220Y-131296161D01*
X158354320Y-131319553D01*
X158349483Y-131344707D01*
X158346215Y-131372131D01*
X158344232Y-131405212D01*
X158343250Y-131447336D01*
X158342986Y-131501893D01*
X158235301Y-131501893D01*
X158235241Y-131500840D01*
X158243122Y-131381607D01*
X158256683Y-131298851D01*
X158279505Y-131213705D01*
X158310637Y-131139242D01*
X158350923Y-131073502D01*
X158401205Y-131014527D01*
X158450220Y-130969841D01*
X158501046Y-130935665D01*
X158554789Y-130913144D01*
X158615209Y-130900724D01*
X158686065Y-130896853D01*
X158738885Y-130898995D01*
X158803932Y-130910185D01*
X158861943Y-130932279D01*
X158916510Y-130966768D01*
X158971227Y-131015142D01*
X158986171Y-131030546D01*
X159027568Y-131080748D01*
X159060768Y-131135266D01*
X159087831Y-131197893D01*
X159110813Y-131272423D01*
X159116108Y-131292950D01*
X159122190Y-131319642D01*
X159126465Y-131345015D01*
X159129245Y-131372498D01*
X159130844Y-131405520D01*
X159131574Y-131447509D01*
X159131748Y-131501893D01*
X159131676Y-131540407D01*
G37*
G36*
X172327310Y-130561243D02*
G01*
X172383173Y-130562288D01*
X172432813Y-130564382D01*
X172473032Y-130567363D01*
X172500633Y-130571070D01*
X172528410Y-130576925D01*
X172648987Y-130611007D01*
X172759393Y-130657113D01*
X172859507Y-130715154D01*
X172949209Y-130785038D01*
X173028380Y-130866675D01*
X173096898Y-130959973D01*
X173154644Y-131064842D01*
X173192142Y-131153774D01*
X173221286Y-131246886D01*
X173241258Y-131344321D01*
X173252722Y-131449337D01*
X173256340Y-131565195D01*
X173256339Y-131566089D01*
X173254487Y-131652021D01*
X173248688Y-131726800D01*
X173238285Y-131794711D01*
X173222626Y-131860041D01*
X173201054Y-131927075D01*
X173163428Y-132017530D01*
X173106156Y-132119692D01*
X173037309Y-132211690D01*
X172957629Y-132292963D01*
X172867856Y-132362947D01*
X172768730Y-132421080D01*
X172660991Y-132466799D01*
X172545380Y-132499541D01*
X172422638Y-132518743D01*
X172345126Y-132522990D01*
X172247573Y-132520649D01*
X172148992Y-132510818D01*
X172054630Y-132494050D01*
X171969734Y-132470900D01*
X171902326Y-132445443D01*
X171801933Y-132394714D01*
X171712157Y-132332343D01*
X171633315Y-132258642D01*
X171565726Y-132173926D01*
X171509707Y-132078508D01*
X171465575Y-131972703D01*
X171463632Y-131966910D01*
X171453925Y-131934872D01*
X171443724Y-131897154D01*
X171434023Y-131857927D01*
X171425820Y-131821362D01*
X171420109Y-131791631D01*
X171417887Y-131772905D01*
X171418726Y-131769054D01*
X171422443Y-131765971D01*
X171430658Y-131763593D01*
X171444987Y-131761829D01*
X171467051Y-131760590D01*
X171498466Y-131759784D01*
X171540852Y-131759320D01*
X171595827Y-131759108D01*
X171665009Y-131759058D01*
X171912302Y-131759058D01*
X171925923Y-131818989D01*
X171946788Y-131888679D01*
X171981149Y-131959920D01*
X172025776Y-132020090D01*
X172080022Y-132068496D01*
X172143237Y-132104445D01*
X172214771Y-132127245D01*
X172229002Y-132130067D01*
X172311984Y-132138403D01*
X172390243Y-132132150D01*
X172463013Y-132111508D01*
X172529528Y-132076682D01*
X172589023Y-132027875D01*
X172599658Y-132016739D01*
X172644031Y-131957562D01*
X172680568Y-131887154D01*
X172709069Y-131807698D01*
X172729333Y-131721375D01*
X172741159Y-131630368D01*
X172744348Y-131536858D01*
X172738699Y-131443027D01*
X172724012Y-131351056D01*
X172700087Y-131263129D01*
X172666724Y-131181426D01*
X172651246Y-131152884D01*
X172614134Y-131099081D01*
X172570397Y-131050139D01*
X172523385Y-131009587D01*
X172476448Y-130980956D01*
X172464564Y-130975676D01*
X172396838Y-130954924D01*
X172322812Y-130946158D01*
X172246461Y-130949912D01*
X172218660Y-130954079D01*
X172162448Y-130966611D01*
X172116279Y-130984332D01*
X172076255Y-131008972D01*
X172038481Y-131042260D01*
X172012930Y-131070031D01*
X171982768Y-131112303D01*
X171959967Y-131159842D01*
X171941635Y-131217887D01*
X171928369Y-131268466D01*
X171676256Y-131268466D01*
X171424144Y-131268466D01*
X171429444Y-131226924D01*
X171430043Y-131222493D01*
X171435037Y-131192354D01*
X171442227Y-131155226D01*
X171450271Y-131118124D01*
X171453948Y-131103128D01*
X171485177Y-131013333D01*
X171530460Y-130927968D01*
X171588453Y-130848663D01*
X171657809Y-130777053D01*
X171737181Y-130714770D01*
X171825224Y-130663446D01*
X171877899Y-130638915D01*
X171955435Y-130608832D01*
X172033067Y-130586813D01*
X172114536Y-130572061D01*
X172203583Y-130563774D01*
X172303946Y-130561154D01*
X172327310Y-130561243D01*
G37*
G36*
X159667249Y-131157687D02*
G01*
X159667249Y-132487033D01*
X159354694Y-132487033D01*
X159042140Y-132487033D01*
X159042140Y-132435600D01*
X159041554Y-132410274D01*
X159039939Y-132391386D01*
X159037655Y-132384167D01*
X159036122Y-132384610D01*
X159024806Y-132391319D01*
X159007780Y-132403534D01*
X158975255Y-132424291D01*
X158927780Y-132447575D01*
X158871753Y-132469973D01*
X158810941Y-132490126D01*
X158749109Y-132506673D01*
X158690021Y-132518256D01*
X158677094Y-132519725D01*
X158645204Y-132521698D01*
X158603778Y-132522988D01*
X158556744Y-132523490D01*
X158508027Y-132523100D01*
X158487248Y-132522656D01*
X158424285Y-132519991D01*
X158371770Y-132514875D01*
X158325573Y-132506400D01*
X158281567Y-132493658D01*
X158235620Y-132475742D01*
X158183604Y-132451741D01*
X158150828Y-132434964D01*
X158080930Y-132391818D01*
X158015471Y-132339831D01*
X157950177Y-132275783D01*
X157949347Y-132274896D01*
X157880639Y-132189999D01*
X157821379Y-132092885D01*
X157771891Y-131984263D01*
X157732498Y-131864839D01*
X157703521Y-131735320D01*
X157698987Y-131699501D01*
X157695528Y-131649457D01*
X157693426Y-131590391D01*
X157692653Y-131525772D01*
X157693058Y-131474376D01*
X157794955Y-131474376D01*
X157795059Y-131542511D01*
X157796619Y-131608434D01*
X157799638Y-131668756D01*
X157804118Y-131720093D01*
X157810060Y-131759058D01*
X157812062Y-131768387D01*
X157844609Y-131888333D01*
X157887290Y-131997495D01*
X157939696Y-132095441D01*
X158001417Y-132181733D01*
X158072043Y-132255938D01*
X158151164Y-132317620D01*
X158238372Y-132366345D01*
X158333256Y-132401677D01*
X158435407Y-132423181D01*
X158519197Y-132429266D01*
X158608062Y-132425963D01*
X158697600Y-132413896D01*
X158783978Y-132393770D01*
X158863361Y-132366287D01*
X158931915Y-132332149D01*
X158967832Y-132306739D01*
X159009314Y-132269471D01*
X159046568Y-132228253D01*
X159074469Y-132188257D01*
X159076107Y-132185413D01*
X159089316Y-132165927D01*
X159102045Y-132156953D01*
X159119289Y-132154758D01*
X159145006Y-132154697D01*
X159145006Y-132269432D01*
X159145006Y-132384167D01*
X159354694Y-132384167D01*
X159564383Y-132384167D01*
X159564383Y-131157687D01*
X159564383Y-129931208D01*
X159342825Y-129931208D01*
X159121267Y-129931208D01*
X159121267Y-130386192D01*
X159121267Y-130841176D01*
X159098203Y-130841176D01*
X159094901Y-130841086D01*
X159079801Y-130837088D01*
X159064916Y-130825032D01*
X159046371Y-130801987D01*
X159012451Y-130760943D01*
X158948232Y-130703206D01*
X158871569Y-130655049D01*
X158782301Y-130616360D01*
X158741307Y-130603296D01*
X158652426Y-130583649D01*
X158560531Y-130573733D01*
X158470453Y-130573936D01*
X158387024Y-130584645D01*
X158321438Y-130601428D01*
X158227292Y-130638497D01*
X158140825Y-130688908D01*
X158062518Y-130752113D01*
X157992857Y-130827559D01*
X157932324Y-130914699D01*
X157881402Y-131012980D01*
X157840576Y-131121855D01*
X157810328Y-131240771D01*
X157809078Y-131247416D01*
X157803370Y-131290547D01*
X157799113Y-131345007D01*
X157796307Y-131407412D01*
X157794955Y-131474376D01*
X157693058Y-131474376D01*
X157693179Y-131459068D01*
X157694974Y-131393747D01*
X157698011Y-131333278D01*
X157702258Y-131281130D01*
X157707689Y-131240771D01*
X157720029Y-131180734D01*
X157754326Y-131061171D01*
X157799495Y-130950645D01*
X157854869Y-130849824D01*
X157919785Y-130759376D01*
X157993578Y-130679971D01*
X158075582Y-130612275D01*
X158165133Y-130556958D01*
X158261566Y-130514688D01*
X158364217Y-130486133D01*
X158472420Y-130471961D01*
X158543284Y-130471120D01*
X158638339Y-130479619D01*
X158733475Y-130498079D01*
X158825031Y-130525553D01*
X158909343Y-130561096D01*
X158982747Y-130603761D01*
X159018401Y-130628292D01*
X159018401Y-130228317D01*
X159018401Y-129828342D01*
X159342825Y-129828342D01*
X159667249Y-129828342D01*
X159667249Y-129931208D01*
X159667249Y-131157687D01*
G37*
G36*
X175920973Y-129502165D02*
G01*
X175967482Y-129516843D01*
X175985927Y-129524031D01*
X176014501Y-129538244D01*
X176037888Y-129556254D01*
X176062939Y-129582795D01*
X176102235Y-129620784D01*
X176155600Y-129657194D01*
X176180315Y-129671756D01*
X176204906Y-129690320D01*
X176227315Y-129713637D01*
X176252481Y-129746246D01*
X176254120Y-129748488D01*
X176299255Y-129801401D01*
X176348443Y-129844301D01*
X176357622Y-129851167D01*
X176397315Y-129886950D01*
X176425043Y-129924701D01*
X176439339Y-129945500D01*
X176467704Y-129978360D01*
X176508309Y-130019633D01*
X176561494Y-130069681D01*
X176573243Y-130080446D01*
X176609650Y-130114097D01*
X176636923Y-130140279D01*
X176657119Y-130161453D01*
X176672295Y-130180079D01*
X176684509Y-130198620D01*
X176695818Y-130219536D01*
X176708279Y-130245289D01*
X176716872Y-130262762D01*
X176739990Y-130306105D01*
X176766141Y-130351533D01*
X176791151Y-130391676D01*
X176805057Y-130413225D01*
X176828105Y-130450477D01*
X176848686Y-130485468D01*
X176863570Y-130512796D01*
X176866012Y-130517559D01*
X176883343Y-130549234D01*
X176904672Y-130585786D01*
X176925945Y-130620230D01*
X176928710Y-130624599D01*
X176950547Y-130661941D01*
X176971763Y-130702366D01*
X176988120Y-130737856D01*
X177005032Y-130773409D01*
X177027614Y-130813340D01*
X177050540Y-130848024D01*
X177074767Y-130881863D01*
X177093529Y-130911511D01*
X177107701Y-130939980D01*
X177120012Y-130972799D01*
X177133191Y-131015499D01*
X177145323Y-131056090D01*
X177155504Y-131086727D01*
X177165165Y-131109645D01*
X177176201Y-131128668D01*
X177190510Y-131147620D01*
X177209989Y-131170325D01*
X177248529Y-131219801D01*
X177277597Y-131271396D01*
X177300853Y-131331768D01*
X177315844Y-131373092D01*
X177339963Y-131423846D01*
X177372534Y-131477748D01*
X177383426Y-131496109D01*
X177400180Y-131537223D01*
X177406490Y-131576356D01*
X177402085Y-131610461D01*
X177386691Y-131636492D01*
X177370376Y-131646429D01*
X177351252Y-131646049D01*
X177337000Y-131633445D01*
X177335162Y-131629444D01*
X177328809Y-131609217D01*
X177323567Y-131584255D01*
X177320174Y-131569347D01*
X177307381Y-131542405D01*
X177283794Y-131513253D01*
X177274810Y-131503095D01*
X177254642Y-131474362D01*
X177244848Y-131449685D01*
X177240663Y-131429072D01*
X177229797Y-131398477D01*
X177212556Y-131375833D01*
X177185689Y-131355989D01*
X177170216Y-131345711D01*
X177150677Y-131330227D01*
X177139910Y-131318285D01*
X177136226Y-131307133D01*
X177130631Y-131283101D01*
X177124247Y-131250499D01*
X177117860Y-131213077D01*
X177111897Y-131177373D01*
X177105756Y-131147443D01*
X177099517Y-131127142D01*
X177092135Y-131113188D01*
X177082564Y-131102298D01*
X177069673Y-131086248D01*
X177051869Y-131057259D01*
X177032013Y-131019784D01*
X177011793Y-130977211D01*
X176992895Y-130932928D01*
X176977006Y-130890322D01*
X176968046Y-130868166D01*
X176952032Y-130834104D01*
X176931114Y-130792846D01*
X176906978Y-130747711D01*
X176881309Y-130702016D01*
X176862123Y-130668485D01*
X176831240Y-130613673D01*
X176800144Y-130557631D01*
X176771580Y-130505317D01*
X176748291Y-130461688D01*
X176724490Y-130417744D01*
X176698853Y-130374946D01*
X176676006Y-130342781D01*
X176654424Y-130318930D01*
X176638278Y-130302505D01*
X176621626Y-130280021D01*
X176616407Y-130261609D01*
X176614810Y-130252476D01*
X176608899Y-130239486D01*
X176597875Y-130222542D01*
X176580957Y-130200763D01*
X176557359Y-130173270D01*
X176526299Y-130139182D01*
X176486993Y-130097618D01*
X176438658Y-130047698D01*
X176380510Y-129988542D01*
X176311766Y-129919268D01*
X176261113Y-129868465D01*
X176216323Y-129823823D01*
X176179836Y-129787976D01*
X176150199Y-129759650D01*
X176125959Y-129737567D01*
X176105660Y-129720451D01*
X176087851Y-129707028D01*
X176071076Y-129696019D01*
X176053883Y-129686150D01*
X176034819Y-129676145D01*
X176000463Y-129657288D01*
X175959340Y-129631718D01*
X175921355Y-129605112D01*
X175889245Y-129579529D01*
X175865748Y-129557033D01*
X175853601Y-129539683D01*
X175851292Y-129533044D01*
X175850257Y-129512086D01*
X175861860Y-129499887D01*
X175885599Y-129496546D01*
X175920973Y-129502165D01*
G37*
G36*
X163731996Y-130562246D02*
G01*
X163818156Y-130576417D01*
X163895306Y-130600183D01*
X163952258Y-130627860D01*
X164013540Y-130666279D01*
X164073977Y-130711810D01*
X164129162Y-130761131D01*
X164174690Y-130810919D01*
X164177735Y-130814694D01*
X164195700Y-130836112D01*
X164209498Y-130851155D01*
X164216351Y-130856767D01*
X164216589Y-130856707D01*
X164223029Y-130849211D01*
X164234520Y-130831637D01*
X164248744Y-130807511D01*
X164279355Y-130760984D01*
X164334485Y-130701068D01*
X164401739Y-130650331D01*
X164480265Y-130609380D01*
X164569211Y-130578824D01*
X164594577Y-130573128D01*
X164649308Y-130565499D01*
X164711771Y-130561245D01*
X164777329Y-130560374D01*
X164841345Y-130562894D01*
X164899182Y-130568815D01*
X164946204Y-130578144D01*
X164970555Y-130585363D01*
X165060660Y-130621775D01*
X165145619Y-130672265D01*
X165226162Y-130737323D01*
X165303020Y-130817438D01*
X165340320Y-130860958D01*
X165340513Y-130732376D01*
X165340706Y-130603793D01*
X165582046Y-130603793D01*
X165823386Y-130603793D01*
X165823386Y-131541566D01*
X165823386Y-132479340D01*
X165568199Y-132477252D01*
X165313012Y-132475164D01*
X165308893Y-131865881D01*
X165308531Y-131811659D01*
X165307813Y-131702844D01*
X165307129Y-131608194D01*
X165306388Y-131526564D01*
X165305499Y-131456810D01*
X165304370Y-131397791D01*
X165302910Y-131348361D01*
X165301026Y-131307379D01*
X165298627Y-131273700D01*
X165295621Y-131246181D01*
X165291917Y-131223679D01*
X165287423Y-131205051D01*
X165282048Y-131189153D01*
X165275699Y-131174841D01*
X165268285Y-131160973D01*
X165259714Y-131146404D01*
X165249895Y-131129993D01*
X165226475Y-131095190D01*
X165177666Y-131043654D01*
X165119955Y-131004606D01*
X165054513Y-130978597D01*
X164982509Y-130966176D01*
X164905113Y-130967893D01*
X164890104Y-130969781D01*
X164829079Y-130983018D01*
X164779840Y-131004904D01*
X164740288Y-131037043D01*
X164708327Y-131081036D01*
X164681860Y-131138486D01*
X164679882Y-131143771D01*
X164676945Y-131152239D01*
X164674387Y-131161330D01*
X164672174Y-131172130D01*
X164670273Y-131185724D01*
X164668650Y-131203199D01*
X164667271Y-131225640D01*
X164666101Y-131254134D01*
X164665106Y-131289766D01*
X164664253Y-131333622D01*
X164663508Y-131386788D01*
X164662837Y-131450350D01*
X164662205Y-131525393D01*
X164661579Y-131613004D01*
X164660925Y-131714269D01*
X164660208Y-131830273D01*
X164656252Y-132475164D01*
X164399087Y-132475164D01*
X164141921Y-132475164D01*
X164137700Y-131869837D01*
X164137298Y-131813030D01*
X164136501Y-131706796D01*
X164135724Y-131614728D01*
X164134936Y-131535708D01*
X164134107Y-131468616D01*
X164133204Y-131412335D01*
X164132198Y-131365745D01*
X164131057Y-131327729D01*
X164129751Y-131297167D01*
X164128249Y-131272942D01*
X164126518Y-131253934D01*
X164124530Y-131239026D01*
X164122253Y-131227098D01*
X164119655Y-131217033D01*
X164094280Y-131147863D01*
X164058401Y-131085304D01*
X164013769Y-131035901D01*
X163960242Y-130999561D01*
X163897680Y-130976190D01*
X163825942Y-130965695D01*
X163744886Y-130967981D01*
X163735092Y-130969068D01*
X163670663Y-130982465D01*
X163617449Y-131006279D01*
X163574057Y-131041603D01*
X163539094Y-131089529D01*
X163511166Y-131151148D01*
X163493074Y-131201208D01*
X163489118Y-131838186D01*
X163485161Y-132475164D01*
X163229695Y-132477252D01*
X162974229Y-132479340D01*
X162976855Y-131765103D01*
X162976907Y-131751065D01*
X162977362Y-131630109D01*
X162977795Y-131523824D01*
X162978232Y-131431169D01*
X162978700Y-131351102D01*
X162979226Y-131282582D01*
X162979834Y-131224568D01*
X162980551Y-131176016D01*
X162981404Y-131135888D01*
X162982418Y-131103140D01*
X162983620Y-131076731D01*
X162985035Y-131055621D01*
X162986691Y-131038767D01*
X162988612Y-131025128D01*
X162990825Y-131013662D01*
X162993357Y-131003329D01*
X162996233Y-130993086D01*
X162999839Y-130980993D01*
X163035604Y-130887164D01*
X163081714Y-130805300D01*
X163138194Y-130735369D01*
X163205069Y-130677340D01*
X163282364Y-130631182D01*
X163286375Y-130629247D01*
X163366013Y-130598046D01*
X163453833Y-130575572D01*
X163546396Y-130561998D01*
X163640263Y-130557498D01*
X163731996Y-130562246D01*
G37*
G36*
X175797163Y-129599552D02*
G01*
X175828882Y-129605435D01*
X175861901Y-129619050D01*
X175899217Y-129641829D01*
X175943822Y-129675204D01*
X175950473Y-129680434D01*
X175987353Y-129708067D01*
X176027213Y-129736203D01*
X176062513Y-129759489D01*
X176078276Y-129769395D01*
X176109510Y-129789789D01*
X176132350Y-129806757D01*
X176150528Y-129823595D01*
X176167779Y-129843594D01*
X176187834Y-129870050D01*
X176207170Y-129893262D01*
X176235627Y-129921489D01*
X176262785Y-129943118D01*
X176264635Y-129944364D01*
X176295579Y-129968802D01*
X176333316Y-130003876D01*
X176375888Y-130047288D01*
X176421337Y-130096737D01*
X176467705Y-130149927D01*
X176513035Y-130204559D01*
X176555367Y-130258333D01*
X176592743Y-130308952D01*
X176623206Y-130354117D01*
X176644798Y-130391530D01*
X176645379Y-130392679D01*
X176664458Y-130427060D01*
X176688183Y-130465431D01*
X176711558Y-130499697D01*
X176713563Y-130502483D01*
X176737099Y-130539744D01*
X176760510Y-130583812D01*
X176779676Y-130626986D01*
X176786054Y-130642653D01*
X176802486Y-130678696D01*
X176819297Y-130710781D01*
X176833700Y-130733411D01*
X176843878Y-130748569D01*
X176860887Y-130780651D01*
X176873751Y-130812947D01*
X176876545Y-130821070D01*
X176889784Y-130852394D01*
X176907717Y-130888559D01*
X176927288Y-130923272D01*
X176933274Y-130933176D01*
X176971211Y-130999240D01*
X177000124Y-131056613D01*
X177021307Y-131108069D01*
X177036055Y-131156381D01*
X177041604Y-131175883D01*
X177056384Y-131218753D01*
X177076015Y-131268937D01*
X177098698Y-131322269D01*
X177122632Y-131374586D01*
X177146019Y-131421724D01*
X177167058Y-131459519D01*
X177167418Y-131460112D01*
X177202016Y-131523480D01*
X177231596Y-131592129D01*
X177258432Y-131671328D01*
X177262667Y-131685354D01*
X177272829Y-131721110D01*
X177278493Y-131747233D01*
X177280084Y-131767794D01*
X177278029Y-131786864D01*
X177272751Y-131808513D01*
X177271399Y-131813066D01*
X177261168Y-131833134D01*
X177248308Y-131837666D01*
X177233009Y-131826690D01*
X177215463Y-131800235D01*
X177207174Y-131784188D01*
X177188942Y-131745355D01*
X177167851Y-131696987D01*
X177145370Y-131642588D01*
X177122966Y-131585663D01*
X177102107Y-131529714D01*
X177095167Y-131511427D01*
X177080166Y-131476472D01*
X177065223Y-131446619D01*
X177052731Y-131426848D01*
X177036154Y-131405107D01*
X177023975Y-131384815D01*
X177015925Y-131363020D01*
X177010279Y-131334961D01*
X177005313Y-131295874D01*
X177004707Y-131290591D01*
X177000319Y-131259354D01*
X176994336Y-131232665D01*
X176985232Y-131205931D01*
X176971483Y-131174557D01*
X176951562Y-131133949D01*
X176932676Y-131097812D01*
X176910482Y-131058071D01*
X176889511Y-131023028D01*
X176872544Y-130997482D01*
X176865387Y-130987240D01*
X176843432Y-130948290D01*
X176830774Y-130912309D01*
X176824609Y-130886506D01*
X176816310Y-130860784D01*
X176804946Y-130835331D01*
X176788865Y-130806948D01*
X176766416Y-130772436D01*
X176735947Y-130728597D01*
X176734789Y-130726954D01*
X176707983Y-130687129D01*
X176681906Y-130645361D01*
X176659489Y-130606511D01*
X176643662Y-130575442D01*
X176643090Y-130574180D01*
X176624627Y-130534331D01*
X176603518Y-130490109D01*
X176584220Y-130450857D01*
X176579103Y-130440398D01*
X176565829Y-130410362D01*
X176556578Y-130385014D01*
X176553105Y-130368969D01*
X176551827Y-130362107D01*
X176542369Y-130343859D01*
X176527264Y-130324581D01*
X176510791Y-130309317D01*
X176497228Y-130303108D01*
X176495914Y-130302524D01*
X176487250Y-130292711D01*
X176473862Y-130273298D01*
X176458052Y-130247548D01*
X176424536Y-130199394D01*
X176384510Y-130159940D01*
X176348607Y-130125373D01*
X176311766Y-130072027D01*
X176309446Y-130067948D01*
X176292653Y-130040270D01*
X176278685Y-130022727D01*
X176263944Y-130011620D01*
X176244828Y-130003251D01*
X176212148Y-129985319D01*
X176183315Y-129954839D01*
X176167245Y-129933261D01*
X176143451Y-129902640D01*
X176124916Y-129881570D01*
X176109270Y-129867777D01*
X176094144Y-129858984D01*
X176077169Y-129852918D01*
X176067208Y-129849341D01*
X176040562Y-129836917D01*
X176008345Y-129819413D01*
X175975473Y-129799414D01*
X175950470Y-129783287D01*
X175909192Y-129756714D01*
X175865147Y-129728407D01*
X175824429Y-129702283D01*
X175822225Y-129700867D01*
X175790000Y-129679309D01*
X175762908Y-129659667D01*
X175743737Y-129644058D01*
X175735274Y-129634597D01*
X175733607Y-129628894D01*
X175737077Y-129612607D01*
X175754346Y-129602452D01*
X175784557Y-129599045D01*
X175797163Y-129599552D01*
G37*
G36*
X176444345Y-129279132D02*
G01*
X176481308Y-129291098D01*
X176519284Y-129309373D01*
X176553231Y-129331538D01*
X176578111Y-129355176D01*
X176585205Y-129363494D01*
X176606813Y-129384153D01*
X176627152Y-129398343D01*
X176627779Y-129398667D01*
X176646482Y-129410753D01*
X176671177Y-129429687D01*
X176696694Y-129451516D01*
X176722213Y-129474392D01*
X176753844Y-129502238D01*
X176781250Y-129525875D01*
X176789430Y-129533039D01*
X176813970Y-129559581D01*
X176823611Y-129581237D01*
X176829640Y-129598119D01*
X176849834Y-129614670D01*
X176854400Y-129617169D01*
X176879995Y-129636186D01*
X176911015Y-129665334D01*
X176945354Y-129701977D01*
X176980905Y-129743479D01*
X177015563Y-129787206D01*
X177047221Y-129830522D01*
X177073774Y-129870791D01*
X177093116Y-129905379D01*
X177103140Y-129931649D01*
X177106350Y-129940328D01*
X177121946Y-129962623D01*
X177146972Y-129986939D01*
X177168964Y-130008826D01*
X177198549Y-130045508D01*
X177230856Y-130091521D01*
X177264208Y-130143974D01*
X177296925Y-130199977D01*
X177327330Y-130256642D01*
X177353743Y-130311077D01*
X177374487Y-130360394D01*
X177387882Y-130401702D01*
X177395423Y-130439714D01*
X177399855Y-130485621D01*
X177399584Y-130529226D01*
X177394842Y-130567262D01*
X177385860Y-130596463D01*
X177372871Y-130613563D01*
X177352419Y-130619483D01*
X177328384Y-130611250D01*
X177302788Y-130588682D01*
X177276548Y-130552360D01*
X177269908Y-130542398D01*
X177252376Y-130519260D01*
X177232566Y-130495779D01*
X177222425Y-130483793D01*
X177202257Y-130456505D01*
X177187206Y-130431827D01*
X177184276Y-130426377D01*
X177167935Y-130401447D01*
X177150857Y-130381585D01*
X177137447Y-130367900D01*
X177115979Y-130338759D01*
X177097346Y-130301655D01*
X177079387Y-130252694D01*
X177078028Y-130248562D01*
X177065026Y-130212872D01*
X177050323Y-130181000D01*
X177031679Y-130149066D01*
X177006854Y-130113193D01*
X176973610Y-130069502D01*
X176934364Y-130018605D01*
X176903965Y-129977551D01*
X176882008Y-129945654D01*
X176867525Y-129921505D01*
X176859546Y-129903696D01*
X176852006Y-129885282D01*
X176832360Y-129859865D01*
X176803130Y-129844422D01*
X176792764Y-129837909D01*
X176772535Y-129820996D01*
X176744905Y-129795606D01*
X176711582Y-129763466D01*
X176674273Y-129726300D01*
X176634686Y-129685837D01*
X176594528Y-129643801D01*
X176555507Y-129601919D01*
X176519330Y-129561918D01*
X176487705Y-129525524D01*
X176485803Y-129523300D01*
X176441239Y-129481073D01*
X176382206Y-129441058D01*
X176373149Y-129435627D01*
X176340103Y-129414385D01*
X176307094Y-129391300D01*
X176276783Y-129368441D01*
X176251836Y-129347873D01*
X176234914Y-129331666D01*
X176228682Y-129321885D01*
X176233379Y-129317059D01*
X176248018Y-129312160D01*
X176252824Y-129311903D01*
X176275080Y-129317656D01*
X176307663Y-129332665D01*
X176349300Y-129356140D01*
X176398719Y-129387291D01*
X176454648Y-129425329D01*
X176515815Y-129469463D01*
X176580948Y-129518903D01*
X176591374Y-129527027D01*
X176659957Y-129581810D01*
X176716295Y-129629566D01*
X176761497Y-129671372D01*
X176796670Y-129708304D01*
X176822923Y-129741439D01*
X176841364Y-129771851D01*
X176852632Y-129790088D01*
X176873162Y-129817811D01*
X176899051Y-129849404D01*
X176927230Y-129880970D01*
X176976426Y-129936792D01*
X177044922Y-130028584D01*
X177099066Y-130121114D01*
X177113302Y-130147772D01*
X177135590Y-130186069D01*
X177156973Y-130219694D01*
X177175641Y-130250724D01*
X177195396Y-130289520D01*
X177211216Y-130326517D01*
X177227021Y-130365761D01*
X177243419Y-130397541D01*
X177260609Y-130420084D01*
X177280671Y-130436688D01*
X177299514Y-130449200D01*
X177294296Y-130416565D01*
X177291112Y-130402631D01*
X177279535Y-130368634D01*
X177260157Y-130321749D01*
X177232878Y-130261741D01*
X177197597Y-130188373D01*
X177189691Y-130173274D01*
X177169005Y-130138054D01*
X177144199Y-130099571D01*
X177119049Y-130063812D01*
X177107172Y-130047328D01*
X177080348Y-130007237D01*
X177055025Y-129966047D01*
X177035414Y-129930471D01*
X177025139Y-129911027D01*
X177012005Y-129889337D01*
X176996109Y-129866891D01*
X176975760Y-129841606D01*
X176949268Y-129811399D01*
X176914946Y-129774188D01*
X176871103Y-129727890D01*
X176847675Y-129703185D01*
X176811236Y-129664153D01*
X176778750Y-129628628D01*
X176751983Y-129598574D01*
X176732701Y-129575954D01*
X176722668Y-129562734D01*
X176707099Y-129539234D01*
X176687520Y-129516177D01*
X176662715Y-129494500D01*
X176628277Y-129469866D01*
X176598928Y-129448675D01*
X176564281Y-129421505D01*
X176533323Y-129395277D01*
X176503609Y-129370764D01*
X176467766Y-129344501D01*
X176435124Y-129323522D01*
X176431569Y-129321450D01*
X176407559Y-129306401D01*
X176390430Y-129293844D01*
X176383691Y-129286317D01*
X176384099Y-129284773D01*
X176393942Y-129279354D01*
X176412929Y-129275932D01*
X176413435Y-129275892D01*
X176444345Y-129279132D01*
G37*
G36*
X176692355Y-129304885D02*
G01*
X176724891Y-129317560D01*
X176742467Y-129326599D01*
X176765208Y-129341684D01*
X176791070Y-129362842D01*
X176822439Y-129392060D01*
X176861703Y-129431322D01*
X176880474Y-129450329D01*
X176912868Y-129482402D01*
X176942201Y-129510581D01*
X176965843Y-129532356D01*
X176981162Y-129545219D01*
X176982410Y-129546165D01*
X177001000Y-129564399D01*
X177022225Y-129590841D01*
X177041735Y-129620110D01*
X177065415Y-129657072D01*
X177089931Y-129687933D01*
X177110406Y-129704715D01*
X177126379Y-129706943D01*
X177132139Y-129702885D01*
X177138031Y-129687730D01*
X177135961Y-129669037D01*
X177125978Y-129653594D01*
X177117532Y-129644518D01*
X177102688Y-129625042D01*
X177086400Y-129601016D01*
X177072599Y-129581596D01*
X177054882Y-129561494D01*
X177040599Y-129550346D01*
X177027129Y-129541165D01*
X177013639Y-129524036D01*
X177003233Y-129507364D01*
X176983438Y-129482227D01*
X176957723Y-129452817D01*
X176929144Y-129422381D01*
X176900757Y-129394166D01*
X176875617Y-129371418D01*
X176856781Y-129357384D01*
X176853123Y-129355202D01*
X176827875Y-129336707D01*
X176817830Y-129321894D01*
X176822624Y-129311715D01*
X176841892Y-129307120D01*
X176875271Y-129309061D01*
X176893476Y-129312782D01*
X176919399Y-129323234D01*
X176946746Y-129341231D01*
X176978090Y-129368566D01*
X177016002Y-129407028D01*
X177018430Y-129409596D01*
X177043594Y-129435696D01*
X177075759Y-129468406D01*
X177111045Y-129503805D01*
X177145569Y-129537969D01*
X177152705Y-129545029D01*
X177184761Y-129578035D01*
X177214346Y-129610416D01*
X177238434Y-129638774D01*
X177254000Y-129659711D01*
X177254702Y-129660804D01*
X177278406Y-129692477D01*
X177300126Y-129712837D01*
X177318163Y-129722085D01*
X177330820Y-129720421D01*
X177336396Y-129708046D01*
X177333193Y-129685161D01*
X177319513Y-129651967D01*
X177308790Y-129632957D01*
X177272442Y-129583978D01*
X177225434Y-129536325D01*
X177171144Y-129493607D01*
X177140109Y-129470611D01*
X177115605Y-129448175D01*
X177103733Y-129430879D01*
X177102380Y-129426735D01*
X177100640Y-129408901D01*
X177108571Y-129402003D01*
X177124896Y-129405803D01*
X177148336Y-129420066D01*
X177177612Y-129444554D01*
X177193652Y-129458289D01*
X177224481Y-129480875D01*
X177253386Y-129498236D01*
X177289623Y-129520507D01*
X177321531Y-129550184D01*
X177352496Y-129590958D01*
X177354140Y-129593385D01*
X177373129Y-129619463D01*
X177392798Y-129644036D01*
X177408684Y-129669193D01*
X177420005Y-129705944D01*
X177421215Y-129714530D01*
X177422021Y-129735182D01*
X177416276Y-129750342D01*
X177401729Y-129767602D01*
X177396106Y-129773764D01*
X177381714Y-129791698D01*
X177374077Y-129804603D01*
X177373596Y-129817939D01*
X177381395Y-129843045D01*
X177397332Y-129873036D01*
X177419722Y-129904235D01*
X177429477Y-129917345D01*
X177444500Y-129948407D01*
X177446393Y-129975962D01*
X177434814Y-129997901D01*
X177429740Y-130002390D01*
X177408970Y-130009886D01*
X177384188Y-130002552D01*
X177383271Y-130001982D01*
X177372268Y-129990329D01*
X177355918Y-129968073D01*
X177336122Y-129938179D01*
X177314778Y-129903609D01*
X177293787Y-129867328D01*
X177275048Y-129832298D01*
X177272472Y-129827494D01*
X177255755Y-129802592D01*
X177234433Y-129777364D01*
X177211862Y-129755177D01*
X177191401Y-129739396D01*
X177176404Y-129733388D01*
X177163047Y-129736871D01*
X177157290Y-129750348D01*
X177162820Y-129774102D01*
X177179697Y-129808277D01*
X177207979Y-129853015D01*
X177247724Y-129908459D01*
X177263187Y-129929857D01*
X177293541Y-129974830D01*
X177323635Y-130022552D01*
X177348779Y-130065725D01*
X177366347Y-130096808D01*
X177385602Y-130128920D01*
X177402103Y-130154452D01*
X177413539Y-130169695D01*
X177419481Y-130176499D01*
X177426560Y-130188669D01*
X177422175Y-130194787D01*
X177410448Y-130198128D01*
X177380311Y-130198081D01*
X177353820Y-130187759D01*
X177345754Y-130179250D01*
X177331270Y-130158389D01*
X177314046Y-130129516D01*
X177296296Y-130096160D01*
X177255924Y-130025921D01*
X177209491Y-129966413D01*
X177200409Y-129956527D01*
X177180952Y-129934387D01*
X177167446Y-129917611D01*
X177162389Y-129909231D01*
X177162375Y-129909039D01*
X177156722Y-129900050D01*
X177142810Y-129883556D01*
X177123514Y-129862981D01*
X177122016Y-129861442D01*
X177091743Y-129824131D01*
X177075621Y-129789789D01*
X177065126Y-129765091D01*
X177044721Y-129735572D01*
X177012917Y-129699344D01*
X177002075Y-129687503D01*
X176975756Y-129656244D01*
X176952707Y-129625648D01*
X176936944Y-129600921D01*
X176925145Y-129581006D01*
X176907711Y-129560942D01*
X176887427Y-129549604D01*
X176883232Y-129547947D01*
X176865872Y-129536989D01*
X176848864Y-129517918D01*
X176829113Y-129487435D01*
X176815393Y-129465036D01*
X176794679Y-129435918D01*
X176774037Y-129415386D01*
X176749406Y-129399751D01*
X176716723Y-129385322D01*
X176693159Y-129374403D01*
X176666393Y-129355859D01*
X176651749Y-129336413D01*
X176650965Y-129317849D01*
X176656473Y-129308416D01*
X176670259Y-129301835D01*
X176692355Y-129304885D01*
G37*
G36*
X169232743Y-131986876D02*
G01*
X169221584Y-132088380D01*
X169219381Y-132100300D01*
X169195187Y-132185398D01*
X169157952Y-132262013D01*
X169108231Y-132329693D01*
X169046579Y-132387988D01*
X168973551Y-132436448D01*
X168889703Y-132474622D01*
X168795590Y-132502060D01*
X168691766Y-132518310D01*
X168624556Y-132522179D01*
X168530547Y-132520221D01*
X168434546Y-132510779D01*
X168340805Y-132494466D01*
X168253572Y-132471901D01*
X168177098Y-132443699D01*
X168156394Y-132433818D01*
X168112816Y-132409461D01*
X168068820Y-132381013D01*
X168029430Y-132351828D01*
X167999671Y-132325261D01*
X167972249Y-132296811D01*
X167958857Y-132366205D01*
X167956509Y-132378068D01*
X167949276Y-132411553D01*
X167942371Y-132439689D01*
X167937020Y-132457360D01*
X167928575Y-132479120D01*
X167671214Y-132479120D01*
X167631840Y-132479097D01*
X167572973Y-132478970D01*
X167520644Y-132478744D01*
X167476710Y-132478434D01*
X167443029Y-132478054D01*
X167421459Y-132477619D01*
X167413857Y-132477142D01*
X167415432Y-132472152D01*
X167421302Y-132455898D01*
X167430023Y-132432640D01*
X167432825Y-132425179D01*
X167439568Y-132406054D01*
X167445494Y-132386664D01*
X167450666Y-132365897D01*
X167455146Y-132342643D01*
X167458996Y-132315789D01*
X167462280Y-132284224D01*
X167465060Y-132246837D01*
X167467399Y-132202515D01*
X167469359Y-132150149D01*
X167471002Y-132088626D01*
X167472393Y-132016835D01*
X167473592Y-131933664D01*
X167474663Y-131838002D01*
X167475669Y-131728737D01*
X167476672Y-131604759D01*
X167476743Y-131595564D01*
X167476971Y-131566577D01*
X167989409Y-131566577D01*
X167993239Y-131724142D01*
X167993805Y-131746446D01*
X167995439Y-131797937D01*
X167997422Y-131837485D01*
X168000045Y-131867934D01*
X168003600Y-131892130D01*
X168008380Y-131912917D01*
X168014675Y-131933139D01*
X168041231Y-131994928D01*
X168081815Y-132056136D01*
X168132299Y-132105438D01*
X168192098Y-132142278D01*
X168260627Y-132166104D01*
X168269705Y-132168034D01*
X168310592Y-132173608D01*
X168359787Y-132176824D01*
X168412498Y-132177681D01*
X168463934Y-132176180D01*
X168509305Y-132172319D01*
X168543817Y-132166101D01*
X168588807Y-132151168D01*
X168633167Y-132127114D01*
X168667179Y-132095079D01*
X168693548Y-132053019D01*
X168693805Y-132052496D01*
X168705065Y-132027105D01*
X168711598Y-132004090D01*
X168714573Y-131977401D01*
X168715157Y-131940985D01*
X168711549Y-131888014D01*
X168699707Y-131843066D01*
X168677973Y-131804482D01*
X168644682Y-131768178D01*
X168628409Y-131754043D01*
X168600695Y-131734071D01*
X168569396Y-131717013D01*
X168532477Y-131702208D01*
X168487905Y-131688995D01*
X168433644Y-131676714D01*
X168367661Y-131664704D01*
X168287922Y-131652303D01*
X168215444Y-131640777D01*
X168146774Y-131627453D01*
X168091524Y-131613586D01*
X168048414Y-131598849D01*
X168016164Y-131582917D01*
X167989409Y-131566577D01*
X167476971Y-131566577D01*
X167477638Y-131481685D01*
X167478460Y-131382445D01*
X167479242Y-131296740D01*
X167480020Y-131223466D01*
X167480829Y-131161519D01*
X167481704Y-131109797D01*
X167482680Y-131067196D01*
X167483791Y-131032612D01*
X167485074Y-131004941D01*
X167486562Y-130983080D01*
X167488291Y-130965925D01*
X167490296Y-130952373D01*
X167492612Y-130941320D01*
X167495274Y-130931663D01*
X167498317Y-130922297D01*
X167501662Y-130912845D01*
X167535217Y-130844140D01*
X167582488Y-130780789D01*
X167642073Y-130723958D01*
X167712572Y-130674812D01*
X167792584Y-130634517D01*
X167880706Y-130604237D01*
X167928777Y-130592484D01*
X168035085Y-130573837D01*
X168149496Y-130562296D01*
X168267920Y-130557947D01*
X168386268Y-130560877D01*
X168500450Y-130571171D01*
X168606377Y-130588916D01*
X168655189Y-130600479D01*
X168762444Y-130634837D01*
X168858105Y-130678818D01*
X168941822Y-130732088D01*
X169013242Y-130794311D01*
X169072013Y-130865151D01*
X169117785Y-130944273D01*
X169150206Y-131031340D01*
X169168923Y-131126017D01*
X169175541Y-131181426D01*
X168917654Y-131181426D01*
X168659767Y-131181426D01*
X168649662Y-131128014D01*
X168644132Y-131103259D01*
X168621959Y-131044203D01*
X168588542Y-130995882D01*
X168542964Y-130957183D01*
X168484311Y-130926996D01*
X168479908Y-130925249D01*
X168461762Y-130918795D01*
X168443639Y-130914265D01*
X168422370Y-130911330D01*
X168394786Y-130909666D01*
X168357718Y-130908945D01*
X168307996Y-130908842D01*
X168307127Y-130908843D01*
X168257126Y-130909152D01*
X168219763Y-130910086D01*
X168191898Y-130911960D01*
X168170394Y-130915091D01*
X168152113Y-130919797D01*
X168133915Y-130926392D01*
X168097599Y-130943424D01*
X168053962Y-130974909D01*
X168022795Y-131014694D01*
X168003036Y-131064285D01*
X167993621Y-131125187D01*
X167992475Y-131163749D01*
X167996903Y-131205311D01*
X168008935Y-131237878D01*
X168029394Y-131264653D01*
X168041853Y-131275958D01*
X168073171Y-131297143D01*
X168113053Y-131315602D01*
X168162950Y-131331766D01*
X168224311Y-131346065D01*
X168298587Y-131358928D01*
X168387228Y-131370787D01*
X168401130Y-131372459D01*
X168523315Y-131388383D01*
X168631027Y-131405015D01*
X168725486Y-131422826D01*
X168807915Y-131442283D01*
X168879535Y-131463857D01*
X168941566Y-131488016D01*
X168995230Y-131515229D01*
X169041748Y-131545965D01*
X169082341Y-131580693D01*
X169118231Y-131619883D01*
X169150639Y-131664004D01*
X169183219Y-131721443D01*
X169213472Y-131802876D01*
X169230010Y-131891531D01*
X169231428Y-131940985D01*
X169232743Y-131986876D01*
G37*
G36*
X176151551Y-129368398D02*
G01*
X176180383Y-129379852D01*
X176216682Y-129402208D01*
X176218177Y-129403253D01*
X176244083Y-129421246D01*
X176278437Y-129444972D01*
X176316937Y-129471467D01*
X176355286Y-129497766D01*
X176362936Y-129503051D01*
X176448971Y-129569648D01*
X176533323Y-129648695D01*
X176547406Y-129662939D01*
X176580196Y-129695406D01*
X176610719Y-129724743D01*
X176636076Y-129748188D01*
X176653368Y-129762983D01*
X176668427Y-129776669D01*
X176691943Y-129803794D01*
X176711494Y-129832530D01*
X176737580Y-129869073D01*
X176780085Y-129908552D01*
X176801061Y-129925764D01*
X176828102Y-129952208D01*
X176848563Y-129976951D01*
X176863498Y-129997848D01*
X176886307Y-130028306D01*
X176908941Y-130057284D01*
X176918243Y-130069054D01*
X176949752Y-130112628D01*
X176977543Y-130158298D01*
X177004130Y-130210486D01*
X177032029Y-130273609D01*
X177041775Y-130296469D01*
X177064703Y-130346071D01*
X177087677Y-130387942D01*
X177113641Y-130426644D01*
X177145539Y-130466741D01*
X177186315Y-130512796D01*
X177226396Y-130557896D01*
X177273462Y-130615691D01*
X177308842Y-130666387D01*
X177333262Y-130711187D01*
X177347446Y-130751295D01*
X177352121Y-130787916D01*
X177352011Y-130805775D01*
X177349985Y-130819071D01*
X177343621Y-130822760D01*
X177330535Y-130820435D01*
X177330119Y-130820335D01*
X177303003Y-130811682D01*
X177279346Y-130798608D01*
X177257234Y-130779077D01*
X177234753Y-130751054D01*
X177209990Y-130712503D01*
X177181032Y-130661389D01*
X177177467Y-130655006D01*
X177153605Y-130616781D01*
X177125892Y-130577831D01*
X177099622Y-130545679D01*
X177090253Y-130535138D01*
X177065662Y-130503727D01*
X177048193Y-130472804D01*
X177033651Y-130435348D01*
X177015120Y-130391094D01*
X176986045Y-130336848D01*
X176947198Y-130274111D01*
X176939077Y-130261643D01*
X176913178Y-130221337D01*
X176888724Y-130182546D01*
X176868151Y-130149161D01*
X176853895Y-130125071D01*
X176842447Y-130107052D01*
X176819682Y-130076039D01*
X176792056Y-130041945D01*
X176763237Y-130009448D01*
X176743664Y-129988492D01*
X176710153Y-129952507D01*
X176677665Y-129917511D01*
X176651102Y-129888778D01*
X176637219Y-129874047D01*
X176613838Y-129851851D01*
X176596178Y-129839854D01*
X176581865Y-129836254D01*
X176572852Y-129836772D01*
X176563238Y-129842726D01*
X176561018Y-129859324D01*
X176562536Y-129870496D01*
X176569998Y-129885076D01*
X176585746Y-129902972D01*
X176612035Y-129927183D01*
X176638376Y-129952668D01*
X176667234Y-129986074D01*
X176688319Y-130016871D01*
X176698191Y-130032535D01*
X176720021Y-130062309D01*
X176746945Y-130095371D01*
X176775253Y-130127022D01*
X176836459Y-130197871D01*
X176907550Y-130298484D01*
X176967186Y-130405576D01*
X177013187Y-130515591D01*
X177019054Y-130532060D01*
X177035532Y-130573102D01*
X177053334Y-130607304D01*
X177075223Y-130638840D01*
X177103964Y-130671886D01*
X177142320Y-130710616D01*
X177154062Y-130722131D01*
X177176257Y-130744854D01*
X177194024Y-130765465D01*
X177209586Y-130787255D01*
X177225166Y-130813515D01*
X177242989Y-130847537D01*
X177265277Y-130892609D01*
X177278473Y-130919386D01*
X177298379Y-130958939D01*
X177316061Y-130993105D01*
X177329979Y-131018924D01*
X177338591Y-131033435D01*
X177345517Y-131044451D01*
X177349624Y-131060030D01*
X177344425Y-131078456D01*
X177339339Y-131096279D01*
X177342334Y-131112389D01*
X177356112Y-131118124D01*
X177375139Y-131125091D01*
X177395946Y-131144276D01*
X177415716Y-131172600D01*
X177431824Y-131206984D01*
X177442181Y-131233053D01*
X177459262Y-131271724D01*
X177476368Y-131306709D01*
X177484123Y-131322871D01*
X177498069Y-131364130D01*
X177503708Y-131403186D01*
X177500748Y-131436476D01*
X177488900Y-131460438D01*
X177482064Y-131467404D01*
X177474632Y-131469906D01*
X177465371Y-131463241D01*
X177450186Y-131445867D01*
X177443962Y-131437880D01*
X177427129Y-131410876D01*
X177415964Y-131385260D01*
X177404079Y-131360140D01*
X177379218Y-131338177D01*
X177369034Y-131331553D01*
X177344571Y-131306318D01*
X177331865Y-131273231D01*
X177329839Y-131229927D01*
X177332513Y-131185382D01*
X177302374Y-131170660D01*
X177288754Y-131162841D01*
X177267096Y-131143649D01*
X177247781Y-131115840D01*
X177229319Y-131077060D01*
X177210219Y-131024952D01*
X177205364Y-131011025D01*
X177190310Y-130972649D01*
X177174209Y-130936963D01*
X177159809Y-130910217D01*
X177158401Y-130907956D01*
X177122605Y-130840846D01*
X177100824Y-130777874D01*
X177100329Y-130775934D01*
X177087205Y-130750278D01*
X177061012Y-130726441D01*
X177044522Y-130712750D01*
X177027995Y-130693313D01*
X177011051Y-130666087D01*
X176991191Y-130627532D01*
X176982948Y-130611178D01*
X176960584Y-130570255D01*
X176936769Y-130530379D01*
X176915434Y-130498262D01*
X176883539Y-130451746D01*
X176858759Y-130410224D01*
X176843298Y-130377129D01*
X176837965Y-130353969D01*
X176835777Y-130344062D01*
X176825861Y-130323183D01*
X176810654Y-130300191D01*
X176809161Y-130298215D01*
X176791134Y-130272229D01*
X176770358Y-130239496D01*
X176751036Y-130206610D01*
X176739302Y-130187046D01*
X176719518Y-130159176D01*
X176694008Y-130128701D01*
X176660628Y-130093112D01*
X176617237Y-130049899D01*
X176560809Y-129992652D01*
X176507942Y-129932819D01*
X176468091Y-129879476D01*
X176455758Y-129861502D01*
X176424013Y-129820567D01*
X176387755Y-129781998D01*
X176342364Y-129740696D01*
X176284861Y-129691914D01*
X176197957Y-129621611D01*
X176117143Y-129560866D01*
X176040118Y-129507907D01*
X176038872Y-129507091D01*
X176007212Y-129485683D01*
X175980700Y-129466535D01*
X175962080Y-129451710D01*
X175954096Y-129443270D01*
X175953581Y-129432692D01*
X175963208Y-129417458D01*
X175981469Y-129405739D01*
X176004191Y-129401052D01*
X176015383Y-129402164D01*
X176032956Y-129408779D01*
X176054738Y-129423037D01*
X176084070Y-129446856D01*
X176086916Y-129449280D01*
X176120484Y-129477156D01*
X176157025Y-129506502D01*
X176189118Y-129531348D01*
X176220263Y-129555700D01*
X176253052Y-129582814D01*
X176280115Y-129606611D01*
X176302915Y-129626690D01*
X176335891Y-129653782D01*
X176367155Y-129677721D01*
X176393250Y-129697405D01*
X176423624Y-129721676D01*
X176448084Y-129742604D01*
X176458032Y-129751068D01*
X176482333Y-129767063D01*
X176501495Y-129772952D01*
X176507146Y-129772704D01*
X176519767Y-129767573D01*
X176518899Y-129756627D01*
X176505025Y-129740948D01*
X176478629Y-129721622D01*
X176459970Y-129708396D01*
X176430500Y-129683459D01*
X176406929Y-129658990D01*
X176386530Y-129637149D01*
X176358200Y-129611146D01*
X176329085Y-129587768D01*
X176326084Y-129585547D01*
X176301258Y-129565954D01*
X176281254Y-129548161D01*
X176270165Y-129535776D01*
X176267302Y-129532043D01*
X176252516Y-129517486D01*
X176229846Y-129498175D01*
X176202906Y-129477256D01*
X176200583Y-129475531D01*
X176164996Y-129448263D01*
X176140848Y-129427452D01*
X176126361Y-129411111D01*
X176119756Y-129397256D01*
X176119253Y-129383901D01*
X176120407Y-129378973D01*
X176131216Y-129368040D01*
X176151551Y-129368398D01*
G37*
G36*
X175739807Y-129715477D02*
G01*
X175788401Y-129733377D01*
X175846164Y-129763410D01*
X175913436Y-129805705D01*
X175939807Y-129823322D01*
X175969234Y-129842738D01*
X175992529Y-129857837D01*
X176006206Y-129866342D01*
X176020555Y-129879642D01*
X176032192Y-129899971D01*
X176032870Y-129901854D01*
X176043335Y-129918530D01*
X176059851Y-129923295D01*
X176065100Y-129923431D01*
X176084995Y-129927601D01*
X176103192Y-129939292D01*
X176122450Y-129960797D01*
X176145529Y-129994403D01*
X176155108Y-130008554D01*
X176188323Y-130049117D01*
X176223273Y-130081148D01*
X176247209Y-130101376D01*
X176277237Y-130130943D01*
X176302954Y-130160352D01*
X176324282Y-130185534D01*
X176354455Y-130217399D01*
X176382853Y-130244002D01*
X176393675Y-130253630D01*
X176417627Y-130279212D01*
X176438800Y-130309878D01*
X176460875Y-130350660D01*
X176463470Y-130355899D01*
X176480343Y-130393188D01*
X176490200Y-130421606D01*
X176492255Y-130438942D01*
X176492636Y-130446484D01*
X176500897Y-130468135D01*
X176517680Y-130497600D01*
X176541428Y-130532500D01*
X176570587Y-130570459D01*
X176603600Y-130609097D01*
X176621860Y-130631296D01*
X176642216Y-130660438D01*
X176656191Y-130685531D01*
X176664117Y-130701882D01*
X176681135Y-130732639D01*
X176699370Y-130761868D01*
X176700391Y-130763408D01*
X176716688Y-130792545D01*
X176733233Y-130828988D01*
X176746593Y-130865225D01*
X176755001Y-130891488D01*
X176765813Y-130923037D01*
X176776579Y-130950162D01*
X176789024Y-130976410D01*
X176804872Y-131005324D01*
X176825847Y-131040449D01*
X176853674Y-131085329D01*
X176859094Y-131094013D01*
X176882747Y-131132503D01*
X176899507Y-131161624D01*
X176910827Y-131184653D01*
X176918158Y-131204864D01*
X176922955Y-131225534D01*
X176926668Y-131249939D01*
X176927486Y-131255735D01*
X176941070Y-131314165D01*
X176965506Y-131374239D01*
X176971601Y-131387032D01*
X176984206Y-131414888D01*
X176992949Y-131436242D01*
X176996221Y-131447268D01*
X176999662Y-131456858D01*
X177010022Y-131475780D01*
X177024884Y-131499120D01*
X177038202Y-131520043D01*
X177052637Y-131545845D01*
X177061259Y-131565195D01*
X177071251Y-131594409D01*
X177085663Y-131634043D01*
X177102268Y-131677993D01*
X177119566Y-131722413D01*
X177136058Y-131763457D01*
X177150245Y-131797282D01*
X177160627Y-131820041D01*
X177173221Y-131852420D01*
X177180312Y-131887183D01*
X177181428Y-131919795D01*
X177176772Y-131947053D01*
X177166547Y-131965757D01*
X177150955Y-131972703D01*
X177139995Y-131971652D01*
X177129306Y-131965976D01*
X177120168Y-131952954D01*
X177110827Y-131929906D01*
X177099530Y-131894153D01*
X177089790Y-131866317D01*
X177073839Y-131827476D01*
X177054548Y-131784889D01*
X177034199Y-131743810D01*
X177017979Y-131712181D01*
X176981346Y-131636337D01*
X176950193Y-131565295D01*
X176925683Y-131501799D01*
X176908981Y-131448595D01*
X176900011Y-131420799D01*
X176887171Y-131391456D01*
X176874371Y-131370838D01*
X176872793Y-131368929D01*
X176858038Y-131343228D01*
X176853791Y-131312192D01*
X176853674Y-131307536D01*
X176846193Y-131270110D01*
X176826802Y-131223781D01*
X176820798Y-131211695D01*
X176789535Y-131148057D01*
X176761267Y-131089323D01*
X176736844Y-131037326D01*
X176717116Y-130993899D01*
X176702934Y-130960875D01*
X176695149Y-130940086D01*
X176690906Y-130927665D01*
X176678931Y-130898082D01*
X176665238Y-130868871D01*
X176658454Y-130854175D01*
X176647051Y-130822379D01*
X176640601Y-130794313D01*
X176637235Y-130775674D01*
X176628765Y-130758450D01*
X176612668Y-130746313D01*
X176596283Y-130733371D01*
X176583786Y-130707091D01*
X176582315Y-130700985D01*
X176573406Y-130681185D01*
X176561872Y-130671414D01*
X176550520Y-130674429D01*
X176550220Y-130674765D01*
X176549257Y-130686258D01*
X176555330Y-130703772D01*
X176556867Y-130706904D01*
X176567226Y-130731397D01*
X176576630Y-130758092D01*
X176581419Y-130773140D01*
X176597115Y-130818815D01*
X176614897Y-130866489D01*
X176633072Y-130911882D01*
X176649950Y-130950715D01*
X176663838Y-130978710D01*
X176674180Y-130999662D01*
X176688561Y-131035654D01*
X176699430Y-131070647D01*
X176707711Y-131102394D01*
X176722146Y-131153389D01*
X176737062Y-131201592D01*
X176751419Y-131243853D01*
X176764181Y-131277021D01*
X176774310Y-131297946D01*
X176775288Y-131299588D01*
X176785526Y-131324648D01*
X176789383Y-131349379D01*
X176791608Y-131365721D01*
X176801336Y-131395080D01*
X176817311Y-131429275D01*
X176819831Y-131434079D01*
X176833048Y-131460829D01*
X176842357Y-131482280D01*
X176845878Y-131494159D01*
X176847176Y-131500220D01*
X176853645Y-131519164D01*
X176864318Y-131546525D01*
X176877811Y-131578647D01*
X176884674Y-131594893D01*
X176899923Y-131633809D01*
X176913022Y-131670825D01*
X176921713Y-131699712D01*
X176936014Y-131752846D01*
X176948555Y-131791519D01*
X176959077Y-131814663D01*
X176967610Y-131822360D01*
X176975295Y-131824742D01*
X176992221Y-131838077D01*
X177011711Y-131860199D01*
X177030944Y-131887735D01*
X177047096Y-131917314D01*
X177057850Y-131946624D01*
X177066390Y-131991069D01*
X177067181Y-132034606D01*
X177059719Y-132071097D01*
X177052299Y-132084832D01*
X177043720Y-132091395D01*
X177042884Y-132091241D01*
X177033617Y-132083158D01*
X177019793Y-132065569D01*
X177003940Y-132042346D01*
X176988583Y-132017362D01*
X176976251Y-131994490D01*
X176969469Y-131977601D01*
X176967757Y-131973023D01*
X176953328Y-131955229D01*
X176928511Y-131937249D01*
X176903301Y-131920135D01*
X176878881Y-131893203D01*
X176866027Y-131859832D01*
X176862695Y-131816268D01*
X176862522Y-131791709D01*
X176859426Y-131770340D01*
X176851077Y-131752186D01*
X176835266Y-131730320D01*
X176822444Y-131712312D01*
X176812331Y-131693381D01*
X176804200Y-131670705D01*
X176797177Y-131641282D01*
X176790391Y-131602111D01*
X176782971Y-131550188D01*
X176782723Y-131548408D01*
X176775282Y-131512263D01*
X176761865Y-131467008D01*
X176742117Y-131411705D01*
X176715684Y-131345415D01*
X176682211Y-131267202D01*
X176641343Y-131176129D01*
X176630790Y-131152800D01*
X176609525Y-131103318D01*
X176594035Y-131062108D01*
X176583060Y-131025159D01*
X176575338Y-130988460D01*
X176569608Y-130947999D01*
X176565569Y-130920005D01*
X176557760Y-130887486D01*
X176545264Y-130854726D01*
X176525970Y-130815306D01*
X176514907Y-130793280D01*
X176498206Y-130753069D01*
X176490443Y-130718766D01*
X176490905Y-130686028D01*
X176498877Y-130650513D01*
X176500574Y-130644736D01*
X176503953Y-130626591D01*
X176499419Y-130613644D01*
X176484909Y-130598162D01*
X176483114Y-130596336D01*
X176469356Y-130579118D01*
X176450520Y-130552047D01*
X176428852Y-130518463D01*
X176406598Y-130481707D01*
X176351924Y-130397536D01*
X176286130Y-130316493D01*
X176262529Y-130289666D01*
X176236047Y-130256788D01*
X176214324Y-130226836D01*
X176200535Y-130203982D01*
X176191475Y-130187449D01*
X176179333Y-130169717D01*
X176162808Y-130149572D01*
X176140403Y-130125400D01*
X176110622Y-130095591D01*
X176071970Y-130058532D01*
X176022949Y-130012611D01*
X176018890Y-130008913D01*
X175987192Y-129983011D01*
X175945236Y-129952282D01*
X175896252Y-129918876D01*
X175843467Y-129884938D01*
X175790111Y-129852617D01*
X175739413Y-129824059D01*
X175721415Y-129813390D01*
X175695952Y-129795183D01*
X175678089Y-129778644D01*
X175669831Y-129767209D01*
X175660502Y-129744662D01*
X175660911Y-129725715D01*
X175671478Y-129714453D01*
X175700043Y-129709582D01*
X175739807Y-129715477D01*
G37*
G36*
X161751927Y-131917314D02*
G01*
X161751162Y-131969924D01*
X161748078Y-132024290D01*
X161741885Y-132070242D01*
X161731784Y-132111842D01*
X161716977Y-132153147D01*
X161696664Y-132198217D01*
X161694648Y-132202347D01*
X161647587Y-132280334D01*
X161588441Y-132348309D01*
X161517577Y-132406020D01*
X161435360Y-132453213D01*
X161342157Y-132489635D01*
X161238333Y-132515034D01*
X161209915Y-132518957D01*
X161162717Y-132522697D01*
X161107626Y-132524934D01*
X161049066Y-132525629D01*
X160991463Y-132524742D01*
X160939242Y-132522233D01*
X160896828Y-132518064D01*
X160859500Y-132512112D01*
X160783221Y-132495615D01*
X160708520Y-132474123D01*
X160638959Y-132448860D01*
X160578099Y-132421048D01*
X160529503Y-132391911D01*
X160507027Y-132375906D01*
X160489132Y-132431470D01*
X160471236Y-132487033D01*
X160124165Y-132487033D01*
X160072886Y-132486968D01*
X160004155Y-132486664D01*
X159941773Y-132486136D01*
X159887320Y-132485412D01*
X159842374Y-132484519D01*
X159808515Y-132483485D01*
X159787323Y-132482335D01*
X159780377Y-132481099D01*
X159782848Y-132476876D01*
X159792279Y-132461104D01*
X159806765Y-132437040D01*
X159824370Y-132407905D01*
X159834614Y-132391063D01*
X159838721Y-132384167D01*
X159952500Y-132384167D01*
X160176459Y-132384167D01*
X160400418Y-132384167D01*
X160410297Y-132342625D01*
X160415823Y-132313698D01*
X160421019Y-132276563D01*
X160424656Y-132239759D01*
X160425217Y-132232445D01*
X160427849Y-132204969D01*
X160430545Y-132185701D01*
X160432801Y-132178435D01*
X160432881Y-132178439D01*
X160439977Y-132184235D01*
X160451641Y-132197726D01*
X160465774Y-132213277D01*
X160495398Y-132239971D01*
X160532550Y-132269237D01*
X160573400Y-132298258D01*
X160614121Y-132324219D01*
X160650883Y-132344302D01*
X160661375Y-132349209D01*
X160725456Y-132373859D01*
X160800101Y-132395176D01*
X160880990Y-132412066D01*
X160963803Y-132423436D01*
X161051622Y-132429117D01*
X161135594Y-132426924D01*
X161216911Y-132415935D01*
X161301236Y-132395685D01*
X161314643Y-132391717D01*
X161394436Y-132361012D01*
X161463136Y-132320866D01*
X161522971Y-132270015D01*
X161561297Y-132226177D01*
X161602234Y-132160930D01*
X161630928Y-132087849D01*
X161647821Y-132005727D01*
X161653354Y-131913357D01*
X161649397Y-131833098D01*
X161635398Y-131754726D01*
X161610685Y-131685749D01*
X161574629Y-131624460D01*
X161526601Y-131569152D01*
X161522086Y-131564800D01*
X161483332Y-131531556D01*
X161440369Y-131502233D01*
X161391743Y-131476363D01*
X161336004Y-131453480D01*
X161271699Y-131433116D01*
X161197376Y-131414805D01*
X161111585Y-131398080D01*
X161012872Y-131382473D01*
X160899787Y-131367517D01*
X160872212Y-131364106D01*
X160801545Y-131354895D01*
X160743684Y-131346430D01*
X160696425Y-131338256D01*
X160657562Y-131329917D01*
X160624891Y-131320960D01*
X160596207Y-131310930D01*
X160569305Y-131299371D01*
X160534324Y-131281609D01*
X160504332Y-131261362D01*
X160482467Y-131238521D01*
X160464804Y-131209719D01*
X160458335Y-131192464D01*
X160452019Y-131155735D01*
X160450543Y-131112334D01*
X160453707Y-131067368D01*
X160461315Y-131025945D01*
X160473170Y-130993171D01*
X160502786Y-130948303D01*
X160541467Y-130912424D01*
X160590110Y-130885780D01*
X160650141Y-130867593D01*
X160722986Y-130857086D01*
X160756470Y-130854826D01*
X160843899Y-130855906D01*
X160921218Y-130867755D01*
X160987984Y-130890137D01*
X161043752Y-130922815D01*
X161088081Y-130965551D01*
X161120527Y-131018110D01*
X161140647Y-131080255D01*
X161150103Y-131126036D01*
X161374519Y-131126036D01*
X161598935Y-131126036D01*
X161593511Y-131088451D01*
X161593433Y-131087913D01*
X161572833Y-130999850D01*
X161537990Y-130916963D01*
X161490078Y-130841113D01*
X161430272Y-130774163D01*
X161359749Y-130717975D01*
X161292260Y-130678292D01*
X161196974Y-130636854D01*
X161091354Y-130605887D01*
X160974928Y-130585288D01*
X160847227Y-130574954D01*
X160707778Y-130574781D01*
X160646183Y-130577353D01*
X160561427Y-130583206D01*
X160488018Y-130591765D01*
X160423294Y-130603552D01*
X160364591Y-130619087D01*
X160309249Y-130638892D01*
X160254604Y-130663488D01*
X160189927Y-130700384D01*
X160129540Y-130747968D01*
X160102279Y-130774950D01*
X160067849Y-130816747D01*
X160041914Y-130861420D01*
X160020766Y-130914653D01*
X160020763Y-130914660D01*
X160017753Y-130924020D01*
X160015118Y-130933758D01*
X160012824Y-130944979D01*
X160010834Y-130958785D01*
X160009114Y-130976281D01*
X160007629Y-130998568D01*
X160006343Y-131026751D01*
X160005221Y-131061933D01*
X160004229Y-131105216D01*
X160003331Y-131157705D01*
X160002491Y-131220503D01*
X160001675Y-131294713D01*
X160000847Y-131381438D01*
X159999973Y-131481781D01*
X159999016Y-131596846D01*
X159998726Y-131632016D01*
X159997730Y-131747747D01*
X159996756Y-131849078D01*
X159995749Y-131937122D01*
X159994653Y-132012992D01*
X159993413Y-132077800D01*
X159991974Y-132132661D01*
X159990279Y-132178687D01*
X159988274Y-132216991D01*
X159985903Y-132248686D01*
X159983110Y-132274886D01*
X159979841Y-132296703D01*
X159976039Y-132315251D01*
X159971650Y-132331642D01*
X159966618Y-132346990D01*
X159960887Y-132362407D01*
X159952500Y-132384167D01*
X159838721Y-132384167D01*
X159844825Y-132373918D01*
X159853729Y-132357631D01*
X159861426Y-132341089D01*
X159868015Y-132323180D01*
X159873594Y-132302792D01*
X159878265Y-132278813D01*
X159882125Y-132250131D01*
X159885274Y-132215634D01*
X159887812Y-132174209D01*
X159889837Y-132124744D01*
X159891449Y-132066128D01*
X159892748Y-131997248D01*
X159893832Y-131916992D01*
X159894801Y-131824248D01*
X159895754Y-131717903D01*
X159896791Y-131596846D01*
X159897313Y-131536165D01*
X159898290Y-131424295D01*
X159899227Y-131326562D01*
X159900205Y-131241837D01*
X159901307Y-131168989D01*
X159902615Y-131106889D01*
X159904213Y-131054407D01*
X159906182Y-131010412D01*
X159908606Y-130973775D01*
X159911566Y-130943365D01*
X159915145Y-130918053D01*
X159919425Y-130896708D01*
X159924490Y-130878201D01*
X159930422Y-130861401D01*
X159937302Y-130845178D01*
X159945214Y-130828402D01*
X159954240Y-130809944D01*
X159971148Y-130781273D01*
X160001480Y-130741062D01*
X160039014Y-130698919D01*
X160080307Y-130658410D01*
X160121918Y-130623095D01*
X160160403Y-130596538D01*
X160171777Y-130590056D01*
X160249999Y-130553537D01*
X160340348Y-130523294D01*
X160440640Y-130499603D01*
X160548694Y-130482736D01*
X160662328Y-130472970D01*
X160779358Y-130470578D01*
X160897603Y-130475836D01*
X161014881Y-130489017D01*
X161078497Y-130500173D01*
X161192044Y-130529510D01*
X161295779Y-130569155D01*
X161389070Y-130618624D01*
X161471287Y-130677431D01*
X161541798Y-130745094D01*
X161599970Y-130821127D01*
X161645173Y-130905048D01*
X161676774Y-130996370D01*
X161680927Y-131014536D01*
X161686915Y-131047477D01*
X161692513Y-131085118D01*
X161697352Y-131124075D01*
X161701063Y-131160963D01*
X161703277Y-131192396D01*
X161703624Y-131214990D01*
X161701737Y-131225359D01*
X161700417Y-131225645D01*
X161686662Y-131226397D01*
X161659392Y-131227085D01*
X161620301Y-131227690D01*
X161571084Y-131228192D01*
X161513434Y-131228574D01*
X161449046Y-131228817D01*
X161379614Y-131228902D01*
X161061035Y-131228902D01*
X161055842Y-131183404D01*
X161050277Y-131144080D01*
X161035766Y-131084910D01*
X161014218Y-131038627D01*
X160984273Y-131003852D01*
X160944567Y-130979202D01*
X160893739Y-130963295D01*
X160830426Y-130954750D01*
X160794651Y-130953154D01*
X160734860Y-130955581D01*
X160680343Y-130964063D01*
X160633640Y-130977961D01*
X160597292Y-130996634D01*
X160573839Y-131019442D01*
X160563693Y-131040932D01*
X160554972Y-131073225D01*
X160550091Y-131108183D01*
X160549809Y-131140053D01*
X160554884Y-131163081D01*
X160567862Y-131181722D01*
X160589522Y-131198765D01*
X160620719Y-131213752D01*
X160662711Y-131227079D01*
X160716756Y-131239142D01*
X160784111Y-131250337D01*
X160866034Y-131261061D01*
X160907231Y-131266070D01*
X161031213Y-131283020D01*
X161140903Y-131301323D01*
X161237459Y-131321406D01*
X161322039Y-131343696D01*
X161395799Y-131368619D01*
X161459898Y-131396604D01*
X161515494Y-131428076D01*
X161563743Y-131463465D01*
X161605805Y-131503195D01*
X161642835Y-131547696D01*
X161672247Y-131590038D01*
X161703850Y-131646087D01*
X161726598Y-131703377D01*
X161741512Y-131765369D01*
X161749614Y-131835527D01*
X161751815Y-131913357D01*
X161751927Y-131917314D01*
G37*
G36*
X174803014Y-129475257D02*
G01*
X174800710Y-129475847D01*
X174778061Y-129486128D01*
X174756187Y-129502306D01*
X174739689Y-129520360D01*
X174733168Y-129536272D01*
X174733204Y-129539821D01*
X174734773Y-129548201D01*
X174740973Y-129549977D01*
X174754939Y-129544914D01*
X174779806Y-129532776D01*
X174791459Y-129527130D01*
X174820986Y-129514103D01*
X174846277Y-129504454D01*
X174855046Y-129501135D01*
X174880094Y-129489870D01*
X174911630Y-129474223D01*
X174944876Y-129456516D01*
X174950818Y-129453260D01*
X175026303Y-129417154D01*
X175094975Y-129394727D01*
X175157578Y-129385793D01*
X175214858Y-129390172D01*
X175224047Y-129392300D01*
X175237280Y-129398098D01*
X175238157Y-129405295D01*
X175226051Y-129414262D01*
X175200337Y-129425375D01*
X175160389Y-129439009D01*
X175105583Y-129455536D01*
X175084741Y-129461972D01*
X175046414Y-129475597D01*
X175012404Y-129489783D01*
X174988227Y-129502328D01*
X174973100Y-129511447D01*
X174949577Y-129524125D01*
X174932728Y-129531374D01*
X174925191Y-129534383D01*
X174903611Y-129545447D01*
X174874797Y-129561901D01*
X174842501Y-129581501D01*
X174811503Y-129601347D01*
X174810475Y-129602005D01*
X174782473Y-129621170D01*
X174766650Y-129634464D01*
X174757586Y-129649007D01*
X174762410Y-129658669D01*
X174781164Y-129662173D01*
X174805542Y-129659227D01*
X174833230Y-129646770D01*
X174863728Y-129622507D01*
X174867005Y-129619661D01*
X174889858Y-129603620D01*
X174923426Y-129583615D01*
X174964469Y-129561263D01*
X175009746Y-129538177D01*
X175056015Y-129515971D01*
X175100036Y-129496259D01*
X175138568Y-129480656D01*
X175168370Y-129470775D01*
X175180545Y-129467782D01*
X175225047Y-129460186D01*
X175271552Y-129456525D01*
X175316565Y-129456679D01*
X175356592Y-129460531D01*
X175388138Y-129467963D01*
X175407711Y-129478857D01*
X175409147Y-129480313D01*
X175419929Y-129492485D01*
X175419982Y-129499946D01*
X175409710Y-129508690D01*
X175405428Y-129511452D01*
X175390807Y-129516218D01*
X175368488Y-129517424D01*
X175334538Y-129515422D01*
X175325131Y-129514656D01*
X175295750Y-129513349D01*
X175272276Y-129515469D01*
X175247954Y-129522093D01*
X175216030Y-129534295D01*
X175208069Y-129537572D01*
X175181544Y-129549421D01*
X175162411Y-129559424D01*
X175154371Y-129565696D01*
X175155441Y-129573203D01*
X175169062Y-129578160D01*
X175195670Y-129577330D01*
X175234248Y-129570649D01*
X175261750Y-129564767D01*
X175299148Y-129557550D01*
X175326799Y-129553889D01*
X175348253Y-129553591D01*
X175367055Y-129556461D01*
X175386753Y-129562306D01*
X175398753Y-129566076D01*
X175425338Y-129572566D01*
X175445500Y-129575133D01*
X175462004Y-129578658D01*
X175480742Y-129590757D01*
X175488896Y-129600606D01*
X175488508Y-129607669D01*
X175474683Y-129614061D01*
X175467925Y-129616075D01*
X175443784Y-129619812D01*
X175416271Y-129620907D01*
X175407249Y-129620971D01*
X175398656Y-129621796D01*
X175374889Y-129624078D01*
X175346407Y-129630371D01*
X175339555Y-129632587D01*
X175318279Y-129639292D01*
X175304865Y-129643260D01*
X175300416Y-129645729D01*
X175294974Y-129657969D01*
X175295098Y-129659430D01*
X175297533Y-129662688D01*
X175298506Y-129663990D01*
X175308339Y-129667064D01*
X175326944Y-129668924D01*
X175356672Y-129669841D01*
X175399871Y-129670086D01*
X175404435Y-129670093D01*
X175446012Y-129670792D01*
X175483743Y-129672467D01*
X175513636Y-129674884D01*
X175531699Y-129677810D01*
X175545312Y-129682779D01*
X175570514Y-129697899D01*
X175588681Y-129716577D01*
X175595660Y-129735094D01*
X175595622Y-129736695D01*
X175593752Y-129742674D01*
X175587064Y-129746395D01*
X175572809Y-129748282D01*
X175548236Y-129748762D01*
X175510597Y-129748260D01*
X175492439Y-129748092D01*
X175443330Y-129748850D01*
X175393160Y-129750993D01*
X175350364Y-129754208D01*
X175342450Y-129755022D01*
X175306198Y-129759672D01*
X175279864Y-129765530D01*
X175258446Y-129774023D01*
X175236938Y-129786580D01*
X175226038Y-129793104D01*
X175196075Y-129808611D01*
X175159600Y-129825382D01*
X175122203Y-129840777D01*
X175121282Y-129841131D01*
X175063167Y-129864849D01*
X175016414Y-129887315D01*
X174976995Y-129910669D01*
X174940878Y-129937051D01*
X174931656Y-129944609D01*
X174913219Y-129962362D01*
X174908616Y-129973174D01*
X174917848Y-129977607D01*
X174940916Y-129976221D01*
X174950417Y-129974424D01*
X174973639Y-129967556D01*
X175005056Y-129955680D01*
X175045816Y-129938296D01*
X175097066Y-129914906D01*
X175159954Y-129885011D01*
X175235629Y-129848111D01*
X175271911Y-129830476D01*
X175305442Y-129815177D01*
X175332467Y-129804737D01*
X175357068Y-129797817D01*
X175383329Y-129793078D01*
X175415332Y-129789182D01*
X175445200Y-129786102D01*
X175495776Y-129782022D01*
X175534148Y-129780999D01*
X175562567Y-129783132D01*
X175583283Y-129788521D01*
X175598549Y-129797265D01*
X175600015Y-129798435D01*
X175613753Y-129811436D01*
X175619398Y-129820631D01*
X175616868Y-129824883D01*
X175602102Y-129832024D01*
X175577338Y-129838198D01*
X175546266Y-129842586D01*
X175512576Y-129844367D01*
X175473887Y-129845781D01*
X175396345Y-129855587D01*
X175322477Y-129873871D01*
X175254631Y-129899652D01*
X175195157Y-129931950D01*
X175146402Y-129969784D01*
X175110715Y-130012173D01*
X175097967Y-130030482D01*
X175074368Y-130054637D01*
X175044568Y-130072335D01*
X175022958Y-130084083D01*
X175000464Y-130103558D01*
X174980205Y-130132420D01*
X174974840Y-130140729D01*
X174954071Y-130167929D01*
X174927404Y-130198376D01*
X174899262Y-130226908D01*
X174871842Y-130254611D01*
X174844466Y-130287709D01*
X174827932Y-130315418D01*
X174820346Y-130329401D01*
X174801170Y-130356689D01*
X174774606Y-130389296D01*
X174743165Y-130424008D01*
X174720763Y-130448274D01*
X174674159Y-130505764D01*
X174639849Y-130560273D01*
X174636455Y-130566610D01*
X174616435Y-130603474D01*
X174595862Y-130640679D01*
X174578696Y-130671052D01*
X174561543Y-130704142D01*
X174552317Y-130731702D01*
X174553940Y-130748474D01*
X174566461Y-130754136D01*
X174570617Y-130753644D01*
X174588386Y-130741940D01*
X174607898Y-130714846D01*
X174628963Y-130672611D01*
X174641869Y-130648818D01*
X174662263Y-130618693D01*
X174684832Y-130590598D01*
X174692694Y-130581406D01*
X174714342Y-130554145D01*
X174740846Y-130518949D01*
X174769563Y-130479363D01*
X174797849Y-130438935D01*
X174832540Y-130390103D01*
X174888185Y-130319848D01*
X174948371Y-130254284D01*
X175018027Y-130187787D01*
X175021869Y-130184252D01*
X175045831Y-130160710D01*
X175073642Y-130131601D01*
X175100041Y-130102403D01*
X175148770Y-130053821D01*
X175171648Y-130036812D01*
X175394247Y-130036812D01*
X175397687Y-130043921D01*
X175409878Y-130047757D01*
X175432544Y-130048559D01*
X175467413Y-130046566D01*
X175516212Y-130042019D01*
X175531035Y-130040528D01*
X175570083Y-130037021D01*
X175598109Y-130035587D01*
X175618687Y-130036286D01*
X175635392Y-130039180D01*
X175651799Y-130044330D01*
X175676835Y-130053414D01*
X175722291Y-130070380D01*
X175739274Y-130077238D01*
X175756666Y-130084261D01*
X175782663Y-130096383D01*
X175802982Y-130108073D01*
X175820327Y-130120658D01*
X175837398Y-130135464D01*
X175863913Y-130159278D01*
X175896311Y-130187615D01*
X175926834Y-130213665D01*
X175954694Y-130238117D01*
X175961582Y-130244960D01*
X175988214Y-130271416D01*
X176020071Y-130308425D01*
X176052349Y-130351804D01*
X176087134Y-130404212D01*
X176126511Y-130468308D01*
X176147469Y-130502590D01*
X176172764Y-130542110D01*
X176195886Y-130576329D01*
X176214928Y-130602441D01*
X176227985Y-130617641D01*
X176236968Y-130625682D01*
X176253208Y-130638359D01*
X176262954Y-130643357D01*
X176263828Y-130643192D01*
X176267108Y-130634549D01*
X176266423Y-130616058D01*
X176262492Y-130592275D01*
X176256033Y-130567756D01*
X176247766Y-130547054D01*
X176244855Y-130541695D01*
X176233073Y-130521319D01*
X176215561Y-130491963D01*
X176194165Y-130456701D01*
X176170728Y-130418608D01*
X176144186Y-130377356D01*
X176105159Y-130322814D01*
X176062801Y-130271321D01*
X176014570Y-130220049D01*
X175957925Y-130166173D01*
X175890321Y-130106866D01*
X175865958Y-130086225D01*
X175830972Y-130057448D01*
X175802710Y-130036124D01*
X175777952Y-130020283D01*
X175753476Y-130007957D01*
X175726061Y-129997176D01*
X175692484Y-129985974D01*
X175684141Y-129983327D01*
X175655287Y-129975125D01*
X175632822Y-129971712D01*
X175609877Y-129972548D01*
X175579580Y-129977092D01*
X175549579Y-129981585D01*
X175516975Y-129985208D01*
X175492393Y-129986597D01*
X175476853Y-129987434D01*
X175443042Y-129994837D01*
X175415177Y-130008235D01*
X175398136Y-130025608D01*
X175397830Y-130026188D01*
X175394247Y-130036812D01*
X175171648Y-130036812D01*
X175221304Y-129999894D01*
X175304075Y-129955277D01*
X175395092Y-129920843D01*
X175492366Y-129897463D01*
X175593906Y-129886009D01*
X175612945Y-129885267D01*
X175679167Y-129886875D01*
X175739968Y-129896135D01*
X175797547Y-129914067D01*
X175854105Y-129941693D01*
X175911844Y-129980035D01*
X175972962Y-130030115D01*
X176039661Y-130092953D01*
X176044896Y-130098083D01*
X176066250Y-130117846D01*
X176083150Y-130131710D01*
X176092321Y-130136940D01*
X176096348Y-130138966D01*
X176107524Y-130151108D01*
X176120710Y-130170569D01*
X176126021Y-130178808D01*
X176144106Y-130203502D01*
X176167674Y-130232908D01*
X176193012Y-130262313D01*
X176209306Y-130281249D01*
X176246458Y-130328825D01*
X176286687Y-130385319D01*
X176327478Y-130447129D01*
X176366318Y-130510654D01*
X176372175Y-130521373D01*
X176382549Y-130547084D01*
X176389855Y-130578632D01*
X176395409Y-130621009D01*
X176396919Y-130634549D01*
X176398277Y-130646720D01*
X176402968Y-130675820D01*
X176409761Y-130698390D01*
X176420508Y-130719995D01*
X176437058Y-130746198D01*
X176437574Y-130746977D01*
X176455263Y-130774066D01*
X176467505Y-130794927D01*
X176475863Y-130813935D01*
X176481898Y-130835465D01*
X176487172Y-130863892D01*
X176493248Y-130903592D01*
X176495511Y-130917487D01*
X176504265Y-130960361D01*
X176515000Y-131002259D01*
X176525892Y-131035799D01*
X176531943Y-131052007D01*
X176545183Y-131089504D01*
X176559547Y-131132153D01*
X176572839Y-131173513D01*
X176579234Y-131193517D01*
X176594855Y-131239668D01*
X176611367Y-131285612D01*
X176626115Y-131323856D01*
X176658386Y-131405570D01*
X176688667Y-131488992D01*
X176711286Y-131560390D01*
X176726519Y-131620585D01*
X176729458Y-131633933D01*
X176757360Y-131730481D01*
X176795105Y-131821038D01*
X176841294Y-131902673D01*
X176894527Y-131972455D01*
X176907985Y-131987538D01*
X176936566Y-132020373D01*
X176956462Y-132045404D01*
X176969233Y-132065335D01*
X176976433Y-132082873D01*
X176979621Y-132100722D01*
X176980353Y-132121588D01*
X176980337Y-132125370D01*
X176977226Y-132162075D01*
X176969109Y-132184726D01*
X176956512Y-132192945D01*
X176939964Y-132186357D01*
X176919990Y-132164588D01*
X176903591Y-132143938D01*
X176880744Y-132117526D01*
X176856645Y-132091395D01*
X176840003Y-132072425D01*
X176813546Y-132035728D01*
X176794168Y-132000398D01*
X176783063Y-131977467D01*
X176767586Y-131950785D01*
X176753924Y-131932372D01*
X176751345Y-131929470D01*
X176739767Y-131910433D01*
X176729743Y-131881781D01*
X176720134Y-131840417D01*
X176713848Y-131812443D01*
X176700725Y-131770372D01*
X176686172Y-131742274D01*
X176682233Y-131736505D01*
X176667489Y-131708884D01*
X176656555Y-131679930D01*
X176656184Y-131678636D01*
X176646859Y-131653094D01*
X176632622Y-131620983D01*
X176616399Y-131588933D01*
X176597332Y-131551466D01*
X176579779Y-131508077D01*
X176567560Y-131463182D01*
X176559439Y-131412038D01*
X176554183Y-131349897D01*
X176551936Y-131315070D01*
X176549209Y-131284302D01*
X176545576Y-131262368D01*
X176540089Y-131245454D01*
X176531801Y-131229744D01*
X176519762Y-131211424D01*
X176501222Y-131179027D01*
X176481663Y-131133671D01*
X176465426Y-131084569D01*
X176454341Y-131037349D01*
X176450239Y-130997644D01*
X176449997Y-130987901D01*
X176446221Y-130961737D01*
X176436599Y-130933264D01*
X176419503Y-130897165D01*
X176419166Y-130896505D01*
X176401463Y-130857897D01*
X176384479Y-130814347D01*
X176371848Y-130775159D01*
X176365605Y-130753011D01*
X176352246Y-130711906D01*
X176340444Y-130685568D01*
X176329864Y-130673349D01*
X176320173Y-130674598D01*
X176311652Y-130687438D01*
X176305300Y-130714557D01*
X176304070Y-130750831D01*
X176308295Y-130792915D01*
X176311318Y-130806866D01*
X176320601Y-130839098D01*
X176334692Y-130881993D01*
X176352726Y-130933183D01*
X176373839Y-130990299D01*
X176397170Y-131050972D01*
X176421853Y-131112833D01*
X176447025Y-131173513D01*
X176450601Y-131182238D01*
X176462070Y-131217164D01*
X176469570Y-131255761D01*
X176474367Y-131304074D01*
X176476091Y-131323651D01*
X176481177Y-131364780D01*
X176488271Y-131410900D01*
X176496709Y-131458560D01*
X176498544Y-131467768D01*
X176505825Y-131504314D01*
X176514954Y-131544711D01*
X176523432Y-131576304D01*
X176530593Y-131595645D01*
X176540178Y-131609650D01*
X176557232Y-131630597D01*
X176577932Y-131653740D01*
X176587903Y-131664627D01*
X176605354Y-131686582D01*
X176614048Y-131704468D01*
X176616407Y-131722626D01*
X176621666Y-131750230D01*
X176636189Y-131779593D01*
X176649011Y-131803780D01*
X176650276Y-131810899D01*
X176655971Y-131842953D01*
X176656744Y-131857825D01*
X176668138Y-131906014D01*
X176691931Y-131955858D01*
X176726558Y-132003790D01*
X176746880Y-132029113D01*
X176767792Y-132058631D01*
X176782632Y-132083395D01*
X176791735Y-132098714D01*
X176812817Y-132126710D01*
X176836192Y-132151547D01*
X176849061Y-132163778D01*
X176864148Y-132181740D01*
X176871876Y-132199979D01*
X176875633Y-132224785D01*
X176876262Y-132232784D01*
X176874449Y-132264450D01*
X176864249Y-132283102D01*
X176845442Y-132289214D01*
X176837215Y-132287122D01*
X176826616Y-132275367D01*
X176826613Y-132275359D01*
X176819543Y-132264495D01*
X176803643Y-132245172D01*
X176781269Y-132220119D01*
X176754776Y-132192069D01*
X176733082Y-132168707D01*
X176699789Y-132129822D01*
X176668738Y-132090399D01*
X176644557Y-132056145D01*
X176631538Y-132036379D01*
X176611385Y-132008910D01*
X176591068Y-131987163D01*
X176566075Y-131966591D01*
X176531892Y-131942649D01*
X176505635Y-131924340D01*
X176465759Y-131893130D01*
X176429706Y-131859431D01*
X176394739Y-131820333D01*
X176358122Y-131772925D01*
X176317116Y-131714298D01*
X176315388Y-131711749D01*
X176285767Y-131669602D01*
X176253187Y-131625562D01*
X176221481Y-131584699D01*
X176194485Y-131552086D01*
X176189224Y-131546042D01*
X176145873Y-131495386D01*
X176111491Y-131453244D01*
X176084170Y-131417103D01*
X176062000Y-131384451D01*
X176043073Y-131352774D01*
X176028091Y-131328720D01*
X176000501Y-131296109D01*
X175963193Y-131264510D01*
X175937916Y-131243916D01*
X175900795Y-131207016D01*
X175864116Y-131161705D01*
X175826136Y-131105758D01*
X175785116Y-131036951D01*
X175784695Y-131036210D01*
X175764890Y-131002776D01*
X175746506Y-130974258D01*
X175731579Y-130953657D01*
X175722140Y-130943976D01*
X175706298Y-130938224D01*
X175677753Y-130935908D01*
X175650226Y-130940973D01*
X175630515Y-130952767D01*
X175628118Y-130955963D01*
X175620005Y-130977519D01*
X175614593Y-131010057D01*
X175612014Y-131049853D01*
X175612401Y-131093184D01*
X175615886Y-131136328D01*
X175622601Y-131175562D01*
X175630049Y-131203950D01*
X175641043Y-131235675D01*
X175655871Y-131268461D01*
X175675993Y-131305173D01*
X175702871Y-131348678D01*
X175737965Y-131401839D01*
X175751076Y-131421182D01*
X175771460Y-131450127D01*
X175790277Y-131474353D01*
X175809897Y-131496228D01*
X175832691Y-131518124D01*
X175861029Y-131542410D01*
X175897282Y-131571456D01*
X175943822Y-131607633D01*
X175967410Y-131627261D01*
X175996005Y-131653126D01*
X176022997Y-131679294D01*
X176023910Y-131680217D01*
X176052810Y-131708389D01*
X176086527Y-131739768D01*
X176117950Y-131767731D01*
X176158292Y-131807672D01*
X176200787Y-131866641D01*
X176214690Y-131888680D01*
X176234457Y-131915700D01*
X176260350Y-131947506D01*
X176293439Y-131985320D01*
X176334795Y-132030364D01*
X176385489Y-132083858D01*
X176446591Y-132147024D01*
X176464725Y-132166114D01*
X176496511Y-132203447D01*
X176515154Y-132232369D01*
X176520739Y-132253034D01*
X176513352Y-132265593D01*
X176510678Y-132267072D01*
X176501736Y-132269063D01*
X176489947Y-132266198D01*
X176472881Y-132257284D01*
X176448107Y-132241133D01*
X176413197Y-132216554D01*
X176395189Y-132203303D01*
X176351341Y-132167378D01*
X176316692Y-132133281D01*
X176292896Y-132102760D01*
X176281607Y-132077560D01*
X176271316Y-132057617D01*
X176245632Y-132036501D01*
X176238997Y-132032049D01*
X176215252Y-132010811D01*
X176197404Y-131987501D01*
X176195835Y-131984844D01*
X176174623Y-131959723D01*
X176147325Y-131939517D01*
X176140577Y-131935509D01*
X176110651Y-131909642D01*
X176080517Y-131869825D01*
X176069095Y-131852910D01*
X176038190Y-131813887D01*
X176002683Y-131779409D01*
X175959085Y-131746349D01*
X175903907Y-131711581D01*
X175893513Y-131705243D01*
X175853633Y-131677901D01*
X175811202Y-131644904D01*
X175768834Y-131608664D01*
X175729146Y-131571595D01*
X175694752Y-131536107D01*
X175668268Y-131504614D01*
X175652309Y-131479527D01*
X175622613Y-131414816D01*
X175593448Y-131348051D01*
X175570179Y-131290000D01*
X175551836Y-131237873D01*
X175537451Y-131188881D01*
X175526056Y-131140237D01*
X175516681Y-131089152D01*
X175514891Y-131078954D01*
X175507218Y-131046344D01*
X175498422Y-131021968D01*
X175489570Y-131008310D01*
X175481731Y-131007857D01*
X175480902Y-131009584D01*
X175478092Y-131023636D01*
X175475017Y-131048117D01*
X175472207Y-131079059D01*
X175470777Y-131127055D01*
X175474826Y-131196360D01*
X175484944Y-131266403D01*
X175500297Y-131331797D01*
X175520046Y-131387158D01*
X175521726Y-131390948D01*
X175535773Y-131424569D01*
X175548031Y-131456943D01*
X175556011Y-131481540D01*
X175559927Y-131493373D01*
X175577085Y-131523744D01*
X175606337Y-131556711D01*
X175627483Y-131578682D01*
X175654656Y-131609553D01*
X175676777Y-131637422D01*
X175697300Y-131663412D01*
X175725907Y-131691735D01*
X175760344Y-131716426D01*
X175805348Y-131741313D01*
X175806865Y-131742103D01*
X175829618Y-131756739D01*
X175861587Y-131780858D01*
X175900963Y-131812889D01*
X175945936Y-131851260D01*
X175994695Y-131894400D01*
X176045432Y-131940737D01*
X176096336Y-131988701D01*
X176145597Y-132036721D01*
X176147909Y-132039017D01*
X176213406Y-132103513D01*
X176273309Y-132161426D01*
X176326307Y-132211517D01*
X176371092Y-132252547D01*
X176406353Y-132283279D01*
X176460697Y-132328778D01*
X176521347Y-132328778D01*
X176522547Y-132328778D01*
X176554230Y-132329413D01*
X176574550Y-132331927D01*
X176587817Y-132337318D01*
X176598337Y-132346581D01*
X176601380Y-132350461D01*
X176612319Y-132372329D01*
X176622245Y-132402418D01*
X176629452Y-132434834D01*
X176632233Y-132463684D01*
X176629459Y-132473754D01*
X176618324Y-132478461D01*
X176597544Y-132475132D01*
X176565926Y-132463549D01*
X176522277Y-132443493D01*
X176492345Y-132428634D01*
X176455168Y-132408714D01*
X176422557Y-132388658D01*
X176391433Y-132366188D01*
X176358713Y-132339023D01*
X176321315Y-132304886D01*
X176276158Y-132261499D01*
X176254074Y-132240229D01*
X176216913Y-132205396D01*
X176181403Y-132173170D01*
X176150721Y-132146416D01*
X176128045Y-132127998D01*
X176125090Y-132125735D01*
X176094571Y-132099838D01*
X176061697Y-132068435D01*
X176033092Y-132037815D01*
X176030243Y-132034517D01*
X175981759Y-131980296D01*
X175941015Y-131938840D01*
X175907293Y-131909592D01*
X175879873Y-131891999D01*
X175858036Y-131885504D01*
X175841064Y-131889552D01*
X175840675Y-131891052D01*
X175847199Y-131902450D01*
X175864327Y-131924166D01*
X175891553Y-131955646D01*
X175928370Y-131996337D01*
X175974272Y-132045684D01*
X176028752Y-132103134D01*
X176091304Y-132168132D01*
X176161423Y-132240125D01*
X176177047Y-132255923D01*
X176194565Y-132273637D01*
X176243468Y-132321260D01*
X176286142Y-132359820D01*
X176325040Y-132391246D01*
X176362618Y-132417469D01*
X176401329Y-132440418D01*
X176443628Y-132462023D01*
X176467876Y-132475332D01*
X176496818Y-132495198D01*
X176521522Y-132516172D01*
X176538732Y-132535429D01*
X176545192Y-132550144D01*
X176539721Y-132561385D01*
X176521240Y-132567208D01*
X176490775Y-132565922D01*
X176449437Y-132557587D01*
X176398335Y-132542263D01*
X176395799Y-132541403D01*
X176350459Y-132524606D01*
X176308604Y-132505774D01*
X176266377Y-132482821D01*
X176219921Y-132453659D01*
X176165379Y-132416201D01*
X176139920Y-132398501D01*
X176105025Y-132375032D01*
X176073732Y-132354814D01*
X176050644Y-132340869D01*
X176023831Y-132324935D01*
X175977786Y-132294886D01*
X175928200Y-132260048D01*
X175879393Y-132223583D01*
X175835684Y-132188654D01*
X175801392Y-132158421D01*
X175797263Y-132154523D01*
X175763722Y-132124597D01*
X175725686Y-132092894D01*
X175690613Y-132065660D01*
X175679435Y-132057280D01*
X175628550Y-132015521D01*
X175581574Y-131971315D01*
X175540950Y-131927266D01*
X175509117Y-131885978D01*
X175488517Y-131850055D01*
X175478161Y-131827852D01*
X175457674Y-131793872D01*
X175434199Y-131769437D01*
X175404298Y-131750481D01*
X175397386Y-131746826D01*
X175383217Y-131737856D01*
X175371092Y-131726600D01*
X175359371Y-131710601D01*
X175346412Y-131687400D01*
X175330574Y-131654540D01*
X175310216Y-131609561D01*
X175308004Y-131604623D01*
X175285844Y-131557208D01*
X175267974Y-131523526D01*
X175253630Y-131502438D01*
X175242050Y-131492805D01*
X175232470Y-131493487D01*
X175226057Y-131501300D01*
X175222660Y-131522540D01*
X175226520Y-131552371D01*
X175237144Y-131587764D01*
X175254037Y-131625688D01*
X175281223Y-131676386D01*
X175324365Y-131750686D01*
X175366424Y-131815810D01*
X175406111Y-131869806D01*
X175442138Y-131910722D01*
X175453722Y-131922724D01*
X175484519Y-131957495D01*
X175516245Y-131996497D01*
X175543609Y-132033338D01*
X175592261Y-132103201D01*
X175665770Y-132134883D01*
X175687397Y-132144520D01*
X175722883Y-132162792D01*
X175749464Y-132181095D01*
X175771448Y-132202173D01*
X175803255Y-132237000D01*
X175832612Y-132267727D01*
X175857433Y-132291363D01*
X175880742Y-132310574D01*
X175905562Y-132328029D01*
X175934917Y-132346394D01*
X175946979Y-132353841D01*
X175984504Y-132378579D01*
X176021157Y-132404677D01*
X176050470Y-132427590D01*
X176069282Y-132441479D01*
X176101686Y-132462075D01*
X176142380Y-132485843D01*
X176188250Y-132511149D01*
X176236183Y-132536363D01*
X176283067Y-132559852D01*
X176325787Y-132579983D01*
X176361231Y-132595125D01*
X176386285Y-132603646D01*
X176400634Y-132608477D01*
X176419858Y-132622345D01*
X176425997Y-132639255D01*
X176418553Y-132656140D01*
X176397031Y-132669930D01*
X176395812Y-132670372D01*
X176375178Y-132674055D01*
X176344029Y-132675629D01*
X176307127Y-132674835D01*
X176270603Y-132671243D01*
X176228598Y-132661828D01*
X176187548Y-132645632D01*
X176144715Y-132621286D01*
X176097356Y-132587419D01*
X176042731Y-132542662D01*
X176032262Y-132534102D01*
X175999295Y-132509913D01*
X175961061Y-132484621D01*
X175923869Y-132462482D01*
X175898654Y-132447587D01*
X175861215Y-132423701D01*
X175818081Y-132394884D01*
X175772428Y-132363367D01*
X175727435Y-132331381D01*
X175686283Y-132301158D01*
X175652149Y-132274929D01*
X175628211Y-132254927D01*
X175618919Y-132245155D01*
X175601130Y-132224075D01*
X175579075Y-132196339D01*
X175555534Y-132165374D01*
X175535927Y-132139378D01*
X175516158Y-132114054D01*
X175501240Y-132095937D01*
X175493409Y-132087818D01*
X175488296Y-132082684D01*
X175475240Y-132066600D01*
X175457148Y-132042669D01*
X175436296Y-132013839D01*
X175423767Y-131996463D01*
X175397684Y-131961739D01*
X175372384Y-131929660D01*
X175351929Y-131905444D01*
X175351758Y-131905254D01*
X175329063Y-131877875D01*
X175303774Y-131844200D01*
X175281335Y-131811473D01*
X175280635Y-131810387D01*
X175260478Y-131781381D01*
X175246469Y-131766419D01*
X175238262Y-131765129D01*
X175234962Y-131773918D01*
X175242289Y-131791841D01*
X175246453Y-131799459D01*
X175255902Y-131822917D01*
X175263963Y-131850055D01*
X175266435Y-131859852D01*
X175279926Y-131900578D01*
X175295499Y-131927095D01*
X175313877Y-131940717D01*
X175321356Y-131945418D01*
X175337168Y-131963386D01*
X175352781Y-131989832D01*
X175358145Y-131999731D01*
X175376567Y-132028169D01*
X175400500Y-132060473D01*
X175426153Y-132091395D01*
X175434777Y-132101280D01*
X175464201Y-132136806D01*
X175493158Y-132174016D01*
X175516457Y-132206307D01*
X175533603Y-132230517D01*
X175563166Y-132266526D01*
X175596278Y-132298809D01*
X175636576Y-132330751D01*
X175687696Y-132365739D01*
X175705324Y-132377593D01*
X175733232Y-132397916D01*
X175754887Y-132415645D01*
X175766674Y-132427934D01*
X175771379Y-132434212D01*
X175795545Y-132456192D01*
X175828893Y-132477474D01*
X175866523Y-132495238D01*
X175903536Y-132506664D01*
X175905624Y-132507103D01*
X175924565Y-132511593D01*
X175941587Y-132517270D01*
X175958634Y-132525489D01*
X175977649Y-132537604D01*
X176000576Y-132554971D01*
X176029359Y-132578943D01*
X176065943Y-132610876D01*
X176112270Y-132652124D01*
X176114097Y-132653757D01*
X176144322Y-132680052D01*
X176167246Y-132697641D01*
X176186714Y-132708738D01*
X176206570Y-132715558D01*
X176230660Y-132720315D01*
X176247122Y-132724761D01*
X176259223Y-132734402D01*
X176257070Y-132745704D01*
X176240036Y-132756263D01*
X176214454Y-132761718D01*
X176178811Y-132763485D01*
X176139544Y-132761403D01*
X176102583Y-132755503D01*
X176081426Y-132748359D01*
X176049122Y-132734228D01*
X176009772Y-132715044D01*
X175966629Y-132692553D01*
X175922945Y-132668502D01*
X175881973Y-132644635D01*
X175846965Y-132622699D01*
X175821174Y-132604440D01*
X175812126Y-132597338D01*
X175783970Y-132575417D01*
X175750897Y-132549842D01*
X175718308Y-132524796D01*
X175708668Y-132517290D01*
X175671825Y-132486960D01*
X175634261Y-132453997D01*
X175602776Y-132424313D01*
X175598850Y-132420419D01*
X175565512Y-132388188D01*
X175528481Y-132353486D01*
X175495072Y-132323181D01*
X175493504Y-132321784D01*
X175458565Y-132286876D01*
X175422075Y-132244386D01*
X175389395Y-132200533D01*
X175376991Y-132182546D01*
X175347576Y-132140865D01*
X175317094Y-132098704D01*
X175290455Y-132062895D01*
X175274573Y-132041180D01*
X175244031Y-131991571D01*
X175224302Y-131944887D01*
X175214308Y-131916176D01*
X175200907Y-131881912D01*
X175188726Y-131854695D01*
X175186592Y-131850292D01*
X175178432Y-131829145D01*
X175172623Y-131803939D01*
X175168452Y-131770751D01*
X175165202Y-131725660D01*
X175161387Y-131674764D01*
X175155086Y-131627463D01*
X175146058Y-131590267D01*
X175133532Y-131560124D01*
X175116736Y-131533983D01*
X175094719Y-131505118D01*
X175091773Y-131341294D01*
X175091719Y-131338360D01*
X175090363Y-131284029D01*
X175088420Y-131230751D01*
X175086068Y-131182220D01*
X175083485Y-131142127D01*
X175080848Y-131114167D01*
X175078575Y-131095572D01*
X175169288Y-131095572D01*
X175170662Y-131173513D01*
X175171054Y-131185650D01*
X175175268Y-131263613D01*
X175181974Y-131328389D01*
X175191062Y-131379351D01*
X175202425Y-131415874D01*
X175215956Y-131437332D01*
X175218429Y-131438346D01*
X175221008Y-131433281D01*
X175222364Y-131418953D01*
X175222543Y-131393731D01*
X175221588Y-131355982D01*
X175219544Y-131304074D01*
X175218040Y-131267973D01*
X175216121Y-131217709D01*
X175214675Y-131175318D01*
X175299916Y-131175318D01*
X175302341Y-131209934D01*
X175307846Y-131243663D01*
X175316860Y-131280881D01*
X175329809Y-131325964D01*
X175331117Y-131330381D01*
X175341781Y-131368633D01*
X175351614Y-131407283D01*
X175358634Y-131438591D01*
X175363405Y-131459202D01*
X175372822Y-131490541D01*
X175382554Y-131514687D01*
X175393172Y-131533649D01*
X175414444Y-131567409D01*
X175441304Y-131607177D01*
X175471196Y-131649366D01*
X175501564Y-131690388D01*
X175529852Y-131726656D01*
X175553504Y-131754585D01*
X175560112Y-131762036D01*
X175586740Y-131794380D01*
X175615111Y-131831615D01*
X175640106Y-131867093D01*
X175651038Y-131883040D01*
X175671250Y-131910435D01*
X175688773Y-131931679D01*
X175700724Y-131943156D01*
X175709590Y-131949641D01*
X175729433Y-131966018D01*
X175751091Y-131985464D01*
X175763044Y-131996604D01*
X175788657Y-132020125D01*
X175810688Y-132039962D01*
X175815247Y-132044085D01*
X175838012Y-132066538D01*
X175857508Y-132088238D01*
X175858098Y-132088957D01*
X175868792Y-132100861D01*
X175883623Y-132115265D01*
X175904262Y-132133613D01*
X175932378Y-132157350D01*
X175969643Y-132187919D01*
X176017725Y-132226765D01*
X176036118Y-132240906D01*
X176053688Y-132252937D01*
X176063224Y-132257563D01*
X176069149Y-132255923D01*
X176068423Y-132246082D01*
X176054657Y-132227341D01*
X176027842Y-132199681D01*
X176027463Y-132199315D01*
X176000327Y-132171626D01*
X175970133Y-132138569D01*
X175943347Y-132107220D01*
X175940213Y-132103439D01*
X175919587Y-132080001D01*
X175890632Y-132048625D01*
X175855791Y-132011893D01*
X175817506Y-131972387D01*
X175778221Y-131932688D01*
X175764535Y-131918994D01*
X175712115Y-131866003D01*
X175669733Y-131822043D01*
X175636144Y-131785683D01*
X175610102Y-131755494D01*
X175590359Y-131730042D01*
X175575671Y-131707898D01*
X175564790Y-131687631D01*
X175563187Y-131684401D01*
X175548354Y-131659699D01*
X175527465Y-131630022D01*
X175504507Y-131601092D01*
X175491481Y-131585141D01*
X175468808Y-131552458D01*
X175449254Y-131515528D01*
X175429639Y-131468730D01*
X175412862Y-131423769D01*
X175394588Y-131368081D01*
X175381380Y-131316111D01*
X175372259Y-131262985D01*
X175366246Y-131203827D01*
X175362360Y-131133761D01*
X175360578Y-131084880D01*
X175359871Y-131045583D01*
X175360547Y-131015040D01*
X175362801Y-130989649D01*
X175366827Y-130965803D01*
X175372819Y-130939898D01*
X175373253Y-130938159D01*
X175379296Y-130913125D01*
X175493520Y-130913125D01*
X175499744Y-130934844D01*
X175501053Y-130936766D01*
X175514980Y-130945367D01*
X175532737Y-130939277D01*
X175553677Y-130918914D01*
X175577156Y-130884697D01*
X175580380Y-130879412D01*
X175599288Y-130851677D01*
X175617914Y-130828873D01*
X175632649Y-130815502D01*
X175638999Y-130811887D01*
X175673951Y-130801911D01*
X175710523Y-130807024D01*
X175747844Y-130826796D01*
X175785041Y-130860796D01*
X175821242Y-130908594D01*
X175826018Y-130915735D01*
X175845787Y-130943192D01*
X175870327Y-130975210D01*
X175895425Y-131006243D01*
X175907552Y-131020988D01*
X175926200Y-131044730D01*
X175939041Y-131062533D01*
X175943822Y-131071364D01*
X175945155Y-131074668D01*
X175955691Y-131078560D01*
X175964171Y-131075970D01*
X175966400Y-131063551D01*
X175957349Y-131040651D01*
X175936953Y-131007026D01*
X175936383Y-131006168D01*
X175918101Y-130974622D01*
X175899471Y-130936266D01*
X175884443Y-130899206D01*
X175867553Y-130852602D01*
X175851678Y-130812655D01*
X175837703Y-130783237D01*
X175824280Y-130761889D01*
X175810064Y-130746151D01*
X175793705Y-130733564D01*
X175768970Y-130720449D01*
X175727651Y-130709059D01*
X175686355Y-130708348D01*
X175650365Y-130718859D01*
X175644931Y-130721973D01*
X175622454Y-130738256D01*
X175594872Y-130761610D01*
X175565706Y-130788677D01*
X175538473Y-130816101D01*
X175516693Y-130840523D01*
X175503887Y-130858587D01*
X175495076Y-130885182D01*
X175493520Y-130913125D01*
X175379296Y-130913125D01*
X175382366Y-130900409D01*
X175391215Y-130861766D01*
X175397941Y-130830334D01*
X175402191Y-130811873D01*
X175410907Y-130788599D01*
X175425060Y-130767308D01*
X175448054Y-130741997D01*
X175455353Y-130734627D01*
X175481079Y-130711947D01*
X175505918Y-130697278D01*
X175536314Y-130686573D01*
X175557002Y-130679603D01*
X175589357Y-130665352D01*
X175615022Y-130650285D01*
X175646254Y-130627532D01*
X175599197Y-130627538D01*
X175574013Y-130628733D01*
X175540087Y-130635807D01*
X175502480Y-130651037D01*
X175500202Y-130652118D01*
X175455177Y-130675623D01*
X175417999Y-130700428D01*
X175387794Y-130728346D01*
X175363690Y-130761189D01*
X175344811Y-130800770D01*
X175330285Y-130848902D01*
X175319238Y-130907399D01*
X175310796Y-130978072D01*
X175304086Y-131062734D01*
X175302597Y-131085928D01*
X175300144Y-131135442D01*
X175299916Y-131175318D01*
X175214675Y-131175318D01*
X175214540Y-131171357D01*
X175213430Y-131132884D01*
X175212922Y-131106254D01*
X175212975Y-131091567D01*
X175214934Y-131043453D01*
X175219190Y-130990907D01*
X175225235Y-130937983D01*
X175232564Y-130888729D01*
X175240669Y-130847197D01*
X175249044Y-130817438D01*
X175258316Y-130791962D01*
X175271449Y-130755020D01*
X175283755Y-130719628D01*
X175298215Y-130682238D01*
X175317759Y-130646253D01*
X175342442Y-130616813D01*
X175374861Y-130591509D01*
X175417609Y-130567932D01*
X175473283Y-130543672D01*
X175483986Y-130539459D01*
X175544954Y-130520275D01*
X175597518Y-130513084D01*
X175643252Y-130517816D01*
X175683732Y-130534402D01*
X175700707Y-130544648D01*
X175723142Y-130560649D01*
X175733209Y-130573717D01*
X175732262Y-130586210D01*
X175721655Y-130600486D01*
X175712178Y-130611397D01*
X175708326Y-130621005D01*
X175714559Y-130627827D01*
X175728523Y-130632820D01*
X175749607Y-130635323D01*
X175753354Y-130635606D01*
X175774319Y-130640667D01*
X175802926Y-130650749D01*
X175834120Y-130664129D01*
X175865600Y-130679845D01*
X175888376Y-130695335D01*
X175902403Y-130713257D01*
X175910837Y-130737766D01*
X175916835Y-130773018D01*
X175917867Y-130779351D01*
X175925828Y-130806196D01*
X175941081Y-130836746D01*
X175965466Y-130874852D01*
X175973525Y-130886829D01*
X175995160Y-130920814D01*
X176014327Y-130953299D01*
X176027631Y-130978618D01*
X176034763Y-130996488D01*
X176042795Y-131026693D01*
X176046433Y-131055355D01*
X176046002Y-131063551D01*
X176045239Y-131078069D01*
X176038775Y-131090429D01*
X176034978Y-131093685D01*
X176031184Y-131109538D01*
X176038897Y-131132476D01*
X176057529Y-131160312D01*
X176065956Y-131171617D01*
X176082948Y-131199517D01*
X176094230Y-131224946D01*
X176102580Y-131248000D01*
X176126978Y-131300300D01*
X176160539Y-131359725D01*
X176201620Y-131423890D01*
X176248576Y-131490411D01*
X176299763Y-131556904D01*
X176353536Y-131620984D01*
X176408251Y-131680268D01*
X176422994Y-131695784D01*
X176450698Y-131726756D01*
X176475036Y-131756125D01*
X176492018Y-131779178D01*
X176511808Y-131804301D01*
X176530470Y-131818716D01*
X176545834Y-131821262D01*
X176555810Y-131810899D01*
X176555583Y-131803533D01*
X176545827Y-131784773D01*
X176525411Y-131759059D01*
X176525353Y-131758993D01*
X176503998Y-131731114D01*
X176481762Y-131696066D01*
X176463450Y-131661420D01*
X176456794Y-131647425D01*
X176440222Y-131617780D01*
X176423171Y-131596919D01*
X176402091Y-131580141D01*
X176391105Y-131572164D01*
X176352354Y-131534822D01*
X176315397Y-131485383D01*
X176282474Y-131426722D01*
X176267645Y-131399555D01*
X176246760Y-131367666D01*
X176226835Y-131342858D01*
X176214540Y-131327402D01*
X176194069Y-131294095D01*
X176171737Y-131250687D01*
X176148905Y-131200239D01*
X176126935Y-131145814D01*
X176107186Y-131090473D01*
X176091019Y-131037278D01*
X176078708Y-130993901D01*
X176058495Y-130928635D01*
X176037104Y-130865553D01*
X176015723Y-130807962D01*
X175995544Y-130759170D01*
X175977757Y-130722485D01*
X175975142Y-130717846D01*
X175950010Y-130680968D01*
X175913545Y-130637947D01*
X175864749Y-130587590D01*
X175832591Y-130556274D01*
X175806494Y-130532126D01*
X175785937Y-130515350D01*
X175768105Y-130503889D01*
X175750181Y-130495685D01*
X175729347Y-130488680D01*
X175680559Y-130477990D01*
X175611312Y-130473233D01*
X175574452Y-130474070D01*
X175546137Y-130477530D01*
X175519844Y-130485000D01*
X175488664Y-130497867D01*
X175456473Y-130511811D01*
X175422501Y-130525817D01*
X175395376Y-130536293D01*
X175376107Y-130543971D01*
X175339793Y-130563793D01*
X175308891Y-130589867D01*
X175282055Y-130624098D01*
X175257937Y-130668389D01*
X175235192Y-130724643D01*
X175212470Y-130794764D01*
X175210357Y-130801902D01*
X175194290Y-130861080D01*
X175182587Y-130916061D01*
X175174812Y-130970821D01*
X175170526Y-131029333D01*
X175169288Y-131095572D01*
X175078575Y-131095572D01*
X175076553Y-131079032D01*
X175070907Y-131025905D01*
X175067854Y-130982907D01*
X175067280Y-130946530D01*
X175069069Y-130913268D01*
X175073104Y-130879614D01*
X175073734Y-130875324D01*
X175079786Y-130838585D01*
X175086588Y-130812056D01*
X175096388Y-130790702D01*
X175111439Y-130769487D01*
X175133988Y-130743378D01*
X175139502Y-130737057D01*
X175159170Y-130710155D01*
X175174484Y-130679400D01*
X175188541Y-130638860D01*
X175208037Y-130585293D01*
X175238729Y-130529357D01*
X175277405Y-130485505D01*
X175325518Y-130452175D01*
X175384519Y-130427802D01*
X175386986Y-130427030D01*
X175409749Y-130420504D01*
X175431433Y-130415929D01*
X175455419Y-130413013D01*
X175485084Y-130411463D01*
X175523810Y-130410985D01*
X175574974Y-130411287D01*
X175600657Y-130411505D01*
X175646465Y-130411405D01*
X175677301Y-130410122D01*
X175693748Y-130407193D01*
X175696390Y-130402157D01*
X175685809Y-130394550D01*
X175662588Y-130383911D01*
X175627311Y-130369777D01*
X175586940Y-130356513D01*
X175518872Y-130345625D01*
X175453396Y-130349762D01*
X175391687Y-130368930D01*
X175372837Y-130377051D01*
X175347838Y-130385364D01*
X175325675Y-130387896D01*
X175299469Y-130385917D01*
X175256925Y-130380601D01*
X175220303Y-130426917D01*
X175209284Y-130442098D01*
X175187270Y-130476960D01*
X175162034Y-130521056D01*
X175135306Y-130571014D01*
X175108820Y-130623464D01*
X175084307Y-130675034D01*
X175063499Y-130722352D01*
X175048128Y-130762049D01*
X175037190Y-130798344D01*
X175028242Y-130836776D01*
X175023269Y-130868871D01*
X175021231Y-130888159D01*
X175016309Y-130923761D01*
X175010861Y-130953885D01*
X175008181Y-130971544D01*
X175007272Y-130995548D01*
X175008554Y-131027185D01*
X175012141Y-131069118D01*
X175018148Y-131124009D01*
X175020723Y-131147165D01*
X175025823Y-131199874D01*
X175029935Y-131251755D01*
X175032693Y-131297854D01*
X175033725Y-131333220D01*
X175034159Y-131353265D01*
X175039002Y-131415106D01*
X175048713Y-131486686D01*
X175062667Y-131564364D01*
X175080237Y-131644499D01*
X175100798Y-131723451D01*
X175110776Y-131760493D01*
X175120774Y-131801536D01*
X175128447Y-131837365D01*
X175132662Y-131863013D01*
X175136573Y-131887394D01*
X175146478Y-131913926D01*
X175164794Y-131939352D01*
X175168351Y-131943758D01*
X175185170Y-131969064D01*
X175203292Y-132001817D01*
X175219366Y-132036080D01*
X175229097Y-132057825D01*
X175255884Y-132104897D01*
X175289107Y-132145692D01*
X175293345Y-132150242D01*
X175315753Y-132175844D01*
X175343620Y-132209442D01*
X175373806Y-132247193D01*
X175403171Y-132285257D01*
X175407911Y-132291478D01*
X175439859Y-132331310D01*
X175474171Y-132371144D01*
X175507024Y-132406665D01*
X175534592Y-132433558D01*
X175550125Y-132447940D01*
X175575111Y-132473263D01*
X175594436Y-132495630D01*
X175604859Y-132511446D01*
X175620930Y-132533407D01*
X175652579Y-132554937D01*
X175663280Y-132561058D01*
X175691799Y-132582187D01*
X175715034Y-132605391D01*
X175723647Y-132615029D01*
X175745986Y-132634119D01*
X175767012Y-132645694D01*
X175773397Y-132648196D01*
X175795999Y-132659507D01*
X175824971Y-132676150D01*
X175855635Y-132695494D01*
X175869070Y-132704097D01*
X175911824Y-132727800D01*
X175961435Y-132749754D01*
X176022304Y-132771977D01*
X176127011Y-132807459D01*
X176122350Y-132831218D01*
X176121240Y-132836168D01*
X176113096Y-132854498D01*
X176098623Y-132866174D01*
X176076140Y-132871371D01*
X176043966Y-132870264D01*
X176000420Y-132863029D01*
X175943822Y-132849841D01*
X175876058Y-132828846D01*
X175809697Y-132799342D01*
X175746016Y-132760833D01*
X175683480Y-132712119D01*
X175620551Y-132651995D01*
X175555694Y-132579261D01*
X175487372Y-132492715D01*
X175473780Y-132474953D01*
X175435450Y-132427219D01*
X175393591Y-132377744D01*
X175352408Y-132331428D01*
X175316107Y-132293170D01*
X175298497Y-132275515D01*
X175270810Y-132248096D01*
X175251950Y-132230323D01*
X175240413Y-132221096D01*
X175234692Y-132219316D01*
X175233283Y-132223882D01*
X175234680Y-132233695D01*
X175235083Y-132235749D01*
X175237885Y-132247011D01*
X175242379Y-132259004D01*
X175249644Y-132273459D01*
X175260760Y-132292107D01*
X175276803Y-132316678D01*
X175298854Y-132348903D01*
X175327991Y-132390512D01*
X175365292Y-132443237D01*
X175429416Y-132528658D01*
X175506721Y-132618146D01*
X175587333Y-132696691D01*
X175673755Y-132766922D01*
X175682649Y-132773406D01*
X175717295Y-132797020D01*
X175755948Y-132821379D01*
X175795751Y-132844886D01*
X175833848Y-132865948D01*
X175867381Y-132882967D01*
X175893495Y-132894349D01*
X175909331Y-132898497D01*
X175914977Y-132899712D01*
X175928942Y-132910983D01*
X175939542Y-132928954D01*
X175942479Y-132947300D01*
X175941281Y-132953302D01*
X175935736Y-132961626D01*
X175922645Y-132965935D01*
X175897869Y-132968163D01*
X175882640Y-132968576D01*
X175829963Y-132962953D01*
X175774898Y-132945993D01*
X175716114Y-132917076D01*
X175652279Y-132875581D01*
X175582064Y-132820888D01*
X175557692Y-132800424D01*
X175511858Y-132760479D01*
X175476493Y-132726865D01*
X175449911Y-132697629D01*
X175430430Y-132670817D01*
X175416367Y-132644475D01*
X175406037Y-132616651D01*
X175401286Y-132601759D01*
X175387923Y-132566978D01*
X175373855Y-132543743D01*
X175356821Y-132528982D01*
X175334556Y-132519624D01*
X175333419Y-132519279D01*
X175306136Y-132506077D01*
X175291448Y-132485519D01*
X175287062Y-132454458D01*
X175287035Y-132453473D01*
X175282999Y-132434893D01*
X175272851Y-132405415D01*
X175257680Y-132367936D01*
X175238574Y-132325356D01*
X175237000Y-132321993D01*
X175216372Y-132276860D01*
X175195660Y-132229865D01*
X175177192Y-132186375D01*
X175163296Y-132151760D01*
X175159075Y-132140987D01*
X175142620Y-132102559D01*
X175125013Y-132065667D01*
X175109406Y-132037025D01*
X175097827Y-132015984D01*
X175081036Y-131979138D01*
X175068921Y-131945008D01*
X175068459Y-131943398D01*
X175057414Y-131911669D01*
X175041825Y-131874460D01*
X175024912Y-131839491D01*
X175021340Y-131832567D01*
X175007582Y-131802641D01*
X174997930Y-131776376D01*
X174994289Y-131758794D01*
X174994193Y-131756219D01*
X174991004Y-131735631D01*
X174984210Y-131706551D01*
X174975047Y-131674404D01*
X174974127Y-131671425D01*
X174964074Y-131635700D01*
X174955661Y-131600523D01*
X174950627Y-131573108D01*
X174946122Y-131546538D01*
X174938577Y-131511116D01*
X174929856Y-131476051D01*
X174926772Y-131464132D01*
X174922220Y-131443153D01*
X174918646Y-131420347D01*
X174915991Y-131393966D01*
X174914199Y-131362260D01*
X174913210Y-131323480D01*
X174912968Y-131275879D01*
X174913413Y-131217706D01*
X174914487Y-131147214D01*
X174916133Y-131062654D01*
X174916181Y-131060339D01*
X174917596Y-130995702D01*
X174919066Y-130944686D01*
X174920929Y-130905157D01*
X174923521Y-130874983D01*
X174927179Y-130852028D01*
X174932240Y-130834161D01*
X174939041Y-130819247D01*
X174947918Y-130805152D01*
X174959208Y-130789743D01*
X174966916Y-130776648D01*
X174979131Y-130750238D01*
X174992769Y-130716294D01*
X175006065Y-130678988D01*
X175011582Y-130662576D01*
X175021301Y-130634967D01*
X175031140Y-130609909D01*
X175042084Y-130585919D01*
X175055115Y-130561511D01*
X175071218Y-130535199D01*
X175091376Y-130505499D01*
X175116574Y-130470925D01*
X175147794Y-130429992D01*
X175186021Y-130381214D01*
X175232239Y-130323107D01*
X175247945Y-130303493D01*
X175802128Y-130303493D01*
X175804844Y-130331609D01*
X175807034Y-130336994D01*
X175818558Y-130355216D01*
X175837062Y-130379300D01*
X175859764Y-130405503D01*
X175866690Y-130413287D01*
X175891594Y-130443649D01*
X175920804Y-130481890D01*
X175951235Y-130523897D01*
X175979801Y-130565556D01*
X175993927Y-130586757D01*
X176017866Y-130622241D01*
X176038680Y-130652545D01*
X176054515Y-130674985D01*
X176063520Y-130686877D01*
X176064062Y-130687549D01*
X176071877Y-130702128D01*
X176082911Y-130728329D01*
X176096060Y-130762897D01*
X176110218Y-130802576D01*
X176124281Y-130844108D01*
X176137142Y-130884239D01*
X176147697Y-130919712D01*
X176154840Y-130947272D01*
X176157467Y-130963661D01*
X176157502Y-130965356D01*
X176159561Y-130984718D01*
X176164162Y-131013195D01*
X176170427Y-131045264D01*
X176177871Y-131081496D01*
X176185847Y-131122424D01*
X176192187Y-131157077D01*
X176195441Y-131173828D01*
X176203516Y-131200482D01*
X176212722Y-131211763D01*
X176223242Y-131207966D01*
X176226666Y-131201648D01*
X176229651Y-131180696D01*
X176228885Y-131150927D01*
X176224765Y-131116452D01*
X176217685Y-131081383D01*
X176208040Y-131049829D01*
X176205816Y-131043929D01*
X176196181Y-131015541D01*
X176191434Y-130992012D01*
X176190708Y-130966503D01*
X176193138Y-130932173D01*
X176193455Y-130928448D01*
X176245860Y-130928448D01*
X176247899Y-130954165D01*
X176248784Y-130959222D01*
X176254470Y-130985562D01*
X176262843Y-131019391D01*
X176272431Y-131054676D01*
X176274361Y-131061657D01*
X176284543Y-131104848D01*
X176293673Y-131152902D01*
X176297675Y-131180696D01*
X176299973Y-131196653D01*
X176301609Y-131210657D01*
X176306700Y-131248598D01*
X176312144Y-131282871D01*
X176317009Y-131307432D01*
X176317819Y-131310653D01*
X176330549Y-131347669D01*
X176349169Y-131387810D01*
X176370517Y-131424896D01*
X176391428Y-131452750D01*
X176394504Y-131456009D01*
X176408071Y-131468953D01*
X176415987Y-131474198D01*
X176419097Y-131467768D01*
X176416848Y-131450191D01*
X176410040Y-131424868D01*
X176399590Y-131395199D01*
X176386416Y-131364585D01*
X176374126Y-131334612D01*
X176359708Y-131277531D01*
X176355825Y-131220971D01*
X176363082Y-131169975D01*
X176367436Y-131152824D01*
X176368583Y-131136113D01*
X176363467Y-131119783D01*
X176350950Y-131096980D01*
X176341061Y-131077255D01*
X176327746Y-131042614D01*
X176318199Y-131008274D01*
X176311220Y-130980728D01*
X176300908Y-130948548D01*
X176289133Y-130917309D01*
X176277353Y-130890579D01*
X176267026Y-130871926D01*
X176259611Y-130864915D01*
X176256252Y-130866813D01*
X176250647Y-130880116D01*
X176246980Y-130902213D01*
X176245860Y-130928448D01*
X176193455Y-130928448D01*
X176196044Y-130898034D01*
X176197949Y-130860649D01*
X176196721Y-130829923D01*
X176191510Y-130801723D01*
X176181464Y-130771920D01*
X176165734Y-130736382D01*
X176143467Y-130690979D01*
X176103386Y-130615353D01*
X176064688Y-130552419D01*
X176028767Y-130504952D01*
X175995657Y-130473003D01*
X175984240Y-130462964D01*
X175970168Y-130442009D01*
X175960687Y-130411486D01*
X175960398Y-130410219D01*
X175941947Y-130363219D01*
X175911327Y-130323469D01*
X175871234Y-130294495D01*
X175856229Y-130287651D01*
X175828593Y-130281082D01*
X175810302Y-130286507D01*
X175807178Y-130292999D01*
X175802128Y-130303493D01*
X175247945Y-130303493D01*
X175259836Y-130288644D01*
X175358766Y-130288644D01*
X175364147Y-130293666D01*
X175383007Y-130292713D01*
X175384235Y-130292502D01*
X175406065Y-130287837D01*
X175436395Y-130280338D01*
X175469055Y-130271525D01*
X175477254Y-130269264D01*
X175518592Y-130260506D01*
X175553620Y-130259604D01*
X175588722Y-130267023D01*
X175630282Y-130283226D01*
X175657202Y-130294413D01*
X175681198Y-130301724D01*
X175694453Y-130301178D01*
X175698526Y-130292999D01*
X175696836Y-130282081D01*
X175683138Y-130261778D01*
X175657850Y-130245471D01*
X175623582Y-130233529D01*
X175582950Y-130226320D01*
X175538566Y-130224212D01*
X175493044Y-130227575D01*
X175448997Y-130236775D01*
X175409039Y-130252182D01*
X175385687Y-130264966D01*
X175366176Y-130278719D01*
X175358766Y-130288644D01*
X175259836Y-130288644D01*
X175287430Y-130254185D01*
X175294777Y-130244796D01*
X175306270Y-130228853D01*
X175310800Y-130220556D01*
X175307163Y-130216117D01*
X175293749Y-130218338D01*
X175273018Y-130227720D01*
X175247683Y-130242634D01*
X175220459Y-130261453D01*
X175194062Y-130282548D01*
X175171206Y-130304290D01*
X175169301Y-130306369D01*
X175152019Y-130327606D01*
X175131226Y-130356066D01*
X175111006Y-130386192D01*
X175087238Y-130420702D01*
X175058440Y-130458573D01*
X175031040Y-130491314D01*
X175027828Y-130494910D01*
X174994676Y-130535315D01*
X174971871Y-130571477D01*
X174957029Y-130607918D01*
X174947765Y-130649160D01*
X174939855Y-130680990D01*
X174925765Y-130720167D01*
X174908142Y-130758916D01*
X174876133Y-130821395D01*
X174865974Y-130967781D01*
X174865389Y-130976519D01*
X174862352Y-131032530D01*
X174859722Y-131098366D01*
X174857654Y-131168952D01*
X174856301Y-131239213D01*
X174855816Y-131304074D01*
X174855816Y-131493980D01*
X174901206Y-131636410D01*
X174914505Y-131678903D01*
X174928629Y-131725751D01*
X174940734Y-131767714D01*
X174949846Y-131801409D01*
X174954994Y-131823452D01*
X174959895Y-131842736D01*
X174973903Y-131879726D01*
X174991917Y-131914449D01*
X175005880Y-131937315D01*
X175030898Y-131979786D01*
X175049856Y-132015118D01*
X175064708Y-132047393D01*
X175077408Y-132080689D01*
X175089910Y-132119089D01*
X175096984Y-132140911D01*
X175109874Y-132176442D01*
X175122358Y-132206385D01*
X175132512Y-132225912D01*
X175134589Y-132229225D01*
X175147528Y-132256640D01*
X175155225Y-132284162D01*
X175161629Y-132305704D01*
X175174634Y-132334351D01*
X175191286Y-132363290D01*
X175213492Y-132399327D01*
X175229015Y-132430220D01*
X175237207Y-132456387D01*
X175239615Y-132481614D01*
X175239702Y-132484797D01*
X175247645Y-132516366D01*
X175265810Y-132547123D01*
X175290411Y-132570447D01*
X175291816Y-132571437D01*
X175306402Y-132585868D01*
X175324764Y-132608945D01*
X175343274Y-132636157D01*
X175345646Y-132639889D01*
X175368801Y-132672896D01*
X175396977Y-132708880D01*
X175424610Y-132740689D01*
X175429474Y-132745907D01*
X175457307Y-132775907D01*
X175485003Y-132805949D01*
X175507217Y-132830240D01*
X175541003Y-132862305D01*
X175593981Y-132901186D01*
X175656467Y-132937543D01*
X175725020Y-132969182D01*
X175757253Y-132982852D01*
X175781000Y-132994867D01*
X175793683Y-133004626D01*
X175797435Y-133013437D01*
X175793586Y-133024100D01*
X175777654Y-133034294D01*
X175773954Y-133035156D01*
X175753248Y-133037375D01*
X175723423Y-133038464D01*
X175689609Y-133038195D01*
X175652769Y-133036259D01*
X175624395Y-133031980D01*
X175598655Y-133023848D01*
X175568905Y-133010329D01*
X175525847Y-132984206D01*
X175480617Y-132941690D01*
X175442468Y-132886113D01*
X175442188Y-132885619D01*
X175417918Y-132856614D01*
X175379812Y-132829278D01*
X175367202Y-132821191D01*
X175329924Y-132790625D01*
X175291249Y-132750660D01*
X175254641Y-132705097D01*
X175223561Y-132657736D01*
X175220141Y-132651546D01*
X175206042Y-132622352D01*
X175190719Y-132586288D01*
X175176931Y-132549747D01*
X175173871Y-132541211D01*
X175158382Y-132502389D01*
X175141139Y-132464416D01*
X175125334Y-132434433D01*
X175122008Y-132428536D01*
X175108916Y-132402473D01*
X175091835Y-132365671D01*
X175072032Y-132321135D01*
X175050778Y-132271869D01*
X175029340Y-132220878D01*
X175008986Y-132171166D01*
X174990987Y-132125736D01*
X174976609Y-132087594D01*
X174967121Y-132059743D01*
X174967021Y-132059416D01*
X174960686Y-132040470D01*
X174949844Y-132009823D01*
X174935585Y-131970483D01*
X174919000Y-131925455D01*
X174901177Y-131877750D01*
X174871076Y-131795897D01*
X174845314Y-131720883D01*
X174825653Y-131656607D01*
X174811700Y-131601254D01*
X174803065Y-131553007D01*
X174799355Y-131510050D01*
X174800177Y-131470566D01*
X174805141Y-131432740D01*
X174807672Y-131418111D01*
X174810333Y-131392510D01*
X174808342Y-131372829D01*
X174801396Y-131352562D01*
X174791361Y-131315286D01*
X174790093Y-131263197D01*
X174800426Y-131205164D01*
X174808200Y-131166652D01*
X174811724Y-131124418D01*
X174810024Y-131086799D01*
X174803010Y-131058925D01*
X174795001Y-131046970D01*
X174787714Y-131048134D01*
X174782674Y-131062988D01*
X174780664Y-131090429D01*
X174780591Y-131093009D01*
X174777350Y-131117656D01*
X174770293Y-131149984D01*
X174760761Y-131183705D01*
X174752980Y-131209989D01*
X174743216Y-131258648D01*
X174742465Y-131300999D01*
X174750441Y-131341395D01*
X174754629Y-131359465D01*
X174755439Y-131385424D01*
X174750296Y-131418664D01*
X174748865Y-131425871D01*
X174745885Y-131446145D01*
X174745260Y-131466483D01*
X174747246Y-131490734D01*
X174752096Y-131522749D01*
X174760065Y-131566376D01*
X174760272Y-131567467D01*
X174768105Y-131609671D01*
X174775274Y-131649814D01*
X174780994Y-131683403D01*
X174784479Y-131705949D01*
X174787374Y-131722590D01*
X174795402Y-131756404D01*
X174805255Y-131789033D01*
X174810879Y-131806902D01*
X174820412Y-131841521D01*
X174830553Y-131882218D01*
X174839877Y-131923466D01*
X174851409Y-131971214D01*
X174866549Y-132018940D01*
X174882306Y-132054027D01*
X174891530Y-132071413D01*
X174905893Y-132102657D01*
X174915800Y-132129429D01*
X174928640Y-132157742D01*
X174948069Y-132179330D01*
X174954966Y-132185169D01*
X174963629Y-132196304D01*
X174972563Y-132213360D01*
X174982788Y-132238660D01*
X174995323Y-132274528D01*
X175011186Y-132323289D01*
X175016698Y-132340103D01*
X175021149Y-132353682D01*
X175035870Y-132395883D01*
X175049590Y-132432272D01*
X175061119Y-132459737D01*
X175069266Y-132475164D01*
X175072720Y-132480007D01*
X175088507Y-132505796D01*
X175092534Y-132521373D01*
X175084759Y-132526597D01*
X175075738Y-132525440D01*
X175051977Y-132511814D01*
X175027256Y-132482723D01*
X175001426Y-132438013D01*
X174997702Y-132430747D01*
X174975388Y-132393405D01*
X174954917Y-132369878D01*
X174936876Y-132360697D01*
X174921856Y-132366394D01*
X174920328Y-132368118D01*
X174916429Y-132381062D01*
X174921087Y-132400665D01*
X174934935Y-132428665D01*
X174958612Y-132466800D01*
X174962640Y-132472970D01*
X174986073Y-132511985D01*
X174998789Y-132540621D01*
X175000928Y-132559860D01*
X174992631Y-132570684D01*
X174974040Y-132574074D01*
X174973474Y-132574070D01*
X174949240Y-132565893D01*
X174926414Y-132542395D01*
X174905450Y-132504039D01*
X174903357Y-132499503D01*
X174889009Y-132473549D01*
X174869113Y-132442407D01*
X174847308Y-132411846D01*
X174843026Y-132406105D01*
X174815822Y-132365204D01*
X174789029Y-132318316D01*
X174764975Y-132270059D01*
X174745989Y-132225052D01*
X174734400Y-132187911D01*
X174732910Y-132181927D01*
X174723492Y-132155115D01*
X174712213Y-132133771D01*
X174707957Y-132127658D01*
X174692931Y-132105088D01*
X174677257Y-132080520D01*
X174666149Y-132064791D01*
X174650658Y-132050651D01*
X174638651Y-132049439D01*
X174631786Y-132061838D01*
X174633657Y-132075469D01*
X174641260Y-132098265D01*
X174652948Y-132125140D01*
X174664990Y-132151433D01*
X174676052Y-132178432D01*
X174682420Y-132197500D01*
X174688569Y-132216482D01*
X174702147Y-132249395D01*
X174720640Y-132289450D01*
X174742236Y-132333107D01*
X174765124Y-132376830D01*
X174787495Y-132417080D01*
X174807536Y-132450321D01*
X174823438Y-132473014D01*
X174841313Y-132496236D01*
X174866452Y-132531995D01*
X174887493Y-132565135D01*
X174897836Y-132581209D01*
X174932376Y-132623440D01*
X174977497Y-132666838D01*
X174989936Y-132677623D01*
X175024693Y-132707725D01*
X175059365Y-132737718D01*
X175088021Y-132762469D01*
X175115374Y-132787664D01*
X175131869Y-132807438D01*
X175136345Y-132821390D01*
X175129564Y-132830771D01*
X175129382Y-132830864D01*
X175119082Y-132828872D01*
X175098409Y-132820496D01*
X175070469Y-132807317D01*
X175038368Y-132790921D01*
X175005210Y-132772891D01*
X174974102Y-132754810D01*
X174948149Y-132738261D01*
X174943056Y-132734710D01*
X174893473Y-132693177D01*
X174843353Y-132639687D01*
X174795188Y-132577429D01*
X174751468Y-132509591D01*
X174714683Y-132439361D01*
X174690019Y-132385714D01*
X174664173Y-132328666D01*
X174643588Y-132281952D01*
X174627347Y-132243385D01*
X174614537Y-132210778D01*
X174604240Y-132181944D01*
X174595543Y-132154697D01*
X174590291Y-132138118D01*
X174573640Y-132095314D01*
X174556596Y-132065079D01*
X174539855Y-132048468D01*
X174524114Y-132046536D01*
X174519446Y-132048850D01*
X174513783Y-132058469D01*
X174515791Y-132077541D01*
X174520888Y-132098867D01*
X174535189Y-132146814D01*
X174554280Y-132201260D01*
X174576826Y-132259111D01*
X174601488Y-132317274D01*
X174626930Y-132372656D01*
X174651816Y-132422164D01*
X174674809Y-132462706D01*
X174694571Y-132491189D01*
X174699440Y-132497255D01*
X174717467Y-132524760D01*
X174725014Y-132546587D01*
X174721777Y-132560967D01*
X174707451Y-132566131D01*
X174677230Y-132558523D01*
X174645568Y-132536605D01*
X174613276Y-132501766D01*
X174581056Y-132455396D01*
X174549608Y-132398886D01*
X174519633Y-132333624D01*
X174491832Y-132261001D01*
X174466905Y-132182407D01*
X174445554Y-132099232D01*
X174428480Y-132012864D01*
X174424329Y-131988553D01*
X174417244Y-131948857D01*
X174411023Y-131916191D01*
X174406222Y-131893420D01*
X174403394Y-131883408D01*
X174402232Y-131878613D01*
X174400032Y-131859924D01*
X174397561Y-131830080D01*
X174395046Y-131791922D01*
X174392709Y-131748293D01*
X174390438Y-131706205D01*
X174386950Y-131660656D01*
X174382609Y-131625408D01*
X174376998Y-131597285D01*
X174369699Y-131573108D01*
X174362621Y-131551928D01*
X174357355Y-131528018D01*
X174357034Y-131504184D01*
X174360988Y-131472683D01*
X174362804Y-131459655D01*
X174367554Y-131400605D01*
X174368756Y-131329246D01*
X174366414Y-131248046D01*
X174360530Y-131159475D01*
X174359950Y-131152542D01*
X174356750Y-131112131D01*
X174356027Y-131098342D01*
X174420981Y-131098342D01*
X174423156Y-131232859D01*
X174424644Y-131287758D01*
X174427499Y-131339845D01*
X174431463Y-131380261D01*
X174436379Y-131406940D01*
X174439745Y-131420001D01*
X174449210Y-131467989D01*
X174457695Y-131527427D01*
X174464887Y-131595054D01*
X174470473Y-131667607D01*
X174474138Y-131741826D01*
X174475569Y-131814448D01*
X174475575Y-131816477D01*
X174476114Y-131873398D01*
X174477389Y-131916385D01*
X174479526Y-131947260D01*
X174482649Y-131967846D01*
X174486883Y-131979965D01*
X174497763Y-131999097D01*
X174508725Y-131979965D01*
X174509120Y-131979260D01*
X174514818Y-131962192D01*
X174516629Y-131936799D01*
X174514825Y-131899510D01*
X174514811Y-131899340D01*
X174512788Y-131868059D01*
X174513070Y-131849451D01*
X174516008Y-131840499D01*
X174521952Y-131838186D01*
X174524396Y-131838396D01*
X174540914Y-131848053D01*
X174559419Y-131870515D01*
X174578382Y-131903582D01*
X174596271Y-131945053D01*
X174599295Y-131952979D01*
X174610103Y-131979073D01*
X174619022Y-131997355D01*
X174624367Y-132004268D01*
X174626736Y-132000749D01*
X174629304Y-131985352D01*
X174630302Y-131961854D01*
X174628668Y-131937631D01*
X174622912Y-131911515D01*
X174611848Y-131879709D01*
X174594292Y-131838137D01*
X174567482Y-131771184D01*
X174546324Y-131701383D01*
X174530869Y-131626557D01*
X174519799Y-131541457D01*
X174517558Y-131520576D01*
X174511590Y-131471446D01*
X174504811Y-131421940D01*
X174501032Y-131397687D01*
X174593233Y-131397687D01*
X174612986Y-131453746D01*
X174617213Y-131466243D01*
X174624032Y-131490405D01*
X174629077Y-131516401D01*
X174632823Y-131547727D01*
X174635745Y-131587883D01*
X174638317Y-131640367D01*
X174639868Y-131674111D01*
X174642528Y-131718033D01*
X174645789Y-131751745D01*
X174650130Y-131778716D01*
X174656031Y-131802417D01*
X174663969Y-131826317D01*
X174666822Y-131834206D01*
X174680071Y-131871062D01*
X174695117Y-131913182D01*
X174709227Y-131952921D01*
X174712437Y-131961854D01*
X174712611Y-131962339D01*
X174728346Y-132003557D01*
X174745432Y-132045195D01*
X174760726Y-132079525D01*
X174761705Y-132081601D01*
X174775108Y-132112800D01*
X174785639Y-132142155D01*
X174791091Y-132163564D01*
X174791125Y-132163803D01*
X174799868Y-132189813D01*
X174815129Y-132212201D01*
X174824301Y-132224181D01*
X174837729Y-132249606D01*
X174848399Y-132278504D01*
X174854970Y-132299639D01*
X174863262Y-132322112D01*
X174869609Y-132334712D01*
X174872323Y-132337605D01*
X174887429Y-132344401D01*
X174901198Y-132340103D01*
X174901016Y-132332196D01*
X174895848Y-132313609D01*
X174886691Y-132288828D01*
X174878597Y-132266225D01*
X174870728Y-132236693D01*
X174867685Y-132214056D01*
X174867607Y-132211683D01*
X174862103Y-132186694D01*
X174848366Y-132150595D01*
X174827034Y-132105098D01*
X174803022Y-132055724D01*
X174782205Y-132007857D01*
X174766729Y-131964284D01*
X174754909Y-131920186D01*
X174745059Y-131870743D01*
X174743655Y-131862913D01*
X174736375Y-131825968D01*
X174728662Y-131791496D01*
X174721968Y-131766077D01*
X174717814Y-131750605D01*
X174710748Y-131716603D01*
X174705771Y-131682993D01*
X174704014Y-131667973D01*
X174699536Y-131633342D01*
X174693897Y-131592566D01*
X174687911Y-131551632D01*
X174685513Y-131535609D01*
X174680977Y-131502620D01*
X174679069Y-131479896D01*
X174679849Y-131463555D01*
X174683375Y-131449718D01*
X174689707Y-131434503D01*
X174694136Y-131424266D01*
X174699708Y-131405594D01*
X174699429Y-131387033D01*
X174693711Y-131361025D01*
X174688388Y-131335483D01*
X174685423Y-131304265D01*
X174685888Y-131267803D01*
X174689847Y-131222711D01*
X174697362Y-131165600D01*
X174698516Y-131157447D01*
X174704341Y-131111342D01*
X174709651Y-131062146D01*
X174713421Y-131019214D01*
X174714500Y-131005089D01*
X174717352Y-130973138D01*
X174720162Y-130947994D01*
X174722452Y-130934152D01*
X174723860Y-130926079D01*
X174720443Y-130920650D01*
X174711568Y-130926354D01*
X174699883Y-130942240D01*
X174693786Y-130956954D01*
X174685451Y-130986066D01*
X174676365Y-131024973D01*
X174667100Y-131070482D01*
X174658233Y-131119398D01*
X174650336Y-131168526D01*
X174643985Y-131214674D01*
X174639753Y-131254647D01*
X174638214Y-131285251D01*
X174638169Y-131298196D01*
X174637173Y-131325957D01*
X174633925Y-131344398D01*
X174627187Y-131358318D01*
X174615724Y-131372515D01*
X174593233Y-131397687D01*
X174501032Y-131397687D01*
X174498296Y-131380131D01*
X174494577Y-131352331D01*
X174491030Y-131303801D01*
X174489592Y-131249336D01*
X174490131Y-131198888D01*
X174556707Y-131198888D01*
X174557331Y-131232142D01*
X174559736Y-131256396D01*
X174563628Y-131268260D01*
X174569713Y-131272772D01*
X174577228Y-131269935D01*
X174581535Y-131253179D01*
X174582990Y-131221649D01*
X174584052Y-131199210D01*
X174588281Y-131161644D01*
X174594603Y-131126036D01*
X174598370Y-131108669D01*
X174606035Y-131071890D01*
X174614607Y-131029483D01*
X174622838Y-130987563D01*
X174627771Y-130963303D01*
X174637984Y-130918176D01*
X174648844Y-130875174D01*
X174658702Y-130841034D01*
X174666746Y-130814240D01*
X174671090Y-130795673D01*
X174725689Y-130795673D01*
X174732972Y-130836705D01*
X174740246Y-130850449D01*
X174748395Y-130857002D01*
X174753954Y-130855124D01*
X174767985Y-130841511D01*
X174784948Y-130817045D01*
X174803444Y-130784477D01*
X174822074Y-130746556D01*
X174839440Y-130706032D01*
X174854142Y-130665657D01*
X174864782Y-130628179D01*
X174870763Y-130605256D01*
X174880572Y-130580678D01*
X174895430Y-130558401D01*
X174918861Y-130532172D01*
X174941784Y-130505406D01*
X174966464Y-130471375D01*
X174985099Y-130440155D01*
X175006613Y-130402113D01*
X175053449Y-130336468D01*
X175112672Y-130269338D01*
X175182549Y-130202618D01*
X175208349Y-130181527D01*
X175326625Y-130181527D01*
X175326866Y-130184336D01*
X175330683Y-130189551D01*
X175340839Y-130190863D01*
X175359507Y-130188007D01*
X175388858Y-130180717D01*
X175431063Y-130168726D01*
X175470106Y-130157121D01*
X175498008Y-130148037D01*
X175514000Y-130141204D01*
X175518786Y-130136599D01*
X175556096Y-130136599D01*
X175562882Y-130142511D01*
X175581172Y-130153610D01*
X175608189Y-130168315D01*
X175641158Y-130185045D01*
X175673367Y-130201229D01*
X175705471Y-130218097D01*
X175730596Y-130232094D01*
X175745091Y-130241245D01*
X175758698Y-130250771D01*
X175771153Y-130255156D01*
X175780291Y-130250356D01*
X175784048Y-130244960D01*
X175783651Y-130237146D01*
X175776830Y-130225217D01*
X175762117Y-130206698D01*
X175738044Y-130179114D01*
X175709170Y-130147759D01*
X175686108Y-130126397D01*
X175666216Y-130113611D01*
X175646293Y-130107352D01*
X175623137Y-130105569D01*
X175604790Y-130107271D01*
X175581046Y-130114376D01*
X175563160Y-130124910D01*
X175556674Y-130135622D01*
X175556096Y-130136577D01*
X175556096Y-130136599D01*
X175518786Y-130136599D01*
X175519802Y-130135622D01*
X175517132Y-130130295D01*
X175507710Y-130124223D01*
X175492115Y-130118434D01*
X175460347Y-130114123D01*
X175423723Y-130115075D01*
X175388309Y-130121431D01*
X175373482Y-130127336D01*
X175350484Y-130143168D01*
X175333348Y-130162709D01*
X175326625Y-130181527D01*
X175208349Y-130181527D01*
X175261345Y-130138203D01*
X175280935Y-130122831D01*
X175304519Y-130102603D01*
X175320649Y-130086565D01*
X175326625Y-130077238D01*
X175323580Y-130068750D01*
X175310164Y-130064371D01*
X175288130Y-130067753D01*
X175259750Y-130077774D01*
X175227297Y-130093311D01*
X175193044Y-130113239D01*
X175159266Y-130136436D01*
X175128236Y-130161777D01*
X175102226Y-130188140D01*
X175088974Y-130203173D01*
X175060804Y-130233761D01*
X175028759Y-130267353D01*
X174997520Y-130298996D01*
X174985491Y-130311137D01*
X174955722Y-130343807D01*
X174928262Y-130378764D01*
X174900105Y-130420023D01*
X174868243Y-130471598D01*
X174857170Y-130490318D01*
X174833497Y-130531610D01*
X174812180Y-130570409D01*
X174795205Y-130603058D01*
X174784555Y-130625897D01*
X174777107Y-130643760D01*
X174761002Y-130680918D01*
X174745762Y-130714572D01*
X174732561Y-130749396D01*
X174731464Y-130756782D01*
X174725689Y-130795673D01*
X174671090Y-130795673D01*
X174674877Y-130779484D01*
X174677033Y-130756782D01*
X174673606Y-130746785D01*
X174664986Y-130750143D01*
X174651566Y-130767508D01*
X174633737Y-130799529D01*
X174615278Y-130843885D01*
X174597427Y-130902709D01*
X174581951Y-130970324D01*
X174569558Y-131043132D01*
X174560957Y-131117536D01*
X174556855Y-131189940D01*
X174556707Y-131198888D01*
X174490131Y-131198888D01*
X174490191Y-131193268D01*
X174492758Y-131139931D01*
X174497222Y-131093657D01*
X174503513Y-131058778D01*
X174506213Y-131047030D01*
X174511797Y-131018450D01*
X174518097Y-130982428D01*
X174524196Y-130944043D01*
X174527907Y-130919432D01*
X174533363Y-130883527D01*
X174537912Y-130853901D01*
X174540839Y-130835242D01*
X174541193Y-130832847D01*
X174541441Y-130816299D01*
X174537440Y-130809525D01*
X174529393Y-130812199D01*
X174520105Y-130822235D01*
X174509616Y-130841234D01*
X174497188Y-130870773D01*
X174482087Y-130912429D01*
X174463574Y-130967781D01*
X174420981Y-131098342D01*
X174356027Y-131098342D01*
X174355238Y-131083283D01*
X174355680Y-131062321D01*
X174358344Y-131045567D01*
X174363499Y-131029345D01*
X174371412Y-131009977D01*
X174374762Y-131001931D01*
X174387769Y-130969292D01*
X174402573Y-130930605D01*
X174416580Y-130892609D01*
X174417716Y-130889493D01*
X174432026Y-130853618D01*
X174451210Y-130809645D01*
X174472897Y-130762855D01*
X174494717Y-130718528D01*
X174499813Y-130708480D01*
X174519888Y-130667726D01*
X174538056Y-130629122D01*
X174552493Y-130596618D01*
X174561375Y-130574164D01*
X174564131Y-130566843D01*
X174577684Y-130537986D01*
X174596408Y-130504178D01*
X174617116Y-130471298D01*
X174619113Y-130468351D01*
X174671436Y-130392072D01*
X174718617Y-130325073D01*
X174760029Y-130268197D01*
X174795046Y-130222285D01*
X174823044Y-130188180D01*
X174843395Y-130166725D01*
X174859764Y-130151107D01*
X174878194Y-130131614D01*
X174889164Y-130117577D01*
X174889738Y-130116547D01*
X174894871Y-130100609D01*
X174898072Y-130079204D01*
X174899074Y-130057582D01*
X174897606Y-130040996D01*
X174893401Y-130034696D01*
X174889365Y-130036183D01*
X174874517Y-130044109D01*
X174854119Y-130056456D01*
X174849844Y-130059391D01*
X174829288Y-130077781D01*
X174802402Y-130107567D01*
X174768569Y-130149467D01*
X174727173Y-130204198D01*
X174710688Y-130226597D01*
X174688853Y-130256265D01*
X174676891Y-130272783D01*
X174647174Y-130313817D01*
X174613141Y-130362331D01*
X174585575Y-130403744D01*
X174563300Y-130439992D01*
X174545139Y-130473013D01*
X174529914Y-130504743D01*
X174516447Y-130537119D01*
X174503562Y-130572079D01*
X174499801Y-130582333D01*
X174485873Y-130616927D01*
X174468670Y-130656430D01*
X174451069Y-130694153D01*
X174441696Y-130713750D01*
X174428800Y-130742047D01*
X174419946Y-130763242D01*
X174416657Y-130773809D01*
X174416656Y-130773884D01*
X174412678Y-130784923D01*
X174402452Y-130804982D01*
X174388163Y-130829773D01*
X174387368Y-130831089D01*
X174369780Y-130864870D01*
X174357615Y-130900640D01*
X174348498Y-130945310D01*
X174347041Y-130953962D01*
X174340036Y-130990273D01*
X174332406Y-131023438D01*
X174325559Y-131047193D01*
X174323765Y-131053036D01*
X174319586Y-131075156D01*
X174316555Y-131106732D01*
X174314665Y-131148669D01*
X174313911Y-131201870D01*
X174314287Y-131267241D01*
X174315785Y-131345685D01*
X174318400Y-131438108D01*
X174322126Y-131545413D01*
X174324897Y-131613590D01*
X174329736Y-131707568D01*
X174335367Y-131788382D01*
X174341951Y-131857644D01*
X174349652Y-131916970D01*
X174358630Y-131967973D01*
X174369049Y-132012267D01*
X174371711Y-132022130D01*
X174382265Y-132061207D01*
X174394196Y-132105355D01*
X174405399Y-132146784D01*
X174414058Y-132184143D01*
X174420543Y-132228258D01*
X174422163Y-132266755D01*
X174418824Y-132296516D01*
X174410433Y-132314428D01*
X174408926Y-132315040D01*
X174397894Y-132309850D01*
X174379445Y-132294489D01*
X174355603Y-132270576D01*
X174341420Y-132254593D01*
X174309459Y-132209968D01*
X174289225Y-132166765D01*
X174282046Y-132127571D01*
X174281917Y-132125093D01*
X174279191Y-132106928D01*
X174273656Y-132079554D01*
X174266281Y-132047874D01*
X174264221Y-132038944D01*
X174256829Y-131996762D01*
X174250201Y-131944036D01*
X174244635Y-131884931D01*
X174240431Y-131823615D01*
X174237889Y-131764254D01*
X174237307Y-131711014D01*
X174238986Y-131668061D01*
X174239102Y-131666530D01*
X174240040Y-131636981D01*
X174239707Y-131596480D01*
X174238301Y-131548853D01*
X174236018Y-131497925D01*
X174233053Y-131447520D01*
X174229604Y-131401465D01*
X174225867Y-131363584D01*
X174222037Y-131337703D01*
X174221340Y-131334728D01*
X174212546Y-131319282D01*
X174200291Y-131317339D01*
X174188362Y-131329790D01*
X174188258Y-131330001D01*
X174185428Y-131342601D01*
X174181981Y-131368169D01*
X174178205Y-131403992D01*
X174174387Y-131447355D01*
X174170814Y-131495546D01*
X174169485Y-131515675D01*
X174166309Y-131570871D01*
X174164777Y-131613958D01*
X174164875Y-131647703D01*
X174166593Y-131674872D01*
X174169917Y-131698234D01*
X174170843Y-131703610D01*
X174175125Y-131738601D01*
X174178136Y-131780033D01*
X174179273Y-131820056D01*
X174180065Y-131853314D01*
X174185071Y-131898487D01*
X174195384Y-131937835D01*
X174201528Y-131957260D01*
X174211838Y-131996231D01*
X174219223Y-132032049D01*
X174222675Y-132052968D01*
X174227762Y-132082953D01*
X174231705Y-132105242D01*
X174233775Y-132121426D01*
X174229808Y-132129365D01*
X174216462Y-132130958D01*
X174208153Y-132129759D01*
X174198637Y-132123829D01*
X174187834Y-132110769D01*
X174173857Y-132088217D01*
X174154819Y-132053809D01*
X174139359Y-132024539D01*
X174125245Y-131994713D01*
X174116342Y-131969576D01*
X174110962Y-131944124D01*
X174107416Y-131913357D01*
X174104808Y-131884788D01*
X174098595Y-131816934D01*
X174093702Y-131761562D01*
X174090174Y-131716261D01*
X174088054Y-131678623D01*
X174087389Y-131646240D01*
X174088223Y-131616701D01*
X174090600Y-131587600D01*
X174094566Y-131556526D01*
X174100164Y-131521070D01*
X174107440Y-131478825D01*
X174116439Y-131427381D01*
X174119107Y-131409797D01*
X174120909Y-131389951D01*
X174120023Y-131380660D01*
X174116044Y-131381809D01*
X174108114Y-131395014D01*
X174098011Y-131419322D01*
X174086632Y-131452291D01*
X174074873Y-131491479D01*
X174063630Y-131534441D01*
X174059302Y-131552800D01*
X174051031Y-131593831D01*
X174045793Y-131632935D01*
X174042924Y-131676021D01*
X174041762Y-131728992D01*
X174041710Y-131734250D01*
X174040450Y-131784855D01*
X174037694Y-131820818D01*
X174033088Y-131843191D01*
X174026278Y-131853027D01*
X174016911Y-131851375D01*
X174004631Y-131839287D01*
X173994239Y-131822163D01*
X173989367Y-131804241D01*
X173989366Y-131804094D01*
X173986933Y-131788362D01*
X173980688Y-131763147D01*
X173971963Y-131733837D01*
X173967799Y-131720702D01*
X173961842Y-131699120D01*
X173958798Y-131679843D01*
X173958445Y-131658372D01*
X173960561Y-131630206D01*
X173964926Y-131590845D01*
X173967897Y-131565385D01*
X173973659Y-131515809D01*
X173977748Y-131479346D01*
X173980235Y-131454164D01*
X173981194Y-131438428D01*
X173980698Y-131430306D01*
X173978821Y-131427963D01*
X173975635Y-131429566D01*
X173971214Y-131433283D01*
X173970524Y-131433878D01*
X173957866Y-131452730D01*
X173945812Y-131484885D01*
X173935096Y-131527954D01*
X173926448Y-131579544D01*
X173925739Y-131584716D01*
X173917742Y-131629328D01*
X173908458Y-131658171D01*
X173897879Y-131671250D01*
X173885995Y-131668569D01*
X173872800Y-131650133D01*
X173858283Y-131615945D01*
X173849162Y-131576988D01*
X173846184Y-131523360D01*
X173850720Y-131462173D01*
X173862701Y-131396746D01*
X173868714Y-131369697D01*
X173874754Y-131333537D01*
X173874782Y-131331104D01*
X173973541Y-131331104D01*
X173973976Y-131347123D01*
X173977783Y-131372848D01*
X173984468Y-131383642D01*
X173992760Y-131379627D01*
X174001385Y-131360928D01*
X174009072Y-131327666D01*
X174013015Y-131310239D01*
X174021238Y-131280458D01*
X174032265Y-131243983D01*
X174044827Y-131205164D01*
X174045606Y-131202815D01*
X174131797Y-131202815D01*
X174132032Y-131227122D01*
X174133557Y-131255723D01*
X174136717Y-131271524D01*
X174141763Y-131276379D01*
X174143064Y-131276323D01*
X174154458Y-131269959D01*
X174164666Y-131252050D01*
X174174285Y-131221172D01*
X174183911Y-131175903D01*
X174185792Y-131166506D01*
X174196737Y-131123270D01*
X174211346Y-131076585D01*
X174226992Y-131035039D01*
X174231589Y-131023966D01*
X174247672Y-130982471D01*
X174262682Y-130940094D01*
X174273875Y-130904479D01*
X174278637Y-130887771D01*
X174299254Y-130820192D01*
X174320578Y-130759483D01*
X174344131Y-130702436D01*
X174371437Y-130645839D01*
X174404018Y-130586482D01*
X174443399Y-130521156D01*
X174491102Y-130446649D01*
X174514040Y-130411324D01*
X174541360Y-130368641D01*
X174564658Y-130331541D01*
X174582758Y-130301929D01*
X174594481Y-130281709D01*
X174598650Y-130272783D01*
X174597365Y-130268583D01*
X174586965Y-130263544D01*
X174583328Y-130264461D01*
X174568926Y-130275463D01*
X174549401Y-130297018D01*
X174526633Y-130326733D01*
X174502503Y-130362215D01*
X174478892Y-130401069D01*
X174462339Y-130428934D01*
X174439315Y-130466080D01*
X174437931Y-130468251D01*
X174413420Y-130506705D01*
X174387734Y-130545914D01*
X174364198Y-130583181D01*
X174338836Y-130627143D01*
X174316670Y-130669312D01*
X174300734Y-130704169D01*
X174293870Y-130720969D01*
X174281460Y-130750028D01*
X174271409Y-130771894D01*
X174265414Y-130782793D01*
X174265015Y-130783324D01*
X174258650Y-130796048D01*
X174249455Y-130818841D01*
X174239277Y-130847156D01*
X174239029Y-130847883D01*
X174227830Y-130878255D01*
X174216552Y-130904922D01*
X174207601Y-130922185D01*
X174207587Y-130922205D01*
X174200126Y-130937211D01*
X174189290Y-130963567D01*
X174176530Y-130997563D01*
X174163297Y-131035488D01*
X174162607Y-131037544D01*
X174148991Y-131079614D01*
X174140048Y-131112147D01*
X174134833Y-131140172D01*
X174132398Y-131168718D01*
X174131797Y-131202815D01*
X174045606Y-131202815D01*
X174047479Y-131197172D01*
X174062755Y-131148882D01*
X174078831Y-131094857D01*
X174094559Y-131039252D01*
X174108786Y-130986218D01*
X174120363Y-130939910D01*
X174128139Y-130904479D01*
X174129391Y-130899620D01*
X174138272Y-130876978D01*
X174153807Y-130844121D01*
X174174666Y-130803436D01*
X174199522Y-130757310D01*
X174227045Y-130708130D01*
X174255908Y-130658284D01*
X174284783Y-130610160D01*
X174312342Y-130566143D01*
X174337255Y-130528622D01*
X174348549Y-130511321D01*
X174362163Y-130485202D01*
X174366167Y-130468251D01*
X174360880Y-130461541D01*
X174346621Y-130466141D01*
X174323709Y-130483124D01*
X174309152Y-130498117D01*
X174287594Y-130524222D01*
X174262509Y-130557199D01*
X174236139Y-130593848D01*
X174210724Y-130630968D01*
X174188507Y-130665359D01*
X174171727Y-130693821D01*
X174162627Y-130713152D01*
X174157770Y-130725428D01*
X174144050Y-130752536D01*
X174127568Y-130779318D01*
X174107175Y-130817351D01*
X174096539Y-130862402D01*
X174092997Y-130885161D01*
X174084501Y-130925488D01*
X174073267Y-130969915D01*
X174060658Y-131013517D01*
X174048034Y-131051373D01*
X174036757Y-131078560D01*
X174031124Y-131091571D01*
X174021345Y-131120693D01*
X174013515Y-131151489D01*
X174009925Y-131167411D01*
X173999788Y-131205550D01*
X173988861Y-131240310D01*
X173984409Y-131254935D01*
X173976597Y-131293843D01*
X173973541Y-131331104D01*
X173874782Y-131331104D01*
X173875010Y-131311548D01*
X173869463Y-131303363D01*
X173858095Y-131308620D01*
X173853376Y-131313308D01*
X173838599Y-131334712D01*
X173822996Y-131364809D01*
X173808909Y-131398750D01*
X173798678Y-131431686D01*
X173795428Y-131444222D01*
X173788045Y-131468685D01*
X173781722Y-131485012D01*
X173778173Y-131491437D01*
X173771666Y-131495339D01*
X173761150Y-131486756D01*
X173753807Y-131474265D01*
X173748456Y-131450085D01*
X173745503Y-131412640D01*
X173745123Y-131402089D01*
X173745231Y-131376412D01*
X173747591Y-131352019D01*
X173752931Y-131324850D01*
X173761983Y-131290845D01*
X173775476Y-131245943D01*
X173781811Y-131226471D01*
X173872143Y-131226471D01*
X173876922Y-131244433D01*
X173885951Y-131248641D01*
X173898981Y-131237634D01*
X173915930Y-131211442D01*
X173934088Y-131176432D01*
X173951776Y-131131551D01*
X173957716Y-131096515D01*
X173957787Y-131094829D01*
X173961358Y-131076224D01*
X173969699Y-131045736D01*
X173981946Y-131005831D01*
X173997232Y-130958973D01*
X174014693Y-130907628D01*
X174033464Y-130854260D01*
X174052681Y-130801335D01*
X174071479Y-130751317D01*
X174088992Y-130706671D01*
X174104357Y-130669863D01*
X174116707Y-130643357D01*
X174117191Y-130642419D01*
X174137635Y-130606067D01*
X174164447Y-130562858D01*
X174194203Y-130518122D01*
X174223476Y-130477189D01*
X174227825Y-130471341D01*
X174255008Y-130433126D01*
X174268407Y-130412934D01*
X174356722Y-130412934D01*
X174360512Y-130417373D01*
X174376239Y-130421533D01*
X174396921Y-130413983D01*
X174419426Y-130395590D01*
X174424576Y-130389697D01*
X174441579Y-130366573D01*
X174461134Y-130336203D01*
X174479959Y-130303577D01*
X174498042Y-130270084D01*
X174510067Y-130247141D01*
X174516334Y-130233438D01*
X174517722Y-130226597D01*
X174515111Y-130224238D01*
X174509380Y-130223980D01*
X174500787Y-130225476D01*
X174479315Y-130239194D01*
X174456060Y-130265966D01*
X174432526Y-130304223D01*
X174417070Y-130330183D01*
X174396925Y-130358450D01*
X174378667Y-130378946D01*
X174370442Y-130387139D01*
X174358769Y-130402770D01*
X174356722Y-130412934D01*
X174268407Y-130412934D01*
X174280392Y-130394874D01*
X174301305Y-130360737D01*
X174315075Y-130334865D01*
X174319274Y-130326158D01*
X174348676Y-130278855D01*
X174387995Y-130231999D01*
X174403951Y-130214674D01*
X174431051Y-130183687D01*
X174462969Y-130145964D01*
X174482520Y-130122263D01*
X174616651Y-130122263D01*
X174628323Y-130133838D01*
X174637889Y-130139998D01*
X174650083Y-130144527D01*
X174654458Y-130141047D01*
X174665432Y-130126211D01*
X174680413Y-130102391D01*
X174697482Y-130072504D01*
X174734346Y-130012338D01*
X174775563Y-129961589D01*
X174819142Y-129924736D01*
X174866065Y-129900782D01*
X174866605Y-129900585D01*
X174898113Y-129886972D01*
X174920254Y-129871194D01*
X174939229Y-129848849D01*
X174948054Y-129837275D01*
X174967733Y-129814892D01*
X174984980Y-129799119D01*
X174989885Y-129795612D01*
X175027667Y-129772004D01*
X175074922Y-129746748D01*
X175126752Y-129722326D01*
X175178261Y-129701217D01*
X175182428Y-129699641D01*
X175217271Y-129684859D01*
X175239108Y-129672347D01*
X175247404Y-129662688D01*
X175241625Y-129656465D01*
X175221239Y-129654261D01*
X175211896Y-129654772D01*
X175184631Y-129658967D01*
X175155959Y-129666014D01*
X175144625Y-129670148D01*
X175114437Y-129684427D01*
X175075806Y-129705535D01*
X175031556Y-129731771D01*
X174984514Y-129761431D01*
X174937504Y-129792814D01*
X174893352Y-129824218D01*
X174881523Y-129833144D01*
X174840594Y-129866521D01*
X174798701Y-129903951D01*
X174758571Y-129942725D01*
X174722930Y-129980137D01*
X174694503Y-130013479D01*
X174676019Y-130040044D01*
X174664914Y-130058076D01*
X174647893Y-130081385D01*
X174633482Y-130096572D01*
X174631668Y-130098011D01*
X174617572Y-130111723D01*
X174616651Y-130122263D01*
X174482520Y-130122263D01*
X174496963Y-130104755D01*
X174530290Y-130063315D01*
X174561514Y-130024371D01*
X174613074Y-129962666D01*
X174659730Y-129910832D01*
X174703705Y-129866564D01*
X174747225Y-129827556D01*
X174792513Y-129791503D01*
X174794573Y-129789953D01*
X174842624Y-129754587D01*
X174888581Y-129722194D01*
X174930368Y-129694128D01*
X174965911Y-129671745D01*
X174993135Y-129656400D01*
X175009968Y-129649448D01*
X175037614Y-129641597D01*
X175056765Y-129631702D01*
X175064010Y-129621796D01*
X175058276Y-129613435D01*
X175038489Y-129608170D01*
X175032474Y-129608090D01*
X175013092Y-129613148D01*
X174985657Y-129626441D01*
X174948102Y-129648900D01*
X174900305Y-129678835D01*
X174859488Y-129703645D01*
X174849667Y-129709270D01*
X174827562Y-129721931D01*
X174802329Y-129734890D01*
X174781592Y-129743717D01*
X174763152Y-129749611D01*
X174731740Y-129763627D01*
X174701516Y-129791224D01*
X174687574Y-129806875D01*
X174663829Y-129832339D01*
X174635348Y-129862063D01*
X174615257Y-129882544D01*
X174605637Y-129892350D01*
X174585583Y-129913376D01*
X174548965Y-129954944D01*
X174513035Y-129999035D01*
X174483293Y-130039054D01*
X174460243Y-130070261D01*
X174425847Y-130112775D01*
X174388636Y-130155466D01*
X174353444Y-130192612D01*
X174344506Y-130201578D01*
X174309863Y-130238050D01*
X174283570Y-130269659D01*
X174262381Y-130300594D01*
X174243051Y-130335042D01*
X174208894Y-130391759D01*
X174160012Y-130449633D01*
X174158900Y-130450729D01*
X174133833Y-130476810D01*
X174117483Y-130498276D01*
X174106504Y-130520422D01*
X174097554Y-130548543D01*
X174089422Y-130573926D01*
X174076574Y-130605629D01*
X174063860Y-130629695D01*
X174059911Y-130636074D01*
X174047028Y-130661952D01*
X174039423Y-130685084D01*
X174038917Y-130687546D01*
X174031217Y-130713132D01*
X174020327Y-130739090D01*
X174012578Y-130757649D01*
X174002519Y-130787996D01*
X173993894Y-130820172D01*
X173993091Y-130823474D01*
X173981885Y-130858033D01*
X173965374Y-130897416D01*
X173946665Y-130934128D01*
X173932503Y-130960201D01*
X173920055Y-130987594D01*
X173909945Y-131017090D01*
X173900650Y-131053211D01*
X173890646Y-131100477D01*
X173889140Y-131108099D01*
X173881763Y-131148261D01*
X173876118Y-131183785D01*
X173872735Y-131211058D01*
X173872143Y-131226471D01*
X173781811Y-131226471D01*
X173790589Y-131199489D01*
X173807682Y-131150961D01*
X173824643Y-131106153D01*
X173839373Y-131070817D01*
X173840858Y-131067492D01*
X173856179Y-131029378D01*
X173866282Y-130996759D01*
X173870757Y-130971828D01*
X173869197Y-130956777D01*
X173861193Y-130953797D01*
X173860992Y-130953874D01*
X173853286Y-130962806D01*
X173842411Y-130982321D01*
X173830654Y-131008335D01*
X173818869Y-131035107D01*
X173803264Y-131066651D01*
X173789427Y-131090896D01*
X173784906Y-131098345D01*
X173771717Y-131125381D01*
X173763723Y-131149775D01*
X173755920Y-131175758D01*
X173744224Y-131201208D01*
X173738465Y-131213910D01*
X173730401Y-131241335D01*
X173725101Y-131271516D01*
X173723516Y-131285201D01*
X173719492Y-131311020D01*
X173714576Y-131324442D01*
X173707438Y-131327928D01*
X173696748Y-131323938D01*
X173685079Y-131313050D01*
X173673408Y-131288587D01*
X173667227Y-131257043D01*
X173667909Y-131223220D01*
X173671224Y-131209836D01*
X173681831Y-131181354D01*
X173697902Y-131144748D01*
X173717836Y-131103209D01*
X173740033Y-131059928D01*
X173762892Y-131018096D01*
X173784813Y-130980904D01*
X173804195Y-130951541D01*
X173813495Y-130937502D01*
X173831970Y-130904317D01*
X173846497Y-130871862D01*
X173861068Y-130842017D01*
X173883540Y-130806762D01*
X173910274Y-130771844D01*
X173921034Y-130758741D01*
X173939858Y-130734010D01*
X173952862Y-130714386D01*
X173957716Y-130703243D01*
X173958509Y-130694859D01*
X173966592Y-130667190D01*
X173981895Y-130632651D01*
X174002546Y-130595166D01*
X174026676Y-130558656D01*
X174038486Y-130541572D01*
X174061554Y-130505126D01*
X174085633Y-130464062D01*
X174107098Y-130424433D01*
X174119377Y-130401426D01*
X174143233Y-130360093D01*
X174167798Y-130320892D01*
X174189347Y-130289916D01*
X174197846Y-130278664D01*
X174238347Y-130224232D01*
X174270656Y-130179312D01*
X174294310Y-130144584D01*
X174308843Y-130120725D01*
X174313791Y-130108413D01*
X174309075Y-130100991D01*
X174292478Y-130097376D01*
X174286847Y-130097883D01*
X174262551Y-130109012D01*
X174234806Y-130133868D01*
X174204545Y-130171334D01*
X174172701Y-130220291D01*
X174140209Y-130279624D01*
X174139289Y-130281436D01*
X174117074Y-130323760D01*
X174093443Y-130366498D01*
X174071162Y-130404764D01*
X174052999Y-130433669D01*
X174052981Y-130433695D01*
X174030093Y-130469181D01*
X174005863Y-130508968D01*
X173985534Y-130544448D01*
X173984073Y-130547103D01*
X173963217Y-130582277D01*
X173938080Y-130621191D01*
X173913777Y-130655897D01*
X173909843Y-130661269D01*
X173887199Y-130694109D01*
X173866131Y-130727441D01*
X173850753Y-130754807D01*
X173849063Y-130758104D01*
X173835259Y-130782921D01*
X173815521Y-130816248D01*
X173792233Y-130854130D01*
X173767775Y-130892609D01*
X173762726Y-130900477D01*
X173739296Y-130938731D01*
X173718471Y-130975399D01*
X173702355Y-131006651D01*
X173693052Y-131028657D01*
X173686028Y-131048126D01*
X173669274Y-131081303D01*
X173650933Y-131102655D01*
X173632470Y-131110211D01*
X173624691Y-131109456D01*
X173616031Y-131103589D01*
X173613305Y-131089903D01*
X173616287Y-131066027D01*
X173624748Y-131029594D01*
X173640071Y-130982891D01*
X173675326Y-130915007D01*
X173686593Y-130897598D01*
X173741302Y-130811380D01*
X173790633Y-130730756D01*
X173833550Y-130657488D01*
X173869016Y-130593336D01*
X173895994Y-130540062D01*
X173911302Y-130508475D01*
X173927167Y-130477702D01*
X173944119Y-130447305D01*
X173963359Y-130415423D01*
X173986091Y-130380193D01*
X174013516Y-130339756D01*
X174046838Y-130292249D01*
X174087259Y-130235812D01*
X174135981Y-130168581D01*
X174153841Y-130143936D01*
X174186442Y-130098505D01*
X174216537Y-130056022D01*
X174228585Y-130038750D01*
X174329616Y-130038750D01*
X174330778Y-130051725D01*
X174337001Y-130059188D01*
X174350440Y-130055410D01*
X174373136Y-130040470D01*
X174398525Y-130020666D01*
X174433269Y-129989674D01*
X174464187Y-129957813D01*
X174489041Y-129927637D01*
X174505595Y-129901697D01*
X174511610Y-129882544D01*
X174509802Y-129872515D01*
X174502781Y-129869292D01*
X174488874Y-129874565D01*
X174466420Y-129888990D01*
X174433754Y-129913223D01*
X174429615Y-129916418D01*
X174387796Y-129952001D01*
X174356332Y-129985285D01*
X174336510Y-130014719D01*
X174329616Y-130038750D01*
X174228585Y-130038750D01*
X174242406Y-130018937D01*
X174262335Y-129989700D01*
X174274605Y-129970762D01*
X174287254Y-129950700D01*
X174306616Y-129922091D01*
X174323220Y-129899732D01*
X174330401Y-129890449D01*
X174343074Y-129868952D01*
X174342892Y-129856253D01*
X174329891Y-129852080D01*
X174324636Y-129852779D01*
X174304373Y-129862869D01*
X174280671Y-129882524D01*
X174256921Y-129908622D01*
X174236514Y-129938042D01*
X174227863Y-129951412D01*
X174208259Y-129978259D01*
X174183614Y-130009513D01*
X174157290Y-130040812D01*
X174141476Y-130059732D01*
X174113824Y-130096061D01*
X174089243Y-130132089D01*
X174071662Y-130162244D01*
X174065841Y-130173244D01*
X174047995Y-130204158D01*
X174024553Y-130242381D01*
X173997889Y-130284085D01*
X173970378Y-130325445D01*
X173961501Y-130338606D01*
X173928437Y-130389011D01*
X173892544Y-130445427D01*
X173857593Y-130501871D01*
X173827356Y-130552360D01*
X173816457Y-130570948D01*
X173769617Y-130649675D01*
X173727869Y-130717874D01*
X173691598Y-130774967D01*
X173661188Y-130820377D01*
X173637021Y-130853528D01*
X173619482Y-130873841D01*
X173608956Y-130880740D01*
X173608112Y-130880705D01*
X173599585Y-130873051D01*
X173597560Y-130853856D01*
X173601928Y-130825772D01*
X173612582Y-130791448D01*
X173616753Y-130780656D01*
X173641030Y-130728866D01*
X173667868Y-130690320D01*
X173698724Y-130662847D01*
X173706906Y-130656875D01*
X173723434Y-130637961D01*
X173731277Y-130611748D01*
X173732203Y-130606837D01*
X173741547Y-130577219D01*
X173755019Y-130549862D01*
X173763617Y-130535565D01*
X173779772Y-130506655D01*
X173795192Y-130477078D01*
X173798541Y-130470426D01*
X173810594Y-130447632D01*
X173824822Y-130422656D01*
X173842569Y-130393315D01*
X173865175Y-130357427D01*
X173893984Y-130312810D01*
X173930336Y-130257280D01*
X173949625Y-130227200D01*
X173978207Y-130180625D01*
X174005716Y-130133823D01*
X174028193Y-130093419D01*
X174040247Y-130071245D01*
X174063648Y-130029984D01*
X174087107Y-129990479D01*
X174107005Y-129958902D01*
X174112465Y-129950649D01*
X174129529Y-129924809D01*
X174142876Y-129904528D01*
X174149993Y-129893622D01*
X174151307Y-129886731D01*
X174140149Y-129883731D01*
X174135510Y-129884641D01*
X174122356Y-129894162D01*
X174104780Y-129915158D01*
X174081539Y-129949011D01*
X174073335Y-129961527D01*
X174048578Y-129997136D01*
X174027791Y-130022022D01*
X174008217Y-130038675D01*
X173987096Y-130049585D01*
X173961672Y-130057242D01*
X173919664Y-130070780D01*
X173871808Y-130097541D01*
X173829011Y-130136443D01*
X173788863Y-130189327D01*
X173777668Y-130204904D01*
X173759932Y-130225049D01*
X173745301Y-130236735D01*
X173720949Y-130253272D01*
X173690234Y-130282059D01*
X173656850Y-130319954D01*
X173623209Y-130364432D01*
X173614893Y-130376011D01*
X173596753Y-130399460D01*
X173582295Y-130415718D01*
X173574076Y-130421800D01*
X173560947Y-130417161D01*
X173550087Y-130399347D01*
X173546252Y-130369865D01*
X173547483Y-130353163D01*
X173553213Y-130334360D01*
X173565456Y-130312350D01*
X173586198Y-130282808D01*
X173598676Y-130265453D01*
X173614751Y-130239921D01*
X173622573Y-130220766D01*
X173623783Y-130204577D01*
X173623581Y-130202598D01*
X173619857Y-130186912D01*
X173610654Y-130182957D01*
X173591750Y-130188633D01*
X173587048Y-130190039D01*
X173581167Y-130187689D01*
X173578521Y-130175957D01*
X173577909Y-130151634D01*
X173578802Y-130132926D01*
X173586145Y-130097817D01*
X173602377Y-130057812D01*
X173615018Y-130030235D01*
X173630672Y-129993904D01*
X173643055Y-129962859D01*
X173652627Y-129939669D01*
X173669054Y-129904128D01*
X173689085Y-129863519D01*
X173710698Y-129821740D01*
X173731867Y-129782689D01*
X173750571Y-129750265D01*
X173764784Y-129728366D01*
X173770902Y-129720954D01*
X173792498Y-129700327D01*
X173816971Y-129682056D01*
X173834539Y-129668395D01*
X173859882Y-129642572D01*
X173882544Y-129613315D01*
X173888406Y-129604815D01*
X173929681Y-129554074D01*
X173979255Y-129505017D01*
X174032384Y-129461972D01*
X174084320Y-129429268D01*
X174088743Y-129426939D01*
X174122201Y-129408786D01*
X174154372Y-129390553D01*
X174178844Y-129375863D01*
X174180675Y-129374733D01*
X174202898Y-129364171D01*
X174227661Y-129356496D01*
X174250667Y-129352486D01*
X174267621Y-129352920D01*
X174274227Y-129358576D01*
X174274048Y-129360725D01*
X174266443Y-129377759D01*
X174250360Y-129398861D01*
X174229573Y-129419643D01*
X174207856Y-129435721D01*
X174190998Y-129447165D01*
X174164457Y-129467756D01*
X174133620Y-129493513D01*
X174102270Y-129521369D01*
X174074908Y-129546286D01*
X174044535Y-129573467D01*
X174018414Y-129596358D01*
X174000211Y-129611714D01*
X173990457Y-129620953D01*
X173970195Y-129644871D01*
X173947642Y-129675800D01*
X173926065Y-129709433D01*
X173915222Y-129727029D01*
X173889859Y-129765106D01*
X173863671Y-129801138D01*
X173840869Y-129829205D01*
X173840678Y-129829420D01*
X173817209Y-129858677D01*
X173795658Y-129890435D01*
X173780670Y-129917855D01*
X173778862Y-129921740D01*
X173762850Y-129949416D01*
X173740615Y-129981126D01*
X173716389Y-130010753D01*
X173697454Y-130032921D01*
X173665968Y-130077213D01*
X173647098Y-130116466D01*
X173641224Y-130149751D01*
X173648724Y-130176138D01*
X173655533Y-130181694D01*
X173670537Y-130179729D01*
X173692883Y-130166002D01*
X173723590Y-130140021D01*
X173740545Y-130122881D01*
X173748884Y-130108448D01*
X173748218Y-130095041D01*
X173742510Y-130075230D01*
X173739321Y-130053896D01*
X173742897Y-130036947D01*
X173753673Y-130018248D01*
X173760631Y-130008954D01*
X173783274Y-129991455D01*
X173809446Y-129989181D01*
X173840091Y-130001955D01*
X173847757Y-130006301D01*
X173871057Y-130015135D01*
X173895077Y-130016878D01*
X173920665Y-130010823D01*
X173948671Y-129996266D01*
X173979945Y-129972503D01*
X174015336Y-129938828D01*
X174055694Y-129894538D01*
X174101868Y-129838928D01*
X174103848Y-129836393D01*
X174187186Y-129836393D01*
X174191083Y-129842039D01*
X174204949Y-129843894D01*
X174223930Y-129840065D01*
X174242793Y-129831055D01*
X174243826Y-129830337D01*
X174253264Y-129822636D01*
X174536806Y-129822636D01*
X174537696Y-129827338D01*
X174546367Y-129841311D01*
X174561531Y-129841989D01*
X174581971Y-129829686D01*
X174606471Y-129804713D01*
X174623458Y-129785991D01*
X174650320Y-129760275D01*
X174674809Y-129740622D01*
X174687987Y-129730985D01*
X174703416Y-129717636D01*
X174709429Y-129709270D01*
X174708850Y-129707804D01*
X174698449Y-129703478D01*
X174679135Y-129701737D01*
X174669239Y-129702535D01*
X174639979Y-129711673D01*
X174609276Y-129728831D01*
X174580368Y-129751257D01*
X174556495Y-129776200D01*
X174540895Y-129800910D01*
X174536806Y-129822636D01*
X174253264Y-129822636D01*
X174257986Y-129818783D01*
X174270969Y-129807230D01*
X174395721Y-129807230D01*
X174397014Y-129817886D01*
X174410189Y-129820399D01*
X174423840Y-129818444D01*
X174449916Y-129806279D01*
X174481380Y-129782214D01*
X174519523Y-129745363D01*
X174520834Y-129744006D01*
X174546783Y-129718942D01*
X174573248Y-129696077D01*
X174594694Y-129680209D01*
X174605859Y-129672959D01*
X174640786Y-129646247D01*
X174662437Y-129622045D01*
X174669865Y-129601347D01*
X174669719Y-129597339D01*
X174664885Y-129585518D01*
X174652666Y-129585561D01*
X174632317Y-129597702D01*
X174603090Y-129622172D01*
X174578983Y-129641751D01*
X174550774Y-129660226D01*
X174527386Y-129671036D01*
X174502914Y-129682046D01*
X174478226Y-129705102D01*
X174472475Y-129712885D01*
X174453241Y-129735341D01*
X174431748Y-129757127D01*
X174421783Y-129767097D01*
X174405525Y-129786922D01*
X174396891Y-129802625D01*
X174395721Y-129807230D01*
X174270969Y-129807230D01*
X174280219Y-129798999D01*
X174307680Y-129773565D01*
X174337529Y-129745062D01*
X174339719Y-129742944D01*
X174370891Y-129713977D01*
X174400936Y-129687980D01*
X174426531Y-129667723D01*
X174444351Y-129655978D01*
X174457218Y-129648340D01*
X174483548Y-129628699D01*
X174507654Y-129606517D01*
X174508281Y-129605862D01*
X174531611Y-129584437D01*
X174561958Y-129560284D01*
X174592922Y-129538508D01*
X174602390Y-129532162D01*
X174630984Y-129509883D01*
X174651371Y-129488975D01*
X174661703Y-129471594D01*
X174660137Y-129459901D01*
X174654261Y-129458301D01*
X174635875Y-129463995D01*
X174607304Y-129479392D01*
X174569515Y-129503945D01*
X174523479Y-129537106D01*
X174494635Y-129558424D01*
X174455355Y-129586818D01*
X174418169Y-129613078D01*
X174388319Y-129633467D01*
X174365772Y-129649392D01*
X174336234Y-129674957D01*
X174319768Y-129696884D01*
X174318513Y-129699371D01*
X174302238Y-129722374D01*
X174281662Y-129742109D01*
X174273805Y-129748147D01*
X174250930Y-129767491D01*
X174227715Y-129789097D01*
X174207276Y-129809855D01*
X174192728Y-129826657D01*
X174187186Y-129836393D01*
X174103848Y-129836393D01*
X174154707Y-129771292D01*
X174215062Y-129690927D01*
X174226788Y-129675425D01*
X174253654Y-129643548D01*
X174278142Y-129621036D01*
X174303744Y-129604484D01*
X174325946Y-129590085D01*
X174355569Y-129565768D01*
X174381279Y-129539665D01*
X174387863Y-129532095D01*
X174407251Y-129512344D01*
X174427698Y-129496987D01*
X174453866Y-129482923D01*
X174490417Y-129467049D01*
X174517837Y-129455344D01*
X174546208Y-129441130D01*
X174570370Y-129425165D01*
X174595234Y-129404092D01*
X174625708Y-129374553D01*
X174640413Y-129360287D01*
X174672384Y-129331949D01*
X174701389Y-129309633D01*
X174723720Y-129296299D01*
X174745770Y-129288268D01*
X174780054Y-129280469D01*
X174815557Y-129276542D01*
X174848956Y-129276444D01*
X174876927Y-129280130D01*
X174896147Y-129287556D01*
X174903292Y-129298678D01*
X174899381Y-129304949D01*
X174882768Y-129315415D01*
X174855816Y-129326475D01*
X174836833Y-129333394D01*
X174792771Y-129352276D01*
X174754454Y-129372553D01*
X174723373Y-129393013D01*
X174701018Y-129412441D01*
X174688880Y-129429622D01*
X174688449Y-129443343D01*
X174701218Y-129452390D01*
X174710925Y-129453941D01*
X174730560Y-129449237D01*
X174755214Y-129434050D01*
X174787057Y-129407238D01*
X174807279Y-129390068D01*
X174831130Y-129374179D01*
X174858710Y-129361348D01*
X174893993Y-129349776D01*
X174940953Y-129337667D01*
X174946097Y-129336443D01*
X174989216Y-129327183D01*
X175020193Y-129322924D01*
X175041568Y-129323468D01*
X175055881Y-129328613D01*
X175061907Y-129334188D01*
X175061471Y-129345020D01*
X175047381Y-129358148D01*
X175019059Y-129374038D01*
X174975926Y-129393155D01*
X174951835Y-129403371D01*
X174914784Y-129420115D01*
X174882419Y-129435897D01*
X174859772Y-129448329D01*
X174846995Y-129455779D01*
X174822161Y-129468193D01*
X174812943Y-129471594D01*
X174803014Y-129475257D01*
G37*
%TD*%
M02*
