M48
; DRILL file {KiCad 7.0.7} date 2024 November 27, Wednesday 13:26:34
; FORMAT={-:-/ absolute / inch / decimal}
; #@! TF.CreationDate,2024-11-27T13:26:34-08:00
; #@! TF.GenerationSoftware,Kicad,Pcbnew,7.0.7
; #@! TF.FileFunction,Plated,1,4,PTH
FMAT,2
INCH
; #@! TA.AperFunction,Plated,PTH,ViaDrill
T1C0.0157
; #@! TA.AperFunction,Plated,PTH,ComponentDrill
T2C0.0157
; #@! TA.AperFunction,Plated,PTH,ComponentDrill
T3C0.0197
; #@! TA.AperFunction,Plated,PTH,ComponentDrill
T4C0.0315
; #@! TA.AperFunction,Plated,PTH,ComponentDrill
T5C0.0394
; #@! TA.AperFunction,Plated,PTH,ComponentDrill
T6C0.0402
; #@! TA.AperFunction,Plated,PTH,ComponentDrill
T7C0.0937
%
G90
G05
T1
X3.5637Y-4.754
X3.586Y-3.442
X3.6143Y-4.7983
X3.624Y-3.764
X3.6293Y-4.7198
X3.662Y-3.698
X3.688Y-4.138
X3.704Y-3.92
X3.77Y-5.266
X3.774Y-4.444
X3.834Y-5.074
X3.862Y-4.182
X3.872Y-4.336
X3.878Y-5.234
X3.904Y-5.086
X3.914Y-4.754
X3.926Y-4.658
X3.934Y-3.624
X3.938Y-3.398
X3.95Y-3.556
X3.954Y-4.264
X3.982Y-3.642
X3.996Y-4.376
X3.998Y-5.074
X4.056Y-4.62
X4.06Y-4.272
X4.064Y-5.272
X4.078Y-5.14
X4.144Y-3.464
X4.164Y-4.162
X4.26Y-5.21
X4.298Y-3.482
X4.34Y-4.898
X4.356Y-4.412
X4.396Y-5.058
X4.402Y-4.664
X4.46Y-4.864
X4.478Y-3.67
X4.496Y-4.85
X4.522Y-3.556
X4.548Y-2.514
X4.554Y-4.542
X4.556Y-2.702
X4.586Y-4.986
X4.604Y-4.412
X4.61Y-4.222
X4.626Y-4.062
X4.632Y-3.992
X4.638Y-4.602
X4.638Y-4.794
X4.662Y-4.948
X4.664Y-4.262
X4.666Y-4.826
X4.676Y-2.722
X4.6779Y-4.8862
X4.678Y-2.856
X4.698Y-3.506
X4.698Y-3.548
X4.706Y-4.828
X4.706Y-4.996
X4.7132Y-4.8613
X4.721Y-4.7202
X4.7256Y-4.7535
X4.728Y-4.91
X4.7398Y-4.7902
X4.7607Y-4.686
X4.79Y-4.414
X4.794Y-3.936
X4.7983Y-4.178
X4.8102Y-4.9537
X4.8182Y-4.5942
X4.8193Y-4.9882
X4.8213Y-5.0356
X4.8439Y-3.764
X4.8439Y-3.938
X4.862Y-4.44
X4.87Y-3.396
X4.8725Y-4.8702
X4.8746Y-4.7565
X4.8746Y-4.79
X4.8746Y-4.8235
X4.876Y-2.662
X4.876Y-3.166
X4.876Y-4.706
X4.883Y-3.7848
X4.884Y-4.906
X4.888Y-4.59
X4.91Y-4.222
X4.918Y-4.7038
X4.924Y-4.906
X4.928Y-3.388
X4.9299Y-4.5816
X4.9306Y-5.045
X4.95Y-5.0943
X4.952Y-3.358
X4.9534Y-3.6751
X4.9701Y-5.046
X4.976Y-4.32
X4.9782Y-4.9043
X4.9896Y-4.5811
X5.026Y-2.944
X5.054Y-3.506
X5.068Y-3.6457
X5.0737Y-4.8723
X5.0752Y-4.9064
X5.076Y-4.814
X5.078Y-4.312
X5.104Y-5.082
X5.1181Y-4.5481
X5.144Y-4.946
X5.158Y-4.432
X5.188Y-5.062
X5.1973Y-4.9117
X5.204Y-4.7928
X5.226Y-4.8379
X5.2322Y-4.5742
X5.248Y-5.0267
X5.254Y-3.534
X5.26Y-4.9
X5.288Y-4.114
X5.31Y-4.566
X5.31Y-4.6159
X5.3123Y-2.7603
X5.324Y-3.934
X5.346Y-2.832
X5.352Y-2.676
X5.352Y-2.722
X5.354Y-5.082
X5.356Y-4.902
X5.368Y-2.86
X5.456Y-4.03
X5.466Y-4.668
X5.512Y-3.862
X5.516Y-3.62
X5.522Y-4.4856
X5.642Y-2.958
X5.654Y-3.554
X5.6607Y-4.4863
X5.728Y-2.718
X5.742Y-4.794
X5.752Y-4.59
X5.752Y-5.314
X5.791Y-4.641
X5.81Y-5.152
X5.842Y-4.924
X5.846Y-3.494
X5.852Y-3.124
X5.866Y-2.716
X5.97Y-5.0279
X5.972Y-3.492
X5.982Y-4.874
X5.984Y-3.12
X6.0028Y-4.6878
X6.006Y-4.952
X6.028Y-4.898
X6.036Y-4.568
X6.046Y-4.708
X6.07Y-4.05
X6.088Y-5.028
X6.122Y-2.634
X6.152Y-3.832
X6.158Y-5.0797
X6.176Y-4.9283
X6.232Y-5.138
X6.234Y-5.028
X6.236Y-3.406
X6.236Y-4.93
X6.238Y-4.782
X6.264Y-4.222
X6.328Y-5.236
X6.368Y-3.112
X6.424Y-4.772
X6.45Y-4.224
X6.516Y-5.234
X6.545Y-3.905
X6.57Y-4.926
X6.634Y-2.704
X6.638Y-3.676
X6.704Y-4.68
X6.712Y-3.678
X6.714Y-5.108
X6.732Y-4.7
X6.738Y-4.97
X6.752Y-3.098
X6.762Y-4.1341
X6.766Y-3.472
X6.774Y-4.066
X6.78Y-2.76
X6.804Y-4.898
X6.814Y-4.746
X6.818Y-5.004
X6.822Y-4.6421
X6.866Y-5.26
X6.948Y-4.832
X6.952Y-4.866
X6.954Y-4.632
X6.954Y-4.672
X6.954Y-4.728
X6.956Y-4.964
X7.0Y-4.2261
X7.008Y-4.336
X7.018Y-4.538
X7.028Y-3.198
X7.042Y-3.604
X7.0918Y-4.7972
X7.095Y-4.763
X7.1341Y-4.394
T2
X3.4229Y-4.7875
X3.4229Y-4.819
X3.4229Y-4.8505
X3.4229Y-4.9135
X3.4229Y-4.945
X3.4229Y-4.9765
X3.4505Y-4.7619
X3.4505Y-4.8348
X3.4505Y-4.8663
X3.4505Y-4.8977
X3.4505Y-4.9292
X3.4505Y-5.0021
X5.0465Y-2.7003
X5.0465Y-2.7476
X5.0465Y-2.7948
X5.0465Y-2.8421
X5.0858Y-2.7003
X5.0858Y-2.7476
X5.0858Y-2.7948
X5.0858Y-2.8421
X5.1252Y-2.7003
X5.1252Y-2.7476
X5.1252Y-2.7948
X5.1252Y-2.8421
T3
X3.338Y-3.4174
X3.338Y-3.4666
X3.3383Y-3.6974
X3.3383Y-3.7466
T4
X5.4503Y-2.659
X5.529Y-2.659
T5
X3.352Y-2.5687
X3.353Y-2.813
X3.6113Y-4.1011
X3.6113Y-4.1995
X3.6113Y-4.2782
X3.6113Y-4.3767
T6
X3.497Y-2.568
X3.498Y-2.813
X3.597Y-2.568
X3.598Y-2.813
X3.66Y-5.116
X3.738Y-4.49
X3.738Y-4.622
X3.758Y-3.526
X3.76Y-5.116
X3.802Y-4.2425
X3.802Y-4.3425
X3.838Y-4.49
X3.838Y-4.622
X3.858Y-3.526
X3.908Y-3.862
X3.91Y-3.996
X4.008Y-3.862
X4.01Y-3.996
X4.014Y-4.454
X4.014Y-4.584
X4.014Y-4.71
X4.114Y-4.454
X4.114Y-4.584
X4.114Y-4.71
X4.142Y-3.862
X4.144Y-3.99
X4.148Y-4.978
X4.148Y-5.078
X4.1645Y-2.569
X4.1695Y-2.815
X4.1785Y-4.83
X4.206Y-3.568
X4.206Y-3.668
X4.242Y-3.862
X4.244Y-3.99
X4.2645Y-2.569
X4.2695Y-2.815
X4.2785Y-4.83
X4.312Y-4.986
X4.384Y-4.498
X4.384Y-4.598
X4.412Y-4.986
X4.553Y-3.766
X4.553Y-3.866
X4.556Y-3.198
X4.556Y-3.298
X4.641Y-5.062
X4.641Y-5.262
X4.741Y-5.062
X4.741Y-5.262
X4.773Y-4.3184
X4.8645Y-4.498
X4.873Y-4.3184
X4.883Y-5.262
X4.9015Y-2.461
X4.9645Y-4.498
X4.983Y-5.262
X5.0015Y-2.461
X5.089Y-4.092
X5.134Y-5.261
X5.153Y-3.193
X5.153Y-3.293
X5.159Y-3.759
X5.159Y-3.859
X5.171Y-2.462
X5.189Y-4.092
X5.234Y-5.261
X5.271Y-2.462
X5.315Y-4.324
X5.386Y-5.261
X5.3935Y-2.914
X5.415Y-4.324
X5.486Y-5.261
X5.4935Y-2.914
X5.564Y-4.177
X5.564Y-4.324
X5.664Y-4.177
X5.664Y-4.324
X5.904Y-3.59
X5.904Y-3.69
X6.031Y-2.5809
X6.031Y-2.6809
X6.139Y-3.3589
X6.139Y-3.4589
X6.142Y-2.9829
X6.142Y-3.0829
X6.425Y-2.5809
X6.425Y-2.6809
X6.526Y-2.9829
X6.526Y-3.0829
X6.547Y-3.3569
X6.547Y-3.4569
T7
X3.5046Y-3.9802
X3.5046Y-4.4975
T3
G00X3.2772Y-4.7048
M15
G01X3.2457Y-4.7048
M16
G05
G00X3.2772Y-5.0592
M15
G01X3.2457Y-5.0592
M16
G05
G00X3.4938Y-4.7048
M15
G01X3.4701Y-4.7048
M16
G05
G00X3.4938Y-5.0592
M15
G01X3.4701Y-5.0592
M16
G05
T0
M30
