%TF.GenerationSoftware,KiCad,Pcbnew,7.0.7*%
%TF.CreationDate,2024-11-27T13:26:34-08:00*%
%TF.ProjectId,OuterBoard_rev2.1,4f757465-7242-46f6-9172-645f72657632,rev?*%
%TF.SameCoordinates,Original*%
%TF.FileFunction,Drillmap*%
%TF.FilePolarity,Positive*%
%FSLAX45Y45*%
G04 Gerber Fmt 4.5, Leading zero omitted, Abs format (unit mm)*
G04 Created by KiCad (PCBNEW 7.0.7) date 2024-11-27 13:26:34*
%MOMM*%
%LPD*%
G01*
G04 APERTURE LIST*
%ADD10C,0.100000*%
%ADD11C,0.200000*%
%ADD12C,0.065000*%
%ADD13C,0.210000*%
G04 APERTURE END LIST*
D10*
X18272760Y-6497320D02*
G75*
G03*
X17795240Y-6019800I-477520J0D01*
G01*
X8112760Y-6497320D02*
X8112760Y-13162280D01*
X8590280Y-6019800D02*
X17795240Y-6019800D01*
X8590280Y-13639800D02*
X17795402Y-13639962D01*
X17795402Y-13639962D02*
G75*
G03*
X18272922Y-13162442I-2J477522D01*
G01*
X8590280Y-6019800D02*
G75*
G03*
X8112760Y-6497320I0J-477520D01*
G01*
X8112760Y-13162280D02*
G75*
G03*
X8590280Y-13639800I477520J0D01*
G01*
X18272922Y-13162442D02*
X18272760Y-6497320D01*
D11*
D12*
X8661670Y-11995280D02*
X8726670Y-12060280D01*
X8726670Y-11995280D02*
X8661670Y-12060280D01*
X8661670Y-12740280D02*
X8726670Y-12805280D01*
X8726670Y-12740280D02*
X8661670Y-12805280D01*
D13*
X8588600Y-13258800D02*
G75*
G03*
X8588600Y-13258800I-105000J0D01*
G01*
X10295480Y-8163560D02*
G75*
G03*
X10295480Y-8163560I-105000J0D01*
G01*
X14593160Y-8194040D02*
G75*
G03*
X14593160Y-8194040I-105000J0D01*
G01*
X17976440Y-6416040D02*
G75*
G03*
X17976440Y-6416040I-105000J0D01*
G01*
D11*
X8368537Y-13956446D02*
X8368537Y-13756446D01*
X8368537Y-13756446D02*
X8416156Y-13756446D01*
X8416156Y-13756446D02*
X8444727Y-13765970D01*
X8444727Y-13765970D02*
X8463775Y-13785018D01*
X8463775Y-13785018D02*
X8473299Y-13804065D01*
X8473299Y-13804065D02*
X8482823Y-13842160D01*
X8482823Y-13842160D02*
X8482823Y-13870732D01*
X8482823Y-13870732D02*
X8473299Y-13908827D01*
X8473299Y-13908827D02*
X8463775Y-13927875D01*
X8463775Y-13927875D02*
X8444727Y-13946922D01*
X8444727Y-13946922D02*
X8416156Y-13956446D01*
X8416156Y-13956446D02*
X8368537Y-13956446D01*
X8568537Y-13956446D02*
X8568537Y-13823113D01*
X8568537Y-13861208D02*
X8578061Y-13842160D01*
X8578061Y-13842160D02*
X8587584Y-13832637D01*
X8587584Y-13832637D02*
X8606632Y-13823113D01*
X8606632Y-13823113D02*
X8625680Y-13823113D01*
X8692346Y-13956446D02*
X8692346Y-13823113D01*
X8692346Y-13756446D02*
X8682823Y-13765970D01*
X8682823Y-13765970D02*
X8692346Y-13775494D01*
X8692346Y-13775494D02*
X8701870Y-13765970D01*
X8701870Y-13765970D02*
X8692346Y-13756446D01*
X8692346Y-13756446D02*
X8692346Y-13775494D01*
X8816156Y-13956446D02*
X8797108Y-13946922D01*
X8797108Y-13946922D02*
X8787584Y-13927875D01*
X8787584Y-13927875D02*
X8787584Y-13756446D01*
X8920918Y-13956446D02*
X8901870Y-13946922D01*
X8901870Y-13946922D02*
X8892346Y-13927875D01*
X8892346Y-13927875D02*
X8892346Y-13756446D01*
X9149489Y-13956446D02*
X9149489Y-13756446D01*
X9149489Y-13756446D02*
X9216156Y-13899303D01*
X9216156Y-13899303D02*
X9282823Y-13756446D01*
X9282823Y-13756446D02*
X9282823Y-13956446D01*
X9463775Y-13956446D02*
X9463775Y-13851684D01*
X9463775Y-13851684D02*
X9454251Y-13832637D01*
X9454251Y-13832637D02*
X9435204Y-13823113D01*
X9435204Y-13823113D02*
X9397108Y-13823113D01*
X9397108Y-13823113D02*
X9378061Y-13832637D01*
X9463775Y-13946922D02*
X9444727Y-13956446D01*
X9444727Y-13956446D02*
X9397108Y-13956446D01*
X9397108Y-13956446D02*
X9378061Y-13946922D01*
X9378061Y-13946922D02*
X9368537Y-13927875D01*
X9368537Y-13927875D02*
X9368537Y-13908827D01*
X9368537Y-13908827D02*
X9378061Y-13889779D01*
X9378061Y-13889779D02*
X9397108Y-13880256D01*
X9397108Y-13880256D02*
X9444727Y-13880256D01*
X9444727Y-13880256D02*
X9463775Y-13870732D01*
X9559013Y-13823113D02*
X9559013Y-14023113D01*
X9559013Y-13832637D02*
X9578061Y-13823113D01*
X9578061Y-13823113D02*
X9616156Y-13823113D01*
X9616156Y-13823113D02*
X9635204Y-13832637D01*
X9635204Y-13832637D02*
X9644727Y-13842160D01*
X9644727Y-13842160D02*
X9654251Y-13861208D01*
X9654251Y-13861208D02*
X9654251Y-13918351D01*
X9654251Y-13918351D02*
X9644727Y-13937398D01*
X9644727Y-13937398D02*
X9635204Y-13946922D01*
X9635204Y-13946922D02*
X9616156Y-13956446D01*
X9616156Y-13956446D02*
X9578061Y-13956446D01*
X9578061Y-13956446D02*
X9559013Y-13946922D01*
X9739965Y-13937398D02*
X9749489Y-13946922D01*
X9749489Y-13946922D02*
X9739965Y-13956446D01*
X9739965Y-13956446D02*
X9730442Y-13946922D01*
X9730442Y-13946922D02*
X9739965Y-13937398D01*
X9739965Y-13937398D02*
X9739965Y-13956446D01*
X9739965Y-13832637D02*
X9749489Y-13842160D01*
X9749489Y-13842160D02*
X9739965Y-13851684D01*
X9739965Y-13851684D02*
X9730442Y-13842160D01*
X9730442Y-13842160D02*
X9739965Y-13832637D01*
X9739965Y-13832637D02*
X9739965Y-13851684D01*
D12*
X8042760Y-14252462D02*
X8107760Y-14317462D01*
X8107760Y-14252462D02*
X8042760Y-14317462D01*
D11*
X8406632Y-14176446D02*
X8425680Y-14176446D01*
X8425680Y-14176446D02*
X8444727Y-14185970D01*
X8444727Y-14185970D02*
X8454251Y-14195494D01*
X8454251Y-14195494D02*
X8463775Y-14214541D01*
X8463775Y-14214541D02*
X8473299Y-14252637D01*
X8473299Y-14252637D02*
X8473299Y-14300256D01*
X8473299Y-14300256D02*
X8463775Y-14338351D01*
X8463775Y-14338351D02*
X8454251Y-14357398D01*
X8454251Y-14357398D02*
X8444727Y-14366922D01*
X8444727Y-14366922D02*
X8425680Y-14376446D01*
X8425680Y-14376446D02*
X8406632Y-14376446D01*
X8406632Y-14376446D02*
X8387584Y-14366922D01*
X8387584Y-14366922D02*
X8378061Y-14357398D01*
X8378061Y-14357398D02*
X8368537Y-14338351D01*
X8368537Y-14338351D02*
X8359013Y-14300256D01*
X8359013Y-14300256D02*
X8359013Y-14252637D01*
X8359013Y-14252637D02*
X8368537Y-14214541D01*
X8368537Y-14214541D02*
X8378061Y-14195494D01*
X8378061Y-14195494D02*
X8387584Y-14185970D01*
X8387584Y-14185970D02*
X8406632Y-14176446D01*
X8559013Y-14357398D02*
X8568537Y-14366922D01*
X8568537Y-14366922D02*
X8559013Y-14376446D01*
X8559013Y-14376446D02*
X8549489Y-14366922D01*
X8549489Y-14366922D02*
X8559013Y-14357398D01*
X8559013Y-14357398D02*
X8559013Y-14376446D01*
X8739965Y-14176446D02*
X8701870Y-14176446D01*
X8701870Y-14176446D02*
X8682823Y-14185970D01*
X8682823Y-14185970D02*
X8673299Y-14195494D01*
X8673299Y-14195494D02*
X8654251Y-14224065D01*
X8654251Y-14224065D02*
X8644727Y-14262160D01*
X8644727Y-14262160D02*
X8644727Y-14338351D01*
X8644727Y-14338351D02*
X8654251Y-14357398D01*
X8654251Y-14357398D02*
X8663775Y-14366922D01*
X8663775Y-14366922D02*
X8682823Y-14376446D01*
X8682823Y-14376446D02*
X8720918Y-14376446D01*
X8720918Y-14376446D02*
X8739965Y-14366922D01*
X8739965Y-14366922D02*
X8749489Y-14357398D01*
X8749489Y-14357398D02*
X8759013Y-14338351D01*
X8759013Y-14338351D02*
X8759013Y-14290732D01*
X8759013Y-14290732D02*
X8749489Y-14271684D01*
X8749489Y-14271684D02*
X8739965Y-14262160D01*
X8739965Y-14262160D02*
X8720918Y-14252637D01*
X8720918Y-14252637D02*
X8682823Y-14252637D01*
X8682823Y-14252637D02*
X8663775Y-14262160D01*
X8663775Y-14262160D02*
X8654251Y-14271684D01*
X8654251Y-14271684D02*
X8644727Y-14290732D01*
X8939965Y-14176446D02*
X8844727Y-14176446D01*
X8844727Y-14176446D02*
X8835204Y-14271684D01*
X8835204Y-14271684D02*
X8844727Y-14262160D01*
X8844727Y-14262160D02*
X8863775Y-14252637D01*
X8863775Y-14252637D02*
X8911394Y-14252637D01*
X8911394Y-14252637D02*
X8930442Y-14262160D01*
X8930442Y-14262160D02*
X8939965Y-14271684D01*
X8939965Y-14271684D02*
X8949489Y-14290732D01*
X8949489Y-14290732D02*
X8949489Y-14338351D01*
X8949489Y-14338351D02*
X8939965Y-14357398D01*
X8939965Y-14357398D02*
X8930442Y-14366922D01*
X8930442Y-14366922D02*
X8911394Y-14376446D01*
X8911394Y-14376446D02*
X8863775Y-14376446D01*
X8863775Y-14376446D02*
X8844727Y-14366922D01*
X8844727Y-14366922D02*
X8835204Y-14357398D01*
X9073299Y-14176446D02*
X9092346Y-14176446D01*
X9092346Y-14176446D02*
X9111394Y-14185970D01*
X9111394Y-14185970D02*
X9120918Y-14195494D01*
X9120918Y-14195494D02*
X9130442Y-14214541D01*
X9130442Y-14214541D02*
X9139965Y-14252637D01*
X9139965Y-14252637D02*
X9139965Y-14300256D01*
X9139965Y-14300256D02*
X9130442Y-14338351D01*
X9130442Y-14338351D02*
X9120918Y-14357398D01*
X9120918Y-14357398D02*
X9111394Y-14366922D01*
X9111394Y-14366922D02*
X9092346Y-14376446D01*
X9092346Y-14376446D02*
X9073299Y-14376446D01*
X9073299Y-14376446D02*
X9054251Y-14366922D01*
X9054251Y-14366922D02*
X9044727Y-14357398D01*
X9044727Y-14357398D02*
X9035204Y-14338351D01*
X9035204Y-14338351D02*
X9025680Y-14300256D01*
X9025680Y-14300256D02*
X9025680Y-14252637D01*
X9025680Y-14252637D02*
X9035204Y-14214541D01*
X9035204Y-14214541D02*
X9044727Y-14195494D01*
X9044727Y-14195494D02*
X9054251Y-14185970D01*
X9054251Y-14185970D02*
X9073299Y-14176446D01*
X9225680Y-14376446D02*
X9225680Y-14243113D01*
X9225680Y-14262160D02*
X9235204Y-14252637D01*
X9235204Y-14252637D02*
X9254251Y-14243113D01*
X9254251Y-14243113D02*
X9282823Y-14243113D01*
X9282823Y-14243113D02*
X9301870Y-14252637D01*
X9301870Y-14252637D02*
X9311394Y-14271684D01*
X9311394Y-14271684D02*
X9311394Y-14376446D01*
X9311394Y-14271684D02*
X9320918Y-14252637D01*
X9320918Y-14252637D02*
X9339965Y-14243113D01*
X9339965Y-14243113D02*
X9368537Y-14243113D01*
X9368537Y-14243113D02*
X9387585Y-14252637D01*
X9387585Y-14252637D02*
X9397108Y-14271684D01*
X9397108Y-14271684D02*
X9397108Y-14376446D01*
X9492346Y-14376446D02*
X9492346Y-14243113D01*
X9492346Y-14262160D02*
X9501870Y-14252637D01*
X9501870Y-14252637D02*
X9520918Y-14243113D01*
X9520918Y-14243113D02*
X9549489Y-14243113D01*
X9549489Y-14243113D02*
X9568537Y-14252637D01*
X9568537Y-14252637D02*
X9578061Y-14271684D01*
X9578061Y-14271684D02*
X9578061Y-14376446D01*
X9578061Y-14271684D02*
X9587585Y-14252637D01*
X9587585Y-14252637D02*
X9606632Y-14243113D01*
X9606632Y-14243113D02*
X9635204Y-14243113D01*
X9635204Y-14243113D02*
X9654251Y-14252637D01*
X9654251Y-14252637D02*
X9663775Y-14271684D01*
X9663775Y-14271684D02*
X9663775Y-14376446D01*
X10054251Y-14166922D02*
X9882823Y-14424065D01*
X10311394Y-14176446D02*
X10330442Y-14176446D01*
X10330442Y-14176446D02*
X10349489Y-14185970D01*
X10349489Y-14185970D02*
X10359013Y-14195494D01*
X10359013Y-14195494D02*
X10368537Y-14214541D01*
X10368537Y-14214541D02*
X10378061Y-14252637D01*
X10378061Y-14252637D02*
X10378061Y-14300256D01*
X10378061Y-14300256D02*
X10368537Y-14338351D01*
X10368537Y-14338351D02*
X10359013Y-14357398D01*
X10359013Y-14357398D02*
X10349489Y-14366922D01*
X10349489Y-14366922D02*
X10330442Y-14376446D01*
X10330442Y-14376446D02*
X10311394Y-14376446D01*
X10311394Y-14376446D02*
X10292347Y-14366922D01*
X10292347Y-14366922D02*
X10282823Y-14357398D01*
X10282823Y-14357398D02*
X10273299Y-14338351D01*
X10273299Y-14338351D02*
X10263775Y-14300256D01*
X10263775Y-14300256D02*
X10263775Y-14252637D01*
X10263775Y-14252637D02*
X10273299Y-14214541D01*
X10273299Y-14214541D02*
X10282823Y-14195494D01*
X10282823Y-14195494D02*
X10292347Y-14185970D01*
X10292347Y-14185970D02*
X10311394Y-14176446D01*
X10463775Y-14357398D02*
X10473299Y-14366922D01*
X10473299Y-14366922D02*
X10463775Y-14376446D01*
X10463775Y-14376446D02*
X10454251Y-14366922D01*
X10454251Y-14366922D02*
X10463775Y-14357398D01*
X10463775Y-14357398D02*
X10463775Y-14376446D01*
X10597108Y-14176446D02*
X10616156Y-14176446D01*
X10616156Y-14176446D02*
X10635204Y-14185970D01*
X10635204Y-14185970D02*
X10644728Y-14195494D01*
X10644728Y-14195494D02*
X10654251Y-14214541D01*
X10654251Y-14214541D02*
X10663775Y-14252637D01*
X10663775Y-14252637D02*
X10663775Y-14300256D01*
X10663775Y-14300256D02*
X10654251Y-14338351D01*
X10654251Y-14338351D02*
X10644728Y-14357398D01*
X10644728Y-14357398D02*
X10635204Y-14366922D01*
X10635204Y-14366922D02*
X10616156Y-14376446D01*
X10616156Y-14376446D02*
X10597108Y-14376446D01*
X10597108Y-14376446D02*
X10578061Y-14366922D01*
X10578061Y-14366922D02*
X10568537Y-14357398D01*
X10568537Y-14357398D02*
X10559013Y-14338351D01*
X10559013Y-14338351D02*
X10549489Y-14300256D01*
X10549489Y-14300256D02*
X10549489Y-14252637D01*
X10549489Y-14252637D02*
X10559013Y-14214541D01*
X10559013Y-14214541D02*
X10568537Y-14195494D01*
X10568537Y-14195494D02*
X10578061Y-14185970D01*
X10578061Y-14185970D02*
X10597108Y-14176446D01*
X10739966Y-14195494D02*
X10749489Y-14185970D01*
X10749489Y-14185970D02*
X10768537Y-14176446D01*
X10768537Y-14176446D02*
X10816156Y-14176446D01*
X10816156Y-14176446D02*
X10835204Y-14185970D01*
X10835204Y-14185970D02*
X10844728Y-14195494D01*
X10844728Y-14195494D02*
X10854251Y-14214541D01*
X10854251Y-14214541D02*
X10854251Y-14233589D01*
X10854251Y-14233589D02*
X10844728Y-14262160D01*
X10844728Y-14262160D02*
X10730442Y-14376446D01*
X10730442Y-14376446D02*
X10854251Y-14376446D01*
X11035204Y-14176446D02*
X10939966Y-14176446D01*
X10939966Y-14176446D02*
X10930442Y-14271684D01*
X10930442Y-14271684D02*
X10939966Y-14262160D01*
X10939966Y-14262160D02*
X10959013Y-14252637D01*
X10959013Y-14252637D02*
X11006632Y-14252637D01*
X11006632Y-14252637D02*
X11025680Y-14262160D01*
X11025680Y-14262160D02*
X11035204Y-14271684D01*
X11035204Y-14271684D02*
X11044728Y-14290732D01*
X11044728Y-14290732D02*
X11044728Y-14338351D01*
X11044728Y-14338351D02*
X11035204Y-14357398D01*
X11035204Y-14357398D02*
X11025680Y-14366922D01*
X11025680Y-14366922D02*
X11006632Y-14376446D01*
X11006632Y-14376446D02*
X10959013Y-14376446D01*
X10959013Y-14376446D02*
X10939966Y-14366922D01*
X10939966Y-14366922D02*
X10930442Y-14357398D01*
X11216156Y-14176446D02*
X11178061Y-14176446D01*
X11178061Y-14176446D02*
X11159013Y-14185970D01*
X11159013Y-14185970D02*
X11149489Y-14195494D01*
X11149489Y-14195494D02*
X11130442Y-14224065D01*
X11130442Y-14224065D02*
X11120918Y-14262160D01*
X11120918Y-14262160D02*
X11120918Y-14338351D01*
X11120918Y-14338351D02*
X11130442Y-14357398D01*
X11130442Y-14357398D02*
X11139966Y-14366922D01*
X11139966Y-14366922D02*
X11159013Y-14376446D01*
X11159013Y-14376446D02*
X11197108Y-14376446D01*
X11197108Y-14376446D02*
X11216156Y-14366922D01*
X11216156Y-14366922D02*
X11225680Y-14357398D01*
X11225680Y-14357398D02*
X11235204Y-14338351D01*
X11235204Y-14338351D02*
X11235204Y-14290732D01*
X11235204Y-14290732D02*
X11225680Y-14271684D01*
X11225680Y-14271684D02*
X11216156Y-14262160D01*
X11216156Y-14262160D02*
X11197108Y-14252637D01*
X11197108Y-14252637D02*
X11159013Y-14252637D01*
X11159013Y-14252637D02*
X11139966Y-14262160D01*
X11139966Y-14262160D02*
X11130442Y-14271684D01*
X11130442Y-14271684D02*
X11120918Y-14290732D01*
X11311394Y-14176446D02*
X11311394Y-14214541D01*
X11387585Y-14176446D02*
X11387585Y-14214541D01*
X11682823Y-14452637D02*
X11673299Y-14443113D01*
X11673299Y-14443113D02*
X11654251Y-14414541D01*
X11654251Y-14414541D02*
X11644728Y-14395494D01*
X11644728Y-14395494D02*
X11635204Y-14366922D01*
X11635204Y-14366922D02*
X11625680Y-14319303D01*
X11625680Y-14319303D02*
X11625680Y-14281208D01*
X11625680Y-14281208D02*
X11635204Y-14233589D01*
X11635204Y-14233589D02*
X11644728Y-14205018D01*
X11644728Y-14205018D02*
X11654251Y-14185970D01*
X11654251Y-14185970D02*
X11673299Y-14157398D01*
X11673299Y-14157398D02*
X11682823Y-14147875D01*
X11749489Y-14195494D02*
X11759013Y-14185970D01*
X11759013Y-14185970D02*
X11778061Y-14176446D01*
X11778061Y-14176446D02*
X11825680Y-14176446D01*
X11825680Y-14176446D02*
X11844728Y-14185970D01*
X11844728Y-14185970D02*
X11854251Y-14195494D01*
X11854251Y-14195494D02*
X11863775Y-14214541D01*
X11863775Y-14214541D02*
X11863775Y-14233589D01*
X11863775Y-14233589D02*
X11854251Y-14262160D01*
X11854251Y-14262160D02*
X11739966Y-14376446D01*
X11739966Y-14376446D02*
X11863775Y-14376446D01*
X12101870Y-14376446D02*
X12101870Y-14176446D01*
X12187585Y-14376446D02*
X12187585Y-14271684D01*
X12187585Y-14271684D02*
X12178061Y-14252637D01*
X12178061Y-14252637D02*
X12159013Y-14243113D01*
X12159013Y-14243113D02*
X12130442Y-14243113D01*
X12130442Y-14243113D02*
X12111394Y-14252637D01*
X12111394Y-14252637D02*
X12101870Y-14262160D01*
X12311394Y-14376446D02*
X12292347Y-14366922D01*
X12292347Y-14366922D02*
X12282823Y-14357398D01*
X12282823Y-14357398D02*
X12273299Y-14338351D01*
X12273299Y-14338351D02*
X12273299Y-14281208D01*
X12273299Y-14281208D02*
X12282823Y-14262160D01*
X12282823Y-14262160D02*
X12292347Y-14252637D01*
X12292347Y-14252637D02*
X12311394Y-14243113D01*
X12311394Y-14243113D02*
X12339966Y-14243113D01*
X12339966Y-14243113D02*
X12359013Y-14252637D01*
X12359013Y-14252637D02*
X12368537Y-14262160D01*
X12368537Y-14262160D02*
X12378061Y-14281208D01*
X12378061Y-14281208D02*
X12378061Y-14338351D01*
X12378061Y-14338351D02*
X12368537Y-14357398D01*
X12368537Y-14357398D02*
X12359013Y-14366922D01*
X12359013Y-14366922D02*
X12339966Y-14376446D01*
X12339966Y-14376446D02*
X12311394Y-14376446D01*
X12492347Y-14376446D02*
X12473299Y-14366922D01*
X12473299Y-14366922D02*
X12463775Y-14347875D01*
X12463775Y-14347875D02*
X12463775Y-14176446D01*
X12644728Y-14366922D02*
X12625680Y-14376446D01*
X12625680Y-14376446D02*
X12587585Y-14376446D01*
X12587585Y-14376446D02*
X12568537Y-14366922D01*
X12568537Y-14366922D02*
X12559013Y-14347875D01*
X12559013Y-14347875D02*
X12559013Y-14271684D01*
X12559013Y-14271684D02*
X12568537Y-14252637D01*
X12568537Y-14252637D02*
X12587585Y-14243113D01*
X12587585Y-14243113D02*
X12625680Y-14243113D01*
X12625680Y-14243113D02*
X12644728Y-14252637D01*
X12644728Y-14252637D02*
X12654251Y-14271684D01*
X12654251Y-14271684D02*
X12654251Y-14290732D01*
X12654251Y-14290732D02*
X12559013Y-14309779D01*
X12730442Y-14366922D02*
X12749490Y-14376446D01*
X12749490Y-14376446D02*
X12787585Y-14376446D01*
X12787585Y-14376446D02*
X12806632Y-14366922D01*
X12806632Y-14366922D02*
X12816156Y-14347875D01*
X12816156Y-14347875D02*
X12816156Y-14338351D01*
X12816156Y-14338351D02*
X12806632Y-14319303D01*
X12806632Y-14319303D02*
X12787585Y-14309779D01*
X12787585Y-14309779D02*
X12759013Y-14309779D01*
X12759013Y-14309779D02*
X12739966Y-14300256D01*
X12739966Y-14300256D02*
X12730442Y-14281208D01*
X12730442Y-14281208D02*
X12730442Y-14271684D01*
X12730442Y-14271684D02*
X12739966Y-14252637D01*
X12739966Y-14252637D02*
X12759013Y-14243113D01*
X12759013Y-14243113D02*
X12787585Y-14243113D01*
X12787585Y-14243113D02*
X12806632Y-14252637D01*
X12882823Y-14452637D02*
X12892347Y-14443113D01*
X12892347Y-14443113D02*
X12911394Y-14414541D01*
X12911394Y-14414541D02*
X12920918Y-14395494D01*
X12920918Y-14395494D02*
X12930442Y-14366922D01*
X12930442Y-14366922D02*
X12939966Y-14319303D01*
X12939966Y-14319303D02*
X12939966Y-14281208D01*
X12939966Y-14281208D02*
X12930442Y-14233589D01*
X12930442Y-14233589D02*
X12920918Y-14205018D01*
X12920918Y-14205018D02*
X12911394Y-14185970D01*
X12911394Y-14185970D02*
X12892347Y-14157398D01*
X12892347Y-14157398D02*
X12882823Y-14147875D01*
X13244728Y-14452637D02*
X13235204Y-14443113D01*
X13235204Y-14443113D02*
X13216156Y-14414541D01*
X13216156Y-14414541D02*
X13206632Y-14395494D01*
X13206632Y-14395494D02*
X13197109Y-14366922D01*
X13197109Y-14366922D02*
X13187585Y-14319303D01*
X13187585Y-14319303D02*
X13187585Y-14281208D01*
X13187585Y-14281208D02*
X13197109Y-14233589D01*
X13197109Y-14233589D02*
X13206632Y-14205018D01*
X13206632Y-14205018D02*
X13216156Y-14185970D01*
X13216156Y-14185970D02*
X13235204Y-14157398D01*
X13235204Y-14157398D02*
X13244728Y-14147875D01*
X13320918Y-14243113D02*
X13320918Y-14376446D01*
X13320918Y-14262160D02*
X13330442Y-14252637D01*
X13330442Y-14252637D02*
X13349490Y-14243113D01*
X13349490Y-14243113D02*
X13378061Y-14243113D01*
X13378061Y-14243113D02*
X13397109Y-14252637D01*
X13397109Y-14252637D02*
X13406632Y-14271684D01*
X13406632Y-14271684D02*
X13406632Y-14376446D01*
X13530442Y-14376446D02*
X13511394Y-14366922D01*
X13511394Y-14366922D02*
X13501871Y-14357398D01*
X13501871Y-14357398D02*
X13492347Y-14338351D01*
X13492347Y-14338351D02*
X13492347Y-14281208D01*
X13492347Y-14281208D02*
X13501871Y-14262160D01*
X13501871Y-14262160D02*
X13511394Y-14252637D01*
X13511394Y-14252637D02*
X13530442Y-14243113D01*
X13530442Y-14243113D02*
X13559013Y-14243113D01*
X13559013Y-14243113D02*
X13578061Y-14252637D01*
X13578061Y-14252637D02*
X13587585Y-14262160D01*
X13587585Y-14262160D02*
X13597109Y-14281208D01*
X13597109Y-14281208D02*
X13597109Y-14338351D01*
X13597109Y-14338351D02*
X13587585Y-14357398D01*
X13587585Y-14357398D02*
X13578061Y-14366922D01*
X13578061Y-14366922D02*
X13559013Y-14376446D01*
X13559013Y-14376446D02*
X13530442Y-14376446D01*
X13654252Y-14243113D02*
X13730442Y-14243113D01*
X13682823Y-14176446D02*
X13682823Y-14347875D01*
X13682823Y-14347875D02*
X13692347Y-14366922D01*
X13692347Y-14366922D02*
X13711394Y-14376446D01*
X13711394Y-14376446D02*
X13730442Y-14376446D01*
X13949490Y-14243113D02*
X13949490Y-14443113D01*
X13949490Y-14252637D02*
X13968537Y-14243113D01*
X13968537Y-14243113D02*
X14006633Y-14243113D01*
X14006633Y-14243113D02*
X14025680Y-14252637D01*
X14025680Y-14252637D02*
X14035204Y-14262160D01*
X14035204Y-14262160D02*
X14044728Y-14281208D01*
X14044728Y-14281208D02*
X14044728Y-14338351D01*
X14044728Y-14338351D02*
X14035204Y-14357398D01*
X14035204Y-14357398D02*
X14025680Y-14366922D01*
X14025680Y-14366922D02*
X14006633Y-14376446D01*
X14006633Y-14376446D02*
X13968537Y-14376446D01*
X13968537Y-14376446D02*
X13949490Y-14366922D01*
X14159013Y-14376446D02*
X14139966Y-14366922D01*
X14139966Y-14366922D02*
X14130442Y-14347875D01*
X14130442Y-14347875D02*
X14130442Y-14176446D01*
X14320918Y-14376446D02*
X14320918Y-14271684D01*
X14320918Y-14271684D02*
X14311394Y-14252637D01*
X14311394Y-14252637D02*
X14292347Y-14243113D01*
X14292347Y-14243113D02*
X14254252Y-14243113D01*
X14254252Y-14243113D02*
X14235204Y-14252637D01*
X14320918Y-14366922D02*
X14301871Y-14376446D01*
X14301871Y-14376446D02*
X14254252Y-14376446D01*
X14254252Y-14376446D02*
X14235204Y-14366922D01*
X14235204Y-14366922D02*
X14225680Y-14347875D01*
X14225680Y-14347875D02*
X14225680Y-14328827D01*
X14225680Y-14328827D02*
X14235204Y-14309779D01*
X14235204Y-14309779D02*
X14254252Y-14300256D01*
X14254252Y-14300256D02*
X14301871Y-14300256D01*
X14301871Y-14300256D02*
X14320918Y-14290732D01*
X14387585Y-14243113D02*
X14463775Y-14243113D01*
X14416156Y-14176446D02*
X14416156Y-14347875D01*
X14416156Y-14347875D02*
X14425680Y-14366922D01*
X14425680Y-14366922D02*
X14444728Y-14376446D01*
X14444728Y-14376446D02*
X14463775Y-14376446D01*
X14606633Y-14366922D02*
X14587585Y-14376446D01*
X14587585Y-14376446D02*
X14549490Y-14376446D01*
X14549490Y-14376446D02*
X14530442Y-14366922D01*
X14530442Y-14366922D02*
X14520918Y-14347875D01*
X14520918Y-14347875D02*
X14520918Y-14271684D01*
X14520918Y-14271684D02*
X14530442Y-14252637D01*
X14530442Y-14252637D02*
X14549490Y-14243113D01*
X14549490Y-14243113D02*
X14587585Y-14243113D01*
X14587585Y-14243113D02*
X14606633Y-14252637D01*
X14606633Y-14252637D02*
X14616156Y-14271684D01*
X14616156Y-14271684D02*
X14616156Y-14290732D01*
X14616156Y-14290732D02*
X14520918Y-14309779D01*
X14787585Y-14376446D02*
X14787585Y-14176446D01*
X14787585Y-14366922D02*
X14768537Y-14376446D01*
X14768537Y-14376446D02*
X14730442Y-14376446D01*
X14730442Y-14376446D02*
X14711394Y-14366922D01*
X14711394Y-14366922D02*
X14701871Y-14357398D01*
X14701871Y-14357398D02*
X14692347Y-14338351D01*
X14692347Y-14338351D02*
X14692347Y-14281208D01*
X14692347Y-14281208D02*
X14701871Y-14262160D01*
X14701871Y-14262160D02*
X14711394Y-14252637D01*
X14711394Y-14252637D02*
X14730442Y-14243113D01*
X14730442Y-14243113D02*
X14768537Y-14243113D01*
X14768537Y-14243113D02*
X14787585Y-14252637D01*
X14863775Y-14452637D02*
X14873299Y-14443113D01*
X14873299Y-14443113D02*
X14892347Y-14414541D01*
X14892347Y-14414541D02*
X14901871Y-14395494D01*
X14901871Y-14395494D02*
X14911394Y-14366922D01*
X14911394Y-14366922D02*
X14920918Y-14319303D01*
X14920918Y-14319303D02*
X14920918Y-14281208D01*
X14920918Y-14281208D02*
X14911394Y-14233589D01*
X14911394Y-14233589D02*
X14901871Y-14205018D01*
X14901871Y-14205018D02*
X14892347Y-14185970D01*
X14892347Y-14185970D02*
X14873299Y-14157398D01*
X14873299Y-14157398D02*
X14863775Y-14147875D01*
X8107760Y-14548962D02*
G75*
G03*
X8107760Y-14548962I-100000J0D01*
G01*
X8359013Y-14459494D02*
X8368537Y-14449970D01*
X8368537Y-14449970D02*
X8387584Y-14440446D01*
X8387584Y-14440446D02*
X8435204Y-14440446D01*
X8435204Y-14440446D02*
X8454251Y-14449970D01*
X8454251Y-14449970D02*
X8463775Y-14459494D01*
X8463775Y-14459494D02*
X8473299Y-14478541D01*
X8473299Y-14478541D02*
X8473299Y-14497589D01*
X8473299Y-14497589D02*
X8463775Y-14526160D01*
X8463775Y-14526160D02*
X8349489Y-14640446D01*
X8349489Y-14640446D02*
X8473299Y-14640446D01*
X8559013Y-14621398D02*
X8568537Y-14630922D01*
X8568537Y-14630922D02*
X8559013Y-14640446D01*
X8559013Y-14640446D02*
X8549489Y-14630922D01*
X8549489Y-14630922D02*
X8559013Y-14621398D01*
X8559013Y-14621398D02*
X8559013Y-14640446D01*
X8759013Y-14640446D02*
X8644727Y-14640446D01*
X8701870Y-14640446D02*
X8701870Y-14440446D01*
X8701870Y-14440446D02*
X8682823Y-14469018D01*
X8682823Y-14469018D02*
X8663775Y-14488065D01*
X8663775Y-14488065D02*
X8644727Y-14497589D01*
X8882823Y-14440446D02*
X8901870Y-14440446D01*
X8901870Y-14440446D02*
X8920918Y-14449970D01*
X8920918Y-14449970D02*
X8930442Y-14459494D01*
X8930442Y-14459494D02*
X8939965Y-14478541D01*
X8939965Y-14478541D02*
X8949489Y-14516637D01*
X8949489Y-14516637D02*
X8949489Y-14564256D01*
X8949489Y-14564256D02*
X8939965Y-14602351D01*
X8939965Y-14602351D02*
X8930442Y-14621398D01*
X8930442Y-14621398D02*
X8920918Y-14630922D01*
X8920918Y-14630922D02*
X8901870Y-14640446D01*
X8901870Y-14640446D02*
X8882823Y-14640446D01*
X8882823Y-14640446D02*
X8863775Y-14630922D01*
X8863775Y-14630922D02*
X8854251Y-14621398D01*
X8854251Y-14621398D02*
X8844727Y-14602351D01*
X8844727Y-14602351D02*
X8835204Y-14564256D01*
X8835204Y-14564256D02*
X8835204Y-14516637D01*
X8835204Y-14516637D02*
X8844727Y-14478541D01*
X8844727Y-14478541D02*
X8854251Y-14459494D01*
X8854251Y-14459494D02*
X8863775Y-14449970D01*
X8863775Y-14449970D02*
X8882823Y-14440446D01*
X9073299Y-14440446D02*
X9092346Y-14440446D01*
X9092346Y-14440446D02*
X9111394Y-14449970D01*
X9111394Y-14449970D02*
X9120918Y-14459494D01*
X9120918Y-14459494D02*
X9130442Y-14478541D01*
X9130442Y-14478541D02*
X9139965Y-14516637D01*
X9139965Y-14516637D02*
X9139965Y-14564256D01*
X9139965Y-14564256D02*
X9130442Y-14602351D01*
X9130442Y-14602351D02*
X9120918Y-14621398D01*
X9120918Y-14621398D02*
X9111394Y-14630922D01*
X9111394Y-14630922D02*
X9092346Y-14640446D01*
X9092346Y-14640446D02*
X9073299Y-14640446D01*
X9073299Y-14640446D02*
X9054251Y-14630922D01*
X9054251Y-14630922D02*
X9044727Y-14621398D01*
X9044727Y-14621398D02*
X9035204Y-14602351D01*
X9035204Y-14602351D02*
X9025680Y-14564256D01*
X9025680Y-14564256D02*
X9025680Y-14516637D01*
X9025680Y-14516637D02*
X9035204Y-14478541D01*
X9035204Y-14478541D02*
X9044727Y-14459494D01*
X9044727Y-14459494D02*
X9054251Y-14449970D01*
X9054251Y-14449970D02*
X9073299Y-14440446D01*
X9225680Y-14640446D02*
X9225680Y-14507113D01*
X9225680Y-14526160D02*
X9235204Y-14516637D01*
X9235204Y-14516637D02*
X9254251Y-14507113D01*
X9254251Y-14507113D02*
X9282823Y-14507113D01*
X9282823Y-14507113D02*
X9301870Y-14516637D01*
X9301870Y-14516637D02*
X9311394Y-14535684D01*
X9311394Y-14535684D02*
X9311394Y-14640446D01*
X9311394Y-14535684D02*
X9320918Y-14516637D01*
X9320918Y-14516637D02*
X9339965Y-14507113D01*
X9339965Y-14507113D02*
X9368537Y-14507113D01*
X9368537Y-14507113D02*
X9387585Y-14516637D01*
X9387585Y-14516637D02*
X9397108Y-14535684D01*
X9397108Y-14535684D02*
X9397108Y-14640446D01*
X9492346Y-14640446D02*
X9492346Y-14507113D01*
X9492346Y-14526160D02*
X9501870Y-14516637D01*
X9501870Y-14516637D02*
X9520918Y-14507113D01*
X9520918Y-14507113D02*
X9549489Y-14507113D01*
X9549489Y-14507113D02*
X9568537Y-14516637D01*
X9568537Y-14516637D02*
X9578061Y-14535684D01*
X9578061Y-14535684D02*
X9578061Y-14640446D01*
X9578061Y-14535684D02*
X9587585Y-14516637D01*
X9587585Y-14516637D02*
X9606632Y-14507113D01*
X9606632Y-14507113D02*
X9635204Y-14507113D01*
X9635204Y-14507113D02*
X9654251Y-14516637D01*
X9654251Y-14516637D02*
X9663775Y-14535684D01*
X9663775Y-14535684D02*
X9663775Y-14640446D01*
X10054251Y-14430922D02*
X9882823Y-14688065D01*
X10311394Y-14440446D02*
X10330442Y-14440446D01*
X10330442Y-14440446D02*
X10349489Y-14449970D01*
X10349489Y-14449970D02*
X10359013Y-14459494D01*
X10359013Y-14459494D02*
X10368537Y-14478541D01*
X10368537Y-14478541D02*
X10378061Y-14516637D01*
X10378061Y-14516637D02*
X10378061Y-14564256D01*
X10378061Y-14564256D02*
X10368537Y-14602351D01*
X10368537Y-14602351D02*
X10359013Y-14621398D01*
X10359013Y-14621398D02*
X10349489Y-14630922D01*
X10349489Y-14630922D02*
X10330442Y-14640446D01*
X10330442Y-14640446D02*
X10311394Y-14640446D01*
X10311394Y-14640446D02*
X10292347Y-14630922D01*
X10292347Y-14630922D02*
X10282823Y-14621398D01*
X10282823Y-14621398D02*
X10273299Y-14602351D01*
X10273299Y-14602351D02*
X10263775Y-14564256D01*
X10263775Y-14564256D02*
X10263775Y-14516637D01*
X10263775Y-14516637D02*
X10273299Y-14478541D01*
X10273299Y-14478541D02*
X10282823Y-14459494D01*
X10282823Y-14459494D02*
X10292347Y-14449970D01*
X10292347Y-14449970D02*
X10311394Y-14440446D01*
X10463775Y-14621398D02*
X10473299Y-14630922D01*
X10473299Y-14630922D02*
X10463775Y-14640446D01*
X10463775Y-14640446D02*
X10454251Y-14630922D01*
X10454251Y-14630922D02*
X10463775Y-14621398D01*
X10463775Y-14621398D02*
X10463775Y-14640446D01*
X10597108Y-14440446D02*
X10616156Y-14440446D01*
X10616156Y-14440446D02*
X10635204Y-14449970D01*
X10635204Y-14449970D02*
X10644728Y-14459494D01*
X10644728Y-14459494D02*
X10654251Y-14478541D01*
X10654251Y-14478541D02*
X10663775Y-14516637D01*
X10663775Y-14516637D02*
X10663775Y-14564256D01*
X10663775Y-14564256D02*
X10654251Y-14602351D01*
X10654251Y-14602351D02*
X10644728Y-14621398D01*
X10644728Y-14621398D02*
X10635204Y-14630922D01*
X10635204Y-14630922D02*
X10616156Y-14640446D01*
X10616156Y-14640446D02*
X10597108Y-14640446D01*
X10597108Y-14640446D02*
X10578061Y-14630922D01*
X10578061Y-14630922D02*
X10568537Y-14621398D01*
X10568537Y-14621398D02*
X10559013Y-14602351D01*
X10559013Y-14602351D02*
X10549489Y-14564256D01*
X10549489Y-14564256D02*
X10549489Y-14516637D01*
X10549489Y-14516637D02*
X10559013Y-14478541D01*
X10559013Y-14478541D02*
X10568537Y-14459494D01*
X10568537Y-14459494D02*
X10578061Y-14449970D01*
X10578061Y-14449970D02*
X10597108Y-14440446D01*
X10778061Y-14526160D02*
X10759013Y-14516637D01*
X10759013Y-14516637D02*
X10749489Y-14507113D01*
X10749489Y-14507113D02*
X10739966Y-14488065D01*
X10739966Y-14488065D02*
X10739966Y-14478541D01*
X10739966Y-14478541D02*
X10749489Y-14459494D01*
X10749489Y-14459494D02*
X10759013Y-14449970D01*
X10759013Y-14449970D02*
X10778061Y-14440446D01*
X10778061Y-14440446D02*
X10816156Y-14440446D01*
X10816156Y-14440446D02*
X10835204Y-14449970D01*
X10835204Y-14449970D02*
X10844728Y-14459494D01*
X10844728Y-14459494D02*
X10854251Y-14478541D01*
X10854251Y-14478541D02*
X10854251Y-14488065D01*
X10854251Y-14488065D02*
X10844728Y-14507113D01*
X10844728Y-14507113D02*
X10835204Y-14516637D01*
X10835204Y-14516637D02*
X10816156Y-14526160D01*
X10816156Y-14526160D02*
X10778061Y-14526160D01*
X10778061Y-14526160D02*
X10759013Y-14535684D01*
X10759013Y-14535684D02*
X10749489Y-14545208D01*
X10749489Y-14545208D02*
X10739966Y-14564256D01*
X10739966Y-14564256D02*
X10739966Y-14602351D01*
X10739966Y-14602351D02*
X10749489Y-14621398D01*
X10749489Y-14621398D02*
X10759013Y-14630922D01*
X10759013Y-14630922D02*
X10778061Y-14640446D01*
X10778061Y-14640446D02*
X10816156Y-14640446D01*
X10816156Y-14640446D02*
X10835204Y-14630922D01*
X10835204Y-14630922D02*
X10844728Y-14621398D01*
X10844728Y-14621398D02*
X10854251Y-14602351D01*
X10854251Y-14602351D02*
X10854251Y-14564256D01*
X10854251Y-14564256D02*
X10844728Y-14545208D01*
X10844728Y-14545208D02*
X10835204Y-14535684D01*
X10835204Y-14535684D02*
X10816156Y-14526160D01*
X10930442Y-14459494D02*
X10939966Y-14449970D01*
X10939966Y-14449970D02*
X10959013Y-14440446D01*
X10959013Y-14440446D02*
X11006632Y-14440446D01*
X11006632Y-14440446D02*
X11025680Y-14449970D01*
X11025680Y-14449970D02*
X11035204Y-14459494D01*
X11035204Y-14459494D02*
X11044728Y-14478541D01*
X11044728Y-14478541D02*
X11044728Y-14497589D01*
X11044728Y-14497589D02*
X11035204Y-14526160D01*
X11035204Y-14526160D02*
X10920918Y-14640446D01*
X10920918Y-14640446D02*
X11044728Y-14640446D01*
X11111394Y-14440446D02*
X11244727Y-14440446D01*
X11244727Y-14440446D02*
X11159013Y-14640446D01*
X11311394Y-14440446D02*
X11311394Y-14478541D01*
X11387585Y-14440446D02*
X11387585Y-14478541D01*
X11682823Y-14716637D02*
X11673299Y-14707113D01*
X11673299Y-14707113D02*
X11654251Y-14678541D01*
X11654251Y-14678541D02*
X11644728Y-14659494D01*
X11644728Y-14659494D02*
X11635204Y-14630922D01*
X11635204Y-14630922D02*
X11625680Y-14583303D01*
X11625680Y-14583303D02*
X11625680Y-14545208D01*
X11625680Y-14545208D02*
X11635204Y-14497589D01*
X11635204Y-14497589D02*
X11644728Y-14469018D01*
X11644728Y-14469018D02*
X11654251Y-14449970D01*
X11654251Y-14449970D02*
X11673299Y-14421398D01*
X11673299Y-14421398D02*
X11682823Y-14411875D01*
X11844728Y-14507113D02*
X11844728Y-14640446D01*
X11797108Y-14430922D02*
X11749489Y-14573779D01*
X11749489Y-14573779D02*
X11873299Y-14573779D01*
X12101870Y-14640446D02*
X12101870Y-14440446D01*
X12187585Y-14640446D02*
X12187585Y-14535684D01*
X12187585Y-14535684D02*
X12178061Y-14516637D01*
X12178061Y-14516637D02*
X12159013Y-14507113D01*
X12159013Y-14507113D02*
X12130442Y-14507113D01*
X12130442Y-14507113D02*
X12111394Y-14516637D01*
X12111394Y-14516637D02*
X12101870Y-14526160D01*
X12311394Y-14640446D02*
X12292347Y-14630922D01*
X12292347Y-14630922D02*
X12282823Y-14621398D01*
X12282823Y-14621398D02*
X12273299Y-14602351D01*
X12273299Y-14602351D02*
X12273299Y-14545208D01*
X12273299Y-14545208D02*
X12282823Y-14526160D01*
X12282823Y-14526160D02*
X12292347Y-14516637D01*
X12292347Y-14516637D02*
X12311394Y-14507113D01*
X12311394Y-14507113D02*
X12339966Y-14507113D01*
X12339966Y-14507113D02*
X12359013Y-14516637D01*
X12359013Y-14516637D02*
X12368537Y-14526160D01*
X12368537Y-14526160D02*
X12378061Y-14545208D01*
X12378061Y-14545208D02*
X12378061Y-14602351D01*
X12378061Y-14602351D02*
X12368537Y-14621398D01*
X12368537Y-14621398D02*
X12359013Y-14630922D01*
X12359013Y-14630922D02*
X12339966Y-14640446D01*
X12339966Y-14640446D02*
X12311394Y-14640446D01*
X12492347Y-14640446D02*
X12473299Y-14630922D01*
X12473299Y-14630922D02*
X12463775Y-14611875D01*
X12463775Y-14611875D02*
X12463775Y-14440446D01*
X12644728Y-14630922D02*
X12625680Y-14640446D01*
X12625680Y-14640446D02*
X12587585Y-14640446D01*
X12587585Y-14640446D02*
X12568537Y-14630922D01*
X12568537Y-14630922D02*
X12559013Y-14611875D01*
X12559013Y-14611875D02*
X12559013Y-14535684D01*
X12559013Y-14535684D02*
X12568537Y-14516637D01*
X12568537Y-14516637D02*
X12587585Y-14507113D01*
X12587585Y-14507113D02*
X12625680Y-14507113D01*
X12625680Y-14507113D02*
X12644728Y-14516637D01*
X12644728Y-14516637D02*
X12654251Y-14535684D01*
X12654251Y-14535684D02*
X12654251Y-14554732D01*
X12654251Y-14554732D02*
X12559013Y-14573779D01*
X12730442Y-14630922D02*
X12749490Y-14640446D01*
X12749490Y-14640446D02*
X12787585Y-14640446D01*
X12787585Y-14640446D02*
X12806632Y-14630922D01*
X12806632Y-14630922D02*
X12816156Y-14611875D01*
X12816156Y-14611875D02*
X12816156Y-14602351D01*
X12816156Y-14602351D02*
X12806632Y-14583303D01*
X12806632Y-14583303D02*
X12787585Y-14573779D01*
X12787585Y-14573779D02*
X12759013Y-14573779D01*
X12759013Y-14573779D02*
X12739966Y-14564256D01*
X12739966Y-14564256D02*
X12730442Y-14545208D01*
X12730442Y-14545208D02*
X12730442Y-14535684D01*
X12730442Y-14535684D02*
X12739966Y-14516637D01*
X12739966Y-14516637D02*
X12759013Y-14507113D01*
X12759013Y-14507113D02*
X12787585Y-14507113D01*
X12787585Y-14507113D02*
X12806632Y-14516637D01*
X12882823Y-14716637D02*
X12892347Y-14707113D01*
X12892347Y-14707113D02*
X12911394Y-14678541D01*
X12911394Y-14678541D02*
X12920918Y-14659494D01*
X12920918Y-14659494D02*
X12930442Y-14630922D01*
X12930442Y-14630922D02*
X12939966Y-14583303D01*
X12939966Y-14583303D02*
X12939966Y-14545208D01*
X12939966Y-14545208D02*
X12930442Y-14497589D01*
X12930442Y-14497589D02*
X12920918Y-14469018D01*
X12920918Y-14469018D02*
X12911394Y-14449970D01*
X12911394Y-14449970D02*
X12892347Y-14421398D01*
X12892347Y-14421398D02*
X12882823Y-14411875D01*
X13244728Y-14716637D02*
X13235204Y-14707113D01*
X13235204Y-14707113D02*
X13216156Y-14678541D01*
X13216156Y-14678541D02*
X13206632Y-14659494D01*
X13206632Y-14659494D02*
X13197109Y-14630922D01*
X13197109Y-14630922D02*
X13187585Y-14583303D01*
X13187585Y-14583303D02*
X13187585Y-14545208D01*
X13187585Y-14545208D02*
X13197109Y-14497589D01*
X13197109Y-14497589D02*
X13206632Y-14469018D01*
X13206632Y-14469018D02*
X13216156Y-14449970D01*
X13216156Y-14449970D02*
X13235204Y-14421398D01*
X13235204Y-14421398D02*
X13244728Y-14411875D01*
X13320918Y-14507113D02*
X13320918Y-14640446D01*
X13320918Y-14526160D02*
X13330442Y-14516637D01*
X13330442Y-14516637D02*
X13349490Y-14507113D01*
X13349490Y-14507113D02*
X13378061Y-14507113D01*
X13378061Y-14507113D02*
X13397109Y-14516637D01*
X13397109Y-14516637D02*
X13406632Y-14535684D01*
X13406632Y-14535684D02*
X13406632Y-14640446D01*
X13530442Y-14640446D02*
X13511394Y-14630922D01*
X13511394Y-14630922D02*
X13501871Y-14621398D01*
X13501871Y-14621398D02*
X13492347Y-14602351D01*
X13492347Y-14602351D02*
X13492347Y-14545208D01*
X13492347Y-14545208D02*
X13501871Y-14526160D01*
X13501871Y-14526160D02*
X13511394Y-14516637D01*
X13511394Y-14516637D02*
X13530442Y-14507113D01*
X13530442Y-14507113D02*
X13559013Y-14507113D01*
X13559013Y-14507113D02*
X13578061Y-14516637D01*
X13578061Y-14516637D02*
X13587585Y-14526160D01*
X13587585Y-14526160D02*
X13597109Y-14545208D01*
X13597109Y-14545208D02*
X13597109Y-14602351D01*
X13597109Y-14602351D02*
X13587585Y-14621398D01*
X13587585Y-14621398D02*
X13578061Y-14630922D01*
X13578061Y-14630922D02*
X13559013Y-14640446D01*
X13559013Y-14640446D02*
X13530442Y-14640446D01*
X13654252Y-14507113D02*
X13730442Y-14507113D01*
X13682823Y-14440446D02*
X13682823Y-14611875D01*
X13682823Y-14611875D02*
X13692347Y-14630922D01*
X13692347Y-14630922D02*
X13711394Y-14640446D01*
X13711394Y-14640446D02*
X13730442Y-14640446D01*
X13949490Y-14507113D02*
X13949490Y-14707113D01*
X13949490Y-14516637D02*
X13968537Y-14507113D01*
X13968537Y-14507113D02*
X14006633Y-14507113D01*
X14006633Y-14507113D02*
X14025680Y-14516637D01*
X14025680Y-14516637D02*
X14035204Y-14526160D01*
X14035204Y-14526160D02*
X14044728Y-14545208D01*
X14044728Y-14545208D02*
X14044728Y-14602351D01*
X14044728Y-14602351D02*
X14035204Y-14621398D01*
X14035204Y-14621398D02*
X14025680Y-14630922D01*
X14025680Y-14630922D02*
X14006633Y-14640446D01*
X14006633Y-14640446D02*
X13968537Y-14640446D01*
X13968537Y-14640446D02*
X13949490Y-14630922D01*
X14159013Y-14640446D02*
X14139966Y-14630922D01*
X14139966Y-14630922D02*
X14130442Y-14611875D01*
X14130442Y-14611875D02*
X14130442Y-14440446D01*
X14320918Y-14640446D02*
X14320918Y-14535684D01*
X14320918Y-14535684D02*
X14311394Y-14516637D01*
X14311394Y-14516637D02*
X14292347Y-14507113D01*
X14292347Y-14507113D02*
X14254252Y-14507113D01*
X14254252Y-14507113D02*
X14235204Y-14516637D01*
X14320918Y-14630922D02*
X14301871Y-14640446D01*
X14301871Y-14640446D02*
X14254252Y-14640446D01*
X14254252Y-14640446D02*
X14235204Y-14630922D01*
X14235204Y-14630922D02*
X14225680Y-14611875D01*
X14225680Y-14611875D02*
X14225680Y-14592827D01*
X14225680Y-14592827D02*
X14235204Y-14573779D01*
X14235204Y-14573779D02*
X14254252Y-14564256D01*
X14254252Y-14564256D02*
X14301871Y-14564256D01*
X14301871Y-14564256D02*
X14320918Y-14554732D01*
X14387585Y-14507113D02*
X14463775Y-14507113D01*
X14416156Y-14440446D02*
X14416156Y-14611875D01*
X14416156Y-14611875D02*
X14425680Y-14630922D01*
X14425680Y-14630922D02*
X14444728Y-14640446D01*
X14444728Y-14640446D02*
X14463775Y-14640446D01*
X14606633Y-14630922D02*
X14587585Y-14640446D01*
X14587585Y-14640446D02*
X14549490Y-14640446D01*
X14549490Y-14640446D02*
X14530442Y-14630922D01*
X14530442Y-14630922D02*
X14520918Y-14611875D01*
X14520918Y-14611875D02*
X14520918Y-14535684D01*
X14520918Y-14535684D02*
X14530442Y-14516637D01*
X14530442Y-14516637D02*
X14549490Y-14507113D01*
X14549490Y-14507113D02*
X14587585Y-14507113D01*
X14587585Y-14507113D02*
X14606633Y-14516637D01*
X14606633Y-14516637D02*
X14616156Y-14535684D01*
X14616156Y-14535684D02*
X14616156Y-14554732D01*
X14616156Y-14554732D02*
X14520918Y-14573779D01*
X14787585Y-14640446D02*
X14787585Y-14440446D01*
X14787585Y-14630922D02*
X14768537Y-14640446D01*
X14768537Y-14640446D02*
X14730442Y-14640446D01*
X14730442Y-14640446D02*
X14711394Y-14630922D01*
X14711394Y-14630922D02*
X14701871Y-14621398D01*
X14701871Y-14621398D02*
X14692347Y-14602351D01*
X14692347Y-14602351D02*
X14692347Y-14545208D01*
X14692347Y-14545208D02*
X14701871Y-14526160D01*
X14701871Y-14526160D02*
X14711394Y-14516637D01*
X14711394Y-14516637D02*
X14730442Y-14507113D01*
X14730442Y-14507113D02*
X14768537Y-14507113D01*
X14768537Y-14507113D02*
X14787585Y-14516637D01*
X14863775Y-14716637D02*
X14873299Y-14707113D01*
X14873299Y-14707113D02*
X14892347Y-14678541D01*
X14892347Y-14678541D02*
X14901871Y-14659494D01*
X14901871Y-14659494D02*
X14911394Y-14630922D01*
X14911394Y-14630922D02*
X14920918Y-14583303D01*
X14920918Y-14583303D02*
X14920918Y-14545208D01*
X14920918Y-14545208D02*
X14911394Y-14497589D01*
X14911394Y-14497589D02*
X14901871Y-14469018D01*
X14901871Y-14469018D02*
X14892347Y-14449970D01*
X14892347Y-14449970D02*
X14873299Y-14421398D01*
X14873299Y-14421398D02*
X14863775Y-14411875D01*
M02*
