%TF.GenerationSoftware,KiCad,Pcbnew,7.0.7*%
%TF.CreationDate,2024-10-30T15:59:06-07:00*%
%TF.ProjectId,SensingBoard_rev1.1,53656e73-696e-4674-926f-6172645f7265,rev?*%
%TF.SameCoordinates,Original*%
%TF.FileFunction,Copper,L4,Inr*%
%TF.FilePolarity,Positive*%
%FSLAX46Y46*%
G04 Gerber Fmt 4.6, Leading zero omitted, Abs format (unit mm)*
G04 Created by KiCad (PCBNEW 7.0.7) date 2024-10-30 15:59:06*
%MOMM*%
%LPD*%
G01*
G04 APERTURE LIST*
%TA.AperFunction,ComponentPad*%
%ADD10C,1.524000*%
%TD*%
%TA.AperFunction,ComponentPad*%
%ADD11C,2.100000*%
%TD*%
%TA.AperFunction,ComponentPad*%
%ADD12C,2.600000*%
%TD*%
%TA.AperFunction,ViaPad*%
%ADD13C,0.550000*%
%TD*%
%TA.AperFunction,Conductor*%
%ADD14C,0.200000*%
%TD*%
G04 APERTURE END LIST*
D10*
%TO.N,MOTOR2_BIN2*%
%TO.C,J6*%
X124764800Y-49377600D03*
%TO.N,MOTOR2_BIN1*%
X124764800Y-46837600D03*
%TD*%
%TO.N,DRV_FAULT*%
%TO.C,J7*%
X121666000Y-46824900D03*
%TO.N,DRV_SLEEP*%
X121666000Y-49364900D03*
%TD*%
%TO.N,GND*%
%TO.C,J9*%
X128879600Y-52730400D03*
%TO.N,VDC*%
X131419600Y-52730400D03*
%TD*%
D11*
%TO.N,GND*%
%TO.C,J1*%
X117882000Y-58318400D03*
D12*
X112522000Y-58318400D03*
D11*
X117882000Y-66958400D03*
D12*
X112522000Y-66958400D03*
%TD*%
D10*
%TO.N,MOTOR1_AIN2*%
%TO.C,J5*%
X124460000Y-52679600D03*
%TO.N,MOTOR1_AIN1*%
X121920000Y-52679600D03*
%TD*%
D13*
%TO.N,Net-(U2-XIN32)*%
X140496118Y-67595586D03*
X144678400Y-69427900D03*
%TO.N,+5V*%
X116294500Y-61382635D03*
X116136972Y-64112900D03*
%TO.N,DRV_SLEEP*%
X137974396Y-68511505D03*
%TO.N,DRV_FAULT*%
X139496800Y-67614800D03*
%TO.N,+1V8*%
X131599700Y-73710800D03*
X117348000Y-52984400D03*
%TO.N,+2V8*%
X139649200Y-47193200D03*
X130914831Y-71326283D03*
X143713200Y-60350400D03*
X141244669Y-67708302D03*
%TO.N,Net-(D4-K)*%
X140882921Y-71613813D03*
X123647200Y-72644000D03*
%TO.N,IO38{slash}DVP_VSYNC*%
X139039600Y-64429900D03*
X131908935Y-68459735D03*
%TO.N,IO47{slash}DVP_HREF*%
X135534400Y-64668400D03*
X131927697Y-71138096D03*
%TO.N,IO48{slash}DVP_Y9*%
X130518100Y-70307200D03*
X134975600Y-66548000D03*
%TO.N,IO10{slash}XMCLK*%
X128117600Y-58028800D03*
%TO.N,IO11{slash}DVP_Y8*%
X129619678Y-58899122D03*
%TO.N,IO12{slash}DVP_Y7*%
X128724700Y-71221600D03*
X128701732Y-59294572D03*
%TO.N,IO13{slash}DVP_PCLK*%
X128724700Y-70408800D03*
X128823958Y-60406042D03*
%TO.N,BNO_INT*%
X137286833Y-68808767D03*
X145796000Y-66954400D03*
%TO.N,USB_DP*%
X120345200Y-62738000D03*
X128431283Y-64253555D03*
%TO.N,USB_DN*%
X119430800Y-63347600D03*
X120497600Y-63906400D03*
X116294097Y-62382747D03*
X128431283Y-63614052D03*
%TO.N,IO14{slash}DVP_Y6*%
X132181600Y-60706000D03*
X128760001Y-69225233D03*
%TO.N,IO15{slash}DVP_Y2*%
X132326990Y-61328757D03*
X127355600Y-70154800D03*
%TO.N,IO16{slash}DVP_Y5*%
X132284525Y-62028125D03*
%TO.N,IO17{slash}DVP_Y3*%
X132147918Y-62792809D03*
X125873961Y-68523514D03*
%TO.N,IO18{slash}DVP_Y4*%
X132130800Y-63441900D03*
X124874884Y-68552681D03*
%TO.N,CHIP_EN*%
X126238000Y-77774800D03*
X136194887Y-57718139D03*
%TO.N,SPID*%
X134355826Y-64576974D03*
X130454400Y-75809300D03*
%TO.N,SPIQ*%
X132527900Y-67259200D03*
X133248400Y-64770000D03*
%TO.N,GND*%
X115062000Y-52070000D03*
X121869200Y-64973200D03*
X136122501Y-55664292D03*
X121920000Y-57962800D03*
X128371600Y-79908400D03*
X118465600Y-48615600D03*
X148844000Y-66649600D03*
X118110000Y-72034400D03*
X140004800Y-66103900D03*
X141028693Y-74352978D03*
X136245600Y-73406000D03*
X136499600Y-78892400D03*
X119923979Y-70420735D03*
X146964400Y-65227200D03*
X119278400Y-53898800D03*
X127355600Y-73456800D03*
X122021600Y-76606400D03*
X137414000Y-49936400D03*
X131292600Y-70069800D03*
X139700000Y-48869600D03*
X134721600Y-62128400D03*
X145237200Y-73050400D03*
X145237200Y-63550800D03*
X116992400Y-69646800D03*
X128828800Y-62382400D03*
X138042436Y-76102776D03*
X139903200Y-70866000D03*
X125171200Y-66311183D03*
X124968000Y-58216800D03*
X134416800Y-48768000D03*
X145288000Y-68580000D03*
X130810000Y-44348400D03*
X127254000Y-48818800D03*
X142480700Y-56438800D03*
X139242800Y-54051200D03*
%TO.N,+3.3V*%
X122377200Y-66294000D03*
X128066800Y-65278000D03*
X147116800Y-61112400D03*
X140106400Y-63578800D03*
X132384800Y-81178400D03*
X141481197Y-56438800D03*
X140970000Y-73355200D03*
X128524000Y-80924400D03*
X136369675Y-54417709D03*
X136519984Y-72708528D03*
X126565800Y-58216800D03*
X127457200Y-47752000D03*
X121107200Y-76606400D03*
X137793500Y-70223700D03*
X130030601Y-61599131D03*
X140328058Y-59352858D03*
X137210800Y-76657200D03*
%TO.N,RX_D7*%
X139085064Y-61608223D03*
X128171085Y-61528315D03*
%TO.N,TX_D6*%
X139722764Y-61560242D03*
X125831600Y-57759600D03*
%TO.N,MTDO{slash}IO40{slash}CAM_SDA*%
X142778620Y-64566316D03*
X123228303Y-68986400D03*
X135435433Y-73962167D03*
X137312400Y-63550800D03*
%TO.N,MTCK{slash}IO39{slash}CAM_SCL*%
X137280918Y-64331785D03*
X133096000Y-73456800D03*
X124124268Y-69024617D03*
%TO.N,D3{slash}A3*%
X132597902Y-57628415D03*
X133858000Y-59619598D03*
%TO.N,D2{slash}A2*%
X132556500Y-56591200D03*
X135026400Y-59588400D03*
%TO.N,GPIO0*%
X132638800Y-77825600D03*
X136601200Y-59542901D03*
%TO.N,MTDI{slash}IO41{slash}PDM_DATA*%
X122478800Y-68986400D03*
X139100758Y-62920105D03*
%TO.N,MTMS{slash}IO42{slash}PDM_CLK*%
X121361200Y-68986400D03*
X137215402Y-62002900D03*
%TD*%
D14*
%TO.N,Net-(U2-XIN32)*%
X140496118Y-68512518D02*
X141411500Y-69427900D01*
X140496118Y-67595586D02*
X140496118Y-68512518D01*
X141411500Y-69427900D02*
X144678400Y-69427900D01*
%TO.N,+2V8*%
X140734291Y-67020586D02*
X139277841Y-67020586D01*
X138886827Y-67411600D02*
X134829514Y-67411600D01*
X134829514Y-67411600D02*
X130914831Y-71326283D01*
X141244669Y-67530964D02*
X140734291Y-67020586D01*
X139277841Y-67020586D02*
X138886827Y-67411600D01*
X141244669Y-67708302D02*
X141244669Y-67530964D01*
%TO.N,Net-(D4-K)*%
X132400627Y-77250600D02*
X132349827Y-77199800D01*
X140882921Y-71613813D02*
X140157200Y-72339534D01*
X123647200Y-75140085D02*
X123647200Y-72644000D01*
X132349827Y-77199800D02*
X125706915Y-77199800D01*
X125706915Y-77199800D02*
X123647200Y-75140085D01*
X140157200Y-72339534D02*
X140157200Y-76504800D01*
X140157200Y-76504800D02*
X139388800Y-77273200D01*
X139366200Y-77250600D02*
X132400627Y-77250600D01*
X139388800Y-77273200D02*
X139366200Y-77250600D01*
%TO.N,IO38{slash}DVP_VSYNC*%
X137585500Y-62975800D02*
X139039600Y-64429900D01*
X132992900Y-67451810D02*
X133004990Y-67451810D01*
X134687000Y-62975800D02*
X137585500Y-62975800D01*
X133713400Y-63949400D02*
X134687000Y-62975800D01*
X133004990Y-67451810D02*
X133713400Y-66743400D01*
X131908935Y-68459735D02*
X131984975Y-68459735D01*
X131984975Y-68459735D02*
X132992900Y-67451810D01*
X133713400Y-66743400D02*
X133713400Y-63949400D01*
%TO.N,USB_DN*%
X120650316Y-63753684D02*
X128291651Y-63753684D01*
X128291651Y-63753684D02*
X128431283Y-63614052D01*
X120497600Y-63906400D02*
X120650316Y-63753684D01*
%TO.N,IO15{slash}DVP_Y2*%
X132326990Y-61328757D02*
X130417130Y-61328757D01*
X129082800Y-68021200D02*
X127355600Y-69748400D01*
X127727400Y-60943800D02*
X127430300Y-61240900D01*
X130082973Y-60994600D02*
X128294273Y-60994600D01*
X130417130Y-61328757D02*
X130082973Y-60994600D01*
X128243473Y-60943800D02*
X127727400Y-60943800D01*
X127355600Y-69748400D02*
X127355600Y-70154800D01*
X127430300Y-61796700D02*
X129082800Y-63449200D01*
X128294273Y-60994600D02*
X128243473Y-60943800D01*
X127430300Y-61240900D02*
X127430300Y-61796700D01*
X129082800Y-63449200D02*
X129082800Y-68021200D01*
%TO.N,IO18{slash}DVP_Y4*%
X132719016Y-59916042D02*
X121389158Y-59916042D01*
X119684800Y-63786565D02*
X119684800Y-66497200D01*
X132130800Y-63441900D02*
X132607022Y-63441900D01*
X119920800Y-63144635D02*
X119920800Y-63550565D01*
X133451600Y-62597322D02*
X133451600Y-60648626D01*
X124394203Y-68072000D02*
X124874884Y-68552681D01*
X133451600Y-60648626D02*
X132719016Y-59916042D01*
X121389158Y-59916042D02*
X119684800Y-61620400D01*
X119684800Y-66497200D02*
X121259600Y-68072000D01*
X121259600Y-68072000D02*
X124394203Y-68072000D01*
X119684800Y-61620400D02*
X119684800Y-62908635D01*
X119920800Y-63550565D02*
X119684800Y-63786565D01*
X132607022Y-63441900D02*
X133451600Y-62597322D01*
X119684800Y-62908635D02*
X119920800Y-63144635D01*
%TO.N,SPID*%
X129943100Y-75298000D02*
X130454400Y-75809300D01*
X129943100Y-70069027D02*
X129943100Y-75298000D01*
X134355826Y-66669747D02*
X131530773Y-69494800D01*
X131530773Y-69494800D02*
X130517327Y-69494800D01*
X130517327Y-69494800D02*
X129943100Y-70069027D01*
X134355826Y-64576974D02*
X134355826Y-66669747D01*
%TO.N,RX_D7*%
X134763990Y-61428400D02*
X138905241Y-61428400D01*
X128171085Y-61528315D02*
X128787888Y-61528315D01*
X134256600Y-62237800D02*
X134256600Y-61935790D01*
X129403800Y-63516200D02*
X129794000Y-63906400D01*
X134256600Y-61935790D02*
X134763990Y-61428400D01*
X129794000Y-63906400D02*
X132588000Y-63906400D01*
X128787888Y-61528315D02*
X129403800Y-62144227D01*
X132588000Y-63906400D02*
X134256600Y-62237800D01*
X138905241Y-61428400D02*
X139085064Y-61608223D01*
X129403800Y-62144227D02*
X129403800Y-63516200D01*
%TO.N,TX_D6*%
X130702752Y-57454300D02*
X126136900Y-57454300D01*
X139071722Y-60909200D02*
X134157652Y-60909200D01*
X126136900Y-57454300D02*
X125831600Y-57759600D01*
X139722764Y-61560242D02*
X139071722Y-60909200D01*
X134157652Y-60909200D02*
X130702752Y-57454300D01*
%TO.N,MTDO{slash}IO40{slash}CAM_SDA*%
X125872601Y-76799800D02*
X134528200Y-76799800D01*
X142340036Y-65004900D02*
X142778620Y-64566316D01*
X138766500Y-65004900D02*
X142340036Y-65004900D01*
X123228303Y-70548703D02*
X124510800Y-71831200D01*
X124510800Y-75438000D02*
X125872601Y-76799800D01*
X134528200Y-76799800D02*
X135435433Y-75892567D01*
X124510800Y-71831200D02*
X124510800Y-75438000D01*
X123228303Y-68986400D02*
X123228303Y-70548703D01*
X135435433Y-75892567D02*
X135435433Y-73962167D01*
X137312400Y-63550800D02*
X138766500Y-65004900D01*
%TO.N,MTCK{slash}IO39{slash}CAM_SCL*%
X133096000Y-75793600D02*
X133096000Y-73456800D01*
X124910800Y-75272314D02*
X126038286Y-76399800D01*
X126038286Y-76399800D02*
X132489800Y-76399800D01*
X124124268Y-69024617D02*
X124910800Y-69811149D01*
X124910800Y-69811149D02*
X124910800Y-75272314D01*
X132489800Y-76399800D02*
X133096000Y-75793600D01*
%TO.N,MTMS{slash}IO42{slash}PDM_CLK*%
X121361200Y-74987686D02*
X124774114Y-78400600D01*
X133689400Y-78400600D02*
X134416800Y-77673200D01*
X121361200Y-68986400D02*
X121361200Y-74987686D01*
X145342823Y-62183223D02*
X137395725Y-62183223D01*
X146371000Y-63211400D02*
X145342823Y-62183223D01*
X146371000Y-70856686D02*
X146371000Y-63211400D01*
X134416800Y-77673200D02*
X139554486Y-77673200D01*
X137395725Y-62183223D02*
X137215402Y-62002900D01*
X124774114Y-78400600D02*
X133689400Y-78400600D01*
X139554486Y-77673200D02*
X146371000Y-70856686D01*
%TD*%
M02*
