M48
; DRILL file {KiCad 7.0.7} date 2024 October 30, Wednesday 15:59:04
; FORMAT={-:-/ absolute / inch / decimal}
; #@! TF.CreationDate,2024-10-30T15:59:04-07:00
; #@! TF.GenerationSoftware,Kicad,Pcbnew,7.0.7
; #@! TF.FileFunction,Plated,1,6,PTH
FMAT,2
INCH
; #@! TA.AperFunction,Plated,PTH,ViaDrill
T1C0.0098
; #@! TA.AperFunction,Plated,PTH,ComponentDrill
T2C0.0400
; #@! TA.AperFunction,Plated,PTH,ComponentDrill
T3C0.0630
; #@! TA.AperFunction,Plated,PTH,ComponentDrill
T4C0.0827
%
G90
G05
T1
X4.53Y-2.05
X4.5723Y-2.5241
X4.5785Y-2.456
X4.5785Y-2.4166
X4.606Y-2.742
X4.62Y-2.086
X4.65Y-2.836
X4.664Y-1.914
X4.696Y-2.122
X4.702Y-2.494
X4.7214Y-2.7725
X4.738Y-2.47
X4.744Y-2.516
X4.768Y-3.016
X4.778Y-2.716
X4.798Y-2.558
X4.8Y-2.282
X4.804Y-3.016
X4.818Y-2.61
X4.822Y-2.716
X4.8515Y-2.716
X4.868Y-2.86
X4.8868Y-2.7175
X4.9163Y-2.6989
X4.92Y-2.292
X4.928Y-2.6107
X4.954Y-2.274
X4.9557Y-2.6978
X4.97Y-3.062
X4.9829Y-2.292
X5.01Y-1.922
X5.014Y-2.762
X5.014Y-2.892
X5.018Y-1.88
X5.042Y-2.57
X5.044Y-2.2846
X5.0461Y-2.4224
X5.054Y-3.146
X5.0563Y-2.5045
X5.0563Y-2.5297
X5.06Y-3.186
X5.067Y-2.3344
X5.0679Y-2.772
X5.0679Y-2.804
X5.0693Y-2.7254
X5.0718Y-2.3782
X5.072Y-2.456
X5.1031Y-2.3189
X5.1193Y-2.4252
X5.136Y-2.9846
X5.1385Y-2.768
X5.15Y-1.746
X5.1541Y-2.8081
X5.169Y-2.7587
X5.1811Y-2.902
X5.1933Y-2.6953
X5.194Y-2.8007
X5.202Y-2.4977
X5.2027Y-2.4722
X5.204Y-2.39
X5.2081Y-2.4421
X5.2097Y-2.4145
X5.212Y-3.196
X5.2176Y-2.648
X5.2188Y-2.228
X5.2204Y-2.2688
X5.222Y-3.064
X5.24Y-2.892
X5.246Y-2.55
X5.27Y-2.3472
X5.2896Y-2.5424
X5.292Y-1.92
X5.304Y-2.446
X5.314Y-2.62
X5.316Y-2.346
X5.3321Y-2.9119
X5.336Y-2.546
X5.3592Y-2.1915
X5.362Y-2.2724
X5.364Y-2.89
X5.3689Y-2.1424
X5.374Y-3.106
X5.3748Y-2.8625
X5.378Y-2.3442
X5.402Y-3.018
X5.4022Y-2.4411
X5.4048Y-2.5327
X5.405Y-2.709
X5.406Y-2.502
X5.41Y-1.966
X5.4249Y-2.7647
X5.4321Y-2.6973
X5.4347Y-2.9962
X5.474Y-2.5366
X5.4758Y-2.4255
X5.4764Y-2.4772
X5.482Y-2.128
X5.492Y-2.662
X5.498Y-1.858
X5.5Y-1.924
X5.5009Y-2.4236
X5.508Y-2.79
X5.512Y-2.6025
X5.516Y-2.5031
X5.5247Y-2.3367
X5.5313Y-2.6612
X5.5466Y-2.8194
X5.55Y-2.888
X5.5523Y-2.9273
X5.5608Y-2.6657
X5.5701Y-2.222
X5.6095Y-2.222
X5.6212Y-2.542
X5.658Y-2.376
X5.696Y-2.7334
X5.718Y-2.502
X5.718Y-2.876
X5.72Y-2.7
X5.74Y-2.636
X5.786Y-2.568
X5.792Y-2.406
X5.86Y-2.624
T2
X4.79Y-1.8435
X4.79Y-1.9435
X4.8Y-2.074
X4.9Y-2.074
X4.912Y-1.844
X4.912Y-1.944
X5.074Y-2.076
X5.174Y-2.076
T3
X4.641Y-2.296
X4.641Y-2.6362
T4
X4.43Y-2.296
X4.43Y-2.6362
T0
M30
