%TF.GenerationSoftware,KiCad,Pcbnew,7.0.7*%
%TF.CreationDate,2024-10-30T15:59:05-07:00*%
%TF.ProjectId,SensingBoard_rev1.1,53656e73-696e-4674-926f-6172645f7265,rev?*%
%TF.SameCoordinates,Original*%
%TF.FileFunction,Copper,L1,Top*%
%TF.FilePolarity,Positive*%
%FSLAX46Y46*%
G04 Gerber Fmt 4.6, Leading zero omitted, Abs format (unit mm)*
G04 Created by KiCad (PCBNEW 7.0.7) date 2024-10-30 15:59:05*
%MOMM*%
%LPD*%
G01*
G04 APERTURE LIST*
G04 Aperture macros list*
%AMRoundRect*
0 Rectangle with rounded corners*
0 $1 Rounding radius*
0 $2 $3 $4 $5 $6 $7 $8 $9 X,Y pos of 4 corners*
0 Add a 4 corners polygon primitive as box body*
4,1,4,$2,$3,$4,$5,$6,$7,$8,$9,$2,$3,0*
0 Add four circle primitives for the rounded corners*
1,1,$1+$1,$2,$3*
1,1,$1+$1,$4,$5*
1,1,$1+$1,$6,$7*
1,1,$1+$1,$8,$9*
0 Add four rect primitives between the rounded corners*
20,1,$1+$1,$2,$3,$4,$5,0*
20,1,$1+$1,$4,$5,$6,$7,0*
20,1,$1+$1,$6,$7,$8,$9,0*
20,1,$1+$1,$8,$9,$2,$3,0*%
G04 Aperture macros list end*
%TA.AperFunction,SMDPad,CuDef*%
%ADD10RoundRect,0.100000X0.130000X0.100000X-0.130000X0.100000X-0.130000X-0.100000X0.130000X-0.100000X0*%
%TD*%
%TA.AperFunction,ComponentPad*%
%ADD11C,1.524000*%
%TD*%
%TA.AperFunction,SMDPad,CuDef*%
%ADD12R,0.990600X0.711200*%
%TD*%
%TA.AperFunction,SMDPad,CuDef*%
%ADD13RoundRect,0.140000X-0.140000X-0.170000X0.140000X-0.170000X0.140000X0.170000X-0.140000X0.170000X0*%
%TD*%
%TA.AperFunction,SMDPad,CuDef*%
%ADD14RoundRect,0.100000X0.100000X-0.130000X0.100000X0.130000X-0.100000X0.130000X-0.100000X-0.130000X0*%
%TD*%
%TA.AperFunction,SMDPad,CuDef*%
%ADD15R,0.199200X0.754800*%
%TD*%
%TA.AperFunction,SMDPad,CuDef*%
%ADD16R,0.754800X0.199200*%
%TD*%
%TA.AperFunction,SMDPad,CuDef*%
%ADD17R,4.038600X4.038600*%
%TD*%
%TA.AperFunction,SMDPad,CuDef*%
%ADD18RoundRect,0.100000X-0.130000X-0.100000X0.130000X-0.100000X0.130000X0.100000X-0.130000X0.100000X0*%
%TD*%
%TA.AperFunction,SMDPad,CuDef*%
%ADD19RoundRect,0.225000X-0.225000X-0.250000X0.225000X-0.250000X0.225000X0.250000X-0.225000X0.250000X0*%
%TD*%
%TA.AperFunction,SMDPad,CuDef*%
%ADD20RoundRect,0.150000X0.150000X-0.512500X0.150000X0.512500X-0.150000X0.512500X-0.150000X-0.512500X0*%
%TD*%
%TA.AperFunction,SMDPad,CuDef*%
%ADD21R,1.397000X0.609600*%
%TD*%
%TA.AperFunction,SMDPad,CuDef*%
%ADD22RoundRect,0.140000X-0.170000X0.140000X-0.170000X-0.140000X0.170000X-0.140000X0.170000X0.140000X0*%
%TD*%
%TA.AperFunction,SMDPad,CuDef*%
%ADD23RoundRect,0.225000X0.250000X-0.225000X0.250000X0.225000X-0.250000X0.225000X-0.250000X-0.225000X0*%
%TD*%
%TA.AperFunction,SMDPad,CuDef*%
%ADD24R,1.050000X2.200000*%
%TD*%
%TA.AperFunction,SMDPad,CuDef*%
%ADD25R,1.050000X1.000000*%
%TD*%
%TA.AperFunction,SMDPad,CuDef*%
%ADD26R,0.700000X0.300000*%
%TD*%
%TA.AperFunction,SMDPad,CuDef*%
%ADD27R,0.700000X0.650000*%
%TD*%
%TA.AperFunction,ComponentPad*%
%ADD28C,2.100000*%
%TD*%
%TA.AperFunction,ComponentPad*%
%ADD29C,2.600000*%
%TD*%
%TA.AperFunction,SMDPad,CuDef*%
%ADD30RoundRect,0.140000X0.170000X-0.140000X0.170000X0.140000X-0.170000X0.140000X-0.170000X-0.140000X0*%
%TD*%
%TA.AperFunction,SMDPad,CuDef*%
%ADD31R,0.660400X2.768600*%
%TD*%
%TA.AperFunction,SMDPad,CuDef*%
%ADD32RoundRect,0.150000X0.587500X0.150000X-0.587500X0.150000X-0.587500X-0.150000X0.587500X-0.150000X0*%
%TD*%
%TA.AperFunction,SMDPad,CuDef*%
%ADD33RoundRect,0.150000X-0.150000X0.675000X-0.150000X-0.675000X0.150000X-0.675000X0.150000X0.675000X0*%
%TD*%
%TA.AperFunction,SMDPad,CuDef*%
%ADD34RoundRect,0.218750X-0.256250X0.218750X-0.256250X-0.218750X0.256250X-0.218750X0.256250X0.218750X0*%
%TD*%
%TA.AperFunction,SMDPad,CuDef*%
%ADD35R,1.300000X1.050000*%
%TD*%
%TA.AperFunction,SMDPad,CuDef*%
%ADD36RoundRect,0.100000X-0.100000X0.130000X-0.100000X-0.130000X0.100000X-0.130000X0.100000X0.130000X0*%
%TD*%
%TA.AperFunction,SMDPad,CuDef*%
%ADD37RoundRect,0.033750X-0.101250X0.721750X-0.101250X-0.721750X0.101250X-0.721750X0.101250X0.721750X0*%
%TD*%
%TA.AperFunction,SMDPad,CuDef*%
%ADD38RoundRect,0.033750X-0.721750X0.101250X-0.721750X-0.101250X0.721750X-0.101250X0.721750X0.101250X0*%
%TD*%
%TA.AperFunction,SMDPad,CuDef*%
%ADD39R,3.400000X3.400000*%
%TD*%
%TA.AperFunction,SMDPad,CuDef*%
%ADD40RoundRect,0.140000X0.140000X0.170000X-0.140000X0.170000X-0.140000X-0.170000X0.140000X-0.170000X0*%
%TD*%
%TA.AperFunction,SMDPad,CuDef*%
%ADD41RoundRect,0.225000X-0.250000X0.225000X-0.250000X-0.225000X0.250000X-0.225000X0.250000X0.225000X0*%
%TD*%
%TA.AperFunction,SMDPad,CuDef*%
%ADD42RoundRect,0.125000X-0.125000X0.125000X-0.125000X-0.125000X0.125000X-0.125000X0.125000X0.125000X0*%
%TD*%
%TA.AperFunction,SMDPad,CuDef*%
%ADD43R,0.525000X0.300000*%
%TD*%
%TA.AperFunction,SMDPad,CuDef*%
%ADD44R,0.300000X0.425000*%
%TD*%
%TA.AperFunction,ViaPad*%
%ADD45C,0.550000*%
%TD*%
%TA.AperFunction,Conductor*%
%ADD46C,0.200000*%
%TD*%
G04 APERTURE END LIST*
D10*
%TO.P,C26,1*%
%TO.N,+2V8*%
X136784000Y-45313600D03*
%TO.P,C26,2*%
%TO.N,GND*%
X136144000Y-45313600D03*
%TD*%
D11*
%TO.P,J6,1,1*%
%TO.N,MOTOR2_BIN2*%
X124764800Y-49377600D03*
%TO.P,J6,2,2*%
%TO.N,MOTOR2_BIN1*%
X124764800Y-46837600D03*
%TD*%
D12*
%TO.P,SW2,1,1*%
%TO.N,GPIO0*%
X131379799Y-77665001D03*
%TO.P,SW2,2,2*%
%TO.N,Net-(R21-Pad2)*%
X135879801Y-77665001D03*
%TO.P,SW2,3,3*%
%TO.N,unconnected-(SW2-Pad3)*%
X131379799Y-79814999D03*
%TO.P,SW2,4,4*%
%TO.N,GND*%
X135879801Y-79814999D03*
%TD*%
D13*
%TO.P,C15,1*%
%TO.N,Net-(ANT1-PadSIG)*%
X137322001Y-54459599D03*
%TO.P,C15,2*%
%TO.N,GND*%
X138282001Y-54459599D03*
%TD*%
D14*
%TO.P,R19,1*%
%TO.N,BNO_SCL*%
X135890000Y-68051600D03*
%TO.P,R19,2*%
%TO.N,GPIO34*%
X135890000Y-67411600D03*
%TD*%
D11*
%TO.P,J7,1,1*%
%TO.N,DRV_FAULT*%
X121666000Y-46824900D03*
%TO.P,J7,2,2*%
%TO.N,DRV_SLEEP*%
X121666000Y-49364900D03*
%TD*%
D15*
%TO.P,U7,1,LNA_IN*%
%TO.N,Net-(U7-LNA_IN)*%
X137321600Y-58675999D03*
%TO.P,U7,2,VDD3P3*%
%TO.N,Net-(C18-Pad1)*%
X136921601Y-58675999D03*
%TO.P,U7,3,VDD3P3*%
X136521599Y-58675999D03*
%TO.P,U7,4,CHIP_PU*%
%TO.N,CHIP_EN*%
X136121600Y-58675999D03*
%TO.P,U7,5,GPIO0*%
%TO.N,GPIO0*%
X135721601Y-58675999D03*
%TO.P,U7,6,GPIO1*%
%TO.N,D0{slash}A0*%
X135321599Y-58675999D03*
%TO.P,U7,7,GPIO2*%
%TO.N,D1{slash}A1*%
X134921600Y-58675999D03*
%TO.P,U7,8,GPIO3*%
%TO.N,D2{slash}A2*%
X134521600Y-58675999D03*
%TO.P,U7,9,GPIO4*%
%TO.N,D3{slash}A3*%
X134121601Y-58675999D03*
%TO.P,U7,10,GPIO5*%
%TO.N,D4{slash}I2C_SDA*%
X133721599Y-58675999D03*
%TO.P,U7,11,GPIO6*%
%TO.N,D5{slash}I2C_SCL*%
X133321600Y-58675999D03*
%TO.P,U7,12,GPIO7*%
%TO.N,D8{slash}A8{slash}SCK*%
X132921601Y-58675999D03*
%TO.P,U7,13,GPIO8*%
%TO.N,D9{slash}A9{slash}MISO*%
X132521599Y-58675999D03*
%TO.P,U7,14,GPIO9*%
%TO.N,D10{slash}A10{slash}MOSI*%
X132121600Y-58675999D03*
D16*
%TO.P,U7,15,GPIO10*%
%TO.N,IO10{slash}XMCLK*%
X131269199Y-59528400D03*
%TO.P,U7,16,GPIO11*%
%TO.N,IO11{slash}DVP_Y8*%
X131269199Y-59928399D03*
%TO.P,U7,17,GPIO12*%
%TO.N,IO12{slash}DVP_Y7*%
X131269199Y-60328401D03*
%TO.P,U7,18,GPIO13*%
%TO.N,IO13{slash}DVP_PCLK*%
X131269199Y-60728400D03*
%TO.P,U7,19,GPIO14*%
%TO.N,IO14{slash}DVP_Y6*%
X131269199Y-61128399D03*
%TO.P,U7,20,VDD3P3_RTC*%
%TO.N,+3.3V*%
X131269199Y-61528401D03*
%TO.P,U7,21,XTAL_32K_P*%
%TO.N,IO15{slash}DVP_Y2*%
X131269199Y-61928400D03*
%TO.P,U7,22,XTAL_32K_N*%
%TO.N,IO16{slash}DVP_Y5*%
X131269199Y-62328400D03*
%TO.P,U7,23,GPIO17*%
%TO.N,IO17{slash}DVP_Y3*%
X131269199Y-62728399D03*
%TO.P,U7,24,GPIO18*%
%TO.N,IO18{slash}DVP_Y4*%
X131269199Y-63128401D03*
%TO.P,U7,25,GPIO19*%
%TO.N,USB_DN*%
X131269199Y-63528400D03*
%TO.P,U7,26,GPIO20*%
%TO.N,USB_DP*%
X131269199Y-63928399D03*
%TO.P,U7,27,GPIO21*%
%TO.N,IO21{slash}USER_LED*%
X131269199Y-64328401D03*
%TO.P,U7,28,SPICS1*%
%TO.N,unconnected-(U7-SPICS1-Pad28)*%
X131269199Y-64728400D03*
D15*
%TO.P,U7,29,VDD_SPI*%
%TO.N,VDD_SPI*%
X132121600Y-65580801D03*
%TO.P,U7,30,SPIHD*%
%TO.N,SPIHD*%
X132521599Y-65580801D03*
%TO.P,U7,31,SPIWP*%
%TO.N,SPIWP*%
X132921601Y-65580801D03*
%TO.P,U7,32,SPICS0*%
%TO.N,SPICS0*%
X133321600Y-65580801D03*
%TO.P,U7,33,SPICLK*%
%TO.N,SPICLK*%
X133721599Y-65580801D03*
%TO.P,U7,34,SPIQ*%
%TO.N,SPIQ*%
X134121601Y-65580801D03*
%TO.P,U7,35,SPID*%
%TO.N,SPID*%
X134521600Y-65580801D03*
%TO.P,U7,36,SPICLK_N*%
%TO.N,IO48{slash}DVP_Y9*%
X134921600Y-65580801D03*
%TO.P,U7,37,SPICLK_P*%
%TO.N,IO47{slash}DVP_HREF*%
X135321599Y-65580801D03*
%TO.P,U7,38,GPIO33*%
%TO.N,GPIO33*%
X135721601Y-65580801D03*
%TO.P,U7,39,GPIO34*%
%TO.N,GPIO34*%
X136121600Y-65580801D03*
%TO.P,U7,40,GPIO35*%
%TO.N,GPIO35*%
X136521599Y-65580801D03*
%TO.P,U7,41,GPIO36*%
%TO.N,GPIO36*%
X136921601Y-65580801D03*
%TO.P,U7,42,GPIO37*%
%TO.N,GPIO37*%
X137321600Y-65580801D03*
D16*
%TO.P,U7,43,GPIO38*%
%TO.N,IO38{slash}DVP_VSYNC*%
X138174001Y-64728400D03*
%TO.P,U7,44,MTCK*%
%TO.N,MTCK{slash}IO39{slash}CAM_SCL*%
X138174001Y-64328401D03*
%TO.P,U7,45,MTDO*%
%TO.N,MTDO{slash}IO40{slash}CAM_SDA*%
X138174001Y-63928399D03*
%TO.P,U7,46,VDD3P3_CPU*%
%TO.N,+3.3V*%
X138174001Y-63528400D03*
%TO.P,U7,47,MTDI*%
%TO.N,MTDI{slash}IO41{slash}PDM_DATA*%
X138174001Y-63128401D03*
%TO.P,U7,48,MTMS*%
%TO.N,MTMS{slash}IO42{slash}PDM_CLK*%
X138174001Y-62728399D03*
%TO.P,U7,49,U0TXD*%
%TO.N,Net-(U7-U0TXD)*%
X138174001Y-62328400D03*
%TO.P,U7,50,U0RXD*%
%TO.N,RX_D7*%
X138174001Y-61928400D03*
%TO.P,U7,51,GPIO45*%
%TO.N,unconnected-(U7-GPIO45-Pad51)*%
X138174001Y-61528401D03*
%TO.P,U7,52,GPIO46*%
%TO.N,unconnected-(U7-GPIO46-Pad52)*%
X138174001Y-61128399D03*
%TO.P,U7,53,XTAL_N*%
%TO.N,Net-(U7-XTAL_N)*%
X138174001Y-60728400D03*
%TO.P,U7,54,XTAL_P*%
%TO.N,Net-(U7-XTAL_P)*%
X138174001Y-60328401D03*
%TO.P,U7,55,VDDA*%
%TO.N,+3.3V*%
X138174001Y-59928399D03*
%TO.P,U7,56,VDDA*%
X138174001Y-59528400D03*
D17*
%TO.P,U7,57,GND*%
%TO.N,GND*%
X134721600Y-62128400D03*
%TD*%
D10*
%TO.P,C12,1*%
%TO.N,Net-(U2-XIN32)*%
X141544000Y-65481200D03*
%TO.P,C12,2*%
%TO.N,GND*%
X140904000Y-65481200D03*
%TD*%
D18*
%TO.P,C17,1*%
%TO.N,Net-(U7-XTAL_N)*%
X143342400Y-63957200D03*
%TO.P,C17,2*%
%TO.N,GND*%
X143982400Y-63957200D03*
%TD*%
D19*
%TO.P,C21,1*%
%TO.N,+1V8*%
X116674600Y-50952400D03*
%TO.P,C21,2*%
%TO.N,GND*%
X118224600Y-50952400D03*
%TD*%
D20*
%TO.P,U5,1,VIN*%
%TO.N,VDC*%
X116448800Y-55036300D03*
%TO.P,U5,2,GND*%
%TO.N,GND*%
X117398800Y-55036300D03*
%TO.P,U5,3,EN*%
%TO.N,VDC*%
X118348800Y-55036300D03*
%TO.P,U5,4,NC*%
%TO.N,unconnected-(U5-NC-Pad4)*%
X118348800Y-52761300D03*
%TO.P,U5,5,VOUT*%
%TO.N,+1V8*%
X116448800Y-52761300D03*
%TD*%
%TO.P,U3,1,VIN*%
%TO.N,VDC*%
X130418800Y-49956300D03*
%TO.P,U3,2,GND*%
%TO.N,GND*%
X131368800Y-49956300D03*
%TO.P,U3,3,EN*%
%TO.N,VDC*%
X132318800Y-49956300D03*
%TO.P,U3,4,NC*%
%TO.N,unconnected-(U3-NC-Pad4)*%
X132318800Y-47681300D03*
%TO.P,U3,5,VOUT*%
%TO.N,+3.3V*%
X130418800Y-47681300D03*
%TD*%
D14*
%TO.P,C20,1*%
%TO.N,VDC*%
X119684800Y-55575200D03*
%TO.P,C20,2*%
%TO.N,GND*%
X119684800Y-54935200D03*
%TD*%
D21*
%TO.P,XTAL2,1,1*%
%TO.N,Net-(U2-XOUT32)*%
X141122400Y-69316600D03*
%TO.P,XTAL2,2,2*%
%TO.N,Net-(U2-XIN32)*%
X141122400Y-66929000D03*
%TD*%
D10*
%TO.P,R7,1*%
%TO.N,Net-(U2-PS1)*%
X145567800Y-72034400D03*
%TO.P,R7,2*%
%TO.N,GND*%
X144927800Y-72034400D03*
%TD*%
D14*
%TO.P,R8,1*%
%TO.N,Net-(U2-PS0)*%
X147929600Y-67975000D03*
%TO.P,R8,2*%
%TO.N,GND*%
X147929600Y-67335000D03*
%TD*%
D22*
%TO.P,C36,1*%
%TO.N,+3.3V*%
X140106400Y-63578800D03*
%TO.P,C36,2*%
%TO.N,GND*%
X140106400Y-64538800D03*
%TD*%
D11*
%TO.P,J9,1,1*%
%TO.N,GND*%
X128879600Y-52730400D03*
%TO.P,J9,2,2*%
%TO.N,VDC*%
X131419600Y-52730400D03*
%TD*%
D23*
%TO.P,C5,1*%
%TO.N,VDC*%
X128676400Y-50152600D03*
%TO.P,C5,2*%
%TO.N,GND*%
X128676400Y-48602600D03*
%TD*%
%TO.P,C7,1*%
%TO.N,+3.3V*%
X128676400Y-46952200D03*
%TO.P,C7,2*%
%TO.N,GND*%
X128676400Y-45402200D03*
%TD*%
D24*
%TO.P,ANT1,GND1*%
%TO.N,GND*%
X135847001Y-51616399D03*
%TO.P,ANT1,GND2*%
X138797001Y-51616399D03*
D25*
%TO.P,ANT1,SIG*%
%TO.N,Net-(ANT1-PadSIG)*%
X137322001Y-53141399D03*
%TD*%
D26*
%TO.P,J1,A1,GND*%
%TO.N,GND*%
X118292000Y-59638400D03*
%TO.P,J1,A2,TX1+*%
%TO.N,unconnected-(J1-TX1+-PadA2)*%
X118292000Y-60138400D03*
%TO.P,J1,A3,TX1-*%
%TO.N,unconnected-(J1-TX1--PadA3)*%
X118292000Y-60638400D03*
%TO.P,J1,A4,VBUS*%
%TO.N,+5V*%
X118292000Y-61138400D03*
%TO.P,J1,A5,CC1*%
%TO.N,Net-(J1-CC1)*%
X118292000Y-61638400D03*
%TO.P,J1,A6,D+*%
%TO.N,USB_DP*%
X118292000Y-62138400D03*
%TO.P,J1,A7,D-*%
%TO.N,USB_DN*%
X118292000Y-63138400D03*
%TO.P,J1,A8,SBU1*%
%TO.N,unconnected-(J1-SBU1-PadA8)*%
X118292000Y-63638400D03*
%TO.P,J1,A9,VBUS*%
%TO.N,+5V*%
X118292000Y-64138400D03*
%TO.P,J1,A10,RX2-*%
%TO.N,unconnected-(J1-RX2--PadA10)*%
X118292000Y-64638400D03*
%TO.P,J1,A11,RX2+*%
%TO.N,unconnected-(J1-RX2+-PadA11)*%
X118292000Y-65138400D03*
%TO.P,J1,A12,GND*%
%TO.N,GND*%
X118292000Y-65638400D03*
D27*
%TO.P,J1,B1,GND*%
X116992000Y-65563400D03*
D26*
%TO.P,J1,B2,TX2+*%
%TO.N,unconnected-(J1-TX2+-PadB2)*%
X116992000Y-64888400D03*
%TO.P,J1,B3,TX2-*%
%TO.N,unconnected-(J1-TX2--PadB3)*%
X116992000Y-64388400D03*
%TO.P,J1,B4,VBUS*%
%TO.N,+5V*%
X116992000Y-63888400D03*
%TO.P,J1,B5,CC2*%
%TO.N,Net-(J1-CC2)*%
X116992000Y-63388400D03*
%TO.P,J1,B6,D+*%
%TO.N,USB_DP*%
X116992000Y-62888400D03*
%TO.P,J1,B7,D-*%
%TO.N,USB_DN*%
X116992000Y-62388400D03*
%TO.P,J1,B8,SBU2*%
%TO.N,unconnected-(J1-SBU2-PadB8)*%
X116992000Y-61888400D03*
%TO.P,J1,B9,VBUS*%
%TO.N,+5V*%
X116992000Y-61388400D03*
%TO.P,J1,B10,RX1-*%
%TO.N,unconnected-(J1-RX1--PadB10)*%
X116992000Y-60888400D03*
%TO.P,J1,B11,RX1+*%
%TO.N,unconnected-(J1-RX1+-PadB11)*%
X116992000Y-60388400D03*
D27*
%TO.P,J1,B12,GND*%
%TO.N,GND*%
X116992000Y-59713400D03*
D28*
%TO.P,J1,S1,SHIELD*%
X117882000Y-58318400D03*
D29*
X112522000Y-58318400D03*
D28*
X117882000Y-66958400D03*
D29*
X112522000Y-66958400D03*
%TD*%
D22*
%TO.P,C30,1*%
%TO.N,+3.3V*%
X134366000Y-55908000D03*
%TO.P,C30,2*%
%TO.N,GND*%
X134366000Y-56868000D03*
%TD*%
D10*
%TO.P,R20,1*%
%TO.N,BNO_SDA*%
X138089600Y-71424800D03*
%TO.P,R20,2*%
%TO.N,GPIO33*%
X137449600Y-71424800D03*
%TD*%
D30*
%TO.P,C18,1*%
%TO.N,Net-(C18-Pad1)*%
X135534400Y-56868000D03*
%TO.P,C18,2*%
%TO.N,GND*%
X135534400Y-55908000D03*
%TD*%
D18*
%TO.P,R17,1*%
%TO.N,MOTOR2_BIN2*%
X131948000Y-54914800D03*
%TO.P,R17,2*%
%TO.N,D0{slash}A0*%
X132588000Y-54914800D03*
%TD*%
D14*
%TO.P,R1,1*%
%TO.N,Net-(D2-A)*%
X128117600Y-66497200D03*
%TO.P,R1,2*%
%TO.N,+3.3V*%
X128117600Y-65857200D03*
%TD*%
D30*
%TO.P,C4,1*%
%TO.N,+3.3V*%
X136753600Y-75867200D03*
%TO.P,C4,2*%
%TO.N,GND*%
X136753600Y-74907200D03*
%TD*%
D31*
%TO.P,J2,1,1*%
%TO.N,unconnected-(J2-Pad1)*%
X125933200Y-74702796D03*
%TO.P,J2,2,2*%
%TO.N,unconnected-(J2-Pad2)*%
X124663200Y-74702796D03*
%TO.P,J2,3,3*%
%TO.N,GND*%
X123393200Y-74702796D03*
%TO.P,J2,4,4*%
X122123200Y-74702796D03*
%TO.P,J2,5,5*%
%TO.N,+3.3V*%
X120853200Y-74702796D03*
%TO.P,J2,6,6*%
%TO.N,CHIP_EN*%
X125933200Y-70662800D03*
%TO.P,J2,7,7*%
%TO.N,MTCK{slash}IO39{slash}CAM_SCL*%
X124663200Y-70662800D03*
%TO.P,J2,8,8*%
%TO.N,MTDO{slash}IO40{slash}CAM_SDA*%
X123393200Y-70662800D03*
%TO.P,J2,9,9*%
%TO.N,MTDI{slash}IO41{slash}PDM_DATA*%
X122123200Y-70662800D03*
%TO.P,J2,10,10*%
%TO.N,MTMS{slash}IO42{slash}PDM_CLK*%
X120853200Y-70662800D03*
%TD*%
D10*
%TO.P,C11,1*%
%TO.N,Net-(U2-XOUT32)*%
X141457600Y-70764400D03*
%TO.P,C11,2*%
%TO.N,GND*%
X140817600Y-70764400D03*
%TD*%
D14*
%TO.P,R11,1*%
%TO.N,+3.3V*%
X138582400Y-69549800D03*
%TO.P,R11,2*%
%TO.N,DRV_FAULT*%
X138582400Y-68909800D03*
%TD*%
D11*
%TO.P,J5,1,1*%
%TO.N,MOTOR1_AIN2*%
X124460000Y-52679600D03*
%TO.P,J5,2,2*%
%TO.N,MOTOR1_AIN1*%
X121920000Y-52679600D03*
%TD*%
D32*
%TO.P,U6,1,GND*%
%TO.N,GND*%
X136194800Y-48514000D03*
%TO.P,U6,2,VO*%
%TO.N,+2V8*%
X136194800Y-46614000D03*
%TO.P,U6,3,VI*%
%TO.N,VDC*%
X134319800Y-47564000D03*
%TD*%
D18*
%TO.P,R16,1*%
%TO.N,MOTOR2_BIN1*%
X131958600Y-55778400D03*
%TO.P,R16,2*%
%TO.N,D1{slash}A1*%
X132598600Y-55778400D03*
%TD*%
D33*
%TO.P,U8,1,~{CS}*%
%TO.N,SPICS0*%
X135102600Y-70069800D03*
%TO.P,U8,2,O1/SO*%
%TO.N,SPIQ*%
X133832600Y-70069800D03*
%TO.P,U8,3,~{WP}*%
%TO.N,SPIWP*%
X132562600Y-70069800D03*
%TO.P,U8,4,VSS*%
%TO.N,GND*%
X131292600Y-70069800D03*
%TO.P,U8,5,SI/IO0*%
%TO.N,SPID*%
X131292600Y-75319800D03*
%TO.P,U8,6,SCLK*%
%TO.N,SPICLK*%
X132562600Y-75319800D03*
%TO.P,U8,7,NC*%
%TO.N,unconnected-(U8-NC-Pad7)*%
X133832600Y-75319800D03*
%TO.P,U8,8,VCC*%
%TO.N,+3.3V*%
X135102600Y-75319800D03*
%TD*%
D30*
%TO.P,C34,1*%
%TO.N,+3.3V*%
X140563600Y-58567200D03*
%TO.P,C34,2*%
%TO.N,GND*%
X140563600Y-57607200D03*
%TD*%
D14*
%TO.P,R14,1*%
%TO.N,BNO_INT*%
X136753600Y-68025800D03*
%TO.P,R14,2*%
%TO.N,GPIO35*%
X136753600Y-67385800D03*
%TD*%
D23*
%TO.P,C10,1*%
%TO.N,Net-(U2-CAP)*%
X148285200Y-65545000D03*
%TO.P,C10,2*%
%TO.N,GND*%
X148285200Y-63995000D03*
%TD*%
D34*
%TO.P,D2,1,K*%
%TO.N,IO21{slash}USER_LED*%
X129489200Y-64947700D03*
%TO.P,D2,2,A*%
%TO.N,Net-(D2-A)*%
X129489200Y-66522700D03*
%TD*%
D10*
%TO.P,R5,1*%
%TO.N,+3.3V*%
X127483000Y-81330800D03*
%TO.P,R5,2*%
%TO.N,Net-(R5-Pad2)*%
X126843000Y-81330800D03*
%TD*%
D18*
%TO.P,R3,1*%
%TO.N,Net-(J1-CC2)*%
X120239000Y-57404000D03*
%TO.P,R3,2*%
%TO.N,GND*%
X120879000Y-57404000D03*
%TD*%
D10*
%TO.P,R12,1*%
%TO.N,+3.3V*%
X137734000Y-69646800D03*
%TO.P,R12,2*%
%TO.N,BNO_SCL*%
X137094000Y-69646800D03*
%TD*%
D35*
%TO.P,Y1,1,1*%
%TO.N,Net-(U7-XTAL_N)*%
X142512400Y-62038200D03*
%TO.P,Y1,2,GND*%
%TO.N,GND*%
X144812400Y-62038200D03*
%TO.P,Y1,3,3*%
%TO.N,Net-(U7-XTAL_P)*%
X144812400Y-60288200D03*
%TO.P,Y1,4,GND*%
%TO.N,GND*%
X142512400Y-60288200D03*
%TD*%
D18*
%TO.P,C22,1*%
%TO.N,+1V8*%
X117282000Y-49682400D03*
%TO.P,C22,2*%
%TO.N,GND*%
X117922000Y-49682400D03*
%TD*%
D19*
%TO.P,C13,1*%
%TO.N,+3.3V*%
X122669000Y-67360800D03*
%TO.P,C13,2*%
%TO.N,GND*%
X124219000Y-67360800D03*
%TD*%
D36*
%TO.P,L2,1,1*%
%TO.N,+3.3V*%
X136601200Y-56357600D03*
%TO.P,L2,2,2*%
%TO.N,Net-(C18-Pad1)*%
X136601200Y-56997600D03*
%TD*%
D10*
%TO.P,C16,1*%
%TO.N,Net-(U7-XTAL_P)*%
X143891400Y-58267600D03*
%TO.P,C16,2*%
%TO.N,GND*%
X143251400Y-58267600D03*
%TD*%
D14*
%TO.P,C8,1*%
%TO.N,+3.3V*%
X130352800Y-46192400D03*
%TO.P,C8,2*%
%TO.N,GND*%
X130352800Y-45552400D03*
%TD*%
D37*
%TO.P,U4,1,VCCIO*%
%TO.N,+3.3V*%
X126210000Y-59476300D03*
%TO.P,U4,2,RXD*%
%TO.N,TX_D6*%
X125710000Y-59476300D03*
%TO.P,U4,3,~{RI}*%
%TO.N,unconnected-(U4-~{RI}-Pad3)*%
X125210000Y-59476300D03*
%TO.P,U4,4,GND*%
%TO.N,GND*%
X124710000Y-59476300D03*
%TO.P,U4,5*%
%TO.N,N/C*%
X124210000Y-59476300D03*
%TO.P,U4,6,~{DSR}*%
%TO.N,unconnected-(U4-~{DSR}-Pad6)*%
X123710000Y-59476300D03*
%TO.P,U4,7,~{DCD}*%
%TO.N,unconnected-(U4-~{DCD}-Pad7)*%
X123210000Y-59476300D03*
%TO.P,U4,8,~{CTS}*%
%TO.N,unconnected-(U4-~{CTS}-Pad8)*%
X122710000Y-59476300D03*
D38*
%TO.P,U4,9,CBUS4*%
%TO.N,unconnected-(U4-CBUS4-Pad9)*%
X121659500Y-60526800D03*
%TO.P,U4,10,CBUS2*%
%TO.N,unconnected-(U4-CBUS2-Pad10)*%
X121659500Y-61026800D03*
%TO.P,U4,11,CBUS3*%
%TO.N,unconnected-(U4-CBUS3-Pad11)*%
X121659500Y-61526800D03*
%TO.P,U4,12*%
%TO.N,N/C*%
X121659500Y-62026800D03*
%TO.P,U4,13*%
X121659500Y-62526800D03*
%TO.P,U4,14,USBDP*%
%TO.N,USB_DP*%
X121659500Y-63026800D03*
%TO.P,U4,15,USBDM*%
%TO.N,USB_DN*%
X121659500Y-63526800D03*
%TO.P,U4,16,3V3OUT*%
%TO.N,unconnected-(U4-3V3OUT-Pad16)*%
X121659500Y-64026800D03*
D37*
%TO.P,U4,17,GND*%
%TO.N,GND*%
X122710000Y-65077300D03*
%TO.P,U4,18,~{RESET}*%
%TO.N,unconnected-(U4-~{RESET}-Pad18)*%
X123210000Y-65077300D03*
%TO.P,U4,19,VCC*%
%TO.N,+3.3V*%
X123710000Y-65077300D03*
%TO.P,U4,20,GND*%
%TO.N,GND*%
X124210000Y-65077300D03*
%TO.P,U4,21,CBUS1*%
%TO.N,unconnected-(U4-CBUS1-Pad21)*%
X124710000Y-65077300D03*
%TO.P,U4,22,CBUS0*%
%TO.N,unconnected-(U4-CBUS0-Pad22)*%
X125210000Y-65077300D03*
%TO.P,U4,23*%
%TO.N,N/C*%
X125710000Y-65077300D03*
%TO.P,U4,24,AGND*%
%TO.N,GND*%
X126210000Y-65077300D03*
D38*
%TO.P,U4,25*%
%TO.N,N/C*%
X127260500Y-64026800D03*
%TO.P,U4,26,TEST*%
%TO.N,unconnected-(U4-TEST-Pad26)*%
X127260500Y-63526800D03*
%TO.P,U4,27,OSCI*%
%TO.N,unconnected-(U4-OSCI-Pad27)*%
X127260500Y-63026800D03*
%TO.P,U4,28,OSCO*%
%TO.N,unconnected-(U4-OSCO-Pad28)*%
X127260500Y-62526800D03*
%TO.P,U4,29*%
%TO.N,N/C*%
X127260500Y-62026800D03*
%TO.P,U4,30,TXD*%
%TO.N,RX_D7*%
X127260500Y-61526800D03*
%TO.P,U4,31,~{DTR}*%
%TO.N,unconnected-(U4-~{DTR}-Pad31)*%
X127260500Y-61026800D03*
%TO.P,U4,32,~{RTS}*%
%TO.N,unconnected-(U4-~{RTS}-Pad32)*%
X127260500Y-60526800D03*
D39*
%TO.P,U4,33,EXP*%
%TO.N,unconnected-(U4-EXP-Pad33)*%
X124460000Y-62276800D03*
%TD*%
D14*
%TO.P,R9,1*%
%TO.N,DRV_SLEEP*%
X137668000Y-68025800D03*
%TO.P,R9,2*%
%TO.N,GPIO36*%
X137668000Y-67385800D03*
%TD*%
D13*
%TO.P,C14,1*%
%TO.N,Net-(U7-LNA_IN)*%
X137492800Y-56946800D03*
%TO.P,C14,2*%
%TO.N,GND*%
X138452800Y-56946800D03*
%TD*%
D12*
%TO.P,SW1,1,1*%
%TO.N,CHIP_EN*%
X125014998Y-77673200D03*
%TO.P,SW1,2,2*%
%TO.N,Net-(R5-Pad2)*%
X129515000Y-77673200D03*
%TO.P,SW1,3,3*%
%TO.N,unconnected-(SW1-Pad3)*%
X125014998Y-79823198D03*
%TO.P,SW1,4,4*%
%TO.N,GND*%
X129515000Y-79823198D03*
%TD*%
D18*
%TO.P,R4,1*%
%TO.N,Net-(J1-CC1)*%
X120264000Y-58369200D03*
%TO.P,R4,2*%
%TO.N,GND*%
X120904000Y-58369200D03*
%TD*%
D10*
%TO.P,R6,1*%
%TO.N,Net-(U2-COM3)*%
X145354000Y-64719200D03*
%TO.P,R6,2*%
%TO.N,GND*%
X144714000Y-64719200D03*
%TD*%
D40*
%TO.P,C37,1*%
%TO.N,+3.3V*%
X130070800Y-61569600D03*
%TO.P,C37,2*%
%TO.N,GND*%
X129110800Y-61569600D03*
%TD*%
D23*
%TO.P,C23,1*%
%TO.N,VDC*%
X132334000Y-45885400D03*
%TO.P,C23,2*%
%TO.N,GND*%
X132334000Y-44335400D03*
%TD*%
D14*
%TO.P,L1,1,1*%
%TO.N,Net-(U7-LNA_IN)*%
X137566400Y-56012000D03*
%TO.P,L1,2,2*%
%TO.N,Net-(ANT1-PadSIG)*%
X137566400Y-55372000D03*
%TD*%
D41*
%TO.P,C25,1*%
%TO.N,+2V8*%
X138277600Y-46736000D03*
%TO.P,C25,2*%
%TO.N,GND*%
X138277600Y-48286000D03*
%TD*%
D18*
%TO.P,R15,1*%
%TO.N,MOTOR1_AIN2*%
X130881200Y-56591200D03*
%TO.P,R15,2*%
%TO.N,D2{slash}A2*%
X131521200Y-56591200D03*
%TD*%
D30*
%TO.P,C31,1*%
%TO.N,+3.3V*%
X135534400Y-54914800D03*
%TO.P,C31,2*%
%TO.N,GND*%
X135534400Y-53954800D03*
%TD*%
D18*
%TO.P,R21,1*%
%TO.N,+3.3V*%
X133396200Y-81280000D03*
%TO.P,R21,2*%
%TO.N,Net-(R21-Pad2)*%
X134036200Y-81280000D03*
%TD*%
D30*
%TO.P,C35,1*%
%TO.N,+3.3V*%
X141732000Y-58544400D03*
%TO.P,C35,2*%
%TO.N,GND*%
X141732000Y-57584400D03*
%TD*%
D14*
%TO.P,R18,1*%
%TO.N,DRV_FAULT*%
X138582400Y-68025800D03*
%TO.P,R18,2*%
%TO.N,GPIO37*%
X138582400Y-67385800D03*
%TD*%
D30*
%TO.P,C32,1*%
%TO.N,+3.3V*%
X134366000Y-54914800D03*
%TO.P,C32,2*%
%TO.N,GND*%
X134366000Y-53954800D03*
%TD*%
%TO.P,C33,1*%
%TO.N,+3.3V*%
X139395200Y-58567200D03*
%TO.P,C33,2*%
%TO.N,GND*%
X139395200Y-57607200D03*
%TD*%
D18*
%TO.P,R26,1*%
%TO.N,Net-(U7-U0TXD)*%
X139532400Y-62331600D03*
%TO.P,R26,2*%
%TO.N,TX_D6*%
X140172400Y-62331600D03*
%TD*%
D23*
%TO.P,C19,1*%
%TO.N,VDC*%
X114706400Y-55270400D03*
%TO.P,C19,2*%
%TO.N,GND*%
X114706400Y-53720400D03*
%TD*%
D42*
%TO.P,D3,1,K*%
%TO.N,VDC*%
X120853200Y-66108400D03*
%TO.P,D3,2,A*%
%TO.N,+5V*%
X120853200Y-68308400D03*
%TD*%
D43*
%TO.P,U2,1*%
%TO.N,N/C*%
X143420700Y-70728400D03*
D44*
%TO.P,U2,2,GND*%
%TO.N,GND*%
X144233200Y-70790900D03*
%TO.P,U2,3,VDD*%
%TO.N,+3.3V*%
X144733200Y-70790900D03*
%TO.P,U2,4,NBOOT_LOAD_PIN*%
X145233200Y-70790900D03*
%TO.P,U2,5,PS1*%
%TO.N,Net-(U2-PS1)*%
X145733200Y-70790900D03*
D43*
%TO.P,U2,6,PS0*%
%TO.N,Net-(U2-PS0)*%
X146545700Y-70728400D03*
%TO.P,U2,7*%
%TO.N,N/C*%
X146545700Y-70228400D03*
%TO.P,U2,8*%
X146545700Y-69728400D03*
%TO.P,U2,9,CAP*%
%TO.N,Net-(U2-CAP)*%
X146545700Y-69228400D03*
%TO.P,U2,10,PIN10*%
%TO.N,GND*%
X146545700Y-68728400D03*
%TO.P,U2,11,NRESET*%
%TO.N,BNO_RST*%
X146545700Y-68228400D03*
%TO.P,U2,12*%
%TO.N,N/C*%
X146545700Y-67728400D03*
%TO.P,U2,13*%
X146545700Y-67228400D03*
%TO.P,U2,14,INT*%
%TO.N,BNO_INT*%
X146545700Y-66728400D03*
%TO.P,U2,15,PIN15*%
%TO.N,GND*%
X146545700Y-66228400D03*
D44*
%TO.P,U2,16,PIN16*%
X145733200Y-66165900D03*
%TO.P,U2,17,COM3*%
%TO.N,Net-(U2-COM3)*%
X145233200Y-66165900D03*
%TO.P,U2,18,COM2*%
%TO.N,GND*%
X144733200Y-66165900D03*
%TO.P,U2,19,COM1*%
%TO.N,BNO_SCL*%
X144233200Y-66165900D03*
D43*
%TO.P,U2,20,COM0*%
%TO.N,BNO_SDA*%
X143420700Y-66228400D03*
%TO.P,U2,21*%
%TO.N,N/C*%
X143420700Y-66728400D03*
%TO.P,U2,22*%
X143420700Y-67228400D03*
%TO.P,U2,23*%
X143420700Y-67728400D03*
%TO.P,U2,24*%
X143420700Y-68228400D03*
%TO.P,U2,25,GNDIO*%
%TO.N,GND*%
X143420700Y-68728400D03*
%TO.P,U2,26,XOUT32*%
%TO.N,Net-(U2-XOUT32)*%
X143420700Y-69228400D03*
%TO.P,U2,27,XIN32*%
%TO.N,Net-(U2-XIN32)*%
X143420700Y-69728400D03*
%TO.P,U2,28,VDDIO*%
%TO.N,+3.3V*%
X143420700Y-70228400D03*
%TD*%
D14*
%TO.P,C6,1*%
%TO.N,VDC*%
X133654800Y-50510400D03*
%TO.P,C6,2*%
%TO.N,GND*%
X133654800Y-49870400D03*
%TD*%
D41*
%TO.P,C9,1*%
%TO.N,+3.3V*%
X143154400Y-72136000D03*
%TO.P,C9,2*%
%TO.N,GND*%
X143154400Y-73686000D03*
%TD*%
D18*
%TO.P,R10,1*%
%TO.N,MOTOR1_AIN1*%
X130896400Y-57454800D03*
%TO.P,R10,2*%
%TO.N,D3{slash}A3*%
X131536400Y-57454800D03*
%TD*%
D14*
%TO.P,C24,1*%
%TO.N,VDC*%
X134569200Y-50499800D03*
%TO.P,C24,2*%
%TO.N,GND*%
X134569200Y-49859800D03*
%TD*%
D18*
%TO.P,R13,1*%
%TO.N,+3.3V*%
X137460200Y-72288400D03*
%TO.P,R13,2*%
%TO.N,BNO_SDA*%
X138100200Y-72288400D03*
%TD*%
D45*
%TO.N,Net-(U2-XIN32)*%
X140496118Y-67595586D03*
X144678400Y-69427900D03*
%TO.N,+5V*%
X116294500Y-61382635D03*
X116136972Y-64112900D03*
%TO.N,DRV_SLEEP*%
X137974396Y-68511505D03*
%TO.N,DRV_FAULT*%
X139496800Y-67614800D03*
%TO.N,+1V8*%
X131599700Y-73710800D03*
X117348000Y-52984400D03*
%TO.N,+2V8*%
X139649200Y-47193200D03*
X130914831Y-71326283D03*
X143713200Y-60350400D03*
X141244669Y-67708302D03*
%TO.N,Net-(D4-K)*%
X140882921Y-71613813D03*
X123647200Y-72644000D03*
%TO.N,IO38{slash}DVP_VSYNC*%
X139039600Y-64429900D03*
X131908935Y-68459735D03*
%TO.N,IO47{slash}DVP_HREF*%
X135534400Y-64668400D03*
X131927697Y-71138096D03*
%TO.N,IO48{slash}DVP_Y9*%
X130518100Y-70307200D03*
X134975600Y-66548000D03*
%TO.N,IO10{slash}XMCLK*%
X128117600Y-58028800D03*
%TO.N,IO11{slash}DVP_Y8*%
X129619678Y-58899122D03*
%TO.N,IO12{slash}DVP_Y7*%
X128724700Y-71221600D03*
X128701732Y-59294572D03*
%TO.N,IO13{slash}DVP_PCLK*%
X128724700Y-70408800D03*
X128823958Y-60406042D03*
%TO.N,BNO_INT*%
X137286833Y-68808767D03*
X145796000Y-66954400D03*
%TO.N,USB_DP*%
X120345200Y-62738000D03*
X128431283Y-64253555D03*
%TO.N,USB_DN*%
X119430800Y-63347600D03*
X120497600Y-63906400D03*
X116294097Y-62382747D03*
X128431283Y-63614052D03*
%TO.N,IO14{slash}DVP_Y6*%
X132181600Y-60706000D03*
X128760001Y-69225233D03*
%TO.N,IO15{slash}DVP_Y2*%
X132326990Y-61328757D03*
X127355600Y-70154800D03*
%TO.N,IO16{slash}DVP_Y5*%
X132284525Y-62028125D03*
%TO.N,IO17{slash}DVP_Y3*%
X132147918Y-62792809D03*
X125873961Y-68523514D03*
%TO.N,IO18{slash}DVP_Y4*%
X132130800Y-63441900D03*
X124874884Y-68552681D03*
%TO.N,CHIP_EN*%
X126238000Y-77774800D03*
X136194887Y-57718139D03*
%TO.N,SPID*%
X134355826Y-64576974D03*
X130454400Y-75809300D03*
%TO.N,SPIQ*%
X132527900Y-67259200D03*
X133248400Y-64770000D03*
%TO.N,GND*%
X115062000Y-52070000D03*
X121869200Y-64973200D03*
X136122501Y-55664292D03*
X121920000Y-57962800D03*
X128371600Y-79908400D03*
X118465600Y-48615600D03*
X148844000Y-66649600D03*
X118110000Y-72034400D03*
X140004800Y-66103900D03*
X141028693Y-74352978D03*
X136245600Y-73406000D03*
X136499600Y-78892400D03*
X119923979Y-70420735D03*
X146964400Y-65227200D03*
X119278400Y-53898800D03*
X127355600Y-73456800D03*
X122021600Y-76606400D03*
X137414000Y-49936400D03*
X131292600Y-70069800D03*
X139700000Y-48869600D03*
X134721600Y-62128400D03*
X145237200Y-73050400D03*
X145237200Y-63550800D03*
X116992400Y-69646800D03*
X128828800Y-62382400D03*
X138042436Y-76102776D03*
X139903200Y-70866000D03*
X125171200Y-66311183D03*
X124968000Y-58216800D03*
X134416800Y-48768000D03*
X145288000Y-68580000D03*
X130810000Y-44348400D03*
X127254000Y-48818800D03*
X142480700Y-56438800D03*
X139242800Y-54051200D03*
%TO.N,+3.3V*%
X122377200Y-66294000D03*
X128066800Y-65278000D03*
X147116800Y-61112400D03*
X140106400Y-63578800D03*
X132384800Y-81178400D03*
X141481197Y-56438800D03*
X140970000Y-73355200D03*
X128524000Y-80924400D03*
X136369675Y-54417709D03*
X136519984Y-72708528D03*
X126565800Y-58216800D03*
X127457200Y-47752000D03*
X121107200Y-76606400D03*
X137793500Y-70223700D03*
X130030601Y-61599131D03*
X140328058Y-59352858D03*
X137210800Y-76657200D03*
%TO.N,RX_D7*%
X139085064Y-61608223D03*
X128171085Y-61528315D03*
%TO.N,TX_D6*%
X139722764Y-61560242D03*
X125831600Y-57759600D03*
%TO.N,MTDO{slash}IO40{slash}CAM_SDA*%
X142778620Y-64566316D03*
X123228303Y-68986400D03*
X135435433Y-73962167D03*
X137312400Y-63550800D03*
%TO.N,MTCK{slash}IO39{slash}CAM_SCL*%
X137280918Y-64331785D03*
X133096000Y-73456800D03*
X124124268Y-69024617D03*
%TO.N,D3{slash}A3*%
X132597902Y-57628415D03*
X133858000Y-59619598D03*
%TO.N,D2{slash}A2*%
X132556500Y-56591200D03*
X135026400Y-59588400D03*
%TO.N,GPIO0*%
X132638800Y-77825600D03*
X136601200Y-59542901D03*
%TO.N,MTDI{slash}IO41{slash}PDM_DATA*%
X122478800Y-68986400D03*
X139100758Y-62920105D03*
%TO.N,MTMS{slash}IO42{slash}PDM_CLK*%
X121361200Y-68986400D03*
X137215402Y-62002900D03*
%TD*%
D46*
%TO.N,VDC*%
X132318800Y-49565000D02*
X132318800Y-49956300D01*
X116448800Y-55036300D02*
X116448800Y-55420551D01*
X134319800Y-47564000D02*
X132318800Y-49565000D01*
X131693800Y-48947049D02*
X132318800Y-49572049D01*
X119735600Y-68224400D02*
X120853200Y-67106800D01*
X132872900Y-50510400D02*
X132318800Y-49956300D01*
X117204905Y-68224400D02*
X119735600Y-68224400D01*
X114706400Y-55270400D02*
X115120000Y-55684000D01*
X132318800Y-49572049D02*
X132318800Y-49956300D01*
X134569200Y-50499800D02*
X133665400Y-50499800D01*
X119938800Y-53533895D02*
X120209800Y-53804895D01*
X116448800Y-55420551D02*
X117052049Y-56023800D01*
X117745551Y-56023800D02*
X118348800Y-55420551D01*
X127562495Y-50152600D02*
X126529000Y-49119105D01*
X131733000Y-50943800D02*
X132318800Y-50358000D01*
X120853200Y-67106800D02*
X120853200Y-66108400D01*
X118348800Y-55420551D02*
X118348800Y-55036300D01*
X128676400Y-50152600D02*
X130222500Y-50152600D01*
X131693800Y-46525600D02*
X131693800Y-48947049D01*
X115824000Y-68072000D02*
X117052505Y-68072000D01*
X126085600Y-45008800D02*
X121615200Y-45008800D01*
X117052049Y-56023800D02*
X117745551Y-56023800D01*
X131419600Y-52730400D02*
X130418800Y-51729600D01*
X121615200Y-45008800D02*
X119938800Y-46685200D01*
X132318800Y-50358000D02*
X132318800Y-49956300D01*
X130418800Y-51729600D02*
X130418800Y-49956300D01*
X126529000Y-49119105D02*
X126529000Y-48518495D01*
X133654800Y-50510400D02*
X132872900Y-50510400D01*
X116448800Y-55036300D02*
X114940500Y-55036300D01*
X126529000Y-48518495D02*
X126542800Y-48504695D01*
X130418800Y-50340551D02*
X131022049Y-50943800D01*
X115120000Y-55684000D02*
X115120000Y-67368000D01*
X130222500Y-50152600D02*
X130418800Y-49956300D01*
X119875841Y-55575200D02*
X119684800Y-55575200D01*
X120209800Y-55241241D02*
X119875841Y-55575200D01*
X126542800Y-48504695D02*
X126542800Y-45466000D01*
X119938800Y-46685200D02*
X119938800Y-53533895D01*
X128676400Y-50152600D02*
X127562495Y-50152600D01*
X120209800Y-53804895D02*
X120209800Y-55241241D01*
X114940500Y-55036300D02*
X114706400Y-55270400D01*
X130418800Y-49956300D02*
X130418800Y-50340551D01*
X115120000Y-67368000D02*
X115824000Y-68072000D01*
X133665400Y-50499800D02*
X133654800Y-50510400D01*
X118887700Y-55575200D02*
X119684800Y-55575200D01*
X131022049Y-50943800D02*
X131733000Y-50943800D01*
X117052505Y-68072000D02*
X117204905Y-68224400D01*
X126542800Y-45466000D02*
X126085600Y-45008800D01*
X118348800Y-55036300D02*
X118887700Y-55575200D01*
X132334000Y-45885400D02*
X131693800Y-46525600D01*
%TO.N,Net-(U2-CAP)*%
X147108200Y-69228400D02*
X147370800Y-68965800D01*
X146545700Y-69228400D02*
X147108200Y-69228400D01*
X147370800Y-68965800D02*
X147370800Y-66459400D01*
X147370800Y-66459400D02*
X148285200Y-65545000D01*
%TO.N,Net-(U2-XOUT32)*%
X141122400Y-69316600D02*
X141210600Y-69228400D01*
X141457600Y-69651800D02*
X141457600Y-70764400D01*
X141122400Y-69316600D02*
X141457600Y-69651800D01*
X141210600Y-69228400D02*
X143420700Y-69228400D01*
%TO.N,Net-(U2-XIN32)*%
X143420700Y-69728400D02*
X144377900Y-69728400D01*
X144377900Y-69728400D02*
X144678400Y-69427900D01*
X141122400Y-66969304D02*
X140496118Y-67595586D01*
X141544000Y-66507400D02*
X141544000Y-65481200D01*
X141122400Y-66929000D02*
X141122400Y-66969304D01*
X141122400Y-66929000D02*
X141544000Y-66507400D01*
%TO.N,+5V*%
X118292000Y-64138400D02*
X119769596Y-64138400D01*
X119769596Y-64138400D02*
X121767600Y-66136404D01*
X117442000Y-63888400D02*
X116992000Y-63888400D01*
X121767600Y-67394000D02*
X120853200Y-68308400D01*
X116992000Y-63888400D02*
X116361472Y-63888400D01*
X116992000Y-61388400D02*
X117727000Y-61388400D01*
X118292000Y-64138400D02*
X117692000Y-64138400D01*
X121767600Y-66136404D02*
X121767600Y-67394000D01*
X117692000Y-64138400D02*
X117442000Y-63888400D01*
X116300265Y-61388400D02*
X116294500Y-61382635D01*
X117727000Y-61388400D02*
X117977000Y-61138400D01*
X117977000Y-61138400D02*
X118292000Y-61138400D01*
X116361472Y-63888400D02*
X116136972Y-64112900D01*
X116992000Y-61388400D02*
X116300265Y-61388400D01*
%TO.N,Net-(ANT1-PadSIG)*%
X137566400Y-55372000D02*
X137566400Y-54703998D01*
X137322001Y-53141399D02*
X137322001Y-54459599D01*
X137566400Y-54703998D02*
X137322001Y-54459599D01*
%TO.N,MOTOR2_BIN2*%
X127145200Y-51758000D02*
X127145200Y-54298000D01*
X124764800Y-49377600D02*
X127145200Y-51758000D01*
X127145200Y-54298000D02*
X127762000Y-54914800D01*
X127762000Y-54914800D02*
X131948000Y-54914800D01*
%TO.N,MOTOR2_BIN1*%
X126695200Y-52083251D02*
X126695200Y-55118000D01*
X127355600Y-55778400D02*
X131958600Y-55778400D01*
X124256800Y-51206400D02*
X125818349Y-51206400D01*
X126695200Y-55118000D02*
X127355600Y-55778400D01*
X125818349Y-51206400D02*
X126695200Y-52083251D01*
X123677800Y-47924600D02*
X123677800Y-50627400D01*
X123677800Y-50627400D02*
X124256800Y-51206400D01*
X124764800Y-46837600D02*
X123677800Y-47924600D01*
%TO.N,Net-(U2-COM3)*%
X145354000Y-64719200D02*
X145354000Y-65532600D01*
X145233200Y-65653400D02*
X145233200Y-66165900D01*
X145354000Y-65532600D02*
X145233200Y-65653400D01*
%TO.N,Net-(U2-PS1)*%
X145733200Y-71869000D02*
X145733200Y-70790900D01*
X145567800Y-72034400D02*
X145733200Y-71869000D01*
%TO.N,Net-(U2-PS0)*%
X147108200Y-70728400D02*
X147929600Y-69907000D01*
X147929600Y-69907000D02*
X147929600Y-67975000D01*
X146545700Y-70728400D02*
X147108200Y-70728400D01*
%TO.N,DRV_SLEEP*%
X137974396Y-68511505D02*
X137668000Y-68205109D01*
X137668000Y-68205109D02*
X137668000Y-68025800D01*
%TO.N,MOTOR1_AIN1*%
X122682000Y-52679600D02*
X121920000Y-52679600D01*
X130896400Y-57454800D02*
X127457200Y-57454800D01*
X127457200Y-57454800D02*
X122682000Y-52679600D01*
%TO.N,DRV_FAULT*%
X138582400Y-68909800D02*
X138582400Y-68025800D01*
X139085800Y-68025800D02*
X139496800Y-67614800D01*
X138582400Y-68025800D02*
X139085800Y-68025800D01*
X138668800Y-68112200D02*
X138582400Y-68025800D01*
X138633200Y-68076600D02*
X138582400Y-68025800D01*
%TO.N,Net-(C18-Pad1)*%
X136921601Y-57318001D02*
X136601200Y-56997600D01*
X136601200Y-56997600D02*
X135664000Y-56997600D01*
X136921601Y-58675999D02*
X136921601Y-57318001D01*
X135664000Y-56997600D02*
X135534400Y-56868000D01*
X136921601Y-58675999D02*
X136521599Y-58675999D01*
%TO.N,+1V8*%
X116448800Y-52761300D02*
X116448800Y-51178200D01*
X116448800Y-52761300D02*
X117124900Y-52761300D01*
X116674600Y-50952400D02*
X116674600Y-50289800D01*
X116448800Y-51178200D02*
X116674600Y-50952400D01*
X117124900Y-52761300D02*
X117348000Y-52984400D01*
X116674600Y-50289800D02*
X117282000Y-49682400D01*
%TO.N,+2V8*%
X138277600Y-46736000D02*
X139192000Y-46736000D01*
X136194800Y-46614000D02*
X136784000Y-46024800D01*
X138277600Y-46736000D02*
X136316800Y-46736000D01*
X136784000Y-46024800D02*
X136784000Y-45313600D01*
X139192000Y-46736000D02*
X139649200Y-47193200D01*
X136316800Y-46736000D02*
X136194800Y-46614000D01*
%TO.N,IO38{slash}DVP_VSYNC*%
X138174001Y-64728400D02*
X138741100Y-64728400D01*
X138741100Y-64728400D02*
X139039600Y-64429900D01*
%TO.N,IO47{slash}DVP_HREF*%
X135534400Y-64668400D02*
X135321599Y-64881201D01*
X135321599Y-64881201D02*
X135321599Y-65580801D01*
%TO.N,IO48{slash}DVP_Y9*%
X134921600Y-66494000D02*
X134975600Y-66548000D01*
X134921600Y-65580801D02*
X134921600Y-66494000D01*
%TO.N,IO10{slash}XMCLK*%
X130319678Y-58945678D02*
X130902400Y-59528400D01*
X128117600Y-58028800D02*
X129739306Y-58028800D01*
X130902400Y-59528400D02*
X131269199Y-59528400D01*
X130319678Y-58609172D02*
X130319678Y-58945678D01*
X129739306Y-58028800D02*
X130319678Y-58609172D01*
%TO.N,IO11{slash}DVP_Y8*%
X129619678Y-58899122D02*
X130648955Y-59928399D01*
X130648955Y-59928399D02*
X131269199Y-59928399D01*
%TO.N,BNO_SCL*%
X142120900Y-66457014D02*
X142799515Y-65778400D01*
X137094000Y-69646800D02*
X137094000Y-70698400D01*
X137318800Y-70923200D02*
X138151200Y-70923200D01*
X138151200Y-70923200D02*
X139395200Y-69679200D01*
X142120900Y-67828614D02*
X142120900Y-66457014D01*
X137094000Y-70698400D02*
X137318800Y-70923200D01*
X143845700Y-65778400D02*
X144233200Y-66165900D01*
X139395200Y-69679200D02*
X139395200Y-69030315D01*
X141654314Y-68295200D02*
X142120900Y-67828614D01*
X139395200Y-69030315D02*
X140130315Y-68295200D01*
X140130315Y-68295200D02*
X141654314Y-68295200D01*
X135890000Y-68051600D02*
X135890000Y-68224400D01*
X135890000Y-68224400D02*
X137094000Y-69428400D01*
X137094000Y-69428400D02*
X137094000Y-69646800D01*
X142799515Y-65778400D02*
X143845700Y-65778400D01*
%TO.N,IO12{slash}DVP_Y7*%
X131269199Y-60328401D02*
X129735561Y-60328401D01*
X129735561Y-60328401D02*
X128701732Y-59294572D01*
%TO.N,IO13{slash}DVP_PCLK*%
X131269199Y-60728400D02*
X129146316Y-60728400D01*
X129146316Y-60728400D02*
X128823958Y-60406042D01*
%TO.N,BNO_SDA*%
X138089600Y-71424800D02*
X138089600Y-72277800D01*
X141820000Y-68695200D02*
X142544800Y-67970400D01*
X139838800Y-69914400D02*
X139838800Y-69152400D01*
X140296000Y-68695200D02*
X141820000Y-68695200D01*
X142544800Y-67970400D02*
X142544800Y-66598800D01*
X138089600Y-71424800D02*
X138328400Y-71424800D01*
X142915200Y-66228400D02*
X143420700Y-66228400D01*
X138328400Y-71424800D02*
X139838800Y-69914400D01*
X138089600Y-72277800D02*
X138100200Y-72288400D01*
X139838800Y-69152400D02*
X140296000Y-68695200D01*
X142544800Y-66598800D02*
X142915200Y-66228400D01*
%TO.N,BNO_INT*%
X136753600Y-68025800D02*
X136753600Y-68326000D01*
X146545700Y-66728400D02*
X146022000Y-66728400D01*
X146022000Y-66728400D02*
X145796000Y-66954400D01*
X136753600Y-68326000D02*
X137312400Y-68884800D01*
%TO.N,MOTOR1_AIN2*%
X130881200Y-56591200D02*
X127457200Y-56591200D01*
X126245200Y-53499600D02*
X125425200Y-52679600D01*
X127457200Y-56591200D02*
X126245200Y-55379200D01*
X126245200Y-55379200D02*
X126245200Y-53499600D01*
X125425200Y-52679600D02*
X124460000Y-52679600D01*
%TO.N,Net-(J1-CC1)*%
X120264000Y-58369200D02*
X120264000Y-60266400D01*
X118892000Y-61638400D02*
X118292000Y-61638400D01*
X120264000Y-60266400D02*
X118892000Y-61638400D01*
%TO.N,USB_DP*%
X121659500Y-63026800D02*
X120634000Y-63026800D01*
X120634000Y-63026800D02*
X120345200Y-62738000D01*
X128959241Y-63928399D02*
X131269199Y-63928399D01*
X128431283Y-64253555D02*
X128634085Y-64253555D01*
X119634773Y-62738400D02*
X118892000Y-62738400D01*
X128634085Y-64253555D02*
X128959241Y-63928399D01*
X117542000Y-62888400D02*
X118292000Y-62138400D01*
X118892000Y-62738400D02*
X118292000Y-62138400D01*
X116992000Y-62888400D02*
X117542000Y-62888400D01*
X119635173Y-62738000D02*
X119634773Y-62738400D01*
X120345200Y-62738000D02*
X119635173Y-62738000D01*
%TO.N,USB_DN*%
X119430800Y-63347600D02*
X119221600Y-63138400D01*
X119430800Y-63347600D02*
X119989600Y-63906400D01*
X119221600Y-63138400D02*
X118292000Y-63138400D01*
X128431283Y-63614052D02*
X128516935Y-63528400D01*
X116992000Y-62388400D02*
X116299750Y-62388400D01*
X128516935Y-63528400D02*
X131269199Y-63528400D01*
X119989600Y-63906400D02*
X120497600Y-63906400D01*
X116299750Y-62388400D02*
X116294097Y-62382747D01*
X120877200Y-63526800D02*
X120497600Y-63906400D01*
X121659500Y-63526800D02*
X120877200Y-63526800D01*
%TO.N,Net-(J1-CC2)*%
X120239000Y-57404000D02*
X119426200Y-56591200D01*
X119426200Y-56591200D02*
X117094000Y-56591200D01*
X115570000Y-62992000D02*
X115966400Y-63388400D01*
X115570000Y-58115200D02*
X115570000Y-62992000D01*
X115966400Y-63388400D02*
X116992000Y-63388400D01*
X117094000Y-56591200D02*
X115570000Y-58115200D01*
%TO.N,IO14{slash}DVP_Y6*%
X131759201Y-61128399D02*
X132181600Y-60706000D01*
X131269199Y-61128399D02*
X131759201Y-61128399D01*
%TO.N,IO15{slash}DVP_Y2*%
X132326990Y-61328757D02*
X131727347Y-61928400D01*
X131727347Y-61928400D02*
X131269199Y-61928400D01*
%TO.N,IO16{slash}DVP_Y5*%
X132284525Y-62028125D02*
X131984250Y-62328400D01*
X131984250Y-62328400D02*
X131269199Y-62328400D01*
%TO.N,IO17{slash}DVP_Y3*%
X132147918Y-62792809D02*
X132083508Y-62728399D01*
X132083508Y-62728399D02*
X131269199Y-62728399D01*
%TO.N,IO18{slash}DVP_Y4*%
X131269199Y-63128401D02*
X131790545Y-63128401D01*
X131790545Y-63128401D02*
X132104044Y-63441900D01*
X132104044Y-63441900D02*
X132130800Y-63441900D01*
%TO.N,Net-(R21-Pad2)*%
X134036200Y-79508602D02*
X135879801Y-77665001D01*
X134036200Y-81280000D02*
X134036200Y-79508602D01*
%TO.N,CHIP_EN*%
X125014998Y-77673200D02*
X126136400Y-77673200D01*
X136121600Y-58675999D02*
X136121600Y-57791426D01*
X126563400Y-77449400D02*
X126238000Y-77774800D01*
X136121600Y-57791426D02*
X136194887Y-57718139D01*
X126136400Y-77673200D02*
X126238000Y-77774800D01*
X125933200Y-70662800D02*
X126563400Y-71293000D01*
X126563400Y-71293000D02*
X126563400Y-77449400D01*
%TO.N,SPIWP*%
X132562600Y-69878404D02*
X132562600Y-70069800D01*
X131318000Y-65532000D02*
X131318000Y-68633804D01*
X132618598Y-64820800D02*
X132029200Y-64820800D01*
X132921601Y-65123803D02*
X132618598Y-64820800D01*
X132921601Y-65580801D02*
X132921601Y-65123803D01*
X132029200Y-64820800D02*
X131318000Y-65532000D01*
X131318000Y-68633804D02*
X132562600Y-69878404D01*
%TO.N,SPICS0*%
X133102400Y-68440885D02*
X133102400Y-66729229D01*
X135102600Y-69878404D02*
X134168996Y-68944800D01*
X135102600Y-70069800D02*
X135102600Y-69878404D01*
X133102400Y-66729229D02*
X133321599Y-66510030D01*
X133321599Y-66510030D02*
X133321600Y-65580801D01*
X134168996Y-68944800D02*
X133606315Y-68944800D01*
X133606315Y-68944800D02*
X133102400Y-68440885D01*
%TO.N,SPICLK*%
X133502400Y-66894915D02*
X133502400Y-68275200D01*
X133721599Y-66675716D02*
X133502400Y-66894915D01*
X134734682Y-68944800D02*
X135438996Y-68944800D01*
X134215682Y-68425800D02*
X134734682Y-68944800D01*
X135438996Y-68944800D02*
X135702600Y-69208404D01*
X135702600Y-71815400D02*
X132562600Y-74955400D01*
X135702600Y-69208404D02*
X135702600Y-71815400D01*
X133502400Y-68275200D02*
X133653000Y-68425800D01*
X132562600Y-74955400D02*
X132562600Y-75319800D01*
X133721599Y-65580801D02*
X133721599Y-66675716D01*
X133653000Y-68425800D02*
X134215682Y-68425800D01*
%TO.N,SPID*%
X134355826Y-64576974D02*
X134521600Y-64742748D01*
X130803100Y-75809300D02*
X131292600Y-75319800D01*
X134521600Y-64742748D02*
X134521600Y-65580801D01*
X130454400Y-75809300D02*
X130803100Y-75809300D01*
%TO.N,SPIQ*%
X133832600Y-69878404D02*
X133832600Y-70069800D01*
X133767798Y-64770000D02*
X134121601Y-65123803D01*
X132527900Y-67259200D02*
X132527900Y-68573704D01*
X134121601Y-65123803D02*
X134121601Y-65580801D01*
X132527900Y-68573704D02*
X133832600Y-69878404D01*
X133248400Y-64770000D02*
X133767798Y-64770000D01*
X133248400Y-64770000D02*
X133248400Y-64668400D01*
%TO.N,GND*%
X143240800Y-57198900D02*
X143240800Y-58257000D01*
X147929600Y-67335000D02*
X148158600Y-67335000D01*
X144927800Y-72741000D02*
X145237200Y-73050400D01*
X148158600Y-67335000D02*
X148844000Y-66649600D01*
X144714000Y-64719200D02*
X144714000Y-64074000D01*
X124710000Y-58474800D02*
X124710000Y-59826800D01*
X134558600Y-49870400D02*
X134569200Y-49859800D01*
X131117000Y-45552400D02*
X132334000Y-44335400D01*
X123393200Y-74702796D02*
X122123200Y-74702796D01*
X135534400Y-53954800D02*
X135534400Y-51929000D01*
X138452800Y-56946800D02*
X138452800Y-54630398D01*
X145139600Y-68728400D02*
X145288000Y-68580000D01*
X121513600Y-58369200D02*
X121920000Y-57962800D01*
X138277600Y-48286000D02*
X136422800Y-48286000D01*
X144233200Y-71843200D02*
X144424400Y-72034400D01*
X134670800Y-48514000D02*
X134416800Y-48768000D01*
X128371600Y-79908400D02*
X129429798Y-79908400D01*
X117922000Y-49682400D02*
X117922000Y-49159200D01*
X129110800Y-62100400D02*
X128828800Y-62382400D01*
X120879000Y-57404000D02*
X121361200Y-57404000D01*
X135878793Y-55908000D02*
X136122501Y-55664292D01*
X138282001Y-54459599D02*
X138834401Y-54459599D01*
X135534400Y-55908000D02*
X135878793Y-55908000D01*
X127470200Y-48602600D02*
X127254000Y-48818800D01*
X124210000Y-65077300D02*
X124210000Y-66044000D01*
X128742600Y-48668800D02*
X128676400Y-48602600D01*
X143240800Y-58257000D02*
X143251400Y-58267600D01*
X117398800Y-55036300D02*
X117398800Y-54352049D01*
X136846860Y-74907200D02*
X138042436Y-76102776D01*
X143240800Y-58826400D02*
X143240800Y-58278200D01*
X124210000Y-66044000D02*
X124477183Y-66311183D01*
X114706400Y-53720400D02*
X114706400Y-52425600D01*
X144733200Y-64738400D02*
X144714000Y-64719200D01*
X120904000Y-58369200D02*
X121513600Y-58369200D01*
X144927800Y-72034400D02*
X144927800Y-72741000D01*
X133654800Y-49870400D02*
X134558600Y-49870400D01*
X145186400Y-63601600D02*
X145237200Y-63550800D01*
X117922000Y-49159200D02*
X118465600Y-48615600D01*
X124968000Y-58216800D02*
X124710000Y-58474800D01*
X141732000Y-57584400D02*
X142480700Y-56835700D01*
X116795551Y-53748800D02*
X114734800Y-53748800D01*
X138834401Y-54459599D02*
X139242800Y-54051200D01*
X135534400Y-55908000D02*
X135333609Y-55908000D01*
X132334000Y-44335400D02*
X130823000Y-44335400D01*
X141709200Y-57607200D02*
X141732000Y-57584400D01*
X128676400Y-45402200D02*
X130202600Y-45402200D01*
X125171200Y-67106800D02*
X125171200Y-66311183D01*
X146545700Y-66228400D02*
X146886500Y-65887600D01*
X138452800Y-54630398D02*
X138282001Y-54459599D01*
X136085949Y-45313600D02*
X135107749Y-44335400D01*
X116992000Y-65563400D02*
X116992000Y-66068400D01*
X130465551Y-48668800D02*
X128742600Y-48668800D01*
X140904000Y-65481200D02*
X140627500Y-65481200D01*
X136194800Y-48514000D02*
X134670800Y-48514000D01*
X144714000Y-64074000D02*
X145237200Y-63550800D01*
X140627500Y-65481200D02*
X140004800Y-66103900D01*
X124219000Y-67360800D02*
X124917200Y-67360800D01*
X143420700Y-68728400D02*
X145139600Y-68728400D01*
X146545700Y-68728400D02*
X145436400Y-68728400D01*
X117398800Y-54352049D02*
X116795551Y-53748800D01*
X122123200Y-74702796D02*
X122123200Y-76504800D01*
X135847001Y-51503399D02*
X135847001Y-51616399D01*
X134849000Y-49859800D02*
X136194800Y-48514000D01*
X126210000Y-66017200D02*
X126210000Y-65077300D01*
X134569200Y-49859800D02*
X134849000Y-49859800D01*
X143154400Y-73686000D02*
X144601600Y-73686000D01*
X142512400Y-59554800D02*
X143240800Y-58826400D01*
X140106400Y-64683600D02*
X140904000Y-65481200D01*
X146545700Y-66228400D02*
X145795700Y-66228400D01*
X146886500Y-65887600D02*
X146886500Y-65305100D01*
X138797001Y-51319401D02*
X138797001Y-51616399D01*
X138277600Y-48286000D02*
X139116400Y-48286000D01*
X121973300Y-65077300D02*
X121869200Y-64973200D01*
X140563600Y-57607200D02*
X141709200Y-57607200D01*
X118292000Y-65638400D02*
X118292000Y-66548400D01*
X134366000Y-53954800D02*
X134366000Y-53097400D01*
X114734800Y-53748800D02*
X114706400Y-53720400D01*
X143240800Y-57198900D02*
X142480700Y-56438800D01*
X143240800Y-58278200D02*
X143251400Y-58267600D01*
X122710000Y-65077300D02*
X121973300Y-65077300D01*
X139113200Y-57607200D02*
X138452800Y-56946800D01*
X144733200Y-66165900D02*
X144733200Y-64738400D01*
X146964400Y-65227200D02*
X147053000Y-65227200D01*
X116992000Y-66068400D02*
X117882000Y-66958400D01*
X135107749Y-44335400D02*
X132334000Y-44335400D01*
X130202600Y-45402200D02*
X130352800Y-45552400D01*
X147053000Y-65227200D02*
X148285200Y-63995000D01*
X114706400Y-52425600D02*
X115062000Y-52070000D01*
X128676400Y-48602600D02*
X127470200Y-48602600D01*
X137414000Y-49936400D02*
X138797001Y-51319401D01*
X139395200Y-57607200D02*
X140563600Y-57607200D01*
X144601600Y-73686000D02*
X145237200Y-73050400D01*
X135534400Y-51929000D02*
X135847001Y-51616399D01*
X131368800Y-49956300D02*
X131368800Y-49572049D01*
X144714000Y-64074000D02*
X144099200Y-64074000D01*
X124917200Y-67360800D02*
X125171200Y-67106800D01*
X116992000Y-59713400D02*
X116992000Y-59208400D01*
X140004800Y-70764400D02*
X139903200Y-70866000D01*
X118292000Y-58728400D02*
X117882000Y-58318400D01*
X144424400Y-72034400D02*
X144927800Y-72034400D01*
X116992000Y-59208400D02*
X117882000Y-58318400D01*
X118224600Y-50952400D02*
X118224600Y-49985000D01*
X142480700Y-56835700D02*
X142480700Y-56438800D01*
X119684800Y-54935200D02*
X119684800Y-54305200D01*
X135879801Y-79512199D02*
X136499600Y-78892400D01*
X129429798Y-79908400D02*
X129515000Y-79823198D01*
X125916017Y-66311183D02*
X126210000Y-66017200D01*
X130352800Y-45552400D02*
X131117000Y-45552400D01*
X142512400Y-60288200D02*
X142512400Y-59554800D01*
X145795700Y-66228400D02*
X145733200Y-66165900D01*
X136422800Y-48286000D02*
X136194800Y-48514000D01*
X135879801Y-79814999D02*
X135879801Y-79512199D01*
X136753600Y-74907200D02*
X136846860Y-74907200D01*
X146886500Y-65305100D02*
X146964400Y-65227200D01*
X144233200Y-70790900D02*
X144233200Y-71843200D01*
X129110800Y-61569600D02*
X129110800Y-62100400D01*
X131368800Y-49572049D02*
X130465551Y-48668800D01*
X140817600Y-70764400D02*
X140004800Y-70764400D01*
X140106400Y-64538800D02*
X140106400Y-64683600D01*
X134366000Y-53097400D02*
X135847001Y-51616399D01*
X118292000Y-59638400D02*
X118292000Y-58728400D01*
X119684800Y-54305200D02*
X119278400Y-53898800D01*
X144099200Y-64074000D02*
X143982400Y-63957200D01*
X118224600Y-49985000D02*
X117922000Y-49682400D01*
X145237200Y-62409000D02*
X145182400Y-62354200D01*
X145436400Y-68728400D02*
X145288000Y-68580000D01*
X135333609Y-55908000D02*
X134373609Y-56868000D01*
X137414000Y-49936400D02*
X135847001Y-51503399D01*
X118292000Y-66548400D02*
X117882000Y-66958400D01*
X125171200Y-66311183D02*
X125916017Y-66311183D01*
X130823000Y-44335400D02*
X130810000Y-44348400D01*
X122123200Y-76504800D02*
X122021600Y-76606400D01*
X145237200Y-63550800D02*
X145237200Y-62409000D01*
X121361200Y-57404000D02*
X121920000Y-57962800D01*
X136144000Y-45313600D02*
X136085949Y-45313600D01*
X139395200Y-57607200D02*
X139113200Y-57607200D01*
X124477183Y-66311183D02*
X125171200Y-66311183D01*
X134373609Y-56868000D02*
X134366000Y-56868000D01*
X139116400Y-48286000D02*
X139700000Y-48869600D01*
X120879000Y-58344200D02*
X120904000Y-58369200D01*
%TO.N,+3.3V*%
X136601200Y-56357600D02*
X136847001Y-56111799D01*
X136753600Y-75867200D02*
X136753600Y-76200000D01*
X144733200Y-70790900D02*
X144733200Y-70352800D01*
X130352800Y-47615300D02*
X130418800Y-47681300D01*
X136369675Y-54417709D02*
X136369675Y-54474882D01*
X139395200Y-58567200D02*
X140563600Y-58567200D01*
X135102600Y-75319800D02*
X135650000Y-75867200D01*
X140563600Y-58567200D02*
X141709200Y-58567200D01*
X140563600Y-59117316D02*
X140563600Y-58567200D01*
X123710000Y-66332800D02*
X123698000Y-66344800D01*
X141709200Y-58567200D02*
X141732000Y-58544400D01*
X135534400Y-54914800D02*
X135872584Y-54914800D01*
X128524000Y-80924400D02*
X128117600Y-81330800D01*
X137460200Y-72288400D02*
X136940112Y-72288400D01*
X143154400Y-72136000D02*
X142976200Y-71957800D01*
X135872584Y-54914800D02*
X136369675Y-54417709D01*
X130111999Y-61528401D02*
X130070800Y-61569600D01*
X136753600Y-76200000D02*
X137210800Y-76657200D01*
X139207601Y-59928399D02*
X139395200Y-59740800D01*
X120853200Y-76352400D02*
X121107200Y-76606400D01*
X122377200Y-66294000D02*
X122428000Y-66344800D01*
X128066800Y-65278000D02*
X128117600Y-65328800D01*
X128257000Y-46952200D02*
X128676400Y-46952200D01*
X135650000Y-75867200D02*
X136753600Y-75867200D01*
X128117600Y-81330800D02*
X127483000Y-81330800D01*
X142164200Y-70922400D02*
X142164200Y-71881200D01*
X142164200Y-71881200D02*
X142087600Y-71957800D01*
X137769600Y-69611200D02*
X137734000Y-69646800D01*
X130070800Y-61569600D02*
X130060132Y-61569600D01*
X122669000Y-66585800D02*
X122377200Y-66294000D01*
X141351400Y-71957800D02*
X140970000Y-72339200D01*
X142858200Y-70228400D02*
X142164200Y-70922400D01*
X136847001Y-56111799D02*
X136847001Y-54952208D01*
X134366000Y-54914800D02*
X135534400Y-54914800D01*
X133396200Y-81280000D02*
X132486400Y-81280000D01*
X138485400Y-69646800D02*
X138582400Y-69549800D01*
X128117600Y-65328800D02*
X128117600Y-65857200D01*
X139395200Y-59740800D02*
X139395200Y-58567200D01*
X126210000Y-58572600D02*
X126210000Y-59826800D01*
X136940112Y-72288400D02*
X136519984Y-72708528D01*
X120853200Y-74702796D02*
X120853200Y-76352400D01*
X144733200Y-70790900D02*
X145233200Y-70790900D01*
X136369675Y-54474882D02*
X136847001Y-54952208D01*
X141351400Y-71957800D02*
X142087600Y-71957800D01*
X138174001Y-59928399D02*
X139207601Y-59928399D01*
X123710000Y-65077300D02*
X123710000Y-66332800D01*
X129689700Y-46952200D02*
X130418800Y-47681300D01*
X143420700Y-70228400D02*
X144608800Y-70228400D01*
X144733200Y-70352800D02*
X144608800Y-70228400D01*
X123698000Y-64738800D02*
X123710000Y-64726800D01*
X132486400Y-81280000D02*
X132384800Y-81178400D01*
X137734000Y-69646800D02*
X137734000Y-70164200D01*
X143420700Y-70228400D02*
X142858200Y-70228400D01*
X140056000Y-63528400D02*
X140106400Y-63578800D01*
X140970000Y-72339200D02*
X140970000Y-73355200D01*
X140328058Y-59352858D02*
X140563600Y-59117316D01*
X131269199Y-61528401D02*
X130111999Y-61528401D01*
X128676400Y-46952200D02*
X129689700Y-46952200D01*
X122428000Y-66344800D02*
X123698000Y-66344800D01*
X134366000Y-55908000D02*
X134366000Y-54914800D01*
X126565800Y-58216800D02*
X126210000Y-58572600D01*
X138174001Y-63528400D02*
X140056000Y-63528400D01*
X127457200Y-47752000D02*
X128257000Y-46952200D01*
X142976200Y-71957800D02*
X142087600Y-71957800D01*
X130060132Y-61569600D02*
X130030601Y-61599131D01*
X122669000Y-67360800D02*
X122669000Y-66585800D01*
X137734000Y-70164200D02*
X137793500Y-70223700D01*
X138174001Y-59528400D02*
X138174001Y-59928399D01*
X130352800Y-46192400D02*
X130352800Y-47615300D01*
X137734000Y-69646800D02*
X138485400Y-69646800D01*
%TO.N,Net-(R5-Pad2)*%
X126843000Y-78998600D02*
X126843000Y-81330800D01*
X128168400Y-77673200D02*
X126843000Y-78998600D01*
X129515000Y-77673200D02*
X128168400Y-77673200D01*
%TO.N,RX_D7*%
X128171085Y-61528315D02*
X128169570Y-61526800D01*
X138174001Y-61928400D02*
X138764887Y-61928400D01*
X138764887Y-61928400D02*
X139085064Y-61608223D01*
X128169570Y-61526800D02*
X126910000Y-61526800D01*
%TO.N,TX_D6*%
X140172400Y-62175915D02*
X140172400Y-62331600D01*
X139722764Y-61560242D02*
X139722764Y-61726279D01*
X139722764Y-61726279D02*
X140172400Y-62175915D01*
X125710000Y-59826800D02*
X125710000Y-57881200D01*
X125710000Y-57881200D02*
X125831600Y-57759600D01*
%TO.N,Net-(U7-LNA_IN)*%
X137566400Y-56012000D02*
X137566400Y-56873200D01*
X137321600Y-57118000D02*
X137492800Y-56946800D01*
X137321600Y-58675999D02*
X137321600Y-57118000D01*
X137566400Y-56873200D02*
X137492800Y-56946800D01*
%TO.N,Net-(U7-XTAL_P)*%
X143891400Y-58267600D02*
X145182400Y-59558600D01*
X140665200Y-61163200D02*
X139830401Y-60328401D01*
X145182400Y-59558600D02*
X145182400Y-59972200D01*
X143937400Y-61163200D02*
X140665200Y-61163200D01*
X144812400Y-60288200D02*
X143937400Y-61163200D01*
X139830401Y-60328401D02*
X138174001Y-60328401D01*
%TO.N,Net-(U7-XTAL_N)*%
X142015400Y-62630200D02*
X143342400Y-63957200D01*
X139570000Y-60728400D02*
X141195800Y-62354200D01*
X142015400Y-62354200D02*
X142015400Y-62630200D01*
X141195800Y-62354200D02*
X142015400Y-62354200D01*
X138174001Y-60728400D02*
X139570000Y-60728400D01*
%TO.N,IO21{slash}USER_LED*%
X129489200Y-64947700D02*
X130108499Y-64328401D01*
X131269199Y-64328401D02*
X130108499Y-64328401D01*
%TO.N,Net-(D2-A)*%
X129463700Y-66497200D02*
X129489200Y-66522700D01*
X128117600Y-66497200D02*
X129463700Y-66497200D01*
%TO.N,MTDO{slash}IO40{slash}CAM_SDA*%
X123228303Y-68986400D02*
X123393200Y-69151297D01*
X123393200Y-69151297D02*
X123393200Y-70662800D01*
X138174001Y-63928399D02*
X137689999Y-63928399D01*
X137689999Y-63928399D02*
X137312400Y-63550800D01*
%TO.N,MTCK{slash}IO39{slash}CAM_SCL*%
X137284302Y-64328401D02*
X137280918Y-64331785D01*
X138174001Y-64328401D02*
X137284302Y-64328401D01*
X124663200Y-70662800D02*
X124663200Y-69563549D01*
X124663200Y-69563549D02*
X124124268Y-69024617D01*
%TO.N,GPIO36*%
X136921600Y-66151186D02*
X136921601Y-65580801D01*
X137668000Y-67385800D02*
X137668000Y-66897586D01*
X137668000Y-66897586D02*
X136921600Y-66151186D01*
%TO.N,D3{slash}A3*%
X134121601Y-58675999D02*
X134121601Y-59355997D01*
X132076003Y-57454800D02*
X132424287Y-57454800D01*
X134121601Y-59355997D02*
X133858000Y-59619598D01*
X132424287Y-57454800D02*
X132597902Y-57628415D01*
X131536400Y-57454800D02*
X132076003Y-57454800D01*
%TO.N,GPIO35*%
X136521599Y-65580801D02*
X136521599Y-66468399D01*
X136753600Y-66700400D02*
X136753600Y-67385800D01*
X136521599Y-66468399D02*
X136753600Y-66700400D01*
%TO.N,D2{slash}A2*%
X134521600Y-58675999D02*
X134521600Y-59083600D01*
X134521600Y-59083600D02*
X135026400Y-59588400D01*
X132588000Y-56591200D02*
X132556500Y-56591200D01*
X131521200Y-56591200D02*
X132588000Y-56591200D01*
%TO.N,D1{slash}A1*%
X133816995Y-57923000D02*
X134732600Y-57923000D01*
X133096000Y-55778400D02*
X133281000Y-55963400D01*
X133281000Y-55963400D02*
X133281000Y-57387005D01*
X133281000Y-57387005D02*
X133816995Y-57923000D01*
X134921600Y-58675999D02*
X134921600Y-58112000D01*
X132598600Y-55778400D02*
X133096000Y-55778400D01*
X134921600Y-58112000D02*
X134732600Y-57923000D01*
%TO.N,D0{slash}A0*%
X134003391Y-57473000D02*
X135095400Y-57473000D01*
X132588000Y-54914800D02*
X133248400Y-54914800D01*
X135321599Y-58675999D02*
X135321599Y-57699199D01*
X135095400Y-57473000D02*
X135321599Y-57699199D01*
X133731000Y-57200609D02*
X134003391Y-57473000D01*
X133248400Y-54914800D02*
X133731000Y-55397400D01*
X133731000Y-55397400D02*
X133731000Y-57200609D01*
%TO.N,GPIO37*%
X137321600Y-65580801D02*
X137321600Y-65985500D01*
X137321600Y-65985500D02*
X138582400Y-67246300D01*
X138582400Y-67246300D02*
X138582400Y-67385800D01*
%TO.N,GPIO34*%
X136121600Y-65580801D02*
X136121600Y-67180000D01*
X136121600Y-67180000D02*
X135890000Y-67411600D01*
%TO.N,GPIO33*%
X135390000Y-68347285D02*
X135390000Y-67115915D01*
X137254714Y-71424800D02*
X136550400Y-70720486D01*
X137449600Y-71424800D02*
X137254714Y-71424800D01*
X135624315Y-68581600D02*
X135390000Y-68347285D01*
X135721601Y-66784314D02*
X135721601Y-65580801D01*
X136550400Y-70720486D02*
X136550400Y-69490519D01*
X136550400Y-69490519D02*
X135641482Y-68581600D01*
X135390000Y-67115915D02*
X135721601Y-66784314D01*
X135641482Y-68581600D02*
X135624315Y-68581600D01*
%TO.N,Net-(U7-U0TXD)*%
X139529200Y-62328400D02*
X138174001Y-62328400D01*
X139532400Y-62331600D02*
X139529200Y-62328400D01*
%TO.N,GPIO0*%
X135721601Y-58675999D02*
X135721601Y-59253399D01*
X131379799Y-77665001D02*
X132478201Y-77665001D01*
X136011103Y-59542901D02*
X136601200Y-59542901D01*
X135721601Y-59253399D02*
X136011103Y-59542901D01*
X132478201Y-77665001D02*
X132638800Y-77825600D01*
%TO.N,MTDI{slash}IO41{slash}PDM_DATA*%
X122123200Y-69342000D02*
X122478800Y-68986400D01*
X138892462Y-63128401D02*
X139100758Y-62920105D01*
X138174001Y-63128401D02*
X138892462Y-63128401D01*
X122123200Y-70662800D02*
X122123200Y-69342000D01*
%TO.N,MTMS{slash}IO42{slash}PDM_CLK*%
X120853200Y-69494400D02*
X121361200Y-68986400D01*
X120853200Y-70662800D02*
X120853200Y-69494400D01*
X137215402Y-62446801D02*
X137215402Y-62002900D01*
X138174001Y-62728399D02*
X137497000Y-62728399D01*
X137497000Y-62728399D02*
X137215402Y-62446801D01*
%TD*%
M02*
