%TF.GenerationSoftware,KiCad,Pcbnew,7.0.7*%
%TF.CreationDate,2024-10-30T15:59:06-07:00*%
%TF.ProjectId,SensingBoard_rev1.1,53656e73-696e-4674-926f-6172645f7265,rev?*%
%TF.SameCoordinates,Original*%
%TF.FileFunction,Copper,L6,Bot*%
%TF.FilePolarity,Positive*%
%FSLAX46Y46*%
G04 Gerber Fmt 4.6, Leading zero omitted, Abs format (unit mm)*
G04 Created by KiCad (PCBNEW 7.0.7) date 2024-10-30 15:59:06*
%MOMM*%
%LPD*%
G01*
G04 APERTURE LIST*
G04 Aperture macros list*
%AMRoundRect*
0 Rectangle with rounded corners*
0 $1 Rounding radius*
0 $2 $3 $4 $5 $6 $7 $8 $9 X,Y pos of 4 corners*
0 Add a 4 corners polygon primitive as box body*
4,1,4,$2,$3,$4,$5,$6,$7,$8,$9,$2,$3,0*
0 Add four circle primitives for the rounded corners*
1,1,$1+$1,$2,$3*
1,1,$1+$1,$4,$5*
1,1,$1+$1,$6,$7*
1,1,$1+$1,$8,$9*
0 Add four rect primitives between the rounded corners*
20,1,$1+$1,$2,$3,$4,$5,0*
20,1,$1+$1,$4,$5,$6,$7,0*
20,1,$1+$1,$6,$7,$8,$9,0*
20,1,$1+$1,$8,$9,$2,$3,0*%
%AMFreePoly0*
4,1,17,1.053536,1.153536,1.055000,1.150000,1.055000,-0.800000,1.053536,-0.803536,1.050000,-0.805000,-1.050000,-0.805000,-1.053536,-0.803536,-1.055000,-0.800000,-1.055000,0.800000,-1.053536,0.803536,-1.050000,0.805000,-0.255000,0.805000,-0.255000,1.150000,-0.253536,1.153536,-0.250000,1.155000,1.050000,1.155000,1.053536,1.153536,1.053536,1.153536,$1*%
%AMFreePoly1*
4,1,17,0.253536,1.153536,0.255000,1.150000,0.255000,0.805000,1.050000,0.805000,1.053536,0.803536,1.055000,0.800000,1.055000,-0.800000,1.053536,-0.803536,1.050000,-0.805000,-1.050000,-0.805000,-1.053536,-0.803536,-1.055000,-0.800000,-1.055000,1.150000,-1.053536,1.153536,-1.050000,1.155000,0.250000,1.155000,0.253536,1.153536,0.253536,1.153536,$1*%
G04 Aperture macros list end*
%TA.AperFunction,ComponentPad*%
%ADD10C,1.524000*%
%TD*%
%TA.AperFunction,ComponentPad*%
%ADD11C,2.100000*%
%TD*%
%TA.AperFunction,ComponentPad*%
%ADD12C,2.600000*%
%TD*%
%TA.AperFunction,SMDPad,CuDef*%
%ADD13RoundRect,0.250000X-0.475000X0.250000X-0.475000X-0.250000X0.475000X-0.250000X0.475000X0.250000X0*%
%TD*%
%TA.AperFunction,SMDPad,CuDef*%
%ADD14RoundRect,0.140000X0.170000X-0.140000X0.170000X0.140000X-0.170000X0.140000X-0.170000X-0.140000X0*%
%TD*%
%TA.AperFunction,SMDPad,CuDef*%
%ADD15RoundRect,0.100000X0.130000X0.100000X-0.130000X0.100000X-0.130000X-0.100000X0.130000X-0.100000X0*%
%TD*%
%TA.AperFunction,SMDPad,CuDef*%
%ADD16RoundRect,0.140000X0.140000X0.170000X-0.140000X0.170000X-0.140000X-0.170000X0.140000X-0.170000X0*%
%TD*%
%TA.AperFunction,SMDPad,CuDef*%
%ADD17RoundRect,0.140000X-0.140000X-0.170000X0.140000X-0.170000X0.140000X0.170000X-0.140000X0.170000X0*%
%TD*%
%TA.AperFunction,SMDPad,CuDef*%
%ADD18RoundRect,0.140000X-0.170000X0.140000X-0.170000X-0.140000X0.170000X-0.140000X0.170000X0.140000X0*%
%TD*%
%TA.AperFunction,SMDPad,CuDef*%
%ADD19R,0.300000X1.100000*%
%TD*%
%TA.AperFunction,SMDPad,CuDef*%
%ADD20FreePoly0,180.000000*%
%TD*%
%TA.AperFunction,SMDPad,CuDef*%
%ADD21FreePoly1,180.000000*%
%TD*%
%TA.AperFunction,SMDPad,CuDef*%
%ADD22RoundRect,0.250000X0.650000X-1.000000X0.650000X1.000000X-0.650000X1.000000X-0.650000X-1.000000X0*%
%TD*%
%TA.AperFunction,ViaPad*%
%ADD23C,0.550000*%
%TD*%
%TA.AperFunction,Conductor*%
%ADD24C,0.200000*%
%TD*%
G04 APERTURE END LIST*
D10*
%TO.P,J6,1,1*%
%TO.N,MOTOR2_BIN2*%
X124764800Y-49377600D03*
%TO.P,J6,2,2*%
%TO.N,MOTOR2_BIN1*%
X124764800Y-46837600D03*
%TD*%
%TO.P,J7,1,1*%
%TO.N,DRV_FAULT*%
X121666000Y-46824900D03*
%TO.P,J7,2,2*%
%TO.N,DRV_SLEEP*%
X121666000Y-49364900D03*
%TD*%
%TO.P,J9,1,1*%
%TO.N,GND*%
X128879600Y-52730400D03*
%TO.P,J9,2,2*%
%TO.N,VDC*%
X131419600Y-52730400D03*
%TD*%
D11*
%TO.P,J1,S1,SHIELD*%
%TO.N,GND*%
X117882000Y-58318400D03*
D12*
X112522000Y-58318400D03*
D11*
X117882000Y-66958400D03*
D12*
X112522000Y-66958400D03*
%TD*%
D10*
%TO.P,J5,1,1*%
%TO.N,MOTOR1_AIN2*%
X124460000Y-52679600D03*
%TO.P,J5,2,2*%
%TO.N,MOTOR1_AIN1*%
X121920000Y-52679600D03*
%TD*%
D13*
%TO.P,FB1,1*%
%TO.N,+2V8*%
X141579600Y-62514400D03*
%TO.P,FB1,2*%
%TO.N,Net-(FB1-Pad2)*%
X141579600Y-64414400D03*
%TD*%
D14*
%TO.P,C27,1*%
%TO.N,+2V8*%
X118872000Y-73553200D03*
%TO.P,C27,2*%
%TO.N,GND*%
X118872000Y-72593200D03*
%TD*%
D15*
%TO.P,R27,1*%
%TO.N,Net-(R22-Pad1)*%
X143789800Y-63144400D03*
%TO.P,R27,2*%
%TO.N,+3.3V*%
X143149800Y-63144400D03*
%TD*%
D16*
%TO.P,C28,1*%
%TO.N,Net-(D4-K)*%
X118973600Y-69189600D03*
%TO.P,C28,2*%
%TO.N,GND*%
X118013600Y-69189600D03*
%TD*%
D15*
%TO.P,R25,1*%
%TO.N,Net-(J3-Pad8)*%
X120625000Y-69596000D03*
%TO.P,R25,2*%
%TO.N,GND*%
X119985000Y-69596000D03*
%TD*%
%TO.P,R23,1*%
%TO.N,Net-(R22-Pad1)*%
X143814800Y-64800400D03*
%TO.P,R23,2*%
%TO.N,MTDO{slash}IO40{slash}CAM_SDA*%
X143174800Y-64800400D03*
%TD*%
D17*
%TO.P,C1,1*%
%TO.N,CAM_RESET*%
X141020800Y-60990400D03*
%TO.P,C1,2*%
%TO.N,GND*%
X141980800Y-60990400D03*
%TD*%
D18*
%TO.P,C29,1*%
%TO.N,Net-(D4-K)*%
X118872000Y-70358000D03*
%TO.P,C29,2*%
%TO.N,GND*%
X118872000Y-71318000D03*
%TD*%
%TO.P,C2,1*%
%TO.N,+3.3V*%
X143256000Y-73106400D03*
%TO.P,C2,2*%
%TO.N,GND*%
X143256000Y-74066400D03*
%TD*%
%TO.P,C3,1*%
%TO.N,+3.3V*%
X142087600Y-73078400D03*
%TO.P,C3,2*%
%TO.N,GND*%
X142087600Y-74038400D03*
%TD*%
D19*
%TO.P,J3,1,1*%
%TO.N,unconnected-(J3-Pad1)*%
X135799200Y-72288400D03*
%TO.P,J3,2,2*%
%TO.N,GND*%
X135299200Y-72288400D03*
%TO.P,J3,3,3*%
%TO.N,MTDO{slash}IO40{slash}CAM_SDA*%
X134799200Y-72288400D03*
%TO.P,J3,4,4*%
%TO.N,Net-(FB1-Pad2)*%
X134299200Y-72288400D03*
%TO.P,J3,5,5*%
%TO.N,MTCK{slash}IO39{slash}CAM_SCL*%
X133799200Y-72288400D03*
%TO.P,J3,6,6*%
%TO.N,CAM_RESET*%
X133299200Y-72288400D03*
%TO.P,J3,7,7*%
%TO.N,IO38{slash}DVP_VSYNC*%
X132799200Y-72288400D03*
%TO.P,J3,8,8*%
%TO.N,Net-(J3-Pad8)*%
X132299200Y-72288400D03*
%TO.P,J3,9,9*%
%TO.N,IO47{slash}DVP_HREF*%
X131799200Y-72288400D03*
%TO.P,J3,10,10*%
%TO.N,+1V8*%
X131299200Y-72288400D03*
%TO.P,J3,11,11*%
%TO.N,+2V8*%
X130799200Y-72288400D03*
%TO.P,J3,12,12*%
%TO.N,IO48{slash}DVP_Y9*%
X130299200Y-72288400D03*
%TO.P,J3,13,13*%
%TO.N,IO10{slash}XMCLK*%
X129799200Y-72288400D03*
%TO.P,J3,14,14*%
%TO.N,IO11{slash}DVP_Y8*%
X129299200Y-72288400D03*
%TO.P,J3,15,15*%
%TO.N,GND*%
X128799200Y-72288400D03*
%TO.P,J3,16,16*%
%TO.N,IO12{slash}DVP_Y7*%
X128299200Y-72288400D03*
%TO.P,J3,17,17*%
%TO.N,IO13{slash}DVP_PCLK*%
X127799200Y-72288400D03*
%TO.P,J3,18,18*%
%TO.N,IO14{slash}DVP_Y6*%
X127299200Y-72288400D03*
%TO.P,J3,19,19*%
%TO.N,IO15{slash}DVP_Y2*%
X126799200Y-72288400D03*
%TO.P,J3,20,20*%
%TO.N,IO16{slash}DVP_Y5*%
X126299200Y-72288400D03*
%TO.P,J3,21,21*%
%TO.N,IO17{slash}DVP_Y3*%
X125799200Y-72288400D03*
%TO.P,J3,22,22*%
%TO.N,IO18{slash}DVP_Y4*%
X125299200Y-72288400D03*
%TO.P,J3,23,23*%
%TO.N,GND*%
X124799200Y-72288400D03*
%TO.P,J3,24,24*%
%TO.N,Net-(D4-K)*%
X124299200Y-72288400D03*
D20*
%TO.P,J3,S1*%
%TO.N,N/C*%
X138049200Y-73238400D03*
D21*
%TO.P,J3,S2*%
X122049200Y-73238400D03*
%TD*%
D22*
%TO.P,D4,1,K*%
%TO.N,Net-(D4-K)*%
X142443200Y-70986400D03*
%TO.P,D4,2,A*%
%TO.N,+2V8*%
X142443200Y-66986400D03*
%TD*%
D15*
%TO.P,R22,1*%
%TO.N,Net-(R22-Pad1)*%
X143814800Y-63957200D03*
%TO.P,R22,2*%
%TO.N,+2V8*%
X143174800Y-63957200D03*
%TD*%
%TO.P,R24,1*%
%TO.N,+3.3V*%
X141833600Y-59994800D03*
%TO.P,R24,2*%
%TO.N,CAM_RESET*%
X141193600Y-59994800D03*
%TD*%
%TO.P,R28,1*%
%TO.N,Net-(R22-Pad1)*%
X142672200Y-75082400D03*
%TO.P,R28,2*%
%TO.N,MTCK{slash}IO39{slash}CAM_SCL*%
X142032200Y-75082400D03*
%TD*%
D23*
%TO.N,Net-(U2-XIN32)*%
X140496118Y-67595586D03*
X144678400Y-69427900D03*
%TO.N,+5V*%
X116294500Y-61382635D03*
X116136972Y-64112900D03*
%TO.N,DRV_SLEEP*%
X137974396Y-68511505D03*
%TO.N,DRV_FAULT*%
X139496800Y-67614800D03*
%TO.N,+1V8*%
X131599700Y-73710800D03*
X117348000Y-52984400D03*
%TO.N,+2V8*%
X139649200Y-47193200D03*
X130914831Y-71326283D03*
X143713200Y-60350400D03*
X141244669Y-67708302D03*
%TO.N,Net-(D4-K)*%
X140882921Y-71613813D03*
X123647200Y-72644000D03*
%TO.N,IO38{slash}DVP_VSYNC*%
X139039600Y-64429900D03*
X131908935Y-68459735D03*
%TO.N,IO47{slash}DVP_HREF*%
X135534400Y-64668400D03*
X131927697Y-71138096D03*
%TO.N,IO48{slash}DVP_Y9*%
X130518100Y-70307200D03*
X134975600Y-66548000D03*
%TO.N,IO10{slash}XMCLK*%
X128117600Y-58028800D03*
%TO.N,IO11{slash}DVP_Y8*%
X129619678Y-58899122D03*
%TO.N,IO12{slash}DVP_Y7*%
X128724700Y-71221600D03*
X128701732Y-59294572D03*
%TO.N,IO13{slash}DVP_PCLK*%
X128724700Y-70408800D03*
X128823958Y-60406042D03*
%TO.N,BNO_INT*%
X137286833Y-68808767D03*
X145796000Y-66954400D03*
%TO.N,USB_DP*%
X120345200Y-62738000D03*
X128431283Y-64253555D03*
%TO.N,USB_DN*%
X119430800Y-63347600D03*
X120497600Y-63906400D03*
X116294097Y-62382747D03*
X128431283Y-63614052D03*
%TO.N,IO14{slash}DVP_Y6*%
X132181600Y-60706000D03*
X128760001Y-69225233D03*
%TO.N,IO15{slash}DVP_Y2*%
X132326990Y-61328757D03*
X127355600Y-70154800D03*
%TO.N,IO16{slash}DVP_Y5*%
X132284525Y-62028125D03*
%TO.N,IO17{slash}DVP_Y3*%
X132147918Y-62792809D03*
X125873961Y-68523514D03*
%TO.N,IO18{slash}DVP_Y4*%
X132130800Y-63441900D03*
X124874884Y-68552681D03*
%TO.N,CHIP_EN*%
X126238000Y-77774800D03*
X136194887Y-57718139D03*
%TO.N,SPID*%
X134355826Y-64576974D03*
X130454400Y-75809300D03*
%TO.N,SPIQ*%
X132527900Y-67259200D03*
X133248400Y-64770000D03*
%TO.N,GND*%
X115062000Y-52070000D03*
X121869200Y-64973200D03*
X136122501Y-55664292D03*
X121920000Y-57962800D03*
X128371600Y-79908400D03*
X118465600Y-48615600D03*
X148844000Y-66649600D03*
X118110000Y-72034400D03*
X140004800Y-66103900D03*
X141028693Y-74352978D03*
X136245600Y-73406000D03*
X136499600Y-78892400D03*
X119923979Y-70420735D03*
X146964400Y-65227200D03*
X119278400Y-53898800D03*
X127355600Y-73456800D03*
X122021600Y-76606400D03*
X137414000Y-49936400D03*
X131292600Y-70069800D03*
X139700000Y-48869600D03*
X134721600Y-62128400D03*
X145237200Y-73050400D03*
X145237200Y-63550800D03*
X116992400Y-69646800D03*
X128828800Y-62382400D03*
X138042436Y-76102776D03*
X139903200Y-70866000D03*
X125171200Y-66311183D03*
X124968000Y-58216800D03*
X134416800Y-48768000D03*
X145288000Y-68580000D03*
X130810000Y-44348400D03*
X127254000Y-48818800D03*
X142480700Y-56438800D03*
X139242800Y-54051200D03*
%TO.N,+3.3V*%
X122377200Y-66294000D03*
X128066800Y-65278000D03*
X147116800Y-61112400D03*
X140106400Y-63578800D03*
X132384800Y-81178400D03*
X141481197Y-56438800D03*
X140970000Y-73355200D03*
X128524000Y-80924400D03*
X136369675Y-54417709D03*
X136519984Y-72708528D03*
X126565800Y-58216800D03*
X127457200Y-47752000D03*
X121107200Y-76606400D03*
X137793500Y-70223700D03*
X130030601Y-61599131D03*
X140328058Y-59352858D03*
X137210800Y-76657200D03*
%TO.N,RX_D7*%
X139085064Y-61608223D03*
X128171085Y-61528315D03*
%TO.N,TX_D6*%
X139722764Y-61560242D03*
X125831600Y-57759600D03*
%TO.N,MTDO{slash}IO40{slash}CAM_SDA*%
X142778620Y-64566316D03*
X123228303Y-68986400D03*
X135435433Y-73962167D03*
X137312400Y-63550800D03*
%TO.N,MTCK{slash}IO39{slash}CAM_SCL*%
X137280918Y-64331785D03*
X133096000Y-73456800D03*
X124124268Y-69024617D03*
%TO.N,D3{slash}A3*%
X132597902Y-57628415D03*
X133858000Y-59619598D03*
%TO.N,D2{slash}A2*%
X132556500Y-56591200D03*
X135026400Y-59588400D03*
%TO.N,GPIO0*%
X132638800Y-77825600D03*
X136601200Y-59542901D03*
%TO.N,MTDI{slash}IO41{slash}PDM_DATA*%
X122478800Y-68986400D03*
X139100758Y-62920105D03*
%TO.N,MTMS{slash}IO42{slash}PDM_CLK*%
X121361200Y-68986400D03*
X137215402Y-62002900D03*
%TD*%
D24*
%TO.N,+5V*%
X116136972Y-64112900D02*
X115569097Y-63545025D01*
X115569097Y-61976903D02*
X116163365Y-61382635D01*
X116163365Y-61382635D02*
X116294500Y-61382635D01*
X115569097Y-63545025D02*
X115569097Y-61976903D01*
%TO.N,+1V8*%
X131299200Y-72288400D02*
X131299200Y-73410300D01*
X131299200Y-73410300D02*
X131599700Y-73710800D01*
%TO.N,+2V8*%
X141427200Y-47193200D02*
X143205200Y-48971200D01*
X143205200Y-48971200D02*
X143205200Y-60655200D01*
X139649200Y-47193200D02*
X141427200Y-47193200D01*
X130799200Y-72288400D02*
X130799200Y-71441914D01*
X143205200Y-60655200D02*
X143205200Y-61823600D01*
X130331200Y-74726800D02*
X130799200Y-74258800D01*
X141966571Y-66986400D02*
X141244669Y-67708302D01*
X142514400Y-62514400D02*
X141579600Y-62514400D01*
X143205200Y-60655200D02*
X143408400Y-60655200D01*
X120045600Y-74726800D02*
X130331200Y-74726800D01*
X143022400Y-63957200D02*
X141579600Y-62514400D01*
X130799200Y-74258800D02*
X130799200Y-72288400D01*
X142443200Y-66986400D02*
X141966571Y-66986400D01*
X118872000Y-73553200D02*
X120045600Y-74726800D01*
X143205200Y-61823600D02*
X142514400Y-62514400D01*
X130799200Y-71441914D02*
X130914831Y-71326283D01*
X143408400Y-60655200D02*
X143713200Y-60350400D01*
X143174800Y-63957200D02*
X143022400Y-63957200D01*
%TO.N,Net-(D4-K)*%
X119482000Y-71628400D02*
X119482000Y-70968000D01*
X119482000Y-70968000D02*
X118872000Y-70358000D01*
X142309600Y-70986400D02*
X142290800Y-70967600D01*
X118973600Y-70256400D02*
X118872000Y-70358000D01*
X124299200Y-72288400D02*
X123943600Y-71932800D01*
X142290800Y-70967600D02*
X141644587Y-71613813D01*
X123943600Y-71932800D02*
X119786400Y-71932800D01*
X118973600Y-69189600D02*
X118973600Y-70256400D01*
X141644587Y-71613813D02*
X140882921Y-71613813D01*
X142443200Y-70986400D02*
X142309600Y-70986400D01*
X119786400Y-71932800D02*
X119482000Y-71628400D01*
X118978800Y-69184400D02*
X118973600Y-69189600D01*
X124002800Y-72288400D02*
X123647200Y-72644000D01*
X124299200Y-72288400D02*
X124002800Y-72288400D01*
%TO.N,Net-(FB1-Pad2)*%
X134299200Y-66005200D02*
X134299200Y-72288400D01*
X134770487Y-65533913D02*
X134299200Y-66005200D01*
X141579600Y-64414400D02*
X140989600Y-65004400D01*
X140989600Y-65004400D02*
X137173988Y-65004400D01*
X136644475Y-65533913D02*
X134770487Y-65533913D01*
X137173988Y-65004400D02*
X136644475Y-65533913D01*
%TO.N,CAM_RESET*%
X133299200Y-72288400D02*
X133299200Y-67217327D01*
X134569573Y-63093600D02*
X137261973Y-60401200D01*
X133299200Y-67217327D02*
X132435600Y-66353727D01*
X137261973Y-60401200D02*
X140431600Y-60401200D01*
X133756400Y-63093600D02*
X134569573Y-63093600D01*
X132435600Y-66353727D02*
X132435600Y-64414400D01*
X141193600Y-59994800D02*
X141193600Y-60817600D01*
X141193600Y-60817600D02*
X141020800Y-60990400D01*
X140431600Y-60401200D02*
X141020800Y-60990400D01*
X132435600Y-64414400D02*
X133756400Y-63093600D01*
%TO.N,IO38{slash}DVP_VSYNC*%
X132799200Y-69350000D02*
X132799200Y-72288400D01*
X131908935Y-68459735D02*
X132799200Y-69350000D01*
%TO.N,Net-(J3-Pad8)*%
X119621346Y-75234800D02*
X116140000Y-71753454D01*
X132299200Y-74456800D02*
X131521200Y-75234800D01*
X118052315Y-68529200D02*
X118426915Y-68154600D01*
X120625000Y-69266200D02*
X120625000Y-69596000D01*
X119513400Y-68154600D02*
X120625000Y-69266200D01*
X116140000Y-71753454D02*
X116140000Y-68594850D01*
X132299200Y-72288400D02*
X132299200Y-74456800D01*
X118426915Y-68154600D02*
X119513400Y-68154600D01*
X116205650Y-68529200D02*
X118052315Y-68529200D01*
X131521200Y-75234800D02*
X119621346Y-75234800D01*
X116140000Y-68594850D02*
X116205650Y-68529200D01*
%TO.N,IO47{slash}DVP_HREF*%
X131799200Y-71266593D02*
X131927697Y-71138096D01*
X131799200Y-72288400D02*
X131799200Y-71266593D01*
%TO.N,IO48{slash}DVP_Y9*%
X130299200Y-70526100D02*
X130518100Y-70307200D01*
X130299200Y-72288400D02*
X130299200Y-70526100D01*
%TO.N,IO10{slash}XMCLK*%
X129799200Y-69489200D02*
X129799200Y-72288400D01*
X128117600Y-58028800D02*
X130622000Y-58028800D01*
X131064000Y-58470800D02*
X131064000Y-68224400D01*
X131064000Y-68224400D02*
X129799200Y-69489200D01*
X130622000Y-58028800D02*
X131064000Y-58470800D01*
%TO.N,IO11{slash}DVP_Y8*%
X130664000Y-68058714D02*
X130664000Y-59943444D01*
X129299200Y-69423514D02*
X130664000Y-68058714D01*
X130664000Y-59943444D02*
X129619678Y-58899122D01*
X129299200Y-72288400D02*
X129299200Y-69423514D01*
%TO.N,IO12{slash}DVP_Y7*%
X128299200Y-72288400D02*
X128299200Y-71647100D01*
X128299200Y-71647100D02*
X128724700Y-71221600D01*
%TO.N,IO13{slash}DVP_PCLK*%
X127799200Y-72288400D02*
X127799200Y-71334300D01*
X127799200Y-71334300D02*
X128724700Y-70408800D01*
%TO.N,USB_DN*%
X118465947Y-62382747D02*
X116294097Y-62382747D01*
X119430800Y-63347600D02*
X118465947Y-62382747D01*
%TO.N,IO14{slash}DVP_Y6*%
X127299200Y-71125600D02*
X127299200Y-72288400D01*
X128760001Y-69225233D02*
X128149700Y-69835534D01*
X128149700Y-70275100D02*
X127299200Y-71125600D01*
X128149700Y-69835534D02*
X128149700Y-70275100D01*
%TO.N,IO15{slash}DVP_Y2*%
X126799200Y-70711200D02*
X127355600Y-70154800D01*
X126799200Y-72288400D02*
X126799200Y-70711200D01*
%TO.N,IO16{slash}DVP_Y5*%
X128895783Y-63262183D02*
X128895783Y-66735017D01*
X132284525Y-62028125D02*
X131880061Y-62028125D01*
X126288800Y-70307200D02*
X126299200Y-70317600D01*
X127864600Y-57453800D02*
X127430300Y-57888100D01*
X127430300Y-61796700D02*
X128895783Y-63262183D01*
X131606600Y-61754664D02*
X131606600Y-58403800D01*
X127406400Y-68224400D02*
X127406400Y-69189600D01*
X130656600Y-57453800D02*
X127864600Y-57453800D01*
X131880061Y-62028125D02*
X131606600Y-61754664D01*
X127406400Y-69189600D02*
X126288800Y-70307200D01*
X127430300Y-57888100D02*
X127430300Y-61796700D01*
X126299200Y-70317600D02*
X126299200Y-72288400D01*
X131606600Y-58403800D02*
X130656600Y-57453800D01*
X128895783Y-66735017D02*
X127406400Y-68224400D01*
%TO.N,IO17{slash}DVP_Y3*%
X125831600Y-72256000D02*
X125831600Y-68565875D01*
X130816886Y-57048400D02*
X133045200Y-59276714D01*
X133045200Y-62279153D02*
X132791200Y-62533153D01*
X133045200Y-59276714D02*
X133045200Y-62279153D01*
X125831600Y-68565875D02*
X125873961Y-68523514D01*
X127704314Y-57048400D02*
X130816886Y-57048400D01*
X125799200Y-72288400D02*
X125831600Y-72256000D01*
X127030300Y-57722414D02*
X127704314Y-57048400D01*
X132147918Y-62792809D02*
X132532898Y-62792809D01*
X132532898Y-62792809D02*
X132791877Y-62533830D01*
X127030300Y-67367175D02*
X127030300Y-57722414D01*
X125873961Y-68523514D02*
X127030300Y-67367175D01*
%TO.N,IO18{slash}DVP_Y4*%
X125299200Y-68976997D02*
X124874884Y-68552681D01*
X125299200Y-72288400D02*
X125299200Y-68976997D01*
%TO.N,GND*%
X118110000Y-72034400D02*
X118155600Y-72034400D01*
X143256000Y-74066400D02*
X142115600Y-74066400D01*
X118155600Y-72034400D02*
X118872000Y-71318000D01*
X119985000Y-69596000D02*
X119985000Y-70359714D01*
X142087600Y-74038400D02*
X141343271Y-74038400D01*
X119985000Y-70359714D02*
X119923979Y-70420735D01*
X128480800Y-73456800D02*
X128799200Y-73138400D01*
X118858800Y-72606400D02*
X118872000Y-72593200D01*
X127355600Y-73456800D02*
X125117600Y-73456800D01*
X135299200Y-73088400D02*
X135299200Y-72288400D01*
X136245600Y-73406000D02*
X135616800Y-73406000D01*
X118013600Y-69133600D02*
X118013600Y-69189600D01*
X117449600Y-69189600D02*
X118013600Y-69189600D01*
X116992400Y-69646800D02*
X117449600Y-69189600D01*
X125117600Y-73456800D02*
X124799200Y-73138400D01*
X124799200Y-73138400D02*
X124799200Y-72288400D01*
X128799200Y-73138400D02*
X128799200Y-72288400D01*
X142115600Y-74066400D02*
X142087600Y-74038400D01*
X142480700Y-60490500D02*
X142480700Y-56438800D01*
X141343271Y-74038400D02*
X141028693Y-74352978D01*
X141980800Y-60990400D02*
X142480700Y-60490500D01*
X118110000Y-72034400D02*
X118313200Y-72034400D01*
X127355600Y-73456800D02*
X128480800Y-73456800D01*
X118313200Y-72034400D02*
X118872000Y-72593200D01*
X135616800Y-73406000D02*
X135299200Y-73088400D01*
%TO.N,+3.3V*%
X142115600Y-73106400D02*
X142087600Y-73078400D01*
X147116800Y-61112400D02*
X145026115Y-61112400D01*
X143256000Y-73106400D02*
X142115600Y-73106400D01*
X143149800Y-62988715D02*
X143149800Y-63144400D01*
X142087600Y-73078400D02*
X141246800Y-73078400D01*
X141755700Y-56713303D02*
X141481197Y-56438800D01*
X141755700Y-59916900D02*
X141755700Y-56713303D01*
X141833600Y-59994800D02*
X141755700Y-59916900D01*
X145026115Y-61112400D02*
X143149800Y-62988715D01*
X141246800Y-73078400D02*
X140970000Y-73355200D01*
%TO.N,MTDO{slash}IO40{slash}CAM_SDA*%
X135940800Y-70396800D02*
X134799200Y-71538400D01*
X134799200Y-71538400D02*
X134799200Y-72288400D01*
X135940800Y-66803274D02*
X135940800Y-70396800D01*
X143012704Y-64800400D02*
X142778620Y-64566316D01*
X134799200Y-73325934D02*
X135435433Y-73962167D01*
X142570800Y-65404400D02*
X137339674Y-65404400D01*
X134799200Y-72288400D02*
X134799200Y-73325934D01*
X143174800Y-64800400D02*
X143012704Y-64800400D01*
X143174800Y-64800400D02*
X142570800Y-65404400D01*
X137339674Y-65404400D02*
X135940800Y-66803274D01*
%TO.N,MTCK{slash}IO39{slash}CAM_SCL*%
X135743200Y-75082400D02*
X133799200Y-73138400D01*
X133799200Y-72288400D02*
X133799200Y-73138400D01*
X134604802Y-65133913D02*
X136478790Y-65133913D01*
X142032200Y-75082400D02*
X135743200Y-75082400D01*
X136478790Y-65133913D02*
X137280918Y-64331785D01*
X133799200Y-72288400D02*
X133799200Y-65939515D01*
X133414400Y-73138400D02*
X133096000Y-73456800D01*
X133799200Y-73138400D02*
X133414400Y-73138400D01*
X133799200Y-65939515D02*
X134604802Y-65133913D01*
%TO.N,D3{slash}A3*%
X132597902Y-57628415D02*
X133422015Y-57628415D01*
X133422015Y-57628415D02*
X133858000Y-58064400D01*
X133858000Y-58064400D02*
X133858000Y-59619598D01*
%TO.N,D2{slash}A2*%
X132556500Y-56591200D02*
X134467600Y-56591200D01*
X134467600Y-56591200D02*
X135026400Y-57150000D01*
X135026400Y-57150000D02*
X135026400Y-59588400D01*
%TO.N,Net-(R22-Pad1)*%
X143814800Y-63957200D02*
X143814800Y-63169400D01*
X143814800Y-64800400D02*
X143891000Y-64876600D01*
X143814800Y-63169400D02*
X143789800Y-63144400D01*
X143891000Y-64876600D02*
X143891000Y-74399009D01*
X143891000Y-74399009D02*
X143207609Y-75082400D01*
X143814800Y-63957200D02*
X143814800Y-64800400D01*
X143207609Y-75082400D02*
X142672200Y-75082400D01*
%TD*%
M02*
