%TF.GenerationSoftware,KiCad,Pcbnew,7.0.7*%
%TF.CreationDate,2024-10-30T15:59:06-07:00*%
%TF.ProjectId,SensingBoard_rev1.1,53656e73-696e-4674-926f-6172645f7265,rev?*%
%TF.SameCoordinates,Original*%
%TF.FileFunction,Soldermask,Bot*%
%TF.FilePolarity,Negative*%
%FSLAX46Y46*%
G04 Gerber Fmt 4.6, Leading zero omitted, Abs format (unit mm)*
G04 Created by KiCad (PCBNEW 7.0.7) date 2024-10-30 15:59:06*
%MOMM*%
%LPD*%
G01*
G04 APERTURE LIST*
G04 Aperture macros list*
%AMRoundRect*
0 Rectangle with rounded corners*
0 $1 Rounding radius*
0 $2 $3 $4 $5 $6 $7 $8 $9 X,Y pos of 4 corners*
0 Add a 4 corners polygon primitive as box body*
4,1,4,$2,$3,$4,$5,$6,$7,$8,$9,$2,$3,0*
0 Add four circle primitives for the rounded corners*
1,1,$1+$1,$2,$3*
1,1,$1+$1,$4,$5*
1,1,$1+$1,$6,$7*
1,1,$1+$1,$8,$9*
0 Add four rect primitives between the rounded corners*
20,1,$1+$1,$2,$3,$4,$5,0*
20,1,$1+$1,$4,$5,$6,$7,0*
20,1,$1+$1,$6,$7,$8,$9,0*
20,1,$1+$1,$8,$9,$2,$3,0*%
G04 Aperture macros list end*
%ADD10C,0.010000*%
%ADD11C,1.524000*%
%ADD12C,2.100000*%
%ADD13C,2.600000*%
%ADD14RoundRect,0.250000X-0.475000X0.250000X-0.475000X-0.250000X0.475000X-0.250000X0.475000X0.250000X0*%
%ADD15RoundRect,0.140000X0.170000X-0.140000X0.170000X0.140000X-0.170000X0.140000X-0.170000X-0.140000X0*%
%ADD16RoundRect,0.100000X0.130000X0.100000X-0.130000X0.100000X-0.130000X-0.100000X0.130000X-0.100000X0*%
%ADD17RoundRect,0.140000X0.140000X0.170000X-0.140000X0.170000X-0.140000X-0.170000X0.140000X-0.170000X0*%
%ADD18RoundRect,0.140000X-0.140000X-0.170000X0.140000X-0.170000X0.140000X0.170000X-0.140000X0.170000X0*%
%ADD19RoundRect,0.140000X-0.170000X0.140000X-0.170000X-0.140000X0.170000X-0.140000X0.170000X0.140000X0*%
%ADD20RoundRect,0.102000X0.150000X0.550000X-0.150000X0.550000X-0.150000X-0.550000X0.150000X-0.550000X0*%
%ADD21RoundRect,0.250000X0.650000X-1.000000X0.650000X1.000000X-0.650000X1.000000X-0.650000X-1.000000X0*%
G04 APERTURE END LIST*
%TO.C,J3*%
D10*
X139199200Y-74138400D02*
X138399200Y-74138400D01*
X138399200Y-74488400D01*
X136899200Y-74488400D01*
X136899200Y-72338400D01*
X139199200Y-72338400D01*
X139199200Y-74138400D01*
G36*
X139199200Y-74138400D02*
G01*
X138399200Y-74138400D01*
X138399200Y-74488400D01*
X136899200Y-74488400D01*
X136899200Y-72338400D01*
X139199200Y-72338400D01*
X139199200Y-74138400D01*
G37*
X123199200Y-74488400D02*
X121699200Y-74488400D01*
X121699200Y-74138400D01*
X120899200Y-74138400D01*
X120899200Y-72338400D01*
X123199200Y-72338400D01*
X123199200Y-74488400D01*
G36*
X123199200Y-74488400D02*
G01*
X121699200Y-74488400D01*
X121699200Y-74138400D01*
X120899200Y-74138400D01*
X120899200Y-72338400D01*
X123199200Y-72338400D01*
X123199200Y-74488400D01*
G37*
%TD*%
D11*
%TO.C,J6*%
X124764800Y-49377600D03*
X124764800Y-46837600D03*
%TD*%
%TO.C,J7*%
X121666000Y-46824900D03*
X121666000Y-49364900D03*
%TD*%
%TO.C,J9*%
X128879600Y-52730400D03*
X131419600Y-52730400D03*
%TD*%
D12*
%TO.C,J1*%
X117882000Y-58318400D03*
D13*
X112522000Y-58318400D03*
D12*
X117882000Y-66958400D03*
D13*
X112522000Y-66958400D03*
%TD*%
D11*
%TO.C,J5*%
X124460000Y-52679600D03*
X121920000Y-52679600D03*
%TD*%
D14*
%TO.C,FB1*%
X141579600Y-62514400D03*
X141579600Y-64414400D03*
%TD*%
D15*
%TO.C,C27*%
X118872000Y-73553200D03*
X118872000Y-72593200D03*
%TD*%
D16*
%TO.C,R27*%
X143789800Y-63144400D03*
X143149800Y-63144400D03*
%TD*%
D17*
%TO.C,C28*%
X118973600Y-69189600D03*
X118013600Y-69189600D03*
%TD*%
D16*
%TO.C,R25*%
X120625000Y-69596000D03*
X119985000Y-69596000D03*
%TD*%
%TO.C,R23*%
X143814800Y-64800400D03*
X143174800Y-64800400D03*
%TD*%
D18*
%TO.C,C1*%
X141020800Y-60990400D03*
X141980800Y-60990400D03*
%TD*%
D19*
%TO.C,C29*%
X118872000Y-70358000D03*
X118872000Y-71318000D03*
%TD*%
%TO.C,C2*%
X143256000Y-73106400D03*
X143256000Y-74066400D03*
%TD*%
%TO.C,C3*%
X142087600Y-73078400D03*
X142087600Y-74038400D03*
%TD*%
D20*
%TO.C,J3*%
X135799200Y-72288400D03*
X135299200Y-72288400D03*
X134799200Y-72288400D03*
X134299200Y-72288400D03*
X133799200Y-72288400D03*
X133299200Y-72288400D03*
X132799200Y-72288400D03*
X132299200Y-72288400D03*
X131799200Y-72288400D03*
X131299200Y-72288400D03*
X130799200Y-72288400D03*
X130299200Y-72288400D03*
X129799200Y-72288400D03*
X129299200Y-72288400D03*
X128799200Y-72288400D03*
X128299200Y-72288400D03*
X127799200Y-72288400D03*
X127299200Y-72288400D03*
X126799200Y-72288400D03*
X126299200Y-72288400D03*
X125799200Y-72288400D03*
X125299200Y-72288400D03*
X124799200Y-72288400D03*
X124299200Y-72288400D03*
%TD*%
D21*
%TO.C,D4*%
X142443200Y-70986400D03*
X142443200Y-66986400D03*
%TD*%
D16*
%TO.C,R22*%
X143814800Y-63957200D03*
X143174800Y-63957200D03*
%TD*%
%TO.C,R24*%
X141833600Y-59994800D03*
X141193600Y-59994800D03*
%TD*%
%TO.C,R28*%
X142672200Y-75082400D03*
X142032200Y-75082400D03*
%TD*%
M02*
