%TF.GenerationSoftware,KiCad,Pcbnew,9.0.5*%
%TF.CreationDate,2026-02-09T14:13:06-08:00*%
%TF.ProjectId,Vine_Basestation_Cable_Reeling,56696e65-5f42-4617-9365-73746174696f,rev?*%
%TF.SameCoordinates,Original*%
%TF.FileFunction,Legend,Bot*%
%TF.FilePolarity,Positive*%
%FSLAX46Y46*%
G04 Gerber Fmt 4.6, Leading zero omitted, Abs format (unit mm)*
G04 Created by KiCad (PCBNEW 9.0.5) date 2026-02-09 14:13:06*
%MOMM*%
%LPD*%
G01*
G04 APERTURE LIST*
%ADD10C,0.152400*%
%ADD11C,0.150000*%
%ADD12C,0.120000*%
G04 APERTURE END LIST*
D10*
X152569165Y-110064139D02*
X152907832Y-110064139D01*
X152907832Y-110596329D02*
X152907832Y-109580329D01*
X152907832Y-109580329D02*
X152424022Y-109580329D01*
X152036975Y-110596329D02*
X152036975Y-109918996D01*
X152036975Y-110112520D02*
X151988594Y-110015758D01*
X151988594Y-110015758D02*
X151940213Y-109967377D01*
X151940213Y-109967377D02*
X151843451Y-109918996D01*
X151843451Y-109918996D02*
X151746689Y-109918996D01*
X151020975Y-110547949D02*
X151117737Y-110596329D01*
X151117737Y-110596329D02*
X151311261Y-110596329D01*
X151311261Y-110596329D02*
X151408023Y-110547949D01*
X151408023Y-110547949D02*
X151456404Y-110451187D01*
X151456404Y-110451187D02*
X151456404Y-110064139D01*
X151456404Y-110064139D02*
X151408023Y-109967377D01*
X151408023Y-109967377D02*
X151311261Y-109918996D01*
X151311261Y-109918996D02*
X151117737Y-109918996D01*
X151117737Y-109918996D02*
X151020975Y-109967377D01*
X151020975Y-109967377D02*
X150972594Y-110064139D01*
X150972594Y-110064139D02*
X150972594Y-110160901D01*
X150972594Y-110160901D02*
X151456404Y-110257663D01*
X150150118Y-110547949D02*
X150246880Y-110596329D01*
X150246880Y-110596329D02*
X150440404Y-110596329D01*
X150440404Y-110596329D02*
X150537166Y-110547949D01*
X150537166Y-110547949D02*
X150585547Y-110451187D01*
X150585547Y-110451187D02*
X150585547Y-110064139D01*
X150585547Y-110064139D02*
X150537166Y-109967377D01*
X150537166Y-109967377D02*
X150440404Y-109918996D01*
X150440404Y-109918996D02*
X150246880Y-109918996D01*
X150246880Y-109918996D02*
X150150118Y-109967377D01*
X150150118Y-109967377D02*
X150101737Y-110064139D01*
X150101737Y-110064139D02*
X150101737Y-110160901D01*
X150101737Y-110160901D02*
X150585547Y-110257663D01*
X148940595Y-110547949D02*
X148795452Y-110596329D01*
X148795452Y-110596329D02*
X148553547Y-110596329D01*
X148553547Y-110596329D02*
X148456785Y-110547949D01*
X148456785Y-110547949D02*
X148408404Y-110499568D01*
X148408404Y-110499568D02*
X148360023Y-110402806D01*
X148360023Y-110402806D02*
X148360023Y-110306044D01*
X148360023Y-110306044D02*
X148408404Y-110209282D01*
X148408404Y-110209282D02*
X148456785Y-110160901D01*
X148456785Y-110160901D02*
X148553547Y-110112520D01*
X148553547Y-110112520D02*
X148747071Y-110064139D01*
X148747071Y-110064139D02*
X148843833Y-110015758D01*
X148843833Y-110015758D02*
X148892214Y-109967377D01*
X148892214Y-109967377D02*
X148940595Y-109870615D01*
X148940595Y-109870615D02*
X148940595Y-109773853D01*
X148940595Y-109773853D02*
X148892214Y-109677091D01*
X148892214Y-109677091D02*
X148843833Y-109628710D01*
X148843833Y-109628710D02*
X148747071Y-109580329D01*
X148747071Y-109580329D02*
X148505166Y-109580329D01*
X148505166Y-109580329D02*
X148360023Y-109628710D01*
X147924595Y-109918996D02*
X147924595Y-110934996D01*
X147924595Y-109967377D02*
X147827833Y-109918996D01*
X147827833Y-109918996D02*
X147634309Y-109918996D01*
X147634309Y-109918996D02*
X147537547Y-109967377D01*
X147537547Y-109967377D02*
X147489166Y-110015758D01*
X147489166Y-110015758D02*
X147440785Y-110112520D01*
X147440785Y-110112520D02*
X147440785Y-110402806D01*
X147440785Y-110402806D02*
X147489166Y-110499568D01*
X147489166Y-110499568D02*
X147537547Y-110547949D01*
X147537547Y-110547949D02*
X147634309Y-110596329D01*
X147634309Y-110596329D02*
X147827833Y-110596329D01*
X147827833Y-110596329D02*
X147924595Y-110547949D01*
X146569928Y-110596329D02*
X146569928Y-110064139D01*
X146569928Y-110064139D02*
X146618309Y-109967377D01*
X146618309Y-109967377D02*
X146715071Y-109918996D01*
X146715071Y-109918996D02*
X146908595Y-109918996D01*
X146908595Y-109918996D02*
X147005357Y-109967377D01*
X146569928Y-110547949D02*
X146666690Y-110596329D01*
X146666690Y-110596329D02*
X146908595Y-110596329D01*
X146908595Y-110596329D02*
X147005357Y-110547949D01*
X147005357Y-110547949D02*
X147053738Y-110451187D01*
X147053738Y-110451187D02*
X147053738Y-110354425D01*
X147053738Y-110354425D02*
X147005357Y-110257663D01*
X147005357Y-110257663D02*
X146908595Y-110209282D01*
X146908595Y-110209282D02*
X146666690Y-110209282D01*
X146666690Y-110209282D02*
X146569928Y-110160901D01*
X145650690Y-110547949D02*
X145747452Y-110596329D01*
X145747452Y-110596329D02*
X145940976Y-110596329D01*
X145940976Y-110596329D02*
X146037738Y-110547949D01*
X146037738Y-110547949D02*
X146086119Y-110499568D01*
X146086119Y-110499568D02*
X146134500Y-110402806D01*
X146134500Y-110402806D02*
X146134500Y-110112520D01*
X146134500Y-110112520D02*
X146086119Y-110015758D01*
X146086119Y-110015758D02*
X146037738Y-109967377D01*
X146037738Y-109967377D02*
X145940976Y-109918996D01*
X145940976Y-109918996D02*
X145747452Y-109918996D01*
X145747452Y-109918996D02*
X145650690Y-109967377D01*
X144828214Y-110547949D02*
X144924976Y-110596329D01*
X144924976Y-110596329D02*
X145118500Y-110596329D01*
X145118500Y-110596329D02*
X145215262Y-110547949D01*
X145215262Y-110547949D02*
X145263643Y-110451187D01*
X145263643Y-110451187D02*
X145263643Y-110064139D01*
X145263643Y-110064139D02*
X145215262Y-109967377D01*
X145215262Y-109967377D02*
X145118500Y-109918996D01*
X145118500Y-109918996D02*
X144924976Y-109918996D01*
X144924976Y-109918996D02*
X144828214Y-109967377D01*
X144828214Y-109967377D02*
X144779833Y-110064139D01*
X144779833Y-110064139D02*
X144779833Y-110160901D01*
X144779833Y-110160901D02*
X145263643Y-110257663D01*
X143715453Y-109580329D02*
X143376786Y-110596329D01*
X143376786Y-110596329D02*
X143038119Y-109580329D01*
X142699453Y-110596329D02*
X142699453Y-109918996D01*
X142699453Y-109580329D02*
X142747834Y-109628710D01*
X142747834Y-109628710D02*
X142699453Y-109677091D01*
X142699453Y-109677091D02*
X142651072Y-109628710D01*
X142651072Y-109628710D02*
X142699453Y-109580329D01*
X142699453Y-109580329D02*
X142699453Y-109677091D01*
X142215643Y-109918996D02*
X142215643Y-110596329D01*
X142215643Y-110015758D02*
X142167262Y-109967377D01*
X142167262Y-109967377D02*
X142070500Y-109918996D01*
X142070500Y-109918996D02*
X141925357Y-109918996D01*
X141925357Y-109918996D02*
X141828595Y-109967377D01*
X141828595Y-109967377D02*
X141780214Y-110064139D01*
X141780214Y-110064139D02*
X141780214Y-110596329D01*
X140909357Y-110547949D02*
X141006119Y-110596329D01*
X141006119Y-110596329D02*
X141199643Y-110596329D01*
X141199643Y-110596329D02*
X141296405Y-110547949D01*
X141296405Y-110547949D02*
X141344786Y-110451187D01*
X141344786Y-110451187D02*
X141344786Y-110064139D01*
X141344786Y-110064139D02*
X141296405Y-109967377D01*
X141296405Y-109967377D02*
X141199643Y-109918996D01*
X141199643Y-109918996D02*
X141006119Y-109918996D01*
X141006119Y-109918996D02*
X140909357Y-109967377D01*
X140909357Y-109967377D02*
X140860976Y-110064139D01*
X140860976Y-110064139D02*
X140860976Y-110160901D01*
X140860976Y-110160901D02*
X141344786Y-110257663D01*
X152569165Y-111699842D02*
X152424022Y-111748223D01*
X152424022Y-111748223D02*
X152375641Y-111796604D01*
X152375641Y-111796604D02*
X152327260Y-111893366D01*
X152327260Y-111893366D02*
X152327260Y-112038509D01*
X152327260Y-112038509D02*
X152375641Y-112135271D01*
X152375641Y-112135271D02*
X152424022Y-112183652D01*
X152424022Y-112183652D02*
X152520784Y-112232032D01*
X152520784Y-112232032D02*
X152907832Y-112232032D01*
X152907832Y-112232032D02*
X152907832Y-111216032D01*
X152907832Y-111216032D02*
X152569165Y-111216032D01*
X152569165Y-111216032D02*
X152472403Y-111264413D01*
X152472403Y-111264413D02*
X152424022Y-111312794D01*
X152424022Y-111312794D02*
X152375641Y-111409556D01*
X152375641Y-111409556D02*
X152375641Y-111506318D01*
X152375641Y-111506318D02*
X152424022Y-111603080D01*
X152424022Y-111603080D02*
X152472403Y-111651461D01*
X152472403Y-111651461D02*
X152569165Y-111699842D01*
X152569165Y-111699842D02*
X152907832Y-111699842D01*
X151456403Y-112232032D02*
X151456403Y-111699842D01*
X151456403Y-111699842D02*
X151504784Y-111603080D01*
X151504784Y-111603080D02*
X151601546Y-111554699D01*
X151601546Y-111554699D02*
X151795070Y-111554699D01*
X151795070Y-111554699D02*
X151891832Y-111603080D01*
X151456403Y-112183652D02*
X151553165Y-112232032D01*
X151553165Y-112232032D02*
X151795070Y-112232032D01*
X151795070Y-112232032D02*
X151891832Y-112183652D01*
X151891832Y-112183652D02*
X151940213Y-112086890D01*
X151940213Y-112086890D02*
X151940213Y-111990128D01*
X151940213Y-111990128D02*
X151891832Y-111893366D01*
X151891832Y-111893366D02*
X151795070Y-111844985D01*
X151795070Y-111844985D02*
X151553165Y-111844985D01*
X151553165Y-111844985D02*
X151456403Y-111796604D01*
X151020975Y-112183652D02*
X150924213Y-112232032D01*
X150924213Y-112232032D02*
X150730689Y-112232032D01*
X150730689Y-112232032D02*
X150633927Y-112183652D01*
X150633927Y-112183652D02*
X150585546Y-112086890D01*
X150585546Y-112086890D02*
X150585546Y-112038509D01*
X150585546Y-112038509D02*
X150633927Y-111941747D01*
X150633927Y-111941747D02*
X150730689Y-111893366D01*
X150730689Y-111893366D02*
X150875832Y-111893366D01*
X150875832Y-111893366D02*
X150972594Y-111844985D01*
X150972594Y-111844985D02*
X151020975Y-111748223D01*
X151020975Y-111748223D02*
X151020975Y-111699842D01*
X151020975Y-111699842D02*
X150972594Y-111603080D01*
X150972594Y-111603080D02*
X150875832Y-111554699D01*
X150875832Y-111554699D02*
X150730689Y-111554699D01*
X150730689Y-111554699D02*
X150633927Y-111603080D01*
X149763070Y-112183652D02*
X149859832Y-112232032D01*
X149859832Y-112232032D02*
X150053356Y-112232032D01*
X150053356Y-112232032D02*
X150150118Y-112183652D01*
X150150118Y-112183652D02*
X150198499Y-112086890D01*
X150198499Y-112086890D02*
X150198499Y-111699842D01*
X150198499Y-111699842D02*
X150150118Y-111603080D01*
X150150118Y-111603080D02*
X150053356Y-111554699D01*
X150053356Y-111554699D02*
X149859832Y-111554699D01*
X149859832Y-111554699D02*
X149763070Y-111603080D01*
X149763070Y-111603080D02*
X149714689Y-111699842D01*
X149714689Y-111699842D02*
X149714689Y-111796604D01*
X149714689Y-111796604D02*
X150198499Y-111893366D01*
X148553547Y-112183652D02*
X148408404Y-112232032D01*
X148408404Y-112232032D02*
X148166499Y-112232032D01*
X148166499Y-112232032D02*
X148069737Y-112183652D01*
X148069737Y-112183652D02*
X148021356Y-112135271D01*
X148021356Y-112135271D02*
X147972975Y-112038509D01*
X147972975Y-112038509D02*
X147972975Y-111941747D01*
X147972975Y-111941747D02*
X148021356Y-111844985D01*
X148021356Y-111844985D02*
X148069737Y-111796604D01*
X148069737Y-111796604D02*
X148166499Y-111748223D01*
X148166499Y-111748223D02*
X148360023Y-111699842D01*
X148360023Y-111699842D02*
X148456785Y-111651461D01*
X148456785Y-111651461D02*
X148505166Y-111603080D01*
X148505166Y-111603080D02*
X148553547Y-111506318D01*
X148553547Y-111506318D02*
X148553547Y-111409556D01*
X148553547Y-111409556D02*
X148505166Y-111312794D01*
X148505166Y-111312794D02*
X148456785Y-111264413D01*
X148456785Y-111264413D02*
X148360023Y-111216032D01*
X148360023Y-111216032D02*
X148118118Y-111216032D01*
X148118118Y-111216032D02*
X147972975Y-111264413D01*
X147682690Y-111554699D02*
X147295642Y-111554699D01*
X147537547Y-111216032D02*
X147537547Y-112086890D01*
X147537547Y-112086890D02*
X147489166Y-112183652D01*
X147489166Y-112183652D02*
X147392404Y-112232032D01*
X147392404Y-112232032D02*
X147295642Y-112232032D01*
X146521547Y-112232032D02*
X146521547Y-111699842D01*
X146521547Y-111699842D02*
X146569928Y-111603080D01*
X146569928Y-111603080D02*
X146666690Y-111554699D01*
X146666690Y-111554699D02*
X146860214Y-111554699D01*
X146860214Y-111554699D02*
X146956976Y-111603080D01*
X146521547Y-112183652D02*
X146618309Y-112232032D01*
X146618309Y-112232032D02*
X146860214Y-112232032D01*
X146860214Y-112232032D02*
X146956976Y-112183652D01*
X146956976Y-112183652D02*
X147005357Y-112086890D01*
X147005357Y-112086890D02*
X147005357Y-111990128D01*
X147005357Y-111990128D02*
X146956976Y-111893366D01*
X146956976Y-111893366D02*
X146860214Y-111844985D01*
X146860214Y-111844985D02*
X146618309Y-111844985D01*
X146618309Y-111844985D02*
X146521547Y-111796604D01*
X146182881Y-111554699D02*
X145795833Y-111554699D01*
X146037738Y-111216032D02*
X146037738Y-112086890D01*
X146037738Y-112086890D02*
X145989357Y-112183652D01*
X145989357Y-112183652D02*
X145892595Y-112232032D01*
X145892595Y-112232032D02*
X145795833Y-112232032D01*
X145457167Y-112232032D02*
X145457167Y-111554699D01*
X145457167Y-111216032D02*
X145505548Y-111264413D01*
X145505548Y-111264413D02*
X145457167Y-111312794D01*
X145457167Y-111312794D02*
X145408786Y-111264413D01*
X145408786Y-111264413D02*
X145457167Y-111216032D01*
X145457167Y-111216032D02*
X145457167Y-111312794D01*
X144828214Y-112232032D02*
X144924976Y-112183652D01*
X144924976Y-112183652D02*
X144973357Y-112135271D01*
X144973357Y-112135271D02*
X145021738Y-112038509D01*
X145021738Y-112038509D02*
X145021738Y-111748223D01*
X145021738Y-111748223D02*
X144973357Y-111651461D01*
X144973357Y-111651461D02*
X144924976Y-111603080D01*
X144924976Y-111603080D02*
X144828214Y-111554699D01*
X144828214Y-111554699D02*
X144683071Y-111554699D01*
X144683071Y-111554699D02*
X144586309Y-111603080D01*
X144586309Y-111603080D02*
X144537928Y-111651461D01*
X144537928Y-111651461D02*
X144489547Y-111748223D01*
X144489547Y-111748223D02*
X144489547Y-112038509D01*
X144489547Y-112038509D02*
X144537928Y-112135271D01*
X144537928Y-112135271D02*
X144586309Y-112183652D01*
X144586309Y-112183652D02*
X144683071Y-112232032D01*
X144683071Y-112232032D02*
X144828214Y-112232032D01*
X144054119Y-111554699D02*
X144054119Y-112232032D01*
X144054119Y-111651461D02*
X144005738Y-111603080D01*
X144005738Y-111603080D02*
X143908976Y-111554699D01*
X143908976Y-111554699D02*
X143763833Y-111554699D01*
X143763833Y-111554699D02*
X143667071Y-111603080D01*
X143667071Y-111603080D02*
X143618690Y-111699842D01*
X143618690Y-111699842D02*
X143618690Y-112232032D01*
X142360786Y-111699842D02*
X142022119Y-111699842D01*
X141876976Y-112232032D02*
X142360786Y-112232032D01*
X142360786Y-112232032D02*
X142360786Y-111216032D01*
X142360786Y-111216032D02*
X141876976Y-111216032D01*
X141489929Y-112183652D02*
X141344786Y-112232032D01*
X141344786Y-112232032D02*
X141102881Y-112232032D01*
X141102881Y-112232032D02*
X141006119Y-112183652D01*
X141006119Y-112183652D02*
X140957738Y-112135271D01*
X140957738Y-112135271D02*
X140909357Y-112038509D01*
X140909357Y-112038509D02*
X140909357Y-111941747D01*
X140909357Y-111941747D02*
X140957738Y-111844985D01*
X140957738Y-111844985D02*
X141006119Y-111796604D01*
X141006119Y-111796604D02*
X141102881Y-111748223D01*
X141102881Y-111748223D02*
X141296405Y-111699842D01*
X141296405Y-111699842D02*
X141393167Y-111651461D01*
X141393167Y-111651461D02*
X141441548Y-111603080D01*
X141441548Y-111603080D02*
X141489929Y-111506318D01*
X141489929Y-111506318D02*
X141489929Y-111409556D01*
X141489929Y-111409556D02*
X141441548Y-111312794D01*
X141441548Y-111312794D02*
X141393167Y-111264413D01*
X141393167Y-111264413D02*
X141296405Y-111216032D01*
X141296405Y-111216032D02*
X141054500Y-111216032D01*
X141054500Y-111216032D02*
X140909357Y-111264413D01*
X140473929Y-112232032D02*
X140473929Y-111216032D01*
X140473929Y-111216032D02*
X140086881Y-111216032D01*
X140086881Y-111216032D02*
X139990119Y-111264413D01*
X139990119Y-111264413D02*
X139941738Y-111312794D01*
X139941738Y-111312794D02*
X139893357Y-111409556D01*
X139893357Y-111409556D02*
X139893357Y-111554699D01*
X139893357Y-111554699D02*
X139941738Y-111651461D01*
X139941738Y-111651461D02*
X139990119Y-111699842D01*
X139990119Y-111699842D02*
X140086881Y-111748223D01*
X140086881Y-111748223D02*
X140473929Y-111748223D01*
X139554691Y-111216032D02*
X138925738Y-111216032D01*
X138925738Y-111216032D02*
X139264405Y-111603080D01*
X139264405Y-111603080D02*
X139119262Y-111603080D01*
X139119262Y-111603080D02*
X139022500Y-111651461D01*
X139022500Y-111651461D02*
X138974119Y-111699842D01*
X138974119Y-111699842D02*
X138925738Y-111796604D01*
X138925738Y-111796604D02*
X138925738Y-112038509D01*
X138925738Y-112038509D02*
X138974119Y-112135271D01*
X138974119Y-112135271D02*
X139022500Y-112183652D01*
X139022500Y-112183652D02*
X139119262Y-112232032D01*
X139119262Y-112232032D02*
X139409548Y-112232032D01*
X139409548Y-112232032D02*
X139506310Y-112183652D01*
X139506310Y-112183652D02*
X139554691Y-112135271D01*
X138538691Y-111312794D02*
X138490310Y-111264413D01*
X138490310Y-111264413D02*
X138393548Y-111216032D01*
X138393548Y-111216032D02*
X138151643Y-111216032D01*
X138151643Y-111216032D02*
X138054881Y-111264413D01*
X138054881Y-111264413D02*
X138006500Y-111312794D01*
X138006500Y-111312794D02*
X137958119Y-111409556D01*
X137958119Y-111409556D02*
X137958119Y-111506318D01*
X137958119Y-111506318D02*
X138006500Y-111651461D01*
X138006500Y-111651461D02*
X138587072Y-112232032D01*
X138587072Y-112232032D02*
X137958119Y-112232032D01*
X136409929Y-111699842D02*
X136264786Y-111748223D01*
X136264786Y-111748223D02*
X136216405Y-111796604D01*
X136216405Y-111796604D02*
X136168024Y-111893366D01*
X136168024Y-111893366D02*
X136168024Y-112038509D01*
X136168024Y-112038509D02*
X136216405Y-112135271D01*
X136216405Y-112135271D02*
X136264786Y-112183652D01*
X136264786Y-112183652D02*
X136361548Y-112232032D01*
X136361548Y-112232032D02*
X136748596Y-112232032D01*
X136748596Y-112232032D02*
X136748596Y-111216032D01*
X136748596Y-111216032D02*
X136409929Y-111216032D01*
X136409929Y-111216032D02*
X136313167Y-111264413D01*
X136313167Y-111264413D02*
X136264786Y-111312794D01*
X136264786Y-111312794D02*
X136216405Y-111409556D01*
X136216405Y-111409556D02*
X136216405Y-111506318D01*
X136216405Y-111506318D02*
X136264786Y-111603080D01*
X136264786Y-111603080D02*
X136313167Y-111651461D01*
X136313167Y-111651461D02*
X136409929Y-111699842D01*
X136409929Y-111699842D02*
X136748596Y-111699842D01*
X135587453Y-112232032D02*
X135684215Y-112183652D01*
X135684215Y-112183652D02*
X135732596Y-112135271D01*
X135732596Y-112135271D02*
X135780977Y-112038509D01*
X135780977Y-112038509D02*
X135780977Y-111748223D01*
X135780977Y-111748223D02*
X135732596Y-111651461D01*
X135732596Y-111651461D02*
X135684215Y-111603080D01*
X135684215Y-111603080D02*
X135587453Y-111554699D01*
X135587453Y-111554699D02*
X135442310Y-111554699D01*
X135442310Y-111554699D02*
X135345548Y-111603080D01*
X135345548Y-111603080D02*
X135297167Y-111651461D01*
X135297167Y-111651461D02*
X135248786Y-111748223D01*
X135248786Y-111748223D02*
X135248786Y-112038509D01*
X135248786Y-112038509D02*
X135297167Y-112135271D01*
X135297167Y-112135271D02*
X135345548Y-112183652D01*
X135345548Y-112183652D02*
X135442310Y-112232032D01*
X135442310Y-112232032D02*
X135587453Y-112232032D01*
X134377929Y-112232032D02*
X134377929Y-111699842D01*
X134377929Y-111699842D02*
X134426310Y-111603080D01*
X134426310Y-111603080D02*
X134523072Y-111554699D01*
X134523072Y-111554699D02*
X134716596Y-111554699D01*
X134716596Y-111554699D02*
X134813358Y-111603080D01*
X134377929Y-112183652D02*
X134474691Y-112232032D01*
X134474691Y-112232032D02*
X134716596Y-112232032D01*
X134716596Y-112232032D02*
X134813358Y-112183652D01*
X134813358Y-112183652D02*
X134861739Y-112086890D01*
X134861739Y-112086890D02*
X134861739Y-111990128D01*
X134861739Y-111990128D02*
X134813358Y-111893366D01*
X134813358Y-111893366D02*
X134716596Y-111844985D01*
X134716596Y-111844985D02*
X134474691Y-111844985D01*
X134474691Y-111844985D02*
X134377929Y-111796604D01*
X133894120Y-112232032D02*
X133894120Y-111554699D01*
X133894120Y-111748223D02*
X133845739Y-111651461D01*
X133845739Y-111651461D02*
X133797358Y-111603080D01*
X133797358Y-111603080D02*
X133700596Y-111554699D01*
X133700596Y-111554699D02*
X133603834Y-111554699D01*
X132829739Y-112232032D02*
X132829739Y-111216032D01*
X132829739Y-112183652D02*
X132926501Y-112232032D01*
X132926501Y-112232032D02*
X133120025Y-112232032D01*
X133120025Y-112232032D02*
X133216787Y-112183652D01*
X133216787Y-112183652D02*
X133265168Y-112135271D01*
X133265168Y-112135271D02*
X133313549Y-112038509D01*
X133313549Y-112038509D02*
X133313549Y-111748223D01*
X133313549Y-111748223D02*
X133265168Y-111651461D01*
X133265168Y-111651461D02*
X133216787Y-111603080D01*
X133216787Y-111603080D02*
X133120025Y-111554699D01*
X133120025Y-111554699D02*
X132926501Y-111554699D01*
X132926501Y-111554699D02*
X132829739Y-111603080D01*
X132297549Y-112183652D02*
X132297549Y-112232032D01*
X132297549Y-112232032D02*
X132345930Y-112328794D01*
X132345930Y-112328794D02*
X132394311Y-112377175D01*
X131233168Y-111216032D02*
X130894501Y-112232032D01*
X130894501Y-112232032D02*
X130555834Y-111216032D01*
X130265549Y-111312794D02*
X130217168Y-111264413D01*
X130217168Y-111264413D02*
X130120406Y-111216032D01*
X130120406Y-111216032D02*
X129878501Y-111216032D01*
X129878501Y-111216032D02*
X129781739Y-111264413D01*
X129781739Y-111264413D02*
X129733358Y-111312794D01*
X129733358Y-111312794D02*
X129684977Y-111409556D01*
X129684977Y-111409556D02*
X129684977Y-111506318D01*
X129684977Y-111506318D02*
X129733358Y-111651461D01*
X129733358Y-111651461D02*
X130313930Y-112232032D01*
X130313930Y-112232032D02*
X129684977Y-112232032D01*
X152327260Y-113770974D02*
X152375641Y-113819355D01*
X152375641Y-113819355D02*
X152520784Y-113867735D01*
X152520784Y-113867735D02*
X152617546Y-113867735D01*
X152617546Y-113867735D02*
X152762689Y-113819355D01*
X152762689Y-113819355D02*
X152859451Y-113722593D01*
X152859451Y-113722593D02*
X152907832Y-113625831D01*
X152907832Y-113625831D02*
X152956213Y-113432307D01*
X152956213Y-113432307D02*
X152956213Y-113287164D01*
X152956213Y-113287164D02*
X152907832Y-113093640D01*
X152907832Y-113093640D02*
X152859451Y-112996878D01*
X152859451Y-112996878D02*
X152762689Y-112900116D01*
X152762689Y-112900116D02*
X152617546Y-112851735D01*
X152617546Y-112851735D02*
X152520784Y-112851735D01*
X152520784Y-112851735D02*
X152375641Y-112900116D01*
X152375641Y-112900116D02*
X152327260Y-112948497D01*
X151746689Y-113867735D02*
X151843451Y-113819355D01*
X151843451Y-113819355D02*
X151891832Y-113770974D01*
X151891832Y-113770974D02*
X151940213Y-113674212D01*
X151940213Y-113674212D02*
X151940213Y-113383926D01*
X151940213Y-113383926D02*
X151891832Y-113287164D01*
X151891832Y-113287164D02*
X151843451Y-113238783D01*
X151843451Y-113238783D02*
X151746689Y-113190402D01*
X151746689Y-113190402D02*
X151601546Y-113190402D01*
X151601546Y-113190402D02*
X151504784Y-113238783D01*
X151504784Y-113238783D02*
X151456403Y-113287164D01*
X151456403Y-113287164D02*
X151408022Y-113383926D01*
X151408022Y-113383926D02*
X151408022Y-113674212D01*
X151408022Y-113674212D02*
X151456403Y-113770974D01*
X151456403Y-113770974D02*
X151504784Y-113819355D01*
X151504784Y-113819355D02*
X151601546Y-113867735D01*
X151601546Y-113867735D02*
X151746689Y-113867735D01*
X150827451Y-113867735D02*
X150924213Y-113819355D01*
X150924213Y-113819355D02*
X150972594Y-113722593D01*
X150972594Y-113722593D02*
X150972594Y-112851735D01*
X150053356Y-113819355D02*
X150150118Y-113867735D01*
X150150118Y-113867735D02*
X150343642Y-113867735D01*
X150343642Y-113867735D02*
X150440404Y-113819355D01*
X150440404Y-113819355D02*
X150488785Y-113722593D01*
X150488785Y-113722593D02*
X150488785Y-113335545D01*
X150488785Y-113335545D02*
X150440404Y-113238783D01*
X150440404Y-113238783D02*
X150343642Y-113190402D01*
X150343642Y-113190402D02*
X150150118Y-113190402D01*
X150150118Y-113190402D02*
X150053356Y-113238783D01*
X150053356Y-113238783D02*
X150004975Y-113335545D01*
X150004975Y-113335545D02*
X150004975Y-113432307D01*
X150004975Y-113432307D02*
X150488785Y-113529069D01*
X148795452Y-113867735D02*
X148795452Y-112851735D01*
X148795452Y-112851735D02*
X148456785Y-113577450D01*
X148456785Y-113577450D02*
X148118118Y-112851735D01*
X148118118Y-112851735D02*
X148118118Y-113867735D01*
X147198880Y-113819355D02*
X147295642Y-113867735D01*
X147295642Y-113867735D02*
X147489166Y-113867735D01*
X147489166Y-113867735D02*
X147585928Y-113819355D01*
X147585928Y-113819355D02*
X147634309Y-113770974D01*
X147634309Y-113770974D02*
X147682690Y-113674212D01*
X147682690Y-113674212D02*
X147682690Y-113383926D01*
X147682690Y-113383926D02*
X147634309Y-113287164D01*
X147634309Y-113287164D02*
X147585928Y-113238783D01*
X147585928Y-113238783D02*
X147489166Y-113190402D01*
X147489166Y-113190402D02*
X147295642Y-113190402D01*
X147295642Y-113190402D02*
X147198880Y-113238783D01*
X146424785Y-113335545D02*
X146279642Y-113383926D01*
X146279642Y-113383926D02*
X146231261Y-113432307D01*
X146231261Y-113432307D02*
X146182880Y-113529069D01*
X146182880Y-113529069D02*
X146182880Y-113674212D01*
X146182880Y-113674212D02*
X146231261Y-113770974D01*
X146231261Y-113770974D02*
X146279642Y-113819355D01*
X146279642Y-113819355D02*
X146376404Y-113867735D01*
X146376404Y-113867735D02*
X146763452Y-113867735D01*
X146763452Y-113867735D02*
X146763452Y-112851735D01*
X146763452Y-112851735D02*
X146424785Y-112851735D01*
X146424785Y-112851735D02*
X146328023Y-112900116D01*
X146328023Y-112900116D02*
X146279642Y-112948497D01*
X146279642Y-112948497D02*
X146231261Y-113045259D01*
X146231261Y-113045259D02*
X146231261Y-113142021D01*
X146231261Y-113142021D02*
X146279642Y-113238783D01*
X146279642Y-113238783D02*
X146328023Y-113287164D01*
X146328023Y-113287164D02*
X146424785Y-113335545D01*
X146424785Y-113335545D02*
X146763452Y-113335545D01*
X145360404Y-113819355D02*
X145457166Y-113867735D01*
X145457166Y-113867735D02*
X145650690Y-113867735D01*
X145650690Y-113867735D02*
X145747452Y-113819355D01*
X145747452Y-113819355D02*
X145795833Y-113722593D01*
X145795833Y-113722593D02*
X145795833Y-113335545D01*
X145795833Y-113335545D02*
X145747452Y-113238783D01*
X145747452Y-113238783D02*
X145650690Y-113190402D01*
X145650690Y-113190402D02*
X145457166Y-113190402D01*
X145457166Y-113190402D02*
X145360404Y-113238783D01*
X145360404Y-113238783D02*
X145312023Y-113335545D01*
X145312023Y-113335545D02*
X145312023Y-113432307D01*
X145312023Y-113432307D02*
X145795833Y-113529069D01*
X145021738Y-113190402D02*
X144634690Y-113190402D01*
X144876595Y-112851735D02*
X144876595Y-113722593D01*
X144876595Y-113722593D02*
X144828214Y-113819355D01*
X144828214Y-113819355D02*
X144731452Y-113867735D01*
X144731452Y-113867735D02*
X144634690Y-113867735D01*
X144296024Y-113867735D02*
X144296024Y-112851735D01*
X143860595Y-113867735D02*
X143860595Y-113335545D01*
X143860595Y-113335545D02*
X143908976Y-113238783D01*
X143908976Y-113238783D02*
X144005738Y-113190402D01*
X144005738Y-113190402D02*
X144150881Y-113190402D01*
X144150881Y-113190402D02*
X144247643Y-113238783D01*
X144247643Y-113238783D02*
X144296024Y-113287164D01*
X143328405Y-113819355D02*
X143328405Y-113867735D01*
X143328405Y-113867735D02*
X143376786Y-113964497D01*
X143376786Y-113964497D02*
X143425167Y-114012878D01*
X142215643Y-112851735D02*
X141973738Y-113867735D01*
X141973738Y-113867735D02*
X141780214Y-113142021D01*
X141780214Y-113142021D02*
X141586690Y-113867735D01*
X141586690Y-113867735D02*
X141344786Y-112851735D01*
X140957738Y-113867735D02*
X140957738Y-113190402D01*
X140957738Y-112851735D02*
X141006119Y-112900116D01*
X141006119Y-112900116D02*
X140957738Y-112948497D01*
X140957738Y-112948497D02*
X140909357Y-112900116D01*
X140909357Y-112900116D02*
X140957738Y-112851735D01*
X140957738Y-112851735D02*
X140957738Y-112948497D01*
X140473928Y-113190402D02*
X140473928Y-113867735D01*
X140473928Y-113287164D02*
X140425547Y-113238783D01*
X140425547Y-113238783D02*
X140328785Y-113190402D01*
X140328785Y-113190402D02*
X140183642Y-113190402D01*
X140183642Y-113190402D02*
X140086880Y-113238783D01*
X140086880Y-113238783D02*
X140038499Y-113335545D01*
X140038499Y-113335545D02*
X140038499Y-113867735D01*
X139699833Y-113190402D02*
X139312785Y-113190402D01*
X139554690Y-112851735D02*
X139554690Y-113722593D01*
X139554690Y-113722593D02*
X139506309Y-113819355D01*
X139506309Y-113819355D02*
X139409547Y-113867735D01*
X139409547Y-113867735D02*
X139312785Y-113867735D01*
X138587071Y-113819355D02*
X138683833Y-113867735D01*
X138683833Y-113867735D02*
X138877357Y-113867735D01*
X138877357Y-113867735D02*
X138974119Y-113819355D01*
X138974119Y-113819355D02*
X139022500Y-113722593D01*
X139022500Y-113722593D02*
X139022500Y-113335545D01*
X139022500Y-113335545D02*
X138974119Y-113238783D01*
X138974119Y-113238783D02*
X138877357Y-113190402D01*
X138877357Y-113190402D02*
X138683833Y-113190402D01*
X138683833Y-113190402D02*
X138587071Y-113238783D01*
X138587071Y-113238783D02*
X138538690Y-113335545D01*
X138538690Y-113335545D02*
X138538690Y-113432307D01*
X138538690Y-113432307D02*
X139022500Y-113529069D01*
X138103262Y-113867735D02*
X138103262Y-113190402D01*
X138103262Y-113383926D02*
X138054881Y-113287164D01*
X138054881Y-113287164D02*
X138006500Y-113238783D01*
X138006500Y-113238783D02*
X137909738Y-113190402D01*
X137909738Y-113190402D02*
X137812976Y-113190402D01*
X136651834Y-112851735D02*
X136748596Y-113045259D01*
X136264786Y-112948497D02*
X136216405Y-112900116D01*
X136216405Y-112900116D02*
X136119643Y-112851735D01*
X136119643Y-112851735D02*
X135877738Y-112851735D01*
X135877738Y-112851735D02*
X135780976Y-112900116D01*
X135780976Y-112900116D02*
X135732595Y-112948497D01*
X135732595Y-112948497D02*
X135684214Y-113045259D01*
X135684214Y-113045259D02*
X135684214Y-113142021D01*
X135684214Y-113142021D02*
X135732595Y-113287164D01*
X135732595Y-113287164D02*
X136313167Y-113867735D01*
X136313167Y-113867735D02*
X135684214Y-113867735D01*
X134813357Y-112851735D02*
X135006881Y-112851735D01*
X135006881Y-112851735D02*
X135103643Y-112900116D01*
X135103643Y-112900116D02*
X135152024Y-112948497D01*
X135152024Y-112948497D02*
X135248786Y-113093640D01*
X135248786Y-113093640D02*
X135297167Y-113287164D01*
X135297167Y-113287164D02*
X135297167Y-113674212D01*
X135297167Y-113674212D02*
X135248786Y-113770974D01*
X135248786Y-113770974D02*
X135200405Y-113819355D01*
X135200405Y-113819355D02*
X135103643Y-113867735D01*
X135103643Y-113867735D02*
X134910119Y-113867735D01*
X134910119Y-113867735D02*
X134813357Y-113819355D01*
X134813357Y-113819355D02*
X134764976Y-113770974D01*
X134764976Y-113770974D02*
X134716595Y-113674212D01*
X134716595Y-113674212D02*
X134716595Y-113432307D01*
X134716595Y-113432307D02*
X134764976Y-113335545D01*
X134764976Y-113335545D02*
X134813357Y-113287164D01*
X134813357Y-113287164D02*
X134910119Y-113238783D01*
X134910119Y-113238783D02*
X135103643Y-113238783D01*
X135103643Y-113238783D02*
X135200405Y-113287164D01*
X135200405Y-113287164D02*
X135248786Y-113335545D01*
X135248786Y-113335545D02*
X135297167Y-113432307D01*
D11*
X153761904Y-83204819D02*
X153761904Y-84014342D01*
X153761904Y-84014342D02*
X153714285Y-84109580D01*
X153714285Y-84109580D02*
X153666666Y-84157200D01*
X153666666Y-84157200D02*
X153571428Y-84204819D01*
X153571428Y-84204819D02*
X153380952Y-84204819D01*
X153380952Y-84204819D02*
X153285714Y-84157200D01*
X153285714Y-84157200D02*
X153238095Y-84109580D01*
X153238095Y-84109580D02*
X153190476Y-84014342D01*
X153190476Y-84014342D02*
X153190476Y-83204819D01*
X152761904Y-83300057D02*
X152714285Y-83252438D01*
X152714285Y-83252438D02*
X152619047Y-83204819D01*
X152619047Y-83204819D02*
X152380952Y-83204819D01*
X152380952Y-83204819D02*
X152285714Y-83252438D01*
X152285714Y-83252438D02*
X152238095Y-83300057D01*
X152238095Y-83300057D02*
X152190476Y-83395295D01*
X152190476Y-83395295D02*
X152190476Y-83490533D01*
X152190476Y-83490533D02*
X152238095Y-83633390D01*
X152238095Y-83633390D02*
X152809523Y-84204819D01*
X152809523Y-84204819D02*
X152190476Y-84204819D01*
X134716666Y-102769580D02*
X134764285Y-102817200D01*
X134764285Y-102817200D02*
X134907142Y-102864819D01*
X134907142Y-102864819D02*
X135002380Y-102864819D01*
X135002380Y-102864819D02*
X135145237Y-102817200D01*
X135145237Y-102817200D02*
X135240475Y-102721961D01*
X135240475Y-102721961D02*
X135288094Y-102626723D01*
X135288094Y-102626723D02*
X135335713Y-102436247D01*
X135335713Y-102436247D02*
X135335713Y-102293390D01*
X135335713Y-102293390D02*
X135288094Y-102102914D01*
X135288094Y-102102914D02*
X135240475Y-102007676D01*
X135240475Y-102007676D02*
X135145237Y-101912438D01*
X135145237Y-101912438D02*
X135002380Y-101864819D01*
X135002380Y-101864819D02*
X134907142Y-101864819D01*
X134907142Y-101864819D02*
X134764285Y-101912438D01*
X134764285Y-101912438D02*
X134716666Y-101960057D01*
X133859523Y-101864819D02*
X134049999Y-101864819D01*
X134049999Y-101864819D02*
X134145237Y-101912438D01*
X134145237Y-101912438D02*
X134192856Y-101960057D01*
X134192856Y-101960057D02*
X134288094Y-102102914D01*
X134288094Y-102102914D02*
X134335713Y-102293390D01*
X134335713Y-102293390D02*
X134335713Y-102674342D01*
X134335713Y-102674342D02*
X134288094Y-102769580D01*
X134288094Y-102769580D02*
X134240475Y-102817200D01*
X134240475Y-102817200D02*
X134145237Y-102864819D01*
X134145237Y-102864819D02*
X133954761Y-102864819D01*
X133954761Y-102864819D02*
X133859523Y-102817200D01*
X133859523Y-102817200D02*
X133811904Y-102769580D01*
X133811904Y-102769580D02*
X133764285Y-102674342D01*
X133764285Y-102674342D02*
X133764285Y-102436247D01*
X133764285Y-102436247D02*
X133811904Y-102341009D01*
X133811904Y-102341009D02*
X133859523Y-102293390D01*
X133859523Y-102293390D02*
X133954761Y-102245771D01*
X133954761Y-102245771D02*
X134145237Y-102245771D01*
X134145237Y-102245771D02*
X134240475Y-102293390D01*
X134240475Y-102293390D02*
X134288094Y-102341009D01*
X134288094Y-102341009D02*
X134335713Y-102436247D01*
X149092857Y-94159580D02*
X149140476Y-94207200D01*
X149140476Y-94207200D02*
X149283333Y-94254819D01*
X149283333Y-94254819D02*
X149378571Y-94254819D01*
X149378571Y-94254819D02*
X149521428Y-94207200D01*
X149521428Y-94207200D02*
X149616666Y-94111961D01*
X149616666Y-94111961D02*
X149664285Y-94016723D01*
X149664285Y-94016723D02*
X149711904Y-93826247D01*
X149711904Y-93826247D02*
X149711904Y-93683390D01*
X149711904Y-93683390D02*
X149664285Y-93492914D01*
X149664285Y-93492914D02*
X149616666Y-93397676D01*
X149616666Y-93397676D02*
X149521428Y-93302438D01*
X149521428Y-93302438D02*
X149378571Y-93254819D01*
X149378571Y-93254819D02*
X149283333Y-93254819D01*
X149283333Y-93254819D02*
X149140476Y-93302438D01*
X149140476Y-93302438D02*
X149092857Y-93350057D01*
X148140476Y-94254819D02*
X148711904Y-94254819D01*
X148426190Y-94254819D02*
X148426190Y-93254819D01*
X148426190Y-93254819D02*
X148521428Y-93397676D01*
X148521428Y-93397676D02*
X148616666Y-93492914D01*
X148616666Y-93492914D02*
X148711904Y-93540533D01*
X147283333Y-93588152D02*
X147283333Y-94254819D01*
X147521428Y-93207200D02*
X147759523Y-93921485D01*
X147759523Y-93921485D02*
X147140476Y-93921485D01*
X148892857Y-91759580D02*
X148940476Y-91807200D01*
X148940476Y-91807200D02*
X149083333Y-91854819D01*
X149083333Y-91854819D02*
X149178571Y-91854819D01*
X149178571Y-91854819D02*
X149321428Y-91807200D01*
X149321428Y-91807200D02*
X149416666Y-91711961D01*
X149416666Y-91711961D02*
X149464285Y-91616723D01*
X149464285Y-91616723D02*
X149511904Y-91426247D01*
X149511904Y-91426247D02*
X149511904Y-91283390D01*
X149511904Y-91283390D02*
X149464285Y-91092914D01*
X149464285Y-91092914D02*
X149416666Y-90997676D01*
X149416666Y-90997676D02*
X149321428Y-90902438D01*
X149321428Y-90902438D02*
X149178571Y-90854819D01*
X149178571Y-90854819D02*
X149083333Y-90854819D01*
X149083333Y-90854819D02*
X148940476Y-90902438D01*
X148940476Y-90902438D02*
X148892857Y-90950057D01*
X147940476Y-91854819D02*
X148511904Y-91854819D01*
X148226190Y-91854819D02*
X148226190Y-90854819D01*
X148226190Y-90854819D02*
X148321428Y-90997676D01*
X148321428Y-90997676D02*
X148416666Y-91092914D01*
X148416666Y-91092914D02*
X148511904Y-91140533D01*
X147607142Y-90854819D02*
X146988095Y-90854819D01*
X146988095Y-90854819D02*
X147321428Y-91235771D01*
X147321428Y-91235771D02*
X147178571Y-91235771D01*
X147178571Y-91235771D02*
X147083333Y-91283390D01*
X147083333Y-91283390D02*
X147035714Y-91331009D01*
X147035714Y-91331009D02*
X146988095Y-91426247D01*
X146988095Y-91426247D02*
X146988095Y-91664342D01*
X146988095Y-91664342D02*
X147035714Y-91759580D01*
X147035714Y-91759580D02*
X147083333Y-91807200D01*
X147083333Y-91807200D02*
X147178571Y-91854819D01*
X147178571Y-91854819D02*
X147464285Y-91854819D01*
X147464285Y-91854819D02*
X147559523Y-91807200D01*
X147559523Y-91807200D02*
X147607142Y-91759580D01*
D12*
%TO.C,U2*%
X150640000Y-85327500D02*
X150640000Y-86052500D01*
X150640000Y-88822500D02*
X150640000Y-89547500D01*
X150640000Y-89547500D02*
X151365000Y-89547500D01*
X151365000Y-85327500D02*
X150640000Y-85327500D01*
X154135000Y-89547500D02*
X154860000Y-89547500D01*
X154860000Y-85327500D02*
X154135000Y-85327500D01*
X154860000Y-86052500D02*
X154860000Y-85327500D01*
X154860000Y-89547500D02*
X154860000Y-88822500D01*
X151750000Y-84827500D02*
X151510000Y-84497500D01*
X151990000Y-84497500D01*
X151750000Y-84827500D01*
G36*
X151750000Y-84827500D02*
G01*
X151510000Y-84497500D01*
X151990000Y-84497500D01*
X151750000Y-84827500D01*
G37*
%TO.C,C6*%
X134442164Y-100890000D02*
X134657836Y-100890000D01*
X134442164Y-101610000D02*
X134657836Y-101610000D01*
%TO.C,C14*%
X151057836Y-93390000D02*
X150842164Y-93390000D01*
X151057836Y-94110000D02*
X150842164Y-94110000D01*
%TO.C,C13*%
X151057836Y-90890000D02*
X150842164Y-90890000D01*
X151057836Y-91610000D02*
X150842164Y-91610000D01*
%TD*%
M02*
