M48
; DRILL file {KiCad 9.0.5} date 2026-02-09T14:13:03-0800
; FORMAT={-:-/ absolute / inch / decimal}
; #@! TF.CreationDate,2026-02-09T14:13:03-08:00
; #@! TF.GenerationSoftware,Kicad,Pcbnew,9.0.5
; #@! TF.FileFunction,Plated,1,4,PTH
FMAT,2
INCH
; #@! TA.AperFunction,Plated,PTH,ViaDrill
T1C0.0100
%
G90
G05
T1
X4.3996Y-4.1535
X4.439Y-4.4882
X4.4685Y-4.1535
X4.4783Y-4.3602
X4.5276Y-4.4882
X4.5453Y-3.811
X4.5531Y-3.6772
X4.6161Y-4.4882
X4.626Y-4.0846
X4.6555Y-3.3957
X4.6752Y-4.4587
X4.6949Y-4.3504
X4.7099Y-2.8268
X4.7165Y-2.5748
X4.7343Y-2.685
X4.7421Y-3.2087
X4.7421Y-4.1654
X4.7441Y-3.3957
X4.748Y-3.0394
X4.75Y-3.9685
X4.7579Y-3.1417
X4.7579Y-3.3307
X4.7657Y-2.937
X4.7657Y-3.7402
X4.7795Y-2.8209
X4.7815Y-3.4409
X4.8051Y-2.5748
X4.8327Y-3.3957
X4.8327Y-3.5039
X4.8366Y-3.0394
X4.9075Y-3.9055
X4.9114Y-4.5276
X4.9154Y-4.3543
X4.9154Y-4.3937
X4.9213Y-3.3957
X4.9213Y-3.5039
X4.9606Y-4.1102
X4.9705Y-3.622
X4.9803Y-3.6713
X4.9862Y-3.748
X5.0Y-4.5276
X5.0335Y-3.9134
X5.0492Y-4.1102
X5.1476Y-3.6516
X5.1476Y-3.7402
X5.2264Y-3.6516
X5.2264Y-3.7402
X5.2559Y-3.9173
X5.315Y-3.7402
X5.3241Y-3.9272
X5.3445Y-4.5276
X5.4331Y-4.5276
X5.4528Y-3.3858
X5.4528Y-3.4744
X5.502Y-4.2421
X5.561Y-3.9272
X5.5906Y-4.2421
X5.5925Y-3.748
X5.6083Y-2.748
X5.6102Y-4.1142
X5.624Y-2.7008
X5.6319Y-2.598
X5.6319Y-2.6378
X5.6319Y-3.9685
X5.6398Y-3.748
X5.6988Y-4.0748
X5.7244Y-4.5276
X5.7421Y-3.9291
X5.75Y-3.9764
X5.8071Y-3.4744
X5.8104Y-3.4383
X5.813Y-4.5276
X5.8169Y-3.2283
X5.8366Y-4.1339
X5.8366Y-4.2618
X5.8563Y-3.8484
X5.8957Y-3.4547
X5.8976Y-2.5669
X5.9055Y-3.75
X5.9154Y-4.5374
X5.9252Y-4.1339
X5.9252Y-4.2618
X5.9449Y-3.3366
X5.9547Y-2.9035
X5.9547Y-3.0807
X5.9685Y-3.7343
X5.9862Y-2.5669
X6.002Y-3.1732
X6.0037Y-3.7981
X6.0138Y-4.1339
X6.0138Y-4.2618
X6.0413Y-2.7717
X6.0433Y-3.0807
X6.0492Y-2.8504
X6.0571Y-2.9291
X6.0571Y-3.7795
X6.065Y-2.6457
X6.0728Y-4.4488
X6.1024Y-4.1339
X6.1024Y-4.2618
X6.2047Y-3.4724
X6.2697Y-4.2362
X6.2894Y-4.3602
X6.2894Y-4.5965
X6.2933Y-3.4724
M30
