%TF.GenerationSoftware,KiCad,Pcbnew,9.0.5*%
%TF.CreationDate,2026-02-09T14:13:06-08:00*%
%TF.ProjectId,Vine_Basestation_Cable_Reeling,56696e65-5f42-4617-9365-73746174696f,rev?*%
%TF.SameCoordinates,Original*%
%TF.FileFunction,Paste,Top*%
%TF.FilePolarity,Positive*%
%FSLAX46Y46*%
G04 Gerber Fmt 4.6, Leading zero omitted, Abs format (unit mm)*
G04 Created by KiCad (PCBNEW 9.0.5) date 2026-02-09 14:13:06*
%MOMM*%
%LPD*%
G01*
G04 APERTURE LIST*
G04 Aperture macros list*
%AMRoundRect*
0 Rectangle with rounded corners*
0 $1 Rounding radius*
0 $2 $3 $4 $5 $6 $7 $8 $9 X,Y pos of 4 corners*
0 Add a 4 corners polygon primitive as box body*
4,1,4,$2,$3,$4,$5,$6,$7,$8,$9,$2,$3,0*
0 Add four circle primitives for the rounded corners*
1,1,$1+$1,$2,$3*
1,1,$1+$1,$4,$5*
1,1,$1+$1,$6,$7*
1,1,$1+$1,$8,$9*
0 Add four rect primitives between the rounded corners*
20,1,$1+$1,$2,$3,$4,$5,0*
20,1,$1+$1,$4,$5,$6,$7,0*
20,1,$1+$1,$6,$7,$8,$9,0*
20,1,$1+$1,$8,$9,$2,$3,0*%
G04 Aperture macros list end*
%ADD10RoundRect,0.140000X0.170000X-0.140000X0.170000X0.140000X-0.170000X0.140000X-0.170000X-0.140000X0*%
%ADD11RoundRect,0.135000X0.135000X0.185000X-0.135000X0.185000X-0.135000X-0.185000X0.135000X-0.185000X0*%
%ADD12RoundRect,0.135000X0.185000X-0.135000X0.185000X0.135000X-0.185000X0.135000X-0.185000X-0.135000X0*%
%ADD13RoundRect,0.140000X-0.170000X0.140000X-0.170000X-0.140000X0.170000X-0.140000X0.170000X0.140000X0*%
%ADD14RoundRect,0.135000X-0.135000X-0.185000X0.135000X-0.185000X0.135000X0.185000X-0.135000X0.185000X0*%
%ADD15R,1.422400X0.558800*%
%ADD16RoundRect,0.150000X-0.825000X-0.150000X0.825000X-0.150000X0.825000X0.150000X-0.825000X0.150000X0*%
%ADD17RoundRect,0.135000X-0.185000X0.135000X-0.185000X-0.135000X0.185000X-0.135000X0.185000X0.135000X0*%
%ADD18RoundRect,0.243750X-0.243750X-0.456250X0.243750X-0.456250X0.243750X0.456250X-0.243750X0.456250X0*%
%ADD19RoundRect,0.250000X0.250000X2.500000X-0.250000X2.500000X-0.250000X-2.500000X0.250000X-2.500000X0*%
%ADD20RoundRect,0.250000X0.550000X1.250000X-0.550000X1.250000X-0.550000X-1.250000X0.550000X-1.250000X0*%
%ADD21RoundRect,0.150000X-0.200000X0.150000X-0.200000X-0.150000X0.200000X-0.150000X0.200000X0.150000X0*%
%ADD22RoundRect,0.150000X0.200000X-0.150000X0.200000X0.150000X-0.200000X0.150000X-0.200000X-0.150000X0*%
%ADD23RoundRect,0.100000X0.100000X-0.850000X0.100000X0.850000X-0.100000X0.850000X-0.100000X-0.850000X0*%
%ADD24RoundRect,0.150000X-0.425000X0.150000X-0.425000X-0.150000X0.425000X-0.150000X0.425000X0.150000X0*%
%ADD25RoundRect,0.075000X-0.500000X0.075000X-0.500000X-0.075000X0.500000X-0.075000X0.500000X0.075000X0*%
%ADD26RoundRect,0.250000X-0.750000X0.840000X-0.750000X-0.840000X0.750000X-0.840000X0.750000X0.840000X0*%
%ADD27R,1.498600X0.812800*%
%ADD28R,0.812800X1.498600*%
%ADD29R,0.889000X0.889000*%
%ADD30RoundRect,0.250000X2.500000X-0.250000X2.500000X0.250000X-2.500000X0.250000X-2.500000X-0.250000X0*%
%ADD31RoundRect,0.250000X1.250000X-0.550000X1.250000X0.550000X-1.250000X0.550000X-1.250000X-0.550000X0*%
%ADD32R,0.900000X1.700000*%
%ADD33RoundRect,0.150000X0.512500X0.150000X-0.512500X0.150000X-0.512500X-0.150000X0.512500X-0.150000X0*%
%ADD34RoundRect,0.150000X0.425000X-0.150000X0.425000X0.150000X-0.425000X0.150000X-0.425000X-0.150000X0*%
%ADD35RoundRect,0.075000X0.500000X-0.075000X0.500000X0.075000X-0.500000X0.075000X-0.500000X-0.075000X0*%
%ADD36RoundRect,0.250000X0.750000X-0.840000X0.750000X0.840000X-0.750000X0.840000X-0.750000X-0.840000X0*%
%ADD37RoundRect,0.250000X-2.500000X0.250000X-2.500000X-0.250000X2.500000X-0.250000X2.500000X0.250000X0*%
%ADD38RoundRect,0.250000X-1.250000X0.550000X-1.250000X-0.550000X1.250000X-0.550000X1.250000X0.550000X0*%
%ADD39RoundRect,0.050000X0.285000X0.100000X-0.285000X0.100000X-0.285000X-0.100000X0.285000X-0.100000X0*%
G04 APERTURE END LIST*
D10*
%TO.C,C12*%
X117250000Y-106680000D03*
X117250000Y-105720000D03*
%TD*%
D11*
%TO.C,R3*%
X155360000Y-86000000D03*
X154340000Y-86000000D03*
%TD*%
D10*
%TO.C,C8*%
X139250000Y-103160000D03*
X139250000Y-102200000D03*
%TD*%
D12*
%TO.C,R9*%
X121050000Y-92110000D03*
X121050000Y-91090000D03*
%TD*%
D13*
%TO.C,C16*%
X142050000Y-65920000D03*
X142050000Y-66880000D03*
%TD*%
D14*
%TO.C,R5*%
X125827500Y-101250000D03*
X126847500Y-101250000D03*
%TD*%
D15*
%TO.C,U4*%
X114305600Y-107849999D03*
X114305600Y-108800000D03*
X114305600Y-109750001D03*
X116594400Y-109750001D03*
X116594400Y-107849999D03*
%TD*%
D12*
%TO.C,R14*%
X143050000Y-99910000D03*
X143050000Y-98890000D03*
%TD*%
D10*
%TO.C,C10*%
X124250000Y-80680000D03*
X124250000Y-79720000D03*
%TD*%
%TO.C,C5*%
X119450000Y-107560000D03*
X119450000Y-106600000D03*
%TD*%
D16*
%TO.C,U6*%
X133975000Y-65990000D03*
X133975000Y-67260000D03*
X133975000Y-68530000D03*
X133975000Y-69800000D03*
X138925000Y-69800000D03*
X138925000Y-68530000D03*
X138925000Y-67260000D03*
X138925000Y-65990000D03*
%TD*%
D17*
%TO.C,R10*%
X120650000Y-97890000D03*
X120650000Y-98910000D03*
%TD*%
D18*
%TO.C,D7*%
X159750000Y-115000000D03*
X161625000Y-115000000D03*
%TD*%
D10*
%TO.C,C7*%
X126650000Y-80560000D03*
X126650000Y-79600000D03*
%TD*%
D19*
%TO.C,J1*%
X121000000Y-116750000D03*
X119000000Y-116750000D03*
D20*
X123400000Y-119000000D03*
X116600000Y-119000000D03*
%TD*%
D19*
%TO.C,J2*%
X154200000Y-116750000D03*
X152200000Y-116750000D03*
D20*
X156600000Y-119000000D03*
X149800000Y-119000000D03*
%TD*%
D14*
%TO.C,R2*%
X118140000Y-80000000D03*
X119160000Y-80000000D03*
%TD*%
D18*
%TO.C,D6*%
X159750000Y-109250000D03*
X161625000Y-109250000D03*
%TD*%
D13*
%TO.C,C17*%
X140850000Y-65920000D03*
X140850000Y-66880000D03*
%TD*%
D21*
%TO.C,D2*%
X151450000Y-98010000D03*
X151450000Y-96610000D03*
%TD*%
D12*
%TO.C,R12*%
X147850000Y-97020000D03*
X147850000Y-96000000D03*
%TD*%
D22*
%TO.C,D1*%
X151450000Y-92460000D03*
X151450000Y-93860000D03*
%TD*%
D14*
%TO.C,R4*%
X122327500Y-101250000D03*
X123347500Y-101250000D03*
%TD*%
D12*
%TO.C,R15*%
X144450000Y-99910000D03*
X144450000Y-98890000D03*
%TD*%
D23*
%TO.C,U5*%
X131000000Y-110500000D03*
X131650000Y-110500000D03*
X132300000Y-110500000D03*
X132950000Y-110500000D03*
X133600000Y-110500000D03*
X134250000Y-110500000D03*
X134900000Y-110500000D03*
X135550000Y-110500000D03*
X136200000Y-110500000D03*
X136850000Y-110500000D03*
X137500000Y-110500000D03*
X138150000Y-110500000D03*
X138150000Y-103500000D03*
X137500000Y-103500000D03*
X136850000Y-103500000D03*
X136200000Y-103500000D03*
X135550000Y-103500000D03*
X134900000Y-103500000D03*
X134250000Y-103500000D03*
X133600000Y-103500000D03*
X132950000Y-103500000D03*
X132300000Y-103500000D03*
X131650000Y-103500000D03*
X131000000Y-103500000D03*
%TD*%
D14*
%TO.C,R8*%
X160140000Y-107600000D03*
X161160000Y-107600000D03*
%TD*%
D24*
%TO.C,J10*%
X118755000Y-91710000D03*
X118755000Y-92510000D03*
D25*
X118755000Y-93660000D03*
X118755000Y-94660000D03*
X118755000Y-95160000D03*
X118755000Y-96160000D03*
D24*
X118755000Y-97310000D03*
X118755000Y-98110000D03*
X118755000Y-98110000D03*
X118755000Y-97310000D03*
D25*
X118755000Y-96660000D03*
X118755000Y-95660000D03*
X118755000Y-94160000D03*
X118755000Y-93160000D03*
D24*
X118755000Y-92510000D03*
X118755000Y-91710000D03*
D26*
X118180000Y-89800000D03*
X114250000Y-89800000D03*
X118180000Y-100020000D03*
X114250000Y-100020000D03*
%TD*%
D27*
%TO.C,U1*%
X128600000Y-79380000D03*
X128600000Y-80650000D03*
X128600000Y-81920000D03*
X128600000Y-83190000D03*
X128600000Y-84460000D03*
X128600000Y-85730000D03*
X128600000Y-87000000D03*
X128600000Y-88270000D03*
X128600000Y-89540000D03*
X128600000Y-90810000D03*
X128600000Y-92080000D03*
X128600000Y-93350000D03*
X128600000Y-94620000D03*
X128600000Y-95890000D03*
D28*
X130365000Y-97140000D03*
X131635000Y-97140000D03*
X132905000Y-97140000D03*
X134175000Y-97140000D03*
X135445000Y-97140000D03*
X136715000Y-97140000D03*
X137985000Y-97140000D03*
X139255000Y-97140000D03*
X140525000Y-97140000D03*
X141795000Y-97140000D03*
X143065000Y-97140000D03*
X144335000Y-97140000D03*
D27*
X146100000Y-95890000D03*
X146100000Y-94620000D03*
X146100000Y-93350000D03*
X146100000Y-92080000D03*
X146100000Y-90810000D03*
X146100000Y-89540000D03*
X146100000Y-88270000D03*
X146100000Y-87000000D03*
X146100000Y-85730000D03*
X146100000Y-84460000D03*
X146100000Y-83190000D03*
X146100000Y-81920000D03*
X146100000Y-80650000D03*
X146100000Y-79380000D03*
D29*
X135850000Y-87100000D03*
X134450000Y-85700000D03*
X134450000Y-87100000D03*
X134450000Y-88500000D03*
X135850000Y-88500000D03*
X137250000Y-88500000D03*
X137250000Y-87100000D03*
X137250000Y-85700000D03*
X135850000Y-85700000D03*
%TD*%
D19*
%TO.C,J7*%
X143200000Y-116750000D03*
X141200000Y-116750000D03*
D20*
X145600000Y-119000000D03*
X138800000Y-119000000D03*
%TD*%
D10*
%TO.C,C2*%
X123250000Y-109600000D03*
X123250000Y-108640000D03*
%TD*%
D17*
%TO.C,R6*%
X153250000Y-97780000D03*
X153250000Y-98800000D03*
%TD*%
D19*
%TO.C,J6*%
X132050000Y-116750000D03*
X130050000Y-116750000D03*
D20*
X134450000Y-119000000D03*
X127650000Y-119000000D03*
%TD*%
D14*
%TO.C,R11*%
X160230000Y-113400000D03*
X161250000Y-113400000D03*
%TD*%
D30*
%TO.C,J8*%
X116656000Y-73504000D03*
X116656000Y-71504000D03*
X116656000Y-69504000D03*
X116656000Y-67504000D03*
D31*
X114406000Y-75904000D03*
X114406000Y-65104000D03*
%TD*%
D32*
%TO.C,SW1*%
X129450000Y-68800000D03*
X126050000Y-68800000D03*
%TD*%
D33*
%TO.C,U7*%
X125125000Y-96150000D03*
X125125000Y-95200000D03*
X125125000Y-94250000D03*
X122850000Y-94250000D03*
X122850000Y-95200000D03*
X122850000Y-96150000D03*
%TD*%
D34*
%TO.C,J3*%
X155510000Y-99110000D03*
X155510000Y-98310000D03*
D35*
X155510000Y-97160000D03*
X155510000Y-96160000D03*
X155510000Y-95660000D03*
X155510000Y-94660000D03*
D34*
X155510000Y-93510000D03*
X155510000Y-92710000D03*
X155510000Y-92710000D03*
X155510000Y-93510000D03*
D35*
X155510000Y-94160000D03*
X155510000Y-95160000D03*
X155510000Y-96660000D03*
X155510000Y-97660000D03*
D34*
X155510000Y-98310000D03*
X155510000Y-99110000D03*
D36*
X156085000Y-101020000D03*
X160015000Y-101020000D03*
X156085000Y-90800000D03*
X160015000Y-90800000D03*
%TD*%
D10*
%TO.C,C15*%
X122050000Y-80760000D03*
X122050000Y-79800000D03*
%TD*%
D12*
%TO.C,R7*%
X153250000Y-93420000D03*
X153250000Y-92400000D03*
%TD*%
D10*
%TO.C,C4*%
X118450000Y-107560000D03*
X118450000Y-106600000D03*
%TD*%
D37*
%TO.C,J9*%
X157750000Y-67600000D03*
X157750000Y-69600000D03*
X157750000Y-71600000D03*
X157750000Y-73600000D03*
D38*
X160000000Y-65200000D03*
X160000000Y-76000000D03*
%TD*%
D32*
%TO.C,SW2*%
X145250000Y-68800000D03*
X148650000Y-68800000D03*
%TD*%
D14*
%TO.C,R1*%
X118540000Y-87400000D03*
X119560000Y-87400000D03*
%TD*%
D10*
%TO.C,C1*%
X124650000Y-109400000D03*
X124650000Y-108440000D03*
%TD*%
D13*
%TO.C,C11*%
X112650000Y-107720000D03*
X112650000Y-108680000D03*
%TD*%
D37*
%TO.C,J5*%
X157750000Y-81600000D03*
X157750000Y-83600000D03*
D38*
X160000000Y-79200000D03*
X160000000Y-86000000D03*
%TD*%
D13*
%TO.C,C3*%
X123650000Y-110520000D03*
X123650000Y-111480000D03*
%TD*%
D39*
%TO.C,U3*%
X121850000Y-110750000D03*
X121850000Y-110250000D03*
X121850000Y-109750000D03*
X121850000Y-109250000D03*
X120370000Y-109250000D03*
X120370000Y-109750000D03*
X120370000Y-110250000D03*
X120370000Y-110750000D03*
%TD*%
D10*
%TO.C,C9*%
X140450000Y-103160000D03*
X140450000Y-102200000D03*
%TD*%
D30*
%TO.C,J4*%
X116656000Y-83728000D03*
X116656000Y-81728000D03*
D31*
X114406000Y-86128000D03*
X114406000Y-79328000D03*
%TD*%
D17*
%TO.C,R13*%
X126650000Y-81890000D03*
X126650000Y-82910000D03*
%TD*%
M02*
