G04 #@! TF.GenerationSoftware,KiCad,Pcbnew,7.0.7*
G04 #@! TF.CreationDate,2024-10-23T00:01:57-07:00*
G04 #@! TF.ProjectId,ESP_POE_1.4b,4553505f-504f-4455-9f31-2e34622e6b69,K*
G04 #@! TF.SameCoordinates,Original*
G04 #@! TF.FileFunction,Copper,L5,Inr*
G04 #@! TF.FilePolarity,Positive*
%FSLAX46Y46*%
G04 Gerber Fmt 4.6, Leading zero omitted, Abs format (unit mm)*
G04 Created by KiCad (PCBNEW 7.0.7) date 2024-10-23 00:01:57*
%MOMM*%
%LPD*%
G01*
G04 APERTURE LIST*
G04 #@! TA.AperFunction,ComponentPad*
%ADD10R,1.400000X1.400000*%
G04 #@! TD*
G04 #@! TA.AperFunction,ComponentPad*
%ADD11C,1.400000*%
G04 #@! TD*
G04 #@! TA.AperFunction,ComponentPad*
%ADD12C,2.100000*%
G04 #@! TD*
G04 #@! TA.AperFunction,ComponentPad*
%ADD13C,2.600000*%
G04 #@! TD*
G04 #@! TA.AperFunction,ComponentPad*
%ADD14R,1.100000X1.100000*%
G04 #@! TD*
G04 #@! TA.AperFunction,ComponentPad*
%ADD15C,1.100000*%
G04 #@! TD*
G04 #@! TA.AperFunction,ComponentPad*
%ADD16C,0.700000*%
G04 #@! TD*
G04 #@! TA.AperFunction,ComponentPad*
%ADD17C,1.500000*%
G04 #@! TD*
G04 #@! TA.AperFunction,ViaPad*
%ADD18C,0.550000*%
G04 #@! TD*
G04 #@! TA.AperFunction,ViaPad*
%ADD19C,0.700000*%
G04 #@! TD*
G04 #@! TA.AperFunction,Conductor*
%ADD20C,0.203200*%
G04 #@! TD*
G04 APERTURE END LIST*
D10*
X74389520Y-143148050D03*
D11*
X74392060Y-145177510D03*
D12*
X86256400Y-156589400D03*
D13*
X86256400Y-161949400D03*
D12*
X94896400Y-156589400D03*
D13*
X94896400Y-161949400D03*
D14*
X77927200Y-147218400D03*
D15*
X79197200Y-147218400D03*
X77927200Y-145948400D03*
X79197200Y-145948400D03*
X77927200Y-144678400D03*
X79197200Y-144678400D03*
X77927200Y-143408400D03*
X79197200Y-143408400D03*
X77927200Y-142138400D03*
X79197200Y-142138400D03*
X77927200Y-140868400D03*
X79197200Y-140868400D03*
D16*
X93288000Y-143120000D03*
X93288000Y-141720000D03*
X92588000Y-143820000D03*
X92588000Y-141020000D03*
D17*
X91888000Y-142420000D03*
D16*
X91188000Y-143820000D03*
X91188000Y-141020000D03*
X90488000Y-143120000D03*
X90488000Y-141720000D03*
D14*
X102920800Y-147218400D03*
D15*
X101650800Y-147218400D03*
X102920800Y-145948400D03*
X101650800Y-145948400D03*
X102920800Y-144678400D03*
X101650800Y-144678400D03*
X102920800Y-143408400D03*
X101650800Y-143408400D03*
X102920800Y-142138400D03*
X101650800Y-142138400D03*
X102920800Y-140868400D03*
X101650800Y-140868400D03*
D18*
X93573600Y-135261600D03*
X76384400Y-135820400D03*
X72288400Y-149402800D03*
X96367600Y-134975600D03*
X98602800Y-158496000D03*
X104241600Y-130657600D03*
X86207600Y-134367600D03*
X97180400Y-139903200D03*
X104343200Y-149343700D03*
X79774800Y-155549600D03*
X92913200Y-149809200D03*
D19*
X97180400Y-148856298D03*
D18*
X100431600Y-153130000D03*
D19*
X102903979Y-135378187D03*
D18*
X98988000Y-134620000D03*
X103479600Y-150571200D03*
X75239700Y-146964400D03*
X103987600Y-157480000D03*
X95859600Y-150032800D03*
X73558400Y-138430000D03*
D19*
X106070400Y-146100800D03*
D18*
X84767299Y-156925237D03*
X77779700Y-138561600D03*
X78028800Y-130911600D03*
X107797600Y-135483600D03*
X105968800Y-137261600D03*
X77984024Y-133483076D03*
X104827901Y-156514800D03*
X106426000Y-133654800D03*
X79552800Y-156819600D03*
X97586800Y-137464800D03*
X103632000Y-153517600D03*
D19*
X85445600Y-143459200D03*
D18*
X83566000Y-134447100D03*
X97485200Y-134162800D03*
X98988000Y-140970000D03*
X97466400Y-158718000D03*
D19*
X103530400Y-132892800D03*
X100868400Y-132232400D03*
D18*
X99314000Y-137312400D03*
X100489115Y-136874658D03*
X101041200Y-156819600D03*
D19*
X108153200Y-143713200D03*
D18*
X79603600Y-132638800D03*
X94848690Y-154352127D03*
X100431600Y-151841200D03*
X75107800Y-139852400D03*
X90078400Y-135280400D03*
X100252962Y-160044562D03*
X106730800Y-151771600D03*
X84226400Y-151130000D03*
X86798849Y-139687300D03*
D19*
X93850621Y-138610179D03*
D18*
X95148400Y-134162300D03*
X91084400Y-134144000D03*
X80924400Y-129489200D03*
X80453800Y-140258800D03*
X85293200Y-148710400D03*
X104038400Y-154686000D03*
X101701600Y-158800800D03*
D19*
X95961200Y-157835600D03*
D18*
X102972438Y-156515638D03*
D19*
X84226400Y-147269200D03*
D18*
X83874200Y-142036800D03*
X91983560Y-138360400D03*
X97028000Y-153130000D03*
X90220800Y-150114000D03*
X87833200Y-148183600D03*
X76758800Y-146608800D03*
X80162400Y-158108400D03*
X100945292Y-157900100D03*
X98988000Y-144780000D03*
X103022400Y-136120300D03*
X101752400Y-138785600D03*
X75895200Y-134061200D03*
X78943200Y-138988800D03*
X80264103Y-150432480D03*
X101498400Y-137026400D03*
X97688400Y-142627600D03*
X92151200Y-149860000D03*
X91024898Y-156179400D03*
X90881200Y-156921200D03*
X91541600Y-150418800D03*
X90152902Y-156179400D03*
X83261200Y-152940000D03*
D19*
X107086400Y-140565599D03*
X105968800Y-141732000D03*
D18*
X102385801Y-149098000D03*
X95250000Y-142087600D03*
D19*
X105359200Y-147777200D03*
X108966000Y-142900400D03*
D18*
X85750400Y-150622000D03*
D19*
X106172000Y-148234400D03*
D18*
X89357200Y-140614400D03*
X90358280Y-144969957D03*
X95808800Y-143510000D03*
X94005254Y-148208854D03*
X79825600Y-154635200D03*
X88036400Y-150164800D03*
X94132400Y-144969500D03*
X81603600Y-148590000D03*
D19*
X83810951Y-138569200D03*
X87128700Y-138417300D03*
X94640400Y-150317200D03*
D18*
X83566000Y-146050000D03*
X99163106Y-149809029D03*
X83667600Y-141122400D03*
X91541600Y-139801600D03*
X83330800Y-144780000D03*
X97129600Y-141071600D03*
X85007200Y-137787257D03*
X78994000Y-135991600D03*
X82854800Y-147015200D03*
X98450400Y-157378400D03*
X91135700Y-152921239D03*
X92298700Y-152280000D03*
X98704400Y-156210000D03*
X84696128Y-137021528D03*
X80257900Y-149606000D03*
X97611543Y-154533468D03*
X85242400Y-158464000D03*
D20*
X74389520Y-143148050D02*
X74389520Y-135465280D01*
X89644217Y-134950200D02*
X89872817Y-134721600D01*
X74904600Y-134950200D02*
X89644217Y-134950200D01*
X96416017Y-134162800D02*
X97485200Y-134162800D01*
X89872817Y-134721600D02*
X95857217Y-134721600D01*
X95857217Y-134721600D02*
X96416017Y-134162800D01*
X74389520Y-135465280D02*
X74904600Y-134950200D01*
X80568800Y-133604000D02*
X79603600Y-132638800D01*
X108254800Y-136705183D02*
X106629200Y-135079583D01*
X106629200Y-135079583D02*
X106629200Y-134975600D01*
X105257600Y-133604000D02*
X80568800Y-133604000D01*
X108153200Y-143713200D02*
X108254800Y-143611600D01*
X106629200Y-134975600D02*
X105257600Y-133604000D01*
X108254800Y-143611600D02*
X108254800Y-136705183D01*
X90078400Y-135280400D02*
X75336400Y-135280400D01*
X74719720Y-139464320D02*
X75107800Y-139852400D01*
X75336400Y-135280400D02*
X74719720Y-135897080D01*
X74719720Y-135897080D02*
X74719720Y-139464320D01*
X84734400Y-151638000D02*
X84226400Y-151130000D01*
X100207717Y-152381700D02*
X99464017Y-151638000D01*
X106730800Y-151771600D02*
X106120700Y-152381700D01*
X99464017Y-151638000D02*
X84734400Y-151638000D01*
X82143600Y-141020800D02*
X83477100Y-139687300D01*
X83477100Y-139687300D02*
X86798849Y-139687300D01*
X84226400Y-151130000D02*
X82143600Y-149047200D01*
X82143600Y-149047200D02*
X82143600Y-141020800D01*
X106120700Y-152381700D02*
X100207717Y-152381700D01*
X95148400Y-134162300D02*
X91102700Y-134162300D01*
X91102700Y-134162300D02*
X91084400Y-134144000D01*
X96856800Y-153130000D02*
X94896400Y-155090400D01*
X94896400Y-155090400D02*
X94896400Y-156589400D01*
X97028000Y-153130000D02*
X96856800Y-153130000D01*
X101328293Y-147997000D02*
X105139400Y-147997000D01*
X95250000Y-142087600D02*
X100330000Y-142087600D01*
X100872200Y-142629800D02*
X100872200Y-147540907D01*
X100330000Y-142087600D02*
X100872200Y-142629800D01*
X100872200Y-147540907D02*
X101328293Y-147997000D01*
X105139400Y-147997000D02*
X105359200Y-147777200D01*
X86436200Y-151307800D02*
X85750400Y-150622000D01*
X108966000Y-149148800D02*
X106883200Y-151231600D01*
X106883200Y-151231600D02*
X94538800Y-151231600D01*
X94538800Y-151231600D02*
X94462600Y-151307800D01*
X94462600Y-151307800D02*
X86436200Y-151307800D01*
X108966000Y-142900400D02*
X108966000Y-149148800D01*
X81603600Y-140646400D02*
X83718400Y-138531600D01*
X81603600Y-148590000D02*
X81603600Y-140646400D01*
X83667600Y-141122400D02*
X82790300Y-141999700D01*
X83789883Y-145509500D02*
X84990783Y-146710400D01*
X96064477Y-146710400D02*
X99163106Y-149809029D01*
X83234609Y-145617009D02*
X83342117Y-145509500D01*
X84990783Y-146710400D02*
X96064477Y-146710400D01*
X82790300Y-141999700D02*
X82790300Y-145172700D01*
X83342117Y-145509500D02*
X83789883Y-145509500D01*
X82790300Y-145172700D02*
X83234609Y-145617009D01*
X82620374Y-136398000D02*
X88138000Y-136398000D01*
X79267574Y-139750800D02*
X82620374Y-136398000D01*
X77774800Y-139750800D02*
X79267574Y-139750800D01*
X77165200Y-144678400D02*
X76657200Y-144170400D01*
X77927200Y-144678400D02*
X77165200Y-144678400D01*
X88138000Y-136398000D02*
X91541600Y-139801600D01*
X76657200Y-140868400D02*
X77774800Y-139750800D01*
X76657200Y-144170400D02*
X76657200Y-140868400D01*
X103784400Y-139598400D02*
X104394000Y-140208000D01*
X90406500Y-140479500D02*
X90910236Y-140479500D01*
X83330800Y-144780000D02*
X86106000Y-144780000D01*
X97505800Y-140441400D02*
X98348800Y-139598400D01*
X104394000Y-140208000D02*
X104394000Y-141935200D01*
X104394000Y-141935200D02*
X102920800Y-143408400D01*
X90948336Y-140441400D02*
X97505800Y-140441400D01*
X98348800Y-139598400D02*
X103784400Y-139598400D01*
X90910236Y-140479500D02*
X90948336Y-140441400D01*
X86106000Y-144780000D02*
X90406500Y-140479500D01*
X103428800Y-142138400D02*
X104063800Y-141503400D01*
X98581010Y-139928600D02*
X97438010Y-141071600D01*
X104063800Y-140436600D02*
X103555800Y-139928600D01*
X102920800Y-142138400D02*
X103428800Y-142138400D01*
X103555800Y-139928600D02*
X98581010Y-139928600D01*
X104063800Y-141503400D02*
X104063800Y-140436600D01*
X97438010Y-141071600D02*
X97129600Y-141071600D01*
X84696128Y-137021528D02*
X84696128Y-137299872D01*
X80416400Y-149447500D02*
X80257900Y-149606000D01*
X80416400Y-141069217D02*
X80416400Y-149447500D01*
X84696128Y-137299872D02*
X84004900Y-137991100D01*
X84004900Y-137991100D02*
X83494517Y-137991100D01*
X83494517Y-137991100D02*
X80416400Y-141069217D01*
X96907600Y-158464000D02*
X97611543Y-157760057D01*
X85242400Y-158464000D02*
X96907600Y-158464000D01*
X97611543Y-157760057D02*
X97611543Y-154533468D01*
M02*
