M48
; DRILL file {KiCad 9.0.0} date 2025-05-02T09:45:37-0700
; FORMAT={-:-/ absolute / inch / decimal}
; #@! TF.CreationDate,2025-05-02T09:45:37-07:00
; #@! TF.GenerationSoftware,Kicad,Pcbnew,9.0.0
; #@! TF.FileFunction,Plated,1,6,PTH
FMAT,2
INCH
; #@! TA.AperFunction,Plated,PTH,ViaDrill
T1C0.0079
; #@! TA.AperFunction,Plated,PTH,ComponentDrill
T2C0.0197
; #@! TA.AperFunction,Plated,PTH,ComponentDrill
T3C0.0217
; #@! TA.AperFunction,Plated,PTH,ComponentDrill
T4C0.0394
; #@! TA.AperFunction,Plated,PTH,ComponentDrill
T5C0.0433
%
G90
G05
T1
X4.6837Y-3.1201
X4.7476Y-3.7972
X4.748Y-3.7087
X4.7587Y-3.3425
X4.7591Y-3.3012
X4.7594Y-3.2402
X4.7614Y-3.923
X4.8071Y-3.6591
X4.8089Y-3.8248
X4.8141Y-3.7096
X4.8417Y-3.7843
X4.8551Y-4.0059
X4.863Y-3.9134
X4.8736Y-3.1406
X4.8766Y-3.8539
X4.8807Y-3.7008
X4.8826Y-3.5442
X4.8827Y-3.6311
X4.8831Y-3.7902
X4.8909Y-3.2965
X4.9352Y-3.4018
X4.9604Y-3.4476
X4.9685Y-3.724
X4.9862Y-3.2157
X4.9862Y-3.565
X4.9866Y-4.0063
X4.9867Y-3.6224
X5.0135Y-3.4216
X5.0138Y-3.4579
X5.0209Y-3.2697
X5.0252Y-3.5717
X5.0307Y-3.517
X5.039Y-3.3684
X5.061Y-3.2126
X5.0827Y-3.8228
X5.0874Y-3.6331
X5.1069Y-3.6459
X5.1157Y-3.8244
X5.1212Y-3.448
X5.1579Y-3.7083
X5.178Y-3.1394
X5.2075Y-3.8209
X5.226Y-3.6453
X5.2413Y-3.3354
X5.2492Y-3.6201
X5.2508Y-3.2701
X5.2508Y-3.2701
X5.2606Y-3.2039
X5.2697Y-3.0362
X5.2799Y-3.4142
X5.3228Y-3.5799
X5.3266Y-3.4569
X5.3289Y-3.7768
X5.3476Y-3.7165
X5.352Y-4.002
X5.3599Y-3.8557
X5.3791Y-3.3886
X5.3791Y-3.4866
X5.4299Y-3.5697
X5.4301Y-3.7271
X5.4334Y-3.7502
X5.4354Y-3.7744
X5.4543Y-3.5732
X5.473Y-3.587
X5.4866Y-3.4854
X5.499Y-3.7498
X5.499Y-3.5817
X5.5176Y-3.5705
X5.5177Y-3.7618
X5.5263Y-3.8616
X5.5264Y-4.0803
X5.5272Y-3.9955
X5.5421Y-3.722
X5.5512Y-4.1453
X5.5579Y-3.1805
X5.5579Y-3.1805
X5.5638Y-3.3146
X5.5717Y-3.6713
X5.5737Y-3.7006
X5.5737Y-3.7506
X5.5833Y-3.1889
X5.5841Y-3.2524
X5.5841Y-3.2524
X5.5949Y-4.1465
X5.6053Y-3.3153
X5.6067Y-3.3539
X5.6146Y-3.8413
X5.6213Y-3.7754
X5.622Y-3.6469
X5.6283Y-3.3735
X5.6366Y-3.8197
X5.65Y-3.3539
X5.6929Y-3.8819
X5.6955Y-3.6356
X5.6991Y-3.8054
X5.7027Y-3.7332
X5.7032Y-3.5965
X5.7051Y-4.0803
X5.7063Y-3.6747
X5.7083Y-3.7541
X5.7094Y-3.5374
X5.713Y-3.6158
X5.7138Y-3.6543
X5.7144Y-3.5588
X5.7183Y-3.7151
X5.7216Y-3.6937
X5.7386Y-3.9815
X5.7724Y-3.2098
X5.7748Y-3.1146
X5.7933Y-4.0811
X5.7963Y-3.9963
X5.8248Y-3.5126
X5.8264Y-3.5902
X5.8268Y-3.2779
X5.8272Y-3.7315
X5.8303Y-3.315
X5.8453Y-3.4563
X5.8457Y-3.4161
X5.8731Y-3.4055
X5.8731Y-3.378
X5.8803Y-3.8981
X5.9037Y-3.2894
X5.9098Y-3.7039
X5.9103Y-3.7417
X5.9156Y-3.252
X5.9157Y-3.437
X5.9268Y-3.8744
X5.9469Y-3.5114
X5.9469Y-3.5906
X5.9717Y-4.0803
X5.9972Y-3.9461
X5.9999Y-3.7417
X6.0012Y-3.361
X6.0063Y-3.8748
X6.0079Y-3.5114
X6.012Y-3.2894
T2
X4.6539Y-3.2256
X4.6543Y-3.3138
X4.6811Y-4.0524
X4.7858Y-4.124
X4.8228Y-3.0618
X4.872Y-3.0618
X5.1256Y-3.0606
X5.1748Y-3.0606
T4
X4.9063Y-4.1157
X5.0406Y-4.1157
T5
X4.6827Y-3.4303
X4.6827Y-3.5303
X4.6827Y-3.6303
X4.6827Y-3.7303
X4.6827Y-3.8303
X4.6827Y-3.9303
X5.3823Y-3.0531
X5.4823Y-3.0531
X5.5823Y-3.0531
X5.6823Y-3.0531
X5.7823Y-3.0531
X5.8823Y-3.0531
T2
G00X5.1634Y-4.0478
M15
G01X5.1634Y-4.0734
M16
G05
G00X5.439Y-4.0478
M15
G01X5.439Y-4.0734
M16
G05
T3
G00X5.1959Y-3.9543
M15
G01X5.2096Y-3.9543
M16
G05
G00X5.3927Y-3.9543
M15
G01X5.4065Y-3.9543
M16
G05
M30
