%TF.GenerationSoftware,KiCad,Pcbnew,9.0.0*%
%TF.CreationDate,2025-05-02T09:45:38-07:00*%
%TF.ProjectId,OuterBoard_4.1,4f757465-7242-46f6-9172-645f342e312e,rev?*%
%TF.SameCoordinates,Original*%
%TF.FileFunction,Soldermask,Top*%
%TF.FilePolarity,Negative*%
%FSLAX46Y46*%
G04 Gerber Fmt 4.6, Leading zero omitted, Abs format (unit mm)*
G04 Created by KiCad (PCBNEW 9.0.0) date 2025-05-02 09:45:38*
%MOMM*%
%LPD*%
G01*
G04 APERTURE LIST*
G04 Aperture macros list*
%AMRoundRect*
0 Rectangle with rounded corners*
0 $1 Rounding radius*
0 $2 $3 $4 $5 $6 $7 $8 $9 X,Y pos of 4 corners*
0 Add a 4 corners polygon primitive as box body*
4,1,4,$2,$3,$4,$5,$6,$7,$8,$9,$2,$3,0*
0 Add four circle primitives for the rounded corners*
1,1,$1+$1,$2,$3*
1,1,$1+$1,$4,$5*
1,1,$1+$1,$6,$7*
1,1,$1+$1,$8,$9*
0 Add four rect primitives between the rounded corners*
20,1,$1+$1,$2,$3,$4,$5,0*
20,1,$1+$1,$4,$5,$6,$7,0*
20,1,$1+$1,$6,$7,$8,$9,0*
20,1,$1+$1,$8,$9,$2,$3,0*%
G04 Aperture macros list end*
%ADD10C,0.010000*%
%ADD11RoundRect,0.225000X0.250000X-0.225000X0.250000X0.225000X-0.250000X0.225000X-0.250000X-0.225000X0*%
%ADD12C,1.854000*%
%ADD13RoundRect,0.225000X0.225000X0.250000X-0.225000X0.250000X-0.225000X-0.250000X0.225000X-0.250000X0*%
%ADD14R,1.549400X0.558800*%
%ADD15RoundRect,0.140000X0.140000X0.170000X-0.140000X0.170000X-0.140000X-0.170000X0.140000X-0.170000X0*%
%ADD16RoundRect,0.140000X0.170000X-0.140000X0.170000X0.140000X-0.170000X0.140000X-0.170000X-0.140000X0*%
%ADD17R,0.850000X0.850000*%
%ADD18RoundRect,0.218750X-0.256250X0.218750X-0.256250X-0.218750X0.256250X-0.218750X0.256250X0.218750X0*%
%ADD19R,1.500000X1.000000*%
%ADD20RoundRect,0.135000X0.185000X-0.135000X0.185000X0.135000X-0.185000X0.135000X-0.185000X-0.135000X0*%
%ADD21RoundRect,0.102000X-0.984000X0.156000X-0.984000X-0.156000X0.984000X-0.156000X0.984000X0.156000X0*%
%ADD22RoundRect,0.102000X-0.984000X0.150000X-0.984000X-0.150000X0.984000X-0.150000X0.984000X0.150000X0*%
%ADD23RoundRect,0.125000X-0.125000X0.125000X-0.125000X-0.125000X0.125000X-0.125000X0.125000X0.125000X0*%
%ADD24RoundRect,0.225000X-0.225000X-0.250000X0.225000X-0.250000X0.225000X0.250000X-0.225000X0.250000X0*%
%ADD25RoundRect,0.135000X-0.185000X0.135000X-0.185000X-0.135000X0.185000X-0.135000X0.185000X0.135000X0*%
%ADD26RoundRect,0.135000X-0.135000X-0.185000X0.135000X-0.185000X0.135000X0.185000X-0.135000X0.185000X0*%
%ADD27RoundRect,0.147500X0.147500X0.172500X-0.147500X0.172500X-0.147500X-0.172500X0.147500X-0.172500X0*%
%ADD28RoundRect,0.250000X0.262500X0.450000X-0.262500X0.450000X-0.262500X-0.450000X0.262500X-0.450000X0*%
%ADD29R,2.000000X2.000000*%
%ADD30C,0.850000*%
%ADD31RoundRect,0.140000X-0.140000X-0.170000X0.140000X-0.170000X0.140000X0.170000X-0.140000X0.170000X0*%
%ADD32RoundRect,0.135000X0.135000X0.185000X-0.135000X0.185000X-0.135000X-0.185000X0.135000X-0.185000X0*%
%ADD33RoundRect,0.102000X-0.150000X-0.747000X0.150000X-0.747000X0.150000X0.747000X-0.150000X0.747000X0*%
%ADD34RoundRect,0.102000X-0.728000X-0.150000X0.728000X-0.150000X0.728000X0.150000X-0.728000X0.150000X0*%
%ADD35RoundRect,0.225000X-0.250000X0.225000X-0.250000X-0.225000X0.250000X-0.225000X0.250000X0.225000X0*%
%ADD36RoundRect,0.125000X-0.125000X-0.125000X0.125000X-0.125000X0.125000X0.125000X-0.125000X0.125000X0*%
%ADD37RoundRect,0.102000X-0.200000X-0.675000X0.200000X-0.675000X0.200000X0.675000X-0.200000X0.675000X0*%
%ADD38RoundRect,0.102000X-0.750000X-0.775000X0.750000X-0.775000X0.750000X0.775000X-0.750000X0.775000X0*%
%ADD39O,1.504000X1.154000*%
%ADD40RoundRect,0.102000X0.550000X0.950000X-0.550000X0.950000X-0.550000X-0.950000X0.550000X-0.950000X0*%
%ADD41RoundRect,0.250000X0.475000X-0.250000X0.475000X0.250000X-0.475000X0.250000X-0.475000X-0.250000X0*%
%ADD42R,0.990600X0.711200*%
G04 APERTURE END LIST*
D10*
%TO.C,J10*%
X146106000Y-98720000D02*
X144306000Y-98720000D01*
X144306000Y-97920000D01*
X143956000Y-97920000D01*
X143956000Y-96420000D01*
X146106000Y-96420000D01*
X146106000Y-98720000D01*
G36*
X146106000Y-98720000D02*
G01*
X144306000Y-98720000D01*
X144306000Y-97920000D01*
X143956000Y-97920000D01*
X143956000Y-96420000D01*
X146106000Y-96420000D01*
X146106000Y-98720000D01*
G37*
X146106000Y-82720000D02*
X143956000Y-82720000D01*
X143956000Y-81220000D01*
X144306000Y-81220000D01*
X144306000Y-80420000D01*
X146106000Y-80420000D01*
X146106000Y-82720000D01*
G36*
X146106000Y-82720000D02*
G01*
X143956000Y-82720000D01*
X143956000Y-81220000D01*
X144306000Y-81220000D01*
X144306000Y-80420000D01*
X146106000Y-80420000D01*
X146106000Y-82720000D01*
G37*
X149967000Y-97921000D02*
X149617000Y-97921000D01*
X149617000Y-98721000D01*
X147817000Y-98721000D01*
X147817000Y-96421000D01*
X149967000Y-96421000D01*
X149967000Y-97921000D01*
G36*
X149967000Y-97921000D02*
G01*
X149617000Y-97921000D01*
X149617000Y-98721000D01*
X147817000Y-98721000D01*
X147817000Y-96421000D01*
X149967000Y-96421000D01*
X149967000Y-97921000D01*
G37*
X149617000Y-81221000D02*
X149967000Y-81221000D01*
X149967000Y-82721000D01*
X147817000Y-82721000D01*
X147817000Y-80421000D01*
X149617000Y-80421000D01*
X149617000Y-81221000D01*
G36*
X149617000Y-81221000D02*
G01*
X149967000Y-81221000D01*
X149967000Y-82721000D01*
X147817000Y-82721000D01*
X147817000Y-80421000D01*
X149617000Y-80421000D01*
X149617000Y-81221000D01*
G37*
%TO.C,J6*%
X132450000Y-104015000D02*
X131205000Y-104015000D01*
X131174000Y-104014000D01*
X131142000Y-104012000D01*
X131111000Y-104008000D01*
X131080000Y-104002000D01*
X131050000Y-103995000D01*
X131020000Y-103986000D01*
X130990000Y-103975000D01*
X130961000Y-103963000D01*
X130933000Y-103950000D01*
X130905000Y-103935000D01*
X130878000Y-103918000D01*
X130852000Y-103900000D01*
X130827000Y-103881000D01*
X130804000Y-103861000D01*
X130781000Y-103839000D01*
X130759000Y-103816000D01*
X130739000Y-103793000D01*
X130720000Y-103768000D01*
X130702000Y-103742000D01*
X130685000Y-103715000D01*
X130670000Y-103687000D01*
X130657000Y-103659000D01*
X130645000Y-103630000D01*
X130634000Y-103600000D01*
X130625000Y-103570000D01*
X130618000Y-103540000D01*
X130612000Y-103509000D01*
X130608000Y-103478000D01*
X130606000Y-103446000D01*
X130605000Y-103415000D01*
X130605000Y-102865000D01*
X130606000Y-102834000D01*
X130608000Y-102802000D01*
X130612000Y-102771000D01*
X130618000Y-102740000D01*
X130625000Y-102710000D01*
X130634000Y-102680000D01*
X130645000Y-102650000D01*
X130657000Y-102621000D01*
X130670000Y-102593000D01*
X130685000Y-102565000D01*
X130702000Y-102538000D01*
X130720000Y-102512000D01*
X130739000Y-102487000D01*
X130759000Y-102464000D01*
X130781000Y-102441000D01*
X130804000Y-102419000D01*
X130827000Y-102399000D01*
X130852000Y-102380000D01*
X130878000Y-102362000D01*
X130905000Y-102345000D01*
X130933000Y-102330000D01*
X130961000Y-102317000D01*
X130990000Y-102305000D01*
X131020000Y-102294000D01*
X131050000Y-102285000D01*
X131080000Y-102278000D01*
X131111000Y-102272000D01*
X131142000Y-102268000D01*
X131174000Y-102266000D01*
X131205000Y-102265000D01*
X132450000Y-102265000D01*
X132450000Y-104015000D01*
G36*
X132450000Y-104015000D02*
G01*
X131205000Y-104015000D01*
X131174000Y-104014000D01*
X131142000Y-104012000D01*
X131111000Y-104008000D01*
X131080000Y-104002000D01*
X131050000Y-103995000D01*
X131020000Y-103986000D01*
X130990000Y-103975000D01*
X130961000Y-103963000D01*
X130933000Y-103950000D01*
X130905000Y-103935000D01*
X130878000Y-103918000D01*
X130852000Y-103900000D01*
X130827000Y-103881000D01*
X130804000Y-103861000D01*
X130781000Y-103839000D01*
X130759000Y-103816000D01*
X130739000Y-103793000D01*
X130720000Y-103768000D01*
X130702000Y-103742000D01*
X130685000Y-103715000D01*
X130670000Y-103687000D01*
X130657000Y-103659000D01*
X130645000Y-103630000D01*
X130634000Y-103600000D01*
X130625000Y-103570000D01*
X130618000Y-103540000D01*
X130612000Y-103509000D01*
X130608000Y-103478000D01*
X130606000Y-103446000D01*
X130605000Y-103415000D01*
X130605000Y-102865000D01*
X130606000Y-102834000D01*
X130608000Y-102802000D01*
X130612000Y-102771000D01*
X130618000Y-102740000D01*
X130625000Y-102710000D01*
X130634000Y-102680000D01*
X130645000Y-102650000D01*
X130657000Y-102621000D01*
X130670000Y-102593000D01*
X130685000Y-102565000D01*
X130702000Y-102538000D01*
X130720000Y-102512000D01*
X130739000Y-102487000D01*
X130759000Y-102464000D01*
X130781000Y-102441000D01*
X130804000Y-102419000D01*
X130827000Y-102399000D01*
X130852000Y-102380000D01*
X130878000Y-102362000D01*
X130905000Y-102345000D01*
X130933000Y-102330000D01*
X130961000Y-102317000D01*
X130990000Y-102305000D01*
X131020000Y-102294000D01*
X131050000Y-102285000D01*
X131080000Y-102278000D01*
X131111000Y-102272000D01*
X131142000Y-102268000D01*
X131174000Y-102266000D01*
X131205000Y-102265000D01*
X132450000Y-102265000D01*
X132450000Y-104015000D01*
G37*
X138126000Y-102266000D02*
X138158000Y-102268000D01*
X138189000Y-102272000D01*
X138220000Y-102278000D01*
X138250000Y-102285000D01*
X138280000Y-102294000D01*
X138310000Y-102305000D01*
X138339000Y-102317000D01*
X138367000Y-102330000D01*
X138395000Y-102345000D01*
X138422000Y-102362000D01*
X138448000Y-102380000D01*
X138473000Y-102399000D01*
X138496000Y-102419000D01*
X138519000Y-102441000D01*
X138541000Y-102464000D01*
X138561000Y-102487000D01*
X138580000Y-102512000D01*
X138598000Y-102538000D01*
X138615000Y-102565000D01*
X138630000Y-102593000D01*
X138643000Y-102621000D01*
X138655000Y-102650000D01*
X138666000Y-102680000D01*
X138675000Y-102710000D01*
X138682000Y-102740000D01*
X138688000Y-102771000D01*
X138692000Y-102802000D01*
X138694000Y-102834000D01*
X138695000Y-102865000D01*
X138695000Y-103415000D01*
X138694000Y-103446000D01*
X138692000Y-103478000D01*
X138688000Y-103509000D01*
X138682000Y-103540000D01*
X138675000Y-103570000D01*
X138666000Y-103600000D01*
X138655000Y-103630000D01*
X138643000Y-103659000D01*
X138630000Y-103687000D01*
X138615000Y-103715000D01*
X138598000Y-103742000D01*
X138580000Y-103768000D01*
X138561000Y-103793000D01*
X138541000Y-103816000D01*
X138519000Y-103839000D01*
X138496000Y-103861000D01*
X138473000Y-103881000D01*
X138448000Y-103900000D01*
X138422000Y-103918000D01*
X138395000Y-103935000D01*
X138367000Y-103950000D01*
X138339000Y-103963000D01*
X138310000Y-103975000D01*
X138280000Y-103986000D01*
X138250000Y-103995000D01*
X138220000Y-104002000D01*
X138189000Y-104008000D01*
X138158000Y-104012000D01*
X138126000Y-104014000D01*
X138095000Y-104015000D01*
X136850000Y-104015000D01*
X136850000Y-102265000D01*
X138095000Y-102265000D01*
X138126000Y-102266000D01*
G36*
X138126000Y-102266000D02*
G01*
X138158000Y-102268000D01*
X138189000Y-102272000D01*
X138220000Y-102278000D01*
X138250000Y-102285000D01*
X138280000Y-102294000D01*
X138310000Y-102305000D01*
X138339000Y-102317000D01*
X138367000Y-102330000D01*
X138395000Y-102345000D01*
X138422000Y-102362000D01*
X138448000Y-102380000D01*
X138473000Y-102399000D01*
X138496000Y-102419000D01*
X138519000Y-102441000D01*
X138541000Y-102464000D01*
X138561000Y-102487000D01*
X138580000Y-102512000D01*
X138598000Y-102538000D01*
X138615000Y-102565000D01*
X138630000Y-102593000D01*
X138643000Y-102621000D01*
X138655000Y-102650000D01*
X138666000Y-102680000D01*
X138675000Y-102710000D01*
X138682000Y-102740000D01*
X138688000Y-102771000D01*
X138692000Y-102802000D01*
X138694000Y-102834000D01*
X138695000Y-102865000D01*
X138695000Y-103415000D01*
X138694000Y-103446000D01*
X138692000Y-103478000D01*
X138688000Y-103509000D01*
X138682000Y-103540000D01*
X138675000Y-103570000D01*
X138666000Y-103600000D01*
X138655000Y-103630000D01*
X138643000Y-103659000D01*
X138630000Y-103687000D01*
X138615000Y-103715000D01*
X138598000Y-103742000D01*
X138580000Y-103768000D01*
X138561000Y-103793000D01*
X138541000Y-103816000D01*
X138519000Y-103839000D01*
X138496000Y-103861000D01*
X138473000Y-103881000D01*
X138448000Y-103900000D01*
X138422000Y-103918000D01*
X138395000Y-103935000D01*
X138367000Y-103950000D01*
X138339000Y-103963000D01*
X138310000Y-103975000D01*
X138280000Y-103986000D01*
X138250000Y-103995000D01*
X138220000Y-104002000D01*
X138189000Y-104008000D01*
X138158000Y-104012000D01*
X138126000Y-104014000D01*
X138095000Y-104015000D01*
X136850000Y-104015000D01*
X136850000Y-102265000D01*
X138095000Y-102265000D01*
X138126000Y-102266000D01*
G37*
%TD*%
D11*
%TO.C,C32*%
X135850000Y-91735000D03*
X135850000Y-90185000D03*
%TD*%
D12*
%TO.C,J2*%
X136710000Y-77550000D03*
X139250000Y-77550000D03*
X141790000Y-77550000D03*
X144330000Y-77550000D03*
X146870000Y-77550000D03*
X149410000Y-77550000D03*
%TD*%
D13*
%TO.C,C12*%
X146345000Y-96620000D03*
X144795000Y-96620000D03*
%TD*%
D14*
%TO.C,U2*%
X141572200Y-97805000D03*
X141572200Y-96535000D03*
X141572200Y-95265000D03*
X141572200Y-93995000D03*
X134307800Y-93995000D03*
X134307800Y-95265000D03*
X134307800Y-96535000D03*
X134307800Y-97805000D03*
%TD*%
D15*
%TO.C,R13*%
X140990000Y-105290000D03*
X140030000Y-105290000D03*
%TD*%
D16*
%TO.C,C31*%
X132827000Y-84032200D03*
X132827000Y-83072200D03*
%TD*%
D17*
%TO.C,TP3*%
X118220000Y-84170000D03*
%TD*%
D18*
%TO.C,D8*%
X122990000Y-96122500D03*
X122990000Y-97697500D03*
%TD*%
D17*
%TO.C,TP5*%
X118210000Y-81930000D03*
%TD*%
D19*
%TO.C,JP2*%
X119370000Y-79280000D03*
X119370000Y-77980000D03*
%TD*%
D20*
%TO.C,R6*%
X144540000Y-82470000D03*
X144540000Y-81450000D03*
%TD*%
D21*
%TO.C,J10*%
X146590000Y-83826000D03*
D22*
X146590000Y-84320000D03*
X146590000Y-84820000D03*
X146590000Y-85320000D03*
X146590000Y-85820000D03*
X146590000Y-86320000D03*
X146590000Y-86820000D03*
X146590000Y-87320000D03*
X146590000Y-87820000D03*
X146590000Y-88320000D03*
X146590000Y-88820000D03*
X146590000Y-89320000D03*
X146590000Y-89820000D03*
X146590000Y-90320000D03*
X146590000Y-90820000D03*
X146590000Y-91320000D03*
X146590000Y-91820000D03*
X146590000Y-92320000D03*
X146590000Y-92820000D03*
X146590000Y-93320000D03*
X146590000Y-93820000D03*
X146590000Y-94320000D03*
X146590000Y-94820000D03*
X146590000Y-95320000D03*
%TD*%
D23*
%TO.C,D2*%
X121890000Y-85922500D03*
X121890000Y-88122500D03*
%TD*%
D24*
%TO.C,C42*%
X122420000Y-94270000D03*
X123970000Y-94270000D03*
%TD*%
D23*
%TO.C,D3*%
X121880000Y-82372500D03*
X121880000Y-84572500D03*
%TD*%
D25*
%TO.C,R7*%
X144560000Y-83540000D03*
X144560000Y-84560000D03*
%TD*%
D18*
%TO.C,D13*%
X128790000Y-96482500D03*
X128790000Y-98057500D03*
%TD*%
D26*
%TO.C,R25*%
X128310000Y-99500000D03*
X129330000Y-99500000D03*
%TD*%
D27*
%TO.C,L2*%
X140330000Y-88530000D03*
X139360000Y-88530000D03*
%TD*%
D16*
%TO.C,C30*%
X127543800Y-84009400D03*
X127543800Y-83049400D03*
%TD*%
D28*
%TO.C,R8*%
X142782500Y-81710000D03*
X140957500Y-81710000D03*
%TD*%
D15*
%TO.C,C29*%
X130730000Y-91640000D03*
X129770000Y-91640000D03*
%TD*%
D13*
%TO.C,C14*%
X146350000Y-98350000D03*
X144800000Y-98350000D03*
%TD*%
D29*
%TO.C,TP1*%
X124620000Y-104540000D03*
%TD*%
D17*
%TO.C,TP6*%
X121560000Y-104750000D03*
%TD*%
%TO.C,J3*%
X123750000Y-77770000D03*
D30*
X122500000Y-77770000D03*
%TD*%
D16*
%TO.C,C2*%
X124760000Y-88250000D03*
X124760000Y-87290000D03*
%TD*%
D25*
%TO.C,R22*%
X126370000Y-87370000D03*
X126370000Y-88390000D03*
%TD*%
%TO.C,R31*%
X131010000Y-94190000D03*
X131010000Y-95210000D03*
%TD*%
%TO.C,R9*%
X143070000Y-83250000D03*
X143070000Y-84270000D03*
%TD*%
D17*
%TO.C,J4*%
X131440000Y-77740000D03*
D30*
X130190000Y-77740000D03*
%TD*%
D31*
%TO.C,R14*%
X142100000Y-105320000D03*
X143060000Y-105320000D03*
%TD*%
D29*
%TO.C,TP2*%
X128030000Y-104540000D03*
%TD*%
D32*
%TO.C,R18*%
X134344800Y-91935400D03*
X133324800Y-91935400D03*
%TD*%
D33*
%TO.C,U8*%
X129010000Y-86009200D03*
D34*
X128432000Y-87306200D03*
X128432000Y-87806200D03*
X128432000Y-88306200D03*
X128432000Y-88806200D03*
D33*
X129010000Y-90103200D03*
X129510000Y-90103200D03*
X130010000Y-90103200D03*
X130510000Y-90103200D03*
X131010000Y-90103200D03*
X131510000Y-90103200D03*
X132010000Y-90103200D03*
X132510000Y-90103200D03*
X133010000Y-90103200D03*
X133510000Y-90103200D03*
D34*
X134088000Y-88806200D03*
X134088000Y-88306200D03*
X134088000Y-87806200D03*
X134088000Y-87306200D03*
D33*
X133510000Y-86009200D03*
X133010000Y-86009200D03*
X132510000Y-86009200D03*
X132010000Y-86009200D03*
X131510000Y-86009200D03*
X131010000Y-86009200D03*
X130510000Y-86009200D03*
X130010000Y-86009200D03*
X129510000Y-86009200D03*
%TD*%
D35*
%TO.C,C38*%
X136670000Y-93705000D03*
X136670000Y-95255000D03*
%TD*%
D32*
%TO.C,R16*%
X126750000Y-89540000D03*
X125730000Y-89540000D03*
%TD*%
D17*
%TO.C,TP4*%
X118900000Y-102930000D03*
%TD*%
D36*
%TO.C,D1*%
X121840000Y-92220000D03*
X124040000Y-92220000D03*
%TD*%
D11*
%TO.C,C44*%
X132270000Y-98605000D03*
X132270000Y-97055000D03*
%TD*%
D25*
%TO.C,R23*%
X124560000Y-96900000D03*
X124560000Y-97920000D03*
%TD*%
D36*
%TO.C,D5*%
X124580000Y-99570000D03*
X126780000Y-99570000D03*
%TD*%
D32*
%TO.C,R17*%
X128770000Y-91640000D03*
X127750000Y-91640000D03*
%TD*%
D36*
%TO.C,D6*%
X121842500Y-89970000D03*
X124042500Y-89970000D03*
%TD*%
D37*
%TO.C,J6*%
X133350000Y-100465000D03*
X134000000Y-100465000D03*
X134650000Y-100465000D03*
X135300000Y-100465000D03*
X135950000Y-100465000D03*
D38*
X135650000Y-103140000D03*
X133650000Y-103140000D03*
D39*
X132150000Y-100440000D03*
X137150000Y-100440000D03*
%TD*%
D40*
%TO.C,Y1*%
X131550000Y-83770000D03*
X129050000Y-83770000D03*
%TD*%
D41*
%TO.C,C1*%
X124230000Y-85630000D03*
X124230000Y-83730000D03*
%TD*%
D42*
%TO.C,SW3*%
X140389999Y-101485001D03*
X144890001Y-101485001D03*
X140389999Y-103634999D03*
X144890001Y-103634999D03*
%TD*%
D19*
%TO.C,JP1*%
X122040000Y-100940000D03*
X122040000Y-99640000D03*
%TD*%
D23*
%TO.C,D4*%
X126200000Y-94600000D03*
X126200000Y-96800000D03*
%TD*%
D42*
%TO.C,SW1*%
X147160799Y-101506501D03*
X151660801Y-101506501D03*
X147160799Y-103656499D03*
X151660801Y-103656499D03*
%TD*%
D16*
%TO.C,C28*%
X127840400Y-86370200D03*
X127840400Y-85410200D03*
%TD*%
D12*
%TO.C,J1*%
X118940000Y-99830000D03*
X118940000Y-97290000D03*
X118940000Y-94750000D03*
X118940000Y-92210000D03*
X118940000Y-89670000D03*
X118940000Y-87130000D03*
%TD*%
M02*
