%TF.GenerationSoftware,KiCad,Pcbnew,9.0.0*%
%TF.CreationDate,2025-05-02T09:45:38-07:00*%
%TF.ProjectId,OuterBoard_4.1,4f757465-7242-46f6-9172-645f342e312e,rev?*%
%TF.SameCoordinates,Original*%
%TF.FileFunction,Copper,L5,Inr*%
%TF.FilePolarity,Positive*%
%FSLAX46Y46*%
G04 Gerber Fmt 4.6, Leading zero omitted, Abs format (unit mm)*
G04 Created by KiCad (PCBNEW 9.0.0) date 2025-05-02 09:45:38*
%MOMM*%
%LPD*%
G01*
G04 APERTURE LIST*
G04 Aperture macros list*
%AMFreePoly0*
4,1,123,1.203536,0.778536,1.205000,0.775000,1.205000,-0.775000,1.203536,-0.778536,1.200000,-0.780000,0.055000,-0.780000,0.054808,-0.779996,0.028808,-0.778996,0.028617,-0.778985,0.002617,-0.776985,0.002427,-0.776967,-0.023573,-0.773967,-0.023944,-0.773910,-0.049944,-0.768910,-0.050167,-0.768862,-0.075167,-0.762862,-0.075300,-0.762828,-0.101300,-0.755828,-0.101756,-0.755682,-0.125756,-0.746682,
-0.125923,-0.746615,-0.149923,-0.736615,-0.150083,-0.736545,-0.174083,-0.725545,-0.174460,-0.725353,-0.197460,-0.712353,-0.197684,-0.712218,-0.241684,-0.684218,-0.242030,-0.683977,-0.263030,-0.667977,-0.263238,-0.667810,-0.283238,-0.650810,-0.283439,-0.650630,-0.302439,-0.632630,-0.302630,-0.632439,-0.320630,-0.613439,-0.320810,-0.613238,-0.337810,-0.593238,-0.337977,-0.593030,-0.353977,-0.572030,
-0.354218,-0.571684,-0.382218,-0.527684,-0.382353,-0.527460,-0.395353,-0.504460,-0.395545,-0.504083,-0.406545,-0.480083,-0.406615,-0.479923,-0.416615,-0.455923,-0.416682,-0.455756,-0.425682,-0.431756,-0.425828,-0.431300,-0.432828,-0.405300,-0.432862,-0.405167,-0.438862,-0.380167,-0.438910,-0.379944,-0.443910,-0.353944,-0.443967,-0.353573,-0.446967,-0.327573,-0.446985,-0.327383,-0.448985,-0.301383,
-0.448996,-0.301192,-0.449996,-0.275192,-0.450000,-0.275000,-0.450000,0.275000,-0.449996,0.275192,-0.448996,0.301192,-0.448985,0.301383,-0.446985,0.327383,-0.446967,0.327573,-0.443967,0.353573,-0.443910,0.353944,-0.438910,0.379944,-0.438862,0.380167,-0.432862,0.405167,-0.432828,0.405300,-0.425828,0.431300,-0.425682,0.431756,-0.416682,0.455756,-0.416615,0.455923,-0.406615,0.479923,
-0.406545,0.480083,-0.395545,0.504083,-0.395353,0.504460,-0.382353,0.527460,-0.382218,0.527684,-0.354218,0.571684,-0.353977,0.572030,-0.337977,0.593030,-0.337810,0.593238,-0.320810,0.613238,-0.320630,0.613439,-0.302630,0.632439,-0.302439,0.632630,-0.283439,0.650630,-0.283238,0.650810,-0.263238,0.667810,-0.263030,0.667977,-0.242030,0.683977,-0.241684,0.684218,-0.197684,0.712218,
-0.197460,0.712353,-0.174460,0.725353,-0.174083,0.725545,-0.150083,0.736545,-0.149923,0.736615,-0.125923,0.746615,-0.125756,0.746682,-0.101756,0.755682,-0.101300,0.755828,-0.075300,0.762828,-0.075167,0.762862,-0.050167,0.768862,-0.049944,0.768910,-0.023944,0.773910,-0.023573,0.773967,0.002427,0.776967,0.002617,0.776985,0.028617,0.778985,0.028808,0.778996,0.054808,0.779996,
0.055000,0.780000,1.200000,0.780000,1.203536,0.778536,1.203536,0.778536,$1*%
%AMFreePoly1*
4,1,123,-0.054808,0.779996,-0.028808,0.778996,-0.028617,0.778985,-0.002617,0.776985,-0.002427,0.776967,0.023573,0.773967,0.023944,0.773910,0.049944,0.768910,0.050167,0.768862,0.075167,0.762862,0.075300,0.762828,0.101300,0.755828,0.101756,0.755682,0.125756,0.746682,0.125923,0.746615,0.149923,0.736615,0.150083,0.736545,0.174083,0.725545,0.174460,0.725353,0.197460,0.712353,
0.197684,0.712218,0.241684,0.684218,0.242030,0.683977,0.263030,0.667977,0.263238,0.667810,0.283238,0.650810,0.283439,0.650630,0.302439,0.632630,0.302630,0.632439,0.320630,0.613439,0.320810,0.613238,0.337810,0.593238,0.337977,0.593030,0.353977,0.572030,0.354218,0.571684,0.382218,0.527684,0.382353,0.527460,0.395353,0.504460,0.395545,0.504083,0.406545,0.480083,
0.406615,0.479923,0.416615,0.455923,0.416682,0.455756,0.425682,0.431756,0.425828,0.431300,0.432828,0.405300,0.432862,0.405167,0.438862,0.380167,0.438910,0.379944,0.443910,0.353944,0.443967,0.353573,0.446967,0.327573,0.446985,0.327383,0.448985,0.301383,0.448996,0.301192,0.449996,0.275192,0.450000,0.275000,0.450000,-0.275000,0.449996,-0.275192,0.448996,-0.301192,
0.448985,-0.301383,0.446985,-0.327383,0.446967,-0.327573,0.443967,-0.353573,0.443910,-0.353944,0.438910,-0.379944,0.438862,-0.380167,0.432862,-0.405167,0.432828,-0.405300,0.425828,-0.431300,0.425682,-0.431756,0.416682,-0.455756,0.416615,-0.455923,0.406615,-0.479923,0.406545,-0.480083,0.395545,-0.504083,0.395353,-0.504460,0.382353,-0.527460,0.382218,-0.527684,0.354218,-0.571684,
0.353977,-0.572030,0.337977,-0.593030,0.337810,-0.593238,0.320810,-0.613238,0.320630,-0.613439,0.302630,-0.632439,0.302439,-0.632630,0.283439,-0.650630,0.283238,-0.650810,0.263238,-0.667810,0.263030,-0.667977,0.242030,-0.683977,0.241684,-0.684218,0.197684,-0.712218,0.197460,-0.712353,0.174460,-0.725353,0.174083,-0.725545,0.150083,-0.736545,0.149923,-0.736615,0.125923,-0.746615,
0.125756,-0.746682,0.101756,-0.755682,0.101300,-0.755828,0.075300,-0.762828,0.075167,-0.762862,0.050167,-0.768862,0.049944,-0.768910,0.023944,-0.773910,0.023573,-0.773967,-0.002427,-0.776967,-0.002617,-0.776985,-0.028617,-0.778985,-0.028808,-0.778996,-0.054808,-0.779996,-0.055000,-0.780000,-1.200000,-0.780000,-1.203536,-0.778536,-1.205000,-0.775000,-1.205000,0.775000,-1.203536,0.778536,
-1.200000,0.780000,-0.055000,0.780000,-0.054808,0.779996,-0.054808,0.779996,$1*%
G04 Aperture macros list end*
%TA.AperFunction,ComponentPad*%
%ADD10C,1.650000*%
%TD*%
%TA.AperFunction,ComponentPad*%
%ADD11R,0.850000X0.850000*%
%TD*%
%TA.AperFunction,ComponentPad*%
%ADD12R,2.000000X2.000000*%
%TD*%
%TA.AperFunction,ComponentPad*%
%ADD13C,0.850000*%
%TD*%
%TA.AperFunction,ComponentPad*%
%ADD14FreePoly0,0.000000*%
%TD*%
%TA.AperFunction,ComponentPad*%
%ADD15FreePoly1,0.000000*%
%TD*%
%TA.AperFunction,ComponentPad*%
%ADD16O,1.300000X0.950000*%
%TD*%
%TA.AperFunction,ViaPad*%
%ADD17C,0.300000*%
%TD*%
G04 APERTURE END LIST*
D10*
%TO.N,GND*%
%TO.C,J2*%
X136710000Y-77550000D03*
%TO.N,D8{slash}A8{slash}SCK*%
X139250000Y-77550000D03*
%TO.N,GND*%
X141790000Y-77550000D03*
%TO.N,D9{slash}A9{slash}MISO*%
X144330000Y-77550000D03*
%TO.N,D10{slash}A10{slash}MOSI*%
X146870000Y-77550000D03*
%TO.N,VAA*%
X149410000Y-77550000D03*
%TD*%
D11*
%TO.N,D1{slash}A1*%
%TO.C,TP3*%
X118220000Y-84170000D03*
%TD*%
%TO.N,D0{slash}A0*%
%TO.C,TP5*%
X118210000Y-81930000D03*
%TD*%
D12*
%TO.N,Net-(D1-K)*%
%TO.C,TP1*%
X124620000Y-104540000D03*
%TD*%
D11*
%TO.N,GND*%
%TO.C,TP6*%
X121560000Y-104750000D03*
%TD*%
%TO.N,+BATT1*%
%TO.C,J3*%
X123750000Y-77770000D03*
D13*
%TO.N,GNDPWR*%
X122500000Y-77770000D03*
%TD*%
D11*
%TO.N,+BATT2*%
%TO.C,J4*%
X131440000Y-77740000D03*
D13*
%TO.N,GNDPWR*%
X130190000Y-77740000D03*
%TD*%
D12*
%TO.N,Net-(D2-K)*%
%TO.C,TP2*%
X128030000Y-104540000D03*
%TD*%
D11*
%TO.N,+3.3V*%
%TO.C,TP4*%
X118900000Y-102930000D03*
%TD*%
D14*
%TO.N,unconnected-(J6-SHIELD-PadSH1)*%
%TO.C,J6*%
X131150000Y-103140000D03*
D15*
%TO.N,unconnected-(J6-SHIELD__3-PadSH4)*%
X138150000Y-103140000D03*
D16*
%TO.N,unconnected-(J6-SHIELD__4-PadSH5)*%
X132150000Y-100440000D03*
%TO.N,unconnected-(J6-SHIELD__5-PadSH6)*%
X137150000Y-100440000D03*
%TD*%
D10*
%TO.N,GNDPWR*%
%TO.C,J1*%
X118940000Y-99830000D03*
%TO.N,VAA*%
X118940000Y-97290000D03*
%TO.N,GPIO45*%
X118940000Y-94750000D03*
%TO.N,GNDPWR*%
X118940000Y-92210000D03*
%TO.N,VAA*%
X118940000Y-89670000D03*
%TO.N,GPIO46*%
X118940000Y-87130000D03*
%TD*%
D17*
%TO.N,GND*%
X150257000Y-82600000D03*
X146620000Y-81530000D03*
X141572200Y-93995000D03*
X152560000Y-98420000D03*
X151680000Y-103640000D03*
X136630000Y-88560000D03*
X136630000Y-86070000D03*
X127530000Y-83050000D03*
X147990000Y-91190000D03*
X126650000Y-90550000D03*
X141520000Y-93250000D03*
X151050000Y-89190000D03*
X130078000Y-87580000D03*
X135940000Y-101650000D03*
X133330000Y-91950000D03*
X135355000Y-95930000D03*
X148010000Y-94780000D03*
X132270000Y-97050000D03*
X144600000Y-98600000D03*
X120939998Y-99645000D03*
X144756624Y-96658376D03*
X123970000Y-93999598D03*
X152330000Y-100230000D03*
X133370000Y-83060000D03*
X148090000Y-84200000D03*
X147949002Y-89220000D03*
X133850000Y-77120000D03*
X127342038Y-86909301D03*
X120880000Y-83850000D03*
X126660000Y-101760000D03*
X123520000Y-99400000D03*
X150540000Y-98410000D03*
X135296200Y-87806200D03*
X148480000Y-86770000D03*
X129100000Y-97100000D03*
X120590000Y-96450000D03*
X150110000Y-94080000D03*
X141815938Y-80999062D03*
X151050000Y-91200000D03*
X129220000Y-92280000D03*
X122980000Y-96120000D03*
X144910000Y-103640000D03*
X118965000Y-79250000D03*
X128550000Y-81600000D03*
X147150000Y-103660000D03*
X140770000Y-94540000D03*
X129940000Y-97140000D03*
X127780000Y-89331202D03*
X146680000Y-79110000D03*
X140370000Y-103640000D03*
X133370000Y-83060000D03*
X123320000Y-101750000D03*
X152430000Y-85370000D03*
X127989606Y-85556242D03*
%TO.N,VCC*%
X126200000Y-94590000D03*
X124018969Y-90023849D03*
%TO.N,+2V8*%
X152704999Y-83550001D03*
X152600000Y-89190000D03*
%TO.N,VDC*%
X149954999Y-83550001D03*
X120890000Y-82300000D03*
X122145000Y-97150000D03*
X150122500Y-95040000D03*
X120600000Y-94200000D03*
%TO.N,Net-(D7-K)*%
X145760303Y-101130000D03*
%TO.N,+3.3V*%
X127640000Y-90720000D03*
X141170000Y-80785000D03*
X142110000Y-105320000D03*
X122279203Y-94225000D03*
X149359655Y-99011000D03*
X125995000Y-87570000D03*
X123865000Y-97890000D03*
X141000000Y-105290000D03*
X142800000Y-92630000D03*
X141835000Y-82610000D03*
X148000000Y-83257500D03*
X135200000Y-90930000D03*
X127350000Y-87831200D03*
X141835000Y-82610000D03*
X124030000Y-96270000D03*
X141170000Y-80785000D03*
%TO.N,CAM_RESET*%
X149177294Y-86500000D03*
%TO.N,+1V8*%
X152397500Y-95040000D03*
%TO.N,Net-(C38-Pad1)*%
X139360000Y-88530000D03*
X137920000Y-90670000D03*
%TO.N,Net-(D1-K)*%
X122100000Y-92940000D03*
X120870000Y-84900000D03*
%TO.N,Net-(FB1-Pad2)*%
X150260000Y-87300000D03*
%TO.N,USB_DP*%
X144990752Y-95354702D03*
%TO.N,USB_DN*%
X144848326Y-94823461D03*
%TO.N,MTDO{slash}IO40{slash}CAM_SDA*%
X137925000Y-94667463D03*
%TO.N,MTCK{slash}IO39{slash}CAM_SCL*%
X149177776Y-85800926D03*
X142958115Y-85686875D03*
X138009457Y-95254759D03*
%TO.N,IO38{slash}DVP_VSYNC*%
X138060000Y-95870000D03*
%TO.N,Net-(J10-Pad8)*%
X148470000Y-87790000D03*
%TO.N,IO47{slash}DVP_HREF*%
X139675000Y-95245002D03*
%TO.N,IO48{slash}DVP_Y9*%
X140150000Y-95550000D03*
%TO.N,IO10{slash}XMCLK*%
X145017514Y-89850000D03*
%TO.N,IO11{slash}DVP_Y8*%
X145145454Y-90393813D03*
%TO.N,IO12{slash}DVP_Y7*%
X144860510Y-91350510D03*
%TO.N,IO13{slash}DVP_PCLK*%
X145110891Y-91840216D03*
%TO.N,IO14{slash}DVP_Y6*%
X144665000Y-92345000D03*
%TO.N,IO15{slash}DVP_Y2*%
X145130000Y-92820000D03*
%TO.N,IO16{slash}DVP_Y5*%
X144940224Y-93336225D03*
%TO.N,IO17{slash}DVP_Y3*%
X145328807Y-93820000D03*
%TO.N,IO18{slash}DVP_Y4*%
X145245607Y-94363674D03*
%TO.N,CHIP_EN*%
X138540000Y-90760000D03*
X140389999Y-101485001D03*
%TO.N,BNO_SCL*%
X134110000Y-86720000D03*
X142375000Y-84209152D03*
%TO.N,BNO_SDA*%
X133130000Y-84720000D03*
X141320000Y-84190000D03*
%TO.N,BNO_INT*%
X132740000Y-92590000D03*
X142410000Y-85190000D03*
%TO.N,D1{slash}A1*%
X140146624Y-90691624D03*
%TO.N,D0{slash}A0*%
X139675188Y-90974910D03*
%TO.N,Net-(U9-U0TXD)*%
X131010000Y-94190000D03*
%TO.N,GPIO0*%
X139015000Y-91109474D03*
X147225000Y-101506501D03*
%TO.N,BNO_RST*%
X129715543Y-92605000D03*
X143510000Y-85190000D03*
%TO.N,VDD_SPI*%
X143170000Y-97020000D03*
%TO.N,SPIHD*%
X142780923Y-95895000D03*
%TO.N,SPIWP*%
X141572200Y-95265000D03*
%TO.N,SPICS0*%
X142610000Y-97570000D03*
%TO.N,SPICLK*%
X136140876Y-97935000D03*
%TO.N,SPIQ*%
X140369124Y-98085000D03*
%TO.N,SPID*%
X135830000Y-94400000D03*
%TO.N,GNDPWR*%
X133620000Y-81380000D03*
X126661447Y-92008553D03*
X125355000Y-86405000D03*
X124020000Y-92230000D03*
X123790000Y-79772500D03*
X131520000Y-79740000D03*
X124230000Y-83730000D03*
X126650000Y-81680000D03*
%TD*%
%TA.AperFunction,Conductor*%
%TO.N,GND*%
G36*
X133789724Y-75151096D02*
G01*
X133856761Y-75170784D01*
X133902514Y-75223590D01*
X133913710Y-75273761D01*
X133971424Y-80635016D01*
X133952462Y-80702264D01*
X133900154Y-80748584D01*
X133831106Y-80759272D01*
X133811442Y-80755014D01*
X133809740Y-80754497D01*
X133684071Y-80729500D01*
X133684069Y-80729500D01*
X133555931Y-80729500D01*
X133555929Y-80729500D01*
X133430261Y-80754497D01*
X133430255Y-80754499D01*
X133311875Y-80803533D01*
X133311866Y-80803538D01*
X133205331Y-80874723D01*
X133205327Y-80874726D01*
X133114726Y-80965327D01*
X133114723Y-80965331D01*
X133043538Y-81071866D01*
X133043533Y-81071875D01*
X132994499Y-81190255D01*
X132994497Y-81190261D01*
X132969500Y-81315928D01*
X132969500Y-81315931D01*
X132969500Y-81444069D01*
X132969500Y-81444071D01*
X132969499Y-81444071D01*
X132994497Y-81569738D01*
X132994499Y-81569744D01*
X133043533Y-81688124D01*
X133043538Y-81688133D01*
X133114723Y-81794668D01*
X133114726Y-81794672D01*
X133205327Y-81885273D01*
X133205331Y-81885276D01*
X133311866Y-81956461D01*
X133311872Y-81956464D01*
X133311873Y-81956465D01*
X133430256Y-82005501D01*
X133430260Y-82005501D01*
X133430261Y-82005502D01*
X133555928Y-82030500D01*
X133555931Y-82030500D01*
X133684071Y-82030500D01*
X133768615Y-82013682D01*
X133809744Y-82005501D01*
X133815917Y-82002943D01*
X133885385Y-81995471D01*
X133947866Y-82026742D01*
X133983521Y-82086829D01*
X133987368Y-82116167D01*
X134013766Y-84568347D01*
X133994804Y-84635595D01*
X133942496Y-84681915D01*
X133873448Y-84692603D01*
X133809584Y-84664264D01*
X133771179Y-84605896D01*
X133768156Y-84593874D01*
X133755502Y-84530261D01*
X133755501Y-84530260D01*
X133755501Y-84530256D01*
X133706465Y-84411873D01*
X133706464Y-84411872D01*
X133706461Y-84411866D01*
X133635276Y-84305331D01*
X133635273Y-84305327D01*
X133544672Y-84214726D01*
X133544668Y-84214723D01*
X133438133Y-84143538D01*
X133438124Y-84143533D01*
X133319744Y-84094499D01*
X133319738Y-84094497D01*
X133194071Y-84069500D01*
X133194069Y-84069500D01*
X133065931Y-84069500D01*
X133065929Y-84069500D01*
X132940261Y-84094497D01*
X132940255Y-84094499D01*
X132821875Y-84143533D01*
X132821866Y-84143538D01*
X132715331Y-84214723D01*
X132715327Y-84214726D01*
X132624726Y-84305327D01*
X132624723Y-84305331D01*
X132553538Y-84411866D01*
X132553533Y-84411875D01*
X132504499Y-84530255D01*
X132504497Y-84530261D01*
X132479500Y-84655928D01*
X132479500Y-84655931D01*
X132479500Y-84784069D01*
X132479500Y-84784071D01*
X132479499Y-84784071D01*
X132504497Y-84909738D01*
X132504499Y-84909744D01*
X132553533Y-85028124D01*
X132553538Y-85028133D01*
X132624723Y-85134668D01*
X132624726Y-85134672D01*
X132715327Y-85225273D01*
X132715331Y-85225276D01*
X132821866Y-85296461D01*
X132821872Y-85296464D01*
X132821873Y-85296465D01*
X132940256Y-85345501D01*
X132940260Y-85345501D01*
X132940261Y-85345502D01*
X133065928Y-85370500D01*
X133065931Y-85370500D01*
X133194071Y-85370500D01*
X133278615Y-85353682D01*
X133319744Y-85345501D01*
X133438127Y-85296465D01*
X133544669Y-85225276D01*
X133635276Y-85134669D01*
X133706465Y-85028127D01*
X133755501Y-84909744D01*
X133769275Y-84840500D01*
X133771226Y-84830692D01*
X133803611Y-84768781D01*
X133864327Y-84734207D01*
X133934096Y-84737946D01*
X133990768Y-84778813D01*
X134016349Y-84843831D01*
X134016836Y-84853548D01*
X134028852Y-85969796D01*
X134009890Y-86037044D01*
X133957582Y-86083364D01*
X133929059Y-86092747D01*
X133920259Y-86094497D01*
X133920257Y-86094498D01*
X133801875Y-86143533D01*
X133801866Y-86143538D01*
X133695331Y-86214723D01*
X133695327Y-86214726D01*
X133604726Y-86305327D01*
X133604723Y-86305331D01*
X133533538Y-86411866D01*
X133533533Y-86411875D01*
X133484499Y-86530255D01*
X133484497Y-86530261D01*
X133459500Y-86655928D01*
X133459500Y-86655931D01*
X133459500Y-86784069D01*
X133459500Y-86784071D01*
X133459499Y-86784071D01*
X133484497Y-86909738D01*
X133484499Y-86909744D01*
X133533533Y-87028124D01*
X133533538Y-87028133D01*
X133604723Y-87134668D01*
X133604726Y-87134672D01*
X133695327Y-87225273D01*
X133695331Y-87225276D01*
X133801866Y-87296461D01*
X133801872Y-87296464D01*
X133801873Y-87296465D01*
X133920256Y-87345501D01*
X133945207Y-87350464D01*
X134007117Y-87382847D01*
X134041693Y-87443562D01*
X134045010Y-87470746D01*
X134090000Y-91650000D01*
X138615471Y-91650000D01*
X138682510Y-91669685D01*
X138684362Y-91670897D01*
X138706873Y-91685939D01*
X138825256Y-91734975D01*
X138825260Y-91734975D01*
X138825261Y-91734976D01*
X138950928Y-91759974D01*
X138950931Y-91759974D01*
X139079071Y-91759974D01*
X139163615Y-91743156D01*
X139204744Y-91734975D01*
X139323127Y-91685939D01*
X139345639Y-91670897D01*
X139412317Y-91650020D01*
X139414529Y-91650000D01*
X140889999Y-91650000D01*
X140890000Y-91650000D01*
X140920024Y-87854071D01*
X147819499Y-87854071D01*
X147844497Y-87979738D01*
X147844499Y-87979744D01*
X147893533Y-88098124D01*
X147893538Y-88098133D01*
X147964723Y-88204668D01*
X147964726Y-88204672D01*
X148055327Y-88295273D01*
X148055331Y-88295276D01*
X148161866Y-88366461D01*
X148161872Y-88366464D01*
X148161873Y-88366465D01*
X148280256Y-88415501D01*
X148280260Y-88415501D01*
X148280261Y-88415502D01*
X148405928Y-88440500D01*
X148405931Y-88440500D01*
X148534071Y-88440500D01*
X148618615Y-88423682D01*
X148659744Y-88415501D01*
X148778127Y-88366465D01*
X148884669Y-88295276D01*
X148975276Y-88204669D01*
X149046465Y-88098127D01*
X149095501Y-87979744D01*
X149112305Y-87895269D01*
X149120500Y-87854071D01*
X149120500Y-87725928D01*
X149095502Y-87600261D01*
X149095501Y-87600260D01*
X149095501Y-87600256D01*
X149046465Y-87481873D01*
X149046464Y-87481872D01*
X149046461Y-87481866D01*
X148975276Y-87375331D01*
X148975273Y-87375327D01*
X148949412Y-87349466D01*
X148915927Y-87288143D01*
X148920911Y-87218451D01*
X148962783Y-87162518D01*
X149028247Y-87138101D01*
X149061283Y-87140167D01*
X149096148Y-87147103D01*
X149113224Y-87150500D01*
X149113225Y-87150500D01*
X149241365Y-87150500D01*
X149354530Y-87127989D01*
X149367038Y-87125501D01*
X149440882Y-87094913D01*
X149510347Y-87087445D01*
X149572827Y-87118719D01*
X149608480Y-87178808D01*
X149609849Y-87229841D01*
X149610097Y-87229866D01*
X149609903Y-87231834D01*
X149609952Y-87233654D01*
X149609500Y-87235926D01*
X149609500Y-87235931D01*
X149609500Y-87364069D01*
X149609500Y-87364071D01*
X149609499Y-87364071D01*
X149634497Y-87489738D01*
X149634499Y-87489744D01*
X149683533Y-87608124D01*
X149683538Y-87608133D01*
X149754723Y-87714668D01*
X149754726Y-87714672D01*
X149845327Y-87805273D01*
X149845331Y-87805276D01*
X149951866Y-87876461D01*
X149951872Y-87876464D01*
X149951873Y-87876465D01*
X150070256Y-87925501D01*
X150070260Y-87925501D01*
X150070261Y-87925502D01*
X150195928Y-87950500D01*
X150195931Y-87950500D01*
X150324071Y-87950500D01*
X150428740Y-87929679D01*
X150449744Y-87925501D01*
X150568127Y-87876465D01*
X150674669Y-87805276D01*
X150765276Y-87714669D01*
X150836465Y-87608127D01*
X150885501Y-87489744D01*
X150899209Y-87420831D01*
X150910500Y-87364071D01*
X150910500Y-87235928D01*
X150885502Y-87110261D01*
X150885501Y-87110260D01*
X150885501Y-87110256D01*
X150837155Y-86993538D01*
X150836466Y-86991875D01*
X150836461Y-86991866D01*
X150765276Y-86885331D01*
X150765273Y-86885327D01*
X150674672Y-86794726D01*
X150674668Y-86794723D01*
X150568133Y-86723538D01*
X150568124Y-86723533D01*
X150449744Y-86674499D01*
X150449738Y-86674497D01*
X150324071Y-86649500D01*
X150324069Y-86649500D01*
X150195931Y-86649500D01*
X150195929Y-86649500D01*
X150070261Y-86674497D01*
X150070251Y-86674500D01*
X149996413Y-86705085D01*
X149926944Y-86712554D01*
X149864465Y-86681278D01*
X149828813Y-86621189D01*
X149827447Y-86570158D01*
X149827197Y-86570134D01*
X149827393Y-86568138D01*
X149827345Y-86566328D01*
X149827794Y-86564071D01*
X149827794Y-86435928D01*
X149802796Y-86310261D01*
X149802795Y-86310260D01*
X149802795Y-86310256D01*
X149756503Y-86198497D01*
X149749034Y-86129027D01*
X149756503Y-86103591D01*
X149803277Y-85990670D01*
X149820992Y-85901612D01*
X149828276Y-85864997D01*
X149828276Y-85736854D01*
X149803278Y-85611187D01*
X149803277Y-85611186D01*
X149803277Y-85611182D01*
X149765350Y-85519618D01*
X149754242Y-85492801D01*
X149754237Y-85492792D01*
X149683052Y-85386257D01*
X149683049Y-85386253D01*
X149592448Y-85295652D01*
X149592444Y-85295649D01*
X149485909Y-85224464D01*
X149485900Y-85224459D01*
X149367520Y-85175425D01*
X149367514Y-85175423D01*
X149241847Y-85150426D01*
X149241845Y-85150426D01*
X149113707Y-85150426D01*
X149113705Y-85150426D01*
X148988037Y-85175423D01*
X148988031Y-85175425D01*
X148869651Y-85224459D01*
X148869642Y-85224464D01*
X148763107Y-85295649D01*
X148763103Y-85295652D01*
X148672502Y-85386253D01*
X148672499Y-85386257D01*
X148601314Y-85492792D01*
X148601309Y-85492801D01*
X148552275Y-85611181D01*
X148552273Y-85611187D01*
X148527276Y-85736854D01*
X148527276Y-85736857D01*
X148527276Y-85864995D01*
X148527276Y-85864997D01*
X148527275Y-85864997D01*
X148552273Y-85990664D01*
X148552276Y-85990674D01*
X148598566Y-86102429D01*
X148606035Y-86171898D01*
X148598566Y-86197333D01*
X148551794Y-86310251D01*
X148551791Y-86310261D01*
X148526794Y-86435928D01*
X148526794Y-86435931D01*
X148526794Y-86564069D01*
X148526794Y-86564071D01*
X148526793Y-86564071D01*
X148551791Y-86689738D01*
X148551793Y-86689744D01*
X148600827Y-86808124D01*
X148600832Y-86808133D01*
X148672017Y-86914668D01*
X148672020Y-86914672D01*
X148697881Y-86940533D01*
X148731366Y-87001856D01*
X148726382Y-87071548D01*
X148684510Y-87127481D01*
X148619046Y-87151898D01*
X148586008Y-87149831D01*
X148534071Y-87139500D01*
X148534069Y-87139500D01*
X148405931Y-87139500D01*
X148405929Y-87139500D01*
X148280261Y-87164497D01*
X148280255Y-87164499D01*
X148161875Y-87213533D01*
X148161866Y-87213538D01*
X148055331Y-87284723D01*
X148055327Y-87284726D01*
X147964726Y-87375327D01*
X147964723Y-87375331D01*
X147893538Y-87481866D01*
X147893533Y-87481875D01*
X147844499Y-87600255D01*
X147844497Y-87600261D01*
X147819500Y-87725928D01*
X147819500Y-87725931D01*
X147819500Y-87854069D01*
X147819500Y-87854071D01*
X147819499Y-87854071D01*
X140920024Y-87854071D01*
X140943210Y-84922614D01*
X140963423Y-84855739D01*
X141016587Y-84810403D01*
X141085822Y-84801007D01*
X141114657Y-84809040D01*
X141117948Y-84810403D01*
X141130256Y-84815501D01*
X141130260Y-84815501D01*
X141130261Y-84815502D01*
X141255928Y-84840500D01*
X141255931Y-84840500D01*
X141384071Y-84840500D01*
X141468615Y-84823682D01*
X141509744Y-84815501D01*
X141628127Y-84766465D01*
X141638353Y-84759631D01*
X141705030Y-84738753D01*
X141772410Y-84757236D01*
X141819102Y-84809214D01*
X141830280Y-84878183D01*
X141821807Y-84910185D01*
X141784500Y-85000251D01*
X141784497Y-85000261D01*
X141759500Y-85125928D01*
X141759500Y-85125931D01*
X141759500Y-85254069D01*
X141759500Y-85254071D01*
X141759499Y-85254071D01*
X141784497Y-85379738D01*
X141784499Y-85379744D01*
X141833533Y-85498124D01*
X141833538Y-85498133D01*
X141904723Y-85604668D01*
X141904726Y-85604672D01*
X141995327Y-85695273D01*
X141995331Y-85695276D01*
X142101866Y-85766461D01*
X142101872Y-85766464D01*
X142101873Y-85766465D01*
X142220256Y-85815501D01*
X142250107Y-85821438D01*
X142312018Y-85853823D01*
X142340477Y-85895603D01*
X142381648Y-85994998D01*
X142381653Y-85995008D01*
X142452838Y-86101543D01*
X142452841Y-86101547D01*
X142543442Y-86192148D01*
X142543446Y-86192151D01*
X142649981Y-86263336D01*
X142649990Y-86263341D01*
X142657600Y-86266493D01*
X142768371Y-86312376D01*
X142768375Y-86312376D01*
X142768376Y-86312377D01*
X142894043Y-86337375D01*
X142894046Y-86337375D01*
X143022186Y-86337375D01*
X143106730Y-86320557D01*
X143147859Y-86312376D01*
X143266242Y-86263340D01*
X143372784Y-86192151D01*
X143463391Y-86101544D01*
X143534580Y-85995002D01*
X143575415Y-85896416D01*
X143619253Y-85842018D01*
X143665781Y-85822256D01*
X143699744Y-85815501D01*
X143818127Y-85766465D01*
X143924669Y-85695276D01*
X144015276Y-85604669D01*
X144086465Y-85498127D01*
X144135501Y-85379744D01*
X144148446Y-85314668D01*
X144160500Y-85254071D01*
X144160500Y-85125928D01*
X144135502Y-85000261D01*
X144135501Y-85000260D01*
X144135501Y-85000256D01*
X144086465Y-84881873D01*
X144086464Y-84881872D01*
X144086461Y-84881866D01*
X144015276Y-84775331D01*
X144015273Y-84775327D01*
X143924672Y-84684726D01*
X143924668Y-84684723D01*
X143818133Y-84613538D01*
X143818124Y-84613533D01*
X143699744Y-84564499D01*
X143699738Y-84564497D01*
X143574071Y-84539500D01*
X143574069Y-84539500D01*
X143445931Y-84539500D01*
X143445929Y-84539500D01*
X143320261Y-84564497D01*
X143320255Y-84564499D01*
X143201875Y-84613533D01*
X143201866Y-84613538D01*
X143140393Y-84654614D01*
X143073715Y-84675492D01*
X143006335Y-84657007D01*
X142959645Y-84605029D01*
X142948469Y-84536059D01*
X142956941Y-84504059D01*
X142964700Y-84485327D01*
X143000501Y-84398896D01*
X143025246Y-84274499D01*
X143025500Y-84273223D01*
X143025500Y-84145080D01*
X143000502Y-84019413D01*
X143000501Y-84019412D01*
X143000501Y-84019408D01*
X142951465Y-83901025D01*
X142951464Y-83901024D01*
X142951461Y-83901018D01*
X142880276Y-83794483D01*
X142880273Y-83794479D01*
X142789672Y-83703878D01*
X142789668Y-83703875D01*
X142683133Y-83632690D01*
X142683124Y-83632685D01*
X142564744Y-83583651D01*
X142564738Y-83583649D01*
X142439071Y-83558652D01*
X142439069Y-83558652D01*
X142310931Y-83558652D01*
X142310929Y-83558652D01*
X142185261Y-83583649D01*
X142185255Y-83583651D01*
X142066875Y-83632685D01*
X142066866Y-83632690D01*
X141960331Y-83703875D01*
X141960327Y-83703878D01*
X141944757Y-83719449D01*
X141883434Y-83752934D01*
X141813742Y-83747950D01*
X141769395Y-83719449D01*
X141734672Y-83684726D01*
X141734668Y-83684723D01*
X141628133Y-83613538D01*
X141628124Y-83613533D01*
X141509744Y-83564499D01*
X141509738Y-83564497D01*
X141384071Y-83539500D01*
X141384069Y-83539500D01*
X141255931Y-83539500D01*
X141255929Y-83539500D01*
X141130261Y-83564497D01*
X141130256Y-83564499D01*
X141126297Y-83566139D01*
X141056827Y-83573605D01*
X140994349Y-83542328D01*
X140958699Y-83482238D01*
X140954853Y-83450607D01*
X140955874Y-83321571D01*
X147349499Y-83321571D01*
X147374497Y-83447238D01*
X147374499Y-83447244D01*
X147423533Y-83565624D01*
X147423538Y-83565633D01*
X147494723Y-83672168D01*
X147494726Y-83672172D01*
X147585327Y-83762773D01*
X147585331Y-83762776D01*
X147691866Y-83833961D01*
X147691872Y-83833964D01*
X147691873Y-83833965D01*
X147810256Y-83883001D01*
X147810260Y-83883001D01*
X147810261Y-83883002D01*
X147935928Y-83908000D01*
X147935931Y-83908000D01*
X148064071Y-83908000D01*
X148148615Y-83891182D01*
X148189744Y-83883001D01*
X148308127Y-83833965D01*
X148414669Y-83762776D01*
X148505276Y-83672169D01*
X148544095Y-83614072D01*
X149304498Y-83614072D01*
X149329496Y-83739739D01*
X149329498Y-83739745D01*
X149378532Y-83858125D01*
X149378537Y-83858134D01*
X149449722Y-83964669D01*
X149449725Y-83964673D01*
X149540326Y-84055274D01*
X149540330Y-84055277D01*
X149646865Y-84126462D01*
X149646871Y-84126465D01*
X149646872Y-84126466D01*
X149765255Y-84175502D01*
X149765259Y-84175502D01*
X149765260Y-84175503D01*
X149890927Y-84200501D01*
X149890930Y-84200501D01*
X150019070Y-84200501D01*
X150103614Y-84183683D01*
X150144743Y-84175502D01*
X150263126Y-84126466D01*
X150369668Y-84055277D01*
X150460275Y-83964670D01*
X150531464Y-83858128D01*
X150580500Y-83739745D01*
X150593759Y-83673091D01*
X150605499Y-83614072D01*
X152054498Y-83614072D01*
X152079496Y-83739739D01*
X152079498Y-83739745D01*
X152128532Y-83858125D01*
X152128537Y-83858134D01*
X152199722Y-83964669D01*
X152199725Y-83964673D01*
X152290326Y-84055274D01*
X152290330Y-84055277D01*
X152396865Y-84126462D01*
X152396871Y-84126465D01*
X152396872Y-84126466D01*
X152515255Y-84175502D01*
X152515259Y-84175502D01*
X152515260Y-84175503D01*
X152640927Y-84200501D01*
X152640930Y-84200501D01*
X152769070Y-84200501D01*
X152853614Y-84183683D01*
X152894743Y-84175502D01*
X153013126Y-84126466D01*
X153119668Y-84055277D01*
X153210275Y-83964670D01*
X153281464Y-83858128D01*
X153330500Y-83739745D01*
X153343759Y-83673091D01*
X153355499Y-83614072D01*
X153355499Y-83485929D01*
X153330501Y-83360262D01*
X153330500Y-83360261D01*
X153330500Y-83360257D01*
X153289179Y-83260500D01*
X153281465Y-83241876D01*
X153281460Y-83241867D01*
X153210275Y-83135332D01*
X153210272Y-83135328D01*
X153119671Y-83044727D01*
X153119667Y-83044724D01*
X153013132Y-82973539D01*
X153013123Y-82973534D01*
X152894743Y-82924500D01*
X152894737Y-82924498D01*
X152769070Y-82899501D01*
X152769068Y-82899501D01*
X152640930Y-82899501D01*
X152640928Y-82899501D01*
X152515260Y-82924498D01*
X152515254Y-82924500D01*
X152396874Y-82973534D01*
X152396865Y-82973539D01*
X152290330Y-83044724D01*
X152290326Y-83044727D01*
X152199725Y-83135328D01*
X152199722Y-83135332D01*
X152128537Y-83241867D01*
X152128532Y-83241876D01*
X152079498Y-83360256D01*
X152079496Y-83360262D01*
X152054499Y-83485929D01*
X152054499Y-83485932D01*
X152054499Y-83614070D01*
X152054499Y-83614072D01*
X152054498Y-83614072D01*
X150605499Y-83614072D01*
X150605499Y-83485929D01*
X150580501Y-83360262D01*
X150580500Y-83360261D01*
X150580500Y-83360257D01*
X150539179Y-83260500D01*
X150531465Y-83241876D01*
X150531460Y-83241867D01*
X150460275Y-83135332D01*
X150460272Y-83135328D01*
X150369671Y-83044727D01*
X150369667Y-83044724D01*
X150263132Y-82973539D01*
X150263123Y-82973534D01*
X150144743Y-82924500D01*
X150144737Y-82924498D01*
X150019070Y-82899501D01*
X150019068Y-82899501D01*
X149890930Y-82899501D01*
X149890928Y-82899501D01*
X149765260Y-82924498D01*
X149765254Y-82924500D01*
X149646874Y-82973534D01*
X149646865Y-82973539D01*
X149540330Y-83044724D01*
X149540326Y-83044727D01*
X149449725Y-83135328D01*
X149449722Y-83135332D01*
X149378537Y-83241867D01*
X149378532Y-83241876D01*
X149329498Y-83360256D01*
X149329496Y-83360262D01*
X149304499Y-83485929D01*
X149304499Y-83485932D01*
X149304499Y-83614070D01*
X149304499Y-83614072D01*
X149304498Y-83614072D01*
X148544095Y-83614072D01*
X148576465Y-83565627D01*
X148625501Y-83447244D01*
X148642804Y-83360257D01*
X148650500Y-83321571D01*
X148650500Y-83193428D01*
X148625502Y-83067761D01*
X148625501Y-83067760D01*
X148625501Y-83067756D01*
X148576465Y-82949373D01*
X148576464Y-82949372D01*
X148576461Y-82949366D01*
X148505276Y-82842831D01*
X148505273Y-82842827D01*
X148414672Y-82752226D01*
X148414668Y-82752223D01*
X148308133Y-82681038D01*
X148308124Y-82681033D01*
X148189744Y-82631999D01*
X148189738Y-82631997D01*
X148064071Y-82607000D01*
X148064069Y-82607000D01*
X147935931Y-82607000D01*
X147935929Y-82607000D01*
X147810261Y-82631997D01*
X147810255Y-82631999D01*
X147691875Y-82681033D01*
X147691866Y-82681038D01*
X147585331Y-82752223D01*
X147585327Y-82752226D01*
X147494726Y-82842827D01*
X147494723Y-82842831D01*
X147423538Y-82949366D01*
X147423533Y-82949375D01*
X147374499Y-83067755D01*
X147374497Y-83067761D01*
X147349500Y-83193428D01*
X147349500Y-83193431D01*
X147349500Y-83321569D01*
X147349500Y-83321571D01*
X147349499Y-83321571D01*
X140955874Y-83321571D01*
X140959973Y-82803276D01*
X140980186Y-82736401D01*
X141033350Y-82691065D01*
X141102585Y-82681669D01*
X141165909Y-82711195D01*
X141203218Y-82770270D01*
X141205585Y-82780070D01*
X141209497Y-82799739D01*
X141209499Y-82799744D01*
X141258533Y-82918124D01*
X141258538Y-82918133D01*
X141329723Y-83024668D01*
X141329726Y-83024672D01*
X141420327Y-83115273D01*
X141420331Y-83115276D01*
X141526866Y-83186461D01*
X141526872Y-83186464D01*
X141526873Y-83186465D01*
X141645256Y-83235501D01*
X141645260Y-83235501D01*
X141645261Y-83235502D01*
X141770928Y-83260500D01*
X141770931Y-83260500D01*
X141899071Y-83260500D01*
X141983615Y-83243682D01*
X142024744Y-83235501D01*
X142143127Y-83186465D01*
X142249669Y-83115276D01*
X142249672Y-83115273D01*
X142265288Y-83099658D01*
X142340273Y-83024672D01*
X142340276Y-83024669D01*
X142411465Y-82918127D01*
X142460501Y-82799744D01*
X142473101Y-82736401D01*
X142485500Y-82674071D01*
X142485500Y-82545928D01*
X142460502Y-82420261D01*
X142460501Y-82420260D01*
X142460501Y-82420256D01*
X142412968Y-82305501D01*
X142411466Y-82301875D01*
X142411461Y-82301866D01*
X142340276Y-82195331D01*
X142340273Y-82195327D01*
X142249672Y-82104726D01*
X142249668Y-82104723D01*
X142143133Y-82033538D01*
X142143124Y-82033533D01*
X142024744Y-81984499D01*
X142024738Y-81984497D01*
X141899071Y-81959500D01*
X141899069Y-81959500D01*
X141770931Y-81959500D01*
X141770929Y-81959500D01*
X141645261Y-81984497D01*
X141645255Y-81984499D01*
X141526875Y-82033533D01*
X141526866Y-82033538D01*
X141420331Y-82104723D01*
X141420327Y-82104726D01*
X141329726Y-82195327D01*
X141329723Y-82195331D01*
X141258538Y-82301866D01*
X141258533Y-82301875D01*
X141209499Y-82420255D01*
X141209496Y-82420265D01*
X141208783Y-82423850D01*
X141207892Y-82425551D01*
X141207730Y-82426088D01*
X141207628Y-82426057D01*
X141176392Y-82485758D01*
X141115673Y-82520326D01*
X141045903Y-82516580D01*
X140989235Y-82475708D01*
X140963660Y-82410687D01*
X140963173Y-82398705D01*
X140969823Y-81557919D01*
X140990036Y-81491045D01*
X141043200Y-81445709D01*
X141099839Y-81436501D01*
X141099839Y-81435500D01*
X141234071Y-81435500D01*
X141318615Y-81418682D01*
X141359744Y-81410501D01*
X141478127Y-81361465D01*
X141584669Y-81290276D01*
X141675276Y-81199669D01*
X141746465Y-81093127D01*
X141795501Y-80974744D01*
X141803682Y-80933615D01*
X141820500Y-80849071D01*
X141820500Y-80720928D01*
X141795502Y-80595261D01*
X141795501Y-80595260D01*
X141795501Y-80595256D01*
X141746465Y-80476873D01*
X141746464Y-80476872D01*
X141746461Y-80476866D01*
X141675276Y-80370331D01*
X141675273Y-80370327D01*
X141584672Y-80279726D01*
X141584668Y-80279723D01*
X141478133Y-80208538D01*
X141478124Y-80208533D01*
X141359744Y-80159499D01*
X141359738Y-80159497D01*
X141234071Y-80134500D01*
X141234069Y-80134500D01*
X141106066Y-80134500D01*
X141039027Y-80114815D01*
X140993272Y-80062011D01*
X140982070Y-80009523D01*
X140991388Y-78831530D01*
X141011601Y-78764654D01*
X141064765Y-78719318D01*
X141134000Y-78709922D01*
X141171678Y-78722031D01*
X141281372Y-78777924D01*
X141479727Y-78842373D01*
X141685721Y-78875000D01*
X141894279Y-78875000D01*
X142100272Y-78842373D01*
X142298627Y-78777924D01*
X142484451Y-78683240D01*
X142533818Y-78647372D01*
X142533818Y-78647371D01*
X141960234Y-78073787D01*
X142002292Y-78062518D01*
X142127708Y-77990110D01*
X142230110Y-77887708D01*
X142302518Y-77762292D01*
X142313787Y-77720234D01*
X142887371Y-78293818D01*
X142887372Y-78293818D01*
X142923242Y-78244449D01*
X142923242Y-78244448D01*
X142949233Y-78193438D01*
X142997206Y-78142642D01*
X143065027Y-78125846D01*
X143131162Y-78148383D01*
X143170203Y-78193437D01*
X143180102Y-78212864D01*
X143196330Y-78244714D01*
X143318965Y-78413505D01*
X143466495Y-78561035D01*
X143635286Y-78683670D01*
X143686809Y-78709922D01*
X143821179Y-78778387D01*
X143821181Y-78778387D01*
X143821184Y-78778389D01*
X143927545Y-78812948D01*
X144019610Y-78842862D01*
X144225676Y-78875500D01*
X144225681Y-78875500D01*
X144434324Y-78875500D01*
X144640389Y-78842862D01*
X144675265Y-78831530D01*
X144838816Y-78778389D01*
X145024714Y-78683670D01*
X145193505Y-78561035D01*
X145341035Y-78413505D01*
X145463670Y-78244714D01*
X145489515Y-78193990D01*
X145537489Y-78143194D01*
X145605310Y-78126398D01*
X145671445Y-78148935D01*
X145710485Y-78193990D01*
X145736328Y-78244712D01*
X145807737Y-78342996D01*
X145858965Y-78413505D01*
X146006495Y-78561035D01*
X146175286Y-78683670D01*
X146226809Y-78709922D01*
X146361179Y-78778387D01*
X146361181Y-78778387D01*
X146361184Y-78778389D01*
X146467545Y-78812948D01*
X146559610Y-78842862D01*
X146765676Y-78875500D01*
X146765681Y-78875500D01*
X146974324Y-78875500D01*
X147180389Y-78842862D01*
X147215265Y-78831530D01*
X147378816Y-78778389D01*
X147564714Y-78683670D01*
X147733505Y-78561035D01*
X147881035Y-78413505D01*
X148003670Y-78244714D01*
X148029515Y-78193990D01*
X148077489Y-78143194D01*
X148145310Y-78126398D01*
X148211445Y-78148935D01*
X148250485Y-78193990D01*
X148276328Y-78244712D01*
X148347737Y-78342996D01*
X148398965Y-78413505D01*
X148546495Y-78561035D01*
X148715286Y-78683670D01*
X148766809Y-78709922D01*
X148901179Y-78778387D01*
X148901181Y-78778387D01*
X148901184Y-78778389D01*
X149007545Y-78812948D01*
X149099610Y-78842862D01*
X149305676Y-78875500D01*
X149305681Y-78875500D01*
X149514324Y-78875500D01*
X149720389Y-78842862D01*
X149755265Y-78831530D01*
X149918816Y-78778389D01*
X150104714Y-78683670D01*
X150273505Y-78561035D01*
X150421035Y-78413505D01*
X150543670Y-78244714D01*
X150638389Y-78058816D01*
X150702862Y-77860389D01*
X150718399Y-77762292D01*
X150735500Y-77654324D01*
X150735500Y-77445675D01*
X150702862Y-77239610D01*
X150638387Y-77041179D01*
X150567067Y-76901206D01*
X150543670Y-76855286D01*
X150421035Y-76686495D01*
X150273505Y-76538965D01*
X150104714Y-76416330D01*
X150034364Y-76380485D01*
X149918820Y-76321612D01*
X149720389Y-76257137D01*
X149514324Y-76224500D01*
X149514319Y-76224500D01*
X149305681Y-76224500D01*
X149305676Y-76224500D01*
X149099610Y-76257137D01*
X148901179Y-76321612D01*
X148715285Y-76416330D01*
X148546493Y-76538966D01*
X148398966Y-76686493D01*
X148276330Y-76855285D01*
X148250485Y-76906010D01*
X148202510Y-76956806D01*
X148134690Y-76973601D01*
X148068555Y-76951064D01*
X148029515Y-76906010D01*
X148016295Y-76880065D01*
X148003670Y-76855286D01*
X147881035Y-76686495D01*
X147733505Y-76538965D01*
X147564714Y-76416330D01*
X147494364Y-76380485D01*
X147378820Y-76321612D01*
X147180389Y-76257137D01*
X146974324Y-76224500D01*
X146974319Y-76224500D01*
X146765681Y-76224500D01*
X146765676Y-76224500D01*
X146559610Y-76257137D01*
X146361179Y-76321612D01*
X146175285Y-76416330D01*
X146006493Y-76538966D01*
X145858966Y-76686493D01*
X145736330Y-76855285D01*
X145710485Y-76906010D01*
X145662510Y-76956806D01*
X145594690Y-76973601D01*
X145528555Y-76951064D01*
X145489515Y-76906010D01*
X145476295Y-76880065D01*
X145463670Y-76855286D01*
X145341035Y-76686495D01*
X145193505Y-76538965D01*
X145024714Y-76416330D01*
X144954364Y-76380485D01*
X144838820Y-76321612D01*
X144640389Y-76257137D01*
X144434324Y-76224500D01*
X144434319Y-76224500D01*
X144225681Y-76224500D01*
X144225676Y-76224500D01*
X144019610Y-76257137D01*
X143821179Y-76321612D01*
X143635285Y-76416330D01*
X143466493Y-76538966D01*
X143318966Y-76686493D01*
X143196328Y-76855288D01*
X143170202Y-76906563D01*
X143122227Y-76957358D01*
X143054406Y-76974153D01*
X142988272Y-76951615D01*
X142949233Y-76906561D01*
X142923247Y-76855561D01*
X142923236Y-76855543D01*
X142887372Y-76806180D01*
X142887371Y-76806179D01*
X142313787Y-77379764D01*
X142302518Y-77337708D01*
X142230110Y-77212292D01*
X142127708Y-77109890D01*
X142002292Y-77037482D01*
X141960233Y-77026212D01*
X142533819Y-76452627D01*
X142484451Y-76416759D01*
X142298627Y-76322075D01*
X142100272Y-76257626D01*
X141894279Y-76225000D01*
X141685721Y-76225000D01*
X141479727Y-76257626D01*
X141281372Y-76322075D01*
X141192049Y-76367589D01*
X141123380Y-76380485D01*
X141058639Y-76354209D01*
X141018382Y-76297102D01*
X141011758Y-76256127D01*
X141019523Y-75274458D01*
X141039736Y-75207582D01*
X141092900Y-75162246D01*
X141143516Y-75151445D01*
X150117516Y-75151872D01*
X150117529Y-75151876D01*
X150180558Y-75151876D01*
X150186275Y-75152007D01*
X150572120Y-75169848D01*
X150583515Y-75170904D01*
X150963223Y-75223872D01*
X150974478Y-75225977D01*
X151177637Y-75273761D01*
X151347665Y-75313752D01*
X151358674Y-75316884D01*
X151722201Y-75438727D01*
X151732848Y-75442852D01*
X152083581Y-75597716D01*
X152093820Y-75602815D01*
X152428745Y-75789368D01*
X152438483Y-75795397D01*
X152754775Y-76012062D01*
X152763912Y-76018963D01*
X153050734Y-76257137D01*
X153058853Y-76263879D01*
X153067317Y-76271595D01*
X153338404Y-76542682D01*
X153346120Y-76551146D01*
X153591034Y-76846084D01*
X153597937Y-76855224D01*
X153814602Y-77171516D01*
X153820631Y-77181254D01*
X154007184Y-77516179D01*
X154012287Y-77526427D01*
X154167142Y-77877140D01*
X154171277Y-77887811D01*
X154293113Y-78251318D01*
X154296247Y-78262334D01*
X154384022Y-78635522D01*
X154386127Y-78646780D01*
X154439094Y-79026479D01*
X154440151Y-79037883D01*
X154457992Y-79423723D01*
X154458124Y-79429301D01*
X154458124Y-79492471D01*
X154458200Y-79492761D01*
X154458211Y-79501045D01*
X154458211Y-79501047D01*
X154484696Y-101691856D01*
X154484564Y-101697731D01*
X154466729Y-102083496D01*
X154465672Y-102094900D01*
X154412706Y-102474599D01*
X154410601Y-102485858D01*
X154322829Y-102859043D01*
X154319695Y-102870059D01*
X154197859Y-103233569D01*
X154193726Y-103244236D01*
X154038866Y-103594963D01*
X154033767Y-103605203D01*
X153847214Y-103940127D01*
X153841185Y-103949865D01*
X153624520Y-104266157D01*
X153617617Y-104275297D01*
X153372703Y-104570236D01*
X153364987Y-104578700D01*
X153093900Y-104849787D01*
X153085436Y-104857503D01*
X152790497Y-105102417D01*
X152781357Y-105109320D01*
X152465065Y-105325985D01*
X152455327Y-105332014D01*
X152120403Y-105518567D01*
X152110163Y-105523666D01*
X151759436Y-105678526D01*
X151748769Y-105682659D01*
X151385259Y-105804495D01*
X151374243Y-105807629D01*
X151001058Y-105895401D01*
X150989799Y-105897506D01*
X150610100Y-105950472D01*
X150598696Y-105951529D01*
X150212855Y-105969368D01*
X150207128Y-105969500D01*
X142679808Y-105969500D01*
X142612769Y-105949815D01*
X142567014Y-105897011D01*
X142557070Y-105827853D01*
X142586095Y-105764297D01*
X142592127Y-105757819D01*
X142615273Y-105734672D01*
X142615276Y-105734669D01*
X142686465Y-105628127D01*
X142735501Y-105509744D01*
X142753931Y-105417093D01*
X142760500Y-105384071D01*
X142760500Y-105255928D01*
X142735502Y-105130261D01*
X142735501Y-105130260D01*
X142735501Y-105130256D01*
X142686465Y-105011873D01*
X142686464Y-105011872D01*
X142686461Y-105011866D01*
X142615276Y-104905331D01*
X142615273Y-104905327D01*
X142524672Y-104814726D01*
X142524668Y-104814723D01*
X142418133Y-104743538D01*
X142418124Y-104743533D01*
X142299744Y-104694499D01*
X142299738Y-104694497D01*
X142174071Y-104669500D01*
X142174069Y-104669500D01*
X142045931Y-104669500D01*
X142045929Y-104669500D01*
X141920261Y-104694497D01*
X141920255Y-104694499D01*
X141801875Y-104743533D01*
X141801866Y-104743538D01*
X141695331Y-104814723D01*
X141695327Y-104814726D01*
X141657681Y-104852373D01*
X141596358Y-104885858D01*
X141526666Y-104880874D01*
X141482319Y-104852373D01*
X141414672Y-104784726D01*
X141414668Y-104784723D01*
X141308133Y-104713538D01*
X141308124Y-104713533D01*
X141189744Y-104664499D01*
X141189738Y-104664497D01*
X141064071Y-104639500D01*
X141064069Y-104639500D01*
X140935931Y-104639500D01*
X140935929Y-104639500D01*
X140810261Y-104664497D01*
X140810255Y-104664499D01*
X140691875Y-104713533D01*
X140691866Y-104713538D01*
X140585331Y-104784723D01*
X140585327Y-104784726D01*
X140494726Y-104875327D01*
X140494723Y-104875331D01*
X140423538Y-104981866D01*
X140423533Y-104981875D01*
X140374499Y-105100255D01*
X140374497Y-105100261D01*
X140349500Y-105225928D01*
X140349500Y-105225931D01*
X140349500Y-105354069D01*
X140349500Y-105354071D01*
X140349499Y-105354071D01*
X140374497Y-105479738D01*
X140374499Y-105479744D01*
X140423533Y-105598124D01*
X140423538Y-105598133D01*
X140494723Y-105704668D01*
X140494726Y-105704672D01*
X140547873Y-105757819D01*
X140581358Y-105819142D01*
X140576374Y-105888834D01*
X140534502Y-105944767D01*
X140469038Y-105969184D01*
X140460192Y-105969500D01*
X129580585Y-105969500D01*
X129513546Y-105949815D01*
X129467791Y-105897011D01*
X129457847Y-105827853D01*
X129471754Y-105786071D01*
X129473793Y-105782333D01*
X129473796Y-105782331D01*
X129524091Y-105647483D01*
X129530500Y-105587873D01*
X129530499Y-103492128D01*
X129524091Y-103432517D01*
X129521118Y-103424547D01*
X129473797Y-103297671D01*
X129473793Y-103297664D01*
X129387547Y-103182455D01*
X129387544Y-103182452D01*
X129272335Y-103096206D01*
X129272328Y-103096202D01*
X129137482Y-103045908D01*
X129137483Y-103045908D01*
X129077883Y-103039501D01*
X129077881Y-103039500D01*
X129077873Y-103039500D01*
X129077864Y-103039500D01*
X126982129Y-103039500D01*
X126982123Y-103039501D01*
X126922516Y-103045908D01*
X126787671Y-103096202D01*
X126787664Y-103096206D01*
X126672455Y-103182452D01*
X126672452Y-103182455D01*
X126586206Y-103297664D01*
X126586202Y-103297671D01*
X126535908Y-103432517D01*
X126530746Y-103480537D01*
X126529501Y-103492123D01*
X126529500Y-103492135D01*
X126529500Y-105587870D01*
X126529501Y-105587876D01*
X126535908Y-105647483D01*
X126586203Y-105782330D01*
X126588246Y-105786071D01*
X126589152Y-105790237D01*
X126589303Y-105790641D01*
X126589244Y-105790662D01*
X126603099Y-105854343D01*
X126578684Y-105919808D01*
X126522751Y-105961681D01*
X126479415Y-105969500D01*
X126170585Y-105969500D01*
X126103546Y-105949815D01*
X126057791Y-105897011D01*
X126047847Y-105827853D01*
X126061754Y-105786071D01*
X126063793Y-105782333D01*
X126063796Y-105782331D01*
X126114091Y-105647483D01*
X126120500Y-105587873D01*
X126120499Y-103492128D01*
X126114091Y-103432517D01*
X126111118Y-103424547D01*
X126063797Y-103297671D01*
X126063793Y-103297664D01*
X125977547Y-103182455D01*
X125977544Y-103182452D01*
X125862335Y-103096206D01*
X125862328Y-103096202D01*
X125727482Y-103045908D01*
X125727483Y-103045908D01*
X125667883Y-103039501D01*
X125667881Y-103039500D01*
X125667873Y-103039500D01*
X125667864Y-103039500D01*
X123572129Y-103039500D01*
X123572123Y-103039501D01*
X123512516Y-103045908D01*
X123377671Y-103096202D01*
X123377664Y-103096206D01*
X123262455Y-103182452D01*
X123262452Y-103182455D01*
X123176206Y-103297664D01*
X123176202Y-103297671D01*
X123125908Y-103432517D01*
X123120746Y-103480537D01*
X123119501Y-103492123D01*
X123119500Y-103492135D01*
X123119500Y-105587870D01*
X123119501Y-105587876D01*
X123125908Y-105647483D01*
X123176203Y-105782330D01*
X123178246Y-105786071D01*
X123179152Y-105790237D01*
X123179303Y-105790641D01*
X123179244Y-105790662D01*
X123193099Y-105854343D01*
X123168684Y-105919808D01*
X123112751Y-105961681D01*
X123069415Y-105969500D01*
X121272872Y-105969500D01*
X121267145Y-105969368D01*
X120881303Y-105951529D01*
X120869899Y-105950472D01*
X120490200Y-105897506D01*
X120478941Y-105895401D01*
X120105756Y-105807629D01*
X120094740Y-105804495D01*
X119731230Y-105682659D01*
X119720570Y-105678529D01*
X119369827Y-105523662D01*
X119359601Y-105518569D01*
X119249071Y-105457004D01*
X119024672Y-105332014D01*
X119014934Y-105325985D01*
X118864367Y-105222844D01*
X120635000Y-105222844D01*
X120641401Y-105282372D01*
X120641403Y-105282379D01*
X120691645Y-105417086D01*
X120691649Y-105417093D01*
X120777809Y-105532187D01*
X120777812Y-105532190D01*
X120892906Y-105618350D01*
X120892913Y-105618354D01*
X121027620Y-105668596D01*
X121027627Y-105668598D01*
X121087155Y-105674999D01*
X121087172Y-105675000D01*
X121310000Y-105675000D01*
X121810000Y-105675000D01*
X122032828Y-105675000D01*
X122032844Y-105674999D01*
X122092372Y-105668598D01*
X122092379Y-105668596D01*
X122227086Y-105618354D01*
X122227093Y-105618350D01*
X122342187Y-105532190D01*
X122342190Y-105532187D01*
X122428350Y-105417093D01*
X122428354Y-105417086D01*
X122478596Y-105282379D01*
X122478598Y-105282372D01*
X122484999Y-105222844D01*
X122485000Y-105222827D01*
X122485000Y-105000000D01*
X121810000Y-105000000D01*
X121810000Y-105675000D01*
X121310000Y-105675000D01*
X121310000Y-105000000D01*
X120635000Y-105000000D01*
X120635000Y-105222844D01*
X118864367Y-105222844D01*
X118698642Y-105109320D01*
X118689515Y-105102427D01*
X118580466Y-105011875D01*
X118394563Y-104857503D01*
X118386099Y-104849787D01*
X118236584Y-104700272D01*
X121310000Y-104700272D01*
X121310000Y-104799728D01*
X121348060Y-104891614D01*
X121418386Y-104961940D01*
X121510272Y-105000000D01*
X121609728Y-105000000D01*
X121701614Y-104961940D01*
X121771940Y-104891614D01*
X121810000Y-104799728D01*
X121810000Y-104700272D01*
X121771940Y-104608386D01*
X121701614Y-104538060D01*
X121609728Y-104500000D01*
X121810000Y-104500000D01*
X122485000Y-104500000D01*
X122485000Y-104277172D01*
X122484999Y-104277155D01*
X122478598Y-104217627D01*
X122478596Y-104217620D01*
X122428354Y-104082913D01*
X122428350Y-104082906D01*
X122342190Y-103967812D01*
X122342187Y-103967809D01*
X122227093Y-103881649D01*
X122227086Y-103881645D01*
X122092379Y-103831403D01*
X122092372Y-103831401D01*
X122032844Y-103825000D01*
X121810000Y-103825000D01*
X121810000Y-104500000D01*
X121609728Y-104500000D01*
X121510272Y-104500000D01*
X121418386Y-104538060D01*
X121348060Y-104608386D01*
X121310000Y-104700272D01*
X118236584Y-104700272D01*
X118115012Y-104578700D01*
X118107296Y-104570236D01*
X117863925Y-104277155D01*
X120635000Y-104277155D01*
X120635000Y-104500000D01*
X121310000Y-104500000D01*
X121310000Y-103825000D01*
X121087155Y-103825000D01*
X121027627Y-103831401D01*
X121027620Y-103831403D01*
X120892913Y-103881645D01*
X120892906Y-103881649D01*
X120777812Y-103967809D01*
X120777809Y-103967812D01*
X120691649Y-104082906D01*
X120691645Y-104082913D01*
X120641403Y-104217620D01*
X120641401Y-104217627D01*
X120635000Y-104277155D01*
X117863925Y-104277155D01*
X117862369Y-104275281D01*
X117855479Y-104266157D01*
X117847773Y-104254908D01*
X117702212Y-104042415D01*
X117638814Y-103949865D01*
X117632785Y-103940127D01*
X117554064Y-103798797D01*
X117446225Y-103605189D01*
X117441141Y-103594981D01*
X117286265Y-103244218D01*
X117282145Y-103233582D01*
X117160300Y-102870046D01*
X117157173Y-102859056D01*
X117069396Y-102485850D01*
X117067294Y-102474605D01*
X117066783Y-102470943D01*
X117066783Y-102470941D01*
X117064857Y-102457135D01*
X117974500Y-102457135D01*
X117974500Y-103402870D01*
X117974501Y-103402876D01*
X117980908Y-103462483D01*
X118031202Y-103597328D01*
X118031206Y-103597335D01*
X118117452Y-103712544D01*
X118117455Y-103712547D01*
X118232664Y-103798793D01*
X118232671Y-103798797D01*
X118367517Y-103849091D01*
X118367516Y-103849091D01*
X118374444Y-103849835D01*
X118427127Y-103855500D01*
X119372872Y-103855499D01*
X119432483Y-103849091D01*
X119567331Y-103798796D01*
X119682546Y-103712546D01*
X119768796Y-103597331D01*
X119819091Y-103462483D01*
X119825500Y-103402873D01*
X119825499Y-102865011D01*
X130189500Y-102865011D01*
X130189500Y-103414988D01*
X130189583Y-103424204D01*
X130189590Y-103424547D01*
X130189882Y-103434895D01*
X130190877Y-103460766D01*
X130191341Y-103470418D01*
X130191355Y-103470668D01*
X130192019Y-103480555D01*
X130194020Y-103506573D01*
X130194918Y-103516859D01*
X130194957Y-103517256D01*
X130195892Y-103526037D01*
X130198901Y-103552112D01*
X130201427Y-103570897D01*
X130201538Y-103571623D01*
X130204777Y-103590361D01*
X130209783Y-103616388D01*
X130211994Y-103627243D01*
X130212086Y-103627669D01*
X130212094Y-103627705D01*
X130214734Y-103639304D01*
X130220734Y-103664304D01*
X130222526Y-103671533D01*
X130222543Y-103671599D01*
X130222606Y-103671847D01*
X130224235Y-103678057D01*
X130231225Y-103704020D01*
X130238118Y-103727365D01*
X130238410Y-103728273D01*
X130246318Y-103750992D01*
X130255347Y-103775068D01*
X130258343Y-103782861D01*
X130258431Y-103783084D01*
X130262175Y-103792320D01*
X130272169Y-103816306D01*
X130275387Y-103823856D01*
X130275573Y-103824282D01*
X130279367Y-103832764D01*
X130290375Y-103856781D01*
X130299708Y-103876057D01*
X130300099Y-103876824D01*
X130310213Y-103895636D01*
X130310224Y-103895656D01*
X130323224Y-103918656D01*
X130329917Y-103930141D01*
X130329945Y-103930189D01*
X130330208Y-103930626D01*
X130337066Y-103941720D01*
X130365100Y-103985773D01*
X130377235Y-104003960D01*
X130377725Y-104004661D01*
X130389961Y-104021424D01*
X130405954Y-104042414D01*
X130405955Y-104042415D01*
X130414335Y-104053111D01*
X130414670Y-104053527D01*
X130423221Y-104063862D01*
X130440221Y-104083862D01*
X130448760Y-104093651D01*
X130448779Y-104093672D01*
X130449140Y-104094076D01*
X130458765Y-104104526D01*
X130476743Y-104123504D01*
X130481621Y-104128514D01*
X130486298Y-104133319D01*
X130486681Y-104133702D01*
X130491663Y-104138552D01*
X130496495Y-104143256D01*
X130515473Y-104161234D01*
X130525923Y-104170859D01*
X130525948Y-104170881D01*
X130526349Y-104171240D01*
X130536138Y-104179779D01*
X130556138Y-104196779D01*
X130566473Y-104205330D01*
X130566889Y-104205665D01*
X130572884Y-104210362D01*
X130577585Y-104214045D01*
X130598575Y-104230038D01*
X130615338Y-104242274D01*
X130616039Y-104242764D01*
X130634226Y-104254899D01*
X130678279Y-104282933D01*
X130689373Y-104289791D01*
X130689810Y-104290054D01*
X130689833Y-104290067D01*
X130689859Y-104290083D01*
X130701344Y-104296776D01*
X130724344Y-104309776D01*
X130724363Y-104309786D01*
X130743175Y-104319900D01*
X130743199Y-104319912D01*
X130743953Y-104320297D01*
X130763214Y-104329623D01*
X130787214Y-104340623D01*
X130791962Y-104342746D01*
X130795717Y-104344426D01*
X130796143Y-104344612D01*
X130803693Y-104347830D01*
X130803731Y-104347846D01*
X130827731Y-104357846D01*
X130836839Y-104361538D01*
X130837174Y-104361670D01*
X130844996Y-104364677D01*
X130868996Y-104373677D01*
X130891716Y-104381586D01*
X130892627Y-104381879D01*
X130892634Y-104381881D01*
X130915979Y-104388774D01*
X130928058Y-104392026D01*
X130941983Y-104395775D01*
X130948201Y-104397406D01*
X130948467Y-104397474D01*
X130955696Y-104399266D01*
X130980696Y-104405266D01*
X130992295Y-104407906D01*
X130992741Y-104408002D01*
X131003650Y-104410224D01*
X131019722Y-104413314D01*
X131029638Y-104415222D01*
X131029650Y-104415224D01*
X131048348Y-104418457D01*
X131049090Y-104418571D01*
X131067912Y-104421102D01*
X131093912Y-104424102D01*
X131102738Y-104425042D01*
X131103117Y-104425079D01*
X131103140Y-104425081D01*
X131113426Y-104425979D01*
X131113448Y-104425980D01*
X131113463Y-104425982D01*
X131139463Y-104427982D01*
X131149244Y-104428639D01*
X131149627Y-104428661D01*
X131159188Y-104429120D01*
X131159204Y-104429120D01*
X131159233Y-104429122D01*
X131185104Y-104430117D01*
X131185126Y-104430117D01*
X131185188Y-104430120D01*
X131195403Y-104430409D01*
X131195787Y-104430416D01*
X131205000Y-104430500D01*
X131205012Y-104430500D01*
X132350002Y-104430500D01*
X132355796Y-104430189D01*
X132404041Y-104427603D01*
X132543452Y-104392019D01*
X132550523Y-104389090D01*
X132645364Y-104337303D01*
X132750671Y-104239261D01*
X132750672Y-104239259D01*
X132750673Y-104239259D01*
X132824089Y-104115525D01*
X132824091Y-104115521D01*
X132827019Y-104108452D01*
X132845024Y-104057416D01*
X132865500Y-103915000D01*
X132865500Y-102365001D01*
X136434500Y-102365001D01*
X136434500Y-103915002D01*
X136437397Y-103969043D01*
X136472978Y-104108444D01*
X136472981Y-104108452D01*
X136475909Y-104115521D01*
X136475911Y-104115526D01*
X136527695Y-104210362D01*
X136625740Y-104315672D01*
X136625740Y-104315673D01*
X136749474Y-104389089D01*
X136751545Y-104389947D01*
X136756548Y-104392019D01*
X136807584Y-104410024D01*
X136950000Y-104430500D01*
X136950003Y-104430500D01*
X138094988Y-104430500D01*
X138095000Y-104430500D01*
X138104213Y-104430416D01*
X138104597Y-104430409D01*
X138114812Y-104430120D01*
X138114876Y-104430117D01*
X138114895Y-104430117D01*
X138140766Y-104429122D01*
X138140790Y-104429120D01*
X138140812Y-104429120D01*
X138150373Y-104428661D01*
X138150756Y-104428639D01*
X138160537Y-104427982D01*
X138186537Y-104425982D01*
X138186559Y-104425980D01*
X138186573Y-104425979D01*
X138192744Y-104425440D01*
X138196883Y-104425079D01*
X138197262Y-104425042D01*
X138206088Y-104424102D01*
X138232088Y-104421102D01*
X138250910Y-104418571D01*
X138251652Y-104418457D01*
X138270350Y-104415224D01*
X138270355Y-104415223D01*
X138270361Y-104415222D01*
X138274079Y-104414506D01*
X138296350Y-104410224D01*
X138307259Y-104408002D01*
X138307705Y-104407906D01*
X138319304Y-104405266D01*
X138344304Y-104399266D01*
X138351533Y-104397474D01*
X138351799Y-104397406D01*
X138358017Y-104395775D01*
X138384017Y-104388775D01*
X138407373Y-104381879D01*
X138408284Y-104381586D01*
X138431004Y-104373677D01*
X138455004Y-104364677D01*
X138462826Y-104361670D01*
X138463161Y-104361538D01*
X138472269Y-104357846D01*
X138496269Y-104347846D01*
X138498822Y-104346757D01*
X138503856Y-104344612D01*
X138503899Y-104344592D01*
X138503930Y-104344580D01*
X138504251Y-104344440D01*
X138512786Y-104340623D01*
X138536786Y-104329623D01*
X138556047Y-104320297D01*
X138556801Y-104319912D01*
X138556810Y-104319906D01*
X138556824Y-104319900D01*
X138564690Y-104315671D01*
X138575656Y-104309776D01*
X138598656Y-104296776D01*
X138610141Y-104290083D01*
X138610589Y-104289814D01*
X138621760Y-104282908D01*
X138665760Y-104254908D01*
X138683972Y-104242756D01*
X138684663Y-104242273D01*
X138701415Y-104230045D01*
X138722415Y-104214045D01*
X138733111Y-104205665D01*
X138733527Y-104205330D01*
X138743862Y-104196779D01*
X138763862Y-104179779D01*
X138773651Y-104171240D01*
X138774052Y-104170881D01*
X138784532Y-104161229D01*
X138803532Y-104143229D01*
X138813319Y-104133702D01*
X138813702Y-104133319D01*
X138823229Y-104123532D01*
X138841229Y-104104532D01*
X138850881Y-104094052D01*
X138851240Y-104093651D01*
X138859779Y-104083862D01*
X138876779Y-104063862D01*
X138885330Y-104053527D01*
X138885665Y-104053111D01*
X138894045Y-104042415D01*
X138910045Y-104021415D01*
X138922273Y-104004663D01*
X138922756Y-104003972D01*
X138934908Y-103985760D01*
X138962908Y-103941760D01*
X138969814Y-103930589D01*
X138970083Y-103930141D01*
X138976776Y-103918656D01*
X138989776Y-103895656D01*
X138999912Y-103876801D01*
X139000297Y-103876047D01*
X139009623Y-103856786D01*
X139020623Y-103832786D01*
X139024440Y-103824251D01*
X139024580Y-103823930D01*
X139027846Y-103816269D01*
X139037846Y-103792269D01*
X139041538Y-103783161D01*
X139041670Y-103782826D01*
X139044677Y-103775004D01*
X139053677Y-103751004D01*
X139061586Y-103728284D01*
X139061879Y-103727373D01*
X139068775Y-103704017D01*
X139075775Y-103678017D01*
X139077406Y-103671799D01*
X139077474Y-103671533D01*
X139079266Y-103664304D01*
X139085266Y-103639304D01*
X139087906Y-103627705D01*
X139088002Y-103627259D01*
X139090224Y-103616350D01*
X139095224Y-103590350D01*
X139098457Y-103571652D01*
X139098571Y-103570910D01*
X139101102Y-103552088D01*
X139104102Y-103526088D01*
X139105042Y-103517262D01*
X139105079Y-103516883D01*
X139105982Y-103506537D01*
X139107982Y-103480537D01*
X139108639Y-103470756D01*
X139108661Y-103470373D01*
X139109120Y-103460812D01*
X139110120Y-103434812D01*
X139110409Y-103424597D01*
X139110416Y-103424213D01*
X139110500Y-103415000D01*
X139110500Y-102865000D01*
X139110416Y-102855787D01*
X139110409Y-102855403D01*
X139110120Y-102845188D01*
X139109120Y-102819188D01*
X139108661Y-102809627D01*
X139108639Y-102809244D01*
X139107982Y-102799463D01*
X139105982Y-102773463D01*
X139105079Y-102763117D01*
X139105042Y-102762738D01*
X139104102Y-102753912D01*
X139101102Y-102727912D01*
X139098571Y-102709090D01*
X139098457Y-102708348D01*
X139095224Y-102689650D01*
X139090224Y-102663650D01*
X139088002Y-102652741D01*
X139087906Y-102652295D01*
X139085266Y-102640696D01*
X139079266Y-102615696D01*
X139077474Y-102608467D01*
X139077406Y-102608201D01*
X139077388Y-102608133D01*
X139077362Y-102608030D01*
X139075764Y-102601942D01*
X139068774Y-102575979D01*
X139061881Y-102552634D01*
X139061589Y-102551726D01*
X139053681Y-102529007D01*
X139053677Y-102528996D01*
X139044677Y-102504996D01*
X139041670Y-102497174D01*
X139041538Y-102496839D01*
X139037846Y-102487731D01*
X139027846Y-102463731D01*
X139027830Y-102463693D01*
X139024612Y-102456143D01*
X139024426Y-102455717D01*
X139020632Y-102447235D01*
X139020623Y-102447214D01*
X139009623Y-102423214D01*
X139000297Y-102403953D01*
X138999912Y-102403199D01*
X138999900Y-102403175D01*
X138989786Y-102384363D01*
X138989776Y-102384344D01*
X138976776Y-102361344D01*
X138970083Y-102349859D01*
X138969814Y-102349411D01*
X138969791Y-102349373D01*
X138962933Y-102338279D01*
X138934899Y-102294226D01*
X138922764Y-102276039D01*
X138922274Y-102275338D01*
X138910038Y-102258575D01*
X138894045Y-102237585D01*
X138885681Y-102226910D01*
X138885665Y-102226889D01*
X138885330Y-102226473D01*
X138876779Y-102216138D01*
X138859779Y-102196138D01*
X138851240Y-102186349D01*
X138850881Y-102185948D01*
X138850859Y-102185923D01*
X138841234Y-102175473D01*
X138823256Y-102156495D01*
X138814454Y-102147454D01*
X138813702Y-102146681D01*
X138813319Y-102146298D01*
X138808514Y-102141621D01*
X138803504Y-102136743D01*
X138784526Y-102118765D01*
X138774076Y-102109140D01*
X138773672Y-102108779D01*
X138773651Y-102108760D01*
X138763862Y-102100221D01*
X138743862Y-102083221D01*
X138733527Y-102074670D01*
X138733111Y-102074335D01*
X138722415Y-102065955D01*
X138716525Y-102061467D01*
X138701424Y-102049961D01*
X138684661Y-102037725D01*
X138683960Y-102037235D01*
X138665773Y-102025100D01*
X138621720Y-101997066D01*
X138610626Y-101990208D01*
X138610189Y-101989945D01*
X138610141Y-101989917D01*
X138598656Y-101983224D01*
X138575656Y-101970224D01*
X138575636Y-101970213D01*
X138556824Y-101960099D01*
X138556057Y-101959708D01*
X138556047Y-101959703D01*
X138536786Y-101950377D01*
X138512786Y-101939377D01*
X138512764Y-101939367D01*
X138504282Y-101935573D01*
X138503856Y-101935387D01*
X138496306Y-101932169D01*
X138472320Y-101922175D01*
X138472297Y-101922166D01*
X138472269Y-101922154D01*
X138463161Y-101918462D01*
X138463142Y-101918454D01*
X138463084Y-101918431D01*
X138462861Y-101918343D01*
X138455068Y-101915347D01*
X138430992Y-101906318D01*
X138408273Y-101898410D01*
X138407365Y-101898118D01*
X138384020Y-101891225D01*
X138358057Y-101884235D01*
X138351847Y-101882606D01*
X138351599Y-101882543D01*
X138351533Y-101882526D01*
X138344304Y-101880734D01*
X138319304Y-101874734D01*
X138307705Y-101872094D01*
X138307689Y-101872090D01*
X138307669Y-101872086D01*
X138307243Y-101871994D01*
X138296388Y-101869783D01*
X138270361Y-101864777D01*
X138251623Y-101861538D01*
X138250897Y-101861427D01*
X138232112Y-101858901D01*
X138232100Y-101858899D01*
X138232088Y-101858898D01*
X138214728Y-101856895D01*
X138206037Y-101855892D01*
X138197256Y-101854957D01*
X138196859Y-101854918D01*
X138186573Y-101854020D01*
X138160555Y-101852019D01*
X138150668Y-101851355D01*
X138150418Y-101851341D01*
X138140766Y-101850877D01*
X138114895Y-101849882D01*
X138110171Y-101849748D01*
X138104597Y-101849591D01*
X138104555Y-101849590D01*
X138104547Y-101849590D01*
X138104204Y-101849583D01*
X138095969Y-101849508D01*
X138095000Y-101849500D01*
X136950000Y-101849500D01*
X136949998Y-101849500D01*
X136895956Y-101852397D01*
X136756555Y-101887978D01*
X136756547Y-101887981D01*
X136749478Y-101890909D01*
X136749473Y-101890911D01*
X136654637Y-101942695D01*
X136549327Y-102040740D01*
X136549326Y-102040740D01*
X136475910Y-102164474D01*
X136472981Y-102171547D01*
X136472973Y-102171568D01*
X136454976Y-102222582D01*
X136454976Y-102222584D01*
X136438348Y-102338240D01*
X136434500Y-102365001D01*
X132865500Y-102365001D01*
X132865500Y-102365000D01*
X132862603Y-102310959D01*
X132833300Y-102196157D01*
X132827021Y-102171555D01*
X132827020Y-102171553D01*
X132827019Y-102171548D01*
X132824090Y-102164477D01*
X132819717Y-102156468D01*
X132772304Y-102069637D01*
X132718433Y-102011774D01*
X132674261Y-101964329D01*
X132674260Y-101964328D01*
X132674259Y-101964327D01*
X132674259Y-101964326D01*
X132550525Y-101890910D01*
X132543452Y-101887981D01*
X132543431Y-101887973D01*
X132492417Y-101869976D01*
X132415386Y-101858901D01*
X132350000Y-101849500D01*
X131205000Y-101849500D01*
X131204039Y-101849508D01*
X131195795Y-101849583D01*
X131195452Y-101849590D01*
X131195441Y-101849590D01*
X131195403Y-101849591D01*
X131190211Y-101849737D01*
X131185104Y-101849882D01*
X131159233Y-101850877D01*
X131149581Y-101851341D01*
X131149331Y-101851355D01*
X131139444Y-101852019D01*
X131113426Y-101854020D01*
X131103140Y-101854918D01*
X131102743Y-101854957D01*
X131093962Y-101855892D01*
X131076578Y-101857898D01*
X131067912Y-101858898D01*
X131067905Y-101858898D01*
X131067887Y-101858901D01*
X131049102Y-101861427D01*
X131048376Y-101861538D01*
X131029638Y-101864777D01*
X131003611Y-101869783D01*
X130992756Y-101871994D01*
X130992330Y-101872086D01*
X130992295Y-101872094D01*
X130980696Y-101874734D01*
X130955696Y-101880734D01*
X130948467Y-101882526D01*
X130948416Y-101882538D01*
X130948400Y-101882543D01*
X130948152Y-101882606D01*
X130941942Y-101884235D01*
X130915979Y-101891225D01*
X130892634Y-101898118D01*
X130891726Y-101898410D01*
X130869007Y-101906318D01*
X130844931Y-101915347D01*
X130837138Y-101918343D01*
X130836915Y-101918431D01*
X130827679Y-101922175D01*
X130803693Y-101932169D01*
X130796143Y-101935387D01*
X130795717Y-101935573D01*
X130787235Y-101939367D01*
X130763218Y-101950375D01*
X130743942Y-101959708D01*
X130743175Y-101960099D01*
X130724363Y-101970213D01*
X130724344Y-101970224D01*
X130701344Y-101983224D01*
X130695518Y-101986618D01*
X130689810Y-101989945D01*
X130689373Y-101990208D01*
X130678279Y-101997066D01*
X130634226Y-102025100D01*
X130616039Y-102037235D01*
X130615338Y-102037725D01*
X130598575Y-102049961D01*
X130577585Y-102065954D01*
X130566910Y-102074318D01*
X130566463Y-102074678D01*
X130556144Y-102083215D01*
X130536157Y-102100204D01*
X130526327Y-102108779D01*
X130525923Y-102109140D01*
X130515473Y-102118765D01*
X130496495Y-102136743D01*
X130486653Y-102146325D01*
X130486325Y-102146653D01*
X130476743Y-102156495D01*
X130458765Y-102175473D01*
X130449140Y-102185923D01*
X130448779Y-102186327D01*
X130440204Y-102196157D01*
X130423215Y-102216144D01*
X130414678Y-102226463D01*
X130414318Y-102226910D01*
X130405954Y-102237585D01*
X130389961Y-102258575D01*
X130377725Y-102275338D01*
X130377235Y-102276039D01*
X130365100Y-102294226D01*
X130337066Y-102338279D01*
X130330208Y-102349373D01*
X130329970Y-102349770D01*
X130329917Y-102349859D01*
X130323224Y-102361344D01*
X130323210Y-102361369D01*
X130310213Y-102384363D01*
X130300099Y-102403175D01*
X130299708Y-102403942D01*
X130290375Y-102423218D01*
X130279367Y-102447235D01*
X130275573Y-102455717D01*
X130275387Y-102456143D01*
X130272169Y-102463693D01*
X130262175Y-102487679D01*
X130258431Y-102496915D01*
X130258343Y-102497138D01*
X130255347Y-102504931D01*
X130246318Y-102529007D01*
X130238410Y-102551726D01*
X130238118Y-102552634D01*
X130231225Y-102575979D01*
X130224235Y-102601942D01*
X130222638Y-102608030D01*
X130222543Y-102608400D01*
X130220739Y-102615676D01*
X130214734Y-102640697D01*
X130212086Y-102652330D01*
X130211994Y-102652756D01*
X130209783Y-102663611D01*
X130204777Y-102689638D01*
X130201538Y-102708376D01*
X130201427Y-102709102D01*
X130198901Y-102727887D01*
X130195892Y-102753962D01*
X130194957Y-102762743D01*
X130194918Y-102763140D01*
X130194020Y-102773426D01*
X130192019Y-102799444D01*
X130191355Y-102809331D01*
X130191341Y-102809581D01*
X130190877Y-102819233D01*
X130189882Y-102845104D01*
X130189590Y-102855452D01*
X130189583Y-102855795D01*
X130189500Y-102865011D01*
X119825499Y-102865011D01*
X119825499Y-102457128D01*
X119819091Y-102397517D01*
X119806965Y-102365006D01*
X119768797Y-102262671D01*
X119768793Y-102262664D01*
X119682547Y-102147455D01*
X119682544Y-102147452D01*
X119567335Y-102061206D01*
X119567328Y-102061202D01*
X119432482Y-102010908D01*
X119432483Y-102010908D01*
X119372883Y-102004501D01*
X119372881Y-102004500D01*
X119372873Y-102004500D01*
X119372864Y-102004500D01*
X118427129Y-102004500D01*
X118427123Y-102004501D01*
X118367516Y-102010908D01*
X118232671Y-102061202D01*
X118232664Y-102061206D01*
X118117455Y-102147452D01*
X118117452Y-102147455D01*
X118031206Y-102262664D01*
X118031202Y-102262671D01*
X117980908Y-102397517D01*
X117974606Y-102456143D01*
X117974501Y-102457123D01*
X117974500Y-102457135D01*
X117064857Y-102457135D01*
X117014326Y-102094892D01*
X117013270Y-102083496D01*
X117013257Y-102083221D01*
X116995432Y-101697655D01*
X116995300Y-101691928D01*
X116995300Y-101621760D01*
X116995187Y-101620068D01*
X116995080Y-101549072D01*
X139739498Y-101549072D01*
X139764496Y-101674739D01*
X139764498Y-101674745D01*
X139813532Y-101793125D01*
X139813537Y-101793134D01*
X139884722Y-101899669D01*
X139884725Y-101899673D01*
X139975326Y-101990274D01*
X139975330Y-101990277D01*
X140081865Y-102061462D01*
X140081871Y-102061465D01*
X140081872Y-102061466D01*
X140200255Y-102110502D01*
X140200259Y-102110502D01*
X140200260Y-102110503D01*
X140325927Y-102135501D01*
X140325930Y-102135501D01*
X140454070Y-102135501D01*
X140538614Y-102118683D01*
X140579743Y-102110502D01*
X140698126Y-102061466D01*
X140804668Y-101990277D01*
X140895275Y-101899670D01*
X140966464Y-101793128D01*
X141015500Y-101674745D01*
X141024618Y-101628908D01*
X141040499Y-101549072D01*
X141040499Y-101420929D01*
X141015501Y-101295262D01*
X141015500Y-101295261D01*
X141015500Y-101295257D01*
X140975099Y-101197720D01*
X140973588Y-101194071D01*
X145109802Y-101194071D01*
X145134800Y-101319738D01*
X145134802Y-101319744D01*
X145183836Y-101438124D01*
X145183841Y-101438133D01*
X145255026Y-101544668D01*
X145255029Y-101544672D01*
X145345630Y-101635273D01*
X145345634Y-101635276D01*
X145452169Y-101706461D01*
X145452175Y-101706464D01*
X145452176Y-101706465D01*
X145570559Y-101755501D01*
X145570563Y-101755501D01*
X145570564Y-101755502D01*
X145696231Y-101780500D01*
X145696234Y-101780500D01*
X145824374Y-101780500D01*
X145926952Y-101760095D01*
X145950047Y-101755501D01*
X146068430Y-101706465D01*
X146174972Y-101635276D01*
X146265579Y-101544669D01*
X146336768Y-101438127D01*
X146336770Y-101438120D01*
X146339638Y-101432757D01*
X146341206Y-101433595D01*
X146379772Y-101385731D01*
X146446064Y-101363660D01*
X146513765Y-101380934D01*
X146561379Y-101432067D01*
X146574500Y-101487581D01*
X146574500Y-101570570D01*
X146574500Y-101570572D01*
X146574499Y-101570572D01*
X146599497Y-101696239D01*
X146599499Y-101696245D01*
X146648533Y-101814625D01*
X146648538Y-101814634D01*
X146719723Y-101921169D01*
X146719726Y-101921173D01*
X146810327Y-102011774D01*
X146810331Y-102011777D01*
X146916866Y-102082962D01*
X146916875Y-102082967D01*
X146931971Y-102089220D01*
X147035256Y-102132002D01*
X147035260Y-102132002D01*
X147035261Y-102132003D01*
X147160928Y-102157001D01*
X147160931Y-102157001D01*
X147289071Y-102157001D01*
X147390910Y-102136743D01*
X147414744Y-102132002D01*
X147533127Y-102082966D01*
X147639669Y-102011777D01*
X147730276Y-101921170D01*
X147801465Y-101814628D01*
X147850501Y-101696245D01*
X147862629Y-101635276D01*
X147875500Y-101570572D01*
X147875500Y-101442429D01*
X147850502Y-101316762D01*
X147850501Y-101316761D01*
X147850501Y-101316757D01*
X147801465Y-101198374D01*
X147801464Y-101198373D01*
X147801461Y-101198367D01*
X147730276Y-101091832D01*
X147730273Y-101091828D01*
X147639672Y-101001227D01*
X147639668Y-101001224D01*
X147533133Y-100930039D01*
X147533124Y-100930034D01*
X147414744Y-100881000D01*
X147414738Y-100880998D01*
X147289071Y-100856001D01*
X147289069Y-100856001D01*
X147160931Y-100856001D01*
X147160929Y-100856001D01*
X147035261Y-100880998D01*
X147035255Y-100881000D01*
X146916875Y-100930034D01*
X146916866Y-100930039D01*
X146810331Y-101001224D01*
X146810327Y-101001227D01*
X146719726Y-101091828D01*
X146719723Y-101091832D01*
X146648538Y-101198367D01*
X146645665Y-101203744D01*
X146644097Y-101202906D01*
X146605522Y-101250776D01*
X146539227Y-101272840D01*
X146471528Y-101255560D01*
X146423918Y-101204422D01*
X146410803Y-101148919D01*
X146410803Y-101065928D01*
X146385805Y-100940261D01*
X146385804Y-100940260D01*
X146385804Y-100940256D01*
X146336768Y-100821873D01*
X146336767Y-100821872D01*
X146336764Y-100821866D01*
X146265579Y-100715331D01*
X146265576Y-100715327D01*
X146174975Y-100624726D01*
X146174971Y-100624723D01*
X146068436Y-100553538D01*
X146068427Y-100553533D01*
X145950047Y-100504499D01*
X145950041Y-100504497D01*
X145824374Y-100479500D01*
X145824372Y-100479500D01*
X145696234Y-100479500D01*
X145696232Y-100479500D01*
X145570564Y-100504497D01*
X145570558Y-100504499D01*
X145452178Y-100553533D01*
X145452169Y-100553538D01*
X145345634Y-100624723D01*
X145345630Y-100624726D01*
X145255029Y-100715327D01*
X145255026Y-100715331D01*
X145183841Y-100821866D01*
X145183836Y-100821875D01*
X145134802Y-100940255D01*
X145134800Y-100940261D01*
X145109803Y-101065928D01*
X145109803Y-101065931D01*
X145109803Y-101194069D01*
X145109803Y-101194071D01*
X145109802Y-101194071D01*
X140973588Y-101194071D01*
X140966465Y-101176876D01*
X140966460Y-101176867D01*
X140934296Y-101128730D01*
X140895275Y-101070332D01*
X140895272Y-101070328D01*
X140804671Y-100979727D01*
X140804667Y-100979724D01*
X140698132Y-100908539D01*
X140698123Y-100908534D01*
X140579743Y-100859500D01*
X140579737Y-100859498D01*
X140454070Y-100834501D01*
X140454068Y-100834501D01*
X140325930Y-100834501D01*
X140325928Y-100834501D01*
X140200260Y-100859498D01*
X140200254Y-100859500D01*
X140081874Y-100908534D01*
X140081865Y-100908539D01*
X139975330Y-100979724D01*
X139975326Y-100979727D01*
X139884725Y-101070328D01*
X139884722Y-101070332D01*
X139813537Y-101176867D01*
X139813532Y-101176876D01*
X139764498Y-101295256D01*
X139764496Y-101295262D01*
X139739499Y-101420929D01*
X139739499Y-101420932D01*
X139739499Y-101549070D01*
X139739499Y-101549072D01*
X139739498Y-101549072D01*
X116995080Y-101549072D01*
X116973283Y-87025675D01*
X117614500Y-87025675D01*
X117614500Y-87234324D01*
X117647137Y-87440389D01*
X117711612Y-87638820D01*
X117776990Y-87767131D01*
X117806330Y-87824714D01*
X117928965Y-87993505D01*
X118076495Y-88141035D01*
X118245286Y-88263670D01*
X118292271Y-88287610D01*
X118296010Y-88289515D01*
X118346806Y-88337490D01*
X118363601Y-88405310D01*
X118341064Y-88471445D01*
X118296010Y-88510485D01*
X118245285Y-88536330D01*
X118076493Y-88658966D01*
X117928966Y-88806493D01*
X117806330Y-88975285D01*
X117711612Y-89161179D01*
X117647137Y-89359610D01*
X117614500Y-89565675D01*
X117614500Y-89774324D01*
X117647137Y-89980389D01*
X117711612Y-90178820D01*
X117788512Y-90329744D01*
X117806330Y-90364714D01*
X117928965Y-90533505D01*
X118076495Y-90681035D01*
X118245286Y-90803670D01*
X118292271Y-90827610D01*
X118296010Y-90829515D01*
X118346806Y-90877490D01*
X118363601Y-90945310D01*
X118341064Y-91011445D01*
X118296010Y-91050485D01*
X118245285Y-91076330D01*
X118076493Y-91198966D01*
X117928966Y-91346493D01*
X117806330Y-91515285D01*
X117711612Y-91701179D01*
X117647137Y-91899610D01*
X117614500Y-92105675D01*
X117614500Y-92314324D01*
X117647137Y-92520389D01*
X117711612Y-92718820D01*
X117781254Y-92855500D01*
X117806330Y-92904714D01*
X117928965Y-93073505D01*
X118076495Y-93221035D01*
X118245286Y-93343670D01*
X118266871Y-93354668D01*
X118296010Y-93369515D01*
X118346806Y-93417490D01*
X118363601Y-93485310D01*
X118341064Y-93551445D01*
X118296010Y-93590485D01*
X118245285Y-93616330D01*
X118076493Y-93738966D01*
X117928966Y-93886493D01*
X117806330Y-94055285D01*
X117711612Y-94241179D01*
X117647137Y-94439610D01*
X117614500Y-94645675D01*
X117614500Y-94854324D01*
X117647137Y-95060389D01*
X117711612Y-95258820D01*
X117801248Y-95434740D01*
X117806330Y-95444714D01*
X117928965Y-95613505D01*
X118076495Y-95761035D01*
X118245286Y-95883670D01*
X118289787Y-95906344D01*
X118296010Y-95909515D01*
X118346806Y-95957490D01*
X118363601Y-96025310D01*
X118341064Y-96091445D01*
X118296010Y-96130485D01*
X118245285Y-96156330D01*
X118076493Y-96278966D01*
X117928966Y-96426493D01*
X117806330Y-96595285D01*
X117711612Y-96781179D01*
X117647137Y-96979610D01*
X117614500Y-97185675D01*
X117614500Y-97394324D01*
X117647137Y-97600389D01*
X117711612Y-97798820D01*
X117790716Y-97954069D01*
X117806330Y-97984714D01*
X117928965Y-98153505D01*
X118076495Y-98301035D01*
X118245286Y-98423670D01*
X118292271Y-98447610D01*
X118296010Y-98449515D01*
X118346806Y-98497490D01*
X118363601Y-98565310D01*
X118341064Y-98631445D01*
X118296010Y-98670485D01*
X118245285Y-98696330D01*
X118076493Y-98818966D01*
X117928966Y-98966493D01*
X117806330Y-99135285D01*
X117711612Y-99321179D01*
X117647137Y-99519610D01*
X117614500Y-99725675D01*
X117614500Y-99934324D01*
X117647137Y-100140389D01*
X117711612Y-100338820D01*
X117796029Y-100504497D01*
X117806330Y-100524714D01*
X117928965Y-100693505D01*
X118076495Y-100841035D01*
X118245286Y-100963670D01*
X118333116Y-101008421D01*
X118431179Y-101058387D01*
X118431181Y-101058387D01*
X118431184Y-101058389D01*
X118467941Y-101070332D01*
X118629610Y-101122862D01*
X118835676Y-101155500D01*
X118835681Y-101155500D01*
X119044324Y-101155500D01*
X119250389Y-101122862D01*
X119448816Y-101058389D01*
X119634714Y-100963670D01*
X119803505Y-100841035D01*
X119951035Y-100693505D01*
X120073670Y-100524714D01*
X120165790Y-100343917D01*
X130999500Y-100343917D01*
X130999500Y-100536082D01*
X131036986Y-100724535D01*
X131036989Y-100724547D01*
X131110520Y-100902068D01*
X131110521Y-100902070D01*
X131217279Y-101061844D01*
X131217282Y-101061848D01*
X131353151Y-101197717D01*
X131353155Y-101197720D01*
X131512927Y-101304477D01*
X131512928Y-101304477D01*
X131512929Y-101304478D01*
X131512931Y-101304479D01*
X131655808Y-101363660D01*
X131690457Y-101378012D01*
X131878917Y-101415499D01*
X131878920Y-101415500D01*
X131878922Y-101415500D01*
X132421080Y-101415500D01*
X132421081Y-101415499D01*
X132609543Y-101378012D01*
X132787073Y-101304477D01*
X132946845Y-101197720D01*
X133082720Y-101061845D01*
X133189477Y-100902073D01*
X133263012Y-100724543D01*
X133300500Y-100536078D01*
X133300500Y-100343922D01*
X133300500Y-100343919D01*
X133300499Y-100343917D01*
X135999500Y-100343917D01*
X135999500Y-100536082D01*
X136036986Y-100724535D01*
X136036989Y-100724547D01*
X136110520Y-100902068D01*
X136110521Y-100902070D01*
X136217279Y-101061844D01*
X136217282Y-101061848D01*
X136353151Y-101197717D01*
X136353155Y-101197720D01*
X136512927Y-101304477D01*
X136512928Y-101304477D01*
X136512929Y-101304478D01*
X136512931Y-101304479D01*
X136655808Y-101363660D01*
X136690457Y-101378012D01*
X136878917Y-101415499D01*
X136878920Y-101415500D01*
X136878922Y-101415500D01*
X137421080Y-101415500D01*
X137421081Y-101415499D01*
X137609543Y-101378012D01*
X137787073Y-101304477D01*
X137946845Y-101197720D01*
X138082720Y-101061845D01*
X138189477Y-100902073D01*
X138263012Y-100724543D01*
X138300500Y-100536078D01*
X138300500Y-100343922D01*
X138300500Y-100343919D01*
X138300499Y-100343917D01*
X138263013Y-100155464D01*
X138263012Y-100155457D01*
X138189477Y-99977927D01*
X138082720Y-99818155D01*
X138082717Y-99818151D01*
X137946848Y-99682282D01*
X137946844Y-99682279D01*
X137787070Y-99575521D01*
X137787068Y-99575520D01*
X137609547Y-99501989D01*
X137609535Y-99501986D01*
X137421081Y-99464500D01*
X137421078Y-99464500D01*
X136878922Y-99464500D01*
X136878919Y-99464500D01*
X136690464Y-99501986D01*
X136690452Y-99501989D01*
X136512931Y-99575520D01*
X136512929Y-99575521D01*
X136353155Y-99682279D01*
X136353151Y-99682282D01*
X136217282Y-99818151D01*
X136217279Y-99818155D01*
X136110521Y-99977929D01*
X136110520Y-99977931D01*
X136036989Y-100155452D01*
X136036986Y-100155464D01*
X135999500Y-100343917D01*
X133300499Y-100343917D01*
X133263013Y-100155464D01*
X133263012Y-100155457D01*
X133189477Y-99977927D01*
X133082720Y-99818155D01*
X133082717Y-99818151D01*
X132946848Y-99682282D01*
X132946844Y-99682279D01*
X132787070Y-99575521D01*
X132787068Y-99575520D01*
X132609547Y-99501989D01*
X132609535Y-99501986D01*
X132421081Y-99464500D01*
X132421078Y-99464500D01*
X131878922Y-99464500D01*
X131878919Y-99464500D01*
X131690464Y-99501986D01*
X131690452Y-99501989D01*
X131512931Y-99575520D01*
X131512929Y-99575521D01*
X131353155Y-99682279D01*
X131353151Y-99682282D01*
X131217282Y-99818151D01*
X131217279Y-99818155D01*
X131110521Y-99977929D01*
X131110520Y-99977931D01*
X131036989Y-100155452D01*
X131036986Y-100155464D01*
X130999500Y-100343917D01*
X120165790Y-100343917D01*
X120168389Y-100338816D01*
X120176014Y-100315347D01*
X120181161Y-100299510D01*
X120232861Y-100140393D01*
X120232861Y-100140392D01*
X120232862Y-100140389D01*
X120258593Y-99977929D01*
X120265500Y-99934324D01*
X120265500Y-99725675D01*
X120232862Y-99519610D01*
X120168387Y-99321179D01*
X120073667Y-99135281D01*
X120029921Y-99075071D01*
X148709154Y-99075071D01*
X148734152Y-99200738D01*
X148734154Y-99200744D01*
X148783188Y-99319124D01*
X148783193Y-99319133D01*
X148854378Y-99425668D01*
X148854381Y-99425672D01*
X148944982Y-99516273D01*
X148944986Y-99516276D01*
X149051521Y-99587461D01*
X149051527Y-99587464D01*
X149051528Y-99587465D01*
X149169911Y-99636501D01*
X149169915Y-99636501D01*
X149169916Y-99636502D01*
X149295583Y-99661500D01*
X149295586Y-99661500D01*
X149423726Y-99661500D01*
X149508270Y-99644682D01*
X149549399Y-99636501D01*
X149667782Y-99587465D01*
X149774324Y-99516276D01*
X149864931Y-99425669D01*
X149936120Y-99319127D01*
X149985156Y-99200744D01*
X150010155Y-99075069D01*
X150010155Y-98946931D01*
X150010155Y-98946928D01*
X149985157Y-98821261D01*
X149985156Y-98821260D01*
X149985156Y-98821256D01*
X149936120Y-98702873D01*
X149936119Y-98702872D01*
X149936116Y-98702866D01*
X149864931Y-98596331D01*
X149864928Y-98596327D01*
X149774327Y-98505726D01*
X149774323Y-98505723D01*
X149667788Y-98434538D01*
X149667779Y-98434533D01*
X149549399Y-98385499D01*
X149549393Y-98385497D01*
X149423726Y-98360500D01*
X149423724Y-98360500D01*
X149295586Y-98360500D01*
X149295584Y-98360500D01*
X149169916Y-98385497D01*
X149169910Y-98385499D01*
X149051530Y-98434533D01*
X149051521Y-98434538D01*
X148944986Y-98505723D01*
X148944982Y-98505726D01*
X148854381Y-98596327D01*
X148854378Y-98596331D01*
X148783193Y-98702866D01*
X148783188Y-98702875D01*
X148734154Y-98821255D01*
X148734152Y-98821261D01*
X148709155Y-98946928D01*
X148709155Y-98946931D01*
X148709155Y-99075069D01*
X148709155Y-99075071D01*
X148709154Y-99075071D01*
X120029921Y-99075071D01*
X119985350Y-99013725D01*
X119985349Y-99013724D01*
X119951037Y-98966498D01*
X119951032Y-98966492D01*
X119803506Y-98818966D01*
X119634712Y-98696328D01*
X119583990Y-98670485D01*
X119533194Y-98622511D01*
X119516398Y-98554690D01*
X119538935Y-98488555D01*
X119583990Y-98449515D01*
X119634712Y-98423671D01*
X119634711Y-98423671D01*
X119634714Y-98423670D01*
X119803505Y-98301035D01*
X119951035Y-98153505D01*
X120073670Y-97984714D01*
X120089283Y-97954071D01*
X123214499Y-97954071D01*
X123239497Y-98079738D01*
X123239499Y-98079744D01*
X123288533Y-98198124D01*
X123288538Y-98198133D01*
X123359723Y-98304668D01*
X123359726Y-98304672D01*
X123450327Y-98395273D01*
X123450331Y-98395276D01*
X123556866Y-98466461D01*
X123556872Y-98466464D01*
X123556873Y-98466465D01*
X123675256Y-98515501D01*
X123675260Y-98515501D01*
X123675261Y-98515502D01*
X123800928Y-98540500D01*
X123800931Y-98540500D01*
X123929071Y-98540500D01*
X124040225Y-98518389D01*
X124054744Y-98515501D01*
X124173127Y-98466465D01*
X124279669Y-98395276D01*
X124370276Y-98304669D01*
X124441465Y-98198127D01*
X124490501Y-98079744D01*
X124506548Y-97999071D01*
X135490375Y-97999071D01*
X135515373Y-98124738D01*
X135515375Y-98124744D01*
X135564409Y-98243124D01*
X135564414Y-98243133D01*
X135635599Y-98349668D01*
X135635602Y-98349672D01*
X135726203Y-98440273D01*
X135726207Y-98440276D01*
X135832742Y-98511461D01*
X135832751Y-98511466D01*
X135842495Y-98515502D01*
X135951132Y-98560501D01*
X135951136Y-98560501D01*
X135951137Y-98560502D01*
X136076804Y-98585500D01*
X136076807Y-98585500D01*
X136204947Y-98585500D01*
X136306444Y-98565310D01*
X136330620Y-98560501D01*
X136449003Y-98511465D01*
X136555545Y-98440276D01*
X136646152Y-98349669D01*
X136717341Y-98243127D01*
X136756300Y-98149071D01*
X139718623Y-98149071D01*
X139743621Y-98274738D01*
X139743623Y-98274744D01*
X139792657Y-98393124D01*
X139792662Y-98393133D01*
X139863847Y-98499668D01*
X139863850Y-98499672D01*
X139954451Y-98590273D01*
X139954455Y-98590276D01*
X140060990Y-98661461D01*
X140060996Y-98661464D01*
X140060997Y-98661465D01*
X140179380Y-98710501D01*
X140179384Y-98710501D01*
X140179385Y-98710502D01*
X140305052Y-98735500D01*
X140305055Y-98735500D01*
X140433195Y-98735500D01*
X140517739Y-98718682D01*
X140558868Y-98710501D01*
X140677251Y-98661465D01*
X140783793Y-98590276D01*
X140874400Y-98499669D01*
X140945589Y-98393127D01*
X140994625Y-98274744D01*
X141009864Y-98198133D01*
X141019624Y-98149071D01*
X141019624Y-98020928D01*
X140994626Y-97895261D01*
X140994625Y-97895260D01*
X140994625Y-97895256D01*
X140945589Y-97776873D01*
X140945588Y-97776872D01*
X140945585Y-97776866D01*
X140874400Y-97670331D01*
X140874397Y-97670327D01*
X140783796Y-97579726D01*
X140783792Y-97579723D01*
X140677257Y-97508538D01*
X140677248Y-97508533D01*
X140558868Y-97459499D01*
X140558862Y-97459497D01*
X140433195Y-97434500D01*
X140433193Y-97434500D01*
X140305055Y-97434500D01*
X140305053Y-97434500D01*
X140179385Y-97459497D01*
X140179379Y-97459499D01*
X140060999Y-97508533D01*
X140060990Y-97508538D01*
X139954455Y-97579723D01*
X139954451Y-97579726D01*
X139863850Y-97670327D01*
X139863847Y-97670331D01*
X139792662Y-97776866D01*
X139792657Y-97776875D01*
X139743623Y-97895255D01*
X139743621Y-97895261D01*
X139718624Y-98020928D01*
X139718624Y-98020931D01*
X139718624Y-98149069D01*
X139718624Y-98149071D01*
X139718623Y-98149071D01*
X136756300Y-98149071D01*
X136766377Y-98124744D01*
X136775328Y-98079744D01*
X136791376Y-97999071D01*
X136791376Y-97870928D01*
X136766378Y-97745261D01*
X136766377Y-97745260D01*
X136766377Y-97745256D01*
X136717341Y-97626873D01*
X136717340Y-97626872D01*
X136717337Y-97626866D01*
X136646152Y-97520331D01*
X136646149Y-97520327D01*
X136555548Y-97429726D01*
X136555544Y-97429723D01*
X136449009Y-97358538D01*
X136449000Y-97358533D01*
X136330620Y-97309499D01*
X136330614Y-97309497D01*
X136204947Y-97284500D01*
X136204945Y-97284500D01*
X136076807Y-97284500D01*
X136076805Y-97284500D01*
X135951137Y-97309497D01*
X135951131Y-97309499D01*
X135832751Y-97358533D01*
X135832742Y-97358538D01*
X135726207Y-97429723D01*
X135726203Y-97429726D01*
X135635602Y-97520327D01*
X135635599Y-97520331D01*
X135564414Y-97626866D01*
X135564409Y-97626875D01*
X135515375Y-97745255D01*
X135515373Y-97745261D01*
X135490376Y-97870928D01*
X135490376Y-97870931D01*
X135490376Y-97999069D01*
X135490376Y-97999071D01*
X135490375Y-97999071D01*
X124506548Y-97999071D01*
X124509413Y-97984669D01*
X124515500Y-97954071D01*
X124515500Y-97825928D01*
X124490502Y-97700261D01*
X124490501Y-97700260D01*
X124490501Y-97700256D01*
X124441465Y-97581873D01*
X124441464Y-97581872D01*
X124441461Y-97581866D01*
X124370276Y-97475331D01*
X124370273Y-97475327D01*
X124279672Y-97384726D01*
X124279668Y-97384723D01*
X124173133Y-97313538D01*
X124173124Y-97313533D01*
X124054744Y-97264499D01*
X124054738Y-97264497D01*
X123929071Y-97239500D01*
X123929069Y-97239500D01*
X123800931Y-97239500D01*
X123800929Y-97239500D01*
X123675261Y-97264497D01*
X123675255Y-97264499D01*
X123556875Y-97313533D01*
X123556866Y-97313538D01*
X123450331Y-97384723D01*
X123450327Y-97384726D01*
X123359726Y-97475327D01*
X123359723Y-97475331D01*
X123288538Y-97581866D01*
X123288533Y-97581875D01*
X123239499Y-97700255D01*
X123239497Y-97700261D01*
X123214500Y-97825928D01*
X123214500Y-97825931D01*
X123214500Y-97954069D01*
X123214500Y-97954071D01*
X123214499Y-97954071D01*
X120089283Y-97954071D01*
X120168389Y-97798816D01*
X120232862Y-97600389D01*
X120233483Y-97596466D01*
X120265500Y-97394324D01*
X120265500Y-97214071D01*
X121494499Y-97214071D01*
X121519497Y-97339738D01*
X121519499Y-97339744D01*
X121568533Y-97458124D01*
X121568538Y-97458133D01*
X121639723Y-97564668D01*
X121639726Y-97564672D01*
X121730327Y-97655273D01*
X121730331Y-97655276D01*
X121836866Y-97726461D01*
X121836872Y-97726464D01*
X121836873Y-97726465D01*
X121955256Y-97775501D01*
X121955260Y-97775501D01*
X121955261Y-97775502D01*
X122080928Y-97800500D01*
X122080931Y-97800500D01*
X122209071Y-97800500D01*
X122293615Y-97783682D01*
X122334744Y-97775501D01*
X122453127Y-97726465D01*
X122453133Y-97726461D01*
X122467687Y-97716737D01*
X122513867Y-97685880D01*
X122559669Y-97655276D01*
X122650276Y-97564669D01*
X122721465Y-97458127D01*
X122770501Y-97339744D01*
X122785992Y-97261866D01*
X122795500Y-97214071D01*
X122795500Y-97085928D01*
X122770502Y-96960261D01*
X122770501Y-96960260D01*
X122770501Y-96960256D01*
X122731926Y-96867128D01*
X122721466Y-96841875D01*
X122721461Y-96841866D01*
X122650276Y-96735331D01*
X122650273Y-96735327D01*
X122559672Y-96644726D01*
X122559668Y-96644723D01*
X122453133Y-96573538D01*
X122453124Y-96573533D01*
X122334744Y-96524499D01*
X122334738Y-96524497D01*
X122209071Y-96499500D01*
X122209069Y-96499500D01*
X122080931Y-96499500D01*
X122080929Y-96499500D01*
X121955261Y-96524497D01*
X121955255Y-96524499D01*
X121836875Y-96573533D01*
X121836866Y-96573538D01*
X121730331Y-96644723D01*
X121730327Y-96644726D01*
X121639726Y-96735327D01*
X121639723Y-96735331D01*
X121568538Y-96841866D01*
X121568533Y-96841875D01*
X121519499Y-96960255D01*
X121519497Y-96960261D01*
X121494500Y-97085928D01*
X121494500Y-97085931D01*
X121494500Y-97214069D01*
X121494500Y-97214071D01*
X121494499Y-97214071D01*
X120265500Y-97214071D01*
X120265500Y-97185675D01*
X120251809Y-97099237D01*
X120246342Y-97064723D01*
X120232862Y-96979611D01*
X120168389Y-96781184D01*
X120168387Y-96781181D01*
X120168387Y-96781179D01*
X120118421Y-96683116D01*
X120073670Y-96595286D01*
X119951035Y-96426495D01*
X119858611Y-96334071D01*
X123379499Y-96334071D01*
X123404497Y-96459738D01*
X123404499Y-96459744D01*
X123453533Y-96578124D01*
X123453538Y-96578133D01*
X123524723Y-96684668D01*
X123524726Y-96684672D01*
X123615327Y-96775273D01*
X123615331Y-96775276D01*
X123721866Y-96846461D01*
X123721872Y-96846464D01*
X123721873Y-96846465D01*
X123840256Y-96895501D01*
X123840260Y-96895501D01*
X123840261Y-96895502D01*
X123965928Y-96920500D01*
X123965931Y-96920500D01*
X124094071Y-96920500D01*
X124178615Y-96903682D01*
X124219744Y-96895501D01*
X124338127Y-96846465D01*
X124444669Y-96775276D01*
X124535276Y-96684669D01*
X124606465Y-96578127D01*
X124655501Y-96459744D01*
X124667331Y-96400273D01*
X124680500Y-96334071D01*
X124680500Y-96205928D01*
X124655502Y-96080261D01*
X124655501Y-96080260D01*
X124655501Y-96080256D01*
X124607626Y-95964676D01*
X124606466Y-95961875D01*
X124606461Y-95961866D01*
X124535276Y-95855331D01*
X124535273Y-95855327D01*
X124444672Y-95764726D01*
X124444668Y-95764723D01*
X124338133Y-95693538D01*
X124338124Y-95693533D01*
X124219744Y-95644499D01*
X124219738Y-95644497D01*
X124094071Y-95619500D01*
X124094069Y-95619500D01*
X123965931Y-95619500D01*
X123965929Y-95619500D01*
X123840261Y-95644497D01*
X123840255Y-95644499D01*
X123721875Y-95693533D01*
X123721866Y-95693538D01*
X123615331Y-95764723D01*
X123615327Y-95764726D01*
X123524726Y-95855327D01*
X123524723Y-95855331D01*
X123453538Y-95961866D01*
X123453533Y-95961875D01*
X123404499Y-96080255D01*
X123404497Y-96080261D01*
X123379500Y-96205928D01*
X123379500Y-96205931D01*
X123379500Y-96334069D01*
X123379500Y-96334071D01*
X123379499Y-96334071D01*
X119858611Y-96334071D01*
X119803505Y-96278965D01*
X119731455Y-96226617D01*
X119634712Y-96156328D01*
X119583990Y-96130485D01*
X119533194Y-96082511D01*
X119516398Y-96014690D01*
X119538935Y-95948555D01*
X119583990Y-95909515D01*
X119634712Y-95883671D01*
X119634711Y-95883671D01*
X119634714Y-95883670D01*
X119803505Y-95761035D01*
X119951035Y-95613505D01*
X120073670Y-95444714D01*
X120168389Y-95258816D01*
X120232862Y-95060389D01*
X120241687Y-95004668D01*
X120254226Y-94925503D01*
X120284155Y-94862368D01*
X120343467Y-94825437D01*
X120403918Y-94826141D01*
X120404282Y-94824313D01*
X120535928Y-94850500D01*
X120535931Y-94850500D01*
X120664071Y-94850500D01*
X120748615Y-94833682D01*
X120789744Y-94825501D01*
X120908127Y-94776465D01*
X121014669Y-94705276D01*
X121105276Y-94614669D01*
X121176465Y-94508127D01*
X121225501Y-94389744D01*
X121239735Y-94318187D01*
X121250500Y-94264071D01*
X121250500Y-94135928D01*
X121225502Y-94010261D01*
X121225501Y-94010260D01*
X121225501Y-94010256D01*
X121176465Y-93891873D01*
X121176464Y-93891872D01*
X121176461Y-93891866D01*
X121105276Y-93785331D01*
X121105273Y-93785327D01*
X121014672Y-93694726D01*
X121014668Y-93694723D01*
X120908133Y-93623538D01*
X120908124Y-93623533D01*
X120789744Y-93574499D01*
X120789738Y-93574497D01*
X120664071Y-93549500D01*
X120664069Y-93549500D01*
X120535931Y-93549500D01*
X120535929Y-93549500D01*
X120410261Y-93574497D01*
X120410255Y-93574499D01*
X120291875Y-93623533D01*
X120291866Y-93623538D01*
X120185331Y-93694723D01*
X120185327Y-93694726D01*
X120094726Y-93785327D01*
X120094722Y-93785332D01*
X120080590Y-93806482D01*
X120026977Y-93851285D01*
X119957652Y-93859991D01*
X119894625Y-93829834D01*
X119889809Y-93825269D01*
X119803506Y-93738966D01*
X119634712Y-93616328D01*
X119583990Y-93590485D01*
X119533194Y-93542511D01*
X119516398Y-93474690D01*
X119538935Y-93408555D01*
X119583990Y-93369515D01*
X119634712Y-93343671D01*
X119634711Y-93343671D01*
X119634714Y-93343670D01*
X119803505Y-93221035D01*
X119951035Y-93073505D01*
X120001482Y-93004071D01*
X121449499Y-93004071D01*
X121474497Y-93129738D01*
X121474499Y-93129744D01*
X121523533Y-93248124D01*
X121523538Y-93248133D01*
X121594723Y-93354668D01*
X121594726Y-93354672D01*
X121685327Y-93445273D01*
X121685331Y-93445276D01*
X121791866Y-93516461D01*
X121791870Y-93516463D01*
X121791873Y-93516465D01*
X121804297Y-93521611D01*
X121815525Y-93526262D01*
X121869928Y-93570104D01*
X121891992Y-93636398D01*
X121874712Y-93704097D01*
X121855753Y-93728504D01*
X121773926Y-93810331D01*
X121702741Y-93916866D01*
X121702736Y-93916875D01*
X121653702Y-94035255D01*
X121653700Y-94035261D01*
X121628703Y-94160928D01*
X121628703Y-94160931D01*
X121628703Y-94289069D01*
X121628703Y-94289071D01*
X121628702Y-94289071D01*
X121653700Y-94414738D01*
X121653702Y-94414744D01*
X121702736Y-94533124D01*
X121702741Y-94533133D01*
X121773926Y-94639668D01*
X121773929Y-94639672D01*
X121864530Y-94730273D01*
X121864534Y-94730276D01*
X121971069Y-94801461D01*
X121971075Y-94801464D01*
X121971076Y-94801465D01*
X122089459Y-94850501D01*
X122089463Y-94850501D01*
X122089464Y-94850502D01*
X122215131Y-94875500D01*
X122215134Y-94875500D01*
X122343274Y-94875500D01*
X122427818Y-94858682D01*
X122468947Y-94850501D01*
X122587330Y-94801465D01*
X122693872Y-94730276D01*
X122770077Y-94654071D01*
X125549499Y-94654071D01*
X125574497Y-94779738D01*
X125574499Y-94779744D01*
X125623533Y-94898124D01*
X125623538Y-94898133D01*
X125694723Y-95004668D01*
X125694726Y-95004672D01*
X125785327Y-95095273D01*
X125785331Y-95095276D01*
X125891866Y-95166461D01*
X125891872Y-95166464D01*
X125891873Y-95166465D01*
X126010256Y-95215501D01*
X126010260Y-95215501D01*
X126010261Y-95215502D01*
X126135928Y-95240500D01*
X126135931Y-95240500D01*
X126264071Y-95240500D01*
X126348615Y-95223682D01*
X126389744Y-95215501D01*
X126508127Y-95166465D01*
X126614669Y-95095276D01*
X126705276Y-95004669D01*
X126776465Y-94898127D01*
X126825501Y-94779744D01*
X126839747Y-94708127D01*
X126850500Y-94654071D01*
X126850500Y-94525928D01*
X126825502Y-94400261D01*
X126825501Y-94400260D01*
X126825501Y-94400256D01*
X126776465Y-94281873D01*
X126776464Y-94281872D01*
X126776461Y-94281866D01*
X126757889Y-94254071D01*
X130359499Y-94254071D01*
X130384497Y-94379738D01*
X130384499Y-94379744D01*
X130433533Y-94498124D01*
X130433538Y-94498133D01*
X130504723Y-94604668D01*
X130504726Y-94604672D01*
X130595327Y-94695273D01*
X130595331Y-94695276D01*
X130701866Y-94766461D01*
X130701872Y-94766464D01*
X130701873Y-94766465D01*
X130820256Y-94815501D01*
X130820260Y-94815501D01*
X130820261Y-94815502D01*
X130945928Y-94840500D01*
X130945931Y-94840500D01*
X131074071Y-94840500D01*
X131158615Y-94823682D01*
X131199744Y-94815501D01*
X131318127Y-94766465D01*
X131424669Y-94695276D01*
X131515276Y-94604669D01*
X131586465Y-94498127D01*
X131600572Y-94464071D01*
X135179499Y-94464071D01*
X135204497Y-94589738D01*
X135204499Y-94589744D01*
X135253533Y-94708124D01*
X135253538Y-94708133D01*
X135324723Y-94814668D01*
X135324726Y-94814672D01*
X135415327Y-94905273D01*
X135415331Y-94905276D01*
X135521866Y-94976461D01*
X135521875Y-94976466D01*
X135547946Y-94987265D01*
X135640256Y-95025501D01*
X135640260Y-95025501D01*
X135640261Y-95025502D01*
X135765928Y-95050500D01*
X135765931Y-95050500D01*
X135894071Y-95050500D01*
X135978615Y-95033682D01*
X136019744Y-95025501D01*
X136138127Y-94976465D01*
X136244669Y-94905276D01*
X136335276Y-94814669D01*
X136390825Y-94731534D01*
X137274499Y-94731534D01*
X137299497Y-94857201D01*
X137299499Y-94857207D01*
X137348533Y-94975587D01*
X137348537Y-94975594D01*
X137361002Y-94994249D01*
X137381879Y-95060926D01*
X137379516Y-95087330D01*
X137358957Y-95190685D01*
X137358957Y-95190690D01*
X137358957Y-95318828D01*
X137358957Y-95318830D01*
X137358956Y-95318830D01*
X137383954Y-95444497D01*
X137383956Y-95444503D01*
X137432993Y-95562891D01*
X137433585Y-95563997D01*
X137433719Y-95564642D01*
X137435323Y-95568514D01*
X137434588Y-95568818D01*
X137447826Y-95632400D01*
X137438789Y-95669896D01*
X137434500Y-95680251D01*
X137434498Y-95680257D01*
X137409500Y-95805928D01*
X137409500Y-95805931D01*
X137409500Y-95934069D01*
X137409500Y-95934071D01*
X137409499Y-95934071D01*
X137434497Y-96059738D01*
X137434499Y-96059744D01*
X137483533Y-96178124D01*
X137483538Y-96178133D01*
X137554723Y-96284668D01*
X137554726Y-96284672D01*
X137645327Y-96375273D01*
X137645331Y-96375276D01*
X137751866Y-96446461D01*
X137751872Y-96446464D01*
X137751873Y-96446465D01*
X137870256Y-96495501D01*
X137870260Y-96495501D01*
X137870261Y-96495502D01*
X137995928Y-96520500D01*
X137995931Y-96520500D01*
X138124071Y-96520500D01*
X138229640Y-96499500D01*
X138249744Y-96495501D01*
X138368127Y-96446465D01*
X138474669Y-96375276D01*
X138565276Y-96284669D01*
X138636465Y-96178127D01*
X138685501Y-96059744D01*
X138701323Y-95980203D01*
X138710500Y-95934071D01*
X138710500Y-95805928D01*
X138685502Y-95680261D01*
X138685501Y-95680257D01*
X138685501Y-95680256D01*
X138636465Y-95561873D01*
X138636464Y-95561871D01*
X138635870Y-95560759D01*
X138635734Y-95560109D01*
X138634134Y-95556245D01*
X138634867Y-95555941D01*
X138621630Y-95492356D01*
X138630668Y-95454858D01*
X138634958Y-95444503D01*
X138659957Y-95318828D01*
X138659957Y-95309073D01*
X139024499Y-95309073D01*
X139049497Y-95434740D01*
X139049499Y-95434746D01*
X139098533Y-95553126D01*
X139098538Y-95553135D01*
X139169723Y-95659670D01*
X139169726Y-95659674D01*
X139260327Y-95750275D01*
X139260331Y-95750278D01*
X139366866Y-95821463D01*
X139366872Y-95821466D01*
X139366873Y-95821467D01*
X139485256Y-95870503D01*
X139546230Y-95882632D01*
X139608138Y-95915015D01*
X139625135Y-95935353D01*
X139644724Y-95964669D01*
X139644727Y-95964672D01*
X139644730Y-95964676D01*
X139735327Y-96055273D01*
X139735331Y-96055276D01*
X139841866Y-96126461D01*
X139841872Y-96126464D01*
X139841873Y-96126465D01*
X139960256Y-96175501D01*
X139960260Y-96175501D01*
X139960261Y-96175502D01*
X140085928Y-96200500D01*
X140085931Y-96200500D01*
X140214071Y-96200500D01*
X140326512Y-96178133D01*
X140339744Y-96175501D01*
X140458127Y-96126465D01*
X140564669Y-96055276D01*
X140655276Y-95964669D01*
X140726465Y-95858127D01*
X140775501Y-95739744D01*
X140793160Y-95650969D01*
X140825545Y-95589058D01*
X140886260Y-95554484D01*
X140956030Y-95558223D01*
X141012702Y-95599090D01*
X141017879Y-95606269D01*
X141066923Y-95679668D01*
X141066926Y-95679672D01*
X141157527Y-95770273D01*
X141157531Y-95770276D01*
X141264066Y-95841461D01*
X141264072Y-95841464D01*
X141264073Y-95841465D01*
X141382456Y-95890501D01*
X141382460Y-95890501D01*
X141382461Y-95890502D01*
X141508128Y-95915500D01*
X141508131Y-95915500D01*
X141636271Y-95915500D01*
X141751130Y-95892652D01*
X141761944Y-95890501D01*
X141880327Y-95841465D01*
X141929255Y-95808771D01*
X141937532Y-95803242D01*
X142004209Y-95782364D01*
X142071589Y-95800848D01*
X142118280Y-95852827D01*
X142130423Y-95906344D01*
X142130423Y-95959069D01*
X142130423Y-95959071D01*
X142130422Y-95959071D01*
X142155420Y-96084738D01*
X142155422Y-96084744D01*
X142204456Y-96203124D01*
X142204461Y-96203133D01*
X142275646Y-96309668D01*
X142275649Y-96309672D01*
X142366250Y-96400273D01*
X142366254Y-96400276D01*
X142472789Y-96471461D01*
X142472793Y-96471463D01*
X142472796Y-96471465D01*
X142513682Y-96488400D01*
X142553582Y-96504928D01*
X142607985Y-96548769D01*
X142630050Y-96615063D01*
X142619990Y-96668597D01*
X142615509Y-96678986D01*
X142593535Y-96711873D01*
X142544499Y-96830256D01*
X142539561Y-96855077D01*
X142534364Y-96867128D01*
X142520093Y-96884320D01*
X142509734Y-96904124D01*
X142498207Y-96910687D01*
X142489739Y-96920890D01*
X142468439Y-96927637D01*
X142449018Y-96938697D01*
X142444695Y-96939637D01*
X142420261Y-96944497D01*
X142420257Y-96944498D01*
X142301875Y-96993533D01*
X142301866Y-96993538D01*
X142195331Y-97064723D01*
X142195327Y-97064726D01*
X142104726Y-97155327D01*
X142104723Y-97155331D01*
X142033538Y-97261866D01*
X142033533Y-97261875D01*
X141984499Y-97380255D01*
X141984497Y-97380261D01*
X141959500Y-97505928D01*
X141959500Y-97505931D01*
X141959500Y-97634069D01*
X141959500Y-97634071D01*
X141959499Y-97634071D01*
X141984497Y-97759738D01*
X141984499Y-97759744D01*
X142033533Y-97878124D01*
X142033538Y-97878133D01*
X142104723Y-97984668D01*
X142104726Y-97984672D01*
X142195327Y-98075273D01*
X142195331Y-98075276D01*
X142301866Y-98146461D01*
X142301875Y-98146466D01*
X142308164Y-98149071D01*
X142420256Y-98195501D01*
X142420260Y-98195501D01*
X142420261Y-98195502D01*
X142545928Y-98220500D01*
X142545931Y-98220500D01*
X142674071Y-98220500D01*
X142786512Y-98198133D01*
X142799744Y-98195501D01*
X142918127Y-98146465D01*
X143024669Y-98075276D01*
X143115276Y-97984669D01*
X143186465Y-97878127D01*
X143235501Y-97759744D01*
X143237878Y-97747790D01*
X143270260Y-97685880D01*
X143330975Y-97651304D01*
X143335277Y-97650367D01*
X143359744Y-97645501D01*
X143478127Y-97596465D01*
X143584669Y-97525276D01*
X143675276Y-97434669D01*
X143746465Y-97328127D01*
X143795501Y-97209744D01*
X143820130Y-97085931D01*
X143820500Y-97084071D01*
X143820500Y-96955928D01*
X143795502Y-96830261D01*
X143795501Y-96830260D01*
X143795501Y-96830256D01*
X143746465Y-96711873D01*
X143746464Y-96711872D01*
X143746461Y-96711866D01*
X143675276Y-96605331D01*
X143675273Y-96605327D01*
X143584672Y-96514726D01*
X143584668Y-96514723D01*
X143478133Y-96443538D01*
X143478127Y-96443535D01*
X143397339Y-96410071D01*
X143342936Y-96366229D01*
X143320872Y-96299935D01*
X143338152Y-96232236D01*
X143341683Y-96226630D01*
X143357388Y-96203127D01*
X143406424Y-96084744D01*
X143414605Y-96043615D01*
X143431423Y-95959071D01*
X143431423Y-95830928D01*
X143406425Y-95705261D01*
X143406424Y-95705260D01*
X143406424Y-95705256D01*
X143365422Y-95606269D01*
X143357389Y-95586875D01*
X143357384Y-95586866D01*
X143286199Y-95480331D01*
X143286196Y-95480327D01*
X143195595Y-95389726D01*
X143195591Y-95389723D01*
X143089056Y-95318538D01*
X143089047Y-95318533D01*
X142970667Y-95269499D01*
X142970661Y-95269497D01*
X142844994Y-95244500D01*
X142844992Y-95244500D01*
X142716854Y-95244500D01*
X142716852Y-95244500D01*
X142591184Y-95269497D01*
X142591178Y-95269499D01*
X142472798Y-95318533D01*
X142472791Y-95318537D01*
X142415590Y-95356758D01*
X142348913Y-95377635D01*
X142281533Y-95359150D01*
X142234843Y-95307171D01*
X142222700Y-95253655D01*
X142222700Y-95200928D01*
X142197702Y-95075261D01*
X142197701Y-95075260D01*
X142197701Y-95075256D01*
X142148665Y-94956873D01*
X142148664Y-94956872D01*
X142148661Y-94956866D01*
X142077476Y-94850331D01*
X142077473Y-94850327D01*
X141986872Y-94759726D01*
X141986868Y-94759723D01*
X141880333Y-94688538D01*
X141880324Y-94688533D01*
X141761944Y-94639499D01*
X141761938Y-94639497D01*
X141636271Y-94614500D01*
X141636269Y-94614500D01*
X141508131Y-94614500D01*
X141508129Y-94614500D01*
X141382461Y-94639497D01*
X141382455Y-94639499D01*
X141264075Y-94688533D01*
X141264066Y-94688538D01*
X141157531Y-94759723D01*
X141157527Y-94759726D01*
X141066926Y-94850327D01*
X141066923Y-94850331D01*
X140995738Y-94956866D01*
X140995733Y-94956875D01*
X140946699Y-95075255D01*
X140946697Y-95075260D01*
X140929039Y-95164032D01*
X140896653Y-95225942D01*
X140835937Y-95260516D01*
X140766168Y-95256775D01*
X140709496Y-95215908D01*
X140704320Y-95208730D01*
X140655276Y-95135331D01*
X140655273Y-95135327D01*
X140564672Y-95044726D01*
X140564668Y-95044723D01*
X140458133Y-94973538D01*
X140458124Y-94973533D01*
X140339742Y-94924498D01*
X140339739Y-94924497D01*
X140278770Y-94912369D01*
X140216859Y-94879983D01*
X140199861Y-94859643D01*
X140180276Y-94830333D01*
X140180273Y-94830329D01*
X140089672Y-94739728D01*
X140089668Y-94739725D01*
X139983133Y-94668540D01*
X139983124Y-94668535D01*
X139864744Y-94619501D01*
X139864738Y-94619499D01*
X139739071Y-94594502D01*
X139739069Y-94594502D01*
X139610931Y-94594502D01*
X139610929Y-94594502D01*
X139485261Y-94619499D01*
X139485255Y-94619501D01*
X139366875Y-94668535D01*
X139366866Y-94668540D01*
X139260331Y-94739725D01*
X139260327Y-94739728D01*
X139169726Y-94830329D01*
X139169723Y-94830333D01*
X139098538Y-94936868D01*
X139098533Y-94936877D01*
X139049499Y-95055257D01*
X139049497Y-95055263D01*
X139024500Y-95180930D01*
X139024500Y-95180933D01*
X139024500Y-95309071D01*
X139024500Y-95309073D01*
X139024499Y-95309073D01*
X138659957Y-95309073D01*
X138659957Y-95190690D01*
X138655138Y-95166466D01*
X138634959Y-95065020D01*
X138634958Y-95065019D01*
X138634958Y-95065015D01*
X138585922Y-94946632D01*
X138573455Y-94927975D01*
X138552577Y-94861299D01*
X138554940Y-94834892D01*
X138575500Y-94731534D01*
X138575500Y-94603391D01*
X138550502Y-94477724D01*
X138550501Y-94477723D01*
X138550501Y-94477719D01*
X138501465Y-94359336D01*
X138501464Y-94359335D01*
X138501461Y-94359329D01*
X138430276Y-94252794D01*
X138430273Y-94252790D01*
X138339672Y-94162189D01*
X138339668Y-94162186D01*
X138233133Y-94091001D01*
X138233124Y-94090996D01*
X138114744Y-94041962D01*
X138114738Y-94041960D01*
X137989071Y-94016963D01*
X137989069Y-94016963D01*
X137860931Y-94016963D01*
X137860929Y-94016963D01*
X137735261Y-94041960D01*
X137735255Y-94041962D01*
X137616875Y-94090996D01*
X137616866Y-94091001D01*
X137510331Y-94162186D01*
X137510327Y-94162189D01*
X137419726Y-94252790D01*
X137419723Y-94252794D01*
X137348538Y-94359329D01*
X137348533Y-94359338D01*
X137299499Y-94477718D01*
X137299497Y-94477724D01*
X137274500Y-94603391D01*
X137274500Y-94603394D01*
X137274500Y-94731532D01*
X137274500Y-94731534D01*
X137274499Y-94731534D01*
X136390825Y-94731534D01*
X136406465Y-94708127D01*
X136455501Y-94589744D01*
X136466445Y-94534726D01*
X136480500Y-94464071D01*
X136480500Y-94335928D01*
X136455502Y-94210261D01*
X136455501Y-94210260D01*
X136455501Y-94210256D01*
X136406465Y-94091873D01*
X136406464Y-94091872D01*
X136406461Y-94091866D01*
X136335276Y-93985331D01*
X136335273Y-93985327D01*
X136244672Y-93894726D01*
X136244668Y-93894723D01*
X136138133Y-93823538D01*
X136138124Y-93823533D01*
X136019744Y-93774499D01*
X136019738Y-93774497D01*
X135894071Y-93749500D01*
X135894069Y-93749500D01*
X135765931Y-93749500D01*
X135765929Y-93749500D01*
X135640261Y-93774497D01*
X135640255Y-93774499D01*
X135521875Y-93823533D01*
X135521866Y-93823538D01*
X135415331Y-93894723D01*
X135415327Y-93894726D01*
X135324726Y-93985327D01*
X135324723Y-93985331D01*
X135253538Y-94091866D01*
X135253533Y-94091875D01*
X135204499Y-94210255D01*
X135204497Y-94210261D01*
X135179500Y-94335928D01*
X135179500Y-94335931D01*
X135179500Y-94464069D01*
X135179500Y-94464071D01*
X135179499Y-94464071D01*
X131600572Y-94464071D01*
X131635501Y-94379744D01*
X131647746Y-94318187D01*
X131650241Y-94305647D01*
X131650241Y-94305646D01*
X131660499Y-94254073D01*
X131660500Y-94254071D01*
X131660500Y-94125928D01*
X131635502Y-94000261D01*
X131635501Y-94000260D01*
X131635501Y-94000256D01*
X131588379Y-93886493D01*
X131586466Y-93881875D01*
X131586461Y-93881866D01*
X131515276Y-93775331D01*
X131515273Y-93775327D01*
X131424672Y-93684726D01*
X131424668Y-93684723D01*
X131318133Y-93613538D01*
X131318124Y-93613533D01*
X131199744Y-93564499D01*
X131199738Y-93564497D01*
X131074071Y-93539500D01*
X131074069Y-93539500D01*
X130945931Y-93539500D01*
X130945929Y-93539500D01*
X130820261Y-93564497D01*
X130820255Y-93564499D01*
X130701875Y-93613533D01*
X130701866Y-93613538D01*
X130595331Y-93684723D01*
X130595327Y-93684726D01*
X130504726Y-93775327D01*
X130504723Y-93775331D01*
X130433538Y-93881866D01*
X130433533Y-93881875D01*
X130384499Y-94000255D01*
X130384497Y-94000261D01*
X130359500Y-94125928D01*
X130359500Y-94125931D01*
X130359500Y-94254069D01*
X130359500Y-94254071D01*
X130359499Y-94254071D01*
X126757889Y-94254071D01*
X126714229Y-94188730D01*
X126714228Y-94188729D01*
X126705274Y-94175328D01*
X126614672Y-94084726D01*
X126614668Y-94084723D01*
X126508133Y-94013538D01*
X126508124Y-94013533D01*
X126389744Y-93964499D01*
X126389738Y-93964497D01*
X126264071Y-93939500D01*
X126264069Y-93939500D01*
X126135931Y-93939500D01*
X126135929Y-93939500D01*
X126010261Y-93964497D01*
X126010255Y-93964499D01*
X125891875Y-94013533D01*
X125891866Y-94013538D01*
X125785331Y-94084723D01*
X125785327Y-94084726D01*
X125694726Y-94175327D01*
X125694723Y-94175331D01*
X125623538Y-94281866D01*
X125623533Y-94281875D01*
X125574499Y-94400255D01*
X125574497Y-94400261D01*
X125549500Y-94525928D01*
X125549500Y-94525931D01*
X125549500Y-94654069D01*
X125549500Y-94654071D01*
X125549499Y-94654071D01*
X122770077Y-94654071D01*
X122784479Y-94639669D01*
X122855668Y-94533127D01*
X122904704Y-94414744D01*
X122923911Y-94318187D01*
X122929703Y-94289071D01*
X122929703Y-94160928D01*
X122904705Y-94035261D01*
X122904704Y-94035260D01*
X122904704Y-94035256D01*
X122855668Y-93916873D01*
X122855667Y-93916872D01*
X122855664Y-93916866D01*
X122784479Y-93810331D01*
X122784476Y-93810327D01*
X122693875Y-93719726D01*
X122693871Y-93719723D01*
X122587336Y-93648538D01*
X122587327Y-93648533D01*
X122563675Y-93638736D01*
X122509273Y-93594894D01*
X122487210Y-93528599D01*
X122504491Y-93460900D01*
X122523446Y-93436498D01*
X122605276Y-93354669D01*
X122676465Y-93248127D01*
X122725501Y-93129744D01*
X122736688Y-93073505D01*
X122750500Y-93004071D01*
X122750500Y-92875928D01*
X122725502Y-92750261D01*
X122725501Y-92750260D01*
X122725501Y-92750256D01*
X122685269Y-92653127D01*
X122676466Y-92631875D01*
X122676461Y-92631866D01*
X122605276Y-92525331D01*
X122605273Y-92525327D01*
X122514672Y-92434726D01*
X122514668Y-92434723D01*
X122408133Y-92363538D01*
X122408124Y-92363533D01*
X122289744Y-92314499D01*
X122289738Y-92314497D01*
X122187051Y-92294071D01*
X123369499Y-92294071D01*
X123394497Y-92419738D01*
X123394499Y-92419744D01*
X123443533Y-92538124D01*
X123443538Y-92538133D01*
X123514723Y-92644668D01*
X123514726Y-92644672D01*
X123605327Y-92735273D01*
X123605331Y-92735276D01*
X123711866Y-92806461D01*
X123711872Y-92806464D01*
X123711873Y-92806465D01*
X123830256Y-92855501D01*
X123830260Y-92855501D01*
X123830261Y-92855502D01*
X123955928Y-92880500D01*
X123955931Y-92880500D01*
X124084071Y-92880500D01*
X124168615Y-92863682D01*
X124209744Y-92855501D01*
X124328127Y-92806465D01*
X124434669Y-92735276D01*
X124500874Y-92669071D01*
X129065042Y-92669071D01*
X129090040Y-92794738D01*
X129090042Y-92794744D01*
X129139076Y-92913124D01*
X129139081Y-92913133D01*
X129210266Y-93019668D01*
X129210269Y-93019672D01*
X129300870Y-93110273D01*
X129300874Y-93110276D01*
X129407409Y-93181461D01*
X129407415Y-93181464D01*
X129407416Y-93181465D01*
X129525799Y-93230501D01*
X129525803Y-93230501D01*
X129525804Y-93230502D01*
X129651471Y-93255500D01*
X129651474Y-93255500D01*
X129779614Y-93255500D01*
X129864158Y-93238682D01*
X129905287Y-93230501D01*
X130023670Y-93181465D01*
X130130212Y-93110276D01*
X130220819Y-93019669D01*
X130292008Y-92913127D01*
X130341044Y-92794744D01*
X130356147Y-92718820D01*
X130366043Y-92669071D01*
X130366043Y-92654071D01*
X132089499Y-92654071D01*
X132114497Y-92779738D01*
X132114499Y-92779744D01*
X132163533Y-92898124D01*
X132163538Y-92898133D01*
X132234723Y-93004668D01*
X132234726Y-93004672D01*
X132325327Y-93095273D01*
X132325331Y-93095276D01*
X132431866Y-93166461D01*
X132431872Y-93166464D01*
X132431873Y-93166465D01*
X132550256Y-93215501D01*
X132550260Y-93215501D01*
X132550261Y-93215502D01*
X132675928Y-93240500D01*
X132675931Y-93240500D01*
X132804071Y-93240500D01*
X132901923Y-93221035D01*
X132929744Y-93215501D01*
X133048127Y-93166465D01*
X133154669Y-93095276D01*
X133245276Y-93004669D01*
X133316465Y-92898127D01*
X133365501Y-92779744D01*
X133382543Y-92694071D01*
X142149499Y-92694071D01*
X142174497Y-92819738D01*
X142174499Y-92819744D01*
X142223533Y-92938124D01*
X142223538Y-92938133D01*
X142294723Y-93044668D01*
X142294726Y-93044672D01*
X142385327Y-93135273D01*
X142385331Y-93135276D01*
X142491866Y-93206461D01*
X142491872Y-93206464D01*
X142491873Y-93206465D01*
X142610256Y-93255501D01*
X142610260Y-93255501D01*
X142610261Y-93255502D01*
X142735928Y-93280500D01*
X142735931Y-93280500D01*
X142864071Y-93280500D01*
X142948615Y-93263682D01*
X142989744Y-93255501D01*
X143108127Y-93206465D01*
X143214669Y-93135276D01*
X143305276Y-93044669D01*
X143376465Y-92938127D01*
X143425501Y-92819744D01*
X143438195Y-92755928D01*
X143450500Y-92694071D01*
X143450500Y-92565928D01*
X143425502Y-92440261D01*
X143425501Y-92440260D01*
X143425501Y-92440256D01*
X143412584Y-92409071D01*
X144014499Y-92409071D01*
X144039497Y-92534738D01*
X144039499Y-92534744D01*
X144088533Y-92653124D01*
X144088538Y-92653133D01*
X144159723Y-92759668D01*
X144159726Y-92759672D01*
X144250327Y-92850273D01*
X144250331Y-92850276D01*
X144312246Y-92891647D01*
X144357051Y-92945259D01*
X144365758Y-93014584D01*
X144357916Y-93042201D01*
X144314724Y-93146476D01*
X144314721Y-93146486D01*
X144289724Y-93272153D01*
X144289724Y-93272156D01*
X144289724Y-93400294D01*
X144289724Y-93400296D01*
X144289723Y-93400296D01*
X144314721Y-93525963D01*
X144314723Y-93525969D01*
X144363757Y-93644349D01*
X144363762Y-93644358D01*
X144434947Y-93750893D01*
X144434950Y-93750897D01*
X144525551Y-93841498D01*
X144525555Y-93841501D01*
X144622844Y-93906508D01*
X144643207Y-93930873D01*
X144664837Y-93954106D01*
X144665446Y-93957484D01*
X144667649Y-93960120D01*
X144671606Y-93991627D01*
X144677242Y-94022866D01*
X144676094Y-94027362D01*
X144676356Y-94029445D01*
X144668514Y-94057061D01*
X144648617Y-94105096D01*
X144619777Y-94174723D01*
X144575935Y-94229126D01*
X144552672Y-94241829D01*
X144540201Y-94246994D01*
X144540192Y-94246999D01*
X144433657Y-94318184D01*
X144433653Y-94318187D01*
X144343052Y-94408788D01*
X144343049Y-94408792D01*
X144271864Y-94515327D01*
X144271859Y-94515336D01*
X144222825Y-94633716D01*
X144222823Y-94633722D01*
X144197826Y-94759389D01*
X144197826Y-94759392D01*
X144197826Y-94887530D01*
X144197826Y-94887532D01*
X144197825Y-94887532D01*
X144222823Y-95013199D01*
X144222825Y-95013205D01*
X144271859Y-95131585D01*
X144271864Y-95131594D01*
X144320468Y-95204334D01*
X144341346Y-95271011D01*
X144340769Y-95285373D01*
X144340252Y-95290624D01*
X144340252Y-95290633D01*
X144340252Y-95418771D01*
X144340252Y-95418773D01*
X144340251Y-95418773D01*
X144365249Y-95544440D01*
X144365251Y-95544446D01*
X144414285Y-95662826D01*
X144414290Y-95662835D01*
X144485475Y-95769370D01*
X144485478Y-95769374D01*
X144576079Y-95859975D01*
X144576083Y-95859978D01*
X144682618Y-95931163D01*
X144682627Y-95931168D01*
X144709444Y-95942276D01*
X144801008Y-95980203D01*
X144801012Y-95980203D01*
X144801013Y-95980204D01*
X144926680Y-96005202D01*
X144926683Y-96005202D01*
X145054823Y-96005202D01*
X145139367Y-95988384D01*
X145180496Y-95980203D01*
X145298879Y-95931167D01*
X145405421Y-95859978D01*
X145496028Y-95769371D01*
X145567217Y-95662829D01*
X145616253Y-95544446D01*
X145629007Y-95480331D01*
X145641252Y-95418773D01*
X145641252Y-95290630D01*
X145616254Y-95164963D01*
X145616253Y-95164962D01*
X145616253Y-95164958D01*
X145591032Y-95104071D01*
X149471999Y-95104071D01*
X149496997Y-95229738D01*
X149496999Y-95229744D01*
X149546033Y-95348124D01*
X149546038Y-95348133D01*
X149617223Y-95454668D01*
X149617226Y-95454672D01*
X149707827Y-95545273D01*
X149707831Y-95545276D01*
X149814366Y-95616461D01*
X149814372Y-95616464D01*
X149814373Y-95616465D01*
X149932756Y-95665501D01*
X149932760Y-95665501D01*
X149932761Y-95665502D01*
X150058428Y-95690500D01*
X150058431Y-95690500D01*
X150186571Y-95690500D01*
X150290149Y-95669896D01*
X150312244Y-95665501D01*
X150430627Y-95616465D01*
X150537169Y-95545276D01*
X150627776Y-95454669D01*
X150698965Y-95348127D01*
X150748001Y-95229744D01*
X150761072Y-95164032D01*
X150773000Y-95104071D01*
X151746999Y-95104071D01*
X151771997Y-95229738D01*
X151771999Y-95229744D01*
X151821033Y-95348124D01*
X151821038Y-95348133D01*
X151892223Y-95454668D01*
X151892226Y-95454672D01*
X151982827Y-95545273D01*
X151982831Y-95545276D01*
X152089366Y-95616461D01*
X152089372Y-95616464D01*
X152089373Y-95616465D01*
X152207756Y-95665501D01*
X152207760Y-95665501D01*
X152207761Y-95665502D01*
X152333428Y-95690500D01*
X152333431Y-95690500D01*
X152461571Y-95690500D01*
X152565149Y-95669896D01*
X152587244Y-95665501D01*
X152705627Y-95616465D01*
X152812169Y-95545276D01*
X152902776Y-95454669D01*
X152973965Y-95348127D01*
X153023001Y-95229744D01*
X153036072Y-95164032D01*
X153048000Y-95104071D01*
X153048000Y-94975928D01*
X153023002Y-94850261D01*
X153023001Y-94850260D01*
X153023001Y-94850256D01*
X152977218Y-94739726D01*
X152973966Y-94731875D01*
X152973961Y-94731866D01*
X152902776Y-94625331D01*
X152902773Y-94625327D01*
X152812172Y-94534726D01*
X152812168Y-94534723D01*
X152705633Y-94463538D01*
X152705624Y-94463533D01*
X152587244Y-94414499D01*
X152587238Y-94414497D01*
X152461571Y-94389500D01*
X152461569Y-94389500D01*
X152333431Y-94389500D01*
X152333429Y-94389500D01*
X152207761Y-94414497D01*
X152207755Y-94414499D01*
X152089375Y-94463533D01*
X152089366Y-94463538D01*
X151982831Y-94534723D01*
X151982827Y-94534726D01*
X151892226Y-94625327D01*
X151892223Y-94625331D01*
X151821038Y-94731866D01*
X151821033Y-94731875D01*
X151771999Y-94850255D01*
X151771997Y-94850261D01*
X151747000Y-94975928D01*
X151747000Y-94975931D01*
X151747000Y-95104069D01*
X151747000Y-95104071D01*
X151746999Y-95104071D01*
X150773000Y-95104071D01*
X150773000Y-94975928D01*
X150748002Y-94850261D01*
X150748001Y-94850260D01*
X150748001Y-94850256D01*
X150702218Y-94739726D01*
X150698966Y-94731875D01*
X150698961Y-94731866D01*
X150627776Y-94625331D01*
X150627773Y-94625327D01*
X150537172Y-94534726D01*
X150537168Y-94534723D01*
X150430633Y-94463538D01*
X150430624Y-94463533D01*
X150312244Y-94414499D01*
X150312238Y-94414497D01*
X150186571Y-94389500D01*
X150186569Y-94389500D01*
X150058431Y-94389500D01*
X150058429Y-94389500D01*
X149932761Y-94414497D01*
X149932755Y-94414499D01*
X149814375Y-94463533D01*
X149814366Y-94463538D01*
X149707831Y-94534723D01*
X149707827Y-94534726D01*
X149617226Y-94625327D01*
X149617223Y-94625331D01*
X149546038Y-94731866D01*
X149546033Y-94731875D01*
X149496999Y-94850255D01*
X149496997Y-94850261D01*
X149472000Y-94975928D01*
X149472000Y-94975931D01*
X149472000Y-95104069D01*
X149472000Y-95104071D01*
X149471999Y-95104071D01*
X145591032Y-95104071D01*
X145568706Y-95050171D01*
X145565312Y-95018605D01*
X145560235Y-94987265D01*
X145561605Y-94984117D01*
X145561238Y-94980704D01*
X145575448Y-94952315D01*
X145588121Y-94923202D01*
X145591573Y-94920100D01*
X145592513Y-94918224D01*
X145614372Y-94899621D01*
X145660276Y-94868950D01*
X145750883Y-94778343D01*
X145822072Y-94671801D01*
X145871108Y-94553418D01*
X145888987Y-94463538D01*
X145896107Y-94427745D01*
X145896107Y-94299603D01*
X145881945Y-94228411D01*
X145888172Y-94158819D01*
X145900460Y-94135327D01*
X145905272Y-94128127D01*
X145954308Y-94009744D01*
X145969997Y-93930873D01*
X145979307Y-93884071D01*
X145979307Y-93755928D01*
X145954309Y-93630261D01*
X145954308Y-93630260D01*
X145954308Y-93630256D01*
X145907174Y-93516464D01*
X145905273Y-93511875D01*
X145905268Y-93511866D01*
X145834083Y-93405331D01*
X145834080Y-93405327D01*
X145743479Y-93314726D01*
X145743474Y-93314722D01*
X145734791Y-93308920D01*
X145689988Y-93255307D01*
X145681282Y-93185982D01*
X145700585Y-93136927D01*
X145706465Y-93128127D01*
X145755501Y-93009744D01*
X145769747Y-92938127D01*
X145780500Y-92884071D01*
X145780500Y-92755928D01*
X145755502Y-92630261D01*
X145755501Y-92630260D01*
X145755501Y-92630256D01*
X145712038Y-92525327D01*
X145706466Y-92511875D01*
X145706461Y-92511866D01*
X145635276Y-92405331D01*
X145631411Y-92400621D01*
X145632380Y-92399825D01*
X145602034Y-92344250D01*
X145607018Y-92274558D01*
X145620096Y-92249004D01*
X145687356Y-92148343D01*
X145736392Y-92029960D01*
X145749414Y-91964497D01*
X145761391Y-91904287D01*
X145761391Y-91776144D01*
X145736393Y-91650477D01*
X145736392Y-91650476D01*
X145736392Y-91650472D01*
X145687356Y-91532089D01*
X145687355Y-91532088D01*
X145687352Y-91532082D01*
X145616167Y-91425547D01*
X145616164Y-91425543D01*
X145546037Y-91355416D01*
X145538173Y-91341945D01*
X145528457Y-91333280D01*
X145518668Y-91308530D01*
X145514255Y-91300970D01*
X145511010Y-91289305D01*
X145511010Y-91286441D01*
X145486011Y-91160766D01*
X145453240Y-91081651D01*
X145451223Y-91074399D01*
X145451617Y-91046697D01*
X145448656Y-91019148D01*
X145452109Y-91012249D01*
X145452219Y-91004536D01*
X145467527Y-90981446D01*
X145479930Y-90956669D01*
X145489166Y-90948808D01*
X145490828Y-90946303D01*
X145493481Y-90945136D01*
X145501791Y-90938064D01*
X145560123Y-90899089D01*
X145650730Y-90808482D01*
X145721919Y-90701940D01*
X145770955Y-90583557D01*
X145781558Y-90530255D01*
X145795954Y-90457884D01*
X145795954Y-90329741D01*
X145770956Y-90204074D01*
X145770955Y-90204073D01*
X145770955Y-90204069D01*
X145731783Y-90109500D01*
X145721921Y-90085690D01*
X145721920Y-90085688D01*
X145721919Y-90085686D01*
X145682607Y-90026852D01*
X145661731Y-89960179D01*
X145664095Y-89933768D01*
X145668014Y-89914070D01*
X145668014Y-89785928D01*
X145643016Y-89660261D01*
X145643015Y-89660260D01*
X145643015Y-89660256D01*
X145593979Y-89541873D01*
X145593978Y-89541872D01*
X145593975Y-89541866D01*
X145522790Y-89435331D01*
X145522787Y-89435327D01*
X145432186Y-89344726D01*
X145432182Y-89344723D01*
X145325647Y-89273538D01*
X145325638Y-89273533D01*
X145278652Y-89254071D01*
X151949499Y-89254071D01*
X151974497Y-89379738D01*
X151974499Y-89379744D01*
X152023533Y-89498124D01*
X152023538Y-89498133D01*
X152094723Y-89604668D01*
X152094726Y-89604672D01*
X152185327Y-89695273D01*
X152185331Y-89695276D01*
X152291866Y-89766461D01*
X152291872Y-89766464D01*
X152291873Y-89766465D01*
X152410256Y-89815501D01*
X152410260Y-89815501D01*
X152410261Y-89815502D01*
X152535928Y-89840500D01*
X152535931Y-89840500D01*
X152664071Y-89840500D01*
X152748615Y-89823682D01*
X152789744Y-89815501D01*
X152908127Y-89766465D01*
X153014669Y-89695276D01*
X153105276Y-89604669D01*
X153176465Y-89498127D01*
X153225501Y-89379744D01*
X153233682Y-89338615D01*
X153250500Y-89254071D01*
X153250500Y-89125928D01*
X153225502Y-89000261D01*
X153225501Y-89000260D01*
X153225501Y-89000256D01*
X153176465Y-88881873D01*
X153176464Y-88881872D01*
X153176461Y-88881866D01*
X153105276Y-88775331D01*
X153105273Y-88775327D01*
X153014672Y-88684726D01*
X153014668Y-88684723D01*
X152908133Y-88613538D01*
X152908124Y-88613533D01*
X152789744Y-88564499D01*
X152789738Y-88564497D01*
X152664071Y-88539500D01*
X152664069Y-88539500D01*
X152535931Y-88539500D01*
X152535929Y-88539500D01*
X152410261Y-88564497D01*
X152410255Y-88564499D01*
X152291875Y-88613533D01*
X152291866Y-88613538D01*
X152185331Y-88684723D01*
X152185327Y-88684726D01*
X152094726Y-88775327D01*
X152094723Y-88775331D01*
X152023538Y-88881866D01*
X152023533Y-88881875D01*
X151974499Y-89000255D01*
X151974497Y-89000261D01*
X151949500Y-89125928D01*
X151949500Y-89125931D01*
X151949500Y-89254069D01*
X151949500Y-89254071D01*
X151949499Y-89254071D01*
X145278652Y-89254071D01*
X145231161Y-89234400D01*
X145231159Y-89234399D01*
X145207262Y-89224500D01*
X145207252Y-89224497D01*
X145081585Y-89199500D01*
X145081583Y-89199500D01*
X144953445Y-89199500D01*
X144953443Y-89199500D01*
X144827775Y-89224497D01*
X144827769Y-89224499D01*
X144709389Y-89273533D01*
X144709380Y-89273538D01*
X144602845Y-89344723D01*
X144602841Y-89344726D01*
X144512240Y-89435327D01*
X144512237Y-89435331D01*
X144441052Y-89541866D01*
X144441047Y-89541875D01*
X144392013Y-89660255D01*
X144392011Y-89660261D01*
X144367014Y-89785928D01*
X144367014Y-89785931D01*
X144367014Y-89914069D01*
X144367014Y-89914071D01*
X144367013Y-89914071D01*
X144392011Y-90039738D01*
X144392013Y-90039744D01*
X144441047Y-90158124D01*
X144441049Y-90158127D01*
X144480358Y-90216957D01*
X144501236Y-90283634D01*
X144498873Y-90310040D01*
X144494954Y-90329741D01*
X144494954Y-90329744D01*
X144494954Y-90457882D01*
X144494954Y-90457884D01*
X144494953Y-90457884D01*
X144519951Y-90583551D01*
X144519953Y-90583557D01*
X144547205Y-90649350D01*
X144549838Y-90655705D01*
X144557307Y-90725174D01*
X144526032Y-90787654D01*
X144504169Y-90806260D01*
X144445837Y-90845236D01*
X144355236Y-90935837D01*
X144355233Y-90935841D01*
X144284048Y-91042376D01*
X144284043Y-91042385D01*
X144235009Y-91160765D01*
X144235007Y-91160771D01*
X144210010Y-91286438D01*
X144210010Y-91286441D01*
X144210010Y-91414579D01*
X144210010Y-91414581D01*
X144210009Y-91414581D01*
X144235007Y-91540248D01*
X144235009Y-91540254D01*
X144284043Y-91658634D01*
X144284047Y-91658641D01*
X144288399Y-91665154D01*
X144309276Y-91731832D01*
X144290791Y-91799212D01*
X144254196Y-91837140D01*
X144250335Y-91839720D01*
X144250327Y-91839726D01*
X144159726Y-91930327D01*
X144159723Y-91930331D01*
X144088538Y-92036866D01*
X144088533Y-92036875D01*
X144039499Y-92155255D01*
X144039497Y-92155261D01*
X144014500Y-92280928D01*
X144014500Y-92280931D01*
X144014500Y-92409069D01*
X144014500Y-92409071D01*
X144014499Y-92409071D01*
X143412584Y-92409071D01*
X143409084Y-92400621D01*
X143376639Y-92322291D01*
X143376468Y-92321880D01*
X143376466Y-92321875D01*
X143376465Y-92321873D01*
X143376463Y-92321870D01*
X143376461Y-92321866D01*
X143305276Y-92215331D01*
X143305273Y-92215327D01*
X143214672Y-92124726D01*
X143214668Y-92124723D01*
X143108133Y-92053538D01*
X143108124Y-92053533D01*
X142989744Y-92004499D01*
X142989738Y-92004497D01*
X142864071Y-91979500D01*
X142864069Y-91979500D01*
X142735931Y-91979500D01*
X142735929Y-91979500D01*
X142610261Y-92004497D01*
X142610255Y-92004499D01*
X142491875Y-92053533D01*
X142491866Y-92053538D01*
X142385331Y-92124723D01*
X142385327Y-92124726D01*
X142294726Y-92215327D01*
X142294723Y-92215331D01*
X142223538Y-92321866D01*
X142223533Y-92321875D01*
X142174499Y-92440255D01*
X142174497Y-92440261D01*
X142149500Y-92565928D01*
X142149500Y-92565931D01*
X142149500Y-92694069D01*
X142149500Y-92694071D01*
X142149499Y-92694071D01*
X133382543Y-92694071D01*
X133387516Y-92669071D01*
X133390500Y-92654071D01*
X133390500Y-92525928D01*
X133365502Y-92400261D01*
X133365501Y-92400260D01*
X133365501Y-92400256D01*
X133316465Y-92281873D01*
X133316464Y-92281872D01*
X133316461Y-92281866D01*
X133245276Y-92175331D01*
X133245273Y-92175327D01*
X133154672Y-92084726D01*
X133154668Y-92084723D01*
X133048133Y-92013538D01*
X133048124Y-92013533D01*
X132929744Y-91964499D01*
X132929738Y-91964497D01*
X132804071Y-91939500D01*
X132804069Y-91939500D01*
X132675931Y-91939500D01*
X132675929Y-91939500D01*
X132550261Y-91964497D01*
X132550255Y-91964499D01*
X132431875Y-92013533D01*
X132431866Y-92013538D01*
X132325331Y-92084723D01*
X132325327Y-92084726D01*
X132234726Y-92175327D01*
X132234723Y-92175331D01*
X132163538Y-92281866D01*
X132163533Y-92281875D01*
X132114499Y-92400255D01*
X132114497Y-92400261D01*
X132089500Y-92525928D01*
X132089500Y-92525931D01*
X132089500Y-92654069D01*
X132089500Y-92654071D01*
X132089499Y-92654071D01*
X130366043Y-92654071D01*
X130366043Y-92540929D01*
X130341045Y-92415261D01*
X130341044Y-92415260D01*
X130341044Y-92415256D01*
X130299308Y-92314497D01*
X130292009Y-92296875D01*
X130292004Y-92296866D01*
X130220819Y-92190331D01*
X130220816Y-92190327D01*
X130130215Y-92099726D01*
X130130211Y-92099723D01*
X130023676Y-92028538D01*
X130023667Y-92028533D01*
X129905287Y-91979499D01*
X129905281Y-91979497D01*
X129779614Y-91954500D01*
X129779612Y-91954500D01*
X129651474Y-91954500D01*
X129651472Y-91954500D01*
X129525804Y-91979497D01*
X129525798Y-91979499D01*
X129407418Y-92028533D01*
X129407409Y-92028538D01*
X129300874Y-92099723D01*
X129300870Y-92099726D01*
X129210269Y-92190327D01*
X129210266Y-92190331D01*
X129139081Y-92296866D01*
X129139076Y-92296875D01*
X129090042Y-92415255D01*
X129090040Y-92415261D01*
X129065043Y-92540928D01*
X129065043Y-92540929D01*
X129065043Y-92540931D01*
X129065043Y-92669069D01*
X129065043Y-92669071D01*
X129065042Y-92669071D01*
X124500874Y-92669071D01*
X124525276Y-92644669D01*
X124596465Y-92538127D01*
X124645501Y-92419744D01*
X124664969Y-92321875D01*
X124670500Y-92294071D01*
X124670500Y-92165928D01*
X124651940Y-92072624D01*
X126010946Y-92072624D01*
X126035944Y-92198291D01*
X126035946Y-92198297D01*
X126084980Y-92316677D01*
X126084985Y-92316686D01*
X126156170Y-92423221D01*
X126156173Y-92423225D01*
X126246774Y-92513826D01*
X126246778Y-92513829D01*
X126353313Y-92585014D01*
X126353319Y-92585017D01*
X126353320Y-92585018D01*
X126471703Y-92634054D01*
X126471707Y-92634054D01*
X126471708Y-92634055D01*
X126597375Y-92659053D01*
X126597378Y-92659053D01*
X126725518Y-92659053D01*
X126810062Y-92642235D01*
X126851191Y-92634054D01*
X126969574Y-92585018D01*
X127076116Y-92513829D01*
X127078079Y-92511866D01*
X127142788Y-92447158D01*
X127166720Y-92423225D01*
X127166723Y-92423222D01*
X127237912Y-92316680D01*
X127286948Y-92198297D01*
X127306556Y-92099723D01*
X127311947Y-92072624D01*
X127311947Y-91944481D01*
X127286949Y-91818814D01*
X127286948Y-91818813D01*
X127286948Y-91818809D01*
X127237912Y-91700426D01*
X127237911Y-91700425D01*
X127237908Y-91700419D01*
X127166723Y-91593884D01*
X127166720Y-91593880D01*
X127076119Y-91503279D01*
X127076115Y-91503276D01*
X126969580Y-91432091D01*
X126969571Y-91432086D01*
X126851191Y-91383052D01*
X126851185Y-91383050D01*
X126725518Y-91358053D01*
X126725516Y-91358053D01*
X126597378Y-91358053D01*
X126597376Y-91358053D01*
X126471708Y-91383050D01*
X126471702Y-91383052D01*
X126353322Y-91432086D01*
X126353313Y-91432091D01*
X126246778Y-91503276D01*
X126246774Y-91503279D01*
X126156173Y-91593880D01*
X126156170Y-91593884D01*
X126084985Y-91700419D01*
X126084980Y-91700428D01*
X126035946Y-91818808D01*
X126035944Y-91818814D01*
X126010947Y-91944481D01*
X126010947Y-91944484D01*
X126010947Y-92072622D01*
X126010947Y-92072624D01*
X126010946Y-92072624D01*
X124651940Y-92072624D01*
X124645502Y-92040261D01*
X124645501Y-92040260D01*
X124645501Y-92040256D01*
X124605830Y-91944481D01*
X124596468Y-91921879D01*
X124596461Y-91921866D01*
X124525276Y-91815331D01*
X124525273Y-91815327D01*
X124434672Y-91724726D01*
X124434668Y-91724723D01*
X124328133Y-91653538D01*
X124328124Y-91653533D01*
X124209744Y-91604499D01*
X124209738Y-91604497D01*
X124084071Y-91579500D01*
X124084069Y-91579500D01*
X123955931Y-91579500D01*
X123955929Y-91579500D01*
X123830261Y-91604497D01*
X123830255Y-91604499D01*
X123711875Y-91653533D01*
X123711866Y-91653538D01*
X123605331Y-91724723D01*
X123605327Y-91724726D01*
X123514726Y-91815327D01*
X123514723Y-91815331D01*
X123443538Y-91921866D01*
X123443533Y-91921875D01*
X123394499Y-92040255D01*
X123394497Y-92040261D01*
X123369500Y-92165928D01*
X123369500Y-92165931D01*
X123369500Y-92294069D01*
X123369500Y-92294071D01*
X123369499Y-92294071D01*
X122187051Y-92294071D01*
X122164071Y-92289500D01*
X122164069Y-92289500D01*
X122035931Y-92289500D01*
X122035929Y-92289500D01*
X121910261Y-92314497D01*
X121910255Y-92314499D01*
X121791875Y-92363533D01*
X121791866Y-92363538D01*
X121685331Y-92434723D01*
X121685327Y-92434726D01*
X121594726Y-92525327D01*
X121594723Y-92525331D01*
X121523538Y-92631866D01*
X121523533Y-92631875D01*
X121474499Y-92750255D01*
X121474497Y-92750261D01*
X121449500Y-92875928D01*
X121449500Y-92875931D01*
X121449500Y-93004069D01*
X121449500Y-93004071D01*
X121449499Y-93004071D01*
X120001482Y-93004071D01*
X120073670Y-92904714D01*
X120168389Y-92718816D01*
X120232862Y-92520389D01*
X120233901Y-92513826D01*
X120265500Y-92314324D01*
X120265500Y-92105675D01*
X120232862Y-91899610D01*
X120187491Y-91759974D01*
X120168389Y-91701184D01*
X120168387Y-91701181D01*
X120168387Y-91701179D01*
X120092058Y-91551375D01*
X120073670Y-91515286D01*
X119951035Y-91346495D01*
X119803505Y-91198965D01*
X119694468Y-91119744D01*
X119634712Y-91076328D01*
X119583990Y-91050485D01*
X119533194Y-91002511D01*
X119516398Y-90934690D01*
X119538935Y-90868555D01*
X119583990Y-90829515D01*
X119634712Y-90803671D01*
X119634711Y-90803671D01*
X119634714Y-90803670D01*
X119661689Y-90784071D01*
X126989499Y-90784071D01*
X127014497Y-90909738D01*
X127014499Y-90909744D01*
X127063533Y-91028124D01*
X127063538Y-91028133D01*
X127134723Y-91134668D01*
X127134726Y-91134672D01*
X127225327Y-91225273D01*
X127225331Y-91225276D01*
X127331866Y-91296461D01*
X127331872Y-91296464D01*
X127331873Y-91296465D01*
X127450256Y-91345501D01*
X127450260Y-91345501D01*
X127450261Y-91345502D01*
X127575928Y-91370500D01*
X127575931Y-91370500D01*
X127704071Y-91370500D01*
X127788615Y-91353682D01*
X127829744Y-91345501D01*
X127948127Y-91296465D01*
X128054669Y-91225276D01*
X128145276Y-91134669D01*
X128216465Y-91028127D01*
X128265501Y-90909744D01*
X128281460Y-90829515D01*
X128290500Y-90784071D01*
X128290500Y-90655928D01*
X128265502Y-90530261D01*
X128265501Y-90530260D01*
X128265501Y-90530256D01*
X128216465Y-90411873D01*
X128216464Y-90411872D01*
X128216461Y-90411866D01*
X128145276Y-90305331D01*
X128145273Y-90305327D01*
X128054672Y-90214726D01*
X128054668Y-90214723D01*
X127948133Y-90143538D01*
X127948124Y-90143533D01*
X127829744Y-90094499D01*
X127829738Y-90094497D01*
X127704071Y-90069500D01*
X127704069Y-90069500D01*
X127575931Y-90069500D01*
X127575929Y-90069500D01*
X127450261Y-90094497D01*
X127450255Y-90094499D01*
X127331875Y-90143533D01*
X127331866Y-90143538D01*
X127225331Y-90214723D01*
X127225327Y-90214726D01*
X127134726Y-90305327D01*
X127134723Y-90305331D01*
X127063538Y-90411866D01*
X127063533Y-90411875D01*
X127014499Y-90530255D01*
X127014497Y-90530261D01*
X126989500Y-90655928D01*
X126989500Y-90655931D01*
X126989500Y-90784069D01*
X126989500Y-90784071D01*
X126989499Y-90784071D01*
X119661689Y-90784071D01*
X119803505Y-90681035D01*
X119951035Y-90533505D01*
X120073670Y-90364714D01*
X120168389Y-90178816D01*
X120197923Y-90087920D01*
X123368468Y-90087920D01*
X123393466Y-90213587D01*
X123393468Y-90213593D01*
X123442502Y-90331973D01*
X123442507Y-90331982D01*
X123513692Y-90438517D01*
X123513695Y-90438521D01*
X123604296Y-90529122D01*
X123604300Y-90529125D01*
X123710835Y-90600310D01*
X123710844Y-90600315D01*
X123737661Y-90611423D01*
X123829225Y-90649350D01*
X123829229Y-90649350D01*
X123829230Y-90649351D01*
X123954897Y-90674349D01*
X123954900Y-90674349D01*
X124083040Y-90674349D01*
X124176765Y-90655705D01*
X124208713Y-90649350D01*
X124327096Y-90600314D01*
X124433638Y-90529125D01*
X124524245Y-90438518D01*
X124595434Y-90331976D01*
X124644470Y-90213593D01*
X124660203Y-90134499D01*
X124669469Y-90087920D01*
X124669469Y-89959777D01*
X124644471Y-89834110D01*
X124644470Y-89834109D01*
X124644470Y-89834105D01*
X124595434Y-89715722D01*
X124595433Y-89715721D01*
X124595430Y-89715715D01*
X124524245Y-89609180D01*
X124524242Y-89609176D01*
X124433641Y-89518575D01*
X124433637Y-89518572D01*
X124327102Y-89447387D01*
X124327093Y-89447382D01*
X124208713Y-89398348D01*
X124208707Y-89398346D01*
X124083040Y-89373349D01*
X124083038Y-89373349D01*
X123954900Y-89373349D01*
X123954898Y-89373349D01*
X123829230Y-89398346D01*
X123829224Y-89398348D01*
X123710844Y-89447382D01*
X123710835Y-89447387D01*
X123604300Y-89518572D01*
X123604296Y-89518575D01*
X123513695Y-89609176D01*
X123513692Y-89609180D01*
X123442507Y-89715715D01*
X123442502Y-89715724D01*
X123393468Y-89834104D01*
X123393466Y-89834110D01*
X123368469Y-89959777D01*
X123368469Y-89959780D01*
X123368469Y-90087918D01*
X123368469Y-90087920D01*
X123368468Y-90087920D01*
X120197923Y-90087920D01*
X120232862Y-89980389D01*
X120237308Y-89952313D01*
X120240164Y-89934289D01*
X120240164Y-89934288D01*
X120265500Y-89774324D01*
X120265500Y-89565675D01*
X120232862Y-89359610D01*
X120188961Y-89224497D01*
X120168389Y-89161184D01*
X120168387Y-89161181D01*
X120168387Y-89161179D01*
X120086395Y-89000261D01*
X120073670Y-88975286D01*
X119951035Y-88806495D01*
X119803505Y-88658965D01*
X119673485Y-88564499D01*
X119634712Y-88536328D01*
X119583990Y-88510485D01*
X119533194Y-88462511D01*
X119516398Y-88394690D01*
X119538935Y-88328555D01*
X119583990Y-88289515D01*
X119634712Y-88263671D01*
X119634711Y-88263671D01*
X119634714Y-88263670D01*
X119803505Y-88141035D01*
X119951035Y-87993505D01*
X120073670Y-87824714D01*
X120168389Y-87638816D01*
X120232862Y-87440389D01*
X120236641Y-87416527D01*
X120265500Y-87234324D01*
X120265500Y-87025675D01*
X120232862Y-86819610D01*
X120195650Y-86705085D01*
X120168389Y-86621184D01*
X120168387Y-86621181D01*
X120168387Y-86621179D01*
X120090884Y-86469071D01*
X124704499Y-86469071D01*
X124729497Y-86594738D01*
X124729499Y-86594744D01*
X124778533Y-86713124D01*
X124778538Y-86713133D01*
X124849723Y-86819668D01*
X124849726Y-86819672D01*
X124940327Y-86910273D01*
X124940331Y-86910276D01*
X125046866Y-86981461D01*
X125046872Y-86981464D01*
X125046873Y-86981465D01*
X125165256Y-87030501D01*
X125165260Y-87030501D01*
X125165261Y-87030502D01*
X125290928Y-87055500D01*
X125324441Y-87055500D01*
X125391480Y-87075185D01*
X125437235Y-87127989D01*
X125447179Y-87197147D01*
X125427542Y-87248392D01*
X125418539Y-87261864D01*
X125418533Y-87261875D01*
X125369499Y-87380255D01*
X125369497Y-87380261D01*
X125344500Y-87505928D01*
X125344500Y-87505931D01*
X125344500Y-87634069D01*
X125344500Y-87634071D01*
X125344499Y-87634071D01*
X125369497Y-87759738D01*
X125369499Y-87759744D01*
X125418533Y-87878124D01*
X125418538Y-87878133D01*
X125489723Y-87984668D01*
X125489726Y-87984672D01*
X125580327Y-88075273D01*
X125580331Y-88075276D01*
X125686866Y-88146461D01*
X125686872Y-88146464D01*
X125686873Y-88146465D01*
X125805256Y-88195501D01*
X125805260Y-88195501D01*
X125805261Y-88195502D01*
X125930928Y-88220500D01*
X125930931Y-88220500D01*
X126059071Y-88220500D01*
X126143615Y-88203682D01*
X126184744Y-88195501D01*
X126303127Y-88146465D01*
X126409669Y-88075276D01*
X126500276Y-87984669D01*
X126501261Y-87983195D01*
X126501977Y-87982596D01*
X126504140Y-87979961D01*
X126504639Y-87980371D01*
X126554872Y-87938388D01*
X126624197Y-87929679D01*
X126687225Y-87959832D01*
X126723024Y-88016083D01*
X126724497Y-88020940D01*
X126773533Y-88139324D01*
X126773538Y-88139333D01*
X126844723Y-88245868D01*
X126844726Y-88245872D01*
X126935327Y-88336473D01*
X126935331Y-88336476D01*
X127041866Y-88407661D01*
X127041872Y-88407664D01*
X127041873Y-88407665D01*
X127160256Y-88456701D01*
X127160260Y-88456701D01*
X127160261Y-88456702D01*
X127285928Y-88481700D01*
X127285931Y-88481700D01*
X127414071Y-88481700D01*
X127510536Y-88462511D01*
X127539744Y-88456701D01*
X127658127Y-88407665D01*
X127764669Y-88336476D01*
X127855276Y-88245869D01*
X127926465Y-88139327D01*
X127975501Y-88020944D01*
X127994486Y-87925502D01*
X128000500Y-87895271D01*
X128000500Y-87767128D01*
X127975502Y-87641461D01*
X127975501Y-87641460D01*
X127975501Y-87641456D01*
X127926465Y-87523073D01*
X127926464Y-87523072D01*
X127926461Y-87523066D01*
X127855276Y-87416531D01*
X127855273Y-87416527D01*
X127764672Y-87325926D01*
X127764668Y-87325923D01*
X127658133Y-87254738D01*
X127658124Y-87254733D01*
X127539744Y-87205699D01*
X127539738Y-87205697D01*
X127414071Y-87180700D01*
X127414069Y-87180700D01*
X127285931Y-87180700D01*
X127285929Y-87180700D01*
X127160261Y-87205697D01*
X127160255Y-87205699D01*
X127041875Y-87254733D01*
X127041866Y-87254738D01*
X126935331Y-87325923D01*
X126935327Y-87325926D01*
X126844726Y-87416527D01*
X126844717Y-87416538D01*
X126843726Y-87418022D01*
X126843007Y-87418622D01*
X126840860Y-87421239D01*
X126840363Y-87420831D01*
X126790107Y-87462819D01*
X126720780Y-87471516D01*
X126657757Y-87441352D01*
X126621973Y-87385109D01*
X126620501Y-87380257D01*
X126620500Y-87380255D01*
X126571465Y-87261873D01*
X126571464Y-87261872D01*
X126571461Y-87261866D01*
X126500276Y-87155331D01*
X126500273Y-87155327D01*
X126409672Y-87064726D01*
X126409668Y-87064723D01*
X126303133Y-86993538D01*
X126303124Y-86993533D01*
X126184744Y-86944499D01*
X126184738Y-86944497D01*
X126059071Y-86919500D01*
X126059069Y-86919500D01*
X126025559Y-86919500D01*
X125958520Y-86899815D01*
X125912765Y-86847011D01*
X125902821Y-86777853D01*
X125922458Y-86726608D01*
X125931460Y-86713135D01*
X125931461Y-86713132D01*
X125931465Y-86713127D01*
X125980501Y-86594744D01*
X126005500Y-86469069D01*
X126005500Y-86340931D01*
X126005500Y-86340928D01*
X125980502Y-86215261D01*
X125980501Y-86215260D01*
X125980501Y-86215256D01*
X125934248Y-86103591D01*
X125931466Y-86096875D01*
X125931461Y-86096866D01*
X125860276Y-85990331D01*
X125860273Y-85990327D01*
X125769672Y-85899726D01*
X125769668Y-85899723D01*
X125663133Y-85828538D01*
X125663124Y-85828533D01*
X125544744Y-85779499D01*
X125544738Y-85779497D01*
X125419071Y-85754500D01*
X125419069Y-85754500D01*
X125290931Y-85754500D01*
X125290929Y-85754500D01*
X125165261Y-85779497D01*
X125165255Y-85779499D01*
X125046875Y-85828533D01*
X125046866Y-85828538D01*
X124940331Y-85899723D01*
X124940327Y-85899726D01*
X124849726Y-85990327D01*
X124849723Y-85990331D01*
X124778538Y-86096866D01*
X124778533Y-86096875D01*
X124729499Y-86215255D01*
X124729497Y-86215261D01*
X124704500Y-86340928D01*
X124704500Y-86340931D01*
X124704500Y-86469069D01*
X124704500Y-86469071D01*
X124704499Y-86469071D01*
X120090884Y-86469071D01*
X120073669Y-86435284D01*
X120053646Y-86407726D01*
X119951035Y-86266495D01*
X119803505Y-86118965D01*
X119634714Y-85996330D01*
X119632100Y-85994998D01*
X119448820Y-85901612D01*
X119250389Y-85837137D01*
X119044324Y-85804500D01*
X119044319Y-85804500D01*
X118835681Y-85804500D01*
X118835676Y-85804500D01*
X118629610Y-85837137D01*
X118431179Y-85901612D01*
X118245285Y-85996330D01*
X118076493Y-86118966D01*
X117928966Y-86266493D01*
X117806330Y-86435285D01*
X117711612Y-86621179D01*
X117647137Y-86819610D01*
X117614500Y-87025675D01*
X116973283Y-87025675D01*
X116969896Y-84768781D01*
X116968288Y-83697135D01*
X117294500Y-83697135D01*
X117294500Y-84642870D01*
X117294501Y-84642876D01*
X117300908Y-84702483D01*
X117351202Y-84837328D01*
X117351206Y-84837335D01*
X117437452Y-84952544D01*
X117437455Y-84952547D01*
X117552664Y-85038793D01*
X117552671Y-85038797D01*
X117687517Y-85089091D01*
X117687516Y-85089091D01*
X117694444Y-85089835D01*
X117747127Y-85095500D01*
X118692872Y-85095499D01*
X118752483Y-85089091D01*
X118887331Y-85038796D01*
X118987151Y-84964071D01*
X120219499Y-84964071D01*
X120244497Y-85089738D01*
X120244499Y-85089744D01*
X120293533Y-85208124D01*
X120293538Y-85208133D01*
X120364723Y-85314668D01*
X120364726Y-85314672D01*
X120455327Y-85405273D01*
X120455331Y-85405276D01*
X120561866Y-85476461D01*
X120561872Y-85476464D01*
X120561873Y-85476465D01*
X120680256Y-85525501D01*
X120680260Y-85525501D01*
X120680261Y-85525502D01*
X120805928Y-85550500D01*
X120805931Y-85550500D01*
X120934071Y-85550500D01*
X121018615Y-85533682D01*
X121059744Y-85525501D01*
X121178127Y-85476465D01*
X121284669Y-85405276D01*
X121375276Y-85314669D01*
X121446465Y-85208127D01*
X121495501Y-85089744D01*
X121505635Y-85038797D01*
X121520500Y-84964071D01*
X121520500Y-84835928D01*
X121495502Y-84710261D01*
X121495501Y-84710260D01*
X121495501Y-84710256D01*
X121446465Y-84591873D01*
X121446464Y-84591872D01*
X121446461Y-84591866D01*
X121375276Y-84485331D01*
X121375273Y-84485327D01*
X121284672Y-84394726D01*
X121284668Y-84394723D01*
X121178133Y-84323538D01*
X121178124Y-84323533D01*
X121059744Y-84274499D01*
X121059738Y-84274497D01*
X120934071Y-84249500D01*
X120934069Y-84249500D01*
X120805931Y-84249500D01*
X120805929Y-84249500D01*
X120680261Y-84274497D01*
X120680255Y-84274499D01*
X120561875Y-84323533D01*
X120561866Y-84323538D01*
X120455331Y-84394723D01*
X120455327Y-84394726D01*
X120364726Y-84485327D01*
X120364723Y-84485331D01*
X120293538Y-84591866D01*
X120293533Y-84591875D01*
X120244499Y-84710255D01*
X120244497Y-84710261D01*
X120219500Y-84835928D01*
X120219500Y-84835931D01*
X120219500Y-84964069D01*
X120219500Y-84964071D01*
X120219499Y-84964071D01*
X118987151Y-84964071D01*
X119002546Y-84952546D01*
X119088796Y-84837331D01*
X119096938Y-84815501D01*
X119107753Y-84786506D01*
X119139091Y-84702482D01*
X119141000Y-84684723D01*
X119145500Y-84642873D01*
X119145499Y-83794071D01*
X123579499Y-83794071D01*
X123604497Y-83919738D01*
X123604499Y-83919744D01*
X123653533Y-84038124D01*
X123653538Y-84038133D01*
X123724723Y-84144668D01*
X123724726Y-84144672D01*
X123815327Y-84235273D01*
X123815331Y-84235276D01*
X123921866Y-84306461D01*
X123921872Y-84306464D01*
X123921873Y-84306465D01*
X124040256Y-84355501D01*
X124040260Y-84355501D01*
X124040261Y-84355502D01*
X124165928Y-84380500D01*
X124165931Y-84380500D01*
X124294071Y-84380500D01*
X124378615Y-84363682D01*
X124419744Y-84355501D01*
X124538127Y-84306465D01*
X124644669Y-84235276D01*
X124735276Y-84144669D01*
X124806465Y-84038127D01*
X124855501Y-83919744D01*
X124872565Y-83833961D01*
X124880500Y-83794071D01*
X124880500Y-83665928D01*
X124855502Y-83540261D01*
X124855501Y-83540260D01*
X124855501Y-83540256D01*
X124806465Y-83421873D01*
X124806464Y-83421872D01*
X124806461Y-83421866D01*
X124735276Y-83315331D01*
X124735273Y-83315327D01*
X124644672Y-83224726D01*
X124644668Y-83224723D01*
X124538133Y-83153538D01*
X124538124Y-83153533D01*
X124419744Y-83104499D01*
X124419738Y-83104497D01*
X124294071Y-83079500D01*
X124294069Y-83079500D01*
X124165931Y-83079500D01*
X124165929Y-83079500D01*
X124040261Y-83104497D01*
X124040255Y-83104499D01*
X123921875Y-83153533D01*
X123921866Y-83153538D01*
X123815331Y-83224723D01*
X123815327Y-83224726D01*
X123724726Y-83315327D01*
X123724723Y-83315331D01*
X123653538Y-83421866D01*
X123653533Y-83421875D01*
X123604499Y-83540255D01*
X123604497Y-83540261D01*
X123579500Y-83665928D01*
X123579500Y-83665931D01*
X123579500Y-83794069D01*
X123579500Y-83794071D01*
X123579499Y-83794071D01*
X119145499Y-83794071D01*
X119145499Y-83697128D01*
X119139091Y-83637517D01*
X119130147Y-83613538D01*
X119088797Y-83502671D01*
X119088793Y-83502664D01*
X119002547Y-83387455D01*
X119002544Y-83387452D01*
X118887335Y-83301206D01*
X118887328Y-83301202D01*
X118752482Y-83250908D01*
X118752483Y-83250908D01*
X118692883Y-83244501D01*
X118692881Y-83244500D01*
X118692873Y-83244500D01*
X118692864Y-83244500D01*
X117747129Y-83244500D01*
X117747123Y-83244501D01*
X117687516Y-83250908D01*
X117552671Y-83301202D01*
X117552664Y-83301206D01*
X117437455Y-83387452D01*
X117437452Y-83387455D01*
X117351206Y-83502664D01*
X117351202Y-83502671D01*
X117300908Y-83637517D01*
X117294501Y-83697116D01*
X117294500Y-83697135D01*
X116968288Y-83697135D01*
X116968283Y-83693992D01*
X116964926Y-81457135D01*
X117284500Y-81457135D01*
X117284500Y-82402870D01*
X117284501Y-82402876D01*
X117290908Y-82462483D01*
X117341202Y-82597328D01*
X117341206Y-82597335D01*
X117427452Y-82712544D01*
X117427455Y-82712547D01*
X117542664Y-82798793D01*
X117542671Y-82798797D01*
X117677517Y-82849091D01*
X117677516Y-82849091D01*
X117684444Y-82849835D01*
X117737127Y-82855500D01*
X118682872Y-82855499D01*
X118742483Y-82849091D01*
X118877331Y-82798796D01*
X118992546Y-82712546D01*
X119078796Y-82597331D01*
X119129091Y-82462483D01*
X119135500Y-82402873D01*
X119135500Y-82364071D01*
X120239499Y-82364071D01*
X120264497Y-82489738D01*
X120264499Y-82489744D01*
X120313533Y-82608124D01*
X120313538Y-82608133D01*
X120384723Y-82714668D01*
X120384726Y-82714672D01*
X120475327Y-82805273D01*
X120475331Y-82805276D01*
X120581866Y-82876461D01*
X120581872Y-82876464D01*
X120581873Y-82876465D01*
X120700256Y-82925501D01*
X120700260Y-82925501D01*
X120700261Y-82925502D01*
X120825928Y-82950500D01*
X120825931Y-82950500D01*
X120954071Y-82950500D01*
X121038615Y-82933682D01*
X121079744Y-82925501D01*
X121198127Y-82876465D01*
X121304669Y-82805276D01*
X121395276Y-82714669D01*
X121466465Y-82608127D01*
X121515501Y-82489744D01*
X121528163Y-82426088D01*
X121540500Y-82364071D01*
X121540500Y-82235928D01*
X121515502Y-82110261D01*
X121515501Y-82110260D01*
X121515501Y-82110256D01*
X121466465Y-81991873D01*
X121466464Y-81991872D01*
X121466461Y-81991866D01*
X121395276Y-81885331D01*
X121395273Y-81885327D01*
X121304672Y-81794726D01*
X121304668Y-81794723D01*
X121228863Y-81744071D01*
X125999499Y-81744071D01*
X126024497Y-81869738D01*
X126024499Y-81869744D01*
X126073533Y-81988124D01*
X126073538Y-81988133D01*
X126144723Y-82094668D01*
X126144726Y-82094672D01*
X126235327Y-82185273D01*
X126235331Y-82185276D01*
X126341866Y-82256461D01*
X126341872Y-82256464D01*
X126341873Y-82256465D01*
X126460256Y-82305501D01*
X126460260Y-82305501D01*
X126460261Y-82305502D01*
X126585928Y-82330500D01*
X126585931Y-82330500D01*
X126714071Y-82330500D01*
X126798615Y-82313682D01*
X126839744Y-82305501D01*
X126958127Y-82256465D01*
X127064669Y-82185276D01*
X127155276Y-82094669D01*
X127226465Y-81988127D01*
X127275501Y-81869744D01*
X127283682Y-81828615D01*
X127300500Y-81744071D01*
X127300500Y-81615928D01*
X127275502Y-81490261D01*
X127275501Y-81490260D01*
X127275501Y-81490256D01*
X127226465Y-81371873D01*
X127226464Y-81371872D01*
X127226461Y-81371866D01*
X127155276Y-81265331D01*
X127155273Y-81265327D01*
X127064672Y-81174726D01*
X127064668Y-81174723D01*
X126958133Y-81103538D01*
X126958124Y-81103533D01*
X126839744Y-81054499D01*
X126839738Y-81054497D01*
X126714071Y-81029500D01*
X126714069Y-81029500D01*
X126585931Y-81029500D01*
X126585929Y-81029500D01*
X126460261Y-81054497D01*
X126460255Y-81054499D01*
X126341875Y-81103533D01*
X126341866Y-81103538D01*
X126235331Y-81174723D01*
X126235327Y-81174726D01*
X126144726Y-81265327D01*
X126144723Y-81265331D01*
X126073538Y-81371866D01*
X126073533Y-81371875D01*
X126024499Y-81490255D01*
X126024497Y-81490261D01*
X125999500Y-81615928D01*
X125999500Y-81615931D01*
X125999500Y-81744069D01*
X125999500Y-81744071D01*
X125999499Y-81744071D01*
X121228863Y-81744071D01*
X121198133Y-81723538D01*
X121198119Y-81723531D01*
X121079748Y-81674500D01*
X121079738Y-81674497D01*
X120954071Y-81649500D01*
X120954069Y-81649500D01*
X120825931Y-81649500D01*
X120825929Y-81649500D01*
X120700261Y-81674497D01*
X120700255Y-81674499D01*
X120581875Y-81723533D01*
X120581866Y-81723538D01*
X120475331Y-81794723D01*
X120475327Y-81794726D01*
X120384726Y-81885327D01*
X120384723Y-81885331D01*
X120313538Y-81991866D01*
X120313533Y-81991875D01*
X120264499Y-82110255D01*
X120264497Y-82110261D01*
X120239500Y-82235928D01*
X120239500Y-82235931D01*
X120239500Y-82364069D01*
X120239500Y-82364071D01*
X120239499Y-82364071D01*
X119135500Y-82364071D01*
X119135499Y-81885331D01*
X119135499Y-81457129D01*
X119135498Y-81457123D01*
X119135497Y-81457116D01*
X119129091Y-81397517D01*
X119119527Y-81371875D01*
X119078797Y-81262671D01*
X119078793Y-81262664D01*
X118992547Y-81147455D01*
X118992544Y-81147452D01*
X118877335Y-81061206D01*
X118877328Y-81061202D01*
X118742482Y-81010908D01*
X118742483Y-81010908D01*
X118682883Y-81004501D01*
X118682881Y-81004500D01*
X118682873Y-81004500D01*
X118682864Y-81004500D01*
X117737129Y-81004500D01*
X117737123Y-81004501D01*
X117677516Y-81010908D01*
X117542671Y-81061202D01*
X117542664Y-81061206D01*
X117427455Y-81147452D01*
X117427452Y-81147455D01*
X117341206Y-81262664D01*
X117341202Y-81262671D01*
X117290908Y-81397517D01*
X117284837Y-81453992D01*
X117284501Y-81457123D01*
X117284500Y-81457135D01*
X116964926Y-81457135D01*
X116964921Y-81453992D01*
X116963454Y-80476866D01*
X116962493Y-79836571D01*
X123139499Y-79836571D01*
X123164497Y-79962238D01*
X123164499Y-79962244D01*
X123213533Y-80080624D01*
X123213538Y-80080633D01*
X123284723Y-80187168D01*
X123284726Y-80187172D01*
X123375327Y-80277773D01*
X123375331Y-80277776D01*
X123481866Y-80348961D01*
X123481872Y-80348964D01*
X123481873Y-80348965D01*
X123600256Y-80398001D01*
X123600260Y-80398001D01*
X123600261Y-80398002D01*
X123725928Y-80423000D01*
X123725931Y-80423000D01*
X123854071Y-80423000D01*
X123938615Y-80406182D01*
X123979744Y-80398001D01*
X124098127Y-80348965D01*
X124204669Y-80277776D01*
X124295276Y-80187169D01*
X124366465Y-80080627D01*
X124415501Y-79962244D01*
X124440500Y-79836569D01*
X124440500Y-79804071D01*
X130869499Y-79804071D01*
X130894497Y-79929738D01*
X130894499Y-79929744D01*
X130943533Y-80048124D01*
X130943538Y-80048133D01*
X131014723Y-80154668D01*
X131014726Y-80154672D01*
X131105327Y-80245273D01*
X131105331Y-80245276D01*
X131211866Y-80316461D01*
X131211872Y-80316464D01*
X131211873Y-80316465D01*
X131330256Y-80365501D01*
X131330260Y-80365501D01*
X131330261Y-80365502D01*
X131455928Y-80390500D01*
X131455931Y-80390500D01*
X131584071Y-80390500D01*
X131668615Y-80373682D01*
X131709744Y-80365501D01*
X131828127Y-80316465D01*
X131934669Y-80245276D01*
X132025276Y-80154669D01*
X132096465Y-80048127D01*
X132145501Y-79929744D01*
X132170500Y-79804069D01*
X132170500Y-79675931D01*
X132170500Y-79675928D01*
X132145502Y-79550261D01*
X132145501Y-79550260D01*
X132145501Y-79550256D01*
X132096465Y-79431873D01*
X132096464Y-79431872D01*
X132096461Y-79431866D01*
X132025276Y-79325331D01*
X132025273Y-79325327D01*
X131934672Y-79234726D01*
X131934668Y-79234723D01*
X131828133Y-79163538D01*
X131828124Y-79163533D01*
X131709744Y-79114499D01*
X131709738Y-79114497D01*
X131584071Y-79089500D01*
X131584069Y-79089500D01*
X131455931Y-79089500D01*
X131455929Y-79089500D01*
X131330261Y-79114497D01*
X131330255Y-79114499D01*
X131211875Y-79163533D01*
X131211866Y-79163538D01*
X131105331Y-79234723D01*
X131105327Y-79234726D01*
X131014726Y-79325327D01*
X131014723Y-79325331D01*
X130943538Y-79431866D01*
X130943533Y-79431875D01*
X130894499Y-79550255D01*
X130894497Y-79550261D01*
X130869500Y-79675928D01*
X130869500Y-79675931D01*
X130869500Y-79804069D01*
X130869500Y-79804071D01*
X130869499Y-79804071D01*
X124440500Y-79804071D01*
X124440500Y-79708431D01*
X124440500Y-79708428D01*
X124437636Y-79694031D01*
X124415502Y-79582761D01*
X124415501Y-79582760D01*
X124415501Y-79582756D01*
X124366465Y-79464373D01*
X124366464Y-79464372D01*
X124366461Y-79464366D01*
X124295276Y-79357831D01*
X124295273Y-79357827D01*
X124204672Y-79267226D01*
X124204668Y-79267223D01*
X124098133Y-79196038D01*
X124098124Y-79196033D01*
X123979744Y-79146999D01*
X123979738Y-79146997D01*
X123854071Y-79122000D01*
X123854069Y-79122000D01*
X123725931Y-79122000D01*
X123725929Y-79122000D01*
X123600261Y-79146997D01*
X123600255Y-79146999D01*
X123481875Y-79196033D01*
X123481866Y-79196038D01*
X123375331Y-79267223D01*
X123375327Y-79267226D01*
X123284726Y-79357827D01*
X123284723Y-79357831D01*
X123213538Y-79464366D01*
X123213533Y-79464375D01*
X123164499Y-79582755D01*
X123164497Y-79582761D01*
X123139500Y-79708428D01*
X123139500Y-79708431D01*
X123139500Y-79836569D01*
X123139500Y-79836571D01*
X123139499Y-79836571D01*
X116962493Y-79836571D01*
X116961880Y-79428120D01*
X116962012Y-79422226D01*
X116964887Y-79360059D01*
X116979846Y-79036493D01*
X116980903Y-79025098D01*
X117033871Y-78645387D01*
X117035971Y-78634150D01*
X117123751Y-78260934D01*
X117126874Y-78249955D01*
X117248720Y-77886415D01*
X117252842Y-77875775D01*
X117259297Y-77861156D01*
X121574499Y-77861156D01*
X121610065Y-78039952D01*
X121610068Y-78039962D01*
X121679831Y-78208387D01*
X121679833Y-78208391D01*
X121781113Y-78359967D01*
X121781119Y-78359975D01*
X121910024Y-78488880D01*
X121910032Y-78488886D01*
X122061608Y-78590166D01*
X122061612Y-78590168D01*
X122228009Y-78659091D01*
X122230042Y-78659933D01*
X122230046Y-78659933D01*
X122230047Y-78659934D01*
X122408843Y-78695500D01*
X122408846Y-78695500D01*
X122591156Y-78695500D01*
X122741981Y-78665498D01*
X122769958Y-78659933D01*
X122924217Y-78596036D01*
X122993687Y-78588568D01*
X123045981Y-78611332D01*
X123082664Y-78638793D01*
X123082671Y-78638797D01*
X123217517Y-78689091D01*
X123217516Y-78689091D01*
X123224444Y-78689835D01*
X123277127Y-78695500D01*
X124222872Y-78695499D01*
X124282483Y-78689091D01*
X124417331Y-78638796D01*
X124532546Y-78552546D01*
X124618796Y-78437331D01*
X124669091Y-78302483D01*
X124675500Y-78242873D01*
X124675500Y-77831156D01*
X129264499Y-77831156D01*
X129300065Y-78009952D01*
X129300068Y-78009962D01*
X129369831Y-78178387D01*
X129369833Y-78178391D01*
X129471113Y-78329967D01*
X129471119Y-78329975D01*
X129600024Y-78458880D01*
X129600032Y-78458886D01*
X129751608Y-78560166D01*
X129751612Y-78560168D01*
X129920037Y-78629931D01*
X129920042Y-78629933D01*
X129920046Y-78629933D01*
X129920047Y-78629934D01*
X130098843Y-78665500D01*
X130098846Y-78665500D01*
X130281156Y-78665500D01*
X130410736Y-78639724D01*
X130459958Y-78629933D01*
X130614217Y-78566036D01*
X130683687Y-78558568D01*
X130735981Y-78581332D01*
X130772664Y-78608793D01*
X130772671Y-78608797D01*
X130907517Y-78659091D01*
X130907516Y-78659091D01*
X130914444Y-78659835D01*
X130967127Y-78665500D01*
X131912872Y-78665499D01*
X131972483Y-78659091D01*
X132107331Y-78608796D01*
X132222546Y-78522546D01*
X132308796Y-78407331D01*
X132359091Y-78272483D01*
X132365500Y-78212873D01*
X132365499Y-77267128D01*
X132359091Y-77207517D01*
X132348838Y-77180028D01*
X132308797Y-77072671D01*
X132308793Y-77072664D01*
X132222547Y-76957455D01*
X132222544Y-76957452D01*
X132107335Y-76871206D01*
X132107328Y-76871202D01*
X131972482Y-76820908D01*
X131972483Y-76820908D01*
X131912883Y-76814501D01*
X131912881Y-76814500D01*
X131912873Y-76814500D01*
X131912864Y-76814500D01*
X130967129Y-76814500D01*
X130967123Y-76814501D01*
X130907516Y-76820908D01*
X130772671Y-76871202D01*
X130772665Y-76871205D01*
X130735978Y-76898669D01*
X130670513Y-76923085D01*
X130614217Y-76913962D01*
X130459962Y-76850068D01*
X130459952Y-76850065D01*
X130281156Y-76814500D01*
X130281154Y-76814500D01*
X130098846Y-76814500D01*
X130098844Y-76814500D01*
X129920047Y-76850065D01*
X129920037Y-76850068D01*
X129751612Y-76919831D01*
X129751608Y-76919833D01*
X129600032Y-77021113D01*
X129600024Y-77021119D01*
X129471119Y-77150024D01*
X129471113Y-77150032D01*
X129369833Y-77301608D01*
X129369831Y-77301612D01*
X129300068Y-77470037D01*
X129300065Y-77470047D01*
X129264500Y-77648843D01*
X129264500Y-77648846D01*
X129264500Y-77831154D01*
X129264500Y-77831156D01*
X129264499Y-77831156D01*
X124675500Y-77831156D01*
X124675499Y-77297128D01*
X124669091Y-77237517D01*
X124657901Y-77207516D01*
X124618797Y-77102671D01*
X124618793Y-77102664D01*
X124532547Y-76987455D01*
X124532544Y-76987452D01*
X124417335Y-76901206D01*
X124417328Y-76901202D01*
X124282482Y-76850908D01*
X124282483Y-76850908D01*
X124222883Y-76844501D01*
X124222881Y-76844500D01*
X124222873Y-76844500D01*
X124222864Y-76844500D01*
X123277129Y-76844500D01*
X123277123Y-76844501D01*
X123217516Y-76850908D01*
X123082671Y-76901202D01*
X123082665Y-76901205D01*
X123045978Y-76928669D01*
X122980513Y-76953085D01*
X122924217Y-76943962D01*
X122769962Y-76880068D01*
X122769952Y-76880065D01*
X122591156Y-76844500D01*
X122591154Y-76844500D01*
X122408846Y-76844500D01*
X122408844Y-76844500D01*
X122230047Y-76880065D01*
X122230037Y-76880068D01*
X122061612Y-76949831D01*
X122061608Y-76949833D01*
X121910032Y-77051113D01*
X121910024Y-77051119D01*
X121781119Y-77180024D01*
X121781113Y-77180032D01*
X121679833Y-77331608D01*
X121679831Y-77331612D01*
X121610068Y-77500037D01*
X121610065Y-77500047D01*
X121574500Y-77678843D01*
X121574500Y-77678846D01*
X121574500Y-77861154D01*
X121574500Y-77861156D01*
X121574499Y-77861156D01*
X117259297Y-77861156D01*
X117407717Y-77525013D01*
X117412801Y-77514804D01*
X117599363Y-77179860D01*
X117605389Y-77170129D01*
X117672150Y-77072669D01*
X117822064Y-76853819D01*
X117828938Y-76844717D01*
X118073891Y-76549731D01*
X118081566Y-76541312D01*
X118352686Y-76270191D01*
X118361116Y-76262505D01*
X118656100Y-76017551D01*
X118665217Y-76010668D01*
X118685788Y-75996575D01*
X118981516Y-75793997D01*
X118991226Y-75787984D01*
X119326186Y-75601411D01*
X119336403Y-75596323D01*
X119687146Y-75441453D01*
X119697786Y-75437331D01*
X120061338Y-75315479D01*
X120072317Y-75312356D01*
X120445534Y-75224574D01*
X120456759Y-75222475D01*
X120836485Y-75169504D01*
X120847876Y-75168448D01*
X121233205Y-75150631D01*
X121238926Y-75150500D01*
X133789724Y-75151096D01*
G37*
%TD.AperFunction*%
%TD*%
M02*
