%TF.GenerationSoftware,KiCad,Pcbnew,9.0.0*%
%TF.CreationDate,2025-05-02T09:45:38-07:00*%
%TF.ProjectId,OuterBoard_4.1,4f757465-7242-46f6-9172-645f342e312e,rev?*%
%TF.SameCoordinates,Original*%
%TF.FileFunction,Paste,Bot*%
%TF.FilePolarity,Positive*%
%FSLAX46Y46*%
G04 Gerber Fmt 4.6, Leading zero omitted, Abs format (unit mm)*
G04 Created by KiCad (PCBNEW 9.0.0) date 2025-05-02 09:45:38*
%MOMM*%
%LPD*%
G01*
G04 APERTURE LIST*
G04 Aperture macros list*
%AMRoundRect*
0 Rectangle with rounded corners*
0 $1 Rounding radius*
0 $2 $3 $4 $5 $6 $7 $8 $9 X,Y pos of 4 corners*
0 Add a 4 corners polygon primitive as box body*
4,1,4,$2,$3,$4,$5,$6,$7,$8,$9,$2,$3,0*
0 Add four circle primitives for the rounded corners*
1,1,$1+$1,$2,$3*
1,1,$1+$1,$4,$5*
1,1,$1+$1,$6,$7*
1,1,$1+$1,$8,$9*
0 Add four rect primitives between the rounded corners*
20,1,$1+$1,$2,$3,$4,$5,0*
20,1,$1+$1,$4,$5,$6,$7,0*
20,1,$1+$1,$6,$7,$8,$9,0*
20,1,$1+$1,$8,$9,$2,$3,0*%
G04 Aperture macros list end*
%ADD10RoundRect,0.225000X-0.225000X-0.250000X0.225000X-0.250000X0.225000X0.250000X-0.225000X0.250000X0*%
%ADD11RoundRect,0.225000X0.225000X0.250000X-0.225000X0.250000X-0.225000X-0.250000X0.225000X-0.250000X0*%
%ADD12RoundRect,0.079500X0.079500X0.100500X-0.079500X0.100500X-0.079500X-0.100500X0.079500X-0.100500X0*%
%ADD13RoundRect,0.225000X-0.250000X0.225000X-0.250000X-0.225000X0.250000X-0.225000X0.250000X0.225000X0*%
%ADD14RoundRect,0.225000X0.250000X-0.225000X0.250000X0.225000X-0.250000X0.225000X-0.250000X-0.225000X0*%
%ADD15R,1.050000X2.200000*%
%ADD16R,1.050000X1.000000*%
%ADD17R,1.803400X1.117600*%
%ADD18RoundRect,0.250000X-0.475000X0.250000X-0.475000X-0.250000X0.475000X-0.250000X0.475000X0.250000X0*%
%ADD19RoundRect,0.150000X-0.150000X0.512500X-0.150000X-0.512500X0.150000X-0.512500X0.150000X0.512500X0*%
%ADD20RoundRect,0.079500X-0.079500X-0.100500X0.079500X-0.100500X0.079500X0.100500X-0.079500X0.100500X0*%
%ADD21RoundRect,0.135000X0.185000X-0.135000X0.185000X0.135000X-0.185000X0.135000X-0.185000X-0.135000X0*%
%ADD22R,1.000000X0.599999*%
%ADD23RoundRect,0.250000X-1.000000X-0.650000X1.000000X-0.650000X1.000000X0.650000X-1.000000X0.650000X0*%
%ADD24RoundRect,0.218750X-0.218750X-0.256250X0.218750X-0.256250X0.218750X0.256250X-0.218750X0.256250X0*%
%ADD25R,1.761200X0.850800*%
%ADD26R,1.761200X3.150799*%
%ADD27RoundRect,0.125000X-0.125000X-0.125000X0.125000X-0.125000X0.125000X0.125000X-0.125000X0.125000X0*%
%ADD28RoundRect,0.135000X-0.185000X0.135000X-0.185000X-0.135000X0.185000X-0.135000X0.185000X0.135000X0*%
%ADD29RoundRect,0.140000X0.170000X-0.140000X0.170000X0.140000X-0.170000X0.140000X-0.170000X-0.140000X0*%
%ADD30RoundRect,0.250000X-0.450000X0.262500X-0.450000X-0.262500X0.450000X-0.262500X0.450000X0.262500X0*%
%ADD31RoundRect,0.125000X0.125000X-0.125000X0.125000X0.125000X-0.125000X0.125000X-0.125000X-0.125000X0*%
%ADD32RoundRect,0.079500X0.100500X-0.079500X0.100500X0.079500X-0.100500X0.079500X-0.100500X-0.079500X0*%
%ADD33RoundRect,0.135000X-0.135000X-0.185000X0.135000X-0.185000X0.135000X0.185000X-0.135000X0.185000X0*%
%ADD34R,1.682000X2.294000*%
%ADD35R,1.682000X2.040000*%
%ADD36RoundRect,0.140000X0.140000X0.170000X-0.140000X0.170000X-0.140000X-0.170000X0.140000X-0.170000X0*%
%ADD37RoundRect,0.150000X-0.512500X-0.150000X0.512500X-0.150000X0.512500X0.150000X-0.512500X0.150000X0*%
%ADD38RoundRect,0.249999X-0.395001X0.395001X-0.395001X-0.395001X0.395001X-0.395001X0.395001X0.395001X0*%
%ADD39RoundRect,0.050000X-0.050000X0.387500X-0.050000X-0.387500X0.050000X-0.387500X0.050000X0.387500X0*%
%ADD40RoundRect,0.050000X-0.387500X0.050000X-0.387500X-0.050000X0.387500X-0.050000X0.387500X0.050000X0*%
G04 APERTURE END LIST*
D10*
%TO.C,C16*%
X121765000Y-101750000D03*
X123315000Y-101750000D03*
%TD*%
D11*
%TO.C,C27*%
X152600000Y-91200000D03*
X151050000Y-91200000D03*
%TD*%
D12*
%TO.C,C43*%
X131600000Y-85820000D03*
X130910000Y-85820000D03*
%TD*%
D13*
%TO.C,C7*%
X128550000Y-79560000D03*
X128550000Y-81110000D03*
%TD*%
D14*
%TO.C,C9*%
X152320000Y-101785000D03*
X152320000Y-100235000D03*
%TD*%
%TO.C,C40*%
X127640000Y-90720000D03*
X127640000Y-89170000D03*
%TD*%
D15*
%TO.C,ANT1*%
X139060600Y-83399800D03*
X136110600Y-83399800D03*
D16*
X137585600Y-84924800D03*
%TD*%
D14*
%TO.C,C39*%
X134340000Y-84655000D03*
X134340000Y-83105000D03*
%TD*%
D17*
%TO.C,F1*%
X122070000Y-86071400D03*
X122070000Y-89068600D03*
%TD*%
D13*
%TO.C,C24*%
X150550000Y-96860000D03*
X150550000Y-98410000D03*
%TD*%
D11*
%TO.C,C20*%
X148175000Y-81530000D03*
X146625000Y-81530000D03*
%TD*%
%TO.C,C21*%
X149295000Y-91190000D03*
X147745000Y-91190000D03*
%TD*%
D18*
%TO.C,FB1*%
X150260000Y-85400000D03*
X150260000Y-87300000D03*
%TD*%
D14*
%TO.C,C37*%
X135110000Y-89875000D03*
X135110000Y-88325000D03*
%TD*%
D19*
%TO.C,U3*%
X130590000Y-79762500D03*
X131540000Y-79762500D03*
X132490000Y-79762500D03*
X132490000Y-82037500D03*
X130590000Y-82037500D03*
%TD*%
D13*
%TO.C,C11*%
X121270000Y-94915000D03*
X121270000Y-96465000D03*
%TD*%
%TO.C,C8*%
X134350000Y-79195000D03*
X134350000Y-80745000D03*
%TD*%
D20*
%TO.C,C45*%
X130905000Y-92500000D03*
X131595000Y-92500000D03*
%TD*%
D21*
%TO.C,R3*%
X141340000Y-86200000D03*
X141340000Y-85180000D03*
%TD*%
D22*
%TO.C,U7*%
X149954999Y-83550001D03*
X149954999Y-82600000D03*
X149954999Y-81650002D03*
X152704999Y-81650002D03*
X152704999Y-83550001D03*
%TD*%
D23*
%TO.C,D7*%
X145600000Y-101130000D03*
X149600000Y-101130000D03*
%TD*%
D21*
%TO.C,R20*%
X143510000Y-86210000D03*
X143510000Y-85190000D03*
%TD*%
D24*
%TO.C,D9*%
X145265000Y-97910000D03*
X146840000Y-97910000D03*
%TD*%
D25*
%TO.C,U4*%
X123505000Y-99400000D03*
X123505000Y-97100000D03*
X123505000Y-94800000D03*
D26*
X129555000Y-97100000D03*
%TD*%
D13*
%TO.C,C4*%
X126660000Y-79575000D03*
X126660000Y-81125000D03*
%TD*%
%TO.C,C26*%
X152560000Y-96870000D03*
X152560000Y-98420000D03*
%TD*%
D27*
%TO.C,D11*%
X128682500Y-84210000D03*
X130882500Y-84210000D03*
%TD*%
D28*
%TO.C,R4*%
X132330000Y-83710000D03*
X132330000Y-84730000D03*
%TD*%
D21*
%TO.C,R5*%
X148470000Y-87790000D03*
X148470000Y-86770000D03*
%TD*%
D11*
%TO.C,C25*%
X152600000Y-89190000D03*
X151050000Y-89190000D03*
%TD*%
D29*
%TO.C,C41*%
X127350000Y-87860000D03*
X127350000Y-86900000D03*
%TD*%
D11*
%TO.C,C36*%
X125980000Y-89200000D03*
X124430000Y-89200000D03*
%TD*%
%TO.C,C18*%
X137945000Y-79840000D03*
X136395000Y-79840000D03*
%TD*%
D30*
%TO.C,R10*%
X148000000Y-83257500D03*
X148000000Y-85082500D03*
%TD*%
D11*
%TO.C,C22*%
X148220000Y-79820000D03*
X146670000Y-79820000D03*
%TD*%
D31*
%TO.C,D10*%
X126870000Y-84987500D03*
X126870000Y-82787500D03*
%TD*%
D32*
%TO.C,L1*%
X137585600Y-87669800D03*
X137585600Y-86979800D03*
%TD*%
D33*
%TO.C,R15*%
X148202500Y-97850000D03*
X149222500Y-97850000D03*
%TD*%
D34*
%TO.C,Y2*%
X130078000Y-90747000D03*
D35*
X130078000Y-87580000D03*
X132460000Y-87580000D03*
D34*
X132460000Y-90747000D03*
%TD*%
D21*
%TO.C,R2*%
X142410000Y-86210000D03*
X142410000Y-85190000D03*
%TD*%
D36*
%TO.C,C35*%
X137580000Y-88580000D03*
X136620000Y-88580000D03*
%TD*%
D37*
%TO.C,U5*%
X150122500Y-95040000D03*
X150122500Y-94090000D03*
X150122500Y-93140000D03*
X152397500Y-93140000D03*
X152397500Y-95040000D03*
%TD*%
D13*
%TO.C,C10*%
X121200000Y-98095000D03*
X121200000Y-99645000D03*
%TD*%
D33*
%TO.C,R1*%
X122510000Y-84050000D03*
X123530000Y-84050000D03*
%TD*%
D13*
%TO.C,C3*%
X120890000Y-82300000D03*
X120890000Y-83850000D03*
%TD*%
D11*
%TO.C,C19*%
X149280000Y-89220000D03*
X147730000Y-89220000D03*
%TD*%
D10*
%TO.C,C17*%
X139785000Y-79860000D03*
X141335000Y-79860000D03*
%TD*%
D21*
%TO.C,R19*%
X140230000Y-86200000D03*
X140230000Y-85180000D03*
%TD*%
D10*
%TO.C,C13*%
X125100000Y-101770000D03*
X126650000Y-101770000D03*
%TD*%
D19*
%TO.C,U1*%
X122840000Y-79772500D03*
X123790000Y-79772500D03*
X124740000Y-79772500D03*
X124740000Y-82047500D03*
X122840000Y-82047500D03*
%TD*%
D36*
%TO.C,C33*%
X137590000Y-86064800D03*
X136630000Y-86064800D03*
%TD*%
D28*
%TO.C,R12*%
X141320000Y-83170000D03*
X141320000Y-84190000D03*
%TD*%
D11*
%TO.C,C34*%
X125995000Y-87570000D03*
X124445000Y-87570000D03*
%TD*%
D28*
%TO.C,R11*%
X142440000Y-83190000D03*
X142440000Y-84210000D03*
%TD*%
D14*
%TO.C,C15*%
X152430000Y-86925000D03*
X152430000Y-85375000D03*
%TD*%
D38*
%TO.C,U9*%
X140980000Y-92470000D03*
X139380000Y-92470000D03*
X140980000Y-94070000D03*
X139380000Y-94070000D03*
D39*
X137580000Y-89832500D03*
X137980000Y-89832500D03*
X138380000Y-89832500D03*
X138780000Y-89832500D03*
X139180000Y-89832500D03*
X139580000Y-89832500D03*
X139980000Y-89832500D03*
X140380000Y-89832500D03*
X140780000Y-89832500D03*
X141180000Y-89832500D03*
X141580000Y-89832500D03*
X141980000Y-89832500D03*
X142380000Y-89832500D03*
X142780000Y-89832500D03*
D40*
X143617500Y-90670000D03*
X143617500Y-91070000D03*
X143617500Y-91470000D03*
X143617500Y-91870000D03*
X143617500Y-92270000D03*
X143617500Y-92670000D03*
X143617500Y-93070000D03*
X143617500Y-93470000D03*
X143617500Y-93870000D03*
X143617500Y-94270000D03*
X143617500Y-94670000D03*
X143617500Y-95070000D03*
X143617500Y-95470000D03*
X143617500Y-95870000D03*
D39*
X142780000Y-96707500D03*
X142380000Y-96707500D03*
X141980000Y-96707500D03*
X141580000Y-96707500D03*
X141180000Y-96707500D03*
X140780000Y-96707500D03*
X140380000Y-96707500D03*
X139980000Y-96707500D03*
X139580000Y-96707500D03*
X139180000Y-96707500D03*
X138780000Y-96707500D03*
X138380000Y-96707500D03*
X137980000Y-96707500D03*
X137580000Y-96707500D03*
D40*
X136742500Y-95870000D03*
X136742500Y-95470000D03*
X136742500Y-95070000D03*
X136742500Y-94670000D03*
X136742500Y-94270000D03*
X136742500Y-93870000D03*
X136742500Y-93470000D03*
X136742500Y-93070000D03*
X136742500Y-92670000D03*
X136742500Y-92270000D03*
X136742500Y-91870000D03*
X136742500Y-91470000D03*
X136742500Y-91070000D03*
X136742500Y-90670000D03*
%TD*%
M02*
