%TF.GenerationSoftware,KiCad,Pcbnew,8.0.8*%
<<<<<<<< HEAD:Hardware/Gen3/OuterBoard/3.1b/gerbers/OuterBoard_rev3.1-In4_Cu.gbr
%TF.CreationDate,2025-02-18T00:45:43-08:00*%
========
%TF.CreationDate,2025-02-23T23:13:27-08:00*%
>>>>>>>> dcdd3553d01e5dd57f0d42a69398edb20d40e92e:Hardware/FabQuotes/JLCGen3/Gerber/OuterBoard_rev3.1-In4_Cu.gbr
%TF.ProjectId,OuterBoard_rev3.1,4f757465-7242-46f6-9172-645f72657633,rev?*%
%TF.SameCoordinates,Original*%
%TF.FileFunction,Copper,L5,Inr*%
%TF.FilePolarity,Positive*%
%FSLAX46Y46*%
G04 Gerber Fmt 4.6, Leading zero omitted, Abs format (unit mm)*
<<<<<<<< HEAD:Hardware/Gen3/OuterBoard/3.1b/gerbers/OuterBoard_rev3.1-In4_Cu.gbr
G04 Created by KiCad (PCBNEW 8.0.8) date 2025-02-18 00:45:43*
========
G04 Created by KiCad (PCBNEW 8.0.8) date 2025-02-23 23:13:27*
>>>>>>>> dcdd3553d01e5dd57f0d42a69398edb20d40e92e:Hardware/FabQuotes/JLCGen3/Gerber/OuterBoard_rev3.1-In4_Cu.gbr
%MOMM*%
%LPD*%
G01*
G04 APERTURE LIST*
%TA.AperFunction,ComponentPad*%
%ADD10R,0.850000X0.850000*%
%TD*%
%TA.AperFunction,ComponentPad*%
%ADD11C,0.850000*%
%TD*%
%TA.AperFunction,ComponentPad*%
%ADD12C,1.650000*%
%TD*%
%TA.AperFunction,ComponentPad*%
%ADD13R,2.000000X2.000000*%
%TD*%
%TA.AperFunction,ComponentPad*%
%ADD14O,1.168400X2.159000*%
%TD*%
%TA.AperFunction,ComponentPad*%
%ADD15O,1.168400X2.667000*%
%TD*%
%TA.AperFunction,ViaPad*%
%ADD16C,0.600000*%
%TD*%
%TA.AperFunction,Conductor*%
%ADD17C,0.200000*%
%TD*%
G04 APERTURE END LIST*
D10*
%TO.N,+BATT2*%
%TO.C,J4*%
X128117600Y-77749400D03*
D11*
%TO.N,GNDPWR*%
X126867600Y-77749400D03*
%TD*%
D10*
%TO.N,+BATT1*%
%TO.C,J3*%
X119837200Y-77800200D03*
D11*
%TO.N,GNDPWR*%
X118587200Y-77800200D03*
%TD*%
D12*
%TO.N,GPIO45*%
%TO.C,J2*%
X115620800Y-104013000D03*
%TO.N,GPIO46*%
X118160800Y-104013000D03*
%TO.N,IO21{slash}USER_LED*%
X120700800Y-104013000D03*
%TO.N,D10{slash}A10{slash}MOSI*%
X123240800Y-104013000D03*
%TO.N,D9{slash}A9{slash}MISO*%
X125780800Y-104013000D03*
%TO.N,D8{slash}A8{slash}SCK*%
X128320800Y-104013000D03*
%TD*%
D13*
%TO.N,Net-(D1-K)*%
%TO.C,TP1*%
X109728000Y-80137000D03*
%TD*%
%TO.N,Net-(D2-K)*%
%TO.C,TP2*%
X111683800Y-76962000D03*
%TD*%
D12*
%TO.N,GNDPWR*%
%TO.C,J1*%
X109524800Y-96113600D03*
%TO.N,VDC*%
X109524800Y-93573600D03*
%TO.N,D1{slash}A1*%
X109524800Y-91033600D03*
%TO.N,GNDPWR*%
X109524800Y-88493600D03*
%TO.N,VDC*%
X109524800Y-85953600D03*
%TO.N,D0{slash}A0*%
X109524800Y-83413600D03*
%TD*%
D14*
%TO.N,N/C*%
%TO.C,J5*%
X131449998Y-99319300D03*
X140090002Y-99319300D03*
D15*
X131449998Y-104679300D03*
X140090002Y-104679300D03*
%TD*%
D16*
%TO.N,GND*%
X132860000Y-98100000D03*
X138780000Y-98160000D03*
%TO.N,USB_DP*%
X135962801Y-101549200D03*
X135712200Y-97890000D03*
%TO.N,GND*%
X147726400Y-94157800D03*
X114935000Y-89611200D03*
X121132600Y-92504600D03*
X142111489Y-93007223D03*
X121488200Y-97002600D03*
X145669000Y-90678000D03*
X154263252Y-96239441D03*
X123910000Y-88790000D03*
X120802400Y-88646600D03*
X110540800Y-87096600D03*
X150320000Y-100336400D03*
X145084800Y-92284600D03*
X150571200Y-89230200D03*
X113030000Y-93116400D03*
X128730000Y-97690000D03*
X142028800Y-90476900D03*
X147650200Y-92456000D03*
X117889684Y-89981291D03*
X123266200Y-92532200D03*
X131069477Y-88457575D03*
X111749000Y-84037600D03*
X139238800Y-88206400D03*
X122047000Y-85648800D03*
X128652394Y-99384806D03*
X135485000Y-78335000D03*
X132535000Y-78335000D03*
X134970000Y-80990000D03*
X134970000Y-83510000D03*
X114681000Y-96926400D03*
X125196600Y-96164400D03*
X122351800Y-99034600D03*
X135661400Y-95097600D03*
X139065000Y-83540600D03*
X117201071Y-93477539D03*
X145770600Y-102743000D03*
X121943122Y-89829707D03*
X142189200Y-83540600D03*
X150012400Y-77241400D03*
%TO.N,VCC*%
X120954800Y-81538800D03*
%TO.N,+2V8*%
X143408400Y-85242400D03*
X141452600Y-95885000D03*
%TO.N,VDC*%
X117396700Y-96139000D03*
X113004600Y-100152200D03*
X121107200Y-80568800D03*
X118688700Y-79618800D03*
%TO.N,Net-(D7-K)*%
X154686000Y-100101400D03*
%TO.N,+3.3V*%
X140944600Y-81584800D03*
X123266200Y-90954600D03*
X126100000Y-96920000D03*
X120802400Y-87096600D03*
X146098900Y-95123000D03*
X111988600Y-98348800D03*
X144909600Y-81965800D03*
X142087600Y-94589600D03*
X119483800Y-88793400D03*
X123153000Y-87031400D03*
X133527800Y-89662000D03*
X110515400Y-89814400D03*
X143078200Y-97866200D03*
%TO.N,+1V8*%
X153847800Y-93192600D03*
X120700800Y-94411800D03*
%TO.N,Net-(C38-Pad1)*%
X133444702Y-88239600D03*
%TO.N,+5V*%
X130429000Y-101879400D03*
%TO.N,IO21{slash}USER_LED*%
X125830000Y-85308799D03*
%TO.N,Net-(FB1-Pad2)*%
X153949400Y-88722200D03*
%TO.N,USB_DP*%
X135712200Y-96520000D03*
X126586400Y-89603665D03*
%TO.N,USB_DN*%
X136525000Y-96570800D03*
X125984000Y-88900000D03*
%TO.N,MTCK{slash}IO39{slash}CAM_SCL*%
X139013899Y-94285101D03*
X143370000Y-93550000D03*
%TO.N,IO38{slash}DVP_VSYNC*%
X133858000Y-90728800D03*
X153725086Y-92450272D03*
%TO.N,Net-(J10-Pad8)*%
X148742400Y-94183200D03*
%TO.N,IO47{slash}DVP_HREF*%
X131987500Y-92597090D03*
X150342600Y-93141800D03*
%TO.N,IO48{slash}DVP_Y9*%
X131054076Y-92574211D03*
X150520400Y-94564200D03*
%TO.N,IO10{slash}XMCLK*%
X127127615Y-85308799D03*
X154300000Y-94700000D03*
%TO.N,IO11{slash}DVP_Y8*%
X124715600Y-86848296D03*
X154440000Y-95490000D03*
%TO.N,IO12{slash}DVP_Y7*%
X153810000Y-96840000D03*
X125984000Y-87020400D03*
%TO.N,IO13{slash}DVP_PCLK*%
X129164567Y-87102167D03*
X150418800Y-96443800D03*
%TO.N,IO14{slash}DVP_Y6*%
X154514600Y-97455000D03*
X124160450Y-87606201D03*
%TO.N,IO15{slash}DVP_Y2*%
X127076200Y-88206000D03*
X150215600Y-97434400D03*
%TO.N,IO16{slash}DVP_Y5*%
X153970000Y-98240000D03*
X129235200Y-88288500D03*
%TO.N,IO17{slash}DVP_Y3*%
X129330301Y-89044545D03*
X150710000Y-98792400D03*
%TO.N,IO18{slash}DVP_Y4*%
X149450000Y-99441000D03*
X128839742Y-90170878D03*
%TO.N,CHIP_EN*%
X133030300Y-85939200D03*
X137591800Y-85725000D03*
%TO.N,BNO_INT*%
X120091200Y-93421200D03*
X125933200Y-81049800D03*
%TO.N,D1{slash}A1*%
X131108400Y-85750400D03*
%TO.N,D0{slash}A0*%
X129592400Y-79324200D03*
%TO.N,GPIO0*%
X131953000Y-85928200D03*
X145592800Y-82753200D03*
%TO.N,BNO_RST*%
X116967000Y-90601800D03*
X124661600Y-83439000D03*
%TO.N,D8{slash}A8{slash}SCK*%
X129641600Y-85750400D03*
%TO.N,D9{slash}A9{slash}MISO*%
X128843704Y-85733896D03*
%TO.N,D10{slash}A10{slash}MOSI*%
X124714000Y-84404200D03*
%TO.N,VDD_SPI*%
X125830000Y-91135200D03*
%TO.N,SPIHD*%
X128357314Y-92410849D03*
%TO.N,SPIWP*%
X134162800Y-94818200D03*
%TO.N,SPICS0*%
X135432900Y-91643200D03*
%TO.N,SPICLK*%
X130149600Y-90576400D03*
%TO.N,SPIQ*%
X132791200Y-90500200D03*
%TO.N,SPID*%
X131445000Y-90754200D03*
%TO.N,GNDPWR*%
X118688700Y-80568800D03*
X117668297Y-83398103D03*
X127345704Y-83494601D03*
X113583130Y-81940400D03*
X119820552Y-83885375D03*
X116890800Y-78536800D03*
%TO.N,GPIO45*%
X136304681Y-88357976D03*
%TO.N,GPIO46*%
X136330000Y-87606000D03*
%TD*%
D17*
%TO.N,GND*%
X135661400Y-95097600D02*
X134872400Y-95097600D01*
X134872400Y-95097600D02*
X132860000Y-97110000D01*
X132860000Y-97110000D02*
X132860000Y-98100000D01*
X135661400Y-95097600D02*
X137857600Y-95097600D01*
X137857600Y-95097600D02*
X138780000Y-96020000D01*
X138780000Y-96020000D02*
X138780000Y-98160000D01*
%TO.N,+1V8*%
X154635200Y-100939600D02*
X121662504Y-100939600D01*
X121662504Y-100939600D02*
X120700800Y-99977896D01*
X154990800Y-93192600D02*
X155651200Y-93853000D01*
X155651200Y-99923600D02*
X154635200Y-100939600D01*
X120700800Y-99977896D02*
X120700800Y-94411800D01*
X153847800Y-93192600D02*
X154990800Y-93192600D01*
X155651200Y-93853000D02*
X155651200Y-99923600D01*
%TO.N,IO21{slash}USER_LED*%
X120700800Y-101971368D02*
X114301600Y-95572168D01*
X114301600Y-88140768D02*
X119560568Y-82881800D01*
X120700800Y-104013000D02*
X120700800Y-101971368D01*
X119560568Y-82881800D02*
X124918800Y-82881800D01*
X125830000Y-83793000D02*
X125830000Y-85308799D01*
X124918800Y-82881800D02*
X125830000Y-83793000D01*
X114301600Y-95572168D02*
X114301600Y-88140768D01*
%TO.N,IO47{slash}DVP_HREF*%
X150342600Y-92456000D02*
X150342600Y-93141800D01*
X149346600Y-91460000D02*
X150342600Y-92456000D01*
X131987500Y-92597090D02*
X140800000Y-92597090D01*
X141937090Y-91460000D02*
X149346600Y-91460000D01*
X140800000Y-92597090D02*
X141937090Y-91460000D01*
%TO.N,IO48{slash}DVP_Y9*%
X142915723Y-94565800D02*
X143748400Y-94565800D01*
X150284600Y-94800000D02*
X150520400Y-94564200D01*
X131054076Y-93090708D02*
X131461684Y-93498316D01*
X131054076Y-92574211D02*
X131054076Y-93090708D01*
X147237277Y-94520600D02*
X147516677Y-94800000D01*
X131461684Y-93498316D02*
X141848239Y-93498316D01*
X141848239Y-93498316D02*
X142915723Y-94565800D01*
X143748400Y-94565800D02*
X143793600Y-94520600D01*
X147516677Y-94800000D02*
X150284600Y-94800000D01*
X143793600Y-94520600D02*
X147237277Y-94520600D01*
%TO.N,IO12{slash}DVP_Y7*%
X125272800Y-87731600D02*
X125984000Y-87020400D01*
X129184400Y-91719400D02*
X127381000Y-91719400D01*
X131546600Y-94081600D02*
X129184400Y-91719400D01*
X137845800Y-94081600D02*
X131546600Y-94081600D01*
X151713600Y-98070000D02*
X149593600Y-98070000D01*
X153810000Y-96840000D02*
X152943600Y-96840000D01*
X140690600Y-96926400D02*
X137845800Y-94081600D01*
X148450000Y-96926400D02*
X140690600Y-96926400D01*
X152943600Y-96840000D02*
X151713600Y-98070000D01*
X149593600Y-98070000D02*
X148450000Y-96926400D01*
X125272800Y-89611200D02*
X125272800Y-87731600D01*
X127381000Y-91719400D02*
X125272800Y-89611200D01*
%TO.N,CHIP_EN*%
X133219099Y-85750401D02*
X137566399Y-85750401D01*
X137566399Y-85750401D02*
X137591800Y-85725000D01*
X133030300Y-85939200D02*
X133219099Y-85750401D01*
%TO.N,D8{slash}A8{slash}SCK*%
X126800000Y-102492200D02*
X122716736Y-102492200D01*
X122716736Y-102492200D02*
X116364600Y-96140064D01*
X125245804Y-86286296D02*
X129105704Y-86286296D01*
X128320800Y-104013000D02*
X126800000Y-102492200D01*
X129105704Y-86286296D02*
X129641600Y-85750400D01*
X116364600Y-89610136D02*
X121153613Y-84821123D01*
X123780631Y-84821123D02*
X125245804Y-86286296D01*
X116364600Y-96140064D02*
X116364600Y-89610136D01*
X121153613Y-84821123D02*
X123780631Y-84821123D01*
%TO.N,D9{slash}A9{slash}MISO*%
X127490518Y-85733896D02*
X127363215Y-85861199D01*
X115920784Y-96194616D02*
X122570768Y-102844600D01*
X115920784Y-89555584D02*
X115920784Y-96194616D01*
X128843704Y-85733896D02*
X127490518Y-85733896D01*
X124612400Y-102844600D02*
X125780800Y-104013000D01*
X122570768Y-102844600D02*
X124612400Y-102844600D01*
X123926600Y-84468723D02*
X123926600Y-84429600D01*
X123926600Y-84429600D02*
X121046768Y-84429600D01*
X121046768Y-84429600D02*
X115920784Y-89555584D01*
X125319076Y-85861199D02*
X123926600Y-84468723D01*
X127363215Y-85861199D02*
X125319076Y-85861199D01*
%TO.N,D10{slash}A10{slash}MOSI*%
X115544600Y-96316800D02*
X123240800Y-104013000D01*
X124383800Y-84074000D02*
X120904000Y-84074000D01*
X115544600Y-89433400D02*
X115544600Y-96316800D01*
X120904000Y-84074000D02*
X115544600Y-89433400D01*
X124714000Y-84404200D02*
X124383800Y-84074000D01*
%TO.N,GPIO45*%
X136982024Y-88357976D02*
X136304681Y-88357976D01*
X115620800Y-99152568D02*
X112217200Y-95748968D01*
X112217200Y-95748968D02*
X112217200Y-91371800D01*
X137023600Y-87053600D02*
X137280000Y-87310000D01*
X131290768Y-87053600D02*
X137023600Y-87053600D01*
X137280000Y-88060000D02*
X136982024Y-88357976D01*
X130551200Y-86314032D02*
X131290768Y-87053600D01*
X127273569Y-82096000D02*
X130551200Y-85373631D01*
X113596800Y-87848831D02*
X117044800Y-84400831D01*
X117344800Y-82096000D02*
X127273569Y-82096000D01*
X136306705Y-88360000D02*
X136304681Y-88357976D01*
X137280000Y-87310000D02*
X137280000Y-88060000D01*
X113596800Y-89992200D02*
X113596800Y-87848831D01*
X115620800Y-104013000D02*
X115620800Y-99152568D01*
X112217200Y-91371800D02*
X113596800Y-89992200D01*
X130551200Y-85373631D02*
X130551200Y-86314032D01*
X117044800Y-82396000D02*
X117344800Y-82096000D01*
X117044800Y-84400831D02*
X117044800Y-82396000D01*
%TO.N,GPIO46*%
X113949200Y-87994800D02*
X113949200Y-96982600D01*
X131144800Y-87406000D02*
X130198800Y-86460000D01*
X130198800Y-86460000D02*
X130198800Y-85519600D01*
X136330000Y-87606000D02*
X136130000Y-87406000D01*
X136130000Y-87406000D02*
X131144800Y-87406000D01*
X118160800Y-101194200D02*
X118160800Y-104013000D01*
X119495600Y-82448400D02*
X113949200Y-87994800D01*
X127127600Y-82448400D02*
X119495600Y-82448400D01*
X130198800Y-85519600D02*
X127127600Y-82448400D01*
X113949200Y-96982600D02*
X118160800Y-101194200D01*
%TD*%
M02*
