G04 #@! TF.GenerationSoftware,KiCad,Pcbnew,7.0.7*
G04 #@! TF.CreationDate,2024-10-22T14:05:41-07:00*
G04 #@! TF.ProjectId,ESP_POE_1.4a,4553505f-504f-4455-9f31-2e34612e6b69,K*
G04 #@! TF.SameCoordinates,Original*
G04 #@! TF.FileFunction,Legend,Top*
G04 #@! TF.FilePolarity,Positive*
%FSLAX46Y46*%
G04 Gerber Fmt 4.6, Leading zero omitted, Abs format (unit mm)*
G04 Created by KiCad (PCBNEW 7.0.7) date 2024-10-22 14:05:41*
%MOMM*%
%LPD*%
G01*
G04 APERTURE LIST*
%ADD10C,0.190500*%
%ADD11C,0.100000*%
%ADD12C,0.254000*%
%ADD13C,0.127000*%
%ADD14C,0.150000*%
%ADD15C,0.050000*%
%ADD16C,0.152400*%
%ADD17C,0.200000*%
%ADD18C,0.508000*%
G04 APERTURE END LIST*
D10*
X104714838Y-155963256D02*
X104751124Y-155999542D01*
X104751124Y-155999542D02*
X104787409Y-156108399D01*
X104787409Y-156108399D02*
X104787409Y-156180971D01*
X104787409Y-156180971D02*
X104751124Y-156289828D01*
X104751124Y-156289828D02*
X104678552Y-156362399D01*
X104678552Y-156362399D02*
X104605981Y-156398685D01*
X104605981Y-156398685D02*
X104460838Y-156434971D01*
X104460838Y-156434971D02*
X104351981Y-156434971D01*
X104351981Y-156434971D02*
X104206838Y-156398685D01*
X104206838Y-156398685D02*
X104134266Y-156362399D01*
X104134266Y-156362399D02*
X104061695Y-156289828D01*
X104061695Y-156289828D02*
X104025409Y-156180971D01*
X104025409Y-156180971D02*
X104025409Y-156108399D01*
X104025409Y-156108399D02*
X104061695Y-155999542D01*
X104061695Y-155999542D02*
X104097981Y-155963256D01*
X104787409Y-155237542D02*
X104787409Y-155672971D01*
X104787409Y-155455256D02*
X104025409Y-155455256D01*
X104025409Y-155455256D02*
X104134266Y-155527828D01*
X104134266Y-155527828D02*
X104206838Y-155600399D01*
X104206838Y-155600399D02*
X104243124Y-155672971D01*
X104787409Y-154511828D02*
X104787409Y-154947257D01*
X104787409Y-154729542D02*
X104025409Y-154729542D01*
X104025409Y-154729542D02*
X104134266Y-154802114D01*
X104134266Y-154802114D02*
X104206838Y-154874685D01*
X104206838Y-154874685D02*
X104243124Y-154947257D01*
X102583343Y-153403009D02*
X102329343Y-153040152D01*
X102147914Y-153403009D02*
X102147914Y-152641009D01*
X102147914Y-152641009D02*
X102438200Y-152641009D01*
X102438200Y-152641009D02*
X102510771Y-152677295D01*
X102510771Y-152677295D02*
X102547057Y-152713581D01*
X102547057Y-152713581D02*
X102583343Y-152786152D01*
X102583343Y-152786152D02*
X102583343Y-152895009D01*
X102583343Y-152895009D02*
X102547057Y-152967581D01*
X102547057Y-152967581D02*
X102510771Y-153003866D01*
X102510771Y-153003866D02*
X102438200Y-153040152D01*
X102438200Y-153040152D02*
X102147914Y-153040152D01*
X103309057Y-153403009D02*
X102873628Y-153403009D01*
X103091343Y-153403009D02*
X103091343Y-152641009D01*
X103091343Y-152641009D02*
X103018771Y-152749866D01*
X103018771Y-152749866D02*
X102946200Y-152822438D01*
X102946200Y-152822438D02*
X102873628Y-152858724D01*
X103962200Y-152895009D02*
X103962200Y-153403009D01*
X103780771Y-152604724D02*
X103599342Y-153149009D01*
X103599342Y-153149009D02*
X104071057Y-153149009D01*
X105117609Y-153840542D02*
X105117609Y-154203399D01*
X105117609Y-154203399D02*
X104355609Y-154203399D01*
X105117609Y-153586542D02*
X104355609Y-153586542D01*
X104355609Y-153586542D02*
X105117609Y-153151113D01*
X105117609Y-153151113D02*
X104355609Y-153151113D01*
X105117609Y-152788256D02*
X104355609Y-152788256D01*
X105117609Y-152352827D02*
X104682181Y-152679399D01*
X104355609Y-152352827D02*
X104791038Y-152788256D01*
X105117609Y-151627113D02*
X105117609Y-152062542D01*
X105117609Y-151844827D02*
X104355609Y-151844827D01*
X104355609Y-151844827D02*
X104464466Y-151917399D01*
X104464466Y-151917399D02*
X104537038Y-151989970D01*
X104537038Y-151989970D02*
X104573324Y-152062542D01*
X104412143Y-150228009D02*
X104158143Y-149865152D01*
X103976714Y-150228009D02*
X103976714Y-149466009D01*
X103976714Y-149466009D02*
X104267000Y-149466009D01*
X104267000Y-149466009D02*
X104339571Y-149502295D01*
X104339571Y-149502295D02*
X104375857Y-149538581D01*
X104375857Y-149538581D02*
X104412143Y-149611152D01*
X104412143Y-149611152D02*
X104412143Y-149720009D01*
X104412143Y-149720009D02*
X104375857Y-149792581D01*
X104375857Y-149792581D02*
X104339571Y-149828866D01*
X104339571Y-149828866D02*
X104267000Y-149865152D01*
X104267000Y-149865152D02*
X103976714Y-149865152D01*
X105137857Y-150228009D02*
X104702428Y-150228009D01*
X104920143Y-150228009D02*
X104920143Y-149466009D01*
X104920143Y-149466009D02*
X104847571Y-149574866D01*
X104847571Y-149574866D02*
X104775000Y-149647438D01*
X104775000Y-149647438D02*
X104702428Y-149683724D01*
X105827285Y-149466009D02*
X105464428Y-149466009D01*
X105464428Y-149466009D02*
X105428142Y-149828866D01*
X105428142Y-149828866D02*
X105464428Y-149792581D01*
X105464428Y-149792581D02*
X105537000Y-149756295D01*
X105537000Y-149756295D02*
X105718428Y-149756295D01*
X105718428Y-149756295D02*
X105791000Y-149792581D01*
X105791000Y-149792581D02*
X105827285Y-149828866D01*
X105827285Y-149828866D02*
X105863571Y-149901438D01*
X105863571Y-149901438D02*
X105863571Y-150082866D01*
X105863571Y-150082866D02*
X105827285Y-150155438D01*
X105827285Y-150155438D02*
X105791000Y-150191724D01*
X105791000Y-150191724D02*
X105718428Y-150228009D01*
X105718428Y-150228009D02*
X105537000Y-150228009D01*
X105537000Y-150228009D02*
X105464428Y-150191724D01*
X105464428Y-150191724D02*
X105428142Y-150155438D01*
X104518895Y-148433971D02*
X104518895Y-148071114D01*
X104736609Y-148506542D02*
X103974609Y-148252542D01*
X103974609Y-148252542D02*
X104736609Y-147998542D01*
X104664038Y-147309113D02*
X104700324Y-147345399D01*
X104700324Y-147345399D02*
X104736609Y-147454256D01*
X104736609Y-147454256D02*
X104736609Y-147526828D01*
X104736609Y-147526828D02*
X104700324Y-147635685D01*
X104700324Y-147635685D02*
X104627752Y-147708256D01*
X104627752Y-147708256D02*
X104555181Y-147744542D01*
X104555181Y-147744542D02*
X104410038Y-147780828D01*
X104410038Y-147780828D02*
X104301181Y-147780828D01*
X104301181Y-147780828D02*
X104156038Y-147744542D01*
X104156038Y-147744542D02*
X104083466Y-147708256D01*
X104083466Y-147708256D02*
X104010895Y-147635685D01*
X104010895Y-147635685D02*
X103974609Y-147526828D01*
X103974609Y-147526828D02*
X103974609Y-147454256D01*
X103974609Y-147454256D02*
X104010895Y-147345399D01*
X104010895Y-147345399D02*
X104047181Y-147309113D01*
X103974609Y-147091399D02*
X103974609Y-146655971D01*
X104736609Y-146873685D02*
X103974609Y-146873685D01*
X104736609Y-146002828D02*
X104736609Y-146438257D01*
X104736609Y-146220542D02*
X103974609Y-146220542D01*
X103974609Y-146220542D02*
X104083466Y-146293114D01*
X104083466Y-146293114D02*
X104156038Y-146365685D01*
X104156038Y-146365685D02*
X104192324Y-146438257D01*
X109825971Y-157949609D02*
X109825971Y-157187609D01*
X109825971Y-157187609D02*
X110007400Y-157187609D01*
X110007400Y-157187609D02*
X110116257Y-157223895D01*
X110116257Y-157223895D02*
X110188828Y-157296466D01*
X110188828Y-157296466D02*
X110225114Y-157369038D01*
X110225114Y-157369038D02*
X110261400Y-157514181D01*
X110261400Y-157514181D02*
X110261400Y-157623038D01*
X110261400Y-157623038D02*
X110225114Y-157768181D01*
X110225114Y-157768181D02*
X110188828Y-157840752D01*
X110188828Y-157840752D02*
X110116257Y-157913324D01*
X110116257Y-157913324D02*
X110007400Y-157949609D01*
X110007400Y-157949609D02*
X109825971Y-157949609D01*
X111023400Y-157877038D02*
X110987114Y-157913324D01*
X110987114Y-157913324D02*
X110878257Y-157949609D01*
X110878257Y-157949609D02*
X110805685Y-157949609D01*
X110805685Y-157949609D02*
X110696828Y-157913324D01*
X110696828Y-157913324D02*
X110624257Y-157840752D01*
X110624257Y-157840752D02*
X110587971Y-157768181D01*
X110587971Y-157768181D02*
X110551685Y-157623038D01*
X110551685Y-157623038D02*
X110551685Y-157514181D01*
X110551685Y-157514181D02*
X110587971Y-157369038D01*
X110587971Y-157369038D02*
X110624257Y-157296466D01*
X110624257Y-157296466D02*
X110696828Y-157223895D01*
X110696828Y-157223895D02*
X110805685Y-157187609D01*
X110805685Y-157187609D02*
X110878257Y-157187609D01*
X110878257Y-157187609D02*
X110987114Y-157223895D01*
X110987114Y-157223895D02*
X111023400Y-157260181D01*
X111349971Y-157949609D02*
X111349971Y-157187609D01*
X111349971Y-157187609D02*
X111531400Y-157187609D01*
X111531400Y-157187609D02*
X111640257Y-157223895D01*
X111640257Y-157223895D02*
X111712828Y-157296466D01*
X111712828Y-157296466D02*
X111749114Y-157369038D01*
X111749114Y-157369038D02*
X111785400Y-157514181D01*
X111785400Y-157514181D02*
X111785400Y-157623038D01*
X111785400Y-157623038D02*
X111749114Y-157768181D01*
X111749114Y-157768181D02*
X111712828Y-157840752D01*
X111712828Y-157840752D02*
X111640257Y-157913324D01*
X111640257Y-157913324D02*
X111531400Y-157949609D01*
X111531400Y-157949609D02*
X111349971Y-157949609D01*
X112547400Y-157877038D02*
X112511114Y-157913324D01*
X112511114Y-157913324D02*
X112402257Y-157949609D01*
X112402257Y-157949609D02*
X112329685Y-157949609D01*
X112329685Y-157949609D02*
X112220828Y-157913324D01*
X112220828Y-157913324D02*
X112148257Y-157840752D01*
X112148257Y-157840752D02*
X112111971Y-157768181D01*
X112111971Y-157768181D02*
X112075685Y-157623038D01*
X112075685Y-157623038D02*
X112075685Y-157514181D01*
X112075685Y-157514181D02*
X112111971Y-157369038D01*
X112111971Y-157369038D02*
X112148257Y-157296466D01*
X112148257Y-157296466D02*
X112220828Y-157223895D01*
X112220828Y-157223895D02*
X112329685Y-157187609D01*
X112329685Y-157187609D02*
X112402257Y-157187609D01*
X112402257Y-157187609D02*
X112511114Y-157223895D01*
X112511114Y-157223895D02*
X112547400Y-157260181D01*
X113273114Y-157949609D02*
X112837685Y-157949609D01*
X113055400Y-157949609D02*
X113055400Y-157187609D01*
X113055400Y-157187609D02*
X112982828Y-157296466D01*
X112982828Y-157296466D02*
X112910257Y-157369038D01*
X112910257Y-157369038D02*
X112837685Y-157405324D01*
D11*
X105517961Y-155437903D02*
X105517961Y-155247427D01*
X105632247Y-155475998D02*
X105232247Y-155342665D01*
X105232247Y-155342665D02*
X105632247Y-155209332D01*
X105632247Y-155075998D02*
X105232247Y-155075998D01*
X105232247Y-155075998D02*
X105517961Y-154942665D01*
X105517961Y-154942665D02*
X105232247Y-154809332D01*
X105232247Y-154809332D02*
X105632247Y-154809332D01*
X105632247Y-154409332D02*
X105632247Y-154637903D01*
X105632247Y-154523617D02*
X105232247Y-154523617D01*
X105232247Y-154523617D02*
X105289390Y-154561713D01*
X105289390Y-154561713D02*
X105327485Y-154599808D01*
X105327485Y-154599808D02*
X105346533Y-154637903D01*
X105632247Y-154237903D02*
X105232247Y-154237903D01*
X105232247Y-154237903D02*
X105232247Y-154142665D01*
X105232247Y-154142665D02*
X105251295Y-154085522D01*
X105251295Y-154085522D02*
X105289390Y-154047427D01*
X105289390Y-154047427D02*
X105327485Y-154028380D01*
X105327485Y-154028380D02*
X105403676Y-154009332D01*
X105403676Y-154009332D02*
X105460819Y-154009332D01*
X105460819Y-154009332D02*
X105537009Y-154028380D01*
X105537009Y-154028380D02*
X105575104Y-154047427D01*
X105575104Y-154047427D02*
X105613200Y-154085522D01*
X105613200Y-154085522D02*
X105632247Y-154142665D01*
X105632247Y-154142665D02*
X105632247Y-154237903D01*
X105479866Y-153837903D02*
X105479866Y-153533142D01*
X105232247Y-153266475D02*
X105232247Y-153228380D01*
X105232247Y-153228380D02*
X105251295Y-153190284D01*
X105251295Y-153190284D02*
X105270342Y-153171237D01*
X105270342Y-153171237D02*
X105308438Y-153152189D01*
X105308438Y-153152189D02*
X105384628Y-153133142D01*
X105384628Y-153133142D02*
X105479866Y-153133142D01*
X105479866Y-153133142D02*
X105556057Y-153152189D01*
X105556057Y-153152189D02*
X105594152Y-153171237D01*
X105594152Y-153171237D02*
X105613200Y-153190284D01*
X105613200Y-153190284D02*
X105632247Y-153228380D01*
X105632247Y-153228380D02*
X105632247Y-153266475D01*
X105632247Y-153266475D02*
X105613200Y-153304570D01*
X105613200Y-153304570D02*
X105594152Y-153323618D01*
X105594152Y-153323618D02*
X105556057Y-153342665D01*
X105556057Y-153342665D02*
X105479866Y-153361713D01*
X105479866Y-153361713D02*
X105384628Y-153361713D01*
X105384628Y-153361713D02*
X105308438Y-153342665D01*
X105308438Y-153342665D02*
X105270342Y-153323618D01*
X105270342Y-153323618D02*
X105251295Y-153304570D01*
X105251295Y-153304570D02*
X105232247Y-153266475D01*
X105232247Y-152771237D02*
X105232247Y-152961713D01*
X105232247Y-152961713D02*
X105422723Y-152980761D01*
X105422723Y-152980761D02*
X105403676Y-152961713D01*
X105403676Y-152961713D02*
X105384628Y-152923618D01*
X105384628Y-152923618D02*
X105384628Y-152828380D01*
X105384628Y-152828380D02*
X105403676Y-152790285D01*
X105403676Y-152790285D02*
X105422723Y-152771237D01*
X105422723Y-152771237D02*
X105460819Y-152752190D01*
X105460819Y-152752190D02*
X105556057Y-152752190D01*
X105556057Y-152752190D02*
X105594152Y-152771237D01*
X105594152Y-152771237D02*
X105613200Y-152790285D01*
X105613200Y-152790285D02*
X105632247Y-152828380D01*
X105632247Y-152828380D02*
X105632247Y-152923618D01*
X105632247Y-152923618D02*
X105613200Y-152961713D01*
X105613200Y-152961713D02*
X105594152Y-152980761D01*
X105232247Y-152504571D02*
X105232247Y-152466476D01*
X105232247Y-152466476D02*
X105251295Y-152428380D01*
X105251295Y-152428380D02*
X105270342Y-152409333D01*
X105270342Y-152409333D02*
X105308438Y-152390285D01*
X105308438Y-152390285D02*
X105384628Y-152371238D01*
X105384628Y-152371238D02*
X105479866Y-152371238D01*
X105479866Y-152371238D02*
X105556057Y-152390285D01*
X105556057Y-152390285D02*
X105594152Y-152409333D01*
X105594152Y-152409333D02*
X105613200Y-152428380D01*
X105613200Y-152428380D02*
X105632247Y-152466476D01*
X105632247Y-152466476D02*
X105632247Y-152504571D01*
X105632247Y-152504571D02*
X105613200Y-152542666D01*
X105613200Y-152542666D02*
X105594152Y-152561714D01*
X105594152Y-152561714D02*
X105556057Y-152580761D01*
X105556057Y-152580761D02*
X105479866Y-152599809D01*
X105479866Y-152599809D02*
X105384628Y-152599809D01*
X105384628Y-152599809D02*
X105308438Y-152580761D01*
X105308438Y-152580761D02*
X105270342Y-152561714D01*
X105270342Y-152561714D02*
X105251295Y-152542666D01*
X105251295Y-152542666D02*
X105232247Y-152504571D01*
X105232247Y-152009333D02*
X105232247Y-152199809D01*
X105232247Y-152199809D02*
X105422723Y-152218857D01*
X105422723Y-152218857D02*
X105403676Y-152199809D01*
X105403676Y-152199809D02*
X105384628Y-152161714D01*
X105384628Y-152161714D02*
X105384628Y-152066476D01*
X105384628Y-152066476D02*
X105403676Y-152028381D01*
X105403676Y-152028381D02*
X105422723Y-152009333D01*
X105422723Y-152009333D02*
X105460819Y-151990286D01*
X105460819Y-151990286D02*
X105556057Y-151990286D01*
X105556057Y-151990286D02*
X105594152Y-152009333D01*
X105594152Y-152009333D02*
X105613200Y-152028381D01*
X105613200Y-152028381D02*
X105632247Y-152066476D01*
X105632247Y-152066476D02*
X105632247Y-152161714D01*
X105632247Y-152161714D02*
X105613200Y-152199809D01*
X105613200Y-152199809D02*
X105594152Y-152218857D01*
X105613200Y-151837905D02*
X105632247Y-151780762D01*
X105632247Y-151780762D02*
X105632247Y-151685524D01*
X105632247Y-151685524D02*
X105613200Y-151647429D01*
X105613200Y-151647429D02*
X105594152Y-151628381D01*
X105594152Y-151628381D02*
X105556057Y-151609334D01*
X105556057Y-151609334D02*
X105517961Y-151609334D01*
X105517961Y-151609334D02*
X105479866Y-151628381D01*
X105479866Y-151628381D02*
X105460819Y-151647429D01*
X105460819Y-151647429D02*
X105441771Y-151685524D01*
X105441771Y-151685524D02*
X105422723Y-151761715D01*
X105422723Y-151761715D02*
X105403676Y-151799810D01*
X105403676Y-151799810D02*
X105384628Y-151818857D01*
X105384628Y-151818857D02*
X105346533Y-151837905D01*
X105346533Y-151837905D02*
X105308438Y-151837905D01*
X105308438Y-151837905D02*
X105270342Y-151818857D01*
X105270342Y-151818857D02*
X105251295Y-151799810D01*
X105251295Y-151799810D02*
X105232247Y-151761715D01*
X105232247Y-151761715D02*
X105232247Y-151666476D01*
X105232247Y-151666476D02*
X105251295Y-151609334D01*
X105479866Y-151437905D02*
X105479866Y-151133144D01*
X105632247Y-150942667D02*
X105232247Y-150942667D01*
X105232247Y-150942667D02*
X105632247Y-150714096D01*
X105632247Y-150714096D02*
X105232247Y-150714096D01*
X105232247Y-150561715D02*
X105232247Y-150295048D01*
X105232247Y-150295048D02*
X105632247Y-150561715D01*
X105632247Y-150561715D02*
X105632247Y-150295048D01*
X105517961Y-155437903D02*
X105517961Y-155247427D01*
X105632247Y-155475998D02*
X105232247Y-155342665D01*
X105232247Y-155342665D02*
X105632247Y-155209332D01*
X105632247Y-155075998D02*
X105232247Y-155075998D01*
X105232247Y-155075998D02*
X105517961Y-154942665D01*
X105517961Y-154942665D02*
X105232247Y-154809332D01*
X105232247Y-154809332D02*
X105632247Y-154809332D01*
X105632247Y-154409332D02*
X105632247Y-154637903D01*
X105632247Y-154523617D02*
X105232247Y-154523617D01*
X105232247Y-154523617D02*
X105289390Y-154561713D01*
X105289390Y-154561713D02*
X105327485Y-154599808D01*
X105327485Y-154599808D02*
X105346533Y-154637903D01*
X105632247Y-154237903D02*
X105232247Y-154237903D01*
X105232247Y-154237903D02*
X105232247Y-154142665D01*
X105232247Y-154142665D02*
X105251295Y-154085522D01*
X105251295Y-154085522D02*
X105289390Y-154047427D01*
X105289390Y-154047427D02*
X105327485Y-154028380D01*
X105327485Y-154028380D02*
X105403676Y-154009332D01*
X105403676Y-154009332D02*
X105460819Y-154009332D01*
X105460819Y-154009332D02*
X105537009Y-154028380D01*
X105537009Y-154028380D02*
X105575104Y-154047427D01*
X105575104Y-154047427D02*
X105613200Y-154085522D01*
X105613200Y-154085522D02*
X105632247Y-154142665D01*
X105632247Y-154142665D02*
X105632247Y-154237903D01*
X105479866Y-153837903D02*
X105479866Y-153533142D01*
X105232247Y-153266475D02*
X105232247Y-153228380D01*
X105232247Y-153228380D02*
X105251295Y-153190284D01*
X105251295Y-153190284D02*
X105270342Y-153171237D01*
X105270342Y-153171237D02*
X105308438Y-153152189D01*
X105308438Y-153152189D02*
X105384628Y-153133142D01*
X105384628Y-153133142D02*
X105479866Y-153133142D01*
X105479866Y-153133142D02*
X105556057Y-153152189D01*
X105556057Y-153152189D02*
X105594152Y-153171237D01*
X105594152Y-153171237D02*
X105613200Y-153190284D01*
X105613200Y-153190284D02*
X105632247Y-153228380D01*
X105632247Y-153228380D02*
X105632247Y-153266475D01*
X105632247Y-153266475D02*
X105613200Y-153304570D01*
X105613200Y-153304570D02*
X105594152Y-153323618D01*
X105594152Y-153323618D02*
X105556057Y-153342665D01*
X105556057Y-153342665D02*
X105479866Y-153361713D01*
X105479866Y-153361713D02*
X105384628Y-153361713D01*
X105384628Y-153361713D02*
X105308438Y-153342665D01*
X105308438Y-153342665D02*
X105270342Y-153323618D01*
X105270342Y-153323618D02*
X105251295Y-153304570D01*
X105251295Y-153304570D02*
X105232247Y-153266475D01*
X105232247Y-152771237D02*
X105232247Y-152961713D01*
X105232247Y-152961713D02*
X105422723Y-152980761D01*
X105422723Y-152980761D02*
X105403676Y-152961713D01*
X105403676Y-152961713D02*
X105384628Y-152923618D01*
X105384628Y-152923618D02*
X105384628Y-152828380D01*
X105384628Y-152828380D02*
X105403676Y-152790285D01*
X105403676Y-152790285D02*
X105422723Y-152771237D01*
X105422723Y-152771237D02*
X105460819Y-152752190D01*
X105460819Y-152752190D02*
X105556057Y-152752190D01*
X105556057Y-152752190D02*
X105594152Y-152771237D01*
X105594152Y-152771237D02*
X105613200Y-152790285D01*
X105613200Y-152790285D02*
X105632247Y-152828380D01*
X105632247Y-152828380D02*
X105632247Y-152923618D01*
X105632247Y-152923618D02*
X105613200Y-152961713D01*
X105613200Y-152961713D02*
X105594152Y-152980761D01*
X105232247Y-152504571D02*
X105232247Y-152466476D01*
X105232247Y-152466476D02*
X105251295Y-152428380D01*
X105251295Y-152428380D02*
X105270342Y-152409333D01*
X105270342Y-152409333D02*
X105308438Y-152390285D01*
X105308438Y-152390285D02*
X105384628Y-152371238D01*
X105384628Y-152371238D02*
X105479866Y-152371238D01*
X105479866Y-152371238D02*
X105556057Y-152390285D01*
X105556057Y-152390285D02*
X105594152Y-152409333D01*
X105594152Y-152409333D02*
X105613200Y-152428380D01*
X105613200Y-152428380D02*
X105632247Y-152466476D01*
X105632247Y-152466476D02*
X105632247Y-152504571D01*
X105632247Y-152504571D02*
X105613200Y-152542666D01*
X105613200Y-152542666D02*
X105594152Y-152561714D01*
X105594152Y-152561714D02*
X105556057Y-152580761D01*
X105556057Y-152580761D02*
X105479866Y-152599809D01*
X105479866Y-152599809D02*
X105384628Y-152599809D01*
X105384628Y-152599809D02*
X105308438Y-152580761D01*
X105308438Y-152580761D02*
X105270342Y-152561714D01*
X105270342Y-152561714D02*
X105251295Y-152542666D01*
X105251295Y-152542666D02*
X105232247Y-152504571D01*
X105232247Y-152009333D02*
X105232247Y-152199809D01*
X105232247Y-152199809D02*
X105422723Y-152218857D01*
X105422723Y-152218857D02*
X105403676Y-152199809D01*
X105403676Y-152199809D02*
X105384628Y-152161714D01*
X105384628Y-152161714D02*
X105384628Y-152066476D01*
X105384628Y-152066476D02*
X105403676Y-152028381D01*
X105403676Y-152028381D02*
X105422723Y-152009333D01*
X105422723Y-152009333D02*
X105460819Y-151990286D01*
X105460819Y-151990286D02*
X105556057Y-151990286D01*
X105556057Y-151990286D02*
X105594152Y-152009333D01*
X105594152Y-152009333D02*
X105613200Y-152028381D01*
X105613200Y-152028381D02*
X105632247Y-152066476D01*
X105632247Y-152066476D02*
X105632247Y-152161714D01*
X105632247Y-152161714D02*
X105613200Y-152199809D01*
X105613200Y-152199809D02*
X105594152Y-152218857D01*
X105613200Y-151837905D02*
X105632247Y-151780762D01*
X105632247Y-151780762D02*
X105632247Y-151685524D01*
X105632247Y-151685524D02*
X105613200Y-151647429D01*
X105613200Y-151647429D02*
X105594152Y-151628381D01*
X105594152Y-151628381D02*
X105556057Y-151609334D01*
X105556057Y-151609334D02*
X105517961Y-151609334D01*
X105517961Y-151609334D02*
X105479866Y-151628381D01*
X105479866Y-151628381D02*
X105460819Y-151647429D01*
X105460819Y-151647429D02*
X105441771Y-151685524D01*
X105441771Y-151685524D02*
X105422723Y-151761715D01*
X105422723Y-151761715D02*
X105403676Y-151799810D01*
X105403676Y-151799810D02*
X105384628Y-151818857D01*
X105384628Y-151818857D02*
X105346533Y-151837905D01*
X105346533Y-151837905D02*
X105308438Y-151837905D01*
X105308438Y-151837905D02*
X105270342Y-151818857D01*
X105270342Y-151818857D02*
X105251295Y-151799810D01*
X105251295Y-151799810D02*
X105232247Y-151761715D01*
X105232247Y-151761715D02*
X105232247Y-151666476D01*
X105232247Y-151666476D02*
X105251295Y-151609334D01*
X105479866Y-151437905D02*
X105479866Y-151133144D01*
X105632247Y-150942667D02*
X105232247Y-150942667D01*
X105232247Y-150942667D02*
X105632247Y-150714096D01*
X105632247Y-150714096D02*
X105232247Y-150714096D01*
X105232247Y-150561715D02*
X105232247Y-150295048D01*
X105232247Y-150295048D02*
X105632247Y-150561715D01*
X105632247Y-150561715D02*
X105632247Y-150295048D01*
D12*
X117294780Y-152085318D02*
X116690018Y-152085318D01*
X116690018Y-152085318D02*
X116629542Y-152690080D01*
X116629542Y-152690080D02*
X116690018Y-152629603D01*
X116690018Y-152629603D02*
X116810971Y-152569127D01*
X116810971Y-152569127D02*
X117113352Y-152569127D01*
X117113352Y-152569127D02*
X117234304Y-152629603D01*
X117234304Y-152629603D02*
X117294780Y-152690080D01*
X117294780Y-152690080D02*
X117355257Y-152811032D01*
X117355257Y-152811032D02*
X117355257Y-153113413D01*
X117355257Y-153113413D02*
X117294780Y-153234365D01*
X117294780Y-153234365D02*
X117234304Y-153294842D01*
X117234304Y-153294842D02*
X117113352Y-153355318D01*
X117113352Y-153355318D02*
X116810971Y-153355318D01*
X116810971Y-153355318D02*
X116690018Y-153294842D01*
X116690018Y-153294842D02*
X116629542Y-153234365D01*
D13*
X111337874Y-156338311D02*
X111168541Y-156338311D01*
X111168541Y-156604406D02*
X111168541Y-156096406D01*
X111168541Y-156096406D02*
X111410446Y-156096406D01*
X111700732Y-156096406D02*
X111749113Y-156096406D01*
X111749113Y-156096406D02*
X111797494Y-156120596D01*
X111797494Y-156120596D02*
X111821684Y-156144787D01*
X111821684Y-156144787D02*
X111845875Y-156193168D01*
X111845875Y-156193168D02*
X111870065Y-156289930D01*
X111870065Y-156289930D02*
X111870065Y-156410882D01*
X111870065Y-156410882D02*
X111845875Y-156507644D01*
X111845875Y-156507644D02*
X111821684Y-156556025D01*
X111821684Y-156556025D02*
X111797494Y-156580216D01*
X111797494Y-156580216D02*
X111749113Y-156604406D01*
X111749113Y-156604406D02*
X111700732Y-156604406D01*
X111700732Y-156604406D02*
X111652351Y-156580216D01*
X111652351Y-156580216D02*
X111628160Y-156556025D01*
X111628160Y-156556025D02*
X111603970Y-156507644D01*
X111603970Y-156507644D02*
X111579779Y-156410882D01*
X111579779Y-156410882D02*
X111579779Y-156289930D01*
X111579779Y-156289930D02*
X111603970Y-156193168D01*
X111603970Y-156193168D02*
X111628160Y-156144787D01*
X111628160Y-156144787D02*
X111652351Y-156120596D01*
X111652351Y-156120596D02*
X111700732Y-156096406D01*
X112329685Y-156096406D02*
X112087780Y-156096406D01*
X112087780Y-156096406D02*
X112063589Y-156338311D01*
X112063589Y-156338311D02*
X112087780Y-156314120D01*
X112087780Y-156314120D02*
X112136161Y-156289930D01*
X112136161Y-156289930D02*
X112257113Y-156289930D01*
X112257113Y-156289930D02*
X112305494Y-156314120D01*
X112305494Y-156314120D02*
X112329685Y-156338311D01*
X112329685Y-156338311D02*
X112353875Y-156386692D01*
X112353875Y-156386692D02*
X112353875Y-156507644D01*
X112353875Y-156507644D02*
X112329685Y-156556025D01*
X112329685Y-156556025D02*
X112305494Y-156580216D01*
X112305494Y-156580216D02*
X112257113Y-156604406D01*
X112257113Y-156604406D02*
X112136161Y-156604406D01*
X112136161Y-156604406D02*
X112087780Y-156580216D01*
X112087780Y-156580216D02*
X112063589Y-156556025D01*
X112668352Y-156096406D02*
X112716733Y-156096406D01*
X112716733Y-156096406D02*
X112765114Y-156120596D01*
X112765114Y-156120596D02*
X112789304Y-156144787D01*
X112789304Y-156144787D02*
X112813495Y-156193168D01*
X112813495Y-156193168D02*
X112837685Y-156289930D01*
X112837685Y-156289930D02*
X112837685Y-156410882D01*
X112837685Y-156410882D02*
X112813495Y-156507644D01*
X112813495Y-156507644D02*
X112789304Y-156556025D01*
X112789304Y-156556025D02*
X112765114Y-156580216D01*
X112765114Y-156580216D02*
X112716733Y-156604406D01*
X112716733Y-156604406D02*
X112668352Y-156604406D01*
X112668352Y-156604406D02*
X112619971Y-156580216D01*
X112619971Y-156580216D02*
X112595780Y-156556025D01*
X112595780Y-156556025D02*
X112571590Y-156507644D01*
X112571590Y-156507644D02*
X112547399Y-156410882D01*
X112547399Y-156410882D02*
X112547399Y-156289930D01*
X112547399Y-156289930D02*
X112571590Y-156193168D01*
X112571590Y-156193168D02*
X112595780Y-156144787D01*
X112595780Y-156144787D02*
X112619971Y-156120596D01*
X112619971Y-156120596D02*
X112668352Y-156096406D01*
X113297305Y-156096406D02*
X113055400Y-156096406D01*
X113055400Y-156096406D02*
X113031209Y-156338311D01*
X113031209Y-156338311D02*
X113055400Y-156314120D01*
X113055400Y-156314120D02*
X113103781Y-156289930D01*
X113103781Y-156289930D02*
X113224733Y-156289930D01*
X113224733Y-156289930D02*
X113273114Y-156314120D01*
X113273114Y-156314120D02*
X113297305Y-156338311D01*
X113297305Y-156338311D02*
X113321495Y-156386692D01*
X113321495Y-156386692D02*
X113321495Y-156507644D01*
X113321495Y-156507644D02*
X113297305Y-156556025D01*
X113297305Y-156556025D02*
X113273114Y-156580216D01*
X113273114Y-156580216D02*
X113224733Y-156604406D01*
X113224733Y-156604406D02*
X113103781Y-156604406D01*
X113103781Y-156604406D02*
X113055400Y-156580216D01*
X113055400Y-156580216D02*
X113031209Y-156556025D01*
X113515019Y-156580216D02*
X113587591Y-156604406D01*
X113587591Y-156604406D02*
X113708543Y-156604406D01*
X113708543Y-156604406D02*
X113756924Y-156580216D01*
X113756924Y-156580216D02*
X113781115Y-156556025D01*
X113781115Y-156556025D02*
X113805305Y-156507644D01*
X113805305Y-156507644D02*
X113805305Y-156459263D01*
X113805305Y-156459263D02*
X113781115Y-156410882D01*
X113781115Y-156410882D02*
X113756924Y-156386692D01*
X113756924Y-156386692D02*
X113708543Y-156362501D01*
X113708543Y-156362501D02*
X113611781Y-156338311D01*
X113611781Y-156338311D02*
X113563400Y-156314120D01*
X113563400Y-156314120D02*
X113539210Y-156289930D01*
X113539210Y-156289930D02*
X113515019Y-156241549D01*
X113515019Y-156241549D02*
X113515019Y-156193168D01*
X113515019Y-156193168D02*
X113539210Y-156144787D01*
X113539210Y-156144787D02*
X113563400Y-156120596D01*
X113563400Y-156120596D02*
X113611781Y-156096406D01*
X113611781Y-156096406D02*
X113732734Y-156096406D01*
X113732734Y-156096406D02*
X113805305Y-156120596D01*
X114023020Y-156410882D02*
X114410068Y-156410882D01*
X114627781Y-156144787D02*
X114651972Y-156120596D01*
X114651972Y-156120596D02*
X114700353Y-156096406D01*
X114700353Y-156096406D02*
X114821305Y-156096406D01*
X114821305Y-156096406D02*
X114869686Y-156120596D01*
X114869686Y-156120596D02*
X114893877Y-156144787D01*
X114893877Y-156144787D02*
X114918067Y-156193168D01*
X114918067Y-156193168D02*
X114918067Y-156241549D01*
X114918067Y-156241549D02*
X114893877Y-156314120D01*
X114893877Y-156314120D02*
X114603591Y-156604406D01*
X114603591Y-156604406D02*
X114918067Y-156604406D01*
X115087401Y-156096406D02*
X115208353Y-156604406D01*
X115208353Y-156604406D02*
X115305115Y-156241549D01*
X115305115Y-156241549D02*
X115401877Y-156604406D01*
X115401877Y-156604406D02*
X115522830Y-156096406D01*
X116006639Y-156604406D02*
X115837305Y-156362501D01*
X115716353Y-156604406D02*
X115716353Y-156096406D01*
X115716353Y-156096406D02*
X115909877Y-156096406D01*
X115909877Y-156096406D02*
X115958258Y-156120596D01*
X115958258Y-156120596D02*
X115982448Y-156144787D01*
X115982448Y-156144787D02*
X116006639Y-156193168D01*
X116006639Y-156193168D02*
X116006639Y-156265739D01*
X116006639Y-156265739D02*
X115982448Y-156314120D01*
X115982448Y-156314120D02*
X115958258Y-156338311D01*
X115958258Y-156338311D02*
X115909877Y-156362501D01*
X115909877Y-156362501D02*
X115716353Y-156362501D01*
X116200162Y-156144787D02*
X116224353Y-156120596D01*
X116224353Y-156120596D02*
X116272734Y-156096406D01*
X116272734Y-156096406D02*
X116393686Y-156096406D01*
X116393686Y-156096406D02*
X116442067Y-156120596D01*
X116442067Y-156120596D02*
X116466258Y-156144787D01*
X116466258Y-156144787D02*
X116490448Y-156193168D01*
X116490448Y-156193168D02*
X116490448Y-156241549D01*
X116490448Y-156241549D02*
X116466258Y-156314120D01*
X116466258Y-156314120D02*
X116175972Y-156604406D01*
X116175972Y-156604406D02*
X116490448Y-156604406D01*
D12*
X121649066Y-152085318D02*
X122495733Y-152085318D01*
X122495733Y-152085318D02*
X121951447Y-153355318D01*
X107195257Y-153355318D02*
X106469542Y-153355318D01*
X106832399Y-153355318D02*
X106832399Y-152085318D01*
X106832399Y-152085318D02*
X106711447Y-152266746D01*
X106711447Y-152266746D02*
X106590495Y-152387699D01*
X106590495Y-152387699D02*
X106469542Y-152448175D01*
X106892876Y-155199842D02*
X107074305Y-155260318D01*
X107074305Y-155260318D02*
X107376686Y-155260318D01*
X107376686Y-155260318D02*
X107497638Y-155199842D01*
X107497638Y-155199842D02*
X107558114Y-155139365D01*
X107558114Y-155139365D02*
X107618591Y-155018413D01*
X107618591Y-155018413D02*
X107618591Y-154897461D01*
X107618591Y-154897461D02*
X107558114Y-154776508D01*
X107558114Y-154776508D02*
X107497638Y-154716032D01*
X107497638Y-154716032D02*
X107376686Y-154655556D01*
X107376686Y-154655556D02*
X107134781Y-154595080D01*
X107134781Y-154595080D02*
X107013829Y-154534603D01*
X107013829Y-154534603D02*
X106953352Y-154474127D01*
X106953352Y-154474127D02*
X106892876Y-154353175D01*
X106892876Y-154353175D02*
X106892876Y-154232222D01*
X106892876Y-154232222D02*
X106953352Y-154111270D01*
X106953352Y-154111270D02*
X107013829Y-154050794D01*
X107013829Y-154050794D02*
X107134781Y-153990318D01*
X107134781Y-153990318D02*
X107437162Y-153990318D01*
X107437162Y-153990318D02*
X107618591Y-154050794D01*
X108162876Y-155260318D02*
X108162876Y-153990318D01*
X108767638Y-155260318D02*
X108767638Y-153990318D01*
X108767638Y-153990318D02*
X109251448Y-153990318D01*
X109251448Y-153990318D02*
X109372400Y-154050794D01*
X109372400Y-154050794D02*
X109432877Y-154111270D01*
X109432877Y-154111270D02*
X109493353Y-154232222D01*
X109493353Y-154232222D02*
X109493353Y-154413651D01*
X109493353Y-154413651D02*
X109432877Y-154534603D01*
X109432877Y-154534603D02*
X109372400Y-154595080D01*
X109372400Y-154595080D02*
X109251448Y-154655556D01*
X109251448Y-154655556D02*
X108767638Y-154655556D01*
X110037638Y-154776508D02*
X111005258Y-154776508D01*
X111489067Y-153990318D02*
X112335734Y-153990318D01*
X112335734Y-153990318D02*
X111791448Y-155260318D01*
X112517163Y-155381270D02*
X113484782Y-155381270D01*
X113787162Y-153990318D02*
X113787162Y-155018413D01*
X113787162Y-155018413D02*
X113847639Y-155139365D01*
X113847639Y-155139365D02*
X113908115Y-155199842D01*
X113908115Y-155199842D02*
X114029067Y-155260318D01*
X114029067Y-155260318D02*
X114270972Y-155260318D01*
X114270972Y-155260318D02*
X114391924Y-155199842D01*
X114391924Y-155199842D02*
X114452401Y-155139365D01*
X114452401Y-155139365D02*
X114512877Y-155018413D01*
X114512877Y-155018413D02*
X114512877Y-153990318D01*
X115117638Y-154413651D02*
X115117638Y-155260318D01*
X115117638Y-154534603D02*
X115178115Y-154474127D01*
X115178115Y-154474127D02*
X115299067Y-154413651D01*
X115299067Y-154413651D02*
X115480496Y-154413651D01*
X115480496Y-154413651D02*
X115601448Y-154474127D01*
X115601448Y-154474127D02*
X115661924Y-154595080D01*
X115661924Y-154595080D02*
X115661924Y-155260318D01*
X116266686Y-155260318D02*
X116266686Y-154413651D01*
X116266686Y-153990318D02*
X116206210Y-154050794D01*
X116206210Y-154050794D02*
X116266686Y-154111270D01*
X116266686Y-154111270D02*
X116327163Y-154050794D01*
X116327163Y-154050794D02*
X116266686Y-153990318D01*
X116266686Y-153990318D02*
X116266686Y-154111270D01*
X116750496Y-154413651D02*
X117052877Y-155260318D01*
X117052877Y-155260318D02*
X117355258Y-154413651D01*
X118322877Y-155199842D02*
X118201925Y-155260318D01*
X118201925Y-155260318D02*
X117960020Y-155260318D01*
X117960020Y-155260318D02*
X117839067Y-155199842D01*
X117839067Y-155199842D02*
X117778591Y-155078889D01*
X117778591Y-155078889D02*
X117778591Y-154595080D01*
X117778591Y-154595080D02*
X117839067Y-154474127D01*
X117839067Y-154474127D02*
X117960020Y-154413651D01*
X117960020Y-154413651D02*
X118201925Y-154413651D01*
X118201925Y-154413651D02*
X118322877Y-154474127D01*
X118322877Y-154474127D02*
X118383353Y-154595080D01*
X118383353Y-154595080D02*
X118383353Y-154716032D01*
X118383353Y-154716032D02*
X117778591Y-154836984D01*
X118927638Y-155260318D02*
X118927638Y-154413651D01*
X118927638Y-154655556D02*
X118988115Y-154534603D01*
X118988115Y-154534603D02*
X119048591Y-154474127D01*
X119048591Y-154474127D02*
X119169543Y-154413651D01*
X119169543Y-154413651D02*
X119290496Y-154413651D01*
X119653352Y-155199842D02*
X119774305Y-155260318D01*
X119774305Y-155260318D02*
X120016209Y-155260318D01*
X120016209Y-155260318D02*
X120137162Y-155199842D01*
X120137162Y-155199842D02*
X120197638Y-155078889D01*
X120197638Y-155078889D02*
X120197638Y-155018413D01*
X120197638Y-155018413D02*
X120137162Y-154897461D01*
X120137162Y-154897461D02*
X120016209Y-154836984D01*
X120016209Y-154836984D02*
X119834781Y-154836984D01*
X119834781Y-154836984D02*
X119713828Y-154776508D01*
X119713828Y-154776508D02*
X119653352Y-154655556D01*
X119653352Y-154655556D02*
X119653352Y-154595080D01*
X119653352Y-154595080D02*
X119713828Y-154474127D01*
X119713828Y-154474127D02*
X119834781Y-154413651D01*
X119834781Y-154413651D02*
X120016209Y-154413651D01*
X120016209Y-154413651D02*
X120137162Y-154474127D01*
X121286209Y-155260318D02*
X121286209Y-154595080D01*
X121286209Y-154595080D02*
X121225733Y-154474127D01*
X121225733Y-154474127D02*
X121104781Y-154413651D01*
X121104781Y-154413651D02*
X120862876Y-154413651D01*
X120862876Y-154413651D02*
X120741923Y-154474127D01*
X121286209Y-155199842D02*
X121165257Y-155260318D01*
X121165257Y-155260318D02*
X120862876Y-155260318D01*
X120862876Y-155260318D02*
X120741923Y-155199842D01*
X120741923Y-155199842D02*
X120681447Y-155078889D01*
X120681447Y-155078889D02*
X120681447Y-154957937D01*
X120681447Y-154957937D02*
X120741923Y-154836984D01*
X120741923Y-154836984D02*
X120862876Y-154776508D01*
X120862876Y-154776508D02*
X121165257Y-154776508D01*
X121165257Y-154776508D02*
X121286209Y-154716032D01*
X122072400Y-155260318D02*
X121951448Y-155199842D01*
X121951448Y-155199842D02*
X121890971Y-155078889D01*
X121890971Y-155078889D02*
X121890971Y-153990318D01*
X119774304Y-152085318D02*
X119532399Y-152085318D01*
X119532399Y-152085318D02*
X119411447Y-152145794D01*
X119411447Y-152145794D02*
X119350971Y-152206270D01*
X119350971Y-152206270D02*
X119230018Y-152387699D01*
X119230018Y-152387699D02*
X119169542Y-152629603D01*
X119169542Y-152629603D02*
X119169542Y-153113413D01*
X119169542Y-153113413D02*
X119230018Y-153234365D01*
X119230018Y-153234365D02*
X119290495Y-153294842D01*
X119290495Y-153294842D02*
X119411447Y-153355318D01*
X119411447Y-153355318D02*
X119653352Y-153355318D01*
X119653352Y-153355318D02*
X119774304Y-153294842D01*
X119774304Y-153294842D02*
X119834780Y-153234365D01*
X119834780Y-153234365D02*
X119895257Y-153113413D01*
X119895257Y-153113413D02*
X119895257Y-152811032D01*
X119895257Y-152811032D02*
X119834780Y-152690080D01*
X119834780Y-152690080D02*
X119774304Y-152629603D01*
X119774304Y-152629603D02*
X119653352Y-152569127D01*
X119653352Y-152569127D02*
X119411447Y-152569127D01*
X119411447Y-152569127D02*
X119290495Y-152629603D01*
X119290495Y-152629603D02*
X119230018Y-152690080D01*
X119230018Y-152690080D02*
X119169542Y-152811032D01*
X114694304Y-152508651D02*
X114694304Y-153355318D01*
X114391923Y-152024842D02*
X114089542Y-152931984D01*
X114089542Y-152931984D02*
X114875733Y-152931984D01*
X109009542Y-152206270D02*
X109070018Y-152145794D01*
X109070018Y-152145794D02*
X109190971Y-152085318D01*
X109190971Y-152085318D02*
X109493352Y-152085318D01*
X109493352Y-152085318D02*
X109614304Y-152145794D01*
X109614304Y-152145794D02*
X109674780Y-152206270D01*
X109674780Y-152206270D02*
X109735257Y-152327222D01*
X109735257Y-152327222D02*
X109735257Y-152448175D01*
X109735257Y-152448175D02*
X109674780Y-152629603D01*
X109674780Y-152629603D02*
X108949066Y-153355318D01*
X108949066Y-153355318D02*
X109735257Y-153355318D01*
X95260578Y-129586537D02*
X95208165Y-129542556D01*
X95208165Y-129542556D02*
X95147318Y-129402183D01*
X95147318Y-129402183D02*
X95138885Y-129305789D01*
X95138885Y-129305789D02*
X95174431Y-129156982D01*
X95174431Y-129156982D02*
X95262392Y-129052155D01*
X95262392Y-129052155D02*
X95354569Y-128995524D01*
X95354569Y-128995524D02*
X95543140Y-128930461D01*
X95543140Y-128930461D02*
X95687730Y-128917811D01*
X95687730Y-128917811D02*
X95884734Y-128949141D01*
X95884734Y-128949141D02*
X95985345Y-128988904D01*
X95985345Y-128988904D02*
X96090172Y-129076865D01*
X96090172Y-129076865D02*
X96151018Y-129217239D01*
X96151018Y-129217239D02*
X96159452Y-129313632D01*
X96159452Y-129313632D02*
X96123905Y-129462440D01*
X96123905Y-129462440D02*
X96079925Y-129514853D01*
X96113658Y-129900428D02*
X96166072Y-129944408D01*
X96166072Y-129944408D02*
X96222702Y-130036585D01*
X96222702Y-130036585D02*
X96243785Y-130277569D01*
X96243785Y-130277569D02*
X96204022Y-130378180D01*
X96204022Y-130378180D02*
X96160042Y-130430593D01*
X96160042Y-130430593D02*
X96067865Y-130487223D01*
X96067865Y-130487223D02*
X95971471Y-130495657D01*
X95971471Y-130495657D02*
X95822664Y-130460110D01*
X95822664Y-130460110D02*
X95193701Y-129932348D01*
X95193701Y-129932348D02*
X95248518Y-130558907D01*
X96290169Y-130807735D02*
X96349202Y-131482490D01*
X96349202Y-131482490D02*
X95299118Y-131137269D01*
X101385908Y-130654807D02*
X102007881Y-129913567D01*
X102067514Y-130595174D02*
X101326275Y-129973200D01*
X103128163Y-129961505D02*
X103750136Y-129220265D01*
X103809769Y-129901872D02*
X103068530Y-129279898D01*
D10*
X103558009Y-135513599D02*
X103558009Y-135078171D01*
X104320009Y-135295885D02*
X103558009Y-135295885D01*
X103558009Y-134933028D02*
X104320009Y-134679028D01*
X104320009Y-134679028D02*
X103558009Y-134425028D01*
X104283724Y-134207314D02*
X104320009Y-134098457D01*
X104320009Y-134098457D02*
X104320009Y-133917028D01*
X104320009Y-133917028D02*
X104283724Y-133844457D01*
X104283724Y-133844457D02*
X104247438Y-133808171D01*
X104247438Y-133808171D02*
X104174866Y-133771885D01*
X104174866Y-133771885D02*
X104102295Y-133771885D01*
X104102295Y-133771885D02*
X104029724Y-133808171D01*
X104029724Y-133808171D02*
X103993438Y-133844457D01*
X103993438Y-133844457D02*
X103957152Y-133917028D01*
X103957152Y-133917028D02*
X103920866Y-134062171D01*
X103920866Y-134062171D02*
X103884581Y-134134742D01*
X103884581Y-134134742D02*
X103848295Y-134171028D01*
X103848295Y-134171028D02*
X103775724Y-134207314D01*
X103775724Y-134207314D02*
X103703152Y-134207314D01*
X103703152Y-134207314D02*
X103630581Y-134171028D01*
X103630581Y-134171028D02*
X103594295Y-134134742D01*
X103594295Y-134134742D02*
X103558009Y-134062171D01*
X103558009Y-134062171D02*
X103558009Y-133880742D01*
X103558009Y-133880742D02*
X103594295Y-133771885D01*
X104320009Y-133046171D02*
X104320009Y-133481600D01*
X104320009Y-133263885D02*
X103558009Y-133263885D01*
X103558009Y-133263885D02*
X103666866Y-133336457D01*
X103666866Y-133336457D02*
X103739438Y-133409028D01*
X103739438Y-133409028D02*
X103775724Y-133481600D01*
D12*
X132968612Y-136466942D02*
X132484803Y-136805609D01*
X132968612Y-137047514D02*
X131952612Y-137047514D01*
X131952612Y-137047514D02*
X131952612Y-136660466D01*
X131952612Y-136660466D02*
X132000993Y-136563704D01*
X132000993Y-136563704D02*
X132049374Y-136515323D01*
X132049374Y-136515323D02*
X132146136Y-136466942D01*
X132146136Y-136466942D02*
X132291279Y-136466942D01*
X132291279Y-136466942D02*
X132388041Y-136515323D01*
X132388041Y-136515323D02*
X132436422Y-136563704D01*
X132436422Y-136563704D02*
X132484803Y-136660466D01*
X132484803Y-136660466D02*
X132484803Y-137047514D01*
X132049374Y-136079895D02*
X132000993Y-136031514D01*
X132000993Y-136031514D02*
X131952612Y-135934752D01*
X131952612Y-135934752D02*
X131952612Y-135692847D01*
X131952612Y-135692847D02*
X132000993Y-135596085D01*
X132000993Y-135596085D02*
X132049374Y-135547704D01*
X132049374Y-135547704D02*
X132146136Y-135499323D01*
X132146136Y-135499323D02*
X132242898Y-135499323D01*
X132242898Y-135499323D02*
X132388041Y-135547704D01*
X132388041Y-135547704D02*
X132968612Y-136128276D01*
X132968612Y-136128276D02*
X132968612Y-135499323D01*
X132388041Y-134918752D02*
X132339660Y-135015514D01*
X132339660Y-135015514D02*
X132291279Y-135063895D01*
X132291279Y-135063895D02*
X132194517Y-135112276D01*
X132194517Y-135112276D02*
X132146136Y-135112276D01*
X132146136Y-135112276D02*
X132049374Y-135063895D01*
X132049374Y-135063895D02*
X132000993Y-135015514D01*
X132000993Y-135015514D02*
X131952612Y-134918752D01*
X131952612Y-134918752D02*
X131952612Y-134725228D01*
X131952612Y-134725228D02*
X132000993Y-134628466D01*
X132000993Y-134628466D02*
X132049374Y-134580085D01*
X132049374Y-134580085D02*
X132146136Y-134531704D01*
X132146136Y-134531704D02*
X132194517Y-134531704D01*
X132194517Y-134531704D02*
X132291279Y-134580085D01*
X132291279Y-134580085D02*
X132339660Y-134628466D01*
X132339660Y-134628466D02*
X132388041Y-134725228D01*
X132388041Y-134725228D02*
X132388041Y-134918752D01*
X132388041Y-134918752D02*
X132436422Y-135015514D01*
X132436422Y-135015514D02*
X132484803Y-135063895D01*
X132484803Y-135063895D02*
X132581565Y-135112276D01*
X132581565Y-135112276D02*
X132775089Y-135112276D01*
X132775089Y-135112276D02*
X132871851Y-135063895D01*
X132871851Y-135063895D02*
X132920232Y-135015514D01*
X132920232Y-135015514D02*
X132968612Y-134918752D01*
X132968612Y-134918752D02*
X132968612Y-134725228D01*
X132968612Y-134725228D02*
X132920232Y-134628466D01*
X132920232Y-134628466D02*
X132871851Y-134580085D01*
X132871851Y-134580085D02*
X132775089Y-134531704D01*
X132775089Y-134531704D02*
X132581565Y-134531704D01*
X132581565Y-134531704D02*
X132484803Y-134580085D01*
X132484803Y-134580085D02*
X132436422Y-134628466D01*
X132436422Y-134628466D02*
X132388041Y-134725228D01*
D14*
X114349066Y-154891580D02*
X114825256Y-154891580D01*
X114825256Y-154891580D02*
X114825256Y-155891580D01*
X113587161Y-155558247D02*
X113587161Y-154891580D01*
X113825256Y-155939200D02*
X114063351Y-155224914D01*
X114063351Y-155224914D02*
X113444304Y-155224914D01*
D12*
X100416574Y-141975562D02*
X100349192Y-141963681D01*
X100349192Y-141963681D02*
X100226310Y-141872537D01*
X100226310Y-141872537D02*
X100170810Y-141793274D01*
X100170810Y-141793274D02*
X100127191Y-141646630D01*
X100127191Y-141646630D02*
X100150953Y-141511867D01*
X100150953Y-141511867D02*
X100202466Y-141416735D01*
X100202466Y-141416735D02*
X100333241Y-141266103D01*
X100333241Y-141266103D02*
X100452135Y-141182853D01*
X100452135Y-141182853D02*
X100638411Y-141111483D01*
X100638411Y-141111483D02*
X100745423Y-141095614D01*
X100745423Y-141095614D02*
X100880186Y-141119377D01*
X100880186Y-141119377D02*
X101003068Y-141210521D01*
X101003068Y-141210521D02*
X101058569Y-141289783D01*
X101058569Y-141289783D02*
X101102188Y-141436428D01*
X101102188Y-141436428D02*
X101090307Y-141503809D01*
X101312308Y-141820860D02*
X101379690Y-141832741D01*
X101379690Y-141832741D02*
X101474821Y-141884254D01*
X101474821Y-141884254D02*
X101613572Y-142082410D01*
X101613572Y-142082410D02*
X101629441Y-142189423D01*
X101629441Y-142189423D02*
X101617560Y-142256805D01*
X101617560Y-142256805D02*
X101566047Y-142351937D01*
X101566047Y-142351937D02*
X101486785Y-142407437D01*
X101486785Y-142407437D02*
X101340140Y-142451056D01*
X101340140Y-142451056D02*
X100531562Y-142308482D01*
X100531562Y-142308482D02*
X100892314Y-142823689D01*
X102224076Y-142954300D02*
X102113075Y-142795775D01*
X102113075Y-142795775D02*
X102017944Y-142744262D01*
X102017944Y-142744262D02*
X101950562Y-142732381D01*
X101950562Y-142732381D02*
X101776168Y-142736369D01*
X101776168Y-142736369D02*
X101589892Y-142807738D01*
X101589892Y-142807738D02*
X101272841Y-143029740D01*
X101272841Y-143029740D02*
X101221329Y-143124871D01*
X101221329Y-143124871D02*
X101209447Y-143192253D01*
X101209447Y-143192253D02*
X101225316Y-143299266D01*
X101225316Y-143299266D02*
X101336317Y-143457791D01*
X101336317Y-143457791D02*
X101431449Y-143509304D01*
X101431449Y-143509304D02*
X101498830Y-143521185D01*
X101498830Y-143521185D02*
X101605843Y-143505316D01*
X101605843Y-143505316D02*
X101804000Y-143366565D01*
X101804000Y-143366565D02*
X101855513Y-143271433D01*
X101855513Y-143271433D02*
X101867394Y-143204052D01*
X101867394Y-143204052D02*
X101851525Y-143097039D01*
X101851525Y-143097039D02*
X101740524Y-142938513D01*
X101740524Y-142938513D02*
X101645392Y-142887001D01*
X101645392Y-142887001D02*
X101578011Y-142875120D01*
X101578011Y-142875120D02*
X101470998Y-142890989D01*
X98872167Y-142178417D02*
X99427170Y-142971044D01*
X98753355Y-142852232D02*
X99545982Y-142297229D01*
X98251581Y-143816640D02*
X98806584Y-144609267D01*
X98132769Y-144490455D02*
X98925396Y-143935452D01*
X129598057Y-150956651D02*
X129549676Y-151005032D01*
X129549676Y-151005032D02*
X129404533Y-151053412D01*
X129404533Y-151053412D02*
X129307771Y-151053412D01*
X129307771Y-151053412D02*
X129162628Y-151005032D01*
X129162628Y-151005032D02*
X129065866Y-150908270D01*
X129065866Y-150908270D02*
X129017485Y-150811508D01*
X129017485Y-150811508D02*
X128969104Y-150617984D01*
X128969104Y-150617984D02*
X128969104Y-150472841D01*
X128969104Y-150472841D02*
X129017485Y-150279317D01*
X129017485Y-150279317D02*
X129065866Y-150182555D01*
X129065866Y-150182555D02*
X129162628Y-150085793D01*
X129162628Y-150085793D02*
X129307771Y-150037412D01*
X129307771Y-150037412D02*
X129404533Y-150037412D01*
X129404533Y-150037412D02*
X129549676Y-150085793D01*
X129549676Y-150085793D02*
X129598057Y-150134174D01*
X129985104Y-150134174D02*
X130033485Y-150085793D01*
X130033485Y-150085793D02*
X130130247Y-150037412D01*
X130130247Y-150037412D02*
X130372152Y-150037412D01*
X130372152Y-150037412D02*
X130468914Y-150085793D01*
X130468914Y-150085793D02*
X130517295Y-150134174D01*
X130517295Y-150134174D02*
X130565676Y-150230936D01*
X130565676Y-150230936D02*
X130565676Y-150327698D01*
X130565676Y-150327698D02*
X130517295Y-150472841D01*
X130517295Y-150472841D02*
X129936723Y-151053412D01*
X129936723Y-151053412D02*
X130565676Y-151053412D01*
X131436533Y-150376079D02*
X131436533Y-151053412D01*
X131194628Y-149989032D02*
X130952723Y-150714746D01*
X130952723Y-150714746D02*
X131581676Y-150714746D01*
X133146412Y-144703714D02*
X132130412Y-144703714D01*
X132130412Y-144703714D02*
X132130412Y-144461809D01*
X132130412Y-144461809D02*
X132178793Y-144316666D01*
X132178793Y-144316666D02*
X132275555Y-144219904D01*
X132275555Y-144219904D02*
X132372317Y-144171523D01*
X132372317Y-144171523D02*
X132565841Y-144123142D01*
X132565841Y-144123142D02*
X132710984Y-144123142D01*
X132710984Y-144123142D02*
X132904508Y-144171523D01*
X132904508Y-144171523D02*
X133001270Y-144219904D01*
X133001270Y-144219904D02*
X133098032Y-144316666D01*
X133098032Y-144316666D02*
X133146412Y-144461809D01*
X133146412Y-144461809D02*
X133146412Y-144703714D01*
X133146412Y-143155523D02*
X133146412Y-143736095D01*
X133146412Y-143445809D02*
X132130412Y-143445809D01*
X132130412Y-143445809D02*
X132275555Y-143542571D01*
X132275555Y-143542571D02*
X132372317Y-143639333D01*
X132372317Y-143639333D02*
X132420698Y-143736095D01*
X132130412Y-142526571D02*
X132130412Y-142429809D01*
X132130412Y-142429809D02*
X132178793Y-142333047D01*
X132178793Y-142333047D02*
X132227174Y-142284666D01*
X132227174Y-142284666D02*
X132323936Y-142236285D01*
X132323936Y-142236285D02*
X132517460Y-142187904D01*
X132517460Y-142187904D02*
X132759365Y-142187904D01*
X132759365Y-142187904D02*
X132952889Y-142236285D01*
X132952889Y-142236285D02*
X133049651Y-142284666D01*
X133049651Y-142284666D02*
X133098032Y-142333047D01*
X133098032Y-142333047D02*
X133146412Y-142429809D01*
X133146412Y-142429809D02*
X133146412Y-142526571D01*
X133146412Y-142526571D02*
X133098032Y-142623333D01*
X133098032Y-142623333D02*
X133049651Y-142671714D01*
X133049651Y-142671714D02*
X132952889Y-142720095D01*
X132952889Y-142720095D02*
X132759365Y-142768476D01*
X132759365Y-142768476D02*
X132517460Y-142768476D01*
X132517460Y-142768476D02*
X132323936Y-142720095D01*
X132323936Y-142720095D02*
X132227174Y-142671714D01*
X132227174Y-142671714D02*
X132178793Y-142623333D01*
X132178793Y-142623333D02*
X132130412Y-142526571D01*
D10*
X129659343Y-151193209D02*
X129405343Y-150830352D01*
X129223914Y-151193209D02*
X129223914Y-150431209D01*
X129223914Y-150431209D02*
X129514200Y-150431209D01*
X129514200Y-150431209D02*
X129586771Y-150467495D01*
X129586771Y-150467495D02*
X129623057Y-150503781D01*
X129623057Y-150503781D02*
X129659343Y-150576352D01*
X129659343Y-150576352D02*
X129659343Y-150685209D01*
X129659343Y-150685209D02*
X129623057Y-150757781D01*
X129623057Y-150757781D02*
X129586771Y-150794066D01*
X129586771Y-150794066D02*
X129514200Y-150830352D01*
X129514200Y-150830352D02*
X129223914Y-150830352D01*
X130312486Y-150685209D02*
X130312486Y-151193209D01*
X130131057Y-150394924D02*
X129949628Y-150939209D01*
X129949628Y-150939209D02*
X130421343Y-150939209D01*
X131110771Y-151193209D02*
X130675342Y-151193209D01*
X130893057Y-151193209D02*
X130893057Y-150431209D01*
X130893057Y-150431209D02*
X130820485Y-150540066D01*
X130820485Y-150540066D02*
X130747914Y-150612638D01*
X130747914Y-150612638D02*
X130675342Y-150648924D01*
D14*
X108859266Y-128555819D02*
X108859266Y-129270104D01*
X108859266Y-129270104D02*
X108811647Y-129412961D01*
X108811647Y-129412961D02*
X108716409Y-129508200D01*
X108716409Y-129508200D02*
X108573552Y-129555819D01*
X108573552Y-129555819D02*
X108478314Y-129555819D01*
X109287838Y-128651057D02*
X109335457Y-128603438D01*
X109335457Y-128603438D02*
X109430695Y-128555819D01*
X109430695Y-128555819D02*
X109668790Y-128555819D01*
X109668790Y-128555819D02*
X109764028Y-128603438D01*
X109764028Y-128603438D02*
X109811647Y-128651057D01*
X109811647Y-128651057D02*
X109859266Y-128746295D01*
X109859266Y-128746295D02*
X109859266Y-128841533D01*
X109859266Y-128841533D02*
X109811647Y-128984390D01*
X109811647Y-128984390D02*
X109240219Y-129555819D01*
X109240219Y-129555819D02*
X109859266Y-129555819D01*
X110099819Y-157689133D02*
X110814104Y-157689133D01*
X110814104Y-157689133D02*
X110956961Y-157736752D01*
X110956961Y-157736752D02*
X111052200Y-157831990D01*
X111052200Y-157831990D02*
X111099819Y-157974847D01*
X111099819Y-157974847D02*
X111099819Y-158070085D01*
X110099819Y-157308180D02*
X110099819Y-156689133D01*
X110099819Y-156689133D02*
X110480771Y-157022466D01*
X110480771Y-157022466D02*
X110480771Y-156879609D01*
X110480771Y-156879609D02*
X110528390Y-156784371D01*
X110528390Y-156784371D02*
X110576009Y-156736752D01*
X110576009Y-156736752D02*
X110671247Y-156689133D01*
X110671247Y-156689133D02*
X110909342Y-156689133D01*
X110909342Y-156689133D02*
X111004580Y-156736752D01*
X111004580Y-156736752D02*
X111052200Y-156784371D01*
X111052200Y-156784371D02*
X111099819Y-156879609D01*
X111099819Y-156879609D02*
X111099819Y-157165323D01*
X111099819Y-157165323D02*
X111052200Y-157260561D01*
X111052200Y-157260561D02*
X111004580Y-157308180D01*
X98653695Y-146860819D02*
X98653695Y-145860819D01*
X98653695Y-146337009D02*
X99225123Y-146337009D01*
X99225123Y-146860819D02*
X99225123Y-145860819D01*
X99653695Y-145956057D02*
X99701314Y-145908438D01*
X99701314Y-145908438D02*
X99796552Y-145860819D01*
X99796552Y-145860819D02*
X100034647Y-145860819D01*
X100034647Y-145860819D02*
X100129885Y-145908438D01*
X100129885Y-145908438D02*
X100177504Y-145956057D01*
X100177504Y-145956057D02*
X100225123Y-146051295D01*
X100225123Y-146051295D02*
X100225123Y-146146533D01*
X100225123Y-146146533D02*
X100177504Y-146289390D01*
X100177504Y-146289390D02*
X99606076Y-146860819D01*
X99606076Y-146860819D02*
X100225123Y-146860819D01*
X125877771Y-152343709D02*
X125544438Y-152343709D01*
X125544438Y-152867519D02*
X125544438Y-151867519D01*
X125544438Y-151867519D02*
X126020628Y-151867519D01*
X126401581Y-152867519D02*
X126401581Y-151867519D01*
X126877771Y-152867519D02*
X126877771Y-151867519D01*
X126877771Y-151867519D02*
X127115866Y-151867519D01*
X127115866Y-151867519D02*
X127258723Y-151915138D01*
X127258723Y-151915138D02*
X127353961Y-152010376D01*
X127353961Y-152010376D02*
X127401580Y-152105614D01*
X127401580Y-152105614D02*
X127449199Y-152296090D01*
X127449199Y-152296090D02*
X127449199Y-152438947D01*
X127449199Y-152438947D02*
X127401580Y-152629423D01*
X127401580Y-152629423D02*
X127353961Y-152724661D01*
X127353961Y-152724661D02*
X127258723Y-152819900D01*
X127258723Y-152819900D02*
X127115866Y-152867519D01*
X127115866Y-152867519D02*
X126877771Y-152867519D01*
X127782533Y-151867519D02*
X128401580Y-151867519D01*
X128401580Y-151867519D02*
X128068247Y-152248471D01*
X128068247Y-152248471D02*
X128211104Y-152248471D01*
X128211104Y-152248471D02*
X128306342Y-152296090D01*
X128306342Y-152296090D02*
X128353961Y-152343709D01*
X128353961Y-152343709D02*
X128401580Y-152438947D01*
X128401580Y-152438947D02*
X128401580Y-152677042D01*
X128401580Y-152677042D02*
X128353961Y-152772280D01*
X128353961Y-152772280D02*
X128306342Y-152819900D01*
X128306342Y-152819900D02*
X128211104Y-152867519D01*
X128211104Y-152867519D02*
X127925390Y-152867519D01*
X127925390Y-152867519D02*
X127830152Y-152819900D01*
X127830152Y-152819900D02*
X127782533Y-152772280D01*
X125464219Y-141125533D02*
X126178504Y-141125533D01*
X126178504Y-141125533D02*
X126321361Y-141173152D01*
X126321361Y-141173152D02*
X126416600Y-141268390D01*
X126416600Y-141268390D02*
X126464219Y-141411247D01*
X126464219Y-141411247D02*
X126464219Y-141506485D01*
X125464219Y-140220771D02*
X125464219Y-140411247D01*
X125464219Y-140411247D02*
X125511838Y-140506485D01*
X125511838Y-140506485D02*
X125559457Y-140554104D01*
X125559457Y-140554104D02*
X125702314Y-140649342D01*
X125702314Y-140649342D02*
X125892790Y-140696961D01*
X125892790Y-140696961D02*
X126273742Y-140696961D01*
X126273742Y-140696961D02*
X126368980Y-140649342D01*
X126368980Y-140649342D02*
X126416600Y-140601723D01*
X126416600Y-140601723D02*
X126464219Y-140506485D01*
X126464219Y-140506485D02*
X126464219Y-140316009D01*
X126464219Y-140316009D02*
X126416600Y-140220771D01*
X126416600Y-140220771D02*
X126368980Y-140173152D01*
X126368980Y-140173152D02*
X126273742Y-140125533D01*
X126273742Y-140125533D02*
X126035647Y-140125533D01*
X126035647Y-140125533D02*
X125940409Y-140173152D01*
X125940409Y-140173152D02*
X125892790Y-140220771D01*
X125892790Y-140220771D02*
X125845171Y-140316009D01*
X125845171Y-140316009D02*
X125845171Y-140506485D01*
X125845171Y-140506485D02*
X125892790Y-140601723D01*
X125892790Y-140601723D02*
X125940409Y-140649342D01*
X125940409Y-140649342D02*
X126035647Y-140696961D01*
X127355695Y-127607619D02*
X127355695Y-126607619D01*
X127355695Y-127083809D02*
X127927123Y-127083809D01*
X127927123Y-127607619D02*
X127927123Y-126607619D01*
X128927123Y-127607619D02*
X128355695Y-127607619D01*
X128641409Y-127607619D02*
X128641409Y-126607619D01*
X128641409Y-126607619D02*
X128546171Y-126750476D01*
X128546171Y-126750476D02*
X128450933Y-126845714D01*
X128450933Y-126845714D02*
X128355695Y-126893333D01*
X102306571Y-124657709D02*
X101973238Y-124657709D01*
X101973238Y-125181519D02*
X101973238Y-124181519D01*
X101973238Y-124181519D02*
X102449428Y-124181519D01*
X102830381Y-125181519D02*
X102830381Y-124181519D01*
X103306571Y-125181519D02*
X103306571Y-124181519D01*
X103306571Y-124181519D02*
X103544666Y-124181519D01*
X103544666Y-124181519D02*
X103687523Y-124229138D01*
X103687523Y-124229138D02*
X103782761Y-124324376D01*
X103782761Y-124324376D02*
X103830380Y-124419614D01*
X103830380Y-124419614D02*
X103877999Y-124610090D01*
X103877999Y-124610090D02*
X103877999Y-124752947D01*
X103877999Y-124752947D02*
X103830380Y-124943423D01*
X103830380Y-124943423D02*
X103782761Y-125038661D01*
X103782761Y-125038661D02*
X103687523Y-125133900D01*
X103687523Y-125133900D02*
X103544666Y-125181519D01*
X103544666Y-125181519D02*
X103306571Y-125181519D01*
X104782761Y-124181519D02*
X104306571Y-124181519D01*
X104306571Y-124181519D02*
X104258952Y-124657709D01*
X104258952Y-124657709D02*
X104306571Y-124610090D01*
X104306571Y-124610090D02*
X104401809Y-124562471D01*
X104401809Y-124562471D02*
X104639904Y-124562471D01*
X104639904Y-124562471D02*
X104735142Y-124610090D01*
X104735142Y-124610090D02*
X104782761Y-124657709D01*
X104782761Y-124657709D02*
X104830380Y-124752947D01*
X104830380Y-124752947D02*
X104830380Y-124991042D01*
X104830380Y-124991042D02*
X104782761Y-125086280D01*
X104782761Y-125086280D02*
X104735142Y-125133900D01*
X104735142Y-125133900D02*
X104639904Y-125181519D01*
X104639904Y-125181519D02*
X104401809Y-125181519D01*
X104401809Y-125181519D02*
X104306571Y-125133900D01*
X104306571Y-125133900D02*
X104258952Y-125086280D01*
D12*
X105143300Y-153314400D02*
X105143300Y-153060400D01*
X105143300Y-153314400D02*
X105143300Y-153568400D01*
X104254300Y-153314400D02*
X104254300Y-153060400D01*
X104254300Y-153314400D02*
X104254300Y-153568400D01*
X101739700Y-153060400D02*
X101739700Y-152806400D01*
X101739700Y-153060400D02*
X101739700Y-153314400D01*
X100850700Y-153060400D02*
X100850700Y-152806400D01*
X100850700Y-153060400D02*
X100850700Y-153314400D01*
X103568500Y-154495500D02*
X102743000Y-154495500D01*
X102603300Y-154343100D02*
X102730300Y-154482800D01*
X103695500Y-154343100D02*
X103568500Y-154495500D01*
D13*
X102539800Y-154330400D02*
X102539800Y-153314400D01*
D12*
X102641400Y-154330400D02*
X103682800Y-154330400D01*
D13*
X103759000Y-153314400D02*
X103759000Y-154330400D01*
D15*
X102878400Y-153111200D02*
X102768400Y-152981200D01*
D11*
X103234000Y-153033400D02*
X103014000Y-153033400D01*
D15*
X102769400Y-152979600D02*
X102779400Y-153059600D01*
X102769400Y-152979600D02*
X102849400Y-152979600D01*
X102899400Y-152904200D02*
X102789400Y-152774200D01*
D11*
X103014000Y-152843400D02*
X103114000Y-152943400D01*
X103234000Y-152843400D02*
X103134000Y-152953400D01*
X103234000Y-152843400D02*
X103014000Y-152843400D01*
D15*
X102769400Y-152764200D02*
X102779400Y-152844200D01*
X102769400Y-152764200D02*
X102849400Y-152764200D01*
D11*
X103124000Y-152673400D02*
X103124000Y-153193400D01*
D12*
X103568500Y-150012400D02*
X103568500Y-149758400D01*
X103568500Y-150012400D02*
X103568500Y-150266400D01*
X102679500Y-150012400D02*
X102679500Y-149758400D01*
X102679500Y-150012400D02*
X102679500Y-150266400D01*
X103568500Y-148780500D02*
X102743000Y-148780500D01*
X102603300Y-148628100D02*
X102730300Y-148767800D01*
X103695500Y-148628100D02*
X103568500Y-148780500D01*
D13*
X102539800Y-148615400D02*
X102539800Y-147599400D01*
D12*
X102641400Y-148615400D02*
X103682800Y-148615400D01*
D13*
X103759000Y-147599400D02*
X103759000Y-148615400D01*
D15*
X102878400Y-147396200D02*
X102768400Y-147266200D01*
D11*
X103234000Y-147318400D02*
X103014000Y-147318400D01*
D15*
X102769400Y-147264600D02*
X102779400Y-147344600D01*
X102769400Y-147264600D02*
X102849400Y-147264600D01*
X102899400Y-147189200D02*
X102789400Y-147059200D01*
D11*
X103014000Y-147128400D02*
X103114000Y-147228400D01*
X103234000Y-147128400D02*
X103134000Y-147238400D01*
X103234000Y-147128400D02*
X103014000Y-147128400D01*
D15*
X102769400Y-147049200D02*
X102779400Y-147129200D01*
X102769400Y-147049200D02*
X102849400Y-147049200D01*
D11*
X103124000Y-146958400D02*
X103124000Y-147478400D01*
D12*
X104702400Y-149876000D02*
X124202400Y-149876000D01*
X104702400Y-155876000D02*
X104702400Y-149876000D01*
X104702400Y-155876000D02*
X104702400Y-156876000D01*
X104702400Y-155876000D02*
X124202400Y-155876000D01*
X104702400Y-156876000D02*
X124202400Y-156876000D01*
X124202400Y-149876000D02*
X124202400Y-155876000D01*
X124202400Y-156876000D02*
X124202400Y-155876000D01*
X102715136Y-130040356D02*
G75*
G03*
X102715136Y-130040356I-3087021J0D01*
G01*
X103215400Y-133684800D02*
X103215400Y-134815100D01*
X100408700Y-133684800D02*
X100408700Y-134815100D01*
X129209800Y-135051800D02*
X129209800Y-136575800D01*
X131495800Y-135051800D02*
X131495800Y-136575800D01*
D16*
X120710200Y-161874200D02*
X120710200Y-158293281D01*
X120710200Y-152399519D02*
X120710200Y-148818600D01*
X120710200Y-148818600D02*
X107654600Y-148818600D01*
X107654600Y-161874200D02*
X120710200Y-161874200D01*
X107654600Y-158293281D02*
X107654600Y-161874200D01*
X107654600Y-148818600D02*
X107654600Y-152399519D01*
D12*
X101125250Y-146143660D02*
G75*
G03*
X101125250Y-146143660I-3087021J0D01*
G01*
X127838200Y-152247600D02*
X126822200Y-152247600D01*
X127838200Y-150723600D02*
X126822200Y-150723600D01*
X129053600Y-139446000D02*
X129053600Y-144446000D01*
X131753600Y-140816000D02*
X129053600Y-140816000D01*
X131753600Y-141256000D02*
X129053600Y-141256000D01*
X131753600Y-144446000D02*
X131753600Y-139446000D01*
X125323200Y-149783600D02*
X129387200Y-149783600D01*
X125323200Y-146583600D02*
X129387200Y-146583600D01*
D13*
X106017600Y-131746000D02*
X106017600Y-136540000D01*
X106017600Y-139660000D02*
X106017600Y-148766000D01*
X106017600Y-148766000D02*
X122277600Y-148766000D01*
X122277600Y-131746000D02*
X106017600Y-131746000D01*
X122277600Y-136540000D02*
X122277600Y-131746000D01*
X122277600Y-148766000D02*
X122277600Y-139660000D01*
D17*
X104592600Y-133096000D02*
G75*
G03*
X104592600Y-133096000I-100000J0D01*
G01*
X111790000Y-160070800D02*
X114270000Y-160070800D01*
X114270000Y-160070800D02*
X114270000Y-154990800D01*
X111790000Y-154990800D02*
X111790000Y-160070800D01*
X114270000Y-154990800D02*
X111790000Y-154990800D01*
X113130000Y-154430800D02*
G75*
G03*
X113130000Y-154430800I-100000J0D01*
G01*
D16*
X124167900Y-144729200D02*
X124864366Y-144729200D01*
X125884434Y-144729200D02*
X126134366Y-144729200D01*
X127154434Y-144729200D02*
X127850900Y-144729200D01*
X127850900Y-144729200D02*
X127850900Y-136855200D01*
X124167900Y-136855200D02*
X124167900Y-144729200D01*
X124864366Y-136855200D02*
X124167900Y-136855200D01*
X126134366Y-136855200D02*
X125884434Y-136855200D01*
X127850900Y-136855200D02*
X127154434Y-136855200D01*
D18*
X126439977Y-145042684D02*
G75*
G03*
X126848823Y-145042685I204422J-321516D01*
G01*
X102031800Y-145364200D02*
G75*
G03*
X102031800Y-145364200I-381000J0D01*
G01*
M02*
