M48
; DRILL file {KiCad 7.0.7} date 2024 October 24, Thursday 15:39:11
; FORMAT={-:-/ absolute / inch / decimal}
; #@! TF.CreationDate,2024-10-24T15:39:11-07:00
; #@! TF.GenerationSoftware,Kicad,Pcbnew,7.0.7
; #@! TF.FileFunction,Plated,1,4,PTH
FMAT,2
INCH
; #@! TA.AperFunction,Plated,PTH,ViaDrill
T1C0.0098
; #@! TA.AperFunction,Plated,PTH,ComponentDrill
T2C0.0118
; #@! TA.AperFunction,Plated,PTH,ComponentDrill
T3C0.0118
; #@! TA.AperFunction,Plated,PTH,ViaDrill
T4C0.0157
; #@! TA.AperFunction,Plated,PTH,ComponentDrill
T5C0.0260
; #@! TA.AperFunction,Plated,PTH,ComponentDrill
T6C0.0315
; #@! TA.AperFunction,Plated,PTH,ComponentDrill
T7C0.0354
; #@! TA.AperFunction,Plated,PTH,ComponentDrill
T8C0.0382
; #@! TA.AperFunction,Plated,PTH,ComponentDrill
T9C0.0394
; #@! TA.AperFunction,Plated,PTH,ComponentDrill
T10C0.0402
; #@! TA.AperFunction,Plated,PTH,ComponentDrill
T11C0.0433
; #@! TA.AperFunction,Plated,PTH,ComponentDrill
T12C0.0472
; #@! TA.AperFunction,Plated,PTH,ComponentDrill
T13C0.0650
%
G90
G05
T1
X3.85Y-5.524
X3.88Y-5.236
X4.01Y-5.336
X4.022Y-5.756
X4.094Y-6.104
X4.11Y-5.912
X4.112Y-5.314
X4.114Y-5.21
X4.2118Y-5.796
X4.224Y-5.044
X4.228Y-4.988
X4.248Y-4.856
X4.2575Y-5.0875
X4.26Y-5.408
X4.316Y-4.836
X4.316Y-5.412
X4.37Y-5.054
X4.372Y-5.09
X4.386Y-4.9299
X4.39Y-5.798
X4.408Y-5.95
X4.412Y-4.882
X4.438Y-5.622
X4.46Y-5.38
X4.472Y-5.54
X4.498Y-5.88
X4.504Y-5.194
X4.528Y-6.212
X4.533Y-4.9164
X4.542Y-5.76
X4.556Y-6.022
X4.616Y-4.906
X4.616Y-5.406
X4.6379Y-5.0288
X4.64Y-4.926
X4.648Y-5.0535
X4.648Y-5.086
X4.728Y-5.44
X4.732Y-5.014
X4.736Y-5.494
X4.75Y-5.288
X4.786Y-4.8941
X4.806Y-5.134
X4.816Y-5.076
X4.836Y-5.27
X4.84Y-5.77
X4.906Y-5.956
X4.942Y-4.926
X4.972Y-4.958
X4.982Y-5.018
X4.988Y-4.986
X5.002Y-6.0099
X5.066Y-5.284
X5.0842Y-5.706
X5.1Y-5.59
X5.114Y-5.2389
X5.134Y-5.3532
X5.134Y-5.618
X5.1753Y-5.5835
X5.202Y-5.5
X5.244Y-5.478
X5.252Y-5.626
T2
X4.5233Y-4.9932
T3
X4.4524Y-5.0247
X4.4524Y-5.0641
X4.4839Y-4.9932
X4.4839Y-5.0956
X4.5233Y-5.0956
X4.5548Y-5.0247
X4.5548Y-5.0641
T4
X4.188Y-5.298
X4.386Y-4.8102
X4.4968Y-4.9124
T5
X4.002Y-5.418
X4.002Y-5.468
X4.002Y-5.518
X4.002Y-5.568
X4.002Y-5.618
X4.002Y-5.668
X4.052Y-5.418
X4.052Y-5.468
X4.052Y-5.518
X4.052Y-5.568
X4.052Y-5.618
X4.052Y-5.668
X4.936Y-5.418
X4.936Y-5.468
X4.936Y-5.518
X4.936Y-5.568
X4.936Y-5.618
X4.936Y-5.668
X4.986Y-5.418
X4.986Y-5.468
X4.986Y-5.518
X4.986Y-5.568
X4.986Y-5.618
X4.986Y-5.668
T6
X4.206Y-5.94
X4.306Y-5.94
X4.506Y-5.94
X4.606Y-5.94
X4.706Y-5.94
X4.806Y-5.94
T7
X3.8315Y-5.7134
X3.888Y-5.794
X3.8907Y-5.1574
X3.954Y-5.082
T8
X4.269Y-5.24
X4.319Y-5.34
X4.369Y-5.24
X4.419Y-5.34
X4.469Y-5.24
X4.519Y-5.34
X4.569Y-5.24
X4.619Y-5.34
X4.669Y-5.24
X4.719Y-5.34
T9
X4.5036Y-5.0444
T10
X4.45Y-6.152
X4.45Y-6.252
T11
X4.245Y-5.7517
X4.345Y-5.7517
X4.643Y-5.7517
X4.743Y-5.7517
T12
X5.02Y-5.842
T13
X4.184Y-5.437
X4.804Y-5.437
T0
M30
