%TF.GenerationSoftware,KiCad,Pcbnew,8.0.8*%
%TF.CreationDate,2025-02-24T15:49:15-08:00*%
%TF.ProjectId,OuterBoard_rev3.1,4f757465-7242-46f6-9172-645f72657633,rev?*%
%TF.SameCoordinates,Original*%
%TF.FileFunction,Drillmap*%
%TF.FilePolarity,Positive*%
%FSLAX45Y45*%
G04 Gerber Fmt 4.5, Leading zero omitted, Abs format (unit mm)*
G04 Created by KiCad (PCBNEW 8.0.8) date 2025-02-24 15:49:15*
%MOMM*%
%LPD*%
G01*
G04 APERTURE LIST*
%ADD10C,0.100000*%
%ADD11C,0.660400*%
%ADD12C,0.200000*%
%ADD13C,0.110000*%
G04 APERTURE END LIST*
D10*
X10708640Y-7942580D02*
X10713720Y-10170160D01*
X15603220Y-7465060D02*
G75*
G02*
X16080740Y-7942580I0J-477520D01*
G01*
X16080740Y-7942580D02*
X16085820Y-10170160D01*
X11186160Y-7465060D02*
X15603220Y-7465060D01*
X16085820Y-10170160D02*
G75*
G02*
X15608300Y-10647680I-477520J0D01*
G01*
X11191240Y-10647680D02*
X15608300Y-10647680D01*
X10708640Y-7942580D02*
G75*
G02*
X11186160Y-7465060I477520J0D01*
G01*
X11191240Y-10647680D02*
G75*
G02*
X10713720Y-10170160I0J477520D01*
G01*
D11*
X13145000Y-9981460D02*
X13145000Y-9882400D01*
X13145000Y-10542860D02*
X13145000Y-10393000D01*
X14009000Y-9981460D02*
X14009000Y-9882400D01*
X14009000Y-10542860D02*
X14009000Y-10393000D01*
D12*
D10*
X13143730Y-9930660D02*
X13146270Y-9933200D01*
X13146270Y-9930660D02*
X13143730Y-9933200D01*
X13143730Y-10466660D02*
X13146270Y-10469200D01*
X13146270Y-10466660D02*
X13143730Y-10469200D01*
X14007730Y-9930660D02*
X14010270Y-9933200D01*
X14010270Y-9930660D02*
X14007730Y-9933200D01*
X14007730Y-10466660D02*
X14010270Y-10469200D01*
X14010270Y-10466660D02*
X14007730Y-10469200D01*
X11066540Y-8981440D02*
G75*
G02*
X11036540Y-8981440I-15000J0D01*
G01*
X11036540Y-8981440D02*
G75*
G02*
X11066540Y-8981440I15000J0D01*
G01*
X11069080Y-8709660D02*
G75*
G02*
X11039080Y-8709660I-15000J0D01*
G01*
X11039080Y-8709660D02*
G75*
G02*
X11069080Y-8709660I15000J0D01*
G01*
X11189900Y-8403760D02*
G75*
G02*
X11159900Y-8403760I-15000J0D01*
G01*
X11159900Y-8403760D02*
G75*
G02*
X11189900Y-8403760I15000J0D01*
G01*
X11213860Y-9834880D02*
G75*
G02*
X11183860Y-9834880I-15000J0D01*
G01*
X11183860Y-9834880D02*
G75*
G02*
X11213860Y-9834880I15000J0D01*
G01*
X11315460Y-10015220D02*
G75*
G02*
X11285460Y-10015220I-15000J0D01*
G01*
X11285460Y-10015220D02*
G75*
G02*
X11315460Y-10015220I15000J0D01*
G01*
X11318000Y-9311640D02*
G75*
G02*
X11288000Y-9311640I-15000J0D01*
G01*
X11288000Y-9311640D02*
G75*
G02*
X11318000Y-9311640I15000J0D01*
G01*
X11373313Y-8194040D02*
G75*
G02*
X11343313Y-8194040I-15000J0D01*
G01*
X11343313Y-8194040D02*
G75*
G02*
X11373313Y-8194040I15000J0D01*
G01*
X11483100Y-9692640D02*
G75*
G02*
X11453100Y-9692640I-15000J0D01*
G01*
X11453100Y-9692640D02*
G75*
G02*
X11483100Y-9692640I15000J0D01*
G01*
X11508500Y-8961120D02*
G75*
G02*
X11478500Y-8961120I-15000J0D01*
G01*
X11478500Y-8961120D02*
G75*
G02*
X11508500Y-8961120I15000J0D01*
G01*
X11704080Y-7853680D02*
G75*
G02*
X11674080Y-7853680I-15000J0D01*
G01*
X11674080Y-7853680D02*
G75*
G02*
X11704080Y-7853680I15000J0D01*
G01*
X11711700Y-9060180D02*
G75*
G02*
X11681700Y-9060180I-15000J0D01*
G01*
X11681700Y-9060180D02*
G75*
G02*
X11711700Y-9060180I15000J0D01*
G01*
X11735107Y-9347754D02*
G75*
G02*
X11705107Y-9347754I-15000J0D01*
G01*
X11705107Y-9347754D02*
G75*
G02*
X11735107Y-9347754I15000J0D01*
G01*
X11754670Y-9613900D02*
G75*
G02*
X11724670Y-9613900I-15000J0D01*
G01*
X11724670Y-9613900D02*
G75*
G02*
X11754670Y-9613900I15000J0D01*
G01*
X11781830Y-8339810D02*
G75*
G02*
X11751830Y-8339810I-15000J0D01*
G01*
X11751830Y-8339810D02*
G75*
G02*
X11781830Y-8339810I15000J0D01*
G01*
X11803968Y-8998129D02*
G75*
G02*
X11773968Y-8998129I-15000J0D01*
G01*
X11773968Y-8998129D02*
G75*
G02*
X11803968Y-8998129I15000J0D01*
G01*
X11883870Y-7961880D02*
G75*
G02*
X11853870Y-7961880I-15000J0D01*
G01*
X11853870Y-7961880D02*
G75*
G02*
X11883870Y-7961880I15000J0D01*
G01*
X11883870Y-8056880D02*
G75*
G02*
X11853870Y-8056880I-15000J0D01*
G01*
X11853870Y-8056880D02*
G75*
G02*
X11883870Y-8056880I15000J0D01*
G01*
X11963380Y-8879340D02*
G75*
G02*
X11933380Y-8879340I-15000J0D01*
G01*
X11933380Y-8879340D02*
G75*
G02*
X11963380Y-8879340I15000J0D01*
G01*
X11997055Y-8388537D02*
G75*
G02*
X11967055Y-8388537I-15000J0D01*
G01*
X11967055Y-8388537D02*
G75*
G02*
X11997055Y-8388537I15000J0D01*
G01*
X12024120Y-9342120D02*
G75*
G02*
X11994120Y-9342120I-15000J0D01*
G01*
X11994120Y-9342120D02*
G75*
G02*
X12024120Y-9342120I15000J0D01*
G01*
X12085080Y-9441180D02*
G75*
G02*
X12055080Y-9441180I-15000J0D01*
G01*
X12055080Y-9441180D02*
G75*
G02*
X12085080Y-9441180I15000J0D01*
G01*
X12095240Y-8709660D02*
G75*
G02*
X12065240Y-8709660I-15000J0D01*
G01*
X12065240Y-8709660D02*
G75*
G02*
X12095240Y-8709660I15000J0D01*
G01*
X12095240Y-8864660D02*
G75*
G02*
X12065240Y-8864660I-15000J0D01*
G01*
X12065240Y-8864660D02*
G75*
G02*
X12095240Y-8864660I15000J0D01*
G01*
X12110480Y-8153880D02*
G75*
G02*
X12080480Y-8153880I-15000J0D01*
G01*
X12080480Y-8153880D02*
G75*
G02*
X12110480Y-8153880I15000J0D01*
G01*
X12125720Y-8056880D02*
G75*
G02*
X12095720Y-8056880I-15000J0D01*
G01*
X12095720Y-8056880D02*
G75*
G02*
X12125720Y-8056880I15000J0D01*
G01*
X12128260Y-9250460D02*
G75*
G02*
X12098260Y-9250460I-15000J0D01*
G01*
X12098260Y-9250460D02*
G75*
G02*
X12128260Y-9250460I15000J0D01*
G01*
X12163820Y-9700260D02*
G75*
G02*
X12133820Y-9700260I-15000J0D01*
G01*
X12133820Y-9700260D02*
G75*
G02*
X12163820Y-9700260I15000J0D01*
G01*
X12209312Y-8982971D02*
G75*
G02*
X12179312Y-8982971I-15000J0D01*
G01*
X12179312Y-8982971D02*
G75*
G02*
X12209312Y-8982971I15000J0D01*
G01*
X12219700Y-8564880D02*
G75*
G02*
X12189700Y-8564880I-15000J0D01*
G01*
X12189700Y-8564880D02*
G75*
G02*
X12219700Y-8564880I15000J0D01*
G01*
X12250180Y-9903460D02*
G75*
G02*
X12220180Y-9903460I-15000J0D01*
G01*
X12220180Y-9903460D02*
G75*
G02*
X12250180Y-9903460I15000J0D01*
G01*
X12330300Y-8703140D02*
G75*
G02*
X12300300Y-8703140I-15000J0D01*
G01*
X12300300Y-8703140D02*
G75*
G02*
X12330300Y-8703140I15000J0D01*
G01*
X12341620Y-9095460D02*
G75*
G02*
X12311620Y-9095460I-15000J0D01*
G01*
X12311620Y-9095460D02*
G75*
G02*
X12341620Y-9095460I15000J0D01*
G01*
X12341620Y-9253220D02*
G75*
G02*
X12311620Y-9253220I-15000J0D01*
G01*
X12311620Y-9253220D02*
G75*
G02*
X12341620Y-9253220I15000J0D01*
G01*
X12406000Y-8879000D02*
G75*
G02*
X12376000Y-8879000I-15000J0D01*
G01*
X12376000Y-8879000D02*
G75*
G02*
X12406000Y-8879000I15000J0D01*
G01*
X12431045Y-8760620D02*
G75*
G02*
X12401045Y-8760620I-15000J0D01*
G01*
X12401045Y-8760620D02*
G75*
G02*
X12431045Y-8760620I15000J0D01*
G01*
X12481160Y-8343900D02*
G75*
G02*
X12451160Y-8343900I-15000J0D01*
G01*
X12451160Y-8343900D02*
G75*
G02*
X12481160Y-8343900I15000J0D01*
G01*
X12486400Y-8440420D02*
G75*
G02*
X12456400Y-8440420I-15000J0D01*
G01*
X12456400Y-8440420D02*
G75*
G02*
X12486400Y-8440420I15000J0D01*
G01*
X12486560Y-8684830D02*
G75*
G02*
X12456560Y-8684830I-15000J0D01*
G01*
X12456560Y-8684830D02*
G75*
G02*
X12486560Y-8684830I15000J0D01*
G01*
X12534660Y-9616440D02*
G75*
G02*
X12504660Y-9616440I-15000J0D01*
G01*
X12504660Y-9616440D02*
G75*
G02*
X12534660Y-9616440I15000J0D01*
G01*
X12598000Y-8530880D02*
G75*
G02*
X12568000Y-8530880I-15000J0D01*
G01*
X12568000Y-8530880D02*
G75*
G02*
X12598000Y-8530880I15000J0D01*
G01*
X12598000Y-9113520D02*
G75*
G02*
X12568000Y-9113520I-15000J0D01*
G01*
X12568000Y-9113520D02*
G75*
G02*
X12598000Y-9113520I15000J0D01*
G01*
X12608320Y-8104980D02*
G75*
G02*
X12578320Y-8104980I-15000J0D01*
G01*
X12578320Y-8104980D02*
G75*
G02*
X12608320Y-8104980I15000J0D01*
G01*
X12613400Y-8702040D02*
G75*
G02*
X12583400Y-8702040I-15000J0D01*
G01*
X12583400Y-8702040D02*
G75*
G02*
X12613400Y-8702040I15000J0D01*
G01*
X12613400Y-8890000D02*
G75*
G02*
X12583400Y-8890000I-15000J0D01*
G01*
X12583400Y-8890000D02*
G75*
G02*
X12613400Y-8890000I15000J0D01*
G01*
X12625000Y-9692000D02*
G75*
G02*
X12595000Y-9692000I-15000J0D01*
G01*
X12595000Y-9692000D02*
G75*
G02*
X12625000Y-9692000I15000J0D01*
G01*
X12673640Y-8960367D02*
G75*
G02*
X12643640Y-8960367I-15000J0D01*
G01*
X12643640Y-8960367D02*
G75*
G02*
X12673640Y-8960367I15000J0D01*
G01*
X12722620Y-8820600D02*
G75*
G02*
X12692620Y-8820600I-15000J0D01*
G01*
X12692620Y-8820600D02*
G75*
G02*
X12722620Y-8820600I15000J0D01*
G01*
X12727761Y-8530880D02*
G75*
G02*
X12697761Y-8530880I-15000J0D01*
G01*
X12697761Y-8530880D02*
G75*
G02*
X12727761Y-8530880I15000J0D01*
G01*
X12749570Y-8349460D02*
G75*
G02*
X12719570Y-8349460I-15000J0D01*
G01*
X12719570Y-8349460D02*
G75*
G02*
X12749570Y-8349460I15000J0D01*
G01*
X12850731Y-9241085D02*
G75*
G02*
X12820731Y-9241085I-15000J0D01*
G01*
X12820731Y-9241085D02*
G75*
G02*
X12850731Y-9241085I15000J0D01*
G01*
X12880239Y-9938481D02*
G75*
G02*
X12850239Y-9938481I-15000J0D01*
G01*
X12850239Y-9938481D02*
G75*
G02*
X12880239Y-9938481I15000J0D01*
G01*
X12888000Y-9769000D02*
G75*
G02*
X12858000Y-9769000I-15000J0D01*
G01*
X12858000Y-9769000D02*
G75*
G02*
X12888000Y-9769000I15000J0D01*
G01*
X12898974Y-9017088D02*
G75*
G02*
X12868974Y-9017088I-15000J0D01*
G01*
X12868974Y-9017088D02*
G75*
G02*
X12898974Y-9017088I15000J0D01*
G01*
X12899370Y-8573390D02*
G75*
G02*
X12869370Y-8573390I-15000J0D01*
G01*
X12869370Y-8573390D02*
G75*
G02*
X12899370Y-8573390I15000J0D01*
G01*
X12931457Y-8710217D02*
G75*
G02*
X12901457Y-8710217I-15000J0D01*
G01*
X12901457Y-8710217D02*
G75*
G02*
X12931457Y-8710217I15000J0D01*
G01*
X12938520Y-8828850D02*
G75*
G02*
X12908520Y-8828850I-15000J0D01*
G01*
X12908520Y-8828850D02*
G75*
G02*
X12938520Y-8828850I15000J0D01*
G01*
X12948030Y-8904455D02*
G75*
G02*
X12918030Y-8904455I-15000J0D01*
G01*
X12918030Y-8904455D02*
G75*
G02*
X12948030Y-8904455I15000J0D01*
G01*
X12974240Y-7932420D02*
G75*
G02*
X12944240Y-7932420I-15000J0D01*
G01*
X12944240Y-7932420D02*
G75*
G02*
X12974240Y-7932420I15000J0D01*
G01*
X12979160Y-8575040D02*
G75*
G02*
X12949160Y-8575040I-15000J0D01*
G01*
X12949160Y-8575040D02*
G75*
G02*
X12979160Y-8575040I15000J0D01*
G01*
X13029960Y-9057640D02*
G75*
G02*
X12999960Y-9057640I-15000J0D01*
G01*
X12999960Y-9057640D02*
G75*
G02*
X13029960Y-9057640I15000J0D01*
G01*
X13057900Y-10187940D02*
G75*
G02*
X13027900Y-10187940I-15000J0D01*
G01*
X13027900Y-10187940D02*
G75*
G02*
X13057900Y-10187940I15000J0D01*
G01*
X13120408Y-9257421D02*
G75*
G02*
X13090408Y-9257421I-15000J0D01*
G01*
X13090408Y-9257421D02*
G75*
G02*
X13120408Y-9257421I15000J0D01*
G01*
X13121948Y-8845758D02*
G75*
G02*
X13091948Y-8845758I-15000J0D01*
G01*
X13091948Y-8845758D02*
G75*
G02*
X13121948Y-8845758I15000J0D01*
G01*
X13125840Y-8575040D02*
G75*
G02*
X13095840Y-8575040I-15000J0D01*
G01*
X13095840Y-8575040D02*
G75*
G02*
X13125840Y-8575040I15000J0D01*
G01*
X13159500Y-9075420D02*
G75*
G02*
X13129500Y-9075420I-15000J0D01*
G01*
X13129500Y-9075420D02*
G75*
G02*
X13159500Y-9075420I15000J0D01*
G01*
X13210300Y-8592820D02*
G75*
G02*
X13180300Y-8592820I-15000J0D01*
G01*
X13180300Y-8592820D02*
G75*
G02*
X13210300Y-8592820I15000J0D01*
G01*
X13213750Y-9259709D02*
G75*
G02*
X13183750Y-9259709I-15000J0D01*
G01*
X13183750Y-9259709D02*
G75*
G02*
X13213750Y-9259709I15000J0D01*
G01*
X13268500Y-7833500D02*
G75*
G02*
X13238500Y-7833500I-15000J0D01*
G01*
X13238500Y-7833500D02*
G75*
G02*
X13268500Y-7833500I15000J0D01*
G01*
X13294120Y-9050020D02*
G75*
G02*
X13264120Y-9050020I-15000J0D01*
G01*
X13264120Y-9050020D02*
G75*
G02*
X13294120Y-9050020I15000J0D01*
G01*
X13301000Y-9810000D02*
G75*
G02*
X13271000Y-9810000I-15000J0D01*
G01*
X13271000Y-9810000D02*
G75*
G02*
X13301000Y-9810000I15000J0D01*
G01*
X13318030Y-8593920D02*
G75*
G02*
X13288030Y-8593920I-15000J0D01*
G01*
X13288030Y-8593920D02*
G75*
G02*
X13318030Y-8593920I15000J0D01*
G01*
X13359470Y-8823960D02*
G75*
G02*
X13329470Y-8823960I-15000J0D01*
G01*
X13329470Y-8823960D02*
G75*
G02*
X13359470Y-8823960I15000J0D01*
G01*
X13367780Y-8966200D02*
G75*
G02*
X13337780Y-8966200I-15000J0D01*
G01*
X13337780Y-8966200D02*
G75*
G02*
X13367780Y-8966200I15000J0D01*
G01*
X13400800Y-9072880D02*
G75*
G02*
X13370800Y-9072880I-15000J0D01*
G01*
X13370800Y-9072880D02*
G75*
G02*
X13400800Y-9072880I15000J0D01*
G01*
X13431280Y-9481820D02*
G75*
G02*
X13401280Y-9481820I-15000J0D01*
G01*
X13401280Y-9481820D02*
G75*
G02*
X13431280Y-9481820I15000J0D01*
G01*
X13512000Y-8099000D02*
G75*
G02*
X13482000Y-8099000I-15000J0D01*
G01*
X13482000Y-8099000D02*
G75*
G02*
X13512000Y-8099000I15000J0D01*
G01*
X13512000Y-8351000D02*
G75*
G02*
X13482000Y-8351000I-15000J0D01*
G01*
X13482000Y-8351000D02*
G75*
G02*
X13512000Y-8351000I15000J0D01*
G01*
X13558290Y-9164320D02*
G75*
G02*
X13528290Y-9164320I-15000J0D01*
G01*
X13528290Y-9164320D02*
G75*
G02*
X13558290Y-9164320I15000J0D01*
G01*
X13563500Y-7833500D02*
G75*
G02*
X13533500Y-7833500I-15000J0D01*
G01*
X13533500Y-7833500D02*
G75*
G02*
X13563500Y-7833500I15000J0D01*
G01*
X13581140Y-9509760D02*
G75*
G02*
X13551140Y-9509760I-15000J0D01*
G01*
X13551140Y-9509760D02*
G75*
G02*
X13581140Y-9509760I15000J0D01*
G01*
X13586220Y-9652000D02*
G75*
G02*
X13556220Y-9652000I-15000J0D01*
G01*
X13556220Y-9652000D02*
G75*
G02*
X13586220Y-9652000I15000J0D01*
G01*
X13586220Y-9789000D02*
G75*
G02*
X13556220Y-9789000I-15000J0D01*
G01*
X13556220Y-9789000D02*
G75*
G02*
X13586220Y-9789000I15000J0D01*
G01*
X13611280Y-10154920D02*
G75*
G02*
X13581280Y-10154920I-15000J0D01*
G01*
X13581280Y-10154920D02*
G75*
G02*
X13611280Y-10154920I15000J0D01*
G01*
X13645468Y-8835798D02*
G75*
G02*
X13615468Y-8835798I-15000J0D01*
G01*
X13615468Y-8835798D02*
G75*
G02*
X13645468Y-8835798I15000J0D01*
G01*
X13648000Y-8760600D02*
G75*
G02*
X13618000Y-8760600I-15000J0D01*
G01*
X13618000Y-8760600D02*
G75*
G02*
X13648000Y-8760600I15000J0D01*
G01*
X13667500Y-9657080D02*
G75*
G02*
X13637500Y-9657080I-15000J0D01*
G01*
X13637500Y-9657080D02*
G75*
G02*
X13667500Y-9657080I15000J0D01*
G01*
X13774180Y-8572500D02*
G75*
G02*
X13744180Y-8572500I-15000J0D01*
G01*
X13744180Y-8572500D02*
G75*
G02*
X13774180Y-8572500I15000J0D01*
G01*
X13893000Y-9816000D02*
G75*
G02*
X13863000Y-9816000I-15000J0D01*
G01*
X13863000Y-9816000D02*
G75*
G02*
X13893000Y-9816000I15000J0D01*
G01*
X13916390Y-9428510D02*
G75*
G02*
X13886390Y-9428510I-15000J0D01*
G01*
X13886390Y-9428510D02*
G75*
G02*
X13916390Y-9428510I15000J0D01*
G01*
X13921500Y-8354060D02*
G75*
G02*
X13891500Y-8354060I-15000J0D01*
G01*
X13891500Y-8354060D02*
G75*
G02*
X13921500Y-8354060I15000J0D01*
G01*
X13938880Y-8820640D02*
G75*
G02*
X13908880Y-8820640I-15000J0D01*
G01*
X13908880Y-8820640D02*
G75*
G02*
X13938880Y-8820640I15000J0D01*
G01*
X14109460Y-8158480D02*
G75*
G02*
X14079460Y-8158480I-15000J0D01*
G01*
X14079460Y-8158480D02*
G75*
G02*
X14109460Y-8158480I15000J0D01*
G01*
X14160260Y-9588500D02*
G75*
G02*
X14130260Y-9588500I-15000J0D01*
G01*
X14130260Y-9588500D02*
G75*
G02*
X14160260Y-9588500I15000J0D01*
G01*
X14217880Y-9047690D02*
G75*
G02*
X14187880Y-9047690I-15000J0D01*
G01*
X14187880Y-9047690D02*
G75*
G02*
X14217880Y-9047690I15000J0D01*
G01*
X14223760Y-9458960D02*
G75*
G02*
X14193760Y-9458960I-15000J0D01*
G01*
X14193760Y-9458960D02*
G75*
G02*
X14223760Y-9458960I15000J0D01*
G01*
X14226149Y-9300722D02*
G75*
G02*
X14196149Y-9300722I-15000J0D01*
G01*
X14196149Y-9300722D02*
G75*
G02*
X14226149Y-9300722I15000J0D01*
G01*
X14233920Y-8354060D02*
G75*
G02*
X14203920Y-8354060I-15000J0D01*
G01*
X14203920Y-8354060D02*
G75*
G02*
X14233920Y-8354060I15000J0D01*
G01*
X14322820Y-9786620D02*
G75*
G02*
X14292820Y-9786620I-15000J0D01*
G01*
X14292820Y-9786620D02*
G75*
G02*
X14322820Y-9786620I15000J0D01*
G01*
X14352000Y-9355000D02*
G75*
G02*
X14322000Y-9355000I-15000J0D01*
G01*
X14322000Y-9355000D02*
G75*
G02*
X14352000Y-9355000I15000J0D01*
G01*
X14355840Y-8524240D02*
G75*
G02*
X14325840Y-8524240I-15000J0D01*
G01*
X14325840Y-8524240D02*
G75*
G02*
X14355840Y-8524240I15000J0D01*
G01*
X14505960Y-8196580D02*
G75*
G02*
X14475960Y-8196580I-15000J0D01*
G01*
X14475960Y-8196580D02*
G75*
G02*
X14505960Y-8196580I15000J0D01*
G01*
X14523480Y-9228460D02*
G75*
G02*
X14493480Y-9228460I-15000J0D01*
G01*
X14493480Y-9228460D02*
G75*
G02*
X14523480Y-9228460I15000J0D01*
G01*
X14574280Y-8275320D02*
G75*
G02*
X14544280Y-8275320I-15000J0D01*
G01*
X14544280Y-8275320D02*
G75*
G02*
X14574280Y-8275320I15000J0D01*
G01*
X14581900Y-9067800D02*
G75*
G02*
X14551900Y-9067800I-15000J0D01*
G01*
X14551900Y-9067800D02*
G75*
G02*
X14581900Y-9067800I15000J0D01*
G01*
X14592060Y-10274300D02*
G75*
G02*
X14562060Y-10274300I-15000J0D01*
G01*
X14562060Y-10274300D02*
G75*
G02*
X14592060Y-10274300I15000J0D01*
G01*
X14624890Y-9512300D02*
G75*
G02*
X14594890Y-9512300I-15000J0D01*
G01*
X14594890Y-9512300D02*
G75*
G02*
X14624890Y-9512300I15000J0D01*
G01*
X14780020Y-9245600D02*
G75*
G02*
X14750020Y-9245600I-15000J0D01*
G01*
X14750020Y-9245600D02*
G75*
G02*
X14780020Y-9245600I15000J0D01*
G01*
X14787640Y-9415780D02*
G75*
G02*
X14757640Y-9415780I-15000J0D01*
G01*
X14757640Y-9415780D02*
G75*
G02*
X14787640Y-9415780I15000J0D01*
G01*
X14889240Y-9418320D02*
G75*
G02*
X14859240Y-9418320I-15000J0D01*
G01*
X14859240Y-9418320D02*
G75*
G02*
X14889240Y-9418320I15000J0D01*
G01*
X14960000Y-9944100D02*
G75*
G02*
X14930000Y-9944100I-15000J0D01*
G01*
X14930000Y-9944100D02*
G75*
G02*
X14960000Y-9944100I15000J0D01*
G01*
X15016240Y-7724140D02*
G75*
G02*
X14986240Y-7724140I-15000J0D01*
G01*
X14986240Y-7724140D02*
G75*
G02*
X15016240Y-7724140I15000J0D01*
G01*
X15036560Y-9743440D02*
G75*
G02*
X15006560Y-9743440I-15000J0D01*
G01*
X15006560Y-9743440D02*
G75*
G02*
X15036560Y-9743440I15000J0D01*
G01*
X15047000Y-10033640D02*
G75*
G02*
X15017000Y-10033640I-15000J0D01*
G01*
X15017000Y-10033640D02*
G75*
G02*
X15047000Y-10033640I15000J0D01*
G01*
X15049260Y-9314180D02*
G75*
G02*
X15019260Y-9314180I-15000J0D01*
G01*
X15019260Y-9314180D02*
G75*
G02*
X15049260Y-9314180I15000J0D01*
G01*
X15056880Y-9644380D02*
G75*
G02*
X15026880Y-9644380I-15000J0D01*
G01*
X15026880Y-9644380D02*
G75*
G02*
X15056880Y-9644380I15000J0D01*
G01*
X15067040Y-9456420D02*
G75*
G02*
X15037040Y-9456420I-15000J0D01*
G01*
X15037040Y-9456420D02*
G75*
G02*
X15067040Y-9456420I15000J0D01*
G01*
X15072120Y-8923020D02*
G75*
G02*
X15042120Y-8923020I-15000J0D01*
G01*
X15042120Y-8923020D02*
G75*
G02*
X15072120Y-8923020I15000J0D01*
G01*
X15086000Y-9879240D02*
G75*
G02*
X15056000Y-9879240I-15000J0D01*
G01*
X15056000Y-9879240D02*
G75*
G02*
X15086000Y-9879240I15000J0D01*
G01*
X15387509Y-9245027D02*
G75*
G02*
X15357509Y-9245027I-15000J0D01*
G01*
X15357509Y-9245027D02*
G75*
G02*
X15387509Y-9245027I15000J0D01*
G01*
X15396000Y-9684000D02*
G75*
G02*
X15366000Y-9684000I-15000J0D01*
G01*
X15366000Y-9684000D02*
G75*
G02*
X15396000Y-9684000I15000J0D01*
G01*
X15399780Y-9319260D02*
G75*
G02*
X15369780Y-9319260I-15000J0D01*
G01*
X15369780Y-9319260D02*
G75*
G02*
X15399780Y-9319260I15000J0D01*
G01*
X15409940Y-8872220D02*
G75*
G02*
X15379940Y-8872220I-15000J0D01*
G01*
X15379940Y-8872220D02*
G75*
G02*
X15409940Y-8872220I15000J0D01*
G01*
X15412000Y-9824000D02*
G75*
G02*
X15382000Y-9824000I-15000J0D01*
G01*
X15382000Y-9824000D02*
G75*
G02*
X15412000Y-9824000I15000J0D01*
G01*
X15441325Y-9623944D02*
G75*
G02*
X15411325Y-9623944I-15000J0D01*
G01*
X15411325Y-9623944D02*
G75*
G02*
X15441325Y-9623944I15000J0D01*
G01*
X15445000Y-9470000D02*
G75*
G02*
X15415000Y-9470000I-15000J0D01*
G01*
X15415000Y-9470000D02*
G75*
G02*
X15445000Y-9470000I15000J0D01*
G01*
X15459000Y-9549000D02*
G75*
G02*
X15429000Y-9549000I-15000J0D01*
G01*
X15429000Y-9549000D02*
G75*
G02*
X15459000Y-9549000I15000J0D01*
G01*
X15466460Y-9745500D02*
G75*
G02*
X15436460Y-9745500I-15000J0D01*
G01*
X15436460Y-9745500D02*
G75*
G02*
X15466460Y-9745500I15000J0D01*
G01*
X15483600Y-10010140D02*
G75*
G02*
X15453600Y-10010140I-15000J0D01*
G01*
X15453600Y-10010140D02*
G75*
G02*
X15483600Y-10010140I15000J0D01*
G01*
X11858720Y-7755020D02*
X11858720Y-7805020D01*
X11833720Y-7780020D02*
X11883720Y-7780020D01*
X11983720Y-7755020D02*
X11983720Y-7805020D01*
X11958720Y-7780020D02*
X12008720Y-7780020D01*
X12686760Y-7749940D02*
X12686760Y-7799940D01*
X12661760Y-7774940D02*
X12711760Y-7774940D01*
X12811760Y-7749940D02*
X12811760Y-7799940D01*
X12786760Y-7774940D02*
X12836760Y-7774940D01*
X11008156Y-8049056D02*
X11008156Y-7978344D01*
X10937444Y-7978344D01*
X10937444Y-8049056D01*
X11008156Y-8049056D01*
X11203736Y-7731556D02*
X11203736Y-7660844D01*
X11133024Y-7660844D01*
X11133024Y-7731556D01*
X11203736Y-7731556D01*
D13*
X10952480Y-8396360D02*
X11007480Y-8341360D01*
X10952480Y-8286360D01*
X10897480Y-8341360D01*
X10952480Y-8396360D01*
X10952480Y-8650360D02*
X11007480Y-8595360D01*
X10952480Y-8540360D01*
X10897480Y-8595360D01*
X10952480Y-8650360D01*
X10952480Y-8904360D02*
X11007480Y-8849360D01*
X10952480Y-8794360D01*
X10897480Y-8849360D01*
X10952480Y-8904360D01*
X10952480Y-9158360D02*
X11007480Y-9103360D01*
X10952480Y-9048360D01*
X10897480Y-9103360D01*
X10952480Y-9158360D01*
X10952480Y-9412360D02*
X11007480Y-9357360D01*
X10952480Y-9302360D01*
X10897480Y-9357360D01*
X10952480Y-9412360D01*
X10952480Y-9666360D02*
X11007480Y-9611360D01*
X10952480Y-9556360D01*
X10897480Y-9611360D01*
X10952480Y-9666360D01*
X11562080Y-10456300D02*
X11617080Y-10401300D01*
X11562080Y-10346300D01*
X11507080Y-10401300D01*
X11562080Y-10456300D01*
X11816080Y-10456300D02*
X11871080Y-10401300D01*
X11816080Y-10346300D01*
X11761080Y-10401300D01*
X11816080Y-10456300D01*
X12070080Y-10456300D02*
X12125080Y-10401300D01*
X12070080Y-10346300D01*
X12015080Y-10401300D01*
X12070080Y-10456300D01*
X12324080Y-10456300D02*
X12379080Y-10401300D01*
X12324080Y-10346300D01*
X12269080Y-10401300D01*
X12324080Y-10456300D01*
X12578080Y-10456300D02*
X12633080Y-10401300D01*
X12578080Y-10346300D01*
X12523080Y-10401300D01*
X12578080Y-10456300D01*
X12832080Y-10456300D02*
X12887080Y-10401300D01*
X12832080Y-10346300D01*
X12777080Y-10401300D01*
X12832080Y-10456300D01*
D12*
X10964417Y-10964164D02*
X10964417Y-10764164D01*
X10964417Y-10764164D02*
X11012036Y-10764164D01*
X11012036Y-10764164D02*
X11040607Y-10773688D01*
X11040607Y-10773688D02*
X11059655Y-10792735D01*
X11059655Y-10792735D02*
X11069179Y-10811783D01*
X11069179Y-10811783D02*
X11078703Y-10849878D01*
X11078703Y-10849878D02*
X11078703Y-10878450D01*
X11078703Y-10878450D02*
X11069179Y-10916545D01*
X11069179Y-10916545D02*
X11059655Y-10935592D01*
X11059655Y-10935592D02*
X11040607Y-10954640D01*
X11040607Y-10954640D02*
X11012036Y-10964164D01*
X11012036Y-10964164D02*
X10964417Y-10964164D01*
X11164417Y-10964164D02*
X11164417Y-10830830D01*
X11164417Y-10868926D02*
X11173941Y-10849878D01*
X11173941Y-10849878D02*
X11183464Y-10840354D01*
X11183464Y-10840354D02*
X11202512Y-10830830D01*
X11202512Y-10830830D02*
X11221560Y-10830830D01*
X11288226Y-10964164D02*
X11288226Y-10830830D01*
X11288226Y-10764164D02*
X11278702Y-10773688D01*
X11278702Y-10773688D02*
X11288226Y-10783211D01*
X11288226Y-10783211D02*
X11297750Y-10773688D01*
X11297750Y-10773688D02*
X11288226Y-10764164D01*
X11288226Y-10764164D02*
X11288226Y-10783211D01*
X11412036Y-10964164D02*
X11392988Y-10954640D01*
X11392988Y-10954640D02*
X11383464Y-10935592D01*
X11383464Y-10935592D02*
X11383464Y-10764164D01*
X11516798Y-10964164D02*
X11497750Y-10954640D01*
X11497750Y-10954640D02*
X11488226Y-10935592D01*
X11488226Y-10935592D02*
X11488226Y-10764164D01*
X11745369Y-10964164D02*
X11745369Y-10764164D01*
X11745369Y-10764164D02*
X11812036Y-10907021D01*
X11812036Y-10907021D02*
X11878702Y-10764164D01*
X11878702Y-10764164D02*
X11878702Y-10964164D01*
X12059655Y-10964164D02*
X12059655Y-10859402D01*
X12059655Y-10859402D02*
X12050131Y-10840354D01*
X12050131Y-10840354D02*
X12031083Y-10830830D01*
X12031083Y-10830830D02*
X11992988Y-10830830D01*
X11992988Y-10830830D02*
X11973941Y-10840354D01*
X12059655Y-10954640D02*
X12040607Y-10964164D01*
X12040607Y-10964164D02*
X11992988Y-10964164D01*
X11992988Y-10964164D02*
X11973941Y-10954640D01*
X11973941Y-10954640D02*
X11964417Y-10935592D01*
X11964417Y-10935592D02*
X11964417Y-10916545D01*
X11964417Y-10916545D02*
X11973941Y-10897497D01*
X11973941Y-10897497D02*
X11992988Y-10887973D01*
X11992988Y-10887973D02*
X12040607Y-10887973D01*
X12040607Y-10887973D02*
X12059655Y-10878450D01*
X12154893Y-10830830D02*
X12154893Y-11030830D01*
X12154893Y-10840354D02*
X12173941Y-10830830D01*
X12173941Y-10830830D02*
X12212036Y-10830830D01*
X12212036Y-10830830D02*
X12231083Y-10840354D01*
X12231083Y-10840354D02*
X12240607Y-10849878D01*
X12240607Y-10849878D02*
X12250131Y-10868926D01*
X12250131Y-10868926D02*
X12250131Y-10926069D01*
X12250131Y-10926069D02*
X12240607Y-10945116D01*
X12240607Y-10945116D02*
X12231083Y-10954640D01*
X12231083Y-10954640D02*
X12212036Y-10964164D01*
X12212036Y-10964164D02*
X12173941Y-10964164D01*
X12173941Y-10964164D02*
X12154893Y-10954640D01*
X12335845Y-10945116D02*
X12345369Y-10954640D01*
X12345369Y-10954640D02*
X12335845Y-10964164D01*
X12335845Y-10964164D02*
X12326322Y-10954640D01*
X12326322Y-10954640D02*
X12335845Y-10945116D01*
X12335845Y-10945116D02*
X12335845Y-10964164D01*
X12335845Y-10840354D02*
X12345369Y-10849878D01*
X12345369Y-10849878D02*
X12335845Y-10859402D01*
X12335845Y-10859402D02*
X12326322Y-10849878D01*
X12326322Y-10849878D02*
X12335845Y-10840354D01*
X12335845Y-10840354D02*
X12335845Y-10859402D01*
D10*
X10701100Y-11291410D02*
X10703640Y-11293950D01*
X10703640Y-11291410D02*
X10701100Y-11293950D01*
D12*
X11002512Y-11184164D02*
X11021560Y-11184164D01*
X11021560Y-11184164D02*
X11040607Y-11193688D01*
X11040607Y-11193688D02*
X11050131Y-11203211D01*
X11050131Y-11203211D02*
X11059655Y-11222259D01*
X11059655Y-11222259D02*
X11069179Y-11260354D01*
X11069179Y-11260354D02*
X11069179Y-11307973D01*
X11069179Y-11307973D02*
X11059655Y-11346068D01*
X11059655Y-11346068D02*
X11050131Y-11365116D01*
X11050131Y-11365116D02*
X11040607Y-11374640D01*
X11040607Y-11374640D02*
X11021560Y-11384164D01*
X11021560Y-11384164D02*
X11002512Y-11384164D01*
X11002512Y-11384164D02*
X10983464Y-11374640D01*
X10983464Y-11374640D02*
X10973941Y-11365116D01*
X10973941Y-11365116D02*
X10964417Y-11346068D01*
X10964417Y-11346068D02*
X10954893Y-11307973D01*
X10954893Y-11307973D02*
X10954893Y-11260354D01*
X10954893Y-11260354D02*
X10964417Y-11222259D01*
X10964417Y-11222259D02*
X10973941Y-11203211D01*
X10973941Y-11203211D02*
X10983464Y-11193688D01*
X10983464Y-11193688D02*
X11002512Y-11184164D01*
X11154893Y-11365116D02*
X11164417Y-11374640D01*
X11164417Y-11374640D02*
X11154893Y-11384164D01*
X11154893Y-11384164D02*
X11145369Y-11374640D01*
X11145369Y-11374640D02*
X11154893Y-11365116D01*
X11154893Y-11365116D02*
X11154893Y-11384164D01*
X11288226Y-11184164D02*
X11307274Y-11184164D01*
X11307274Y-11184164D02*
X11326322Y-11193688D01*
X11326322Y-11193688D02*
X11335845Y-11203211D01*
X11335845Y-11203211D02*
X11345369Y-11222259D01*
X11345369Y-11222259D02*
X11354893Y-11260354D01*
X11354893Y-11260354D02*
X11354893Y-11307973D01*
X11354893Y-11307973D02*
X11345369Y-11346068D01*
X11345369Y-11346068D02*
X11335845Y-11365116D01*
X11335845Y-11365116D02*
X11326322Y-11374640D01*
X11326322Y-11374640D02*
X11307274Y-11384164D01*
X11307274Y-11384164D02*
X11288226Y-11384164D01*
X11288226Y-11384164D02*
X11269179Y-11374640D01*
X11269179Y-11374640D02*
X11259655Y-11365116D01*
X11259655Y-11365116D02*
X11250131Y-11346068D01*
X11250131Y-11346068D02*
X11240607Y-11307973D01*
X11240607Y-11307973D02*
X11240607Y-11260354D01*
X11240607Y-11260354D02*
X11250131Y-11222259D01*
X11250131Y-11222259D02*
X11259655Y-11203211D01*
X11259655Y-11203211D02*
X11269179Y-11193688D01*
X11269179Y-11193688D02*
X11288226Y-11184164D01*
X11431083Y-11203211D02*
X11440607Y-11193688D01*
X11440607Y-11193688D02*
X11459655Y-11184164D01*
X11459655Y-11184164D02*
X11507274Y-11184164D01*
X11507274Y-11184164D02*
X11526322Y-11193688D01*
X11526322Y-11193688D02*
X11535845Y-11203211D01*
X11535845Y-11203211D02*
X11545369Y-11222259D01*
X11545369Y-11222259D02*
X11545369Y-11241307D01*
X11545369Y-11241307D02*
X11535845Y-11269878D01*
X11535845Y-11269878D02*
X11421560Y-11384164D01*
X11421560Y-11384164D02*
X11545369Y-11384164D01*
X11726322Y-11184164D02*
X11631083Y-11184164D01*
X11631083Y-11184164D02*
X11621560Y-11279402D01*
X11621560Y-11279402D02*
X11631083Y-11269878D01*
X11631083Y-11269878D02*
X11650131Y-11260354D01*
X11650131Y-11260354D02*
X11697750Y-11260354D01*
X11697750Y-11260354D02*
X11716798Y-11269878D01*
X11716798Y-11269878D02*
X11726322Y-11279402D01*
X11726322Y-11279402D02*
X11735845Y-11298449D01*
X11735845Y-11298449D02*
X11735845Y-11346068D01*
X11735845Y-11346068D02*
X11726322Y-11365116D01*
X11726322Y-11365116D02*
X11716798Y-11374640D01*
X11716798Y-11374640D02*
X11697750Y-11384164D01*
X11697750Y-11384164D02*
X11650131Y-11384164D01*
X11650131Y-11384164D02*
X11631083Y-11374640D01*
X11631083Y-11374640D02*
X11621560Y-11365116D01*
X11821560Y-11384164D02*
X11821560Y-11250830D01*
X11821560Y-11269878D02*
X11831083Y-11260354D01*
X11831083Y-11260354D02*
X11850131Y-11250830D01*
X11850131Y-11250830D02*
X11878703Y-11250830D01*
X11878703Y-11250830D02*
X11897750Y-11260354D01*
X11897750Y-11260354D02*
X11907274Y-11279402D01*
X11907274Y-11279402D02*
X11907274Y-11384164D01*
X11907274Y-11279402D02*
X11916798Y-11260354D01*
X11916798Y-11260354D02*
X11935845Y-11250830D01*
X11935845Y-11250830D02*
X11964417Y-11250830D01*
X11964417Y-11250830D02*
X11983464Y-11260354D01*
X11983464Y-11260354D02*
X11992988Y-11279402D01*
X11992988Y-11279402D02*
X11992988Y-11384164D01*
X12088226Y-11384164D02*
X12088226Y-11250830D01*
X12088226Y-11269878D02*
X12097750Y-11260354D01*
X12097750Y-11260354D02*
X12116798Y-11250830D01*
X12116798Y-11250830D02*
X12145369Y-11250830D01*
X12145369Y-11250830D02*
X12164417Y-11260354D01*
X12164417Y-11260354D02*
X12173941Y-11279402D01*
X12173941Y-11279402D02*
X12173941Y-11384164D01*
X12173941Y-11279402D02*
X12183464Y-11260354D01*
X12183464Y-11260354D02*
X12202512Y-11250830D01*
X12202512Y-11250830D02*
X12231083Y-11250830D01*
X12231083Y-11250830D02*
X12250131Y-11260354D01*
X12250131Y-11260354D02*
X12259655Y-11279402D01*
X12259655Y-11279402D02*
X12259655Y-11384164D01*
X12650131Y-11174640D02*
X12478703Y-11431783D01*
X12907274Y-11184164D02*
X12926322Y-11184164D01*
X12926322Y-11184164D02*
X12945369Y-11193688D01*
X12945369Y-11193688D02*
X12954893Y-11203211D01*
X12954893Y-11203211D02*
X12964417Y-11222259D01*
X12964417Y-11222259D02*
X12973941Y-11260354D01*
X12973941Y-11260354D02*
X12973941Y-11307973D01*
X12973941Y-11307973D02*
X12964417Y-11346068D01*
X12964417Y-11346068D02*
X12954893Y-11365116D01*
X12954893Y-11365116D02*
X12945369Y-11374640D01*
X12945369Y-11374640D02*
X12926322Y-11384164D01*
X12926322Y-11384164D02*
X12907274Y-11384164D01*
X12907274Y-11384164D02*
X12888226Y-11374640D01*
X12888226Y-11374640D02*
X12878703Y-11365116D01*
X12878703Y-11365116D02*
X12869179Y-11346068D01*
X12869179Y-11346068D02*
X12859655Y-11307973D01*
X12859655Y-11307973D02*
X12859655Y-11260354D01*
X12859655Y-11260354D02*
X12869179Y-11222259D01*
X12869179Y-11222259D02*
X12878703Y-11203211D01*
X12878703Y-11203211D02*
X12888226Y-11193688D01*
X12888226Y-11193688D02*
X12907274Y-11184164D01*
X13059655Y-11365116D02*
X13069179Y-11374640D01*
X13069179Y-11374640D02*
X13059655Y-11384164D01*
X13059655Y-11384164D02*
X13050131Y-11374640D01*
X13050131Y-11374640D02*
X13059655Y-11365116D01*
X13059655Y-11365116D02*
X13059655Y-11384164D01*
X13192988Y-11184164D02*
X13212036Y-11184164D01*
X13212036Y-11184164D02*
X13231084Y-11193688D01*
X13231084Y-11193688D02*
X13240607Y-11203211D01*
X13240607Y-11203211D02*
X13250131Y-11222259D01*
X13250131Y-11222259D02*
X13259655Y-11260354D01*
X13259655Y-11260354D02*
X13259655Y-11307973D01*
X13259655Y-11307973D02*
X13250131Y-11346068D01*
X13250131Y-11346068D02*
X13240607Y-11365116D01*
X13240607Y-11365116D02*
X13231084Y-11374640D01*
X13231084Y-11374640D02*
X13212036Y-11384164D01*
X13212036Y-11384164D02*
X13192988Y-11384164D01*
X13192988Y-11384164D02*
X13173941Y-11374640D01*
X13173941Y-11374640D02*
X13164417Y-11365116D01*
X13164417Y-11365116D02*
X13154893Y-11346068D01*
X13154893Y-11346068D02*
X13145369Y-11307973D01*
X13145369Y-11307973D02*
X13145369Y-11260354D01*
X13145369Y-11260354D02*
X13154893Y-11222259D01*
X13154893Y-11222259D02*
X13164417Y-11203211D01*
X13164417Y-11203211D02*
X13173941Y-11193688D01*
X13173941Y-11193688D02*
X13192988Y-11184164D01*
X13383465Y-11184164D02*
X13402512Y-11184164D01*
X13402512Y-11184164D02*
X13421560Y-11193688D01*
X13421560Y-11193688D02*
X13431084Y-11203211D01*
X13431084Y-11203211D02*
X13440607Y-11222259D01*
X13440607Y-11222259D02*
X13450131Y-11260354D01*
X13450131Y-11260354D02*
X13450131Y-11307973D01*
X13450131Y-11307973D02*
X13440607Y-11346068D01*
X13440607Y-11346068D02*
X13431084Y-11365116D01*
X13431084Y-11365116D02*
X13421560Y-11374640D01*
X13421560Y-11374640D02*
X13402512Y-11384164D01*
X13402512Y-11384164D02*
X13383465Y-11384164D01*
X13383465Y-11384164D02*
X13364417Y-11374640D01*
X13364417Y-11374640D02*
X13354893Y-11365116D01*
X13354893Y-11365116D02*
X13345369Y-11346068D01*
X13345369Y-11346068D02*
X13335846Y-11307973D01*
X13335846Y-11307973D02*
X13335846Y-11260354D01*
X13335846Y-11260354D02*
X13345369Y-11222259D01*
X13345369Y-11222259D02*
X13354893Y-11203211D01*
X13354893Y-11203211D02*
X13364417Y-11193688D01*
X13364417Y-11193688D02*
X13383465Y-11184164D01*
X13640607Y-11384164D02*
X13526322Y-11384164D01*
X13583465Y-11384164D02*
X13583465Y-11184164D01*
X13583465Y-11184164D02*
X13564417Y-11212735D01*
X13564417Y-11212735D02*
X13545369Y-11231783D01*
X13545369Y-11231783D02*
X13526322Y-11241307D01*
X13764417Y-11184164D02*
X13783465Y-11184164D01*
X13783465Y-11184164D02*
X13802512Y-11193688D01*
X13802512Y-11193688D02*
X13812036Y-11203211D01*
X13812036Y-11203211D02*
X13821560Y-11222259D01*
X13821560Y-11222259D02*
X13831084Y-11260354D01*
X13831084Y-11260354D02*
X13831084Y-11307973D01*
X13831084Y-11307973D02*
X13821560Y-11346068D01*
X13821560Y-11346068D02*
X13812036Y-11365116D01*
X13812036Y-11365116D02*
X13802512Y-11374640D01*
X13802512Y-11374640D02*
X13783465Y-11384164D01*
X13783465Y-11384164D02*
X13764417Y-11384164D01*
X13764417Y-11384164D02*
X13745369Y-11374640D01*
X13745369Y-11374640D02*
X13735846Y-11365116D01*
X13735846Y-11365116D02*
X13726322Y-11346068D01*
X13726322Y-11346068D02*
X13716798Y-11307973D01*
X13716798Y-11307973D02*
X13716798Y-11260354D01*
X13716798Y-11260354D02*
X13726322Y-11222259D01*
X13726322Y-11222259D02*
X13735846Y-11203211D01*
X13735846Y-11203211D02*
X13745369Y-11193688D01*
X13745369Y-11193688D02*
X13764417Y-11184164D01*
X13907274Y-11184164D02*
X13907274Y-11222259D01*
X13983465Y-11184164D02*
X13983465Y-11222259D01*
X14278703Y-11460354D02*
X14269179Y-11450830D01*
X14269179Y-11450830D02*
X14250131Y-11422259D01*
X14250131Y-11422259D02*
X14240608Y-11403211D01*
X14240608Y-11403211D02*
X14231084Y-11374640D01*
X14231084Y-11374640D02*
X14221560Y-11327021D01*
X14221560Y-11327021D02*
X14221560Y-11288926D01*
X14221560Y-11288926D02*
X14231084Y-11241307D01*
X14231084Y-11241307D02*
X14240608Y-11212735D01*
X14240608Y-11212735D02*
X14250131Y-11193688D01*
X14250131Y-11193688D02*
X14269179Y-11165116D01*
X14269179Y-11165116D02*
X14278703Y-11155592D01*
X14440608Y-11250830D02*
X14440608Y-11384164D01*
X14392988Y-11174640D02*
X14345369Y-11317497D01*
X14345369Y-11317497D02*
X14469179Y-11317497D01*
X14697750Y-11384164D02*
X14697750Y-11184164D01*
X14783465Y-11384164D02*
X14783465Y-11279402D01*
X14783465Y-11279402D02*
X14773941Y-11260354D01*
X14773941Y-11260354D02*
X14754893Y-11250830D01*
X14754893Y-11250830D02*
X14726322Y-11250830D01*
X14726322Y-11250830D02*
X14707274Y-11260354D01*
X14707274Y-11260354D02*
X14697750Y-11269878D01*
X14907274Y-11384164D02*
X14888227Y-11374640D01*
X14888227Y-11374640D02*
X14878703Y-11365116D01*
X14878703Y-11365116D02*
X14869179Y-11346068D01*
X14869179Y-11346068D02*
X14869179Y-11288926D01*
X14869179Y-11288926D02*
X14878703Y-11269878D01*
X14878703Y-11269878D02*
X14888227Y-11260354D01*
X14888227Y-11260354D02*
X14907274Y-11250830D01*
X14907274Y-11250830D02*
X14935846Y-11250830D01*
X14935846Y-11250830D02*
X14954893Y-11260354D01*
X14954893Y-11260354D02*
X14964417Y-11269878D01*
X14964417Y-11269878D02*
X14973941Y-11288926D01*
X14973941Y-11288926D02*
X14973941Y-11346068D01*
X14973941Y-11346068D02*
X14964417Y-11365116D01*
X14964417Y-11365116D02*
X14954893Y-11374640D01*
X14954893Y-11374640D02*
X14935846Y-11384164D01*
X14935846Y-11384164D02*
X14907274Y-11384164D01*
X15088227Y-11384164D02*
X15069179Y-11374640D01*
X15069179Y-11374640D02*
X15059655Y-11355592D01*
X15059655Y-11355592D02*
X15059655Y-11184164D01*
X15240608Y-11374640D02*
X15221560Y-11384164D01*
X15221560Y-11384164D02*
X15183465Y-11384164D01*
X15183465Y-11384164D02*
X15164417Y-11374640D01*
X15164417Y-11374640D02*
X15154893Y-11355592D01*
X15154893Y-11355592D02*
X15154893Y-11279402D01*
X15154893Y-11279402D02*
X15164417Y-11260354D01*
X15164417Y-11260354D02*
X15183465Y-11250830D01*
X15183465Y-11250830D02*
X15221560Y-11250830D01*
X15221560Y-11250830D02*
X15240608Y-11260354D01*
X15240608Y-11260354D02*
X15250131Y-11279402D01*
X15250131Y-11279402D02*
X15250131Y-11298449D01*
X15250131Y-11298449D02*
X15154893Y-11317497D01*
X15326322Y-11374640D02*
X15345370Y-11384164D01*
X15345370Y-11384164D02*
X15383465Y-11384164D01*
X15383465Y-11384164D02*
X15402512Y-11374640D01*
X15402512Y-11374640D02*
X15412036Y-11355592D01*
X15412036Y-11355592D02*
X15412036Y-11346068D01*
X15412036Y-11346068D02*
X15402512Y-11327021D01*
X15402512Y-11327021D02*
X15383465Y-11317497D01*
X15383465Y-11317497D02*
X15354893Y-11317497D01*
X15354893Y-11317497D02*
X15335846Y-11307973D01*
X15335846Y-11307973D02*
X15326322Y-11288926D01*
X15326322Y-11288926D02*
X15326322Y-11279402D01*
X15326322Y-11279402D02*
X15335846Y-11260354D01*
X15335846Y-11260354D02*
X15354893Y-11250830D01*
X15354893Y-11250830D02*
X15383465Y-11250830D01*
X15383465Y-11250830D02*
X15402512Y-11260354D01*
X15478703Y-11460354D02*
X15488227Y-11450830D01*
X15488227Y-11450830D02*
X15507274Y-11422259D01*
X15507274Y-11422259D02*
X15516798Y-11403211D01*
X15516798Y-11403211D02*
X15526322Y-11374640D01*
X15526322Y-11374640D02*
X15535846Y-11327021D01*
X15535846Y-11327021D02*
X15535846Y-11288926D01*
X15535846Y-11288926D02*
X15526322Y-11241307D01*
X15526322Y-11241307D02*
X15516798Y-11212735D01*
X15516798Y-11212735D02*
X15507274Y-11193688D01*
X15507274Y-11193688D02*
X15488227Y-11165116D01*
X15488227Y-11165116D02*
X15478703Y-11155592D01*
D10*
X10703640Y-11556680D02*
G75*
G02*
X10673640Y-11556680I-15000J0D01*
G01*
X10673640Y-11556680D02*
G75*
G02*
X10703640Y-11556680I15000J0D01*
G01*
D12*
X11002512Y-11448164D02*
X11021560Y-11448164D01*
X11021560Y-11448164D02*
X11040607Y-11457688D01*
X11040607Y-11457688D02*
X11050131Y-11467211D01*
X11050131Y-11467211D02*
X11059655Y-11486259D01*
X11059655Y-11486259D02*
X11069179Y-11524354D01*
X11069179Y-11524354D02*
X11069179Y-11571973D01*
X11069179Y-11571973D02*
X11059655Y-11610068D01*
X11059655Y-11610068D02*
X11050131Y-11629116D01*
X11050131Y-11629116D02*
X11040607Y-11638640D01*
X11040607Y-11638640D02*
X11021560Y-11648164D01*
X11021560Y-11648164D02*
X11002512Y-11648164D01*
X11002512Y-11648164D02*
X10983464Y-11638640D01*
X10983464Y-11638640D02*
X10973941Y-11629116D01*
X10973941Y-11629116D02*
X10964417Y-11610068D01*
X10964417Y-11610068D02*
X10954893Y-11571973D01*
X10954893Y-11571973D02*
X10954893Y-11524354D01*
X10954893Y-11524354D02*
X10964417Y-11486259D01*
X10964417Y-11486259D02*
X10973941Y-11467211D01*
X10973941Y-11467211D02*
X10983464Y-11457688D01*
X10983464Y-11457688D02*
X11002512Y-11448164D01*
X11154893Y-11629116D02*
X11164417Y-11638640D01*
X11164417Y-11638640D02*
X11154893Y-11648164D01*
X11154893Y-11648164D02*
X11145369Y-11638640D01*
X11145369Y-11638640D02*
X11154893Y-11629116D01*
X11154893Y-11629116D02*
X11154893Y-11648164D01*
X11231083Y-11448164D02*
X11354893Y-11448164D01*
X11354893Y-11448164D02*
X11288226Y-11524354D01*
X11288226Y-11524354D02*
X11316798Y-11524354D01*
X11316798Y-11524354D02*
X11335845Y-11533878D01*
X11335845Y-11533878D02*
X11345369Y-11543402D01*
X11345369Y-11543402D02*
X11354893Y-11562449D01*
X11354893Y-11562449D02*
X11354893Y-11610068D01*
X11354893Y-11610068D02*
X11345369Y-11629116D01*
X11345369Y-11629116D02*
X11335845Y-11638640D01*
X11335845Y-11638640D02*
X11316798Y-11648164D01*
X11316798Y-11648164D02*
X11259655Y-11648164D01*
X11259655Y-11648164D02*
X11240607Y-11638640D01*
X11240607Y-11638640D02*
X11231083Y-11629116D01*
X11478702Y-11448164D02*
X11497750Y-11448164D01*
X11497750Y-11448164D02*
X11516798Y-11457688D01*
X11516798Y-11457688D02*
X11526322Y-11467211D01*
X11526322Y-11467211D02*
X11535845Y-11486259D01*
X11535845Y-11486259D02*
X11545369Y-11524354D01*
X11545369Y-11524354D02*
X11545369Y-11571973D01*
X11545369Y-11571973D02*
X11535845Y-11610068D01*
X11535845Y-11610068D02*
X11526322Y-11629116D01*
X11526322Y-11629116D02*
X11516798Y-11638640D01*
X11516798Y-11638640D02*
X11497750Y-11648164D01*
X11497750Y-11648164D02*
X11478702Y-11648164D01*
X11478702Y-11648164D02*
X11459655Y-11638640D01*
X11459655Y-11638640D02*
X11450131Y-11629116D01*
X11450131Y-11629116D02*
X11440607Y-11610068D01*
X11440607Y-11610068D02*
X11431083Y-11571973D01*
X11431083Y-11571973D02*
X11431083Y-11524354D01*
X11431083Y-11524354D02*
X11440607Y-11486259D01*
X11440607Y-11486259D02*
X11450131Y-11467211D01*
X11450131Y-11467211D02*
X11459655Y-11457688D01*
X11459655Y-11457688D02*
X11478702Y-11448164D01*
X11669179Y-11448164D02*
X11688226Y-11448164D01*
X11688226Y-11448164D02*
X11707274Y-11457688D01*
X11707274Y-11457688D02*
X11716798Y-11467211D01*
X11716798Y-11467211D02*
X11726322Y-11486259D01*
X11726322Y-11486259D02*
X11735845Y-11524354D01*
X11735845Y-11524354D02*
X11735845Y-11571973D01*
X11735845Y-11571973D02*
X11726322Y-11610068D01*
X11726322Y-11610068D02*
X11716798Y-11629116D01*
X11716798Y-11629116D02*
X11707274Y-11638640D01*
X11707274Y-11638640D02*
X11688226Y-11648164D01*
X11688226Y-11648164D02*
X11669179Y-11648164D01*
X11669179Y-11648164D02*
X11650131Y-11638640D01*
X11650131Y-11638640D02*
X11640607Y-11629116D01*
X11640607Y-11629116D02*
X11631083Y-11610068D01*
X11631083Y-11610068D02*
X11621560Y-11571973D01*
X11621560Y-11571973D02*
X11621560Y-11524354D01*
X11621560Y-11524354D02*
X11631083Y-11486259D01*
X11631083Y-11486259D02*
X11640607Y-11467211D01*
X11640607Y-11467211D02*
X11650131Y-11457688D01*
X11650131Y-11457688D02*
X11669179Y-11448164D01*
X11821560Y-11648164D02*
X11821560Y-11514830D01*
X11821560Y-11533878D02*
X11831083Y-11524354D01*
X11831083Y-11524354D02*
X11850131Y-11514830D01*
X11850131Y-11514830D02*
X11878703Y-11514830D01*
X11878703Y-11514830D02*
X11897750Y-11524354D01*
X11897750Y-11524354D02*
X11907274Y-11543402D01*
X11907274Y-11543402D02*
X11907274Y-11648164D01*
X11907274Y-11543402D02*
X11916798Y-11524354D01*
X11916798Y-11524354D02*
X11935845Y-11514830D01*
X11935845Y-11514830D02*
X11964417Y-11514830D01*
X11964417Y-11514830D02*
X11983464Y-11524354D01*
X11983464Y-11524354D02*
X11992988Y-11543402D01*
X11992988Y-11543402D02*
X11992988Y-11648164D01*
X12088226Y-11648164D02*
X12088226Y-11514830D01*
X12088226Y-11533878D02*
X12097750Y-11524354D01*
X12097750Y-11524354D02*
X12116798Y-11514830D01*
X12116798Y-11514830D02*
X12145369Y-11514830D01*
X12145369Y-11514830D02*
X12164417Y-11524354D01*
X12164417Y-11524354D02*
X12173941Y-11543402D01*
X12173941Y-11543402D02*
X12173941Y-11648164D01*
X12173941Y-11543402D02*
X12183464Y-11524354D01*
X12183464Y-11524354D02*
X12202512Y-11514830D01*
X12202512Y-11514830D02*
X12231083Y-11514830D01*
X12231083Y-11514830D02*
X12250131Y-11524354D01*
X12250131Y-11524354D02*
X12259655Y-11543402D01*
X12259655Y-11543402D02*
X12259655Y-11648164D01*
X12650131Y-11438640D02*
X12478703Y-11695783D01*
X12907274Y-11448164D02*
X12926322Y-11448164D01*
X12926322Y-11448164D02*
X12945369Y-11457688D01*
X12945369Y-11457688D02*
X12954893Y-11467211D01*
X12954893Y-11467211D02*
X12964417Y-11486259D01*
X12964417Y-11486259D02*
X12973941Y-11524354D01*
X12973941Y-11524354D02*
X12973941Y-11571973D01*
X12973941Y-11571973D02*
X12964417Y-11610068D01*
X12964417Y-11610068D02*
X12954893Y-11629116D01*
X12954893Y-11629116D02*
X12945369Y-11638640D01*
X12945369Y-11638640D02*
X12926322Y-11648164D01*
X12926322Y-11648164D02*
X12907274Y-11648164D01*
X12907274Y-11648164D02*
X12888226Y-11638640D01*
X12888226Y-11638640D02*
X12878703Y-11629116D01*
X12878703Y-11629116D02*
X12869179Y-11610068D01*
X12869179Y-11610068D02*
X12859655Y-11571973D01*
X12859655Y-11571973D02*
X12859655Y-11524354D01*
X12859655Y-11524354D02*
X12869179Y-11486259D01*
X12869179Y-11486259D02*
X12878703Y-11467211D01*
X12878703Y-11467211D02*
X12888226Y-11457688D01*
X12888226Y-11457688D02*
X12907274Y-11448164D01*
X13059655Y-11629116D02*
X13069179Y-11638640D01*
X13069179Y-11638640D02*
X13059655Y-11648164D01*
X13059655Y-11648164D02*
X13050131Y-11638640D01*
X13050131Y-11638640D02*
X13059655Y-11629116D01*
X13059655Y-11629116D02*
X13059655Y-11648164D01*
X13192988Y-11448164D02*
X13212036Y-11448164D01*
X13212036Y-11448164D02*
X13231084Y-11457688D01*
X13231084Y-11457688D02*
X13240607Y-11467211D01*
X13240607Y-11467211D02*
X13250131Y-11486259D01*
X13250131Y-11486259D02*
X13259655Y-11524354D01*
X13259655Y-11524354D02*
X13259655Y-11571973D01*
X13259655Y-11571973D02*
X13250131Y-11610068D01*
X13250131Y-11610068D02*
X13240607Y-11629116D01*
X13240607Y-11629116D02*
X13231084Y-11638640D01*
X13231084Y-11638640D02*
X13212036Y-11648164D01*
X13212036Y-11648164D02*
X13192988Y-11648164D01*
X13192988Y-11648164D02*
X13173941Y-11638640D01*
X13173941Y-11638640D02*
X13164417Y-11629116D01*
X13164417Y-11629116D02*
X13154893Y-11610068D01*
X13154893Y-11610068D02*
X13145369Y-11571973D01*
X13145369Y-11571973D02*
X13145369Y-11524354D01*
X13145369Y-11524354D02*
X13154893Y-11486259D01*
X13154893Y-11486259D02*
X13164417Y-11467211D01*
X13164417Y-11467211D02*
X13173941Y-11457688D01*
X13173941Y-11457688D02*
X13192988Y-11448164D01*
X13450131Y-11648164D02*
X13335846Y-11648164D01*
X13392988Y-11648164D02*
X13392988Y-11448164D01*
X13392988Y-11448164D02*
X13373941Y-11476735D01*
X13373941Y-11476735D02*
X13354893Y-11495783D01*
X13354893Y-11495783D02*
X13335846Y-11505307D01*
X13640607Y-11648164D02*
X13526322Y-11648164D01*
X13583465Y-11648164D02*
X13583465Y-11448164D01*
X13583465Y-11448164D02*
X13564417Y-11476735D01*
X13564417Y-11476735D02*
X13545369Y-11495783D01*
X13545369Y-11495783D02*
X13526322Y-11505307D01*
X13754893Y-11533878D02*
X13735846Y-11524354D01*
X13735846Y-11524354D02*
X13726322Y-11514830D01*
X13726322Y-11514830D02*
X13716798Y-11495783D01*
X13716798Y-11495783D02*
X13716798Y-11486259D01*
X13716798Y-11486259D02*
X13726322Y-11467211D01*
X13726322Y-11467211D02*
X13735846Y-11457688D01*
X13735846Y-11457688D02*
X13754893Y-11448164D01*
X13754893Y-11448164D02*
X13792988Y-11448164D01*
X13792988Y-11448164D02*
X13812036Y-11457688D01*
X13812036Y-11457688D02*
X13821560Y-11467211D01*
X13821560Y-11467211D02*
X13831084Y-11486259D01*
X13831084Y-11486259D02*
X13831084Y-11495783D01*
X13831084Y-11495783D02*
X13821560Y-11514830D01*
X13821560Y-11514830D02*
X13812036Y-11524354D01*
X13812036Y-11524354D02*
X13792988Y-11533878D01*
X13792988Y-11533878D02*
X13754893Y-11533878D01*
X13754893Y-11533878D02*
X13735846Y-11543402D01*
X13735846Y-11543402D02*
X13726322Y-11552926D01*
X13726322Y-11552926D02*
X13716798Y-11571973D01*
X13716798Y-11571973D02*
X13716798Y-11610068D01*
X13716798Y-11610068D02*
X13726322Y-11629116D01*
X13726322Y-11629116D02*
X13735846Y-11638640D01*
X13735846Y-11638640D02*
X13754893Y-11648164D01*
X13754893Y-11648164D02*
X13792988Y-11648164D01*
X13792988Y-11648164D02*
X13812036Y-11638640D01*
X13812036Y-11638640D02*
X13821560Y-11629116D01*
X13821560Y-11629116D02*
X13831084Y-11610068D01*
X13831084Y-11610068D02*
X13831084Y-11571973D01*
X13831084Y-11571973D02*
X13821560Y-11552926D01*
X13821560Y-11552926D02*
X13812036Y-11543402D01*
X13812036Y-11543402D02*
X13792988Y-11533878D01*
X13907274Y-11448164D02*
X13907274Y-11486259D01*
X13983465Y-11448164D02*
X13983465Y-11486259D01*
X14278703Y-11724354D02*
X14269179Y-11714830D01*
X14269179Y-11714830D02*
X14250131Y-11686259D01*
X14250131Y-11686259D02*
X14240608Y-11667211D01*
X14240608Y-11667211D02*
X14231084Y-11638640D01*
X14231084Y-11638640D02*
X14221560Y-11591021D01*
X14221560Y-11591021D02*
X14221560Y-11552926D01*
X14221560Y-11552926D02*
X14231084Y-11505307D01*
X14231084Y-11505307D02*
X14240608Y-11476735D01*
X14240608Y-11476735D02*
X14250131Y-11457688D01*
X14250131Y-11457688D02*
X14269179Y-11429116D01*
X14269179Y-11429116D02*
X14278703Y-11419592D01*
X14459655Y-11648164D02*
X14345369Y-11648164D01*
X14402512Y-11648164D02*
X14402512Y-11448164D01*
X14402512Y-11448164D02*
X14383465Y-11476735D01*
X14383465Y-11476735D02*
X14364417Y-11495783D01*
X14364417Y-11495783D02*
X14345369Y-11505307D01*
X14535846Y-11467211D02*
X14545369Y-11457688D01*
X14545369Y-11457688D02*
X14564417Y-11448164D01*
X14564417Y-11448164D02*
X14612036Y-11448164D01*
X14612036Y-11448164D02*
X14631084Y-11457688D01*
X14631084Y-11457688D02*
X14640608Y-11467211D01*
X14640608Y-11467211D02*
X14650131Y-11486259D01*
X14650131Y-11486259D02*
X14650131Y-11505307D01*
X14650131Y-11505307D02*
X14640608Y-11533878D01*
X14640608Y-11533878D02*
X14526322Y-11648164D01*
X14526322Y-11648164D02*
X14650131Y-11648164D01*
X14764417Y-11533878D02*
X14745369Y-11524354D01*
X14745369Y-11524354D02*
X14735846Y-11514830D01*
X14735846Y-11514830D02*
X14726322Y-11495783D01*
X14726322Y-11495783D02*
X14726322Y-11486259D01*
X14726322Y-11486259D02*
X14735846Y-11467211D01*
X14735846Y-11467211D02*
X14745369Y-11457688D01*
X14745369Y-11457688D02*
X14764417Y-11448164D01*
X14764417Y-11448164D02*
X14802512Y-11448164D01*
X14802512Y-11448164D02*
X14821560Y-11457688D01*
X14821560Y-11457688D02*
X14831084Y-11467211D01*
X14831084Y-11467211D02*
X14840608Y-11486259D01*
X14840608Y-11486259D02*
X14840608Y-11495783D01*
X14840608Y-11495783D02*
X14831084Y-11514830D01*
X14831084Y-11514830D02*
X14821560Y-11524354D01*
X14821560Y-11524354D02*
X14802512Y-11533878D01*
X14802512Y-11533878D02*
X14764417Y-11533878D01*
X14764417Y-11533878D02*
X14745369Y-11543402D01*
X14745369Y-11543402D02*
X14735846Y-11552926D01*
X14735846Y-11552926D02*
X14726322Y-11571973D01*
X14726322Y-11571973D02*
X14726322Y-11610068D01*
X14726322Y-11610068D02*
X14735846Y-11629116D01*
X14735846Y-11629116D02*
X14745369Y-11638640D01*
X14745369Y-11638640D02*
X14764417Y-11648164D01*
X14764417Y-11648164D02*
X14802512Y-11648164D01*
X14802512Y-11648164D02*
X14821560Y-11638640D01*
X14821560Y-11638640D02*
X14831084Y-11629116D01*
X14831084Y-11629116D02*
X14840608Y-11610068D01*
X14840608Y-11610068D02*
X14840608Y-11571973D01*
X14840608Y-11571973D02*
X14831084Y-11552926D01*
X14831084Y-11552926D02*
X14821560Y-11543402D01*
X14821560Y-11543402D02*
X14802512Y-11533878D01*
X15078703Y-11648164D02*
X15078703Y-11448164D01*
X15164417Y-11648164D02*
X15164417Y-11543402D01*
X15164417Y-11543402D02*
X15154893Y-11524354D01*
X15154893Y-11524354D02*
X15135846Y-11514830D01*
X15135846Y-11514830D02*
X15107274Y-11514830D01*
X15107274Y-11514830D02*
X15088227Y-11524354D01*
X15088227Y-11524354D02*
X15078703Y-11533878D01*
X15288227Y-11648164D02*
X15269179Y-11638640D01*
X15269179Y-11638640D02*
X15259655Y-11629116D01*
X15259655Y-11629116D02*
X15250131Y-11610068D01*
X15250131Y-11610068D02*
X15250131Y-11552926D01*
X15250131Y-11552926D02*
X15259655Y-11533878D01*
X15259655Y-11533878D02*
X15269179Y-11524354D01*
X15269179Y-11524354D02*
X15288227Y-11514830D01*
X15288227Y-11514830D02*
X15316798Y-11514830D01*
X15316798Y-11514830D02*
X15335846Y-11524354D01*
X15335846Y-11524354D02*
X15345370Y-11533878D01*
X15345370Y-11533878D02*
X15354893Y-11552926D01*
X15354893Y-11552926D02*
X15354893Y-11610068D01*
X15354893Y-11610068D02*
X15345370Y-11629116D01*
X15345370Y-11629116D02*
X15335846Y-11638640D01*
X15335846Y-11638640D02*
X15316798Y-11648164D01*
X15316798Y-11648164D02*
X15288227Y-11648164D01*
X15469179Y-11648164D02*
X15450131Y-11638640D01*
X15450131Y-11638640D02*
X15440608Y-11619592D01*
X15440608Y-11619592D02*
X15440608Y-11448164D01*
X15621560Y-11638640D02*
X15602512Y-11648164D01*
X15602512Y-11648164D02*
X15564417Y-11648164D01*
X15564417Y-11648164D02*
X15545370Y-11638640D01*
X15545370Y-11638640D02*
X15535846Y-11619592D01*
X15535846Y-11619592D02*
X15535846Y-11543402D01*
X15535846Y-11543402D02*
X15545370Y-11524354D01*
X15545370Y-11524354D02*
X15564417Y-11514830D01*
X15564417Y-11514830D02*
X15602512Y-11514830D01*
X15602512Y-11514830D02*
X15621560Y-11524354D01*
X15621560Y-11524354D02*
X15631084Y-11543402D01*
X15631084Y-11543402D02*
X15631084Y-11562449D01*
X15631084Y-11562449D02*
X15535846Y-11581497D01*
X15707274Y-11638640D02*
X15726322Y-11648164D01*
X15726322Y-11648164D02*
X15764417Y-11648164D01*
X15764417Y-11648164D02*
X15783465Y-11638640D01*
X15783465Y-11638640D02*
X15792989Y-11619592D01*
X15792989Y-11619592D02*
X15792989Y-11610068D01*
X15792989Y-11610068D02*
X15783465Y-11591021D01*
X15783465Y-11591021D02*
X15764417Y-11581497D01*
X15764417Y-11581497D02*
X15735846Y-11581497D01*
X15735846Y-11581497D02*
X15716798Y-11571973D01*
X15716798Y-11571973D02*
X15707274Y-11552926D01*
X15707274Y-11552926D02*
X15707274Y-11543402D01*
X15707274Y-11543402D02*
X15716798Y-11524354D01*
X15716798Y-11524354D02*
X15735846Y-11514830D01*
X15735846Y-11514830D02*
X15764417Y-11514830D01*
X15764417Y-11514830D02*
X15783465Y-11524354D01*
X15859655Y-11724354D02*
X15869179Y-11714830D01*
X15869179Y-11714830D02*
X15888227Y-11686259D01*
X15888227Y-11686259D02*
X15897751Y-11667211D01*
X15897751Y-11667211D02*
X15907274Y-11638640D01*
X15907274Y-11638640D02*
X15916798Y-11591021D01*
X15916798Y-11591021D02*
X15916798Y-11552926D01*
X15916798Y-11552926D02*
X15907274Y-11505307D01*
X15907274Y-11505307D02*
X15897751Y-11476735D01*
X15897751Y-11476735D02*
X15888227Y-11457688D01*
X15888227Y-11457688D02*
X15869179Y-11429116D01*
X15869179Y-11429116D02*
X15859655Y-11419592D01*
D10*
X10678640Y-11795680D02*
X10678640Y-11845680D01*
X10653640Y-11820680D02*
X10703640Y-11820680D01*
D12*
X11002512Y-11712164D02*
X11021560Y-11712164D01*
X11021560Y-11712164D02*
X11040607Y-11721688D01*
X11040607Y-11721688D02*
X11050131Y-11731211D01*
X11050131Y-11731211D02*
X11059655Y-11750259D01*
X11059655Y-11750259D02*
X11069179Y-11788354D01*
X11069179Y-11788354D02*
X11069179Y-11835973D01*
X11069179Y-11835973D02*
X11059655Y-11874068D01*
X11059655Y-11874068D02*
X11050131Y-11893116D01*
X11050131Y-11893116D02*
X11040607Y-11902640D01*
X11040607Y-11902640D02*
X11021560Y-11912164D01*
X11021560Y-11912164D02*
X11002512Y-11912164D01*
X11002512Y-11912164D02*
X10983464Y-11902640D01*
X10983464Y-11902640D02*
X10973941Y-11893116D01*
X10973941Y-11893116D02*
X10964417Y-11874068D01*
X10964417Y-11874068D02*
X10954893Y-11835973D01*
X10954893Y-11835973D02*
X10954893Y-11788354D01*
X10954893Y-11788354D02*
X10964417Y-11750259D01*
X10964417Y-11750259D02*
X10973941Y-11731211D01*
X10973941Y-11731211D02*
X10983464Y-11721688D01*
X10983464Y-11721688D02*
X11002512Y-11712164D01*
X11154893Y-11893116D02*
X11164417Y-11902640D01*
X11164417Y-11902640D02*
X11154893Y-11912164D01*
X11154893Y-11912164D02*
X11145369Y-11902640D01*
X11145369Y-11902640D02*
X11154893Y-11893116D01*
X11154893Y-11893116D02*
X11154893Y-11912164D01*
X11345369Y-11712164D02*
X11250131Y-11712164D01*
X11250131Y-11712164D02*
X11240607Y-11807402D01*
X11240607Y-11807402D02*
X11250131Y-11797878D01*
X11250131Y-11797878D02*
X11269179Y-11788354D01*
X11269179Y-11788354D02*
X11316798Y-11788354D01*
X11316798Y-11788354D02*
X11335845Y-11797878D01*
X11335845Y-11797878D02*
X11345369Y-11807402D01*
X11345369Y-11807402D02*
X11354893Y-11826449D01*
X11354893Y-11826449D02*
X11354893Y-11874068D01*
X11354893Y-11874068D02*
X11345369Y-11893116D01*
X11345369Y-11893116D02*
X11335845Y-11902640D01*
X11335845Y-11902640D02*
X11316798Y-11912164D01*
X11316798Y-11912164D02*
X11269179Y-11912164D01*
X11269179Y-11912164D02*
X11250131Y-11902640D01*
X11250131Y-11902640D02*
X11240607Y-11893116D01*
X11478702Y-11712164D02*
X11497750Y-11712164D01*
X11497750Y-11712164D02*
X11516798Y-11721688D01*
X11516798Y-11721688D02*
X11526322Y-11731211D01*
X11526322Y-11731211D02*
X11535845Y-11750259D01*
X11535845Y-11750259D02*
X11545369Y-11788354D01*
X11545369Y-11788354D02*
X11545369Y-11835973D01*
X11545369Y-11835973D02*
X11535845Y-11874068D01*
X11535845Y-11874068D02*
X11526322Y-11893116D01*
X11526322Y-11893116D02*
X11516798Y-11902640D01*
X11516798Y-11902640D02*
X11497750Y-11912164D01*
X11497750Y-11912164D02*
X11478702Y-11912164D01*
X11478702Y-11912164D02*
X11459655Y-11902640D01*
X11459655Y-11902640D02*
X11450131Y-11893116D01*
X11450131Y-11893116D02*
X11440607Y-11874068D01*
X11440607Y-11874068D02*
X11431083Y-11835973D01*
X11431083Y-11835973D02*
X11431083Y-11788354D01*
X11431083Y-11788354D02*
X11440607Y-11750259D01*
X11440607Y-11750259D02*
X11450131Y-11731211D01*
X11450131Y-11731211D02*
X11459655Y-11721688D01*
X11459655Y-11721688D02*
X11478702Y-11712164D01*
X11669179Y-11712164D02*
X11688226Y-11712164D01*
X11688226Y-11712164D02*
X11707274Y-11721688D01*
X11707274Y-11721688D02*
X11716798Y-11731211D01*
X11716798Y-11731211D02*
X11726322Y-11750259D01*
X11726322Y-11750259D02*
X11735845Y-11788354D01*
X11735845Y-11788354D02*
X11735845Y-11835973D01*
X11735845Y-11835973D02*
X11726322Y-11874068D01*
X11726322Y-11874068D02*
X11716798Y-11893116D01*
X11716798Y-11893116D02*
X11707274Y-11902640D01*
X11707274Y-11902640D02*
X11688226Y-11912164D01*
X11688226Y-11912164D02*
X11669179Y-11912164D01*
X11669179Y-11912164D02*
X11650131Y-11902640D01*
X11650131Y-11902640D02*
X11640607Y-11893116D01*
X11640607Y-11893116D02*
X11631083Y-11874068D01*
X11631083Y-11874068D02*
X11621560Y-11835973D01*
X11621560Y-11835973D02*
X11621560Y-11788354D01*
X11621560Y-11788354D02*
X11631083Y-11750259D01*
X11631083Y-11750259D02*
X11640607Y-11731211D01*
X11640607Y-11731211D02*
X11650131Y-11721688D01*
X11650131Y-11721688D02*
X11669179Y-11712164D01*
X11821560Y-11912164D02*
X11821560Y-11778830D01*
X11821560Y-11797878D02*
X11831083Y-11788354D01*
X11831083Y-11788354D02*
X11850131Y-11778830D01*
X11850131Y-11778830D02*
X11878703Y-11778830D01*
X11878703Y-11778830D02*
X11897750Y-11788354D01*
X11897750Y-11788354D02*
X11907274Y-11807402D01*
X11907274Y-11807402D02*
X11907274Y-11912164D01*
X11907274Y-11807402D02*
X11916798Y-11788354D01*
X11916798Y-11788354D02*
X11935845Y-11778830D01*
X11935845Y-11778830D02*
X11964417Y-11778830D01*
X11964417Y-11778830D02*
X11983464Y-11788354D01*
X11983464Y-11788354D02*
X11992988Y-11807402D01*
X11992988Y-11807402D02*
X11992988Y-11912164D01*
X12088226Y-11912164D02*
X12088226Y-11778830D01*
X12088226Y-11797878D02*
X12097750Y-11788354D01*
X12097750Y-11788354D02*
X12116798Y-11778830D01*
X12116798Y-11778830D02*
X12145369Y-11778830D01*
X12145369Y-11778830D02*
X12164417Y-11788354D01*
X12164417Y-11788354D02*
X12173941Y-11807402D01*
X12173941Y-11807402D02*
X12173941Y-11912164D01*
X12173941Y-11807402D02*
X12183464Y-11788354D01*
X12183464Y-11788354D02*
X12202512Y-11778830D01*
X12202512Y-11778830D02*
X12231083Y-11778830D01*
X12231083Y-11778830D02*
X12250131Y-11788354D01*
X12250131Y-11788354D02*
X12259655Y-11807402D01*
X12259655Y-11807402D02*
X12259655Y-11912164D01*
X12650131Y-11702640D02*
X12478703Y-11959783D01*
X12907274Y-11712164D02*
X12926322Y-11712164D01*
X12926322Y-11712164D02*
X12945369Y-11721688D01*
X12945369Y-11721688D02*
X12954893Y-11731211D01*
X12954893Y-11731211D02*
X12964417Y-11750259D01*
X12964417Y-11750259D02*
X12973941Y-11788354D01*
X12973941Y-11788354D02*
X12973941Y-11835973D01*
X12973941Y-11835973D02*
X12964417Y-11874068D01*
X12964417Y-11874068D02*
X12954893Y-11893116D01*
X12954893Y-11893116D02*
X12945369Y-11902640D01*
X12945369Y-11902640D02*
X12926322Y-11912164D01*
X12926322Y-11912164D02*
X12907274Y-11912164D01*
X12907274Y-11912164D02*
X12888226Y-11902640D01*
X12888226Y-11902640D02*
X12878703Y-11893116D01*
X12878703Y-11893116D02*
X12869179Y-11874068D01*
X12869179Y-11874068D02*
X12859655Y-11835973D01*
X12859655Y-11835973D02*
X12859655Y-11788354D01*
X12859655Y-11788354D02*
X12869179Y-11750259D01*
X12869179Y-11750259D02*
X12878703Y-11731211D01*
X12878703Y-11731211D02*
X12888226Y-11721688D01*
X12888226Y-11721688D02*
X12907274Y-11712164D01*
X13059655Y-11893116D02*
X13069179Y-11902640D01*
X13069179Y-11902640D02*
X13059655Y-11912164D01*
X13059655Y-11912164D02*
X13050131Y-11902640D01*
X13050131Y-11902640D02*
X13059655Y-11893116D01*
X13059655Y-11893116D02*
X13059655Y-11912164D01*
X13192988Y-11712164D02*
X13212036Y-11712164D01*
X13212036Y-11712164D02*
X13231084Y-11721688D01*
X13231084Y-11721688D02*
X13240607Y-11731211D01*
X13240607Y-11731211D02*
X13250131Y-11750259D01*
X13250131Y-11750259D02*
X13259655Y-11788354D01*
X13259655Y-11788354D02*
X13259655Y-11835973D01*
X13259655Y-11835973D02*
X13250131Y-11874068D01*
X13250131Y-11874068D02*
X13240607Y-11893116D01*
X13240607Y-11893116D02*
X13231084Y-11902640D01*
X13231084Y-11902640D02*
X13212036Y-11912164D01*
X13212036Y-11912164D02*
X13192988Y-11912164D01*
X13192988Y-11912164D02*
X13173941Y-11902640D01*
X13173941Y-11902640D02*
X13164417Y-11893116D01*
X13164417Y-11893116D02*
X13154893Y-11874068D01*
X13154893Y-11874068D02*
X13145369Y-11835973D01*
X13145369Y-11835973D02*
X13145369Y-11788354D01*
X13145369Y-11788354D02*
X13154893Y-11750259D01*
X13154893Y-11750259D02*
X13164417Y-11731211D01*
X13164417Y-11731211D02*
X13173941Y-11721688D01*
X13173941Y-11721688D02*
X13192988Y-11712164D01*
X13450131Y-11912164D02*
X13335846Y-11912164D01*
X13392988Y-11912164D02*
X13392988Y-11712164D01*
X13392988Y-11712164D02*
X13373941Y-11740735D01*
X13373941Y-11740735D02*
X13354893Y-11759783D01*
X13354893Y-11759783D02*
X13335846Y-11769307D01*
X13545369Y-11912164D02*
X13583465Y-11912164D01*
X13583465Y-11912164D02*
X13602512Y-11902640D01*
X13602512Y-11902640D02*
X13612036Y-11893116D01*
X13612036Y-11893116D02*
X13631084Y-11864545D01*
X13631084Y-11864545D02*
X13640607Y-11826449D01*
X13640607Y-11826449D02*
X13640607Y-11750259D01*
X13640607Y-11750259D02*
X13631084Y-11731211D01*
X13631084Y-11731211D02*
X13621560Y-11721688D01*
X13621560Y-11721688D02*
X13602512Y-11712164D01*
X13602512Y-11712164D02*
X13564417Y-11712164D01*
X13564417Y-11712164D02*
X13545369Y-11721688D01*
X13545369Y-11721688D02*
X13535846Y-11731211D01*
X13535846Y-11731211D02*
X13526322Y-11750259D01*
X13526322Y-11750259D02*
X13526322Y-11797878D01*
X13526322Y-11797878D02*
X13535846Y-11816926D01*
X13535846Y-11816926D02*
X13545369Y-11826449D01*
X13545369Y-11826449D02*
X13564417Y-11835973D01*
X13564417Y-11835973D02*
X13602512Y-11835973D01*
X13602512Y-11835973D02*
X13621560Y-11826449D01*
X13621560Y-11826449D02*
X13631084Y-11816926D01*
X13631084Y-11816926D02*
X13640607Y-11797878D01*
X13707274Y-11712164D02*
X13840607Y-11712164D01*
X13840607Y-11712164D02*
X13754893Y-11912164D01*
X13907274Y-11712164D02*
X13907274Y-11750259D01*
X13983465Y-11712164D02*
X13983465Y-11750259D01*
X14278703Y-11988354D02*
X14269179Y-11978830D01*
X14269179Y-11978830D02*
X14250131Y-11950259D01*
X14250131Y-11950259D02*
X14240608Y-11931211D01*
X14240608Y-11931211D02*
X14231084Y-11902640D01*
X14231084Y-11902640D02*
X14221560Y-11855021D01*
X14221560Y-11855021D02*
X14221560Y-11816926D01*
X14221560Y-11816926D02*
X14231084Y-11769307D01*
X14231084Y-11769307D02*
X14240608Y-11740735D01*
X14240608Y-11740735D02*
X14250131Y-11721688D01*
X14250131Y-11721688D02*
X14269179Y-11693116D01*
X14269179Y-11693116D02*
X14278703Y-11683592D01*
X14440608Y-11778830D02*
X14440608Y-11912164D01*
X14392988Y-11702640D02*
X14345369Y-11845497D01*
X14345369Y-11845497D02*
X14469179Y-11845497D01*
X14697750Y-11912164D02*
X14697750Y-11712164D01*
X14783465Y-11912164D02*
X14783465Y-11807402D01*
X14783465Y-11807402D02*
X14773941Y-11788354D01*
X14773941Y-11788354D02*
X14754893Y-11778830D01*
X14754893Y-11778830D02*
X14726322Y-11778830D01*
X14726322Y-11778830D02*
X14707274Y-11788354D01*
X14707274Y-11788354D02*
X14697750Y-11797878D01*
X14907274Y-11912164D02*
X14888227Y-11902640D01*
X14888227Y-11902640D02*
X14878703Y-11893116D01*
X14878703Y-11893116D02*
X14869179Y-11874068D01*
X14869179Y-11874068D02*
X14869179Y-11816926D01*
X14869179Y-11816926D02*
X14878703Y-11797878D01*
X14878703Y-11797878D02*
X14888227Y-11788354D01*
X14888227Y-11788354D02*
X14907274Y-11778830D01*
X14907274Y-11778830D02*
X14935846Y-11778830D01*
X14935846Y-11778830D02*
X14954893Y-11788354D01*
X14954893Y-11788354D02*
X14964417Y-11797878D01*
X14964417Y-11797878D02*
X14973941Y-11816926D01*
X14973941Y-11816926D02*
X14973941Y-11874068D01*
X14973941Y-11874068D02*
X14964417Y-11893116D01*
X14964417Y-11893116D02*
X14954893Y-11902640D01*
X14954893Y-11902640D02*
X14935846Y-11912164D01*
X14935846Y-11912164D02*
X14907274Y-11912164D01*
X15088227Y-11912164D02*
X15069179Y-11902640D01*
X15069179Y-11902640D02*
X15059655Y-11883592D01*
X15059655Y-11883592D02*
X15059655Y-11712164D01*
X15240608Y-11902640D02*
X15221560Y-11912164D01*
X15221560Y-11912164D02*
X15183465Y-11912164D01*
X15183465Y-11912164D02*
X15164417Y-11902640D01*
X15164417Y-11902640D02*
X15154893Y-11883592D01*
X15154893Y-11883592D02*
X15154893Y-11807402D01*
X15154893Y-11807402D02*
X15164417Y-11788354D01*
X15164417Y-11788354D02*
X15183465Y-11778830D01*
X15183465Y-11778830D02*
X15221560Y-11778830D01*
X15221560Y-11778830D02*
X15240608Y-11788354D01*
X15240608Y-11788354D02*
X15250131Y-11807402D01*
X15250131Y-11807402D02*
X15250131Y-11826449D01*
X15250131Y-11826449D02*
X15154893Y-11845497D01*
X15326322Y-11902640D02*
X15345370Y-11912164D01*
X15345370Y-11912164D02*
X15383465Y-11912164D01*
X15383465Y-11912164D02*
X15402512Y-11902640D01*
X15402512Y-11902640D02*
X15412036Y-11883592D01*
X15412036Y-11883592D02*
X15412036Y-11874068D01*
X15412036Y-11874068D02*
X15402512Y-11855021D01*
X15402512Y-11855021D02*
X15383465Y-11845497D01*
X15383465Y-11845497D02*
X15354893Y-11845497D01*
X15354893Y-11845497D02*
X15335846Y-11835973D01*
X15335846Y-11835973D02*
X15326322Y-11816926D01*
X15326322Y-11816926D02*
X15326322Y-11807402D01*
X15326322Y-11807402D02*
X15335846Y-11788354D01*
X15335846Y-11788354D02*
X15354893Y-11778830D01*
X15354893Y-11778830D02*
X15383465Y-11778830D01*
X15383465Y-11778830D02*
X15402512Y-11788354D01*
X15478703Y-11988354D02*
X15488227Y-11978830D01*
X15488227Y-11978830D02*
X15507274Y-11950259D01*
X15507274Y-11950259D02*
X15516798Y-11931211D01*
X15516798Y-11931211D02*
X15526322Y-11902640D01*
X15526322Y-11902640D02*
X15535846Y-11855021D01*
X15535846Y-11855021D02*
X15535846Y-11816926D01*
X15535846Y-11816926D02*
X15526322Y-11769307D01*
X15526322Y-11769307D02*
X15516798Y-11740735D01*
X15516798Y-11740735D02*
X15507274Y-11721688D01*
X15507274Y-11721688D02*
X15488227Y-11693116D01*
X15488227Y-11693116D02*
X15478703Y-11683592D01*
D10*
X10688996Y-12120036D02*
X10688996Y-12049324D01*
X10618284Y-12049324D01*
X10618284Y-12120036D01*
X10688996Y-12120036D01*
D12*
X11069179Y-12176164D02*
X10954893Y-12176164D01*
X11012036Y-12176164D02*
X11012036Y-11976164D01*
X11012036Y-11976164D02*
X10992988Y-12004735D01*
X10992988Y-12004735D02*
X10973941Y-12023783D01*
X10973941Y-12023783D02*
X10954893Y-12033307D01*
X11154893Y-12157116D02*
X11164417Y-12166640D01*
X11164417Y-12166640D02*
X11154893Y-12176164D01*
X11154893Y-12176164D02*
X11145369Y-12166640D01*
X11145369Y-12166640D02*
X11154893Y-12157116D01*
X11154893Y-12157116D02*
X11154893Y-12176164D01*
X11288226Y-11976164D02*
X11307274Y-11976164D01*
X11307274Y-11976164D02*
X11326322Y-11985688D01*
X11326322Y-11985688D02*
X11335845Y-11995211D01*
X11335845Y-11995211D02*
X11345369Y-12014259D01*
X11345369Y-12014259D02*
X11354893Y-12052354D01*
X11354893Y-12052354D02*
X11354893Y-12099973D01*
X11354893Y-12099973D02*
X11345369Y-12138068D01*
X11345369Y-12138068D02*
X11335845Y-12157116D01*
X11335845Y-12157116D02*
X11326322Y-12166640D01*
X11326322Y-12166640D02*
X11307274Y-12176164D01*
X11307274Y-12176164D02*
X11288226Y-12176164D01*
X11288226Y-12176164D02*
X11269179Y-12166640D01*
X11269179Y-12166640D02*
X11259655Y-12157116D01*
X11259655Y-12157116D02*
X11250131Y-12138068D01*
X11250131Y-12138068D02*
X11240607Y-12099973D01*
X11240607Y-12099973D02*
X11240607Y-12052354D01*
X11240607Y-12052354D02*
X11250131Y-12014259D01*
X11250131Y-12014259D02*
X11259655Y-11995211D01*
X11259655Y-11995211D02*
X11269179Y-11985688D01*
X11269179Y-11985688D02*
X11288226Y-11976164D01*
X11478702Y-11976164D02*
X11497750Y-11976164D01*
X11497750Y-11976164D02*
X11516798Y-11985688D01*
X11516798Y-11985688D02*
X11526322Y-11995211D01*
X11526322Y-11995211D02*
X11535845Y-12014259D01*
X11535845Y-12014259D02*
X11545369Y-12052354D01*
X11545369Y-12052354D02*
X11545369Y-12099973D01*
X11545369Y-12099973D02*
X11535845Y-12138068D01*
X11535845Y-12138068D02*
X11526322Y-12157116D01*
X11526322Y-12157116D02*
X11516798Y-12166640D01*
X11516798Y-12166640D02*
X11497750Y-12176164D01*
X11497750Y-12176164D02*
X11478702Y-12176164D01*
X11478702Y-12176164D02*
X11459655Y-12166640D01*
X11459655Y-12166640D02*
X11450131Y-12157116D01*
X11450131Y-12157116D02*
X11440607Y-12138068D01*
X11440607Y-12138068D02*
X11431083Y-12099973D01*
X11431083Y-12099973D02*
X11431083Y-12052354D01*
X11431083Y-12052354D02*
X11440607Y-12014259D01*
X11440607Y-12014259D02*
X11450131Y-11995211D01*
X11450131Y-11995211D02*
X11459655Y-11985688D01*
X11459655Y-11985688D02*
X11478702Y-11976164D01*
X11669179Y-11976164D02*
X11688226Y-11976164D01*
X11688226Y-11976164D02*
X11707274Y-11985688D01*
X11707274Y-11985688D02*
X11716798Y-11995211D01*
X11716798Y-11995211D02*
X11726322Y-12014259D01*
X11726322Y-12014259D02*
X11735845Y-12052354D01*
X11735845Y-12052354D02*
X11735845Y-12099973D01*
X11735845Y-12099973D02*
X11726322Y-12138068D01*
X11726322Y-12138068D02*
X11716798Y-12157116D01*
X11716798Y-12157116D02*
X11707274Y-12166640D01*
X11707274Y-12166640D02*
X11688226Y-12176164D01*
X11688226Y-12176164D02*
X11669179Y-12176164D01*
X11669179Y-12176164D02*
X11650131Y-12166640D01*
X11650131Y-12166640D02*
X11640607Y-12157116D01*
X11640607Y-12157116D02*
X11631083Y-12138068D01*
X11631083Y-12138068D02*
X11621560Y-12099973D01*
X11621560Y-12099973D02*
X11621560Y-12052354D01*
X11621560Y-12052354D02*
X11631083Y-12014259D01*
X11631083Y-12014259D02*
X11640607Y-11995211D01*
X11640607Y-11995211D02*
X11650131Y-11985688D01*
X11650131Y-11985688D02*
X11669179Y-11976164D01*
X11821560Y-12176164D02*
X11821560Y-12042830D01*
X11821560Y-12061878D02*
X11831083Y-12052354D01*
X11831083Y-12052354D02*
X11850131Y-12042830D01*
X11850131Y-12042830D02*
X11878703Y-12042830D01*
X11878703Y-12042830D02*
X11897750Y-12052354D01*
X11897750Y-12052354D02*
X11907274Y-12071402D01*
X11907274Y-12071402D02*
X11907274Y-12176164D01*
X11907274Y-12071402D02*
X11916798Y-12052354D01*
X11916798Y-12052354D02*
X11935845Y-12042830D01*
X11935845Y-12042830D02*
X11964417Y-12042830D01*
X11964417Y-12042830D02*
X11983464Y-12052354D01*
X11983464Y-12052354D02*
X11992988Y-12071402D01*
X11992988Y-12071402D02*
X11992988Y-12176164D01*
X12088226Y-12176164D02*
X12088226Y-12042830D01*
X12088226Y-12061878D02*
X12097750Y-12052354D01*
X12097750Y-12052354D02*
X12116798Y-12042830D01*
X12116798Y-12042830D02*
X12145369Y-12042830D01*
X12145369Y-12042830D02*
X12164417Y-12052354D01*
X12164417Y-12052354D02*
X12173941Y-12071402D01*
X12173941Y-12071402D02*
X12173941Y-12176164D01*
X12173941Y-12071402D02*
X12183464Y-12052354D01*
X12183464Y-12052354D02*
X12202512Y-12042830D01*
X12202512Y-12042830D02*
X12231083Y-12042830D01*
X12231083Y-12042830D02*
X12250131Y-12052354D01*
X12250131Y-12052354D02*
X12259655Y-12071402D01*
X12259655Y-12071402D02*
X12259655Y-12176164D01*
X12650131Y-11966640D02*
X12478703Y-12223783D01*
X12907274Y-11976164D02*
X12926322Y-11976164D01*
X12926322Y-11976164D02*
X12945369Y-11985688D01*
X12945369Y-11985688D02*
X12954893Y-11995211D01*
X12954893Y-11995211D02*
X12964417Y-12014259D01*
X12964417Y-12014259D02*
X12973941Y-12052354D01*
X12973941Y-12052354D02*
X12973941Y-12099973D01*
X12973941Y-12099973D02*
X12964417Y-12138068D01*
X12964417Y-12138068D02*
X12954893Y-12157116D01*
X12954893Y-12157116D02*
X12945369Y-12166640D01*
X12945369Y-12166640D02*
X12926322Y-12176164D01*
X12926322Y-12176164D02*
X12907274Y-12176164D01*
X12907274Y-12176164D02*
X12888226Y-12166640D01*
X12888226Y-12166640D02*
X12878703Y-12157116D01*
X12878703Y-12157116D02*
X12869179Y-12138068D01*
X12869179Y-12138068D02*
X12859655Y-12099973D01*
X12859655Y-12099973D02*
X12859655Y-12052354D01*
X12859655Y-12052354D02*
X12869179Y-12014259D01*
X12869179Y-12014259D02*
X12878703Y-11995211D01*
X12878703Y-11995211D02*
X12888226Y-11985688D01*
X12888226Y-11985688D02*
X12907274Y-11976164D01*
X13059655Y-12157116D02*
X13069179Y-12166640D01*
X13069179Y-12166640D02*
X13059655Y-12176164D01*
X13059655Y-12176164D02*
X13050131Y-12166640D01*
X13050131Y-12166640D02*
X13059655Y-12157116D01*
X13059655Y-12157116D02*
X13059655Y-12176164D01*
X13192988Y-11976164D02*
X13212036Y-11976164D01*
X13212036Y-11976164D02*
X13231084Y-11985688D01*
X13231084Y-11985688D02*
X13240607Y-11995211D01*
X13240607Y-11995211D02*
X13250131Y-12014259D01*
X13250131Y-12014259D02*
X13259655Y-12052354D01*
X13259655Y-12052354D02*
X13259655Y-12099973D01*
X13259655Y-12099973D02*
X13250131Y-12138068D01*
X13250131Y-12138068D02*
X13240607Y-12157116D01*
X13240607Y-12157116D02*
X13231084Y-12166640D01*
X13231084Y-12166640D02*
X13212036Y-12176164D01*
X13212036Y-12176164D02*
X13192988Y-12176164D01*
X13192988Y-12176164D02*
X13173941Y-12166640D01*
X13173941Y-12166640D02*
X13164417Y-12157116D01*
X13164417Y-12157116D02*
X13154893Y-12138068D01*
X13154893Y-12138068D02*
X13145369Y-12099973D01*
X13145369Y-12099973D02*
X13145369Y-12052354D01*
X13145369Y-12052354D02*
X13154893Y-12014259D01*
X13154893Y-12014259D02*
X13164417Y-11995211D01*
X13164417Y-11995211D02*
X13173941Y-11985688D01*
X13173941Y-11985688D02*
X13192988Y-11976164D01*
X13326322Y-11976164D02*
X13450131Y-11976164D01*
X13450131Y-11976164D02*
X13383465Y-12052354D01*
X13383465Y-12052354D02*
X13412036Y-12052354D01*
X13412036Y-12052354D02*
X13431084Y-12061878D01*
X13431084Y-12061878D02*
X13440607Y-12071402D01*
X13440607Y-12071402D02*
X13450131Y-12090449D01*
X13450131Y-12090449D02*
X13450131Y-12138068D01*
X13450131Y-12138068D02*
X13440607Y-12157116D01*
X13440607Y-12157116D02*
X13431084Y-12166640D01*
X13431084Y-12166640D02*
X13412036Y-12176164D01*
X13412036Y-12176164D02*
X13354893Y-12176164D01*
X13354893Y-12176164D02*
X13335846Y-12166640D01*
X13335846Y-12166640D02*
X13326322Y-12157116D01*
X13545369Y-12176164D02*
X13583465Y-12176164D01*
X13583465Y-12176164D02*
X13602512Y-12166640D01*
X13602512Y-12166640D02*
X13612036Y-12157116D01*
X13612036Y-12157116D02*
X13631084Y-12128545D01*
X13631084Y-12128545D02*
X13640607Y-12090449D01*
X13640607Y-12090449D02*
X13640607Y-12014259D01*
X13640607Y-12014259D02*
X13631084Y-11995211D01*
X13631084Y-11995211D02*
X13621560Y-11985688D01*
X13621560Y-11985688D02*
X13602512Y-11976164D01*
X13602512Y-11976164D02*
X13564417Y-11976164D01*
X13564417Y-11976164D02*
X13545369Y-11985688D01*
X13545369Y-11985688D02*
X13535846Y-11995211D01*
X13535846Y-11995211D02*
X13526322Y-12014259D01*
X13526322Y-12014259D02*
X13526322Y-12061878D01*
X13526322Y-12061878D02*
X13535846Y-12080926D01*
X13535846Y-12080926D02*
X13545369Y-12090449D01*
X13545369Y-12090449D02*
X13564417Y-12099973D01*
X13564417Y-12099973D02*
X13602512Y-12099973D01*
X13602512Y-12099973D02*
X13621560Y-12090449D01*
X13621560Y-12090449D02*
X13631084Y-12080926D01*
X13631084Y-12080926D02*
X13640607Y-12061878D01*
X13812036Y-12042830D02*
X13812036Y-12176164D01*
X13764417Y-11966640D02*
X13716798Y-12109497D01*
X13716798Y-12109497D02*
X13840607Y-12109497D01*
X13907274Y-11976164D02*
X13907274Y-12014259D01*
X13983465Y-11976164D02*
X13983465Y-12014259D01*
X14278703Y-12252354D02*
X14269179Y-12242830D01*
X14269179Y-12242830D02*
X14250131Y-12214259D01*
X14250131Y-12214259D02*
X14240608Y-12195211D01*
X14240608Y-12195211D02*
X14231084Y-12166640D01*
X14231084Y-12166640D02*
X14221560Y-12119021D01*
X14221560Y-12119021D02*
X14221560Y-12080926D01*
X14221560Y-12080926D02*
X14231084Y-12033307D01*
X14231084Y-12033307D02*
X14240608Y-12004735D01*
X14240608Y-12004735D02*
X14250131Y-11985688D01*
X14250131Y-11985688D02*
X14269179Y-11957116D01*
X14269179Y-11957116D02*
X14278703Y-11947592D01*
X14345369Y-11995211D02*
X14354893Y-11985688D01*
X14354893Y-11985688D02*
X14373941Y-11976164D01*
X14373941Y-11976164D02*
X14421560Y-11976164D01*
X14421560Y-11976164D02*
X14440608Y-11985688D01*
X14440608Y-11985688D02*
X14450131Y-11995211D01*
X14450131Y-11995211D02*
X14459655Y-12014259D01*
X14459655Y-12014259D02*
X14459655Y-12033307D01*
X14459655Y-12033307D02*
X14450131Y-12061878D01*
X14450131Y-12061878D02*
X14335846Y-12176164D01*
X14335846Y-12176164D02*
X14459655Y-12176164D01*
X14697750Y-12176164D02*
X14697750Y-11976164D01*
X14783465Y-12176164D02*
X14783465Y-12071402D01*
X14783465Y-12071402D02*
X14773941Y-12052354D01*
X14773941Y-12052354D02*
X14754893Y-12042830D01*
X14754893Y-12042830D02*
X14726322Y-12042830D01*
X14726322Y-12042830D02*
X14707274Y-12052354D01*
X14707274Y-12052354D02*
X14697750Y-12061878D01*
X14907274Y-12176164D02*
X14888227Y-12166640D01*
X14888227Y-12166640D02*
X14878703Y-12157116D01*
X14878703Y-12157116D02*
X14869179Y-12138068D01*
X14869179Y-12138068D02*
X14869179Y-12080926D01*
X14869179Y-12080926D02*
X14878703Y-12061878D01*
X14878703Y-12061878D02*
X14888227Y-12052354D01*
X14888227Y-12052354D02*
X14907274Y-12042830D01*
X14907274Y-12042830D02*
X14935846Y-12042830D01*
X14935846Y-12042830D02*
X14954893Y-12052354D01*
X14954893Y-12052354D02*
X14964417Y-12061878D01*
X14964417Y-12061878D02*
X14973941Y-12080926D01*
X14973941Y-12080926D02*
X14973941Y-12138068D01*
X14973941Y-12138068D02*
X14964417Y-12157116D01*
X14964417Y-12157116D02*
X14954893Y-12166640D01*
X14954893Y-12166640D02*
X14935846Y-12176164D01*
X14935846Y-12176164D02*
X14907274Y-12176164D01*
X15088227Y-12176164D02*
X15069179Y-12166640D01*
X15069179Y-12166640D02*
X15059655Y-12147592D01*
X15059655Y-12147592D02*
X15059655Y-11976164D01*
X15240608Y-12166640D02*
X15221560Y-12176164D01*
X15221560Y-12176164D02*
X15183465Y-12176164D01*
X15183465Y-12176164D02*
X15164417Y-12166640D01*
X15164417Y-12166640D02*
X15154893Y-12147592D01*
X15154893Y-12147592D02*
X15154893Y-12071402D01*
X15154893Y-12071402D02*
X15164417Y-12052354D01*
X15164417Y-12052354D02*
X15183465Y-12042830D01*
X15183465Y-12042830D02*
X15221560Y-12042830D01*
X15221560Y-12042830D02*
X15240608Y-12052354D01*
X15240608Y-12052354D02*
X15250131Y-12071402D01*
X15250131Y-12071402D02*
X15250131Y-12090449D01*
X15250131Y-12090449D02*
X15154893Y-12109497D01*
X15326322Y-12166640D02*
X15345370Y-12176164D01*
X15345370Y-12176164D02*
X15383465Y-12176164D01*
X15383465Y-12176164D02*
X15402512Y-12166640D01*
X15402512Y-12166640D02*
X15412036Y-12147592D01*
X15412036Y-12147592D02*
X15412036Y-12138068D01*
X15412036Y-12138068D02*
X15402512Y-12119021D01*
X15402512Y-12119021D02*
X15383465Y-12109497D01*
X15383465Y-12109497D02*
X15354893Y-12109497D01*
X15354893Y-12109497D02*
X15335846Y-12099973D01*
X15335846Y-12099973D02*
X15326322Y-12080926D01*
X15326322Y-12080926D02*
X15326322Y-12071402D01*
X15326322Y-12071402D02*
X15335846Y-12052354D01*
X15335846Y-12052354D02*
X15354893Y-12042830D01*
X15354893Y-12042830D02*
X15383465Y-12042830D01*
X15383465Y-12042830D02*
X15402512Y-12052354D01*
X15478703Y-12252354D02*
X15488227Y-12242830D01*
X15488227Y-12242830D02*
X15507274Y-12214259D01*
X15507274Y-12214259D02*
X15516798Y-12195211D01*
X15516798Y-12195211D02*
X15526322Y-12166640D01*
X15526322Y-12166640D02*
X15535846Y-12119021D01*
X15535846Y-12119021D02*
X15535846Y-12080926D01*
X15535846Y-12080926D02*
X15526322Y-12033307D01*
X15526322Y-12033307D02*
X15516798Y-12004735D01*
X15516798Y-12004735D02*
X15507274Y-11985688D01*
X15507274Y-11985688D02*
X15488227Y-11957116D01*
X15488227Y-11957116D02*
X15478703Y-11947592D01*
D13*
X10648640Y-12403680D02*
X10703640Y-12348680D01*
X10648640Y-12293680D01*
X10593640Y-12348680D01*
X10648640Y-12403680D01*
D12*
X11069179Y-12440164D02*
X10954893Y-12440164D01*
X11012036Y-12440164D02*
X11012036Y-12240164D01*
X11012036Y-12240164D02*
X10992988Y-12268735D01*
X10992988Y-12268735D02*
X10973941Y-12287783D01*
X10973941Y-12287783D02*
X10954893Y-12297307D01*
X11154893Y-12421116D02*
X11164417Y-12430640D01*
X11164417Y-12430640D02*
X11154893Y-12440164D01*
X11154893Y-12440164D02*
X11145369Y-12430640D01*
X11145369Y-12430640D02*
X11154893Y-12421116D01*
X11154893Y-12421116D02*
X11154893Y-12440164D01*
X11354893Y-12440164D02*
X11240607Y-12440164D01*
X11297750Y-12440164D02*
X11297750Y-12240164D01*
X11297750Y-12240164D02*
X11278702Y-12268735D01*
X11278702Y-12268735D02*
X11259655Y-12287783D01*
X11259655Y-12287783D02*
X11240607Y-12297307D01*
X11478702Y-12240164D02*
X11497750Y-12240164D01*
X11497750Y-12240164D02*
X11516798Y-12249688D01*
X11516798Y-12249688D02*
X11526322Y-12259211D01*
X11526322Y-12259211D02*
X11535845Y-12278259D01*
X11535845Y-12278259D02*
X11545369Y-12316354D01*
X11545369Y-12316354D02*
X11545369Y-12363973D01*
X11545369Y-12363973D02*
X11535845Y-12402068D01*
X11535845Y-12402068D02*
X11526322Y-12421116D01*
X11526322Y-12421116D02*
X11516798Y-12430640D01*
X11516798Y-12430640D02*
X11497750Y-12440164D01*
X11497750Y-12440164D02*
X11478702Y-12440164D01*
X11478702Y-12440164D02*
X11459655Y-12430640D01*
X11459655Y-12430640D02*
X11450131Y-12421116D01*
X11450131Y-12421116D02*
X11440607Y-12402068D01*
X11440607Y-12402068D02*
X11431083Y-12363973D01*
X11431083Y-12363973D02*
X11431083Y-12316354D01*
X11431083Y-12316354D02*
X11440607Y-12278259D01*
X11440607Y-12278259D02*
X11450131Y-12259211D01*
X11450131Y-12259211D02*
X11459655Y-12249688D01*
X11459655Y-12249688D02*
X11478702Y-12240164D01*
X11669179Y-12240164D02*
X11688226Y-12240164D01*
X11688226Y-12240164D02*
X11707274Y-12249688D01*
X11707274Y-12249688D02*
X11716798Y-12259211D01*
X11716798Y-12259211D02*
X11726322Y-12278259D01*
X11726322Y-12278259D02*
X11735845Y-12316354D01*
X11735845Y-12316354D02*
X11735845Y-12363973D01*
X11735845Y-12363973D02*
X11726322Y-12402068D01*
X11726322Y-12402068D02*
X11716798Y-12421116D01*
X11716798Y-12421116D02*
X11707274Y-12430640D01*
X11707274Y-12430640D02*
X11688226Y-12440164D01*
X11688226Y-12440164D02*
X11669179Y-12440164D01*
X11669179Y-12440164D02*
X11650131Y-12430640D01*
X11650131Y-12430640D02*
X11640607Y-12421116D01*
X11640607Y-12421116D02*
X11631083Y-12402068D01*
X11631083Y-12402068D02*
X11621560Y-12363973D01*
X11621560Y-12363973D02*
X11621560Y-12316354D01*
X11621560Y-12316354D02*
X11631083Y-12278259D01*
X11631083Y-12278259D02*
X11640607Y-12259211D01*
X11640607Y-12259211D02*
X11650131Y-12249688D01*
X11650131Y-12249688D02*
X11669179Y-12240164D01*
X11821560Y-12440164D02*
X11821560Y-12306830D01*
X11821560Y-12325878D02*
X11831083Y-12316354D01*
X11831083Y-12316354D02*
X11850131Y-12306830D01*
X11850131Y-12306830D02*
X11878703Y-12306830D01*
X11878703Y-12306830D02*
X11897750Y-12316354D01*
X11897750Y-12316354D02*
X11907274Y-12335402D01*
X11907274Y-12335402D02*
X11907274Y-12440164D01*
X11907274Y-12335402D02*
X11916798Y-12316354D01*
X11916798Y-12316354D02*
X11935845Y-12306830D01*
X11935845Y-12306830D02*
X11964417Y-12306830D01*
X11964417Y-12306830D02*
X11983464Y-12316354D01*
X11983464Y-12316354D02*
X11992988Y-12335402D01*
X11992988Y-12335402D02*
X11992988Y-12440164D01*
X12088226Y-12440164D02*
X12088226Y-12306830D01*
X12088226Y-12325878D02*
X12097750Y-12316354D01*
X12097750Y-12316354D02*
X12116798Y-12306830D01*
X12116798Y-12306830D02*
X12145369Y-12306830D01*
X12145369Y-12306830D02*
X12164417Y-12316354D01*
X12164417Y-12316354D02*
X12173941Y-12335402D01*
X12173941Y-12335402D02*
X12173941Y-12440164D01*
X12173941Y-12335402D02*
X12183464Y-12316354D01*
X12183464Y-12316354D02*
X12202512Y-12306830D01*
X12202512Y-12306830D02*
X12231083Y-12306830D01*
X12231083Y-12306830D02*
X12250131Y-12316354D01*
X12250131Y-12316354D02*
X12259655Y-12335402D01*
X12259655Y-12335402D02*
X12259655Y-12440164D01*
X12650131Y-12230640D02*
X12478703Y-12487783D01*
X12907274Y-12240164D02*
X12926322Y-12240164D01*
X12926322Y-12240164D02*
X12945369Y-12249688D01*
X12945369Y-12249688D02*
X12954893Y-12259211D01*
X12954893Y-12259211D02*
X12964417Y-12278259D01*
X12964417Y-12278259D02*
X12973941Y-12316354D01*
X12973941Y-12316354D02*
X12973941Y-12363973D01*
X12973941Y-12363973D02*
X12964417Y-12402068D01*
X12964417Y-12402068D02*
X12954893Y-12421116D01*
X12954893Y-12421116D02*
X12945369Y-12430640D01*
X12945369Y-12430640D02*
X12926322Y-12440164D01*
X12926322Y-12440164D02*
X12907274Y-12440164D01*
X12907274Y-12440164D02*
X12888226Y-12430640D01*
X12888226Y-12430640D02*
X12878703Y-12421116D01*
X12878703Y-12421116D02*
X12869179Y-12402068D01*
X12869179Y-12402068D02*
X12859655Y-12363973D01*
X12859655Y-12363973D02*
X12859655Y-12316354D01*
X12859655Y-12316354D02*
X12869179Y-12278259D01*
X12869179Y-12278259D02*
X12878703Y-12259211D01*
X12878703Y-12259211D02*
X12888226Y-12249688D01*
X12888226Y-12249688D02*
X12907274Y-12240164D01*
X13059655Y-12421116D02*
X13069179Y-12430640D01*
X13069179Y-12430640D02*
X13059655Y-12440164D01*
X13059655Y-12440164D02*
X13050131Y-12430640D01*
X13050131Y-12430640D02*
X13059655Y-12421116D01*
X13059655Y-12421116D02*
X13059655Y-12440164D01*
X13192988Y-12240164D02*
X13212036Y-12240164D01*
X13212036Y-12240164D02*
X13231084Y-12249688D01*
X13231084Y-12249688D02*
X13240607Y-12259211D01*
X13240607Y-12259211D02*
X13250131Y-12278259D01*
X13250131Y-12278259D02*
X13259655Y-12316354D01*
X13259655Y-12316354D02*
X13259655Y-12363973D01*
X13259655Y-12363973D02*
X13250131Y-12402068D01*
X13250131Y-12402068D02*
X13240607Y-12421116D01*
X13240607Y-12421116D02*
X13231084Y-12430640D01*
X13231084Y-12430640D02*
X13212036Y-12440164D01*
X13212036Y-12440164D02*
X13192988Y-12440164D01*
X13192988Y-12440164D02*
X13173941Y-12430640D01*
X13173941Y-12430640D02*
X13164417Y-12421116D01*
X13164417Y-12421116D02*
X13154893Y-12402068D01*
X13154893Y-12402068D02*
X13145369Y-12363973D01*
X13145369Y-12363973D02*
X13145369Y-12316354D01*
X13145369Y-12316354D02*
X13154893Y-12278259D01*
X13154893Y-12278259D02*
X13164417Y-12259211D01*
X13164417Y-12259211D02*
X13173941Y-12249688D01*
X13173941Y-12249688D02*
X13192988Y-12240164D01*
X13431084Y-12306830D02*
X13431084Y-12440164D01*
X13383465Y-12230640D02*
X13335846Y-12373497D01*
X13335846Y-12373497D02*
X13459655Y-12373497D01*
X13516798Y-12240164D02*
X13640607Y-12240164D01*
X13640607Y-12240164D02*
X13573941Y-12316354D01*
X13573941Y-12316354D02*
X13602512Y-12316354D01*
X13602512Y-12316354D02*
X13621560Y-12325878D01*
X13621560Y-12325878D02*
X13631084Y-12335402D01*
X13631084Y-12335402D02*
X13640607Y-12354449D01*
X13640607Y-12354449D02*
X13640607Y-12402068D01*
X13640607Y-12402068D02*
X13631084Y-12421116D01*
X13631084Y-12421116D02*
X13621560Y-12430640D01*
X13621560Y-12430640D02*
X13602512Y-12440164D01*
X13602512Y-12440164D02*
X13545369Y-12440164D01*
X13545369Y-12440164D02*
X13526322Y-12430640D01*
X13526322Y-12430640D02*
X13516798Y-12421116D01*
X13707274Y-12240164D02*
X13831084Y-12240164D01*
X13831084Y-12240164D02*
X13764417Y-12316354D01*
X13764417Y-12316354D02*
X13792988Y-12316354D01*
X13792988Y-12316354D02*
X13812036Y-12325878D01*
X13812036Y-12325878D02*
X13821560Y-12335402D01*
X13821560Y-12335402D02*
X13831084Y-12354449D01*
X13831084Y-12354449D02*
X13831084Y-12402068D01*
X13831084Y-12402068D02*
X13821560Y-12421116D01*
X13821560Y-12421116D02*
X13812036Y-12430640D01*
X13812036Y-12430640D02*
X13792988Y-12440164D01*
X13792988Y-12440164D02*
X13735846Y-12440164D01*
X13735846Y-12440164D02*
X13716798Y-12430640D01*
X13716798Y-12430640D02*
X13707274Y-12421116D01*
X13907274Y-12240164D02*
X13907274Y-12278259D01*
X13983465Y-12240164D02*
X13983465Y-12278259D01*
X14278703Y-12516354D02*
X14269179Y-12506830D01*
X14269179Y-12506830D02*
X14250131Y-12478259D01*
X14250131Y-12478259D02*
X14240608Y-12459211D01*
X14240608Y-12459211D02*
X14231084Y-12430640D01*
X14231084Y-12430640D02*
X14221560Y-12383021D01*
X14221560Y-12383021D02*
X14221560Y-12344926D01*
X14221560Y-12344926D02*
X14231084Y-12297307D01*
X14231084Y-12297307D02*
X14240608Y-12268735D01*
X14240608Y-12268735D02*
X14250131Y-12249688D01*
X14250131Y-12249688D02*
X14269179Y-12221116D01*
X14269179Y-12221116D02*
X14278703Y-12211592D01*
X14459655Y-12440164D02*
X14345369Y-12440164D01*
X14402512Y-12440164D02*
X14402512Y-12240164D01*
X14402512Y-12240164D02*
X14383465Y-12268735D01*
X14383465Y-12268735D02*
X14364417Y-12287783D01*
X14364417Y-12287783D02*
X14345369Y-12297307D01*
X14535846Y-12259211D02*
X14545369Y-12249688D01*
X14545369Y-12249688D02*
X14564417Y-12240164D01*
X14564417Y-12240164D02*
X14612036Y-12240164D01*
X14612036Y-12240164D02*
X14631084Y-12249688D01*
X14631084Y-12249688D02*
X14640608Y-12259211D01*
X14640608Y-12259211D02*
X14650131Y-12278259D01*
X14650131Y-12278259D02*
X14650131Y-12297307D01*
X14650131Y-12297307D02*
X14640608Y-12325878D01*
X14640608Y-12325878D02*
X14526322Y-12440164D01*
X14526322Y-12440164D02*
X14650131Y-12440164D01*
X14888227Y-12440164D02*
X14888227Y-12240164D01*
X14973941Y-12440164D02*
X14973941Y-12335402D01*
X14973941Y-12335402D02*
X14964417Y-12316354D01*
X14964417Y-12316354D02*
X14945370Y-12306830D01*
X14945370Y-12306830D02*
X14916798Y-12306830D01*
X14916798Y-12306830D02*
X14897750Y-12316354D01*
X14897750Y-12316354D02*
X14888227Y-12325878D01*
X15097750Y-12440164D02*
X15078703Y-12430640D01*
X15078703Y-12430640D02*
X15069179Y-12421116D01*
X15069179Y-12421116D02*
X15059655Y-12402068D01*
X15059655Y-12402068D02*
X15059655Y-12344926D01*
X15059655Y-12344926D02*
X15069179Y-12325878D01*
X15069179Y-12325878D02*
X15078703Y-12316354D01*
X15078703Y-12316354D02*
X15097750Y-12306830D01*
X15097750Y-12306830D02*
X15126322Y-12306830D01*
X15126322Y-12306830D02*
X15145370Y-12316354D01*
X15145370Y-12316354D02*
X15154893Y-12325878D01*
X15154893Y-12325878D02*
X15164417Y-12344926D01*
X15164417Y-12344926D02*
X15164417Y-12402068D01*
X15164417Y-12402068D02*
X15154893Y-12421116D01*
X15154893Y-12421116D02*
X15145370Y-12430640D01*
X15145370Y-12430640D02*
X15126322Y-12440164D01*
X15126322Y-12440164D02*
X15097750Y-12440164D01*
X15278703Y-12440164D02*
X15259655Y-12430640D01*
X15259655Y-12430640D02*
X15250131Y-12411592D01*
X15250131Y-12411592D02*
X15250131Y-12240164D01*
X15431084Y-12430640D02*
X15412036Y-12440164D01*
X15412036Y-12440164D02*
X15373941Y-12440164D01*
X15373941Y-12440164D02*
X15354893Y-12430640D01*
X15354893Y-12430640D02*
X15345370Y-12411592D01*
X15345370Y-12411592D02*
X15345370Y-12335402D01*
X15345370Y-12335402D02*
X15354893Y-12316354D01*
X15354893Y-12316354D02*
X15373941Y-12306830D01*
X15373941Y-12306830D02*
X15412036Y-12306830D01*
X15412036Y-12306830D02*
X15431084Y-12316354D01*
X15431084Y-12316354D02*
X15440608Y-12335402D01*
X15440608Y-12335402D02*
X15440608Y-12354449D01*
X15440608Y-12354449D02*
X15345370Y-12373497D01*
X15516798Y-12430640D02*
X15535846Y-12440164D01*
X15535846Y-12440164D02*
X15573941Y-12440164D01*
X15573941Y-12440164D02*
X15592989Y-12430640D01*
X15592989Y-12430640D02*
X15602512Y-12411592D01*
X15602512Y-12411592D02*
X15602512Y-12402068D01*
X15602512Y-12402068D02*
X15592989Y-12383021D01*
X15592989Y-12383021D02*
X15573941Y-12373497D01*
X15573941Y-12373497D02*
X15545370Y-12373497D01*
X15545370Y-12373497D02*
X15526322Y-12363973D01*
X15526322Y-12363973D02*
X15516798Y-12344926D01*
X15516798Y-12344926D02*
X15516798Y-12335402D01*
X15516798Y-12335402D02*
X15526322Y-12316354D01*
X15526322Y-12316354D02*
X15545370Y-12306830D01*
X15545370Y-12306830D02*
X15573941Y-12306830D01*
X15573941Y-12306830D02*
X15592989Y-12316354D01*
X15669179Y-12516354D02*
X15678703Y-12506830D01*
X15678703Y-12506830D02*
X15697751Y-12478259D01*
X15697751Y-12478259D02*
X15707274Y-12459211D01*
X15707274Y-12459211D02*
X15716798Y-12430640D01*
X15716798Y-12430640D02*
X15726322Y-12383021D01*
X15726322Y-12383021D02*
X15726322Y-12344926D01*
X15726322Y-12344926D02*
X15716798Y-12297307D01*
X15716798Y-12297307D02*
X15707274Y-12268735D01*
X15707274Y-12268735D02*
X15697751Y-12249688D01*
X15697751Y-12249688D02*
X15678703Y-12221116D01*
X15678703Y-12221116D02*
X15669179Y-12211592D01*
M02*
