%TF.GenerationSoftware,KiCad,Pcbnew,9.0.5*%
%TF.CreationDate,2026-02-09T22:48:56-08:00*%
%TF.ProjectId,Vine_Basestation_Power,56696e65-5f42-4617-9365-73746174696f,rev?*%
%TF.SameCoordinates,Original*%
%TF.FileFunction,Copper,L2,Inr*%
%TF.FilePolarity,Positive*%
%FSLAX46Y46*%
G04 Gerber Fmt 4.6, Leading zero omitted, Abs format (unit mm)*
G04 Created by KiCad (PCBNEW 9.0.5) date 2026-02-09 22:48:56*
%MOMM*%
%LPD*%
G01*
G04 APERTURE LIST*
G04 Aperture macros list*
%AMRoundRect*
0 Rectangle with rounded corners*
0 $1 Rounding radius*
0 $2 $3 $4 $5 $6 $7 $8 $9 X,Y pos of 4 corners*
0 Add a 4 corners polygon primitive as box body*
4,1,4,$2,$3,$4,$5,$6,$7,$8,$9,$2,$3,0*
0 Add four circle primitives for the rounded corners*
1,1,$1+$1,$2,$3*
1,1,$1+$1,$4,$5*
1,1,$1+$1,$6,$7*
1,1,$1+$1,$8,$9*
0 Add four rect primitives between the rounded corners*
20,1,$1+$1,$2,$3,$4,$5,0*
20,1,$1+$1,$4,$5,$6,$7,0*
20,1,$1+$1,$6,$7,$8,$9,0*
20,1,$1+$1,$8,$9,$2,$3,0*%
G04 Aperture macros list end*
%TA.AperFunction,ComponentPad*%
%ADD10C,1.600000*%
%TD*%
%TA.AperFunction,ComponentPad*%
%ADD11RoundRect,0.250000X0.550000X-0.550000X0.550000X0.550000X-0.550000X0.550000X-0.550000X-0.550000X0*%
%TD*%
%TA.AperFunction,ComponentPad*%
%ADD12C,2.000000*%
%TD*%
%TA.AperFunction,ComponentPad*%
%ADD13C,0.400000*%
%TD*%
%TA.AperFunction,ComponentPad*%
%ADD14RoundRect,0.760000X1.140000X-1.140000X1.140000X1.140000X-1.140000X1.140000X-1.140000X-1.140000X0*%
%TD*%
%TA.AperFunction,ComponentPad*%
%ADD15C,3.800000*%
%TD*%
%TA.AperFunction,ViaPad*%
%ADD16C,0.660400*%
%TD*%
G04 APERTURE END LIST*
D10*
%TO.N,GND*%
%TO.C,C18*%
X184400000Y-46800000D03*
D11*
%TO.N,12V0*%
X184400000Y-48800000D03*
%TD*%
D12*
%TO.N,GND*%
%TO.C,TP2*%
X135600000Y-64400000D03*
%TD*%
%TO.N,/IMON*%
%TO.C,TP1*%
X135600000Y-60200000D03*
%TD*%
D13*
%TO.N,GND*%
%TO.C,U1*%
X169500000Y-51230000D03*
X169500000Y-50230000D03*
X170500000Y-50230000D03*
X171500000Y-50230000D03*
X172500000Y-50230000D03*
X173500000Y-50230000D03*
X173500000Y-51230000D03*
X172500000Y-51230000D03*
X171500000Y-51230000D03*
X170500000Y-51230000D03*
%TO.N,48V0*%
X169200000Y-52495000D03*
X169200000Y-53495000D03*
X169200000Y-54495000D03*
X170200000Y-52495000D03*
X170200000Y-53495000D03*
X170200000Y-54495000D03*
%TO.N,/SW*%
X171695000Y-52495500D03*
X171695000Y-53495500D03*
X171695000Y-54495500D03*
X172695000Y-52495500D03*
X172695000Y-53495500D03*
X172695000Y-54495500D03*
%TO.N,GND*%
X173970000Y-53320000D03*
X173970000Y-54320000D03*
%TD*%
D14*
%TO.N,GND*%
%TO.C,J1*%
X155600000Y-38400000D03*
D15*
%TO.N,48V_IN*%
X155600000Y-33400000D03*
%TD*%
D14*
%TO.N,GND*%
%TO.C,J2*%
X162000000Y-38400000D03*
D15*
%TO.N,48V_IN*%
X162000000Y-33400000D03*
%TD*%
D16*
%TO.N,GND*%
X132200000Y-43000000D03*
X134800000Y-41400000D03*
X148200000Y-33600000D03*
%TO.N,48V_IN*%
X147000000Y-33600000D03*
%TO.N,GND*%
X143800000Y-34200000D03*
X144000000Y-66200000D03*
X154600000Y-65600000D03*
X149800000Y-41800000D03*
X145400000Y-41600000D03*
X149000000Y-31400000D03*
X137550000Y-36450000D03*
X137600000Y-43200000D03*
X137550000Y-39950000D03*
X131550000Y-47850000D03*
X131600000Y-54600000D03*
X131550000Y-51350000D03*
X138800000Y-64600000D03*
X139000000Y-57600000D03*
X138800000Y-61200000D03*
X166400000Y-67800000D03*
X176800000Y-44000000D03*
%TO.N,12V0*%
X172400000Y-39400000D03*
X172800000Y-41510000D03*
%TO.N,5V0*%
X144200000Y-47800000D03*
X141400000Y-52200000D03*
X143200000Y-44400000D03*
X143200000Y-43000000D03*
%TO.N,48V0*%
X153400000Y-52200000D03*
X155000000Y-52000000D03*
X155000000Y-50600000D03*
X161800000Y-55200000D03*
X159800000Y-55200000D03*
X150000000Y-54200000D03*
%TO.N,48V_IN*%
X154400000Y-43000000D03*
X152800000Y-43000000D03*
X156000000Y-43000000D03*
X157800000Y-43000000D03*
%TO.N,GND*%
X186600000Y-45600000D03*
%TO.N,/SW*%
X163600000Y-50600000D03*
X171600000Y-59800000D03*
X172400000Y-58000000D03*
%TO.N,GND*%
X168800000Y-44600000D03*
X140000000Y-31400000D03*
X132000000Y-36600000D03*
X139700000Y-67600000D03*
X137400000Y-33000000D03*
X131600000Y-61200000D03*
X162600000Y-67800000D03*
X153200000Y-67600000D03*
X185400000Y-32200000D03*
X187600000Y-69600000D03*
X142400000Y-33000000D03*
X183400000Y-44400000D03*
X166200000Y-37716101D03*
X158600000Y-52000000D03*
X157400000Y-70000000D03*
X141950000Y-70100000D03*
X187800000Y-61200000D03*
X168000000Y-70000000D03*
X159200000Y-67600000D03*
X151750000Y-37500000D03*
X166200000Y-40800000D03*
X149950000Y-67600000D03*
X172575000Y-47175000D03*
X171250000Y-34800000D03*
X159600000Y-49400000D03*
X138450000Y-70100000D03*
X190000000Y-63600000D03*
X156000000Y-67600000D03*
X154650000Y-70000000D03*
X148450000Y-70100000D03*
X174000000Y-34800000D03*
X131650000Y-64450000D03*
X143200000Y-67600000D03*
X175800000Y-32200000D03*
X181400000Y-44400000D03*
X140600000Y-38400000D03*
X134600000Y-34400000D03*
X177500000Y-34800000D03*
X182400000Y-32200000D03*
X135200000Y-31400000D03*
X161000000Y-70000000D03*
X167750000Y-34800000D03*
X146600000Y-67600000D03*
X190000000Y-59800000D03*
X168500000Y-32050000D03*
X172000000Y-32050000D03*
X164800000Y-70000000D03*
X179000000Y-32200000D03*
X144950000Y-70100000D03*
X187800000Y-65800000D03*
X169000000Y-37800000D03*
X140600000Y-44600000D03*
X131600000Y-57700000D03*
X151650000Y-70000000D03*
X144600000Y-31400000D03*
X180250000Y-34800000D03*
%TO.N,48V0*%
X179600000Y-47400000D03*
X167000000Y-53000000D03*
X166569112Y-45830888D03*
%TO.N,12V0*%
X185000000Y-60200000D03*
X174000000Y-44120700D03*
X182600000Y-58200000D03*
X172600000Y-44200000D03*
%TO.N,5V0*%
X142600000Y-37200000D03*
%TO.N,GND*%
X155400000Y-47400000D03*
X134600000Y-38200000D03*
X179600000Y-52800000D03*
X171550000Y-46600000D03*
X159800000Y-47400000D03*
X132000000Y-39800000D03*
X179600000Y-55800000D03*
X179600000Y-54400000D03*
X177000000Y-50445700D03*
%TD*%
%TA.AperFunction,Conductor*%
%TO.N,GND*%
G36*
X190326775Y-30520185D02*
G01*
X190372530Y-30572989D01*
X190382474Y-30642147D01*
X190353449Y-30705703D01*
X190335222Y-30722876D01*
X190212073Y-30817370D01*
X190212066Y-30817376D01*
X190017376Y-31012066D01*
X190017370Y-31012073D01*
X189849754Y-31230516D01*
X189712080Y-31468971D01*
X189712075Y-31468982D01*
X189606704Y-31723369D01*
X189535441Y-31989331D01*
X189535438Y-31989344D01*
X189499501Y-32262315D01*
X189499500Y-32262332D01*
X189499500Y-32537667D01*
X189499501Y-32537684D01*
X189535438Y-32810655D01*
X189535439Y-32810660D01*
X189535440Y-32810666D01*
X189535441Y-32810668D01*
X189606704Y-33076630D01*
X189712075Y-33331017D01*
X189712080Y-33331028D01*
X189791809Y-33469121D01*
X189849751Y-33569479D01*
X189849753Y-33569482D01*
X189849754Y-33569483D01*
X190017370Y-33787926D01*
X190017376Y-33787933D01*
X190212066Y-33982623D01*
X190212072Y-33982628D01*
X190430521Y-34150249D01*
X190583778Y-34238732D01*
X190668971Y-34287919D01*
X190668976Y-34287921D01*
X190668979Y-34287923D01*
X190923368Y-34393295D01*
X191189334Y-34464560D01*
X191462326Y-34500500D01*
X191462333Y-34500500D01*
X191737667Y-34500500D01*
X191737674Y-34500500D01*
X192010666Y-34464560D01*
X192276632Y-34393295D01*
X192531021Y-34287923D01*
X192769479Y-34150249D01*
X192987928Y-33982628D01*
X193182628Y-33787928D01*
X193277124Y-33664778D01*
X193333552Y-33623575D01*
X193403298Y-33619420D01*
X193464218Y-33653632D01*
X193496971Y-33715349D01*
X193499500Y-33740264D01*
X193499500Y-67859735D01*
X193479815Y-67926774D01*
X193427011Y-67972529D01*
X193357853Y-67982473D01*
X193294297Y-67953448D01*
X193277124Y-67935221D01*
X193182629Y-67812073D01*
X193182623Y-67812066D01*
X192987933Y-67617376D01*
X192987926Y-67617370D01*
X192769483Y-67449754D01*
X192769482Y-67449753D01*
X192769479Y-67449751D01*
X192674407Y-67394861D01*
X192531028Y-67312080D01*
X192531017Y-67312075D01*
X192276630Y-67206704D01*
X192143649Y-67171072D01*
X192010666Y-67135440D01*
X192010660Y-67135439D01*
X192010655Y-67135438D01*
X191737684Y-67099501D01*
X191737679Y-67099500D01*
X191737674Y-67099500D01*
X191462326Y-67099500D01*
X191462320Y-67099500D01*
X191462315Y-67099501D01*
X191189344Y-67135438D01*
X191189337Y-67135439D01*
X191189334Y-67135440D01*
X191133125Y-67150500D01*
X190923369Y-67206704D01*
X190668982Y-67312075D01*
X190668971Y-67312080D01*
X190430516Y-67449754D01*
X190212073Y-67617370D01*
X190212066Y-67617376D01*
X190017376Y-67812066D01*
X190017370Y-67812073D01*
X189849754Y-68030516D01*
X189712080Y-68268971D01*
X189712075Y-68268982D01*
X189606704Y-68523369D01*
X189535441Y-68789331D01*
X189535438Y-68789344D01*
X189499501Y-69062315D01*
X189499500Y-69062332D01*
X189499500Y-69337667D01*
X189499501Y-69337684D01*
X189535438Y-69610655D01*
X189535439Y-69610660D01*
X189535440Y-69610666D01*
X189535441Y-69610668D01*
X189606704Y-69876630D01*
X189712075Y-70131017D01*
X189712080Y-70131028D01*
X189791809Y-70269121D01*
X189849751Y-70369479D01*
X189849753Y-70369482D01*
X189849754Y-70369483D01*
X190017370Y-70587926D01*
X190017376Y-70587933D01*
X190212066Y-70782623D01*
X190212073Y-70782629D01*
X190335222Y-70877124D01*
X190376425Y-70933552D01*
X190380580Y-71003298D01*
X190346368Y-71064218D01*
X190284651Y-71096971D01*
X190259736Y-71099500D01*
X133140264Y-71099500D01*
X133073225Y-71079815D01*
X133027470Y-71027011D01*
X133017526Y-70957853D01*
X133046551Y-70894297D01*
X133064778Y-70877124D01*
X133090314Y-70857529D01*
X133187928Y-70782628D01*
X133382628Y-70587928D01*
X133550249Y-70369479D01*
X133687923Y-70131021D01*
X133793295Y-69876632D01*
X133864560Y-69610666D01*
X133900500Y-69337674D01*
X133900500Y-69062326D01*
X133864560Y-68789334D01*
X133793295Y-68523368D01*
X133687923Y-68268979D01*
X133687921Y-68268976D01*
X133687919Y-68268971D01*
X133638732Y-68183778D01*
X133550249Y-68030521D01*
X133382628Y-67812072D01*
X133382623Y-67812066D01*
X133187933Y-67617376D01*
X133187926Y-67617370D01*
X132969483Y-67449754D01*
X132969482Y-67449753D01*
X132969479Y-67449751D01*
X132874407Y-67394861D01*
X132731028Y-67312080D01*
X132731017Y-67312075D01*
X132476630Y-67206704D01*
X132343649Y-67171072D01*
X132210666Y-67135440D01*
X132210660Y-67135439D01*
X132210655Y-67135438D01*
X131937684Y-67099501D01*
X131937679Y-67099500D01*
X131937674Y-67099500D01*
X131662326Y-67099500D01*
X131662320Y-67099500D01*
X131662315Y-67099501D01*
X131389344Y-67135438D01*
X131389337Y-67135439D01*
X131389334Y-67135440D01*
X131333125Y-67150500D01*
X131123369Y-67206704D01*
X130868982Y-67312075D01*
X130868971Y-67312080D01*
X130630516Y-67449754D01*
X130412073Y-67617370D01*
X130412066Y-67617376D01*
X130217376Y-67812066D01*
X130217370Y-67812073D01*
X130122876Y-67935221D01*
X130066448Y-67976424D01*
X129996702Y-67980579D01*
X129935782Y-67946367D01*
X129903029Y-67884649D01*
X129900500Y-67859735D01*
X129900500Y-60081902D01*
X134099500Y-60081902D01*
X134099500Y-60318097D01*
X134136446Y-60551368D01*
X134209433Y-60775996D01*
X134316657Y-60986433D01*
X134455483Y-61177510D01*
X134622490Y-61344517D01*
X134813567Y-61483343D01*
X134912991Y-61534002D01*
X135024003Y-61590566D01*
X135024005Y-61590566D01*
X135024008Y-61590568D01*
X135144412Y-61629689D01*
X135248631Y-61663553D01*
X135481903Y-61700500D01*
X135481908Y-61700500D01*
X135718097Y-61700500D01*
X135951368Y-61663553D01*
X136175992Y-61590568D01*
X136386433Y-61483343D01*
X136577510Y-61344517D01*
X136744517Y-61177510D01*
X136883343Y-60986433D01*
X136990568Y-60775992D01*
X137063553Y-60551368D01*
X137098687Y-60329542D01*
X137100500Y-60318097D01*
X137100500Y-60081902D01*
X137068809Y-59881819D01*
X170769299Y-59881819D01*
X170801222Y-60042300D01*
X170801224Y-60042306D01*
X170863843Y-60193482D01*
X170954754Y-60329542D01*
X171070457Y-60445245D01*
X171070460Y-60445247D01*
X171206516Y-60536156D01*
X171357694Y-60598776D01*
X171357698Y-60598776D01*
X171357699Y-60598777D01*
X171518180Y-60630700D01*
X171518183Y-60630700D01*
X171681819Y-60630700D01*
X171789785Y-60609223D01*
X171842306Y-60598776D01*
X171993484Y-60536156D01*
X172129540Y-60445247D01*
X172245247Y-60329540D01*
X172277133Y-60281819D01*
X184169299Y-60281819D01*
X184201222Y-60442300D01*
X184201224Y-60442306D01*
X184263844Y-60593484D01*
X184267380Y-60598776D01*
X184354754Y-60729542D01*
X184470457Y-60845245D01*
X184470460Y-60845247D01*
X184606516Y-60936156D01*
X184757694Y-60998776D01*
X184757698Y-60998776D01*
X184757699Y-60998777D01*
X184918180Y-61030700D01*
X184918183Y-61030700D01*
X185081819Y-61030700D01*
X185189785Y-61009223D01*
X185242306Y-60998776D01*
X185393484Y-60936156D01*
X185529540Y-60845247D01*
X185645247Y-60729540D01*
X185736156Y-60593484D01*
X185798776Y-60442306D01*
X185821207Y-60329540D01*
X185830700Y-60281819D01*
X185830700Y-60118180D01*
X185798777Y-59957699D01*
X185798776Y-59957698D01*
X185798776Y-59957694D01*
X185736156Y-59806516D01*
X185645247Y-59670460D01*
X185645245Y-59670457D01*
X185529542Y-59554754D01*
X185461512Y-59509298D01*
X185393484Y-59463844D01*
X185242306Y-59401224D01*
X185242300Y-59401222D01*
X185081819Y-59369300D01*
X185081817Y-59369300D01*
X184918183Y-59369300D01*
X184918181Y-59369300D01*
X184757699Y-59401222D01*
X184757693Y-59401224D01*
X184606517Y-59463843D01*
X184470457Y-59554754D01*
X184354754Y-59670457D01*
X184263843Y-59806517D01*
X184201224Y-59957693D01*
X184201222Y-59957699D01*
X184169300Y-60118180D01*
X184169300Y-60118183D01*
X184169300Y-60281817D01*
X184169300Y-60281819D01*
X184169299Y-60281819D01*
X172277133Y-60281819D01*
X172336156Y-60193484D01*
X172398776Y-60042306D01*
X172430700Y-59881817D01*
X172430700Y-59718183D01*
X172430700Y-59718180D01*
X172398777Y-59557699D01*
X172398776Y-59557698D01*
X172398776Y-59557694D01*
X172336156Y-59406516D01*
X172245247Y-59270460D01*
X172245245Y-59270457D01*
X172129542Y-59154754D01*
X172061512Y-59109298D01*
X171993484Y-59063844D01*
X171913467Y-59030700D01*
X171842306Y-59001224D01*
X171842300Y-59001222D01*
X171681819Y-58969300D01*
X171681817Y-58969300D01*
X171518183Y-58969300D01*
X171518181Y-58969300D01*
X171357699Y-59001222D01*
X171357693Y-59001224D01*
X171206517Y-59063843D01*
X171070457Y-59154754D01*
X170954754Y-59270457D01*
X170863843Y-59406517D01*
X170801224Y-59557693D01*
X170801222Y-59557699D01*
X170769300Y-59718180D01*
X170769300Y-59718183D01*
X170769300Y-59881817D01*
X170769300Y-59881819D01*
X170769299Y-59881819D01*
X137068809Y-59881819D01*
X137063553Y-59848632D01*
X137063552Y-59848628D01*
X137063552Y-59848627D01*
X137031639Y-59750409D01*
X136990566Y-59624003D01*
X136883342Y-59413566D01*
X136874375Y-59401224D01*
X136744517Y-59222490D01*
X136577510Y-59055483D01*
X136386433Y-58916657D01*
X136175996Y-58809433D01*
X135951368Y-58736446D01*
X135718097Y-58699500D01*
X135718092Y-58699500D01*
X135481908Y-58699500D01*
X135481903Y-58699500D01*
X135248631Y-58736446D01*
X135024003Y-58809433D01*
X134813566Y-58916657D01*
X134741110Y-58969300D01*
X134622490Y-59055483D01*
X134622488Y-59055485D01*
X134622487Y-59055485D01*
X134455485Y-59222487D01*
X134455485Y-59222488D01*
X134455483Y-59222490D01*
X134420633Y-59270457D01*
X134316657Y-59413566D01*
X134209433Y-59624003D01*
X134136446Y-59848631D01*
X134099500Y-60081902D01*
X129900500Y-60081902D01*
X129900500Y-58081819D01*
X171569299Y-58081819D01*
X171601222Y-58242300D01*
X171601224Y-58242306D01*
X171663843Y-58393482D01*
X171754754Y-58529542D01*
X171870457Y-58645245D01*
X171870460Y-58645247D01*
X172006516Y-58736156D01*
X172157694Y-58798776D01*
X172157698Y-58798776D01*
X172157699Y-58798777D01*
X172318180Y-58830700D01*
X172318183Y-58830700D01*
X172481819Y-58830700D01*
X172589785Y-58809223D01*
X172642306Y-58798776D01*
X172793484Y-58736156D01*
X172929540Y-58645247D01*
X173045247Y-58529540D01*
X173136156Y-58393484D01*
X173182409Y-58281819D01*
X181769299Y-58281819D01*
X181801222Y-58442300D01*
X181801224Y-58442306D01*
X181863843Y-58593482D01*
X181954754Y-58729542D01*
X182070457Y-58845245D01*
X182070460Y-58845247D01*
X182206516Y-58936156D01*
X182357694Y-58998776D01*
X182357698Y-58998776D01*
X182357699Y-58998777D01*
X182518180Y-59030700D01*
X182518183Y-59030700D01*
X182681819Y-59030700D01*
X182830009Y-59001222D01*
X182842306Y-58998776D01*
X182993484Y-58936156D01*
X183129540Y-58845247D01*
X183245247Y-58729540D01*
X183336156Y-58593484D01*
X183398776Y-58442306D01*
X183430700Y-58281817D01*
X183430700Y-58118183D01*
X183430700Y-58118180D01*
X183398777Y-57957699D01*
X183398776Y-57957698D01*
X183398776Y-57957694D01*
X183336156Y-57806516D01*
X183245247Y-57670460D01*
X183245245Y-57670457D01*
X183129542Y-57554754D01*
X183061512Y-57509298D01*
X182993484Y-57463844D01*
X182842306Y-57401224D01*
X182842300Y-57401222D01*
X182681819Y-57369300D01*
X182681817Y-57369300D01*
X182518183Y-57369300D01*
X182518181Y-57369300D01*
X182357699Y-57401222D01*
X182357693Y-57401224D01*
X182206517Y-57463843D01*
X182070457Y-57554754D01*
X181954754Y-57670457D01*
X181863843Y-57806517D01*
X181801224Y-57957693D01*
X181801222Y-57957699D01*
X181769300Y-58118180D01*
X181769300Y-58118183D01*
X181769300Y-58281817D01*
X181769300Y-58281819D01*
X181769299Y-58281819D01*
X173182409Y-58281819D01*
X173198776Y-58242306D01*
X173204678Y-58212632D01*
X173229491Y-58087899D01*
X173230700Y-58081819D01*
X173230700Y-57918180D01*
X173198777Y-57757699D01*
X173198776Y-57757698D01*
X173198776Y-57757694D01*
X173136156Y-57606516D01*
X173045247Y-57470460D01*
X173045245Y-57470457D01*
X172929542Y-57354754D01*
X172861512Y-57309298D01*
X172793484Y-57263844D01*
X172642306Y-57201224D01*
X172642300Y-57201222D01*
X172481819Y-57169300D01*
X172481817Y-57169300D01*
X172318183Y-57169300D01*
X172318181Y-57169300D01*
X172157699Y-57201222D01*
X172157693Y-57201224D01*
X172006517Y-57263843D01*
X171870457Y-57354754D01*
X171754754Y-57470457D01*
X171663843Y-57606517D01*
X171601224Y-57757693D01*
X171601222Y-57757699D01*
X171569300Y-57918180D01*
X171569300Y-57918183D01*
X171569300Y-58081817D01*
X171569300Y-58081819D01*
X171569299Y-58081819D01*
X129900500Y-58081819D01*
X129900500Y-55281819D01*
X158969299Y-55281819D01*
X159001222Y-55442300D01*
X159001224Y-55442306D01*
X159063843Y-55593482D01*
X159154754Y-55729542D01*
X159270457Y-55845245D01*
X159270460Y-55845247D01*
X159406516Y-55936156D01*
X159557694Y-55998776D01*
X159557698Y-55998776D01*
X159557699Y-55998777D01*
X159718180Y-56030700D01*
X159718183Y-56030700D01*
X159881819Y-56030700D01*
X159989785Y-56009223D01*
X160042306Y-55998776D01*
X160193484Y-55936156D01*
X160329540Y-55845247D01*
X160445247Y-55729540D01*
X160536156Y-55593484D01*
X160598776Y-55442306D01*
X160630700Y-55281819D01*
X160969299Y-55281819D01*
X161001222Y-55442300D01*
X161001224Y-55442306D01*
X161063843Y-55593482D01*
X161154754Y-55729542D01*
X161270457Y-55845245D01*
X161270460Y-55845247D01*
X161406516Y-55936156D01*
X161557694Y-55998776D01*
X161557698Y-55998776D01*
X161557699Y-55998777D01*
X161718180Y-56030700D01*
X161718183Y-56030700D01*
X161881819Y-56030700D01*
X161989785Y-56009223D01*
X162042306Y-55998776D01*
X162193484Y-55936156D01*
X162329540Y-55845247D01*
X162445247Y-55729540D01*
X162536156Y-55593484D01*
X162598776Y-55442306D01*
X162630700Y-55281817D01*
X162630700Y-55118183D01*
X162630700Y-55118180D01*
X162598777Y-54957699D01*
X162598776Y-54957698D01*
X162598776Y-54957694D01*
X162536156Y-54806516D01*
X162445247Y-54670460D01*
X162445245Y-54670457D01*
X162329542Y-54554754D01*
X162261512Y-54509298D01*
X162193484Y-54463844D01*
X162102137Y-54426007D01*
X162042306Y-54401224D01*
X162042300Y-54401222D01*
X161881819Y-54369300D01*
X161881817Y-54369300D01*
X161718183Y-54369300D01*
X161718181Y-54369300D01*
X161557699Y-54401222D01*
X161557693Y-54401224D01*
X161406517Y-54463843D01*
X161270457Y-54554754D01*
X161154754Y-54670457D01*
X161063843Y-54806517D01*
X161001224Y-54957693D01*
X161001222Y-54957699D01*
X160969300Y-55118180D01*
X160969300Y-55118183D01*
X160969300Y-55281817D01*
X160969300Y-55281819D01*
X160969299Y-55281819D01*
X160630700Y-55281819D01*
X160630700Y-55281817D01*
X160630700Y-55118183D01*
X160630700Y-55118180D01*
X160598777Y-54957699D01*
X160598776Y-54957698D01*
X160598776Y-54957694D01*
X160536156Y-54806516D01*
X160445247Y-54670460D01*
X160445245Y-54670457D01*
X160329542Y-54554754D01*
X160261512Y-54509298D01*
X160193484Y-54463844D01*
X160102137Y-54426007D01*
X160042306Y-54401224D01*
X160042300Y-54401222D01*
X159881819Y-54369300D01*
X159881817Y-54369300D01*
X159718183Y-54369300D01*
X159718181Y-54369300D01*
X159557699Y-54401222D01*
X159557693Y-54401224D01*
X159406517Y-54463843D01*
X159270457Y-54554754D01*
X159154754Y-54670457D01*
X159063843Y-54806517D01*
X159001224Y-54957693D01*
X159001222Y-54957699D01*
X158969300Y-55118180D01*
X158969300Y-55118183D01*
X158969300Y-55281817D01*
X158969300Y-55281819D01*
X158969299Y-55281819D01*
X129900500Y-55281819D01*
X129900500Y-54281819D01*
X149169299Y-54281819D01*
X149201222Y-54442300D01*
X149201224Y-54442306D01*
X149263843Y-54593482D01*
X149354754Y-54729542D01*
X149470457Y-54845245D01*
X149470460Y-54845247D01*
X149606516Y-54936156D01*
X149757694Y-54998776D01*
X149757698Y-54998776D01*
X149757699Y-54998777D01*
X149918180Y-55030700D01*
X149918183Y-55030700D01*
X150081819Y-55030700D01*
X150189785Y-55009223D01*
X150242306Y-54998776D01*
X150393484Y-54936156D01*
X150529540Y-54845247D01*
X150645247Y-54729540D01*
X150736156Y-54593484D01*
X150798776Y-54442306D01*
X150830700Y-54281817D01*
X150830700Y-54118183D01*
X150830700Y-54118180D01*
X150798777Y-53957699D01*
X150798776Y-53957698D01*
X150798776Y-53957694D01*
X150736156Y-53806516D01*
X150645247Y-53670460D01*
X150645245Y-53670457D01*
X150529542Y-53554754D01*
X150461512Y-53509298D01*
X150393484Y-53463844D01*
X150302137Y-53426007D01*
X150242306Y-53401224D01*
X150242300Y-53401222D01*
X150081819Y-53369300D01*
X150081817Y-53369300D01*
X149918183Y-53369300D01*
X149918181Y-53369300D01*
X149757699Y-53401222D01*
X149757693Y-53401224D01*
X149606517Y-53463843D01*
X149470457Y-53554754D01*
X149354754Y-53670457D01*
X149263843Y-53806517D01*
X149201224Y-53957693D01*
X149201222Y-53957699D01*
X149169300Y-54118180D01*
X149169300Y-54118183D01*
X149169300Y-54281817D01*
X149169300Y-54281819D01*
X149169299Y-54281819D01*
X129900500Y-54281819D01*
X129900500Y-53081819D01*
X166169299Y-53081819D01*
X166201222Y-53242300D01*
X166201224Y-53242306D01*
X166263844Y-53393484D01*
X166269016Y-53401224D01*
X166354754Y-53529542D01*
X166470457Y-53645245D01*
X166470460Y-53645247D01*
X166606516Y-53736156D01*
X166757694Y-53798776D01*
X166757698Y-53798776D01*
X166757699Y-53798777D01*
X166918180Y-53830700D01*
X166918183Y-53830700D01*
X167081819Y-53830700D01*
X167203395Y-53806516D01*
X167242306Y-53798776D01*
X167393484Y-53736156D01*
X167529540Y-53645247D01*
X167645247Y-53529540D01*
X167736156Y-53393484D01*
X167798776Y-53242306D01*
X167814414Y-53163689D01*
X167830700Y-53081819D01*
X167830700Y-52918180D01*
X167798777Y-52757699D01*
X167798776Y-52757698D01*
X167798776Y-52757694D01*
X167736156Y-52606516D01*
X167707744Y-52563995D01*
X168499499Y-52563995D01*
X168526418Y-52699322D01*
X168526421Y-52699332D01*
X168579221Y-52826804D01*
X168579228Y-52826817D01*
X168645573Y-52926109D01*
X168666451Y-52992787D01*
X168647966Y-53060167D01*
X168645573Y-53063891D01*
X168579228Y-53163182D01*
X168579221Y-53163195D01*
X168526421Y-53290667D01*
X168526418Y-53290677D01*
X168499500Y-53426004D01*
X168499500Y-53426007D01*
X168499500Y-53563993D01*
X168499500Y-53563995D01*
X168499499Y-53563995D01*
X168526418Y-53699322D01*
X168526421Y-53699332D01*
X168579221Y-53826804D01*
X168579228Y-53826817D01*
X168645573Y-53926109D01*
X168666451Y-53992787D01*
X168647966Y-54060167D01*
X168645573Y-54063891D01*
X168579228Y-54163182D01*
X168579221Y-54163195D01*
X168526421Y-54290667D01*
X168526418Y-54290677D01*
X168499500Y-54426004D01*
X168499500Y-54426007D01*
X168499500Y-54563993D01*
X168499500Y-54563995D01*
X168499499Y-54563995D01*
X168526418Y-54699322D01*
X168526421Y-54699332D01*
X168579221Y-54826804D01*
X168579228Y-54826817D01*
X168655885Y-54941541D01*
X168655888Y-54941545D01*
X168753454Y-55039111D01*
X168753458Y-55039114D01*
X168868182Y-55115771D01*
X168868195Y-55115778D01*
X168995667Y-55168578D01*
X168995672Y-55168580D01*
X168995676Y-55168580D01*
X168995677Y-55168581D01*
X169131004Y-55195500D01*
X169131007Y-55195500D01*
X169268995Y-55195500D01*
X169360041Y-55177389D01*
X169404328Y-55168580D01*
X169531811Y-55115775D01*
X169631109Y-55049425D01*
X169697786Y-55028548D01*
X169765166Y-55047032D01*
X169768889Y-55049425D01*
X169868189Y-55115775D01*
X169868191Y-55115776D01*
X169868195Y-55115778D01*
X169995667Y-55168578D01*
X169995672Y-55168580D01*
X169995676Y-55168580D01*
X169995677Y-55168581D01*
X170131004Y-55195500D01*
X170131007Y-55195500D01*
X170268995Y-55195500D01*
X170360041Y-55177389D01*
X170404328Y-55168580D01*
X170531811Y-55115775D01*
X170646542Y-55039114D01*
X170744114Y-54941542D01*
X170820775Y-54826811D01*
X170832836Y-54797694D01*
X170876674Y-54743292D01*
X170942968Y-54721226D01*
X171010667Y-54738504D01*
X171058279Y-54789640D01*
X171061957Y-54797694D01*
X171074223Y-54827307D01*
X171074228Y-54827317D01*
X171150885Y-54942041D01*
X171150888Y-54942045D01*
X171248454Y-55039611D01*
X171248458Y-55039614D01*
X171363182Y-55116271D01*
X171363195Y-55116278D01*
X171489460Y-55168578D01*
X171490672Y-55169080D01*
X171490676Y-55169080D01*
X171490677Y-55169081D01*
X171626004Y-55196000D01*
X171626007Y-55196000D01*
X171763995Y-55196000D01*
X171855041Y-55177889D01*
X171899328Y-55169080D01*
X172026811Y-55116275D01*
X172126109Y-55049925D01*
X172192786Y-55029048D01*
X172260166Y-55047532D01*
X172263889Y-55049925D01*
X172363189Y-55116275D01*
X172363191Y-55116276D01*
X172363195Y-55116278D01*
X172489460Y-55168578D01*
X172490672Y-55169080D01*
X172490676Y-55169080D01*
X172490677Y-55169081D01*
X172626004Y-55196000D01*
X172626007Y-55196000D01*
X172763995Y-55196000D01*
X172855041Y-55177889D01*
X172899328Y-55169080D01*
X173026811Y-55116275D01*
X173141542Y-55039614D01*
X173239114Y-54942042D01*
X173315775Y-54827311D01*
X173368580Y-54699828D01*
X173377389Y-54655541D01*
X173395500Y-54564495D01*
X173395500Y-54426504D01*
X173368581Y-54291177D01*
X173368580Y-54291176D01*
X173368580Y-54291172D01*
X173358552Y-54266961D01*
X173315778Y-54163695D01*
X173315776Y-54163691D01*
X173315775Y-54163689D01*
X173249425Y-54064390D01*
X173228548Y-53997714D01*
X173247032Y-53930334D01*
X173249426Y-53926609D01*
X173249760Y-53926109D01*
X173315775Y-53827311D01*
X173368580Y-53699828D01*
X173395500Y-53564493D01*
X173395500Y-53426507D01*
X173395500Y-53426504D01*
X173368581Y-53291177D01*
X173368580Y-53291176D01*
X173368580Y-53291172D01*
X173358552Y-53266961D01*
X173315778Y-53163695D01*
X173315776Y-53163691D01*
X173315775Y-53163689D01*
X173249425Y-53064390D01*
X173228548Y-52997714D01*
X173247032Y-52930334D01*
X173249426Y-52926609D01*
X173255058Y-52918180D01*
X173315775Y-52827311D01*
X173368580Y-52699828D01*
X173387141Y-52606516D01*
X173395500Y-52564495D01*
X173395500Y-52426504D01*
X173368581Y-52291177D01*
X173368580Y-52291176D01*
X173368580Y-52291172D01*
X173359509Y-52269273D01*
X173315778Y-52163695D01*
X173315771Y-52163682D01*
X173239114Y-52048958D01*
X173239111Y-52048954D01*
X173141545Y-51951388D01*
X173141541Y-51951385D01*
X173026817Y-51874728D01*
X173026804Y-51874721D01*
X172899332Y-51821921D01*
X172899322Y-51821918D01*
X172763995Y-51795000D01*
X172763993Y-51795000D01*
X172626007Y-51795000D01*
X172626005Y-51795000D01*
X172490677Y-51821918D01*
X172490667Y-51821921D01*
X172363195Y-51874721D01*
X172363182Y-51874728D01*
X172263891Y-51941073D01*
X172197213Y-51961951D01*
X172129833Y-51943466D01*
X172126109Y-51941073D01*
X172026817Y-51874728D01*
X172026804Y-51874721D01*
X171899332Y-51821921D01*
X171899322Y-51821918D01*
X171763995Y-51795000D01*
X171763993Y-51795000D01*
X171626007Y-51795000D01*
X171626005Y-51795000D01*
X171490677Y-51821918D01*
X171490667Y-51821921D01*
X171363195Y-51874721D01*
X171363182Y-51874728D01*
X171248458Y-51951385D01*
X171248454Y-51951388D01*
X171150888Y-52048954D01*
X171150885Y-52048958D01*
X171074228Y-52163682D01*
X171074220Y-52163697D01*
X171062163Y-52192806D01*
X171018322Y-52247209D01*
X170952027Y-52269273D01*
X170884328Y-52251993D01*
X170836718Y-52200855D01*
X170833046Y-52192814D01*
X170820775Y-52163189D01*
X170820771Y-52163182D01*
X170744114Y-52048458D01*
X170744111Y-52048454D01*
X170646545Y-51950888D01*
X170646541Y-51950885D01*
X170531817Y-51874228D01*
X170531804Y-51874221D01*
X170404332Y-51821421D01*
X170404322Y-51821418D01*
X170268995Y-51794500D01*
X170268993Y-51794500D01*
X170131007Y-51794500D01*
X170131005Y-51794500D01*
X169995677Y-51821418D01*
X169995667Y-51821421D01*
X169868195Y-51874221D01*
X169868182Y-51874228D01*
X169768891Y-51940573D01*
X169702213Y-51961451D01*
X169634833Y-51942966D01*
X169631109Y-51940573D01*
X169531817Y-51874228D01*
X169531804Y-51874221D01*
X169404332Y-51821421D01*
X169404322Y-51821418D01*
X169268995Y-51794500D01*
X169268993Y-51794500D01*
X169131007Y-51794500D01*
X169131005Y-51794500D01*
X168995677Y-51821418D01*
X168995667Y-51821421D01*
X168868195Y-51874221D01*
X168868182Y-51874228D01*
X168753458Y-51950885D01*
X168753454Y-51950888D01*
X168655888Y-52048454D01*
X168655885Y-52048458D01*
X168579228Y-52163182D01*
X168579221Y-52163195D01*
X168526421Y-52290667D01*
X168526418Y-52290677D01*
X168499500Y-52426004D01*
X168499500Y-52426007D01*
X168499500Y-52563993D01*
X168499500Y-52563995D01*
X168499499Y-52563995D01*
X167707744Y-52563995D01*
X167657392Y-52488637D01*
X167645244Y-52470456D01*
X167529542Y-52354754D01*
X167434391Y-52291177D01*
X167393484Y-52263844D01*
X167364873Y-52251993D01*
X167242306Y-52201224D01*
X167242300Y-52201222D01*
X167081819Y-52169300D01*
X167081817Y-52169300D01*
X166918183Y-52169300D01*
X166918181Y-52169300D01*
X166757699Y-52201222D01*
X166757693Y-52201224D01*
X166606517Y-52263843D01*
X166470457Y-52354754D01*
X166354754Y-52470457D01*
X166263843Y-52606517D01*
X166201224Y-52757693D01*
X166201222Y-52757699D01*
X166169300Y-52918180D01*
X166169300Y-52918183D01*
X166169300Y-53081817D01*
X166169300Y-53081819D01*
X166169299Y-53081819D01*
X129900500Y-53081819D01*
X129900500Y-52281819D01*
X140569299Y-52281819D01*
X140601222Y-52442300D01*
X140601224Y-52442306D01*
X140651835Y-52564493D01*
X140663844Y-52593484D01*
X140698429Y-52645245D01*
X140754754Y-52729542D01*
X140870457Y-52845245D01*
X140870460Y-52845247D01*
X141006516Y-52936156D01*
X141157694Y-52998776D01*
X141157698Y-52998776D01*
X141157699Y-52998777D01*
X141318180Y-53030700D01*
X141318183Y-53030700D01*
X141481819Y-53030700D01*
X141589785Y-53009223D01*
X141642306Y-52998776D01*
X141793484Y-52936156D01*
X141929540Y-52845247D01*
X142045247Y-52729540D01*
X142136156Y-52593484D01*
X142198776Y-52442306D01*
X142230700Y-52281819D01*
X152569299Y-52281819D01*
X152601222Y-52442300D01*
X152601224Y-52442306D01*
X152651835Y-52564493D01*
X152663844Y-52593484D01*
X152698429Y-52645245D01*
X152754754Y-52729542D01*
X152870457Y-52845245D01*
X152870460Y-52845247D01*
X153006516Y-52936156D01*
X153157694Y-52998776D01*
X153157698Y-52998776D01*
X153157699Y-52998777D01*
X153318180Y-53030700D01*
X153318183Y-53030700D01*
X153481819Y-53030700D01*
X153589785Y-53009223D01*
X153642306Y-52998776D01*
X153793484Y-52936156D01*
X153929540Y-52845247D01*
X154045247Y-52729540D01*
X154136156Y-52593484D01*
X154147911Y-52565106D01*
X154191752Y-52510702D01*
X154258046Y-52488637D01*
X154325745Y-52505916D01*
X154349423Y-52526254D01*
X154350445Y-52525233D01*
X154470457Y-52645245D01*
X154470460Y-52645247D01*
X154606516Y-52736156D01*
X154757694Y-52798776D01*
X154757698Y-52798776D01*
X154757699Y-52798777D01*
X154918180Y-52830700D01*
X154918183Y-52830700D01*
X155081819Y-52830700D01*
X155189785Y-52809223D01*
X155242306Y-52798776D01*
X155393484Y-52736156D01*
X155529540Y-52645247D01*
X155645247Y-52529540D01*
X155736156Y-52393484D01*
X155798776Y-52242306D01*
X155830700Y-52081817D01*
X155830700Y-51918183D01*
X155830700Y-51918180D01*
X155798777Y-51757699D01*
X155798776Y-51757698D01*
X155798776Y-51757694D01*
X155736156Y-51606516D01*
X155645247Y-51470460D01*
X155645245Y-51470457D01*
X155562469Y-51387681D01*
X155528984Y-51326358D01*
X155533968Y-51256666D01*
X155562469Y-51212319D01*
X155645244Y-51129543D01*
X155645245Y-51129542D01*
X155645247Y-51129540D01*
X155736156Y-50993484D01*
X155798776Y-50842306D01*
X155830700Y-50681819D01*
X162769299Y-50681819D01*
X162801222Y-50842300D01*
X162801224Y-50842306D01*
X162863843Y-50993482D01*
X162954754Y-51129542D01*
X163070457Y-51245245D01*
X163070460Y-51245247D01*
X163206516Y-51336156D01*
X163357694Y-51398776D01*
X163357698Y-51398776D01*
X163357699Y-51398777D01*
X163518180Y-51430700D01*
X163518183Y-51430700D01*
X163681819Y-51430700D01*
X163830009Y-51401222D01*
X163842306Y-51398776D01*
X163993484Y-51336156D01*
X164129540Y-51245247D01*
X164245247Y-51129540D01*
X164336156Y-50993484D01*
X164398776Y-50842306D01*
X164430700Y-50681817D01*
X164430700Y-50518183D01*
X164430700Y-50518180D01*
X164398777Y-50357699D01*
X164398776Y-50357698D01*
X164398776Y-50357694D01*
X164336156Y-50206516D01*
X164245247Y-50070460D01*
X164245245Y-50070457D01*
X164129542Y-49954754D01*
X164061512Y-49909298D01*
X163993484Y-49863844D01*
X163842306Y-49801224D01*
X163842300Y-49801222D01*
X163681819Y-49769300D01*
X163681817Y-49769300D01*
X163518183Y-49769300D01*
X163518181Y-49769300D01*
X163357699Y-49801222D01*
X163357693Y-49801224D01*
X163206517Y-49863843D01*
X163070457Y-49954754D01*
X162954754Y-50070457D01*
X162863843Y-50206517D01*
X162801224Y-50357693D01*
X162801222Y-50357699D01*
X162769300Y-50518180D01*
X162769300Y-50518183D01*
X162769300Y-50681817D01*
X162769300Y-50681819D01*
X162769299Y-50681819D01*
X155830700Y-50681819D01*
X155830700Y-50681817D01*
X155830700Y-50518183D01*
X155830700Y-50518180D01*
X155798777Y-50357699D01*
X155798776Y-50357698D01*
X155798776Y-50357694D01*
X155736156Y-50206516D01*
X155645247Y-50070460D01*
X155645245Y-50070457D01*
X155529542Y-49954754D01*
X155461512Y-49909298D01*
X155393484Y-49863844D01*
X155242306Y-49801224D01*
X155242300Y-49801222D01*
X155081819Y-49769300D01*
X155081817Y-49769300D01*
X154918183Y-49769300D01*
X154918181Y-49769300D01*
X154757699Y-49801222D01*
X154757693Y-49801224D01*
X154606517Y-49863843D01*
X154470457Y-49954754D01*
X154354754Y-50070457D01*
X154263843Y-50206517D01*
X154201224Y-50357693D01*
X154201222Y-50357699D01*
X154169300Y-50518180D01*
X154169300Y-50518183D01*
X154169300Y-50681817D01*
X154169300Y-50681819D01*
X154169299Y-50681819D01*
X154201222Y-50842300D01*
X154201224Y-50842306D01*
X154263843Y-50993482D01*
X154354754Y-51129542D01*
X154437531Y-51212319D01*
X154471016Y-51273642D01*
X154466032Y-51343334D01*
X154437531Y-51387681D01*
X154354755Y-51470456D01*
X154354754Y-51470457D01*
X154263843Y-51606517D01*
X154252087Y-51634897D01*
X154208244Y-51689299D01*
X154141949Y-51711362D01*
X154074250Y-51694081D01*
X154050579Y-51673742D01*
X154049555Y-51674767D01*
X153929542Y-51554754D01*
X153861512Y-51509298D01*
X153793484Y-51463844D01*
X153713467Y-51430700D01*
X153642306Y-51401224D01*
X153642300Y-51401222D01*
X153481819Y-51369300D01*
X153481817Y-51369300D01*
X153318183Y-51369300D01*
X153318181Y-51369300D01*
X153157699Y-51401222D01*
X153157693Y-51401224D01*
X153006517Y-51463843D01*
X152870457Y-51554754D01*
X152754754Y-51670457D01*
X152663843Y-51806517D01*
X152601224Y-51957693D01*
X152601222Y-51957699D01*
X152569300Y-52118180D01*
X152569300Y-52118183D01*
X152569300Y-52281817D01*
X152569300Y-52281819D01*
X152569299Y-52281819D01*
X142230700Y-52281819D01*
X142230700Y-52281817D01*
X142230700Y-52118183D01*
X142230700Y-52118180D01*
X142198777Y-51957699D01*
X142198776Y-51957698D01*
X142198776Y-51957694D01*
X142136156Y-51806516D01*
X142045247Y-51670460D01*
X142045245Y-51670457D01*
X141929542Y-51554754D01*
X141861512Y-51509298D01*
X141793484Y-51463844D01*
X141713467Y-51430700D01*
X141642306Y-51401224D01*
X141642300Y-51401222D01*
X141481819Y-51369300D01*
X141481817Y-51369300D01*
X141318183Y-51369300D01*
X141318181Y-51369300D01*
X141157699Y-51401222D01*
X141157693Y-51401224D01*
X141006517Y-51463843D01*
X140870457Y-51554754D01*
X140754754Y-51670457D01*
X140663843Y-51806517D01*
X140601224Y-51957693D01*
X140601222Y-51957699D01*
X140569300Y-52118180D01*
X140569300Y-52118183D01*
X140569300Y-52281817D01*
X140569300Y-52281819D01*
X140569299Y-52281819D01*
X129900500Y-52281819D01*
X129900500Y-47881819D01*
X143369299Y-47881819D01*
X143401222Y-48042300D01*
X143401224Y-48042306D01*
X143423963Y-48097204D01*
X143463844Y-48193484D01*
X143488711Y-48230700D01*
X143554754Y-48329542D01*
X143670457Y-48445245D01*
X143670460Y-48445247D01*
X143806516Y-48536156D01*
X143957694Y-48598776D01*
X143957698Y-48598776D01*
X143957699Y-48598777D01*
X144118180Y-48630700D01*
X144118183Y-48630700D01*
X144281819Y-48630700D01*
X144389785Y-48609223D01*
X144442306Y-48598776D01*
X144593484Y-48536156D01*
X144729540Y-48445247D01*
X144845247Y-48329540D01*
X144936156Y-48193484D01*
X144998776Y-48042306D01*
X145030700Y-47881817D01*
X145030700Y-47718183D01*
X145030700Y-47718180D01*
X144998777Y-47557699D01*
X144998776Y-47557698D01*
X144998776Y-47557694D01*
X144967348Y-47481819D01*
X178769299Y-47481819D01*
X178801222Y-47642300D01*
X178801224Y-47642306D01*
X178863843Y-47793482D01*
X178954754Y-47929542D01*
X179070457Y-48045245D01*
X179070460Y-48045247D01*
X179206516Y-48136156D01*
X179357694Y-48198776D01*
X179357698Y-48198776D01*
X179357699Y-48198777D01*
X179518180Y-48230700D01*
X179518183Y-48230700D01*
X179681819Y-48230700D01*
X179789785Y-48209223D01*
X179836238Y-48199983D01*
X183099500Y-48199983D01*
X183099500Y-49400001D01*
X183099501Y-49400018D01*
X183110000Y-49502796D01*
X183110001Y-49502799D01*
X183165185Y-49669331D01*
X183165186Y-49669334D01*
X183257288Y-49818656D01*
X183381344Y-49942712D01*
X183530666Y-50034814D01*
X183697203Y-50089999D01*
X183799991Y-50100500D01*
X185000008Y-50100499D01*
X185102797Y-50089999D01*
X185269334Y-50034814D01*
X185418656Y-49942712D01*
X185542712Y-49818656D01*
X185634814Y-49669334D01*
X185689999Y-49502797D01*
X185700500Y-49400009D01*
X185700499Y-48199992D01*
X185689999Y-48097203D01*
X185634814Y-47930666D01*
X185542712Y-47781344D01*
X185418656Y-47657288D01*
X185269334Y-47565186D01*
X185102797Y-47510001D01*
X185102795Y-47510000D01*
X185000010Y-47499500D01*
X183799998Y-47499500D01*
X183799981Y-47499501D01*
X183697203Y-47510000D01*
X183697200Y-47510001D01*
X183530668Y-47565185D01*
X183530663Y-47565187D01*
X183381342Y-47657289D01*
X183257289Y-47781342D01*
X183165187Y-47930663D01*
X183165186Y-47930666D01*
X183110001Y-48097203D01*
X183110001Y-48097204D01*
X183110000Y-48097204D01*
X183099500Y-48199983D01*
X179836238Y-48199983D01*
X179842306Y-48198776D01*
X179993484Y-48136156D01*
X180056978Y-48093731D01*
X180056980Y-48093730D01*
X180093112Y-48069586D01*
X180129540Y-48045247D01*
X180245247Y-47929540D01*
X180336156Y-47793484D01*
X180398776Y-47642306D01*
X180414116Y-47565187D01*
X180430700Y-47481819D01*
X180430700Y-47318180D01*
X180398777Y-47157699D01*
X180398776Y-47157698D01*
X180398776Y-47157694D01*
X180336156Y-47006516D01*
X180245247Y-46870460D01*
X180245245Y-46870457D01*
X180129542Y-46754754D01*
X180061512Y-46709298D01*
X179993484Y-46663844D01*
X179842306Y-46601224D01*
X179842300Y-46601222D01*
X179681819Y-46569300D01*
X179681817Y-46569300D01*
X179518183Y-46569300D01*
X179518181Y-46569300D01*
X179357699Y-46601222D01*
X179357693Y-46601224D01*
X179206517Y-46663843D01*
X179070457Y-46754754D01*
X178954754Y-46870457D01*
X178863843Y-47006517D01*
X178801224Y-47157693D01*
X178801222Y-47157699D01*
X178769300Y-47318180D01*
X178769300Y-47318183D01*
X178769300Y-47481817D01*
X178769300Y-47481819D01*
X178769299Y-47481819D01*
X144967348Y-47481819D01*
X144936156Y-47406516D01*
X144845247Y-47270460D01*
X144845245Y-47270457D01*
X144729542Y-47154754D01*
X144661512Y-47109298D01*
X144593484Y-47063844D01*
X144442306Y-47001224D01*
X144442300Y-47001222D01*
X144281819Y-46969300D01*
X144281817Y-46969300D01*
X144118183Y-46969300D01*
X144118181Y-46969300D01*
X143957699Y-47001222D01*
X143957693Y-47001224D01*
X143806517Y-47063843D01*
X143670457Y-47154754D01*
X143554754Y-47270457D01*
X143463843Y-47406517D01*
X143401224Y-47557693D01*
X143401222Y-47557699D01*
X143369300Y-47718180D01*
X143369300Y-47718183D01*
X143369300Y-47881817D01*
X143369300Y-47881819D01*
X143369299Y-47881819D01*
X129900500Y-47881819D01*
X129900500Y-45912707D01*
X165738411Y-45912707D01*
X165770334Y-46073188D01*
X165770336Y-46073194D01*
X165832955Y-46224370D01*
X165923866Y-46360430D01*
X166039569Y-46476133D01*
X166039572Y-46476135D01*
X166175628Y-46567044D01*
X166326806Y-46629664D01*
X166326810Y-46629664D01*
X166326811Y-46629665D01*
X166487292Y-46661588D01*
X166487295Y-46661588D01*
X166650931Y-46661588D01*
X166758897Y-46640111D01*
X166811418Y-46629664D01*
X166962596Y-46567044D01*
X167098652Y-46476135D01*
X167214359Y-46360428D01*
X167305268Y-46224372D01*
X167367888Y-46073194D01*
X167399812Y-45912705D01*
X167399812Y-45749071D01*
X167399812Y-45749068D01*
X167367889Y-45588587D01*
X167367888Y-45588586D01*
X167367888Y-45588582D01*
X167305268Y-45437404D01*
X167214359Y-45301348D01*
X167214357Y-45301345D01*
X167098654Y-45185642D01*
X167024592Y-45136156D01*
X166962596Y-45094732D01*
X166811418Y-45032112D01*
X166811412Y-45032110D01*
X166650931Y-45000188D01*
X166650929Y-45000188D01*
X166487295Y-45000188D01*
X166487293Y-45000188D01*
X166326811Y-45032110D01*
X166326805Y-45032112D01*
X166175629Y-45094731D01*
X166039569Y-45185642D01*
X165923866Y-45301345D01*
X165832955Y-45437405D01*
X165770336Y-45588581D01*
X165770334Y-45588587D01*
X165738412Y-45749068D01*
X165738412Y-45749071D01*
X165738412Y-45912705D01*
X165738412Y-45912707D01*
X165738411Y-45912707D01*
X129900500Y-45912707D01*
X129900500Y-43081819D01*
X142369299Y-43081819D01*
X142401222Y-43242300D01*
X142401224Y-43242306D01*
X142460140Y-43384543D01*
X142463844Y-43393484D01*
X142469016Y-43401224D01*
X142554754Y-43529542D01*
X142637531Y-43612319D01*
X142671016Y-43673642D01*
X142666032Y-43743334D01*
X142637531Y-43787681D01*
X142554755Y-43870456D01*
X142554754Y-43870457D01*
X142463843Y-44006517D01*
X142401224Y-44157693D01*
X142401222Y-44157699D01*
X142369300Y-44318180D01*
X142369300Y-44318183D01*
X142369300Y-44481817D01*
X142369300Y-44481819D01*
X142369299Y-44481819D01*
X142401222Y-44642300D01*
X142401224Y-44642306D01*
X142437357Y-44729540D01*
X142463844Y-44793484D01*
X142509298Y-44861512D01*
X142554754Y-44929542D01*
X142670457Y-45045245D01*
X142670460Y-45045247D01*
X142806516Y-45136156D01*
X142957694Y-45198776D01*
X142957698Y-45198776D01*
X142957699Y-45198777D01*
X143118180Y-45230700D01*
X143118183Y-45230700D01*
X143281819Y-45230700D01*
X143389785Y-45209223D01*
X143442306Y-45198776D01*
X143593484Y-45136156D01*
X143729540Y-45045247D01*
X143845247Y-44929540D01*
X143936156Y-44793484D01*
X143998776Y-44642306D01*
X144030700Y-44481817D01*
X144030700Y-44318183D01*
X144030700Y-44318180D01*
X144023467Y-44281819D01*
X171769299Y-44281819D01*
X171801222Y-44442300D01*
X171801224Y-44442306D01*
X171863844Y-44593484D01*
X171896462Y-44642300D01*
X171954754Y-44729542D01*
X172070457Y-44845245D01*
X172070460Y-44845247D01*
X172206516Y-44936156D01*
X172357694Y-44998776D01*
X172357698Y-44998776D01*
X172357699Y-44998777D01*
X172518180Y-45030700D01*
X172518183Y-45030700D01*
X172681819Y-45030700D01*
X172789785Y-45009223D01*
X172842306Y-44998776D01*
X172993484Y-44936156D01*
X173129540Y-44845247D01*
X173181305Y-44793482D01*
X173249555Y-44725233D01*
X173250913Y-44726591D01*
X173301293Y-44692267D01*
X173371137Y-44690389D01*
X173427093Y-44722581D01*
X173470457Y-44765945D01*
X173470460Y-44765947D01*
X173606516Y-44856856D01*
X173757694Y-44919476D01*
X173757698Y-44919476D01*
X173757699Y-44919477D01*
X173918180Y-44951400D01*
X173918183Y-44951400D01*
X174081819Y-44951400D01*
X174191712Y-44929540D01*
X174242306Y-44919476D01*
X174393484Y-44856856D01*
X174529540Y-44765947D01*
X174645247Y-44650240D01*
X174736156Y-44514184D01*
X174798776Y-44363006D01*
X174809223Y-44310485D01*
X174830700Y-44202519D01*
X174830700Y-44038880D01*
X174798777Y-43878399D01*
X174798776Y-43878398D01*
X174798776Y-43878394D01*
X174736156Y-43727216D01*
X174645247Y-43591160D01*
X174645245Y-43591157D01*
X174529542Y-43475454D01*
X174459838Y-43428880D01*
X174393484Y-43384544D01*
X174242306Y-43321924D01*
X174242300Y-43321922D01*
X174081819Y-43290000D01*
X174081817Y-43290000D01*
X173918183Y-43290000D01*
X173918181Y-43290000D01*
X173757699Y-43321922D01*
X173757693Y-43321924D01*
X173606517Y-43384543D01*
X173470457Y-43475454D01*
X173470456Y-43475455D01*
X173350445Y-43595467D01*
X173349094Y-43594116D01*
X173298658Y-43628448D01*
X173228813Y-43630297D01*
X173172906Y-43598118D01*
X173129542Y-43554754D01*
X173010861Y-43475455D01*
X172993484Y-43463844D01*
X172909073Y-43428880D01*
X172842306Y-43401224D01*
X172842300Y-43401222D01*
X172681819Y-43369300D01*
X172681817Y-43369300D01*
X172518183Y-43369300D01*
X172518181Y-43369300D01*
X172357699Y-43401222D01*
X172357693Y-43401224D01*
X172206517Y-43463843D01*
X172070457Y-43554754D01*
X171954754Y-43670457D01*
X171863843Y-43806517D01*
X171801224Y-43957693D01*
X171801222Y-43957699D01*
X171769300Y-44118180D01*
X171769300Y-44118183D01*
X171769300Y-44281817D01*
X171769300Y-44281819D01*
X171769299Y-44281819D01*
X144023467Y-44281819D01*
X143998777Y-44157699D01*
X143998776Y-44157698D01*
X143998776Y-44157694D01*
X143949562Y-44038880D01*
X143936158Y-44006519D01*
X143845245Y-43870457D01*
X143762469Y-43787681D01*
X143728984Y-43726358D01*
X143733968Y-43656666D01*
X143762469Y-43612319D01*
X143845244Y-43529543D01*
X143845245Y-43529542D01*
X143845247Y-43529540D01*
X143936156Y-43393484D01*
X143998776Y-43242306D01*
X144030700Y-43081819D01*
X151969299Y-43081819D01*
X152001222Y-43242300D01*
X152001224Y-43242306D01*
X152060140Y-43384543D01*
X152063844Y-43393484D01*
X152069016Y-43401224D01*
X152154754Y-43529542D01*
X152270457Y-43645245D01*
X152270460Y-43645247D01*
X152406516Y-43736156D01*
X152557694Y-43798776D01*
X152557698Y-43798776D01*
X152557699Y-43798777D01*
X152718180Y-43830700D01*
X152718183Y-43830700D01*
X152881819Y-43830700D01*
X153003395Y-43806516D01*
X153042306Y-43798776D01*
X153193484Y-43736156D01*
X153329540Y-43645247D01*
X153445247Y-43529540D01*
X153496898Y-43452238D01*
X153550509Y-43407434D01*
X153619834Y-43398726D01*
X153682862Y-43428880D01*
X153703103Y-43452239D01*
X153754754Y-43529542D01*
X153870457Y-43645245D01*
X153870460Y-43645247D01*
X154006516Y-43736156D01*
X154157694Y-43798776D01*
X154157698Y-43798776D01*
X154157699Y-43798777D01*
X154318180Y-43830700D01*
X154318183Y-43830700D01*
X154481819Y-43830700D01*
X154603395Y-43806516D01*
X154642306Y-43798776D01*
X154793484Y-43736156D01*
X154929540Y-43645247D01*
X155045247Y-43529540D01*
X155096898Y-43452238D01*
X155150509Y-43407434D01*
X155219834Y-43398726D01*
X155282862Y-43428880D01*
X155303103Y-43452239D01*
X155354754Y-43529542D01*
X155470457Y-43645245D01*
X155470460Y-43645247D01*
X155606516Y-43736156D01*
X155757694Y-43798776D01*
X155757698Y-43798776D01*
X155757699Y-43798777D01*
X155918180Y-43830700D01*
X155918183Y-43830700D01*
X156081819Y-43830700D01*
X156203395Y-43806516D01*
X156242306Y-43798776D01*
X156393484Y-43736156D01*
X156529540Y-43645247D01*
X156645247Y-43529540D01*
X156736156Y-43393484D01*
X156739860Y-43384543D01*
X156785439Y-43274505D01*
X156829280Y-43220101D01*
X156895574Y-43198036D01*
X156963273Y-43215315D01*
X157010884Y-43266452D01*
X157014561Y-43274505D01*
X157063841Y-43393480D01*
X157154754Y-43529542D01*
X157270457Y-43645245D01*
X157270460Y-43645247D01*
X157406516Y-43736156D01*
X157557694Y-43798776D01*
X157557698Y-43798776D01*
X157557699Y-43798777D01*
X157718180Y-43830700D01*
X157718183Y-43830700D01*
X157881819Y-43830700D01*
X158003395Y-43806516D01*
X158042306Y-43798776D01*
X158193484Y-43736156D01*
X158329540Y-43645247D01*
X158445247Y-43529540D01*
X158536156Y-43393484D01*
X158598776Y-43242306D01*
X158630700Y-43081817D01*
X158630700Y-42918183D01*
X158630700Y-42918180D01*
X158598777Y-42757699D01*
X158598776Y-42757698D01*
X158598776Y-42757694D01*
X158536156Y-42606516D01*
X158445247Y-42470460D01*
X158445246Y-42470459D01*
X158445245Y-42470457D01*
X158329542Y-42354754D01*
X158260729Y-42308775D01*
X158193484Y-42263844D01*
X158150781Y-42246156D01*
X158042306Y-42201224D01*
X158042300Y-42201222D01*
X157881819Y-42169300D01*
X157881817Y-42169300D01*
X157718183Y-42169300D01*
X157718181Y-42169300D01*
X157557699Y-42201222D01*
X157557693Y-42201224D01*
X157406517Y-42263843D01*
X157270457Y-42354754D01*
X157154754Y-42470457D01*
X157063843Y-42606517D01*
X157014561Y-42725495D01*
X156970720Y-42779898D01*
X156904426Y-42801963D01*
X156836726Y-42784684D01*
X156789116Y-42733546D01*
X156785439Y-42725495D01*
X156736156Y-42606517D01*
X156736156Y-42606516D01*
X156645247Y-42470460D01*
X156645246Y-42470459D01*
X156645245Y-42470457D01*
X156529542Y-42354754D01*
X156460729Y-42308775D01*
X156393484Y-42263844D01*
X156350781Y-42246156D01*
X156242306Y-42201224D01*
X156242300Y-42201222D01*
X156081819Y-42169300D01*
X156081817Y-42169300D01*
X155918183Y-42169300D01*
X155918181Y-42169300D01*
X155757699Y-42201222D01*
X155757693Y-42201224D01*
X155606517Y-42263843D01*
X155470457Y-42354754D01*
X155354752Y-42470459D01*
X155303102Y-42547761D01*
X155249490Y-42592566D01*
X155180165Y-42601273D01*
X155117138Y-42571119D01*
X155096898Y-42547761D01*
X155045247Y-42470459D01*
X154929542Y-42354754D01*
X154860729Y-42308775D01*
X154793484Y-42263844D01*
X154750781Y-42246156D01*
X154642306Y-42201224D01*
X154642300Y-42201222D01*
X154481819Y-42169300D01*
X154481817Y-42169300D01*
X154318183Y-42169300D01*
X154318181Y-42169300D01*
X154157699Y-42201222D01*
X154157693Y-42201224D01*
X154006517Y-42263843D01*
X153870457Y-42354754D01*
X153754752Y-42470459D01*
X153703102Y-42547761D01*
X153649490Y-42592566D01*
X153580165Y-42601273D01*
X153517138Y-42571119D01*
X153496898Y-42547761D01*
X153445247Y-42470459D01*
X153329542Y-42354754D01*
X153260729Y-42308775D01*
X153193484Y-42263844D01*
X153150781Y-42246156D01*
X153042306Y-42201224D01*
X153042300Y-42201222D01*
X152881819Y-42169300D01*
X152881817Y-42169300D01*
X152718183Y-42169300D01*
X152718181Y-42169300D01*
X152557699Y-42201222D01*
X152557693Y-42201224D01*
X152406517Y-42263843D01*
X152270457Y-42354754D01*
X152154754Y-42470457D01*
X152063843Y-42606517D01*
X152001224Y-42757693D01*
X152001222Y-42757699D01*
X151969300Y-42918180D01*
X151969300Y-42918183D01*
X151969300Y-43081817D01*
X151969300Y-43081819D01*
X151969299Y-43081819D01*
X144030700Y-43081819D01*
X144030700Y-43081817D01*
X144030700Y-42918183D01*
X144030700Y-42918180D01*
X143998777Y-42757699D01*
X143998776Y-42757698D01*
X143998776Y-42757694D01*
X143936156Y-42606516D01*
X143845247Y-42470460D01*
X143845246Y-42470459D01*
X143845245Y-42470457D01*
X143729542Y-42354754D01*
X143660729Y-42308775D01*
X143593484Y-42263844D01*
X143550781Y-42246156D01*
X143442306Y-42201224D01*
X143442300Y-42201222D01*
X143281819Y-42169300D01*
X143281817Y-42169300D01*
X143118183Y-42169300D01*
X143118181Y-42169300D01*
X142957699Y-42201222D01*
X142957693Y-42201224D01*
X142806517Y-42263843D01*
X142670457Y-42354754D01*
X142554754Y-42470457D01*
X142463843Y-42606517D01*
X142401224Y-42757693D01*
X142401222Y-42757699D01*
X142369300Y-42918180D01*
X142369300Y-42918183D01*
X142369300Y-43081817D01*
X142369300Y-43081819D01*
X142369299Y-43081819D01*
X129900500Y-43081819D01*
X129900500Y-41591819D01*
X171969299Y-41591819D01*
X172001222Y-41752300D01*
X172001224Y-41752306D01*
X172063843Y-41903482D01*
X172154754Y-42039542D01*
X172270457Y-42155245D01*
X172270460Y-42155247D01*
X172406516Y-42246156D01*
X172557694Y-42308776D01*
X172557698Y-42308776D01*
X172557699Y-42308777D01*
X172718180Y-42340700D01*
X172718183Y-42340700D01*
X172881819Y-42340700D01*
X172989785Y-42319223D01*
X173042306Y-42308776D01*
X173193484Y-42246156D01*
X173329540Y-42155247D01*
X173445247Y-42039540D01*
X173536156Y-41903484D01*
X173598776Y-41752306D01*
X173630700Y-41591817D01*
X173630700Y-41428183D01*
X173630700Y-41428180D01*
X173598777Y-41267699D01*
X173598776Y-41267698D01*
X173598776Y-41267694D01*
X173536156Y-41116516D01*
X173445247Y-40980460D01*
X173445245Y-40980457D01*
X173329542Y-40864754D01*
X173261512Y-40819298D01*
X173193484Y-40773844D01*
X173042306Y-40711224D01*
X173042300Y-40711222D01*
X172881819Y-40679300D01*
X172881817Y-40679300D01*
X172718183Y-40679300D01*
X172718181Y-40679300D01*
X172557699Y-40711222D01*
X172557693Y-40711224D01*
X172406517Y-40773843D01*
X172270457Y-40864754D01*
X172154754Y-40980457D01*
X172063843Y-41116517D01*
X172001224Y-41267693D01*
X172001222Y-41267699D01*
X171969300Y-41428180D01*
X171969300Y-41428183D01*
X171969300Y-41591817D01*
X171969300Y-41591819D01*
X171969299Y-41591819D01*
X129900500Y-41591819D01*
X129900500Y-39481819D01*
X171569299Y-39481819D01*
X171601222Y-39642300D01*
X171601224Y-39642306D01*
X171663843Y-39793482D01*
X171754754Y-39929542D01*
X171870457Y-40045245D01*
X171870460Y-40045247D01*
X172006516Y-40136156D01*
X172157694Y-40198776D01*
X172157698Y-40198776D01*
X172157699Y-40198777D01*
X172318180Y-40230700D01*
X172318183Y-40230700D01*
X172481819Y-40230700D01*
X172589785Y-40209223D01*
X172642306Y-40198776D01*
X172793484Y-40136156D01*
X172929540Y-40045247D01*
X173045247Y-39929540D01*
X173136156Y-39793484D01*
X173198776Y-39642306D01*
X173230700Y-39481817D01*
X173230700Y-39318183D01*
X173230700Y-39318180D01*
X173198777Y-39157699D01*
X173198776Y-39157698D01*
X173198776Y-39157694D01*
X173136156Y-39006516D01*
X173045247Y-38870460D01*
X173045245Y-38870457D01*
X172929542Y-38754754D01*
X172861512Y-38709298D01*
X172793484Y-38663844D01*
X172642306Y-38601224D01*
X172642300Y-38601222D01*
X172481819Y-38569300D01*
X172481817Y-38569300D01*
X172318183Y-38569300D01*
X172318181Y-38569300D01*
X172157699Y-38601222D01*
X172157693Y-38601224D01*
X172006517Y-38663843D01*
X171870457Y-38754754D01*
X171754754Y-38870457D01*
X171663843Y-39006517D01*
X171601224Y-39157693D01*
X171601222Y-39157699D01*
X171569300Y-39318180D01*
X171569300Y-39318183D01*
X171569300Y-39481817D01*
X171569300Y-39481819D01*
X171569299Y-39481819D01*
X129900500Y-39481819D01*
X129900500Y-37281819D01*
X141769299Y-37281819D01*
X141801222Y-37442300D01*
X141801224Y-37442306D01*
X141863843Y-37593482D01*
X141954754Y-37729542D01*
X142070457Y-37845245D01*
X142070460Y-37845247D01*
X142206516Y-37936156D01*
X142357694Y-37998776D01*
X142357698Y-37998776D01*
X142357699Y-37998777D01*
X142518180Y-38030700D01*
X142518183Y-38030700D01*
X142681819Y-38030700D01*
X142789785Y-38009223D01*
X142842306Y-37998776D01*
X142993484Y-37936156D01*
X143129540Y-37845247D01*
X143245247Y-37729540D01*
X143336156Y-37593484D01*
X143398776Y-37442306D01*
X143430700Y-37281817D01*
X143430700Y-37118183D01*
X143430700Y-37118180D01*
X143398777Y-36957699D01*
X143398776Y-36957698D01*
X143398776Y-36957694D01*
X143336156Y-36806516D01*
X143245247Y-36670460D01*
X143245245Y-36670457D01*
X143129542Y-36554754D01*
X143061512Y-36509298D01*
X142993484Y-36463844D01*
X142842306Y-36401224D01*
X142842300Y-36401222D01*
X142681819Y-36369300D01*
X142681817Y-36369300D01*
X142518183Y-36369300D01*
X142518181Y-36369300D01*
X142357699Y-36401222D01*
X142357693Y-36401224D01*
X142206517Y-36463843D01*
X142070457Y-36554754D01*
X141954754Y-36670457D01*
X141863843Y-36806517D01*
X141801224Y-36957693D01*
X141801222Y-36957699D01*
X141769300Y-37118180D01*
X141769300Y-37118183D01*
X141769300Y-37281817D01*
X141769300Y-37281819D01*
X141769299Y-37281819D01*
X129900500Y-37281819D01*
X129900500Y-33740264D01*
X129920185Y-33673225D01*
X129972989Y-33627470D01*
X130042147Y-33617526D01*
X130105703Y-33646551D01*
X130122876Y-33664778D01*
X130217370Y-33787926D01*
X130217376Y-33787933D01*
X130412066Y-33982623D01*
X130412072Y-33982628D01*
X130630521Y-34150249D01*
X130783778Y-34238732D01*
X130868971Y-34287919D01*
X130868976Y-34287921D01*
X130868979Y-34287923D01*
X131123368Y-34393295D01*
X131389334Y-34464560D01*
X131662326Y-34500500D01*
X131662333Y-34500500D01*
X131937667Y-34500500D01*
X131937674Y-34500500D01*
X132210666Y-34464560D01*
X132476632Y-34393295D01*
X132731021Y-34287923D01*
X132969479Y-34150249D01*
X133187928Y-33982628D01*
X133382628Y-33787928D01*
X133464048Y-33681819D01*
X146169299Y-33681819D01*
X146201222Y-33842300D01*
X146201224Y-33842306D01*
X146263843Y-33993482D01*
X146354754Y-34129542D01*
X146470457Y-34245245D01*
X146470460Y-34245247D01*
X146606516Y-34336156D01*
X146757694Y-34398776D01*
X146757698Y-34398776D01*
X146757699Y-34398777D01*
X146918180Y-34430700D01*
X146918183Y-34430700D01*
X147081819Y-34430700D01*
X147189785Y-34409223D01*
X147242306Y-34398776D01*
X147393484Y-34336156D01*
X147529540Y-34245247D01*
X147645247Y-34129540D01*
X147736156Y-33993484D01*
X147798776Y-33842306D01*
X147830700Y-33681817D01*
X147830700Y-33518183D01*
X147830700Y-33518180D01*
X147798777Y-33357699D01*
X147798776Y-33357698D01*
X147798776Y-33357694D01*
X147798774Y-33357689D01*
X147778675Y-33309164D01*
X147760459Y-33265186D01*
X153199500Y-33265186D01*
X153199500Y-33534813D01*
X153229686Y-33802719D01*
X153229688Y-33802731D01*
X153289684Y-34065594D01*
X153289687Y-34065602D01*
X153378734Y-34320082D01*
X153495714Y-34562994D01*
X153495716Y-34562997D01*
X153639162Y-34791289D01*
X153807266Y-35002085D01*
X153997915Y-35192734D01*
X154208711Y-35360838D01*
X154437003Y-35504284D01*
X154679921Y-35621267D01*
X154871049Y-35688145D01*
X154934397Y-35710312D01*
X154934405Y-35710315D01*
X154934408Y-35710315D01*
X154934409Y-35710316D01*
X155197268Y-35770312D01*
X155465187Y-35800499D01*
X155465188Y-35800500D01*
X155465191Y-35800500D01*
X155734812Y-35800500D01*
X155734812Y-35800499D01*
X156002732Y-35770312D01*
X156265591Y-35710316D01*
X156520079Y-35621267D01*
X156762997Y-35504284D01*
X156991289Y-35360838D01*
X157202085Y-35192734D01*
X157392734Y-35002085D01*
X157560838Y-34791289D01*
X157704284Y-34562997D01*
X157821267Y-34320079D01*
X157910316Y-34065591D01*
X157970312Y-33802732D01*
X158000500Y-33534809D01*
X158000500Y-33265191D01*
X158000499Y-33265186D01*
X159599500Y-33265186D01*
X159599500Y-33534813D01*
X159629686Y-33802719D01*
X159629688Y-33802731D01*
X159689684Y-34065594D01*
X159689687Y-34065602D01*
X159778734Y-34320082D01*
X159895714Y-34562994D01*
X159895716Y-34562997D01*
X160039162Y-34791289D01*
X160207266Y-35002085D01*
X160397915Y-35192734D01*
X160608711Y-35360838D01*
X160837003Y-35504284D01*
X161079921Y-35621267D01*
X161271049Y-35688145D01*
X161334397Y-35710312D01*
X161334405Y-35710315D01*
X161334408Y-35710315D01*
X161334409Y-35710316D01*
X161597268Y-35770312D01*
X161865187Y-35800499D01*
X161865188Y-35800500D01*
X161865191Y-35800500D01*
X162134812Y-35800500D01*
X162134812Y-35800499D01*
X162402732Y-35770312D01*
X162665591Y-35710316D01*
X162920079Y-35621267D01*
X163162997Y-35504284D01*
X163391289Y-35360838D01*
X163602085Y-35192734D01*
X163792734Y-35002085D01*
X163960838Y-34791289D01*
X164104284Y-34562997D01*
X164221267Y-34320079D01*
X164310316Y-34065591D01*
X164370312Y-33802732D01*
X164400500Y-33534809D01*
X164400500Y-33265191D01*
X164370312Y-32997268D01*
X164310316Y-32734409D01*
X164221267Y-32479921D01*
X164104284Y-32237003D01*
X163960838Y-32008711D01*
X163792734Y-31797915D01*
X163602085Y-31607266D01*
X163391289Y-31439162D01*
X163162997Y-31295716D01*
X163162994Y-31295714D01*
X162920082Y-31178734D01*
X162665602Y-31089687D01*
X162665594Y-31089684D01*
X162468446Y-31044687D01*
X162402732Y-31029688D01*
X162402728Y-31029687D01*
X162402719Y-31029686D01*
X162134813Y-30999500D01*
X162134809Y-30999500D01*
X161865191Y-30999500D01*
X161865186Y-30999500D01*
X161597280Y-31029686D01*
X161597268Y-31029688D01*
X161334405Y-31089684D01*
X161334397Y-31089687D01*
X161079917Y-31178734D01*
X160837005Y-31295714D01*
X160608712Y-31439161D01*
X160397915Y-31607265D01*
X160207265Y-31797915D01*
X160039161Y-32008712D01*
X159895714Y-32237005D01*
X159778734Y-32479917D01*
X159689687Y-32734397D01*
X159689684Y-32734405D01*
X159629688Y-32997268D01*
X159629686Y-32997280D01*
X159599500Y-33265186D01*
X158000499Y-33265186D01*
X157970312Y-32997268D01*
X157910316Y-32734409D01*
X157821267Y-32479921D01*
X157704284Y-32237003D01*
X157560838Y-32008711D01*
X157392734Y-31797915D01*
X157202085Y-31607266D01*
X156991289Y-31439162D01*
X156762997Y-31295716D01*
X156762994Y-31295714D01*
X156520082Y-31178734D01*
X156265602Y-31089687D01*
X156265594Y-31089684D01*
X156068446Y-31044687D01*
X156002732Y-31029688D01*
X156002728Y-31029687D01*
X156002719Y-31029686D01*
X155734813Y-30999500D01*
X155734809Y-30999500D01*
X155465191Y-30999500D01*
X155465186Y-30999500D01*
X155197280Y-31029686D01*
X155197268Y-31029688D01*
X154934405Y-31089684D01*
X154934397Y-31089687D01*
X154679917Y-31178734D01*
X154437005Y-31295714D01*
X154208712Y-31439161D01*
X153997915Y-31607265D01*
X153807265Y-31797915D01*
X153639161Y-32008712D01*
X153495714Y-32237005D01*
X153378734Y-32479917D01*
X153289687Y-32734397D01*
X153289684Y-32734405D01*
X153229688Y-32997268D01*
X153229686Y-32997280D01*
X153199500Y-33265186D01*
X147760459Y-33265186D01*
X147736157Y-33206517D01*
X147645245Y-33070457D01*
X147529542Y-32954754D01*
X147461512Y-32909298D01*
X147393484Y-32863844D01*
X147265074Y-32810655D01*
X147242306Y-32801224D01*
X147242300Y-32801222D01*
X147081819Y-32769300D01*
X147081817Y-32769300D01*
X146918183Y-32769300D01*
X146918181Y-32769300D01*
X146757699Y-32801222D01*
X146757693Y-32801224D01*
X146606517Y-32863843D01*
X146470457Y-32954754D01*
X146354754Y-33070457D01*
X146263843Y-33206517D01*
X146201224Y-33357693D01*
X146201222Y-33357699D01*
X146169300Y-33518180D01*
X146169300Y-33518183D01*
X146169300Y-33681817D01*
X146169300Y-33681819D01*
X146169299Y-33681819D01*
X133464048Y-33681819D01*
X133550249Y-33569479D01*
X133687923Y-33331021D01*
X133793295Y-33076632D01*
X133864560Y-32810666D01*
X133900500Y-32537674D01*
X133900500Y-32262326D01*
X133864560Y-31989334D01*
X133793295Y-31723368D01*
X133687923Y-31468979D01*
X133687921Y-31468976D01*
X133687919Y-31468971D01*
X133617077Y-31346271D01*
X133550249Y-31230521D01*
X133442184Y-31089687D01*
X133382629Y-31012073D01*
X133382623Y-31012066D01*
X133187933Y-30817376D01*
X133187926Y-30817370D01*
X133064778Y-30722876D01*
X133023575Y-30666448D01*
X133019420Y-30596702D01*
X133053632Y-30535782D01*
X133115349Y-30503029D01*
X133140264Y-30500500D01*
X190259736Y-30500500D01*
X190326775Y-30520185D01*
G37*
%TD.AperFunction*%
%TD*%
M02*
