M48
; DRILL file {KiCad 9.0.5} date 2026-02-09T22:49:00-0800
; FORMAT={-:-/ absolute / inch / decimal}
; #@! TF.CreationDate,2026-02-09T22:49:00-08:00
; #@! TF.GenerationSoftware,Kicad,Pcbnew,9.0.5
; #@! TF.FileFunction,Plated,1,4,PTH
FMAT,2
INCH
; #@! TA.AperFunction,Plated,PTH,ViaDrill
T1C0.0100
; #@! TA.AperFunction,Plated,PTH,ComponentDrill
T2C0.0118
; #@! TA.AperFunction,Plated,PTH,ComponentDrill
T3C0.0315
; #@! TA.AperFunction,Plated,PTH,ComponentDrill
T4C0.0394
; #@! TA.AperFunction,Plated,PTH,ComponentDrill
T5C0.1063
%
G90
G05
T1
X5.1791Y-1.8839
X5.1791Y-2.0217
X5.1811Y-2.1496
X5.1811Y-2.2717
X5.1811Y-2.4094
X5.1831Y-2.5374
X5.1969Y-1.4409
X5.1969Y-1.5669
X5.2047Y-1.6929
X5.2992Y-1.3543
X5.2992Y-1.5039
X5.3071Y-1.6299
X5.3228Y-1.2362
X5.4094Y-1.2992
X5.4154Y-1.435
X5.4154Y-1.5728
X5.4173Y-1.7008
X5.4508Y-2.7598
X5.4646Y-2.4094
X5.4646Y-2.5433
X5.4724Y-2.2677
X5.5Y-2.6614
X5.5118Y-1.2362
X5.5354Y-1.5118
X5.5354Y-1.7559
X5.5669Y-2.0551
X5.5886Y-2.7598
X5.6063Y-1.2992
X5.6142Y-1.4646
X5.6378Y-1.6929
X5.6378Y-1.748
X5.6378Y-2.6614
X5.6614Y-1.3465
X5.6693Y-2.6063
X5.6772Y-1.8819
X5.6929Y-1.2362
X5.7067Y-2.7598
X5.7244Y-1.6378
X5.7717Y-2.6614
X5.7874Y-1.3228
X5.8346Y-1.3228
X5.8445Y-2.7598
X5.8661Y-1.2362
X5.8976Y-1.6457
X5.9035Y-2.6614
X5.9055Y-2.1339
X5.9705Y-2.7559
X5.9744Y-1.4764
X6.0157Y-1.6929
X6.0315Y-2.6614
X6.0394Y-2.0551
X6.0787Y-1.6929
X6.0866Y-2.5827
X6.0886Y-2.7559
X6.1024Y-1.9921
X6.1024Y-2.0472
X6.1181Y-1.8661
X6.1417Y-1.6929
X6.1417Y-2.6614
X6.1969Y-2.7559
X6.2126Y-1.6929
X6.2441Y-2.0472
X6.2677Y-2.6614
X6.2835Y-1.9449
X6.2913Y-1.8661
X6.2913Y-2.1732
X6.3386Y-2.7559
X6.3701Y-2.1732
X6.4016Y-2.6693
X6.4409Y-1.9921
X6.4882Y-2.7559
X6.5433Y-1.4849
X6.5433Y-1.6063
X6.5512Y-2.6693
X6.5578Y-1.8044
X6.5748Y-2.0866
X6.6043Y-1.3701
X6.6142Y-2.7559
X6.6339Y-1.2618
X6.6457Y-1.7559
X6.6535Y-1.4882
X6.7421Y-1.3701
X6.7539Y-1.8346
X6.7559Y-2.3543
X6.7717Y-1.2618
X6.7874Y-1.5512
X6.7874Y-2.2835
X6.7943Y-1.8573
X6.7953Y-1.7402
X6.8031Y-1.6343
X6.8504Y-1.3701
X6.8504Y-1.737
X6.9213Y-1.2677
X6.9606Y-1.7323
X6.9685Y-1.9861
X6.9882Y-1.3701
X7.0472Y-1.2677
X7.0709Y-1.8661
X7.0709Y-2.0787
X7.0709Y-2.1417
X7.0709Y-2.1969
X7.0965Y-1.3701
X7.1417Y-1.748
X7.1811Y-1.2677
X7.189Y-2.2913
X7.2205Y-1.748
X7.2835Y-2.3701
X7.2992Y-1.2677
X7.3465Y-1.7953
X7.3858Y-2.7402
X7.3937Y-2.4094
X7.3937Y-2.5906
X7.4803Y-2.3543
X7.4803Y-2.5039
T2
X6.6614Y-2.0667
X6.6614Y-2.1061
X6.6614Y-2.1455
X6.6732Y-1.9776
X6.6732Y-2.0169
X6.7008Y-2.0667
X6.7008Y-2.1061
X6.7008Y-2.1455
X6.7126Y-1.9776
X6.7126Y-2.0169
X6.752Y-1.9776
X6.752Y-2.0169
X6.7596Y-2.0668
X6.7596Y-2.1061
X6.7596Y-2.1455
X6.7913Y-1.9776
X6.7913Y-2.0169
X6.799Y-2.0668
X6.799Y-2.1061
X6.799Y-2.1455
X6.8307Y-1.9776
X6.8307Y-2.0169
X6.8492Y-2.0992
X6.8492Y-2.1386
T3
X7.2598Y-1.8425
X7.2598Y-1.9213
T4
X5.3386Y-2.3701
X5.3386Y-2.5354
T5
X6.126Y-1.315
X6.126Y-1.5118
X6.378Y-1.315
X6.378Y-1.5118
M30
