%TF.GenerationSoftware,KiCad,Pcbnew,9.0.5*%
%TF.CreationDate,2026-02-09T22:48:56-08:00*%
%TF.ProjectId,Vine_Basestation_Power,56696e65-5f42-4617-9365-73746174696f,rev?*%
%TF.SameCoordinates,Original*%
%TF.FileFunction,Copper,L1,Top*%
%TF.FilePolarity,Positive*%
%FSLAX46Y46*%
G04 Gerber Fmt 4.6, Leading zero omitted, Abs format (unit mm)*
G04 Created by KiCad (PCBNEW 9.0.5) date 2026-02-09 22:48:56*
%MOMM*%
%LPD*%
G01*
G04 APERTURE LIST*
G04 Aperture macros list*
%AMRoundRect*
0 Rectangle with rounded corners*
0 $1 Rounding radius*
0 $2 $3 $4 $5 $6 $7 $8 $9 X,Y pos of 4 corners*
0 Add a 4 corners polygon primitive as box body*
4,1,4,$2,$3,$4,$5,$6,$7,$8,$9,$2,$3,0*
0 Add four circle primitives for the rounded corners*
1,1,$1+$1,$2,$3*
1,1,$1+$1,$4,$5*
1,1,$1+$1,$6,$7*
1,1,$1+$1,$8,$9*
0 Add four rect primitives between the rounded corners*
20,1,$1+$1,$2,$3,$4,$5,0*
20,1,$1+$1,$4,$5,$6,$7,0*
20,1,$1+$1,$6,$7,$8,$9,0*
20,1,$1+$1,$8,$9,$2,$3,0*%
G04 Aperture macros list end*
%TA.AperFunction,SMDPad,CuDef*%
%ADD10RoundRect,0.250000X0.250000X0.475000X-0.250000X0.475000X-0.250000X-0.475000X0.250000X-0.475000X0*%
%TD*%
%TA.AperFunction,ComponentPad*%
%ADD11C,1.600000*%
%TD*%
%TA.AperFunction,ComponentPad*%
%ADD12RoundRect,0.250000X0.550000X-0.550000X0.550000X0.550000X-0.550000X0.550000X-0.550000X-0.550000X0*%
%TD*%
%TA.AperFunction,ComponentPad*%
%ADD13C,2.000000*%
%TD*%
%TA.AperFunction,SMDPad,CuDef*%
%ADD14RoundRect,0.135000X0.135000X0.185000X-0.135000X0.185000X-0.135000X-0.185000X0.135000X-0.185000X0*%
%TD*%
%TA.AperFunction,SMDPad,CuDef*%
%ADD15RoundRect,0.250000X-2.500000X0.250000X-2.500000X-0.250000X2.500000X-0.250000X2.500000X0.250000X0*%
%TD*%
%TA.AperFunction,SMDPad,CuDef*%
%ADD16RoundRect,0.250000X-1.250000X0.550000X-1.250000X-0.550000X1.250000X-0.550000X1.250000X0.550000X0*%
%TD*%
%TA.AperFunction,SMDPad,CuDef*%
%ADD17RoundRect,0.250000X-0.475000X0.250000X-0.475000X-0.250000X0.475000X-0.250000X0.475000X0.250000X0*%
%TD*%
%TA.AperFunction,SMDPad,CuDef*%
%ADD18RoundRect,0.140000X0.170000X-0.140000X0.170000X0.140000X-0.170000X0.140000X-0.170000X-0.140000X0*%
%TD*%
%TA.AperFunction,SMDPad,CuDef*%
%ADD19RoundRect,0.140000X-0.170000X0.140000X-0.170000X-0.140000X0.170000X-0.140000X0.170000X0.140000X0*%
%TD*%
%TA.AperFunction,SMDPad,CuDef*%
%ADD20R,1.752600X2.489200*%
%TD*%
%TA.AperFunction,SMDPad,CuDef*%
%ADD21R,0.812800X0.254000*%
%TD*%
%TA.AperFunction,SMDPad,CuDef*%
%ADD22R,1.600200X1.498600*%
%TD*%
%TA.AperFunction,SMDPad,CuDef*%
%ADD23RoundRect,0.135000X-0.185000X0.135000X-0.185000X-0.135000X0.185000X-0.135000X0.185000X0.135000X0*%
%TD*%
%TA.AperFunction,SMDPad,CuDef*%
%ADD24RoundRect,0.135000X0.185000X-0.135000X0.185000X0.135000X-0.185000X0.135000X-0.185000X-0.135000X0*%
%TD*%
%TA.AperFunction,SMDPad,CuDef*%
%ADD25RoundRect,0.140000X-0.140000X-0.170000X0.140000X-0.170000X0.140000X0.170000X-0.140000X0.170000X0*%
%TD*%
%TA.AperFunction,SMDPad,CuDef*%
%ADD26RoundRect,0.140000X0.140000X0.170000X-0.140000X0.170000X-0.140000X-0.170000X0.140000X-0.170000X0*%
%TD*%
%TA.AperFunction,SMDPad,CuDef*%
%ADD27R,2.000000X4.000000*%
%TD*%
%TA.AperFunction,SMDPad,CuDef*%
%ADD28R,0.355600X1.473200*%
%TD*%
%TA.AperFunction,SMDPad,CuDef*%
%ADD29R,2.971800X2.971800*%
%TD*%
%TA.AperFunction,SMDPad,CuDef*%
%ADD30R,2.108200X0.889000*%
%TD*%
%TA.AperFunction,SMDPad,CuDef*%
%ADD31R,0.254000X0.711200*%
%TD*%
%TA.AperFunction,SMDPad,CuDef*%
%ADD32RoundRect,0.243750X-0.243750X-0.456250X0.243750X-0.456250X0.243750X0.456250X-0.243750X0.456250X0*%
%TD*%
%TA.AperFunction,SMDPad,CuDef*%
%ADD33RoundRect,0.135000X-0.135000X-0.185000X0.135000X-0.185000X0.135000X0.185000X-0.135000X0.185000X0*%
%TD*%
%TA.AperFunction,SMDPad,CuDef*%
%ADD34RoundRect,0.250000X1.250000X-0.550000X1.250000X0.550000X-1.250000X0.550000X-1.250000X-0.550000X0*%
%TD*%
%TA.AperFunction,SMDPad,CuDef*%
%ADD35RoundRect,0.250000X2.500000X-0.250000X2.500000X0.250000X-2.500000X0.250000X-2.500000X-0.250000X0*%
%TD*%
%TA.AperFunction,SMDPad,CuDef*%
%ADD36RoundRect,0.218750X-0.381250X0.218750X-0.381250X-0.218750X0.381250X-0.218750X0.381250X0.218750X0*%
%TD*%
%TA.AperFunction,SMDPad,CuDef*%
%ADD37R,3.230000X5.210000*%
%TD*%
%TA.AperFunction,SMDPad,CuDef*%
%ADD38O,0.750000X0.350000*%
%TD*%
%TA.AperFunction,SMDPad,CuDef*%
%ADD39O,0.350000X0.750000*%
%TD*%
%TA.AperFunction,SMDPad,CuDef*%
%ADD40R,4.850000X2.360000*%
%TD*%
%TA.AperFunction,ComponentPad*%
%ADD41C,0.400000*%
%TD*%
%TA.AperFunction,SMDPad,CuDef*%
%ADD42R,2.130000X2.690000*%
%TD*%
%TA.AperFunction,SMDPad,CuDef*%
%ADD43R,2.390000X2.690000*%
%TD*%
%TA.AperFunction,SMDPad,CuDef*%
%ADD44R,0.740000X2.040000*%
%TD*%
%TA.AperFunction,ComponentPad*%
%ADD45RoundRect,0.760000X1.140000X-1.140000X1.140000X1.140000X-1.140000X1.140000X-1.140000X-1.140000X0*%
%TD*%
%TA.AperFunction,ComponentPad*%
%ADD46C,3.800000*%
%TD*%
%TA.AperFunction,SMDPad,CuDef*%
%ADD47R,2.000000X4.100000*%
%TD*%
%TA.AperFunction,ViaPad*%
%ADD48C,0.660400*%
%TD*%
%TA.AperFunction,Conductor*%
%ADD49C,0.304800*%
%TD*%
%TA.AperFunction,Conductor*%
%ADD50C,0.254000*%
%TD*%
%TA.AperFunction,Conductor*%
%ADD51C,0.381000*%
%TD*%
%TA.AperFunction,Conductor*%
%ADD52C,0.203200*%
%TD*%
G04 APERTURE END LIST*
D10*
%TO.P,C17,1*%
%TO.N,12V0*%
X182550000Y-51400000D03*
%TO.P,C17,2*%
%TO.N,GND*%
X180650000Y-51400000D03*
%TD*%
%TO.P,C16,1*%
%TO.N,12V0*%
X182550000Y-53600000D03*
%TO.P,C16,2*%
%TO.N,GND*%
X180650000Y-53600000D03*
%TD*%
%TO.P,C7,1*%
%TO.N,12V0*%
X182600000Y-55800000D03*
%TO.P,C7,2*%
%TO.N,GND*%
X180700000Y-55800000D03*
%TD*%
D11*
%TO.P,C18,2*%
%TO.N,GND*%
X184400000Y-46800000D03*
D12*
%TO.P,C18,1*%
%TO.N,12V0*%
X184400000Y-48800000D03*
%TD*%
D13*
%TO.P,TP2,1,1*%
%TO.N,GND*%
X135600000Y-64400000D03*
%TD*%
D14*
%TO.P,R13,2*%
%TO.N,GND*%
X135180000Y-57400000D03*
%TO.P,R13,1*%
%TO.N,/IMON*%
X136200000Y-57400000D03*
%TD*%
D15*
%TO.P,J9,1,Pin_1*%
%TO.N,12V0*%
X188400000Y-53200000D03*
%TO.P,J9,2,Pin_2*%
%TO.N,GND*%
X188400000Y-55200000D03*
D16*
%TO.P,J9,MP*%
%TO.N,N/C*%
X190650000Y-50800000D03*
X190650000Y-57600000D03*
%TD*%
D17*
%TO.P,C22,1*%
%TO.N,48V_IN*%
X158200000Y-45400000D03*
%TO.P,C22,2*%
%TO.N,GND*%
X158200000Y-47300000D03*
%TD*%
D15*
%TO.P,J11,1,Pin_1*%
%TO.N,3V3*%
X188600000Y-41520000D03*
%TO.P,J11,2,Pin_2*%
%TO.N,GND*%
X188600000Y-43520000D03*
D16*
%TO.P,J11,MP*%
%TO.N,N/C*%
X190850000Y-39120000D03*
X190850000Y-45920000D03*
%TD*%
D18*
%TO.P,C11,2*%
%TO.N,GND*%
X186200000Y-38440000D03*
%TO.P,C11,1*%
%TO.N,3V3*%
X186200000Y-39400000D03*
%TD*%
D19*
%TO.P,C10,2*%
%TO.N,GND*%
X173600000Y-39360000D03*
%TO.P,C10,1*%
%TO.N,12V0*%
X173600000Y-38400000D03*
%TD*%
D20*
%TO.P,U2,9,EPAD*%
%TO.N,GND*%
X177997000Y-39870000D03*
D21*
%TO.P,U2,8,PGND*%
X179394000Y-39119999D03*
%TO.P,U2,7,SW*%
%TO.N,Net-(U2-SW)*%
X179394000Y-39620000D03*
%TO.P,U2,6,PG*%
%TO.N,unconnected-(U2-PG-Pad6)*%
X179394000Y-40120000D03*
%TO.P,U2,5,FB*%
%TO.N,3V3*%
X179394000Y-40620001D03*
%TO.P,U2,4,SYNC*%
%TO.N,GND*%
X176600000Y-40620001D03*
%TO.P,U2,3,EN*%
%TO.N,/PG_12V*%
X176600000Y-40120000D03*
%TO.P,U2,2,FSEL*%
%TO.N,GND*%
X176600000Y-39620000D03*
%TO.P,U2,1,VIN*%
%TO.N,12V0*%
X176600000Y-39119999D03*
%TD*%
D22*
%TO.P,L2,2,2*%
%TO.N,3V3*%
X182650000Y-40878401D03*
%TO.P,L2,1,1*%
%TO.N,Net-(U2-SW)*%
X182650000Y-37170001D03*
%TD*%
D14*
%TO.P,R11,1*%
%TO.N,Net-(U3-ILIM)*%
X146600000Y-51400000D03*
%TO.P,R11,2*%
%TO.N,GND*%
X145580000Y-51400000D03*
%TD*%
D23*
%TO.P,R10,1*%
%TO.N,GND*%
X139200000Y-47690000D03*
%TO.P,R10,2*%
%TO.N,/ESTOP\u002A*%
X139200000Y-48710000D03*
%TD*%
D24*
%TO.P,R9,1*%
%TO.N,/PG_12V*%
X171200000Y-39510000D03*
%TO.P,R9,2*%
%TO.N,GND*%
X171200000Y-38490000D03*
%TD*%
%TO.P,R8,1*%
%TO.N,12V0*%
X171200000Y-41420000D03*
%TO.P,R8,2*%
%TO.N,/PG_12V*%
X171200000Y-40400000D03*
%TD*%
%TO.P,R7,1*%
%TO.N,Net-(U1-FREQ)*%
X177400000Y-46220000D03*
%TO.P,R7,2*%
%TO.N,GND*%
X177400000Y-45200000D03*
%TD*%
D23*
%TO.P,R6,1*%
%TO.N,Net-(U1-FREQ)*%
X178600000Y-46290000D03*
%TO.P,R6,2*%
%TO.N,48V0*%
X178600000Y-47310000D03*
%TD*%
D24*
%TO.P,R5,1*%
%TO.N,/SW*%
X165000000Y-50910000D03*
%TO.P,R5,2*%
%TO.N,Net-(U1-ILIM)*%
X165000000Y-49890000D03*
%TD*%
D23*
%TO.P,R4,1*%
%TO.N,12V0*%
X172800000Y-45290000D03*
%TO.P,R4,2*%
%TO.N,/FB*%
X172800000Y-46310000D03*
%TD*%
%TO.P,R3,1*%
%TO.N,48V0*%
X167600000Y-45490000D03*
%TO.P,R3,2*%
%TO.N,Net-(U1-SVIN)*%
X167600000Y-46510000D03*
%TD*%
D24*
%TO.P,R2,1*%
%TO.N,/FB*%
X175000000Y-46310000D03*
%TO.P,R2,2*%
%TO.N,GND*%
X175000000Y-45290000D03*
%TD*%
D23*
%TO.P,R1,1*%
%TO.N,PVDD*%
X170000000Y-45490000D03*
%TO.P,R1,2*%
%TO.N,Net-(U1-VDD)*%
X170000000Y-46510000D03*
%TD*%
D25*
%TO.P,C26,1*%
%TO.N,48V_IN*%
X146970001Y-34843400D03*
%TO.P,C26,2*%
%TO.N,GND*%
X147930001Y-34843400D03*
%TD*%
D26*
%TO.P,C21,1*%
%TO.N,5V0*%
X146430001Y-44593400D03*
%TO.P,C21,2*%
%TO.N,GND*%
X145470001Y-44593400D03*
%TD*%
D25*
%TO.P,C20,1*%
%TO.N,Net-(U4-SS)*%
X144440000Y-40600000D03*
%TO.P,C20,2*%
%TO.N,GND*%
X145400000Y-40600000D03*
%TD*%
D19*
%TO.P,C19,1*%
%TO.N,GND*%
X144650001Y-34113400D03*
%TO.P,C19,2*%
%TO.N,Net-(U4-VCC)*%
X144650001Y-35073400D03*
%TD*%
D18*
%TO.P,C15,1*%
%TO.N,Net-(U1-SVIN)*%
X168800000Y-46480000D03*
%TO.P,C15,2*%
%TO.N,GND*%
X168800000Y-45520000D03*
%TD*%
D19*
%TO.P,C14,1*%
%TO.N,48V_IN*%
X155400000Y-45520000D03*
%TO.P,C14,2*%
%TO.N,GND*%
X155400000Y-46480000D03*
%TD*%
D25*
%TO.P,C13,1*%
%TO.N,Net-(U3-DVDT)*%
X148600000Y-42800000D03*
%TO.P,C13,2*%
%TO.N,GND*%
X149560000Y-42800000D03*
%TD*%
%TO.P,C9,1*%
%TO.N,Net-(U1-VDD)*%
X170320000Y-47600000D03*
%TO.P,C9,2*%
%TO.N,GND*%
X171280000Y-47600000D03*
%TD*%
D18*
%TO.P,C8,1*%
%TO.N,PVDD*%
X176250000Y-51980000D03*
%TO.P,C8,2*%
%TO.N,GND*%
X176250000Y-51020000D03*
%TD*%
D19*
%TO.P,C6,1*%
%TO.N,12V0*%
X174000000Y-45320000D03*
%TO.P,C6,2*%
%TO.N,/FB*%
X174000000Y-46280000D03*
%TD*%
D18*
%TO.P,C5,1*%
%TO.N,Net-(U1-SS)*%
X176200000Y-46280000D03*
%TO.P,C5,2*%
%TO.N,GND*%
X176200000Y-45320000D03*
%TD*%
%TO.P,C1,1*%
%TO.N,/BST*%
X166000000Y-51960000D03*
%TO.P,C1,2*%
%TO.N,/SW*%
X166000000Y-51000000D03*
%TD*%
D27*
%TO.P,C2,2*%
%TO.N,GND*%
X165600000Y-63900000D03*
%TO.P,C2,1*%
%TO.N,48V0*%
X165600000Y-56800000D03*
%TD*%
D28*
%TO.P,U3,1,IN*%
%TO.N,48V_IN*%
X153849986Y-44758000D03*
%TO.P,U3,2,IN*%
X153200000Y-44758000D03*
%TO.P,U3,3,IN*%
X152550014Y-44758000D03*
%TO.P,U3,4,P_IN*%
X151900028Y-44758000D03*
%TO.P,U3,5,NC*%
%TO.N,unconnected-(U3-NC-Pad5)*%
X151250042Y-44758000D03*
%TO.P,U3,6,UVLO*%
%TO.N,48V_IN*%
X150600056Y-44758000D03*
%TO.P,U3,7,NC*%
%TO.N,unconnected-(U3-NC-Pad7)*%
X149950070Y-44758000D03*
%TO.P,U3,8,\u002AEN*%
%TO.N,GND*%
X149300084Y-44758000D03*
%TO.P,U3,9,GND*%
X148650098Y-44758000D03*
%TO.P,U3,10,DVDT*%
%TO.N,Net-(U3-DVDT)*%
X148000112Y-44758000D03*
%TO.P,U3,11,ILIM*%
%TO.N,Net-(U3-ILIM)*%
X148000112Y-50600000D03*
%TO.P,U3,12,MODE*%
%TO.N,unconnected-(U3-MODE-Pad12)*%
X148650098Y-50600000D03*
%TO.P,U3,13,\u002ASHDN*%
%TO.N,/ESTOP\u002A*%
X149300084Y-50600000D03*
%TO.P,U3,14,IMON*%
%TO.N,/IMON*%
X149950070Y-50600000D03*
%TO.P,U3,15,\u002AFLT*%
%TO.N,/FLT\u002A*%
X150600056Y-50600000D03*
%TO.P,U3,16,PGOOD*%
%TO.N,unconnected-(U3-PGOOD-Pad16)*%
X151250042Y-50600000D03*
%TO.P,U3,17,NC*%
%TO.N,unconnected-(U3-NC-Pad17)*%
X151900028Y-50600000D03*
%TO.P,U3,18,OUT*%
%TO.N,48V0*%
X152550014Y-50600000D03*
%TO.P,U3,19,OUT*%
X153200000Y-50600000D03*
%TO.P,U3,20,OUT*%
X153849986Y-50600000D03*
D29*
%TO.P,U3,21,POWERPAD*%
%TO.N,GND*%
X150925049Y-47679000D03*
%TD*%
D30*
%TO.P,U4,11,EP*%
%TO.N,GND*%
X145600000Y-38196700D03*
D31*
%TO.P,U4,10,LX*%
%TO.N,Net-(U4-LX)*%
X146600001Y-39200000D03*
%TO.P,U4,9,GND*%
%TO.N,GND*%
X146099999Y-39200000D03*
%TO.P,U4,8,\u002ARESET*%
%TO.N,unconnected-(U4-\u002ARESET-Pad8)*%
X145600000Y-39200000D03*
%TO.P,U4,7,NC/COMP*%
%TO.N,unconnected-(U4-NC{slash}COMP-Pad7)*%
X145100001Y-39200000D03*
%TO.P,U4,6,SS*%
%TO.N,Net-(U4-SS)*%
X144599999Y-39200000D03*
%TO.P,U4,5,FB/VO*%
%TO.N,5V0*%
X144599999Y-37193400D03*
%TO.P,U4,4,VCC*%
%TO.N,Net-(U4-VCC)*%
X145100001Y-37193400D03*
%TO.P,U4,3,EN/UVLO*%
%TO.N,48V_IN*%
X145600000Y-37193400D03*
%TO.P,U4,2,VIN*%
X146099999Y-37193400D03*
%TO.P,U4,1,PGND*%
%TO.N,GND*%
X146600001Y-37193400D03*
%TD*%
D32*
%TO.P,D6,2,A*%
%TO.N,/FLT\u002A*%
X146455000Y-49600000D03*
%TO.P,D6,1,K*%
%TO.N,GND*%
X144580000Y-49600000D03*
%TD*%
D13*
%TO.P,TP1,1,1*%
%TO.N,/IMON*%
X135600000Y-60200000D03*
%TD*%
D33*
%TO.P,R12,2*%
%TO.N,/FLT\u002A*%
X146200000Y-47800000D03*
%TO.P,R12,1*%
%TO.N,5V0*%
X145180000Y-47800000D03*
%TD*%
D34*
%TO.P,SW1,MP*%
%TO.N,N/C*%
X135350000Y-48200000D03*
X135350000Y-55000000D03*
D35*
%TO.P,SW1,2,2*%
%TO.N,/ESTOP\u002A*%
X137600000Y-50600000D03*
%TO.P,SW1,1,1*%
%TO.N,5V0*%
X137600000Y-52600000D03*
%TD*%
D36*
%TO.P,L3,2,2*%
%TO.N,5V0*%
X147000000Y-42925000D03*
%TO.P,L3,1,1*%
%TO.N,Net-(U4-LX)*%
X147000000Y-40800000D03*
%TD*%
D37*
%TO.P,L1,1,1*%
%TO.N,/SW*%
X172170000Y-63500000D03*
%TO.P,L1,2,2*%
%TO.N,12V0*%
X183750000Y-63500000D03*
%TD*%
D38*
%TO.P,U1,1,ILIM*%
%TO.N,Net-(U1-ILIM)*%
X168450000Y-49725000D03*
%TO.P,U1,2,PGND*%
%TO.N,GND*%
X168450000Y-50375000D03*
%TO.P,U1,3,SW*%
%TO.N,/SW*%
X168450000Y-51025000D03*
%TO.P,U1,4,BST*%
%TO.N,/BST*%
X168450000Y-51675000D03*
%TO.P,U1,5,PVIN*%
%TO.N,48V0*%
X168450000Y-52325000D03*
%TO.P,U1,6,PVIN__1*%
X168450000Y-52975000D03*
%TO.P,U1,7,PVIN__2*%
X168450000Y-53625000D03*
%TO.P,U1,8,PVIN__3*%
X168450000Y-54275000D03*
D39*
%TO.P,U1,9,PVIN__4*%
X169225000Y-55050000D03*
%TO.P,U1,10,PVIN__5*%
X169875000Y-55050000D03*
%TO.P,U1,11,PVIN__6*%
X170525000Y-55050000D03*
%TO.P,U1,12,SW__1*%
%TO.N,/SW*%
X171175000Y-55050000D03*
%TO.P,U1,13,SW__2*%
X171825000Y-55050000D03*
%TO.P,U1,14,SW__3*%
X172475000Y-55050000D03*
%TO.P,U1,15,SW__4*%
X173125000Y-55050000D03*
%TO.P,U1,16,PGND__1*%
%TO.N,GND*%
X173775000Y-55050000D03*
D38*
%TO.P,U1,17,PGND__2*%
X174550000Y-54275000D03*
%TO.P,U1,18,PGND__3*%
X174550000Y-53625000D03*
%TO.P,U1,19,PGND__4*%
X174550000Y-52975000D03*
%TO.P,U1,20,SW__5*%
%TO.N,/SW*%
X174550000Y-52325000D03*
%TO.P,U1,21,PVDD*%
%TO.N,PVDD*%
X174550000Y-51675000D03*
%TO.P,U1,22,PGND__5*%
%TO.N,GND*%
X174550000Y-51025000D03*
%TO.P,U1,23,EXTVDD*%
%TO.N,unconnected-(U1-EXTVDD-Pad23)*%
X174550000Y-50375000D03*
%TO.P,U1,24,EN*%
%TO.N,PVDD*%
X174550000Y-49725000D03*
D39*
%TO.P,U1,25,FREQ*%
%TO.N,Net-(U1-FREQ)*%
X173775000Y-48950000D03*
%TO.P,U1,26,SS*%
%TO.N,Net-(U1-SS)*%
X173125000Y-48950000D03*
%TO.P,U1,27,FB*%
%TO.N,/FB*%
X172475000Y-48950000D03*
%TO.P,U1,28,AGND*%
%TO.N,GND*%
X171825000Y-48950000D03*
%TO.P,U1,29,PGND__6*%
X171175000Y-48950000D03*
%TO.P,U1,30,VDD*%
%TO.N,Net-(U1-VDD)*%
X170525000Y-48950000D03*
%TO.P,U1,31,SVIN*%
%TO.N,Net-(U1-SVIN)*%
X169875000Y-48950000D03*
%TO.P,U1,32,PG*%
%TO.N,/PG_12V*%
X169225000Y-48950000D03*
D40*
%TO.P,U1,33,PGND__7*%
%TO.N,GND*%
X171500000Y-50730000D03*
D41*
%TO.P,U1,33_1,PGND__8*%
X169500000Y-51230000D03*
%TO.P,U1,33_2,PGND__9*%
X169500000Y-50230000D03*
%TO.P,U1,33_3,PGND__10*%
X170500000Y-50230000D03*
%TO.P,U1,33_4,PGND__11*%
X171500000Y-50230000D03*
%TO.P,U1,33_5,PGND__12*%
X172500000Y-50230000D03*
%TO.P,U1,33_6,PGND__13*%
X173500000Y-50230000D03*
%TO.P,U1,33_7,PGND__14*%
X173500000Y-51230000D03*
%TO.P,U1,33_8,PGND__15*%
X172500000Y-51230000D03*
%TO.P,U1,33_9,PGND__16*%
X171500000Y-51230000D03*
%TO.P,U1,33_10,PGND__17*%
X170500000Y-51230000D03*
D42*
%TO.P,U1,34,PVIN__7*%
%TO.N,48V0*%
X169700000Y-53495000D03*
D41*
%TO.P,U1,34_1,PVIN__8*%
X169200000Y-52495000D03*
%TO.P,U1,34_2,PVIN__9*%
X169200000Y-53495000D03*
%TO.P,U1,34_3,PVIN__10*%
X169200000Y-54495000D03*
%TO.P,U1,34_4,PVIN__11*%
X170200000Y-52495000D03*
%TO.P,U1,34_5,PVIN__12*%
X170200000Y-53495000D03*
%TO.P,U1,34_6,PVIN__13*%
X170200000Y-54495000D03*
D43*
%TO.P,U1,35,SW__6*%
%TO.N,/SW*%
X172195000Y-53495000D03*
D41*
%TO.P,U1,35_1,SW__7*%
X171695000Y-52495500D03*
%TO.P,U1,35_2,SW__8*%
X171695000Y-53495500D03*
%TO.P,U1,35_3,SW__9*%
X171695000Y-54495500D03*
%TO.P,U1,35_4,SW__10*%
X172695000Y-52495500D03*
%TO.P,U1,35_5,SW__11*%
X172695000Y-53495500D03*
%TO.P,U1,35_6,SW__12*%
X172695000Y-54495500D03*
D44*
%TO.P,U1,36,PGND__18*%
%TO.N,GND*%
X173970000Y-53820000D03*
D41*
%TO.P,U1,36_1,PGND__19*%
X173970000Y-53320000D03*
%TO.P,U1,36_2,PGND__20*%
X173970000Y-54320000D03*
%TD*%
D45*
%TO.P,J1,1,Pin_1*%
%TO.N,GND*%
X155600000Y-38400000D03*
D46*
%TO.P,J1,2,Pin_2*%
%TO.N,48V_IN*%
X155600000Y-33400000D03*
%TD*%
D45*
%TO.P,J2,1,Pin_1*%
%TO.N,GND*%
X162000000Y-38400000D03*
D46*
%TO.P,J2,2,Pin_2*%
%TO.N,48V_IN*%
X162000000Y-33400000D03*
%TD*%
D47*
%TO.P,C4,1*%
%TO.N,48V0*%
X145600000Y-55900000D03*
%TO.P,C4,2*%
%TO.N,GND*%
X145600000Y-64600000D03*
%TD*%
D27*
%TO.P,C3,1*%
%TO.N,48V0*%
X156200000Y-56800000D03*
%TO.P,C3,2*%
%TO.N,GND*%
X156200000Y-63900000D03*
%TD*%
D48*
%TO.N,GND*%
X132200000Y-43000000D03*
X134800000Y-41400000D03*
X148200000Y-33600000D03*
%TO.N,48V_IN*%
X147000000Y-33600000D03*
%TO.N,GND*%
X143800000Y-34200000D03*
X144000000Y-66200000D03*
X154600000Y-65600000D03*
X149800000Y-41800000D03*
X145400000Y-41600000D03*
X149000000Y-31400000D03*
X137550000Y-36450000D03*
X137600000Y-43200000D03*
X137550000Y-39950000D03*
X131550000Y-47850000D03*
X131600000Y-54600000D03*
X131550000Y-51350000D03*
X138800000Y-64600000D03*
X139000000Y-57600000D03*
X138800000Y-61200000D03*
X166400000Y-67800000D03*
X176800000Y-44000000D03*
%TO.N,12V0*%
X172400000Y-39400000D03*
X172800000Y-41510000D03*
%TO.N,5V0*%
X144200000Y-47800000D03*
X141400000Y-52200000D03*
X143200000Y-44400000D03*
X143200000Y-43000000D03*
%TO.N,48V0*%
X153400000Y-52200000D03*
X155000000Y-52000000D03*
X155000000Y-50600000D03*
X161800000Y-55200000D03*
X159800000Y-55200000D03*
X150000000Y-54200000D03*
%TO.N,48V_IN*%
X154400000Y-43000000D03*
X152800000Y-43000000D03*
X156000000Y-43000000D03*
X157800000Y-43000000D03*
%TO.N,GND*%
X186600000Y-45600000D03*
%TO.N,/SW*%
X163600000Y-50600000D03*
X171600000Y-59800000D03*
X172400000Y-58000000D03*
%TO.N,GND*%
X168800000Y-44600000D03*
X140000000Y-31400000D03*
X132000000Y-36600000D03*
X139700000Y-67600000D03*
X137400000Y-33000000D03*
X131600000Y-61200000D03*
X162600000Y-67800000D03*
X153200000Y-67600000D03*
X185400000Y-32200000D03*
X187600000Y-69600000D03*
X142400000Y-33000000D03*
X183400000Y-44400000D03*
X166200000Y-37716101D03*
X158600000Y-52000000D03*
X157400000Y-70000000D03*
X141950000Y-70100000D03*
X187800000Y-61200000D03*
X168000000Y-70000000D03*
X159200000Y-67600000D03*
X151750000Y-37500000D03*
X166200000Y-40800000D03*
X149950000Y-67600000D03*
X172575000Y-47175000D03*
X171250000Y-34800000D03*
X159600000Y-49400000D03*
X138450000Y-70100000D03*
X190000000Y-63600000D03*
X156000000Y-67600000D03*
X154650000Y-70000000D03*
X148450000Y-70100000D03*
X174000000Y-34800000D03*
X131650000Y-64450000D03*
X143200000Y-67600000D03*
X175800000Y-32200000D03*
X181400000Y-44400000D03*
X140600000Y-38400000D03*
X134600000Y-34400000D03*
X177500000Y-34800000D03*
X182400000Y-32200000D03*
X135200000Y-31400000D03*
X161000000Y-70000000D03*
X167750000Y-34800000D03*
X146600000Y-67600000D03*
X190000000Y-59800000D03*
X168500000Y-32050000D03*
X172000000Y-32050000D03*
X164800000Y-70000000D03*
X179000000Y-32200000D03*
X144950000Y-70100000D03*
X187800000Y-65800000D03*
X169000000Y-37800000D03*
X140600000Y-44600000D03*
X131600000Y-57700000D03*
X151650000Y-70000000D03*
X144600000Y-31400000D03*
X180250000Y-34800000D03*
%TO.N,48V0*%
X179600000Y-47400000D03*
X167000000Y-53000000D03*
X166569112Y-45830888D03*
%TO.N,12V0*%
X185000000Y-60200000D03*
X174000000Y-44120700D03*
X182600000Y-58200000D03*
X172600000Y-44200000D03*
%TO.N,5V0*%
X142600000Y-37200000D03*
%TO.N,GND*%
X155400000Y-47400000D03*
X134600000Y-38200000D03*
X179600000Y-52800000D03*
X171550000Y-46600000D03*
X159800000Y-47400000D03*
X132000000Y-39800000D03*
X179600000Y-55800000D03*
X179600000Y-54400000D03*
X177000000Y-50445700D03*
%TD*%
D49*
%TO.N,5V0*%
X142600000Y-37200000D02*
X144581800Y-37200000D01*
X144581800Y-37200000D02*
X144588400Y-37193400D01*
%TO.N,3V3*%
X179394000Y-40620001D02*
X179420001Y-40620001D01*
X179420001Y-40620001D02*
X179678401Y-40878401D01*
X179678401Y-40878401D02*
X182650000Y-40878401D01*
%TO.N,GND*%
X145600000Y-38196700D02*
X146286099Y-38196700D01*
X146286099Y-38196700D02*
X146605799Y-37877000D01*
X146605799Y-37877000D02*
X146605799Y-37193400D01*
D50*
%TO.N,48V0*%
X166910000Y-45490000D02*
X167600000Y-45490000D01*
X166569112Y-45830888D02*
X166910000Y-45490000D01*
D51*
%TO.N,PVDD*%
X170000000Y-45490000D02*
X170000000Y-44200000D01*
X170000000Y-44200000D02*
X171600000Y-42600000D01*
X178600000Y-42600000D02*
X180321700Y-44321700D01*
X171600000Y-42600000D02*
X178600000Y-42600000D01*
X180321700Y-44321700D02*
X180321700Y-47698938D01*
X180321700Y-47698938D02*
X178295638Y-49725000D01*
X178295638Y-49725000D02*
X177745638Y-49725000D01*
D49*
%TO.N,Net-(U2-SW)*%
X179394000Y-39620000D02*
X179980000Y-39620000D01*
X181645700Y-37954300D02*
X181645700Y-37652561D01*
X179980000Y-39620000D02*
X181645700Y-37954300D01*
X181645700Y-37652561D02*
X182128260Y-37170001D01*
X182128260Y-37170001D02*
X182650000Y-37170001D01*
%TO.N,12V0*%
X171200000Y-41420000D02*
X172710000Y-41420000D01*
X172710000Y-41420000D02*
X172800000Y-41510000D01*
X171200000Y-41420000D02*
X171290000Y-41510000D01*
D52*
X172600000Y-39200000D02*
X172800000Y-39200000D01*
X172400000Y-39400000D02*
X172600000Y-39200000D01*
X172800000Y-39200000D02*
X173600000Y-38400000D01*
%TO.N,/PG_12V*%
X172270000Y-40120000D02*
X171990000Y-40400000D01*
X171990000Y-40400000D02*
X171200000Y-40400000D01*
D51*
X169225000Y-48950000D02*
X168669000Y-48950000D01*
X165678300Y-45959300D02*
X165678300Y-44701062D01*
X169979362Y-40400000D02*
X171200000Y-40400000D01*
X168669000Y-48950000D02*
X165678300Y-45959300D01*
X165678300Y-44701062D02*
X169979362Y-40400000D01*
D49*
X171200000Y-39510000D02*
X171200000Y-40400000D01*
%TO.N,48V_IN*%
X150600056Y-44758000D02*
X150600056Y-43716600D01*
X150600056Y-43716600D02*
X151316656Y-43000000D01*
X151316656Y-43000000D02*
X152800000Y-43000000D01*
D52*
%TO.N,Net-(U3-DVDT)*%
X148600000Y-42800000D02*
X148000112Y-43399888D01*
X148000112Y-43399888D02*
X148000112Y-44758000D01*
%TO.N,GND*%
X176600000Y-40620001D02*
X177246999Y-40620001D01*
X177246999Y-40620001D02*
X177997000Y-39870000D01*
X179394000Y-39119999D02*
X178747001Y-39119999D01*
X178747001Y-39119999D02*
X177997000Y-39870000D01*
X176600000Y-39620000D02*
X177747000Y-39620000D01*
X177747000Y-39620000D02*
X177997000Y-39870000D01*
X173600000Y-39360000D02*
X173860000Y-39620000D01*
X173860000Y-39620000D02*
X176600000Y-39620000D01*
%TO.N,/PG_12V*%
X176600000Y-40120000D02*
X172270000Y-40120000D01*
%TO.N,12V0*%
X173600000Y-38400000D02*
X175880001Y-38400000D01*
X175880001Y-38400000D02*
X176600000Y-39119999D01*
%TO.N,/IMON*%
X136200000Y-57400000D02*
X136200000Y-59600000D01*
X136200000Y-59600000D02*
X135600000Y-60200000D01*
X149950070Y-50600000D02*
X149950070Y-51539800D01*
X149950070Y-51539800D02*
X147942470Y-53547400D01*
X147942470Y-53547400D02*
X140052600Y-53547400D01*
X140052600Y-53547400D02*
X136200000Y-57400000D01*
%TO.N,/ESTOP\u002A*%
X145259998Y-52022600D02*
X145237398Y-52000000D01*
X149300084Y-51539800D02*
X148839884Y-52000000D01*
X146942602Y-52000000D02*
X146920002Y-52022600D01*
X140694915Y-50600000D02*
X137600000Y-50600000D01*
X146920002Y-52022600D02*
X146279998Y-52022600D01*
X148839884Y-52000000D02*
X146942602Y-52000000D01*
X145922602Y-52000000D02*
X145900002Y-52022600D01*
X145237398Y-52000000D02*
X142094915Y-52000000D01*
X146279998Y-52022600D02*
X146257398Y-52000000D01*
X145900002Y-52022600D02*
X145259998Y-52022600D01*
X146257398Y-52000000D02*
X145922602Y-52000000D01*
X149300084Y-50600000D02*
X149300084Y-51539800D01*
X142094915Y-52000000D02*
X140694915Y-50600000D01*
%TO.N,5V0*%
X144200000Y-47800000D02*
X145180000Y-47800000D01*
%TO.N,/FLT\u002A*%
X146455000Y-49600000D02*
X146494200Y-49560800D01*
X150430470Y-49560800D02*
X150600056Y-49730386D01*
X146494200Y-49560800D02*
X150430470Y-49560800D01*
X150600056Y-49730386D02*
X150600056Y-50600000D01*
%TO.N,Net-(U3-ILIM)*%
X148000112Y-50600000D02*
X147400000Y-50600000D01*
X147400000Y-50600000D02*
X146600000Y-51400000D01*
%TO.N,/FLT\u002A*%
X146200000Y-47800000D02*
X146200000Y-49345000D01*
X146200000Y-49345000D02*
X146455000Y-49600000D01*
%TO.N,5V0*%
X141400000Y-52200000D02*
X141000000Y-52600000D01*
X141000000Y-52600000D02*
X137600000Y-52600000D01*
%TO.N,/ESTOP\u002A*%
X137600000Y-50600000D02*
X139200000Y-49000000D01*
X139200000Y-49000000D02*
X139200000Y-48710000D01*
D49*
%TO.N,Net-(U4-VCC)*%
X144650001Y-35073400D02*
X145094200Y-35517599D01*
X145094200Y-35517599D02*
X145094200Y-37187599D01*
%TO.N,GND*%
X145400000Y-40600000D02*
X146094201Y-39905799D01*
X146094201Y-39905799D02*
X146094201Y-39200000D01*
%TO.N,Net-(U4-SS)*%
X144599999Y-39200000D02*
X144599999Y-40440001D01*
X144599999Y-40440001D02*
X144440000Y-40600000D01*
%TO.N,Net-(U4-LX)*%
X146600001Y-39200000D02*
X146600001Y-40400001D01*
X146600001Y-40400001D02*
X147000000Y-40800000D01*
%TO.N,48V_IN*%
X145600000Y-37193400D02*
X146099999Y-37193400D01*
X146099999Y-37193400D02*
X146099999Y-35713402D01*
X146099999Y-35713402D02*
X146970001Y-34843400D01*
D51*
%TO.N,PVDD*%
X176250000Y-51980000D02*
X175945000Y-51675000D01*
X175945000Y-51675000D02*
X174550000Y-51675000D01*
X174550000Y-49725000D02*
X177745638Y-49725000D01*
%TO.N,/BST*%
X168450000Y-51675000D02*
X166285000Y-51675000D01*
X166285000Y-51675000D02*
X166000000Y-51960000D01*
%TO.N,/SW*%
X168450000Y-51025000D02*
X164025000Y-51025000D01*
X164025000Y-51025000D02*
X163600000Y-50600000D01*
%TO.N,Net-(U1-ILIM)*%
X165000000Y-49890000D02*
X165165000Y-49725000D01*
X165165000Y-49725000D02*
X168450000Y-49725000D01*
%TO.N,GND*%
X168458500Y-50366500D02*
X168450000Y-50375000D01*
X168450000Y-50375000D02*
X168808493Y-50375000D01*
X168808493Y-50375000D02*
X169163493Y-50730000D01*
%TO.N,48V0*%
X178600000Y-47310000D02*
X179510000Y-47310000D01*
X179510000Y-47310000D02*
X179600000Y-47400000D01*
%TO.N,Net-(U1-FREQ)*%
X177400000Y-46220000D02*
X178530000Y-46220000D01*
X178530000Y-46220000D02*
X178600000Y-46290000D01*
X173775000Y-48950000D02*
X174670000Y-48950000D01*
X174670000Y-48950000D02*
X177400000Y-46220000D01*
%TO.N,Net-(U1-SS)*%
X176200000Y-46280000D02*
X174296500Y-48183500D01*
X174296500Y-48183500D02*
X173540348Y-48183500D01*
X173540348Y-48183500D02*
X173125000Y-48598848D01*
X173125000Y-48598848D02*
X173125000Y-48950000D01*
%TO.N,/FB*%
X172800000Y-46310000D02*
X172830000Y-46280000D01*
X172830000Y-46280000D02*
X174970000Y-46280000D01*
X174970000Y-46280000D02*
X175000000Y-46310000D01*
X173400000Y-46910000D02*
X172800000Y-46310000D01*
X172475000Y-48358270D02*
X173400000Y-47433270D01*
X172475000Y-48950000D02*
X172475000Y-48358270D01*
X173400000Y-47433270D02*
X173400000Y-46910000D01*
D50*
%TO.N,GND*%
X172250000Y-47500000D02*
X172250000Y-47850000D01*
X172575000Y-47175000D02*
X172250000Y-47500000D01*
X172250000Y-47850000D02*
X171825000Y-48275000D01*
X171825000Y-48275000D02*
X171825000Y-48950000D01*
D51*
X171280000Y-47600000D02*
X171280000Y-46870000D01*
X171280000Y-46870000D02*
X171550000Y-46600000D01*
%TO.N,Net-(U1-VDD)*%
X170320000Y-47600000D02*
X170525000Y-47805000D01*
X170525000Y-47805000D02*
X170525000Y-48950000D01*
X170320000Y-47600000D02*
X170320000Y-46830000D01*
X170320000Y-46830000D02*
X170000000Y-46510000D01*
%TO.N,Net-(U1-SVIN)*%
X169875000Y-48950000D02*
X169875000Y-48220536D01*
X169875000Y-48220536D02*
X168800000Y-47145536D01*
X168800000Y-47145536D02*
X168800000Y-46480000D01*
X167600000Y-46510000D02*
X168770000Y-46510000D01*
X168770000Y-46510000D02*
X168800000Y-46480000D01*
%TO.N,/SW*%
X173370000Y-52325000D02*
X173286500Y-52408500D01*
X174550000Y-52325000D02*
X173370000Y-52325000D01*
%TO.N,GND*%
X174550000Y-51025000D02*
X174131507Y-51025000D01*
X176025000Y-51025000D02*
X176250000Y-50800000D01*
X171175000Y-48950000D02*
X171175000Y-49718492D01*
X171175000Y-49718492D02*
X171000000Y-49893492D01*
X176250000Y-50800000D02*
X176250000Y-50550000D01*
X174550000Y-51025000D02*
X176025000Y-51025000D01*
X174131507Y-51025000D02*
X173836507Y-50730000D01*
%TO.N,PVDD*%
X177745638Y-49725000D02*
X178221700Y-50201062D01*
X178221700Y-50798938D02*
X177040638Y-51980000D01*
X177040638Y-51980000D02*
X176250000Y-51980000D01*
X178221700Y-50201062D02*
X178221700Y-50798938D01*
D49*
%TO.N,48V_IN*%
X146970001Y-33629999D02*
X147000000Y-33600000D01*
X146970001Y-34843400D02*
X146970001Y-33629999D01*
%TD*%
%TA.AperFunction,Conductor*%
%TO.N,GND*%
G36*
X170985304Y-46211442D02*
G01*
X171002828Y-46213762D01*
X171130995Y-46230739D01*
X171854122Y-46222703D01*
X171921376Y-46241641D01*
X171967715Y-46293933D01*
X171979500Y-46346694D01*
X171979500Y-46509169D01*
X171979501Y-46509191D01*
X171982335Y-46545205D01*
X172027129Y-46699388D01*
X172027131Y-46699393D01*
X172108863Y-46837595D01*
X172108869Y-46837603D01*
X172222396Y-46951130D01*
X172222400Y-46951133D01*
X172222402Y-46951135D01*
X172360607Y-47032869D01*
X172394693Y-47042772D01*
X172517696Y-47078508D01*
X172576582Y-47116114D01*
X172605788Y-47179587D01*
X172596042Y-47248773D01*
X172570782Y-47285265D01*
X171938267Y-47917779D01*
X171938261Y-47917787D01*
X171881067Y-48003383D01*
X171881068Y-48003384D01*
X171862643Y-48030958D01*
X171862642Y-48030960D01*
X171810556Y-48156708D01*
X171810553Y-48156718D01*
X171784000Y-48290209D01*
X171784000Y-48290212D01*
X171784000Y-49018058D01*
X171796122Y-49079000D01*
X171797117Y-49083999D01*
X171799500Y-49108192D01*
X171799500Y-49216531D01*
X171799500Y-49216533D01*
X171799499Y-49216533D01*
X171825458Y-49347030D01*
X171825461Y-49347040D01*
X171876376Y-49469961D01*
X171876386Y-49469979D01*
X171950301Y-49580601D01*
X171950307Y-49580609D01*
X172044390Y-49674692D01*
X172044398Y-49674698D01*
X172155020Y-49748613D01*
X172155023Y-49748614D01*
X172155031Y-49748620D01*
X172155037Y-49748622D01*
X172155038Y-49748623D01*
X172277959Y-49799538D01*
X172277964Y-49799540D01*
X172277968Y-49799540D01*
X172277969Y-49799541D01*
X172408466Y-49825500D01*
X172408469Y-49825500D01*
X172541533Y-49825500D01*
X172629325Y-49808035D01*
X172672036Y-49799540D01*
X172752548Y-49766190D01*
X172822017Y-49758722D01*
X172847448Y-49766189D01*
X172927964Y-49799540D01*
X172927968Y-49799540D01*
X172927969Y-49799541D01*
X173058466Y-49825500D01*
X173058469Y-49825500D01*
X173191533Y-49825500D01*
X173279325Y-49808035D01*
X173322036Y-49799540D01*
X173402548Y-49766190D01*
X173430124Y-49763226D01*
X173457148Y-49756958D01*
X173467138Y-49759246D01*
X173472017Y-49758722D01*
X173491735Y-49763987D01*
X173494620Y-49765018D01*
X173577964Y-49799540D01*
X173607818Y-49805478D01*
X173616417Y-49808552D01*
X173637584Y-49823948D01*
X173660785Y-49836085D01*
X173665392Y-49844176D01*
X173672920Y-49849652D01*
X173682402Y-49874048D01*
X173695359Y-49896801D01*
X173696298Y-49901121D01*
X173700457Y-49922026D01*
X173700458Y-49922029D01*
X173700459Y-49922031D01*
X173700460Y-49922036D01*
X173720828Y-49971209D01*
X173733809Y-50002548D01*
X173741277Y-50072018D01*
X173733809Y-50097452D01*
X173700458Y-50177968D01*
X173700458Y-50177969D01*
X173674500Y-50308466D01*
X173674500Y-50308469D01*
X173674500Y-50441531D01*
X173674500Y-50441533D01*
X173674499Y-50441533D01*
X173700458Y-50572030D01*
X173700461Y-50572040D01*
X173751376Y-50694961D01*
X173751386Y-50694979D01*
X173825301Y-50805601D01*
X173825307Y-50805609D01*
X173919390Y-50899692D01*
X173919393Y-50899694D01*
X173919394Y-50899695D01*
X173919879Y-50900019D01*
X173952623Y-50921898D01*
X173997427Y-50975511D01*
X174006134Y-51044836D01*
X173975979Y-51107863D01*
X173952623Y-51128102D01*
X173919390Y-51150307D01*
X173825307Y-51244390D01*
X173825301Y-51244398D01*
X173751386Y-51355020D01*
X173751376Y-51355038D01*
X173700461Y-51477959D01*
X173700458Y-51477969D01*
X173689275Y-51534192D01*
X173656890Y-51596103D01*
X173596174Y-51630677D01*
X173567658Y-51634000D01*
X173301941Y-51634000D01*
X173235998Y-51647117D01*
X173211806Y-51649500D01*
X170952129Y-51649500D01*
X170952123Y-51649501D01*
X170895750Y-51655561D01*
X170869246Y-51655561D01*
X170812873Y-51649500D01*
X170812865Y-51649500D01*
X169435426Y-51649500D01*
X169411013Y-51642331D01*
X169385772Y-51639124D01*
X169378051Y-51632652D01*
X169368387Y-51629815D01*
X169351728Y-51610589D01*
X169332224Y-51594242D01*
X169327353Y-51582460D01*
X169322632Y-51577011D01*
X169317038Y-51562382D01*
X169315086Y-51556116D01*
X169299540Y-51477964D01*
X169264035Y-51392248D01*
X169262364Y-51386882D01*
X169261879Y-51357352D01*
X169258722Y-51327983D01*
X169261256Y-51319352D01*
X169261218Y-51317021D01*
X169262591Y-51314804D01*
X169266189Y-51302551D01*
X169299540Y-51222036D01*
X169310023Y-51169336D01*
X169325500Y-51091533D01*
X169325500Y-50958466D01*
X169299541Y-50827969D01*
X169299540Y-50827968D01*
X169299540Y-50827964D01*
X169261183Y-50735362D01*
X169248623Y-50705038D01*
X169248622Y-50705037D01*
X169248620Y-50705031D01*
X169241903Y-50694979D01*
X169174698Y-50594398D01*
X169174692Y-50594390D01*
X169080608Y-50500306D01*
X169047378Y-50478103D01*
X169002572Y-50424490D01*
X168993865Y-50355166D01*
X169024019Y-50292138D01*
X169047378Y-50271897D01*
X169080606Y-50249695D01*
X169174695Y-50155606D01*
X169248620Y-50044969D01*
X169299540Y-49922036D01*
X169303699Y-49901126D01*
X169336081Y-49839217D01*
X169383582Y-49808550D01*
X169392167Y-49805481D01*
X169422036Y-49799540D01*
X169505391Y-49765013D01*
X169508266Y-49763986D01*
X169540207Y-49762141D01*
X169572017Y-49758722D01*
X169576523Y-49760045D01*
X169578020Y-49759959D01*
X169579964Y-49761055D01*
X169597448Y-49766189D01*
X169677964Y-49799540D01*
X169677968Y-49799540D01*
X169677969Y-49799541D01*
X169808466Y-49825500D01*
X169808469Y-49825500D01*
X169941533Y-49825500D01*
X170029325Y-49808035D01*
X170072036Y-49799540D01*
X170152548Y-49766190D01*
X170222017Y-49758722D01*
X170247448Y-49766189D01*
X170327964Y-49799540D01*
X170327968Y-49799540D01*
X170327969Y-49799541D01*
X170458466Y-49825500D01*
X170458469Y-49825500D01*
X170591533Y-49825500D01*
X170679325Y-49808035D01*
X170722036Y-49799540D01*
X170844969Y-49748620D01*
X170955606Y-49674695D01*
X171049695Y-49580606D01*
X171123620Y-49469969D01*
X171174540Y-49347036D01*
X171184990Y-49294500D01*
X171200500Y-49216533D01*
X171200500Y-49108192D01*
X171202883Y-49083999D01*
X171203878Y-49079000D01*
X171216000Y-49018058D01*
X171216000Y-47736942D01*
X171216000Y-47736939D01*
X171189446Y-47603448D01*
X171189445Y-47603447D01*
X171189445Y-47603443D01*
X171173599Y-47565187D01*
X171137359Y-47477695D01*
X171137349Y-47477677D01*
X171121398Y-47453804D01*
X171100520Y-47387127D01*
X171100500Y-47384914D01*
X171100500Y-47365317D01*
X171100499Y-47365302D01*
X171100129Y-47360606D01*
X171097643Y-47329007D01*
X171083550Y-47280500D01*
X171052495Y-47173609D01*
X171052495Y-47173608D01*
X171052494Y-47173607D01*
X171052494Y-47173605D01*
X171028267Y-47132639D01*
X171011000Y-47069519D01*
X171011000Y-46761939D01*
X170984446Y-46628448D01*
X170984445Y-46628447D01*
X170984445Y-46628443D01*
X170932356Y-46502689D01*
X170923330Y-46489180D01*
X170865918Y-46403257D01*
X170845042Y-46336580D01*
X170863527Y-46269200D01*
X170915506Y-46222511D01*
X170984476Y-46211335D01*
X170985304Y-46211442D01*
G37*
%TD.AperFunction*%
%TA.AperFunction,Conductor*%
G36*
X177395093Y-50435685D02*
G01*
X177440848Y-50488489D01*
X177450792Y-50557647D01*
X177421767Y-50621203D01*
X177415735Y-50627681D01*
X176819400Y-51224015D01*
X176758077Y-51257500D01*
X176688385Y-51252516D01*
X176682474Y-51250136D01*
X176676394Y-51247505D01*
X176520997Y-51202357D01*
X176520992Y-51202356D01*
X176489081Y-51199845D01*
X176423793Y-51174960D01*
X176411131Y-51163908D01*
X176385492Y-51138269D01*
X176385485Y-51138263D01*
X176272312Y-51062644D01*
X176272309Y-51062642D01*
X176146561Y-51010556D01*
X176146558Y-51010555D01*
X176138800Y-51009012D01*
X176107555Y-51002797D01*
X176107554Y-51002796D01*
X176107553Y-51002796D01*
X176013060Y-50984000D01*
X176013058Y-50984000D01*
X175387484Y-50984000D01*
X175320445Y-50964315D01*
X175274690Y-50911511D01*
X175264746Y-50842353D01*
X175284381Y-50791110D01*
X175297014Y-50772203D01*
X175348620Y-50694969D01*
X175399540Y-50572036D01*
X175405845Y-50540336D01*
X175410725Y-50515808D01*
X175443110Y-50453897D01*
X175503826Y-50419323D01*
X175532342Y-50416000D01*
X177328054Y-50416000D01*
X177395093Y-50435685D01*
G37*
%TD.AperFunction*%
%TA.AperFunction,Conductor*%
G36*
X178329455Y-43310685D02*
G01*
X178350097Y-43327319D01*
X179594381Y-44571603D01*
X179627866Y-44632926D01*
X179630700Y-44659284D01*
X179630700Y-45916798D01*
X179611015Y-45983837D01*
X179558211Y-46029592D01*
X179489053Y-46039536D01*
X179425497Y-46010511D01*
X179387723Y-45951733D01*
X179387624Y-45951393D01*
X179372870Y-45900611D01*
X179372869Y-45900607D01*
X179291135Y-45762402D01*
X179291133Y-45762400D01*
X179291130Y-45762396D01*
X179177603Y-45648869D01*
X179177595Y-45648863D01*
X179039393Y-45567131D01*
X179039388Y-45567129D01*
X178885208Y-45522335D01*
X178885202Y-45522334D01*
X178849181Y-45519500D01*
X178350830Y-45519500D01*
X178350808Y-45519501D01*
X178314794Y-45522335D01*
X178308803Y-45524076D01*
X178274208Y-45529000D01*
X177927203Y-45529000D01*
X177864083Y-45511732D01*
X177839397Y-45497133D01*
X177839388Y-45497129D01*
X177685208Y-45452335D01*
X177685202Y-45452334D01*
X177649181Y-45449500D01*
X177150830Y-45449500D01*
X177150808Y-45449501D01*
X177114794Y-45452335D01*
X176960611Y-45497129D01*
X176960606Y-45497131D01*
X176815687Y-45582836D01*
X176814179Y-45580287D01*
X176762056Y-45600732D01*
X176693544Y-45587029D01*
X176688014Y-45583947D01*
X176657924Y-45566152D01*
X176626395Y-45547506D01*
X176626393Y-45547505D01*
X176626391Y-45547504D01*
X176470997Y-45502357D01*
X176470991Y-45502356D01*
X176434697Y-45499500D01*
X176434690Y-45499500D01*
X175965310Y-45499500D01*
X175965302Y-45499500D01*
X175929008Y-45502356D01*
X175929002Y-45502357D01*
X175773609Y-45547504D01*
X175773608Y-45547504D01*
X175636117Y-45628815D01*
X175568393Y-45645997D01*
X175509877Y-45628814D01*
X175439397Y-45587133D01*
X175439388Y-45587129D01*
X175285208Y-45542335D01*
X175285202Y-45542334D01*
X175249188Y-45539500D01*
X175249181Y-45539500D01*
X174934500Y-45539500D01*
X174867461Y-45519815D01*
X174821706Y-45467011D01*
X174810500Y-45415500D01*
X174810500Y-45149000D01*
X174830185Y-45081961D01*
X174882989Y-45036206D01*
X174934500Y-45025000D01*
X175188529Y-45025000D01*
X175218935Y-45028785D01*
X175234544Y-45032734D01*
X175234675Y-45032767D01*
X175251595Y-45036422D01*
X175251614Y-45036426D01*
X175286417Y-45042679D01*
X175430297Y-45042678D01*
X175499455Y-45032734D01*
X175637504Y-44992199D01*
X175758543Y-44914411D01*
X175811347Y-44868656D01*
X175905567Y-44759922D01*
X175965338Y-44629045D01*
X175985023Y-44562006D01*
X175985024Y-44562002D01*
X176005500Y-44419586D01*
X176005500Y-43415000D01*
X176025185Y-43347961D01*
X176077989Y-43302206D01*
X176129500Y-43291000D01*
X178262416Y-43291000D01*
X178329455Y-43310685D01*
G37*
%TD.AperFunction*%
%TA.AperFunction,Conductor*%
G36*
X170298834Y-41160263D02*
G01*
X170354767Y-41202135D01*
X170379184Y-41267599D01*
X170379500Y-41276445D01*
X170379500Y-41619169D01*
X170379501Y-41619191D01*
X170382335Y-41655205D01*
X170427129Y-41809388D01*
X170427131Y-41809393D01*
X170508863Y-41947595D01*
X170508869Y-41947603D01*
X170622396Y-42061130D01*
X170622400Y-42061133D01*
X170622402Y-42061135D01*
X170760607Y-42142869D01*
X170806680Y-42156254D01*
X170865565Y-42193859D01*
X170894772Y-42257331D01*
X170885027Y-42326518D01*
X170859766Y-42363011D01*
X169463269Y-43759507D01*
X169463263Y-43759514D01*
X169400018Y-43854169D01*
X169400017Y-43854172D01*
X169387645Y-43872686D01*
X169387640Y-43872695D01*
X169335556Y-43998438D01*
X169335553Y-43998448D01*
X169309000Y-44131939D01*
X169309000Y-44928251D01*
X169291732Y-44991372D01*
X169227131Y-45100605D01*
X169227129Y-45100611D01*
X169182335Y-45254791D01*
X169182334Y-45254797D01*
X169179500Y-45290811D01*
X169179500Y-45576754D01*
X169159815Y-45643793D01*
X169107011Y-45689548D01*
X169045773Y-45700372D01*
X169034700Y-45699500D01*
X169034690Y-45699500D01*
X168565310Y-45699500D01*
X168565299Y-45699500D01*
X168554226Y-45700372D01*
X168485849Y-45686007D01*
X168436093Y-45636954D01*
X168420499Y-45576756D01*
X168420499Y-45290820D01*
X168417665Y-45254796D01*
X168372869Y-45100607D01*
X168291135Y-44962402D01*
X168291133Y-44962400D01*
X168291130Y-44962396D01*
X168177603Y-44848869D01*
X168177595Y-44848863D01*
X168039393Y-44767131D01*
X168039388Y-44767129D01*
X167885208Y-44722335D01*
X167885202Y-44722334D01*
X167849181Y-44719500D01*
X167350830Y-44719500D01*
X167350808Y-44719501D01*
X167314794Y-44722335D01*
X167160611Y-44767129D01*
X167160606Y-44767131D01*
X167028545Y-44845232D01*
X167015481Y-44849214D01*
X167007173Y-44855260D01*
X166980460Y-44859892D01*
X166972587Y-44862293D01*
X166969009Y-44862500D01*
X166848196Y-44862500D01*
X166798638Y-44872357D01*
X166790046Y-44872855D01*
X166764054Y-44866829D01*
X166737483Y-44864452D01*
X166730542Y-44859060D01*
X166721981Y-44857076D01*
X166703373Y-44837955D01*
X166682305Y-44821589D01*
X166679381Y-44813301D01*
X166673252Y-44807003D01*
X166667936Y-44780857D01*
X166659061Y-44755699D01*
X166661082Y-44747146D01*
X166659331Y-44738534D01*
X166668993Y-44713665D01*
X166675129Y-44687702D01*
X166683188Y-44677134D01*
X166684636Y-44673408D01*
X166687767Y-44671129D01*
X166695198Y-44661385D01*
X170167821Y-41188762D01*
X170229142Y-41155279D01*
X170298834Y-41160263D01*
G37*
%TD.AperFunction*%
%TA.AperFunction,Conductor*%
G36*
X175636139Y-39021785D02*
G01*
X175681894Y-39074589D01*
X175693100Y-39126099D01*
X175693100Y-39294868D01*
X175693101Y-39294875D01*
X175699509Y-39354486D01*
X175701292Y-39362030D01*
X175698906Y-39362593D01*
X175703036Y-39420246D01*
X175669557Y-39481572D01*
X175608238Y-39515063D01*
X175581867Y-39517900D01*
X173632960Y-39517900D01*
X173611714Y-39511661D01*
X173589626Y-39510082D01*
X173578842Y-39502009D01*
X173565921Y-39498215D01*
X173551421Y-39481481D01*
X173533693Y-39468210D01*
X173528985Y-39455589D01*
X173520166Y-39445411D01*
X173517014Y-39423493D01*
X173509276Y-39402746D01*
X173512138Y-39389585D01*
X173510222Y-39376253D01*
X173519421Y-39356109D01*
X173524128Y-39334473D01*
X173537396Y-39316747D01*
X173539247Y-39312697D01*
X173545279Y-39306219D01*
X173634679Y-39216819D01*
X173696002Y-39183334D01*
X173722360Y-39180500D01*
X173834682Y-39180500D01*
X173834690Y-39180500D01*
X173870993Y-39177643D01*
X173870995Y-39177642D01*
X173870997Y-39177642D01*
X173911975Y-39165736D01*
X174026395Y-39132494D01*
X174165687Y-39050117D01*
X174166602Y-39049202D01*
X174177386Y-39038419D01*
X174238709Y-39004934D01*
X174265067Y-39002100D01*
X175569100Y-39002100D01*
X175636139Y-39021785D01*
G37*
%TD.AperFunction*%
%TA.AperFunction,Conductor*%
G36*
X190326775Y-30520185D02*
G01*
X190372530Y-30572989D01*
X190382474Y-30642147D01*
X190353449Y-30705703D01*
X190335222Y-30722876D01*
X190212073Y-30817370D01*
X190212066Y-30817376D01*
X190017376Y-31012066D01*
X190017370Y-31012073D01*
X189849754Y-31230516D01*
X189712080Y-31468971D01*
X189712075Y-31468982D01*
X189606704Y-31723369D01*
X189535441Y-31989331D01*
X189535438Y-31989344D01*
X189499501Y-32262315D01*
X189499500Y-32262332D01*
X189499500Y-32537667D01*
X189499501Y-32537684D01*
X189535438Y-32810655D01*
X189535439Y-32810660D01*
X189535440Y-32810666D01*
X189535441Y-32810668D01*
X189606704Y-33076630D01*
X189712075Y-33331017D01*
X189712080Y-33331028D01*
X189791809Y-33469121D01*
X189849751Y-33569479D01*
X189849753Y-33569482D01*
X189849754Y-33569483D01*
X190017370Y-33787926D01*
X190017376Y-33787933D01*
X190212066Y-33982623D01*
X190212073Y-33982629D01*
X190226220Y-33993484D01*
X190430521Y-34150249D01*
X190583778Y-34238732D01*
X190668971Y-34287919D01*
X190668976Y-34287921D01*
X190668979Y-34287923D01*
X190923368Y-34393295D01*
X191189334Y-34464560D01*
X191462326Y-34500500D01*
X191462333Y-34500500D01*
X191737667Y-34500500D01*
X191737674Y-34500500D01*
X192010666Y-34464560D01*
X192276632Y-34393295D01*
X192531021Y-34287923D01*
X192769479Y-34150249D01*
X192987928Y-33982628D01*
X193182628Y-33787928D01*
X193277124Y-33664778D01*
X193333552Y-33623575D01*
X193403298Y-33619420D01*
X193464218Y-33653632D01*
X193496971Y-33715349D01*
X193499500Y-33740264D01*
X193499500Y-67859735D01*
X193479815Y-67926774D01*
X193427011Y-67972529D01*
X193357853Y-67982473D01*
X193294297Y-67953448D01*
X193277124Y-67935221D01*
X193182629Y-67812073D01*
X193182623Y-67812066D01*
X192987933Y-67617376D01*
X192987926Y-67617370D01*
X192769483Y-67449754D01*
X192769482Y-67449753D01*
X192769479Y-67449751D01*
X192674407Y-67394861D01*
X192531028Y-67312080D01*
X192531017Y-67312075D01*
X192276630Y-67206704D01*
X192143649Y-67171072D01*
X192010666Y-67135440D01*
X192010660Y-67135439D01*
X192010655Y-67135438D01*
X191737684Y-67099501D01*
X191737679Y-67099500D01*
X191737674Y-67099500D01*
X191462326Y-67099500D01*
X191462320Y-67099500D01*
X191462315Y-67099501D01*
X191189344Y-67135438D01*
X191189337Y-67135439D01*
X191189334Y-67135440D01*
X191133125Y-67150500D01*
X190923369Y-67206704D01*
X190668982Y-67312075D01*
X190668971Y-67312080D01*
X190430516Y-67449754D01*
X190212073Y-67617370D01*
X190212066Y-67617376D01*
X190017376Y-67812066D01*
X190017370Y-67812073D01*
X189849754Y-68030516D01*
X189712080Y-68268971D01*
X189712075Y-68268982D01*
X189606704Y-68523369D01*
X189535441Y-68789331D01*
X189535438Y-68789344D01*
X189499501Y-69062315D01*
X189499500Y-69062332D01*
X189499500Y-69337667D01*
X189499501Y-69337684D01*
X189535438Y-69610655D01*
X189535439Y-69610660D01*
X189535440Y-69610666D01*
X189535441Y-69610668D01*
X189606704Y-69876630D01*
X189712075Y-70131017D01*
X189712080Y-70131028D01*
X189791809Y-70269121D01*
X189849751Y-70369479D01*
X189849753Y-70369482D01*
X189849754Y-70369483D01*
X190017370Y-70587926D01*
X190017376Y-70587933D01*
X190212066Y-70782623D01*
X190212073Y-70782629D01*
X190335222Y-70877124D01*
X190376425Y-70933552D01*
X190380580Y-71003298D01*
X190346368Y-71064218D01*
X190284651Y-71096971D01*
X190259736Y-71099500D01*
X133140264Y-71099500D01*
X133073225Y-71079815D01*
X133027470Y-71027011D01*
X133017526Y-70957853D01*
X133046551Y-70894297D01*
X133064778Y-70877124D01*
X133090314Y-70857529D01*
X133187928Y-70782628D01*
X133382628Y-70587928D01*
X133550249Y-70369479D01*
X133687923Y-70131021D01*
X133793295Y-69876632D01*
X133864560Y-69610666D01*
X133900500Y-69337674D01*
X133900500Y-69062326D01*
X133864560Y-68789334D01*
X133793295Y-68523368D01*
X133687923Y-68268979D01*
X133687921Y-68268976D01*
X133687919Y-68268971D01*
X133638732Y-68183778D01*
X133550249Y-68030521D01*
X133382628Y-67812072D01*
X133382623Y-67812066D01*
X133187933Y-67617376D01*
X133187926Y-67617370D01*
X132969483Y-67449754D01*
X132969482Y-67449753D01*
X132969479Y-67449751D01*
X132874407Y-67394861D01*
X132731028Y-67312080D01*
X132731017Y-67312075D01*
X132476630Y-67206704D01*
X132343649Y-67171072D01*
X132210666Y-67135440D01*
X132210660Y-67135439D01*
X132210655Y-67135438D01*
X131937684Y-67099501D01*
X131937679Y-67099500D01*
X131937674Y-67099500D01*
X131662326Y-67099500D01*
X131662320Y-67099500D01*
X131662315Y-67099501D01*
X131389344Y-67135438D01*
X131389337Y-67135439D01*
X131389334Y-67135440D01*
X131333125Y-67150500D01*
X131123369Y-67206704D01*
X130868982Y-67312075D01*
X130868971Y-67312080D01*
X130630516Y-67449754D01*
X130412073Y-67617370D01*
X130412066Y-67617376D01*
X130217376Y-67812066D01*
X130217370Y-67812073D01*
X130122876Y-67935221D01*
X130066448Y-67976424D01*
X129996702Y-67980579D01*
X129935782Y-67946367D01*
X129903029Y-67884649D01*
X129900500Y-67859735D01*
X129900500Y-47599983D01*
X133349500Y-47599983D01*
X133349500Y-48800001D01*
X133349501Y-48800018D01*
X133360000Y-48902796D01*
X133360001Y-48902799D01*
X133415185Y-49069331D01*
X133415187Y-49069336D01*
X133429293Y-49092205D01*
X133507288Y-49218656D01*
X133631344Y-49342712D01*
X133780666Y-49434814D01*
X133947203Y-49489999D01*
X134049991Y-49500500D01*
X134610428Y-49500499D01*
X134677465Y-49520183D01*
X134723220Y-49572987D01*
X134733164Y-49642146D01*
X134704139Y-49705702D01*
X134675524Y-49730037D01*
X134631344Y-49757287D01*
X134507289Y-49881342D01*
X134415187Y-50030663D01*
X134415185Y-50030668D01*
X134401483Y-50072018D01*
X134360001Y-50197203D01*
X134360001Y-50197204D01*
X134360000Y-50197204D01*
X134349500Y-50299983D01*
X134349500Y-50900001D01*
X134349501Y-50900019D01*
X134360000Y-51002796D01*
X134360001Y-51002797D01*
X134415186Y-51169334D01*
X134507288Y-51318656D01*
X134631344Y-51442712D01*
X134688489Y-51477959D01*
X134715243Y-51494461D01*
X134761967Y-51546409D01*
X134773190Y-51615372D01*
X134745346Y-51679454D01*
X134715243Y-51705539D01*
X134631342Y-51757289D01*
X134507289Y-51881342D01*
X134415187Y-52030663D01*
X134415186Y-52030666D01*
X134360001Y-52197203D01*
X134360001Y-52197204D01*
X134360000Y-52197204D01*
X134349500Y-52299983D01*
X134349500Y-52900001D01*
X134349501Y-52900019D01*
X134360000Y-53002796D01*
X134360001Y-53002799D01*
X134390205Y-53093947D01*
X134415186Y-53169334D01*
X134507288Y-53318656D01*
X134631344Y-53442712D01*
X134675524Y-53469962D01*
X134722248Y-53521908D01*
X134733471Y-53590870D01*
X134705628Y-53654953D01*
X134647560Y-53693809D01*
X134610427Y-53699500D01*
X134049998Y-53699500D01*
X134049981Y-53699501D01*
X133947203Y-53710000D01*
X133947200Y-53710001D01*
X133780668Y-53765185D01*
X133780663Y-53765187D01*
X133631342Y-53857289D01*
X133507289Y-53981342D01*
X133415187Y-54130663D01*
X133415185Y-54130668D01*
X133392046Y-54200499D01*
X133360001Y-54297203D01*
X133360001Y-54297204D01*
X133360000Y-54297204D01*
X133349500Y-54399983D01*
X133349500Y-55600001D01*
X133349501Y-55600018D01*
X133360000Y-55702796D01*
X133360001Y-55702799D01*
X133415185Y-55869331D01*
X133415187Y-55869336D01*
X133424738Y-55884820D01*
X133507288Y-56018656D01*
X133631344Y-56142712D01*
X133780666Y-56234814D01*
X133947203Y-56289999D01*
X134049991Y-56300500D01*
X136148639Y-56300499D01*
X136169884Y-56306737D01*
X136191973Y-56308317D01*
X136202756Y-56316389D01*
X136215678Y-56320184D01*
X136230178Y-56336917D01*
X136247906Y-56350189D01*
X136252612Y-56362808D01*
X136261433Y-56372987D01*
X136264584Y-56394905D01*
X136272323Y-56415653D01*
X136269460Y-56428813D01*
X136271377Y-56442146D01*
X136262177Y-56462289D01*
X136257471Y-56483926D01*
X136244202Y-56501651D01*
X136242352Y-56505702D01*
X136236320Y-56512180D01*
X136205319Y-56543181D01*
X136143996Y-56576666D01*
X136117639Y-56579500D01*
X136000831Y-56579500D01*
X136000807Y-56579501D01*
X135964794Y-56582335D01*
X135810611Y-56627129D01*
X135810606Y-56627131D01*
X135672404Y-56708863D01*
X135672396Y-56708869D01*
X135558869Y-56822396D01*
X135558863Y-56822404D01*
X135477131Y-56960606D01*
X135477129Y-56960611D01*
X135432335Y-57114791D01*
X135432334Y-57114797D01*
X135429500Y-57150811D01*
X135429500Y-57649169D01*
X135429501Y-57649191D01*
X135432335Y-57685205D01*
X135477129Y-57839388D01*
X135477131Y-57839393D01*
X135558865Y-57977598D01*
X135561577Y-57980310D01*
X135563024Y-57982959D01*
X135563648Y-57983764D01*
X135563518Y-57983864D01*
X135595065Y-58041630D01*
X135597900Y-58067995D01*
X135597900Y-58575746D01*
X135578215Y-58642785D01*
X135525411Y-58688540D01*
X135486693Y-58698570D01*
X135486720Y-58698737D01*
X135484999Y-58699009D01*
X135483635Y-58699363D01*
X135481909Y-58699498D01*
X135248631Y-58736446D01*
X135024003Y-58809433D01*
X134813566Y-58916657D01*
X134704550Y-58995862D01*
X134622490Y-59055483D01*
X134622488Y-59055485D01*
X134622487Y-59055485D01*
X134455485Y-59222487D01*
X134455485Y-59222488D01*
X134455483Y-59222490D01*
X134427173Y-59261455D01*
X134316657Y-59413566D01*
X134209433Y-59624003D01*
X134136446Y-59848631D01*
X134099500Y-60081902D01*
X134099500Y-60318097D01*
X134136446Y-60551368D01*
X134209433Y-60775996D01*
X134316657Y-60986433D01*
X134455483Y-61177510D01*
X134622490Y-61344517D01*
X134813567Y-61483343D01*
X134912991Y-61534002D01*
X135024003Y-61590566D01*
X135024005Y-61590566D01*
X135024008Y-61590568D01*
X135144412Y-61629689D01*
X135248631Y-61663553D01*
X135481903Y-61700500D01*
X135481908Y-61700500D01*
X135718097Y-61700500D01*
X135951368Y-61663553D01*
X136175992Y-61590568D01*
X136386433Y-61483343D01*
X136577510Y-61344517D01*
X136744517Y-61177510D01*
X136883343Y-60986433D01*
X136990568Y-60775992D01*
X137015259Y-60700000D01*
X156200000Y-60700000D01*
X156200000Y-62300000D01*
X162700000Y-62300000D01*
X162700000Y-60673469D01*
X156200000Y-60700000D01*
X137015259Y-60700000D01*
X137063553Y-60551368D01*
X137079417Y-60451206D01*
X137100500Y-60318097D01*
X137100500Y-60081902D01*
X137063553Y-59848631D01*
X137017046Y-59705498D01*
X136990568Y-59624008D01*
X136990566Y-59624005D01*
X136990566Y-59624003D01*
X136951666Y-59547659D01*
X136883343Y-59413567D01*
X136873829Y-59400473D01*
X136825782Y-59334340D01*
X136802302Y-59268534D01*
X136802100Y-59261455D01*
X136802100Y-58067995D01*
X136821785Y-58000956D01*
X136838419Y-57980313D01*
X136841135Y-57977598D01*
X136922869Y-57839393D01*
X136967665Y-57685204D01*
X136970500Y-57649181D01*
X136970499Y-57532358D01*
X136990183Y-57465320D01*
X137006813Y-57444683D01*
X140265679Y-54185819D01*
X140327002Y-54152334D01*
X140353360Y-54149500D01*
X143770500Y-54149500D01*
X143837539Y-54169185D01*
X143883294Y-54221989D01*
X143894500Y-54273500D01*
X143894500Y-58076000D01*
X143894501Y-58076009D01*
X143906052Y-58183450D01*
X143906054Y-58183462D01*
X143917260Y-58234972D01*
X143951383Y-58337497D01*
X143951386Y-58337503D01*
X144029171Y-58458537D01*
X144029179Y-58458548D01*
X144074923Y-58511340D01*
X144074926Y-58511343D01*
X144074930Y-58511347D01*
X144183664Y-58605567D01*
X144183667Y-58605568D01*
X144183668Y-58605569D01*
X144277925Y-58648616D01*
X144314541Y-58665338D01*
X144381580Y-58685023D01*
X144381584Y-58685024D01*
X144524000Y-58705500D01*
X144524003Y-58705500D01*
X150675990Y-58705500D01*
X150676000Y-58705500D01*
X150783456Y-58693947D01*
X150834967Y-58682741D01*
X150869197Y-58671347D01*
X150937497Y-58648616D01*
X150937501Y-58648613D01*
X150937504Y-58648613D01*
X151058543Y-58570825D01*
X151111347Y-58525070D01*
X151205567Y-58416336D01*
X151265338Y-58285459D01*
X151285023Y-58218420D01*
X151285024Y-58218416D01*
X151305500Y-58076000D01*
X151305500Y-54524000D01*
X154294500Y-54524000D01*
X154294500Y-59076000D01*
X154294501Y-59076009D01*
X154306052Y-59183450D01*
X154306054Y-59183462D01*
X154317260Y-59234972D01*
X154351383Y-59337497D01*
X154351386Y-59337503D01*
X154429171Y-59458537D01*
X154429179Y-59458548D01*
X154474923Y-59511340D01*
X154474926Y-59511343D01*
X154474930Y-59511347D01*
X154583664Y-59605567D01*
X154583667Y-59605568D01*
X154583668Y-59605569D01*
X154677925Y-59648616D01*
X154714541Y-59665338D01*
X154781580Y-59685023D01*
X154781584Y-59685024D01*
X154924000Y-59705500D01*
X154924003Y-59705500D01*
X166675990Y-59705500D01*
X166676000Y-59705500D01*
X166783456Y-59693947D01*
X166834967Y-59682741D01*
X166869197Y-59671347D01*
X166937497Y-59648616D01*
X166937501Y-59648613D01*
X166937504Y-59648613D01*
X167058543Y-59570825D01*
X167111347Y-59525070D01*
X167205567Y-59416336D01*
X167265338Y-59285459D01*
X167285023Y-59218420D01*
X167285024Y-59218416D01*
X167305500Y-59076000D01*
X167305500Y-54524000D01*
X167293947Y-54416544D01*
X167282741Y-54365033D01*
X167282637Y-54364722D01*
X167248616Y-54262502D01*
X167248613Y-54262496D01*
X167219963Y-54217916D01*
X167170825Y-54141457D01*
X167165067Y-54134812D01*
X167125076Y-54088659D01*
X167125072Y-54088656D01*
X167125070Y-54088653D01*
X167066343Y-54037765D01*
X167028570Y-53978987D01*
X167028571Y-53909118D01*
X167066346Y-53850340D01*
X167123357Y-53822437D01*
X167126234Y-53821864D01*
X167242306Y-53798776D01*
X167393484Y-53736156D01*
X167406794Y-53727262D01*
X167473469Y-53706383D01*
X167540849Y-53724865D01*
X167587541Y-53776843D01*
X167592203Y-53787938D01*
X167595452Y-53796862D01*
X167600460Y-53822036D01*
X167634840Y-53905038D01*
X167635764Y-53907575D01*
X167637819Y-53939853D01*
X167641277Y-53972018D01*
X167640118Y-53975963D01*
X167640204Y-53977304D01*
X167639189Y-53979128D01*
X167633809Y-53997452D01*
X167600458Y-54077968D01*
X167600458Y-54077969D01*
X167574500Y-54208466D01*
X167574500Y-54208469D01*
X167574500Y-54341531D01*
X167574500Y-54341533D01*
X167574499Y-54341533D01*
X167600458Y-54472030D01*
X167600461Y-54472040D01*
X167651376Y-54594961D01*
X167651386Y-54594979D01*
X167725301Y-54705601D01*
X167725307Y-54705609D01*
X167819390Y-54799692D01*
X167819398Y-54799698D01*
X167930020Y-54873613D01*
X167930023Y-54873614D01*
X167930031Y-54873620D01*
X168052964Y-54924540D01*
X168070885Y-54928104D01*
X168132796Y-54960487D01*
X168162879Y-55006389D01*
X168191202Y-55082328D01*
X168191206Y-55082335D01*
X168277452Y-55197544D01*
X168277455Y-55197547D01*
X168392664Y-55283793D01*
X168392671Y-55283797D01*
X168490241Y-55320188D01*
X168546175Y-55362059D01*
X168568525Y-55412176D01*
X168575459Y-55447033D01*
X168575460Y-55447038D01*
X168626376Y-55569961D01*
X168626386Y-55569979D01*
X168700301Y-55680601D01*
X168700307Y-55680609D01*
X168794390Y-55774692D01*
X168794398Y-55774698D01*
X168905020Y-55848613D01*
X168905023Y-55848614D01*
X168905031Y-55848620D01*
X168905037Y-55848622D01*
X168905038Y-55848623D01*
X168992426Y-55884820D01*
X169027964Y-55899540D01*
X169027968Y-55899540D01*
X169027969Y-55899541D01*
X169158466Y-55925500D01*
X169158469Y-55925500D01*
X169291533Y-55925500D01*
X169379325Y-55908035D01*
X169422036Y-55899540D01*
X169502548Y-55866190D01*
X169572017Y-55858722D01*
X169597448Y-55866189D01*
X169677964Y-55899540D01*
X169677968Y-55899540D01*
X169677969Y-55899541D01*
X169808466Y-55925500D01*
X169808469Y-55925500D01*
X169941533Y-55925500D01*
X170029325Y-55908035D01*
X170072036Y-55899540D01*
X170152548Y-55866190D01*
X170177849Y-55863470D01*
X170202406Y-55856775D01*
X170215217Y-55859453D01*
X170222017Y-55858722D01*
X170237237Y-55862475D01*
X170242418Y-55864106D01*
X170327964Y-55899540D01*
X170401313Y-55914130D01*
X170407737Y-55916153D01*
X170431379Y-55932003D01*
X170456602Y-55945197D01*
X170460025Y-55951208D01*
X170465771Y-55955061D01*
X170477090Y-55981177D01*
X170491176Y-56005913D01*
X170492413Y-56016529D01*
X170493557Y-56019168D01*
X170493068Y-56022151D01*
X170494500Y-56034430D01*
X170494500Y-56876291D01*
X170494500Y-56876309D01*
X170494501Y-56876311D01*
X170497268Y-56929119D01*
X170499979Y-56954909D01*
X170499979Y-56954916D01*
X170508250Y-57007142D01*
X170557104Y-57140074D01*
X170564709Y-57184038D01*
X170534955Y-60283388D01*
X170514628Y-60350236D01*
X170461387Y-60395482D01*
X170454295Y-60398380D01*
X170312669Y-60451203D01*
X170312664Y-60451206D01*
X170197455Y-60537452D01*
X170197452Y-60537455D01*
X170111206Y-60652664D01*
X170111202Y-60652671D01*
X170060908Y-60787517D01*
X170054501Y-60847116D01*
X170054501Y-60847123D01*
X170054500Y-60847135D01*
X170054500Y-66152870D01*
X170054501Y-66152876D01*
X170060908Y-66212483D01*
X170111202Y-66347328D01*
X170111206Y-66347335D01*
X170197452Y-66462544D01*
X170197455Y-66462547D01*
X170312664Y-66548793D01*
X170312671Y-66548797D01*
X170447517Y-66599091D01*
X170447516Y-66599091D01*
X170454444Y-66599835D01*
X170507127Y-66605500D01*
X173832872Y-66605499D01*
X173892483Y-66599091D01*
X174027331Y-66548796D01*
X174142546Y-66462546D01*
X174228796Y-66347331D01*
X174279091Y-66212483D01*
X174285500Y-66152873D01*
X174285499Y-60847128D01*
X174279091Y-60787517D01*
X174274792Y-60775992D01*
X174228797Y-60652671D01*
X174228793Y-60652664D01*
X174142547Y-60537455D01*
X174055188Y-60472057D01*
X174013318Y-60416123D01*
X174005500Y-60372791D01*
X174005500Y-55944946D01*
X173999307Y-55884820D01*
X173994886Y-55841901D01*
X173984581Y-55792410D01*
X173953187Y-55693700D01*
X173877571Y-55571291D01*
X173832767Y-55517681D01*
X173823974Y-55509783D01*
X173787256Y-55450342D01*
X173785220Y-55393345D01*
X173800500Y-55316531D01*
X173800500Y-55168080D01*
X173820185Y-55101041D01*
X173825234Y-55093768D01*
X173833796Y-55082331D01*
X173884091Y-54947483D01*
X173890500Y-54887873D01*
X173890499Y-53139999D01*
X173910184Y-53072961D01*
X173962987Y-53027206D01*
X174014499Y-53016000D01*
X174618059Y-53016000D01*
X174640282Y-53011579D01*
X174684002Y-53002882D01*
X174708192Y-53000500D01*
X174816533Y-53000500D01*
X174904325Y-52983035D01*
X174947036Y-52974540D01*
X175069969Y-52923620D01*
X175180606Y-52849695D01*
X175274695Y-52755606D01*
X175348620Y-52644969D01*
X175380275Y-52568546D01*
X175424113Y-52514146D01*
X175490406Y-52492080D01*
X175558106Y-52509358D01*
X175582515Y-52528320D01*
X175684307Y-52630112D01*
X175684311Y-52630115D01*
X175684313Y-52630117D01*
X175823605Y-52712494D01*
X175864587Y-52724400D01*
X175979002Y-52757642D01*
X175979005Y-52757642D01*
X175979007Y-52757643D01*
X176015310Y-52760500D01*
X176015318Y-52760500D01*
X176484682Y-52760500D01*
X176484690Y-52760500D01*
X176520993Y-52757643D01*
X176520995Y-52757642D01*
X176520997Y-52757642D01*
X176581386Y-52740097D01*
X176676395Y-52712494D01*
X176717359Y-52688267D01*
X176780480Y-52671000D01*
X177108698Y-52671000D01*
X177239510Y-52644979D01*
X177242195Y-52644445D01*
X177367949Y-52592356D01*
X177381278Y-52583450D01*
X177409648Y-52564494D01*
X177433474Y-52548573D01*
X177481125Y-52516735D01*
X178116518Y-51881342D01*
X178573860Y-51424000D01*
X181244500Y-51424000D01*
X181244500Y-66226000D01*
X181244501Y-66226009D01*
X181256052Y-66333450D01*
X181256054Y-66333462D01*
X181267260Y-66384972D01*
X181301383Y-66487497D01*
X181301386Y-66487503D01*
X181379171Y-66608537D01*
X181379179Y-66608548D01*
X181424923Y-66661340D01*
X181424926Y-66661343D01*
X181424930Y-66661347D01*
X181533664Y-66755567D01*
X181664541Y-66815338D01*
X181731580Y-66835023D01*
X181731584Y-66835024D01*
X181874000Y-66855500D01*
X181874003Y-66855500D01*
X185599417Y-66855500D01*
X185599424Y-66855500D01*
X185662646Y-66848534D01*
X185709467Y-66843377D01*
X185709470Y-66843376D01*
X185709473Y-66843376D01*
X185762169Y-66831622D01*
X185866942Y-66795829D01*
X185987156Y-66716771D01*
X186039475Y-66670463D01*
X186132545Y-66560742D01*
X186190935Y-66429242D01*
X186209913Y-66361999D01*
X186209913Y-66361997D01*
X186209927Y-66361887D01*
X186210955Y-66354464D01*
X186210996Y-66353857D01*
X186211865Y-66347328D01*
X186228889Y-66219374D01*
X186201679Y-63634608D01*
X186212883Y-63581781D01*
X186215337Y-63576408D01*
X186235023Y-63509366D01*
X186235024Y-63509363D01*
X186255500Y-63366947D01*
X186255500Y-56999983D01*
X188649500Y-56999983D01*
X188649500Y-58200001D01*
X188649501Y-58200018D01*
X188660000Y-58302796D01*
X188660001Y-58302799D01*
X188697624Y-58416335D01*
X188715186Y-58469334D01*
X188807288Y-58618656D01*
X188931344Y-58742712D01*
X189080666Y-58834814D01*
X189247203Y-58889999D01*
X189349991Y-58900500D01*
X191950008Y-58900499D01*
X192052797Y-58889999D01*
X192219334Y-58834814D01*
X192368656Y-58742712D01*
X192492712Y-58618656D01*
X192584814Y-58469334D01*
X192639999Y-58302797D01*
X192648619Y-58218420D01*
X192650500Y-58200013D01*
X192650500Y-58200008D01*
X192650499Y-56999992D01*
X192645894Y-56954916D01*
X192639999Y-56897203D01*
X192639998Y-56897200D01*
X192615210Y-56822396D01*
X192584814Y-56730666D01*
X192492712Y-56581344D01*
X192368656Y-56457288D01*
X192275888Y-56400069D01*
X192219336Y-56365187D01*
X192219331Y-56365185D01*
X192174076Y-56350189D01*
X192052797Y-56310001D01*
X192052795Y-56310000D01*
X191950010Y-56299500D01*
X189349998Y-56299500D01*
X189349981Y-56299501D01*
X189247203Y-56310000D01*
X189247200Y-56310001D01*
X189080668Y-56365185D01*
X189080663Y-56365187D01*
X188931342Y-56457289D01*
X188807289Y-56581342D01*
X188715187Y-56730663D01*
X188715186Y-56730666D01*
X188660001Y-56897203D01*
X188660001Y-56897204D01*
X188660000Y-56897204D01*
X188649500Y-56999983D01*
X186255500Y-56999983D01*
X186255500Y-56280466D01*
X186254758Y-56253080D01*
X186254030Y-56239662D01*
X186251804Y-56212351D01*
X186216038Y-56072987D01*
X186189487Y-56009126D01*
X186189240Y-56008519D01*
X186189211Y-56008462D01*
X186189211Y-56008461D01*
X186115628Y-55884820D01*
X186115625Y-55884817D01*
X186010195Y-55786921D01*
X186010190Y-55786918D01*
X185952747Y-55747148D01*
X185845614Y-55693699D01*
X185824009Y-55682920D01*
X185824006Y-55682919D01*
X185824004Y-55682918D01*
X185809508Y-55678114D01*
X185783420Y-55665949D01*
X185759335Y-55651094D01*
X185736754Y-55633238D01*
X185716760Y-55613244D01*
X185698901Y-55590657D01*
X185684051Y-55566580D01*
X185671886Y-55540493D01*
X185661529Y-55509240D01*
X185655874Y-55482810D01*
X185655637Y-55480491D01*
X185655000Y-55467936D01*
X185655000Y-54932058D01*
X185655637Y-54919501D01*
X185655872Y-54917200D01*
X185661525Y-54890771D01*
X185671887Y-54859501D01*
X185684053Y-54833413D01*
X185698904Y-54809336D01*
X185716757Y-54786756D01*
X185736758Y-54766755D01*
X185759330Y-54748907D01*
X185783418Y-54734049D01*
X185809499Y-54721887D01*
X185840766Y-54711526D01*
X185867196Y-54705873D01*
X185869516Y-54705636D01*
X185882063Y-54705000D01*
X190325990Y-54705000D01*
X190326000Y-54705000D01*
X190433456Y-54693447D01*
X190484967Y-54682241D01*
X190519197Y-54670847D01*
X190587497Y-54648116D01*
X190587501Y-54648113D01*
X190587504Y-54648113D01*
X190708543Y-54570325D01*
X190761347Y-54524570D01*
X190855567Y-54415836D01*
X190915338Y-54284959D01*
X190916354Y-54281498D01*
X190954122Y-54222721D01*
X191017676Y-54193691D01*
X191022723Y-54193071D01*
X191052797Y-54189999D01*
X191219334Y-54134814D01*
X191368656Y-54042712D01*
X191492712Y-53918656D01*
X191584814Y-53769334D01*
X191639999Y-53602797D01*
X191650500Y-53500009D01*
X191650499Y-52899992D01*
X191650498Y-52899982D01*
X191650497Y-52899966D01*
X191639999Y-52797203D01*
X191639998Y-52797200D01*
X191621076Y-52740097D01*
X191584814Y-52630666D01*
X191492712Y-52481344D01*
X191368656Y-52357288D01*
X191324475Y-52330037D01*
X191277752Y-52278090D01*
X191266529Y-52209127D01*
X191294373Y-52145045D01*
X191352442Y-52106189D01*
X191389573Y-52100499D01*
X191950002Y-52100499D01*
X191950008Y-52100499D01*
X192052797Y-52089999D01*
X192219334Y-52034814D01*
X192368656Y-51942712D01*
X192492712Y-51818656D01*
X192584814Y-51669334D01*
X192639999Y-51502797D01*
X192650500Y-51400009D01*
X192650499Y-50199992D01*
X192639999Y-50097203D01*
X192584814Y-49930666D01*
X192492712Y-49781344D01*
X192368656Y-49657288D01*
X192219334Y-49565186D01*
X192052797Y-49510001D01*
X192052795Y-49510000D01*
X191950010Y-49499500D01*
X189349998Y-49499500D01*
X189349981Y-49499501D01*
X189247203Y-49510000D01*
X189247200Y-49510001D01*
X189080668Y-49565185D01*
X189080663Y-49565187D01*
X188931342Y-49657289D01*
X188807289Y-49781342D01*
X188715187Y-49930663D01*
X188715186Y-49930666D01*
X188660001Y-50097203D01*
X188660001Y-50097204D01*
X188660000Y-50097204D01*
X188649500Y-50199983D01*
X188649500Y-50670500D01*
X188629815Y-50737539D01*
X188577011Y-50783294D01*
X188525500Y-50794500D01*
X183636928Y-50794500D01*
X183569889Y-50774815D01*
X183524134Y-50722011D01*
X183519225Y-50709513D01*
X183484814Y-50605666D01*
X183392712Y-50456344D01*
X183268656Y-50332288D01*
X183134751Y-50249695D01*
X183119336Y-50240187D01*
X183119331Y-50240185D01*
X183117862Y-50239698D01*
X182952797Y-50185001D01*
X182952795Y-50185000D01*
X182850010Y-50174500D01*
X182249998Y-50174500D01*
X182249980Y-50174501D01*
X182147203Y-50185000D01*
X182147200Y-50185001D01*
X181980668Y-50240185D01*
X181980663Y-50240187D01*
X181831342Y-50332289D01*
X181707289Y-50456342D01*
X181615187Y-50605663D01*
X181615185Y-50605668D01*
X181607891Y-50627681D01*
X181560001Y-50772203D01*
X181560001Y-50772204D01*
X181560000Y-50772204D01*
X181553724Y-50833640D01*
X181527327Y-50898331D01*
X181497415Y-50925345D01*
X181491466Y-50929168D01*
X181491444Y-50929184D01*
X181438659Y-50974923D01*
X181344433Y-51083664D01*
X181344430Y-51083668D01*
X181284664Y-51214534D01*
X181264976Y-51281582D01*
X181262831Y-51296500D01*
X181244500Y-51424000D01*
X178573860Y-51424000D01*
X178665970Y-51331890D01*
X178758432Y-51239427D01*
X178758431Y-51239427D01*
X178758435Y-51239424D01*
X178834056Y-51126249D01*
X178886145Y-51000495D01*
X178906133Y-50900008D01*
X178911108Y-50874999D01*
X178911109Y-50874992D01*
X178912700Y-50866995D01*
X178912700Y-50136521D01*
X178932385Y-50069482D01*
X178949019Y-50048840D01*
X179885216Y-49112644D01*
X180797877Y-48199983D01*
X183099500Y-48199983D01*
X183099500Y-49400001D01*
X183099501Y-49400018D01*
X183110000Y-49502796D01*
X183110001Y-49502799D01*
X183165185Y-49669331D01*
X183165187Y-49669336D01*
X183187618Y-49705702D01*
X183257288Y-49818656D01*
X183381344Y-49942712D01*
X183530666Y-50034814D01*
X183697203Y-50089999D01*
X183799991Y-50100500D01*
X185000008Y-50100499D01*
X185102797Y-50089999D01*
X185269334Y-50034814D01*
X185418656Y-49942712D01*
X185542712Y-49818656D01*
X185634814Y-49669334D01*
X185689999Y-49502797D01*
X185700500Y-49400009D01*
X185700499Y-48199992D01*
X185696077Y-48156708D01*
X185689999Y-48097203D01*
X185689998Y-48097200D01*
X185668048Y-48030959D01*
X185634814Y-47930666D01*
X185542712Y-47781344D01*
X185418656Y-47657288D01*
X185269334Y-47565186D01*
X185102797Y-47510001D01*
X185102795Y-47510000D01*
X185000010Y-47499500D01*
X183799998Y-47499500D01*
X183799981Y-47499501D01*
X183697203Y-47510000D01*
X183697200Y-47510001D01*
X183530668Y-47565185D01*
X183530663Y-47565187D01*
X183381342Y-47657289D01*
X183257289Y-47781342D01*
X183257288Y-47781344D01*
X183165186Y-47930666D01*
X183165185Y-47930668D01*
X183161319Y-47942335D01*
X183110001Y-48097203D01*
X183110001Y-48097204D01*
X183110000Y-48097204D01*
X183099500Y-48199983D01*
X180797877Y-48199983D01*
X180858435Y-48139425D01*
X180934056Y-48026249D01*
X180986145Y-47900496D01*
X180996839Y-47846734D01*
X181009846Y-47781344D01*
X181012700Y-47766998D01*
X181012700Y-45319983D01*
X188849500Y-45319983D01*
X188849500Y-46520001D01*
X188849501Y-46520018D01*
X188860000Y-46622796D01*
X188860001Y-46622799D01*
X188885382Y-46699393D01*
X188915186Y-46789334D01*
X189007288Y-46938656D01*
X189131344Y-47062712D01*
X189280666Y-47154814D01*
X189447203Y-47209999D01*
X189549991Y-47220500D01*
X192150008Y-47220499D01*
X192252797Y-47209999D01*
X192419334Y-47154814D01*
X192568656Y-47062712D01*
X192692712Y-46938656D01*
X192784814Y-46789334D01*
X192839999Y-46622797D01*
X192850500Y-46520009D01*
X192850499Y-45319992D01*
X192839999Y-45217203D01*
X192784814Y-45050666D01*
X192692712Y-44901344D01*
X192568656Y-44777288D01*
X192419334Y-44685186D01*
X192252797Y-44630001D01*
X192252795Y-44630000D01*
X192150010Y-44619500D01*
X189549998Y-44619500D01*
X189549981Y-44619501D01*
X189447203Y-44630000D01*
X189447200Y-44630001D01*
X189280668Y-44685185D01*
X189280663Y-44685187D01*
X189131342Y-44777289D01*
X189007289Y-44901342D01*
X188915187Y-45050663D01*
X188915185Y-45050668D01*
X188904816Y-45081961D01*
X188860001Y-45217203D01*
X188860001Y-45217204D01*
X188860000Y-45217204D01*
X188849500Y-45319983D01*
X181012700Y-45319983D01*
X181012700Y-44253639D01*
X181001363Y-44196647D01*
X180986145Y-44120143D01*
X180985334Y-44118183D01*
X180934056Y-43994388D01*
X180934054Y-43994385D01*
X180934052Y-43994381D01*
X180858435Y-43881213D01*
X180858432Y-43881209D01*
X180315330Y-43338108D01*
X180281845Y-43276785D01*
X180286829Y-43207094D01*
X180328700Y-43151160D01*
X180394165Y-43126743D01*
X180403011Y-43126427D01*
X185687549Y-43126427D01*
X185687554Y-43126427D01*
X185825473Y-43107248D01*
X185890569Y-43088787D01*
X185931007Y-43070993D01*
X185954131Y-43060818D01*
X185965051Y-43056615D01*
X186040768Y-43031525D01*
X186067193Y-43025873D01*
X186069517Y-43025636D01*
X186082061Y-43025000D01*
X188925990Y-43025000D01*
X188926000Y-43025000D01*
X189033456Y-43013447D01*
X189084967Y-43002241D01*
X189119197Y-42990847D01*
X189187497Y-42968116D01*
X189187501Y-42968113D01*
X189187504Y-42968113D01*
X189308543Y-42890325D01*
X189361347Y-42844570D01*
X189455567Y-42735836D01*
X189515338Y-42604959D01*
X189515340Y-42604949D01*
X189516753Y-42601165D01*
X189558625Y-42545232D01*
X189624090Y-42520815D01*
X189632935Y-42520499D01*
X191150002Y-42520499D01*
X191150008Y-42520499D01*
X191252797Y-42509999D01*
X191419334Y-42454814D01*
X191568656Y-42362712D01*
X191692712Y-42238656D01*
X191784814Y-42089334D01*
X191839999Y-41922797D01*
X191850500Y-41820009D01*
X191850499Y-41219992D01*
X191844900Y-41165185D01*
X191839999Y-41117203D01*
X191839998Y-41117200D01*
X191835805Y-41104547D01*
X191784814Y-40950666D01*
X191692712Y-40801344D01*
X191568656Y-40677288D01*
X191568655Y-40677287D01*
X191524476Y-40650038D01*
X191477751Y-40598091D01*
X191466528Y-40529128D01*
X191494371Y-40465046D01*
X191552440Y-40426189D01*
X191589570Y-40420499D01*
X192150008Y-40420499D01*
X192252797Y-40409999D01*
X192419334Y-40354814D01*
X192568656Y-40262712D01*
X192692712Y-40138656D01*
X192784814Y-39989334D01*
X192839999Y-39822797D01*
X192850500Y-39720009D01*
X192850499Y-38519992D01*
X192839999Y-38417203D01*
X192784814Y-38250666D01*
X192692712Y-38101344D01*
X192568656Y-37977288D01*
X192419334Y-37885186D01*
X192252797Y-37830001D01*
X192252795Y-37830000D01*
X192150010Y-37819500D01*
X189549998Y-37819500D01*
X189549981Y-37819501D01*
X189447203Y-37830000D01*
X189447200Y-37830001D01*
X189280668Y-37885185D01*
X189280663Y-37885187D01*
X189131342Y-37977289D01*
X189007289Y-38101342D01*
X188915187Y-38250663D01*
X188915186Y-38250666D01*
X188860001Y-38417203D01*
X188860001Y-38417204D01*
X188860000Y-38417204D01*
X188849500Y-38519983D01*
X188849500Y-39720001D01*
X188849501Y-39720018D01*
X188860000Y-39822796D01*
X188860001Y-39822799D01*
X188900538Y-39945130D01*
X188915186Y-39989334D01*
X189003249Y-40132108D01*
X189007289Y-40138657D01*
X189022706Y-40154074D01*
X189056191Y-40215397D01*
X189051207Y-40285089D01*
X189009335Y-40341022D01*
X188943871Y-40365439D01*
X188926198Y-40365440D01*
X188926016Y-40365427D01*
X188926000Y-40365427D01*
X187229500Y-40365427D01*
X187162461Y-40345742D01*
X187116706Y-40292938D01*
X187105500Y-40241427D01*
X187105500Y-39341635D01*
X187105499Y-39341623D01*
X187089349Y-39214874D01*
X187089348Y-39214873D01*
X187089347Y-39214865D01*
X187073751Y-39154661D01*
X187073748Y-39154655D01*
X187073748Y-39154652D01*
X187026327Y-39036000D01*
X186939283Y-38921441D01*
X186939280Y-38921437D01*
X186889523Y-38872387D01*
X186889518Y-38872383D01*
X186886159Y-38869514D01*
X186886315Y-38869330D01*
X186877866Y-38862061D01*
X186765692Y-38749887D01*
X186765684Y-38749881D01*
X186626393Y-38667505D01*
X186626390Y-38667504D01*
X186470997Y-38622357D01*
X186470991Y-38622356D01*
X186434697Y-38619500D01*
X186434690Y-38619500D01*
X185965310Y-38619500D01*
X185965302Y-38619500D01*
X185929013Y-38622356D01*
X185929008Y-38622356D01*
X185929007Y-38622357D01*
X185929004Y-38622357D01*
X185929003Y-38622358D01*
X185873697Y-38638425D01*
X185806388Y-38638954D01*
X185785878Y-38633344D01*
X185785881Y-38633344D01*
X185785871Y-38633342D01*
X185785868Y-38633341D01*
X185785862Y-38633340D01*
X185652494Y-38615427D01*
X185652488Y-38615427D01*
X183703194Y-38615427D01*
X183636155Y-38595742D01*
X183590400Y-38542938D01*
X183580456Y-38473780D01*
X183609481Y-38410224D01*
X183659862Y-38375245D01*
X183692426Y-38363099D01*
X183692426Y-38363098D01*
X183692431Y-38363097D01*
X183807646Y-38276847D01*
X183893896Y-38161632D01*
X183944191Y-38026784D01*
X183950600Y-37967174D01*
X183950599Y-36372829D01*
X183944191Y-36313218D01*
X183937913Y-36296387D01*
X183893897Y-36178372D01*
X183893893Y-36178365D01*
X183807647Y-36063156D01*
X183807644Y-36063153D01*
X183692435Y-35976907D01*
X183692428Y-35976903D01*
X183557582Y-35926609D01*
X183557583Y-35926609D01*
X183497983Y-35920202D01*
X183497981Y-35920201D01*
X183497973Y-35920201D01*
X183497964Y-35920201D01*
X181802029Y-35920201D01*
X181802023Y-35920202D01*
X181742416Y-35926609D01*
X181607571Y-35976903D01*
X181607564Y-35976907D01*
X181492355Y-36063153D01*
X181492352Y-36063156D01*
X181406106Y-36178365D01*
X181406102Y-36178372D01*
X181355808Y-36313218D01*
X181349779Y-36369300D01*
X181349401Y-36372824D01*
X181349400Y-36372836D01*
X181349400Y-36974157D01*
X181329715Y-37041196D01*
X181313081Y-37061838D01*
X181138560Y-37236359D01*
X181138559Y-37236361D01*
X181078337Y-37326491D01*
X181070833Y-37337721D01*
X181067107Y-37343298D01*
X181017891Y-37462116D01*
X181017889Y-37462122D01*
X180992800Y-37588253D01*
X180992800Y-37632497D01*
X180973115Y-37699536D01*
X180956481Y-37720178D01*
X179745878Y-38930781D01*
X179684555Y-38964266D01*
X179658197Y-38967100D01*
X179329692Y-38967100D01*
X179213978Y-38990117D01*
X179189787Y-38992500D01*
X178939730Y-38992500D01*
X178939723Y-38992501D01*
X178880116Y-38998908D01*
X178745271Y-39049202D01*
X178745264Y-39049206D01*
X178630055Y-39135452D01*
X178630052Y-39135455D01*
X178543806Y-39250664D01*
X178543802Y-39250671D01*
X178496964Y-39376253D01*
X178493509Y-39385517D01*
X178487100Y-39445127D01*
X178487100Y-39445134D01*
X178487100Y-39445135D01*
X178487100Y-39794869D01*
X178487101Y-39794879D01*
X178493752Y-39856751D01*
X178493752Y-39883257D01*
X178493509Y-39885516D01*
X178493509Y-39885517D01*
X178487100Y-39945127D01*
X178487100Y-39945130D01*
X178487100Y-39945133D01*
X178487100Y-40294869D01*
X178487101Y-40294879D01*
X178493752Y-40356752D01*
X178493752Y-40383258D01*
X178493509Y-40385517D01*
X178493509Y-40385518D01*
X178487100Y-40445128D01*
X178487100Y-40445133D01*
X178487100Y-40445134D01*
X178487100Y-40794870D01*
X178487101Y-40794877D01*
X178493508Y-40854484D01*
X178543802Y-40989329D01*
X178543806Y-40989336D01*
X178630052Y-41104545D01*
X178636325Y-41110818D01*
X178635260Y-41111882D01*
X178671276Y-41159993D01*
X178676262Y-41229684D01*
X178648808Y-41284531D01*
X178594432Y-41347282D01*
X178594430Y-41347286D01*
X178534664Y-41478152D01*
X178514976Y-41545200D01*
X178494500Y-41687619D01*
X178494500Y-41785000D01*
X178474815Y-41852039D01*
X178422011Y-41897794D01*
X178370500Y-41909000D01*
X173718438Y-41909000D01*
X173651399Y-41889315D01*
X173605644Y-41836511D01*
X173595700Y-41767353D01*
X173597710Y-41758304D01*
X173597588Y-41758280D01*
X173630700Y-41591819D01*
X173630700Y-41428180D01*
X173598777Y-41267699D01*
X173598776Y-41267698D01*
X173598776Y-41267694D01*
X173536156Y-41116516D01*
X173445247Y-40980460D01*
X173445245Y-40980457D01*
X173398569Y-40933781D01*
X173365084Y-40872458D01*
X173370068Y-40802766D01*
X173411940Y-40746833D01*
X173477404Y-40722416D01*
X173486250Y-40722100D01*
X176012827Y-40722100D01*
X176056160Y-40729918D01*
X176086117Y-40741091D01*
X176086116Y-40741091D01*
X176093044Y-40741835D01*
X176145727Y-40747500D01*
X177054272Y-40747499D01*
X177113883Y-40741091D01*
X177248731Y-40690796D01*
X177363946Y-40604546D01*
X177450196Y-40489331D01*
X177500491Y-40354483D01*
X177506900Y-40294873D01*
X177506899Y-39945128D01*
X177500491Y-39885517D01*
X177495473Y-39872064D01*
X177450197Y-39750671D01*
X177450195Y-39750668D01*
X177438882Y-39735556D01*
X177408005Y-39694309D01*
X177383588Y-39628847D01*
X177398439Y-39560573D01*
X177407999Y-39545697D01*
X177450196Y-39489330D01*
X177500491Y-39354482D01*
X177506900Y-39294872D01*
X177506899Y-38945127D01*
X177500491Y-38885516D01*
X177495594Y-38872387D01*
X177450197Y-38750670D01*
X177450193Y-38750663D01*
X177363947Y-38635454D01*
X177363944Y-38635451D01*
X177248735Y-38549205D01*
X177248728Y-38549201D01*
X177113882Y-38498907D01*
X177113883Y-38498907D01*
X177054283Y-38492500D01*
X177054281Y-38492499D01*
X177054273Y-38492499D01*
X177054265Y-38492499D01*
X176875360Y-38492499D01*
X176808321Y-38472814D01*
X176787679Y-38456180D01*
X176249700Y-37918201D01*
X176249699Y-37918200D01*
X176192516Y-37885186D01*
X176192516Y-37885185D01*
X176192514Y-37885185D01*
X176112405Y-37838934D01*
X176112404Y-37838933D01*
X176039883Y-37819501D01*
X175959269Y-37797900D01*
X175959267Y-37797900D01*
X174265067Y-37797900D01*
X174198028Y-37778215D01*
X174177386Y-37761581D01*
X174165692Y-37749887D01*
X174165684Y-37749881D01*
X174026393Y-37667505D01*
X174026390Y-37667504D01*
X173870997Y-37622357D01*
X173870991Y-37622356D01*
X173834697Y-37619500D01*
X173834690Y-37619500D01*
X173365310Y-37619500D01*
X173365302Y-37619500D01*
X173329008Y-37622356D01*
X173329002Y-37622357D01*
X173173609Y-37667504D01*
X173173606Y-37667505D01*
X173034315Y-37749881D01*
X173034307Y-37749887D01*
X172919887Y-37864307D01*
X172919881Y-37864315D01*
X172837505Y-38003606D01*
X172837504Y-38003609D01*
X172792357Y-38159002D01*
X172792356Y-38159008D01*
X172789500Y-38195302D01*
X172789500Y-38307639D01*
X172780855Y-38337079D01*
X172774332Y-38367066D01*
X172770577Y-38372081D01*
X172769815Y-38374678D01*
X172753181Y-38395321D01*
X172609910Y-38538591D01*
X172548587Y-38572075D01*
X172498038Y-38572526D01*
X172481821Y-38569300D01*
X172481817Y-38569300D01*
X172318183Y-38569300D01*
X172318181Y-38569300D01*
X172157699Y-38601222D01*
X172157693Y-38601224D01*
X172006516Y-38663843D01*
X171870460Y-38754752D01*
X171870456Y-38754756D01*
X171832254Y-38792957D01*
X171770930Y-38826441D01*
X171701239Y-38821455D01*
X171681454Y-38812006D01*
X171655282Y-38796528D01*
X171639393Y-38787131D01*
X171639392Y-38787130D01*
X171639391Y-38787130D01*
X171639388Y-38787129D01*
X171485208Y-38742335D01*
X171485202Y-38742334D01*
X171449181Y-38739500D01*
X170950830Y-38739500D01*
X170950808Y-38739501D01*
X170914794Y-38742335D01*
X170760611Y-38787129D01*
X170760606Y-38787131D01*
X170622404Y-38868863D01*
X170622396Y-38868869D01*
X170508869Y-38982396D01*
X170508863Y-38982404D01*
X170427131Y-39120606D01*
X170427129Y-39120611D01*
X170382335Y-39274791D01*
X170382334Y-39274797D01*
X170379500Y-39310811D01*
X170379500Y-39310819D01*
X170379500Y-39502009D01*
X170379501Y-39585000D01*
X170359817Y-39652039D01*
X170307013Y-39697794D01*
X170255501Y-39709000D01*
X169911302Y-39709000D01*
X169777810Y-39735553D01*
X169777800Y-39735556D01*
X169652052Y-39787642D01*
X169652049Y-39787644D01*
X169538876Y-39863263D01*
X169538869Y-39863269D01*
X165141566Y-44260572D01*
X165075993Y-44358711D01*
X165065943Y-44373750D01*
X165065942Y-44373752D01*
X165013856Y-44499500D01*
X165013853Y-44499510D01*
X164987300Y-44633001D01*
X164987300Y-44633004D01*
X164987300Y-46027358D01*
X164987300Y-46027360D01*
X164987299Y-46027360D01*
X165007343Y-46128120D01*
X165007343Y-46128121D01*
X165013853Y-46160849D01*
X165013856Y-46160861D01*
X165065942Y-46286609D01*
X165065944Y-46286612D01*
X165141563Y-46399785D01*
X165141569Y-46399792D01*
X167564098Y-48822319D01*
X167597583Y-48883642D01*
X167592599Y-48953334D01*
X167550727Y-49009267D01*
X167485263Y-49033684D01*
X167476417Y-49034000D01*
X165096940Y-49034000D01*
X164963448Y-49060553D01*
X164963443Y-49060555D01*
X164905061Y-49084737D01*
X164835592Y-49092205D01*
X164773113Y-49060929D01*
X164753295Y-49037215D01*
X164686855Y-48933833D01*
X164686846Y-48933822D01*
X164641102Y-48881030D01*
X164641098Y-48881027D01*
X164641096Y-48881024D01*
X164532362Y-48786804D01*
X164532359Y-48786802D01*
X164532357Y-48786801D01*
X164401491Y-48727035D01*
X164401486Y-48727033D01*
X164401485Y-48727033D01*
X164334446Y-48707348D01*
X164334448Y-48707348D01*
X164334443Y-48707347D01*
X164272373Y-48698423D01*
X164192026Y-48686871D01*
X162524000Y-48686871D01*
X162523991Y-48686871D01*
X162523990Y-48686872D01*
X162416549Y-48698423D01*
X162416537Y-48698425D01*
X162365027Y-48709631D01*
X162262502Y-48743754D01*
X162262496Y-48743757D01*
X162141462Y-48821542D01*
X162141451Y-48821550D01*
X162088659Y-48867294D01*
X161994433Y-48976035D01*
X161994430Y-48976039D01*
X161934664Y-49106905D01*
X161914976Y-49173953D01*
X161908854Y-49216533D01*
X161894500Y-49316371D01*
X161894500Y-52068371D01*
X161894501Y-52068380D01*
X161906052Y-52175821D01*
X161906054Y-52175833D01*
X161917260Y-52227343D01*
X161951383Y-52329868D01*
X161951386Y-52329874D01*
X162029171Y-52450908D01*
X162029179Y-52450919D01*
X162074923Y-52503711D01*
X162074926Y-52503714D01*
X162074930Y-52503718D01*
X162183664Y-52597938D01*
X162183667Y-52597939D01*
X162183668Y-52597940D01*
X162313450Y-52657211D01*
X162314541Y-52657709D01*
X162381580Y-52677394D01*
X162381584Y-52677395D01*
X162524000Y-52697871D01*
X162524003Y-52697871D01*
X165065490Y-52697871D01*
X165065500Y-52697871D01*
X165172956Y-52686318D01*
X165224467Y-52675112D01*
X165327004Y-52640984D01*
X165339104Y-52633206D01*
X165406137Y-52613520D01*
X165469265Y-52630787D01*
X165573605Y-52692494D01*
X165592106Y-52697869D01*
X165729002Y-52737642D01*
X165729005Y-52737642D01*
X165729007Y-52737643D01*
X165765310Y-52740500D01*
X166053549Y-52740500D01*
X166120588Y-52760185D01*
X166166343Y-52812989D01*
X166176287Y-52882147D01*
X166175166Y-52888692D01*
X166169300Y-52918180D01*
X166169300Y-52918183D01*
X166169300Y-53081817D01*
X166169300Y-53081819D01*
X166169299Y-53081819D01*
X166201222Y-53242300D01*
X166201224Y-53242306D01*
X166263844Y-53393484D01*
X166296736Y-53442711D01*
X166354754Y-53529542D01*
X166470456Y-53645244D01*
X166470464Y-53645250D01*
X166503610Y-53667398D01*
X166548416Y-53721010D01*
X166557123Y-53790335D01*
X166526969Y-53853362D01*
X166467526Y-53890082D01*
X166434720Y-53894500D01*
X154924000Y-53894500D01*
X154923991Y-53894500D01*
X154923990Y-53894501D01*
X154816549Y-53906052D01*
X154816537Y-53906054D01*
X154765027Y-53917260D01*
X154662502Y-53951383D01*
X154662496Y-53951386D01*
X154541462Y-54029171D01*
X154541451Y-54029179D01*
X154488659Y-54074923D01*
X154394433Y-54183664D01*
X154394430Y-54183668D01*
X154334664Y-54314534D01*
X154314976Y-54381582D01*
X154309949Y-54416549D01*
X154294500Y-54524000D01*
X151305500Y-54524000D01*
X151305500Y-53524000D01*
X151293947Y-53416544D01*
X151282741Y-53365033D01*
X151282637Y-53364722D01*
X151248616Y-53262502D01*
X151248613Y-53262496D01*
X151170825Y-53141457D01*
X151169563Y-53140000D01*
X151125076Y-53088659D01*
X151125072Y-53088656D01*
X151125070Y-53088653D01*
X151016336Y-52994433D01*
X151016333Y-52994431D01*
X151016331Y-52994430D01*
X150885465Y-52934664D01*
X150885460Y-52934662D01*
X150885459Y-52934662D01*
X150840766Y-52921538D01*
X150818417Y-52914976D01*
X150770944Y-52908150D01*
X150676000Y-52894500D01*
X150675998Y-52894500D01*
X149746230Y-52894500D01*
X149679191Y-52874815D01*
X149633436Y-52822011D01*
X149623492Y-52752853D01*
X149652517Y-52689297D01*
X149658549Y-52682819D01*
X150041385Y-52299983D01*
X150431870Y-51909498D01*
X150437873Y-51899099D01*
X150488440Y-51850884D01*
X150545261Y-51837099D01*
X150825727Y-51837099D01*
X150825728Y-51837099D01*
X150885339Y-51830691D01*
X150885341Y-51830690D01*
X150885343Y-51830690D01*
X150892887Y-51828908D01*
X150893430Y-51831208D01*
X150951381Y-51827052D01*
X150959724Y-51829501D01*
X150964753Y-51830689D01*
X150964759Y-51830691D01*
X151024369Y-51837100D01*
X151475714Y-51837099D01*
X151535325Y-51830691D01*
X151535327Y-51830690D01*
X151535329Y-51830690D01*
X151542873Y-51828908D01*
X151543215Y-51830357D01*
X151583184Y-51824492D01*
X151601329Y-51825687D01*
X151614745Y-51830691D01*
X151674355Y-51837100D01*
X151774589Y-51837099D01*
X151778650Y-51837367D01*
X151807779Y-51848045D01*
X151837538Y-51856783D01*
X151840295Y-51859964D01*
X151844251Y-51861415D01*
X151862982Y-51886146D01*
X151883294Y-51909586D01*
X151884324Y-51914324D01*
X151886436Y-51917112D01*
X151887263Y-51927833D01*
X151894500Y-51961099D01*
X151894500Y-52476000D01*
X151894501Y-52476009D01*
X151906052Y-52583450D01*
X151906054Y-52583462D01*
X151917260Y-52634972D01*
X151951383Y-52737497D01*
X151951386Y-52737503D01*
X152029171Y-52858537D01*
X152029179Y-52858548D01*
X152074923Y-52911340D01*
X152074926Y-52911343D01*
X152074930Y-52911347D01*
X152183664Y-53005567D01*
X152183667Y-53005568D01*
X152183668Y-53005569D01*
X152277925Y-53048616D01*
X152314541Y-53065338D01*
X152381580Y-53085023D01*
X152381584Y-53085024D01*
X152524000Y-53105500D01*
X152524003Y-53105500D01*
X155475990Y-53105500D01*
X155476000Y-53105500D01*
X155583456Y-53093947D01*
X155634967Y-53082741D01*
X155669197Y-53071347D01*
X155737497Y-53048616D01*
X155737501Y-53048613D01*
X155737504Y-53048613D01*
X155858543Y-52970825D01*
X155911347Y-52925070D01*
X156005567Y-52816336D01*
X156065338Y-52685459D01*
X156085023Y-52618420D01*
X156085024Y-52618416D01*
X156105500Y-52476000D01*
X156105500Y-49924000D01*
X156093947Y-49816544D01*
X156082741Y-49765033D01*
X156080815Y-49759246D01*
X156048616Y-49662502D01*
X156048613Y-49662496D01*
X155995985Y-49580606D01*
X155970825Y-49541457D01*
X155970820Y-49541451D01*
X155925076Y-49488659D01*
X155925072Y-49488656D01*
X155925070Y-49488653D01*
X155816336Y-49394433D01*
X155816333Y-49394431D01*
X155816331Y-49394430D01*
X155685465Y-49334664D01*
X155685460Y-49334662D01*
X155685459Y-49334662D01*
X155623171Y-49316372D01*
X155618417Y-49314976D01*
X155556347Y-49306052D01*
X155476000Y-49294500D01*
X152702327Y-49294500D01*
X152702318Y-49294500D01*
X152594876Y-49306052D01*
X152594866Y-49306054D01*
X152543358Y-49317259D01*
X152434438Y-49353512D01*
X152432783Y-49354770D01*
X152415038Y-49358036D01*
X152398349Y-49362518D01*
X152393491Y-49362900D01*
X152324342Y-49362901D01*
X152264731Y-49369309D01*
X152252073Y-49374029D01*
X152234749Y-49375393D01*
X152216858Y-49371634D01*
X152198626Y-49372933D01*
X152190294Y-49370486D01*
X152185310Y-49369308D01*
X152125710Y-49362901D01*
X152125701Y-49362900D01*
X152125691Y-49362900D01*
X151674357Y-49362900D01*
X151674351Y-49362901D01*
X151614748Y-49369308D01*
X151607202Y-49371092D01*
X151606660Y-49368801D01*
X151548640Y-49372933D01*
X151540308Y-49370486D01*
X151535324Y-49369308D01*
X151475725Y-49362901D01*
X151475723Y-49362900D01*
X151475715Y-49362900D01*
X151475707Y-49362900D01*
X151135431Y-49362900D01*
X151105994Y-49354256D01*
X151076005Y-49347733D01*
X151070987Y-49343977D01*
X151068392Y-49343215D01*
X151047750Y-49326582D01*
X151015668Y-49294500D01*
X150969754Y-49248586D01*
X150800168Y-49079000D01*
X150800167Y-49078999D01*
X150800164Y-49078997D01*
X150758368Y-49054867D01*
X150749072Y-49049500D01*
X150662874Y-48999734D01*
X150662873Y-48999733D01*
X150574659Y-48976096D01*
X150509738Y-48958700D01*
X150509736Y-48958700D01*
X147511019Y-48958700D01*
X147443980Y-48939015D01*
X147398225Y-48886211D01*
X147393313Y-48873704D01*
X147377862Y-48827075D01*
X147377858Y-48827068D01*
X147377857Y-48827066D01*
X147286528Y-48679000D01*
X147286525Y-48678996D01*
X147163503Y-48555974D01*
X147163499Y-48555971D01*
X147015433Y-48464642D01*
X147015427Y-48464639D01*
X147015425Y-48464638D01*
X146972698Y-48450479D01*
X146915255Y-48410709D01*
X146888432Y-48346193D01*
X146900747Y-48277417D01*
X146904973Y-48269653D01*
X146922869Y-48239393D01*
X146967665Y-48085204D01*
X146970500Y-48049181D01*
X146970499Y-47550820D01*
X146967665Y-47514796D01*
X146922869Y-47360607D01*
X146841135Y-47222402D01*
X146841133Y-47222400D01*
X146841130Y-47222396D01*
X146727603Y-47108869D01*
X146727595Y-47108863D01*
X146589393Y-47027131D01*
X146589388Y-47027129D01*
X146435208Y-46982335D01*
X146435202Y-46982334D01*
X146399181Y-46979500D01*
X146000830Y-46979500D01*
X146000808Y-46979501D01*
X145964794Y-46982335D01*
X145810611Y-47027129D01*
X145810604Y-47027132D01*
X145753119Y-47061128D01*
X145685395Y-47078309D01*
X145626881Y-47061128D01*
X145569395Y-47027132D01*
X145569388Y-47027129D01*
X145415208Y-46982335D01*
X145415202Y-46982334D01*
X145379181Y-46979500D01*
X144980830Y-46979500D01*
X144980808Y-46979501D01*
X144944794Y-46982335D01*
X144790611Y-47027129D01*
X144790604Y-47027132D01*
X144724035Y-47066500D01*
X144656311Y-47083681D01*
X144599598Y-47065321D01*
X144598854Y-47066714D01*
X144593486Y-47063844D01*
X144442306Y-47001224D01*
X144442300Y-47001222D01*
X144281819Y-46969300D01*
X144281817Y-46969300D01*
X144118183Y-46969300D01*
X144118181Y-46969300D01*
X143957699Y-47001222D01*
X143957693Y-47001224D01*
X143806517Y-47063843D01*
X143670457Y-47154754D01*
X143554754Y-47270457D01*
X143463843Y-47406517D01*
X143401224Y-47557693D01*
X143401222Y-47557699D01*
X143369300Y-47718180D01*
X143369300Y-47718183D01*
X143369300Y-47881817D01*
X143369300Y-47881819D01*
X143369299Y-47881819D01*
X143401222Y-48042300D01*
X143401224Y-48042306D01*
X143459254Y-48182404D01*
X143463844Y-48193484D01*
X143482995Y-48222146D01*
X143554754Y-48329542D01*
X143670457Y-48445245D01*
X143670460Y-48445247D01*
X143806516Y-48536156D01*
X143957694Y-48598776D01*
X143957698Y-48598776D01*
X143957699Y-48598777D01*
X144118180Y-48630700D01*
X144118183Y-48630700D01*
X144281819Y-48630700D01*
X144389785Y-48609223D01*
X144442306Y-48598776D01*
X144593484Y-48536156D01*
X144593491Y-48536150D01*
X144598851Y-48533287D01*
X144599635Y-48534754D01*
X144658666Y-48516251D01*
X144724034Y-48533498D01*
X144790607Y-48572869D01*
X144790608Y-48572869D01*
X144790611Y-48572871D01*
X144944791Y-48617664D01*
X144944794Y-48617664D01*
X144944796Y-48617665D01*
X144980819Y-48620500D01*
X145379180Y-48620499D01*
X145415204Y-48617665D01*
X145415214Y-48617661D01*
X145418461Y-48617070D01*
X145420301Y-48617263D01*
X145421520Y-48617168D01*
X145421537Y-48617394D01*
X145487946Y-48624389D01*
X145542444Y-48668113D01*
X145564651Y-48734360D01*
X145547518Y-48802096D01*
X145546279Y-48804148D01*
X145532142Y-48827068D01*
X145532137Y-48827077D01*
X145477413Y-48992223D01*
X145467000Y-49094144D01*
X145467000Y-50105855D01*
X145477413Y-50207776D01*
X145532137Y-50372922D01*
X145532142Y-50372933D01*
X145623471Y-50520999D01*
X145623474Y-50521003D01*
X145746496Y-50644025D01*
X145746500Y-50644028D01*
X145875806Y-50723786D01*
X145922531Y-50775734D01*
X145933752Y-50844696D01*
X145917442Y-50892444D01*
X145877130Y-50960608D01*
X145877129Y-50960611D01*
X145832335Y-51114791D01*
X145832334Y-51114797D01*
X145829500Y-51150811D01*
X145829500Y-51296500D01*
X145809815Y-51363539D01*
X145757011Y-51409294D01*
X145705500Y-51420500D01*
X145417335Y-51420500D01*
X145385242Y-51416275D01*
X145357911Y-51408951D01*
X145316666Y-51397900D01*
X145316665Y-51397900D01*
X142395675Y-51397900D01*
X142328636Y-51378215D01*
X142307994Y-51361581D01*
X141064614Y-50118201D01*
X141064609Y-50118197D01*
X141042289Y-50105311D01*
X141042288Y-50105311D01*
X141033953Y-50100499D01*
X140927317Y-50038933D01*
X140927316Y-50038932D01*
X140927312Y-50038931D01*
X140810290Y-50007574D01*
X140750630Y-49971209D01*
X140736846Y-49952897D01*
X140717808Y-49922032D01*
X140692712Y-49881344D01*
X140568656Y-49757288D01*
X140475888Y-49700069D01*
X140419336Y-49665187D01*
X140419331Y-49665185D01*
X140395499Y-49657288D01*
X140252797Y-49610001D01*
X140252795Y-49610000D01*
X140150016Y-49599500D01*
X140150009Y-49599500D01*
X139810904Y-49599500D01*
X139743865Y-49579815D01*
X139698110Y-49527011D01*
X139688166Y-49457853D01*
X139717191Y-49394297D01*
X139747782Y-49368768D01*
X139777598Y-49351135D01*
X139891135Y-49237598D01*
X139972869Y-49099393D01*
X140017665Y-48945204D01*
X140020500Y-48909181D01*
X140020499Y-48510820D01*
X140017665Y-48474796D01*
X139972869Y-48320607D01*
X139891135Y-48182402D01*
X139891133Y-48182400D01*
X139891130Y-48182396D01*
X139777603Y-48068869D01*
X139777595Y-48068863D01*
X139639393Y-47987131D01*
X139639388Y-47987129D01*
X139485208Y-47942335D01*
X139485202Y-47942334D01*
X139449181Y-47939500D01*
X138950830Y-47939500D01*
X138950808Y-47939501D01*
X138914794Y-47942335D01*
X138760611Y-47987129D01*
X138760606Y-47987131D01*
X138622404Y-48068863D01*
X138622396Y-48068869D01*
X138508869Y-48182396D01*
X138508863Y-48182404D01*
X138427131Y-48320606D01*
X138427129Y-48320611D01*
X138382335Y-48474791D01*
X138382334Y-48474797D01*
X138379500Y-48510811D01*
X138379500Y-48909169D01*
X138379597Y-48911615D01*
X138378558Y-48911655D01*
X138364977Y-48976096D01*
X138343443Y-49005057D01*
X137785319Y-49563181D01*
X137723996Y-49596666D01*
X137697638Y-49599500D01*
X137089573Y-49599500D01*
X137022534Y-49579815D01*
X136976779Y-49527011D01*
X136966835Y-49457853D01*
X136995860Y-49394297D01*
X137024473Y-49369963D01*
X137068656Y-49342712D01*
X137192712Y-49218656D01*
X137284814Y-49069334D01*
X137339999Y-48902797D01*
X137350500Y-48800009D01*
X137350499Y-47599992D01*
X137346943Y-47565185D01*
X137339999Y-47497203D01*
X137339998Y-47497200D01*
X137325618Y-47453804D01*
X137284814Y-47330666D01*
X137192712Y-47181344D01*
X137068656Y-47057288D01*
X136960373Y-46990499D01*
X136919336Y-46965187D01*
X136919331Y-46965185D01*
X136917862Y-46964698D01*
X136752797Y-46910001D01*
X136752795Y-46910000D01*
X136650010Y-46899500D01*
X134049998Y-46899500D01*
X134049981Y-46899501D01*
X133947203Y-46910000D01*
X133947200Y-46910001D01*
X133780668Y-46965185D01*
X133780663Y-46965187D01*
X133631342Y-47057289D01*
X133507289Y-47181342D01*
X133415187Y-47330663D01*
X133415185Y-47330668D01*
X133405263Y-47360611D01*
X133360001Y-47497203D01*
X133360001Y-47497204D01*
X133360000Y-47497204D01*
X133349500Y-47599983D01*
X129900500Y-47599983D01*
X129900500Y-42459290D01*
X142194500Y-42459290D01*
X142194500Y-44911290D01*
X142194501Y-44911299D01*
X142206052Y-45018740D01*
X142206054Y-45018752D01*
X142217260Y-45070262D01*
X142251383Y-45172787D01*
X142251386Y-45172793D01*
X142329171Y-45293827D01*
X142329179Y-45293838D01*
X142374923Y-45346630D01*
X142374926Y-45346633D01*
X142374930Y-45346637D01*
X142483664Y-45440857D01*
X142483667Y-45440858D01*
X142483668Y-45440859D01*
X142606883Y-45497131D01*
X142614541Y-45500628D01*
X142681580Y-45520313D01*
X142681584Y-45520314D01*
X142824000Y-45540790D01*
X142824003Y-45540790D01*
X144576857Y-45540790D01*
X144579213Y-45540707D01*
X144612215Y-45539552D01*
X144629514Y-45538339D01*
X144629522Y-45538338D01*
X144629524Y-45538338D01*
X144631155Y-45538166D01*
X144664672Y-45534634D01*
X144802838Y-45494491D01*
X144802841Y-45494489D01*
X144802843Y-45494489D01*
X144816068Y-45488494D01*
X144863955Y-45466789D01*
X144865698Y-45466046D01*
X144866470Y-45465649D01*
X144866476Y-45465647D01*
X144866481Y-45465645D01*
X144987741Y-45388201D01*
X145082270Y-45279731D01*
X145120211Y-45221060D01*
X145180352Y-45090352D01*
X145201232Y-44947995D01*
X145201430Y-44878126D01*
X145201430Y-44878101D01*
X145199851Y-44866896D01*
X145199020Y-44859318D01*
X145195383Y-44813093D01*
X145195001Y-44803367D01*
X145195001Y-44421824D01*
X145199917Y-44387255D01*
X145200740Y-44384423D01*
X145212291Y-44357721D01*
X145212412Y-44357168D01*
X145212693Y-44356791D01*
X145213082Y-44355893D01*
X145214515Y-44353469D01*
X145233559Y-44328918D01*
X145235521Y-44326956D01*
X145260069Y-44307914D01*
X145262482Y-44306486D01*
X145291030Y-44294137D01*
X145293870Y-44293312D01*
X145328428Y-44288400D01*
X145525501Y-44288400D01*
X145592540Y-44308085D01*
X145638295Y-44360889D01*
X145649501Y-44412400D01*
X145649501Y-44828097D01*
X145652357Y-44864391D01*
X145652358Y-44864397D01*
X145697505Y-45019790D01*
X145697506Y-45019793D01*
X145697507Y-45019795D01*
X145707340Y-45036422D01*
X145779882Y-45159084D01*
X145784667Y-45165253D01*
X145784270Y-45165560D01*
X145792241Y-45175452D01*
X145868316Y-45293827D01*
X145868325Y-45293838D01*
X145914069Y-45346630D01*
X145914072Y-45346633D01*
X145914076Y-45346637D01*
X146022810Y-45440857D01*
X146022813Y-45440858D01*
X146022814Y-45440859D01*
X146146029Y-45497131D01*
X146153687Y-45500628D01*
X146220726Y-45520313D01*
X146220730Y-45520314D01*
X146363146Y-45540790D01*
X146363149Y-45540790D01*
X147197804Y-45540790D01*
X147197813Y-45540790D01*
X147205436Y-45539970D01*
X147274194Y-45552373D01*
X147325333Y-45599982D01*
X147334875Y-45619926D01*
X147378514Y-45736928D01*
X147378518Y-45736935D01*
X147464764Y-45852144D01*
X147464767Y-45852147D01*
X147579976Y-45938393D01*
X147579983Y-45938397D01*
X147614828Y-45951393D01*
X147714829Y-45988691D01*
X147774439Y-45995100D01*
X148225784Y-45995099D01*
X148285395Y-45988691D01*
X148420243Y-45938396D01*
X148535458Y-45852146D01*
X148621708Y-45736931D01*
X148672003Y-45602083D01*
X148678412Y-45542473D01*
X148678411Y-43973535D01*
X149271770Y-43973535D01*
X149271770Y-45542470D01*
X149271771Y-45542476D01*
X149278178Y-45602083D01*
X149328472Y-45736928D01*
X149328476Y-45736935D01*
X149414722Y-45852144D01*
X149414725Y-45852147D01*
X149529934Y-45938393D01*
X149529941Y-45938397D01*
X149564786Y-45951393D01*
X149664787Y-45988691D01*
X149724397Y-45995100D01*
X150175742Y-45995099D01*
X150235353Y-45988691D01*
X150235355Y-45988690D01*
X150235357Y-45988690D01*
X150242901Y-45986908D01*
X150243444Y-45989208D01*
X150301395Y-45985052D01*
X150309738Y-45987501D01*
X150314767Y-45988689D01*
X150314773Y-45988691D01*
X150374383Y-45995100D01*
X150825728Y-45995099D01*
X150885339Y-45988691D01*
X150885341Y-45988690D01*
X150885343Y-45988690D01*
X150892887Y-45986908D01*
X150893430Y-45989208D01*
X150951381Y-45985052D01*
X150959724Y-45987501D01*
X150964753Y-45988689D01*
X150964759Y-45988691D01*
X151024369Y-45995100D01*
X151475714Y-45995099D01*
X151475716Y-45995098D01*
X151475729Y-45995098D01*
X151509647Y-45991451D01*
X151524578Y-45989846D01*
X151593338Y-46002251D01*
X151619033Y-46019420D01*
X151709911Y-46098167D01*
X151709914Y-46098168D01*
X151709915Y-46098169D01*
X151789681Y-46134598D01*
X151840788Y-46157938D01*
X151907827Y-46177623D01*
X151907831Y-46177624D01*
X152050247Y-46198100D01*
X152362471Y-46198100D01*
X152429510Y-46217785D01*
X152446960Y-46231339D01*
X152464392Y-46247568D01*
X152467324Y-46250298D01*
X152467326Y-46250299D01*
X152527856Y-46297320D01*
X152538473Y-46305567D01*
X152669350Y-46365338D01*
X152736389Y-46385023D01*
X152736393Y-46385024D01*
X152878809Y-46405500D01*
X152878812Y-46405500D01*
X154712836Y-46405500D01*
X154717746Y-46405236D01*
X154766870Y-46402604D01*
X154793230Y-46399770D01*
X154822769Y-46394982D01*
X154846652Y-46391113D01*
X154846653Y-46391112D01*
X154846656Y-46391112D01*
X154981464Y-46340828D01*
X155039424Y-46309177D01*
X155107696Y-46294325D01*
X155122685Y-46297008D01*
X155122777Y-46296505D01*
X155129005Y-46297642D01*
X155129007Y-46297643D01*
X155165310Y-46300500D01*
X155165318Y-46300500D01*
X155634682Y-46300500D01*
X155634690Y-46300500D01*
X155670993Y-46297643D01*
X155670997Y-46297641D01*
X155674428Y-46297016D01*
X155676367Y-46297220D01*
X155677310Y-46297146D01*
X155677323Y-46297320D01*
X155743914Y-46304333D01*
X155748196Y-46306190D01*
X155877707Y-46365338D01*
X155944746Y-46385023D01*
X155944750Y-46385024D01*
X156087166Y-46405500D01*
X156087169Y-46405500D01*
X158839270Y-46405500D01*
X158839280Y-46405500D01*
X158946736Y-46393947D01*
X158998247Y-46382741D01*
X159032477Y-46371347D01*
X159100777Y-46348616D01*
X159100781Y-46348613D01*
X159100784Y-46348613D01*
X159221823Y-46270825D01*
X159274627Y-46225070D01*
X159368847Y-46116336D01*
X159428618Y-45985459D01*
X159448303Y-45918420D01*
X159448304Y-45918416D01*
X159468780Y-45776000D01*
X159468780Y-42324000D01*
X159457227Y-42216544D01*
X159446021Y-42165033D01*
X159430995Y-42119887D01*
X159411896Y-42062502D01*
X159411893Y-42062496D01*
X159348894Y-41964469D01*
X159334105Y-41941457D01*
X159334100Y-41941451D01*
X159288356Y-41888659D01*
X159288352Y-41888656D01*
X159288350Y-41888653D01*
X159179616Y-41794433D01*
X159179613Y-41794431D01*
X159179611Y-41794430D01*
X159048745Y-41734664D01*
X159048740Y-41734662D01*
X159048739Y-41734662D01*
X158981700Y-41714977D01*
X158981702Y-41714977D01*
X158981697Y-41714976D01*
X158919627Y-41706052D01*
X158839280Y-41694500D01*
X151887280Y-41694500D01*
X151887271Y-41694500D01*
X151887270Y-41694501D01*
X151779829Y-41706052D01*
X151779817Y-41706054D01*
X151728307Y-41717260D01*
X151625782Y-41751383D01*
X151625776Y-41751386D01*
X151504742Y-41829171D01*
X151504731Y-41829179D01*
X151451939Y-41874923D01*
X151357713Y-41983664D01*
X151357710Y-41983668D01*
X151297944Y-42114534D01*
X151278256Y-42181582D01*
X151267008Y-42259816D01*
X151237983Y-42323372D01*
X151179205Y-42361146D01*
X151168463Y-42363786D01*
X151126216Y-42372189D01*
X151126211Y-42372191D01*
X151007393Y-42421407D01*
X150900453Y-42492861D01*
X150900452Y-42492862D01*
X150092919Y-43300394D01*
X150092918Y-43300395D01*
X150067720Y-43338108D01*
X150026360Y-43400008D01*
X150026359Y-43400010D01*
X150026358Y-43400009D01*
X150021465Y-43407333D01*
X150006129Y-43444356D01*
X149962286Y-43498758D01*
X149895992Y-43520821D01*
X149891570Y-43520900D01*
X149724400Y-43520900D01*
X149724393Y-43520901D01*
X149664786Y-43527308D01*
X149529941Y-43577602D01*
X149529934Y-43577606D01*
X149414725Y-43663852D01*
X149414722Y-43663855D01*
X149328476Y-43779064D01*
X149328472Y-43779071D01*
X149278178Y-43913917D01*
X149271771Y-43973516D01*
X149271770Y-43973535D01*
X148678411Y-43973535D01*
X148678411Y-43973528D01*
X148672003Y-43913917D01*
X148649718Y-43854169D01*
X148621247Y-43777833D01*
X148616263Y-43708142D01*
X148649748Y-43646818D01*
X148711071Y-43613334D01*
X148737429Y-43610500D01*
X148804682Y-43610500D01*
X148804690Y-43610500D01*
X148840993Y-43607643D01*
X148840995Y-43607642D01*
X148840997Y-43607642D01*
X148881975Y-43595736D01*
X148996395Y-43562494D01*
X149135687Y-43480117D01*
X149250117Y-43365687D01*
X149332494Y-43226395D01*
X149377643Y-43070993D01*
X149380500Y-43034690D01*
X149380500Y-42565310D01*
X149377643Y-42529007D01*
X149375171Y-42520499D01*
X149332495Y-42373609D01*
X149332494Y-42373606D01*
X149332494Y-42373605D01*
X149250117Y-42234313D01*
X149250115Y-42234311D01*
X149250112Y-42234307D01*
X149135692Y-42119887D01*
X149135684Y-42119881D01*
X148996393Y-42037505D01*
X148996390Y-42037504D01*
X148840997Y-41992357D01*
X148840991Y-41992356D01*
X148804697Y-41989500D01*
X148804690Y-41989500D01*
X148395310Y-41989500D01*
X148395302Y-41989500D01*
X148359008Y-41992356D01*
X148225077Y-42031267D01*
X148155208Y-42031067D01*
X148113012Y-42009011D01*
X148104177Y-42001942D01*
X148088246Y-41983555D01*
X148052423Y-41960530D01*
X148047398Y-41956510D01*
X148046936Y-41955850D01*
X148043667Y-41953403D01*
X148029873Y-41941451D01*
X148016348Y-41929731D01*
X148016346Y-41929730D01*
X148016343Y-41929728D01*
X147983463Y-41914710D01*
X147971630Y-41908515D01*
X147969764Y-41907406D01*
X147967209Y-41905764D01*
X147966313Y-41905354D01*
X147966305Y-41905350D01*
X147961176Y-41903008D01*
X147961175Y-41903007D01*
X147915102Y-41881965D01*
X147915056Y-41881946D01*
X147903628Y-41876728D01*
X147897251Y-41874855D01*
X147891870Y-41872712D01*
X147891128Y-41872130D01*
X147886247Y-41870310D01*
X147885472Y-41869956D01*
X147876393Y-41867289D01*
X147867625Y-41864714D01*
X147861236Y-41862838D01*
X147860120Y-41862511D01*
X147860119Y-41862511D01*
X147857663Y-41861790D01*
X147857656Y-41861788D01*
X147818429Y-41850268D01*
X147814104Y-41849328D01*
X147814171Y-41849017D01*
X147810852Y-41848043D01*
X147811321Y-41846442D01*
X147756718Y-41821476D01*
X147718970Y-41762681D01*
X147719002Y-41692812D01*
X147756803Y-41634050D01*
X147772852Y-41622271D01*
X147830391Y-41586781D01*
X147949281Y-41467891D01*
X148037549Y-41324787D01*
X148090436Y-41165185D01*
X148100500Y-41066674D01*
X148100500Y-40533326D01*
X148090436Y-40434815D01*
X148037549Y-40275213D01*
X148037545Y-40275207D01*
X148037544Y-40275204D01*
X147949283Y-40132112D01*
X147949280Y-40132108D01*
X147830391Y-40013219D01*
X147830387Y-40013216D01*
X147687295Y-39924955D01*
X147687289Y-39924952D01*
X147687287Y-39924951D01*
X147527685Y-39872064D01*
X147527683Y-39872063D01*
X147429181Y-39862000D01*
X147429174Y-39862000D01*
X147376901Y-39862000D01*
X147309862Y-39842315D01*
X147264107Y-39789511D01*
X147252901Y-39738000D01*
X147252901Y-39135692D01*
X147252900Y-39135690D01*
X147229883Y-39019973D01*
X147227500Y-38995782D01*
X147227500Y-38796529D01*
X147227499Y-38796523D01*
X147227498Y-38796516D01*
X147221092Y-38736917D01*
X147195203Y-38667506D01*
X147170798Y-38602071D01*
X147170794Y-38602064D01*
X147084548Y-38486855D01*
X147084545Y-38486852D01*
X146969336Y-38400606D01*
X146969329Y-38400602D01*
X146834487Y-38350310D01*
X146834486Y-38350309D01*
X146834484Y-38350309D01*
X146774874Y-38343900D01*
X146774864Y-38343900D01*
X146425131Y-38343900D01*
X146425124Y-38343901D01*
X146365517Y-38350308D01*
X146230672Y-38400602D01*
X146230670Y-38400603D01*
X146174310Y-38442794D01*
X146108845Y-38467210D01*
X146040572Y-38452358D01*
X146025690Y-38442793D01*
X145969334Y-38400606D01*
X145969328Y-38400602D01*
X145834486Y-38350310D01*
X145834485Y-38350309D01*
X145834483Y-38350309D01*
X145774873Y-38343900D01*
X145774863Y-38343900D01*
X145425130Y-38343900D01*
X145425120Y-38343901D01*
X145363249Y-38350552D01*
X145350708Y-38348289D01*
X145336743Y-38350552D01*
X145334484Y-38350309D01*
X145274874Y-38343900D01*
X145274866Y-38343900D01*
X144925131Y-38343900D01*
X144925121Y-38343901D01*
X144863248Y-38350552D01*
X144850708Y-38348289D01*
X144836742Y-38350552D01*
X144834482Y-38350309D01*
X144774872Y-38343900D01*
X144774864Y-38343900D01*
X144425129Y-38343900D01*
X144425122Y-38343901D01*
X144365515Y-38350308D01*
X144230670Y-38400602D01*
X144230663Y-38400606D01*
X144115454Y-38486852D01*
X144115451Y-38486855D01*
X144029205Y-38602064D01*
X144029201Y-38602071D01*
X143978907Y-38736917D01*
X143973509Y-38787129D01*
X143972500Y-38796523D01*
X143972499Y-38796535D01*
X143972499Y-38995787D01*
X143970116Y-39019978D01*
X143947099Y-39135690D01*
X143947099Y-39825947D01*
X143927414Y-39892986D01*
X143908797Y-39913334D01*
X143909829Y-39914366D01*
X143789887Y-40034307D01*
X143789881Y-40034315D01*
X143707505Y-40173606D01*
X143707504Y-40173609D01*
X143662357Y-40329002D01*
X143662356Y-40329008D01*
X143659500Y-40365302D01*
X143659500Y-40834697D01*
X143662356Y-40870991D01*
X143662357Y-40870997D01*
X143707504Y-41026390D01*
X143707505Y-41026393D01*
X143789881Y-41165684D01*
X143789887Y-41165692D01*
X143904307Y-41280112D01*
X143904311Y-41280115D01*
X143904313Y-41280117D01*
X144043605Y-41362494D01*
X144084587Y-41374400D01*
X144199002Y-41407642D01*
X144199005Y-41407642D01*
X144199007Y-41407643D01*
X144235310Y-41410500D01*
X144235318Y-41410500D01*
X144644682Y-41410500D01*
X144644690Y-41410500D01*
X144680993Y-41407643D01*
X144680995Y-41407642D01*
X144680997Y-41407642D01*
X144721975Y-41395736D01*
X144836395Y-41362494D01*
X144975687Y-41280117D01*
X145090117Y-41165687D01*
X145172494Y-41026395D01*
X145205736Y-40911975D01*
X145217642Y-40870997D01*
X145217643Y-40870991D01*
X145220499Y-40834697D01*
X145220500Y-40834690D01*
X145220500Y-40672752D01*
X145227669Y-40636766D01*
X145226040Y-40636272D01*
X145227804Y-40630452D01*
X145227808Y-40630445D01*
X145236811Y-40585186D01*
X145252899Y-40504308D01*
X145252899Y-40175629D01*
X145272584Y-40108590D01*
X145325388Y-40062835D01*
X145390150Y-40052339D01*
X145425127Y-40056100D01*
X145774872Y-40056099D01*
X145809848Y-40052339D01*
X145825253Y-40055118D01*
X145840748Y-40052891D01*
X145858931Y-40061195D01*
X145878606Y-40064745D01*
X145890063Y-40075412D01*
X145904304Y-40081916D01*
X145915112Y-40098734D01*
X145929743Y-40112356D01*
X145934120Y-40128311D01*
X145942078Y-40140694D01*
X145947101Y-40175629D01*
X145947101Y-40301526D01*
X145940807Y-40340530D01*
X145909564Y-40434815D01*
X145909563Y-40434816D01*
X145899500Y-40533318D01*
X145899500Y-41066681D01*
X145909563Y-41165183D01*
X145962450Y-41324784D01*
X145962455Y-41324795D01*
X146050716Y-41467887D01*
X146050719Y-41467891D01*
X146169609Y-41586781D01*
X146191449Y-41600252D01*
X146238173Y-41652199D01*
X146249394Y-41721162D01*
X146221551Y-41785244D01*
X146163482Y-41824100D01*
X146126351Y-41829790D01*
X145820240Y-41829790D01*
X145798693Y-41831912D01*
X145721625Y-41839502D01*
X145674174Y-41848941D01*
X145674172Y-41848941D01*
X145669811Y-41850264D01*
X145579341Y-41877708D01*
X145579339Y-41877709D01*
X145579336Y-41877710D01*
X145506135Y-41908029D01*
X145482881Y-41915083D01*
X145444012Y-41922816D01*
X145419816Y-41925200D01*
X145380186Y-41925200D01*
X145355996Y-41922817D01*
X145331528Y-41917950D01*
X145317116Y-41915083D01*
X145293858Y-41908027D01*
X145220667Y-41877711D01*
X145220664Y-41877710D01*
X145220659Y-41877708D01*
X145125831Y-41848942D01*
X145125529Y-41848882D01*
X145078374Y-41839502D01*
X145003948Y-41832172D01*
X144979760Y-41829790D01*
X142824000Y-41829790D01*
X142823991Y-41829790D01*
X142823990Y-41829791D01*
X142716549Y-41841342D01*
X142716537Y-41841344D01*
X142665027Y-41852550D01*
X142562502Y-41886673D01*
X142562496Y-41886676D01*
X142441462Y-41964461D01*
X142441451Y-41964469D01*
X142388659Y-42010213D01*
X142294433Y-42118954D01*
X142294430Y-42118958D01*
X142234664Y-42249824D01*
X142214976Y-42316872D01*
X142208231Y-42363786D01*
X142194500Y-42459290D01*
X129900500Y-42459290D01*
X129900500Y-37281819D01*
X141769299Y-37281819D01*
X141801222Y-37442300D01*
X141801224Y-37442306D01*
X141863844Y-37593484D01*
X141905938Y-37656483D01*
X141954754Y-37729542D01*
X142070457Y-37845245D01*
X142070460Y-37845247D01*
X142206516Y-37936156D01*
X142357694Y-37998776D01*
X142357698Y-37998776D01*
X142357699Y-37998777D01*
X142518180Y-38030700D01*
X142518183Y-38030700D01*
X142681819Y-38030700D01*
X142818009Y-38003609D01*
X142842306Y-37998776D01*
X142993484Y-37936156D01*
X143086810Y-37873797D01*
X143153487Y-37852920D01*
X143155700Y-37852900D01*
X144013224Y-37852900D01*
X144080263Y-37872585D01*
X144112487Y-37902584D01*
X144115453Y-37906546D01*
X144230668Y-37992796D01*
X144230669Y-37992796D01*
X144230670Y-37992797D01*
X144259648Y-38003605D01*
X144365516Y-38043091D01*
X144425126Y-38049500D01*
X144774871Y-38049499D01*
X144834482Y-38043091D01*
X144834483Y-38043090D01*
X144836749Y-38042847D01*
X144863259Y-38042848D01*
X144865517Y-38043090D01*
X144865518Y-38043091D01*
X144925128Y-38049500D01*
X145274873Y-38049499D01*
X145334484Y-38043091D01*
X145334487Y-38043089D01*
X145336744Y-38042847D01*
X145363254Y-38042847D01*
X145365514Y-38043089D01*
X145365517Y-38043091D01*
X145425127Y-38049500D01*
X145774872Y-38049499D01*
X145834483Y-38043091D01*
X145834486Y-38043089D01*
X145836743Y-38042847D01*
X145863253Y-38042847D01*
X145865513Y-38043089D01*
X145865516Y-38043091D01*
X145925126Y-38049500D01*
X146274871Y-38049499D01*
X146334482Y-38043091D01*
X146469330Y-37992796D01*
X146584545Y-37906546D01*
X146670795Y-37791331D01*
X146721090Y-37656483D01*
X146727499Y-37596873D01*
X146727498Y-37397615D01*
X146729881Y-37373423D01*
X146752899Y-37257707D01*
X146752899Y-36035204D01*
X146772584Y-35968165D01*
X146789218Y-35947523D01*
X147046522Y-35690219D01*
X147107845Y-35656734D01*
X147134203Y-35653900D01*
X147174683Y-35653900D01*
X147174691Y-35653900D01*
X147210994Y-35651043D01*
X147210996Y-35651042D01*
X147210998Y-35651042D01*
X147313482Y-35621267D01*
X147366396Y-35605894D01*
X147505688Y-35523517D01*
X147620118Y-35409087D01*
X147702495Y-35269795D01*
X147747644Y-35114393D01*
X147750501Y-35078090D01*
X147750501Y-34608710D01*
X147747644Y-34572407D01*
X147744910Y-34562997D01*
X147702496Y-34417009D01*
X147702495Y-34417005D01*
X147688473Y-34393295D01*
X147640169Y-34311615D01*
X147635819Y-34295715D01*
X147627924Y-34283430D01*
X147622901Y-34248495D01*
X147622901Y-34200598D01*
X147642586Y-34133559D01*
X147643799Y-34131708D01*
X147736155Y-33993486D01*
X147740652Y-33982629D01*
X147798776Y-33842306D01*
X147830700Y-33681817D01*
X147830700Y-33518183D01*
X147830700Y-33518180D01*
X147798777Y-33357699D01*
X147798776Y-33357698D01*
X147798776Y-33357694D01*
X147798774Y-33357689D01*
X147778675Y-33309164D01*
X147760459Y-33265186D01*
X153199500Y-33265186D01*
X153199500Y-33534813D01*
X153229686Y-33802719D01*
X153229688Y-33802731D01*
X153289684Y-34065594D01*
X153289687Y-34065602D01*
X153378734Y-34320082D01*
X153495714Y-34562994D01*
X153524444Y-34608717D01*
X153639162Y-34791289D01*
X153807266Y-35002085D01*
X153997915Y-35192734D01*
X154208711Y-35360838D01*
X154437003Y-35504284D01*
X154679921Y-35621267D01*
X154871049Y-35688145D01*
X154934397Y-35710312D01*
X154934405Y-35710315D01*
X154934408Y-35710315D01*
X154934409Y-35710316D01*
X155197268Y-35770312D01*
X155465187Y-35800499D01*
X155465188Y-35800500D01*
X155465191Y-35800500D01*
X155734812Y-35800500D01*
X155734812Y-35800499D01*
X156002732Y-35770312D01*
X156265591Y-35710316D01*
X156520079Y-35621267D01*
X156762997Y-35504284D01*
X156991289Y-35360838D01*
X157202085Y-35192734D01*
X157392734Y-35002085D01*
X157560838Y-34791289D01*
X157704284Y-34562997D01*
X157821267Y-34320079D01*
X157910316Y-34065591D01*
X157970312Y-33802732D01*
X158000500Y-33534809D01*
X158000500Y-33265191D01*
X158000499Y-33265186D01*
X159599500Y-33265186D01*
X159599500Y-33534813D01*
X159629686Y-33802719D01*
X159629688Y-33802731D01*
X159689684Y-34065594D01*
X159689687Y-34065602D01*
X159778734Y-34320082D01*
X159895714Y-34562994D01*
X159924444Y-34608717D01*
X160039162Y-34791289D01*
X160207266Y-35002085D01*
X160397915Y-35192734D01*
X160608711Y-35360838D01*
X160837003Y-35504284D01*
X161079921Y-35621267D01*
X161271049Y-35688145D01*
X161334397Y-35710312D01*
X161334405Y-35710315D01*
X161334408Y-35710315D01*
X161334409Y-35710316D01*
X161597268Y-35770312D01*
X161865187Y-35800499D01*
X161865188Y-35800500D01*
X161865191Y-35800500D01*
X162134812Y-35800500D01*
X162134812Y-35800499D01*
X162402732Y-35770312D01*
X162665591Y-35710316D01*
X162920079Y-35621267D01*
X163162997Y-35504284D01*
X163391289Y-35360838D01*
X163602085Y-35192734D01*
X163792734Y-35002085D01*
X163960838Y-34791289D01*
X164104284Y-34562997D01*
X164221267Y-34320079D01*
X164310316Y-34065591D01*
X164370312Y-33802732D01*
X164400500Y-33534809D01*
X164400500Y-33265191D01*
X164370312Y-32997268D01*
X164310316Y-32734409D01*
X164221267Y-32479921D01*
X164104284Y-32237003D01*
X163960838Y-32008711D01*
X163792734Y-31797915D01*
X163602085Y-31607266D01*
X163391289Y-31439162D01*
X163162997Y-31295716D01*
X163162994Y-31295714D01*
X162920082Y-31178734D01*
X162665602Y-31089687D01*
X162665594Y-31089684D01*
X162468446Y-31044687D01*
X162402732Y-31029688D01*
X162402728Y-31029687D01*
X162402719Y-31029686D01*
X162134813Y-30999500D01*
X162134809Y-30999500D01*
X161865191Y-30999500D01*
X161865186Y-30999500D01*
X161597280Y-31029686D01*
X161597268Y-31029688D01*
X161334405Y-31089684D01*
X161334397Y-31089687D01*
X161079917Y-31178734D01*
X160837005Y-31295714D01*
X160608712Y-31439161D01*
X160397915Y-31607265D01*
X160207265Y-31797915D01*
X160039161Y-32008712D01*
X159895714Y-32237005D01*
X159778734Y-32479917D01*
X159689687Y-32734397D01*
X159689684Y-32734405D01*
X159629688Y-32997268D01*
X159629686Y-32997280D01*
X159599500Y-33265186D01*
X158000499Y-33265186D01*
X157970312Y-32997268D01*
X157910316Y-32734409D01*
X157821267Y-32479921D01*
X157704284Y-32237003D01*
X157560838Y-32008711D01*
X157392734Y-31797915D01*
X157202085Y-31607266D01*
X156991289Y-31439162D01*
X156762997Y-31295716D01*
X156762994Y-31295714D01*
X156520082Y-31178734D01*
X156265602Y-31089687D01*
X156265594Y-31089684D01*
X156068446Y-31044687D01*
X156002732Y-31029688D01*
X156002728Y-31029687D01*
X156002719Y-31029686D01*
X155734813Y-30999500D01*
X155734809Y-30999500D01*
X155465191Y-30999500D01*
X155465186Y-30999500D01*
X155197280Y-31029686D01*
X155197268Y-31029688D01*
X154934405Y-31089684D01*
X154934397Y-31089687D01*
X154679917Y-31178734D01*
X154437005Y-31295714D01*
X154208712Y-31439161D01*
X153997915Y-31607265D01*
X153807265Y-31797915D01*
X153639161Y-32008712D01*
X153495714Y-32237005D01*
X153378734Y-32479917D01*
X153289687Y-32734397D01*
X153289684Y-32734405D01*
X153229688Y-32997268D01*
X153229686Y-32997280D01*
X153199500Y-33265186D01*
X147760459Y-33265186D01*
X147736157Y-33206517D01*
X147645245Y-33070457D01*
X147529542Y-32954754D01*
X147461512Y-32909298D01*
X147393484Y-32863844D01*
X147265074Y-32810655D01*
X147242306Y-32801224D01*
X147242300Y-32801222D01*
X147081819Y-32769300D01*
X147081817Y-32769300D01*
X146918183Y-32769300D01*
X146918181Y-32769300D01*
X146757699Y-32801222D01*
X146757693Y-32801224D01*
X146606517Y-32863843D01*
X146470457Y-32954754D01*
X146354754Y-33070457D01*
X146263843Y-33206517D01*
X146201224Y-33357693D01*
X146201222Y-33357699D01*
X146169300Y-33518180D01*
X146169300Y-33518183D01*
X146169300Y-33681817D01*
X146169300Y-33681819D01*
X146169299Y-33681819D01*
X146201222Y-33842300D01*
X146201224Y-33842306D01*
X146263843Y-33993483D01*
X146263844Y-33993484D01*
X146296203Y-34041913D01*
X146301853Y-34059958D01*
X146312078Y-34075868D01*
X146316529Y-34106827D01*
X146317081Y-34108589D01*
X146317101Y-34110803D01*
X146317101Y-34248495D01*
X146299833Y-34311615D01*
X146237508Y-34417002D01*
X146237505Y-34417009D01*
X146192358Y-34572402D01*
X146192357Y-34572408D01*
X146189501Y-34608702D01*
X146189501Y-34649196D01*
X146169816Y-34716235D01*
X146153182Y-34736877D01*
X145782516Y-35107542D01*
X145774489Y-35111924D01*
X145768997Y-35119239D01*
X145744306Y-35128405D01*
X145721193Y-35141027D01*
X145712070Y-35140374D01*
X145703496Y-35143558D01*
X145677771Y-35137921D01*
X145651501Y-35136043D01*
X145642370Y-35130165D01*
X145635245Y-35128604D01*
X145618952Y-35115090D01*
X145607023Y-35107411D01*
X145601971Y-35102344D01*
X145601340Y-35101399D01*
X145497108Y-34997167D01*
X145496689Y-34996746D01*
X145479887Y-34965868D01*
X145463335Y-34935553D01*
X145463320Y-34935420D01*
X145463295Y-34935373D01*
X145463303Y-34935258D01*
X145460501Y-34909196D01*
X145460501Y-34868717D01*
X145460500Y-34868702D01*
X145457644Y-34832408D01*
X145457643Y-34832402D01*
X145424401Y-34717987D01*
X145412495Y-34677005D01*
X145330118Y-34537713D01*
X145330116Y-34537711D01*
X145330113Y-34537707D01*
X145215693Y-34423287D01*
X145215685Y-34423281D01*
X145076394Y-34340905D01*
X145076391Y-34340904D01*
X144920998Y-34295757D01*
X144920992Y-34295756D01*
X144884698Y-34292900D01*
X144884691Y-34292900D01*
X144415311Y-34292900D01*
X144415303Y-34292900D01*
X144379009Y-34295756D01*
X144379003Y-34295757D01*
X144223610Y-34340904D01*
X144223607Y-34340905D01*
X144084316Y-34423281D01*
X144084308Y-34423287D01*
X143969888Y-34537707D01*
X143969882Y-34537715D01*
X143887506Y-34677006D01*
X143887505Y-34677009D01*
X143842358Y-34832402D01*
X143842357Y-34832408D01*
X143839501Y-34868702D01*
X143839501Y-35278097D01*
X143842357Y-35314391D01*
X143842358Y-35314397D01*
X143887505Y-35469790D01*
X143887506Y-35469793D01*
X143969882Y-35609084D01*
X143969888Y-35609092D01*
X144084308Y-35723512D01*
X144084312Y-35723515D01*
X144084314Y-35723517D01*
X144223606Y-35805894D01*
X144290281Y-35825265D01*
X144351895Y-35843166D01*
X144410781Y-35880772D01*
X144439987Y-35944244D01*
X144441300Y-35962242D01*
X144441300Y-36229348D01*
X144421615Y-36296387D01*
X144368811Y-36342142D01*
X144360633Y-36345530D01*
X144230670Y-36394002D01*
X144230663Y-36394006D01*
X144115455Y-36480252D01*
X144115454Y-36480253D01*
X144115453Y-36480254D01*
X144102608Y-36497412D01*
X144046676Y-36539282D01*
X144003343Y-36547100D01*
X143155700Y-36547100D01*
X143088661Y-36527415D01*
X143086848Y-36526227D01*
X143029659Y-36488015D01*
X142993483Y-36463843D01*
X142842306Y-36401224D01*
X142842300Y-36401222D01*
X142681819Y-36369300D01*
X142681817Y-36369300D01*
X142518183Y-36369300D01*
X142518181Y-36369300D01*
X142357699Y-36401222D01*
X142357693Y-36401224D01*
X142206517Y-36463843D01*
X142070457Y-36554754D01*
X141954754Y-36670457D01*
X141863843Y-36806517D01*
X141801224Y-36957693D01*
X141801222Y-36957699D01*
X141769300Y-37118180D01*
X141769300Y-37118183D01*
X141769300Y-37281817D01*
X141769300Y-37281819D01*
X141769299Y-37281819D01*
X129900500Y-37281819D01*
X129900500Y-33740264D01*
X129920185Y-33673225D01*
X129972989Y-33627470D01*
X130042147Y-33617526D01*
X130105703Y-33646551D01*
X130122876Y-33664778D01*
X130217370Y-33787926D01*
X130217376Y-33787933D01*
X130412066Y-33982623D01*
X130412073Y-33982629D01*
X130426220Y-33993484D01*
X130630521Y-34150249D01*
X130783778Y-34238732D01*
X130868971Y-34287919D01*
X130868976Y-34287921D01*
X130868979Y-34287923D01*
X131123368Y-34393295D01*
X131389334Y-34464560D01*
X131662326Y-34500500D01*
X131662333Y-34500500D01*
X131937667Y-34500500D01*
X131937674Y-34500500D01*
X132210666Y-34464560D01*
X132476632Y-34393295D01*
X132731021Y-34287923D01*
X132969479Y-34150249D01*
X133187928Y-33982628D01*
X133382628Y-33787928D01*
X133550249Y-33569479D01*
X133687923Y-33331021D01*
X133793295Y-33076632D01*
X133864560Y-32810666D01*
X133900500Y-32537674D01*
X133900500Y-32262326D01*
X133864560Y-31989334D01*
X133793295Y-31723368D01*
X133687923Y-31468979D01*
X133687921Y-31468976D01*
X133687919Y-31468971D01*
X133617077Y-31346271D01*
X133550249Y-31230521D01*
X133442184Y-31089687D01*
X133382629Y-31012073D01*
X133382623Y-31012066D01*
X133187933Y-30817376D01*
X133187926Y-30817370D01*
X133064778Y-30722876D01*
X133023575Y-30666448D01*
X133019420Y-30596702D01*
X133053632Y-30535782D01*
X133115349Y-30503029D01*
X133140264Y-30500500D01*
X190259736Y-30500500D01*
X190326775Y-30520185D01*
G37*
%TD.AperFunction*%
%TD*%
%TA.AperFunction,Conductor*%
%TO.N,3V3*%
G36*
X181742139Y-39140612D02*
G01*
X181787894Y-39193416D01*
X181799100Y-39244927D01*
X181799100Y-40332301D01*
X183500900Y-40332301D01*
X183500900Y-39244927D01*
X183520585Y-39177888D01*
X183573389Y-39132133D01*
X183624900Y-39120927D01*
X185652488Y-39120927D01*
X185715608Y-39138194D01*
X185773605Y-39172494D01*
X185792171Y-39177888D01*
X185929002Y-39217642D01*
X185929005Y-39217642D01*
X185929007Y-39217643D01*
X185965310Y-39220500D01*
X185965318Y-39220500D01*
X186434682Y-39220500D01*
X186434690Y-39220500D01*
X186466272Y-39218014D01*
X186534647Y-39232378D01*
X186584404Y-39281428D01*
X186600000Y-39341632D01*
X186600000Y-40870927D01*
X188926000Y-40870927D01*
X188993039Y-40890612D01*
X189038794Y-40943416D01*
X189050000Y-40994927D01*
X189050000Y-42395500D01*
X189030315Y-42462539D01*
X188977511Y-42508294D01*
X188926000Y-42519500D01*
X186049998Y-42519500D01*
X186049981Y-42519501D01*
X185947203Y-42530000D01*
X185947200Y-42530001D01*
X185780668Y-42585185D01*
X185780659Y-42585189D01*
X185752650Y-42602466D01*
X185687554Y-42620927D01*
X179649511Y-42620927D01*
X179582472Y-42601242D01*
X179561830Y-42584608D01*
X179036319Y-42059096D01*
X179002834Y-41997773D01*
X179000000Y-41971415D01*
X179000000Y-41687618D01*
X179019685Y-41620579D01*
X179072489Y-41574824D01*
X179080655Y-41571440D01*
X179115631Y-41558396D01*
X179230846Y-41472146D01*
X179317096Y-41356931D01*
X179367391Y-41222083D01*
X179373800Y-41162473D01*
X179373799Y-40871497D01*
X179393483Y-40804460D01*
X179446287Y-40758705D01*
X179497799Y-40747499D01*
X179848271Y-40747499D01*
X179848272Y-40747499D01*
X179907883Y-40741091D01*
X180042731Y-40690796D01*
X180157946Y-40604546D01*
X180244196Y-40489331D01*
X180294491Y-40354483D01*
X180300900Y-40294873D01*
X180300899Y-40257097D01*
X180320582Y-40190060D01*
X180356012Y-40153993D01*
X180396193Y-40127146D01*
X180396194Y-40127144D01*
X180396200Y-40127141D01*
X181366094Y-39157245D01*
X181393021Y-39142542D01*
X181418840Y-39125950D01*
X181425040Y-39125058D01*
X181427417Y-39123761D01*
X181453775Y-39120927D01*
X181675100Y-39120927D01*
X181742139Y-39140612D01*
G37*
%TD.AperFunction*%
%TD*%
%TA.AperFunction,Conductor*%
%TO.N,/SW*%
G36*
X171072000Y-57000000D02*
G01*
X171035899Y-56963551D01*
X171002709Y-56902067D01*
X171000000Y-56876291D01*
X171000000Y-55781663D01*
X171019685Y-55714624D01*
X171036316Y-55693984D01*
X171049695Y-55680606D01*
X171085175Y-55627504D01*
X171072000Y-57000000D01*
G37*
%TD.AperFunction*%
%TD*%
%TA.AperFunction,Conductor*%
%TO.N,GND*%
G36*
X162700000Y-62300000D02*
G01*
X156200000Y-62300000D01*
X156200000Y-60700000D01*
X162700000Y-60673469D01*
X162700000Y-62300000D01*
G37*
%TD.AperFunction*%
%TD*%
%TA.AperFunction,Conductor*%
%TO.N,/SW*%
G36*
X173099540Y-52430184D02*
G01*
X173145295Y-52482988D01*
X173155239Y-52552146D01*
X173148683Y-52577832D01*
X173105908Y-52692517D01*
X173099501Y-52752116D01*
X173099500Y-52752127D01*
X173099500Y-54783464D01*
X173099500Y-54783469D01*
X173099500Y-55316531D01*
X173099500Y-55316533D01*
X173099499Y-55316533D01*
X173125458Y-55447030D01*
X173125461Y-55447040D01*
X173176376Y-55569961D01*
X173176386Y-55569979D01*
X173250301Y-55680601D01*
X173250307Y-55680609D01*
X173344391Y-55774693D01*
X173344394Y-55774695D01*
X173444891Y-55841845D01*
X173489695Y-55895455D01*
X173500000Y-55944946D01*
X173500000Y-64376000D01*
X173480315Y-64443039D01*
X173427511Y-64488794D01*
X173376000Y-64500000D01*
X171125196Y-64500000D01*
X171058157Y-64480315D01*
X171012402Y-64427511D01*
X171001202Y-64374810D01*
X171072000Y-57000000D01*
X171085174Y-55627506D01*
X171123620Y-55569969D01*
X171174540Y-55447036D01*
X171195732Y-55340500D01*
X171200500Y-55316533D01*
X171200500Y-55126946D01*
X171208318Y-55083613D01*
X171259091Y-54947482D01*
X171265500Y-54887873D01*
X171265499Y-52534498D01*
X171285184Y-52467460D01*
X171337987Y-52421705D01*
X171389499Y-52410499D01*
X173032501Y-52410499D01*
X173099540Y-52430184D01*
G37*
%TD.AperFunction*%
%TD*%
%TA.AperFunction,Conductor*%
%TO.N,/SW*%
G36*
X164259065Y-49212056D02*
G01*
X164304820Y-49264860D01*
X164314764Y-49334018D01*
X164298758Y-49379492D01*
X164227131Y-49500606D01*
X164227129Y-49500611D01*
X164182335Y-49654791D01*
X164182334Y-49654797D01*
X164179500Y-49690811D01*
X164179500Y-50089169D01*
X164179501Y-50089191D01*
X164182335Y-50125205D01*
X164227129Y-50279388D01*
X164227131Y-50279393D01*
X164308863Y-50417595D01*
X164308869Y-50417603D01*
X164422396Y-50531130D01*
X164422400Y-50531133D01*
X164422402Y-50531135D01*
X164560607Y-50612869D01*
X164601268Y-50624682D01*
X164714791Y-50657664D01*
X164714794Y-50657664D01*
X164714796Y-50657665D01*
X164750819Y-50660500D01*
X165249180Y-50660499D01*
X165285204Y-50657665D01*
X165439393Y-50612869D01*
X165577598Y-50531135D01*
X165656415Y-50452317D01*
X165717736Y-50418834D01*
X165744095Y-50416000D01*
X167467658Y-50416000D01*
X167534697Y-50435685D01*
X167580452Y-50488489D01*
X167589275Y-50515808D01*
X167600458Y-50572030D01*
X167600461Y-50572040D01*
X167651376Y-50694961D01*
X167651382Y-50694972D01*
X167715619Y-50791110D01*
X167736496Y-50857787D01*
X167718011Y-50925167D01*
X167666032Y-50971857D01*
X167612516Y-50984000D01*
X166216940Y-50984000D01*
X166083448Y-51010553D01*
X166083438Y-51010556D01*
X165957695Y-51062640D01*
X165957682Y-51062647D01*
X165844514Y-51138264D01*
X165838865Y-51143913D01*
X165777540Y-51177395D01*
X165760919Y-51179845D01*
X165729007Y-51182356D01*
X165729002Y-51182357D01*
X165573609Y-51227504D01*
X165573606Y-51227505D01*
X165434315Y-51309881D01*
X165434307Y-51309887D01*
X165319887Y-51424307D01*
X165319881Y-51424315D01*
X165237505Y-51563606D01*
X165237504Y-51563609D01*
X165192357Y-51719002D01*
X165192356Y-51719008D01*
X165189500Y-51755302D01*
X165189500Y-52068371D01*
X165169815Y-52135410D01*
X165117011Y-52181165D01*
X165065500Y-52192371D01*
X162524000Y-52192371D01*
X162456961Y-52172686D01*
X162411206Y-52119882D01*
X162400000Y-52068371D01*
X162400000Y-49316371D01*
X162419685Y-49249332D01*
X162472489Y-49203577D01*
X162524000Y-49192371D01*
X164192026Y-49192371D01*
X164259065Y-49212056D01*
G37*
%TD.AperFunction*%
%TD*%
%TA.AperFunction,Conductor*%
%TO.N,12V0*%
G36*
X175443039Y-43310685D02*
G01*
X175488794Y-43363489D01*
X175500000Y-43415000D01*
X175500000Y-44419586D01*
X175480315Y-44486625D01*
X175427511Y-44532380D01*
X175358353Y-44542324D01*
X175341406Y-44538663D01*
X175285202Y-44522334D01*
X175249181Y-44519500D01*
X174750830Y-44519500D01*
X174750808Y-44519501D01*
X174714794Y-44522335D01*
X174560611Y-44567129D01*
X174560606Y-44567131D01*
X174422404Y-44648863D01*
X174422396Y-44648869D01*
X174308869Y-44762396D01*
X174308863Y-44762404D01*
X174227131Y-44900606D01*
X174227129Y-44900611D01*
X174182335Y-45054791D01*
X174182334Y-45054797D01*
X174179500Y-45090811D01*
X174179500Y-45090826D01*
X174179501Y-45375500D01*
X174159817Y-45442539D01*
X174107013Y-45488294D01*
X174055501Y-45499500D01*
X173765302Y-45499500D01*
X173729008Y-45502356D01*
X173729002Y-45502357D01*
X173573609Y-45547504D01*
X173573606Y-45547505D01*
X173532641Y-45571732D01*
X173516739Y-45576082D01*
X173504455Y-45583977D01*
X173469520Y-45589000D01*
X173263476Y-45589000D01*
X173228882Y-45584077D01*
X173085202Y-45542334D01*
X173049181Y-45539500D01*
X172550830Y-45539500D01*
X172550808Y-45539501D01*
X172514794Y-45542335D01*
X172360611Y-45587129D01*
X172360606Y-45587131D01*
X172222407Y-45668861D01*
X172222394Y-45668871D01*
X172213431Y-45677834D01*
X172152106Y-45711315D01*
X172127134Y-45714139D01*
X171125378Y-45725270D01*
X171058124Y-45706332D01*
X171011785Y-45654040D01*
X171000000Y-45601278D01*
X171000000Y-44228583D01*
X171019685Y-44161544D01*
X171036316Y-44140905D01*
X171849902Y-43327318D01*
X171911225Y-43293834D01*
X171937583Y-43291000D01*
X175376000Y-43291000D01*
X175443039Y-43310685D01*
G37*
%TD.AperFunction*%
%TD*%
%TA.AperFunction,Conductor*%
%TO.N,5V0*%
G36*
X145027213Y-42344729D02*
G01*
X145157694Y-42398776D01*
X145157698Y-42398776D01*
X145157699Y-42398777D01*
X145318180Y-42430700D01*
X145318183Y-42430700D01*
X145481819Y-42430700D01*
X145597046Y-42407779D01*
X145642306Y-42398776D01*
X145772787Y-42344729D01*
X145820240Y-42335290D01*
X147676000Y-42335290D01*
X147684685Y-42337840D01*
X147693647Y-42336552D01*
X147717687Y-42347530D01*
X147743039Y-42354975D01*
X147748966Y-42361815D01*
X147757203Y-42365577D01*
X147771492Y-42387811D01*
X147788794Y-42407779D01*
X147791081Y-42418293D01*
X147794977Y-42424355D01*
X147800000Y-42459290D01*
X147800000Y-42697140D01*
X147780315Y-42764179D01*
X147763681Y-42784821D01*
X147518313Y-43030188D01*
X147518311Y-43030191D01*
X147439045Y-43167485D01*
X147398012Y-43320621D01*
X147398012Y-43711754D01*
X147380839Y-43770235D01*
X147382766Y-43771287D01*
X147378514Y-43779072D01*
X147328220Y-43913917D01*
X147321813Y-43973516D01*
X147321812Y-43973535D01*
X147321813Y-44911290D01*
X147302129Y-44978329D01*
X147249325Y-45024084D01*
X147197813Y-45035290D01*
X146363146Y-45035290D01*
X146296107Y-45015605D01*
X146250352Y-44962801D01*
X146240408Y-44893643D01*
X146244070Y-44876693D01*
X146247644Y-44864393D01*
X146250501Y-44828090D01*
X146250501Y-44358710D01*
X146247644Y-44322407D01*
X146202495Y-44167005D01*
X146120118Y-44027713D01*
X146120116Y-44027711D01*
X146120113Y-44027707D01*
X146005693Y-43913287D01*
X146005685Y-43913281D01*
X145866394Y-43830905D01*
X145866391Y-43830904D01*
X145710998Y-43785757D01*
X145710992Y-43785756D01*
X145674698Y-43782900D01*
X145674691Y-43782900D01*
X145265311Y-43782900D01*
X145265303Y-43782900D01*
X145229009Y-43785756D01*
X145229003Y-43785757D01*
X145073610Y-43830904D01*
X145073607Y-43830905D01*
X144934316Y-43913281D01*
X144934308Y-43913287D01*
X144819888Y-44027707D01*
X144819882Y-44027715D01*
X144737506Y-44167006D01*
X144737505Y-44167009D01*
X144692358Y-44322402D01*
X144692357Y-44322408D01*
X144689501Y-44358702D01*
X144689501Y-44828097D01*
X144692357Y-44864391D01*
X144695932Y-44876693D01*
X144695734Y-44946562D01*
X144657793Y-45005233D01*
X144594155Y-45034077D01*
X144576856Y-45035290D01*
X142824000Y-45035290D01*
X142756961Y-45015605D01*
X142711206Y-44962801D01*
X142700000Y-44911290D01*
X142700000Y-42459290D01*
X142719685Y-42392251D01*
X142772489Y-42346496D01*
X142824000Y-42335290D01*
X144979760Y-42335290D01*
X145027213Y-42344729D01*
G37*
%TD.AperFunction*%
%TD*%
%TA.AperFunction,Conductor*%
%TO.N,12V0*%
G36*
X188594345Y-51319685D02*
G01*
X188640100Y-51372489D01*
X188650664Y-51411398D01*
X188660001Y-51502797D01*
X188660001Y-51502799D01*
X188715185Y-51669331D01*
X188715186Y-51669334D01*
X188807288Y-51818656D01*
X188931344Y-51942712D01*
X189080666Y-52034814D01*
X189247203Y-52089999D01*
X189349991Y-52100500D01*
X190376002Y-52100499D01*
X190443039Y-52120183D01*
X190488794Y-52172987D01*
X190500000Y-52224499D01*
X190500000Y-53648638D01*
X190480315Y-53715677D01*
X190463681Y-53736319D01*
X190450000Y-53750000D01*
X190450000Y-54075500D01*
X190430315Y-54142539D01*
X190377511Y-54188294D01*
X190326000Y-54199500D01*
X185849998Y-54199500D01*
X185849981Y-54199501D01*
X185747203Y-54210000D01*
X185747200Y-54210001D01*
X185580668Y-54265185D01*
X185580663Y-54265187D01*
X185431342Y-54357289D01*
X185307289Y-54481342D01*
X185215187Y-54630663D01*
X185215186Y-54630666D01*
X185160001Y-54797203D01*
X185160001Y-54797204D01*
X185160000Y-54797204D01*
X185149500Y-54899983D01*
X185149500Y-55500001D01*
X185149501Y-55500019D01*
X185160000Y-55602796D01*
X185160001Y-55602799D01*
X185215185Y-55769331D01*
X185215186Y-55769334D01*
X185307288Y-55918656D01*
X185431344Y-56042712D01*
X185580666Y-56134814D01*
X185665004Y-56162761D01*
X185722449Y-56202532D01*
X185749272Y-56267048D01*
X185750000Y-56280466D01*
X185750000Y-63366947D01*
X185730315Y-63433986D01*
X185713762Y-63454548D01*
X185694460Y-63473884D01*
X185723417Y-66224695D01*
X185704439Y-66291938D01*
X185652120Y-66338246D01*
X185599424Y-66350000D01*
X181874000Y-66350000D01*
X181806961Y-66330315D01*
X181761206Y-66277511D01*
X181750000Y-66226000D01*
X181750000Y-51424000D01*
X181769685Y-51356961D01*
X181822489Y-51311206D01*
X181874000Y-51300000D01*
X188527306Y-51300000D01*
X188594345Y-51319685D01*
G37*
%TD.AperFunction*%
%TD*%
%TA.AperFunction,Conductor*%
%TO.N,48V0*%
G36*
X150743039Y-53419685D02*
G01*
X150788794Y-53472489D01*
X150800000Y-53524000D01*
X150800000Y-58076000D01*
X150780315Y-58143039D01*
X150727511Y-58188794D01*
X150676000Y-58200000D01*
X144524000Y-58200000D01*
X144456961Y-58180315D01*
X144411206Y-58127511D01*
X144400000Y-58076000D01*
X144400000Y-54273500D01*
X144419685Y-54206461D01*
X144472489Y-54160706D01*
X144524000Y-54149500D01*
X148021736Y-54149500D01*
X148021738Y-54149500D01*
X148174872Y-54108467D01*
X148312168Y-54029200D01*
X148424270Y-53917098D01*
X148905049Y-53436319D01*
X148966372Y-53402834D01*
X148992730Y-53400000D01*
X150676000Y-53400000D01*
X150743039Y-53419685D01*
G37*
%TD.AperFunction*%
%TD*%
%TA.AperFunction,Conductor*%
%TO.N,48V0*%
G36*
X166743039Y-54419685D02*
G01*
X166788794Y-54472489D01*
X166800000Y-54524000D01*
X166800000Y-59076000D01*
X166780315Y-59143039D01*
X166727511Y-59188794D01*
X166676000Y-59200000D01*
X154924000Y-59200000D01*
X154856961Y-59180315D01*
X154811206Y-59127511D01*
X154800000Y-59076000D01*
X154800000Y-54524000D01*
X154819685Y-54456961D01*
X154872489Y-54411206D01*
X154924000Y-54400000D01*
X166676000Y-54400000D01*
X166743039Y-54419685D01*
G37*
%TD.AperFunction*%
%TD*%
%TA.AperFunction,Conductor*%
%TO.N,48V0*%
G36*
X155543039Y-49819685D02*
G01*
X155588794Y-49872489D01*
X155600000Y-49924000D01*
X155600000Y-52476000D01*
X155580315Y-52543039D01*
X155527511Y-52588794D01*
X155476000Y-52600000D01*
X152524000Y-52600000D01*
X152456961Y-52580315D01*
X152411206Y-52527511D01*
X152400000Y-52476000D01*
X152400000Y-51780882D01*
X152419685Y-51713843D01*
X152432958Y-51697372D01*
X152435371Y-51694147D01*
X152435374Y-51694146D01*
X152521624Y-51578931D01*
X152571919Y-51444083D01*
X152578328Y-51384473D01*
X152578327Y-49923999D01*
X152598012Y-49856961D01*
X152650815Y-49811206D01*
X152702327Y-49800000D01*
X155476000Y-49800000D01*
X155543039Y-49819685D01*
G37*
%TD.AperFunction*%
%TD*%
%TA.AperFunction,Conductor*%
%TO.N,48V_IN*%
G36*
X158906319Y-42219685D02*
G01*
X158952074Y-42272489D01*
X158963280Y-42324000D01*
X158963280Y-45776000D01*
X158943595Y-45843039D01*
X158890791Y-45888794D01*
X158839280Y-45900000D01*
X156087166Y-45900000D01*
X156020127Y-45880315D01*
X155999484Y-45863680D01*
X155965692Y-45829887D01*
X155965684Y-45829881D01*
X155826393Y-45747505D01*
X155826390Y-45747504D01*
X155670997Y-45702357D01*
X155670991Y-45702356D01*
X155634697Y-45699500D01*
X155634690Y-45699500D01*
X155165310Y-45699500D01*
X155165302Y-45699500D01*
X155129008Y-45702356D01*
X155129002Y-45702357D01*
X154973609Y-45747504D01*
X154973606Y-45747505D01*
X154834315Y-45829881D01*
X154834307Y-45829887D01*
X154800516Y-45863680D01*
X154739194Y-45897166D01*
X154712834Y-45900000D01*
X152878809Y-45900000D01*
X152811770Y-45880315D01*
X152779544Y-45850313D01*
X152768496Y-45835556D01*
X152768495Y-45835554D01*
X152653280Y-45749304D01*
X152653278Y-45749303D01*
X152653277Y-45749302D01*
X152518431Y-45699008D01*
X152518432Y-45699008D01*
X152458832Y-45692601D01*
X152458830Y-45692600D01*
X152458822Y-45692600D01*
X152458814Y-45692600D01*
X152050247Y-45692600D01*
X151983208Y-45672915D01*
X151937453Y-45620111D01*
X151926958Y-45555343D01*
X151928341Y-45542478D01*
X151928342Y-45542473D01*
X151928341Y-43973528D01*
X151921933Y-43913917D01*
X151871638Y-43779069D01*
X151788013Y-43667360D01*
X151763596Y-43601896D01*
X151763280Y-43593049D01*
X151763280Y-42324000D01*
X151782965Y-42256961D01*
X151835769Y-42211206D01*
X151887280Y-42200000D01*
X158839280Y-42200000D01*
X158906319Y-42219685D01*
G37*
%TD.AperFunction*%
%TD*%
M02*
