M48
; DRILL file {KiCad 7.0.7} date 2024 October 25, Friday 00:06:50
; FORMAT={-:-/ absolute / inch / decimal}
; #@! TF.CreationDate,2024-10-25T00:06:50-07:00
; #@! TF.GenerationSoftware,Kicad,Pcbnew,7.0.7
; #@! TF.FileFunction,Plated,1,4,PTH
FMAT,2
INCH
; #@! TA.AperFunction,Plated,PTH,ComponentDrill
T1C0.0098
; #@! TA.AperFunction,Plated,PTH,ViaDrill
T2C0.0157
; #@! TA.AperFunction,Plated,PTH,ComponentDrill
T3C0.0197
; #@! TA.AperFunction,Plated,PTH,ComponentDrill
T4C0.0315
; #@! TA.AperFunction,Plated,PTH,ComponentDrill
T5C0.0394
; #@! TA.AperFunction,Plated,PTH,ComponentDrill
T6C0.0402
%
G90
G05
T1
X5.5953Y-2.918
X5.5953Y-2.9652
X5.5953Y-3.0125
X5.5953Y-3.0597
X5.6346Y-2.918
X5.6346Y-2.9652
X5.6346Y-3.0125
X5.6346Y-3.0597
X5.674Y-2.918
X5.674Y-2.9652
X5.674Y-3.0125
X5.674Y-3.0597
T2
X5.102Y-3.004
X5.12Y-2.95
X5.224Y-2.776
X5.226Y-3.242
X5.332Y-2.856
X5.336Y-3.128
X5.34Y-3.402
X5.344Y-2.986
X5.458Y-2.9698
X5.461Y-2.893
X5.462Y-3.054
X5.486Y-3.468
X5.544Y-2.798
X5.57Y-3.216
X5.586Y-3.52
X5.684Y-3.282
X5.712Y-3.128
X5.768Y-3.13
X5.854Y-2.928
X5.896Y-3.352
X5.954Y-2.808
X5.974Y-2.7
X6.038Y-3.312
X6.144Y-2.776
X6.16Y-3.21
T3
X5.014Y-2.986
X5.014Y-3.0352
X5.5754Y-3.6397
X5.6246Y-3.6397
T4
X5.876Y-3.178
X5.876Y-3.2567
T5
X6.268Y-2.894
X6.268Y-3.106
T6
X5.2656Y-2.3862
X5.2656Y-2.4862
X5.276Y-2.616
X5.376Y-2.616
X5.388Y-2.3868
X5.388Y-2.4868
X5.5495Y-2.384
X5.5495Y-2.502
X5.5498Y-2.6176
X5.6495Y-2.384
X5.6495Y-2.502
X5.6498Y-2.6176
T0
M30
