%TF.GenerationSoftware,KiCad,Pcbnew,7.0.7*%
%TF.CreationDate,2024-10-24T16:02:22-07:00*%
%TF.ProjectId,PowerBoard_rev1.1,506f7765-7242-46f6-9172-645f72657631,rev?*%
%TF.SameCoordinates,Original*%
%TF.FileFunction,Paste,Top*%
%TF.FilePolarity,Positive*%
%FSLAX46Y46*%
G04 Gerber Fmt 4.6, Leading zero omitted, Abs format (unit mm)*
G04 Created by KiCad (PCBNEW 7.0.7) date 2024-10-24 16:02:22*
%MOMM*%
%LPD*%
G01*
G04 APERTURE LIST*
G04 Aperture macros list*
%AMRoundRect*
0 Rectangle with rounded corners*
0 $1 Rounding radius*
0 $2 $3 $4 $5 $6 $7 $8 $9 X,Y pos of 4 corners*
0 Add a 4 corners polygon primitive as box body*
4,1,4,$2,$3,$4,$5,$6,$7,$8,$9,$2,$3,0*
0 Add four circle primitives for the rounded corners*
1,1,$1+$1,$2,$3*
1,1,$1+$1,$4,$5*
1,1,$1+$1,$6,$7*
1,1,$1+$1,$8,$9*
0 Add four rect primitives between the rounded corners*
20,1,$1+$1,$2,$3,$4,$5,0*
20,1,$1+$1,$4,$5,$6,$7,0*
20,1,$1+$1,$6,$7,$8,$9,0*
20,1,$1+$1,$8,$9,$2,$3,0*%
G04 Aperture macros list end*
%ADD10C,0.010000*%
%ADD11RoundRect,0.150000X-0.512500X-0.150000X0.512500X-0.150000X0.512500X0.150000X-0.512500X0.150000X0*%
%ADD12RoundRect,0.079500X0.100500X-0.079500X0.100500X0.079500X-0.100500X0.079500X-0.100500X-0.079500X0*%
%ADD13RoundRect,0.079500X-0.079500X-0.100500X0.079500X-0.100500X0.079500X0.100500X-0.079500X0.100500X0*%
%ADD14RoundRect,0.250000X-0.450000X0.262500X-0.450000X-0.262500X0.450000X-0.262500X0.450000X0.262500X0*%
%ADD15RoundRect,0.250000X0.450000X-0.262500X0.450000X0.262500X-0.450000X0.262500X-0.450000X-0.262500X0*%
%ADD16RoundRect,0.125000X-0.125000X0.125000X-0.125000X-0.125000X0.125000X-0.125000X0.125000X0.125000X0*%
%ADD17RoundRect,0.079500X0.079500X0.100500X-0.079500X0.100500X-0.079500X-0.100500X0.079500X-0.100500X0*%
%ADD18RoundRect,0.045000X-0.705000X-0.180000X0.705000X-0.180000X0.705000X0.180000X-0.705000X0.180000X0*%
%ADD19RoundRect,0.125000X0.125000X-0.125000X0.125000X0.125000X-0.125000X0.125000X-0.125000X-0.125000X0*%
%ADD20RoundRect,0.150000X0.150000X-0.512500X0.150000X0.512500X-0.150000X0.512500X-0.150000X-0.512500X0*%
%ADD21RoundRect,0.250000X0.250000X0.475000X-0.250000X0.475000X-0.250000X-0.475000X0.250000X-0.475000X0*%
%ADD22RoundRect,0.079500X-0.100500X0.079500X-0.100500X-0.079500X0.100500X-0.079500X0.100500X0.079500X0*%
%ADD23RoundRect,0.250000X-0.250000X-0.475000X0.250000X-0.475000X0.250000X0.475000X-0.250000X0.475000X0*%
%ADD24RoundRect,0.225000X0.250000X-0.225000X0.250000X0.225000X-0.250000X0.225000X-0.250000X-0.225000X0*%
G04 APERTURE END LIST*
%TO.C,U1*%
D10*
X144327600Y-74598200D02*
X144329600Y-74598200D01*
X144332600Y-74599200D01*
X144334600Y-74599200D01*
X144337600Y-74600200D01*
X144339600Y-74601200D01*
X144342600Y-74602200D01*
X144344600Y-74604200D01*
X144346600Y-74605200D01*
X144348600Y-74607200D01*
X144350600Y-74608200D01*
X144352600Y-74610200D01*
X144354600Y-74612200D01*
X144356600Y-74614200D01*
X144358600Y-74616200D01*
X144359600Y-74618200D01*
X144361600Y-74620200D01*
X144362600Y-74622200D01*
X144364600Y-74624200D01*
X144365600Y-74627200D01*
X144366600Y-74629200D01*
X144367600Y-74632200D01*
X144367600Y-74634200D01*
X144368600Y-74637200D01*
X144368600Y-74639200D01*
X144369600Y-74642200D01*
X144369600Y-74644200D01*
X144369600Y-74647200D01*
X144369600Y-77187200D01*
X144369600Y-77190200D01*
X144369600Y-77192200D01*
X144368600Y-77195200D01*
X144368600Y-77197200D01*
X144367600Y-77200200D01*
X144367600Y-77202200D01*
X144366600Y-77205200D01*
X144365600Y-77207200D01*
X144364600Y-77210200D01*
X144362600Y-77212200D01*
X144361600Y-77214200D01*
X144359600Y-77216200D01*
X144358600Y-77218200D01*
X144356600Y-77220200D01*
X144354600Y-77222200D01*
X144352600Y-77224200D01*
X144350600Y-77226200D01*
X144348600Y-77227200D01*
X144346600Y-77229200D01*
X144344600Y-77230200D01*
X144342600Y-77232200D01*
X144339600Y-77233200D01*
X144337600Y-77234200D01*
X144334600Y-77235200D01*
X144332600Y-77235200D01*
X144329600Y-77236200D01*
X144327600Y-77236200D01*
X144324600Y-77237200D01*
X144322600Y-77237200D01*
X144319600Y-77237200D01*
X141919600Y-77237200D01*
X141916600Y-77237200D01*
X141914600Y-77237200D01*
X141911600Y-77236200D01*
X141909600Y-77236200D01*
X141906600Y-77235200D01*
X141904600Y-77235200D01*
X141901600Y-77234200D01*
X141899600Y-77233200D01*
X141896600Y-77232200D01*
X141894600Y-77230200D01*
X141892600Y-77229200D01*
X141890600Y-77227200D01*
X141888600Y-77226200D01*
X141886600Y-77224200D01*
X141884600Y-77222200D01*
X141882600Y-77220200D01*
X141880600Y-77218200D01*
X141879600Y-77216200D01*
X141877600Y-77214200D01*
X141876600Y-77212200D01*
X141874600Y-77210200D01*
X141873600Y-77207200D01*
X141872600Y-77205200D01*
X141871600Y-77202200D01*
X141871600Y-77200200D01*
X141870600Y-77197200D01*
X141870600Y-77195200D01*
X141869600Y-77192200D01*
X141869600Y-77190200D01*
X141869600Y-77187200D01*
X141869600Y-74647200D01*
X141869600Y-74644200D01*
X141869600Y-74642200D01*
X141870600Y-74639200D01*
X141870600Y-74637200D01*
X141871600Y-74634200D01*
X141871600Y-74632200D01*
X141872600Y-74629200D01*
X141873600Y-74627200D01*
X141874600Y-74624200D01*
X141876600Y-74622200D01*
X141877600Y-74620200D01*
X141879600Y-74618200D01*
X141880600Y-74616200D01*
X141882600Y-74614200D01*
X141884600Y-74612200D01*
X141886600Y-74610200D01*
X141888600Y-74608200D01*
X141890600Y-74607200D01*
X141892600Y-74605200D01*
X141894600Y-74604200D01*
X141896600Y-74602200D01*
X141899600Y-74601200D01*
X141901600Y-74600200D01*
X141904600Y-74599200D01*
X141906600Y-74599200D01*
X141909600Y-74598200D01*
X141911600Y-74598200D01*
X141914600Y-74597200D01*
X141916600Y-74597200D01*
X141919600Y-74597200D01*
X144319600Y-74597200D01*
X144322600Y-74597200D01*
X144324600Y-74597200D01*
X144327600Y-74598200D01*
G36*
X144327600Y-74598200D02*
G01*
X144329600Y-74598200D01*
X144332600Y-74599200D01*
X144334600Y-74599200D01*
X144337600Y-74600200D01*
X144339600Y-74601200D01*
X144342600Y-74602200D01*
X144344600Y-74604200D01*
X144346600Y-74605200D01*
X144348600Y-74607200D01*
X144350600Y-74608200D01*
X144352600Y-74610200D01*
X144354600Y-74612200D01*
X144356600Y-74614200D01*
X144358600Y-74616200D01*
X144359600Y-74618200D01*
X144361600Y-74620200D01*
X144362600Y-74622200D01*
X144364600Y-74624200D01*
X144365600Y-74627200D01*
X144366600Y-74629200D01*
X144367600Y-74632200D01*
X144367600Y-74634200D01*
X144368600Y-74637200D01*
X144368600Y-74639200D01*
X144369600Y-74642200D01*
X144369600Y-74644200D01*
X144369600Y-74647200D01*
X144369600Y-77187200D01*
X144369600Y-77190200D01*
X144369600Y-77192200D01*
X144368600Y-77195200D01*
X144368600Y-77197200D01*
X144367600Y-77200200D01*
X144367600Y-77202200D01*
X144366600Y-77205200D01*
X144365600Y-77207200D01*
X144364600Y-77210200D01*
X144362600Y-77212200D01*
X144361600Y-77214200D01*
X144359600Y-77216200D01*
X144358600Y-77218200D01*
X144356600Y-77220200D01*
X144354600Y-77222200D01*
X144352600Y-77224200D01*
X144350600Y-77226200D01*
X144348600Y-77227200D01*
X144346600Y-77229200D01*
X144344600Y-77230200D01*
X144342600Y-77232200D01*
X144339600Y-77233200D01*
X144337600Y-77234200D01*
X144334600Y-77235200D01*
X144332600Y-77235200D01*
X144329600Y-77236200D01*
X144327600Y-77236200D01*
X144324600Y-77237200D01*
X144322600Y-77237200D01*
X144319600Y-77237200D01*
X141919600Y-77237200D01*
X141916600Y-77237200D01*
X141914600Y-77237200D01*
X141911600Y-77236200D01*
X141909600Y-77236200D01*
X141906600Y-77235200D01*
X141904600Y-77235200D01*
X141901600Y-77234200D01*
X141899600Y-77233200D01*
X141896600Y-77232200D01*
X141894600Y-77230200D01*
X141892600Y-77229200D01*
X141890600Y-77227200D01*
X141888600Y-77226200D01*
X141886600Y-77224200D01*
X141884600Y-77222200D01*
X141882600Y-77220200D01*
X141880600Y-77218200D01*
X141879600Y-77216200D01*
X141877600Y-77214200D01*
X141876600Y-77212200D01*
X141874600Y-77210200D01*
X141873600Y-77207200D01*
X141872600Y-77205200D01*
X141871600Y-77202200D01*
X141871600Y-77200200D01*
X141870600Y-77197200D01*
X141870600Y-77195200D01*
X141869600Y-77192200D01*
X141869600Y-77190200D01*
X141869600Y-77187200D01*
X141869600Y-74647200D01*
X141869600Y-74644200D01*
X141869600Y-74642200D01*
X141870600Y-74639200D01*
X141870600Y-74637200D01*
X141871600Y-74634200D01*
X141871600Y-74632200D01*
X141872600Y-74629200D01*
X141873600Y-74627200D01*
X141874600Y-74624200D01*
X141876600Y-74622200D01*
X141877600Y-74620200D01*
X141879600Y-74618200D01*
X141880600Y-74616200D01*
X141882600Y-74614200D01*
X141884600Y-74612200D01*
X141886600Y-74610200D01*
X141888600Y-74608200D01*
X141890600Y-74607200D01*
X141892600Y-74605200D01*
X141894600Y-74604200D01*
X141896600Y-74602200D01*
X141899600Y-74601200D01*
X141901600Y-74600200D01*
X141904600Y-74599200D01*
X141906600Y-74599200D01*
X141909600Y-74598200D01*
X141911600Y-74598200D01*
X141914600Y-74597200D01*
X141916600Y-74597200D01*
X141919600Y-74597200D01*
X144319600Y-74597200D01*
X144322600Y-74597200D01*
X144324600Y-74597200D01*
X144327600Y-74598200D01*
G37*
%TD*%
D11*
%TO.C,U2*%
X131399700Y-75707200D03*
X131399700Y-76657200D03*
X131399700Y-77607200D03*
X133674700Y-77607200D03*
X133674700Y-75707200D03*
%TD*%
D12*
%TO.C,C8*%
X144526000Y-87354800D03*
X144526000Y-86664800D03*
%TD*%
D13*
%TO.C,C6*%
X131465800Y-79197200D03*
X132155800Y-79197200D03*
%TD*%
D14*
%TO.C,R4*%
X137210800Y-77116300D03*
X137210800Y-78941300D03*
%TD*%
D15*
%TO.C,R3*%
X137210800Y-74726800D03*
X137210800Y-72901800D03*
%TD*%
D16*
%TO.C,D6*%
X151130000Y-65074800D03*
X151130000Y-67274800D03*
%TD*%
D17*
%TO.C,R1*%
X132987800Y-74117200D03*
X132297800Y-74117200D03*
%TD*%
D13*
%TO.C,C7*%
X144547200Y-85547200D03*
X145237200Y-85547200D03*
%TD*%
D18*
%TO.C,U1*%
X140219600Y-73642200D03*
X140219600Y-74292200D03*
X140219600Y-74942200D03*
X140219600Y-75592200D03*
X140219600Y-76242200D03*
X140219600Y-76892200D03*
X140219600Y-77542200D03*
X140219600Y-78192200D03*
X146019600Y-78192200D03*
X146019600Y-77542200D03*
X146019600Y-76892200D03*
X146019600Y-76242200D03*
X146019600Y-75592200D03*
X146019600Y-74942200D03*
X146019600Y-74292200D03*
X146019600Y-73642200D03*
%TD*%
D19*
%TO.C,D14*%
X153212800Y-80094000D03*
X153212800Y-77894000D03*
%TD*%
D20*
%TO.C,U3*%
X141036000Y-87395900D03*
X141986000Y-87395900D03*
X142936000Y-87395900D03*
X142936000Y-85120900D03*
X141036000Y-85120900D03*
%TD*%
D16*
%TO.C,D5*%
X148234400Y-65024000D03*
X148234400Y-67224000D03*
%TD*%
D19*
%TO.C,D11*%
X151993600Y-74810800D03*
X151993600Y-72610800D03*
%TD*%
D21*
%TO.C,C12*%
X154686000Y-70358000D03*
X152786000Y-70358000D03*
%TD*%
D22*
%TO.C,C5*%
X133451600Y-79197200D03*
X133451600Y-79887200D03*
%TD*%
D23*
%TO.C,C11*%
X153040000Y-82550000D03*
X154940000Y-82550000D03*
%TD*%
D16*
%TO.C,D12*%
X155346400Y-77944800D03*
X155346400Y-80144800D03*
%TD*%
%TO.C,D13*%
X155346400Y-72560000D03*
X155346400Y-74760000D03*
%TD*%
D24*
%TO.C,C1*%
X148183600Y-77063600D03*
X148183600Y-75513600D03*
%TD*%
D22*
%TO.C,R2*%
X138887200Y-85710200D03*
X138887200Y-86400200D03*
%TD*%
M02*
