%TF.GenerationSoftware,KiCad,Pcbnew,7.0.7*%
%TF.CreationDate,2024-10-25T00:06:54-07:00*%
%TF.ProjectId,PowerBoard_rev1.1,506f7765-7242-46f6-9172-645f72657631,rev?*%
%TF.SameCoordinates,Original*%
%TF.FileFunction,Soldermask,Top*%
%TF.FilePolarity,Negative*%
%FSLAX46Y46*%
G04 Gerber Fmt 4.6, Leading zero omitted, Abs format (unit mm)*
G04 Created by KiCad (PCBNEW 7.0.7) date 2024-10-25 00:06:54*
%MOMM*%
%LPD*%
G01*
G04 APERTURE LIST*
G04 Aperture macros list*
%AMRoundRect*
0 Rectangle with rounded corners*
0 $1 Rounding radius*
0 $2 $3 $4 $5 $6 $7 $8 $9 X,Y pos of 4 corners*
0 Add a 4 corners polygon primitive as box body*
4,1,4,$2,$3,$4,$5,$6,$7,$8,$9,$2,$3,0*
0 Add four circle primitives for the rounded corners*
1,1,$1+$1,$2,$3*
1,1,$1+$1,$4,$5*
1,1,$1+$1,$6,$7*
1,1,$1+$1,$8,$9*
0 Add four rect primitives between the rounded corners*
20,1,$1+$1,$2,$3,$4,$5,0*
20,1,$1+$1,$4,$5,$6,$7,0*
20,1,$1+$1,$6,$7,$8,$9,0*
20,1,$1+$1,$8,$9,$2,$3,0*%
G04 Aperture macros list end*
%ADD10C,0.010000*%
%ADD11R,1.600000X1.600000*%
%ADD12C,1.600000*%
%ADD13RoundRect,0.150000X-0.512500X-0.150000X0.512500X-0.150000X0.512500X0.150000X-0.512500X0.150000X0*%
%ADD14RoundRect,0.102000X0.765000X0.765000X-0.765000X0.765000X-0.765000X-0.765000X0.765000X-0.765000X0*%
%ADD15C,1.734000*%
%ADD16RoundRect,0.225000X0.250000X-0.225000X0.250000X0.225000X-0.250000X0.225000X-0.250000X-0.225000X0*%
%ADD17RoundRect,0.225000X-0.250000X0.225000X-0.250000X-0.225000X0.250000X-0.225000X0.250000X0.225000X0*%
%ADD18RoundRect,0.250000X-0.450000X0.262500X-0.450000X-0.262500X0.450000X-0.262500X0.450000X0.262500X0*%
%ADD19RoundRect,0.250000X0.450000X-0.262500X0.450000X0.262500X-0.450000X0.262500X-0.450000X-0.262500X0*%
%ADD20RoundRect,0.102000X0.765000X-0.765000X0.765000X0.765000X-0.765000X0.765000X-0.765000X-0.765000X0*%
%ADD21RoundRect,0.125000X-0.125000X0.125000X-0.125000X-0.125000X0.125000X-0.125000X0.125000X0.125000X0*%
%ADD22RoundRect,0.125000X0.125000X-0.125000X0.125000X0.125000X-0.125000X0.125000X-0.125000X-0.125000X0*%
%ADD23RoundRect,0.150000X0.150000X-0.512500X0.150000X0.512500X-0.150000X0.512500X-0.150000X-0.512500X0*%
%ADD24RoundRect,0.102000X-0.765000X-0.765000X0.765000X-0.765000X0.765000X0.765000X-0.765000X0.765000X0*%
%ADD25RoundRect,0.250000X0.250000X0.475000X-0.250000X0.475000X-0.250000X-0.475000X0.250000X-0.475000X0*%
%ADD26RoundRect,0.250000X-0.250000X-0.475000X0.250000X-0.475000X0.250000X0.475000X-0.250000X0.475000X0*%
%ADD27RoundRect,0.250000X0.262500X0.450000X-0.262500X0.450000X-0.262500X-0.450000X0.262500X-0.450000X0*%
%ADD28RoundRect,0.102000X-0.765000X0.765000X-0.765000X-0.765000X0.765000X-0.765000X0.765000X0.765000X0*%
%ADD29R,0.850000X0.850000*%
%ADD30C,0.850000*%
%ADD31R,2.000000X2.000000*%
G04 APERTURE END LIST*
%TO.C,U1*%
D10*
X140929600Y-73368200D02*
X140935600Y-73368200D01*
X140940600Y-73369200D01*
X140945600Y-73370200D01*
X140950600Y-73372200D01*
X140955600Y-73374200D01*
X140960600Y-73376200D01*
X140964600Y-73378200D01*
X140969600Y-73380200D01*
X140973600Y-73383200D01*
X140978600Y-73386200D01*
X140982600Y-73389200D01*
X140986600Y-73393200D01*
X140990600Y-73396200D01*
X140993600Y-73400200D01*
X140997600Y-73404200D01*
X141000600Y-73408200D01*
X141003600Y-73413200D01*
X141006600Y-73417200D01*
X141008600Y-73422200D01*
X141010600Y-73426200D01*
X141012600Y-73431200D01*
X141014600Y-73436200D01*
X141016600Y-73441200D01*
X141017600Y-73446200D01*
X141018600Y-73451200D01*
X141018600Y-73457200D01*
X141019600Y-73462200D01*
X141019600Y-73467200D01*
X141019600Y-73817200D01*
X141019600Y-73822200D01*
X141018600Y-73827200D01*
X141018600Y-73833200D01*
X141017600Y-73838200D01*
X141016600Y-73843200D01*
X141014600Y-73848200D01*
X141012600Y-73853200D01*
X141010600Y-73858200D01*
X141008600Y-73862200D01*
X141006600Y-73867200D01*
X141003600Y-73871200D01*
X141000600Y-73876200D01*
X140997600Y-73880200D01*
X140993600Y-73884200D01*
X140990600Y-73888200D01*
X140986600Y-73891200D01*
X140982600Y-73895200D01*
X140978600Y-73898200D01*
X140973600Y-73901200D01*
X140969600Y-73904200D01*
X140964600Y-73906200D01*
X140960600Y-73908200D01*
X140955600Y-73910200D01*
X140950600Y-73912200D01*
X140945600Y-73914200D01*
X140940600Y-73915200D01*
X140935600Y-73916200D01*
X140929600Y-73916200D01*
X140924600Y-73917200D01*
X140919600Y-73917200D01*
X139519600Y-73917200D01*
X139514600Y-73917200D01*
X139509600Y-73916200D01*
X139503600Y-73916200D01*
X139498600Y-73915200D01*
X139493600Y-73914200D01*
X139488600Y-73912200D01*
X139483600Y-73910200D01*
X139478600Y-73908200D01*
X139474600Y-73906200D01*
X139469600Y-73904200D01*
X139465600Y-73901200D01*
X139460600Y-73898200D01*
X139456600Y-73895200D01*
X139452600Y-73891200D01*
X139448600Y-73888200D01*
X139445600Y-73884200D01*
X139441600Y-73880200D01*
X139438600Y-73876200D01*
X139435600Y-73871200D01*
X139432600Y-73867200D01*
X139430600Y-73862200D01*
X139428600Y-73858200D01*
X139426600Y-73853200D01*
X139424600Y-73848200D01*
X139422600Y-73843200D01*
X139421600Y-73838200D01*
X139420600Y-73833200D01*
X139420600Y-73827200D01*
X139419600Y-73822200D01*
X139419600Y-73817200D01*
X139419600Y-73467200D01*
X139419600Y-73462200D01*
X139420600Y-73457200D01*
X139420600Y-73451200D01*
X139421600Y-73446200D01*
X139422600Y-73441200D01*
X139424600Y-73436200D01*
X139426600Y-73431200D01*
X139428600Y-73426200D01*
X139430600Y-73422200D01*
X139432600Y-73417200D01*
X139435600Y-73413200D01*
X139438600Y-73408200D01*
X139441600Y-73404200D01*
X139445600Y-73400200D01*
X139448600Y-73396200D01*
X139452600Y-73393200D01*
X139456600Y-73389200D01*
X139460600Y-73386200D01*
X139465600Y-73383200D01*
X139469600Y-73380200D01*
X139474600Y-73378200D01*
X139478600Y-73376200D01*
X139483600Y-73374200D01*
X139488600Y-73372200D01*
X139493600Y-73370200D01*
X139498600Y-73369200D01*
X139503600Y-73368200D01*
X139509600Y-73368200D01*
X139514600Y-73367200D01*
X139519600Y-73367200D01*
X140919600Y-73367200D01*
X140924600Y-73367200D01*
X140929600Y-73368200D01*
G36*
X140929600Y-73368200D02*
G01*
X140935600Y-73368200D01*
X140940600Y-73369200D01*
X140945600Y-73370200D01*
X140950600Y-73372200D01*
X140955600Y-73374200D01*
X140960600Y-73376200D01*
X140964600Y-73378200D01*
X140969600Y-73380200D01*
X140973600Y-73383200D01*
X140978600Y-73386200D01*
X140982600Y-73389200D01*
X140986600Y-73393200D01*
X140990600Y-73396200D01*
X140993600Y-73400200D01*
X140997600Y-73404200D01*
X141000600Y-73408200D01*
X141003600Y-73413200D01*
X141006600Y-73417200D01*
X141008600Y-73422200D01*
X141010600Y-73426200D01*
X141012600Y-73431200D01*
X141014600Y-73436200D01*
X141016600Y-73441200D01*
X141017600Y-73446200D01*
X141018600Y-73451200D01*
X141018600Y-73457200D01*
X141019600Y-73462200D01*
X141019600Y-73467200D01*
X141019600Y-73817200D01*
X141019600Y-73822200D01*
X141018600Y-73827200D01*
X141018600Y-73833200D01*
X141017600Y-73838200D01*
X141016600Y-73843200D01*
X141014600Y-73848200D01*
X141012600Y-73853200D01*
X141010600Y-73858200D01*
X141008600Y-73862200D01*
X141006600Y-73867200D01*
X141003600Y-73871200D01*
X141000600Y-73876200D01*
X140997600Y-73880200D01*
X140993600Y-73884200D01*
X140990600Y-73888200D01*
X140986600Y-73891200D01*
X140982600Y-73895200D01*
X140978600Y-73898200D01*
X140973600Y-73901200D01*
X140969600Y-73904200D01*
X140964600Y-73906200D01*
X140960600Y-73908200D01*
X140955600Y-73910200D01*
X140950600Y-73912200D01*
X140945600Y-73914200D01*
X140940600Y-73915200D01*
X140935600Y-73916200D01*
X140929600Y-73916200D01*
X140924600Y-73917200D01*
X140919600Y-73917200D01*
X139519600Y-73917200D01*
X139514600Y-73917200D01*
X139509600Y-73916200D01*
X139503600Y-73916200D01*
X139498600Y-73915200D01*
X139493600Y-73914200D01*
X139488600Y-73912200D01*
X139483600Y-73910200D01*
X139478600Y-73908200D01*
X139474600Y-73906200D01*
X139469600Y-73904200D01*
X139465600Y-73901200D01*
X139460600Y-73898200D01*
X139456600Y-73895200D01*
X139452600Y-73891200D01*
X139448600Y-73888200D01*
X139445600Y-73884200D01*
X139441600Y-73880200D01*
X139438600Y-73876200D01*
X139435600Y-73871200D01*
X139432600Y-73867200D01*
X139430600Y-73862200D01*
X139428600Y-73858200D01*
X139426600Y-73853200D01*
X139424600Y-73848200D01*
X139422600Y-73843200D01*
X139421600Y-73838200D01*
X139420600Y-73833200D01*
X139420600Y-73827200D01*
X139419600Y-73822200D01*
X139419600Y-73817200D01*
X139419600Y-73467200D01*
X139419600Y-73462200D01*
X139420600Y-73457200D01*
X139420600Y-73451200D01*
X139421600Y-73446200D01*
X139422600Y-73441200D01*
X139424600Y-73436200D01*
X139426600Y-73431200D01*
X139428600Y-73426200D01*
X139430600Y-73422200D01*
X139432600Y-73417200D01*
X139435600Y-73413200D01*
X139438600Y-73408200D01*
X139441600Y-73404200D01*
X139445600Y-73400200D01*
X139448600Y-73396200D01*
X139452600Y-73393200D01*
X139456600Y-73389200D01*
X139460600Y-73386200D01*
X139465600Y-73383200D01*
X139469600Y-73380200D01*
X139474600Y-73378200D01*
X139478600Y-73376200D01*
X139483600Y-73374200D01*
X139488600Y-73372200D01*
X139493600Y-73370200D01*
X139498600Y-73369200D01*
X139503600Y-73368200D01*
X139509600Y-73368200D01*
X139514600Y-73367200D01*
X139519600Y-73367200D01*
X140919600Y-73367200D01*
X140924600Y-73367200D01*
X140929600Y-73368200D01*
G37*
X140929600Y-74018200D02*
X140935600Y-74018200D01*
X140940600Y-74019200D01*
X140945600Y-74020200D01*
X140950600Y-74022200D01*
X140955600Y-74024200D01*
X140960600Y-74026200D01*
X140964600Y-74028200D01*
X140969600Y-74030200D01*
X140973600Y-74033200D01*
X140978600Y-74036200D01*
X140982600Y-74039200D01*
X140986600Y-74043200D01*
X140990600Y-74046200D01*
X140993600Y-74050200D01*
X140997600Y-74054200D01*
X141000600Y-74058200D01*
X141003600Y-74063200D01*
X141006600Y-74067200D01*
X141008600Y-74072200D01*
X141010600Y-74076200D01*
X141012600Y-74081200D01*
X141014600Y-74086200D01*
X141016600Y-74091200D01*
X141017600Y-74096200D01*
X141018600Y-74101200D01*
X141018600Y-74107200D01*
X141019600Y-74112200D01*
X141019600Y-74117200D01*
X141019600Y-74467200D01*
X141019600Y-74472200D01*
X141018600Y-74477200D01*
X141018600Y-74483200D01*
X141017600Y-74488200D01*
X141016600Y-74493200D01*
X141014600Y-74498200D01*
X141012600Y-74503200D01*
X141010600Y-74508200D01*
X141008600Y-74512200D01*
X141006600Y-74517200D01*
X141003600Y-74521200D01*
X141000600Y-74526200D01*
X140997600Y-74530200D01*
X140993600Y-74534200D01*
X140990600Y-74538200D01*
X140986600Y-74541200D01*
X140982600Y-74545200D01*
X140978600Y-74548200D01*
X140973600Y-74551200D01*
X140969600Y-74554200D01*
X140964600Y-74556200D01*
X140960600Y-74558200D01*
X140955600Y-74560200D01*
X140950600Y-74562200D01*
X140945600Y-74564200D01*
X140940600Y-74565200D01*
X140935600Y-74566200D01*
X140929600Y-74566200D01*
X140924600Y-74567200D01*
X140919600Y-74567200D01*
X139519600Y-74567200D01*
X139514600Y-74567200D01*
X139509600Y-74566200D01*
X139503600Y-74566200D01*
X139498600Y-74565200D01*
X139493600Y-74564200D01*
X139488600Y-74562200D01*
X139483600Y-74560200D01*
X139478600Y-74558200D01*
X139474600Y-74556200D01*
X139469600Y-74554200D01*
X139465600Y-74551200D01*
X139460600Y-74548200D01*
X139456600Y-74545200D01*
X139452600Y-74541200D01*
X139448600Y-74538200D01*
X139445600Y-74534200D01*
X139441600Y-74530200D01*
X139438600Y-74526200D01*
X139435600Y-74521200D01*
X139432600Y-74517200D01*
X139430600Y-74512200D01*
X139428600Y-74508200D01*
X139426600Y-74503200D01*
X139424600Y-74498200D01*
X139422600Y-74493200D01*
X139421600Y-74488200D01*
X139420600Y-74483200D01*
X139420600Y-74477200D01*
X139419600Y-74472200D01*
X139419600Y-74467200D01*
X139419600Y-74117200D01*
X139419600Y-74112200D01*
X139420600Y-74107200D01*
X139420600Y-74101200D01*
X139421600Y-74096200D01*
X139422600Y-74091200D01*
X139424600Y-74086200D01*
X139426600Y-74081200D01*
X139428600Y-74076200D01*
X139430600Y-74072200D01*
X139432600Y-74067200D01*
X139435600Y-74063200D01*
X139438600Y-74058200D01*
X139441600Y-74054200D01*
X139445600Y-74050200D01*
X139448600Y-74046200D01*
X139452600Y-74043200D01*
X139456600Y-74039200D01*
X139460600Y-74036200D01*
X139465600Y-74033200D01*
X139469600Y-74030200D01*
X139474600Y-74028200D01*
X139478600Y-74026200D01*
X139483600Y-74024200D01*
X139488600Y-74022200D01*
X139493600Y-74020200D01*
X139498600Y-74019200D01*
X139503600Y-74018200D01*
X139509600Y-74018200D01*
X139514600Y-74017200D01*
X139519600Y-74017200D01*
X140919600Y-74017200D01*
X140924600Y-74017200D01*
X140929600Y-74018200D01*
G36*
X140929600Y-74018200D02*
G01*
X140935600Y-74018200D01*
X140940600Y-74019200D01*
X140945600Y-74020200D01*
X140950600Y-74022200D01*
X140955600Y-74024200D01*
X140960600Y-74026200D01*
X140964600Y-74028200D01*
X140969600Y-74030200D01*
X140973600Y-74033200D01*
X140978600Y-74036200D01*
X140982600Y-74039200D01*
X140986600Y-74043200D01*
X140990600Y-74046200D01*
X140993600Y-74050200D01*
X140997600Y-74054200D01*
X141000600Y-74058200D01*
X141003600Y-74063200D01*
X141006600Y-74067200D01*
X141008600Y-74072200D01*
X141010600Y-74076200D01*
X141012600Y-74081200D01*
X141014600Y-74086200D01*
X141016600Y-74091200D01*
X141017600Y-74096200D01*
X141018600Y-74101200D01*
X141018600Y-74107200D01*
X141019600Y-74112200D01*
X141019600Y-74117200D01*
X141019600Y-74467200D01*
X141019600Y-74472200D01*
X141018600Y-74477200D01*
X141018600Y-74483200D01*
X141017600Y-74488200D01*
X141016600Y-74493200D01*
X141014600Y-74498200D01*
X141012600Y-74503200D01*
X141010600Y-74508200D01*
X141008600Y-74512200D01*
X141006600Y-74517200D01*
X141003600Y-74521200D01*
X141000600Y-74526200D01*
X140997600Y-74530200D01*
X140993600Y-74534200D01*
X140990600Y-74538200D01*
X140986600Y-74541200D01*
X140982600Y-74545200D01*
X140978600Y-74548200D01*
X140973600Y-74551200D01*
X140969600Y-74554200D01*
X140964600Y-74556200D01*
X140960600Y-74558200D01*
X140955600Y-74560200D01*
X140950600Y-74562200D01*
X140945600Y-74564200D01*
X140940600Y-74565200D01*
X140935600Y-74566200D01*
X140929600Y-74566200D01*
X140924600Y-74567200D01*
X140919600Y-74567200D01*
X139519600Y-74567200D01*
X139514600Y-74567200D01*
X139509600Y-74566200D01*
X139503600Y-74566200D01*
X139498600Y-74565200D01*
X139493600Y-74564200D01*
X139488600Y-74562200D01*
X139483600Y-74560200D01*
X139478600Y-74558200D01*
X139474600Y-74556200D01*
X139469600Y-74554200D01*
X139465600Y-74551200D01*
X139460600Y-74548200D01*
X139456600Y-74545200D01*
X139452600Y-74541200D01*
X139448600Y-74538200D01*
X139445600Y-74534200D01*
X139441600Y-74530200D01*
X139438600Y-74526200D01*
X139435600Y-74521200D01*
X139432600Y-74517200D01*
X139430600Y-74512200D01*
X139428600Y-74508200D01*
X139426600Y-74503200D01*
X139424600Y-74498200D01*
X139422600Y-74493200D01*
X139421600Y-74488200D01*
X139420600Y-74483200D01*
X139420600Y-74477200D01*
X139419600Y-74472200D01*
X139419600Y-74467200D01*
X139419600Y-74117200D01*
X139419600Y-74112200D01*
X139420600Y-74107200D01*
X139420600Y-74101200D01*
X139421600Y-74096200D01*
X139422600Y-74091200D01*
X139424600Y-74086200D01*
X139426600Y-74081200D01*
X139428600Y-74076200D01*
X139430600Y-74072200D01*
X139432600Y-74067200D01*
X139435600Y-74063200D01*
X139438600Y-74058200D01*
X139441600Y-74054200D01*
X139445600Y-74050200D01*
X139448600Y-74046200D01*
X139452600Y-74043200D01*
X139456600Y-74039200D01*
X139460600Y-74036200D01*
X139465600Y-74033200D01*
X139469600Y-74030200D01*
X139474600Y-74028200D01*
X139478600Y-74026200D01*
X139483600Y-74024200D01*
X139488600Y-74022200D01*
X139493600Y-74020200D01*
X139498600Y-74019200D01*
X139503600Y-74018200D01*
X139509600Y-74018200D01*
X139514600Y-74017200D01*
X139519600Y-74017200D01*
X140919600Y-74017200D01*
X140924600Y-74017200D01*
X140929600Y-74018200D01*
G37*
X140929600Y-74668200D02*
X140935600Y-74668200D01*
X140940600Y-74669200D01*
X140945600Y-74670200D01*
X140950600Y-74672200D01*
X140955600Y-74674200D01*
X140960600Y-74676200D01*
X140964600Y-74678200D01*
X140969600Y-74680200D01*
X140973600Y-74683200D01*
X140978600Y-74686200D01*
X140982600Y-74689200D01*
X140986600Y-74693200D01*
X140990600Y-74696200D01*
X140993600Y-74700200D01*
X140997600Y-74704200D01*
X141000600Y-74708200D01*
X141003600Y-74713200D01*
X141006600Y-74717200D01*
X141008600Y-74722200D01*
X141010600Y-74726200D01*
X141012600Y-74731200D01*
X141014600Y-74736200D01*
X141016600Y-74741200D01*
X141017600Y-74746200D01*
X141018600Y-74751200D01*
X141018600Y-74757200D01*
X141019600Y-74762200D01*
X141019600Y-74767200D01*
X141019600Y-75117200D01*
X141019600Y-75122200D01*
X141018600Y-75127200D01*
X141018600Y-75133200D01*
X141017600Y-75138200D01*
X141016600Y-75143200D01*
X141014600Y-75148200D01*
X141012600Y-75153200D01*
X141010600Y-75158200D01*
X141008600Y-75162200D01*
X141006600Y-75167200D01*
X141003600Y-75171200D01*
X141000600Y-75176200D01*
X140997600Y-75180200D01*
X140993600Y-75184200D01*
X140990600Y-75188200D01*
X140986600Y-75191200D01*
X140982600Y-75195200D01*
X140978600Y-75198200D01*
X140973600Y-75201200D01*
X140969600Y-75204200D01*
X140964600Y-75206200D01*
X140960600Y-75208200D01*
X140955600Y-75210200D01*
X140950600Y-75212200D01*
X140945600Y-75214200D01*
X140940600Y-75215200D01*
X140935600Y-75216200D01*
X140929600Y-75216200D01*
X140924600Y-75217200D01*
X140919600Y-75217200D01*
X139519600Y-75217200D01*
X139514600Y-75217200D01*
X139509600Y-75216200D01*
X139503600Y-75216200D01*
X139498600Y-75215200D01*
X139493600Y-75214200D01*
X139488600Y-75212200D01*
X139483600Y-75210200D01*
X139478600Y-75208200D01*
X139474600Y-75206200D01*
X139469600Y-75204200D01*
X139465600Y-75201200D01*
X139460600Y-75198200D01*
X139456600Y-75195200D01*
X139452600Y-75191200D01*
X139448600Y-75188200D01*
X139445600Y-75184200D01*
X139441600Y-75180200D01*
X139438600Y-75176200D01*
X139435600Y-75171200D01*
X139432600Y-75167200D01*
X139430600Y-75162200D01*
X139428600Y-75158200D01*
X139426600Y-75153200D01*
X139424600Y-75148200D01*
X139422600Y-75143200D01*
X139421600Y-75138200D01*
X139420600Y-75133200D01*
X139420600Y-75127200D01*
X139419600Y-75122200D01*
X139419600Y-75117200D01*
X139419600Y-74767200D01*
X139419600Y-74762200D01*
X139420600Y-74757200D01*
X139420600Y-74751200D01*
X139421600Y-74746200D01*
X139422600Y-74741200D01*
X139424600Y-74736200D01*
X139426600Y-74731200D01*
X139428600Y-74726200D01*
X139430600Y-74722200D01*
X139432600Y-74717200D01*
X139435600Y-74713200D01*
X139438600Y-74708200D01*
X139441600Y-74704200D01*
X139445600Y-74700200D01*
X139448600Y-74696200D01*
X139452600Y-74693200D01*
X139456600Y-74689200D01*
X139460600Y-74686200D01*
X139465600Y-74683200D01*
X139469600Y-74680200D01*
X139474600Y-74678200D01*
X139478600Y-74676200D01*
X139483600Y-74674200D01*
X139488600Y-74672200D01*
X139493600Y-74670200D01*
X139498600Y-74669200D01*
X139503600Y-74668200D01*
X139509600Y-74668200D01*
X139514600Y-74667200D01*
X139519600Y-74667200D01*
X140919600Y-74667200D01*
X140924600Y-74667200D01*
X140929600Y-74668200D01*
G36*
X140929600Y-74668200D02*
G01*
X140935600Y-74668200D01*
X140940600Y-74669200D01*
X140945600Y-74670200D01*
X140950600Y-74672200D01*
X140955600Y-74674200D01*
X140960600Y-74676200D01*
X140964600Y-74678200D01*
X140969600Y-74680200D01*
X140973600Y-74683200D01*
X140978600Y-74686200D01*
X140982600Y-74689200D01*
X140986600Y-74693200D01*
X140990600Y-74696200D01*
X140993600Y-74700200D01*
X140997600Y-74704200D01*
X141000600Y-74708200D01*
X141003600Y-74713200D01*
X141006600Y-74717200D01*
X141008600Y-74722200D01*
X141010600Y-74726200D01*
X141012600Y-74731200D01*
X141014600Y-74736200D01*
X141016600Y-74741200D01*
X141017600Y-74746200D01*
X141018600Y-74751200D01*
X141018600Y-74757200D01*
X141019600Y-74762200D01*
X141019600Y-74767200D01*
X141019600Y-75117200D01*
X141019600Y-75122200D01*
X141018600Y-75127200D01*
X141018600Y-75133200D01*
X141017600Y-75138200D01*
X141016600Y-75143200D01*
X141014600Y-75148200D01*
X141012600Y-75153200D01*
X141010600Y-75158200D01*
X141008600Y-75162200D01*
X141006600Y-75167200D01*
X141003600Y-75171200D01*
X141000600Y-75176200D01*
X140997600Y-75180200D01*
X140993600Y-75184200D01*
X140990600Y-75188200D01*
X140986600Y-75191200D01*
X140982600Y-75195200D01*
X140978600Y-75198200D01*
X140973600Y-75201200D01*
X140969600Y-75204200D01*
X140964600Y-75206200D01*
X140960600Y-75208200D01*
X140955600Y-75210200D01*
X140950600Y-75212200D01*
X140945600Y-75214200D01*
X140940600Y-75215200D01*
X140935600Y-75216200D01*
X140929600Y-75216200D01*
X140924600Y-75217200D01*
X140919600Y-75217200D01*
X139519600Y-75217200D01*
X139514600Y-75217200D01*
X139509600Y-75216200D01*
X139503600Y-75216200D01*
X139498600Y-75215200D01*
X139493600Y-75214200D01*
X139488600Y-75212200D01*
X139483600Y-75210200D01*
X139478600Y-75208200D01*
X139474600Y-75206200D01*
X139469600Y-75204200D01*
X139465600Y-75201200D01*
X139460600Y-75198200D01*
X139456600Y-75195200D01*
X139452600Y-75191200D01*
X139448600Y-75188200D01*
X139445600Y-75184200D01*
X139441600Y-75180200D01*
X139438600Y-75176200D01*
X139435600Y-75171200D01*
X139432600Y-75167200D01*
X139430600Y-75162200D01*
X139428600Y-75158200D01*
X139426600Y-75153200D01*
X139424600Y-75148200D01*
X139422600Y-75143200D01*
X139421600Y-75138200D01*
X139420600Y-75133200D01*
X139420600Y-75127200D01*
X139419600Y-75122200D01*
X139419600Y-75117200D01*
X139419600Y-74767200D01*
X139419600Y-74762200D01*
X139420600Y-74757200D01*
X139420600Y-74751200D01*
X139421600Y-74746200D01*
X139422600Y-74741200D01*
X139424600Y-74736200D01*
X139426600Y-74731200D01*
X139428600Y-74726200D01*
X139430600Y-74722200D01*
X139432600Y-74717200D01*
X139435600Y-74713200D01*
X139438600Y-74708200D01*
X139441600Y-74704200D01*
X139445600Y-74700200D01*
X139448600Y-74696200D01*
X139452600Y-74693200D01*
X139456600Y-74689200D01*
X139460600Y-74686200D01*
X139465600Y-74683200D01*
X139469600Y-74680200D01*
X139474600Y-74678200D01*
X139478600Y-74676200D01*
X139483600Y-74674200D01*
X139488600Y-74672200D01*
X139493600Y-74670200D01*
X139498600Y-74669200D01*
X139503600Y-74668200D01*
X139509600Y-74668200D01*
X139514600Y-74667200D01*
X139519600Y-74667200D01*
X140919600Y-74667200D01*
X140924600Y-74667200D01*
X140929600Y-74668200D01*
G37*
X140929600Y-75318200D02*
X140935600Y-75318200D01*
X140940600Y-75319200D01*
X140945600Y-75320200D01*
X140950600Y-75322200D01*
X140955600Y-75324200D01*
X140960600Y-75326200D01*
X140964600Y-75328200D01*
X140969600Y-75330200D01*
X140973600Y-75333200D01*
X140978600Y-75336200D01*
X140982600Y-75339200D01*
X140986600Y-75343200D01*
X140990600Y-75346200D01*
X140993600Y-75350200D01*
X140997600Y-75354200D01*
X141000600Y-75358200D01*
X141003600Y-75363200D01*
X141006600Y-75367200D01*
X141008600Y-75372200D01*
X141010600Y-75376200D01*
X141012600Y-75381200D01*
X141014600Y-75386200D01*
X141016600Y-75391200D01*
X141017600Y-75396200D01*
X141018600Y-75401200D01*
X141018600Y-75407200D01*
X141019600Y-75412200D01*
X141019600Y-75417200D01*
X141019600Y-75767200D01*
X141019600Y-75772200D01*
X141018600Y-75777200D01*
X141018600Y-75783200D01*
X141017600Y-75788200D01*
X141016600Y-75793200D01*
X141014600Y-75798200D01*
X141012600Y-75803200D01*
X141010600Y-75808200D01*
X141008600Y-75812200D01*
X141006600Y-75817200D01*
X141003600Y-75821200D01*
X141000600Y-75826200D01*
X140997600Y-75830200D01*
X140993600Y-75834200D01*
X140990600Y-75838200D01*
X140986600Y-75841200D01*
X140982600Y-75845200D01*
X140978600Y-75848200D01*
X140973600Y-75851200D01*
X140969600Y-75854200D01*
X140964600Y-75856200D01*
X140960600Y-75858200D01*
X140955600Y-75860200D01*
X140950600Y-75862200D01*
X140945600Y-75864200D01*
X140940600Y-75865200D01*
X140935600Y-75866200D01*
X140929600Y-75866200D01*
X140924600Y-75867200D01*
X140919600Y-75867200D01*
X139519600Y-75867200D01*
X139514600Y-75867200D01*
X139509600Y-75866200D01*
X139503600Y-75866200D01*
X139498600Y-75865200D01*
X139493600Y-75864200D01*
X139488600Y-75862200D01*
X139483600Y-75860200D01*
X139478600Y-75858200D01*
X139474600Y-75856200D01*
X139469600Y-75854200D01*
X139465600Y-75851200D01*
X139460600Y-75848200D01*
X139456600Y-75845200D01*
X139452600Y-75841200D01*
X139448600Y-75838200D01*
X139445600Y-75834200D01*
X139441600Y-75830200D01*
X139438600Y-75826200D01*
X139435600Y-75821200D01*
X139432600Y-75817200D01*
X139430600Y-75812200D01*
X139428600Y-75808200D01*
X139426600Y-75803200D01*
X139424600Y-75798200D01*
X139422600Y-75793200D01*
X139421600Y-75788200D01*
X139420600Y-75783200D01*
X139420600Y-75777200D01*
X139419600Y-75772200D01*
X139419600Y-75767200D01*
X139419600Y-75417200D01*
X139419600Y-75412200D01*
X139420600Y-75407200D01*
X139420600Y-75401200D01*
X139421600Y-75396200D01*
X139422600Y-75391200D01*
X139424600Y-75386200D01*
X139426600Y-75381200D01*
X139428600Y-75376200D01*
X139430600Y-75372200D01*
X139432600Y-75367200D01*
X139435600Y-75363200D01*
X139438600Y-75358200D01*
X139441600Y-75354200D01*
X139445600Y-75350200D01*
X139448600Y-75346200D01*
X139452600Y-75343200D01*
X139456600Y-75339200D01*
X139460600Y-75336200D01*
X139465600Y-75333200D01*
X139469600Y-75330200D01*
X139474600Y-75328200D01*
X139478600Y-75326200D01*
X139483600Y-75324200D01*
X139488600Y-75322200D01*
X139493600Y-75320200D01*
X139498600Y-75319200D01*
X139503600Y-75318200D01*
X139509600Y-75318200D01*
X139514600Y-75317200D01*
X139519600Y-75317200D01*
X140919600Y-75317200D01*
X140924600Y-75317200D01*
X140929600Y-75318200D01*
G36*
X140929600Y-75318200D02*
G01*
X140935600Y-75318200D01*
X140940600Y-75319200D01*
X140945600Y-75320200D01*
X140950600Y-75322200D01*
X140955600Y-75324200D01*
X140960600Y-75326200D01*
X140964600Y-75328200D01*
X140969600Y-75330200D01*
X140973600Y-75333200D01*
X140978600Y-75336200D01*
X140982600Y-75339200D01*
X140986600Y-75343200D01*
X140990600Y-75346200D01*
X140993600Y-75350200D01*
X140997600Y-75354200D01*
X141000600Y-75358200D01*
X141003600Y-75363200D01*
X141006600Y-75367200D01*
X141008600Y-75372200D01*
X141010600Y-75376200D01*
X141012600Y-75381200D01*
X141014600Y-75386200D01*
X141016600Y-75391200D01*
X141017600Y-75396200D01*
X141018600Y-75401200D01*
X141018600Y-75407200D01*
X141019600Y-75412200D01*
X141019600Y-75417200D01*
X141019600Y-75767200D01*
X141019600Y-75772200D01*
X141018600Y-75777200D01*
X141018600Y-75783200D01*
X141017600Y-75788200D01*
X141016600Y-75793200D01*
X141014600Y-75798200D01*
X141012600Y-75803200D01*
X141010600Y-75808200D01*
X141008600Y-75812200D01*
X141006600Y-75817200D01*
X141003600Y-75821200D01*
X141000600Y-75826200D01*
X140997600Y-75830200D01*
X140993600Y-75834200D01*
X140990600Y-75838200D01*
X140986600Y-75841200D01*
X140982600Y-75845200D01*
X140978600Y-75848200D01*
X140973600Y-75851200D01*
X140969600Y-75854200D01*
X140964600Y-75856200D01*
X140960600Y-75858200D01*
X140955600Y-75860200D01*
X140950600Y-75862200D01*
X140945600Y-75864200D01*
X140940600Y-75865200D01*
X140935600Y-75866200D01*
X140929600Y-75866200D01*
X140924600Y-75867200D01*
X140919600Y-75867200D01*
X139519600Y-75867200D01*
X139514600Y-75867200D01*
X139509600Y-75866200D01*
X139503600Y-75866200D01*
X139498600Y-75865200D01*
X139493600Y-75864200D01*
X139488600Y-75862200D01*
X139483600Y-75860200D01*
X139478600Y-75858200D01*
X139474600Y-75856200D01*
X139469600Y-75854200D01*
X139465600Y-75851200D01*
X139460600Y-75848200D01*
X139456600Y-75845200D01*
X139452600Y-75841200D01*
X139448600Y-75838200D01*
X139445600Y-75834200D01*
X139441600Y-75830200D01*
X139438600Y-75826200D01*
X139435600Y-75821200D01*
X139432600Y-75817200D01*
X139430600Y-75812200D01*
X139428600Y-75808200D01*
X139426600Y-75803200D01*
X139424600Y-75798200D01*
X139422600Y-75793200D01*
X139421600Y-75788200D01*
X139420600Y-75783200D01*
X139420600Y-75777200D01*
X139419600Y-75772200D01*
X139419600Y-75767200D01*
X139419600Y-75417200D01*
X139419600Y-75412200D01*
X139420600Y-75407200D01*
X139420600Y-75401200D01*
X139421600Y-75396200D01*
X139422600Y-75391200D01*
X139424600Y-75386200D01*
X139426600Y-75381200D01*
X139428600Y-75376200D01*
X139430600Y-75372200D01*
X139432600Y-75367200D01*
X139435600Y-75363200D01*
X139438600Y-75358200D01*
X139441600Y-75354200D01*
X139445600Y-75350200D01*
X139448600Y-75346200D01*
X139452600Y-75343200D01*
X139456600Y-75339200D01*
X139460600Y-75336200D01*
X139465600Y-75333200D01*
X139469600Y-75330200D01*
X139474600Y-75328200D01*
X139478600Y-75326200D01*
X139483600Y-75324200D01*
X139488600Y-75322200D01*
X139493600Y-75320200D01*
X139498600Y-75319200D01*
X139503600Y-75318200D01*
X139509600Y-75318200D01*
X139514600Y-75317200D01*
X139519600Y-75317200D01*
X140919600Y-75317200D01*
X140924600Y-75317200D01*
X140929600Y-75318200D01*
G37*
X140929600Y-75968200D02*
X140935600Y-75968200D01*
X140940600Y-75969200D01*
X140945600Y-75970200D01*
X140950600Y-75972200D01*
X140955600Y-75974200D01*
X140960600Y-75976200D01*
X140964600Y-75978200D01*
X140969600Y-75980200D01*
X140973600Y-75983200D01*
X140978600Y-75986200D01*
X140982600Y-75989200D01*
X140986600Y-75993200D01*
X140990600Y-75996200D01*
X140993600Y-76000200D01*
X140997600Y-76004200D01*
X141000600Y-76008200D01*
X141003600Y-76013200D01*
X141006600Y-76017200D01*
X141008600Y-76022200D01*
X141010600Y-76026200D01*
X141012600Y-76031200D01*
X141014600Y-76036200D01*
X141016600Y-76041200D01*
X141017600Y-76046200D01*
X141018600Y-76051200D01*
X141018600Y-76057200D01*
X141019600Y-76062200D01*
X141019600Y-76067200D01*
X141019600Y-76417200D01*
X141019600Y-76422200D01*
X141018600Y-76427200D01*
X141018600Y-76433200D01*
X141017600Y-76438200D01*
X141016600Y-76443200D01*
X141014600Y-76448200D01*
X141012600Y-76453200D01*
X141010600Y-76458200D01*
X141008600Y-76462200D01*
X141006600Y-76467200D01*
X141003600Y-76471200D01*
X141000600Y-76476200D01*
X140997600Y-76480200D01*
X140993600Y-76484200D01*
X140990600Y-76488200D01*
X140986600Y-76491200D01*
X140982600Y-76495200D01*
X140978600Y-76498200D01*
X140973600Y-76501200D01*
X140969600Y-76504200D01*
X140964600Y-76506200D01*
X140960600Y-76508200D01*
X140955600Y-76510200D01*
X140950600Y-76512200D01*
X140945600Y-76514200D01*
X140940600Y-76515200D01*
X140935600Y-76516200D01*
X140929600Y-76516200D01*
X140924600Y-76517200D01*
X140919600Y-76517200D01*
X139519600Y-76517200D01*
X139514600Y-76517200D01*
X139509600Y-76516200D01*
X139503600Y-76516200D01*
X139498600Y-76515200D01*
X139493600Y-76514200D01*
X139488600Y-76512200D01*
X139483600Y-76510200D01*
X139478600Y-76508200D01*
X139474600Y-76506200D01*
X139469600Y-76504200D01*
X139465600Y-76501200D01*
X139460600Y-76498200D01*
X139456600Y-76495200D01*
X139452600Y-76491200D01*
X139448600Y-76488200D01*
X139445600Y-76484200D01*
X139441600Y-76480200D01*
X139438600Y-76476200D01*
X139435600Y-76471200D01*
X139432600Y-76467200D01*
X139430600Y-76462200D01*
X139428600Y-76458200D01*
X139426600Y-76453200D01*
X139424600Y-76448200D01*
X139422600Y-76443200D01*
X139421600Y-76438200D01*
X139420600Y-76433200D01*
X139420600Y-76427200D01*
X139419600Y-76422200D01*
X139419600Y-76417200D01*
X139419600Y-76067200D01*
X139419600Y-76062200D01*
X139420600Y-76057200D01*
X139420600Y-76051200D01*
X139421600Y-76046200D01*
X139422600Y-76041200D01*
X139424600Y-76036200D01*
X139426600Y-76031200D01*
X139428600Y-76026200D01*
X139430600Y-76022200D01*
X139432600Y-76017200D01*
X139435600Y-76013200D01*
X139438600Y-76008200D01*
X139441600Y-76004200D01*
X139445600Y-76000200D01*
X139448600Y-75996200D01*
X139452600Y-75993200D01*
X139456600Y-75989200D01*
X139460600Y-75986200D01*
X139465600Y-75983200D01*
X139469600Y-75980200D01*
X139474600Y-75978200D01*
X139478600Y-75976200D01*
X139483600Y-75974200D01*
X139488600Y-75972200D01*
X139493600Y-75970200D01*
X139498600Y-75969200D01*
X139503600Y-75968200D01*
X139509600Y-75968200D01*
X139514600Y-75967200D01*
X139519600Y-75967200D01*
X140919600Y-75967200D01*
X140924600Y-75967200D01*
X140929600Y-75968200D01*
G36*
X140929600Y-75968200D02*
G01*
X140935600Y-75968200D01*
X140940600Y-75969200D01*
X140945600Y-75970200D01*
X140950600Y-75972200D01*
X140955600Y-75974200D01*
X140960600Y-75976200D01*
X140964600Y-75978200D01*
X140969600Y-75980200D01*
X140973600Y-75983200D01*
X140978600Y-75986200D01*
X140982600Y-75989200D01*
X140986600Y-75993200D01*
X140990600Y-75996200D01*
X140993600Y-76000200D01*
X140997600Y-76004200D01*
X141000600Y-76008200D01*
X141003600Y-76013200D01*
X141006600Y-76017200D01*
X141008600Y-76022200D01*
X141010600Y-76026200D01*
X141012600Y-76031200D01*
X141014600Y-76036200D01*
X141016600Y-76041200D01*
X141017600Y-76046200D01*
X141018600Y-76051200D01*
X141018600Y-76057200D01*
X141019600Y-76062200D01*
X141019600Y-76067200D01*
X141019600Y-76417200D01*
X141019600Y-76422200D01*
X141018600Y-76427200D01*
X141018600Y-76433200D01*
X141017600Y-76438200D01*
X141016600Y-76443200D01*
X141014600Y-76448200D01*
X141012600Y-76453200D01*
X141010600Y-76458200D01*
X141008600Y-76462200D01*
X141006600Y-76467200D01*
X141003600Y-76471200D01*
X141000600Y-76476200D01*
X140997600Y-76480200D01*
X140993600Y-76484200D01*
X140990600Y-76488200D01*
X140986600Y-76491200D01*
X140982600Y-76495200D01*
X140978600Y-76498200D01*
X140973600Y-76501200D01*
X140969600Y-76504200D01*
X140964600Y-76506200D01*
X140960600Y-76508200D01*
X140955600Y-76510200D01*
X140950600Y-76512200D01*
X140945600Y-76514200D01*
X140940600Y-76515200D01*
X140935600Y-76516200D01*
X140929600Y-76516200D01*
X140924600Y-76517200D01*
X140919600Y-76517200D01*
X139519600Y-76517200D01*
X139514600Y-76517200D01*
X139509600Y-76516200D01*
X139503600Y-76516200D01*
X139498600Y-76515200D01*
X139493600Y-76514200D01*
X139488600Y-76512200D01*
X139483600Y-76510200D01*
X139478600Y-76508200D01*
X139474600Y-76506200D01*
X139469600Y-76504200D01*
X139465600Y-76501200D01*
X139460600Y-76498200D01*
X139456600Y-76495200D01*
X139452600Y-76491200D01*
X139448600Y-76488200D01*
X139445600Y-76484200D01*
X139441600Y-76480200D01*
X139438600Y-76476200D01*
X139435600Y-76471200D01*
X139432600Y-76467200D01*
X139430600Y-76462200D01*
X139428600Y-76458200D01*
X139426600Y-76453200D01*
X139424600Y-76448200D01*
X139422600Y-76443200D01*
X139421600Y-76438200D01*
X139420600Y-76433200D01*
X139420600Y-76427200D01*
X139419600Y-76422200D01*
X139419600Y-76417200D01*
X139419600Y-76067200D01*
X139419600Y-76062200D01*
X139420600Y-76057200D01*
X139420600Y-76051200D01*
X139421600Y-76046200D01*
X139422600Y-76041200D01*
X139424600Y-76036200D01*
X139426600Y-76031200D01*
X139428600Y-76026200D01*
X139430600Y-76022200D01*
X139432600Y-76017200D01*
X139435600Y-76013200D01*
X139438600Y-76008200D01*
X139441600Y-76004200D01*
X139445600Y-76000200D01*
X139448600Y-75996200D01*
X139452600Y-75993200D01*
X139456600Y-75989200D01*
X139460600Y-75986200D01*
X139465600Y-75983200D01*
X139469600Y-75980200D01*
X139474600Y-75978200D01*
X139478600Y-75976200D01*
X139483600Y-75974200D01*
X139488600Y-75972200D01*
X139493600Y-75970200D01*
X139498600Y-75969200D01*
X139503600Y-75968200D01*
X139509600Y-75968200D01*
X139514600Y-75967200D01*
X139519600Y-75967200D01*
X140919600Y-75967200D01*
X140924600Y-75967200D01*
X140929600Y-75968200D01*
G37*
X140929600Y-76618200D02*
X140935600Y-76618200D01*
X140940600Y-76619200D01*
X140945600Y-76620200D01*
X140950600Y-76622200D01*
X140955600Y-76624200D01*
X140960600Y-76626200D01*
X140964600Y-76628200D01*
X140969600Y-76630200D01*
X140973600Y-76633200D01*
X140978600Y-76636200D01*
X140982600Y-76639200D01*
X140986600Y-76643200D01*
X140990600Y-76646200D01*
X140993600Y-76650200D01*
X140997600Y-76654200D01*
X141000600Y-76658200D01*
X141003600Y-76663200D01*
X141006600Y-76667200D01*
X141008600Y-76672200D01*
X141010600Y-76676200D01*
X141012600Y-76681200D01*
X141014600Y-76686200D01*
X141016600Y-76691200D01*
X141017600Y-76696200D01*
X141018600Y-76701200D01*
X141018600Y-76707200D01*
X141019600Y-76712200D01*
X141019600Y-76717200D01*
X141019600Y-77067200D01*
X141019600Y-77072200D01*
X141018600Y-77077200D01*
X141018600Y-77083200D01*
X141017600Y-77088200D01*
X141016600Y-77093200D01*
X141014600Y-77098200D01*
X141012600Y-77103200D01*
X141010600Y-77108200D01*
X141008600Y-77112200D01*
X141006600Y-77117200D01*
X141003600Y-77121200D01*
X141000600Y-77126200D01*
X140997600Y-77130200D01*
X140993600Y-77134200D01*
X140990600Y-77138200D01*
X140986600Y-77141200D01*
X140982600Y-77145200D01*
X140978600Y-77148200D01*
X140973600Y-77151200D01*
X140969600Y-77154200D01*
X140964600Y-77156200D01*
X140960600Y-77158200D01*
X140955600Y-77160200D01*
X140950600Y-77162200D01*
X140945600Y-77164200D01*
X140940600Y-77165200D01*
X140935600Y-77166200D01*
X140929600Y-77166200D01*
X140924600Y-77167200D01*
X140919600Y-77167200D01*
X139519600Y-77167200D01*
X139514600Y-77167200D01*
X139509600Y-77166200D01*
X139503600Y-77166200D01*
X139498600Y-77165200D01*
X139493600Y-77164200D01*
X139488600Y-77162200D01*
X139483600Y-77160200D01*
X139478600Y-77158200D01*
X139474600Y-77156200D01*
X139469600Y-77154200D01*
X139465600Y-77151200D01*
X139460600Y-77148200D01*
X139456600Y-77145200D01*
X139452600Y-77141200D01*
X139448600Y-77138200D01*
X139445600Y-77134200D01*
X139441600Y-77130200D01*
X139438600Y-77126200D01*
X139435600Y-77121200D01*
X139432600Y-77117200D01*
X139430600Y-77112200D01*
X139428600Y-77108200D01*
X139426600Y-77103200D01*
X139424600Y-77098200D01*
X139422600Y-77093200D01*
X139421600Y-77088200D01*
X139420600Y-77083200D01*
X139420600Y-77077200D01*
X139419600Y-77072200D01*
X139419600Y-77067200D01*
X139419600Y-76717200D01*
X139419600Y-76712200D01*
X139420600Y-76707200D01*
X139420600Y-76701200D01*
X139421600Y-76696200D01*
X139422600Y-76691200D01*
X139424600Y-76686200D01*
X139426600Y-76681200D01*
X139428600Y-76676200D01*
X139430600Y-76672200D01*
X139432600Y-76667200D01*
X139435600Y-76663200D01*
X139438600Y-76658200D01*
X139441600Y-76654200D01*
X139445600Y-76650200D01*
X139448600Y-76646200D01*
X139452600Y-76643200D01*
X139456600Y-76639200D01*
X139460600Y-76636200D01*
X139465600Y-76633200D01*
X139469600Y-76630200D01*
X139474600Y-76628200D01*
X139478600Y-76626200D01*
X139483600Y-76624200D01*
X139488600Y-76622200D01*
X139493600Y-76620200D01*
X139498600Y-76619200D01*
X139503600Y-76618200D01*
X139509600Y-76618200D01*
X139514600Y-76617200D01*
X139519600Y-76617200D01*
X140919600Y-76617200D01*
X140924600Y-76617200D01*
X140929600Y-76618200D01*
G36*
X140929600Y-76618200D02*
G01*
X140935600Y-76618200D01*
X140940600Y-76619200D01*
X140945600Y-76620200D01*
X140950600Y-76622200D01*
X140955600Y-76624200D01*
X140960600Y-76626200D01*
X140964600Y-76628200D01*
X140969600Y-76630200D01*
X140973600Y-76633200D01*
X140978600Y-76636200D01*
X140982600Y-76639200D01*
X140986600Y-76643200D01*
X140990600Y-76646200D01*
X140993600Y-76650200D01*
X140997600Y-76654200D01*
X141000600Y-76658200D01*
X141003600Y-76663200D01*
X141006600Y-76667200D01*
X141008600Y-76672200D01*
X141010600Y-76676200D01*
X141012600Y-76681200D01*
X141014600Y-76686200D01*
X141016600Y-76691200D01*
X141017600Y-76696200D01*
X141018600Y-76701200D01*
X141018600Y-76707200D01*
X141019600Y-76712200D01*
X141019600Y-76717200D01*
X141019600Y-77067200D01*
X141019600Y-77072200D01*
X141018600Y-77077200D01*
X141018600Y-77083200D01*
X141017600Y-77088200D01*
X141016600Y-77093200D01*
X141014600Y-77098200D01*
X141012600Y-77103200D01*
X141010600Y-77108200D01*
X141008600Y-77112200D01*
X141006600Y-77117200D01*
X141003600Y-77121200D01*
X141000600Y-77126200D01*
X140997600Y-77130200D01*
X140993600Y-77134200D01*
X140990600Y-77138200D01*
X140986600Y-77141200D01*
X140982600Y-77145200D01*
X140978600Y-77148200D01*
X140973600Y-77151200D01*
X140969600Y-77154200D01*
X140964600Y-77156200D01*
X140960600Y-77158200D01*
X140955600Y-77160200D01*
X140950600Y-77162200D01*
X140945600Y-77164200D01*
X140940600Y-77165200D01*
X140935600Y-77166200D01*
X140929600Y-77166200D01*
X140924600Y-77167200D01*
X140919600Y-77167200D01*
X139519600Y-77167200D01*
X139514600Y-77167200D01*
X139509600Y-77166200D01*
X139503600Y-77166200D01*
X139498600Y-77165200D01*
X139493600Y-77164200D01*
X139488600Y-77162200D01*
X139483600Y-77160200D01*
X139478600Y-77158200D01*
X139474600Y-77156200D01*
X139469600Y-77154200D01*
X139465600Y-77151200D01*
X139460600Y-77148200D01*
X139456600Y-77145200D01*
X139452600Y-77141200D01*
X139448600Y-77138200D01*
X139445600Y-77134200D01*
X139441600Y-77130200D01*
X139438600Y-77126200D01*
X139435600Y-77121200D01*
X139432600Y-77117200D01*
X139430600Y-77112200D01*
X139428600Y-77108200D01*
X139426600Y-77103200D01*
X139424600Y-77098200D01*
X139422600Y-77093200D01*
X139421600Y-77088200D01*
X139420600Y-77083200D01*
X139420600Y-77077200D01*
X139419600Y-77072200D01*
X139419600Y-77067200D01*
X139419600Y-76717200D01*
X139419600Y-76712200D01*
X139420600Y-76707200D01*
X139420600Y-76701200D01*
X139421600Y-76696200D01*
X139422600Y-76691200D01*
X139424600Y-76686200D01*
X139426600Y-76681200D01*
X139428600Y-76676200D01*
X139430600Y-76672200D01*
X139432600Y-76667200D01*
X139435600Y-76663200D01*
X139438600Y-76658200D01*
X139441600Y-76654200D01*
X139445600Y-76650200D01*
X139448600Y-76646200D01*
X139452600Y-76643200D01*
X139456600Y-76639200D01*
X139460600Y-76636200D01*
X139465600Y-76633200D01*
X139469600Y-76630200D01*
X139474600Y-76628200D01*
X139478600Y-76626200D01*
X139483600Y-76624200D01*
X139488600Y-76622200D01*
X139493600Y-76620200D01*
X139498600Y-76619200D01*
X139503600Y-76618200D01*
X139509600Y-76618200D01*
X139514600Y-76617200D01*
X139519600Y-76617200D01*
X140919600Y-76617200D01*
X140924600Y-76617200D01*
X140929600Y-76618200D01*
G37*
X140929600Y-77268200D02*
X140935600Y-77268200D01*
X140940600Y-77269200D01*
X140945600Y-77270200D01*
X140950600Y-77272200D01*
X140955600Y-77274200D01*
X140960600Y-77276200D01*
X140964600Y-77278200D01*
X140969600Y-77280200D01*
X140973600Y-77283200D01*
X140978600Y-77286200D01*
X140982600Y-77289200D01*
X140986600Y-77293200D01*
X140990600Y-77296200D01*
X140993600Y-77300200D01*
X140997600Y-77304200D01*
X141000600Y-77308200D01*
X141003600Y-77313200D01*
X141006600Y-77317200D01*
X141008600Y-77322200D01*
X141010600Y-77326200D01*
X141012600Y-77331200D01*
X141014600Y-77336200D01*
X141016600Y-77341200D01*
X141017600Y-77346200D01*
X141018600Y-77351200D01*
X141018600Y-77357200D01*
X141019600Y-77362200D01*
X141019600Y-77367200D01*
X141019600Y-77717200D01*
X141019600Y-77722200D01*
X141018600Y-77727200D01*
X141018600Y-77733200D01*
X141017600Y-77738200D01*
X141016600Y-77743200D01*
X141014600Y-77748200D01*
X141012600Y-77753200D01*
X141010600Y-77758200D01*
X141008600Y-77762200D01*
X141006600Y-77767200D01*
X141003600Y-77771200D01*
X141000600Y-77776200D01*
X140997600Y-77780200D01*
X140993600Y-77784200D01*
X140990600Y-77788200D01*
X140986600Y-77791200D01*
X140982600Y-77795200D01*
X140978600Y-77798200D01*
X140973600Y-77801200D01*
X140969600Y-77804200D01*
X140964600Y-77806200D01*
X140960600Y-77808200D01*
X140955600Y-77810200D01*
X140950600Y-77812200D01*
X140945600Y-77814200D01*
X140940600Y-77815200D01*
X140935600Y-77816200D01*
X140929600Y-77816200D01*
X140924600Y-77817200D01*
X140919600Y-77817200D01*
X139519600Y-77817200D01*
X139514600Y-77817200D01*
X139509600Y-77816200D01*
X139503600Y-77816200D01*
X139498600Y-77815200D01*
X139493600Y-77814200D01*
X139488600Y-77812200D01*
X139483600Y-77810200D01*
X139478600Y-77808200D01*
X139474600Y-77806200D01*
X139469600Y-77804200D01*
X139465600Y-77801200D01*
X139460600Y-77798200D01*
X139456600Y-77795200D01*
X139452600Y-77791200D01*
X139448600Y-77788200D01*
X139445600Y-77784200D01*
X139441600Y-77780200D01*
X139438600Y-77776200D01*
X139435600Y-77771200D01*
X139432600Y-77767200D01*
X139430600Y-77762200D01*
X139428600Y-77758200D01*
X139426600Y-77753200D01*
X139424600Y-77748200D01*
X139422600Y-77743200D01*
X139421600Y-77738200D01*
X139420600Y-77733200D01*
X139420600Y-77727200D01*
X139419600Y-77722200D01*
X139419600Y-77717200D01*
X139419600Y-77367200D01*
X139419600Y-77362200D01*
X139420600Y-77357200D01*
X139420600Y-77351200D01*
X139421600Y-77346200D01*
X139422600Y-77341200D01*
X139424600Y-77336200D01*
X139426600Y-77331200D01*
X139428600Y-77326200D01*
X139430600Y-77322200D01*
X139432600Y-77317200D01*
X139435600Y-77313200D01*
X139438600Y-77308200D01*
X139441600Y-77304200D01*
X139445600Y-77300200D01*
X139448600Y-77296200D01*
X139452600Y-77293200D01*
X139456600Y-77289200D01*
X139460600Y-77286200D01*
X139465600Y-77283200D01*
X139469600Y-77280200D01*
X139474600Y-77278200D01*
X139478600Y-77276200D01*
X139483600Y-77274200D01*
X139488600Y-77272200D01*
X139493600Y-77270200D01*
X139498600Y-77269200D01*
X139503600Y-77268200D01*
X139509600Y-77268200D01*
X139514600Y-77267200D01*
X139519600Y-77267200D01*
X140919600Y-77267200D01*
X140924600Y-77267200D01*
X140929600Y-77268200D01*
G36*
X140929600Y-77268200D02*
G01*
X140935600Y-77268200D01*
X140940600Y-77269200D01*
X140945600Y-77270200D01*
X140950600Y-77272200D01*
X140955600Y-77274200D01*
X140960600Y-77276200D01*
X140964600Y-77278200D01*
X140969600Y-77280200D01*
X140973600Y-77283200D01*
X140978600Y-77286200D01*
X140982600Y-77289200D01*
X140986600Y-77293200D01*
X140990600Y-77296200D01*
X140993600Y-77300200D01*
X140997600Y-77304200D01*
X141000600Y-77308200D01*
X141003600Y-77313200D01*
X141006600Y-77317200D01*
X141008600Y-77322200D01*
X141010600Y-77326200D01*
X141012600Y-77331200D01*
X141014600Y-77336200D01*
X141016600Y-77341200D01*
X141017600Y-77346200D01*
X141018600Y-77351200D01*
X141018600Y-77357200D01*
X141019600Y-77362200D01*
X141019600Y-77367200D01*
X141019600Y-77717200D01*
X141019600Y-77722200D01*
X141018600Y-77727200D01*
X141018600Y-77733200D01*
X141017600Y-77738200D01*
X141016600Y-77743200D01*
X141014600Y-77748200D01*
X141012600Y-77753200D01*
X141010600Y-77758200D01*
X141008600Y-77762200D01*
X141006600Y-77767200D01*
X141003600Y-77771200D01*
X141000600Y-77776200D01*
X140997600Y-77780200D01*
X140993600Y-77784200D01*
X140990600Y-77788200D01*
X140986600Y-77791200D01*
X140982600Y-77795200D01*
X140978600Y-77798200D01*
X140973600Y-77801200D01*
X140969600Y-77804200D01*
X140964600Y-77806200D01*
X140960600Y-77808200D01*
X140955600Y-77810200D01*
X140950600Y-77812200D01*
X140945600Y-77814200D01*
X140940600Y-77815200D01*
X140935600Y-77816200D01*
X140929600Y-77816200D01*
X140924600Y-77817200D01*
X140919600Y-77817200D01*
X139519600Y-77817200D01*
X139514600Y-77817200D01*
X139509600Y-77816200D01*
X139503600Y-77816200D01*
X139498600Y-77815200D01*
X139493600Y-77814200D01*
X139488600Y-77812200D01*
X139483600Y-77810200D01*
X139478600Y-77808200D01*
X139474600Y-77806200D01*
X139469600Y-77804200D01*
X139465600Y-77801200D01*
X139460600Y-77798200D01*
X139456600Y-77795200D01*
X139452600Y-77791200D01*
X139448600Y-77788200D01*
X139445600Y-77784200D01*
X139441600Y-77780200D01*
X139438600Y-77776200D01*
X139435600Y-77771200D01*
X139432600Y-77767200D01*
X139430600Y-77762200D01*
X139428600Y-77758200D01*
X139426600Y-77753200D01*
X139424600Y-77748200D01*
X139422600Y-77743200D01*
X139421600Y-77738200D01*
X139420600Y-77733200D01*
X139420600Y-77727200D01*
X139419600Y-77722200D01*
X139419600Y-77717200D01*
X139419600Y-77367200D01*
X139419600Y-77362200D01*
X139420600Y-77357200D01*
X139420600Y-77351200D01*
X139421600Y-77346200D01*
X139422600Y-77341200D01*
X139424600Y-77336200D01*
X139426600Y-77331200D01*
X139428600Y-77326200D01*
X139430600Y-77322200D01*
X139432600Y-77317200D01*
X139435600Y-77313200D01*
X139438600Y-77308200D01*
X139441600Y-77304200D01*
X139445600Y-77300200D01*
X139448600Y-77296200D01*
X139452600Y-77293200D01*
X139456600Y-77289200D01*
X139460600Y-77286200D01*
X139465600Y-77283200D01*
X139469600Y-77280200D01*
X139474600Y-77278200D01*
X139478600Y-77276200D01*
X139483600Y-77274200D01*
X139488600Y-77272200D01*
X139493600Y-77270200D01*
X139498600Y-77269200D01*
X139503600Y-77268200D01*
X139509600Y-77268200D01*
X139514600Y-77267200D01*
X139519600Y-77267200D01*
X140919600Y-77267200D01*
X140924600Y-77267200D01*
X140929600Y-77268200D01*
G37*
X140929600Y-77918200D02*
X140935600Y-77918200D01*
X140940600Y-77919200D01*
X140945600Y-77920200D01*
X140950600Y-77922200D01*
X140955600Y-77924200D01*
X140960600Y-77926200D01*
X140964600Y-77928200D01*
X140969600Y-77930200D01*
X140973600Y-77933200D01*
X140978600Y-77936200D01*
X140982600Y-77939200D01*
X140986600Y-77943200D01*
X140990600Y-77946200D01*
X140993600Y-77950200D01*
X140997600Y-77954200D01*
X141000600Y-77958200D01*
X141003600Y-77963200D01*
X141006600Y-77967200D01*
X141008600Y-77972200D01*
X141010600Y-77976200D01*
X141012600Y-77981200D01*
X141014600Y-77986200D01*
X141016600Y-77991200D01*
X141017600Y-77996200D01*
X141018600Y-78001200D01*
X141018600Y-78007200D01*
X141019600Y-78012200D01*
X141019600Y-78017200D01*
X141019600Y-78367200D01*
X141019600Y-78372200D01*
X141018600Y-78377200D01*
X141018600Y-78383200D01*
X141017600Y-78388200D01*
X141016600Y-78393200D01*
X141014600Y-78398200D01*
X141012600Y-78403200D01*
X141010600Y-78408200D01*
X141008600Y-78412200D01*
X141006600Y-78417200D01*
X141003600Y-78421200D01*
X141000600Y-78426200D01*
X140997600Y-78430200D01*
X140993600Y-78434200D01*
X140990600Y-78438200D01*
X140986600Y-78441200D01*
X140982600Y-78445200D01*
X140978600Y-78448200D01*
X140973600Y-78451200D01*
X140969600Y-78454200D01*
X140964600Y-78456200D01*
X140960600Y-78458200D01*
X140955600Y-78460200D01*
X140950600Y-78462200D01*
X140945600Y-78464200D01*
X140940600Y-78465200D01*
X140935600Y-78466200D01*
X140929600Y-78466200D01*
X140924600Y-78467200D01*
X140919600Y-78467200D01*
X139519600Y-78467200D01*
X139514600Y-78467200D01*
X139509600Y-78466200D01*
X139503600Y-78466200D01*
X139498600Y-78465200D01*
X139493600Y-78464200D01*
X139488600Y-78462200D01*
X139483600Y-78460200D01*
X139478600Y-78458200D01*
X139474600Y-78456200D01*
X139469600Y-78454200D01*
X139465600Y-78451200D01*
X139460600Y-78448200D01*
X139456600Y-78445200D01*
X139452600Y-78441200D01*
X139448600Y-78438200D01*
X139445600Y-78434200D01*
X139441600Y-78430200D01*
X139438600Y-78426200D01*
X139435600Y-78421200D01*
X139432600Y-78417200D01*
X139430600Y-78412200D01*
X139428600Y-78408200D01*
X139426600Y-78403200D01*
X139424600Y-78398200D01*
X139422600Y-78393200D01*
X139421600Y-78388200D01*
X139420600Y-78383200D01*
X139420600Y-78377200D01*
X139419600Y-78372200D01*
X139419600Y-78367200D01*
X139419600Y-78017200D01*
X139419600Y-78012200D01*
X139420600Y-78007200D01*
X139420600Y-78001200D01*
X139421600Y-77996200D01*
X139422600Y-77991200D01*
X139424600Y-77986200D01*
X139426600Y-77981200D01*
X139428600Y-77976200D01*
X139430600Y-77972200D01*
X139432600Y-77967200D01*
X139435600Y-77963200D01*
X139438600Y-77958200D01*
X139441600Y-77954200D01*
X139445600Y-77950200D01*
X139448600Y-77946200D01*
X139452600Y-77943200D01*
X139456600Y-77939200D01*
X139460600Y-77936200D01*
X139465600Y-77933200D01*
X139469600Y-77930200D01*
X139474600Y-77928200D01*
X139478600Y-77926200D01*
X139483600Y-77924200D01*
X139488600Y-77922200D01*
X139493600Y-77920200D01*
X139498600Y-77919200D01*
X139503600Y-77918200D01*
X139509600Y-77918200D01*
X139514600Y-77917200D01*
X139519600Y-77917200D01*
X140919600Y-77917200D01*
X140924600Y-77917200D01*
X140929600Y-77918200D01*
G36*
X140929600Y-77918200D02*
G01*
X140935600Y-77918200D01*
X140940600Y-77919200D01*
X140945600Y-77920200D01*
X140950600Y-77922200D01*
X140955600Y-77924200D01*
X140960600Y-77926200D01*
X140964600Y-77928200D01*
X140969600Y-77930200D01*
X140973600Y-77933200D01*
X140978600Y-77936200D01*
X140982600Y-77939200D01*
X140986600Y-77943200D01*
X140990600Y-77946200D01*
X140993600Y-77950200D01*
X140997600Y-77954200D01*
X141000600Y-77958200D01*
X141003600Y-77963200D01*
X141006600Y-77967200D01*
X141008600Y-77972200D01*
X141010600Y-77976200D01*
X141012600Y-77981200D01*
X141014600Y-77986200D01*
X141016600Y-77991200D01*
X141017600Y-77996200D01*
X141018600Y-78001200D01*
X141018600Y-78007200D01*
X141019600Y-78012200D01*
X141019600Y-78017200D01*
X141019600Y-78367200D01*
X141019600Y-78372200D01*
X141018600Y-78377200D01*
X141018600Y-78383200D01*
X141017600Y-78388200D01*
X141016600Y-78393200D01*
X141014600Y-78398200D01*
X141012600Y-78403200D01*
X141010600Y-78408200D01*
X141008600Y-78412200D01*
X141006600Y-78417200D01*
X141003600Y-78421200D01*
X141000600Y-78426200D01*
X140997600Y-78430200D01*
X140993600Y-78434200D01*
X140990600Y-78438200D01*
X140986600Y-78441200D01*
X140982600Y-78445200D01*
X140978600Y-78448200D01*
X140973600Y-78451200D01*
X140969600Y-78454200D01*
X140964600Y-78456200D01*
X140960600Y-78458200D01*
X140955600Y-78460200D01*
X140950600Y-78462200D01*
X140945600Y-78464200D01*
X140940600Y-78465200D01*
X140935600Y-78466200D01*
X140929600Y-78466200D01*
X140924600Y-78467200D01*
X140919600Y-78467200D01*
X139519600Y-78467200D01*
X139514600Y-78467200D01*
X139509600Y-78466200D01*
X139503600Y-78466200D01*
X139498600Y-78465200D01*
X139493600Y-78464200D01*
X139488600Y-78462200D01*
X139483600Y-78460200D01*
X139478600Y-78458200D01*
X139474600Y-78456200D01*
X139469600Y-78454200D01*
X139465600Y-78451200D01*
X139460600Y-78448200D01*
X139456600Y-78445200D01*
X139452600Y-78441200D01*
X139448600Y-78438200D01*
X139445600Y-78434200D01*
X139441600Y-78430200D01*
X139438600Y-78426200D01*
X139435600Y-78421200D01*
X139432600Y-78417200D01*
X139430600Y-78412200D01*
X139428600Y-78408200D01*
X139426600Y-78403200D01*
X139424600Y-78398200D01*
X139422600Y-78393200D01*
X139421600Y-78388200D01*
X139420600Y-78383200D01*
X139420600Y-78377200D01*
X139419600Y-78372200D01*
X139419600Y-78367200D01*
X139419600Y-78017200D01*
X139419600Y-78012200D01*
X139420600Y-78007200D01*
X139420600Y-78001200D01*
X139421600Y-77996200D01*
X139422600Y-77991200D01*
X139424600Y-77986200D01*
X139426600Y-77981200D01*
X139428600Y-77976200D01*
X139430600Y-77972200D01*
X139432600Y-77967200D01*
X139435600Y-77963200D01*
X139438600Y-77958200D01*
X139441600Y-77954200D01*
X139445600Y-77950200D01*
X139448600Y-77946200D01*
X139452600Y-77943200D01*
X139456600Y-77939200D01*
X139460600Y-77936200D01*
X139465600Y-77933200D01*
X139469600Y-77930200D01*
X139474600Y-77928200D01*
X139478600Y-77926200D01*
X139483600Y-77924200D01*
X139488600Y-77922200D01*
X139493600Y-77920200D01*
X139498600Y-77919200D01*
X139503600Y-77918200D01*
X139509600Y-77918200D01*
X139514600Y-77917200D01*
X139519600Y-77917200D01*
X140919600Y-77917200D01*
X140924600Y-77917200D01*
X140929600Y-77918200D01*
G37*
X144327600Y-74598200D02*
X144329600Y-74598200D01*
X144332600Y-74599200D01*
X144334600Y-74599200D01*
X144337600Y-74600200D01*
X144339600Y-74601200D01*
X144342600Y-74602200D01*
X144344600Y-74604200D01*
X144346600Y-74605200D01*
X144348600Y-74607200D01*
X144350600Y-74608200D01*
X144352600Y-74610200D01*
X144354600Y-74612200D01*
X144356600Y-74614200D01*
X144358600Y-74616200D01*
X144359600Y-74618200D01*
X144361600Y-74620200D01*
X144362600Y-74622200D01*
X144364600Y-74624200D01*
X144365600Y-74627200D01*
X144366600Y-74629200D01*
X144367600Y-74632200D01*
X144367600Y-74634200D01*
X144368600Y-74637200D01*
X144368600Y-74639200D01*
X144369600Y-74642200D01*
X144369600Y-74644200D01*
X144369600Y-74647200D01*
X144369600Y-77187200D01*
X144369600Y-77190200D01*
X144369600Y-77192200D01*
X144368600Y-77195200D01*
X144368600Y-77197200D01*
X144367600Y-77200200D01*
X144367600Y-77202200D01*
X144366600Y-77205200D01*
X144365600Y-77207200D01*
X144364600Y-77210200D01*
X144362600Y-77212200D01*
X144361600Y-77214200D01*
X144359600Y-77216200D01*
X144358600Y-77218200D01*
X144356600Y-77220200D01*
X144354600Y-77222200D01*
X144352600Y-77224200D01*
X144350600Y-77226200D01*
X144348600Y-77227200D01*
X144346600Y-77229200D01*
X144344600Y-77230200D01*
X144342600Y-77232200D01*
X144339600Y-77233200D01*
X144337600Y-77234200D01*
X144334600Y-77235200D01*
X144332600Y-77235200D01*
X144329600Y-77236200D01*
X144327600Y-77236200D01*
X144324600Y-77237200D01*
X144322600Y-77237200D01*
X144319600Y-77237200D01*
X141919600Y-77237200D01*
X141916600Y-77237200D01*
X141914600Y-77237200D01*
X141911600Y-77236200D01*
X141909600Y-77236200D01*
X141906600Y-77235200D01*
X141904600Y-77235200D01*
X141901600Y-77234200D01*
X141899600Y-77233200D01*
X141896600Y-77232200D01*
X141894600Y-77230200D01*
X141892600Y-77229200D01*
X141890600Y-77227200D01*
X141888600Y-77226200D01*
X141886600Y-77224200D01*
X141884600Y-77222200D01*
X141882600Y-77220200D01*
X141880600Y-77218200D01*
X141879600Y-77216200D01*
X141877600Y-77214200D01*
X141876600Y-77212200D01*
X141874600Y-77210200D01*
X141873600Y-77207200D01*
X141872600Y-77205200D01*
X141871600Y-77202200D01*
X141871600Y-77200200D01*
X141870600Y-77197200D01*
X141870600Y-77195200D01*
X141869600Y-77192200D01*
X141869600Y-77190200D01*
X141869600Y-77187200D01*
X141869600Y-74647200D01*
X141869600Y-74644200D01*
X141869600Y-74642200D01*
X141870600Y-74639200D01*
X141870600Y-74637200D01*
X141871600Y-74634200D01*
X141871600Y-74632200D01*
X141872600Y-74629200D01*
X141873600Y-74627200D01*
X141874600Y-74624200D01*
X141876600Y-74622200D01*
X141877600Y-74620200D01*
X141879600Y-74618200D01*
X141880600Y-74616200D01*
X141882600Y-74614200D01*
X141884600Y-74612200D01*
X141886600Y-74610200D01*
X141888600Y-74608200D01*
X141890600Y-74607200D01*
X141892600Y-74605200D01*
X141894600Y-74604200D01*
X141896600Y-74602200D01*
X141899600Y-74601200D01*
X141901600Y-74600200D01*
X141904600Y-74599200D01*
X141906600Y-74599200D01*
X141909600Y-74598200D01*
X141911600Y-74598200D01*
X141914600Y-74597200D01*
X141916600Y-74597200D01*
X141919600Y-74597200D01*
X144319600Y-74597200D01*
X144322600Y-74597200D01*
X144324600Y-74597200D01*
X144327600Y-74598200D01*
G36*
X144327600Y-74598200D02*
G01*
X144329600Y-74598200D01*
X144332600Y-74599200D01*
X144334600Y-74599200D01*
X144337600Y-74600200D01*
X144339600Y-74601200D01*
X144342600Y-74602200D01*
X144344600Y-74604200D01*
X144346600Y-74605200D01*
X144348600Y-74607200D01*
X144350600Y-74608200D01*
X144352600Y-74610200D01*
X144354600Y-74612200D01*
X144356600Y-74614200D01*
X144358600Y-74616200D01*
X144359600Y-74618200D01*
X144361600Y-74620200D01*
X144362600Y-74622200D01*
X144364600Y-74624200D01*
X144365600Y-74627200D01*
X144366600Y-74629200D01*
X144367600Y-74632200D01*
X144367600Y-74634200D01*
X144368600Y-74637200D01*
X144368600Y-74639200D01*
X144369600Y-74642200D01*
X144369600Y-74644200D01*
X144369600Y-74647200D01*
X144369600Y-77187200D01*
X144369600Y-77190200D01*
X144369600Y-77192200D01*
X144368600Y-77195200D01*
X144368600Y-77197200D01*
X144367600Y-77200200D01*
X144367600Y-77202200D01*
X144366600Y-77205200D01*
X144365600Y-77207200D01*
X144364600Y-77210200D01*
X144362600Y-77212200D01*
X144361600Y-77214200D01*
X144359600Y-77216200D01*
X144358600Y-77218200D01*
X144356600Y-77220200D01*
X144354600Y-77222200D01*
X144352600Y-77224200D01*
X144350600Y-77226200D01*
X144348600Y-77227200D01*
X144346600Y-77229200D01*
X144344600Y-77230200D01*
X144342600Y-77232200D01*
X144339600Y-77233200D01*
X144337600Y-77234200D01*
X144334600Y-77235200D01*
X144332600Y-77235200D01*
X144329600Y-77236200D01*
X144327600Y-77236200D01*
X144324600Y-77237200D01*
X144322600Y-77237200D01*
X144319600Y-77237200D01*
X141919600Y-77237200D01*
X141916600Y-77237200D01*
X141914600Y-77237200D01*
X141911600Y-77236200D01*
X141909600Y-77236200D01*
X141906600Y-77235200D01*
X141904600Y-77235200D01*
X141901600Y-77234200D01*
X141899600Y-77233200D01*
X141896600Y-77232200D01*
X141894600Y-77230200D01*
X141892600Y-77229200D01*
X141890600Y-77227200D01*
X141888600Y-77226200D01*
X141886600Y-77224200D01*
X141884600Y-77222200D01*
X141882600Y-77220200D01*
X141880600Y-77218200D01*
X141879600Y-77216200D01*
X141877600Y-77214200D01*
X141876600Y-77212200D01*
X141874600Y-77210200D01*
X141873600Y-77207200D01*
X141872600Y-77205200D01*
X141871600Y-77202200D01*
X141871600Y-77200200D01*
X141870600Y-77197200D01*
X141870600Y-77195200D01*
X141869600Y-77192200D01*
X141869600Y-77190200D01*
X141869600Y-77187200D01*
X141869600Y-74647200D01*
X141869600Y-74644200D01*
X141869600Y-74642200D01*
X141870600Y-74639200D01*
X141870600Y-74637200D01*
X141871600Y-74634200D01*
X141871600Y-74632200D01*
X141872600Y-74629200D01*
X141873600Y-74627200D01*
X141874600Y-74624200D01*
X141876600Y-74622200D01*
X141877600Y-74620200D01*
X141879600Y-74618200D01*
X141880600Y-74616200D01*
X141882600Y-74614200D01*
X141884600Y-74612200D01*
X141886600Y-74610200D01*
X141888600Y-74608200D01*
X141890600Y-74607200D01*
X141892600Y-74605200D01*
X141894600Y-74604200D01*
X141896600Y-74602200D01*
X141899600Y-74601200D01*
X141901600Y-74600200D01*
X141904600Y-74599200D01*
X141906600Y-74599200D01*
X141909600Y-74598200D01*
X141911600Y-74598200D01*
X141914600Y-74597200D01*
X141916600Y-74597200D01*
X141919600Y-74597200D01*
X144319600Y-74597200D01*
X144322600Y-74597200D01*
X144324600Y-74597200D01*
X144327600Y-74598200D01*
G37*
X146729600Y-73368200D02*
X146735600Y-73368200D01*
X146740600Y-73369200D01*
X146745600Y-73370200D01*
X146750600Y-73372200D01*
X146755600Y-73374200D01*
X146760600Y-73376200D01*
X146764600Y-73378200D01*
X146769600Y-73380200D01*
X146773600Y-73383200D01*
X146778600Y-73386200D01*
X146782600Y-73389200D01*
X146786600Y-73393200D01*
X146790600Y-73396200D01*
X146793600Y-73400200D01*
X146797600Y-73404200D01*
X146800600Y-73408200D01*
X146803600Y-73413200D01*
X146806600Y-73417200D01*
X146808600Y-73422200D01*
X146810600Y-73426200D01*
X146812600Y-73431200D01*
X146814600Y-73436200D01*
X146816600Y-73441200D01*
X146817600Y-73446200D01*
X146818600Y-73451200D01*
X146818600Y-73457200D01*
X146819600Y-73462200D01*
X146819600Y-73467200D01*
X146819600Y-73817200D01*
X146819600Y-73822200D01*
X146818600Y-73827200D01*
X146818600Y-73833200D01*
X146817600Y-73838200D01*
X146816600Y-73843200D01*
X146814600Y-73848200D01*
X146812600Y-73853200D01*
X146810600Y-73858200D01*
X146808600Y-73862200D01*
X146806600Y-73867200D01*
X146803600Y-73871200D01*
X146800600Y-73876200D01*
X146797600Y-73880200D01*
X146793600Y-73884200D01*
X146790600Y-73888200D01*
X146786600Y-73891200D01*
X146782600Y-73895200D01*
X146778600Y-73898200D01*
X146773600Y-73901200D01*
X146769600Y-73904200D01*
X146764600Y-73906200D01*
X146760600Y-73908200D01*
X146755600Y-73910200D01*
X146750600Y-73912200D01*
X146745600Y-73914200D01*
X146740600Y-73915200D01*
X146735600Y-73916200D01*
X146729600Y-73916200D01*
X146724600Y-73917200D01*
X146719600Y-73917200D01*
X145319600Y-73917200D01*
X145314600Y-73917200D01*
X145309600Y-73916200D01*
X145303600Y-73916200D01*
X145298600Y-73915200D01*
X145293600Y-73914200D01*
X145288600Y-73912200D01*
X145283600Y-73910200D01*
X145278600Y-73908200D01*
X145274600Y-73906200D01*
X145269600Y-73904200D01*
X145265600Y-73901200D01*
X145260600Y-73898200D01*
X145256600Y-73895200D01*
X145252600Y-73891200D01*
X145248600Y-73888200D01*
X145245600Y-73884200D01*
X145241600Y-73880200D01*
X145238600Y-73876200D01*
X145235600Y-73871200D01*
X145232600Y-73867200D01*
X145230600Y-73862200D01*
X145228600Y-73858200D01*
X145226600Y-73853200D01*
X145224600Y-73848200D01*
X145222600Y-73843200D01*
X145221600Y-73838200D01*
X145220600Y-73833200D01*
X145220600Y-73827200D01*
X145219600Y-73822200D01*
X145219600Y-73817200D01*
X145219600Y-73467200D01*
X145219600Y-73462200D01*
X145220600Y-73457200D01*
X145220600Y-73451200D01*
X145221600Y-73446200D01*
X145222600Y-73441200D01*
X145224600Y-73436200D01*
X145226600Y-73431200D01*
X145228600Y-73426200D01*
X145230600Y-73422200D01*
X145232600Y-73417200D01*
X145235600Y-73413200D01*
X145238600Y-73408200D01*
X145241600Y-73404200D01*
X145245600Y-73400200D01*
X145248600Y-73396200D01*
X145252600Y-73393200D01*
X145256600Y-73389200D01*
X145260600Y-73386200D01*
X145265600Y-73383200D01*
X145269600Y-73380200D01*
X145274600Y-73378200D01*
X145278600Y-73376200D01*
X145283600Y-73374200D01*
X145288600Y-73372200D01*
X145293600Y-73370200D01*
X145298600Y-73369200D01*
X145303600Y-73368200D01*
X145309600Y-73368200D01*
X145314600Y-73367200D01*
X145319600Y-73367200D01*
X146719600Y-73367200D01*
X146724600Y-73367200D01*
X146729600Y-73368200D01*
G36*
X146729600Y-73368200D02*
G01*
X146735600Y-73368200D01*
X146740600Y-73369200D01*
X146745600Y-73370200D01*
X146750600Y-73372200D01*
X146755600Y-73374200D01*
X146760600Y-73376200D01*
X146764600Y-73378200D01*
X146769600Y-73380200D01*
X146773600Y-73383200D01*
X146778600Y-73386200D01*
X146782600Y-73389200D01*
X146786600Y-73393200D01*
X146790600Y-73396200D01*
X146793600Y-73400200D01*
X146797600Y-73404200D01*
X146800600Y-73408200D01*
X146803600Y-73413200D01*
X146806600Y-73417200D01*
X146808600Y-73422200D01*
X146810600Y-73426200D01*
X146812600Y-73431200D01*
X146814600Y-73436200D01*
X146816600Y-73441200D01*
X146817600Y-73446200D01*
X146818600Y-73451200D01*
X146818600Y-73457200D01*
X146819600Y-73462200D01*
X146819600Y-73467200D01*
X146819600Y-73817200D01*
X146819600Y-73822200D01*
X146818600Y-73827200D01*
X146818600Y-73833200D01*
X146817600Y-73838200D01*
X146816600Y-73843200D01*
X146814600Y-73848200D01*
X146812600Y-73853200D01*
X146810600Y-73858200D01*
X146808600Y-73862200D01*
X146806600Y-73867200D01*
X146803600Y-73871200D01*
X146800600Y-73876200D01*
X146797600Y-73880200D01*
X146793600Y-73884200D01*
X146790600Y-73888200D01*
X146786600Y-73891200D01*
X146782600Y-73895200D01*
X146778600Y-73898200D01*
X146773600Y-73901200D01*
X146769600Y-73904200D01*
X146764600Y-73906200D01*
X146760600Y-73908200D01*
X146755600Y-73910200D01*
X146750600Y-73912200D01*
X146745600Y-73914200D01*
X146740600Y-73915200D01*
X146735600Y-73916200D01*
X146729600Y-73916200D01*
X146724600Y-73917200D01*
X146719600Y-73917200D01*
X145319600Y-73917200D01*
X145314600Y-73917200D01*
X145309600Y-73916200D01*
X145303600Y-73916200D01*
X145298600Y-73915200D01*
X145293600Y-73914200D01*
X145288600Y-73912200D01*
X145283600Y-73910200D01*
X145278600Y-73908200D01*
X145274600Y-73906200D01*
X145269600Y-73904200D01*
X145265600Y-73901200D01*
X145260600Y-73898200D01*
X145256600Y-73895200D01*
X145252600Y-73891200D01*
X145248600Y-73888200D01*
X145245600Y-73884200D01*
X145241600Y-73880200D01*
X145238600Y-73876200D01*
X145235600Y-73871200D01*
X145232600Y-73867200D01*
X145230600Y-73862200D01*
X145228600Y-73858200D01*
X145226600Y-73853200D01*
X145224600Y-73848200D01*
X145222600Y-73843200D01*
X145221600Y-73838200D01*
X145220600Y-73833200D01*
X145220600Y-73827200D01*
X145219600Y-73822200D01*
X145219600Y-73817200D01*
X145219600Y-73467200D01*
X145219600Y-73462200D01*
X145220600Y-73457200D01*
X145220600Y-73451200D01*
X145221600Y-73446200D01*
X145222600Y-73441200D01*
X145224600Y-73436200D01*
X145226600Y-73431200D01*
X145228600Y-73426200D01*
X145230600Y-73422200D01*
X145232600Y-73417200D01*
X145235600Y-73413200D01*
X145238600Y-73408200D01*
X145241600Y-73404200D01*
X145245600Y-73400200D01*
X145248600Y-73396200D01*
X145252600Y-73393200D01*
X145256600Y-73389200D01*
X145260600Y-73386200D01*
X145265600Y-73383200D01*
X145269600Y-73380200D01*
X145274600Y-73378200D01*
X145278600Y-73376200D01*
X145283600Y-73374200D01*
X145288600Y-73372200D01*
X145293600Y-73370200D01*
X145298600Y-73369200D01*
X145303600Y-73368200D01*
X145309600Y-73368200D01*
X145314600Y-73367200D01*
X145319600Y-73367200D01*
X146719600Y-73367200D01*
X146724600Y-73367200D01*
X146729600Y-73368200D01*
G37*
X146729600Y-74018200D02*
X146735600Y-74018200D01*
X146740600Y-74019200D01*
X146745600Y-74020200D01*
X146750600Y-74022200D01*
X146755600Y-74024200D01*
X146760600Y-74026200D01*
X146764600Y-74028200D01*
X146769600Y-74030200D01*
X146773600Y-74033200D01*
X146778600Y-74036200D01*
X146782600Y-74039200D01*
X146786600Y-74043200D01*
X146790600Y-74046200D01*
X146793600Y-74050200D01*
X146797600Y-74054200D01*
X146800600Y-74058200D01*
X146803600Y-74063200D01*
X146806600Y-74067200D01*
X146808600Y-74072200D01*
X146810600Y-74076200D01*
X146812600Y-74081200D01*
X146814600Y-74086200D01*
X146816600Y-74091200D01*
X146817600Y-74096200D01*
X146818600Y-74101200D01*
X146818600Y-74107200D01*
X146819600Y-74112200D01*
X146819600Y-74117200D01*
X146819600Y-74467200D01*
X146819600Y-74472200D01*
X146818600Y-74477200D01*
X146818600Y-74483200D01*
X146817600Y-74488200D01*
X146816600Y-74493200D01*
X146814600Y-74498200D01*
X146812600Y-74503200D01*
X146810600Y-74508200D01*
X146808600Y-74512200D01*
X146806600Y-74517200D01*
X146803600Y-74521200D01*
X146800600Y-74526200D01*
X146797600Y-74530200D01*
X146793600Y-74534200D01*
X146790600Y-74538200D01*
X146786600Y-74541200D01*
X146782600Y-74545200D01*
X146778600Y-74548200D01*
X146773600Y-74551200D01*
X146769600Y-74554200D01*
X146764600Y-74556200D01*
X146760600Y-74558200D01*
X146755600Y-74560200D01*
X146750600Y-74562200D01*
X146745600Y-74564200D01*
X146740600Y-74565200D01*
X146735600Y-74566200D01*
X146729600Y-74566200D01*
X146724600Y-74567200D01*
X146719600Y-74567200D01*
X145319600Y-74567200D01*
X145314600Y-74567200D01*
X145309600Y-74566200D01*
X145303600Y-74566200D01*
X145298600Y-74565200D01*
X145293600Y-74564200D01*
X145288600Y-74562200D01*
X145283600Y-74560200D01*
X145278600Y-74558200D01*
X145274600Y-74556200D01*
X145269600Y-74554200D01*
X145265600Y-74551200D01*
X145260600Y-74548200D01*
X145256600Y-74545200D01*
X145252600Y-74541200D01*
X145248600Y-74538200D01*
X145245600Y-74534200D01*
X145241600Y-74530200D01*
X145238600Y-74526200D01*
X145235600Y-74521200D01*
X145232600Y-74517200D01*
X145230600Y-74512200D01*
X145228600Y-74508200D01*
X145226600Y-74503200D01*
X145224600Y-74498200D01*
X145222600Y-74493200D01*
X145221600Y-74488200D01*
X145220600Y-74483200D01*
X145220600Y-74477200D01*
X145219600Y-74472200D01*
X145219600Y-74467200D01*
X145219600Y-74117200D01*
X145219600Y-74112200D01*
X145220600Y-74107200D01*
X145220600Y-74101200D01*
X145221600Y-74096200D01*
X145222600Y-74091200D01*
X145224600Y-74086200D01*
X145226600Y-74081200D01*
X145228600Y-74076200D01*
X145230600Y-74072200D01*
X145232600Y-74067200D01*
X145235600Y-74063200D01*
X145238600Y-74058200D01*
X145241600Y-74054200D01*
X145245600Y-74050200D01*
X145248600Y-74046200D01*
X145252600Y-74043200D01*
X145256600Y-74039200D01*
X145260600Y-74036200D01*
X145265600Y-74033200D01*
X145269600Y-74030200D01*
X145274600Y-74028200D01*
X145278600Y-74026200D01*
X145283600Y-74024200D01*
X145288600Y-74022200D01*
X145293600Y-74020200D01*
X145298600Y-74019200D01*
X145303600Y-74018200D01*
X145309600Y-74018200D01*
X145314600Y-74017200D01*
X145319600Y-74017200D01*
X146719600Y-74017200D01*
X146724600Y-74017200D01*
X146729600Y-74018200D01*
G36*
X146729600Y-74018200D02*
G01*
X146735600Y-74018200D01*
X146740600Y-74019200D01*
X146745600Y-74020200D01*
X146750600Y-74022200D01*
X146755600Y-74024200D01*
X146760600Y-74026200D01*
X146764600Y-74028200D01*
X146769600Y-74030200D01*
X146773600Y-74033200D01*
X146778600Y-74036200D01*
X146782600Y-74039200D01*
X146786600Y-74043200D01*
X146790600Y-74046200D01*
X146793600Y-74050200D01*
X146797600Y-74054200D01*
X146800600Y-74058200D01*
X146803600Y-74063200D01*
X146806600Y-74067200D01*
X146808600Y-74072200D01*
X146810600Y-74076200D01*
X146812600Y-74081200D01*
X146814600Y-74086200D01*
X146816600Y-74091200D01*
X146817600Y-74096200D01*
X146818600Y-74101200D01*
X146818600Y-74107200D01*
X146819600Y-74112200D01*
X146819600Y-74117200D01*
X146819600Y-74467200D01*
X146819600Y-74472200D01*
X146818600Y-74477200D01*
X146818600Y-74483200D01*
X146817600Y-74488200D01*
X146816600Y-74493200D01*
X146814600Y-74498200D01*
X146812600Y-74503200D01*
X146810600Y-74508200D01*
X146808600Y-74512200D01*
X146806600Y-74517200D01*
X146803600Y-74521200D01*
X146800600Y-74526200D01*
X146797600Y-74530200D01*
X146793600Y-74534200D01*
X146790600Y-74538200D01*
X146786600Y-74541200D01*
X146782600Y-74545200D01*
X146778600Y-74548200D01*
X146773600Y-74551200D01*
X146769600Y-74554200D01*
X146764600Y-74556200D01*
X146760600Y-74558200D01*
X146755600Y-74560200D01*
X146750600Y-74562200D01*
X146745600Y-74564200D01*
X146740600Y-74565200D01*
X146735600Y-74566200D01*
X146729600Y-74566200D01*
X146724600Y-74567200D01*
X146719600Y-74567200D01*
X145319600Y-74567200D01*
X145314600Y-74567200D01*
X145309600Y-74566200D01*
X145303600Y-74566200D01*
X145298600Y-74565200D01*
X145293600Y-74564200D01*
X145288600Y-74562200D01*
X145283600Y-74560200D01*
X145278600Y-74558200D01*
X145274600Y-74556200D01*
X145269600Y-74554200D01*
X145265600Y-74551200D01*
X145260600Y-74548200D01*
X145256600Y-74545200D01*
X145252600Y-74541200D01*
X145248600Y-74538200D01*
X145245600Y-74534200D01*
X145241600Y-74530200D01*
X145238600Y-74526200D01*
X145235600Y-74521200D01*
X145232600Y-74517200D01*
X145230600Y-74512200D01*
X145228600Y-74508200D01*
X145226600Y-74503200D01*
X145224600Y-74498200D01*
X145222600Y-74493200D01*
X145221600Y-74488200D01*
X145220600Y-74483200D01*
X145220600Y-74477200D01*
X145219600Y-74472200D01*
X145219600Y-74467200D01*
X145219600Y-74117200D01*
X145219600Y-74112200D01*
X145220600Y-74107200D01*
X145220600Y-74101200D01*
X145221600Y-74096200D01*
X145222600Y-74091200D01*
X145224600Y-74086200D01*
X145226600Y-74081200D01*
X145228600Y-74076200D01*
X145230600Y-74072200D01*
X145232600Y-74067200D01*
X145235600Y-74063200D01*
X145238600Y-74058200D01*
X145241600Y-74054200D01*
X145245600Y-74050200D01*
X145248600Y-74046200D01*
X145252600Y-74043200D01*
X145256600Y-74039200D01*
X145260600Y-74036200D01*
X145265600Y-74033200D01*
X145269600Y-74030200D01*
X145274600Y-74028200D01*
X145278600Y-74026200D01*
X145283600Y-74024200D01*
X145288600Y-74022200D01*
X145293600Y-74020200D01*
X145298600Y-74019200D01*
X145303600Y-74018200D01*
X145309600Y-74018200D01*
X145314600Y-74017200D01*
X145319600Y-74017200D01*
X146719600Y-74017200D01*
X146724600Y-74017200D01*
X146729600Y-74018200D01*
G37*
X146729600Y-74668200D02*
X146735600Y-74668200D01*
X146740600Y-74669200D01*
X146745600Y-74670200D01*
X146750600Y-74672200D01*
X146755600Y-74674200D01*
X146760600Y-74676200D01*
X146764600Y-74678200D01*
X146769600Y-74680200D01*
X146773600Y-74683200D01*
X146778600Y-74686200D01*
X146782600Y-74689200D01*
X146786600Y-74693200D01*
X146790600Y-74696200D01*
X146793600Y-74700200D01*
X146797600Y-74704200D01*
X146800600Y-74708200D01*
X146803600Y-74713200D01*
X146806600Y-74717200D01*
X146808600Y-74722200D01*
X146810600Y-74726200D01*
X146812600Y-74731200D01*
X146814600Y-74736200D01*
X146816600Y-74741200D01*
X146817600Y-74746200D01*
X146818600Y-74751200D01*
X146818600Y-74757200D01*
X146819600Y-74762200D01*
X146819600Y-74767200D01*
X146819600Y-75117200D01*
X146819600Y-75122200D01*
X146818600Y-75127200D01*
X146818600Y-75133200D01*
X146817600Y-75138200D01*
X146816600Y-75143200D01*
X146814600Y-75148200D01*
X146812600Y-75153200D01*
X146810600Y-75158200D01*
X146808600Y-75162200D01*
X146806600Y-75167200D01*
X146803600Y-75171200D01*
X146800600Y-75176200D01*
X146797600Y-75180200D01*
X146793600Y-75184200D01*
X146790600Y-75188200D01*
X146786600Y-75191200D01*
X146782600Y-75195200D01*
X146778600Y-75198200D01*
X146773600Y-75201200D01*
X146769600Y-75204200D01*
X146764600Y-75206200D01*
X146760600Y-75208200D01*
X146755600Y-75210200D01*
X146750600Y-75212200D01*
X146745600Y-75214200D01*
X146740600Y-75215200D01*
X146735600Y-75216200D01*
X146729600Y-75216200D01*
X146724600Y-75217200D01*
X146719600Y-75217200D01*
X145319600Y-75217200D01*
X145314600Y-75217200D01*
X145309600Y-75216200D01*
X145303600Y-75216200D01*
X145298600Y-75215200D01*
X145293600Y-75214200D01*
X145288600Y-75212200D01*
X145283600Y-75210200D01*
X145278600Y-75208200D01*
X145274600Y-75206200D01*
X145269600Y-75204200D01*
X145265600Y-75201200D01*
X145260600Y-75198200D01*
X145256600Y-75195200D01*
X145252600Y-75191200D01*
X145248600Y-75188200D01*
X145245600Y-75184200D01*
X145241600Y-75180200D01*
X145238600Y-75176200D01*
X145235600Y-75171200D01*
X145232600Y-75167200D01*
X145230600Y-75162200D01*
X145228600Y-75158200D01*
X145226600Y-75153200D01*
X145224600Y-75148200D01*
X145222600Y-75143200D01*
X145221600Y-75138200D01*
X145220600Y-75133200D01*
X145220600Y-75127200D01*
X145219600Y-75122200D01*
X145219600Y-75117200D01*
X145219600Y-74767200D01*
X145219600Y-74762200D01*
X145220600Y-74757200D01*
X145220600Y-74751200D01*
X145221600Y-74746200D01*
X145222600Y-74741200D01*
X145224600Y-74736200D01*
X145226600Y-74731200D01*
X145228600Y-74726200D01*
X145230600Y-74722200D01*
X145232600Y-74717200D01*
X145235600Y-74713200D01*
X145238600Y-74708200D01*
X145241600Y-74704200D01*
X145245600Y-74700200D01*
X145248600Y-74696200D01*
X145252600Y-74693200D01*
X145256600Y-74689200D01*
X145260600Y-74686200D01*
X145265600Y-74683200D01*
X145269600Y-74680200D01*
X145274600Y-74678200D01*
X145278600Y-74676200D01*
X145283600Y-74674200D01*
X145288600Y-74672200D01*
X145293600Y-74670200D01*
X145298600Y-74669200D01*
X145303600Y-74668200D01*
X145309600Y-74668200D01*
X145314600Y-74667200D01*
X145319600Y-74667200D01*
X146719600Y-74667200D01*
X146724600Y-74667200D01*
X146729600Y-74668200D01*
G36*
X146729600Y-74668200D02*
G01*
X146735600Y-74668200D01*
X146740600Y-74669200D01*
X146745600Y-74670200D01*
X146750600Y-74672200D01*
X146755600Y-74674200D01*
X146760600Y-74676200D01*
X146764600Y-74678200D01*
X146769600Y-74680200D01*
X146773600Y-74683200D01*
X146778600Y-74686200D01*
X146782600Y-74689200D01*
X146786600Y-74693200D01*
X146790600Y-74696200D01*
X146793600Y-74700200D01*
X146797600Y-74704200D01*
X146800600Y-74708200D01*
X146803600Y-74713200D01*
X146806600Y-74717200D01*
X146808600Y-74722200D01*
X146810600Y-74726200D01*
X146812600Y-74731200D01*
X146814600Y-74736200D01*
X146816600Y-74741200D01*
X146817600Y-74746200D01*
X146818600Y-74751200D01*
X146818600Y-74757200D01*
X146819600Y-74762200D01*
X146819600Y-74767200D01*
X146819600Y-75117200D01*
X146819600Y-75122200D01*
X146818600Y-75127200D01*
X146818600Y-75133200D01*
X146817600Y-75138200D01*
X146816600Y-75143200D01*
X146814600Y-75148200D01*
X146812600Y-75153200D01*
X146810600Y-75158200D01*
X146808600Y-75162200D01*
X146806600Y-75167200D01*
X146803600Y-75171200D01*
X146800600Y-75176200D01*
X146797600Y-75180200D01*
X146793600Y-75184200D01*
X146790600Y-75188200D01*
X146786600Y-75191200D01*
X146782600Y-75195200D01*
X146778600Y-75198200D01*
X146773600Y-75201200D01*
X146769600Y-75204200D01*
X146764600Y-75206200D01*
X146760600Y-75208200D01*
X146755600Y-75210200D01*
X146750600Y-75212200D01*
X146745600Y-75214200D01*
X146740600Y-75215200D01*
X146735600Y-75216200D01*
X146729600Y-75216200D01*
X146724600Y-75217200D01*
X146719600Y-75217200D01*
X145319600Y-75217200D01*
X145314600Y-75217200D01*
X145309600Y-75216200D01*
X145303600Y-75216200D01*
X145298600Y-75215200D01*
X145293600Y-75214200D01*
X145288600Y-75212200D01*
X145283600Y-75210200D01*
X145278600Y-75208200D01*
X145274600Y-75206200D01*
X145269600Y-75204200D01*
X145265600Y-75201200D01*
X145260600Y-75198200D01*
X145256600Y-75195200D01*
X145252600Y-75191200D01*
X145248600Y-75188200D01*
X145245600Y-75184200D01*
X145241600Y-75180200D01*
X145238600Y-75176200D01*
X145235600Y-75171200D01*
X145232600Y-75167200D01*
X145230600Y-75162200D01*
X145228600Y-75158200D01*
X145226600Y-75153200D01*
X145224600Y-75148200D01*
X145222600Y-75143200D01*
X145221600Y-75138200D01*
X145220600Y-75133200D01*
X145220600Y-75127200D01*
X145219600Y-75122200D01*
X145219600Y-75117200D01*
X145219600Y-74767200D01*
X145219600Y-74762200D01*
X145220600Y-74757200D01*
X145220600Y-74751200D01*
X145221600Y-74746200D01*
X145222600Y-74741200D01*
X145224600Y-74736200D01*
X145226600Y-74731200D01*
X145228600Y-74726200D01*
X145230600Y-74722200D01*
X145232600Y-74717200D01*
X145235600Y-74713200D01*
X145238600Y-74708200D01*
X145241600Y-74704200D01*
X145245600Y-74700200D01*
X145248600Y-74696200D01*
X145252600Y-74693200D01*
X145256600Y-74689200D01*
X145260600Y-74686200D01*
X145265600Y-74683200D01*
X145269600Y-74680200D01*
X145274600Y-74678200D01*
X145278600Y-74676200D01*
X145283600Y-74674200D01*
X145288600Y-74672200D01*
X145293600Y-74670200D01*
X145298600Y-74669200D01*
X145303600Y-74668200D01*
X145309600Y-74668200D01*
X145314600Y-74667200D01*
X145319600Y-74667200D01*
X146719600Y-74667200D01*
X146724600Y-74667200D01*
X146729600Y-74668200D01*
G37*
X146729600Y-75318200D02*
X146735600Y-75318200D01*
X146740600Y-75319200D01*
X146745600Y-75320200D01*
X146750600Y-75322200D01*
X146755600Y-75324200D01*
X146760600Y-75326200D01*
X146764600Y-75328200D01*
X146769600Y-75330200D01*
X146773600Y-75333200D01*
X146778600Y-75336200D01*
X146782600Y-75339200D01*
X146786600Y-75343200D01*
X146790600Y-75346200D01*
X146793600Y-75350200D01*
X146797600Y-75354200D01*
X146800600Y-75358200D01*
X146803600Y-75363200D01*
X146806600Y-75367200D01*
X146808600Y-75372200D01*
X146810600Y-75376200D01*
X146812600Y-75381200D01*
X146814600Y-75386200D01*
X146816600Y-75391200D01*
X146817600Y-75396200D01*
X146818600Y-75401200D01*
X146818600Y-75407200D01*
X146819600Y-75412200D01*
X146819600Y-75417200D01*
X146819600Y-75767200D01*
X146819600Y-75772200D01*
X146818600Y-75777200D01*
X146818600Y-75783200D01*
X146817600Y-75788200D01*
X146816600Y-75793200D01*
X146814600Y-75798200D01*
X146812600Y-75803200D01*
X146810600Y-75808200D01*
X146808600Y-75812200D01*
X146806600Y-75817200D01*
X146803600Y-75821200D01*
X146800600Y-75826200D01*
X146797600Y-75830200D01*
X146793600Y-75834200D01*
X146790600Y-75838200D01*
X146786600Y-75841200D01*
X146782600Y-75845200D01*
X146778600Y-75848200D01*
X146773600Y-75851200D01*
X146769600Y-75854200D01*
X146764600Y-75856200D01*
X146760600Y-75858200D01*
X146755600Y-75860200D01*
X146750600Y-75862200D01*
X146745600Y-75864200D01*
X146740600Y-75865200D01*
X146735600Y-75866200D01*
X146729600Y-75866200D01*
X146724600Y-75867200D01*
X146719600Y-75867200D01*
X145319600Y-75867200D01*
X145314600Y-75867200D01*
X145309600Y-75866200D01*
X145303600Y-75866200D01*
X145298600Y-75865200D01*
X145293600Y-75864200D01*
X145288600Y-75862200D01*
X145283600Y-75860200D01*
X145278600Y-75858200D01*
X145274600Y-75856200D01*
X145269600Y-75854200D01*
X145265600Y-75851200D01*
X145260600Y-75848200D01*
X145256600Y-75845200D01*
X145252600Y-75841200D01*
X145248600Y-75838200D01*
X145245600Y-75834200D01*
X145241600Y-75830200D01*
X145238600Y-75826200D01*
X145235600Y-75821200D01*
X145232600Y-75817200D01*
X145230600Y-75812200D01*
X145228600Y-75808200D01*
X145226600Y-75803200D01*
X145224600Y-75798200D01*
X145222600Y-75793200D01*
X145221600Y-75788200D01*
X145220600Y-75783200D01*
X145220600Y-75777200D01*
X145219600Y-75772200D01*
X145219600Y-75767200D01*
X145219600Y-75417200D01*
X145219600Y-75412200D01*
X145220600Y-75407200D01*
X145220600Y-75401200D01*
X145221600Y-75396200D01*
X145222600Y-75391200D01*
X145224600Y-75386200D01*
X145226600Y-75381200D01*
X145228600Y-75376200D01*
X145230600Y-75372200D01*
X145232600Y-75367200D01*
X145235600Y-75363200D01*
X145238600Y-75358200D01*
X145241600Y-75354200D01*
X145245600Y-75350200D01*
X145248600Y-75346200D01*
X145252600Y-75343200D01*
X145256600Y-75339200D01*
X145260600Y-75336200D01*
X145265600Y-75333200D01*
X145269600Y-75330200D01*
X145274600Y-75328200D01*
X145278600Y-75326200D01*
X145283600Y-75324200D01*
X145288600Y-75322200D01*
X145293600Y-75320200D01*
X145298600Y-75319200D01*
X145303600Y-75318200D01*
X145309600Y-75318200D01*
X145314600Y-75317200D01*
X145319600Y-75317200D01*
X146719600Y-75317200D01*
X146724600Y-75317200D01*
X146729600Y-75318200D01*
G36*
X146729600Y-75318200D02*
G01*
X146735600Y-75318200D01*
X146740600Y-75319200D01*
X146745600Y-75320200D01*
X146750600Y-75322200D01*
X146755600Y-75324200D01*
X146760600Y-75326200D01*
X146764600Y-75328200D01*
X146769600Y-75330200D01*
X146773600Y-75333200D01*
X146778600Y-75336200D01*
X146782600Y-75339200D01*
X146786600Y-75343200D01*
X146790600Y-75346200D01*
X146793600Y-75350200D01*
X146797600Y-75354200D01*
X146800600Y-75358200D01*
X146803600Y-75363200D01*
X146806600Y-75367200D01*
X146808600Y-75372200D01*
X146810600Y-75376200D01*
X146812600Y-75381200D01*
X146814600Y-75386200D01*
X146816600Y-75391200D01*
X146817600Y-75396200D01*
X146818600Y-75401200D01*
X146818600Y-75407200D01*
X146819600Y-75412200D01*
X146819600Y-75417200D01*
X146819600Y-75767200D01*
X146819600Y-75772200D01*
X146818600Y-75777200D01*
X146818600Y-75783200D01*
X146817600Y-75788200D01*
X146816600Y-75793200D01*
X146814600Y-75798200D01*
X146812600Y-75803200D01*
X146810600Y-75808200D01*
X146808600Y-75812200D01*
X146806600Y-75817200D01*
X146803600Y-75821200D01*
X146800600Y-75826200D01*
X146797600Y-75830200D01*
X146793600Y-75834200D01*
X146790600Y-75838200D01*
X146786600Y-75841200D01*
X146782600Y-75845200D01*
X146778600Y-75848200D01*
X146773600Y-75851200D01*
X146769600Y-75854200D01*
X146764600Y-75856200D01*
X146760600Y-75858200D01*
X146755600Y-75860200D01*
X146750600Y-75862200D01*
X146745600Y-75864200D01*
X146740600Y-75865200D01*
X146735600Y-75866200D01*
X146729600Y-75866200D01*
X146724600Y-75867200D01*
X146719600Y-75867200D01*
X145319600Y-75867200D01*
X145314600Y-75867200D01*
X145309600Y-75866200D01*
X145303600Y-75866200D01*
X145298600Y-75865200D01*
X145293600Y-75864200D01*
X145288600Y-75862200D01*
X145283600Y-75860200D01*
X145278600Y-75858200D01*
X145274600Y-75856200D01*
X145269600Y-75854200D01*
X145265600Y-75851200D01*
X145260600Y-75848200D01*
X145256600Y-75845200D01*
X145252600Y-75841200D01*
X145248600Y-75838200D01*
X145245600Y-75834200D01*
X145241600Y-75830200D01*
X145238600Y-75826200D01*
X145235600Y-75821200D01*
X145232600Y-75817200D01*
X145230600Y-75812200D01*
X145228600Y-75808200D01*
X145226600Y-75803200D01*
X145224600Y-75798200D01*
X145222600Y-75793200D01*
X145221600Y-75788200D01*
X145220600Y-75783200D01*
X145220600Y-75777200D01*
X145219600Y-75772200D01*
X145219600Y-75767200D01*
X145219600Y-75417200D01*
X145219600Y-75412200D01*
X145220600Y-75407200D01*
X145220600Y-75401200D01*
X145221600Y-75396200D01*
X145222600Y-75391200D01*
X145224600Y-75386200D01*
X145226600Y-75381200D01*
X145228600Y-75376200D01*
X145230600Y-75372200D01*
X145232600Y-75367200D01*
X145235600Y-75363200D01*
X145238600Y-75358200D01*
X145241600Y-75354200D01*
X145245600Y-75350200D01*
X145248600Y-75346200D01*
X145252600Y-75343200D01*
X145256600Y-75339200D01*
X145260600Y-75336200D01*
X145265600Y-75333200D01*
X145269600Y-75330200D01*
X145274600Y-75328200D01*
X145278600Y-75326200D01*
X145283600Y-75324200D01*
X145288600Y-75322200D01*
X145293600Y-75320200D01*
X145298600Y-75319200D01*
X145303600Y-75318200D01*
X145309600Y-75318200D01*
X145314600Y-75317200D01*
X145319600Y-75317200D01*
X146719600Y-75317200D01*
X146724600Y-75317200D01*
X146729600Y-75318200D01*
G37*
X146729600Y-75968200D02*
X146735600Y-75968200D01*
X146740600Y-75969200D01*
X146745600Y-75970200D01*
X146750600Y-75972200D01*
X146755600Y-75974200D01*
X146760600Y-75976200D01*
X146764600Y-75978200D01*
X146769600Y-75980200D01*
X146773600Y-75983200D01*
X146778600Y-75986200D01*
X146782600Y-75989200D01*
X146786600Y-75993200D01*
X146790600Y-75996200D01*
X146793600Y-76000200D01*
X146797600Y-76004200D01*
X146800600Y-76008200D01*
X146803600Y-76013200D01*
X146806600Y-76017200D01*
X146808600Y-76022200D01*
X146810600Y-76026200D01*
X146812600Y-76031200D01*
X146814600Y-76036200D01*
X146816600Y-76041200D01*
X146817600Y-76046200D01*
X146818600Y-76051200D01*
X146818600Y-76057200D01*
X146819600Y-76062200D01*
X146819600Y-76067200D01*
X146819600Y-76417200D01*
X146819600Y-76422200D01*
X146818600Y-76427200D01*
X146818600Y-76433200D01*
X146817600Y-76438200D01*
X146816600Y-76443200D01*
X146814600Y-76448200D01*
X146812600Y-76453200D01*
X146810600Y-76458200D01*
X146808600Y-76462200D01*
X146806600Y-76467200D01*
X146803600Y-76471200D01*
X146800600Y-76476200D01*
X146797600Y-76480200D01*
X146793600Y-76484200D01*
X146790600Y-76488200D01*
X146786600Y-76491200D01*
X146782600Y-76495200D01*
X146778600Y-76498200D01*
X146773600Y-76501200D01*
X146769600Y-76504200D01*
X146764600Y-76506200D01*
X146760600Y-76508200D01*
X146755600Y-76510200D01*
X146750600Y-76512200D01*
X146745600Y-76514200D01*
X146740600Y-76515200D01*
X146735600Y-76516200D01*
X146729600Y-76516200D01*
X146724600Y-76517200D01*
X146719600Y-76517200D01*
X145319600Y-76517200D01*
X145314600Y-76517200D01*
X145309600Y-76516200D01*
X145303600Y-76516200D01*
X145298600Y-76515200D01*
X145293600Y-76514200D01*
X145288600Y-76512200D01*
X145283600Y-76510200D01*
X145278600Y-76508200D01*
X145274600Y-76506200D01*
X145269600Y-76504200D01*
X145265600Y-76501200D01*
X145260600Y-76498200D01*
X145256600Y-76495200D01*
X145252600Y-76491200D01*
X145248600Y-76488200D01*
X145245600Y-76484200D01*
X145241600Y-76480200D01*
X145238600Y-76476200D01*
X145235600Y-76471200D01*
X145232600Y-76467200D01*
X145230600Y-76462200D01*
X145228600Y-76458200D01*
X145226600Y-76453200D01*
X145224600Y-76448200D01*
X145222600Y-76443200D01*
X145221600Y-76438200D01*
X145220600Y-76433200D01*
X145220600Y-76427200D01*
X145219600Y-76422200D01*
X145219600Y-76417200D01*
X145219600Y-76067200D01*
X145219600Y-76062200D01*
X145220600Y-76057200D01*
X145220600Y-76051200D01*
X145221600Y-76046200D01*
X145222600Y-76041200D01*
X145224600Y-76036200D01*
X145226600Y-76031200D01*
X145228600Y-76026200D01*
X145230600Y-76022200D01*
X145232600Y-76017200D01*
X145235600Y-76013200D01*
X145238600Y-76008200D01*
X145241600Y-76004200D01*
X145245600Y-76000200D01*
X145248600Y-75996200D01*
X145252600Y-75993200D01*
X145256600Y-75989200D01*
X145260600Y-75986200D01*
X145265600Y-75983200D01*
X145269600Y-75980200D01*
X145274600Y-75978200D01*
X145278600Y-75976200D01*
X145283600Y-75974200D01*
X145288600Y-75972200D01*
X145293600Y-75970200D01*
X145298600Y-75969200D01*
X145303600Y-75968200D01*
X145309600Y-75968200D01*
X145314600Y-75967200D01*
X145319600Y-75967200D01*
X146719600Y-75967200D01*
X146724600Y-75967200D01*
X146729600Y-75968200D01*
G36*
X146729600Y-75968200D02*
G01*
X146735600Y-75968200D01*
X146740600Y-75969200D01*
X146745600Y-75970200D01*
X146750600Y-75972200D01*
X146755600Y-75974200D01*
X146760600Y-75976200D01*
X146764600Y-75978200D01*
X146769600Y-75980200D01*
X146773600Y-75983200D01*
X146778600Y-75986200D01*
X146782600Y-75989200D01*
X146786600Y-75993200D01*
X146790600Y-75996200D01*
X146793600Y-76000200D01*
X146797600Y-76004200D01*
X146800600Y-76008200D01*
X146803600Y-76013200D01*
X146806600Y-76017200D01*
X146808600Y-76022200D01*
X146810600Y-76026200D01*
X146812600Y-76031200D01*
X146814600Y-76036200D01*
X146816600Y-76041200D01*
X146817600Y-76046200D01*
X146818600Y-76051200D01*
X146818600Y-76057200D01*
X146819600Y-76062200D01*
X146819600Y-76067200D01*
X146819600Y-76417200D01*
X146819600Y-76422200D01*
X146818600Y-76427200D01*
X146818600Y-76433200D01*
X146817600Y-76438200D01*
X146816600Y-76443200D01*
X146814600Y-76448200D01*
X146812600Y-76453200D01*
X146810600Y-76458200D01*
X146808600Y-76462200D01*
X146806600Y-76467200D01*
X146803600Y-76471200D01*
X146800600Y-76476200D01*
X146797600Y-76480200D01*
X146793600Y-76484200D01*
X146790600Y-76488200D01*
X146786600Y-76491200D01*
X146782600Y-76495200D01*
X146778600Y-76498200D01*
X146773600Y-76501200D01*
X146769600Y-76504200D01*
X146764600Y-76506200D01*
X146760600Y-76508200D01*
X146755600Y-76510200D01*
X146750600Y-76512200D01*
X146745600Y-76514200D01*
X146740600Y-76515200D01*
X146735600Y-76516200D01*
X146729600Y-76516200D01*
X146724600Y-76517200D01*
X146719600Y-76517200D01*
X145319600Y-76517200D01*
X145314600Y-76517200D01*
X145309600Y-76516200D01*
X145303600Y-76516200D01*
X145298600Y-76515200D01*
X145293600Y-76514200D01*
X145288600Y-76512200D01*
X145283600Y-76510200D01*
X145278600Y-76508200D01*
X145274600Y-76506200D01*
X145269600Y-76504200D01*
X145265600Y-76501200D01*
X145260600Y-76498200D01*
X145256600Y-76495200D01*
X145252600Y-76491200D01*
X145248600Y-76488200D01*
X145245600Y-76484200D01*
X145241600Y-76480200D01*
X145238600Y-76476200D01*
X145235600Y-76471200D01*
X145232600Y-76467200D01*
X145230600Y-76462200D01*
X145228600Y-76458200D01*
X145226600Y-76453200D01*
X145224600Y-76448200D01*
X145222600Y-76443200D01*
X145221600Y-76438200D01*
X145220600Y-76433200D01*
X145220600Y-76427200D01*
X145219600Y-76422200D01*
X145219600Y-76417200D01*
X145219600Y-76067200D01*
X145219600Y-76062200D01*
X145220600Y-76057200D01*
X145220600Y-76051200D01*
X145221600Y-76046200D01*
X145222600Y-76041200D01*
X145224600Y-76036200D01*
X145226600Y-76031200D01*
X145228600Y-76026200D01*
X145230600Y-76022200D01*
X145232600Y-76017200D01*
X145235600Y-76013200D01*
X145238600Y-76008200D01*
X145241600Y-76004200D01*
X145245600Y-76000200D01*
X145248600Y-75996200D01*
X145252600Y-75993200D01*
X145256600Y-75989200D01*
X145260600Y-75986200D01*
X145265600Y-75983200D01*
X145269600Y-75980200D01*
X145274600Y-75978200D01*
X145278600Y-75976200D01*
X145283600Y-75974200D01*
X145288600Y-75972200D01*
X145293600Y-75970200D01*
X145298600Y-75969200D01*
X145303600Y-75968200D01*
X145309600Y-75968200D01*
X145314600Y-75967200D01*
X145319600Y-75967200D01*
X146719600Y-75967200D01*
X146724600Y-75967200D01*
X146729600Y-75968200D01*
G37*
X146729600Y-76618200D02*
X146735600Y-76618200D01*
X146740600Y-76619200D01*
X146745600Y-76620200D01*
X146750600Y-76622200D01*
X146755600Y-76624200D01*
X146760600Y-76626200D01*
X146764600Y-76628200D01*
X146769600Y-76630200D01*
X146773600Y-76633200D01*
X146778600Y-76636200D01*
X146782600Y-76639200D01*
X146786600Y-76643200D01*
X146790600Y-76646200D01*
X146793600Y-76650200D01*
X146797600Y-76654200D01*
X146800600Y-76658200D01*
X146803600Y-76663200D01*
X146806600Y-76667200D01*
X146808600Y-76672200D01*
X146810600Y-76676200D01*
X146812600Y-76681200D01*
X146814600Y-76686200D01*
X146816600Y-76691200D01*
X146817600Y-76696200D01*
X146818600Y-76701200D01*
X146818600Y-76707200D01*
X146819600Y-76712200D01*
X146819600Y-76717200D01*
X146819600Y-77067200D01*
X146819600Y-77072200D01*
X146818600Y-77077200D01*
X146818600Y-77083200D01*
X146817600Y-77088200D01*
X146816600Y-77093200D01*
X146814600Y-77098200D01*
X146812600Y-77103200D01*
X146810600Y-77108200D01*
X146808600Y-77112200D01*
X146806600Y-77117200D01*
X146803600Y-77121200D01*
X146800600Y-77126200D01*
X146797600Y-77130200D01*
X146793600Y-77134200D01*
X146790600Y-77138200D01*
X146786600Y-77141200D01*
X146782600Y-77145200D01*
X146778600Y-77148200D01*
X146773600Y-77151200D01*
X146769600Y-77154200D01*
X146764600Y-77156200D01*
X146760600Y-77158200D01*
X146755600Y-77160200D01*
X146750600Y-77162200D01*
X146745600Y-77164200D01*
X146740600Y-77165200D01*
X146735600Y-77166200D01*
X146729600Y-77166200D01*
X146724600Y-77167200D01*
X146719600Y-77167200D01*
X145319600Y-77167200D01*
X145314600Y-77167200D01*
X145309600Y-77166200D01*
X145303600Y-77166200D01*
X145298600Y-77165200D01*
X145293600Y-77164200D01*
X145288600Y-77162200D01*
X145283600Y-77160200D01*
X145278600Y-77158200D01*
X145274600Y-77156200D01*
X145269600Y-77154200D01*
X145265600Y-77151200D01*
X145260600Y-77148200D01*
X145256600Y-77145200D01*
X145252600Y-77141200D01*
X145248600Y-77138200D01*
X145245600Y-77134200D01*
X145241600Y-77130200D01*
X145238600Y-77126200D01*
X145235600Y-77121200D01*
X145232600Y-77117200D01*
X145230600Y-77112200D01*
X145228600Y-77108200D01*
X145226600Y-77103200D01*
X145224600Y-77098200D01*
X145222600Y-77093200D01*
X145221600Y-77088200D01*
X145220600Y-77083200D01*
X145220600Y-77077200D01*
X145219600Y-77072200D01*
X145219600Y-77067200D01*
X145219600Y-76717200D01*
X145219600Y-76712200D01*
X145220600Y-76707200D01*
X145220600Y-76701200D01*
X145221600Y-76696200D01*
X145222600Y-76691200D01*
X145224600Y-76686200D01*
X145226600Y-76681200D01*
X145228600Y-76676200D01*
X145230600Y-76672200D01*
X145232600Y-76667200D01*
X145235600Y-76663200D01*
X145238600Y-76658200D01*
X145241600Y-76654200D01*
X145245600Y-76650200D01*
X145248600Y-76646200D01*
X145252600Y-76643200D01*
X145256600Y-76639200D01*
X145260600Y-76636200D01*
X145265600Y-76633200D01*
X145269600Y-76630200D01*
X145274600Y-76628200D01*
X145278600Y-76626200D01*
X145283600Y-76624200D01*
X145288600Y-76622200D01*
X145293600Y-76620200D01*
X145298600Y-76619200D01*
X145303600Y-76618200D01*
X145309600Y-76618200D01*
X145314600Y-76617200D01*
X145319600Y-76617200D01*
X146719600Y-76617200D01*
X146724600Y-76617200D01*
X146729600Y-76618200D01*
G36*
X146729600Y-76618200D02*
G01*
X146735600Y-76618200D01*
X146740600Y-76619200D01*
X146745600Y-76620200D01*
X146750600Y-76622200D01*
X146755600Y-76624200D01*
X146760600Y-76626200D01*
X146764600Y-76628200D01*
X146769600Y-76630200D01*
X146773600Y-76633200D01*
X146778600Y-76636200D01*
X146782600Y-76639200D01*
X146786600Y-76643200D01*
X146790600Y-76646200D01*
X146793600Y-76650200D01*
X146797600Y-76654200D01*
X146800600Y-76658200D01*
X146803600Y-76663200D01*
X146806600Y-76667200D01*
X146808600Y-76672200D01*
X146810600Y-76676200D01*
X146812600Y-76681200D01*
X146814600Y-76686200D01*
X146816600Y-76691200D01*
X146817600Y-76696200D01*
X146818600Y-76701200D01*
X146818600Y-76707200D01*
X146819600Y-76712200D01*
X146819600Y-76717200D01*
X146819600Y-77067200D01*
X146819600Y-77072200D01*
X146818600Y-77077200D01*
X146818600Y-77083200D01*
X146817600Y-77088200D01*
X146816600Y-77093200D01*
X146814600Y-77098200D01*
X146812600Y-77103200D01*
X146810600Y-77108200D01*
X146808600Y-77112200D01*
X146806600Y-77117200D01*
X146803600Y-77121200D01*
X146800600Y-77126200D01*
X146797600Y-77130200D01*
X146793600Y-77134200D01*
X146790600Y-77138200D01*
X146786600Y-77141200D01*
X146782600Y-77145200D01*
X146778600Y-77148200D01*
X146773600Y-77151200D01*
X146769600Y-77154200D01*
X146764600Y-77156200D01*
X146760600Y-77158200D01*
X146755600Y-77160200D01*
X146750600Y-77162200D01*
X146745600Y-77164200D01*
X146740600Y-77165200D01*
X146735600Y-77166200D01*
X146729600Y-77166200D01*
X146724600Y-77167200D01*
X146719600Y-77167200D01*
X145319600Y-77167200D01*
X145314600Y-77167200D01*
X145309600Y-77166200D01*
X145303600Y-77166200D01*
X145298600Y-77165200D01*
X145293600Y-77164200D01*
X145288600Y-77162200D01*
X145283600Y-77160200D01*
X145278600Y-77158200D01*
X145274600Y-77156200D01*
X145269600Y-77154200D01*
X145265600Y-77151200D01*
X145260600Y-77148200D01*
X145256600Y-77145200D01*
X145252600Y-77141200D01*
X145248600Y-77138200D01*
X145245600Y-77134200D01*
X145241600Y-77130200D01*
X145238600Y-77126200D01*
X145235600Y-77121200D01*
X145232600Y-77117200D01*
X145230600Y-77112200D01*
X145228600Y-77108200D01*
X145226600Y-77103200D01*
X145224600Y-77098200D01*
X145222600Y-77093200D01*
X145221600Y-77088200D01*
X145220600Y-77083200D01*
X145220600Y-77077200D01*
X145219600Y-77072200D01*
X145219600Y-77067200D01*
X145219600Y-76717200D01*
X145219600Y-76712200D01*
X145220600Y-76707200D01*
X145220600Y-76701200D01*
X145221600Y-76696200D01*
X145222600Y-76691200D01*
X145224600Y-76686200D01*
X145226600Y-76681200D01*
X145228600Y-76676200D01*
X145230600Y-76672200D01*
X145232600Y-76667200D01*
X145235600Y-76663200D01*
X145238600Y-76658200D01*
X145241600Y-76654200D01*
X145245600Y-76650200D01*
X145248600Y-76646200D01*
X145252600Y-76643200D01*
X145256600Y-76639200D01*
X145260600Y-76636200D01*
X145265600Y-76633200D01*
X145269600Y-76630200D01*
X145274600Y-76628200D01*
X145278600Y-76626200D01*
X145283600Y-76624200D01*
X145288600Y-76622200D01*
X145293600Y-76620200D01*
X145298600Y-76619200D01*
X145303600Y-76618200D01*
X145309600Y-76618200D01*
X145314600Y-76617200D01*
X145319600Y-76617200D01*
X146719600Y-76617200D01*
X146724600Y-76617200D01*
X146729600Y-76618200D01*
G37*
X146729600Y-77268200D02*
X146735600Y-77268200D01*
X146740600Y-77269200D01*
X146745600Y-77270200D01*
X146750600Y-77272200D01*
X146755600Y-77274200D01*
X146760600Y-77276200D01*
X146764600Y-77278200D01*
X146769600Y-77280200D01*
X146773600Y-77283200D01*
X146778600Y-77286200D01*
X146782600Y-77289200D01*
X146786600Y-77293200D01*
X146790600Y-77296200D01*
X146793600Y-77300200D01*
X146797600Y-77304200D01*
X146800600Y-77308200D01*
X146803600Y-77313200D01*
X146806600Y-77317200D01*
X146808600Y-77322200D01*
X146810600Y-77326200D01*
X146812600Y-77331200D01*
X146814600Y-77336200D01*
X146816600Y-77341200D01*
X146817600Y-77346200D01*
X146818600Y-77351200D01*
X146818600Y-77357200D01*
X146819600Y-77362200D01*
X146819600Y-77367200D01*
X146819600Y-77717200D01*
X146819600Y-77722200D01*
X146818600Y-77727200D01*
X146818600Y-77733200D01*
X146817600Y-77738200D01*
X146816600Y-77743200D01*
X146814600Y-77748200D01*
X146812600Y-77753200D01*
X146810600Y-77758200D01*
X146808600Y-77762200D01*
X146806600Y-77767200D01*
X146803600Y-77771200D01*
X146800600Y-77776200D01*
X146797600Y-77780200D01*
X146793600Y-77784200D01*
X146790600Y-77788200D01*
X146786600Y-77791200D01*
X146782600Y-77795200D01*
X146778600Y-77798200D01*
X146773600Y-77801200D01*
X146769600Y-77804200D01*
X146764600Y-77806200D01*
X146760600Y-77808200D01*
X146755600Y-77810200D01*
X146750600Y-77812200D01*
X146745600Y-77814200D01*
X146740600Y-77815200D01*
X146735600Y-77816200D01*
X146729600Y-77816200D01*
X146724600Y-77817200D01*
X146719600Y-77817200D01*
X145319600Y-77817200D01*
X145314600Y-77817200D01*
X145309600Y-77816200D01*
X145303600Y-77816200D01*
X145298600Y-77815200D01*
X145293600Y-77814200D01*
X145288600Y-77812200D01*
X145283600Y-77810200D01*
X145278600Y-77808200D01*
X145274600Y-77806200D01*
X145269600Y-77804200D01*
X145265600Y-77801200D01*
X145260600Y-77798200D01*
X145256600Y-77795200D01*
X145252600Y-77791200D01*
X145248600Y-77788200D01*
X145245600Y-77784200D01*
X145241600Y-77780200D01*
X145238600Y-77776200D01*
X145235600Y-77771200D01*
X145232600Y-77767200D01*
X145230600Y-77762200D01*
X145228600Y-77758200D01*
X145226600Y-77753200D01*
X145224600Y-77748200D01*
X145222600Y-77743200D01*
X145221600Y-77738200D01*
X145220600Y-77733200D01*
X145220600Y-77727200D01*
X145219600Y-77722200D01*
X145219600Y-77717200D01*
X145219600Y-77367200D01*
X145219600Y-77362200D01*
X145220600Y-77357200D01*
X145220600Y-77351200D01*
X145221600Y-77346200D01*
X145222600Y-77341200D01*
X145224600Y-77336200D01*
X145226600Y-77331200D01*
X145228600Y-77326200D01*
X145230600Y-77322200D01*
X145232600Y-77317200D01*
X145235600Y-77313200D01*
X145238600Y-77308200D01*
X145241600Y-77304200D01*
X145245600Y-77300200D01*
X145248600Y-77296200D01*
X145252600Y-77293200D01*
X145256600Y-77289200D01*
X145260600Y-77286200D01*
X145265600Y-77283200D01*
X145269600Y-77280200D01*
X145274600Y-77278200D01*
X145278600Y-77276200D01*
X145283600Y-77274200D01*
X145288600Y-77272200D01*
X145293600Y-77270200D01*
X145298600Y-77269200D01*
X145303600Y-77268200D01*
X145309600Y-77268200D01*
X145314600Y-77267200D01*
X145319600Y-77267200D01*
X146719600Y-77267200D01*
X146724600Y-77267200D01*
X146729600Y-77268200D01*
G36*
X146729600Y-77268200D02*
G01*
X146735600Y-77268200D01*
X146740600Y-77269200D01*
X146745600Y-77270200D01*
X146750600Y-77272200D01*
X146755600Y-77274200D01*
X146760600Y-77276200D01*
X146764600Y-77278200D01*
X146769600Y-77280200D01*
X146773600Y-77283200D01*
X146778600Y-77286200D01*
X146782600Y-77289200D01*
X146786600Y-77293200D01*
X146790600Y-77296200D01*
X146793600Y-77300200D01*
X146797600Y-77304200D01*
X146800600Y-77308200D01*
X146803600Y-77313200D01*
X146806600Y-77317200D01*
X146808600Y-77322200D01*
X146810600Y-77326200D01*
X146812600Y-77331200D01*
X146814600Y-77336200D01*
X146816600Y-77341200D01*
X146817600Y-77346200D01*
X146818600Y-77351200D01*
X146818600Y-77357200D01*
X146819600Y-77362200D01*
X146819600Y-77367200D01*
X146819600Y-77717200D01*
X146819600Y-77722200D01*
X146818600Y-77727200D01*
X146818600Y-77733200D01*
X146817600Y-77738200D01*
X146816600Y-77743200D01*
X146814600Y-77748200D01*
X146812600Y-77753200D01*
X146810600Y-77758200D01*
X146808600Y-77762200D01*
X146806600Y-77767200D01*
X146803600Y-77771200D01*
X146800600Y-77776200D01*
X146797600Y-77780200D01*
X146793600Y-77784200D01*
X146790600Y-77788200D01*
X146786600Y-77791200D01*
X146782600Y-77795200D01*
X146778600Y-77798200D01*
X146773600Y-77801200D01*
X146769600Y-77804200D01*
X146764600Y-77806200D01*
X146760600Y-77808200D01*
X146755600Y-77810200D01*
X146750600Y-77812200D01*
X146745600Y-77814200D01*
X146740600Y-77815200D01*
X146735600Y-77816200D01*
X146729600Y-77816200D01*
X146724600Y-77817200D01*
X146719600Y-77817200D01*
X145319600Y-77817200D01*
X145314600Y-77817200D01*
X145309600Y-77816200D01*
X145303600Y-77816200D01*
X145298600Y-77815200D01*
X145293600Y-77814200D01*
X145288600Y-77812200D01*
X145283600Y-77810200D01*
X145278600Y-77808200D01*
X145274600Y-77806200D01*
X145269600Y-77804200D01*
X145265600Y-77801200D01*
X145260600Y-77798200D01*
X145256600Y-77795200D01*
X145252600Y-77791200D01*
X145248600Y-77788200D01*
X145245600Y-77784200D01*
X145241600Y-77780200D01*
X145238600Y-77776200D01*
X145235600Y-77771200D01*
X145232600Y-77767200D01*
X145230600Y-77762200D01*
X145228600Y-77758200D01*
X145226600Y-77753200D01*
X145224600Y-77748200D01*
X145222600Y-77743200D01*
X145221600Y-77738200D01*
X145220600Y-77733200D01*
X145220600Y-77727200D01*
X145219600Y-77722200D01*
X145219600Y-77717200D01*
X145219600Y-77367200D01*
X145219600Y-77362200D01*
X145220600Y-77357200D01*
X145220600Y-77351200D01*
X145221600Y-77346200D01*
X145222600Y-77341200D01*
X145224600Y-77336200D01*
X145226600Y-77331200D01*
X145228600Y-77326200D01*
X145230600Y-77322200D01*
X145232600Y-77317200D01*
X145235600Y-77313200D01*
X145238600Y-77308200D01*
X145241600Y-77304200D01*
X145245600Y-77300200D01*
X145248600Y-77296200D01*
X145252600Y-77293200D01*
X145256600Y-77289200D01*
X145260600Y-77286200D01*
X145265600Y-77283200D01*
X145269600Y-77280200D01*
X145274600Y-77278200D01*
X145278600Y-77276200D01*
X145283600Y-77274200D01*
X145288600Y-77272200D01*
X145293600Y-77270200D01*
X145298600Y-77269200D01*
X145303600Y-77268200D01*
X145309600Y-77268200D01*
X145314600Y-77267200D01*
X145319600Y-77267200D01*
X146719600Y-77267200D01*
X146724600Y-77267200D01*
X146729600Y-77268200D01*
G37*
X146729600Y-77918200D02*
X146735600Y-77918200D01*
X146740600Y-77919200D01*
X146745600Y-77920200D01*
X146750600Y-77922200D01*
X146755600Y-77924200D01*
X146760600Y-77926200D01*
X146764600Y-77928200D01*
X146769600Y-77930200D01*
X146773600Y-77933200D01*
X146778600Y-77936200D01*
X146782600Y-77939200D01*
X146786600Y-77943200D01*
X146790600Y-77946200D01*
X146793600Y-77950200D01*
X146797600Y-77954200D01*
X146800600Y-77958200D01*
X146803600Y-77963200D01*
X146806600Y-77967200D01*
X146808600Y-77972200D01*
X146810600Y-77976200D01*
X146812600Y-77981200D01*
X146814600Y-77986200D01*
X146816600Y-77991200D01*
X146817600Y-77996200D01*
X146818600Y-78001200D01*
X146818600Y-78007200D01*
X146819600Y-78012200D01*
X146819600Y-78017200D01*
X146819600Y-78367200D01*
X146819600Y-78372200D01*
X146818600Y-78377200D01*
X146818600Y-78383200D01*
X146817600Y-78388200D01*
X146816600Y-78393200D01*
X146814600Y-78398200D01*
X146812600Y-78403200D01*
X146810600Y-78408200D01*
X146808600Y-78412200D01*
X146806600Y-78417200D01*
X146803600Y-78421200D01*
X146800600Y-78426200D01*
X146797600Y-78430200D01*
X146793600Y-78434200D01*
X146790600Y-78438200D01*
X146786600Y-78441200D01*
X146782600Y-78445200D01*
X146778600Y-78448200D01*
X146773600Y-78451200D01*
X146769600Y-78454200D01*
X146764600Y-78456200D01*
X146760600Y-78458200D01*
X146755600Y-78460200D01*
X146750600Y-78462200D01*
X146745600Y-78464200D01*
X146740600Y-78465200D01*
X146735600Y-78466200D01*
X146729600Y-78466200D01*
X146724600Y-78467200D01*
X146719600Y-78467200D01*
X145319600Y-78467200D01*
X145314600Y-78467200D01*
X145309600Y-78466200D01*
X145303600Y-78466200D01*
X145298600Y-78465200D01*
X145293600Y-78464200D01*
X145288600Y-78462200D01*
X145283600Y-78460200D01*
X145278600Y-78458200D01*
X145274600Y-78456200D01*
X145269600Y-78454200D01*
X145265600Y-78451200D01*
X145260600Y-78448200D01*
X145256600Y-78445200D01*
X145252600Y-78441200D01*
X145248600Y-78438200D01*
X145245600Y-78434200D01*
X145241600Y-78430200D01*
X145238600Y-78426200D01*
X145235600Y-78421200D01*
X145232600Y-78417200D01*
X145230600Y-78412200D01*
X145228600Y-78408200D01*
X145226600Y-78403200D01*
X145224600Y-78398200D01*
X145222600Y-78393200D01*
X145221600Y-78388200D01*
X145220600Y-78383200D01*
X145220600Y-78377200D01*
X145219600Y-78372200D01*
X145219600Y-78367200D01*
X145219600Y-78017200D01*
X145219600Y-78012200D01*
X145220600Y-78007200D01*
X145220600Y-78001200D01*
X145221600Y-77996200D01*
X145222600Y-77991200D01*
X145224600Y-77986200D01*
X145226600Y-77981200D01*
X145228600Y-77976200D01*
X145230600Y-77972200D01*
X145232600Y-77967200D01*
X145235600Y-77963200D01*
X145238600Y-77958200D01*
X145241600Y-77954200D01*
X145245600Y-77950200D01*
X145248600Y-77946200D01*
X145252600Y-77943200D01*
X145256600Y-77939200D01*
X145260600Y-77936200D01*
X145265600Y-77933200D01*
X145269600Y-77930200D01*
X145274600Y-77928200D01*
X145278600Y-77926200D01*
X145283600Y-77924200D01*
X145288600Y-77922200D01*
X145293600Y-77920200D01*
X145298600Y-77919200D01*
X145303600Y-77918200D01*
X145309600Y-77918200D01*
X145314600Y-77917200D01*
X145319600Y-77917200D01*
X146719600Y-77917200D01*
X146724600Y-77917200D01*
X146729600Y-77918200D01*
G36*
X146729600Y-77918200D02*
G01*
X146735600Y-77918200D01*
X146740600Y-77919200D01*
X146745600Y-77920200D01*
X146750600Y-77922200D01*
X146755600Y-77924200D01*
X146760600Y-77926200D01*
X146764600Y-77928200D01*
X146769600Y-77930200D01*
X146773600Y-77933200D01*
X146778600Y-77936200D01*
X146782600Y-77939200D01*
X146786600Y-77943200D01*
X146790600Y-77946200D01*
X146793600Y-77950200D01*
X146797600Y-77954200D01*
X146800600Y-77958200D01*
X146803600Y-77963200D01*
X146806600Y-77967200D01*
X146808600Y-77972200D01*
X146810600Y-77976200D01*
X146812600Y-77981200D01*
X146814600Y-77986200D01*
X146816600Y-77991200D01*
X146817600Y-77996200D01*
X146818600Y-78001200D01*
X146818600Y-78007200D01*
X146819600Y-78012200D01*
X146819600Y-78017200D01*
X146819600Y-78367200D01*
X146819600Y-78372200D01*
X146818600Y-78377200D01*
X146818600Y-78383200D01*
X146817600Y-78388200D01*
X146816600Y-78393200D01*
X146814600Y-78398200D01*
X146812600Y-78403200D01*
X146810600Y-78408200D01*
X146808600Y-78412200D01*
X146806600Y-78417200D01*
X146803600Y-78421200D01*
X146800600Y-78426200D01*
X146797600Y-78430200D01*
X146793600Y-78434200D01*
X146790600Y-78438200D01*
X146786600Y-78441200D01*
X146782600Y-78445200D01*
X146778600Y-78448200D01*
X146773600Y-78451200D01*
X146769600Y-78454200D01*
X146764600Y-78456200D01*
X146760600Y-78458200D01*
X146755600Y-78460200D01*
X146750600Y-78462200D01*
X146745600Y-78464200D01*
X146740600Y-78465200D01*
X146735600Y-78466200D01*
X146729600Y-78466200D01*
X146724600Y-78467200D01*
X146719600Y-78467200D01*
X145319600Y-78467200D01*
X145314600Y-78467200D01*
X145309600Y-78466200D01*
X145303600Y-78466200D01*
X145298600Y-78465200D01*
X145293600Y-78464200D01*
X145288600Y-78462200D01*
X145283600Y-78460200D01*
X145278600Y-78458200D01*
X145274600Y-78456200D01*
X145269600Y-78454200D01*
X145265600Y-78451200D01*
X145260600Y-78448200D01*
X145256600Y-78445200D01*
X145252600Y-78441200D01*
X145248600Y-78438200D01*
X145245600Y-78434200D01*
X145241600Y-78430200D01*
X145238600Y-78426200D01*
X145235600Y-78421200D01*
X145232600Y-78417200D01*
X145230600Y-78412200D01*
X145228600Y-78408200D01*
X145226600Y-78403200D01*
X145224600Y-78398200D01*
X145222600Y-78393200D01*
X145221600Y-78388200D01*
X145220600Y-78383200D01*
X145220600Y-78377200D01*
X145219600Y-78372200D01*
X145219600Y-78367200D01*
X145219600Y-78017200D01*
X145219600Y-78012200D01*
X145220600Y-78007200D01*
X145220600Y-78001200D01*
X145221600Y-77996200D01*
X145222600Y-77991200D01*
X145224600Y-77986200D01*
X145226600Y-77981200D01*
X145228600Y-77976200D01*
X145230600Y-77972200D01*
X145232600Y-77967200D01*
X145235600Y-77963200D01*
X145238600Y-77958200D01*
X145241600Y-77954200D01*
X145245600Y-77950200D01*
X145248600Y-77946200D01*
X145252600Y-77943200D01*
X145256600Y-77939200D01*
X145260600Y-77936200D01*
X145265600Y-77933200D01*
X145269600Y-77930200D01*
X145274600Y-77928200D01*
X145278600Y-77926200D01*
X145283600Y-77924200D01*
X145288600Y-77922200D01*
X145293600Y-77920200D01*
X145298600Y-77919200D01*
X145303600Y-77918200D01*
X145309600Y-77918200D01*
X145314600Y-77917200D01*
X145319600Y-77917200D01*
X146719600Y-77917200D01*
X146724600Y-77917200D01*
X146729600Y-77918200D01*
G37*
%TD*%
D11*
%TO.C,C2*%
X149250400Y-80721200D03*
D12*
X149250400Y-82721200D03*
%TD*%
D13*
%TO.C,U2*%
X131399700Y-75707200D03*
X131399700Y-76657200D03*
X131399700Y-77607200D03*
X133674700Y-77607200D03*
X133674700Y-75707200D03*
%TD*%
D14*
%TO.C,J1*%
X140958500Y-60553600D03*
D15*
X143498500Y-60553600D03*
%TD*%
D16*
%TO.C,C8*%
X144729200Y-86220600D03*
X144729200Y-84670600D03*
%TD*%
D17*
%TO.C,C6*%
X131927600Y-79235000D03*
X131927600Y-80785000D03*
%TD*%
D18*
%TO.C,R4*%
X137210800Y-77116300D03*
X137210800Y-78941300D03*
%TD*%
D19*
%TO.C,R3*%
X137210800Y-74726800D03*
X137210800Y-72901800D03*
%TD*%
D20*
%TO.C,J6*%
X133745700Y-60608900D03*
D15*
X133745700Y-63148900D03*
%TD*%
D21*
%TO.C,D6*%
X151130000Y-65074800D03*
X151130000Y-67274800D03*
%TD*%
D19*
%TO.C,R1*%
X132435600Y-73759700D03*
X132435600Y-71934700D03*
%TD*%
D16*
%TO.C,C7*%
X142951200Y-83325000D03*
X142951200Y-81775000D03*
%TD*%
D22*
%TO.C,D14*%
X153212800Y-80094000D03*
X153212800Y-77894000D03*
%TD*%
D23*
%TO.C,U3*%
X141036000Y-87395900D03*
X141986000Y-87395900D03*
X142936000Y-87395900D03*
X142936000Y-85120900D03*
X141036000Y-85120900D03*
%TD*%
D21*
%TO.C,D5*%
X148234400Y-65024000D03*
X148234400Y-67224000D03*
%TD*%
D22*
%TO.C,D11*%
X151993600Y-74810800D03*
X151993600Y-72610800D03*
%TD*%
D24*
%TO.C,J4*%
X136550400Y-66446400D03*
D15*
X134010400Y-66446400D03*
%TD*%
D25*
%TO.C,C12*%
X154686000Y-70358000D03*
X152786000Y-70358000D03*
%TD*%
D17*
%TO.C,C5*%
X133858000Y-79248000D03*
X133858000Y-80798000D03*
%TD*%
D26*
%TO.C,C11*%
X153040000Y-82550000D03*
X154940000Y-82550000D03*
%TD*%
D21*
%TO.C,D12*%
X155346400Y-77944800D03*
X155346400Y-80144800D03*
%TD*%
%TO.C,D13*%
X155346400Y-72560000D03*
X155346400Y-74760000D03*
%TD*%
D16*
%TO.C,C1*%
X148183600Y-77063600D03*
X148183600Y-75513600D03*
%TD*%
D14*
%TO.C,J2*%
X140958500Y-63550800D03*
D15*
X143498500Y-63550800D03*
%TD*%
D27*
%TO.C,R2*%
X138783700Y-85902800D03*
X136958700Y-85902800D03*
%TD*%
D14*
%TO.C,J3*%
X140965700Y-66486400D03*
D15*
X143505700Y-66486400D03*
%TD*%
D28*
%TO.C,J5*%
X136855700Y-63163900D03*
D15*
X136855700Y-60623900D03*
%TD*%
D29*
%TO.C,J8*%
X127355600Y-75844400D03*
D30*
X127355600Y-77094400D03*
%TD*%
D31*
%TO.C,TP6*%
X159207200Y-78892400D03*
%TD*%
D29*
%TO.C,J7*%
X142864999Y-92448800D03*
D30*
X141614999Y-92448800D03*
%TD*%
D31*
%TO.C,TP5*%
X159207200Y-73507600D03*
%TD*%
M02*
