%TF.GenerationSoftware,KiCad,Pcbnew,7.0.7*%
%TF.CreationDate,2024-10-25T00:06:54-07:00*%
%TF.ProjectId,PowerBoard_rev1.1,506f7765-7242-46f6-9172-645f72657631,rev?*%
%TF.SameCoordinates,Original*%
%TF.FileFunction,Copper,L3,Inr*%
%TF.FilePolarity,Positive*%
%FSLAX46Y46*%
G04 Gerber Fmt 4.6, Leading zero omitted, Abs format (unit mm)*
G04 Created by KiCad (PCBNEW 7.0.7) date 2024-10-25 00:06:54*
%MOMM*%
%LPD*%
G01*
G04 APERTURE LIST*
%TA.AperFunction,ComponentPad*%
%ADD10R,1.600000X1.600000*%
%TD*%
%TA.AperFunction,ComponentPad*%
%ADD11C,1.600000*%
%TD*%
%TA.AperFunction,ComponentPad*%
%ADD12R,1.530000X1.530000*%
%TD*%
%TA.AperFunction,ComponentPad*%
%ADD13C,1.530000*%
%TD*%
%TA.AperFunction,ComponentPad*%
%ADD14C,0.550000*%
%TD*%
%TA.AperFunction,ComponentPad*%
%ADD15R,0.850000X0.850000*%
%TD*%
%TA.AperFunction,ComponentPad*%
%ADD16C,0.850000*%
%TD*%
%TA.AperFunction,ComponentPad*%
%ADD17R,2.000000X2.000000*%
%TD*%
%TA.AperFunction,ViaPad*%
%ADD18C,0.800000*%
%TD*%
G04 APERTURE END LIST*
D10*
%TO.N,+BATT*%
%TO.C,C2*%
X149250400Y-80721200D03*
D11*
%TO.N,GND*%
X149250400Y-82721200D03*
%TD*%
D12*
%TO.N,Net-(U1-BOUT1)*%
%TO.C,J1*%
X140958500Y-60553600D03*
D13*
%TO.N,Net-(U1-BOUT2)*%
X143498500Y-60553600D03*
%TD*%
D12*
%TO.N,DRV_FAULT*%
%TO.C,J6*%
X133745700Y-60608900D03*
D13*
%TO.N,DRV_SLEEP*%
X133745700Y-63148900D03*
%TD*%
D14*
%TO.N,N/C*%
%TO.C,U1*%
X142119600Y-74117200D03*
X142119600Y-75317200D03*
X142119600Y-76517200D03*
X142119600Y-77717200D03*
X143119600Y-74117200D03*
X143119600Y-75317200D03*
X143119600Y-76517200D03*
X143119600Y-77717200D03*
X144119600Y-74117200D03*
X144119600Y-75317200D03*
X144119600Y-76517200D03*
X144119600Y-77717200D03*
%TD*%
D12*
%TO.N,MOTOR1_AIN2*%
%TO.C,J4*%
X136550400Y-66446400D03*
D13*
%TO.N,MOTOR1_AIN1*%
X134010400Y-66446400D03*
%TD*%
D12*
%TO.N,Net-(U1-AOUT1)*%
%TO.C,J2*%
X140958500Y-63550800D03*
D13*
%TO.N,Net-(U1-AOUT2)*%
X143498500Y-63550800D03*
%TD*%
D12*
%TO.N,GND*%
%TO.C,J3*%
X140965700Y-66486400D03*
D13*
%TO.N,VDC*%
X143505700Y-66486400D03*
%TD*%
D12*
%TO.N,MOTOR2_BIN2*%
%TO.C,J5*%
X136855700Y-63163900D03*
D13*
%TO.N,MOTOR2_BIN1*%
X136855700Y-60623900D03*
%TD*%
D15*
%TO.N,+BATT*%
%TO.C,J8*%
X127355600Y-75844400D03*
D16*
%TO.N,GND*%
X127355600Y-77094400D03*
%TD*%
D17*
%TO.N,Net-(D12-K)*%
%TO.C,TP6*%
X159207200Y-78892400D03*
%TD*%
D15*
%TO.N,+BATT*%
%TO.C,J7*%
X142864999Y-92448800D03*
D16*
%TO.N,GND*%
X141614999Y-92448800D03*
%TD*%
D17*
%TO.N,Net-(D11-K)*%
%TO.C,TP5*%
X159207200Y-73507600D03*
%TD*%
D18*
%TO.N,GND*%
X148691600Y-74371200D03*
X149758400Y-85140800D03*
X151231600Y-71323200D03*
X144373600Y-83362800D03*
X135636000Y-86410800D03*
X141884400Y-89408000D03*
X141478000Y-81686400D03*
X132740400Y-82346800D03*
X132689600Y-70510400D03*
X156464000Y-81534000D03*
X129590800Y-76301600D03*
X135534400Y-79451200D03*
X135432800Y-72542400D03*
%TO.N,MOTOR2_BIN2*%
X146507200Y-79502000D03*
%TO.N,MOTOR2_BIN1*%
X145084800Y-79451200D03*
%TO.N,VCC*%
X151739600Y-68580000D03*
X139344400Y-88087200D03*
X130048000Y-74930000D03*
X153365200Y-84124800D03*
X156057600Y-70510400D03*
%TO.N,Net-(U1-BOUT1)*%
X140817600Y-71069200D03*
X138734800Y-77571600D03*
%TO.N,Net-(U1-BOUT2)*%
X135737600Y-75844400D03*
%TO.N,Net-(U1-AOUT1)*%
X138709400Y-73482200D03*
%TO.N,Net-(U1-AOUT2)*%
X138632700Y-75431900D03*
%TD*%
%TA.AperFunction,Conductor*%
%TO.N,VCC*%
G36*
X143125523Y-56471206D02*
G01*
X143128212Y-56471327D01*
X144012060Y-56530918D01*
X144014716Y-56531157D01*
X144894991Y-56630340D01*
X144897651Y-56630701D01*
X145772572Y-56769275D01*
X145775226Y-56769757D01*
X146643028Y-56947440D01*
X146645712Y-56948054D01*
X147300917Y-57113150D01*
X147438404Y-57147794D01*
X147504625Y-57164480D01*
X147507300Y-57165218D01*
X148355634Y-57419962D01*
X148358244Y-57420811D01*
X149194317Y-57713366D01*
X149196922Y-57714344D01*
X150018970Y-58044091D01*
X150021522Y-58045181D01*
X150828005Y-58411503D01*
X150830474Y-58412693D01*
X151619691Y-58814819D01*
X151622141Y-58816137D01*
X152392501Y-59253255D01*
X152394890Y-59254682D01*
X152448076Y-59288101D01*
X153025257Y-59650768D01*
X153144879Y-59725931D01*
X153147188Y-59727455D01*
X153524324Y-59988736D01*
X153875276Y-60231876D01*
X153877527Y-60233512D01*
X154582259Y-60770096D01*
X154584407Y-60771810D01*
X155264358Y-61339473D01*
X155266453Y-61341304D01*
X155920239Y-61938890D01*
X155922250Y-61940813D01*
X156548551Y-62567114D01*
X156550474Y-62569125D01*
X157148060Y-63222911D01*
X157149891Y-63225006D01*
X157717554Y-63904957D01*
X157719272Y-63907111D01*
X157979620Y-64249043D01*
X158255852Y-64611837D01*
X158257488Y-64614088D01*
X158699902Y-65252675D01*
X158761900Y-65342163D01*
X158763433Y-65344485D01*
X159234682Y-66094474D01*
X159236109Y-66096863D01*
X159673227Y-66867223D01*
X159674545Y-66869673D01*
X160076671Y-67658890D01*
X160077870Y-67661378D01*
X160118987Y-67751900D01*
X160444180Y-68467836D01*
X160445273Y-68470394D01*
X160775020Y-69292442D01*
X160775998Y-69295047D01*
X161068553Y-70131120D01*
X161069410Y-70133757D01*
X161114841Y-70285048D01*
X161324143Y-70982056D01*
X161324884Y-70984739D01*
X161541310Y-71843652D01*
X161541930Y-71846365D01*
X161719602Y-72714111D01*
X161720095Y-72716828D01*
X161847381Y-73520477D01*
X161858657Y-73591671D01*
X161859028Y-73594411D01*
X161947122Y-74376261D01*
X161958202Y-74474601D01*
X161958449Y-74477344D01*
X162018034Y-75361102D01*
X162018159Y-75363882D01*
X162038033Y-76249408D01*
X162038033Y-76252192D01*
X162018159Y-77137717D01*
X162018034Y-77140491D01*
X161958449Y-78024251D01*
X161958202Y-78026995D01*
X161864529Y-78858378D01*
X161859031Y-78907170D01*
X161858657Y-78909928D01*
X161736869Y-79678871D01*
X161720099Y-79784750D01*
X161719602Y-79787488D01*
X161541930Y-80655234D01*
X161541310Y-80657947D01*
X161324884Y-81516860D01*
X161324143Y-81519543D01*
X161069413Y-82367833D01*
X161068553Y-82370479D01*
X160775998Y-83206552D01*
X160775020Y-83209157D01*
X160445273Y-84031205D01*
X160444180Y-84033763D01*
X160077879Y-84840202D01*
X160076671Y-84842709D01*
X159674545Y-85631926D01*
X159673227Y-85634376D01*
X159236109Y-86404736D01*
X159234682Y-86407125D01*
X158763433Y-87157114D01*
X158761900Y-87159436D01*
X158257488Y-87887511D01*
X158255852Y-87889762D01*
X157719289Y-88594467D01*
X157717554Y-88596642D01*
X157149891Y-89276593D01*
X157148060Y-89278688D01*
X156550474Y-89932474D01*
X156548551Y-89934485D01*
X155922250Y-90560786D01*
X155920239Y-90562709D01*
X155266453Y-91160295D01*
X155264358Y-91162126D01*
X154584407Y-91729789D01*
X154582232Y-91731524D01*
X153877527Y-92268087D01*
X153875276Y-92269723D01*
X153147201Y-92774135D01*
X153144879Y-92775668D01*
X152394890Y-93246917D01*
X152392501Y-93248344D01*
X151622141Y-93685462D01*
X151619691Y-93686780D01*
X150830474Y-94088906D01*
X150827967Y-94090114D01*
X150021528Y-94456415D01*
X150018970Y-94457508D01*
X149196922Y-94787255D01*
X149194317Y-94788233D01*
X148358244Y-95080788D01*
X148355598Y-95081648D01*
X147507308Y-95336378D01*
X147504625Y-95337119D01*
X146645712Y-95553545D01*
X146642999Y-95554165D01*
X145775253Y-95731837D01*
X145772528Y-95732331D01*
X145040861Y-95848216D01*
X144897693Y-95870892D01*
X144894947Y-95871264D01*
X144014763Y-95970437D01*
X144012016Y-95970684D01*
X143128256Y-96030269D01*
X143125482Y-96030394D01*
X142239955Y-96050268D01*
X142237173Y-96050268D01*
X141351647Y-96030394D01*
X141348875Y-96030269D01*
X140465109Y-95970684D01*
X140462373Y-95970437D01*
X139582176Y-95871263D01*
X139579440Y-95870892D01*
X138704593Y-95732330D01*
X138701876Y-95731837D01*
X137834130Y-95554165D01*
X137831417Y-95553545D01*
X136972504Y-95337119D01*
X136969821Y-95336378D01*
X136370166Y-95156309D01*
X136121522Y-95081645D01*
X136118885Y-95080788D01*
X135282812Y-94788233D01*
X135280207Y-94787255D01*
X134458159Y-94457508D01*
X134455601Y-94456415D01*
X134094309Y-94292308D01*
X133649143Y-94090105D01*
X133646655Y-94088906D01*
X132857438Y-93686780D01*
X132854988Y-93685462D01*
X132084628Y-93248344D01*
X132082239Y-93246917D01*
X131332250Y-92775668D01*
X131329928Y-92774135D01*
X130860335Y-92448800D01*
X140684401Y-92448800D01*
X140704737Y-92642283D01*
X140764855Y-92827310D01*
X140764856Y-92827311D01*
X140819331Y-92921664D01*
X140862129Y-92995792D01*
X140907475Y-93046154D01*
X140992301Y-93140364D01*
X140992304Y-93140366D01*
X140992307Y-93140369D01*
X141110351Y-93226133D01*
X141149701Y-93254723D01*
X141195252Y-93275003D01*
X141327428Y-93333851D01*
X141517725Y-93374300D01*
X141712273Y-93374300D01*
X141902570Y-93333851D01*
X142034746Y-93275002D01*
X142103994Y-93265719D01*
X142159490Y-93289016D01*
X142197667Y-93317595D01*
X142197670Y-93317597D01*
X142332516Y-93367891D01*
X142332515Y-93367891D01*
X142339443Y-93368635D01*
X142392126Y-93374300D01*
X143337871Y-93374299D01*
X143397482Y-93367891D01*
X143532330Y-93317596D01*
X143647545Y-93231346D01*
X143733795Y-93116131D01*
X143784090Y-92981283D01*
X143790499Y-92921673D01*
X143790498Y-91975928D01*
X143784090Y-91916317D01*
X143778678Y-91901808D01*
X143733796Y-91781471D01*
X143733792Y-91781464D01*
X143647546Y-91666255D01*
X143647543Y-91666252D01*
X143532334Y-91580006D01*
X143532327Y-91580002D01*
X143397481Y-91529708D01*
X143397482Y-91529708D01*
X143337882Y-91523301D01*
X143337880Y-91523300D01*
X143337872Y-91523300D01*
X143337863Y-91523300D01*
X142392128Y-91523300D01*
X142392122Y-91523301D01*
X142332515Y-91529708D01*
X142197670Y-91580002D01*
X142197664Y-91580005D01*
X142159488Y-91608584D01*
X142094024Y-91633000D01*
X142034744Y-91622596D01*
X141939084Y-91580006D01*
X141902570Y-91563749D01*
X141902568Y-91563748D01*
X141712273Y-91523300D01*
X141517725Y-91523300D01*
X141327430Y-91563748D01*
X141149701Y-91642876D01*
X140992304Y-91757233D01*
X140992301Y-91757235D01*
X140862128Y-91901809D01*
X140764856Y-92070288D01*
X140764855Y-92070289D01*
X140704737Y-92255316D01*
X140684401Y-92448800D01*
X130860335Y-92448800D01*
X130601853Y-92269723D01*
X130599602Y-92268087D01*
X130215883Y-91975923D01*
X129894876Y-91731507D01*
X129892722Y-91729789D01*
X129212771Y-91162126D01*
X129210676Y-91160295D01*
X128556890Y-90562709D01*
X128554879Y-90560786D01*
X127928578Y-89934485D01*
X127926655Y-89932474D01*
X127447265Y-89408000D01*
X140978940Y-89408000D01*
X140998726Y-89596256D01*
X140998727Y-89596259D01*
X141057218Y-89776277D01*
X141057221Y-89776284D01*
X141151867Y-89940216D01*
X141256379Y-90056288D01*
X141278529Y-90080888D01*
X141431665Y-90192148D01*
X141431670Y-90192151D01*
X141604592Y-90269142D01*
X141604597Y-90269144D01*
X141789754Y-90308500D01*
X141789755Y-90308500D01*
X141979044Y-90308500D01*
X141979046Y-90308500D01*
X142164203Y-90269144D01*
X142337130Y-90192151D01*
X142490271Y-90080888D01*
X142616933Y-89940216D01*
X142711579Y-89776284D01*
X142770074Y-89596256D01*
X142789860Y-89408000D01*
X142770074Y-89219744D01*
X142711579Y-89039716D01*
X142616933Y-88875784D01*
X142490271Y-88735112D01*
X142490270Y-88735111D01*
X142337134Y-88623851D01*
X142337129Y-88623848D01*
X142164207Y-88546857D01*
X142164202Y-88546855D01*
X142018400Y-88515865D01*
X141979046Y-88507500D01*
X141789754Y-88507500D01*
X141757297Y-88514398D01*
X141604597Y-88546855D01*
X141604592Y-88546857D01*
X141431670Y-88623848D01*
X141431665Y-88623851D01*
X141278529Y-88735111D01*
X141151866Y-88875785D01*
X141057221Y-89039715D01*
X141057218Y-89039722D01*
X140998727Y-89219740D01*
X140998726Y-89219744D01*
X140978940Y-89408000D01*
X127447265Y-89408000D01*
X127329069Y-89278688D01*
X127327238Y-89276593D01*
X126759575Y-88596642D01*
X126757861Y-88594494D01*
X126221277Y-87889762D01*
X126219641Y-87887511D01*
X125793175Y-87271944D01*
X125715220Y-87159423D01*
X125713696Y-87157114D01*
X125667559Y-87083688D01*
X125244756Y-86410800D01*
X134730540Y-86410800D01*
X134750326Y-86599056D01*
X134750327Y-86599059D01*
X134808818Y-86779077D01*
X134808821Y-86779084D01*
X134903467Y-86943016D01*
X135030128Y-87083688D01*
X135030129Y-87083688D01*
X135183265Y-87194948D01*
X135183270Y-87194951D01*
X135356192Y-87271942D01*
X135356197Y-87271944D01*
X135541354Y-87311300D01*
X135541355Y-87311300D01*
X135730644Y-87311300D01*
X135730646Y-87311300D01*
X135915803Y-87271944D01*
X136088730Y-87194951D01*
X136241871Y-87083688D01*
X136368533Y-86943016D01*
X136463179Y-86779084D01*
X136521674Y-86599056D01*
X136541460Y-86410800D01*
X136521674Y-86222544D01*
X136463179Y-86042516D01*
X136368533Y-85878584D01*
X136241871Y-85737912D01*
X136191863Y-85701579D01*
X136088734Y-85626651D01*
X136088729Y-85626648D01*
X135915807Y-85549657D01*
X135915802Y-85549655D01*
X135770001Y-85518665D01*
X135730646Y-85510300D01*
X135541354Y-85510300D01*
X135508897Y-85517198D01*
X135356197Y-85549655D01*
X135356192Y-85549657D01*
X135183270Y-85626648D01*
X135183265Y-85626651D01*
X135030129Y-85737911D01*
X134903466Y-85878585D01*
X134808821Y-86042515D01*
X134808818Y-86042522D01*
X134750327Y-86222540D01*
X134750326Y-86222544D01*
X134730540Y-86410800D01*
X125244756Y-86410800D01*
X125242447Y-86407125D01*
X125241020Y-86404736D01*
X124968780Y-85924951D01*
X124803896Y-85634366D01*
X124802584Y-85631926D01*
X124552343Y-85140800D01*
X148852940Y-85140800D01*
X148872726Y-85329056D01*
X148872727Y-85329059D01*
X148931218Y-85509077D01*
X148931221Y-85509084D01*
X149025867Y-85673016D01*
X149084299Y-85737911D01*
X149152529Y-85813688D01*
X149305665Y-85924948D01*
X149305670Y-85924951D01*
X149478592Y-86001942D01*
X149478597Y-86001944D01*
X149663754Y-86041300D01*
X149663755Y-86041300D01*
X149853044Y-86041300D01*
X149853046Y-86041300D01*
X150038203Y-86001944D01*
X150211130Y-85924951D01*
X150364271Y-85813688D01*
X150490933Y-85673016D01*
X150585579Y-85509084D01*
X150644074Y-85329056D01*
X150663860Y-85140800D01*
X150644074Y-84952544D01*
X150585579Y-84772516D01*
X150490933Y-84608584D01*
X150364271Y-84467912D01*
X150364270Y-84467911D01*
X150211134Y-84356651D01*
X150211129Y-84356648D01*
X150038207Y-84279657D01*
X150038202Y-84279655D01*
X149892400Y-84248665D01*
X149853046Y-84240300D01*
X149663754Y-84240300D01*
X149631297Y-84247198D01*
X149478597Y-84279655D01*
X149478592Y-84279657D01*
X149305670Y-84356648D01*
X149305665Y-84356651D01*
X149152529Y-84467911D01*
X149025866Y-84608585D01*
X148931221Y-84772515D01*
X148931218Y-84772522D01*
X148872727Y-84952540D01*
X148872726Y-84952544D01*
X148852940Y-85140800D01*
X124552343Y-85140800D01*
X124400458Y-84842709D01*
X124399268Y-84840240D01*
X124032946Y-84033757D01*
X124031856Y-84031205D01*
X123763740Y-83362800D01*
X143468140Y-83362800D01*
X143487926Y-83551056D01*
X143487927Y-83551059D01*
X143546418Y-83731077D01*
X143546421Y-83731084D01*
X143641067Y-83895016D01*
X143764858Y-84032499D01*
X143767729Y-84035688D01*
X143920865Y-84146948D01*
X143920870Y-84146951D01*
X144093792Y-84223942D01*
X144093797Y-84223944D01*
X144278954Y-84263300D01*
X144278955Y-84263300D01*
X144468244Y-84263300D01*
X144468246Y-84263300D01*
X144653403Y-84223944D01*
X144826330Y-84146951D01*
X144979471Y-84035688D01*
X145106133Y-83895016D01*
X145200779Y-83731084D01*
X145259274Y-83551056D01*
X145279060Y-83362800D01*
X145259274Y-83174544D01*
X145200779Y-82994516D01*
X145106133Y-82830584D01*
X145007644Y-82721201D01*
X147944932Y-82721201D01*
X147964764Y-82947886D01*
X147964766Y-82947897D01*
X148023658Y-83167688D01*
X148023661Y-83167697D01*
X148119831Y-83373932D01*
X148119832Y-83373934D01*
X148250354Y-83560341D01*
X148411258Y-83721245D01*
X148411261Y-83721247D01*
X148597666Y-83851768D01*
X148803904Y-83947939D01*
X149023708Y-84006835D01*
X149185630Y-84021001D01*
X149250398Y-84026668D01*
X149250400Y-84026668D01*
X149250402Y-84026668D01*
X149307072Y-84021709D01*
X149477092Y-84006835D01*
X149696896Y-83947939D01*
X149903134Y-83851768D01*
X150089539Y-83721247D01*
X150250447Y-83560339D01*
X150380968Y-83373934D01*
X150477139Y-83167696D01*
X150536035Y-82947892D01*
X150555868Y-82721200D01*
X150536035Y-82494508D01*
X150477139Y-82274704D01*
X150380968Y-82068466D01*
X150380967Y-82068464D01*
X150371989Y-82055642D01*
X150349662Y-81989435D01*
X150366673Y-81921668D01*
X150399255Y-81885251D01*
X150407946Y-81878746D01*
X150494196Y-81763531D01*
X150544491Y-81628683D01*
X150550900Y-81569073D01*
X150550900Y-81534000D01*
X155558540Y-81534000D01*
X155578326Y-81722256D01*
X155578327Y-81722259D01*
X155636818Y-81902277D01*
X155636821Y-81902284D01*
X155731467Y-82066216D01*
X155814596Y-82158540D01*
X155858129Y-82206888D01*
X156011265Y-82318148D01*
X156011270Y-82318151D01*
X156184192Y-82395142D01*
X156184197Y-82395144D01*
X156369354Y-82434500D01*
X156369355Y-82434500D01*
X156558644Y-82434500D01*
X156558646Y-82434500D01*
X156743803Y-82395144D01*
X156916730Y-82318151D01*
X157069871Y-82206888D01*
X157196533Y-82066216D01*
X157291179Y-81902284D01*
X157349674Y-81722256D01*
X157369460Y-81534000D01*
X157349674Y-81345744D01*
X157291179Y-81165716D01*
X157196533Y-81001784D01*
X157069871Y-80861112D01*
X157020521Y-80825257D01*
X156916734Y-80749851D01*
X156916729Y-80749848D01*
X156743807Y-80672857D01*
X156743802Y-80672855D01*
X156598001Y-80641865D01*
X156558646Y-80633500D01*
X156369354Y-80633500D01*
X156336897Y-80640398D01*
X156184197Y-80672855D01*
X156184192Y-80672857D01*
X156011270Y-80749848D01*
X156011265Y-80749851D01*
X155858129Y-80861111D01*
X155731466Y-81001785D01*
X155636821Y-81165715D01*
X155636818Y-81165722D01*
X155587303Y-81318115D01*
X155578326Y-81345744D01*
X155558540Y-81534000D01*
X150550900Y-81534000D01*
X150550899Y-79940270D01*
X157706700Y-79940270D01*
X157706701Y-79940276D01*
X157713108Y-79999883D01*
X157763402Y-80134728D01*
X157763406Y-80134735D01*
X157849652Y-80249944D01*
X157849655Y-80249947D01*
X157964864Y-80336193D01*
X157964871Y-80336197D01*
X158099717Y-80386491D01*
X158099716Y-80386491D01*
X158106644Y-80387235D01*
X158159327Y-80392900D01*
X160255072Y-80392899D01*
X160314683Y-80386491D01*
X160449531Y-80336196D01*
X160564746Y-80249946D01*
X160650996Y-80134731D01*
X160701291Y-79999883D01*
X160707700Y-79940273D01*
X160707699Y-77844528D01*
X160701291Y-77784917D01*
X160676035Y-77717203D01*
X160650997Y-77650071D01*
X160650993Y-77650064D01*
X160564747Y-77534855D01*
X160564744Y-77534852D01*
X160449535Y-77448606D01*
X160449528Y-77448602D01*
X160314682Y-77398308D01*
X160314683Y-77398308D01*
X160255083Y-77391901D01*
X160255081Y-77391900D01*
X160255073Y-77391900D01*
X160255064Y-77391900D01*
X158159329Y-77391900D01*
X158159323Y-77391901D01*
X158099716Y-77398308D01*
X157964871Y-77448602D01*
X157964864Y-77448606D01*
X157849655Y-77534852D01*
X157849652Y-77534855D01*
X157763406Y-77650064D01*
X157763402Y-77650071D01*
X157713108Y-77784917D01*
X157706701Y-77844516D01*
X157706701Y-77844523D01*
X157706700Y-77844535D01*
X157706700Y-79940270D01*
X150550899Y-79940270D01*
X150550899Y-79873328D01*
X150544491Y-79813717D01*
X150534708Y-79787488D01*
X150494197Y-79678871D01*
X150494193Y-79678864D01*
X150407947Y-79563655D01*
X150407944Y-79563652D01*
X150292735Y-79477406D01*
X150292728Y-79477402D01*
X150157882Y-79427108D01*
X150157883Y-79427108D01*
X150098283Y-79420701D01*
X150098281Y-79420700D01*
X150098273Y-79420700D01*
X150098264Y-79420700D01*
X148402529Y-79420700D01*
X148402523Y-79420701D01*
X148342916Y-79427108D01*
X148208071Y-79477402D01*
X148208064Y-79477406D01*
X148092855Y-79563652D01*
X148092852Y-79563655D01*
X148006606Y-79678864D01*
X148006602Y-79678871D01*
X147956308Y-79813717D01*
X147950228Y-79870277D01*
X147949901Y-79873323D01*
X147949900Y-79873335D01*
X147949900Y-81569070D01*
X147949901Y-81569076D01*
X147956308Y-81628683D01*
X148006602Y-81763528D01*
X148006606Y-81763535D01*
X148092852Y-81878744D01*
X148092853Y-81878745D01*
X148092854Y-81878746D01*
X148101542Y-81885250D01*
X148101545Y-81885252D01*
X148143417Y-81941185D01*
X148148401Y-82010877D01*
X148128815Y-82055635D01*
X148119834Y-82068462D01*
X148119831Y-82068467D01*
X148023661Y-82274702D01*
X148023658Y-82274711D01*
X147964766Y-82494502D01*
X147964764Y-82494513D01*
X147944932Y-82721198D01*
X147944932Y-82721201D01*
X145007644Y-82721201D01*
X144979471Y-82689912D01*
X144979470Y-82689911D01*
X144826334Y-82578651D01*
X144826329Y-82578648D01*
X144653407Y-82501657D01*
X144653402Y-82501655D01*
X144507050Y-82470548D01*
X144468246Y-82462300D01*
X144278954Y-82462300D01*
X144246497Y-82469198D01*
X144093797Y-82501655D01*
X144093792Y-82501657D01*
X143920870Y-82578648D01*
X143920865Y-82578651D01*
X143767729Y-82689911D01*
X143641066Y-82830585D01*
X143546421Y-82994515D01*
X143546418Y-82994522D01*
X143487927Y-83174540D01*
X143487926Y-83174544D01*
X143468140Y-83362800D01*
X123763740Y-83362800D01*
X123702109Y-83209157D01*
X123701131Y-83206552D01*
X123408576Y-82370479D01*
X123407727Y-82367869D01*
X123401400Y-82346800D01*
X131834940Y-82346800D01*
X131854726Y-82535056D01*
X131854727Y-82535059D01*
X131913218Y-82715077D01*
X131913221Y-82715084D01*
X132007867Y-82879016D01*
X132134528Y-83019688D01*
X132134529Y-83019688D01*
X132287665Y-83130948D01*
X132287670Y-83130951D01*
X132460592Y-83207942D01*
X132460597Y-83207944D01*
X132645754Y-83247300D01*
X132645755Y-83247300D01*
X132835044Y-83247300D01*
X132835046Y-83247300D01*
X133020203Y-83207944D01*
X133193130Y-83130951D01*
X133346271Y-83019688D01*
X133472933Y-82879016D01*
X133567579Y-82715084D01*
X133626074Y-82535056D01*
X133645860Y-82346800D01*
X133626074Y-82158544D01*
X133567579Y-81978516D01*
X133472933Y-81814584D01*
X133357515Y-81686400D01*
X140572540Y-81686400D01*
X140592326Y-81874656D01*
X140592327Y-81874659D01*
X140650818Y-82054677D01*
X140650821Y-82054684D01*
X140745467Y-82218616D01*
X140835089Y-82318151D01*
X140872129Y-82359288D01*
X141025265Y-82470548D01*
X141025270Y-82470551D01*
X141198192Y-82547542D01*
X141198197Y-82547544D01*
X141383354Y-82586900D01*
X141383355Y-82586900D01*
X141572644Y-82586900D01*
X141572646Y-82586900D01*
X141757803Y-82547544D01*
X141930730Y-82470551D01*
X142083871Y-82359288D01*
X142210533Y-82218616D01*
X142305179Y-82054684D01*
X142363674Y-81874656D01*
X142383460Y-81686400D01*
X142363674Y-81498144D01*
X142305179Y-81318116D01*
X142210533Y-81154184D01*
X142083871Y-81013512D01*
X142083870Y-81013511D01*
X141930734Y-80902251D01*
X141930729Y-80902248D01*
X141757807Y-80825257D01*
X141757802Y-80825255D01*
X141612000Y-80794265D01*
X141572646Y-80785900D01*
X141383354Y-80785900D01*
X141350897Y-80792798D01*
X141198197Y-80825255D01*
X141198192Y-80825257D01*
X141025270Y-80902248D01*
X141025265Y-80902251D01*
X140872129Y-81013511D01*
X140745466Y-81154185D01*
X140650821Y-81318115D01*
X140650818Y-81318122D01*
X140596383Y-81485657D01*
X140592326Y-81498144D01*
X140572540Y-81686400D01*
X133357515Y-81686400D01*
X133346271Y-81673912D01*
X133346270Y-81673911D01*
X133193134Y-81562651D01*
X133193129Y-81562648D01*
X133020207Y-81485657D01*
X133020202Y-81485655D01*
X132874400Y-81454665D01*
X132835046Y-81446300D01*
X132645754Y-81446300D01*
X132613297Y-81453198D01*
X132460597Y-81485655D01*
X132460592Y-81485657D01*
X132287670Y-81562648D01*
X132287665Y-81562651D01*
X132134529Y-81673911D01*
X132007866Y-81814585D01*
X131913221Y-81978515D01*
X131913218Y-81978522D01*
X131854727Y-82158540D01*
X131854726Y-82158544D01*
X131834940Y-82346800D01*
X123401400Y-82346800D01*
X123152983Y-81519535D01*
X123152245Y-81516860D01*
X122935819Y-80657947D01*
X122935205Y-80655263D01*
X122757522Y-79787461D01*
X122757040Y-79784807D01*
X122704202Y-79451200D01*
X134628940Y-79451200D01*
X134648726Y-79639456D01*
X134648727Y-79639459D01*
X134707218Y-79819477D01*
X134707221Y-79819484D01*
X134801867Y-79983416D01*
X134845734Y-80032135D01*
X134928529Y-80124088D01*
X135081665Y-80235348D01*
X135081670Y-80235351D01*
X135254592Y-80312342D01*
X135254597Y-80312344D01*
X135439754Y-80351700D01*
X135439755Y-80351700D01*
X135629044Y-80351700D01*
X135629046Y-80351700D01*
X135814203Y-80312344D01*
X135987130Y-80235351D01*
X136140271Y-80124088D01*
X136266933Y-79983416D01*
X136361579Y-79819484D01*
X136420074Y-79639456D01*
X136439860Y-79451200D01*
X144179340Y-79451200D01*
X144199126Y-79639456D01*
X144199127Y-79639459D01*
X144257618Y-79819477D01*
X144257621Y-79819484D01*
X144352267Y-79983416D01*
X144396134Y-80032135D01*
X144478929Y-80124088D01*
X144632065Y-80235348D01*
X144632070Y-80235351D01*
X144804992Y-80312342D01*
X144804997Y-80312344D01*
X144990154Y-80351700D01*
X144990155Y-80351700D01*
X145179444Y-80351700D01*
X145179446Y-80351700D01*
X145364603Y-80312344D01*
X145537530Y-80235351D01*
X145690671Y-80124088D01*
X145690670Y-80124088D01*
X145695929Y-80120268D01*
X145696872Y-80121566D01*
X145752569Y-80094826D01*
X145821906Y-80103439D01*
X145864717Y-80134226D01*
X145901329Y-80174888D01*
X145901332Y-80174890D01*
X146054465Y-80286148D01*
X146054470Y-80286151D01*
X146227392Y-80363142D01*
X146227397Y-80363144D01*
X146412554Y-80402500D01*
X146412555Y-80402500D01*
X146601844Y-80402500D01*
X146601846Y-80402500D01*
X146787003Y-80363144D01*
X146959930Y-80286151D01*
X147113071Y-80174888D01*
X147239733Y-80034216D01*
X147334379Y-79870284D01*
X147392874Y-79690256D01*
X147412660Y-79502000D01*
X147392874Y-79313744D01*
X147334379Y-79133716D01*
X147239733Y-78969784D01*
X147113071Y-78829112D01*
X147043151Y-78778312D01*
X146959934Y-78717851D01*
X146959929Y-78717848D01*
X146787007Y-78640857D01*
X146787002Y-78640855D01*
X146641201Y-78609865D01*
X146601846Y-78601500D01*
X146412554Y-78601500D01*
X146380097Y-78608398D01*
X146227397Y-78640855D01*
X146227392Y-78640857D01*
X146054470Y-78717848D01*
X146054465Y-78717851D01*
X145896071Y-78832931D01*
X145895131Y-78831637D01*
X145839396Y-78858378D01*
X145770061Y-78849745D01*
X145727278Y-78818968D01*
X145690670Y-78778311D01*
X145537534Y-78667051D01*
X145537529Y-78667048D01*
X145364607Y-78590057D01*
X145364602Y-78590055D01*
X145218800Y-78559065D01*
X145179446Y-78550700D01*
X144990154Y-78550700D01*
X144957697Y-78557598D01*
X144804997Y-78590055D01*
X144804992Y-78590057D01*
X144632070Y-78667048D01*
X144632065Y-78667051D01*
X144478929Y-78778311D01*
X144352266Y-78918985D01*
X144257621Y-79082915D01*
X144257618Y-79082922D01*
X144199127Y-79262940D01*
X144199126Y-79262944D01*
X144179340Y-79451200D01*
X136439860Y-79451200D01*
X136420074Y-79262944D01*
X136361579Y-79082916D01*
X136266933Y-78918984D01*
X136140271Y-78778312D01*
X136140270Y-78778311D01*
X135987134Y-78667051D01*
X135987129Y-78667048D01*
X135814207Y-78590057D01*
X135814202Y-78590055D01*
X135668400Y-78559065D01*
X135629046Y-78550700D01*
X135439754Y-78550700D01*
X135407297Y-78557598D01*
X135254597Y-78590055D01*
X135254592Y-78590057D01*
X135081670Y-78667048D01*
X135081665Y-78667051D01*
X134928529Y-78778311D01*
X134801866Y-78918985D01*
X134707221Y-79082915D01*
X134707218Y-79082922D01*
X134648727Y-79262940D01*
X134648726Y-79262944D01*
X134628940Y-79451200D01*
X122704202Y-79451200D01*
X122618466Y-78909886D01*
X122618105Y-78907226D01*
X122518922Y-78026951D01*
X122518683Y-78024295D01*
X122459092Y-77140447D01*
X122458971Y-77137758D01*
X122457998Y-77094400D01*
X126425002Y-77094400D01*
X126445338Y-77287883D01*
X126505456Y-77472910D01*
X126505457Y-77472911D01*
X126585759Y-77611997D01*
X126602730Y-77641392D01*
X126610543Y-77650069D01*
X126732902Y-77785964D01*
X126732905Y-77785966D01*
X126732908Y-77785969D01*
X126813509Y-77844529D01*
X126890302Y-77900323D01*
X126958526Y-77930697D01*
X127068029Y-77979451D01*
X127258326Y-78019900D01*
X127452874Y-78019900D01*
X127643171Y-77979451D01*
X127820899Y-77900322D01*
X127978292Y-77785969D01*
X127979240Y-77784917D01*
X128040209Y-77717203D01*
X128108470Y-77641392D01*
X128148764Y-77571600D01*
X137829340Y-77571600D01*
X137849126Y-77759856D01*
X137849127Y-77759859D01*
X137907618Y-77939877D01*
X137907621Y-77939884D01*
X138002267Y-78103816D01*
X138092272Y-78203776D01*
X138128929Y-78244488D01*
X138282065Y-78355748D01*
X138282070Y-78355751D01*
X138454992Y-78432742D01*
X138454997Y-78432744D01*
X138640154Y-78472100D01*
X138640155Y-78472100D01*
X138829444Y-78472100D01*
X138829446Y-78472100D01*
X139014603Y-78432744D01*
X139187530Y-78355751D01*
X139340671Y-78244488D01*
X139467333Y-78103816D01*
X139561979Y-77939884D01*
X139620474Y-77759856D01*
X139624957Y-77717203D01*
X141339193Y-77717203D01*
X141358757Y-77890848D01*
X141358759Y-77890858D01*
X141405428Y-78024227D01*
X141416478Y-78055806D01*
X141509453Y-78203776D01*
X141633024Y-78327347D01*
X141780994Y-78420322D01*
X141945943Y-78478041D01*
X141945949Y-78478041D01*
X141945951Y-78478042D01*
X142119596Y-78497607D01*
X142119600Y-78497607D01*
X142119604Y-78497607D01*
X142293248Y-78478042D01*
X142293247Y-78478042D01*
X142293257Y-78478041D01*
X142458206Y-78420322D01*
X142553630Y-78360363D01*
X142620865Y-78341364D01*
X142685569Y-78360363D01*
X142780994Y-78420322D01*
X142945943Y-78478041D01*
X142945949Y-78478041D01*
X142945951Y-78478042D01*
X143119596Y-78497607D01*
X143119600Y-78497607D01*
X143119604Y-78497607D01*
X143293248Y-78478042D01*
X143293247Y-78478042D01*
X143293257Y-78478041D01*
X143458206Y-78420322D01*
X143553630Y-78360363D01*
X143620865Y-78341364D01*
X143685569Y-78360363D01*
X143780994Y-78420322D01*
X143945943Y-78478041D01*
X143945949Y-78478041D01*
X143945951Y-78478042D01*
X144119596Y-78497607D01*
X144119600Y-78497607D01*
X144119604Y-78497607D01*
X144293248Y-78478042D01*
X144293247Y-78478042D01*
X144293257Y-78478041D01*
X144458206Y-78420322D01*
X144606176Y-78327347D01*
X144729747Y-78203776D01*
X144822722Y-78055806D01*
X144880441Y-77890857D01*
X144885661Y-77844527D01*
X144900007Y-77717203D01*
X144900007Y-77717196D01*
X144880442Y-77543551D01*
X144880441Y-77543549D01*
X144880441Y-77543543D01*
X144822722Y-77378594D01*
X144729747Y-77230624D01*
X144729745Y-77230622D01*
X144729744Y-77230620D01*
X144704004Y-77204880D01*
X144670519Y-77143557D01*
X144675503Y-77073865D01*
X144704001Y-77029520D01*
X144729747Y-77003776D01*
X144822722Y-76855806D01*
X144880441Y-76690857D01*
X144900007Y-76517200D01*
X144899390Y-76511728D01*
X144880442Y-76343551D01*
X144880441Y-76343549D01*
X144880441Y-76343543D01*
X144822722Y-76178594D01*
X144729747Y-76030624D01*
X144704004Y-76004881D01*
X144670519Y-75943558D01*
X144675503Y-75873866D01*
X144704004Y-75829519D01*
X144729747Y-75803776D01*
X144822722Y-75655806D01*
X144880441Y-75490857D01*
X144893886Y-75371527D01*
X144900007Y-75317203D01*
X144900007Y-75317196D01*
X144880442Y-75143551D01*
X144880441Y-75143549D01*
X144880441Y-75143543D01*
X144822722Y-74978594D01*
X144729747Y-74830624D01*
X144704004Y-74804881D01*
X144670519Y-74743558D01*
X144675503Y-74673866D01*
X144704004Y-74629519D01*
X144704005Y-74629518D01*
X144729747Y-74603776D01*
X144822722Y-74455806D01*
X144852327Y-74371200D01*
X147786140Y-74371200D01*
X147805926Y-74559456D01*
X147805927Y-74559459D01*
X147864418Y-74739477D01*
X147864421Y-74739484D01*
X147959067Y-74903416D01*
X148053324Y-75008099D01*
X148085729Y-75044088D01*
X148238865Y-75155348D01*
X148238870Y-75155351D01*
X148411792Y-75232342D01*
X148411797Y-75232344D01*
X148596954Y-75271700D01*
X148596955Y-75271700D01*
X148786244Y-75271700D01*
X148786246Y-75271700D01*
X148971403Y-75232344D01*
X149144330Y-75155351D01*
X149297471Y-75044088D01*
X149424133Y-74903416D01*
X149518779Y-74739484D01*
X149577274Y-74559456D01*
X149577693Y-74555470D01*
X157706700Y-74555470D01*
X157706701Y-74555476D01*
X157713108Y-74615083D01*
X157763402Y-74749928D01*
X157763406Y-74749935D01*
X157849652Y-74865144D01*
X157849655Y-74865147D01*
X157964864Y-74951393D01*
X157964871Y-74951397D01*
X158099717Y-75001691D01*
X158099716Y-75001691D01*
X158106644Y-75002435D01*
X158159327Y-75008100D01*
X160255072Y-75008099D01*
X160314683Y-75001691D01*
X160449531Y-74951396D01*
X160564746Y-74865146D01*
X160650996Y-74749931D01*
X160701291Y-74615083D01*
X160707700Y-74555473D01*
X160707699Y-72459728D01*
X160701291Y-72400117D01*
X160684144Y-72354144D01*
X160650997Y-72265271D01*
X160650993Y-72265264D01*
X160564747Y-72150055D01*
X160564744Y-72150052D01*
X160449535Y-72063806D01*
X160449528Y-72063802D01*
X160314682Y-72013508D01*
X160314683Y-72013508D01*
X160255083Y-72007101D01*
X160255081Y-72007100D01*
X160255073Y-72007100D01*
X160255064Y-72007100D01*
X158159329Y-72007100D01*
X158159323Y-72007101D01*
X158099716Y-72013508D01*
X157964871Y-72063802D01*
X157964864Y-72063806D01*
X157849655Y-72150052D01*
X157849652Y-72150055D01*
X157763406Y-72265264D01*
X157763402Y-72265271D01*
X157713108Y-72400117D01*
X157706701Y-72459716D01*
X157706701Y-72459723D01*
X157706700Y-72459735D01*
X157706700Y-74555470D01*
X149577693Y-74555470D01*
X149597060Y-74371200D01*
X149577274Y-74182944D01*
X149518779Y-74002916D01*
X149424133Y-73838984D01*
X149297471Y-73698312D01*
X149297470Y-73698311D01*
X149144334Y-73587051D01*
X149144329Y-73587048D01*
X148971407Y-73510057D01*
X148971402Y-73510055D01*
X148825600Y-73479065D01*
X148786246Y-73470700D01*
X148596954Y-73470700D01*
X148581264Y-73474035D01*
X148411797Y-73510055D01*
X148411792Y-73510057D01*
X148238870Y-73587048D01*
X148238865Y-73587051D01*
X148085729Y-73698311D01*
X147959066Y-73838985D01*
X147864421Y-74002915D01*
X147864418Y-74002922D01*
X147814977Y-74155088D01*
X147805926Y-74182944D01*
X147786140Y-74371200D01*
X144852327Y-74371200D01*
X144880441Y-74290857D01*
X144900007Y-74117200D01*
X144888426Y-74014416D01*
X144880442Y-73943551D01*
X144880441Y-73943549D01*
X144880441Y-73943543D01*
X144822722Y-73778594D01*
X144729747Y-73630624D01*
X144606176Y-73507053D01*
X144458206Y-73414078D01*
X144458205Y-73414077D01*
X144458204Y-73414077D01*
X144293258Y-73356359D01*
X144293248Y-73356357D01*
X144119604Y-73336793D01*
X144119596Y-73336793D01*
X143945951Y-73356357D01*
X143945941Y-73356359D01*
X143780992Y-73414078D01*
X143685571Y-73474035D01*
X143618334Y-73493035D01*
X143553629Y-73474035D01*
X143458207Y-73414078D01*
X143293258Y-73356359D01*
X143293248Y-73356357D01*
X143119604Y-73336793D01*
X143119596Y-73336793D01*
X142945951Y-73356357D01*
X142945941Y-73356359D01*
X142780992Y-73414078D01*
X142685571Y-73474035D01*
X142618334Y-73493035D01*
X142553629Y-73474035D01*
X142458207Y-73414078D01*
X142293258Y-73356359D01*
X142293248Y-73356357D01*
X142119604Y-73336793D01*
X142119596Y-73336793D01*
X141945951Y-73356357D01*
X141945941Y-73356359D01*
X141780995Y-73414077D01*
X141633023Y-73507053D01*
X141509453Y-73630623D01*
X141416477Y-73778595D01*
X141358759Y-73943541D01*
X141358757Y-73943551D01*
X141339193Y-74117196D01*
X141339193Y-74117203D01*
X141358757Y-74290848D01*
X141358759Y-74290858D01*
X141412035Y-74443110D01*
X141416478Y-74455806D01*
X141479104Y-74555476D01*
X141509453Y-74603776D01*
X141535195Y-74629518D01*
X141568680Y-74690841D01*
X141563696Y-74760533D01*
X141535197Y-74804879D01*
X141509454Y-74830622D01*
X141416477Y-74978595D01*
X141358759Y-75143541D01*
X141358757Y-75143551D01*
X141339193Y-75317196D01*
X141339193Y-75317203D01*
X141358757Y-75490848D01*
X141358759Y-75490858D01*
X141404003Y-75620156D01*
X141416478Y-75655806D01*
X141487843Y-75769384D01*
X141509453Y-75803776D01*
X141535196Y-75829519D01*
X141568681Y-75890842D01*
X141563697Y-75960534D01*
X141535196Y-76004881D01*
X141509453Y-76030623D01*
X141416477Y-76178595D01*
X141358759Y-76343541D01*
X141358757Y-76343551D01*
X141339193Y-76517196D01*
X141339193Y-76517203D01*
X141358757Y-76690848D01*
X141358759Y-76690858D01*
X141408783Y-76833816D01*
X141416478Y-76855806D01*
X141444822Y-76900916D01*
X141509453Y-77003776D01*
X141535196Y-77029519D01*
X141568681Y-77090842D01*
X141563697Y-77160534D01*
X141535196Y-77204881D01*
X141509453Y-77230623D01*
X141416477Y-77378595D01*
X141358759Y-77543541D01*
X141358757Y-77543551D01*
X141339193Y-77717196D01*
X141339193Y-77717203D01*
X139624957Y-77717203D01*
X139640260Y-77571600D01*
X139620474Y-77383344D01*
X139561979Y-77203316D01*
X139467333Y-77039384D01*
X139340671Y-76898712D01*
X139281616Y-76855806D01*
X139187534Y-76787451D01*
X139187529Y-76787448D01*
X139014607Y-76710457D01*
X139014602Y-76710455D01*
X138868801Y-76679465D01*
X138829446Y-76671100D01*
X138640154Y-76671100D01*
X138607697Y-76677998D01*
X138454997Y-76710455D01*
X138454992Y-76710457D01*
X138282070Y-76787448D01*
X138282065Y-76787451D01*
X138128929Y-76898711D01*
X138002266Y-77039385D01*
X137907621Y-77203315D01*
X137907618Y-77203322D01*
X137880143Y-77287883D01*
X137849126Y-77383344D01*
X137829340Y-77571600D01*
X128148764Y-77571600D01*
X128205744Y-77472908D01*
X128265862Y-77287882D01*
X128286198Y-77094400D01*
X128265862Y-76900918D01*
X128205744Y-76715892D01*
X128188212Y-76685527D01*
X128171740Y-76617628D01*
X128194593Y-76551601D01*
X128196318Y-76549237D01*
X128224396Y-76511731D01*
X128274691Y-76376883D01*
X128281100Y-76317273D01*
X128281100Y-76301600D01*
X128685340Y-76301600D01*
X128705126Y-76489856D01*
X128705127Y-76489859D01*
X128763618Y-76669877D01*
X128763621Y-76669884D01*
X128858267Y-76833816D01*
X128984928Y-76974487D01*
X128984929Y-76974488D01*
X129138065Y-77085748D01*
X129138070Y-77085751D01*
X129310992Y-77162742D01*
X129310997Y-77162744D01*
X129496154Y-77202100D01*
X129496155Y-77202100D01*
X129685444Y-77202100D01*
X129685446Y-77202100D01*
X129870603Y-77162744D01*
X130043530Y-77085751D01*
X130196671Y-76974488D01*
X130323333Y-76833816D01*
X130417979Y-76669884D01*
X130476474Y-76489856D01*
X130496260Y-76301600D01*
X130476474Y-76113344D01*
X130417979Y-75933316D01*
X130366643Y-75844400D01*
X134832140Y-75844400D01*
X134851926Y-76032656D01*
X134851927Y-76032659D01*
X134910418Y-76212677D01*
X134910421Y-76212684D01*
X135005067Y-76376616D01*
X135107029Y-76489856D01*
X135131729Y-76517288D01*
X135284865Y-76628548D01*
X135284870Y-76628551D01*
X135457792Y-76705542D01*
X135457797Y-76705544D01*
X135642954Y-76744900D01*
X135642955Y-76744900D01*
X135832244Y-76744900D01*
X135832246Y-76744900D01*
X136017403Y-76705544D01*
X136190330Y-76628551D01*
X136343471Y-76517288D01*
X136470133Y-76376616D01*
X136564779Y-76212684D01*
X136623274Y-76032656D01*
X136643060Y-75844400D01*
X136623274Y-75656144D01*
X136564779Y-75476116D01*
X136539251Y-75431900D01*
X137727240Y-75431900D01*
X137747026Y-75620156D01*
X137747027Y-75620159D01*
X137805518Y-75800177D01*
X137805521Y-75800184D01*
X137900167Y-75964116D01*
X137961881Y-76032656D01*
X138026829Y-76104788D01*
X138179965Y-76216048D01*
X138179970Y-76216051D01*
X138352892Y-76293042D01*
X138352897Y-76293044D01*
X138538054Y-76332400D01*
X138538055Y-76332400D01*
X138727344Y-76332400D01*
X138727346Y-76332400D01*
X138912503Y-76293044D01*
X139085430Y-76216051D01*
X139238571Y-76104788D01*
X139365233Y-75964116D01*
X139459879Y-75800184D01*
X139518374Y-75620156D01*
X139538160Y-75431900D01*
X139518374Y-75243644D01*
X139459879Y-75063616D01*
X139365233Y-74899684D01*
X139238571Y-74759012D01*
X139226068Y-74749928D01*
X139085434Y-74647751D01*
X139085429Y-74647748D01*
X138940201Y-74583088D01*
X138886964Y-74537838D01*
X138866643Y-74470989D01*
X138885688Y-74403765D01*
X138938055Y-74357510D01*
X138964850Y-74348520D01*
X138989203Y-74343344D01*
X138989207Y-74343342D01*
X138989208Y-74343342D01*
X139107089Y-74290857D01*
X139162130Y-74266351D01*
X139315271Y-74155088D01*
X139441933Y-74014416D01*
X139536579Y-73850484D01*
X139595074Y-73670456D01*
X139614860Y-73482200D01*
X139595074Y-73293944D01*
X139536579Y-73113916D01*
X139441933Y-72949984D01*
X139315271Y-72809312D01*
X139315270Y-72809311D01*
X139162134Y-72698051D01*
X139162129Y-72698048D01*
X138989207Y-72621057D01*
X138989202Y-72621055D01*
X138843401Y-72590065D01*
X138804046Y-72581700D01*
X138614754Y-72581700D01*
X138582297Y-72588598D01*
X138429597Y-72621055D01*
X138429592Y-72621057D01*
X138256670Y-72698048D01*
X138256665Y-72698051D01*
X138103529Y-72809311D01*
X137976866Y-72949985D01*
X137882221Y-73113915D01*
X137882218Y-73113922D01*
X137823727Y-73293940D01*
X137823726Y-73293944D01*
X137803940Y-73482200D01*
X137823726Y-73670456D01*
X137823727Y-73670459D01*
X137882218Y-73850477D01*
X137882221Y-73850484D01*
X137976867Y-74014416D01*
X138103529Y-74155088D01*
X138256670Y-74266351D01*
X138401901Y-74331013D01*
X138455135Y-74376261D01*
X138475456Y-74443110D01*
X138456411Y-74510334D01*
X138404045Y-74556589D01*
X138377246Y-74565580D01*
X138352893Y-74570756D01*
X138352892Y-74570757D01*
X138179970Y-74647748D01*
X138179965Y-74647751D01*
X138026829Y-74759011D01*
X137900166Y-74899685D01*
X137805521Y-75063615D01*
X137805518Y-75063622D01*
X137747027Y-75243640D01*
X137747026Y-75243644D01*
X137727240Y-75431900D01*
X136539251Y-75431900D01*
X136470133Y-75312184D01*
X136343471Y-75171512D01*
X136343470Y-75171511D01*
X136190334Y-75060251D01*
X136190329Y-75060248D01*
X136017407Y-74983257D01*
X136017402Y-74983255D01*
X135867498Y-74951393D01*
X135832246Y-74943900D01*
X135642954Y-74943900D01*
X135610497Y-74950798D01*
X135457797Y-74983255D01*
X135457792Y-74983257D01*
X135284870Y-75060248D01*
X135284865Y-75060251D01*
X135131729Y-75171511D01*
X135005066Y-75312185D01*
X134910421Y-75476115D01*
X134910418Y-75476122D01*
X134860839Y-75628712D01*
X134851926Y-75656144D01*
X134832140Y-75844400D01*
X130366643Y-75844400D01*
X130323333Y-75769384D01*
X130196671Y-75628712D01*
X130184895Y-75620156D01*
X130043534Y-75517451D01*
X130043529Y-75517448D01*
X129870607Y-75440457D01*
X129870602Y-75440455D01*
X129724800Y-75409465D01*
X129685446Y-75401100D01*
X129496154Y-75401100D01*
X129463697Y-75407998D01*
X129310997Y-75440455D01*
X129310992Y-75440457D01*
X129138070Y-75517448D01*
X129138065Y-75517451D01*
X128984929Y-75628711D01*
X128858266Y-75769385D01*
X128763621Y-75933315D01*
X128763618Y-75933322D01*
X128731343Y-76032656D01*
X128705126Y-76113344D01*
X128685340Y-76301600D01*
X128281100Y-76301600D01*
X128281099Y-75371528D01*
X128275259Y-75317200D01*
X128274691Y-75311916D01*
X128224397Y-75177071D01*
X128224393Y-75177064D01*
X128138147Y-75061855D01*
X128138144Y-75061852D01*
X128022935Y-74975606D01*
X128022928Y-74975602D01*
X127888082Y-74925308D01*
X127888083Y-74925308D01*
X127828483Y-74918901D01*
X127828481Y-74918900D01*
X127828473Y-74918900D01*
X127828464Y-74918900D01*
X126882729Y-74918900D01*
X126882723Y-74918901D01*
X126823116Y-74925308D01*
X126688271Y-74975602D01*
X126688264Y-74975606D01*
X126573055Y-75061852D01*
X126573052Y-75061855D01*
X126486806Y-75177064D01*
X126486802Y-75177071D01*
X126436508Y-75311917D01*
X126430922Y-75363882D01*
X126430101Y-75371523D01*
X126430100Y-75371535D01*
X126430100Y-76317270D01*
X126430101Y-76317276D01*
X126436508Y-76376883D01*
X126486802Y-76511728D01*
X126486803Y-76511729D01*
X126486804Y-76511731D01*
X126514865Y-76549216D01*
X126514866Y-76549217D01*
X126539283Y-76614681D01*
X126524431Y-76682954D01*
X126522986Y-76685528D01*
X126505457Y-76715888D01*
X126505456Y-76715889D01*
X126445338Y-76900916D01*
X126425002Y-77094400D01*
X122457998Y-77094400D01*
X122439096Y-76252181D01*
X122439096Y-76249408D01*
X122439920Y-76212684D01*
X122458971Y-75363839D01*
X122459092Y-75361154D01*
X122518683Y-74477300D01*
X122518922Y-74474652D01*
X122618106Y-73594367D01*
X122618465Y-73591719D01*
X122757041Y-72716785D01*
X122757520Y-72714146D01*
X122792685Y-72542400D01*
X134527340Y-72542400D01*
X134547126Y-72730656D01*
X134547127Y-72730659D01*
X134605618Y-72910677D01*
X134605621Y-72910684D01*
X134700267Y-73074616D01*
X134826929Y-73215288D01*
X134980065Y-73326548D01*
X134980070Y-73326551D01*
X135152992Y-73403542D01*
X135152997Y-73403544D01*
X135338154Y-73442900D01*
X135338155Y-73442900D01*
X135527444Y-73442900D01*
X135527446Y-73442900D01*
X135712603Y-73403544D01*
X135885530Y-73326551D01*
X136038671Y-73215288D01*
X136165333Y-73074616D01*
X136259979Y-72910684D01*
X136318474Y-72730656D01*
X136338260Y-72542400D01*
X136318474Y-72354144D01*
X136259979Y-72174116D01*
X136165333Y-72010184D01*
X136038671Y-71869512D01*
X136038670Y-71869511D01*
X135885534Y-71758251D01*
X135885529Y-71758248D01*
X135712607Y-71681257D01*
X135712602Y-71681255D01*
X135566800Y-71650265D01*
X135527446Y-71641900D01*
X135338154Y-71641900D01*
X135305697Y-71648798D01*
X135152997Y-71681255D01*
X135152992Y-71681257D01*
X134980070Y-71758248D01*
X134980065Y-71758251D01*
X134826929Y-71869511D01*
X134700266Y-72010185D01*
X134605621Y-72174115D01*
X134605618Y-72174122D01*
X134547127Y-72354140D01*
X134547126Y-72354144D01*
X134527340Y-72542400D01*
X122792685Y-72542400D01*
X122935207Y-71846327D01*
X122935819Y-71843652D01*
X123038166Y-71437477D01*
X123152249Y-70984724D01*
X123152986Y-70982056D01*
X123161136Y-70954916D01*
X123294618Y-70510400D01*
X131784140Y-70510400D01*
X131803926Y-70698656D01*
X131803927Y-70698659D01*
X131862418Y-70878677D01*
X131862421Y-70878684D01*
X131957067Y-71042616D01*
X132040196Y-71134940D01*
X132083729Y-71183288D01*
X132236865Y-71294548D01*
X132236870Y-71294551D01*
X132409792Y-71371542D01*
X132409797Y-71371544D01*
X132594954Y-71410900D01*
X132594955Y-71410900D01*
X132784244Y-71410900D01*
X132784246Y-71410900D01*
X132969403Y-71371544D01*
X133142330Y-71294551D01*
X133295471Y-71183288D01*
X133398197Y-71069200D01*
X139912140Y-71069200D01*
X139931926Y-71257456D01*
X139931927Y-71257459D01*
X139990418Y-71437477D01*
X139990421Y-71437484D01*
X140085067Y-71601416D01*
X140166159Y-71691477D01*
X140211729Y-71742088D01*
X140364865Y-71853348D01*
X140364870Y-71853351D01*
X140537792Y-71930342D01*
X140537797Y-71930344D01*
X140722954Y-71969700D01*
X140722955Y-71969700D01*
X140912244Y-71969700D01*
X140912246Y-71969700D01*
X141097403Y-71930344D01*
X141270330Y-71853351D01*
X141423471Y-71742088D01*
X141550133Y-71601416D01*
X141644779Y-71437484D01*
X141681912Y-71323200D01*
X150326140Y-71323200D01*
X150345926Y-71511456D01*
X150345927Y-71511459D01*
X150404418Y-71691477D01*
X150404421Y-71691484D01*
X150499067Y-71855416D01*
X150566531Y-71930342D01*
X150625729Y-71996088D01*
X150778865Y-72107348D01*
X150778870Y-72107351D01*
X150951792Y-72184342D01*
X150951797Y-72184344D01*
X151136954Y-72223700D01*
X151136955Y-72223700D01*
X151326244Y-72223700D01*
X151326246Y-72223700D01*
X151511403Y-72184344D01*
X151684330Y-72107351D01*
X151837471Y-71996088D01*
X151964133Y-71855416D01*
X152058779Y-71691484D01*
X152117274Y-71511456D01*
X152137060Y-71323200D01*
X152117274Y-71134944D01*
X152058779Y-70954916D01*
X151964133Y-70790984D01*
X151837471Y-70650312D01*
X151837470Y-70650311D01*
X151684334Y-70539051D01*
X151684329Y-70539048D01*
X151511407Y-70462057D01*
X151511402Y-70462055D01*
X151365601Y-70431065D01*
X151326246Y-70422700D01*
X151136954Y-70422700D01*
X151104497Y-70429598D01*
X150951797Y-70462055D01*
X150951792Y-70462057D01*
X150778870Y-70539048D01*
X150778865Y-70539051D01*
X150625729Y-70650311D01*
X150499066Y-70790985D01*
X150404421Y-70954915D01*
X150404418Y-70954922D01*
X150345927Y-71134940D01*
X150345926Y-71134944D01*
X150326140Y-71323200D01*
X141681912Y-71323200D01*
X141703274Y-71257456D01*
X141723060Y-71069200D01*
X141703274Y-70880944D01*
X141644779Y-70700916D01*
X141550133Y-70536984D01*
X141423471Y-70396312D01*
X141423470Y-70396311D01*
X141270334Y-70285051D01*
X141270329Y-70285048D01*
X141097407Y-70208057D01*
X141097402Y-70208055D01*
X140951600Y-70177065D01*
X140912246Y-70168700D01*
X140722954Y-70168700D01*
X140690497Y-70175598D01*
X140537797Y-70208055D01*
X140537792Y-70208057D01*
X140364870Y-70285048D01*
X140364865Y-70285051D01*
X140211729Y-70396311D01*
X140085066Y-70536985D01*
X139990421Y-70700915D01*
X139990418Y-70700922D01*
X139932660Y-70878684D01*
X139931926Y-70880944D01*
X139912140Y-71069200D01*
X133398197Y-71069200D01*
X133422133Y-71042616D01*
X133516779Y-70878684D01*
X133575274Y-70698656D01*
X133595060Y-70510400D01*
X133575274Y-70322144D01*
X133516779Y-70142116D01*
X133422133Y-69978184D01*
X133295471Y-69837512D01*
X133295470Y-69837511D01*
X133142334Y-69726251D01*
X133142329Y-69726248D01*
X132969407Y-69649257D01*
X132969402Y-69649255D01*
X132823600Y-69618265D01*
X132784246Y-69609900D01*
X132594954Y-69609900D01*
X132562497Y-69616798D01*
X132409797Y-69649255D01*
X132409792Y-69649257D01*
X132236870Y-69726248D01*
X132236865Y-69726251D01*
X132083729Y-69837511D01*
X131957066Y-69978185D01*
X131862421Y-70142115D01*
X131862418Y-70142122D01*
X131840995Y-70208057D01*
X131803926Y-70322144D01*
X131784140Y-70510400D01*
X123294618Y-70510400D01*
X123407731Y-70133716D01*
X123408576Y-70131120D01*
X123701131Y-69295047D01*
X123702109Y-69292442D01*
X124031861Y-68470380D01*
X124032939Y-68467857D01*
X124399276Y-67661342D01*
X124400458Y-67658890D01*
X124502036Y-67459532D01*
X124802588Y-66869665D01*
X124803886Y-66867251D01*
X125042685Y-66446401D01*
X132740066Y-66446401D01*
X132759364Y-66666985D01*
X132759365Y-66666992D01*
X132816675Y-66880875D01*
X132816679Y-66880886D01*
X132910256Y-67081563D01*
X132910258Y-67081567D01*
X133037268Y-67262955D01*
X133193845Y-67419532D01*
X133375233Y-67546542D01*
X133461014Y-67586542D01*
X133575913Y-67640120D01*
X133575915Y-67640120D01*
X133575920Y-67640123D01*
X133789809Y-67697435D01*
X133947374Y-67711219D01*
X134010398Y-67716734D01*
X134010400Y-67716734D01*
X134010402Y-67716734D01*
X134065676Y-67711898D01*
X134230991Y-67697435D01*
X134444880Y-67640123D01*
X134645567Y-67546542D01*
X134826955Y-67419532D01*
X134983532Y-67262955D01*
X135059328Y-67154707D01*
X135113901Y-67111085D01*
X135183400Y-67103891D01*
X135245755Y-67135413D01*
X135281169Y-67195643D01*
X135284900Y-67225830D01*
X135284900Y-67259268D01*
X135284901Y-67259276D01*
X135291308Y-67318883D01*
X135341602Y-67453728D01*
X135341606Y-67453735D01*
X135427852Y-67568944D01*
X135427855Y-67568947D01*
X135543064Y-67655193D01*
X135543071Y-67655197D01*
X135677917Y-67705491D01*
X135677916Y-67705491D01*
X135684844Y-67706235D01*
X135737527Y-67711900D01*
X137363272Y-67711899D01*
X137422883Y-67705491D01*
X137557731Y-67655196D01*
X137672946Y-67568946D01*
X137759196Y-67453731D01*
X137809491Y-67318883D01*
X137811600Y-67299270D01*
X139700200Y-67299270D01*
X139700201Y-67299276D01*
X139706608Y-67358883D01*
X139756902Y-67493728D01*
X139756906Y-67493735D01*
X139843152Y-67608944D01*
X139843155Y-67608947D01*
X139958364Y-67695193D01*
X139958371Y-67695197D01*
X140093217Y-67745491D01*
X140093216Y-67745491D01*
X140100144Y-67746235D01*
X140152827Y-67751900D01*
X141778572Y-67751899D01*
X141838183Y-67745491D01*
X141973031Y-67695196D01*
X142088246Y-67608946D01*
X142174496Y-67493731D01*
X142224791Y-67358883D01*
X142231200Y-67299273D01*
X142231199Y-67265834D01*
X142250882Y-67198798D01*
X142303684Y-67153042D01*
X142372843Y-67143097D01*
X142436399Y-67172120D01*
X142456773Y-67194711D01*
X142532562Y-67302947D01*
X142532568Y-67302955D01*
X142689145Y-67459532D01*
X142870533Y-67586542D01*
X142985439Y-67640123D01*
X143071213Y-67680120D01*
X143071215Y-67680120D01*
X143071220Y-67680123D01*
X143285109Y-67737435D01*
X143442674Y-67751219D01*
X143505698Y-67756734D01*
X143505700Y-67756734D01*
X143505702Y-67756734D01*
X143560976Y-67751898D01*
X143726291Y-67737435D01*
X143940180Y-67680123D01*
X144140867Y-67586542D01*
X144322255Y-67459532D01*
X144478832Y-67302955D01*
X144605842Y-67121567D01*
X144699423Y-66920880D01*
X144756735Y-66706991D01*
X144776034Y-66486400D01*
X144772534Y-66446400D01*
X144756735Y-66265814D01*
X144756735Y-66265809D01*
X144699423Y-66051920D01*
X144684216Y-66019309D01*
X144605843Y-65851236D01*
X144605842Y-65851234D01*
X144605842Y-65851233D01*
X144478832Y-65669845D01*
X144322255Y-65513268D01*
X144140867Y-65386258D01*
X144140863Y-65386256D01*
X143940186Y-65292679D01*
X143940175Y-65292675D01*
X143726292Y-65235365D01*
X143726285Y-65235364D01*
X143505702Y-65216066D01*
X143505698Y-65216066D01*
X143285114Y-65235364D01*
X143285107Y-65235365D01*
X143071224Y-65292675D01*
X143071213Y-65292679D01*
X142870536Y-65386256D01*
X142870534Y-65386257D01*
X142689144Y-65513268D01*
X142532568Y-65669844D01*
X142529988Y-65673529D01*
X142468967Y-65760677D01*
X142456774Y-65778090D01*
X142402197Y-65821715D01*
X142332698Y-65828907D01*
X142270344Y-65797385D01*
X142234930Y-65737155D01*
X142231199Y-65706966D01*
X142231199Y-65673529D01*
X142231198Y-65673523D01*
X142231197Y-65673516D01*
X142224791Y-65613917D01*
X142187251Y-65513268D01*
X142174497Y-65479071D01*
X142174493Y-65479064D01*
X142088247Y-65363855D01*
X142088244Y-65363852D01*
X141973035Y-65277606D01*
X141973028Y-65277602D01*
X141838182Y-65227308D01*
X141838183Y-65227308D01*
X141778583Y-65220901D01*
X141778581Y-65220900D01*
X141778573Y-65220900D01*
X141778564Y-65220900D01*
X140152829Y-65220900D01*
X140152823Y-65220901D01*
X140093216Y-65227308D01*
X139958371Y-65277602D01*
X139958364Y-65277606D01*
X139843155Y-65363852D01*
X139843152Y-65363855D01*
X139756906Y-65479064D01*
X139756902Y-65479071D01*
X139706608Y-65613917D01*
X139700596Y-65669844D01*
X139700201Y-65673523D01*
X139700200Y-65673535D01*
X139700200Y-67299270D01*
X137811600Y-67299270D01*
X137815900Y-67259273D01*
X137815899Y-65633528D01*
X137809491Y-65573917D01*
X137786870Y-65513268D01*
X137759197Y-65439071D01*
X137759193Y-65439064D01*
X137672947Y-65323855D01*
X137672944Y-65323852D01*
X137557735Y-65237606D01*
X137557728Y-65237602D01*
X137422882Y-65187308D01*
X137422883Y-65187308D01*
X137363283Y-65180901D01*
X137363281Y-65180900D01*
X137363273Y-65180900D01*
X137363264Y-65180900D01*
X135737529Y-65180900D01*
X135737523Y-65180901D01*
X135677916Y-65187308D01*
X135543071Y-65237602D01*
X135543064Y-65237606D01*
X135427855Y-65323852D01*
X135427852Y-65323855D01*
X135341606Y-65439064D01*
X135341602Y-65439071D01*
X135291308Y-65573917D01*
X135287008Y-65613916D01*
X135284901Y-65633523D01*
X135284900Y-65633535D01*
X135284900Y-65666964D01*
X135265215Y-65734003D01*
X135212411Y-65779758D01*
X135143253Y-65789702D01*
X135079697Y-65760677D01*
X135059326Y-65738088D01*
X134983537Y-65629852D01*
X134983536Y-65629851D01*
X134983532Y-65629845D01*
X134826955Y-65473268D01*
X134645567Y-65346258D01*
X134639256Y-65343315D01*
X134444886Y-65252679D01*
X134444875Y-65252675D01*
X134230992Y-65195365D01*
X134230985Y-65195364D01*
X134010402Y-65176066D01*
X134010398Y-65176066D01*
X133789814Y-65195364D01*
X133789807Y-65195365D01*
X133575924Y-65252675D01*
X133575913Y-65252679D01*
X133375236Y-65346256D01*
X133375234Y-65346257D01*
X133193844Y-65473268D01*
X133037268Y-65629844D01*
X132910257Y-65811234D01*
X132910256Y-65811236D01*
X132816679Y-66011913D01*
X132816675Y-66011924D01*
X132759365Y-66225807D01*
X132759364Y-66225814D01*
X132740066Y-66446398D01*
X132740066Y-66446401D01*
X125042685Y-66446401D01*
X125241025Y-66096853D01*
X125242436Y-66094491D01*
X125713713Y-65344458D01*
X125715206Y-65342196D01*
X126219658Y-64614063D01*
X126221277Y-64611837D01*
X126262169Y-64558131D01*
X126757878Y-63907083D01*
X126759575Y-63904957D01*
X127327253Y-63224987D01*
X127329069Y-63222911D01*
X127396717Y-63148901D01*
X132475366Y-63148901D01*
X132494664Y-63369485D01*
X132494665Y-63369492D01*
X132551975Y-63583375D01*
X132551979Y-63583386D01*
X132645556Y-63784063D01*
X132645558Y-63784067D01*
X132772568Y-63965455D01*
X132929145Y-64122032D01*
X133110533Y-64249042D01*
X133190743Y-64286444D01*
X133311213Y-64342620D01*
X133311215Y-64342620D01*
X133311220Y-64342623D01*
X133525109Y-64399935D01*
X133682673Y-64413720D01*
X133745698Y-64419234D01*
X133745700Y-64419234D01*
X133745702Y-64419234D01*
X133800847Y-64414409D01*
X133966291Y-64399935D01*
X134180180Y-64342623D01*
X134380867Y-64249042D01*
X134562255Y-64122032D01*
X134718832Y-63965455D01*
X134845842Y-63784067D01*
X134939423Y-63583380D01*
X134996735Y-63369491D01*
X135016034Y-63148900D01*
X134996735Y-62928309D01*
X134939423Y-62714420D01*
X134845842Y-62513733D01*
X134718832Y-62332345D01*
X134562255Y-62175768D01*
X134562252Y-62175766D01*
X134562250Y-62175764D01*
X134503195Y-62134413D01*
X134454009Y-62099973D01*
X134410385Y-62045397D01*
X134403191Y-61975899D01*
X134434714Y-61913544D01*
X134494944Y-61878130D01*
X134525132Y-61874399D01*
X134558572Y-61874399D01*
X134618183Y-61867991D01*
X134753031Y-61817696D01*
X134868246Y-61731446D01*
X134954496Y-61616231D01*
X135004791Y-61481383D01*
X135011200Y-61421773D01*
X135011200Y-60623901D01*
X135585366Y-60623901D01*
X135604664Y-60844485D01*
X135604665Y-60844492D01*
X135661975Y-61058375D01*
X135661979Y-61058386D01*
X135722775Y-61188763D01*
X135755558Y-61259067D01*
X135882568Y-61440455D01*
X136039145Y-61597032D01*
X136147390Y-61672826D01*
X136191014Y-61727402D01*
X136198208Y-61796900D01*
X136166685Y-61859255D01*
X136106455Y-61894669D01*
X136076269Y-61898400D01*
X136042831Y-61898400D01*
X136042823Y-61898401D01*
X135983216Y-61904808D01*
X135848371Y-61955102D01*
X135848364Y-61955106D01*
X135733155Y-62041352D01*
X135733152Y-62041355D01*
X135646906Y-62156564D01*
X135646902Y-62156571D01*
X135596608Y-62291417D01*
X135591170Y-62342002D01*
X135590201Y-62351023D01*
X135590200Y-62351035D01*
X135590200Y-63976770D01*
X135590201Y-63976776D01*
X135596608Y-64036383D01*
X135646902Y-64171228D01*
X135646906Y-64171235D01*
X135733152Y-64286444D01*
X135733155Y-64286447D01*
X135848364Y-64372693D01*
X135848371Y-64372697D01*
X135983217Y-64422991D01*
X135983216Y-64422991D01*
X135990144Y-64423735D01*
X136042827Y-64429400D01*
X137668572Y-64429399D01*
X137728183Y-64422991D01*
X137863031Y-64372696D01*
X137875088Y-64363670D01*
X139693000Y-64363670D01*
X139693001Y-64363676D01*
X139699408Y-64423283D01*
X139749702Y-64558128D01*
X139749706Y-64558135D01*
X139835952Y-64673344D01*
X139835955Y-64673347D01*
X139951164Y-64759593D01*
X139951171Y-64759597D01*
X140086017Y-64809891D01*
X140086016Y-64809891D01*
X140092944Y-64810635D01*
X140145627Y-64816300D01*
X141771372Y-64816299D01*
X141830983Y-64809891D01*
X141965831Y-64759596D01*
X142081046Y-64673346D01*
X142167296Y-64558131D01*
X142217591Y-64423283D01*
X142224000Y-64363673D01*
X142223999Y-64330234D01*
X142243682Y-64263198D01*
X142296484Y-64217442D01*
X142365643Y-64207497D01*
X142429199Y-64236520D01*
X142449573Y-64259111D01*
X142525362Y-64367347D01*
X142525368Y-64367355D01*
X142681945Y-64523932D01*
X142863333Y-64650942D01*
X142984072Y-64707243D01*
X143064013Y-64744520D01*
X143064015Y-64744520D01*
X143064020Y-64744523D01*
X143277909Y-64801835D01*
X143435473Y-64815620D01*
X143498498Y-64821134D01*
X143498500Y-64821134D01*
X143498502Y-64821134D01*
X143553776Y-64816298D01*
X143719091Y-64801835D01*
X143932980Y-64744523D01*
X144133667Y-64650942D01*
X144315055Y-64523932D01*
X144471632Y-64367355D01*
X144598642Y-64185967D01*
X144692223Y-63985280D01*
X144749535Y-63771391D01*
X144768834Y-63550800D01*
X144749535Y-63330209D01*
X144692223Y-63116320D01*
X144689940Y-63111425D01*
X144598643Y-62915636D01*
X144598642Y-62915634D01*
X144598642Y-62915633D01*
X144471632Y-62734245D01*
X144315055Y-62577668D01*
X144133667Y-62450658D01*
X144133663Y-62450656D01*
X143932986Y-62357079D01*
X143932975Y-62357075D01*
X143719092Y-62299765D01*
X143719085Y-62299764D01*
X143498502Y-62280466D01*
X143498498Y-62280466D01*
X143277914Y-62299764D01*
X143277907Y-62299765D01*
X143064024Y-62357075D01*
X143064013Y-62357079D01*
X142863336Y-62450656D01*
X142863334Y-62450657D01*
X142681944Y-62577668D01*
X142525368Y-62734244D01*
X142449574Y-62842490D01*
X142394997Y-62886115D01*
X142325498Y-62893307D01*
X142263144Y-62861785D01*
X142227730Y-62801555D01*
X142223999Y-62771366D01*
X142223999Y-62737929D01*
X142223998Y-62737923D01*
X142223997Y-62737916D01*
X142217591Y-62678317D01*
X142180051Y-62577668D01*
X142167297Y-62543471D01*
X142167293Y-62543464D01*
X142081047Y-62428255D01*
X142081044Y-62428252D01*
X141965835Y-62342006D01*
X141965828Y-62342002D01*
X141830982Y-62291708D01*
X141830983Y-62291708D01*
X141771383Y-62285301D01*
X141771381Y-62285300D01*
X141771373Y-62285300D01*
X141771364Y-62285300D01*
X140145629Y-62285300D01*
X140145623Y-62285301D01*
X140086016Y-62291708D01*
X139951171Y-62342002D01*
X139951164Y-62342006D01*
X139835955Y-62428252D01*
X139835952Y-62428255D01*
X139749706Y-62543464D01*
X139749702Y-62543471D01*
X139699408Y-62678317D01*
X139693396Y-62734244D01*
X139693001Y-62737923D01*
X139693000Y-62737935D01*
X139693000Y-64363670D01*
X137875088Y-64363670D01*
X137978246Y-64286446D01*
X138064496Y-64171231D01*
X138114791Y-64036383D01*
X138121200Y-63976773D01*
X138121199Y-62351028D01*
X138114791Y-62291417D01*
X138071655Y-62175764D01*
X138064497Y-62156571D01*
X138064493Y-62156564D01*
X137978247Y-62041355D01*
X137978244Y-62041352D01*
X137863035Y-61955106D01*
X137863028Y-61955102D01*
X137728182Y-61904808D01*
X137728183Y-61904808D01*
X137668583Y-61898401D01*
X137668581Y-61898400D01*
X137668573Y-61898400D01*
X137668565Y-61898400D01*
X137635135Y-61898400D01*
X137568096Y-61878715D01*
X137522341Y-61825911D01*
X137512397Y-61756753D01*
X137541422Y-61693197D01*
X137564007Y-61672828D01*
X137672255Y-61597032D01*
X137828832Y-61440455D01*
X137880637Y-61366470D01*
X139693000Y-61366470D01*
X139693001Y-61366476D01*
X139699408Y-61426083D01*
X139749702Y-61560928D01*
X139749706Y-61560935D01*
X139835952Y-61676144D01*
X139835955Y-61676147D01*
X139951164Y-61762393D01*
X139951171Y-61762397D01*
X140086017Y-61812691D01*
X140086016Y-61812691D01*
X140092944Y-61813435D01*
X140145627Y-61819100D01*
X141771372Y-61819099D01*
X141830983Y-61812691D01*
X141965831Y-61762396D01*
X142081046Y-61676146D01*
X142167296Y-61560931D01*
X142217591Y-61426083D01*
X142224000Y-61366473D01*
X142223999Y-61333034D01*
X142243682Y-61265998D01*
X142296484Y-61220242D01*
X142365643Y-61210297D01*
X142429199Y-61239320D01*
X142449573Y-61261911D01*
X142525362Y-61370147D01*
X142525368Y-61370155D01*
X142681945Y-61526732D01*
X142863333Y-61653742D01*
X142984072Y-61710043D01*
X143064013Y-61747320D01*
X143064015Y-61747320D01*
X143064020Y-61747323D01*
X143277909Y-61804635D01*
X143427199Y-61817696D01*
X143498498Y-61823934D01*
X143498500Y-61823934D01*
X143498502Y-61823934D01*
X143553776Y-61819098D01*
X143719091Y-61804635D01*
X143932980Y-61747323D01*
X144133667Y-61653742D01*
X144315055Y-61526732D01*
X144471632Y-61370155D01*
X144598642Y-61188767D01*
X144692223Y-60988080D01*
X144749535Y-60774191D01*
X144768834Y-60553600D01*
X144749535Y-60333009D01*
X144692223Y-60119120D01*
X144598642Y-59918433D01*
X144471632Y-59737045D01*
X144315055Y-59580468D01*
X144133667Y-59453458D01*
X144133663Y-59453456D01*
X143932986Y-59359879D01*
X143932975Y-59359875D01*
X143719092Y-59302565D01*
X143719085Y-59302564D01*
X143498502Y-59283266D01*
X143498498Y-59283266D01*
X143277914Y-59302564D01*
X143277907Y-59302565D01*
X143064024Y-59359875D01*
X143064013Y-59359879D01*
X142863336Y-59453456D01*
X142863334Y-59453457D01*
X142681944Y-59580468D01*
X142525368Y-59737044D01*
X142449574Y-59845290D01*
X142394997Y-59888915D01*
X142325498Y-59896107D01*
X142263144Y-59864585D01*
X142227730Y-59804355D01*
X142223999Y-59774166D01*
X142223999Y-59740729D01*
X142223998Y-59740723D01*
X142223997Y-59740716D01*
X142217591Y-59681117D01*
X142187922Y-59601571D01*
X142167297Y-59546271D01*
X142167293Y-59546264D01*
X142081047Y-59431055D01*
X142081044Y-59431052D01*
X141965835Y-59344806D01*
X141965828Y-59344802D01*
X141830982Y-59294508D01*
X141830983Y-59294508D01*
X141771383Y-59288101D01*
X141771381Y-59288100D01*
X141771373Y-59288100D01*
X141771364Y-59288100D01*
X140145629Y-59288100D01*
X140145623Y-59288101D01*
X140086016Y-59294508D01*
X139951171Y-59344802D01*
X139951164Y-59344806D01*
X139835955Y-59431052D01*
X139835952Y-59431055D01*
X139749706Y-59546264D01*
X139749702Y-59546271D01*
X139699408Y-59681117D01*
X139694426Y-59727464D01*
X139693001Y-59740723D01*
X139693000Y-59740735D01*
X139693000Y-61366470D01*
X137880637Y-61366470D01*
X137955842Y-61259067D01*
X138049423Y-61058380D01*
X138106735Y-60844491D01*
X138126034Y-60623900D01*
X138106735Y-60403309D01*
X138049423Y-60189420D01*
X137955842Y-59988733D01*
X137828832Y-59807345D01*
X137672255Y-59650768D01*
X137490867Y-59523758D01*
X137490863Y-59523756D01*
X137290186Y-59430179D01*
X137290175Y-59430175D01*
X137076292Y-59372865D01*
X137076285Y-59372864D01*
X136855702Y-59353566D01*
X136855698Y-59353566D01*
X136635114Y-59372864D01*
X136635107Y-59372865D01*
X136421224Y-59430175D01*
X136421213Y-59430179D01*
X136220536Y-59523756D01*
X136220534Y-59523757D01*
X136039144Y-59650768D01*
X135882568Y-59807344D01*
X135755557Y-59988734D01*
X135755556Y-59988736D01*
X135661979Y-60189413D01*
X135661975Y-60189424D01*
X135604665Y-60403307D01*
X135604664Y-60403314D01*
X135585366Y-60623898D01*
X135585366Y-60623901D01*
X135011200Y-60623901D01*
X135011199Y-59796028D01*
X135004859Y-59737045D01*
X135004791Y-59736416D01*
X134954497Y-59601571D01*
X134954493Y-59601564D01*
X134868247Y-59486355D01*
X134868244Y-59486352D01*
X134753035Y-59400106D01*
X134753028Y-59400102D01*
X134618182Y-59349808D01*
X134618183Y-59349808D01*
X134558583Y-59343401D01*
X134558581Y-59343400D01*
X134558573Y-59343400D01*
X134558564Y-59343400D01*
X132932829Y-59343400D01*
X132932823Y-59343401D01*
X132873216Y-59349808D01*
X132738371Y-59400102D01*
X132738364Y-59400106D01*
X132623155Y-59486352D01*
X132623152Y-59486355D01*
X132536906Y-59601564D01*
X132536902Y-59601571D01*
X132486608Y-59736417D01*
X132482550Y-59774166D01*
X132480201Y-59796023D01*
X132480200Y-59796035D01*
X132480200Y-61421770D01*
X132480201Y-61421776D01*
X132486608Y-61481383D01*
X132536902Y-61616228D01*
X132536906Y-61616235D01*
X132623152Y-61731444D01*
X132623155Y-61731447D01*
X132738364Y-61817693D01*
X132738371Y-61817697D01*
X132873217Y-61867991D01*
X132873216Y-61867991D01*
X132880144Y-61868735D01*
X132932827Y-61874400D01*
X132966264Y-61874399D01*
X133033301Y-61894082D01*
X133079057Y-61946884D01*
X133089002Y-62016043D01*
X133059979Y-62079599D01*
X133037389Y-62099973D01*
X132929147Y-62175766D01*
X132929141Y-62175771D01*
X132772568Y-62332344D01*
X132645557Y-62513734D01*
X132645556Y-62513736D01*
X132551979Y-62714413D01*
X132551975Y-62714424D01*
X132494665Y-62928307D01*
X132494664Y-62928314D01*
X132475366Y-63148898D01*
X132475366Y-63148901D01*
X127396717Y-63148901D01*
X127426494Y-63116324D01*
X127926670Y-62569108D01*
X127928556Y-62567136D01*
X128554901Y-61940791D01*
X128556873Y-61938905D01*
X129210685Y-61341295D01*
X129212752Y-61339488D01*
X129892734Y-60771800D01*
X129894848Y-60770113D01*
X130599613Y-60233503D01*
X130601828Y-60231893D01*
X131329961Y-59727441D01*
X131332223Y-59725948D01*
X132082256Y-59254671D01*
X132084618Y-59253260D01*
X132855016Y-58816121D01*
X132857438Y-58814819D01*
X133268698Y-58605272D01*
X133646662Y-58412689D01*
X133649107Y-58411511D01*
X134455622Y-58045174D01*
X134458145Y-58044096D01*
X135280217Y-57714339D01*
X135282812Y-57713366D01*
X136013528Y-57457677D01*
X136118892Y-57420808D01*
X136121481Y-57419966D01*
X136969841Y-57165215D01*
X136972489Y-57164484D01*
X137831413Y-56948054D01*
X137834092Y-56947442D01*
X138701911Y-56769755D01*
X138704550Y-56769276D01*
X139579484Y-56630700D01*
X139582132Y-56630341D01*
X140462417Y-56531157D01*
X140465065Y-56530918D01*
X141348919Y-56471327D01*
X141351604Y-56471206D01*
X142237184Y-56451331D01*
X142239946Y-56451331D01*
X143125523Y-56471206D01*
G37*
%TD.AperFunction*%
%TD*%
M02*
