%TF.GenerationSoftware,KiCad,Pcbnew,7.0.7*%
%TF.CreationDate,2024-10-25T00:06:54-07:00*%
%TF.ProjectId,PowerBoard_rev1.1,506f7765-7242-46f6-9172-645f72657631,rev?*%
%TF.SameCoordinates,Original*%
%TF.FileFunction,Copper,L2,Inr*%
%TF.FilePolarity,Positive*%
%FSLAX46Y46*%
G04 Gerber Fmt 4.6, Leading zero omitted, Abs format (unit mm)*
G04 Created by KiCad (PCBNEW 7.0.7) date 2024-10-25 00:06:54*
%MOMM*%
%LPD*%
G01*
G04 APERTURE LIST*
%TA.AperFunction,ComponentPad*%
%ADD10R,1.600000X1.600000*%
%TD*%
%TA.AperFunction,ComponentPad*%
%ADD11C,1.600000*%
%TD*%
%TA.AperFunction,ComponentPad*%
%ADD12R,1.530000X1.530000*%
%TD*%
%TA.AperFunction,ComponentPad*%
%ADD13C,1.530000*%
%TD*%
%TA.AperFunction,ComponentPad*%
%ADD14C,0.550000*%
%TD*%
%TA.AperFunction,ComponentPad*%
%ADD15R,0.850000X0.850000*%
%TD*%
%TA.AperFunction,ComponentPad*%
%ADD16C,0.850000*%
%TD*%
%TA.AperFunction,ComponentPad*%
%ADD17R,2.000000X2.000000*%
%TD*%
%TA.AperFunction,ViaPad*%
%ADD18C,0.800000*%
%TD*%
G04 APERTURE END LIST*
D10*
%TO.N,+BATT*%
%TO.C,C2*%
X149250400Y-80721200D03*
D11*
%TO.N,GND*%
X149250400Y-82721200D03*
%TD*%
D12*
%TO.N,Net-(U1-BOUT1)*%
%TO.C,J1*%
X140958500Y-60553600D03*
D13*
%TO.N,Net-(U1-BOUT2)*%
X143498500Y-60553600D03*
%TD*%
D12*
%TO.N,DRV_FAULT*%
%TO.C,J6*%
X133745700Y-60608900D03*
D13*
%TO.N,DRV_SLEEP*%
X133745700Y-63148900D03*
%TD*%
D14*
%TO.N,N/C*%
%TO.C,U1*%
X142119600Y-74117200D03*
X142119600Y-75317200D03*
X142119600Y-76517200D03*
X142119600Y-77717200D03*
X143119600Y-74117200D03*
X143119600Y-75317200D03*
X143119600Y-76517200D03*
X143119600Y-77717200D03*
X144119600Y-74117200D03*
X144119600Y-75317200D03*
X144119600Y-76517200D03*
X144119600Y-77717200D03*
%TD*%
D12*
%TO.N,MOTOR1_AIN2*%
%TO.C,J4*%
X136550400Y-66446400D03*
D13*
%TO.N,MOTOR1_AIN1*%
X134010400Y-66446400D03*
%TD*%
D12*
%TO.N,Net-(U1-AOUT1)*%
%TO.C,J2*%
X140958500Y-63550800D03*
D13*
%TO.N,Net-(U1-AOUT2)*%
X143498500Y-63550800D03*
%TD*%
D12*
%TO.N,GND*%
%TO.C,J3*%
X140965700Y-66486400D03*
D13*
%TO.N,VDC*%
X143505700Y-66486400D03*
%TD*%
D12*
%TO.N,MOTOR2_BIN2*%
%TO.C,J5*%
X136855700Y-63163900D03*
D13*
%TO.N,MOTOR2_BIN1*%
X136855700Y-60623900D03*
%TD*%
D15*
%TO.N,+BATT*%
%TO.C,J8*%
X127355600Y-75844400D03*
D16*
%TO.N,GND*%
X127355600Y-77094400D03*
%TD*%
D17*
%TO.N,Net-(D12-K)*%
%TO.C,TP6*%
X159207200Y-78892400D03*
%TD*%
D15*
%TO.N,+BATT*%
%TO.C,J7*%
X142864999Y-92448800D03*
D16*
%TO.N,GND*%
X141614999Y-92448800D03*
%TD*%
D17*
%TO.N,Net-(D11-K)*%
%TO.C,TP5*%
X159207200Y-73507600D03*
%TD*%
D18*
%TO.N,GND*%
X148691600Y-74371200D03*
X149758400Y-85140800D03*
X151231600Y-71323200D03*
X144373600Y-83362800D03*
X135636000Y-86410800D03*
X141884400Y-89408000D03*
X141478000Y-81686400D03*
X132740400Y-82346800D03*
X132689600Y-70510400D03*
X156464000Y-81534000D03*
X129590800Y-76301600D03*
X135534400Y-79451200D03*
X135432800Y-72542400D03*
%TO.N,MOTOR2_BIN2*%
X146507200Y-79502000D03*
%TO.N,MOTOR2_BIN1*%
X145084800Y-79451200D03*
%TO.N,VCC*%
X151739600Y-68580000D03*
X139344400Y-88087200D03*
X130048000Y-74930000D03*
X153365200Y-84124800D03*
X156057600Y-70510400D03*
%TO.N,Net-(U1-BOUT1)*%
X140817600Y-71069200D03*
X138734800Y-77571600D03*
%TO.N,Net-(U1-BOUT2)*%
X135737600Y-75844400D03*
%TO.N,Net-(U1-AOUT1)*%
X138709400Y-73482200D03*
%TO.N,Net-(U1-AOUT2)*%
X138632700Y-75431900D03*
%TD*%
%TA.AperFunction,Conductor*%
%TO.N,GND*%
G36*
X143125523Y-56471206D02*
G01*
X143128212Y-56471327D01*
X144012060Y-56530918D01*
X144014716Y-56531157D01*
X144894991Y-56630340D01*
X144897651Y-56630701D01*
X145772572Y-56769275D01*
X145775226Y-56769757D01*
X146643028Y-56947440D01*
X146645712Y-56948054D01*
X147300917Y-57113150D01*
X147438404Y-57147794D01*
X147504625Y-57164480D01*
X147507300Y-57165218D01*
X148355634Y-57419962D01*
X148358244Y-57420811D01*
X149194317Y-57713366D01*
X149196922Y-57714344D01*
X150018970Y-58044091D01*
X150021522Y-58045181D01*
X150828005Y-58411503D01*
X150830474Y-58412693D01*
X151619691Y-58814819D01*
X151622141Y-58816137D01*
X152392501Y-59253255D01*
X152394890Y-59254682D01*
X152448076Y-59288101D01*
X153025257Y-59650768D01*
X153144879Y-59725931D01*
X153147188Y-59727455D01*
X153524324Y-59988736D01*
X153875276Y-60231876D01*
X153877527Y-60233512D01*
X154582259Y-60770096D01*
X154584407Y-60771810D01*
X155264358Y-61339473D01*
X155266453Y-61341304D01*
X155920239Y-61938890D01*
X155922250Y-61940813D01*
X156548551Y-62567114D01*
X156550474Y-62569125D01*
X157148060Y-63222911D01*
X157149891Y-63225006D01*
X157717554Y-63904957D01*
X157719272Y-63907111D01*
X157979620Y-64249043D01*
X158255852Y-64611837D01*
X158257488Y-64614088D01*
X158699902Y-65252675D01*
X158761900Y-65342163D01*
X158763433Y-65344485D01*
X159234682Y-66094474D01*
X159236109Y-66096863D01*
X159673227Y-66867223D01*
X159674545Y-66869673D01*
X160076671Y-67658890D01*
X160077870Y-67661378D01*
X160189487Y-67907111D01*
X160444180Y-68467836D01*
X160445273Y-68470394D01*
X160775020Y-69292442D01*
X160775998Y-69295047D01*
X161068553Y-70131120D01*
X161069410Y-70133757D01*
X161114841Y-70285048D01*
X161324143Y-70982056D01*
X161324884Y-70984739D01*
X161541310Y-71843652D01*
X161541930Y-71846365D01*
X161719602Y-72714111D01*
X161720095Y-72716828D01*
X161845255Y-73507053D01*
X161858657Y-73591671D01*
X161859028Y-73594411D01*
X161934738Y-74266351D01*
X161958202Y-74474601D01*
X161958449Y-74477344D01*
X162018034Y-75361102D01*
X162018159Y-75363882D01*
X162038033Y-76249408D01*
X162038033Y-76252192D01*
X162018159Y-77137717D01*
X162018034Y-77140491D01*
X161958449Y-78024251D01*
X161958202Y-78026995D01*
X161864529Y-78858378D01*
X161859031Y-78907170D01*
X161858657Y-78909928D01*
X161736869Y-79678871D01*
X161720099Y-79784750D01*
X161719602Y-79787488D01*
X161541930Y-80655234D01*
X161541310Y-80657947D01*
X161324884Y-81516860D01*
X161324143Y-81519543D01*
X161069413Y-82367833D01*
X161068553Y-82370479D01*
X160775998Y-83206552D01*
X160775020Y-83209157D01*
X160445273Y-84031205D01*
X160444180Y-84033763D01*
X160077879Y-84840202D01*
X160076671Y-84842709D01*
X159674545Y-85631926D01*
X159673227Y-85634376D01*
X159236109Y-86404736D01*
X159234682Y-86407125D01*
X158763433Y-87157114D01*
X158761900Y-87159436D01*
X158257488Y-87887511D01*
X158255852Y-87889762D01*
X157719289Y-88594467D01*
X157717554Y-88596642D01*
X157149891Y-89276593D01*
X157148060Y-89278688D01*
X156550474Y-89932474D01*
X156548551Y-89934485D01*
X155922250Y-90560786D01*
X155920239Y-90562709D01*
X155266453Y-91160295D01*
X155264358Y-91162126D01*
X154584407Y-91729789D01*
X154582232Y-91731524D01*
X153877527Y-92268087D01*
X153875276Y-92269723D01*
X153147201Y-92774135D01*
X153144879Y-92775668D01*
X152394890Y-93246917D01*
X152392501Y-93248344D01*
X151622141Y-93685462D01*
X151619691Y-93686780D01*
X150830474Y-94088906D01*
X150827967Y-94090114D01*
X150021528Y-94456415D01*
X150018970Y-94457508D01*
X149196922Y-94787255D01*
X149194317Y-94788233D01*
X148358244Y-95080788D01*
X148355598Y-95081648D01*
X147507308Y-95336378D01*
X147504625Y-95337119D01*
X146645712Y-95553545D01*
X146642999Y-95554165D01*
X145775253Y-95731837D01*
X145772528Y-95732331D01*
X145040861Y-95848216D01*
X144897693Y-95870892D01*
X144894947Y-95871264D01*
X144014763Y-95970437D01*
X144012016Y-95970684D01*
X143128256Y-96030269D01*
X143125482Y-96030394D01*
X142239955Y-96050268D01*
X142237173Y-96050268D01*
X141351647Y-96030394D01*
X141348875Y-96030269D01*
X140465109Y-95970684D01*
X140462373Y-95970437D01*
X139582176Y-95871263D01*
X139579440Y-95870892D01*
X138704593Y-95732330D01*
X138701876Y-95731837D01*
X137834130Y-95554165D01*
X137831417Y-95553545D01*
X136972504Y-95337119D01*
X136969821Y-95336378D01*
X136370166Y-95156309D01*
X136121522Y-95081645D01*
X136118885Y-95080788D01*
X135282812Y-94788233D01*
X135280207Y-94787255D01*
X134458159Y-94457508D01*
X134455601Y-94456415D01*
X134094309Y-94292308D01*
X133649143Y-94090105D01*
X133646655Y-94088906D01*
X132857438Y-93686780D01*
X132854988Y-93685462D01*
X132084628Y-93248344D01*
X132082239Y-93246917D01*
X131332250Y-92775668D01*
X131329928Y-92774135D01*
X131281120Y-92740321D01*
X130860335Y-92448800D01*
X140684904Y-92448800D01*
X140705229Y-92642180D01*
X140705230Y-92642182D01*
X140765312Y-92827098D01*
X140765315Y-92827104D01*
X140808442Y-92901801D01*
X141186305Y-92523939D01*
X141247628Y-92490454D01*
X141317319Y-92495438D01*
X141373253Y-92537309D01*
X141377088Y-92542729D01*
X141434759Y-92629040D01*
X141521067Y-92686709D01*
X141565873Y-92740321D01*
X141574580Y-92809646D01*
X141544426Y-92872673D01*
X141539858Y-92877492D01*
X141159025Y-93258325D01*
X141327586Y-93333373D01*
X141517778Y-93373800D01*
X141712220Y-93373800D01*
X141902412Y-93333373D01*
X141902415Y-93333372D01*
X142034284Y-93274660D01*
X142103534Y-93265375D01*
X142159031Y-93288673D01*
X142197663Y-93317593D01*
X142197670Y-93317597D01*
X142332516Y-93367891D01*
X142332515Y-93367891D01*
X142339443Y-93368635D01*
X142392126Y-93374300D01*
X143337871Y-93374299D01*
X143397482Y-93367891D01*
X143532330Y-93317596D01*
X143647545Y-93231346D01*
X143733795Y-93116131D01*
X143784090Y-92981283D01*
X143790499Y-92921673D01*
X143790498Y-91975928D01*
X143784090Y-91916317D01*
X143773353Y-91887530D01*
X143733796Y-91781471D01*
X143733792Y-91781464D01*
X143647546Y-91666255D01*
X143647543Y-91666252D01*
X143532334Y-91580006D01*
X143532327Y-91580002D01*
X143397481Y-91529708D01*
X143397482Y-91529708D01*
X143337882Y-91523301D01*
X143337880Y-91523300D01*
X143337872Y-91523300D01*
X143337863Y-91523300D01*
X142392128Y-91523300D01*
X142392122Y-91523301D01*
X142332515Y-91529708D01*
X142197670Y-91580002D01*
X142197668Y-91580003D01*
X142159029Y-91608928D01*
X142093564Y-91633344D01*
X142034285Y-91622940D01*
X141902411Y-91564226D01*
X141902412Y-91564226D01*
X141712220Y-91523800D01*
X141517778Y-91523800D01*
X141327585Y-91564226D01*
X141327584Y-91564226D01*
X141159025Y-91639273D01*
X141539858Y-92020106D01*
X141573343Y-92081429D01*
X141568359Y-92151121D01*
X141526487Y-92207054D01*
X141521069Y-92210888D01*
X141434759Y-92268559D01*
X141377088Y-92354870D01*
X141323475Y-92399675D01*
X141254150Y-92408382D01*
X141191123Y-92378227D01*
X141186305Y-92373660D01*
X140808442Y-91995796D01*
X140808441Y-91995797D01*
X140765316Y-92070492D01*
X140765315Y-92070494D01*
X140705230Y-92255417D01*
X140705229Y-92255419D01*
X140684904Y-92448800D01*
X130860335Y-92448800D01*
X130601853Y-92269723D01*
X130599602Y-92268087D01*
X130215883Y-91975923D01*
X129894876Y-91731507D01*
X129892722Y-91729789D01*
X129212771Y-91162126D01*
X129210676Y-91160295D01*
X128556890Y-90562709D01*
X128554879Y-90560786D01*
X127928578Y-89934485D01*
X127926655Y-89932474D01*
X127329069Y-89278688D01*
X127327238Y-89276593D01*
X126759575Y-88596642D01*
X126757861Y-88594494D01*
X126371607Y-88087200D01*
X138438940Y-88087200D01*
X138458726Y-88275456D01*
X138458727Y-88275459D01*
X138517218Y-88455477D01*
X138517221Y-88455484D01*
X138611867Y-88619416D01*
X138682932Y-88698341D01*
X138738529Y-88760088D01*
X138891665Y-88871348D01*
X138891670Y-88871351D01*
X139064592Y-88948342D01*
X139064597Y-88948344D01*
X139249754Y-88987700D01*
X139249755Y-88987700D01*
X139439044Y-88987700D01*
X139439046Y-88987700D01*
X139624203Y-88948344D01*
X139797130Y-88871351D01*
X139950271Y-88760088D01*
X140076933Y-88619416D01*
X140171579Y-88455484D01*
X140230074Y-88275456D01*
X140249860Y-88087200D01*
X140230074Y-87898944D01*
X140171579Y-87718916D01*
X140076933Y-87554984D01*
X139950271Y-87414312D01*
X139950270Y-87414311D01*
X139797134Y-87303051D01*
X139797129Y-87303048D01*
X139624207Y-87226057D01*
X139624202Y-87226055D01*
X139478401Y-87195065D01*
X139439046Y-87186700D01*
X139249754Y-87186700D01*
X139217297Y-87193598D01*
X139064597Y-87226055D01*
X139064592Y-87226057D01*
X138891670Y-87303048D01*
X138891665Y-87303051D01*
X138738529Y-87414311D01*
X138611866Y-87554985D01*
X138517221Y-87718915D01*
X138517218Y-87718922D01*
X138462069Y-87888654D01*
X138458726Y-87898944D01*
X138438940Y-88087200D01*
X126371607Y-88087200D01*
X126221277Y-87889762D01*
X126219641Y-87887511D01*
X126102838Y-87718916D01*
X125715220Y-87159423D01*
X125713696Y-87157114D01*
X125242447Y-86407125D01*
X125241020Y-86404736D01*
X125022461Y-86019555D01*
X124803896Y-85634366D01*
X124802584Y-85631926D01*
X124400458Y-84842709D01*
X124399268Y-84840240D01*
X124074300Y-84124800D01*
X152459740Y-84124800D01*
X152479526Y-84313056D01*
X152479527Y-84313059D01*
X152538018Y-84493077D01*
X152538021Y-84493084D01*
X152632667Y-84657016D01*
X152759328Y-84797688D01*
X152759329Y-84797688D01*
X152912465Y-84908948D01*
X152912470Y-84908951D01*
X153085392Y-84985942D01*
X153085397Y-84985944D01*
X153270554Y-85025300D01*
X153270555Y-85025300D01*
X153459844Y-85025300D01*
X153459846Y-85025300D01*
X153645003Y-84985944D01*
X153817930Y-84908951D01*
X153971071Y-84797688D01*
X154097733Y-84657016D01*
X154192379Y-84493084D01*
X154250874Y-84313056D01*
X154270660Y-84124800D01*
X154250874Y-83936544D01*
X154192379Y-83756516D01*
X154097733Y-83592584D01*
X153971071Y-83451912D01*
X153963859Y-83446672D01*
X153817934Y-83340651D01*
X153817929Y-83340648D01*
X153645007Y-83263657D01*
X153645002Y-83263655D01*
X153499201Y-83232665D01*
X153459846Y-83224300D01*
X153270554Y-83224300D01*
X153238097Y-83231198D01*
X153085397Y-83263655D01*
X153085392Y-83263657D01*
X152912470Y-83340648D01*
X152912465Y-83340651D01*
X152759329Y-83451911D01*
X152632666Y-83592585D01*
X152538021Y-83756515D01*
X152538018Y-83756522D01*
X152479527Y-83936540D01*
X152479526Y-83936544D01*
X152459740Y-84124800D01*
X124074300Y-84124800D01*
X124032946Y-84033757D01*
X124031856Y-84031205D01*
X123702109Y-83209157D01*
X123701131Y-83206552D01*
X123531299Y-82721202D01*
X147945434Y-82721202D01*
X147965258Y-82947799D01*
X147965260Y-82947810D01*
X148024130Y-83167517D01*
X148024134Y-83167526D01*
X148120265Y-83373681D01*
X148120266Y-83373683D01*
X148171373Y-83446671D01*
X148171373Y-83446672D01*
X148712980Y-82905065D01*
X148774303Y-82871580D01*
X148843994Y-82876564D01*
X148899928Y-82918435D01*
X148911142Y-82936446D01*
X148916927Y-82947799D01*
X148922758Y-82959244D01*
X148922763Y-82959250D01*
X149012349Y-83048836D01*
X149012351Y-83048837D01*
X149012355Y-83048841D01*
X149035147Y-83060454D01*
X149085942Y-83108428D01*
X149102737Y-83176249D01*
X149080199Y-83242384D01*
X149066532Y-83258619D01*
X148524926Y-83800225D01*
X148524926Y-83800226D01*
X148597912Y-83851331D01*
X148597916Y-83851333D01*
X148804073Y-83947465D01*
X148804082Y-83947469D01*
X149023789Y-84006339D01*
X149023800Y-84006341D01*
X149250398Y-84026166D01*
X149250402Y-84026166D01*
X149476999Y-84006341D01*
X149477010Y-84006339D01*
X149696717Y-83947469D01*
X149696731Y-83947464D01*
X149902878Y-83851336D01*
X149975872Y-83800225D01*
X149434266Y-83258619D01*
X149400781Y-83197296D01*
X149405765Y-83127604D01*
X149447637Y-83071671D01*
X149465645Y-83060458D01*
X149488445Y-83048841D01*
X149578041Y-82959245D01*
X149589654Y-82936452D01*
X149637625Y-82885658D01*
X149705446Y-82868861D01*
X149771581Y-82891397D01*
X149787819Y-82905066D01*
X150329425Y-83446672D01*
X150380536Y-83373678D01*
X150476664Y-83167531D01*
X150476669Y-83167517D01*
X150535539Y-82947810D01*
X150535541Y-82947799D01*
X150555366Y-82721202D01*
X150555366Y-82721197D01*
X150535541Y-82494600D01*
X150535539Y-82494589D01*
X150476669Y-82274882D01*
X150476665Y-82274873D01*
X150380534Y-82068718D01*
X150380530Y-82068712D01*
X150371588Y-82055940D01*
X150349261Y-81989734D01*
X150366273Y-81921967D01*
X150398854Y-81885551D01*
X150407946Y-81878746D01*
X150494196Y-81763531D01*
X150544491Y-81628683D01*
X150550900Y-81569073D01*
X150550899Y-79940270D01*
X157706700Y-79940270D01*
X157706701Y-79940276D01*
X157713108Y-79999883D01*
X157763402Y-80134728D01*
X157763406Y-80134735D01*
X157849652Y-80249944D01*
X157849655Y-80249947D01*
X157964864Y-80336193D01*
X157964871Y-80336197D01*
X158099717Y-80386491D01*
X158099716Y-80386491D01*
X158106644Y-80387235D01*
X158159327Y-80392900D01*
X160255072Y-80392899D01*
X160314683Y-80386491D01*
X160449531Y-80336196D01*
X160564746Y-80249946D01*
X160650996Y-80134731D01*
X160701291Y-79999883D01*
X160707700Y-79940273D01*
X160707699Y-77844528D01*
X160701291Y-77784917D01*
X160676035Y-77717203D01*
X160650997Y-77650071D01*
X160650993Y-77650064D01*
X160564747Y-77534855D01*
X160564744Y-77534852D01*
X160449535Y-77448606D01*
X160449528Y-77448602D01*
X160314682Y-77398308D01*
X160314683Y-77398308D01*
X160255083Y-77391901D01*
X160255081Y-77391900D01*
X160255073Y-77391900D01*
X160255064Y-77391900D01*
X158159329Y-77391900D01*
X158159323Y-77391901D01*
X158099716Y-77398308D01*
X157964871Y-77448602D01*
X157964864Y-77448606D01*
X157849655Y-77534852D01*
X157849652Y-77534855D01*
X157763406Y-77650064D01*
X157763402Y-77650071D01*
X157713108Y-77784917D01*
X157706701Y-77844516D01*
X157706701Y-77844523D01*
X157706700Y-77844535D01*
X157706700Y-79940270D01*
X150550899Y-79940270D01*
X150550899Y-79873328D01*
X150544491Y-79813717D01*
X150534708Y-79787488D01*
X150494197Y-79678871D01*
X150494193Y-79678864D01*
X150407947Y-79563655D01*
X150407944Y-79563652D01*
X150292735Y-79477406D01*
X150292728Y-79477402D01*
X150157882Y-79427108D01*
X150157883Y-79427108D01*
X150098283Y-79420701D01*
X150098281Y-79420700D01*
X150098273Y-79420700D01*
X150098264Y-79420700D01*
X148402529Y-79420700D01*
X148402523Y-79420701D01*
X148342916Y-79427108D01*
X148208071Y-79477402D01*
X148208064Y-79477406D01*
X148092855Y-79563652D01*
X148092852Y-79563655D01*
X148006606Y-79678864D01*
X148006602Y-79678871D01*
X147956308Y-79813717D01*
X147950228Y-79870277D01*
X147949901Y-79873323D01*
X147949900Y-79873335D01*
X147949900Y-81569070D01*
X147949901Y-81569076D01*
X147956308Y-81628683D01*
X148006602Y-81763528D01*
X148006606Y-81763535D01*
X148092852Y-81878744D01*
X148092853Y-81878744D01*
X148092854Y-81878746D01*
X148101945Y-81885551D01*
X148143816Y-81941482D01*
X148148802Y-82011174D01*
X148129213Y-82055936D01*
X148120271Y-82068707D01*
X148120268Y-82068712D01*
X148024134Y-82274873D01*
X148024130Y-82274882D01*
X147965260Y-82494589D01*
X147965258Y-82494600D01*
X147945434Y-82721197D01*
X147945434Y-82721202D01*
X123531299Y-82721202D01*
X123408576Y-82370479D01*
X123407727Y-82367869D01*
X123152983Y-81519535D01*
X123152245Y-81516860D01*
X122935819Y-80657947D01*
X122935205Y-80655263D01*
X122757522Y-79787461D01*
X122757040Y-79784807D01*
X122704202Y-79451200D01*
X144179340Y-79451200D01*
X144199126Y-79639456D01*
X144199127Y-79639459D01*
X144257618Y-79819477D01*
X144257621Y-79819484D01*
X144352267Y-79983416D01*
X144396134Y-80032135D01*
X144478929Y-80124088D01*
X144632065Y-80235348D01*
X144632070Y-80235351D01*
X144804992Y-80312342D01*
X144804997Y-80312344D01*
X144990154Y-80351700D01*
X144990155Y-80351700D01*
X145179444Y-80351700D01*
X145179446Y-80351700D01*
X145364603Y-80312344D01*
X145537530Y-80235351D01*
X145690671Y-80124088D01*
X145690670Y-80124088D01*
X145695929Y-80120268D01*
X145696872Y-80121566D01*
X145752569Y-80094826D01*
X145821906Y-80103439D01*
X145864717Y-80134226D01*
X145901329Y-80174888D01*
X145901332Y-80174890D01*
X146054465Y-80286148D01*
X146054470Y-80286151D01*
X146227392Y-80363142D01*
X146227397Y-80363144D01*
X146412554Y-80402500D01*
X146412555Y-80402500D01*
X146601844Y-80402500D01*
X146601846Y-80402500D01*
X146787003Y-80363144D01*
X146959930Y-80286151D01*
X147113071Y-80174888D01*
X147239733Y-80034216D01*
X147334379Y-79870284D01*
X147392874Y-79690256D01*
X147412660Y-79502000D01*
X147392874Y-79313744D01*
X147334379Y-79133716D01*
X147239733Y-78969784D01*
X147113071Y-78829112D01*
X147043151Y-78778312D01*
X146959934Y-78717851D01*
X146959929Y-78717848D01*
X146787007Y-78640857D01*
X146787002Y-78640855D01*
X146641201Y-78609865D01*
X146601846Y-78601500D01*
X146412554Y-78601500D01*
X146380097Y-78608398D01*
X146227397Y-78640855D01*
X146227392Y-78640857D01*
X146054470Y-78717848D01*
X146054465Y-78717851D01*
X145896071Y-78832931D01*
X145895131Y-78831637D01*
X145839396Y-78858378D01*
X145770061Y-78849745D01*
X145727278Y-78818968D01*
X145690670Y-78778311D01*
X145537534Y-78667051D01*
X145537529Y-78667048D01*
X145364607Y-78590057D01*
X145364602Y-78590055D01*
X145218800Y-78559065D01*
X145179446Y-78550700D01*
X144990154Y-78550700D01*
X144957697Y-78557598D01*
X144804997Y-78590055D01*
X144804992Y-78590057D01*
X144632070Y-78667048D01*
X144632065Y-78667051D01*
X144478929Y-78778311D01*
X144352266Y-78918985D01*
X144257621Y-79082915D01*
X144257618Y-79082922D01*
X144199127Y-79262940D01*
X144199126Y-79262944D01*
X144179340Y-79451200D01*
X122704202Y-79451200D01*
X122618466Y-78909886D01*
X122618105Y-78907226D01*
X122518922Y-78026951D01*
X122518683Y-78024295D01*
X122459092Y-77140447D01*
X122458971Y-77137758D01*
X122457998Y-77094400D01*
X126425505Y-77094400D01*
X126445830Y-77287780D01*
X126445831Y-77287782D01*
X126505913Y-77472698D01*
X126505916Y-77472704D01*
X126549043Y-77547402D01*
X126926906Y-77169539D01*
X126988229Y-77136054D01*
X127057920Y-77141038D01*
X127113854Y-77182909D01*
X127117689Y-77188329D01*
X127120104Y-77191944D01*
X127120105Y-77191945D01*
X127175360Y-77274640D01*
X127258055Y-77329895D01*
X127261668Y-77332309D01*
X127306473Y-77385921D01*
X127315180Y-77455246D01*
X127285026Y-77518274D01*
X127280458Y-77523092D01*
X126899626Y-77903924D01*
X126899626Y-77903925D01*
X127068187Y-77978973D01*
X127258379Y-78019400D01*
X127452821Y-78019400D01*
X127643014Y-77978973D01*
X127643019Y-77978971D01*
X127811571Y-77903926D01*
X127811571Y-77903925D01*
X127479246Y-77571600D01*
X137829340Y-77571600D01*
X137849126Y-77759856D01*
X137849127Y-77759859D01*
X137907618Y-77939877D01*
X137907621Y-77939884D01*
X138002267Y-78103816D01*
X138092272Y-78203776D01*
X138128929Y-78244488D01*
X138282065Y-78355748D01*
X138282070Y-78355751D01*
X138454992Y-78432742D01*
X138454997Y-78432744D01*
X138640154Y-78472100D01*
X138640155Y-78472100D01*
X138829444Y-78472100D01*
X138829446Y-78472100D01*
X139014603Y-78432744D01*
X139187530Y-78355751D01*
X139340671Y-78244488D01*
X139467333Y-78103816D01*
X139561979Y-77939884D01*
X139620474Y-77759856D01*
X139624957Y-77717203D01*
X141339193Y-77717203D01*
X141358757Y-77890848D01*
X141358759Y-77890858D01*
X141405428Y-78024227D01*
X141416478Y-78055806D01*
X141509453Y-78203776D01*
X141633024Y-78327347D01*
X141780994Y-78420322D01*
X141945943Y-78478041D01*
X141945949Y-78478041D01*
X141945951Y-78478042D01*
X142119596Y-78497607D01*
X142119600Y-78497607D01*
X142119604Y-78497607D01*
X142293248Y-78478042D01*
X142293247Y-78478042D01*
X142293257Y-78478041D01*
X142458206Y-78420322D01*
X142553630Y-78360363D01*
X142620865Y-78341364D01*
X142685569Y-78360363D01*
X142780994Y-78420322D01*
X142945943Y-78478041D01*
X142945949Y-78478041D01*
X142945951Y-78478042D01*
X143119596Y-78497607D01*
X143119600Y-78497607D01*
X143119604Y-78497607D01*
X143293248Y-78478042D01*
X143293247Y-78478042D01*
X143293257Y-78478041D01*
X143458206Y-78420322D01*
X143553630Y-78360363D01*
X143620865Y-78341364D01*
X143685569Y-78360363D01*
X143780994Y-78420322D01*
X143945943Y-78478041D01*
X143945949Y-78478041D01*
X143945951Y-78478042D01*
X144119596Y-78497607D01*
X144119600Y-78497607D01*
X144119604Y-78497607D01*
X144293248Y-78478042D01*
X144293247Y-78478042D01*
X144293257Y-78478041D01*
X144458206Y-78420322D01*
X144606176Y-78327347D01*
X144729747Y-78203776D01*
X144822722Y-78055806D01*
X144880441Y-77890857D01*
X144885661Y-77844527D01*
X144900007Y-77717203D01*
X144900007Y-77717196D01*
X144880442Y-77543551D01*
X144880441Y-77543549D01*
X144880441Y-77543543D01*
X144822722Y-77378594D01*
X144729747Y-77230624D01*
X144729745Y-77230622D01*
X144729744Y-77230620D01*
X144704004Y-77204880D01*
X144670519Y-77143557D01*
X144675503Y-77073865D01*
X144704001Y-77029520D01*
X144729747Y-77003776D01*
X144822722Y-76855806D01*
X144880441Y-76690857D01*
X144900007Y-76517200D01*
X144899391Y-76511735D01*
X144880442Y-76343551D01*
X144880441Y-76343549D01*
X144880441Y-76343543D01*
X144822722Y-76178594D01*
X144729747Y-76030624D01*
X144704004Y-76004881D01*
X144670519Y-75943558D01*
X144675503Y-75873866D01*
X144704004Y-75829519D01*
X144729747Y-75803776D01*
X144822722Y-75655806D01*
X144880441Y-75490857D01*
X144893886Y-75371527D01*
X144900007Y-75317203D01*
X144900007Y-75317196D01*
X144880442Y-75143551D01*
X144880441Y-75143549D01*
X144880441Y-75143543D01*
X144822722Y-74978594D01*
X144729747Y-74830624D01*
X144704004Y-74804881D01*
X144670519Y-74743558D01*
X144675503Y-74673866D01*
X144704004Y-74629519D01*
X144704005Y-74629518D01*
X144729747Y-74603776D01*
X144760099Y-74555470D01*
X157706700Y-74555470D01*
X157706701Y-74555476D01*
X157713108Y-74615083D01*
X157763402Y-74749928D01*
X157763406Y-74749935D01*
X157849652Y-74865144D01*
X157849655Y-74865147D01*
X157964864Y-74951393D01*
X157964871Y-74951397D01*
X158099717Y-75001691D01*
X158099716Y-75001691D01*
X158106644Y-75002435D01*
X158159327Y-75008100D01*
X160255072Y-75008099D01*
X160314683Y-75001691D01*
X160449531Y-74951396D01*
X160564746Y-74865146D01*
X160650996Y-74749931D01*
X160701291Y-74615083D01*
X160707700Y-74555473D01*
X160707699Y-72459728D01*
X160701291Y-72400117D01*
X160650996Y-72265269D01*
X160650995Y-72265268D01*
X160650993Y-72265264D01*
X160564747Y-72150055D01*
X160564744Y-72150052D01*
X160449535Y-72063806D01*
X160449528Y-72063802D01*
X160314682Y-72013508D01*
X160314683Y-72013508D01*
X160255083Y-72007101D01*
X160255081Y-72007100D01*
X160255073Y-72007100D01*
X160255064Y-72007100D01*
X158159329Y-72007100D01*
X158159323Y-72007101D01*
X158099716Y-72013508D01*
X157964871Y-72063802D01*
X157964864Y-72063806D01*
X157849655Y-72150052D01*
X157849652Y-72150055D01*
X157763406Y-72265264D01*
X157763402Y-72265271D01*
X157713108Y-72400117D01*
X157706701Y-72459716D01*
X157706701Y-72459723D01*
X157706700Y-72459735D01*
X157706700Y-74555470D01*
X144760099Y-74555470D01*
X144822722Y-74455806D01*
X144880441Y-74290857D01*
X144900007Y-74117200D01*
X144894560Y-74068857D01*
X144880442Y-73943551D01*
X144880441Y-73943549D01*
X144880441Y-73943543D01*
X144822722Y-73778594D01*
X144729747Y-73630624D01*
X144606176Y-73507053D01*
X144458206Y-73414078D01*
X144458205Y-73414077D01*
X144458204Y-73414077D01*
X144293258Y-73356359D01*
X144293248Y-73356357D01*
X144119604Y-73336793D01*
X144119596Y-73336793D01*
X143945951Y-73356357D01*
X143945941Y-73356359D01*
X143780992Y-73414078D01*
X143685571Y-73474035D01*
X143618334Y-73493035D01*
X143553629Y-73474035D01*
X143458207Y-73414078D01*
X143293258Y-73356359D01*
X143293248Y-73356357D01*
X143119604Y-73336793D01*
X143119596Y-73336793D01*
X142945951Y-73356357D01*
X142945941Y-73356359D01*
X142780992Y-73414078D01*
X142685571Y-73474035D01*
X142618334Y-73493035D01*
X142553629Y-73474035D01*
X142458207Y-73414078D01*
X142293258Y-73356359D01*
X142293248Y-73356357D01*
X142119604Y-73336793D01*
X142119596Y-73336793D01*
X141945951Y-73356357D01*
X141945941Y-73356359D01*
X141780995Y-73414077D01*
X141633023Y-73507053D01*
X141509453Y-73630623D01*
X141416477Y-73778595D01*
X141358759Y-73943541D01*
X141358757Y-73943551D01*
X141339193Y-74117196D01*
X141339193Y-74117203D01*
X141358757Y-74290848D01*
X141358759Y-74290858D01*
X141412035Y-74443110D01*
X141416478Y-74455806D01*
X141479104Y-74555476D01*
X141509453Y-74603776D01*
X141535195Y-74629518D01*
X141568680Y-74690841D01*
X141563696Y-74760533D01*
X141535197Y-74804879D01*
X141509454Y-74830622D01*
X141416477Y-74978595D01*
X141358759Y-75143541D01*
X141358757Y-75143551D01*
X141339193Y-75317196D01*
X141339193Y-75317203D01*
X141358757Y-75490848D01*
X141358759Y-75490857D01*
X141416478Y-75655806D01*
X141453138Y-75714151D01*
X141509453Y-75803776D01*
X141535196Y-75829519D01*
X141568681Y-75890842D01*
X141563697Y-75960534D01*
X141535196Y-76004881D01*
X141509453Y-76030623D01*
X141416477Y-76178595D01*
X141358759Y-76343541D01*
X141358757Y-76343551D01*
X141339193Y-76517196D01*
X141339193Y-76517203D01*
X141358757Y-76690848D01*
X141358759Y-76690858D01*
X141392558Y-76787448D01*
X141416478Y-76855806D01*
X141444886Y-76901017D01*
X141509453Y-77003776D01*
X141535196Y-77029519D01*
X141568681Y-77090842D01*
X141563697Y-77160534D01*
X141535196Y-77204881D01*
X141509453Y-77230623D01*
X141416477Y-77378595D01*
X141358759Y-77543541D01*
X141358757Y-77543551D01*
X141339193Y-77717196D01*
X141339193Y-77717203D01*
X139624957Y-77717203D01*
X139640260Y-77571600D01*
X139620474Y-77383344D01*
X139561979Y-77203316D01*
X139467333Y-77039384D01*
X139340671Y-76898712D01*
X139340670Y-76898711D01*
X139187534Y-76787451D01*
X139187529Y-76787448D01*
X139014607Y-76710457D01*
X139014602Y-76710455D01*
X138868801Y-76679465D01*
X138829446Y-76671100D01*
X138640154Y-76671100D01*
X138607697Y-76677998D01*
X138454997Y-76710455D01*
X138454992Y-76710457D01*
X138282070Y-76787448D01*
X138282065Y-76787451D01*
X138128929Y-76898711D01*
X138002266Y-77039385D01*
X137907621Y-77203315D01*
X137907618Y-77203322D01*
X137850669Y-77378594D01*
X137849126Y-77383344D01*
X137829340Y-77571600D01*
X127479246Y-77571600D01*
X127430739Y-77523093D01*
X127397254Y-77461770D01*
X127402238Y-77392078D01*
X127444110Y-77336145D01*
X127449530Y-77332309D01*
X127453141Y-77329895D01*
X127453145Y-77329895D01*
X127535840Y-77274640D01*
X127591095Y-77191945D01*
X127591095Y-77191941D01*
X127593509Y-77188330D01*
X127647121Y-77143524D01*
X127716446Y-77134817D01*
X127779474Y-77164971D01*
X127784293Y-77169539D01*
X128162155Y-77547402D01*
X128162156Y-77547402D01*
X128205283Y-77472705D01*
X128265368Y-77287782D01*
X128265369Y-77287780D01*
X128285694Y-77094400D01*
X128265369Y-76901019D01*
X128265368Y-76901017D01*
X128205286Y-76716101D01*
X128205285Y-76716100D01*
X128187886Y-76685964D01*
X128171413Y-76618064D01*
X128194265Y-76552037D01*
X128195946Y-76549734D01*
X128224396Y-76511731D01*
X128274691Y-76376883D01*
X128281100Y-76317273D01*
X128281099Y-75844400D01*
X134832140Y-75844400D01*
X134851926Y-76032656D01*
X134851927Y-76032659D01*
X134910418Y-76212677D01*
X134910421Y-76212684D01*
X135005067Y-76376616D01*
X135126723Y-76511728D01*
X135131729Y-76517288D01*
X135284865Y-76628548D01*
X135284870Y-76628551D01*
X135457792Y-76705542D01*
X135457797Y-76705544D01*
X135642954Y-76744900D01*
X135642955Y-76744900D01*
X135832244Y-76744900D01*
X135832246Y-76744900D01*
X136017403Y-76705544D01*
X136190330Y-76628551D01*
X136343471Y-76517288D01*
X136470133Y-76376616D01*
X136564779Y-76212684D01*
X136623274Y-76032656D01*
X136643060Y-75844400D01*
X136623274Y-75656144D01*
X136564779Y-75476116D01*
X136539251Y-75431900D01*
X137727240Y-75431900D01*
X137747026Y-75620156D01*
X137747027Y-75620159D01*
X137805518Y-75800177D01*
X137805521Y-75800184D01*
X137900167Y-75964116D01*
X137961881Y-76032656D01*
X138026829Y-76104788D01*
X138179965Y-76216048D01*
X138179970Y-76216051D01*
X138352892Y-76293042D01*
X138352897Y-76293044D01*
X138538054Y-76332400D01*
X138538055Y-76332400D01*
X138727344Y-76332400D01*
X138727346Y-76332400D01*
X138912503Y-76293044D01*
X139085430Y-76216051D01*
X139238571Y-76104788D01*
X139365233Y-75964116D01*
X139459879Y-75800184D01*
X139518374Y-75620156D01*
X139538160Y-75431900D01*
X139518374Y-75243644D01*
X139459879Y-75063616D01*
X139365233Y-74899684D01*
X139238571Y-74759012D01*
X139226068Y-74749928D01*
X139085434Y-74647751D01*
X139085429Y-74647748D01*
X138940201Y-74583088D01*
X138886964Y-74537838D01*
X138866643Y-74470989D01*
X138885688Y-74403765D01*
X138938055Y-74357510D01*
X138964850Y-74348520D01*
X138989203Y-74343344D01*
X138989207Y-74343342D01*
X138989208Y-74343342D01*
X139107089Y-74290857D01*
X139162130Y-74266351D01*
X139315271Y-74155088D01*
X139441933Y-74014416D01*
X139536579Y-73850484D01*
X139595074Y-73670456D01*
X139614860Y-73482200D01*
X139595074Y-73293944D01*
X139536579Y-73113916D01*
X139441933Y-72949984D01*
X139315271Y-72809312D01*
X139315270Y-72809311D01*
X139162134Y-72698051D01*
X139162129Y-72698048D01*
X138989207Y-72621057D01*
X138989202Y-72621055D01*
X138843401Y-72590065D01*
X138804046Y-72581700D01*
X138614754Y-72581700D01*
X138582297Y-72588598D01*
X138429597Y-72621055D01*
X138429592Y-72621057D01*
X138256670Y-72698048D01*
X138256665Y-72698051D01*
X138103529Y-72809311D01*
X137976866Y-72949985D01*
X137882221Y-73113915D01*
X137882218Y-73113922D01*
X137823727Y-73293940D01*
X137823726Y-73293944D01*
X137803940Y-73482200D01*
X137823726Y-73670456D01*
X137823727Y-73670459D01*
X137882218Y-73850477D01*
X137882221Y-73850484D01*
X137976867Y-74014416D01*
X138069417Y-74117203D01*
X138103529Y-74155088D01*
X138243953Y-74257112D01*
X138256670Y-74266351D01*
X138401901Y-74331013D01*
X138455135Y-74376261D01*
X138475456Y-74443110D01*
X138456411Y-74510334D01*
X138404045Y-74556589D01*
X138377246Y-74565580D01*
X138352893Y-74570756D01*
X138352892Y-74570757D01*
X138179970Y-74647748D01*
X138179965Y-74647751D01*
X138026829Y-74759011D01*
X137900166Y-74899685D01*
X137805521Y-75063615D01*
X137805518Y-75063622D01*
X137747027Y-75243640D01*
X137747026Y-75243644D01*
X137727240Y-75431900D01*
X136539251Y-75431900D01*
X136470133Y-75312184D01*
X136343471Y-75171512D01*
X136304975Y-75143543D01*
X136190334Y-75060251D01*
X136190329Y-75060248D01*
X136017407Y-74983257D01*
X136017402Y-74983255D01*
X135867498Y-74951393D01*
X135832246Y-74943900D01*
X135642954Y-74943900D01*
X135610497Y-74950798D01*
X135457797Y-74983255D01*
X135457792Y-74983257D01*
X135284870Y-75060248D01*
X135284865Y-75060251D01*
X135131729Y-75171511D01*
X135005066Y-75312185D01*
X134910421Y-75476115D01*
X134910418Y-75476122D01*
X134869230Y-75602888D01*
X134851926Y-75656144D01*
X134832140Y-75844400D01*
X128281099Y-75844400D01*
X128281099Y-75371528D01*
X128275259Y-75317200D01*
X128274691Y-75311916D01*
X128224397Y-75177071D01*
X128224393Y-75177064D01*
X128138147Y-75061855D01*
X128138144Y-75061852D01*
X128022935Y-74975606D01*
X128022928Y-74975602D01*
X127900662Y-74930000D01*
X129142540Y-74930000D01*
X129162326Y-75118256D01*
X129162327Y-75118259D01*
X129220818Y-75298277D01*
X129220821Y-75298284D01*
X129315467Y-75462216D01*
X129442129Y-75602887D01*
X129442129Y-75602888D01*
X129595265Y-75714148D01*
X129595270Y-75714151D01*
X129768192Y-75791142D01*
X129768197Y-75791144D01*
X129953354Y-75830500D01*
X129953355Y-75830500D01*
X130142644Y-75830500D01*
X130142646Y-75830500D01*
X130327803Y-75791144D01*
X130500730Y-75714151D01*
X130653871Y-75602888D01*
X130780533Y-75462216D01*
X130875179Y-75298284D01*
X130933674Y-75118256D01*
X130953460Y-74930000D01*
X130933674Y-74741744D01*
X130878116Y-74570756D01*
X130875181Y-74561722D01*
X130875180Y-74561721D01*
X130875179Y-74561716D01*
X130780533Y-74397784D01*
X130653871Y-74257112D01*
X130653870Y-74257111D01*
X130500734Y-74145851D01*
X130500729Y-74145848D01*
X130327807Y-74068857D01*
X130327802Y-74068855D01*
X130182001Y-74037865D01*
X130142646Y-74029500D01*
X129953354Y-74029500D01*
X129920897Y-74036398D01*
X129768197Y-74068855D01*
X129768192Y-74068857D01*
X129595270Y-74145848D01*
X129595265Y-74145851D01*
X129442129Y-74257111D01*
X129315466Y-74397785D01*
X129220821Y-74561715D01*
X129220818Y-74561722D01*
X129169236Y-74720477D01*
X129162326Y-74741744D01*
X129149356Y-74865146D01*
X129143707Y-74918901D01*
X129142540Y-74930000D01*
X127900662Y-74930000D01*
X127888082Y-74925308D01*
X127888083Y-74925308D01*
X127828483Y-74918901D01*
X127828481Y-74918900D01*
X127828473Y-74918900D01*
X127828464Y-74918900D01*
X126882729Y-74918900D01*
X126882723Y-74918901D01*
X126823116Y-74925308D01*
X126688271Y-74975602D01*
X126688264Y-74975606D01*
X126573055Y-75061852D01*
X126573052Y-75061855D01*
X126486806Y-75177064D01*
X126486802Y-75177071D01*
X126436508Y-75311917D01*
X126430922Y-75363882D01*
X126430101Y-75371523D01*
X126430100Y-75371535D01*
X126430100Y-76317270D01*
X126430101Y-76317276D01*
X126436508Y-76376883D01*
X126486802Y-76511728D01*
X126486806Y-76511735D01*
X126515191Y-76549652D01*
X126539609Y-76615116D01*
X126524758Y-76683389D01*
X126523313Y-76685962D01*
X126505916Y-76716094D01*
X126445831Y-76901017D01*
X126445830Y-76901019D01*
X126425505Y-77094400D01*
X122457998Y-77094400D01*
X122439096Y-76252181D01*
X122439096Y-76249408D01*
X122439920Y-76212684D01*
X122458971Y-75363839D01*
X122459092Y-75361154D01*
X122518683Y-74477300D01*
X122518922Y-74474652D01*
X122618106Y-73594367D01*
X122618465Y-73591719D01*
X122757041Y-72716785D01*
X122757520Y-72714146D01*
X122935207Y-71846327D01*
X122935819Y-71843652D01*
X123038166Y-71437477D01*
X123130963Y-71069200D01*
X139912140Y-71069200D01*
X139931926Y-71257456D01*
X139931927Y-71257459D01*
X139990418Y-71437477D01*
X139990421Y-71437484D01*
X140085067Y-71601416D01*
X140211729Y-71742087D01*
X140211729Y-71742088D01*
X140364865Y-71853348D01*
X140364870Y-71853351D01*
X140537792Y-71930342D01*
X140537797Y-71930344D01*
X140722954Y-71969700D01*
X140722955Y-71969700D01*
X140912244Y-71969700D01*
X140912246Y-71969700D01*
X141097403Y-71930344D01*
X141270330Y-71853351D01*
X141423471Y-71742088D01*
X141550133Y-71601416D01*
X141644779Y-71437484D01*
X141703274Y-71257456D01*
X141723060Y-71069200D01*
X141703274Y-70880944D01*
X141644779Y-70700916D01*
X141550133Y-70536984D01*
X141526197Y-70510400D01*
X155152140Y-70510400D01*
X155171926Y-70698656D01*
X155171927Y-70698659D01*
X155230418Y-70878677D01*
X155230421Y-70878684D01*
X155325067Y-71042616D01*
X155451729Y-71183288D01*
X155604865Y-71294548D01*
X155604870Y-71294551D01*
X155777792Y-71371542D01*
X155777797Y-71371544D01*
X155962954Y-71410900D01*
X155962955Y-71410900D01*
X156152244Y-71410900D01*
X156152246Y-71410900D01*
X156337403Y-71371544D01*
X156510330Y-71294551D01*
X156663471Y-71183288D01*
X156790133Y-71042616D01*
X156884779Y-70878684D01*
X156943274Y-70698656D01*
X156963060Y-70510400D01*
X156943274Y-70322144D01*
X156884779Y-70142116D01*
X156790133Y-69978184D01*
X156663471Y-69837512D01*
X156663470Y-69837511D01*
X156510334Y-69726251D01*
X156510329Y-69726248D01*
X156337407Y-69649257D01*
X156337402Y-69649255D01*
X156191600Y-69618265D01*
X156152246Y-69609900D01*
X155962954Y-69609900D01*
X155930497Y-69616798D01*
X155777797Y-69649255D01*
X155777792Y-69649257D01*
X155604870Y-69726248D01*
X155604865Y-69726251D01*
X155451729Y-69837511D01*
X155325066Y-69978185D01*
X155230421Y-70142115D01*
X155230418Y-70142122D01*
X155208995Y-70208057D01*
X155171926Y-70322144D01*
X155152140Y-70510400D01*
X141526197Y-70510400D01*
X141423471Y-70396312D01*
X141423470Y-70396311D01*
X141270334Y-70285051D01*
X141270329Y-70285048D01*
X141097407Y-70208057D01*
X141097402Y-70208055D01*
X140951600Y-70177065D01*
X140912246Y-70168700D01*
X140722954Y-70168700D01*
X140690497Y-70175598D01*
X140537797Y-70208055D01*
X140537792Y-70208057D01*
X140364870Y-70285048D01*
X140364865Y-70285051D01*
X140211729Y-70396311D01*
X140085066Y-70536985D01*
X139990421Y-70700915D01*
X139990418Y-70700922D01*
X139932660Y-70878684D01*
X139931926Y-70880944D01*
X139912140Y-71069200D01*
X123130963Y-71069200D01*
X123152249Y-70984724D01*
X123152986Y-70982056D01*
X123407731Y-70133716D01*
X123408576Y-70131120D01*
X123701131Y-69295047D01*
X123702109Y-69292442D01*
X123987889Y-68580000D01*
X150834140Y-68580000D01*
X150853926Y-68768256D01*
X150853927Y-68768259D01*
X150912418Y-68948277D01*
X150912421Y-68948284D01*
X151007067Y-69112216D01*
X151128308Y-69246867D01*
X151133729Y-69252888D01*
X151286865Y-69364148D01*
X151286870Y-69364151D01*
X151459792Y-69441142D01*
X151459797Y-69441144D01*
X151644954Y-69480500D01*
X151644955Y-69480500D01*
X151834244Y-69480500D01*
X151834246Y-69480500D01*
X152019403Y-69441144D01*
X152192330Y-69364151D01*
X152345471Y-69252888D01*
X152472133Y-69112216D01*
X152566779Y-68948284D01*
X152625274Y-68768256D01*
X152645060Y-68580000D01*
X152625274Y-68391744D01*
X152566779Y-68211716D01*
X152472133Y-68047784D01*
X152345471Y-67907112D01*
X152345470Y-67907111D01*
X152192334Y-67795851D01*
X152192329Y-67795848D01*
X152019407Y-67718857D01*
X152019402Y-67718855D01*
X151873601Y-67687865D01*
X151834246Y-67679500D01*
X151644954Y-67679500D01*
X151612497Y-67686398D01*
X151459797Y-67718855D01*
X151459792Y-67718857D01*
X151286870Y-67795848D01*
X151286865Y-67795851D01*
X151133729Y-67907111D01*
X151007066Y-68047785D01*
X150912421Y-68211715D01*
X150912418Y-68211722D01*
X150853927Y-68391740D01*
X150853926Y-68391744D01*
X150834140Y-68580000D01*
X123987889Y-68580000D01*
X124031861Y-68470380D01*
X124032939Y-68467857D01*
X124399276Y-67661342D01*
X124400458Y-67658890D01*
X124502036Y-67459532D01*
X124802588Y-66869665D01*
X124803886Y-66867251D01*
X125042685Y-66446401D01*
X132740066Y-66446401D01*
X132759364Y-66666985D01*
X132759365Y-66666992D01*
X132816675Y-66880875D01*
X132816679Y-66880886D01*
X132910256Y-67081563D01*
X132910258Y-67081567D01*
X133037268Y-67262955D01*
X133193845Y-67419532D01*
X133375233Y-67546542D01*
X133461014Y-67586542D01*
X133575913Y-67640120D01*
X133575915Y-67640120D01*
X133575920Y-67640123D01*
X133789809Y-67697435D01*
X133947374Y-67711219D01*
X134010398Y-67716734D01*
X134010400Y-67716734D01*
X134010402Y-67716734D01*
X134065676Y-67711898D01*
X134230991Y-67697435D01*
X134444880Y-67640123D01*
X134645567Y-67546542D01*
X134826955Y-67419532D01*
X134983532Y-67262955D01*
X135059328Y-67154707D01*
X135113901Y-67111085D01*
X135183400Y-67103891D01*
X135245755Y-67135413D01*
X135281169Y-67195643D01*
X135284900Y-67225830D01*
X135284900Y-67259268D01*
X135284901Y-67259276D01*
X135291308Y-67318883D01*
X135341602Y-67453728D01*
X135341606Y-67453735D01*
X135427852Y-67568944D01*
X135427855Y-67568947D01*
X135543064Y-67655193D01*
X135543071Y-67655197D01*
X135677917Y-67705491D01*
X135677916Y-67705491D01*
X135684844Y-67706235D01*
X135737527Y-67711900D01*
X137363272Y-67711899D01*
X137422883Y-67705491D01*
X137557731Y-67655196D01*
X137672946Y-67568946D01*
X137759196Y-67453731D01*
X137809491Y-67318883D01*
X137811602Y-67299244D01*
X139700700Y-67299244D01*
X139707101Y-67358772D01*
X139707103Y-67358779D01*
X139757345Y-67493486D01*
X139757349Y-67493493D01*
X139843509Y-67608587D01*
X139843512Y-67608590D01*
X139958606Y-67694750D01*
X139958613Y-67694754D01*
X140093320Y-67744996D01*
X140093327Y-67744998D01*
X140152855Y-67751399D01*
X140152872Y-67751400D01*
X140715700Y-67751400D01*
X140715700Y-67108803D01*
X140735385Y-67041764D01*
X140788189Y-66996009D01*
X140857346Y-66986065D01*
X140929227Y-66996400D01*
X140929230Y-66996400D01*
X141002170Y-66996400D01*
X141002173Y-66996400D01*
X141074053Y-66986065D01*
X141143212Y-66996009D01*
X141196016Y-67041764D01*
X141215700Y-67108803D01*
X141215700Y-67751400D01*
X141778528Y-67751400D01*
X141778544Y-67751399D01*
X141838072Y-67744998D01*
X141838079Y-67744996D01*
X141972786Y-67694754D01*
X141972793Y-67694750D01*
X142087887Y-67608590D01*
X142087890Y-67608587D01*
X142174050Y-67493493D01*
X142174054Y-67493486D01*
X142224296Y-67358779D01*
X142224298Y-67358772D01*
X142230699Y-67299244D01*
X142230700Y-67299227D01*
X142230700Y-67265121D01*
X142250385Y-67198082D01*
X142303189Y-67152327D01*
X142372347Y-67142383D01*
X142435903Y-67171408D01*
X142456272Y-67193993D01*
X142532568Y-67302955D01*
X142689145Y-67459532D01*
X142870533Y-67586542D01*
X142985439Y-67640123D01*
X143071213Y-67680120D01*
X143071215Y-67680120D01*
X143071220Y-67680123D01*
X143285109Y-67737435D01*
X143442674Y-67751219D01*
X143505698Y-67756734D01*
X143505700Y-67756734D01*
X143505702Y-67756734D01*
X143560847Y-67751909D01*
X143726291Y-67737435D01*
X143940180Y-67680123D01*
X144140867Y-67586542D01*
X144322255Y-67459532D01*
X144478832Y-67302955D01*
X144605842Y-67121567D01*
X144699423Y-66920880D01*
X144756735Y-66706991D01*
X144776034Y-66486400D01*
X144772534Y-66446400D01*
X144756735Y-66265814D01*
X144756735Y-66265809D01*
X144699423Y-66051920D01*
X144684216Y-66019309D01*
X144605843Y-65851236D01*
X144605842Y-65851234D01*
X144605842Y-65851233D01*
X144478832Y-65669845D01*
X144322255Y-65513268D01*
X144140867Y-65386258D01*
X144093589Y-65364212D01*
X143940186Y-65292679D01*
X143940175Y-65292675D01*
X143726292Y-65235365D01*
X143726285Y-65235364D01*
X143505702Y-65216066D01*
X143505698Y-65216066D01*
X143285114Y-65235364D01*
X143285107Y-65235365D01*
X143071224Y-65292675D01*
X143071213Y-65292679D01*
X142870536Y-65386256D01*
X142870534Y-65386257D01*
X142689144Y-65513268D01*
X142532571Y-65669841D01*
X142532562Y-65669852D01*
X142456274Y-65778802D01*
X142401697Y-65822427D01*
X142332199Y-65829619D01*
X142269844Y-65798097D01*
X142234431Y-65737866D01*
X142230700Y-65707678D01*
X142230700Y-65673572D01*
X142230699Y-65673555D01*
X142224298Y-65614027D01*
X142224296Y-65614020D01*
X142174054Y-65479313D01*
X142174050Y-65479306D01*
X142087890Y-65364212D01*
X142087887Y-65364209D01*
X141972793Y-65278049D01*
X141972786Y-65278045D01*
X141838079Y-65227803D01*
X141838072Y-65227801D01*
X141778544Y-65221400D01*
X141215700Y-65221400D01*
X141215700Y-65863996D01*
X141196015Y-65931035D01*
X141143211Y-65976790D01*
X141074055Y-65986734D01*
X141002176Y-65976400D01*
X141002173Y-65976400D01*
X140929227Y-65976400D01*
X140929223Y-65976400D01*
X140857345Y-65986734D01*
X140788187Y-65976790D01*
X140735384Y-65931034D01*
X140715700Y-65863996D01*
X140715700Y-65221400D01*
X140152855Y-65221400D01*
X140093327Y-65227801D01*
X140093320Y-65227803D01*
X139958613Y-65278045D01*
X139958606Y-65278049D01*
X139843512Y-65364209D01*
X139843509Y-65364212D01*
X139757349Y-65479306D01*
X139757345Y-65479313D01*
X139707103Y-65614020D01*
X139707101Y-65614027D01*
X139700700Y-65673555D01*
X139700700Y-66236400D01*
X140341931Y-66236400D01*
X140408970Y-66256085D01*
X140454725Y-66308889D01*
X140464669Y-66378047D01*
X140460908Y-66395336D01*
X140455700Y-66413072D01*
X140455700Y-66559727D01*
X140460908Y-66577464D01*
X140460908Y-66647334D01*
X140423134Y-66706112D01*
X140359579Y-66735138D01*
X140341931Y-66736400D01*
X139700700Y-66736400D01*
X139700700Y-67299244D01*
X137811602Y-67299244D01*
X137815900Y-67259273D01*
X137815899Y-65633528D01*
X137809491Y-65573917D01*
X137786870Y-65513268D01*
X137759197Y-65439071D01*
X137759193Y-65439064D01*
X137672947Y-65323855D01*
X137672944Y-65323852D01*
X137557735Y-65237606D01*
X137557728Y-65237602D01*
X137422882Y-65187308D01*
X137422883Y-65187308D01*
X137363283Y-65180901D01*
X137363281Y-65180900D01*
X137363273Y-65180900D01*
X137363264Y-65180900D01*
X135737529Y-65180900D01*
X135737523Y-65180901D01*
X135677916Y-65187308D01*
X135543071Y-65237602D01*
X135543064Y-65237606D01*
X135427855Y-65323852D01*
X135427852Y-65323855D01*
X135341606Y-65439064D01*
X135341602Y-65439071D01*
X135291308Y-65573917D01*
X135285296Y-65629841D01*
X135284901Y-65633523D01*
X135284900Y-65633535D01*
X135284900Y-65666964D01*
X135265215Y-65734003D01*
X135212411Y-65779758D01*
X135143253Y-65789702D01*
X135079697Y-65760677D01*
X135059326Y-65738088D01*
X134983537Y-65629852D01*
X134983536Y-65629851D01*
X134983532Y-65629845D01*
X134826955Y-65473268D01*
X134645567Y-65346258D01*
X134639256Y-65343315D01*
X134444886Y-65252679D01*
X134444875Y-65252675D01*
X134230992Y-65195365D01*
X134230985Y-65195364D01*
X134010402Y-65176066D01*
X134010398Y-65176066D01*
X133789814Y-65195364D01*
X133789807Y-65195365D01*
X133575924Y-65252675D01*
X133575913Y-65252679D01*
X133375236Y-65346256D01*
X133375234Y-65346257D01*
X133193844Y-65473268D01*
X133037268Y-65629844D01*
X132910257Y-65811234D01*
X132910256Y-65811236D01*
X132816679Y-66011913D01*
X132816675Y-66011924D01*
X132759365Y-66225807D01*
X132759364Y-66225814D01*
X132740066Y-66446398D01*
X132740066Y-66446401D01*
X125042685Y-66446401D01*
X125241025Y-66096853D01*
X125242436Y-66094491D01*
X125713713Y-65344458D01*
X125715206Y-65342196D01*
X126219658Y-64614063D01*
X126221277Y-64611837D01*
X126262169Y-64558131D01*
X126757878Y-63907083D01*
X126759575Y-63904957D01*
X127327253Y-63224987D01*
X127329069Y-63222911D01*
X127396717Y-63148901D01*
X132475366Y-63148901D01*
X132494664Y-63369485D01*
X132494665Y-63369492D01*
X132551975Y-63583375D01*
X132551979Y-63583386D01*
X132645556Y-63784063D01*
X132645558Y-63784067D01*
X132772568Y-63965455D01*
X132929145Y-64122032D01*
X133110533Y-64249042D01*
X133190743Y-64286444D01*
X133311213Y-64342620D01*
X133311215Y-64342620D01*
X133311220Y-64342623D01*
X133525109Y-64399935D01*
X133682673Y-64413720D01*
X133745698Y-64419234D01*
X133745700Y-64419234D01*
X133745702Y-64419234D01*
X133800847Y-64414409D01*
X133966291Y-64399935D01*
X134180180Y-64342623D01*
X134380867Y-64249042D01*
X134562255Y-64122032D01*
X134718832Y-63965455D01*
X134845842Y-63784067D01*
X134939423Y-63583380D01*
X134996735Y-63369491D01*
X135016034Y-63148900D01*
X134996735Y-62928309D01*
X134939423Y-62714420D01*
X134845842Y-62513733D01*
X134718832Y-62332345D01*
X134562255Y-62175768D01*
X134562252Y-62175766D01*
X134562250Y-62175764D01*
X134503195Y-62134413D01*
X134454009Y-62099973D01*
X134410385Y-62045397D01*
X134403191Y-61975899D01*
X134434714Y-61913544D01*
X134494944Y-61878130D01*
X134525132Y-61874399D01*
X134558572Y-61874399D01*
X134618183Y-61867991D01*
X134753031Y-61817696D01*
X134868246Y-61731446D01*
X134954496Y-61616231D01*
X135004791Y-61481383D01*
X135011200Y-61421773D01*
X135011200Y-60623901D01*
X135585366Y-60623901D01*
X135604664Y-60844485D01*
X135604665Y-60844492D01*
X135661975Y-61058375D01*
X135661979Y-61058386D01*
X135722775Y-61188763D01*
X135755558Y-61259067D01*
X135882568Y-61440455D01*
X136039145Y-61597032D01*
X136147390Y-61672826D01*
X136191014Y-61727402D01*
X136198208Y-61796900D01*
X136166685Y-61859255D01*
X136106455Y-61894669D01*
X136076269Y-61898400D01*
X136042831Y-61898400D01*
X136042823Y-61898401D01*
X135983216Y-61904808D01*
X135848371Y-61955102D01*
X135848364Y-61955106D01*
X135733155Y-62041352D01*
X135733152Y-62041355D01*
X135646906Y-62156564D01*
X135646902Y-62156571D01*
X135596608Y-62291417D01*
X135591170Y-62342002D01*
X135590201Y-62351023D01*
X135590200Y-62351035D01*
X135590200Y-63976770D01*
X135590201Y-63976776D01*
X135596608Y-64036383D01*
X135646902Y-64171228D01*
X135646906Y-64171235D01*
X135733152Y-64286444D01*
X135733155Y-64286447D01*
X135848364Y-64372693D01*
X135848371Y-64372697D01*
X135983217Y-64422991D01*
X135983216Y-64422991D01*
X135990144Y-64423735D01*
X136042827Y-64429400D01*
X137668572Y-64429399D01*
X137728183Y-64422991D01*
X137863031Y-64372696D01*
X137875088Y-64363670D01*
X139693000Y-64363670D01*
X139693001Y-64363676D01*
X139699408Y-64423283D01*
X139749702Y-64558128D01*
X139749706Y-64558135D01*
X139835952Y-64673344D01*
X139835955Y-64673347D01*
X139951164Y-64759593D01*
X139951171Y-64759597D01*
X140086017Y-64809891D01*
X140086016Y-64809891D01*
X140092944Y-64810635D01*
X140145627Y-64816300D01*
X141771372Y-64816299D01*
X141830983Y-64809891D01*
X141965831Y-64759596D01*
X142081046Y-64673346D01*
X142167296Y-64558131D01*
X142217591Y-64423283D01*
X142224000Y-64363673D01*
X142223999Y-64330234D01*
X142243682Y-64263198D01*
X142296484Y-64217442D01*
X142365643Y-64207497D01*
X142429199Y-64236520D01*
X142449573Y-64259111D01*
X142525362Y-64367347D01*
X142525368Y-64367355D01*
X142681945Y-64523932D01*
X142863333Y-64650942D01*
X142984072Y-64707243D01*
X143064013Y-64744520D01*
X143064015Y-64744520D01*
X143064020Y-64744523D01*
X143277909Y-64801835D01*
X143435473Y-64815620D01*
X143498498Y-64821134D01*
X143498500Y-64821134D01*
X143498502Y-64821134D01*
X143553776Y-64816298D01*
X143719091Y-64801835D01*
X143932980Y-64744523D01*
X144133667Y-64650942D01*
X144315055Y-64523932D01*
X144471632Y-64367355D01*
X144598642Y-64185967D01*
X144692223Y-63985280D01*
X144749535Y-63771391D01*
X144768834Y-63550800D01*
X144749535Y-63330209D01*
X144692223Y-63116320D01*
X144689940Y-63111425D01*
X144598643Y-62915636D01*
X144598642Y-62915634D01*
X144598642Y-62915633D01*
X144471632Y-62734245D01*
X144315055Y-62577668D01*
X144133667Y-62450658D01*
X144133663Y-62450656D01*
X143932986Y-62357079D01*
X143932975Y-62357075D01*
X143719092Y-62299765D01*
X143719085Y-62299764D01*
X143498502Y-62280466D01*
X143498498Y-62280466D01*
X143277914Y-62299764D01*
X143277907Y-62299765D01*
X143064024Y-62357075D01*
X143064013Y-62357079D01*
X142863336Y-62450656D01*
X142863334Y-62450657D01*
X142681944Y-62577668D01*
X142525368Y-62734244D01*
X142449574Y-62842490D01*
X142394997Y-62886115D01*
X142325498Y-62893307D01*
X142263144Y-62861785D01*
X142227730Y-62801555D01*
X142223999Y-62771366D01*
X142223999Y-62737929D01*
X142223998Y-62737923D01*
X142223997Y-62737916D01*
X142217591Y-62678317D01*
X142180051Y-62577668D01*
X142167297Y-62543471D01*
X142167293Y-62543464D01*
X142081047Y-62428255D01*
X142081044Y-62428252D01*
X141965835Y-62342006D01*
X141965828Y-62342002D01*
X141830982Y-62291708D01*
X141830983Y-62291708D01*
X141771383Y-62285301D01*
X141771381Y-62285300D01*
X141771373Y-62285300D01*
X141771364Y-62285300D01*
X140145629Y-62285300D01*
X140145623Y-62285301D01*
X140086016Y-62291708D01*
X139951171Y-62342002D01*
X139951164Y-62342006D01*
X139835955Y-62428252D01*
X139835952Y-62428255D01*
X139749706Y-62543464D01*
X139749702Y-62543471D01*
X139699408Y-62678317D01*
X139693396Y-62734244D01*
X139693001Y-62737923D01*
X139693000Y-62737935D01*
X139693000Y-64363670D01*
X137875088Y-64363670D01*
X137978246Y-64286446D01*
X138064496Y-64171231D01*
X138114791Y-64036383D01*
X138121200Y-63976773D01*
X138121199Y-62351028D01*
X138114791Y-62291417D01*
X138071655Y-62175764D01*
X138064497Y-62156571D01*
X138064493Y-62156564D01*
X137978247Y-62041355D01*
X137978244Y-62041352D01*
X137863035Y-61955106D01*
X137863028Y-61955102D01*
X137728182Y-61904808D01*
X137728183Y-61904808D01*
X137668583Y-61898401D01*
X137668581Y-61898400D01*
X137668573Y-61898400D01*
X137668565Y-61898400D01*
X137635135Y-61898400D01*
X137568096Y-61878715D01*
X137522341Y-61825911D01*
X137512397Y-61756753D01*
X137541422Y-61693197D01*
X137564007Y-61672828D01*
X137672255Y-61597032D01*
X137828832Y-61440455D01*
X137880637Y-61366470D01*
X139693000Y-61366470D01*
X139693001Y-61366476D01*
X139699408Y-61426083D01*
X139749702Y-61560928D01*
X139749706Y-61560935D01*
X139835952Y-61676144D01*
X139835955Y-61676147D01*
X139951164Y-61762393D01*
X139951171Y-61762397D01*
X140086017Y-61812691D01*
X140086016Y-61812691D01*
X140092944Y-61813435D01*
X140145627Y-61819100D01*
X141771372Y-61819099D01*
X141830983Y-61812691D01*
X141965831Y-61762396D01*
X142081046Y-61676146D01*
X142167296Y-61560931D01*
X142217591Y-61426083D01*
X142224000Y-61366473D01*
X142223999Y-61333034D01*
X142243682Y-61265998D01*
X142296484Y-61220242D01*
X142365643Y-61210297D01*
X142429199Y-61239320D01*
X142449573Y-61261911D01*
X142525362Y-61370147D01*
X142525368Y-61370155D01*
X142681945Y-61526732D01*
X142863333Y-61653742D01*
X142984072Y-61710043D01*
X143064013Y-61747320D01*
X143064015Y-61747320D01*
X143064020Y-61747323D01*
X143277909Y-61804635D01*
X143427199Y-61817696D01*
X143498498Y-61823934D01*
X143498500Y-61823934D01*
X143498502Y-61823934D01*
X143553776Y-61819098D01*
X143719091Y-61804635D01*
X143932980Y-61747323D01*
X144133667Y-61653742D01*
X144315055Y-61526732D01*
X144471632Y-61370155D01*
X144598642Y-61188767D01*
X144692223Y-60988080D01*
X144749535Y-60774191D01*
X144768834Y-60553600D01*
X144749535Y-60333009D01*
X144692223Y-60119120D01*
X144598642Y-59918433D01*
X144471632Y-59737045D01*
X144315055Y-59580468D01*
X144133667Y-59453458D01*
X144133663Y-59453456D01*
X143932986Y-59359879D01*
X143932975Y-59359875D01*
X143719092Y-59302565D01*
X143719085Y-59302564D01*
X143498502Y-59283266D01*
X143498498Y-59283266D01*
X143277914Y-59302564D01*
X143277907Y-59302565D01*
X143064024Y-59359875D01*
X143064013Y-59359879D01*
X142863336Y-59453456D01*
X142863334Y-59453457D01*
X142681944Y-59580468D01*
X142525368Y-59737044D01*
X142449574Y-59845290D01*
X142394997Y-59888915D01*
X142325498Y-59896107D01*
X142263144Y-59864585D01*
X142227730Y-59804355D01*
X142223999Y-59774166D01*
X142223999Y-59740729D01*
X142223998Y-59740723D01*
X142223997Y-59740716D01*
X142217591Y-59681117D01*
X142187922Y-59601571D01*
X142167297Y-59546271D01*
X142167293Y-59546264D01*
X142081047Y-59431055D01*
X142081044Y-59431052D01*
X141965835Y-59344806D01*
X141965828Y-59344802D01*
X141830982Y-59294508D01*
X141830983Y-59294508D01*
X141771383Y-59288101D01*
X141771381Y-59288100D01*
X141771373Y-59288100D01*
X141771364Y-59288100D01*
X140145629Y-59288100D01*
X140145623Y-59288101D01*
X140086016Y-59294508D01*
X139951171Y-59344802D01*
X139951164Y-59344806D01*
X139835955Y-59431052D01*
X139835952Y-59431055D01*
X139749706Y-59546264D01*
X139749702Y-59546271D01*
X139699408Y-59681117D01*
X139694426Y-59727464D01*
X139693001Y-59740723D01*
X139693000Y-59740735D01*
X139693000Y-61366470D01*
X137880637Y-61366470D01*
X137955842Y-61259067D01*
X138049423Y-61058380D01*
X138106735Y-60844491D01*
X138126034Y-60623900D01*
X138106735Y-60403309D01*
X138049423Y-60189420D01*
X137955842Y-59988733D01*
X137828832Y-59807345D01*
X137672255Y-59650768D01*
X137490867Y-59523758D01*
X137490863Y-59523756D01*
X137290186Y-59430179D01*
X137290175Y-59430175D01*
X137076292Y-59372865D01*
X137076285Y-59372864D01*
X136855702Y-59353566D01*
X136855698Y-59353566D01*
X136635114Y-59372864D01*
X136635107Y-59372865D01*
X136421224Y-59430175D01*
X136421213Y-59430179D01*
X136220536Y-59523756D01*
X136220534Y-59523757D01*
X136039144Y-59650768D01*
X135882568Y-59807344D01*
X135755557Y-59988734D01*
X135755556Y-59988736D01*
X135661979Y-60189413D01*
X135661975Y-60189424D01*
X135604665Y-60403307D01*
X135604664Y-60403314D01*
X135585366Y-60623898D01*
X135585366Y-60623901D01*
X135011200Y-60623901D01*
X135011199Y-59796028D01*
X135004859Y-59737045D01*
X135004791Y-59736416D01*
X134954497Y-59601571D01*
X134954493Y-59601564D01*
X134868247Y-59486355D01*
X134868244Y-59486352D01*
X134753035Y-59400106D01*
X134753028Y-59400102D01*
X134618182Y-59349808D01*
X134618183Y-59349808D01*
X134558583Y-59343401D01*
X134558581Y-59343400D01*
X134558573Y-59343400D01*
X134558564Y-59343400D01*
X132932829Y-59343400D01*
X132932823Y-59343401D01*
X132873216Y-59349808D01*
X132738371Y-59400102D01*
X132738364Y-59400106D01*
X132623155Y-59486352D01*
X132623152Y-59486355D01*
X132536906Y-59601564D01*
X132536902Y-59601571D01*
X132486608Y-59736417D01*
X132482550Y-59774166D01*
X132480201Y-59796023D01*
X132480200Y-59796035D01*
X132480200Y-61421770D01*
X132480201Y-61421776D01*
X132486608Y-61481383D01*
X132536902Y-61616228D01*
X132536906Y-61616235D01*
X132623152Y-61731444D01*
X132623155Y-61731447D01*
X132738364Y-61817693D01*
X132738371Y-61817697D01*
X132873217Y-61867991D01*
X132873216Y-61867991D01*
X132880144Y-61868735D01*
X132932827Y-61874400D01*
X132966264Y-61874399D01*
X133033301Y-61894082D01*
X133079057Y-61946884D01*
X133089002Y-62016043D01*
X133059979Y-62079599D01*
X133037389Y-62099973D01*
X132929147Y-62175766D01*
X132929141Y-62175771D01*
X132772568Y-62332344D01*
X132645557Y-62513734D01*
X132645556Y-62513736D01*
X132551979Y-62714413D01*
X132551975Y-62714424D01*
X132494665Y-62928307D01*
X132494664Y-62928314D01*
X132475366Y-63148898D01*
X132475366Y-63148901D01*
X127396717Y-63148901D01*
X127426494Y-63116324D01*
X127926670Y-62569108D01*
X127928556Y-62567136D01*
X128554901Y-61940791D01*
X128556873Y-61938905D01*
X129210685Y-61341295D01*
X129212752Y-61339488D01*
X129892734Y-60771800D01*
X129894848Y-60770113D01*
X130599613Y-60233503D01*
X130601828Y-60231893D01*
X131329961Y-59727441D01*
X131332223Y-59725948D01*
X132082256Y-59254671D01*
X132084618Y-59253260D01*
X132855016Y-58816121D01*
X132857438Y-58814819D01*
X133268698Y-58605272D01*
X133646662Y-58412689D01*
X133649107Y-58411511D01*
X134455622Y-58045174D01*
X134458145Y-58044096D01*
X135280217Y-57714339D01*
X135282812Y-57713366D01*
X136013528Y-57457677D01*
X136118892Y-57420808D01*
X136121481Y-57419966D01*
X136969841Y-57165215D01*
X136972489Y-57164484D01*
X137831413Y-56948054D01*
X137834092Y-56947442D01*
X138701911Y-56769755D01*
X138704550Y-56769276D01*
X139579484Y-56630700D01*
X139582132Y-56630341D01*
X140462417Y-56531157D01*
X140465065Y-56530918D01*
X141348919Y-56471327D01*
X141351604Y-56471206D01*
X142237184Y-56451331D01*
X142239946Y-56451331D01*
X143125523Y-56471206D01*
G37*
%TD.AperFunction*%
%TD*%
M02*
