%TF.GenerationSoftware,KiCad,Pcbnew,9.0.2*%
%TF.CreationDate,2025-07-25T10:59:27-07:00*%
%TF.ProjectId,OuterBoard_4.2,4f757465-7242-46f6-9172-645f342e322e,rev?*%
%TF.SameCoordinates,Original*%
%TF.FileFunction,Paste,Top*%
%TF.FilePolarity,Positive*%
%FSLAX46Y46*%
G04 Gerber Fmt 4.6, Leading zero omitted, Abs format (unit mm)*
G04 Created by KiCad (PCBNEW 9.0.2) date 2025-07-25 10:59:27*
%MOMM*%
%LPD*%
G01*
G04 APERTURE LIST*
G04 Aperture macros list*
%AMRoundRect*
0 Rectangle with rounded corners*
0 $1 Rounding radius*
0 $2 $3 $4 $5 $6 $7 $8 $9 X,Y pos of 4 corners*
0 Add a 4 corners polygon primitive as box body*
4,1,4,$2,$3,$4,$5,$6,$7,$8,$9,$2,$3,0*
0 Add four circle primitives for the rounded corners*
1,1,$1+$1,$2,$3*
1,1,$1+$1,$4,$5*
1,1,$1+$1,$6,$7*
1,1,$1+$1,$8,$9*
0 Add four rect primitives between the rounded corners*
20,1,$1+$1,$2,$3,$4,$5,0*
20,1,$1+$1,$4,$5,$6,$7,0*
20,1,$1+$1,$6,$7,$8,$9,0*
20,1,$1+$1,$8,$9,$2,$3,0*%
G04 Aperture macros list end*
%ADD10C,0.025400*%
%ADD11C,0.010000*%
%ADD12RoundRect,0.225000X0.250000X-0.225000X0.250000X0.225000X-0.250000X0.225000X-0.250000X-0.225000X0*%
%ADD13RoundRect,0.225000X0.225000X0.250000X-0.225000X0.250000X-0.225000X-0.250000X0.225000X-0.250000X0*%
%ADD14R,1.549400X0.558800*%
%ADD15RoundRect,0.140000X0.140000X0.170000X-0.140000X0.170000X-0.140000X-0.170000X0.140000X-0.170000X0*%
%ADD16RoundRect,0.140000X0.170000X-0.140000X0.170000X0.140000X-0.170000X0.140000X-0.170000X-0.140000X0*%
%ADD17RoundRect,0.218750X-0.256250X0.218750X-0.256250X-0.218750X0.256250X-0.218750X0.256250X0.218750X0*%
%ADD18RoundRect,0.135000X0.185000X-0.135000X0.185000X0.135000X-0.185000X0.135000X-0.185000X-0.135000X0*%
%ADD19R,1.900000X0.300000*%
%ADD20R,2.200000X2.000000*%
%ADD21R,2.200000X0.900010*%
%ADD22RoundRect,0.125000X-0.125000X0.125000X-0.125000X-0.125000X0.125000X-0.125000X0.125000X0.125000X0*%
%ADD23RoundRect,0.225000X-0.225000X-0.250000X0.225000X-0.250000X0.225000X0.250000X-0.225000X0.250000X0*%
%ADD24RoundRect,0.135000X-0.185000X0.135000X-0.185000X-0.135000X0.185000X-0.135000X0.185000X0.135000X0*%
%ADD25RoundRect,0.135000X-0.135000X-0.185000X0.135000X-0.185000X0.135000X0.185000X-0.135000X0.185000X0*%
%ADD26RoundRect,0.147500X0.147500X0.172500X-0.147500X0.172500X-0.147500X-0.172500X0.147500X-0.172500X0*%
%ADD27RoundRect,0.250000X0.262500X0.450000X-0.262500X0.450000X-0.262500X-0.450000X0.262500X-0.450000X0*%
%ADD28RoundRect,0.140000X-0.140000X-0.170000X0.140000X-0.170000X0.140000X0.170000X-0.140000X0.170000X0*%
%ADD29RoundRect,0.135000X0.135000X0.185000X-0.135000X0.185000X-0.135000X-0.185000X0.135000X-0.185000X0*%
%ADD30R,0.300000X1.494000*%
%ADD31R,1.456000X0.300000*%
%ADD32RoundRect,0.225000X-0.250000X0.225000X-0.250000X-0.225000X0.250000X-0.225000X0.250000X0.225000X0*%
%ADD33RoundRect,0.125000X-0.125000X-0.125000X0.125000X-0.125000X0.125000X0.125000X-0.125000X0.125000X0*%
%ADD34R,0.400000X1.350000*%
%ADD35R,1.500000X1.550000*%
%ADD36R,1.100000X1.900000*%
%ADD37RoundRect,0.250000X0.475000X-0.250000X0.475000X0.250000X-0.475000X0.250000X-0.475000X-0.250000X0*%
%ADD38R,0.990600X0.711200*%
G04 APERTURE END LIST*
D10*
%TO.C,J10*%
X149675000Y-81600000D02*
X147475000Y-81600000D01*
X147475000Y-80500000D01*
X149675000Y-80500000D01*
X149675000Y-81600000D01*
G36*
X149675000Y-81600000D02*
G01*
X147475000Y-81600000D01*
X147475000Y-80500000D01*
X149675000Y-80500000D01*
X149675000Y-81600000D01*
G37*
X149675000Y-98500000D02*
X147475000Y-98500000D01*
X147475000Y-97400000D01*
X149675000Y-97400000D01*
X149675000Y-98500000D01*
G36*
X149675000Y-98500000D02*
G01*
X147475000Y-98500000D01*
X147475000Y-97400000D01*
X149675000Y-97400000D01*
X149675000Y-98500000D01*
G37*
D11*
%TO.C,J6*%
X132350000Y-103915000D02*
X131205000Y-103915000D01*
X131179000Y-103914000D01*
X131153000Y-103912000D01*
X131127000Y-103909000D01*
X131101000Y-103904000D01*
X131076000Y-103898000D01*
X131050000Y-103891000D01*
X131026000Y-103882000D01*
X131002000Y-103872000D01*
X130978000Y-103861000D01*
X130955000Y-103848000D01*
X130933000Y-103834000D01*
X130911000Y-103820000D01*
X130890000Y-103804000D01*
X130870000Y-103787000D01*
X130851000Y-103769000D01*
X130833000Y-103750000D01*
X130816000Y-103730000D01*
X130800000Y-103709000D01*
X130786000Y-103687000D01*
X130772000Y-103665000D01*
X130759000Y-103642000D01*
X130748000Y-103618000D01*
X130738000Y-103594000D01*
X130729000Y-103570000D01*
X130722000Y-103544000D01*
X130716000Y-103519000D01*
X130711000Y-103493000D01*
X130708000Y-103467000D01*
X130706000Y-103441000D01*
X130705000Y-103415000D01*
X130705000Y-102865000D01*
X130706000Y-102839000D01*
X130708000Y-102813000D01*
X130711000Y-102787000D01*
X130716000Y-102761000D01*
X130722000Y-102736000D01*
X130729000Y-102710000D01*
X130738000Y-102686000D01*
X130748000Y-102662000D01*
X130759000Y-102638000D01*
X130772000Y-102615000D01*
X130786000Y-102593000D01*
X130800000Y-102571000D01*
X130816000Y-102550000D01*
X130833000Y-102530000D01*
X130851000Y-102511000D01*
X130870000Y-102493000D01*
X130890000Y-102476000D01*
X130911000Y-102460000D01*
X130933000Y-102446000D01*
X130955000Y-102432000D01*
X130978000Y-102419000D01*
X131002000Y-102408000D01*
X131026000Y-102398000D01*
X131050000Y-102389000D01*
X131076000Y-102382000D01*
X131101000Y-102376000D01*
X131127000Y-102371000D01*
X131153000Y-102368000D01*
X131179000Y-102366000D01*
X131205000Y-102365000D01*
X132350000Y-102365000D01*
X132350000Y-103915000D01*
G36*
X132350000Y-103915000D02*
G01*
X131205000Y-103915000D01*
X131179000Y-103914000D01*
X131153000Y-103912000D01*
X131127000Y-103909000D01*
X131101000Y-103904000D01*
X131076000Y-103898000D01*
X131050000Y-103891000D01*
X131026000Y-103882000D01*
X131002000Y-103872000D01*
X130978000Y-103861000D01*
X130955000Y-103848000D01*
X130933000Y-103834000D01*
X130911000Y-103820000D01*
X130890000Y-103804000D01*
X130870000Y-103787000D01*
X130851000Y-103769000D01*
X130833000Y-103750000D01*
X130816000Y-103730000D01*
X130800000Y-103709000D01*
X130786000Y-103687000D01*
X130772000Y-103665000D01*
X130759000Y-103642000D01*
X130748000Y-103618000D01*
X130738000Y-103594000D01*
X130729000Y-103570000D01*
X130722000Y-103544000D01*
X130716000Y-103519000D01*
X130711000Y-103493000D01*
X130708000Y-103467000D01*
X130706000Y-103441000D01*
X130705000Y-103415000D01*
X130705000Y-102865000D01*
X130706000Y-102839000D01*
X130708000Y-102813000D01*
X130711000Y-102787000D01*
X130716000Y-102761000D01*
X130722000Y-102736000D01*
X130729000Y-102710000D01*
X130738000Y-102686000D01*
X130748000Y-102662000D01*
X130759000Y-102638000D01*
X130772000Y-102615000D01*
X130786000Y-102593000D01*
X130800000Y-102571000D01*
X130816000Y-102550000D01*
X130833000Y-102530000D01*
X130851000Y-102511000D01*
X130870000Y-102493000D01*
X130890000Y-102476000D01*
X130911000Y-102460000D01*
X130933000Y-102446000D01*
X130955000Y-102432000D01*
X130978000Y-102419000D01*
X131002000Y-102408000D01*
X131026000Y-102398000D01*
X131050000Y-102389000D01*
X131076000Y-102382000D01*
X131101000Y-102376000D01*
X131127000Y-102371000D01*
X131153000Y-102368000D01*
X131179000Y-102366000D01*
X131205000Y-102365000D01*
X132350000Y-102365000D01*
X132350000Y-103915000D01*
G37*
X138121000Y-102366000D02*
X138147000Y-102368000D01*
X138173000Y-102371000D01*
X138199000Y-102376000D01*
X138224000Y-102382000D01*
X138250000Y-102389000D01*
X138274000Y-102398000D01*
X138298000Y-102408000D01*
X138322000Y-102419000D01*
X138345000Y-102432000D01*
X138367000Y-102446000D01*
X138389000Y-102460000D01*
X138410000Y-102476000D01*
X138430000Y-102493000D01*
X138449000Y-102511000D01*
X138467000Y-102530000D01*
X138484000Y-102550000D01*
X138500000Y-102571000D01*
X138514000Y-102593000D01*
X138528000Y-102615000D01*
X138541000Y-102638000D01*
X138552000Y-102662000D01*
X138562000Y-102686000D01*
X138571000Y-102710000D01*
X138578000Y-102736000D01*
X138584000Y-102761000D01*
X138589000Y-102787000D01*
X138592000Y-102813000D01*
X138594000Y-102839000D01*
X138595000Y-102865000D01*
X138595000Y-103415000D01*
X138594000Y-103441000D01*
X138592000Y-103467000D01*
X138589000Y-103493000D01*
X138584000Y-103519000D01*
X138578000Y-103544000D01*
X138571000Y-103570000D01*
X138562000Y-103594000D01*
X138552000Y-103618000D01*
X138541000Y-103642000D01*
X138528000Y-103665000D01*
X138514000Y-103687000D01*
X138500000Y-103709000D01*
X138484000Y-103730000D01*
X138467000Y-103750000D01*
X138449000Y-103769000D01*
X138430000Y-103787000D01*
X138410000Y-103804000D01*
X138389000Y-103820000D01*
X138367000Y-103834000D01*
X138345000Y-103848000D01*
X138322000Y-103861000D01*
X138298000Y-103872000D01*
X138274000Y-103882000D01*
X138250000Y-103891000D01*
X138224000Y-103898000D01*
X138199000Y-103904000D01*
X138173000Y-103909000D01*
X138147000Y-103912000D01*
X138121000Y-103914000D01*
X138095000Y-103915000D01*
X136950000Y-103915000D01*
X136950000Y-102365000D01*
X138095000Y-102365000D01*
X138121000Y-102366000D01*
G36*
X138121000Y-102366000D02*
G01*
X138147000Y-102368000D01*
X138173000Y-102371000D01*
X138199000Y-102376000D01*
X138224000Y-102382000D01*
X138250000Y-102389000D01*
X138274000Y-102398000D01*
X138298000Y-102408000D01*
X138322000Y-102419000D01*
X138345000Y-102432000D01*
X138367000Y-102446000D01*
X138389000Y-102460000D01*
X138410000Y-102476000D01*
X138430000Y-102493000D01*
X138449000Y-102511000D01*
X138467000Y-102530000D01*
X138484000Y-102550000D01*
X138500000Y-102571000D01*
X138514000Y-102593000D01*
X138528000Y-102615000D01*
X138541000Y-102638000D01*
X138552000Y-102662000D01*
X138562000Y-102686000D01*
X138571000Y-102710000D01*
X138578000Y-102736000D01*
X138584000Y-102761000D01*
X138589000Y-102787000D01*
X138592000Y-102813000D01*
X138594000Y-102839000D01*
X138595000Y-102865000D01*
X138595000Y-103415000D01*
X138594000Y-103441000D01*
X138592000Y-103467000D01*
X138589000Y-103493000D01*
X138584000Y-103519000D01*
X138578000Y-103544000D01*
X138571000Y-103570000D01*
X138562000Y-103594000D01*
X138552000Y-103618000D01*
X138541000Y-103642000D01*
X138528000Y-103665000D01*
X138514000Y-103687000D01*
X138500000Y-103709000D01*
X138484000Y-103730000D01*
X138467000Y-103750000D01*
X138449000Y-103769000D01*
X138430000Y-103787000D01*
X138410000Y-103804000D01*
X138389000Y-103820000D01*
X138367000Y-103834000D01*
X138345000Y-103848000D01*
X138322000Y-103861000D01*
X138298000Y-103872000D01*
X138274000Y-103882000D01*
X138250000Y-103891000D01*
X138224000Y-103898000D01*
X138199000Y-103904000D01*
X138173000Y-103909000D01*
X138147000Y-103912000D01*
X138121000Y-103914000D01*
X138095000Y-103915000D01*
X136950000Y-103915000D01*
X136950000Y-102365000D01*
X138095000Y-102365000D01*
X138121000Y-102366000D01*
G37*
%TD*%
D12*
%TO.C,C32*%
X135850000Y-91735000D03*
X135850000Y-90185000D03*
%TD*%
D13*
%TO.C,C12*%
X146345000Y-96620000D03*
X144795000Y-96620000D03*
%TD*%
D14*
%TO.C,U2*%
X141572200Y-97805000D03*
X141572200Y-96535000D03*
X141572200Y-95265000D03*
X141572200Y-93995000D03*
X134307800Y-93995000D03*
X134307800Y-95265000D03*
X134307800Y-96535000D03*
X134307800Y-97805000D03*
%TD*%
D15*
%TO.C,R13*%
X140990000Y-105290000D03*
X140030000Y-105290000D03*
%TD*%
D16*
%TO.C,C31*%
X132827000Y-84032200D03*
X132827000Y-83072200D03*
%TD*%
D17*
%TO.C,D8*%
X122990000Y-96122500D03*
X122990000Y-97697500D03*
%TD*%
D18*
%TO.C,R6*%
X144540000Y-82470000D03*
X144540000Y-81450000D03*
%TD*%
D19*
%TO.C,J10*%
X146525000Y-95249990D03*
X146525000Y-94749990D03*
X146525000Y-94249990D03*
X146525000Y-93749990D03*
X146525000Y-93249990D03*
X146525000Y-92749990D03*
X146525000Y-92249990D03*
X146525000Y-91749990D03*
X146525000Y-91249990D03*
X146525000Y-90749990D03*
X146525000Y-90249988D03*
X146525000Y-89749991D03*
X146525000Y-89249987D03*
X146525000Y-88749988D03*
X146525000Y-88249990D03*
X146525000Y-87749990D03*
X146525000Y-87249990D03*
X146525000Y-86749990D03*
X146525000Y-86249990D03*
X146525000Y-85749990D03*
X146525000Y-85249990D03*
X146525000Y-84749990D03*
X146525000Y-84249990D03*
X146525000Y-83749990D03*
D20*
X148575000Y-97500000D03*
D21*
X148575000Y-82050005D03*
%TD*%
D22*
%TO.C,D2*%
X121890000Y-85922500D03*
X121890000Y-88122500D03*
%TD*%
D23*
%TO.C,C42*%
X122420000Y-94270000D03*
X123970000Y-94270000D03*
%TD*%
D22*
%TO.C,D3*%
X121880000Y-82372500D03*
X121880000Y-84572500D03*
%TD*%
D24*
%TO.C,R7*%
X144560000Y-83540000D03*
X144560000Y-84560000D03*
%TD*%
D17*
%TO.C,D13*%
X128000000Y-95500000D03*
X128000000Y-97075000D03*
%TD*%
D25*
%TO.C,R25*%
X128310000Y-99500000D03*
X129330000Y-99500000D03*
%TD*%
D26*
%TO.C,L2*%
X140110000Y-89540000D03*
X139140000Y-89540000D03*
%TD*%
D16*
%TO.C,C30*%
X127543800Y-84009400D03*
X127543800Y-83049400D03*
%TD*%
D27*
%TO.C,R8*%
X142995000Y-81820000D03*
X141170000Y-81820000D03*
%TD*%
D15*
%TO.C,C29*%
X130730000Y-91640000D03*
X129770000Y-91640000D03*
%TD*%
D13*
%TO.C,C14*%
X146350000Y-98350000D03*
X144800000Y-98350000D03*
%TD*%
D16*
%TO.C,C2*%
X124760000Y-88250000D03*
X124760000Y-87290000D03*
%TD*%
D24*
%TO.C,R22*%
X126370000Y-87370000D03*
X126370000Y-88390000D03*
%TD*%
%TO.C,R31*%
X131010000Y-94190000D03*
X131010000Y-95210000D03*
%TD*%
%TO.C,R9*%
X143070000Y-83250000D03*
X143070000Y-84270000D03*
%TD*%
D28*
%TO.C,R14*%
X142100000Y-105320000D03*
X143060000Y-105320000D03*
%TD*%
D29*
%TO.C,R18*%
X134344800Y-91935400D03*
X133324800Y-91935400D03*
%TD*%
D30*
%TO.C,U8*%
X129010000Y-86009200D03*
D31*
X128432000Y-87306200D03*
X128432000Y-87806200D03*
X128432000Y-88306200D03*
X128432000Y-88806200D03*
D30*
X129010000Y-90103200D03*
X129510000Y-90103200D03*
X130010000Y-90103200D03*
X130510000Y-90103200D03*
X131010000Y-90103200D03*
X131510000Y-90103200D03*
X132010000Y-90103200D03*
X132510000Y-90103200D03*
X133010000Y-90103200D03*
X133510000Y-90103200D03*
D31*
X134088000Y-88806200D03*
X134088000Y-88306200D03*
X134088000Y-87806200D03*
X134088000Y-87306200D03*
D30*
X133510000Y-86009200D03*
X133010000Y-86009200D03*
X132510000Y-86009200D03*
X132010000Y-86009200D03*
X131510000Y-86009200D03*
X131010000Y-86009200D03*
X130510000Y-86009200D03*
X130010000Y-86009200D03*
X129510000Y-86009200D03*
%TD*%
D32*
%TO.C,C38*%
X132307306Y-93869885D03*
X132307306Y-95419885D03*
%TD*%
D29*
%TO.C,R16*%
X126750000Y-89540000D03*
X125730000Y-89540000D03*
%TD*%
D33*
%TO.C,D1*%
X121840000Y-92220000D03*
X124040000Y-92220000D03*
%TD*%
D12*
%TO.C,C44*%
X132270000Y-98605000D03*
X132270000Y-97055000D03*
%TD*%
D24*
%TO.C,R23*%
X124560000Y-96900000D03*
X124560000Y-97920000D03*
%TD*%
D33*
%TO.C,D5*%
X124580000Y-99570000D03*
X126780000Y-99570000D03*
%TD*%
D29*
%TO.C,R17*%
X128770000Y-91640000D03*
X127750000Y-91640000D03*
%TD*%
D33*
%TO.C,D6*%
X121842500Y-89970000D03*
X124042500Y-89970000D03*
%TD*%
D34*
%TO.C,J6*%
X133350000Y-100465000D03*
X134000000Y-100465000D03*
X134650000Y-100465000D03*
X135300000Y-100465000D03*
X135950000Y-100465000D03*
D35*
X135650000Y-103140000D03*
X133650000Y-103140000D03*
%TD*%
D36*
%TO.C,Y1*%
X131550000Y-83770000D03*
X129050000Y-83770000D03*
%TD*%
D37*
%TO.C,C1*%
X124230000Y-85630000D03*
X124230000Y-83730000D03*
%TD*%
D38*
%TO.C,SW3*%
X140389999Y-101485001D03*
X144890001Y-101485001D03*
X140389999Y-103634999D03*
X144890001Y-103634999D03*
%TD*%
D22*
%TO.C,D4*%
X126200000Y-94600000D03*
X126200000Y-96800000D03*
%TD*%
D38*
%TO.C,SW1*%
X147160799Y-101506501D03*
X151660801Y-101506501D03*
X147160799Y-103656499D03*
X151660801Y-103656499D03*
%TD*%
D16*
%TO.C,C28*%
X127840400Y-86370200D03*
X127840400Y-85410200D03*
%TD*%
M02*
