%TF.GenerationSoftware,KiCad,Pcbnew,9.0.2*%
%TF.CreationDate,2025-07-25T10:59:27-07:00*%
%TF.ProjectId,OuterBoard_4.2,4f757465-7242-46f6-9172-645f342e322e,rev?*%
%TF.SameCoordinates,Original*%
%TF.FileFunction,Copper,L4,Inr*%
%TF.FilePolarity,Positive*%
%FSLAX46Y46*%
G04 Gerber Fmt 4.6, Leading zero omitted, Abs format (unit mm)*
G04 Created by KiCad (PCBNEW 9.0.2) date 2025-07-25 10:59:27*
%MOMM*%
%LPD*%
G01*
G04 APERTURE LIST*
G04 Aperture macros list*
%AMFreePoly0*
4,1,123,1.203536,0.778536,1.205000,0.775000,1.205000,-0.775000,1.203536,-0.778536,1.200000,-0.780000,0.055000,-0.780000,0.054808,-0.779996,0.028808,-0.778996,0.028617,-0.778985,0.002617,-0.776985,0.002427,-0.776967,-0.023573,-0.773967,-0.023944,-0.773910,-0.049944,-0.768910,-0.050167,-0.768862,-0.075167,-0.762862,-0.075300,-0.762828,-0.101300,-0.755828,-0.101756,-0.755682,-0.125756,-0.746682,
-0.125923,-0.746615,-0.149923,-0.736615,-0.150083,-0.736545,-0.174083,-0.725545,-0.174460,-0.725353,-0.197460,-0.712353,-0.197684,-0.712218,-0.241684,-0.684218,-0.242030,-0.683977,-0.263030,-0.667977,-0.263238,-0.667810,-0.283238,-0.650810,-0.283439,-0.650630,-0.302439,-0.632630,-0.302630,-0.632439,-0.320630,-0.613439,-0.320810,-0.613238,-0.337810,-0.593238,-0.337977,-0.593030,-0.353977,-0.572030,
-0.354218,-0.571684,-0.382218,-0.527684,-0.382353,-0.527460,-0.395353,-0.504460,-0.395545,-0.504083,-0.406545,-0.480083,-0.406615,-0.479923,-0.416615,-0.455923,-0.416682,-0.455756,-0.425682,-0.431756,-0.425828,-0.431300,-0.432828,-0.405300,-0.432862,-0.405167,-0.438862,-0.380167,-0.438910,-0.379944,-0.443910,-0.353944,-0.443967,-0.353573,-0.446967,-0.327573,-0.446985,-0.327383,-0.448985,-0.301383,
-0.448996,-0.301192,-0.449996,-0.275192,-0.450000,-0.275000,-0.450000,0.275000,-0.449996,0.275192,-0.448996,0.301192,-0.448985,0.301383,-0.446985,0.327383,-0.446967,0.327573,-0.443967,0.353573,-0.443910,0.353944,-0.438910,0.379944,-0.438862,0.380167,-0.432862,0.405167,-0.432828,0.405300,-0.425828,0.431300,-0.425682,0.431756,-0.416682,0.455756,-0.416615,0.455923,-0.406615,0.479923,
-0.406545,0.480083,-0.395545,0.504083,-0.395353,0.504460,-0.382353,0.527460,-0.382218,0.527684,-0.354218,0.571684,-0.353977,0.572030,-0.337977,0.593030,-0.337810,0.593238,-0.320810,0.613238,-0.320630,0.613439,-0.302630,0.632439,-0.302439,0.632630,-0.283439,0.650630,-0.283238,0.650810,-0.263238,0.667810,-0.263030,0.667977,-0.242030,0.683977,-0.241684,0.684218,-0.197684,0.712218,
-0.197460,0.712353,-0.174460,0.725353,-0.174083,0.725545,-0.150083,0.736545,-0.149923,0.736615,-0.125923,0.746615,-0.125756,0.746682,-0.101756,0.755682,-0.101300,0.755828,-0.075300,0.762828,-0.075167,0.762862,-0.050167,0.768862,-0.049944,0.768910,-0.023944,0.773910,-0.023573,0.773967,0.002427,0.776967,0.002617,0.776985,0.028617,0.778985,0.028808,0.778996,0.054808,0.779996,
0.055000,0.780000,1.200000,0.780000,1.203536,0.778536,1.203536,0.778536,$1*%
%AMFreePoly1*
4,1,123,-0.054808,0.779996,-0.028808,0.778996,-0.028617,0.778985,-0.002617,0.776985,-0.002427,0.776967,0.023573,0.773967,0.023944,0.773910,0.049944,0.768910,0.050167,0.768862,0.075167,0.762862,0.075300,0.762828,0.101300,0.755828,0.101756,0.755682,0.125756,0.746682,0.125923,0.746615,0.149923,0.736615,0.150083,0.736545,0.174083,0.725545,0.174460,0.725353,0.197460,0.712353,
0.197684,0.712218,0.241684,0.684218,0.242030,0.683977,0.263030,0.667977,0.263238,0.667810,0.283238,0.650810,0.283439,0.650630,0.302439,0.632630,0.302630,0.632439,0.320630,0.613439,0.320810,0.613238,0.337810,0.593238,0.337977,0.593030,0.353977,0.572030,0.354218,0.571684,0.382218,0.527684,0.382353,0.527460,0.395353,0.504460,0.395545,0.504083,0.406545,0.480083,
0.406615,0.479923,0.416615,0.455923,0.416682,0.455756,0.425682,0.431756,0.425828,0.431300,0.432828,0.405300,0.432862,0.405167,0.438862,0.380167,0.438910,0.379944,0.443910,0.353944,0.443967,0.353573,0.446967,0.327573,0.446985,0.327383,0.448985,0.301383,0.448996,0.301192,0.449996,0.275192,0.450000,0.275000,0.450000,-0.275000,0.449996,-0.275192,0.448996,-0.301192,
0.448985,-0.301383,0.446985,-0.327383,0.446967,-0.327573,0.443967,-0.353573,0.443910,-0.353944,0.438910,-0.379944,0.438862,-0.380167,0.432862,-0.405167,0.432828,-0.405300,0.425828,-0.431300,0.425682,-0.431756,0.416682,-0.455756,0.416615,-0.455923,0.406615,-0.479923,0.406545,-0.480083,0.395545,-0.504083,0.395353,-0.504460,0.382353,-0.527460,0.382218,-0.527684,0.354218,-0.571684,
0.353977,-0.572030,0.337977,-0.593030,0.337810,-0.593238,0.320810,-0.613238,0.320630,-0.613439,0.302630,-0.632439,0.302439,-0.632630,0.283439,-0.650630,0.283238,-0.650810,0.263238,-0.667810,0.263030,-0.667977,0.242030,-0.683977,0.241684,-0.684218,0.197684,-0.712218,0.197460,-0.712353,0.174460,-0.725353,0.174083,-0.725545,0.150083,-0.736545,0.149923,-0.736615,0.125923,-0.746615,
0.125756,-0.746682,0.101756,-0.755682,0.101300,-0.755828,0.075300,-0.762828,0.075167,-0.762862,0.050167,-0.768862,0.049944,-0.768910,0.023944,-0.773910,0.023573,-0.773967,-0.002427,-0.776967,-0.002617,-0.776985,-0.028617,-0.778985,-0.028808,-0.778996,-0.054808,-0.779996,-0.055000,-0.780000,-1.200000,-0.780000,-1.203536,-0.778536,-1.205000,-0.775000,-1.205000,0.775000,-1.203536,0.778536,
-1.200000,0.780000,-0.055000,0.780000,-0.054808,0.779996,-0.054808,0.779996,$1*%
G04 Aperture macros list end*
%TA.AperFunction,ComponentPad*%
%ADD10C,1.408000*%
%TD*%
%TA.AperFunction,ComponentPad*%
%ADD11C,1.650000*%
%TD*%
%TA.AperFunction,ComponentPad*%
%ADD12R,0.850000X0.850000*%
%TD*%
%TA.AperFunction,ComponentPad*%
%ADD13R,2.000000X2.000000*%
%TD*%
%TA.AperFunction,ComponentPad*%
%ADD14C,0.850000*%
%TD*%
%TA.AperFunction,ComponentPad*%
%ADD15FreePoly0,0.000000*%
%TD*%
%TA.AperFunction,ComponentPad*%
%ADD16FreePoly1,0.000000*%
%TD*%
%TA.AperFunction,ComponentPad*%
%ADD17O,1.300000X0.950000*%
%TD*%
%TA.AperFunction,ViaPad*%
%ADD18C,0.300000*%
%TD*%
%TA.AperFunction,ViaPad*%
%ADD19C,0.350000*%
%TD*%
%TA.AperFunction,Conductor*%
%ADD20C,0.200000*%
%TD*%
%TA.AperFunction,Conductor*%
%ADD21C,0.400000*%
%TD*%
G04 APERTURE END LIST*
D10*
%TO.N,D4{slash}I2C_SDA*%
%TO.C,J7*%
X151650000Y-76710000D03*
%TD*%
D11*
%TO.N,GND*%
%TO.C,J2*%
X136800000Y-77500000D03*
%TO.N,D8{slash}A8{slash}SCK*%
X139340000Y-77500000D03*
%TO.N,GPIO34{slash}FSPICSO*%
X141880000Y-77500000D03*
%TO.N,D9{slash}A9{slash}MISO*%
X144420000Y-77500000D03*
%TO.N,D10{slash}A10{slash}MOSI*%
X146960000Y-77500000D03*
%TO.N,VAA*%
X149500000Y-77500000D03*
%TD*%
D10*
%TO.N,GND*%
%TO.C,J8*%
X121370000Y-104620000D03*
%TD*%
D12*
%TO.N,D1{slash}A1*%
%TO.C,TP3*%
X118220000Y-84170000D03*
%TD*%
%TO.N,D0{slash}A0*%
%TO.C,TP5*%
X118210000Y-81930000D03*
%TD*%
D10*
%TO.N,+3.3V*%
%TO.C,J5*%
X119200000Y-103470000D03*
%TD*%
D13*
%TO.N,Net-(D1-K)*%
%TO.C,TP1*%
X124620000Y-104540000D03*
%TD*%
D12*
%TO.N,GND*%
%TO.C,TP6*%
X153370000Y-80170000D03*
%TD*%
%TO.N,+BATT1*%
%TO.C,J3*%
X123750000Y-77770000D03*
D14*
%TO.N,GNDPWR*%
X122500000Y-77770000D03*
%TD*%
D10*
%TO.N,D5{slash}I2C_SCL*%
%TO.C,J9*%
X151550000Y-79290000D03*
%TD*%
D12*
%TO.N,+BATT2*%
%TO.C,J4*%
X131440000Y-77740000D03*
D14*
%TO.N,GNDPWR*%
X130190000Y-77740000D03*
%TD*%
D13*
%TO.N,Net-(D2-K)*%
%TO.C,TP2*%
X128030000Y-104540000D03*
%TD*%
D12*
%TO.N,+3.3V*%
%TO.C,TP4*%
X153310000Y-78030000D03*
%TD*%
D15*
%TO.N,unconnected-(J6-SHIELD-PadSH1)*%
%TO.C,J6*%
X131150000Y-103140000D03*
D16*
%TO.N,unconnected-(J6-SHIELD__3-PadSH4)*%
X138150000Y-103140000D03*
D17*
%TO.N,unconnected-(J6-SHIELD__4-PadSH5)*%
X132150000Y-100440000D03*
%TO.N,unconnected-(J6-SHIELD__5-PadSH6)*%
X137150000Y-100440000D03*
%TD*%
D10*
%TO.N,GND*%
%TO.C,J11*%
X144360000Y-79710000D03*
%TD*%
D11*
%TO.N,GNDPWR*%
%TO.C,J1*%
X118940000Y-99830000D03*
%TO.N,VAA*%
X118940000Y-97290000D03*
%TO.N,GPIO45*%
X118940000Y-94750000D03*
%TO.N,GNDPWR*%
X118940000Y-92210000D03*
%TO.N,VAA*%
X118940000Y-89670000D03*
%TO.N,GPIO46*%
X118940000Y-87130000D03*
%TD*%
D18*
%TO.N,GND*%
X150257000Y-82600000D03*
D19*
X128000000Y-95500000D03*
D18*
X146620000Y-81530000D03*
X141572200Y-93995000D03*
X152560000Y-98420000D03*
X151680000Y-103640000D03*
X136630000Y-88560000D03*
X136630000Y-86070000D03*
X127530000Y-83050000D03*
X147990000Y-91190000D03*
X126650000Y-90550000D03*
X141520000Y-93250000D03*
X151050000Y-89190000D03*
X130078000Y-87580000D03*
X135940000Y-101650000D03*
X133330000Y-91950000D03*
X148010000Y-94780000D03*
X132270000Y-97050000D03*
X144600000Y-98600000D03*
X120939998Y-99645000D03*
X144756624Y-96658376D03*
X123970000Y-93999598D03*
X152330000Y-100230000D03*
X133370000Y-83060000D03*
X147949002Y-89220000D03*
X133850000Y-77120000D03*
X127342038Y-86909301D03*
X120880000Y-83850000D03*
X126660000Y-101760000D03*
X123520000Y-99400000D03*
X150540000Y-98410000D03*
X135296200Y-87806200D03*
X148480000Y-86770000D03*
X132360000Y-95410000D03*
X120590000Y-96450000D03*
X150110000Y-94080000D03*
X141560000Y-80760000D03*
X151050000Y-91200000D03*
X129220000Y-92280000D03*
X122980000Y-96120000D03*
X144910000Y-103640000D03*
X118965000Y-79250000D03*
X128550000Y-81600000D03*
X147150000Y-103660000D03*
X140770000Y-94540000D03*
X127780000Y-89331202D03*
X146680000Y-79110000D03*
X140370000Y-103640000D03*
X133370000Y-83060000D03*
X123320000Y-101750000D03*
X152430000Y-85370000D03*
X127989606Y-85556242D03*
%TO.N,VCC*%
X126200000Y-94590000D03*
X124018969Y-90023849D03*
%TO.N,+2V8*%
X152704999Y-83550001D03*
X152600000Y-89190000D03*
%TO.N,VDC*%
X149954999Y-83550001D03*
X120890000Y-82300000D03*
X122145000Y-97150000D03*
X150122500Y-95040000D03*
X120600000Y-94200000D03*
%TO.N,Net-(D7-K)*%
X145760303Y-101130000D03*
%TO.N,+3.3V*%
X127640000Y-90720000D03*
D19*
X129540000Y-96120000D03*
D18*
X140860000Y-80785000D03*
X142110000Y-105320000D03*
X122279203Y-94225000D03*
X149359655Y-99011000D03*
X125995000Y-87570000D03*
X123865000Y-97890000D03*
X141000000Y-105290000D03*
X142800000Y-92630000D03*
D19*
X129570000Y-98160000D03*
D18*
X141835000Y-82610000D03*
D19*
X129555000Y-97100000D03*
D18*
X148000000Y-83257500D03*
X135200000Y-90930000D03*
X127350000Y-87831200D03*
X141835000Y-82610000D03*
X124030000Y-96270000D03*
%TO.N,CAM_RESET*%
X149177294Y-86500000D03*
%TO.N,+1V8*%
X152397500Y-95040000D03*
%TO.N,Net-(C38-Pad1)*%
X139299158Y-89050944D03*
X137920000Y-90670000D03*
%TO.N,Net-(D1-K)*%
X122100000Y-92940000D03*
X120870000Y-84900000D03*
%TO.N,Net-(FB1-Pad2)*%
X150260000Y-87300000D03*
X148553923Y-84228916D03*
%TO.N,USB_DP*%
X144990752Y-95354702D03*
%TO.N,USB_DN*%
X144848326Y-94823461D03*
%TO.N,MTDO{slash}IO40{slash}CAM_SDA*%
X137924000Y-94703820D03*
%TO.N,MTCK{slash}IO39{slash}CAM_SCL*%
X149177776Y-85800926D03*
X142958115Y-85686875D03*
X137950000Y-95349571D03*
%TO.N,IO38{slash}DVP_VSYNC*%
X138000078Y-95870152D03*
%TO.N,IO47{slash}DVP_HREF*%
X139530000Y-96000000D03*
%TO.N,IO48{slash}DVP_Y9*%
X140150000Y-95628093D03*
%TO.N,IO10{slash}XMCLK*%
X145017514Y-89850000D03*
%TO.N,IO11{slash}DVP_Y8*%
X145145454Y-90393813D03*
%TO.N,IO12{slash}DVP_Y7*%
X144860510Y-91350510D03*
%TO.N,IO13{slash}DVP_PCLK*%
X145110891Y-91840216D03*
%TO.N,IO14{slash}DVP_Y6*%
X144665000Y-92345000D03*
%TO.N,IO15{slash}DVP_Y2*%
X145130000Y-92820000D03*
%TO.N,IO16{slash}DVP_Y5*%
X144940224Y-93336225D03*
%TO.N,IO17{slash}DVP_Y3*%
X145328807Y-93820000D03*
%TO.N,IO18{slash}DVP_Y4*%
X145245607Y-94363674D03*
%TO.N,CHIP_EN*%
X138400000Y-90900000D03*
X140389999Y-101485001D03*
%TO.N,BNO_SCL*%
X134110000Y-86720000D03*
X142375000Y-84209152D03*
%TO.N,BNO_SDA*%
X133130000Y-84720000D03*
X141320000Y-84190000D03*
%TO.N,BNO_INT*%
X132740000Y-92590000D03*
X142410000Y-85190000D03*
D19*
%TO.N,GPIO34{slash}FSPICSO*%
X137000000Y-96987034D03*
D18*
%TO.N,D1{slash}A1*%
X140146624Y-90691624D03*
%TO.N,D0{slash}A0*%
X139675188Y-90974910D03*
%TO.N,Net-(U9-U0TXD)*%
X131010000Y-94190000D03*
%TO.N,GPIO0*%
X139313367Y-91320001D03*
X147225000Y-101506501D03*
%TO.N,BNO_RST*%
X129715543Y-92605000D03*
X143510000Y-85190000D03*
D19*
%TO.N,D4{slash}I2C_SDA*%
X142410000Y-86210000D03*
%TO.N,D5{slash}I2C_SCL*%
X143990000Y-84080000D03*
D18*
%TO.N,VDD_SPI*%
X143170000Y-97020000D03*
%TO.N,SPIHD*%
X142780923Y-95895000D03*
%TO.N,SPIWP*%
X141980000Y-95445000D03*
%TO.N,SPICS0*%
X142610000Y-97570000D03*
%TO.N,SPICLK*%
X136140876Y-97935000D03*
%TO.N,SPIQ*%
X140369124Y-98085000D03*
%TO.N,SPID*%
X135830000Y-94400000D03*
%TO.N,GNDPWR*%
X133620000Y-81380000D03*
X126661447Y-92008553D03*
X125355000Y-86405000D03*
X124020000Y-92230000D03*
X123790000Y-79772500D03*
X131520000Y-79740000D03*
X124230000Y-83730000D03*
X126650000Y-81680000D03*
%TO.N,Net-(J10-Pad17)*%
X148616548Y-87686453D03*
%TD*%
D20*
%TO.N,D4{slash}I2C_SDA*%
X141924000Y-85724000D02*
X142410000Y-86210000D01*
X141924000Y-84022341D02*
X141924000Y-85724000D01*
X142286000Y-83660341D02*
X141924000Y-84022341D01*
X142286000Y-80044000D02*
X142286000Y-83660341D01*
X150030000Y-78650000D02*
X143680000Y-78650000D01*
X151230000Y-77130000D02*
X151230000Y-77450000D01*
X151230000Y-77450000D02*
X150030000Y-78650000D01*
X151650000Y-76710000D02*
X151230000Y-77130000D01*
X143680000Y-78650000D02*
X142286000Y-80044000D01*
%TO.N,D5{slash}I2C_SCL*%
X151310000Y-79530000D02*
X151550000Y-79290000D01*
X150820000Y-79530000D02*
X151310000Y-79530000D01*
X147292811Y-79135000D02*
X150425000Y-79135000D01*
X143990000Y-84080000D02*
X143990000Y-82437811D01*
X150425000Y-79135000D02*
X150820000Y-79530000D01*
X143990000Y-82437811D02*
X147292811Y-79135000D01*
D21*
%TO.N,VCC*%
X125040000Y-93430000D02*
X125040000Y-91044880D01*
X125040000Y-91044880D02*
X124018969Y-90023849D01*
X126200000Y-94590000D02*
X125040000Y-93430000D01*
%TO.N,Net-(D1-K)*%
X120870000Y-84900000D02*
X120870000Y-91710000D01*
X120870000Y-91710000D02*
X122100000Y-92940000D01*
D20*
%TO.N,CHIP_EN*%
X137474000Y-94854274D02*
X137500000Y-94880274D01*
X138400000Y-90900000D02*
X137500000Y-91800000D01*
X139845001Y-101485001D02*
X140389999Y-101485001D01*
X137500000Y-91800000D02*
X137500000Y-94454652D01*
X137500000Y-94454652D02*
X137474000Y-94480652D01*
X137474000Y-94480652D02*
X137474000Y-94854274D01*
X137500000Y-94880274D02*
X137500000Y-99140000D01*
X137500000Y-99140000D02*
X139845001Y-101485001D01*
%TO.N,D1{slash}A1*%
X121750000Y-80640000D02*
X118220000Y-84170000D01*
X140450000Y-81710000D02*
X139380000Y-80640000D01*
X139380000Y-80640000D02*
X121750000Y-80640000D01*
X140146624Y-90691624D02*
X140445000Y-90393248D01*
X140445000Y-83827562D02*
X140450000Y-83822562D01*
X140445000Y-90393248D02*
X140445000Y-83827562D01*
X140450000Y-83822562D02*
X140450000Y-81710000D01*
%TO.N,D0{slash}A0*%
X139866902Y-91166624D02*
X140343376Y-91166624D01*
X139675188Y-90974910D02*
X139671624Y-90971346D01*
X140850000Y-83988248D02*
X140850000Y-81544315D01*
X140845000Y-84386752D02*
X140845000Y-83993248D01*
X140845000Y-83993248D02*
X140850000Y-83988248D01*
X119900000Y-80240000D02*
X118210000Y-81930000D01*
X139545685Y-80240000D02*
X119900000Y-80240000D01*
X140850000Y-81544315D02*
X139545685Y-80240000D01*
X140850000Y-84391752D02*
X140845000Y-84386752D01*
X140850000Y-90660000D02*
X140850000Y-84391752D01*
X140343376Y-91166624D02*
X140850000Y-90660000D01*
X139675188Y-90974910D02*
X139866902Y-91166624D01*
%TO.N,GPIO0*%
X139313367Y-91320001D02*
X139010000Y-91623368D01*
X142155000Y-100655000D02*
X146373499Y-100655000D01*
X146373499Y-100655000D02*
X147225000Y-101506501D01*
X139010000Y-97510000D02*
X142155000Y-100655000D01*
X139010000Y-91623368D02*
X139010000Y-97510000D01*
%TD*%
M02*
