%TF.GenerationSoftware,KiCad,Pcbnew,9.0.2*%
%TF.CreationDate,2025-07-25T10:59:28-07:00*%
%TF.ProjectId,OuterBoard_4.2,4f757465-7242-46f6-9172-645f342e322e,rev?*%
%TF.SameCoordinates,Original*%
%TF.FileFunction,Legend,Top*%
%TF.FilePolarity,Positive*%
%FSLAX46Y46*%
G04 Gerber Fmt 4.6, Leading zero omitted, Abs format (unit mm)*
G04 Created by KiCad (PCBNEW 9.0.2) date 2025-07-25 10:59:28*
%MOMM*%
%LPD*%
G01*
G04 APERTURE LIST*
%ADD10C,0.100000*%
%ADD11C,0.090000*%
%ADD12C,0.070000*%
%ADD13C,0.080000*%
%ADD14C,0.060000*%
%ADD15C,0.120000*%
%ADD16C,0.200000*%
%ADD17C,0.152400*%
%ADD18C,0.127000*%
%ADD19C,0.304800*%
%ADD20C,0.508000*%
G04 APERTURE END LIST*
D10*
X150540000Y-76290000D02*
X150540000Y-74820000D01*
X122310000Y-103340000D02*
X120445180Y-103340000D01*
X122310000Y-105480000D02*
X122310000Y-103340000D01*
X120454820Y-105480000D02*
X122310000Y-105480000D01*
X120445180Y-103340000D02*
X120454820Y-105480000D01*
X118230000Y-102190000D02*
X118230000Y-104290000D01*
X120180000Y-104290000D02*
X118230000Y-104290000D01*
X120180000Y-102190000D02*
X120180000Y-104290000D01*
X118230000Y-102190000D02*
X120180000Y-102190000D01*
X152165800Y-80960000D02*
X154950000Y-80960000D01*
X150540000Y-78420000D02*
X150540000Y-80220000D01*
X150540000Y-76290000D02*
X149930000Y-76290000D01*
X150540000Y-78420000D02*
X150540000Y-76290000D01*
X150180000Y-78417500D02*
X150540000Y-78420000D01*
X136035000Y-78522500D02*
X150180000Y-78417500D01*
X136310000Y-78522500D02*
X135115000Y-78530000D01*
X143450000Y-78820000D02*
X143450000Y-80450000D01*
X143450000Y-80600000D02*
X145260000Y-80600000D01*
X149930000Y-76290000D02*
X135140000Y-76330000D01*
X143450000Y-78820000D02*
X145260000Y-78810000D01*
X145260000Y-80600000D02*
X145260000Y-78840000D01*
X143450000Y-80450000D02*
X143450000Y-80600000D01*
X135115000Y-78530000D02*
X135140000Y-76330000D01*
D11*
X136956629Y-75557142D02*
X136956629Y-75842856D01*
X136956629Y-75699999D02*
X136456629Y-75699999D01*
X136456629Y-75699999D02*
X136528058Y-75747618D01*
X136528058Y-75747618D02*
X136575677Y-75795237D01*
X136575677Y-75795237D02*
X136599486Y-75842856D01*
D12*
X151560000Y-75565145D02*
X151560000Y-75779431D01*
X151560000Y-75779431D02*
X151545715Y-75822288D01*
X151545715Y-75822288D02*
X151517143Y-75850860D01*
X151517143Y-75850860D02*
X151474286Y-75865145D01*
X151474286Y-75865145D02*
X151445715Y-75865145D01*
X151674286Y-75565145D02*
X151874286Y-75565145D01*
X151874286Y-75565145D02*
X151745714Y-75865145D01*
X136856574Y-91142856D02*
X136870860Y-91157142D01*
X136870860Y-91157142D02*
X136885145Y-91199999D01*
X136885145Y-91199999D02*
X136885145Y-91228571D01*
X136885145Y-91228571D02*
X136870860Y-91271428D01*
X136870860Y-91271428D02*
X136842288Y-91299999D01*
X136842288Y-91299999D02*
X136813717Y-91314285D01*
X136813717Y-91314285D02*
X136756574Y-91328571D01*
X136756574Y-91328571D02*
X136713717Y-91328571D01*
X136713717Y-91328571D02*
X136656574Y-91314285D01*
X136656574Y-91314285D02*
X136628002Y-91299999D01*
X136628002Y-91299999D02*
X136599431Y-91271428D01*
X136599431Y-91271428D02*
X136585145Y-91228571D01*
X136585145Y-91228571D02*
X136585145Y-91199999D01*
X136585145Y-91199999D02*
X136599431Y-91157142D01*
X136599431Y-91157142D02*
X136613717Y-91142856D01*
X136585145Y-91042856D02*
X136585145Y-90857142D01*
X136585145Y-90857142D02*
X136699431Y-90957142D01*
X136699431Y-90957142D02*
X136699431Y-90914285D01*
X136699431Y-90914285D02*
X136713717Y-90885714D01*
X136713717Y-90885714D02*
X136728002Y-90871428D01*
X136728002Y-90871428D02*
X136756574Y-90857142D01*
X136756574Y-90857142D02*
X136828002Y-90857142D01*
X136828002Y-90857142D02*
X136856574Y-90871428D01*
X136856574Y-90871428D02*
X136870860Y-90885714D01*
X136870860Y-90885714D02*
X136885145Y-90914285D01*
X136885145Y-90914285D02*
X136885145Y-90999999D01*
X136885145Y-90999999D02*
X136870860Y-91028571D01*
X136870860Y-91028571D02*
X136856574Y-91042856D01*
X136613717Y-90742857D02*
X136599431Y-90728571D01*
X136599431Y-90728571D02*
X136585145Y-90700000D01*
X136585145Y-90700000D02*
X136585145Y-90628571D01*
X136585145Y-90628571D02*
X136599431Y-90600000D01*
X136599431Y-90600000D02*
X136613717Y-90585714D01*
X136613717Y-90585714D02*
X136642288Y-90571428D01*
X136642288Y-90571428D02*
X136670860Y-90571428D01*
X136670860Y-90571428D02*
X136713717Y-90585714D01*
X136713717Y-90585714D02*
X136885145Y-90757142D01*
X136885145Y-90757142D02*
X136885145Y-90571428D01*
D11*
X135403333Y-75236629D02*
X135403333Y-75593772D01*
X135403333Y-75593772D02*
X135379524Y-75665200D01*
X135379524Y-75665200D02*
X135331905Y-75712820D01*
X135331905Y-75712820D02*
X135260476Y-75736629D01*
X135260476Y-75736629D02*
X135212857Y-75736629D01*
X135617619Y-75284248D02*
X135641428Y-75260439D01*
X135641428Y-75260439D02*
X135689047Y-75236629D01*
X135689047Y-75236629D02*
X135808095Y-75236629D01*
X135808095Y-75236629D02*
X135855714Y-75260439D01*
X135855714Y-75260439D02*
X135879523Y-75284248D01*
X135879523Y-75284248D02*
X135903333Y-75331867D01*
X135903333Y-75331867D02*
X135903333Y-75379486D01*
X135903333Y-75379486D02*
X135879523Y-75450915D01*
X135879523Y-75450915D02*
X135593809Y-75736629D01*
X135593809Y-75736629D02*
X135903333Y-75736629D01*
D13*
X144472857Y-97562792D02*
X144453809Y-97581840D01*
X144453809Y-97581840D02*
X144396667Y-97600887D01*
X144396667Y-97600887D02*
X144358571Y-97600887D01*
X144358571Y-97600887D02*
X144301428Y-97581840D01*
X144301428Y-97581840D02*
X144263333Y-97543744D01*
X144263333Y-97543744D02*
X144244286Y-97505649D01*
X144244286Y-97505649D02*
X144225238Y-97429459D01*
X144225238Y-97429459D02*
X144225238Y-97372316D01*
X144225238Y-97372316D02*
X144244286Y-97296125D01*
X144244286Y-97296125D02*
X144263333Y-97258030D01*
X144263333Y-97258030D02*
X144301428Y-97219935D01*
X144301428Y-97219935D02*
X144358571Y-97200887D01*
X144358571Y-97200887D02*
X144396667Y-97200887D01*
X144396667Y-97200887D02*
X144453809Y-97219935D01*
X144453809Y-97219935D02*
X144472857Y-97238982D01*
X144853809Y-97600887D02*
X144625238Y-97600887D01*
X144739524Y-97600887D02*
X144739524Y-97200887D01*
X144739524Y-97200887D02*
X144701428Y-97258030D01*
X144701428Y-97258030D02*
X144663333Y-97296125D01*
X144663333Y-97296125D02*
X144625238Y-97315173D01*
X145006190Y-97238982D02*
X145025238Y-97219935D01*
X145025238Y-97219935D02*
X145063333Y-97200887D01*
X145063333Y-97200887D02*
X145158571Y-97200887D01*
X145158571Y-97200887D02*
X145196666Y-97219935D01*
X145196666Y-97219935D02*
X145215714Y-97238982D01*
X145215714Y-97238982D02*
X145234761Y-97277078D01*
X145234761Y-97277078D02*
X145234761Y-97315173D01*
X145234761Y-97315173D02*
X145215714Y-97372316D01*
X145215714Y-97372316D02*
X144987142Y-97600887D01*
X144987142Y-97600887D02*
X145234761Y-97600887D01*
X139655238Y-92250887D02*
X139655238Y-92574697D01*
X139655238Y-92574697D02*
X139674285Y-92612792D01*
X139674285Y-92612792D02*
X139693333Y-92631840D01*
X139693333Y-92631840D02*
X139731428Y-92650887D01*
X139731428Y-92650887D02*
X139807619Y-92650887D01*
X139807619Y-92650887D02*
X139845714Y-92631840D01*
X139845714Y-92631840D02*
X139864761Y-92612792D01*
X139864761Y-92612792D02*
X139883809Y-92574697D01*
X139883809Y-92574697D02*
X139883809Y-92250887D01*
X140055238Y-92288982D02*
X140074286Y-92269935D01*
X140074286Y-92269935D02*
X140112381Y-92250887D01*
X140112381Y-92250887D02*
X140207619Y-92250887D01*
X140207619Y-92250887D02*
X140245714Y-92269935D01*
X140245714Y-92269935D02*
X140264762Y-92288982D01*
X140264762Y-92288982D02*
X140283809Y-92327078D01*
X140283809Y-92327078D02*
X140283809Y-92365173D01*
X140283809Y-92365173D02*
X140264762Y-92422316D01*
X140264762Y-92422316D02*
X140036190Y-92650887D01*
X140036190Y-92650887D02*
X140283809Y-92650887D01*
X140242857Y-106260887D02*
X140109524Y-106070411D01*
X140014286Y-106260887D02*
X140014286Y-105860887D01*
X140014286Y-105860887D02*
X140166667Y-105860887D01*
X140166667Y-105860887D02*
X140204762Y-105879935D01*
X140204762Y-105879935D02*
X140223809Y-105898982D01*
X140223809Y-105898982D02*
X140242857Y-105937078D01*
X140242857Y-105937078D02*
X140242857Y-105994220D01*
X140242857Y-105994220D02*
X140223809Y-106032316D01*
X140223809Y-106032316D02*
X140204762Y-106051363D01*
X140204762Y-106051363D02*
X140166667Y-106070411D01*
X140166667Y-106070411D02*
X140014286Y-106070411D01*
X140623809Y-106260887D02*
X140395238Y-106260887D01*
X140509524Y-106260887D02*
X140509524Y-105860887D01*
X140509524Y-105860887D02*
X140471428Y-105918030D01*
X140471428Y-105918030D02*
X140433333Y-105956125D01*
X140433333Y-105956125D02*
X140395238Y-105975173D01*
X140757142Y-105860887D02*
X141004761Y-105860887D01*
X141004761Y-105860887D02*
X140871428Y-106013268D01*
X140871428Y-106013268D02*
X140928571Y-106013268D01*
X140928571Y-106013268D02*
X140966666Y-106032316D01*
X140966666Y-106032316D02*
X140985714Y-106051363D01*
X140985714Y-106051363D02*
X141004761Y-106089459D01*
X141004761Y-106089459D02*
X141004761Y-106184697D01*
X141004761Y-106184697D02*
X140985714Y-106222792D01*
X140985714Y-106222792D02*
X140966666Y-106241840D01*
X140966666Y-106241840D02*
X140928571Y-106260887D01*
X140928571Y-106260887D02*
X140814285Y-106260887D01*
X140814285Y-106260887D02*
X140776190Y-106241840D01*
X140776190Y-106241840D02*
X140757142Y-106222792D01*
X133762792Y-83827142D02*
X133781840Y-83846190D01*
X133781840Y-83846190D02*
X133800887Y-83903332D01*
X133800887Y-83903332D02*
X133800887Y-83941428D01*
X133800887Y-83941428D02*
X133781840Y-83998571D01*
X133781840Y-83998571D02*
X133743744Y-84036666D01*
X133743744Y-84036666D02*
X133705649Y-84055713D01*
X133705649Y-84055713D02*
X133629459Y-84074761D01*
X133629459Y-84074761D02*
X133572316Y-84074761D01*
X133572316Y-84074761D02*
X133496125Y-84055713D01*
X133496125Y-84055713D02*
X133458030Y-84036666D01*
X133458030Y-84036666D02*
X133419935Y-83998571D01*
X133419935Y-83998571D02*
X133400887Y-83941428D01*
X133400887Y-83941428D02*
X133400887Y-83903332D01*
X133400887Y-83903332D02*
X133419935Y-83846190D01*
X133419935Y-83846190D02*
X133438982Y-83827142D01*
X133400887Y-83693809D02*
X133400887Y-83446190D01*
X133400887Y-83446190D02*
X133553268Y-83579523D01*
X133553268Y-83579523D02*
X133553268Y-83522380D01*
X133553268Y-83522380D02*
X133572316Y-83484285D01*
X133572316Y-83484285D02*
X133591363Y-83465237D01*
X133591363Y-83465237D02*
X133629459Y-83446190D01*
X133629459Y-83446190D02*
X133724697Y-83446190D01*
X133724697Y-83446190D02*
X133762792Y-83465237D01*
X133762792Y-83465237D02*
X133781840Y-83484285D01*
X133781840Y-83484285D02*
X133800887Y-83522380D01*
X133800887Y-83522380D02*
X133800887Y-83636666D01*
X133800887Y-83636666D02*
X133781840Y-83674761D01*
X133781840Y-83674761D02*
X133762792Y-83693809D01*
X133800887Y-83065238D02*
X133800887Y-83293809D01*
X133800887Y-83179523D02*
X133400887Y-83179523D01*
X133400887Y-83179523D02*
X133458030Y-83217619D01*
X133458030Y-83217619D02*
X133496125Y-83255714D01*
X133496125Y-83255714D02*
X133515173Y-83293809D01*
D12*
X121230000Y-103525145D02*
X121230000Y-103739431D01*
X121230000Y-103739431D02*
X121215715Y-103782288D01*
X121215715Y-103782288D02*
X121187143Y-103810860D01*
X121187143Y-103810860D02*
X121144286Y-103825145D01*
X121144286Y-103825145D02*
X121115715Y-103825145D01*
X121415714Y-103653717D02*
X121387143Y-103639431D01*
X121387143Y-103639431D02*
X121372857Y-103625145D01*
X121372857Y-103625145D02*
X121358571Y-103596574D01*
X121358571Y-103596574D02*
X121358571Y-103582288D01*
X121358571Y-103582288D02*
X121372857Y-103553717D01*
X121372857Y-103553717D02*
X121387143Y-103539431D01*
X121387143Y-103539431D02*
X121415714Y-103525145D01*
X121415714Y-103525145D02*
X121472857Y-103525145D01*
X121472857Y-103525145D02*
X121501429Y-103539431D01*
X121501429Y-103539431D02*
X121515714Y-103553717D01*
X121515714Y-103553717D02*
X121530000Y-103582288D01*
X121530000Y-103582288D02*
X121530000Y-103596574D01*
X121530000Y-103596574D02*
X121515714Y-103625145D01*
X121515714Y-103625145D02*
X121501429Y-103639431D01*
X121501429Y-103639431D02*
X121472857Y-103653717D01*
X121472857Y-103653717D02*
X121415714Y-103653717D01*
X121415714Y-103653717D02*
X121387143Y-103668002D01*
X121387143Y-103668002D02*
X121372857Y-103682288D01*
X121372857Y-103682288D02*
X121358571Y-103710860D01*
X121358571Y-103710860D02*
X121358571Y-103768002D01*
X121358571Y-103768002D02*
X121372857Y-103796574D01*
X121372857Y-103796574D02*
X121387143Y-103810860D01*
X121387143Y-103810860D02*
X121415714Y-103825145D01*
X121415714Y-103825145D02*
X121472857Y-103825145D01*
X121472857Y-103825145D02*
X121501429Y-103810860D01*
X121501429Y-103810860D02*
X121515714Y-103796574D01*
X121515714Y-103796574D02*
X121530000Y-103768002D01*
X121530000Y-103768002D02*
X121530000Y-103710860D01*
X121530000Y-103710860D02*
X121515714Y-103682288D01*
X121515714Y-103682288D02*
X121501429Y-103668002D01*
X121501429Y-103668002D02*
X121472857Y-103653717D01*
X118891407Y-84474761D02*
X118891407Y-84246190D01*
X119291407Y-84360476D02*
X118891407Y-84360476D01*
X119291407Y-84112856D02*
X118891407Y-84112856D01*
X118891407Y-84112856D02*
X118891407Y-83960475D01*
X118891407Y-83960475D02*
X118910455Y-83922380D01*
X118910455Y-83922380D02*
X118929502Y-83903333D01*
X118929502Y-83903333D02*
X118967598Y-83884285D01*
X118967598Y-83884285D02*
X119024740Y-83884285D01*
X119024740Y-83884285D02*
X119062836Y-83903333D01*
X119062836Y-83903333D02*
X119081883Y-83922380D01*
X119081883Y-83922380D02*
X119100931Y-83960475D01*
X119100931Y-83960475D02*
X119100931Y-84112856D01*
X118891407Y-83750952D02*
X118891407Y-83503333D01*
X118891407Y-83503333D02*
X119043788Y-83636666D01*
X119043788Y-83636666D02*
X119043788Y-83579523D01*
X119043788Y-83579523D02*
X119062836Y-83541428D01*
X119062836Y-83541428D02*
X119081883Y-83522380D01*
X119081883Y-83522380D02*
X119119979Y-83503333D01*
X119119979Y-83503333D02*
X119215217Y-83503333D01*
X119215217Y-83503333D02*
X119253312Y-83522380D01*
X119253312Y-83522380D02*
X119272360Y-83541428D01*
X119272360Y-83541428D02*
X119291407Y-83579523D01*
X119291407Y-83579523D02*
X119291407Y-83693809D01*
X119291407Y-83693809D02*
X119272360Y-83731904D01*
X119272360Y-83731904D02*
X119253312Y-83750952D01*
D13*
X122060887Y-97615237D02*
X121660887Y-97615237D01*
X121660887Y-97615237D02*
X121660887Y-97519999D01*
X121660887Y-97519999D02*
X121679935Y-97462856D01*
X121679935Y-97462856D02*
X121718030Y-97424761D01*
X121718030Y-97424761D02*
X121756125Y-97405714D01*
X121756125Y-97405714D02*
X121832316Y-97386666D01*
X121832316Y-97386666D02*
X121889459Y-97386666D01*
X121889459Y-97386666D02*
X121965649Y-97405714D01*
X121965649Y-97405714D02*
X122003744Y-97424761D01*
X122003744Y-97424761D02*
X122041840Y-97462856D01*
X122041840Y-97462856D02*
X122060887Y-97519999D01*
X122060887Y-97519999D02*
X122060887Y-97615237D01*
X121832316Y-97158095D02*
X121813268Y-97196190D01*
X121813268Y-97196190D02*
X121794220Y-97215237D01*
X121794220Y-97215237D02*
X121756125Y-97234285D01*
X121756125Y-97234285D02*
X121737078Y-97234285D01*
X121737078Y-97234285D02*
X121698982Y-97215237D01*
X121698982Y-97215237D02*
X121679935Y-97196190D01*
X121679935Y-97196190D02*
X121660887Y-97158095D01*
X121660887Y-97158095D02*
X121660887Y-97081904D01*
X121660887Y-97081904D02*
X121679935Y-97043809D01*
X121679935Y-97043809D02*
X121698982Y-97024761D01*
X121698982Y-97024761D02*
X121737078Y-97005714D01*
X121737078Y-97005714D02*
X121756125Y-97005714D01*
X121756125Y-97005714D02*
X121794220Y-97024761D01*
X121794220Y-97024761D02*
X121813268Y-97043809D01*
X121813268Y-97043809D02*
X121832316Y-97081904D01*
X121832316Y-97081904D02*
X121832316Y-97158095D01*
X121832316Y-97158095D02*
X121851363Y-97196190D01*
X121851363Y-97196190D02*
X121870411Y-97215237D01*
X121870411Y-97215237D02*
X121908506Y-97234285D01*
X121908506Y-97234285D02*
X121984697Y-97234285D01*
X121984697Y-97234285D02*
X122022792Y-97215237D01*
X122022792Y-97215237D02*
X122041840Y-97196190D01*
X122041840Y-97196190D02*
X122060887Y-97158095D01*
X122060887Y-97158095D02*
X122060887Y-97081904D01*
X122060887Y-97081904D02*
X122041840Y-97043809D01*
X122041840Y-97043809D02*
X122022792Y-97024761D01*
X122022792Y-97024761D02*
X121984697Y-97005714D01*
X121984697Y-97005714D02*
X121908506Y-97005714D01*
X121908506Y-97005714D02*
X121870411Y-97024761D01*
X121870411Y-97024761D02*
X121851363Y-97043809D01*
X121851363Y-97043809D02*
X121832316Y-97081904D01*
D12*
X118761407Y-82254761D02*
X118761407Y-82026190D01*
X119161407Y-82140476D02*
X118761407Y-82140476D01*
X119161407Y-81892856D02*
X118761407Y-81892856D01*
X118761407Y-81892856D02*
X118761407Y-81740475D01*
X118761407Y-81740475D02*
X118780455Y-81702380D01*
X118780455Y-81702380D02*
X118799502Y-81683333D01*
X118799502Y-81683333D02*
X118837598Y-81664285D01*
X118837598Y-81664285D02*
X118894740Y-81664285D01*
X118894740Y-81664285D02*
X118932836Y-81683333D01*
X118932836Y-81683333D02*
X118951883Y-81702380D01*
X118951883Y-81702380D02*
X118970931Y-81740475D01*
X118970931Y-81740475D02*
X118970931Y-81892856D01*
X118761407Y-81302380D02*
X118761407Y-81492856D01*
X118761407Y-81492856D02*
X118951883Y-81511904D01*
X118951883Y-81511904D02*
X118932836Y-81492856D01*
X118932836Y-81492856D02*
X118913788Y-81454761D01*
X118913788Y-81454761D02*
X118913788Y-81359523D01*
X118913788Y-81359523D02*
X118932836Y-81321428D01*
X118932836Y-81321428D02*
X118951883Y-81302380D01*
X118951883Y-81302380D02*
X118989979Y-81283333D01*
X118989979Y-81283333D02*
X119085217Y-81283333D01*
X119085217Y-81283333D02*
X119123312Y-81302380D01*
X119123312Y-81302380D02*
X119142360Y-81321428D01*
X119142360Y-81321428D02*
X119161407Y-81359523D01*
X119161407Y-81359523D02*
X119161407Y-81454761D01*
X119161407Y-81454761D02*
X119142360Y-81492856D01*
X119142360Y-81492856D02*
X119123312Y-81511904D01*
D10*
X117546109Y-78986666D02*
X117903252Y-78986666D01*
X117903252Y-78986666D02*
X117974680Y-79010475D01*
X117974680Y-79010475D02*
X118022300Y-79058094D01*
X118022300Y-79058094D02*
X118046109Y-79129523D01*
X118046109Y-79129523D02*
X118046109Y-79177142D01*
X118046109Y-78748571D02*
X117546109Y-78748571D01*
X117546109Y-78748571D02*
X117546109Y-78558095D01*
X117546109Y-78558095D02*
X117569919Y-78510476D01*
X117569919Y-78510476D02*
X117593728Y-78486666D01*
X117593728Y-78486666D02*
X117641347Y-78462857D01*
X117641347Y-78462857D02*
X117712776Y-78462857D01*
X117712776Y-78462857D02*
X117760395Y-78486666D01*
X117760395Y-78486666D02*
X117784204Y-78510476D01*
X117784204Y-78510476D02*
X117808014Y-78558095D01*
X117808014Y-78558095D02*
X117808014Y-78748571D01*
X117593728Y-78272380D02*
X117569919Y-78248571D01*
X117569919Y-78248571D02*
X117546109Y-78200952D01*
X117546109Y-78200952D02*
X117546109Y-78081904D01*
X117546109Y-78081904D02*
X117569919Y-78034285D01*
X117569919Y-78034285D02*
X117593728Y-78010476D01*
X117593728Y-78010476D02*
X117641347Y-77986666D01*
X117641347Y-77986666D02*
X117688966Y-77986666D01*
X117688966Y-77986666D02*
X117760395Y-78010476D01*
X117760395Y-78010476D02*
X118046109Y-78296190D01*
X118046109Y-78296190D02*
X118046109Y-77986666D01*
D12*
X144091407Y-82566666D02*
X143900931Y-82699999D01*
X144091407Y-82795237D02*
X143691407Y-82795237D01*
X143691407Y-82795237D02*
X143691407Y-82642856D01*
X143691407Y-82642856D02*
X143710455Y-82604761D01*
X143710455Y-82604761D02*
X143729502Y-82585714D01*
X143729502Y-82585714D02*
X143767598Y-82566666D01*
X143767598Y-82566666D02*
X143824740Y-82566666D01*
X143824740Y-82566666D02*
X143862836Y-82585714D01*
X143862836Y-82585714D02*
X143881883Y-82604761D01*
X143881883Y-82604761D02*
X143900931Y-82642856D01*
X143900931Y-82642856D02*
X143900931Y-82795237D01*
X143691407Y-82223809D02*
X143691407Y-82299999D01*
X143691407Y-82299999D02*
X143710455Y-82338095D01*
X143710455Y-82338095D02*
X143729502Y-82357142D01*
X143729502Y-82357142D02*
X143786645Y-82395237D01*
X143786645Y-82395237D02*
X143862836Y-82414285D01*
X143862836Y-82414285D02*
X144015217Y-82414285D01*
X144015217Y-82414285D02*
X144053312Y-82395237D01*
X144053312Y-82395237D02*
X144072360Y-82376190D01*
X144072360Y-82376190D02*
X144091407Y-82338095D01*
X144091407Y-82338095D02*
X144091407Y-82261904D01*
X144091407Y-82261904D02*
X144072360Y-82223809D01*
X144072360Y-82223809D02*
X144053312Y-82204761D01*
X144053312Y-82204761D02*
X144015217Y-82185714D01*
X144015217Y-82185714D02*
X143919979Y-82185714D01*
X143919979Y-82185714D02*
X143881883Y-82204761D01*
X143881883Y-82204761D02*
X143862836Y-82223809D01*
X143862836Y-82223809D02*
X143843788Y-82261904D01*
X143843788Y-82261904D02*
X143843788Y-82338095D01*
X143843788Y-82338095D02*
X143862836Y-82376190D01*
X143862836Y-82376190D02*
X143881883Y-82395237D01*
X143881883Y-82395237D02*
X143919979Y-82414285D01*
D11*
X147205238Y-79016629D02*
X147205238Y-79373772D01*
X147205238Y-79373772D02*
X147181429Y-79445200D01*
X147181429Y-79445200D02*
X147133810Y-79492820D01*
X147133810Y-79492820D02*
X147062381Y-79516629D01*
X147062381Y-79516629D02*
X147014762Y-79516629D01*
X147705238Y-79516629D02*
X147419524Y-79516629D01*
X147562381Y-79516629D02*
X147562381Y-79016629D01*
X147562381Y-79016629D02*
X147514762Y-79088058D01*
X147514762Y-79088058D02*
X147467143Y-79135677D01*
X147467143Y-79135677D02*
X147419524Y-79159486D01*
X148014761Y-79016629D02*
X148062380Y-79016629D01*
X148062380Y-79016629D02*
X148109999Y-79040439D01*
X148109999Y-79040439D02*
X148133809Y-79064248D01*
X148133809Y-79064248D02*
X148157618Y-79111867D01*
X148157618Y-79111867D02*
X148181428Y-79207105D01*
X148181428Y-79207105D02*
X148181428Y-79326153D01*
X148181428Y-79326153D02*
X148157618Y-79421391D01*
X148157618Y-79421391D02*
X148133809Y-79469010D01*
X148133809Y-79469010D02*
X148109999Y-79492820D01*
X148109999Y-79492820D02*
X148062380Y-79516629D01*
X148062380Y-79516629D02*
X148014761Y-79516629D01*
X148014761Y-79516629D02*
X147967142Y-79492820D01*
X147967142Y-79492820D02*
X147943333Y-79469010D01*
X147943333Y-79469010D02*
X147919523Y-79421391D01*
X147919523Y-79421391D02*
X147895714Y-79326153D01*
X147895714Y-79326153D02*
X147895714Y-79207105D01*
X147895714Y-79207105D02*
X147919523Y-79111867D01*
X147919523Y-79111867D02*
X147943333Y-79064248D01*
X147943333Y-79064248D02*
X147967142Y-79040439D01*
X147967142Y-79040439D02*
X148014761Y-79016629D01*
D12*
X119060000Y-102355145D02*
X119060000Y-102569431D01*
X119060000Y-102569431D02*
X119045715Y-102612288D01*
X119045715Y-102612288D02*
X119017143Y-102640860D01*
X119017143Y-102640860D02*
X118974286Y-102655145D01*
X118974286Y-102655145D02*
X118945715Y-102655145D01*
X119345714Y-102355145D02*
X119202857Y-102355145D01*
X119202857Y-102355145D02*
X119188571Y-102498002D01*
X119188571Y-102498002D02*
X119202857Y-102483717D01*
X119202857Y-102483717D02*
X119231429Y-102469431D01*
X119231429Y-102469431D02*
X119302857Y-102469431D01*
X119302857Y-102469431D02*
X119331429Y-102483717D01*
X119331429Y-102483717D02*
X119345714Y-102498002D01*
X119345714Y-102498002D02*
X119360000Y-102526574D01*
X119360000Y-102526574D02*
X119360000Y-102598002D01*
X119360000Y-102598002D02*
X119345714Y-102626574D01*
X119345714Y-102626574D02*
X119331429Y-102640860D01*
X119331429Y-102640860D02*
X119302857Y-102655145D01*
X119302857Y-102655145D02*
X119231429Y-102655145D01*
X119231429Y-102655145D02*
X119202857Y-102640860D01*
X119202857Y-102640860D02*
X119188571Y-102626574D01*
D13*
X123400887Y-86105237D02*
X123000887Y-86105237D01*
X123000887Y-86105237D02*
X123000887Y-86009999D01*
X123000887Y-86009999D02*
X123019935Y-85952856D01*
X123019935Y-85952856D02*
X123058030Y-85914761D01*
X123058030Y-85914761D02*
X123096125Y-85895714D01*
X123096125Y-85895714D02*
X123172316Y-85876666D01*
X123172316Y-85876666D02*
X123229459Y-85876666D01*
X123229459Y-85876666D02*
X123305649Y-85895714D01*
X123305649Y-85895714D02*
X123343744Y-85914761D01*
X123343744Y-85914761D02*
X123381840Y-85952856D01*
X123381840Y-85952856D02*
X123400887Y-86009999D01*
X123400887Y-86009999D02*
X123400887Y-86105237D01*
X123038982Y-85724285D02*
X123019935Y-85705237D01*
X123019935Y-85705237D02*
X123000887Y-85667142D01*
X123000887Y-85667142D02*
X123000887Y-85571904D01*
X123000887Y-85571904D02*
X123019935Y-85533809D01*
X123019935Y-85533809D02*
X123038982Y-85514761D01*
X123038982Y-85514761D02*
X123077078Y-85495714D01*
X123077078Y-85495714D02*
X123115173Y-85495714D01*
X123115173Y-85495714D02*
X123172316Y-85514761D01*
X123172316Y-85514761D02*
X123400887Y-85743333D01*
X123400887Y-85743333D02*
X123400887Y-85495714D01*
X121632792Y-94567142D02*
X121651840Y-94586190D01*
X121651840Y-94586190D02*
X121670887Y-94643332D01*
X121670887Y-94643332D02*
X121670887Y-94681428D01*
X121670887Y-94681428D02*
X121651840Y-94738571D01*
X121651840Y-94738571D02*
X121613744Y-94776666D01*
X121613744Y-94776666D02*
X121575649Y-94795713D01*
X121575649Y-94795713D02*
X121499459Y-94814761D01*
X121499459Y-94814761D02*
X121442316Y-94814761D01*
X121442316Y-94814761D02*
X121366125Y-94795713D01*
X121366125Y-94795713D02*
X121328030Y-94776666D01*
X121328030Y-94776666D02*
X121289935Y-94738571D01*
X121289935Y-94738571D02*
X121270887Y-94681428D01*
X121270887Y-94681428D02*
X121270887Y-94643332D01*
X121270887Y-94643332D02*
X121289935Y-94586190D01*
X121289935Y-94586190D02*
X121308982Y-94567142D01*
X121404220Y-94224285D02*
X121670887Y-94224285D01*
X121251840Y-94319523D02*
X121537554Y-94414761D01*
X121537554Y-94414761D02*
X121537554Y-94167142D01*
X121308982Y-94033809D02*
X121289935Y-94014761D01*
X121289935Y-94014761D02*
X121270887Y-93976666D01*
X121270887Y-93976666D02*
X121270887Y-93881428D01*
X121270887Y-93881428D02*
X121289935Y-93843333D01*
X121289935Y-93843333D02*
X121308982Y-93824285D01*
X121308982Y-93824285D02*
X121347078Y-93805238D01*
X121347078Y-93805238D02*
X121385173Y-93805238D01*
X121385173Y-93805238D02*
X121442316Y-93824285D01*
X121442316Y-93824285D02*
X121670887Y-94052857D01*
X121670887Y-94052857D02*
X121670887Y-93805238D01*
X123390887Y-82535237D02*
X122990887Y-82535237D01*
X122990887Y-82535237D02*
X122990887Y-82439999D01*
X122990887Y-82439999D02*
X123009935Y-82382856D01*
X123009935Y-82382856D02*
X123048030Y-82344761D01*
X123048030Y-82344761D02*
X123086125Y-82325714D01*
X123086125Y-82325714D02*
X123162316Y-82306666D01*
X123162316Y-82306666D02*
X123219459Y-82306666D01*
X123219459Y-82306666D02*
X123295649Y-82325714D01*
X123295649Y-82325714D02*
X123333744Y-82344761D01*
X123333744Y-82344761D02*
X123371840Y-82382856D01*
X123371840Y-82382856D02*
X123390887Y-82439999D01*
X123390887Y-82439999D02*
X123390887Y-82535237D01*
X122990887Y-82173333D02*
X122990887Y-81925714D01*
X122990887Y-81925714D02*
X123143268Y-82059047D01*
X123143268Y-82059047D02*
X123143268Y-82001904D01*
X123143268Y-82001904D02*
X123162316Y-81963809D01*
X123162316Y-81963809D02*
X123181363Y-81944761D01*
X123181363Y-81944761D02*
X123219459Y-81925714D01*
X123219459Y-81925714D02*
X123314697Y-81925714D01*
X123314697Y-81925714D02*
X123352792Y-81944761D01*
X123352792Y-81944761D02*
X123371840Y-81963809D01*
X123371840Y-81963809D02*
X123390887Y-82001904D01*
X123390887Y-82001904D02*
X123390887Y-82116190D01*
X123390887Y-82116190D02*
X123371840Y-82154285D01*
X123371840Y-82154285D02*
X123352792Y-82173333D01*
X144100887Y-84606666D02*
X143910411Y-84739999D01*
X144100887Y-84835237D02*
X143700887Y-84835237D01*
X143700887Y-84835237D02*
X143700887Y-84682856D01*
X143700887Y-84682856D02*
X143719935Y-84644761D01*
X143719935Y-84644761D02*
X143738982Y-84625714D01*
X143738982Y-84625714D02*
X143777078Y-84606666D01*
X143777078Y-84606666D02*
X143834220Y-84606666D01*
X143834220Y-84606666D02*
X143872316Y-84625714D01*
X143872316Y-84625714D02*
X143891363Y-84644761D01*
X143891363Y-84644761D02*
X143910411Y-84682856D01*
X143910411Y-84682856D02*
X143910411Y-84835237D01*
X143700887Y-84473333D02*
X143700887Y-84206666D01*
X143700887Y-84206666D02*
X144100887Y-84378095D01*
X127554286Y-94550887D02*
X127554286Y-94150887D01*
X127554286Y-94150887D02*
X127649524Y-94150887D01*
X127649524Y-94150887D02*
X127706667Y-94169935D01*
X127706667Y-94169935D02*
X127744762Y-94208030D01*
X127744762Y-94208030D02*
X127763809Y-94246125D01*
X127763809Y-94246125D02*
X127782857Y-94322316D01*
X127782857Y-94322316D02*
X127782857Y-94379459D01*
X127782857Y-94379459D02*
X127763809Y-94455649D01*
X127763809Y-94455649D02*
X127744762Y-94493744D01*
X127744762Y-94493744D02*
X127706667Y-94531840D01*
X127706667Y-94531840D02*
X127649524Y-94550887D01*
X127649524Y-94550887D02*
X127554286Y-94550887D01*
X128163809Y-94550887D02*
X127935238Y-94550887D01*
X128049524Y-94550887D02*
X128049524Y-94150887D01*
X128049524Y-94150887D02*
X128011428Y-94208030D01*
X128011428Y-94208030D02*
X127973333Y-94246125D01*
X127973333Y-94246125D02*
X127935238Y-94265173D01*
X128297142Y-94150887D02*
X128544761Y-94150887D01*
X128544761Y-94150887D02*
X128411428Y-94303268D01*
X128411428Y-94303268D02*
X128468571Y-94303268D01*
X128468571Y-94303268D02*
X128506666Y-94322316D01*
X128506666Y-94322316D02*
X128525714Y-94341363D01*
X128525714Y-94341363D02*
X128544761Y-94379459D01*
X128544761Y-94379459D02*
X128544761Y-94474697D01*
X128544761Y-94474697D02*
X128525714Y-94512792D01*
X128525714Y-94512792D02*
X128506666Y-94531840D01*
X128506666Y-94531840D02*
X128468571Y-94550887D01*
X128468571Y-94550887D02*
X128354285Y-94550887D01*
X128354285Y-94550887D02*
X128316190Y-94531840D01*
X128316190Y-94531840D02*
X128297142Y-94512792D01*
X128522857Y-100560887D02*
X128389524Y-100370411D01*
X128294286Y-100560887D02*
X128294286Y-100160887D01*
X128294286Y-100160887D02*
X128446667Y-100160887D01*
X128446667Y-100160887D02*
X128484762Y-100179935D01*
X128484762Y-100179935D02*
X128503809Y-100198982D01*
X128503809Y-100198982D02*
X128522857Y-100237078D01*
X128522857Y-100237078D02*
X128522857Y-100294220D01*
X128522857Y-100294220D02*
X128503809Y-100332316D01*
X128503809Y-100332316D02*
X128484762Y-100351363D01*
X128484762Y-100351363D02*
X128446667Y-100370411D01*
X128446667Y-100370411D02*
X128294286Y-100370411D01*
X128675238Y-100198982D02*
X128694286Y-100179935D01*
X128694286Y-100179935D02*
X128732381Y-100160887D01*
X128732381Y-100160887D02*
X128827619Y-100160887D01*
X128827619Y-100160887D02*
X128865714Y-100179935D01*
X128865714Y-100179935D02*
X128884762Y-100198982D01*
X128884762Y-100198982D02*
X128903809Y-100237078D01*
X128903809Y-100237078D02*
X128903809Y-100275173D01*
X128903809Y-100275173D02*
X128884762Y-100332316D01*
X128884762Y-100332316D02*
X128656190Y-100560887D01*
X128656190Y-100560887D02*
X128903809Y-100560887D01*
X129265714Y-100160887D02*
X129075238Y-100160887D01*
X129075238Y-100160887D02*
X129056190Y-100351363D01*
X129056190Y-100351363D02*
X129075238Y-100332316D01*
X129075238Y-100332316D02*
X129113333Y-100313268D01*
X129113333Y-100313268D02*
X129208571Y-100313268D01*
X129208571Y-100313268D02*
X129246666Y-100332316D01*
X129246666Y-100332316D02*
X129265714Y-100351363D01*
X129265714Y-100351363D02*
X129284761Y-100389459D01*
X129284761Y-100389459D02*
X129284761Y-100484697D01*
X129284761Y-100484697D02*
X129265714Y-100522792D01*
X129265714Y-100522792D02*
X129246666Y-100541840D01*
X129246666Y-100541840D02*
X129208571Y-100560887D01*
X129208571Y-100560887D02*
X129113333Y-100560887D01*
X129113333Y-100560887D02*
X129075238Y-100541840D01*
X129075238Y-100541840D02*
X129056190Y-100522792D01*
D12*
X139610000Y-90255145D02*
X139467143Y-90255145D01*
X139467143Y-90255145D02*
X139467143Y-89955145D01*
X139695714Y-89983717D02*
X139710000Y-89969431D01*
X139710000Y-89969431D02*
X139738572Y-89955145D01*
X139738572Y-89955145D02*
X139810000Y-89955145D01*
X139810000Y-89955145D02*
X139838572Y-89969431D01*
X139838572Y-89969431D02*
X139852857Y-89983717D01*
X139852857Y-89983717D02*
X139867143Y-90012288D01*
X139867143Y-90012288D02*
X139867143Y-90040860D01*
X139867143Y-90040860D02*
X139852857Y-90083717D01*
X139852857Y-90083717D02*
X139681429Y-90255145D01*
X139681429Y-90255145D02*
X139867143Y-90255145D01*
D13*
X126872792Y-83837142D02*
X126891840Y-83856190D01*
X126891840Y-83856190D02*
X126910887Y-83913332D01*
X126910887Y-83913332D02*
X126910887Y-83951428D01*
X126910887Y-83951428D02*
X126891840Y-84008571D01*
X126891840Y-84008571D02*
X126853744Y-84046666D01*
X126853744Y-84046666D02*
X126815649Y-84065713D01*
X126815649Y-84065713D02*
X126739459Y-84084761D01*
X126739459Y-84084761D02*
X126682316Y-84084761D01*
X126682316Y-84084761D02*
X126606125Y-84065713D01*
X126606125Y-84065713D02*
X126568030Y-84046666D01*
X126568030Y-84046666D02*
X126529935Y-84008571D01*
X126529935Y-84008571D02*
X126510887Y-83951428D01*
X126510887Y-83951428D02*
X126510887Y-83913332D01*
X126510887Y-83913332D02*
X126529935Y-83856190D01*
X126529935Y-83856190D02*
X126548982Y-83837142D01*
X126510887Y-83703809D02*
X126510887Y-83456190D01*
X126510887Y-83456190D02*
X126663268Y-83589523D01*
X126663268Y-83589523D02*
X126663268Y-83532380D01*
X126663268Y-83532380D02*
X126682316Y-83494285D01*
X126682316Y-83494285D02*
X126701363Y-83475237D01*
X126701363Y-83475237D02*
X126739459Y-83456190D01*
X126739459Y-83456190D02*
X126834697Y-83456190D01*
X126834697Y-83456190D02*
X126872792Y-83475237D01*
X126872792Y-83475237D02*
X126891840Y-83494285D01*
X126891840Y-83494285D02*
X126910887Y-83532380D01*
X126910887Y-83532380D02*
X126910887Y-83646666D01*
X126910887Y-83646666D02*
X126891840Y-83684761D01*
X126891840Y-83684761D02*
X126872792Y-83703809D01*
X126510887Y-83208571D02*
X126510887Y-83170476D01*
X126510887Y-83170476D02*
X126529935Y-83132380D01*
X126529935Y-83132380D02*
X126548982Y-83113333D01*
X126548982Y-83113333D02*
X126587078Y-83094285D01*
X126587078Y-83094285D02*
X126663268Y-83075238D01*
X126663268Y-83075238D02*
X126758506Y-83075238D01*
X126758506Y-83075238D02*
X126834697Y-83094285D01*
X126834697Y-83094285D02*
X126872792Y-83113333D01*
X126872792Y-83113333D02*
X126891840Y-83132380D01*
X126891840Y-83132380D02*
X126910887Y-83170476D01*
X126910887Y-83170476D02*
X126910887Y-83208571D01*
X126910887Y-83208571D02*
X126891840Y-83246666D01*
X126891840Y-83246666D02*
X126872792Y-83265714D01*
X126872792Y-83265714D02*
X126834697Y-83284761D01*
X126834697Y-83284761D02*
X126758506Y-83303809D01*
X126758506Y-83303809D02*
X126663268Y-83303809D01*
X126663268Y-83303809D02*
X126587078Y-83284761D01*
X126587078Y-83284761D02*
X126548982Y-83265714D01*
X126548982Y-83265714D02*
X126529935Y-83246666D01*
X126529935Y-83246666D02*
X126510887Y-83208571D01*
D11*
X141126666Y-80946629D02*
X140960000Y-80708534D01*
X140840952Y-80946629D02*
X140840952Y-80446629D01*
X140840952Y-80446629D02*
X141031428Y-80446629D01*
X141031428Y-80446629D02*
X141079047Y-80470439D01*
X141079047Y-80470439D02*
X141102857Y-80494248D01*
X141102857Y-80494248D02*
X141126666Y-80541867D01*
X141126666Y-80541867D02*
X141126666Y-80613296D01*
X141126666Y-80613296D02*
X141102857Y-80660915D01*
X141102857Y-80660915D02*
X141079047Y-80684724D01*
X141079047Y-80684724D02*
X141031428Y-80708534D01*
X141031428Y-80708534D02*
X140840952Y-80708534D01*
X141412381Y-80660915D02*
X141364762Y-80637105D01*
X141364762Y-80637105D02*
X141340952Y-80613296D01*
X141340952Y-80613296D02*
X141317143Y-80565677D01*
X141317143Y-80565677D02*
X141317143Y-80541867D01*
X141317143Y-80541867D02*
X141340952Y-80494248D01*
X141340952Y-80494248D02*
X141364762Y-80470439D01*
X141364762Y-80470439D02*
X141412381Y-80446629D01*
X141412381Y-80446629D02*
X141507619Y-80446629D01*
X141507619Y-80446629D02*
X141555238Y-80470439D01*
X141555238Y-80470439D02*
X141579047Y-80494248D01*
X141579047Y-80494248D02*
X141602857Y-80541867D01*
X141602857Y-80541867D02*
X141602857Y-80565677D01*
X141602857Y-80565677D02*
X141579047Y-80613296D01*
X141579047Y-80613296D02*
X141555238Y-80637105D01*
X141555238Y-80637105D02*
X141507619Y-80660915D01*
X141507619Y-80660915D02*
X141412381Y-80660915D01*
X141412381Y-80660915D02*
X141364762Y-80684724D01*
X141364762Y-80684724D02*
X141340952Y-80708534D01*
X141340952Y-80708534D02*
X141317143Y-80756153D01*
X141317143Y-80756153D02*
X141317143Y-80851391D01*
X141317143Y-80851391D02*
X141340952Y-80899010D01*
X141340952Y-80899010D02*
X141364762Y-80922820D01*
X141364762Y-80922820D02*
X141412381Y-80946629D01*
X141412381Y-80946629D02*
X141507619Y-80946629D01*
X141507619Y-80946629D02*
X141555238Y-80922820D01*
X141555238Y-80922820D02*
X141579047Y-80899010D01*
X141579047Y-80899010D02*
X141602857Y-80851391D01*
X141602857Y-80851391D02*
X141602857Y-80756153D01*
X141602857Y-80756153D02*
X141579047Y-80708534D01*
X141579047Y-80708534D02*
X141555238Y-80684724D01*
X141555238Y-80684724D02*
X141507619Y-80660915D01*
D12*
X130067143Y-92486574D02*
X130052857Y-92500860D01*
X130052857Y-92500860D02*
X130010000Y-92515145D01*
X130010000Y-92515145D02*
X129981428Y-92515145D01*
X129981428Y-92515145D02*
X129938571Y-92500860D01*
X129938571Y-92500860D02*
X129910000Y-92472288D01*
X129910000Y-92472288D02*
X129895714Y-92443717D01*
X129895714Y-92443717D02*
X129881428Y-92386574D01*
X129881428Y-92386574D02*
X129881428Y-92343717D01*
X129881428Y-92343717D02*
X129895714Y-92286574D01*
X129895714Y-92286574D02*
X129910000Y-92258002D01*
X129910000Y-92258002D02*
X129938571Y-92229431D01*
X129938571Y-92229431D02*
X129981428Y-92215145D01*
X129981428Y-92215145D02*
X130010000Y-92215145D01*
X130010000Y-92215145D02*
X130052857Y-92229431D01*
X130052857Y-92229431D02*
X130067143Y-92243717D01*
X130181428Y-92243717D02*
X130195714Y-92229431D01*
X130195714Y-92229431D02*
X130224286Y-92215145D01*
X130224286Y-92215145D02*
X130295714Y-92215145D01*
X130295714Y-92215145D02*
X130324286Y-92229431D01*
X130324286Y-92229431D02*
X130338571Y-92243717D01*
X130338571Y-92243717D02*
X130352857Y-92272288D01*
X130352857Y-92272288D02*
X130352857Y-92300860D01*
X130352857Y-92300860D02*
X130338571Y-92343717D01*
X130338571Y-92343717D02*
X130167143Y-92515145D01*
X130167143Y-92515145D02*
X130352857Y-92515145D01*
X130495714Y-92515145D02*
X130552857Y-92515145D01*
X130552857Y-92515145D02*
X130581428Y-92500860D01*
X130581428Y-92500860D02*
X130595714Y-92486574D01*
X130595714Y-92486574D02*
X130624285Y-92443717D01*
X130624285Y-92443717D02*
X130638571Y-92386574D01*
X130638571Y-92386574D02*
X130638571Y-92272288D01*
X130638571Y-92272288D02*
X130624285Y-92243717D01*
X130624285Y-92243717D02*
X130610000Y-92229431D01*
X130610000Y-92229431D02*
X130581428Y-92215145D01*
X130581428Y-92215145D02*
X130524285Y-92215145D01*
X130524285Y-92215145D02*
X130495714Y-92229431D01*
X130495714Y-92229431D02*
X130481428Y-92243717D01*
X130481428Y-92243717D02*
X130467142Y-92272288D01*
X130467142Y-92272288D02*
X130467142Y-92343717D01*
X130467142Y-92343717D02*
X130481428Y-92372288D01*
X130481428Y-92372288D02*
X130495714Y-92386574D01*
X130495714Y-92386574D02*
X130524285Y-92400860D01*
X130524285Y-92400860D02*
X130581428Y-92400860D01*
X130581428Y-92400860D02*
X130610000Y-92386574D01*
X130610000Y-92386574D02*
X130624285Y-92372288D01*
X130624285Y-92372288D02*
X130638571Y-92343717D01*
D13*
X144512857Y-99362792D02*
X144493809Y-99381840D01*
X144493809Y-99381840D02*
X144436667Y-99400887D01*
X144436667Y-99400887D02*
X144398571Y-99400887D01*
X144398571Y-99400887D02*
X144341428Y-99381840D01*
X144341428Y-99381840D02*
X144303333Y-99343744D01*
X144303333Y-99343744D02*
X144284286Y-99305649D01*
X144284286Y-99305649D02*
X144265238Y-99229459D01*
X144265238Y-99229459D02*
X144265238Y-99172316D01*
X144265238Y-99172316D02*
X144284286Y-99096125D01*
X144284286Y-99096125D02*
X144303333Y-99058030D01*
X144303333Y-99058030D02*
X144341428Y-99019935D01*
X144341428Y-99019935D02*
X144398571Y-99000887D01*
X144398571Y-99000887D02*
X144436667Y-99000887D01*
X144436667Y-99000887D02*
X144493809Y-99019935D01*
X144493809Y-99019935D02*
X144512857Y-99038982D01*
X144893809Y-99400887D02*
X144665238Y-99400887D01*
X144779524Y-99400887D02*
X144779524Y-99000887D01*
X144779524Y-99000887D02*
X144741428Y-99058030D01*
X144741428Y-99058030D02*
X144703333Y-99096125D01*
X144703333Y-99096125D02*
X144665238Y-99115173D01*
X145236666Y-99134220D02*
X145236666Y-99400887D01*
X145141428Y-98981840D02*
X145046190Y-99267554D01*
X145046190Y-99267554D02*
X145293809Y-99267554D01*
X123415238Y-102670887D02*
X123643809Y-102670887D01*
X123529523Y-103070887D02*
X123529523Y-102670887D01*
X123777143Y-103070887D02*
X123777143Y-102670887D01*
X123777143Y-102670887D02*
X123929524Y-102670887D01*
X123929524Y-102670887D02*
X123967619Y-102689935D01*
X123967619Y-102689935D02*
X123986666Y-102708982D01*
X123986666Y-102708982D02*
X124005714Y-102747078D01*
X124005714Y-102747078D02*
X124005714Y-102804220D01*
X124005714Y-102804220D02*
X123986666Y-102842316D01*
X123986666Y-102842316D02*
X123967619Y-102861363D01*
X123967619Y-102861363D02*
X123929524Y-102880411D01*
X123929524Y-102880411D02*
X123777143Y-102880411D01*
X124386666Y-103070887D02*
X124158095Y-103070887D01*
X124272381Y-103070887D02*
X124272381Y-102670887D01*
X124272381Y-102670887D02*
X124234285Y-102728030D01*
X124234285Y-102728030D02*
X124196190Y-102766125D01*
X124196190Y-102766125D02*
X124158095Y-102785173D01*
D14*
X153995665Y-80458570D02*
X153995665Y-80287142D01*
X154295665Y-80372856D02*
X153995665Y-80372856D01*
X154295665Y-80187142D02*
X153995665Y-80187142D01*
X153995665Y-80187142D02*
X153995665Y-80072856D01*
X153995665Y-80072856D02*
X154009951Y-80044285D01*
X154009951Y-80044285D02*
X154024237Y-80029999D01*
X154024237Y-80029999D02*
X154052808Y-80015713D01*
X154052808Y-80015713D02*
X154095665Y-80015713D01*
X154095665Y-80015713D02*
X154124237Y-80029999D01*
X154124237Y-80029999D02*
X154138522Y-80044285D01*
X154138522Y-80044285D02*
X154152808Y-80072856D01*
X154152808Y-80072856D02*
X154152808Y-80187142D01*
X153995665Y-79758571D02*
X153995665Y-79815713D01*
X153995665Y-79815713D02*
X154009951Y-79844285D01*
X154009951Y-79844285D02*
X154024237Y-79858571D01*
X154024237Y-79858571D02*
X154067094Y-79887142D01*
X154067094Y-79887142D02*
X154124237Y-79901428D01*
X154124237Y-79901428D02*
X154238522Y-79901428D01*
X154238522Y-79901428D02*
X154267094Y-79887142D01*
X154267094Y-79887142D02*
X154281380Y-79872856D01*
X154281380Y-79872856D02*
X154295665Y-79844285D01*
X154295665Y-79844285D02*
X154295665Y-79787142D01*
X154295665Y-79787142D02*
X154281380Y-79758571D01*
X154281380Y-79758571D02*
X154267094Y-79744285D01*
X154267094Y-79744285D02*
X154238522Y-79729999D01*
X154238522Y-79729999D02*
X154167094Y-79729999D01*
X154167094Y-79729999D02*
X154138522Y-79744285D01*
X154138522Y-79744285D02*
X154124237Y-79758571D01*
X154124237Y-79758571D02*
X154109951Y-79787142D01*
X154109951Y-79787142D02*
X154109951Y-79844285D01*
X154109951Y-79844285D02*
X154124237Y-79872856D01*
X154124237Y-79872856D02*
X154138522Y-79887142D01*
X154138522Y-79887142D02*
X154167094Y-79901428D01*
D10*
X121483333Y-75846109D02*
X121483333Y-76203252D01*
X121483333Y-76203252D02*
X121459524Y-76274680D01*
X121459524Y-76274680D02*
X121411905Y-76322300D01*
X121411905Y-76322300D02*
X121340476Y-76346109D01*
X121340476Y-76346109D02*
X121292857Y-76346109D01*
X121673809Y-75846109D02*
X121983333Y-75846109D01*
X121983333Y-75846109D02*
X121816666Y-76036585D01*
X121816666Y-76036585D02*
X121888095Y-76036585D01*
X121888095Y-76036585D02*
X121935714Y-76060395D01*
X121935714Y-76060395D02*
X121959523Y-76084204D01*
X121959523Y-76084204D02*
X121983333Y-76131823D01*
X121983333Y-76131823D02*
X121983333Y-76250871D01*
X121983333Y-76250871D02*
X121959523Y-76298490D01*
X121959523Y-76298490D02*
X121935714Y-76322300D01*
X121935714Y-76322300D02*
X121888095Y-76346109D01*
X121888095Y-76346109D02*
X121745238Y-76346109D01*
X121745238Y-76346109D02*
X121697619Y-76322300D01*
X121697619Y-76322300D02*
X121673809Y-76298490D01*
D12*
X124116574Y-87819999D02*
X124130860Y-87834285D01*
X124130860Y-87834285D02*
X124145145Y-87877142D01*
X124145145Y-87877142D02*
X124145145Y-87905714D01*
X124145145Y-87905714D02*
X124130860Y-87948571D01*
X124130860Y-87948571D02*
X124102288Y-87977142D01*
X124102288Y-87977142D02*
X124073717Y-87991428D01*
X124073717Y-87991428D02*
X124016574Y-88005714D01*
X124016574Y-88005714D02*
X123973717Y-88005714D01*
X123973717Y-88005714D02*
X123916574Y-87991428D01*
X123916574Y-87991428D02*
X123888002Y-87977142D01*
X123888002Y-87977142D02*
X123859431Y-87948571D01*
X123859431Y-87948571D02*
X123845145Y-87905714D01*
X123845145Y-87905714D02*
X123845145Y-87877142D01*
X123845145Y-87877142D02*
X123859431Y-87834285D01*
X123859431Y-87834285D02*
X123873717Y-87819999D01*
X123873717Y-87705714D02*
X123859431Y-87691428D01*
X123859431Y-87691428D02*
X123845145Y-87662857D01*
X123845145Y-87662857D02*
X123845145Y-87591428D01*
X123845145Y-87591428D02*
X123859431Y-87562857D01*
X123859431Y-87562857D02*
X123873717Y-87548571D01*
X123873717Y-87548571D02*
X123902288Y-87534285D01*
X123902288Y-87534285D02*
X123930860Y-87534285D01*
X123930860Y-87534285D02*
X123973717Y-87548571D01*
X123973717Y-87548571D02*
X124145145Y-87719999D01*
X124145145Y-87719999D02*
X124145145Y-87534285D01*
X125825145Y-88072856D02*
X125682288Y-88172856D01*
X125825145Y-88244285D02*
X125525145Y-88244285D01*
X125525145Y-88244285D02*
X125525145Y-88129999D01*
X125525145Y-88129999D02*
X125539431Y-88101428D01*
X125539431Y-88101428D02*
X125553717Y-88087142D01*
X125553717Y-88087142D02*
X125582288Y-88072856D01*
X125582288Y-88072856D02*
X125625145Y-88072856D01*
X125625145Y-88072856D02*
X125653717Y-88087142D01*
X125653717Y-88087142D02*
X125668002Y-88101428D01*
X125668002Y-88101428D02*
X125682288Y-88129999D01*
X125682288Y-88129999D02*
X125682288Y-88244285D01*
X125553717Y-87958571D02*
X125539431Y-87944285D01*
X125539431Y-87944285D02*
X125525145Y-87915714D01*
X125525145Y-87915714D02*
X125525145Y-87844285D01*
X125525145Y-87844285D02*
X125539431Y-87815714D01*
X125539431Y-87815714D02*
X125553717Y-87801428D01*
X125553717Y-87801428D02*
X125582288Y-87787142D01*
X125582288Y-87787142D02*
X125610860Y-87787142D01*
X125610860Y-87787142D02*
X125653717Y-87801428D01*
X125653717Y-87801428D02*
X125825145Y-87972856D01*
X125825145Y-87972856D02*
X125825145Y-87787142D01*
X125553717Y-87672857D02*
X125539431Y-87658571D01*
X125539431Y-87658571D02*
X125525145Y-87630000D01*
X125525145Y-87630000D02*
X125525145Y-87558571D01*
X125525145Y-87558571D02*
X125539431Y-87530000D01*
X125539431Y-87530000D02*
X125553717Y-87515714D01*
X125553717Y-87515714D02*
X125582288Y-87501428D01*
X125582288Y-87501428D02*
X125610860Y-87501428D01*
X125610860Y-87501428D02*
X125653717Y-87515714D01*
X125653717Y-87515714D02*
X125825145Y-87687142D01*
X125825145Y-87687142D02*
X125825145Y-87501428D01*
X130325145Y-94882856D02*
X130182288Y-94982856D01*
X130325145Y-95054285D02*
X130025145Y-95054285D01*
X130025145Y-95054285D02*
X130025145Y-94939999D01*
X130025145Y-94939999D02*
X130039431Y-94911428D01*
X130039431Y-94911428D02*
X130053717Y-94897142D01*
X130053717Y-94897142D02*
X130082288Y-94882856D01*
X130082288Y-94882856D02*
X130125145Y-94882856D01*
X130125145Y-94882856D02*
X130153717Y-94897142D01*
X130153717Y-94897142D02*
X130168002Y-94911428D01*
X130168002Y-94911428D02*
X130182288Y-94939999D01*
X130182288Y-94939999D02*
X130182288Y-95054285D01*
X130025145Y-94782856D02*
X130025145Y-94597142D01*
X130025145Y-94597142D02*
X130139431Y-94697142D01*
X130139431Y-94697142D02*
X130139431Y-94654285D01*
X130139431Y-94654285D02*
X130153717Y-94625714D01*
X130153717Y-94625714D02*
X130168002Y-94611428D01*
X130168002Y-94611428D02*
X130196574Y-94597142D01*
X130196574Y-94597142D02*
X130268002Y-94597142D01*
X130268002Y-94597142D02*
X130296574Y-94611428D01*
X130296574Y-94611428D02*
X130310860Y-94625714D01*
X130310860Y-94625714D02*
X130325145Y-94654285D01*
X130325145Y-94654285D02*
X130325145Y-94739999D01*
X130325145Y-94739999D02*
X130310860Y-94768571D01*
X130310860Y-94768571D02*
X130296574Y-94782856D01*
X130325145Y-94311428D02*
X130325145Y-94482857D01*
X130325145Y-94397142D02*
X130025145Y-94397142D01*
X130025145Y-94397142D02*
X130068002Y-94425714D01*
X130068002Y-94425714D02*
X130096574Y-94454285D01*
X130096574Y-94454285D02*
X130110860Y-94482857D01*
X151430000Y-78105145D02*
X151430000Y-78319431D01*
X151430000Y-78319431D02*
X151415715Y-78362288D01*
X151415715Y-78362288D02*
X151387143Y-78390860D01*
X151387143Y-78390860D02*
X151344286Y-78405145D01*
X151344286Y-78405145D02*
X151315715Y-78405145D01*
X151587143Y-78405145D02*
X151644286Y-78405145D01*
X151644286Y-78405145D02*
X151672857Y-78390860D01*
X151672857Y-78390860D02*
X151687143Y-78376574D01*
X151687143Y-78376574D02*
X151715714Y-78333717D01*
X151715714Y-78333717D02*
X151730000Y-78276574D01*
X151730000Y-78276574D02*
X151730000Y-78162288D01*
X151730000Y-78162288D02*
X151715714Y-78133717D01*
X151715714Y-78133717D02*
X151701429Y-78119431D01*
X151701429Y-78119431D02*
X151672857Y-78105145D01*
X151672857Y-78105145D02*
X151615714Y-78105145D01*
X151615714Y-78105145D02*
X151587143Y-78119431D01*
X151587143Y-78119431D02*
X151572857Y-78133717D01*
X151572857Y-78133717D02*
X151558571Y-78162288D01*
X151558571Y-78162288D02*
X151558571Y-78233717D01*
X151558571Y-78233717D02*
X151572857Y-78262288D01*
X151572857Y-78262288D02*
X151587143Y-78276574D01*
X151587143Y-78276574D02*
X151615714Y-78290860D01*
X151615714Y-78290860D02*
X151672857Y-78290860D01*
X151672857Y-78290860D02*
X151701429Y-78276574D01*
X151701429Y-78276574D02*
X151715714Y-78262288D01*
X151715714Y-78262288D02*
X151730000Y-78233717D01*
X142611407Y-84346666D02*
X142420931Y-84479999D01*
X142611407Y-84575237D02*
X142211407Y-84575237D01*
X142211407Y-84575237D02*
X142211407Y-84422856D01*
X142211407Y-84422856D02*
X142230455Y-84384761D01*
X142230455Y-84384761D02*
X142249502Y-84365714D01*
X142249502Y-84365714D02*
X142287598Y-84346666D01*
X142287598Y-84346666D02*
X142344740Y-84346666D01*
X142344740Y-84346666D02*
X142382836Y-84365714D01*
X142382836Y-84365714D02*
X142401883Y-84384761D01*
X142401883Y-84384761D02*
X142420931Y-84422856D01*
X142420931Y-84422856D02*
X142420931Y-84575237D01*
X142611407Y-84156190D02*
X142611407Y-84079999D01*
X142611407Y-84079999D02*
X142592360Y-84041904D01*
X142592360Y-84041904D02*
X142573312Y-84022856D01*
X142573312Y-84022856D02*
X142516169Y-83984761D01*
X142516169Y-83984761D02*
X142439979Y-83965714D01*
X142439979Y-83965714D02*
X142287598Y-83965714D01*
X142287598Y-83965714D02*
X142249502Y-83984761D01*
X142249502Y-83984761D02*
X142230455Y-84003809D01*
X142230455Y-84003809D02*
X142211407Y-84041904D01*
X142211407Y-84041904D02*
X142211407Y-84118095D01*
X142211407Y-84118095D02*
X142230455Y-84156190D01*
X142230455Y-84156190D02*
X142249502Y-84175237D01*
X142249502Y-84175237D02*
X142287598Y-84194285D01*
X142287598Y-84194285D02*
X142382836Y-84194285D01*
X142382836Y-84194285D02*
X142420931Y-84175237D01*
X142420931Y-84175237D02*
X142439979Y-84156190D01*
X142439979Y-84156190D02*
X142459026Y-84118095D01*
X142459026Y-84118095D02*
X142459026Y-84041904D01*
X142459026Y-84041904D02*
X142439979Y-84003809D01*
X142439979Y-84003809D02*
X142420931Y-83984761D01*
X142420931Y-83984761D02*
X142382836Y-83965714D01*
D11*
X129133333Y-75836629D02*
X129133333Y-76193772D01*
X129133333Y-76193772D02*
X129109524Y-76265200D01*
X129109524Y-76265200D02*
X129061905Y-76312820D01*
X129061905Y-76312820D02*
X128990476Y-76336629D01*
X128990476Y-76336629D02*
X128942857Y-76336629D01*
X129585714Y-76003296D02*
X129585714Y-76336629D01*
X129466666Y-75812820D02*
X129347619Y-76169962D01*
X129347619Y-76169962D02*
X129657142Y-76169962D01*
D13*
X142332857Y-106260887D02*
X142199524Y-106070411D01*
X142104286Y-106260887D02*
X142104286Y-105860887D01*
X142104286Y-105860887D02*
X142256667Y-105860887D01*
X142256667Y-105860887D02*
X142294762Y-105879935D01*
X142294762Y-105879935D02*
X142313809Y-105898982D01*
X142313809Y-105898982D02*
X142332857Y-105937078D01*
X142332857Y-105937078D02*
X142332857Y-105994220D01*
X142332857Y-105994220D02*
X142313809Y-106032316D01*
X142313809Y-106032316D02*
X142294762Y-106051363D01*
X142294762Y-106051363D02*
X142256667Y-106070411D01*
X142256667Y-106070411D02*
X142104286Y-106070411D01*
X142713809Y-106260887D02*
X142485238Y-106260887D01*
X142599524Y-106260887D02*
X142599524Y-105860887D01*
X142599524Y-105860887D02*
X142561428Y-105918030D01*
X142561428Y-105918030D02*
X142523333Y-105956125D01*
X142523333Y-105956125D02*
X142485238Y-105975173D01*
X143056666Y-105994220D02*
X143056666Y-106260887D01*
X142961428Y-105841840D02*
X142866190Y-106127554D01*
X142866190Y-106127554D02*
X143113809Y-106127554D01*
X128445238Y-102640887D02*
X128673809Y-102640887D01*
X128559523Y-103040887D02*
X128559523Y-102640887D01*
X128807143Y-103040887D02*
X128807143Y-102640887D01*
X128807143Y-102640887D02*
X128959524Y-102640887D01*
X128959524Y-102640887D02*
X128997619Y-102659935D01*
X128997619Y-102659935D02*
X129016666Y-102678982D01*
X129016666Y-102678982D02*
X129035714Y-102717078D01*
X129035714Y-102717078D02*
X129035714Y-102774220D01*
X129035714Y-102774220D02*
X129016666Y-102812316D01*
X129016666Y-102812316D02*
X128997619Y-102831363D01*
X128997619Y-102831363D02*
X128959524Y-102850411D01*
X128959524Y-102850411D02*
X128807143Y-102850411D01*
X129188095Y-102678982D02*
X129207143Y-102659935D01*
X129207143Y-102659935D02*
X129245238Y-102640887D01*
X129245238Y-102640887D02*
X129340476Y-102640887D01*
X129340476Y-102640887D02*
X129378571Y-102659935D01*
X129378571Y-102659935D02*
X129397619Y-102678982D01*
X129397619Y-102678982D02*
X129416666Y-102717078D01*
X129416666Y-102717078D02*
X129416666Y-102755173D01*
X129416666Y-102755173D02*
X129397619Y-102812316D01*
X129397619Y-102812316D02*
X129169047Y-103040887D01*
X129169047Y-103040887D02*
X129416666Y-103040887D01*
D14*
X133617143Y-92845665D02*
X133517143Y-92702808D01*
X133445714Y-92845665D02*
X133445714Y-92545665D01*
X133445714Y-92545665D02*
X133560000Y-92545665D01*
X133560000Y-92545665D02*
X133588571Y-92559951D01*
X133588571Y-92559951D02*
X133602857Y-92574237D01*
X133602857Y-92574237D02*
X133617143Y-92602808D01*
X133617143Y-92602808D02*
X133617143Y-92645665D01*
X133617143Y-92645665D02*
X133602857Y-92674237D01*
X133602857Y-92674237D02*
X133588571Y-92688522D01*
X133588571Y-92688522D02*
X133560000Y-92702808D01*
X133560000Y-92702808D02*
X133445714Y-92702808D01*
X133902857Y-92845665D02*
X133731428Y-92845665D01*
X133817143Y-92845665D02*
X133817143Y-92545665D01*
X133817143Y-92545665D02*
X133788571Y-92588522D01*
X133788571Y-92588522D02*
X133760000Y-92617094D01*
X133760000Y-92617094D02*
X133731428Y-92631380D01*
X134074285Y-92674237D02*
X134045714Y-92659951D01*
X134045714Y-92659951D02*
X134031428Y-92645665D01*
X134031428Y-92645665D02*
X134017142Y-92617094D01*
X134017142Y-92617094D02*
X134017142Y-92602808D01*
X134017142Y-92602808D02*
X134031428Y-92574237D01*
X134031428Y-92574237D02*
X134045714Y-92559951D01*
X134045714Y-92559951D02*
X134074285Y-92545665D01*
X134074285Y-92545665D02*
X134131428Y-92545665D01*
X134131428Y-92545665D02*
X134160000Y-92559951D01*
X134160000Y-92559951D02*
X134174285Y-92574237D01*
X134174285Y-92574237D02*
X134188571Y-92602808D01*
X134188571Y-92602808D02*
X134188571Y-92617094D01*
X134188571Y-92617094D02*
X134174285Y-92645665D01*
X134174285Y-92645665D02*
X134160000Y-92659951D01*
X134160000Y-92659951D02*
X134131428Y-92674237D01*
X134131428Y-92674237D02*
X134074285Y-92674237D01*
X134074285Y-92674237D02*
X134045714Y-92688522D01*
X134045714Y-92688522D02*
X134031428Y-92702808D01*
X134031428Y-92702808D02*
X134017142Y-92731380D01*
X134017142Y-92731380D02*
X134017142Y-92788522D01*
X134017142Y-92788522D02*
X134031428Y-92817094D01*
X134031428Y-92817094D02*
X134045714Y-92831380D01*
X134045714Y-92831380D02*
X134074285Y-92845665D01*
X134074285Y-92845665D02*
X134131428Y-92845665D01*
X134131428Y-92845665D02*
X134160000Y-92831380D01*
X134160000Y-92831380D02*
X134174285Y-92817094D01*
X134174285Y-92817094D02*
X134188571Y-92788522D01*
X134188571Y-92788522D02*
X134188571Y-92731380D01*
X134188571Y-92731380D02*
X134174285Y-92702808D01*
X134174285Y-92702808D02*
X134160000Y-92688522D01*
X134160000Y-92688522D02*
X134131428Y-92674237D01*
D13*
X132965238Y-85550887D02*
X132965238Y-85874697D01*
X132965238Y-85874697D02*
X132984285Y-85912792D01*
X132984285Y-85912792D02*
X133003333Y-85931840D01*
X133003333Y-85931840D02*
X133041428Y-85950887D01*
X133041428Y-85950887D02*
X133117619Y-85950887D01*
X133117619Y-85950887D02*
X133155714Y-85931840D01*
X133155714Y-85931840D02*
X133174761Y-85912792D01*
X133174761Y-85912792D02*
X133193809Y-85874697D01*
X133193809Y-85874697D02*
X133193809Y-85550887D01*
X133441428Y-85722316D02*
X133403333Y-85703268D01*
X133403333Y-85703268D02*
X133384286Y-85684220D01*
X133384286Y-85684220D02*
X133365238Y-85646125D01*
X133365238Y-85646125D02*
X133365238Y-85627078D01*
X133365238Y-85627078D02*
X133384286Y-85588982D01*
X133384286Y-85588982D02*
X133403333Y-85569935D01*
X133403333Y-85569935D02*
X133441428Y-85550887D01*
X133441428Y-85550887D02*
X133517619Y-85550887D01*
X133517619Y-85550887D02*
X133555714Y-85569935D01*
X133555714Y-85569935D02*
X133574762Y-85588982D01*
X133574762Y-85588982D02*
X133593809Y-85627078D01*
X133593809Y-85627078D02*
X133593809Y-85646125D01*
X133593809Y-85646125D02*
X133574762Y-85684220D01*
X133574762Y-85684220D02*
X133555714Y-85703268D01*
X133555714Y-85703268D02*
X133517619Y-85722316D01*
X133517619Y-85722316D02*
X133441428Y-85722316D01*
X133441428Y-85722316D02*
X133403333Y-85741363D01*
X133403333Y-85741363D02*
X133384286Y-85760411D01*
X133384286Y-85760411D02*
X133365238Y-85798506D01*
X133365238Y-85798506D02*
X133365238Y-85874697D01*
X133365238Y-85874697D02*
X133384286Y-85912792D01*
X133384286Y-85912792D02*
X133403333Y-85931840D01*
X133403333Y-85931840D02*
X133441428Y-85950887D01*
X133441428Y-85950887D02*
X133517619Y-85950887D01*
X133517619Y-85950887D02*
X133555714Y-85931840D01*
X133555714Y-85931840D02*
X133574762Y-85912792D01*
X133574762Y-85912792D02*
X133593809Y-85874697D01*
X133593809Y-85874697D02*
X133593809Y-85798506D01*
X133593809Y-85798506D02*
X133574762Y-85760411D01*
X133574762Y-85760411D02*
X133555714Y-85741363D01*
X133555714Y-85741363D02*
X133517619Y-85722316D01*
D12*
X133342249Y-94789884D02*
X133358916Y-94806551D01*
X133358916Y-94806551D02*
X133375582Y-94856551D01*
X133375582Y-94856551D02*
X133375582Y-94889884D01*
X133375582Y-94889884D02*
X133358916Y-94939884D01*
X133358916Y-94939884D02*
X133325582Y-94973218D01*
X133325582Y-94973218D02*
X133292249Y-94989884D01*
X133292249Y-94989884D02*
X133225582Y-95006551D01*
X133225582Y-95006551D02*
X133175582Y-95006551D01*
X133175582Y-95006551D02*
X133108916Y-94989884D01*
X133108916Y-94989884D02*
X133075582Y-94973218D01*
X133075582Y-94973218D02*
X133042249Y-94939884D01*
X133042249Y-94939884D02*
X133025582Y-94889884D01*
X133025582Y-94889884D02*
X133025582Y-94856551D01*
X133025582Y-94856551D02*
X133042249Y-94806551D01*
X133042249Y-94806551D02*
X133058916Y-94789884D01*
X133025582Y-94673218D02*
X133025582Y-94456551D01*
X133025582Y-94456551D02*
X133158916Y-94573218D01*
X133158916Y-94573218D02*
X133158916Y-94523218D01*
X133158916Y-94523218D02*
X133175582Y-94489884D01*
X133175582Y-94489884D02*
X133192249Y-94473218D01*
X133192249Y-94473218D02*
X133225582Y-94456551D01*
X133225582Y-94456551D02*
X133308916Y-94456551D01*
X133308916Y-94456551D02*
X133342249Y-94473218D01*
X133342249Y-94473218D02*
X133358916Y-94489884D01*
X133358916Y-94489884D02*
X133375582Y-94523218D01*
X133375582Y-94523218D02*
X133375582Y-94623218D01*
X133375582Y-94623218D02*
X133358916Y-94656551D01*
X133358916Y-94656551D02*
X133342249Y-94673218D01*
X133175582Y-94256551D02*
X133158916Y-94289885D01*
X133158916Y-94289885D02*
X133142249Y-94306551D01*
X133142249Y-94306551D02*
X133108916Y-94323218D01*
X133108916Y-94323218D02*
X133092249Y-94323218D01*
X133092249Y-94323218D02*
X133058916Y-94306551D01*
X133058916Y-94306551D02*
X133042249Y-94289885D01*
X133042249Y-94289885D02*
X133025582Y-94256551D01*
X133025582Y-94256551D02*
X133025582Y-94189885D01*
X133025582Y-94189885D02*
X133042249Y-94156551D01*
X133042249Y-94156551D02*
X133058916Y-94139885D01*
X133058916Y-94139885D02*
X133092249Y-94123218D01*
X133092249Y-94123218D02*
X133108916Y-94123218D01*
X133108916Y-94123218D02*
X133142249Y-94139885D01*
X133142249Y-94139885D02*
X133158916Y-94156551D01*
X133158916Y-94156551D02*
X133175582Y-94189885D01*
X133175582Y-94189885D02*
X133175582Y-94256551D01*
X133175582Y-94256551D02*
X133192249Y-94289885D01*
X133192249Y-94289885D02*
X133208916Y-94306551D01*
X133208916Y-94306551D02*
X133242249Y-94323218D01*
X133242249Y-94323218D02*
X133308916Y-94323218D01*
X133308916Y-94323218D02*
X133342249Y-94306551D01*
X133342249Y-94306551D02*
X133358916Y-94289885D01*
X133358916Y-94289885D02*
X133375582Y-94256551D01*
X133375582Y-94256551D02*
X133375582Y-94189885D01*
X133375582Y-94189885D02*
X133358916Y-94156551D01*
X133358916Y-94156551D02*
X133342249Y-94139885D01*
X133342249Y-94139885D02*
X133308916Y-94123218D01*
X133308916Y-94123218D02*
X133242249Y-94123218D01*
X133242249Y-94123218D02*
X133208916Y-94139885D01*
X133208916Y-94139885D02*
X133192249Y-94156551D01*
X133192249Y-94156551D02*
X133175582Y-94189885D01*
X126087143Y-90395145D02*
X125987143Y-90252288D01*
X125915714Y-90395145D02*
X125915714Y-90095145D01*
X125915714Y-90095145D02*
X126030000Y-90095145D01*
X126030000Y-90095145D02*
X126058571Y-90109431D01*
X126058571Y-90109431D02*
X126072857Y-90123717D01*
X126072857Y-90123717D02*
X126087143Y-90152288D01*
X126087143Y-90152288D02*
X126087143Y-90195145D01*
X126087143Y-90195145D02*
X126072857Y-90223717D01*
X126072857Y-90223717D02*
X126058571Y-90238002D01*
X126058571Y-90238002D02*
X126030000Y-90252288D01*
X126030000Y-90252288D02*
X125915714Y-90252288D01*
X126372857Y-90395145D02*
X126201428Y-90395145D01*
X126287143Y-90395145D02*
X126287143Y-90095145D01*
X126287143Y-90095145D02*
X126258571Y-90138002D01*
X126258571Y-90138002D02*
X126230000Y-90166574D01*
X126230000Y-90166574D02*
X126201428Y-90180860D01*
X126630000Y-90095145D02*
X126572857Y-90095145D01*
X126572857Y-90095145D02*
X126544285Y-90109431D01*
X126544285Y-90109431D02*
X126530000Y-90123717D01*
X126530000Y-90123717D02*
X126501428Y-90166574D01*
X126501428Y-90166574D02*
X126487142Y-90223717D01*
X126487142Y-90223717D02*
X126487142Y-90338002D01*
X126487142Y-90338002D02*
X126501428Y-90366574D01*
X126501428Y-90366574D02*
X126515714Y-90380860D01*
X126515714Y-90380860D02*
X126544285Y-90395145D01*
X126544285Y-90395145D02*
X126601428Y-90395145D01*
X126601428Y-90395145D02*
X126630000Y-90380860D01*
X126630000Y-90380860D02*
X126644285Y-90366574D01*
X126644285Y-90366574D02*
X126658571Y-90338002D01*
X126658571Y-90338002D02*
X126658571Y-90266574D01*
X126658571Y-90266574D02*
X126644285Y-90238002D01*
X126644285Y-90238002D02*
X126630000Y-90223717D01*
X126630000Y-90223717D02*
X126601428Y-90209431D01*
X126601428Y-90209431D02*
X126544285Y-90209431D01*
X126544285Y-90209431D02*
X126515714Y-90223717D01*
X126515714Y-90223717D02*
X126501428Y-90238002D01*
X126501428Y-90238002D02*
X126487142Y-90266574D01*
D14*
X152671429Y-76935665D02*
X152842858Y-76935665D01*
X152757143Y-77235665D02*
X152757143Y-76935665D01*
X152942857Y-77235665D02*
X152942857Y-76935665D01*
X152942857Y-76935665D02*
X153057143Y-76935665D01*
X153057143Y-76935665D02*
X153085714Y-76949951D01*
X153085714Y-76949951D02*
X153100000Y-76964237D01*
X153100000Y-76964237D02*
X153114286Y-76992808D01*
X153114286Y-76992808D02*
X153114286Y-77035665D01*
X153114286Y-77035665D02*
X153100000Y-77064237D01*
X153100000Y-77064237D02*
X153085714Y-77078522D01*
X153085714Y-77078522D02*
X153057143Y-77092808D01*
X153057143Y-77092808D02*
X152942857Y-77092808D01*
X153371429Y-77035665D02*
X153371429Y-77235665D01*
X153300000Y-76921380D02*
X153228571Y-77135665D01*
X153228571Y-77135665D02*
X153414286Y-77135665D01*
D13*
X121090887Y-92515237D02*
X120690887Y-92515237D01*
X120690887Y-92515237D02*
X120690887Y-92419999D01*
X120690887Y-92419999D02*
X120709935Y-92362856D01*
X120709935Y-92362856D02*
X120748030Y-92324761D01*
X120748030Y-92324761D02*
X120786125Y-92305714D01*
X120786125Y-92305714D02*
X120862316Y-92286666D01*
X120862316Y-92286666D02*
X120919459Y-92286666D01*
X120919459Y-92286666D02*
X120995649Y-92305714D01*
X120995649Y-92305714D02*
X121033744Y-92324761D01*
X121033744Y-92324761D02*
X121071840Y-92362856D01*
X121071840Y-92362856D02*
X121090887Y-92419999D01*
X121090887Y-92419999D02*
X121090887Y-92515237D01*
X121090887Y-91905714D02*
X121090887Y-92134285D01*
X121090887Y-92019999D02*
X120690887Y-92019999D01*
X120690887Y-92019999D02*
X120748030Y-92058095D01*
X120748030Y-92058095D02*
X120786125Y-92096190D01*
X120786125Y-92096190D02*
X120805173Y-92134285D01*
D12*
X131426574Y-98022856D02*
X131440860Y-98037142D01*
X131440860Y-98037142D02*
X131455145Y-98079999D01*
X131455145Y-98079999D02*
X131455145Y-98108571D01*
X131455145Y-98108571D02*
X131440860Y-98151428D01*
X131440860Y-98151428D02*
X131412288Y-98179999D01*
X131412288Y-98179999D02*
X131383717Y-98194285D01*
X131383717Y-98194285D02*
X131326574Y-98208571D01*
X131326574Y-98208571D02*
X131283717Y-98208571D01*
X131283717Y-98208571D02*
X131226574Y-98194285D01*
X131226574Y-98194285D02*
X131198002Y-98179999D01*
X131198002Y-98179999D02*
X131169431Y-98151428D01*
X131169431Y-98151428D02*
X131155145Y-98108571D01*
X131155145Y-98108571D02*
X131155145Y-98079999D01*
X131155145Y-98079999D02*
X131169431Y-98037142D01*
X131169431Y-98037142D02*
X131183717Y-98022856D01*
X131255145Y-97765714D02*
X131455145Y-97765714D01*
X131140860Y-97837142D02*
X131355145Y-97908571D01*
X131355145Y-97908571D02*
X131355145Y-97722856D01*
X131255145Y-97480000D02*
X131455145Y-97480000D01*
X131140860Y-97551428D02*
X131355145Y-97622857D01*
X131355145Y-97622857D02*
X131355145Y-97437142D01*
D13*
X125470887Y-98047142D02*
X125280411Y-98180475D01*
X125470887Y-98275713D02*
X125070887Y-98275713D01*
X125070887Y-98275713D02*
X125070887Y-98123332D01*
X125070887Y-98123332D02*
X125089935Y-98085237D01*
X125089935Y-98085237D02*
X125108982Y-98066190D01*
X125108982Y-98066190D02*
X125147078Y-98047142D01*
X125147078Y-98047142D02*
X125204220Y-98047142D01*
X125204220Y-98047142D02*
X125242316Y-98066190D01*
X125242316Y-98066190D02*
X125261363Y-98085237D01*
X125261363Y-98085237D02*
X125280411Y-98123332D01*
X125280411Y-98123332D02*
X125280411Y-98275713D01*
X125108982Y-97894761D02*
X125089935Y-97875713D01*
X125089935Y-97875713D02*
X125070887Y-97837618D01*
X125070887Y-97837618D02*
X125070887Y-97742380D01*
X125070887Y-97742380D02*
X125089935Y-97704285D01*
X125089935Y-97704285D02*
X125108982Y-97685237D01*
X125108982Y-97685237D02*
X125147078Y-97666190D01*
X125147078Y-97666190D02*
X125185173Y-97666190D01*
X125185173Y-97666190D02*
X125242316Y-97685237D01*
X125242316Y-97685237D02*
X125470887Y-97913809D01*
X125470887Y-97913809D02*
X125470887Y-97666190D01*
X125070887Y-97532857D02*
X125070887Y-97285238D01*
X125070887Y-97285238D02*
X125223268Y-97418571D01*
X125223268Y-97418571D02*
X125223268Y-97361428D01*
X125223268Y-97361428D02*
X125242316Y-97323333D01*
X125242316Y-97323333D02*
X125261363Y-97304285D01*
X125261363Y-97304285D02*
X125299459Y-97285238D01*
X125299459Y-97285238D02*
X125394697Y-97285238D01*
X125394697Y-97285238D02*
X125432792Y-97304285D01*
X125432792Y-97304285D02*
X125451840Y-97323333D01*
X125451840Y-97323333D02*
X125470887Y-97361428D01*
X125470887Y-97361428D02*
X125470887Y-97475714D01*
X125470887Y-97475714D02*
X125451840Y-97513809D01*
X125451840Y-97513809D02*
X125432792Y-97532857D01*
X124234762Y-101010887D02*
X124234762Y-100610887D01*
X124234762Y-100610887D02*
X124330000Y-100610887D01*
X124330000Y-100610887D02*
X124387143Y-100629935D01*
X124387143Y-100629935D02*
X124425238Y-100668030D01*
X124425238Y-100668030D02*
X124444285Y-100706125D01*
X124444285Y-100706125D02*
X124463333Y-100782316D01*
X124463333Y-100782316D02*
X124463333Y-100839459D01*
X124463333Y-100839459D02*
X124444285Y-100915649D01*
X124444285Y-100915649D02*
X124425238Y-100953744D01*
X124425238Y-100953744D02*
X124387143Y-100991840D01*
X124387143Y-100991840D02*
X124330000Y-101010887D01*
X124330000Y-101010887D02*
X124234762Y-101010887D01*
X124825238Y-100610887D02*
X124634762Y-100610887D01*
X124634762Y-100610887D02*
X124615714Y-100801363D01*
X124615714Y-100801363D02*
X124634762Y-100782316D01*
X124634762Y-100782316D02*
X124672857Y-100763268D01*
X124672857Y-100763268D02*
X124768095Y-100763268D01*
X124768095Y-100763268D02*
X124806190Y-100782316D01*
X124806190Y-100782316D02*
X124825238Y-100801363D01*
X124825238Y-100801363D02*
X124844285Y-100839459D01*
X124844285Y-100839459D02*
X124844285Y-100934697D01*
X124844285Y-100934697D02*
X124825238Y-100972792D01*
X124825238Y-100972792D02*
X124806190Y-100991840D01*
X124806190Y-100991840D02*
X124768095Y-101010887D01*
X124768095Y-101010887D02*
X124672857Y-101010887D01*
X124672857Y-101010887D02*
X124634762Y-100991840D01*
X124634762Y-100991840D02*
X124615714Y-100972792D01*
D12*
X128057143Y-92615145D02*
X127957143Y-92472288D01*
X127885714Y-92615145D02*
X127885714Y-92315145D01*
X127885714Y-92315145D02*
X128000000Y-92315145D01*
X128000000Y-92315145D02*
X128028571Y-92329431D01*
X128028571Y-92329431D02*
X128042857Y-92343717D01*
X128042857Y-92343717D02*
X128057143Y-92372288D01*
X128057143Y-92372288D02*
X128057143Y-92415145D01*
X128057143Y-92415145D02*
X128042857Y-92443717D01*
X128042857Y-92443717D02*
X128028571Y-92458002D01*
X128028571Y-92458002D02*
X128000000Y-92472288D01*
X128000000Y-92472288D02*
X127885714Y-92472288D01*
X128342857Y-92615145D02*
X128171428Y-92615145D01*
X128257143Y-92615145D02*
X128257143Y-92315145D01*
X128257143Y-92315145D02*
X128228571Y-92358002D01*
X128228571Y-92358002D02*
X128200000Y-92386574D01*
X128200000Y-92386574D02*
X128171428Y-92400860D01*
X128442857Y-92315145D02*
X128642857Y-92315145D01*
X128642857Y-92315145D02*
X128514285Y-92615145D01*
D13*
X121080887Y-90155237D02*
X120680887Y-90155237D01*
X120680887Y-90155237D02*
X120680887Y-90059999D01*
X120680887Y-90059999D02*
X120699935Y-90002856D01*
X120699935Y-90002856D02*
X120738030Y-89964761D01*
X120738030Y-89964761D02*
X120776125Y-89945714D01*
X120776125Y-89945714D02*
X120852316Y-89926666D01*
X120852316Y-89926666D02*
X120909459Y-89926666D01*
X120909459Y-89926666D02*
X120985649Y-89945714D01*
X120985649Y-89945714D02*
X121023744Y-89964761D01*
X121023744Y-89964761D02*
X121061840Y-90002856D01*
X121061840Y-90002856D02*
X121080887Y-90059999D01*
X121080887Y-90059999D02*
X121080887Y-90155237D01*
X120680887Y-89583809D02*
X120680887Y-89659999D01*
X120680887Y-89659999D02*
X120699935Y-89698095D01*
X120699935Y-89698095D02*
X120718982Y-89717142D01*
X120718982Y-89717142D02*
X120776125Y-89755237D01*
X120776125Y-89755237D02*
X120852316Y-89774285D01*
X120852316Y-89774285D02*
X121004697Y-89774285D01*
X121004697Y-89774285D02*
X121042792Y-89755237D01*
X121042792Y-89755237D02*
X121061840Y-89736190D01*
X121061840Y-89736190D02*
X121080887Y-89698095D01*
X121080887Y-89698095D02*
X121080887Y-89621904D01*
X121080887Y-89621904D02*
X121061840Y-89583809D01*
X121061840Y-89583809D02*
X121042792Y-89564761D01*
X121042792Y-89564761D02*
X121004697Y-89545714D01*
X121004697Y-89545714D02*
X120909459Y-89545714D01*
X120909459Y-89545714D02*
X120871363Y-89564761D01*
X120871363Y-89564761D02*
X120852316Y-89583809D01*
X120852316Y-89583809D02*
X120833268Y-89621904D01*
X120833268Y-89621904D02*
X120833268Y-89698095D01*
X120833268Y-89698095D02*
X120852316Y-89736190D01*
X120852316Y-89736190D02*
X120871363Y-89755237D01*
X120871363Y-89755237D02*
X120909459Y-89774285D01*
D12*
X134526666Y-104681407D02*
X134526666Y-104967121D01*
X134526666Y-104967121D02*
X134507619Y-105024264D01*
X134507619Y-105024264D02*
X134469523Y-105062360D01*
X134469523Y-105062360D02*
X134412381Y-105081407D01*
X134412381Y-105081407D02*
X134374285Y-105081407D01*
X134888571Y-104681407D02*
X134812381Y-104681407D01*
X134812381Y-104681407D02*
X134774285Y-104700455D01*
X134774285Y-104700455D02*
X134755238Y-104719502D01*
X134755238Y-104719502D02*
X134717143Y-104776645D01*
X134717143Y-104776645D02*
X134698095Y-104852836D01*
X134698095Y-104852836D02*
X134698095Y-105005217D01*
X134698095Y-105005217D02*
X134717143Y-105043312D01*
X134717143Y-105043312D02*
X134736190Y-105062360D01*
X134736190Y-105062360D02*
X134774285Y-105081407D01*
X134774285Y-105081407D02*
X134850476Y-105081407D01*
X134850476Y-105081407D02*
X134888571Y-105062360D01*
X134888571Y-105062360D02*
X134907619Y-105043312D01*
X134907619Y-105043312D02*
X134926666Y-105005217D01*
X134926666Y-105005217D02*
X134926666Y-104909979D01*
X134926666Y-104909979D02*
X134907619Y-104871883D01*
X134907619Y-104871883D02*
X134888571Y-104852836D01*
X134888571Y-104852836D02*
X134850476Y-104833788D01*
X134850476Y-104833788D02*
X134774285Y-104833788D01*
X134774285Y-104833788D02*
X134736190Y-104852836D01*
X134736190Y-104852836D02*
X134717143Y-104871883D01*
X134717143Y-104871883D02*
X134698095Y-104909979D01*
D13*
X128849524Y-82430411D02*
X128849524Y-82620887D01*
X128716191Y-82220887D02*
X128849524Y-82430411D01*
X128849524Y-82430411D02*
X128982857Y-82220887D01*
X129325714Y-82620887D02*
X129097143Y-82620887D01*
X129211429Y-82620887D02*
X129211429Y-82220887D01*
X129211429Y-82220887D02*
X129173333Y-82278030D01*
X129173333Y-82278030D02*
X129135238Y-82316125D01*
X129135238Y-82316125D02*
X129097143Y-82335173D01*
X125512792Y-84746666D02*
X125531840Y-84765714D01*
X125531840Y-84765714D02*
X125550887Y-84822856D01*
X125550887Y-84822856D02*
X125550887Y-84860952D01*
X125550887Y-84860952D02*
X125531840Y-84918095D01*
X125531840Y-84918095D02*
X125493744Y-84956190D01*
X125493744Y-84956190D02*
X125455649Y-84975237D01*
X125455649Y-84975237D02*
X125379459Y-84994285D01*
X125379459Y-84994285D02*
X125322316Y-84994285D01*
X125322316Y-84994285D02*
X125246125Y-84975237D01*
X125246125Y-84975237D02*
X125208030Y-84956190D01*
X125208030Y-84956190D02*
X125169935Y-84918095D01*
X125169935Y-84918095D02*
X125150887Y-84860952D01*
X125150887Y-84860952D02*
X125150887Y-84822856D01*
X125150887Y-84822856D02*
X125169935Y-84765714D01*
X125169935Y-84765714D02*
X125188982Y-84746666D01*
X125550887Y-84365714D02*
X125550887Y-84594285D01*
X125550887Y-84479999D02*
X125150887Y-84479999D01*
X125150887Y-84479999D02*
X125208030Y-84518095D01*
X125208030Y-84518095D02*
X125246125Y-84556190D01*
X125246125Y-84556190D02*
X125265173Y-84594285D01*
X144306667Y-105051840D02*
X144363810Y-105070887D01*
X144363810Y-105070887D02*
X144459048Y-105070887D01*
X144459048Y-105070887D02*
X144497143Y-105051840D01*
X144497143Y-105051840D02*
X144516191Y-105032792D01*
X144516191Y-105032792D02*
X144535238Y-104994697D01*
X144535238Y-104994697D02*
X144535238Y-104956601D01*
X144535238Y-104956601D02*
X144516191Y-104918506D01*
X144516191Y-104918506D02*
X144497143Y-104899459D01*
X144497143Y-104899459D02*
X144459048Y-104880411D01*
X144459048Y-104880411D02*
X144382857Y-104861363D01*
X144382857Y-104861363D02*
X144344762Y-104842316D01*
X144344762Y-104842316D02*
X144325715Y-104823268D01*
X144325715Y-104823268D02*
X144306667Y-104785173D01*
X144306667Y-104785173D02*
X144306667Y-104747078D01*
X144306667Y-104747078D02*
X144325715Y-104708982D01*
X144325715Y-104708982D02*
X144344762Y-104689935D01*
X144344762Y-104689935D02*
X144382857Y-104670887D01*
X144382857Y-104670887D02*
X144478096Y-104670887D01*
X144478096Y-104670887D02*
X144535238Y-104689935D01*
X144668571Y-104670887D02*
X144763809Y-105070887D01*
X144763809Y-105070887D02*
X144840000Y-104785173D01*
X144840000Y-104785173D02*
X144916190Y-105070887D01*
X144916190Y-105070887D02*
X145011429Y-104670887D01*
X145125714Y-104670887D02*
X145373333Y-104670887D01*
X145373333Y-104670887D02*
X145240000Y-104823268D01*
X145240000Y-104823268D02*
X145297143Y-104823268D01*
X145297143Y-104823268D02*
X145335238Y-104842316D01*
X145335238Y-104842316D02*
X145354286Y-104861363D01*
X145354286Y-104861363D02*
X145373333Y-104899459D01*
X145373333Y-104899459D02*
X145373333Y-104994697D01*
X145373333Y-104994697D02*
X145354286Y-105032792D01*
X145354286Y-105032792D02*
X145335238Y-105051840D01*
X145335238Y-105051840D02*
X145297143Y-105070887D01*
X145297143Y-105070887D02*
X145182857Y-105070887D01*
X145182857Y-105070887D02*
X145144762Y-105051840D01*
X145144762Y-105051840D02*
X145125714Y-105032792D01*
X121056666Y-101920887D02*
X121056666Y-102206601D01*
X121056666Y-102206601D02*
X121037619Y-102263744D01*
X121037619Y-102263744D02*
X120999523Y-102301840D01*
X120999523Y-102301840D02*
X120942381Y-102320887D01*
X120942381Y-102320887D02*
X120904285Y-102320887D01*
X121247143Y-102320887D02*
X121247143Y-101920887D01*
X121247143Y-101920887D02*
X121399524Y-101920887D01*
X121399524Y-101920887D02*
X121437619Y-101939935D01*
X121437619Y-101939935D02*
X121456666Y-101958982D01*
X121456666Y-101958982D02*
X121475714Y-101997078D01*
X121475714Y-101997078D02*
X121475714Y-102054220D01*
X121475714Y-102054220D02*
X121456666Y-102092316D01*
X121456666Y-102092316D02*
X121437619Y-102111363D01*
X121437619Y-102111363D02*
X121399524Y-102130411D01*
X121399524Y-102130411D02*
X121247143Y-102130411D01*
X121856666Y-102320887D02*
X121628095Y-102320887D01*
X121742381Y-102320887D02*
X121742381Y-101920887D01*
X121742381Y-101920887D02*
X121704285Y-101978030D01*
X121704285Y-101978030D02*
X121666190Y-102016125D01*
X121666190Y-102016125D02*
X121628095Y-102035173D01*
X125904762Y-93870887D02*
X125904762Y-93470887D01*
X125904762Y-93470887D02*
X126000000Y-93470887D01*
X126000000Y-93470887D02*
X126057143Y-93489935D01*
X126057143Y-93489935D02*
X126095238Y-93528030D01*
X126095238Y-93528030D02*
X126114285Y-93566125D01*
X126114285Y-93566125D02*
X126133333Y-93642316D01*
X126133333Y-93642316D02*
X126133333Y-93699459D01*
X126133333Y-93699459D02*
X126114285Y-93775649D01*
X126114285Y-93775649D02*
X126095238Y-93813744D01*
X126095238Y-93813744D02*
X126057143Y-93851840D01*
X126057143Y-93851840D02*
X126000000Y-93870887D01*
X126000000Y-93870887D02*
X125904762Y-93870887D01*
X126476190Y-93604220D02*
X126476190Y-93870887D01*
X126380952Y-93451840D02*
X126285714Y-93737554D01*
X126285714Y-93737554D02*
X126533333Y-93737554D01*
X151046667Y-105071840D02*
X151103810Y-105090887D01*
X151103810Y-105090887D02*
X151199048Y-105090887D01*
X151199048Y-105090887D02*
X151237143Y-105071840D01*
X151237143Y-105071840D02*
X151256191Y-105052792D01*
X151256191Y-105052792D02*
X151275238Y-105014697D01*
X151275238Y-105014697D02*
X151275238Y-104976601D01*
X151275238Y-104976601D02*
X151256191Y-104938506D01*
X151256191Y-104938506D02*
X151237143Y-104919459D01*
X151237143Y-104919459D02*
X151199048Y-104900411D01*
X151199048Y-104900411D02*
X151122857Y-104881363D01*
X151122857Y-104881363D02*
X151084762Y-104862316D01*
X151084762Y-104862316D02*
X151065715Y-104843268D01*
X151065715Y-104843268D02*
X151046667Y-104805173D01*
X151046667Y-104805173D02*
X151046667Y-104767078D01*
X151046667Y-104767078D02*
X151065715Y-104728982D01*
X151065715Y-104728982D02*
X151084762Y-104709935D01*
X151084762Y-104709935D02*
X151122857Y-104690887D01*
X151122857Y-104690887D02*
X151218096Y-104690887D01*
X151218096Y-104690887D02*
X151275238Y-104709935D01*
X151408571Y-104690887D02*
X151503809Y-105090887D01*
X151503809Y-105090887D02*
X151580000Y-104805173D01*
X151580000Y-104805173D02*
X151656190Y-105090887D01*
X151656190Y-105090887D02*
X151751429Y-104690887D01*
X152113333Y-105090887D02*
X151884762Y-105090887D01*
X151999048Y-105090887D02*
X151999048Y-104690887D01*
X151999048Y-104690887D02*
X151960952Y-104748030D01*
X151960952Y-104748030D02*
X151922857Y-104786125D01*
X151922857Y-104786125D02*
X151884762Y-104805173D01*
D12*
X142925145Y-79382856D02*
X143139431Y-79382856D01*
X143139431Y-79382856D02*
X143182288Y-79397141D01*
X143182288Y-79397141D02*
X143210860Y-79425713D01*
X143210860Y-79425713D02*
X143225145Y-79468570D01*
X143225145Y-79468570D02*
X143225145Y-79497141D01*
X143225145Y-79082856D02*
X143225145Y-79254285D01*
X143225145Y-79168570D02*
X142925145Y-79168570D01*
X142925145Y-79168570D02*
X142968002Y-79197142D01*
X142968002Y-79197142D02*
X142996574Y-79225713D01*
X142996574Y-79225713D02*
X143010860Y-79254285D01*
X143225145Y-78797142D02*
X143225145Y-78968571D01*
X143225145Y-78882856D02*
X142925145Y-78882856D01*
X142925145Y-78882856D02*
X142968002Y-78911428D01*
X142968002Y-78911428D02*
X142996574Y-78939999D01*
X142996574Y-78939999D02*
X143010860Y-78968571D01*
X127186574Y-86042856D02*
X127200860Y-86057142D01*
X127200860Y-86057142D02*
X127215145Y-86099999D01*
X127215145Y-86099999D02*
X127215145Y-86128571D01*
X127215145Y-86128571D02*
X127200860Y-86171428D01*
X127200860Y-86171428D02*
X127172288Y-86199999D01*
X127172288Y-86199999D02*
X127143717Y-86214285D01*
X127143717Y-86214285D02*
X127086574Y-86228571D01*
X127086574Y-86228571D02*
X127043717Y-86228571D01*
X127043717Y-86228571D02*
X126986574Y-86214285D01*
X126986574Y-86214285D02*
X126958002Y-86199999D01*
X126958002Y-86199999D02*
X126929431Y-86171428D01*
X126929431Y-86171428D02*
X126915145Y-86128571D01*
X126915145Y-86128571D02*
X126915145Y-86099999D01*
X126915145Y-86099999D02*
X126929431Y-86057142D01*
X126929431Y-86057142D02*
X126943717Y-86042856D01*
X126943717Y-85928571D02*
X126929431Y-85914285D01*
X126929431Y-85914285D02*
X126915145Y-85885714D01*
X126915145Y-85885714D02*
X126915145Y-85814285D01*
X126915145Y-85814285D02*
X126929431Y-85785714D01*
X126929431Y-85785714D02*
X126943717Y-85771428D01*
X126943717Y-85771428D02*
X126972288Y-85757142D01*
X126972288Y-85757142D02*
X127000860Y-85757142D01*
X127000860Y-85757142D02*
X127043717Y-85771428D01*
X127043717Y-85771428D02*
X127215145Y-85942856D01*
X127215145Y-85942856D02*
X127215145Y-85757142D01*
X127043717Y-85585714D02*
X127029431Y-85614285D01*
X127029431Y-85614285D02*
X127015145Y-85628571D01*
X127015145Y-85628571D02*
X126986574Y-85642857D01*
X126986574Y-85642857D02*
X126972288Y-85642857D01*
X126972288Y-85642857D02*
X126943717Y-85628571D01*
X126943717Y-85628571D02*
X126929431Y-85614285D01*
X126929431Y-85614285D02*
X126915145Y-85585714D01*
X126915145Y-85585714D02*
X126915145Y-85528571D01*
X126915145Y-85528571D02*
X126929431Y-85500000D01*
X126929431Y-85500000D02*
X126943717Y-85485714D01*
X126943717Y-85485714D02*
X126972288Y-85471428D01*
X126972288Y-85471428D02*
X126986574Y-85471428D01*
X126986574Y-85471428D02*
X127015145Y-85485714D01*
X127015145Y-85485714D02*
X127029431Y-85500000D01*
X127029431Y-85500000D02*
X127043717Y-85528571D01*
X127043717Y-85528571D02*
X127043717Y-85585714D01*
X127043717Y-85585714D02*
X127058002Y-85614285D01*
X127058002Y-85614285D02*
X127072288Y-85628571D01*
X127072288Y-85628571D02*
X127100860Y-85642857D01*
X127100860Y-85642857D02*
X127158002Y-85642857D01*
X127158002Y-85642857D02*
X127186574Y-85628571D01*
X127186574Y-85628571D02*
X127200860Y-85614285D01*
X127200860Y-85614285D02*
X127215145Y-85585714D01*
X127215145Y-85585714D02*
X127215145Y-85528571D01*
X127215145Y-85528571D02*
X127200860Y-85500000D01*
X127200860Y-85500000D02*
X127186574Y-85485714D01*
X127186574Y-85485714D02*
X127158002Y-85471428D01*
X127158002Y-85471428D02*
X127100860Y-85471428D01*
X127100860Y-85471428D02*
X127072288Y-85485714D01*
X127072288Y-85485714D02*
X127058002Y-85500000D01*
X127058002Y-85500000D02*
X127043717Y-85528571D01*
D10*
X117523333Y-101476109D02*
X117523333Y-101833252D01*
X117523333Y-101833252D02*
X117499524Y-101904680D01*
X117499524Y-101904680D02*
X117451905Y-101952300D01*
X117451905Y-101952300D02*
X117380476Y-101976109D01*
X117380476Y-101976109D02*
X117332857Y-101976109D01*
X118023333Y-101976109D02*
X117737619Y-101976109D01*
X117880476Y-101976109D02*
X117880476Y-101476109D01*
X117880476Y-101476109D02*
X117832857Y-101547538D01*
X117832857Y-101547538D02*
X117785238Y-101595157D01*
X117785238Y-101595157D02*
X117737619Y-101618966D01*
X116797142Y-99753890D02*
X117082856Y-99753890D01*
X116939999Y-99753890D02*
X116939999Y-100253890D01*
X116939999Y-100253890D02*
X116987618Y-100182461D01*
X116987618Y-100182461D02*
X117035237Y-100134842D01*
X117035237Y-100134842D02*
X117082856Y-100111033D01*
D15*
%TO.C,C32*%
X135340000Y-91100580D02*
X135340000Y-90819420D01*
X136360000Y-91100580D02*
X136360000Y-90819420D01*
D16*
%TO.C,J2*%
X136050000Y-78400000D02*
G75*
G02*
X135850000Y-78400000I-100000J0D01*
G01*
X135850000Y-78400000D02*
G75*
G02*
X136050000Y-78400000I100000J0D01*
G01*
D15*
%TO.C,C12*%
X145710580Y-96110000D02*
X145429420Y-96110000D01*
X145710580Y-97130000D02*
X145429420Y-97130000D01*
D17*
%TO.C,U2*%
X135120600Y-93106000D02*
X135120600Y-93385048D01*
X135120600Y-98414952D02*
X135120600Y-98694000D01*
X135120600Y-98694000D02*
X140759400Y-98694000D01*
X140759400Y-93106000D02*
X135120600Y-93106000D01*
X140759400Y-93385048D02*
X140759400Y-93106000D01*
X140759400Y-98694000D02*
X140759400Y-98414952D01*
D15*
%TO.C,R13*%
X140617836Y-104930000D02*
X140402164Y-104930000D01*
X140617836Y-105650000D02*
X140402164Y-105650000D01*
%TO.C,C31*%
X132467000Y-83660036D02*
X132467000Y-83444364D01*
X133187000Y-83660036D02*
X133187000Y-83444364D01*
%TO.C,TP3*%
X117525000Y-83485000D02*
X118220000Y-83485000D01*
X117525000Y-84170000D02*
X117525000Y-83485000D01*
X117525000Y-84855000D02*
X117525000Y-84730000D01*
X117525000Y-84855000D02*
X117611724Y-84855000D01*
X117525000Y-84855000D02*
X118915000Y-84855000D01*
X118828276Y-84855000D02*
X118915000Y-84855000D01*
X118915000Y-84855000D02*
X118915000Y-84730000D01*
%TO.C,D8*%
X122255000Y-95425000D02*
X122255000Y-97710000D01*
X123725000Y-95425000D02*
X122255000Y-95425000D01*
X123725000Y-97710000D02*
X123725000Y-95425000D01*
%TO.C,TP5*%
X117515000Y-81245000D02*
X118210000Y-81245000D01*
X117515000Y-81930000D02*
X117515000Y-81245000D01*
X117515000Y-82615000D02*
X117515000Y-82490000D01*
X117515000Y-82615000D02*
X117601724Y-82615000D01*
X117515000Y-82615000D02*
X118905000Y-82615000D01*
X118818276Y-82615000D02*
X118905000Y-82615000D01*
X118905000Y-82615000D02*
X118905000Y-82490000D01*
%TO.C,JP2*%
X118370000Y-77230000D02*
X120370000Y-77230000D01*
X118370000Y-80030000D02*
X118370000Y-77230000D01*
X120370000Y-77230000D02*
X120370000Y-80030000D01*
X120370000Y-80030000D02*
X118370000Y-80030000D01*
%TO.C,R6*%
X144160000Y-82113641D02*
X144160000Y-81806359D01*
X144920000Y-82113641D02*
X144920000Y-81806359D01*
D17*
%TO.C,J10*%
X143903800Y-94224400D02*
X145097600Y-95240400D01*
X143903800Y-96256400D02*
X143903800Y-94224400D01*
X143903800Y-96256400D02*
X145097600Y-95240400D01*
X146984200Y-80203600D02*
X146984200Y-83277000D01*
X146984200Y-95723000D02*
X146984200Y-98796400D01*
X146984200Y-98796400D02*
X152165800Y-98796400D01*
X152165800Y-80203600D02*
X146984200Y-80203600D01*
X152165800Y-98796400D02*
X152165800Y-80203600D01*
D15*
%TO.C,D2*%
X121040000Y-85412500D02*
X121040000Y-88072500D01*
X122740000Y-85412500D02*
X121040000Y-85412500D01*
X122740000Y-85412500D02*
X122740000Y-88072500D01*
%TO.C,C42*%
X123054420Y-93760000D02*
X123335580Y-93760000D01*
X123054420Y-94780000D02*
X123335580Y-94780000D01*
%TO.C,D3*%
X121030000Y-81862500D02*
X121030000Y-84522500D01*
X122730000Y-81862500D02*
X121030000Y-81862500D01*
X122730000Y-81862500D02*
X122730000Y-84522500D01*
%TO.C,R7*%
X144180000Y-83896359D02*
X144180000Y-84203641D01*
X144940000Y-83896359D02*
X144940000Y-84203641D01*
%TO.C,D13*%
X127265000Y-94802500D02*
X127265000Y-97087500D01*
X128735000Y-94802500D02*
X127265000Y-94802500D01*
X128735000Y-97087500D02*
X128735000Y-94802500D01*
%TO.C,R25*%
X128666359Y-99120000D02*
X128973641Y-99120000D01*
X128666359Y-99880000D02*
X128973641Y-99880000D01*
%TO.C,C30*%
X127183800Y-83637236D02*
X127183800Y-83421564D01*
X127903800Y-83637236D02*
X127903800Y-83421564D01*
%TO.C,R8*%
X142309564Y-81085000D02*
X141855436Y-81085000D01*
X142309564Y-82555000D02*
X141855436Y-82555000D01*
%TO.C,C29*%
X130357836Y-91280000D02*
X130142164Y-91280000D01*
X130357836Y-92000000D02*
X130142164Y-92000000D01*
%TO.C,C14*%
X145715580Y-97840000D02*
X145434420Y-97840000D01*
X145715580Y-98860000D02*
X145434420Y-98860000D01*
%TO.C,TP1*%
X123420000Y-103340000D02*
X125820000Y-103340000D01*
X123420000Y-105740000D02*
X123420000Y-103340000D01*
X125820000Y-103340000D02*
X125820000Y-105740000D01*
X125820000Y-105740000D02*
X123420000Y-105740000D01*
%TO.C,TP6*%
X152675000Y-79485000D02*
X153370000Y-79485000D01*
X152675000Y-80170000D02*
X152675000Y-79485000D01*
X152675000Y-80855000D02*
X152675000Y-80730000D01*
X152675000Y-80855000D02*
X152761724Y-80855000D01*
X152675000Y-80855000D02*
X154065000Y-80855000D01*
X153978276Y-80855000D02*
X154065000Y-80855000D01*
X154065000Y-80855000D02*
X154065000Y-80730000D01*
D18*
%TO.C,J3*%
X121000005Y-79820000D02*
X121000005Y-76619999D01*
X121000005Y-79820000D02*
X125249997Y-79820000D01*
X123115000Y-75603999D02*
X123750000Y-76365999D01*
X123115000Y-75603999D02*
X123750000Y-76365999D01*
X123750000Y-76365999D02*
X124385000Y-75603999D01*
X124385000Y-75603999D02*
X123115000Y-75603999D01*
X125249997Y-76619999D02*
X121000005Y-76619999D01*
X125249997Y-79820000D02*
X125249997Y-76619999D01*
D15*
%TO.C,C2*%
X124400000Y-87877836D02*
X124400000Y-87662164D01*
X125120000Y-87877836D02*
X125120000Y-87662164D01*
%TO.C,R22*%
X125990000Y-87726359D02*
X125990000Y-88033641D01*
X126750000Y-87726359D02*
X126750000Y-88033641D01*
%TO.C,R31*%
X130630000Y-94546359D02*
X130630000Y-94853641D01*
X131390000Y-94546359D02*
X131390000Y-94853641D01*
%TO.C,R9*%
X142690000Y-83606359D02*
X142690000Y-83913641D01*
X143450000Y-83606359D02*
X143450000Y-83913641D01*
D18*
%TO.C,J4*%
X128690005Y-76589999D02*
X128690005Y-79790000D01*
X128690005Y-79790000D02*
X132939997Y-79790000D01*
X130805000Y-75573999D02*
X131440000Y-76335999D01*
X131440000Y-76335999D02*
X132075000Y-75573999D01*
X132075000Y-75573999D02*
X130805000Y-75573999D01*
X132939997Y-76589999D02*
X128690005Y-76589999D01*
X132939997Y-79790000D02*
X132939997Y-76589999D01*
D15*
%TO.C,R14*%
X142472164Y-104960000D02*
X142687836Y-104960000D01*
X142472164Y-105680000D02*
X142687836Y-105680000D01*
%TO.C,TP2*%
X126830000Y-103340000D02*
X129230000Y-103340000D01*
X126830000Y-105740000D02*
X126830000Y-103340000D01*
X129230000Y-103340000D02*
X129230000Y-105740000D01*
X129230000Y-105740000D02*
X126830000Y-105740000D01*
%TO.C,R18*%
X133988441Y-91555400D02*
X133681159Y-91555400D01*
X133988441Y-92315400D02*
X133681159Y-92315400D01*
D18*
%TO.C,U8*%
X128660000Y-86156200D02*
X128660000Y-89956200D01*
X128660000Y-89956200D02*
X133860000Y-89956200D01*
X133860000Y-86156200D02*
X128660000Y-86156200D01*
X133860000Y-89956200D02*
X133860000Y-86156200D01*
D19*
X128312000Y-85262200D02*
G75*
G02*
X128112000Y-85262200I-100000J0D01*
G01*
X128112000Y-85262200D02*
G75*
G02*
X128312000Y-85262200I100000J0D01*
G01*
D15*
%TO.C,C38*%
X131797306Y-94504305D02*
X131797306Y-94785465D01*
X132817306Y-94504305D02*
X132817306Y-94785465D01*
%TO.C,R16*%
X126393641Y-89160000D02*
X126086359Y-89160000D01*
X126393641Y-89920000D02*
X126086359Y-89920000D01*
%TO.C,TP4*%
X152715000Y-77445000D02*
X153410000Y-77445000D01*
X152715000Y-78130000D02*
X152715000Y-77445000D01*
X152715000Y-78815000D02*
X152715000Y-78690000D01*
X152715000Y-78815000D02*
X152801724Y-78815000D01*
X152715000Y-78815000D02*
X154105000Y-78815000D01*
X154018276Y-78815000D02*
X154105000Y-78815000D01*
X154105000Y-78815000D02*
X154105000Y-78690000D01*
%TO.C,D1*%
X121330000Y-91370000D02*
X121330000Y-93070000D01*
X121330000Y-91370000D02*
X123990000Y-91370000D01*
X121330000Y-93070000D02*
X123990000Y-93070000D01*
%TO.C,C44*%
X131760000Y-97970580D02*
X131760000Y-97689420D01*
X132780000Y-97970580D02*
X132780000Y-97689420D01*
%TO.C,R23*%
X124180000Y-97256359D02*
X124180000Y-97563641D01*
X124940000Y-97256359D02*
X124940000Y-97563641D01*
%TO.C,D5*%
X124070000Y-98720000D02*
X124070000Y-100420000D01*
X124070000Y-98720000D02*
X126730000Y-98720000D01*
X124070000Y-100420000D02*
X126730000Y-100420000D01*
%TO.C,R17*%
X128413641Y-91260000D02*
X128106359Y-91260000D01*
X128413641Y-92020000D02*
X128106359Y-92020000D01*
%TO.C,D6*%
X121332500Y-89120000D02*
X121332500Y-90820000D01*
X121332500Y-89120000D02*
X123992500Y-89120000D01*
X121332500Y-90820000D02*
X123992500Y-90820000D01*
D18*
%TO.C,J6*%
X130950000Y-100290000D02*
X131180000Y-100290000D01*
X130950000Y-102040000D02*
X130950000Y-100290000D01*
X130950000Y-104590000D02*
X130950000Y-104240000D01*
X138120000Y-100290000D02*
X138350000Y-100290000D01*
X138350000Y-100290000D02*
X138350000Y-102040000D01*
X138350000Y-104240000D02*
X138350000Y-104590000D01*
D16*
X133450000Y-99140000D02*
G75*
G02*
X133250000Y-99140000I-100000J0D01*
G01*
X133250000Y-99140000D02*
G75*
G02*
X133450000Y-99140000I100000J0D01*
G01*
D18*
%TO.C,Y1*%
X130680000Y-83020000D02*
X129920000Y-83020000D01*
X130680000Y-84520000D02*
X129920000Y-84520000D01*
D15*
%TO.C,C1*%
X123495000Y-84941252D02*
X123495000Y-84418748D01*
X124965000Y-84941252D02*
X124965000Y-84418748D01*
D17*
%TO.C,SW3*%
X140315900Y-102173341D02*
X140315900Y-102946659D01*
X140315900Y-104388800D02*
X144964100Y-104388800D01*
X144964100Y-100731200D02*
X140315900Y-100731200D01*
X144964100Y-102946659D02*
X144964100Y-102173341D01*
D20*
X138918900Y-101485000D02*
G75*
G02*
X138156900Y-101485000I-381000J0D01*
G01*
X138156900Y-101485000D02*
G75*
G02*
X138918900Y-101485000I381000J0D01*
G01*
D15*
%TO.C,JP1*%
X121040000Y-98890000D02*
X123040000Y-98890000D01*
X121040000Y-101690000D02*
X121040000Y-98890000D01*
X123040000Y-98890000D02*
X123040000Y-101690000D01*
X123040000Y-101690000D02*
X121040000Y-101690000D01*
%TO.C,D4*%
X125350000Y-94090000D02*
X125350000Y-96750000D01*
X127050000Y-94090000D02*
X125350000Y-94090000D01*
X127050000Y-94090000D02*
X127050000Y-96750000D01*
D17*
%TO.C,SW1*%
X147086700Y-102194841D02*
X147086700Y-102968159D01*
X147086700Y-104410300D02*
X151734900Y-104410300D01*
X151734900Y-100752700D02*
X147086700Y-100752700D01*
X151734900Y-102968159D02*
X151734900Y-102194841D01*
D20*
X145689700Y-101506500D02*
G75*
G02*
X144927700Y-101506500I-381000J0D01*
G01*
X144927700Y-101506500D02*
G75*
G02*
X145689700Y-101506500I381000J0D01*
G01*
D15*
%TO.C,C28*%
X127480400Y-85998036D02*
X127480400Y-85782364D01*
X128200400Y-85998036D02*
X128200400Y-85782364D01*
D16*
%TO.C,J1*%
X117570000Y-85760000D02*
X120310000Y-85760000D01*
X117570000Y-101200000D02*
X117570000Y-85760000D01*
X120310000Y-85760000D02*
X120310000Y-101200000D01*
X120310000Y-101200000D02*
X117570000Y-101200000D01*
X119940000Y-100680000D02*
G75*
G02*
X119740000Y-100680000I-100000J0D01*
G01*
X119740000Y-100680000D02*
G75*
G02*
X119940000Y-100680000I100000J0D01*
G01*
%TD*%
M02*
