%TF.GenerationSoftware,KiCad,Pcbnew,9.0.0*%
%TF.CreationDate,2025-04-12T10:41:42+08:00*%
%TF.ProjectId,ESP32-EVB_Rev_K1,45535033-322d-4455-9642-5f5265765f4b,K1*%
%TF.SameCoordinates,PXc1d4028PY6c847bc*%
%TF.FileFunction,Paste,Top*%
%TF.FilePolarity,Positive*%
%FSLAX46Y46*%
G04 Gerber Fmt 4.6, Leading zero omitted, Abs format (unit mm)*
G04 Created by KiCad (PCBNEW 9.0.0) date 2025-04-12 10:41:42*
%MOMM*%
%LPD*%
G01*
G04 APERTURE LIST*
G04 Aperture macros list*
%AMRoundRect*
0 Rectangle with rounded corners*
0 $1 Rounding radius*
0 $2 $3 $4 $5 $6 $7 $8 $9 X,Y pos of 4 corners*
0 Add a 4 corners polygon primitive as box body*
4,1,4,$2,$3,$4,$5,$6,$7,$8,$9,$2,$3,0*
0 Add four circle primitives for the rounded corners*
1,1,$1+$1,$2,$3*
1,1,$1+$1,$4,$5*
1,1,$1+$1,$6,$7*
1,1,$1+$1,$8,$9*
0 Add four rect primitives between the rounded corners*
20,1,$1+$1,$2,$3,$4,$5,0*
20,1,$1+$1,$4,$5,$6,$7,0*
20,1,$1+$1,$6,$7,$8,$9,0*
20,1,$1+$1,$8,$9,$2,$3,0*%
G04 Aperture macros list end*
%ADD10C,0.200000*%
%ADD11R,1.016000X1.016000*%
%ADD12R,1.400000X1.200000*%
%ADD13R,1.270000X1.524000*%
%ADD14R,0.635000X1.016000*%
%ADD15R,0.381000X1.016000*%
%ADD16R,0.550000X1.200000*%
%ADD17R,1.200000X1.800000*%
%ADD18RoundRect,0.050800X-0.900000X-0.400000X0.900000X-0.400000X0.900000X0.400000X-0.900000X0.400000X0*%
%ADD19RoundRect,0.050800X-0.400000X-0.900000X0.400000X-0.900000X0.400000X0.900000X-0.400000X0.900000X0*%
%ADD20R,0.780000X0.230000*%
%ADD21R,0.230000X0.780000*%
%ADD22R,1.778000X1.016000*%
%ADD23R,1.700000X2.000000*%
%ADD24R,1.400000X1.000000*%
%ADD25R,1.100000X4.826000*%
%ADD26R,2.286000X1.778000*%
%ADD27R,0.325000X1.270000*%
%ADD28R,0.800000X0.800000*%
%ADD29R,1.200000X0.550000*%
%ADD30R,1.600000X3.000000*%
%ADD31R,0.500000X0.550000*%
%ADD32RoundRect,0.127000X-0.500000X0.550000X-0.500000X-0.550000X0.500000X-0.550000X0.500000X0.550000X0*%
%ADD33R,1.650000X0.500000*%
%ADD34RoundRect,0.035560X-0.825000X0.162500X-0.825000X-0.162500X0.825000X-0.162500X0.825000X0.162500X0*%
%ADD35R,2.540000X0.800000*%
%ADD36O,2.540000X0.800000*%
G04 APERTURE END LIST*
D10*
%TO.C,U4*%
X7816949Y35723409D02*
X7816949Y34923409D01*
X7816949Y35623409D02*
X8616949Y35623409D01*
X7816949Y35523409D02*
X8616949Y35523409D01*
X7816949Y35423409D02*
X8616949Y35423409D01*
X7816949Y35323409D02*
X8616949Y35323409D01*
X7816949Y35223409D02*
X8616949Y35223409D01*
X7816949Y35123409D02*
X8616949Y35123409D01*
X7816949Y35023409D02*
X8616949Y35023409D01*
X7816949Y34923409D02*
X8616949Y34923409D01*
X7816949Y34323409D02*
X7816949Y33923409D01*
X7816949Y34223409D02*
X8616949Y34223409D01*
X7816949Y34023409D02*
X8616949Y34023409D01*
X7816949Y33923409D02*
X8616949Y33923409D01*
X7816949Y33323409D02*
X7816949Y32523409D01*
X7816949Y33223409D02*
X8616949Y33223409D01*
X7816949Y33123409D02*
X8616949Y33123409D01*
X7816949Y33023409D02*
X8616949Y33023409D01*
X7816949Y32923409D02*
X8616949Y32923409D01*
X7816949Y32823409D02*
X8616949Y32823409D01*
X7816949Y32723409D02*
X8616949Y32723409D01*
X7816949Y32623409D02*
X8616949Y32623409D01*
X7816949Y32523409D02*
X8616949Y32523409D01*
X8616949Y35723409D02*
X7816949Y35723409D01*
X8616949Y34923409D02*
X8616949Y35723409D01*
X8616949Y34323409D02*
X7816949Y34323409D01*
X8616949Y34123409D02*
X7816949Y34123409D01*
X8616949Y33923409D02*
X8616949Y34323409D01*
X8616949Y33323409D02*
X7816949Y33323409D01*
X8616949Y32523409D02*
X8616949Y33323409D01*
X9216949Y35723409D02*
X9616949Y35723409D01*
X9216949Y34923409D02*
X9216949Y35723409D01*
X9216949Y33323409D02*
X9616949Y33323409D01*
X9216949Y32523409D02*
X9216949Y33323409D01*
X9316949Y34923409D02*
X9316949Y35723409D01*
X9316949Y32523409D02*
X9316949Y33323409D01*
X9416949Y34923409D02*
X9416949Y35723409D01*
X9416949Y32523409D02*
X9416949Y33323409D01*
X9516949Y34923409D02*
X9516949Y35723409D01*
X9516949Y32523409D02*
X9516949Y33323409D01*
X9616949Y35723409D02*
X9616949Y34923409D01*
X9616949Y34923409D02*
X9216949Y34923409D01*
X9616949Y33323409D02*
X9616949Y32523409D01*
X9616949Y32523409D02*
X9216949Y32523409D01*
X10216949Y35723409D02*
X10216949Y34923409D01*
X10216949Y35623409D02*
X11016949Y35623409D01*
X10216949Y35523409D02*
X11016949Y35523409D01*
X10216949Y35423409D02*
X11016949Y35423409D01*
X10216949Y35323409D02*
X11016949Y35323409D01*
X10216949Y35223409D02*
X11016949Y35223409D01*
X10216949Y35123409D02*
X11016949Y35123409D01*
X10216949Y35023409D02*
X11016949Y35023409D01*
X10216949Y34923409D02*
X11016949Y34923409D01*
X10216949Y34323409D02*
X10216949Y33923409D01*
X10216949Y34223409D02*
X11016949Y34223409D01*
X10216949Y34023409D02*
X11016949Y34023409D01*
X10216949Y33923409D02*
X11016949Y33923409D01*
X10216949Y33323409D02*
X10216949Y32523409D01*
X10216949Y33223409D02*
X11016949Y33223409D01*
X10216949Y33123409D02*
X11016949Y33123409D01*
X10216949Y33023409D02*
X11016949Y33023409D01*
X10216949Y32923409D02*
X11016949Y32923409D01*
X10216949Y32823409D02*
X11016949Y32823409D01*
X10216949Y32723409D02*
X11016949Y32723409D01*
X10216949Y32623409D02*
X11016949Y32623409D01*
X10216949Y32523409D02*
X11016949Y32523409D01*
X11016949Y35723409D02*
X10216949Y35723409D01*
X11016949Y34923409D02*
X11016949Y35723409D01*
X11016949Y34323409D02*
X10216949Y34323409D01*
X11016949Y34123409D02*
X10216949Y34123409D01*
X11016949Y33923409D02*
X11016949Y34323409D01*
X11016949Y33323409D02*
X10216949Y33323409D01*
X11016949Y32523409D02*
X11016949Y33323409D01*
%TD*%
D11*
%TO.C,C8*%
X3701949Y40981409D03*
X3701949Y39203409D03*
%TD*%
%TO.C,C9*%
X5225949Y40981409D03*
X5225949Y39203409D03*
%TD*%
%TO.C,C13*%
X11736240Y39180054D03*
X11736240Y40958054D03*
%TD*%
%TO.C,C15*%
X14877949Y30694409D03*
X16655949Y30694409D03*
%TD*%
%TO.C,C16*%
X14877949Y35901409D03*
X16655949Y35901409D03*
%TD*%
%TO.C,C17*%
X14877949Y34377409D03*
X16655949Y34377409D03*
%TD*%
%TO.C,C18*%
X2558949Y34758409D03*
X4336949Y34758409D03*
%TD*%
D12*
%TO.C,CR1*%
X21435949Y34008409D03*
X18895949Y34008409D03*
X18895949Y31468409D03*
X21435949Y31468409D03*
%TD*%
D13*
%TO.C,L3*%
X1329551Y40720844D03*
X1329551Y38688844D03*
%TD*%
D11*
%TO.C,R26*%
X14850367Y27427345D03*
X16628367Y27427345D03*
%TD*%
%TO.C,R27*%
X2023393Y8255784D03*
X2023393Y10033784D03*
%TD*%
%TO.C,R34*%
X23965949Y31849409D03*
X23965949Y33627409D03*
%TD*%
%TO.C,R36*%
X16754949Y32538409D03*
X14976949Y32538409D03*
%TD*%
%TO.C,R38*%
X4336949Y36282409D03*
X2558949Y36282409D03*
%TD*%
%TO.C,R39*%
X14877949Y29170409D03*
X16655949Y29170409D03*
%TD*%
%TO.C,R41*%
X41522787Y44574603D03*
X43300787Y44574603D03*
%TD*%
D14*
%TO.C,RM2*%
X16277838Y40844982D03*
X16277838Y39320982D03*
D15*
X15388838Y40844982D03*
X15388838Y39320982D03*
X14626838Y40844982D03*
X14626838Y39320982D03*
D14*
X13737838Y40844982D03*
X13737838Y39320982D03*
%TD*%
%TO.C,RM3*%
X7234030Y39326823D03*
X7234030Y40850823D03*
D15*
X8123030Y39326823D03*
X8123030Y40850823D03*
X8885030Y39326823D03*
X8885030Y40850823D03*
D14*
X9774030Y39326823D03*
X9774030Y40850823D03*
%TD*%
D16*
%TO.C,U2*%
X49558877Y24075564D03*
X48608877Y24075564D03*
X47658877Y24075564D03*
X47658877Y21475564D03*
X49558877Y21475564D03*
%TD*%
D17*
%TO.C,U3*%
X10446949Y59563409D03*
X10446949Y56563409D03*
X12246949Y59563409D03*
X12246949Y56563409D03*
D18*
X3746949Y65573409D03*
X3746949Y64303409D03*
X3746949Y63033409D03*
X3746949Y61763409D03*
X3746949Y60493409D03*
X3746949Y59223409D03*
X3746949Y57953409D03*
X3746949Y56683409D03*
X3746949Y55413409D03*
X3746949Y54143409D03*
X3746949Y52873409D03*
X3746949Y51603409D03*
X3746949Y50333409D03*
X3746949Y49063409D03*
D19*
X6646949Y47963409D03*
X7916949Y47963409D03*
X9186949Y47963409D03*
X10456949Y47963409D03*
X11726949Y47963409D03*
X12996949Y47963409D03*
X14266949Y47963409D03*
X15536949Y47963409D03*
X16806949Y47963409D03*
X18076949Y47963409D03*
D18*
X20946949Y49063409D03*
X20946949Y50333409D03*
X20946949Y51603409D03*
X20946949Y52873409D03*
X20946949Y54143409D03*
X20946949Y55413409D03*
X20946949Y56683409D03*
X20946949Y57953409D03*
X20946949Y59223409D03*
X20946949Y60493409D03*
X20946949Y61763409D03*
X20946949Y63033409D03*
X20946949Y64303409D03*
X20946949Y65573409D03*
%TD*%
D20*
%TO.C,U4*%
X11866949Y32373409D03*
X11866949Y32873409D03*
X11866949Y33373409D03*
X11866949Y33873409D03*
X11866949Y34373409D03*
X11866949Y34873409D03*
X11866949Y35373409D03*
X11866949Y35873409D03*
D21*
X11166949Y36573409D03*
X10666949Y36573409D03*
X10166949Y36573409D03*
X9666949Y36573409D03*
X9166949Y36573409D03*
X8666949Y36573409D03*
X8166949Y36573409D03*
X7666949Y36573409D03*
D20*
X6966949Y35873409D03*
X6966949Y35373409D03*
X6966949Y34873409D03*
X6966949Y34373409D03*
X6966949Y33873409D03*
X6966949Y33373409D03*
X6966949Y32873409D03*
X6966949Y32373409D03*
D21*
X7666949Y31673409D03*
X8166949Y31673409D03*
X8666949Y31673409D03*
X9166949Y31673409D03*
X9666949Y31673409D03*
X10166949Y31673409D03*
X10666949Y31673409D03*
X11166949Y31673409D03*
%TD*%
D22*
%TO.C,C19*%
X2023393Y17027781D03*
X2023393Y20583781D03*
%TD*%
%TO.C,C20*%
X23186949Y16290409D03*
X23186949Y19846409D03*
%TD*%
D11*
%TO.C,R4*%
X31580870Y18976913D03*
X29802870Y18976913D03*
%TD*%
%TO.C,R19*%
X51421147Y21735005D03*
X51421147Y23513005D03*
%TD*%
%TO.C,R20*%
X49512046Y19514105D03*
X47734046Y19514105D03*
%TD*%
%TO.C,C21*%
X45815819Y41773299D03*
X45815819Y43551299D03*
%TD*%
%TO.C,C22*%
X45815819Y38440299D03*
X45815819Y36662299D03*
%TD*%
%TO.C,C24*%
X39933745Y31005736D03*
X39933745Y29227736D03*
%TD*%
D23*
%TO.C,D6*%
X39621180Y20547151D03*
X39621180Y15547151D03*
%TD*%
D24*
%TO.C,FET2*%
X36811163Y15459289D03*
X36811163Y17361749D03*
X34601363Y16406709D03*
%TD*%
D25*
%TO.C,Q3*%
X49796775Y45341656D03*
X49796775Y35943656D03*
%TD*%
D11*
%TO.C,R30*%
X41053948Y11799483D03*
X42831948Y11799483D03*
%TD*%
%TO.C,R42*%
X39608951Y44589430D03*
X37830951Y44589430D03*
%TD*%
%TO.C,R54*%
X23466949Y49014409D03*
X23466949Y50792409D03*
%TD*%
D26*
%TO.C,D2*%
X43133382Y20072181D03*
X43133382Y15718181D03*
%TD*%
D11*
%TO.C,R57*%
X23965949Y37678409D03*
X23965949Y35900409D03*
%TD*%
%TO.C,C12*%
X2674255Y32832223D03*
X4452255Y32832223D03*
%TD*%
D13*
%TO.C,C1*%
X36618410Y21474926D03*
X34586410Y21474926D03*
%TD*%
%TO.C,C2*%
X36618410Y19442926D03*
X34586410Y19442926D03*
%TD*%
D11*
%TO.C,C14*%
X4374744Y30586231D03*
X4374744Y28808231D03*
%TD*%
%TO.C,C28*%
X18222838Y39139982D03*
X18222838Y40917982D03*
%TD*%
%TO.C,R40*%
X41588532Y31005736D03*
X41588532Y29227736D03*
%TD*%
D27*
%TO.C,U5*%
X37433730Y34793958D03*
X38083730Y34793958D03*
X38733730Y34793958D03*
X39383730Y34793958D03*
X40033730Y34793958D03*
X40683730Y34793958D03*
X41333730Y34793958D03*
X41983730Y34793958D03*
X42633730Y34793958D03*
X43283730Y34793958D03*
X43283730Y42032958D03*
X42633730Y42032958D03*
X41983730Y42032958D03*
X41333730Y42032958D03*
X40683730Y42032958D03*
X40033730Y42032958D03*
X39383730Y42032958D03*
X38733730Y42032958D03*
X38083730Y42032958D03*
X37433730Y42032958D03*
%TD*%
D11*
%TO.C,C7*%
X38602769Y25229902D03*
X38602769Y23451902D03*
%TD*%
%TO.C,C6*%
X40612154Y25196131D03*
X40612154Y23418131D03*
%TD*%
D28*
%TO.C,CHARGE1*%
X31392947Y22193546D03*
X29868947Y22193546D03*
%TD*%
D29*
%TO.C,U8*%
X21465949Y35788409D03*
X21465949Y36738409D03*
X21465949Y37688409D03*
X18865949Y37688409D03*
X18865949Y35788409D03*
%TD*%
D30*
%TO.C,L2*%
X45341242Y24205817D03*
X42941242Y24205817D03*
%TD*%
D28*
%TO.C,PWRLED1*%
X31392947Y20758270D03*
X29868947Y20758270D03*
%TD*%
D31*
%TO.C,R33*%
X9035949Y26376409D03*
X8019949Y26376409D03*
%TD*%
%TO.C,R32*%
X6114949Y26376409D03*
X7130949Y26376409D03*
%TD*%
%TO.C,R31*%
X13734949Y26376409D03*
X12718949Y26376409D03*
%TD*%
%TO.C,R28*%
X10813949Y26376409D03*
X11829949Y26376409D03*
%TD*%
D32*
%TO.C,USB-UART1*%
X28582412Y36514736D03*
X28582412Y39514736D03*
D33*
X33132412Y39402236D03*
D34*
X33132412Y38664736D03*
X33132412Y38014736D03*
X33132412Y37364736D03*
D33*
X33132412Y36627236D03*
%TD*%
D29*
%TO.C,TVS1*%
X11224949Y27585409D03*
X11224949Y28535409D03*
X11224949Y29485409D03*
X8624949Y29485409D03*
X8624949Y27585409D03*
%TD*%
D35*
%TO.C,U6*%
X37528890Y27551700D03*
D36*
X31940890Y27551700D03*
X37528890Y29551700D03*
X31940890Y29551700D03*
X37528890Y31551700D03*
X31940890Y31551700D03*
%TD*%
D35*
%TO.C,U7*%
X50726937Y27551700D03*
D36*
X45138937Y27551700D03*
X50726937Y29551700D03*
X45138937Y29551700D03*
X50726937Y31551700D03*
X45138937Y31551700D03*
%TD*%
M02*
