%TF.GenerationSoftware,KiCad,Pcbnew,9.0.0*%
%TF.CreationDate,2025-04-12T10:41:42+08:00*%
%TF.ProjectId,ESP32-EVB_Rev_K1,45535033-322d-4455-9642-5f5265765f4b,K1*%
%TF.SameCoordinates,PXc1d4028PY6c847bc*%
%TF.FileFunction,Paste,Bot*%
%TF.FilePolarity,Positive*%
%FSLAX46Y46*%
G04 Gerber Fmt 4.6, Leading zero omitted, Abs format (unit mm)*
G04 Created by KiCad (PCBNEW 9.0.0) date 2025-04-12 10:41:42*
%MOMM*%
%LPD*%
G01*
G04 APERTURE LIST*
G04 Aperture macros list*
%AMRoundRect*
0 Rectangle with rounded corners*
0 $1 Rounding radius*
0 $2 $3 $4 $5 $6 $7 $8 $9 X,Y pos of 4 corners*
0 Add a 4 corners polygon primitive as box body*
4,1,4,$2,$3,$4,$5,$6,$7,$8,$9,$2,$3,0*
0 Add four circle primitives for the rounded corners*
1,1,$1+$1,$2,$3*
1,1,$1+$1,$4,$5*
1,1,$1+$1,$6,$7*
1,1,$1+$1,$8,$9*
0 Add four rect primitives between the rounded corners*
20,1,$1+$1,$2,$3,$4,$5,0*
20,1,$1+$1,$4,$5,$6,$7,0*
20,1,$1+$1,$6,$7,$8,$9,0*
20,1,$1+$1,$8,$9,$2,$3,0*%
G04 Aperture macros list end*
%ADD10R,2.000000X1.700000*%
%ADD11R,1.000000X1.400000*%
%ADD12R,1.016000X1.016000*%
%ADD13RoundRect,0.127000X0.762000X-0.508000X0.762000X0.508000X-0.762000X0.508000X-0.762000X-0.508000X0*%
%ADD14R,1.270000X1.524000*%
%ADD15R,1.200000X0.550000*%
%ADD16RoundRect,0.127000X-0.762000X0.508000X-0.762000X-0.508000X0.762000X-0.508000X0.762000X0.508000X0*%
%ADD17R,1.400000X1.000000*%
%ADD18R,0.500000X0.550000*%
%ADD19R,2.540000X0.800000*%
%ADD20O,2.540000X0.800000*%
G04 APERTURE END LIST*
D10*
%TO.C,D4*%
X48114157Y24029575D03*
X43114157Y24029575D03*
%TD*%
D11*
%TO.C,FET1*%
X42894448Y21074006D03*
X44796908Y21074006D03*
X43841868Y18864206D03*
%TD*%
D12*
%TO.C,R14*%
X6913949Y65122409D03*
X5135949Y65122409D03*
%TD*%
%TO.C,R35*%
X48849336Y33255813D03*
X47071336Y33255813D03*
%TD*%
D13*
%TO.C,BUT1*%
X23613949Y65793162D03*
X15739949Y65793162D03*
%TD*%
D12*
%TO.C,C23*%
X35840407Y40230254D03*
X35840407Y42008254D03*
%TD*%
D11*
%TO.C,Q5*%
X37820306Y44391220D03*
X39722766Y44391220D03*
X38767726Y42181420D03*
%TD*%
D12*
%TO.C,R45*%
X14579990Y47343104D03*
X12801990Y47343104D03*
%TD*%
D14*
%TO.C,C3*%
X48905172Y20587594D03*
X50937172Y20587594D03*
%TD*%
%TO.C,C4*%
X48905172Y18555594D03*
X50937172Y18555594D03*
%TD*%
D12*
%TO.C,R37*%
X38810266Y39683780D03*
X40588266Y39683780D03*
%TD*%
%TO.C,R44*%
X41588266Y33283780D03*
X39810266Y33283780D03*
%TD*%
%TO.C,C29*%
X12697449Y39392909D03*
X12697449Y37614909D03*
%TD*%
%TO.C,R50*%
X16797449Y35825909D03*
X16797449Y37603909D03*
%TD*%
%TO.C,R51*%
X14497449Y39381909D03*
X14497449Y37603909D03*
%TD*%
D11*
%TO.C,FET3*%
X6439372Y36017130D03*
X4536912Y36017130D03*
X5491952Y38226930D03*
%TD*%
D14*
%TO.C,L5*%
X2798976Y36363788D03*
X2798976Y38395788D03*
%TD*%
D15*
%TO.C,U1*%
X41096913Y20711848D03*
X41096913Y19761848D03*
X41096913Y18811848D03*
X38496913Y18811848D03*
X38496913Y20711848D03*
%TD*%
D12*
%TO.C,R8*%
X40419034Y22297205D03*
X38641034Y22297205D03*
%TD*%
D11*
%TO.C,D7*%
X47182932Y28652528D03*
X50982932Y28652528D03*
%TD*%
D12*
%TO.C,R10*%
X36117158Y16926717D03*
X34339158Y16926717D03*
%TD*%
%TO.C,R9*%
X40579130Y16900338D03*
X38801130Y16900338D03*
%TD*%
%TO.C,C30*%
X36117158Y18943142D03*
X34339158Y18943142D03*
%TD*%
D11*
%TO.C,U9*%
X39949266Y35383780D03*
X38049266Y35383780D03*
X38999266Y37583780D03*
%TD*%
%TO.C,D8*%
X50997759Y31187886D03*
X47197759Y31187886D03*
%TD*%
D12*
%TO.C,R24*%
X5815502Y51090971D03*
X5815502Y49312971D03*
%TD*%
%TO.C,R17*%
X46497325Y18954394D03*
X46497325Y20732394D03*
%TD*%
%TO.C,R7*%
X40419034Y24120883D03*
X38641034Y24120883D03*
%TD*%
%TO.C,C31*%
X6900949Y60001409D03*
X5122949Y60001409D03*
%TD*%
D16*
%TO.C,RST1*%
X15739949Y59843409D03*
X23613949Y59843409D03*
%TD*%
D12*
%TO.C,R46*%
X9388033Y47345996D03*
X7610033Y47345996D03*
%TD*%
%TO.C,R25*%
X3539944Y21048790D03*
X3539944Y19270790D03*
%TD*%
D11*
%TO.C,U10*%
X43494806Y35395080D03*
X41594806Y35395080D03*
X42544806Y37595080D03*
%TD*%
D12*
%TO.C,C11*%
X5257618Y19354989D03*
X5257618Y21132989D03*
%TD*%
D17*
%TO.C,D9*%
X45085606Y41368827D03*
X45085606Y45168827D03*
%TD*%
D11*
%TO.C,Q4*%
X41249306Y44391220D03*
X43151766Y44391220D03*
X42196726Y42181420D03*
%TD*%
%TO.C,D10*%
X9553416Y49472011D03*
X7653416Y49472011D03*
X8603416Y51672011D03*
%TD*%
D12*
%TO.C,R52*%
X8671448Y53578213D03*
X6893448Y53578213D03*
%TD*%
D18*
%TO.C,R58*%
X10339318Y53578213D03*
X11355318Y53578213D03*
%TD*%
D11*
%TO.C,U11*%
X14827643Y49486210D03*
X12927643Y49486210D03*
X13877643Y51686210D03*
%TD*%
D17*
%TO.C,FET4*%
X20804889Y37664869D03*
X20804889Y35762409D03*
X18595089Y36717449D03*
%TD*%
D12*
%TO.C,C32*%
X14756280Y53522079D03*
X12978280Y53522079D03*
%TD*%
D19*
%TO.C,U13*%
X9922435Y44754035D03*
D20*
X4334435Y44754035D03*
X9922435Y42754035D03*
X4334435Y42754035D03*
X9922435Y40754035D03*
X4334435Y40754035D03*
%TD*%
D19*
%TO.C,U12*%
X23120158Y44455114D03*
D20*
X17532158Y44455114D03*
X23120158Y42455114D03*
X17532158Y42455114D03*
X23120158Y40455114D03*
X17532158Y40455114D03*
%TD*%
M02*
