%TF.GenerationSoftware,KiCad,Pcbnew,9.0.0*%
%TF.CreationDate,2025-04-12T10:41:42+08:00*%
%TF.ProjectId,ESP32-EVB_Rev_K1,45535033-322d-4455-9642-5f5265765f4b,K1*%
%TF.SameCoordinates,PXc1d4028PY6c847bc*%
%TF.FileFunction,Copper,L3,Inr*%
%TF.FilePolarity,Positive*%
%FSLAX46Y46*%
G04 Gerber Fmt 4.6, Leading zero omitted, Abs format (unit mm)*
G04 Created by KiCad (PCBNEW 9.0.0) date 2025-04-12 10:41:42*
%MOMM*%
%LPD*%
G01*
G04 APERTURE LIST*
%TA.AperFunction,ComponentPad*%
%ADD10O,5.000000X2.000000*%
%TD*%
%TA.AperFunction,ComponentPad*%
%ADD11O,2.000000X5.000000*%
%TD*%
%TA.AperFunction,ComponentPad*%
%ADD12C,2.540000*%
%TD*%
%TA.AperFunction,ComponentPad*%
%ADD13C,1.400000*%
%TD*%
%TA.AperFunction,ViaPad*%
%ADD14C,0.762000*%
%TD*%
%TA.AperFunction,ViaPad*%
%ADD15C,0.609600*%
%TD*%
%TA.AperFunction,ViaPad*%
%ADD16C,0.500000*%
%TD*%
%TA.AperFunction,ViaPad*%
%ADD17C,0.450000*%
%TD*%
%TA.AperFunction,Conductor*%
%ADD18C,0.203200*%
%TD*%
%TA.AperFunction,Conductor*%
%ADD19C,0.254000*%
%TD*%
G04 APERTURE END LIST*
D10*
%TO.N,PGND*%
%TO.C,PWR1*%
X32192983Y7031010D03*
D11*
X36642983Y10231010D03*
%TD*%
D12*
%TO.N,PGND*%
%TO.C,PWR2*%
X46597291Y4429099D03*
%TD*%
D13*
%TO.N,PGND*%
%TO.C,BAT1*%
X46310210Y14336180D03*
%TD*%
D14*
%TO.N,*%
X25281059Y2405800D03*
X27492543Y46846858D03*
X25392721Y46852163D03*
X25376949Y23058696D03*
X25376949Y21747312D03*
X25376949Y22376782D03*
X25281059Y1741298D03*
X25392721Y46170249D03*
X27514461Y22376782D03*
X27492543Y45535474D03*
X25392721Y45540779D03*
X27492543Y47511360D03*
X27514461Y21747312D03*
X27538401Y2318307D03*
X27538401Y342421D03*
X27514461Y23058696D03*
X25281059Y429914D03*
X25392721Y47516665D03*
X27538401Y971891D03*
X27538401Y1653805D03*
X25281059Y1059384D03*
X27492543Y46164944D03*
D15*
%TO.N,+5V*%
X37366349Y18265526D03*
X38031630Y18236698D03*
X42870213Y22040305D03*
X42401190Y22033652D03*
X43405765Y22017020D03*
D16*
%TO.N,GND*%
X16079235Y21593103D03*
X20038764Y22813260D03*
D17*
X22915491Y55297778D03*
D16*
X8779274Y30148611D03*
X19261213Y27191470D03*
X6441408Y31290489D03*
X14949910Y45027936D03*
X21127335Y16832098D03*
X22318319Y35091124D03*
X7286927Y16497153D03*
X8475368Y28594713D03*
D17*
X21865564Y45498466D03*
X19485731Y43421945D03*
D16*
X10002375Y23542961D03*
D17*
X10623143Y46005282D03*
D16*
X3558607Y45735983D03*
X12064667Y44803404D03*
D17*
X23522115Y58190909D03*
D16*
X18899621Y35063580D03*
X18531511Y16760324D03*
X8686519Y25169837D03*
X9916118Y27166436D03*
X3567391Y31465126D03*
X6605075Y25349272D03*
X13148466Y21545253D03*
X11569439Y22430465D03*
D17*
X19056318Y41757402D03*
D16*
X8431433Y45722415D03*
X19966990Y17693385D03*
X18340114Y26162710D03*
X21857037Y23291753D03*
X20307506Y32716069D03*
X7789345Y14427671D03*
X11342155Y25277498D03*
D17*
X17250209Y45271198D03*
D16*
X3640267Y45374342D03*
D17*
X22168876Y47889965D03*
X19486595Y45043066D03*
D16*
X12563836Y41401900D03*
X6485452Y27610151D03*
X18092118Y28277809D03*
X20600993Y25875614D03*
X16928560Y17190968D03*
X11859849Y28525551D03*
X17230162Y46483655D03*
X7729533Y19667169D03*
X17694149Y19152789D03*
X19731205Y29160970D03*
X6222280Y18135991D03*
X8279800Y22107483D03*
X12036420Y50083793D03*
D17*
X22378862Y49873159D03*
D16*
X5605781Y47963409D03*
X20254086Y20492569D03*
X3558607Y46117067D03*
X5747506Y29918975D03*
X9464070Y21377781D03*
X6688811Y23949680D03*
X13172390Y25385159D03*
X17598450Y23901831D03*
X14344698Y24165002D03*
X19264677Y38533956D03*
X15947649Y25767954D03*
X6027126Y47963409D03*
D17*
%TO.N,/GPI34{slash}BUT1*%
X6981885Y46293351D03*
X2279576Y59227770D03*
X8186060Y42858407D03*
%TO.N,/ESP_EN*%
X21087191Y44458572D03*
X2136752Y63036091D03*
D15*
%TO.N,Net-(D4-K)*%
X46979624Y21804792D03*
X46449616Y21324680D03*
X46979624Y21324680D03*
X46449616Y21792595D03*
D17*
%TO.N,Net-(U4-NRST)*%
X5033148Y33802252D03*
X5838729Y34831359D03*
X23973125Y38599764D03*
D16*
%TO.N,Net-(U5-V3)*%
X40029535Y31889882D03*
X40033730Y36631640D03*
D17*
%TO.N,Net-(CHARGE1-K)*%
X36051035Y23201063D03*
%TO.N,Net-(D7-K)*%
X38670804Y33260977D03*
%TO.N,/GPIO3{slash}U0RXD*%
X24781779Y60490461D03*
%TO.N,/GPIO1{slash}U0TXD*%
X23809223Y45599881D03*
X21553825Y42465657D03*
X22527515Y61725543D03*
%TO.N,Net-(D8-A)*%
X43416650Y33277815D03*
D16*
%TO.N,/VDD1A-2A*%
X2674255Y30965150D03*
X3621333Y30581677D03*
D17*
X3512679Y22166112D03*
D16*
X2674255Y31358120D03*
D17*
X14543731Y26366429D03*
D16*
X2674255Y31803859D03*
D17*
X9940814Y26376409D03*
X13815107Y30694409D03*
X5240600Y26373914D03*
%TO.N,/VDDCR*%
X14016232Y35887626D03*
D16*
%TO.N,Net-(LAN1-AY)*%
X12700126Y33367743D03*
%TO.N,Net-(LAN1-KG)*%
X13578298Y31726160D03*
D17*
%TO.N,Net-(Q4-B)*%
X41476936Y45729594D03*
%TO.N,Net-(Q4-E)*%
X39703129Y46290925D03*
%TO.N,Net-(Q5-E)*%
X40199596Y45759531D03*
%TO.N,Net-(Q5-B)*%
X37829530Y45744562D03*
D16*
%TO.N,/+5V_USB*%
X35037080Y40138795D03*
X32478353Y16732661D03*
X47944652Y34327683D03*
X33071152Y16089354D03*
X33068494Y16732661D03*
X32462403Y16089354D03*
X32781398Y16381766D03*
D17*
%TO.N,/GPIO0{slash}XTAL1{slash}CLKIN*%
X15409743Y41864471D03*
X13867745Y32864043D03*
%TO.N,/OSC_DIS*%
X22700233Y35738184D03*
%TO.N,+3.3VLAN*%
X6356790Y38317799D03*
%TO.N,/BUT1*%
X19520775Y45786078D03*
X21080551Y45774851D03*
%TO.N,/GPIO26{slash}EMAC_RXD1(RMII)*%
X11129722Y37747946D03*
X2521060Y52864003D03*
%TO.N,/GPIO27{slash}EMAC_RX_CRS_DV*%
X8166949Y38098048D03*
X2149034Y51629169D03*
D16*
%TO.N,+3.3V*%
X2563642Y64303409D03*
X5032698Y43156882D03*
X5300889Y43425073D03*
X23476232Y51861948D03*
X10419786Y50016434D03*
X5270952Y42160206D03*
X1895033Y64300030D03*
X23989852Y30759216D03*
X6852213Y51084211D03*
X21465109Y30569610D03*
X5004007Y42427151D03*
X2197737Y64303409D03*
X14497115Y41818691D03*
X15752313Y46562981D03*
D17*
%TO.N,/GPIO25{slash}EMAC_RXD0(RMII)*%
X9115249Y38622079D03*
X10292328Y37629354D03*
X2526049Y54128987D03*
%TO.N,/GPIO18{slash}MDIO(RMII)*%
X19318629Y55421957D03*
X7509788Y37775361D03*
%TO.N,/GPIO22{slash}EMAC_TXD1(RMII)*%
X19204441Y62938599D03*
X5735353Y32872223D03*
%TO.N,/GPIO21{slash}EMAC_TX_EN(RMII)*%
X5715389Y33884012D03*
X19232558Y59216557D03*
%TO.N,/GPIO2{slash}HS2_DATA0*%
X15134483Y42910003D03*
%TO.N,/GPIO23{slash}MDC(RMII)*%
X19226894Y64308247D03*
X5446782Y35288856D03*
%TO.N,/GPIO19{slash}EMAC_TXD0(RMII)*%
X6097389Y33385123D03*
X19296176Y56701793D03*
%TO.N,PGND*%
X28365930Y30340596D03*
X52111764Y26210886D03*
X48069547Y30078115D03*
X33555288Y803965D03*
X28184893Y24818833D03*
X50289947Y22595769D03*
X34850197Y12055676D03*
X28190942Y33350385D03*
X31830687Y47069422D03*
X40457582Y47349403D03*
X44552294Y38372533D03*
X30087723Y24279612D03*
X33090599Y18740207D03*
X48979484Y26770847D03*
X52016493Y10976585D03*
D15*
X48666854Y22165020D03*
X49821841Y25409113D03*
D17*
X37317524Y978953D03*
X51899834Y7791808D03*
X35417935Y46999427D03*
X28235661Y17042826D03*
X52168149Y19632644D03*
X51596522Y733970D03*
X52331471Y14453007D03*
X37999328Y26516790D03*
X52356747Y28573220D03*
X52164260Y33525373D03*
X51864837Y3580437D03*
X33135318Y10463287D03*
X28218163Y20525081D03*
X32857282Y21524456D03*
X28453424Y43184695D03*
X28393150Y13315587D03*
X48155097Y1060614D03*
X32415924Y26432537D03*
X38782236Y28798112D03*
X28288158Y10200806D03*
X40560630Y26527160D03*
X43185446Y978953D03*
X29618064Y768968D03*
D15*
X48712290Y25497255D03*
D17*
X28768402Y46124489D03*
X48034550Y32230464D03*
X48349528Y28608218D03*
X43642358Y30638075D03*
X44254815Y32510444D03*
X28533141Y4251223D03*
X43287846Y26107190D03*
X52273141Y17089489D03*
X47124614Y27278311D03*
X44867272Y47086921D03*
%TO.N,/C_GPIO3{slash}U0RXD*%
X48660441Y27514150D03*
%TO.N,/C_GPIO1{slash}U0TXD*%
X52305934Y29941858D03*
%TO.N,/C_ESP_EN*%
X45836926Y34864399D03*
%TO.N,/C_GPIO0{slash}XTAL1{slash}CLKIN*%
X43306755Y27563696D03*
%TO.N,/C_GPIO2{slash}HS2_DATA0*%
X42725281Y29946626D03*
%TO.N,/C_OSC_DIS*%
X41540556Y31916538D03*
%TO.N,/C_D_Com*%
X37081883Y26269361D03*
X37081883Y27021590D03*
X37081883Y26669023D03*
%TO.N,/C_GPI34{slash}BUT1*%
X34105471Y29507498D03*
X34598029Y29507498D03*
X35168360Y29551700D03*
%TO.N,/C_BUT1*%
X35212431Y31467144D03*
X33970666Y31436035D03*
X34631731Y31467144D03*
%TD*%
D18*
%TO.N,Net-(U5-V3)*%
X40033730Y31894077D02*
X40029535Y31889882D01*
D19*
%TO.N,/GPIO0{slash}XTAL1{slash}CLKIN*%
X15409743Y41864471D02*
X15409743Y34406041D01*
X15409743Y34406041D02*
X13867745Y32864043D01*
D18*
%TO.N,/GPIO18{slash}MDIO(RMII)*%
X7487081Y37752654D02*
X4252301Y37752654D01*
X17965871Y55421957D02*
X19318629Y55421957D01*
X2918973Y39085982D02*
X2918973Y49085164D01*
X14714529Y52170615D02*
X17965871Y55421957D01*
X2918973Y49085164D02*
X6004424Y52170615D01*
X6004424Y52170615D02*
X14714529Y52170615D01*
X4252301Y37752654D02*
X2918973Y39085982D01*
X7509788Y37775361D02*
X7487081Y37752654D01*
%TO.N,/GPIO22{slash}EMAC_TXD1(RMII)*%
X19204441Y62938599D02*
X17417280Y61151438D01*
X2281769Y32872223D02*
X5735353Y32872223D01*
X17417280Y61151438D02*
X5416419Y61151438D01*
X5416419Y61151438D02*
X628742Y56363761D01*
X628742Y34525250D02*
X2281769Y32872223D01*
X628742Y56363761D02*
X628742Y34525250D01*
%TO.N,/GPIO21{slash}EMAC_TX_EN(RMII)*%
X1066580Y53709734D02*
X1066580Y35361653D01*
X18147474Y59233809D02*
X13547052Y54633387D01*
X13547052Y54633387D02*
X1990233Y54633387D01*
X19048778Y59233809D02*
X19158650Y59123937D01*
X5308662Y34382234D02*
X5715389Y33975507D01*
X2045999Y34382234D02*
X5308662Y34382234D01*
X18459325Y59233809D02*
X19048778Y59233809D01*
X5715389Y33975507D02*
X5715389Y33884012D01*
X1990233Y54633387D02*
X1066580Y53709734D01*
X19215306Y59233809D02*
X19232558Y59216557D01*
X18459325Y59233809D02*
X19215306Y59233809D01*
X18459325Y59233809D02*
X18147474Y59233809D01*
X1066580Y35361653D02*
X2045999Y34382234D01*
%TO.N,/GPIO23{slash}MDC(RMII)*%
X1672818Y50267703D02*
X5252638Y53847523D01*
X4704440Y35886167D02*
X2798121Y35886167D01*
X2798121Y35886167D02*
X1672818Y37011470D01*
X1672818Y37011470D02*
X1672818Y50267703D01*
X18953246Y57774348D02*
X20287811Y59108913D01*
X20287811Y63247330D02*
X19226894Y64308247D01*
X5252638Y53847523D02*
X13826471Y53847523D01*
X5446782Y35288856D02*
X5301751Y35288856D01*
X17753296Y57774348D02*
X18953246Y57774348D01*
X13826471Y53847523D02*
X17753296Y57774348D01*
X5301751Y35288856D02*
X4704440Y35886167D01*
X20287811Y59108913D02*
X20287811Y63247330D01*
%TO.N,/GPIO19{slash}EMAC_TXD0(RMII)*%
X14034304Y52904946D02*
X5614889Y52904946D01*
X2228536Y49518593D02*
X2228536Y37435668D01*
X6343129Y33630863D02*
X6097389Y33385123D01*
X17831151Y56701793D02*
X14034304Y52904946D01*
X2228536Y37435668D02*
X2784254Y36879950D01*
X19296176Y56701793D02*
X17831151Y56701793D01*
X5614889Y52904946D02*
X2228536Y49518593D01*
X6343129Y36088472D02*
X6343129Y33630863D01*
X2784254Y36879950D02*
X5551651Y36879950D01*
X5551651Y36879950D02*
X6343129Y36088472D01*
%TD*%
%TA.AperFunction,Conductor*%
%TO.N,PGND*%
G36*
X52536001Y47792336D02*
G01*
X52603030Y47772621D01*
X52648761Y47719796D01*
X52659943Y47668330D01*
X52659177Y30418373D01*
X52639489Y30351335D01*
X52586683Y30305582D01*
X52517525Y30295642D01*
X52473178Y30310991D01*
X52461604Y30317674D01*
X52393220Y30335997D01*
X52359029Y30345158D01*
X52252839Y30345158D01*
X52150264Y30317674D01*
X52058302Y30264578D01*
X52058299Y30264576D01*
X51983216Y30189493D01*
X51983214Y30189490D01*
X51930118Y30097528D01*
X51903912Y29999721D01*
X51902634Y29994953D01*
X51902634Y29888763D01*
X51904095Y29883312D01*
X51930118Y29786189D01*
X51948049Y29755133D01*
X51983214Y29694226D01*
X52058302Y29619138D01*
X52110201Y29589174D01*
X52149777Y29566324D01*
X52150266Y29566042D01*
X52252839Y29538558D01*
X52252841Y29538558D01*
X52359027Y29538558D01*
X52359029Y29538558D01*
X52461602Y29566042D01*
X52473132Y29572700D01*
X52541030Y29589174D01*
X52607058Y29566324D01*
X52650251Y29511405D01*
X52659135Y29465308D01*
X52657844Y391923D01*
X52638156Y324885D01*
X52585350Y279132D01*
X52533838Y267929D01*
X28221695Y269181D01*
X28154656Y288869D01*
X28108904Y341675D01*
X28097701Y393181D01*
X28097701Y416052D01*
X28097701Y416054D01*
X28059585Y558303D01*
X28038307Y595157D01*
X28021835Y663055D01*
X28038308Y719157D01*
X28059585Y756009D01*
X28097701Y898258D01*
X28097701Y1045524D01*
X28059585Y1187773D01*
X28059583Y1187776D01*
X28059583Y1187778D01*
X28059582Y1187779D01*
X28023169Y1250847D01*
X28006695Y1318747D01*
X28023169Y1374849D01*
X28059582Y1437918D01*
X28059583Y1437919D01*
X28059583Y1437921D01*
X28059585Y1437923D01*
X28097701Y1580172D01*
X28097701Y1727438D01*
X28059585Y1869687D01*
X28028194Y1924057D01*
X28011722Y1991955D01*
X28028195Y2048057D01*
X28059585Y2102425D01*
X28097701Y2244674D01*
X28097701Y2391940D01*
X28059585Y2534189D01*
X28055035Y2542069D01*
X28001030Y2635609D01*
X27985952Y2661725D01*
X27881819Y2765858D01*
X27867417Y2774173D01*
X27830959Y2795223D01*
X27822676Y2803910D01*
X27811758Y2808896D01*
X27799011Y2828731D01*
X27782745Y2845791D01*
X27779529Y2859045D01*
X27773984Y2867674D01*
X27768961Y2902609D01*
X27768961Y4510684D01*
X40768991Y4510684D01*
X40768991Y4347515D01*
X40800820Y4187501D01*
X40800822Y4187493D01*
X40863261Y4036752D01*
X40908584Y3968920D01*
X40953909Y3901086D01*
X41069277Y3785718D01*
X41069280Y3785716D01*
X41204944Y3695069D01*
X41355685Y3632630D01*
X41515706Y3600800D01*
X41515710Y3600799D01*
X41515711Y3600799D01*
X41678872Y3600799D01*
X41678873Y3600800D01*
X41838897Y3632630D01*
X41989638Y3695069D01*
X42125302Y3785716D01*
X42240674Y3901088D01*
X42331321Y4036752D01*
X42393760Y4187493D01*
X42425591Y4347519D01*
X42425591Y4510679D01*
X42418743Y4545105D01*
X44827291Y4545105D01*
X44827291Y4313094D01*
X44827292Y4313077D01*
X44857574Y4083059D01*
X44857577Y4083046D01*
X44917627Y3858932D01*
X45006415Y3644578D01*
X45006423Y3644561D01*
X45122427Y3443638D01*
X45122433Y3443630D01*
X45181408Y3366772D01*
X45996249Y4181612D01*
X46021269Y4121209D01*
X46092403Y4014748D01*
X46182940Y3924211D01*
X46289401Y3853077D01*
X46349802Y3828058D01*
X45534962Y3013218D01*
X45611821Y2954242D01*
X45611829Y2954236D01*
X45812752Y2838232D01*
X45812769Y2838224D01*
X46027123Y2749436D01*
X46251237Y2689386D01*
X46251250Y2689383D01*
X46481268Y2659101D01*
X46481286Y2659099D01*
X46713296Y2659099D01*
X46713313Y2659101D01*
X46943331Y2689383D01*
X46943344Y2689386D01*
X47167458Y2749436D01*
X47381812Y2838224D01*
X47381829Y2838232D01*
X47582766Y2954244D01*
X47659618Y3013216D01*
X47659618Y3013219D01*
X46844778Y3828058D01*
X46905181Y3853077D01*
X47011642Y3924211D01*
X47102179Y4014748D01*
X47173313Y4121209D01*
X47198332Y4181612D01*
X48013171Y3366772D01*
X48013174Y3366772D01*
X48072146Y3443624D01*
X48188158Y3644561D01*
X48188166Y3644578D01*
X48276954Y3858932D01*
X48337004Y4083046D01*
X48337007Y4083059D01*
X48367289Y4313077D01*
X48367291Y4313094D01*
X48367291Y4545105D01*
X48367289Y4545122D01*
X48337007Y4775140D01*
X48337004Y4775153D01*
X48276954Y4999267D01*
X48188166Y5213621D01*
X48188158Y5213638D01*
X48072154Y5414561D01*
X48072148Y5414569D01*
X48013172Y5491428D01*
X47198332Y4676588D01*
X47173313Y4736989D01*
X47102179Y4843450D01*
X47011642Y4933987D01*
X46905181Y5005121D01*
X46844779Y5030141D01*
X47659618Y5844982D01*
X47582760Y5903957D01*
X47582752Y5903963D01*
X47381829Y6019967D01*
X47381812Y6019975D01*
X47167458Y6108763D01*
X46943344Y6168813D01*
X46943331Y6168816D01*
X46713313Y6199098D01*
X46713296Y6199099D01*
X46481286Y6199099D01*
X46481268Y6199098D01*
X46251250Y6168816D01*
X46251237Y6168813D01*
X46027123Y6108763D01*
X45812769Y6019975D01*
X45812752Y6019967D01*
X45611832Y5903965D01*
X45611824Y5903959D01*
X45534962Y5844983D01*
X45534962Y5844982D01*
X46349803Y5030141D01*
X46289401Y5005121D01*
X46182940Y4933987D01*
X46092403Y4843450D01*
X46021269Y4736989D01*
X45996249Y4676588D01*
X45181408Y5491428D01*
X45181407Y5491428D01*
X45122431Y5414566D01*
X45122425Y5414558D01*
X45006423Y5213638D01*
X45006415Y5213621D01*
X44917627Y4999267D01*
X44857577Y4775153D01*
X44857574Y4775140D01*
X44827292Y4545122D01*
X44827291Y4545105D01*
X42418743Y4545105D01*
X42393761Y4670698D01*
X42393760Y4670705D01*
X42331321Y4821446D01*
X42240674Y4957110D01*
X42240672Y4957113D01*
X42125304Y5072481D01*
X42057470Y5117806D01*
X41989638Y5163129D01*
X41838897Y5225568D01*
X41838889Y5225570D01*
X41678875Y5257399D01*
X41678871Y5257399D01*
X41515711Y5257399D01*
X41515706Y5257399D01*
X41355692Y5225570D01*
X41355684Y5225568D01*
X41204945Y5163130D01*
X41069277Y5072481D01*
X40953909Y4957113D01*
X40863260Y4821445D01*
X40800822Y4670706D01*
X40800820Y4670698D01*
X40768991Y4510684D01*
X27768961Y4510684D01*
X27768961Y7281010D01*
X29213881Y7281010D01*
X30259971Y7281010D01*
X30227058Y7224003D01*
X30192983Y7096836D01*
X30192983Y6965184D01*
X30227058Y6838017D01*
X30259971Y6781010D01*
X29213881Y6781010D01*
X29229917Y6679763D01*
X29302880Y6455208D01*
X29410068Y6244839D01*
X29548849Y6053824D01*
X29715796Y5886877D01*
X29906811Y5748096D01*
X30117180Y5640908D01*
X30341735Y5567945D01*
X30341734Y5567945D01*
X30574931Y5531010D01*
X31942983Y5531010D01*
X31942983Y6531010D01*
X32442983Y6531010D01*
X32442983Y5531010D01*
X33811035Y5531010D01*
X34044230Y5567945D01*
X34268785Y5640908D01*
X34479154Y5748096D01*
X34670169Y5886877D01*
X34837116Y6053824D01*
X34975897Y6244839D01*
X35083085Y6455208D01*
X35156048Y6679763D01*
X35172085Y6781010D01*
X34125995Y6781010D01*
X34158908Y6838017D01*
X34192983Y6965184D01*
X34192983Y7096836D01*
X34158908Y7224003D01*
X34125995Y7281010D01*
X35172085Y7281010D01*
X35156048Y7382258D01*
X35083085Y7606813D01*
X34975897Y7817182D01*
X34837116Y8008197D01*
X34670169Y8175144D01*
X34479154Y8313925D01*
X34268785Y8421113D01*
X34044230Y8494076D01*
X34044231Y8494076D01*
X33811035Y8531010D01*
X32442983Y8531010D01*
X32442983Y7531010D01*
X31942983Y7531010D01*
X31942983Y8531010D01*
X30574931Y8531010D01*
X30341735Y8494076D01*
X30117180Y8421113D01*
X29906811Y8313925D01*
X29715796Y8175144D01*
X29548849Y8008197D01*
X29410068Y7817182D01*
X29302880Y7606813D01*
X29229917Y7382258D01*
X29213881Y7281010D01*
X27768961Y7281010D01*
X27768961Y11849063D01*
X35142983Y11849063D01*
X35142983Y10481010D01*
X36142983Y10481010D01*
X36142983Y9981010D01*
X35142983Y9981010D01*
X35142983Y8612958D01*
X35179917Y8379763D01*
X35252880Y8155208D01*
X35360068Y7944839D01*
X35498849Y7753824D01*
X35665796Y7586877D01*
X35856811Y7448096D01*
X36067178Y7340908D01*
X36291727Y7267947D01*
X36291733Y7267945D01*
X36392983Y7251909D01*
X36392983Y8297998D01*
X36449990Y8265085D01*
X36577157Y8231010D01*
X36708809Y8231010D01*
X36835976Y8265085D01*
X36892983Y8297998D01*
X36892983Y7251910D01*
X36994232Y7267945D01*
X36994238Y7267947D01*
X37218787Y7340908D01*
X37429154Y7448096D01*
X37620169Y7586877D01*
X37787116Y7753824D01*
X37925897Y7944839D01*
X38033085Y8155208D01*
X38106048Y8379763D01*
X38142983Y8612958D01*
X38142983Y9981010D01*
X37142983Y9981010D01*
X37142983Y10481010D01*
X38142983Y10481010D01*
X38142983Y11849063D01*
X38106048Y12082258D01*
X38033085Y12306813D01*
X37925897Y12517182D01*
X37787116Y12708197D01*
X37620169Y12875144D01*
X37429154Y13013925D01*
X37218785Y13121113D01*
X36994230Y13194076D01*
X36892983Y13210113D01*
X36892983Y12164022D01*
X36835976Y12196935D01*
X36708809Y12231010D01*
X36577157Y12231010D01*
X36449990Y12196935D01*
X36392983Y12164022D01*
X36392983Y13210113D01*
X36291735Y13194076D01*
X36067180Y13121113D01*
X35856811Y13013925D01*
X35665796Y12875144D01*
X35498849Y12708197D01*
X35360068Y12517182D01*
X35252880Y12306813D01*
X35179917Y12082258D01*
X35142983Y11849063D01*
X27768961Y11849063D01*
X27768961Y13464201D01*
X30014682Y13464201D01*
X30040748Y13333164D01*
X30040750Y13333156D01*
X30091881Y13209714D01*
X30091882Y13209712D01*
X30166112Y13098620D01*
X30166115Y13098616D01*
X30260588Y13004143D01*
X30260592Y13004140D01*
X30371687Y12929908D01*
X30495130Y12878777D01*
X30527220Y12872394D01*
X30626173Y12852710D01*
X30626176Y12852710D01*
X33759792Y12852710D01*
X33825760Y12865833D01*
X33890836Y12878777D01*
X34014279Y12929908D01*
X34125374Y13004140D01*
X34219853Y13098619D01*
X34294085Y13209714D01*
X34345216Y13333157D01*
X34349367Y13354027D01*
X34358463Y13399749D01*
X34358463Y13399750D01*
X34371282Y13464199D01*
X34371283Y13464201D01*
X34371283Y13597820D01*
X34351599Y13696773D01*
X34345216Y13728863D01*
X34294085Y13852306D01*
X34219853Y13963401D01*
X34219850Y13963405D01*
X34125377Y14057878D01*
X34125373Y14057881D01*
X34014281Y14132111D01*
X34014279Y14132112D01*
X33890837Y14183243D01*
X33890829Y14183245D01*
X33759792Y14209310D01*
X33759790Y14209310D01*
X30626176Y14209310D01*
X30626174Y14209310D01*
X30495136Y14183245D01*
X30495128Y14183243D01*
X30371686Y14132112D01*
X30371684Y14132111D01*
X30260592Y14057881D01*
X30260588Y14057878D01*
X30166115Y13963405D01*
X30166112Y13963401D01*
X30091882Y13852309D01*
X30091881Y13852307D01*
X30040750Y13728865D01*
X30040748Y13728857D01*
X30014683Y13597820D01*
X30014683Y13597817D01*
X30014683Y13464203D01*
X30014683Y13464201D01*
X30014682Y13464201D01*
X27768961Y13464201D01*
X27768961Y14430628D01*
X45110210Y14430628D01*
X45110210Y14241733D01*
X45139758Y14055178D01*
X45198124Y13875543D01*
X45283876Y13707247D01*
X45302326Y13681852D01*
X45868071Y14247596D01*
X45890877Y14162486D01*
X45950120Y14059874D01*
X46033904Y13976090D01*
X46136516Y13916847D01*
X46221625Y13894042D01*
X45655879Y13328298D01*
X45655880Y13328297D01*
X45681269Y13309851D01*
X45849572Y13224095D01*
X46029207Y13165729D01*
X46081518Y13157443D01*
X46144653Y13127514D01*
X46181584Y13068203D01*
X46180586Y12998340D01*
X46141976Y12940107D01*
X46109573Y12920409D01*
X46015140Y12881294D01*
X45912231Y12812533D01*
X45824717Y12725019D01*
X45755957Y12622111D01*
X45708595Y12507769D01*
X45708593Y12507761D01*
X45684450Y12386387D01*
X45684450Y12262614D01*
X45708593Y12141240D01*
X45708595Y12141232D01*
X45755957Y12026890D01*
X45824717Y11923982D01*
X45912231Y11836468D01*
X45963685Y11802088D01*
X46015138Y11767708D01*
X46129482Y11720345D01*
X46250863Y11696201D01*
X46250867Y11696200D01*
X46250868Y11696200D01*
X46374633Y11696200D01*
X46374634Y11696201D01*
X46496018Y11720345D01*
X46610362Y11767708D01*
X46713268Y11836468D01*
X46800782Y11923982D01*
X46869542Y12026888D01*
X46916905Y12141232D01*
X46941050Y12262618D01*
X46941050Y12386382D01*
X46916905Y12507768D01*
X46869542Y12622112D01*
X46835162Y12673565D01*
X46800782Y12725019D01*
X46713268Y12812533D01*
X46610359Y12881294D01*
X46514521Y12920991D01*
X46460118Y12964832D01*
X46438053Y13031126D01*
X46455332Y13098826D01*
X46506470Y13146436D01*
X46542577Y13158025D01*
X46591211Y13165728D01*
X46770847Y13224095D01*
X46939147Y13309849D01*
X46964538Y13328297D01*
X46964538Y13328298D01*
X46398794Y13894042D01*
X46483904Y13916847D01*
X46586516Y13976090D01*
X46670300Y14059874D01*
X46729543Y14162486D01*
X46752348Y14247596D01*
X47318092Y13681852D01*
X47318093Y13681852D01*
X47336541Y13707243D01*
X47422295Y13875543D01*
X47480661Y14055178D01*
X47510210Y14241733D01*
X47510210Y14430628D01*
X47480661Y14617183D01*
X47422295Y14796818D01*
X47336539Y14965121D01*
X47318093Y14990510D01*
X47318092Y14990511D01*
X46752347Y14424766D01*
X46729543Y14509874D01*
X46670300Y14612486D01*
X46586516Y14696270D01*
X46483904Y14755513D01*
X46398794Y14778319D01*
X46964538Y15344064D01*
X46939143Y15362514D01*
X46770847Y15448266D01*
X46591212Y15506632D01*
X46404657Y15536180D01*
X46215763Y15536180D01*
X46029207Y15506632D01*
X45849572Y15448266D01*
X45681270Y15362511D01*
X45655880Y15344064D01*
X45655879Y15344064D01*
X46221625Y14778319D01*
X46136516Y14755513D01*
X46033904Y14696270D01*
X45950120Y14612486D01*
X45890877Y14509874D01*
X45868071Y14424766D01*
X45302326Y14990511D01*
X45302326Y14990510D01*
X45283879Y14965120D01*
X45198124Y14796818D01*
X45139758Y14617183D01*
X45110210Y14430628D01*
X27768961Y14430628D01*
X27768961Y21176833D01*
X27788646Y21243872D01*
X27830962Y21284221D01*
X27857879Y21299761D01*
X27962012Y21403894D01*
X28035645Y21531430D01*
X28073761Y21673679D01*
X28073761Y21820945D01*
X28035645Y21963194D01*
X28014367Y22000048D01*
X27997895Y22067946D01*
X28014368Y22124048D01*
X28035645Y22160900D01*
X28073761Y22303149D01*
X28073761Y22450415D01*
X28035645Y22592664D01*
X28035643Y22592667D01*
X28035643Y22592669D01*
X28035642Y22592670D01*
X27999229Y22655738D01*
X27982755Y22723638D01*
X27999229Y22779740D01*
X28035642Y22842809D01*
X28035643Y22842810D01*
X28035643Y22842812D01*
X28035645Y22842814D01*
X28073761Y22985063D01*
X28073761Y23132329D01*
X28035645Y23274578D01*
X27962012Y23402114D01*
X27857879Y23506247D01*
X27857877Y23506248D01*
X27857872Y23506252D01*
X27830960Y23521790D01*
X27782745Y23572357D01*
X27768961Y23629176D01*
X27768961Y42238388D01*
X28714777Y42238388D01*
X28714777Y42056181D01*
X28714894Y42049640D01*
X28715209Y42040797D01*
X28715211Y42040785D01*
X28726649Y41983282D01*
X28751069Y41917808D01*
X28757351Y41902991D01*
X28812961Y41835133D01*
X28868894Y41793261D01*
X28882199Y41784185D01*
X28882202Y41784184D01*
X28884697Y41782961D01*
X28886751Y41781080D01*
X28889526Y41779187D01*
X28889253Y41778789D01*
X28896615Y41772048D01*
X28911315Y41765334D01*
X28921852Y41748937D01*
X28936226Y41735775D01*
X28940758Y41719520D01*
X28949089Y41706556D01*
X28954112Y41671621D01*
X28954112Y41553429D01*
X28934427Y41486390D01*
X28886529Y41443007D01*
X28850531Y41424616D01*
X28797720Y41378854D01*
X28786034Y41367794D01*
X28786030Y41367788D01*
X28741888Y41291975D01*
X28741886Y41291970D01*
X28722202Y41224936D01*
X28722200Y41224926D01*
X28714777Y41173295D01*
X28714777Y37929493D01*
X28714778Y37928973D01*
X28714777Y37928973D01*
X28720086Y36063814D01*
X28720086Y36063813D01*
X28720154Y36040203D01*
X28720154Y36040199D01*
X28723501Y34864000D01*
X28723626Y34857759D01*
X28723941Y34849265D01*
X28735369Y34792011D01*
X28735370Y34792006D01*
X28759785Y34726543D01*
X28766071Y34711715D01*
X28821681Y34643857D01*
X28877614Y34601985D01*
X28890914Y34592911D01*
X28890915Y34592911D01*
X28898240Y34587913D01*
X28896429Y34585259D01*
X28910743Y34578827D01*
X28921575Y34562195D01*
X28936215Y34548794D01*
X28940734Y34532778D01*
X28948874Y34520280D01*
X28953882Y34486181D01*
X28954110Y34485376D01*
X28954155Y34477869D01*
X28954112Y34477705D01*
X28954112Y34351767D01*
X28954942Y34348669D01*
X28955010Y34337554D01*
X28947421Y34311117D01*
X28943181Y34283939D01*
X28937920Y34278013D01*
X28935734Y34270396D01*
X28915056Y34252258D01*
X28896796Y34231687D01*
X28887745Y34226538D01*
X28861108Y34212833D01*
X28861101Y34212828D01*
X28808438Y34166932D01*
X28796771Y34155827D01*
X28752843Y34079884D01*
X28733349Y34012791D01*
X28733349Y34012790D01*
X28726070Y33961121D01*
X28727913Y33313556D01*
X28727913Y33313555D01*
X28727981Y33289945D01*
X28727981Y33289941D01*
X28753477Y24332190D01*
X28753545Y24308580D01*
X28753545Y24308576D01*
X28776332Y16302441D01*
X28776333Y16302422D01*
X28780383Y16264628D01*
X28780385Y16264616D01*
X28791060Y16214699D01*
X28791484Y16212762D01*
X28830620Y16134255D01*
X28830622Y16134252D01*
X28830624Y16134248D01*
X28830627Y16134245D01*
X28830628Y16134243D01*
X28875851Y16080998D01*
X28875855Y16080994D01*
X28914945Y16046440D01*
X29580511Y15609351D01*
X29581068Y15608987D01*
X29581883Y15608456D01*
X29581888Y15608453D01*
X29612754Y15594203D01*
X29629945Y15586265D01*
X29696944Y15566444D01*
X29748571Y15558914D01*
X35100579Y15548014D01*
X35139064Y15552020D01*
X35139074Y15552023D01*
X35139079Y15552023D01*
X35189901Y15562826D01*
X35189947Y15562837D01*
X35189984Y15562844D01*
X35192445Y15563385D01*
X35270868Y15602715D01*
X35324012Y15648073D01*
X35335789Y15659054D01*
X35380500Y15734540D01*
X35400686Y15801431D01*
X35408497Y15853016D01*
X35420676Y17481715D01*
X35416636Y17521382D01*
X35405433Y17573820D01*
X35404623Y17577433D01*
X35364707Y17655560D01*
X35318952Y17708364D01*
X35307884Y17720058D01*
X35232066Y17764203D01*
X35207071Y17771543D01*
X35165028Y17783888D01*
X35165018Y17783890D01*
X35113387Y17791313D01*
X35113384Y17791313D01*
X31458061Y17791313D01*
X31391022Y17810998D01*
X31345267Y17863802D01*
X31334074Y17917136D01*
X31334412Y17940067D01*
X31340133Y18329127D01*
X36883249Y18329127D01*
X36883249Y18201926D01*
X36916171Y18079055D01*
X36947972Y18023976D01*
X36979773Y17968895D01*
X37069718Y17878950D01*
X37179879Y17815348D01*
X37302748Y17782426D01*
X37302750Y17782426D01*
X37429948Y17782426D01*
X37429950Y17782426D01*
X37552819Y17815348D01*
X37612024Y17849531D01*
X37679922Y17866004D01*
X37736023Y17849531D01*
X37784153Y17821743D01*
X37845154Y17786523D01*
X37845156Y17786522D01*
X37845157Y17786522D01*
X37845160Y17786520D01*
X37968029Y17753598D01*
X37968031Y17753598D01*
X38095229Y17753598D01*
X38095231Y17753598D01*
X38218100Y17786520D01*
X38328261Y17850122D01*
X38418206Y17940067D01*
X38481808Y18050228D01*
X38514730Y18173097D01*
X38514730Y18300299D01*
X38481808Y18423168D01*
X38418206Y18533329D01*
X38328261Y18623274D01*
X38273180Y18655075D01*
X38218101Y18686876D01*
X38156665Y18703337D01*
X38095231Y18719798D01*
X37968029Y18719798D01*
X37845157Y18686876D01*
X37785953Y18652694D01*
X37718052Y18636223D01*
X37661954Y18652695D01*
X37552822Y18715703D01*
X37552819Y18715704D01*
X37429950Y18748626D01*
X37302748Y18748626D01*
X37179877Y18715704D01*
X37069718Y18652102D01*
X37069715Y18652100D01*
X36979775Y18562160D01*
X36979773Y18562157D01*
X36916171Y18451998D01*
X36883249Y18329127D01*
X31340133Y18329127D01*
X31354739Y19322364D01*
X31354752Y19323422D01*
X31354764Y19324766D01*
X31354770Y19325695D01*
X31365471Y22097253D01*
X41918090Y22097253D01*
X41918090Y21970051D01*
X41934551Y21908617D01*
X41951012Y21847181D01*
X41960615Y21830549D01*
X42014614Y21737021D01*
X42104559Y21647076D01*
X42175635Y21606040D01*
X42214598Y21583544D01*
X42214720Y21583474D01*
X42337589Y21550552D01*
X42337591Y21550552D01*
X42464789Y21550552D01*
X42464791Y21550552D01*
X42587660Y21583474D01*
X42587666Y21583478D01*
X42595167Y21586584D01*
X42596426Y21583544D01*
X42649369Y21596423D01*
X42675448Y21590576D01*
X42675892Y21592231D01*
X42683741Y21590128D01*
X42683743Y21590127D01*
X42806612Y21557205D01*
X42806614Y21557205D01*
X42933812Y21557205D01*
X42933814Y21557205D01*
X43056683Y21590127D01*
X43056687Y21590130D01*
X43064197Y21593239D01*
X43064791Y21591805D01*
X43123716Y21606104D01*
X43179821Y21589632D01*
X43219295Y21566842D01*
X43342164Y21533920D01*
X43342166Y21533920D01*
X43469364Y21533920D01*
X43469366Y21533920D01*
X43592235Y21566842D01*
X43702396Y21630444D01*
X43792341Y21720389D01*
X43855943Y21830550D01*
X43862815Y21856196D01*
X45966516Y21856196D01*
X45966516Y21728994D01*
X45994266Y21625427D01*
X45999439Y21606123D01*
X45999457Y21606079D01*
X45999461Y21606040D01*
X46001542Y21598274D01*
X46000330Y21597950D01*
X46006919Y21536609D01*
X45999457Y21511195D01*
X45999438Y21511152D01*
X45999438Y21511150D01*
X45970699Y21403894D01*
X45966516Y21388281D01*
X45966516Y21261080D01*
X45999438Y21138209D01*
X46022895Y21097582D01*
X46063040Y21028049D01*
X46152985Y20938104D01*
X46263146Y20874502D01*
X46386015Y20841580D01*
X46386017Y20841580D01*
X46513215Y20841580D01*
X46513217Y20841580D01*
X46636086Y20874502D01*
X46652618Y20884048D01*
X46720517Y20900521D01*
X46776621Y20884048D01*
X46793154Y20874502D01*
X46916023Y20841580D01*
X46916025Y20841580D01*
X47043223Y20841580D01*
X47043225Y20841580D01*
X47166094Y20874502D01*
X47276255Y20938104D01*
X47366200Y21028049D01*
X47429802Y21138210D01*
X47462724Y21261079D01*
X47462724Y21388281D01*
X47429802Y21511150D01*
X47429799Y21511154D01*
X47427262Y21517281D01*
X47419792Y21586750D01*
X47427262Y21612191D01*
X47429798Y21618316D01*
X47429802Y21618322D01*
X47462724Y21741191D01*
X47462724Y21868393D01*
X47429802Y21991262D01*
X47366200Y22101423D01*
X47276255Y22191368D01*
X47193192Y22239325D01*
X47166095Y22254970D01*
X47104659Y22271431D01*
X47043225Y22287892D01*
X46916023Y22287892D01*
X46793154Y22254970D01*
X46793153Y22254970D01*
X46766056Y22239325D01*
X46698156Y22222854D01*
X46642059Y22239325D01*
X46636090Y22242771D01*
X46636088Y22242772D01*
X46636086Y22242773D01*
X46513217Y22275695D01*
X46386015Y22275695D01*
X46263144Y22242773D01*
X46152985Y22179171D01*
X46152982Y22179169D01*
X46063042Y22089229D01*
X46063040Y22089226D01*
X45999438Y21979067D01*
X45992566Y21953419D01*
X45966516Y21856196D01*
X43862815Y21856196D01*
X43888865Y21953419D01*
X43888865Y22080621D01*
X43855943Y22203490D01*
X43792341Y22313651D01*
X43702396Y22403596D01*
X43647315Y22435397D01*
X43592236Y22467198D01*
X43516932Y22487375D01*
X43469366Y22500120D01*
X43342164Y22500120D01*
X43342162Y22500120D01*
X43219297Y22467200D01*
X43211789Y22464089D01*
X43211196Y22465519D01*
X43152238Y22451223D01*
X43096155Y22467694D01*
X43056683Y22490483D01*
X43056672Y22490486D01*
X42933814Y22523405D01*
X42806612Y22523405D01*
X42806610Y22523405D01*
X42683748Y22490486D01*
X42676241Y22487375D01*
X42674991Y22490391D01*
X42621859Y22477543D01*
X42595944Y22483346D01*
X42595511Y22481726D01*
X42587661Y22483830D01*
X42587660Y22483830D01*
X42464791Y22516752D01*
X42337589Y22516752D01*
X42214718Y22483830D01*
X42104559Y22420228D01*
X42104556Y22420226D01*
X42014616Y22330286D01*
X42014614Y22330283D01*
X41951012Y22220124D01*
X41920396Y22105859D01*
X41918090Y22097253D01*
X31365471Y22097253D01*
X31369938Y23254158D01*
X35647735Y23254158D01*
X35647735Y23147968D01*
X35651926Y23132327D01*
X35675219Y23045394D01*
X35701767Y22999413D01*
X35728315Y22953431D01*
X35803403Y22878343D01*
X35895367Y22825247D01*
X35997940Y22797763D01*
X35997942Y22797763D01*
X36104128Y22797763D01*
X36104130Y22797763D01*
X36206703Y22825247D01*
X36298667Y22878343D01*
X36373755Y22953431D01*
X36426851Y23045395D01*
X36454335Y23147968D01*
X36454335Y23254158D01*
X36426851Y23356731D01*
X36373755Y23448695D01*
X36298667Y23523783D01*
X36252685Y23550331D01*
X36206704Y23576879D01*
X36155416Y23590621D01*
X36104130Y23604363D01*
X35997940Y23604363D01*
X35895365Y23576879D01*
X35803403Y23523783D01*
X35803400Y23523781D01*
X35728317Y23448698D01*
X35728315Y23448695D01*
X35675219Y23356733D01*
X35653206Y23274578D01*
X35647735Y23254158D01*
X31369938Y23254158D01*
X31382181Y26425029D01*
X31384690Y27074685D01*
X36678583Y27074685D01*
X36678583Y26968495D01*
X36705270Y26868893D01*
X36706325Y26860150D01*
X36702991Y26840204D01*
X36702991Y26813216D01*
X36678583Y26722120D01*
X36678583Y26722118D01*
X36678583Y26615928D01*
X36706067Y26513355D01*
X36706068Y26513354D01*
X36708171Y26505505D01*
X36705969Y26504916D01*
X36712168Y26447151D01*
X36707991Y26432928D01*
X36708171Y26432879D01*
X36706068Y26425031D01*
X36706067Y26425029D01*
X36678583Y26322456D01*
X36678583Y26216267D01*
X36706067Y26113692D01*
X36732615Y26067711D01*
X36759163Y26021729D01*
X36834251Y25946641D01*
X36926215Y25893545D01*
X37028788Y25866061D01*
X37028790Y25866061D01*
X37134976Y25866061D01*
X37134978Y25866061D01*
X37237551Y25893545D01*
X37329515Y25946641D01*
X37404603Y26021729D01*
X37457699Y26113693D01*
X37485183Y26216266D01*
X37485183Y26322456D01*
X37457699Y26425029D01*
X37457698Y26425031D01*
X37455595Y26432880D01*
X37457801Y26433472D01*
X37451590Y26491198D01*
X37455776Y26505456D01*
X37455595Y26505504D01*
X37457699Y26513355D01*
X37485183Y26615928D01*
X37485183Y26722118D01*
X37460774Y26813216D01*
X37460774Y26877400D01*
X37485183Y26968495D01*
X37485183Y27074685D01*
X37457699Y27177258D01*
X37404603Y27269222D01*
X37329515Y27344310D01*
X37283533Y27370858D01*
X37237552Y27397406D01*
X37186264Y27411148D01*
X37134978Y27424890D01*
X37028788Y27424890D01*
X36926213Y27397406D01*
X36834251Y27344310D01*
X36834248Y27344308D01*
X36759165Y27269225D01*
X36759163Y27269222D01*
X36706067Y27177260D01*
X36688273Y27110850D01*
X36678583Y27074685D01*
X31384690Y27074685D01*
X31384723Y27083291D01*
X31386783Y27616791D01*
X42903455Y27616791D01*
X42903455Y27510602D01*
X42930939Y27408027D01*
X42957487Y27362046D01*
X42984035Y27316064D01*
X43059123Y27240976D01*
X43138763Y27194995D01*
X43144936Y27191431D01*
X43151087Y27187880D01*
X43253660Y27160396D01*
X43253662Y27160396D01*
X43359848Y27160396D01*
X43359850Y27160396D01*
X43462423Y27187880D01*
X43554387Y27240976D01*
X43629475Y27316064D01*
X43682571Y27408028D01*
X43710055Y27510601D01*
X43710055Y27567245D01*
X48257141Y27567245D01*
X48257141Y27461056D01*
X48284625Y27358481D01*
X48292807Y27344310D01*
X48337721Y27266518D01*
X48412809Y27191430D01*
X48504773Y27138334D01*
X48607346Y27110850D01*
X48607348Y27110850D01*
X48713534Y27110850D01*
X48713536Y27110850D01*
X48816109Y27138334D01*
X48908073Y27191430D01*
X48983161Y27266518D01*
X49036257Y27358482D01*
X49063741Y27461055D01*
X49063741Y27567245D01*
X49036257Y27669818D01*
X48983161Y27761782D01*
X48908073Y27836870D01*
X48862091Y27863418D01*
X48816110Y27889966D01*
X48764822Y27903708D01*
X48713536Y27917450D01*
X48607346Y27917450D01*
X48504771Y27889966D01*
X48412809Y27836870D01*
X48412806Y27836868D01*
X48337723Y27761785D01*
X48337721Y27761782D01*
X48284625Y27669820D01*
X48257141Y27567245D01*
X43710055Y27567245D01*
X43710055Y27616791D01*
X43682571Y27719364D01*
X43629475Y27811328D01*
X43554387Y27886416D01*
X43500635Y27917450D01*
X43462424Y27939512D01*
X43411136Y27953254D01*
X43359850Y27966996D01*
X43253660Y27966996D01*
X43151085Y27939512D01*
X43059123Y27886416D01*
X43059120Y27886414D01*
X42984037Y27811331D01*
X42984035Y27811328D01*
X42930939Y27719366D01*
X42903455Y27616791D01*
X31386783Y27616791D01*
X31386816Y27625397D01*
X31394288Y29560593D01*
X33702171Y29560593D01*
X33702171Y29454404D01*
X33729655Y29351829D01*
X33756203Y29305848D01*
X33782751Y29259866D01*
X33857839Y29184778D01*
X33949803Y29131682D01*
X34052376Y29104198D01*
X34052378Y29104198D01*
X34158564Y29104198D01*
X34158566Y29104198D01*
X34261139Y29131682D01*
X34289749Y29148201D01*
X34357647Y29164674D01*
X34413750Y29148201D01*
X34442361Y29131682D01*
X34544934Y29104198D01*
X34544936Y29104198D01*
X34651122Y29104198D01*
X34651124Y29104198D01*
X34753697Y29131682D01*
X34845661Y29184778D01*
X34845662Y29184780D01*
X34852699Y29188842D01*
X34853446Y29187547D01*
X34910194Y29209489D01*
X34978639Y29195454D01*
X34982500Y29193316D01*
X35012692Y29175884D01*
X35115265Y29148400D01*
X35115267Y29148400D01*
X35221453Y29148400D01*
X35221455Y29148400D01*
X35324028Y29175884D01*
X35415992Y29228980D01*
X35491080Y29304068D01*
X35544176Y29396032D01*
X35571660Y29498605D01*
X35571660Y29604795D01*
X35544176Y29707368D01*
X35491080Y29799332D01*
X35415992Y29874420D01*
X35414879Y29875063D01*
X35370891Y29900461D01*
X35370888Y29900461D01*
X35324029Y29927516D01*
X35272741Y29941258D01*
X35221455Y29955000D01*
X35115265Y29955000D01*
X35012690Y29927516D01*
X34953829Y29893531D01*
X34920728Y29874420D01*
X34920726Y29874419D01*
X34913690Y29870356D01*
X34912943Y29871649D01*
X34856171Y29849709D01*
X34787728Y29863757D01*
X34783870Y29865894D01*
X34753702Y29883312D01*
X34753699Y29883313D01*
X34753698Y29883314D01*
X34753697Y29883314D01*
X34651124Y29910798D01*
X34544934Y29910798D01*
X34442361Y29883314D01*
X34442360Y29883314D01*
X34413749Y29866795D01*
X34345848Y29850324D01*
X34289751Y29866795D01*
X34261139Y29883314D01*
X34223004Y29893532D01*
X34158566Y29910798D01*
X34052376Y29910798D01*
X33949801Y29883314D01*
X33857839Y29830218D01*
X33857836Y29830216D01*
X33782753Y29755133D01*
X33782751Y29755130D01*
X33729655Y29663168D01*
X33702171Y29560593D01*
X31394288Y29560593D01*
X31394321Y29569199D01*
X31395983Y29999721D01*
X42321981Y29999721D01*
X42321981Y29893531D01*
X42323259Y29888763D01*
X42349465Y29790957D01*
X42374819Y29747044D01*
X42402561Y29698994D01*
X42477649Y29623906D01*
X42569613Y29570810D01*
X42672186Y29543326D01*
X42672188Y29543326D01*
X42778374Y29543326D01*
X42778376Y29543326D01*
X42880949Y29570810D01*
X42972913Y29623906D01*
X43048001Y29698994D01*
X43101097Y29790958D01*
X43128581Y29893531D01*
X43128581Y29999721D01*
X43101097Y30102294D01*
X43048001Y30194258D01*
X42972913Y30269346D01*
X42900783Y30310991D01*
X42880950Y30322442D01*
X42829662Y30336184D01*
X42778376Y30349926D01*
X42672186Y30349926D01*
X42569611Y30322442D01*
X42477649Y30269346D01*
X42477646Y30269344D01*
X42402563Y30194261D01*
X42402561Y30194258D01*
X42349465Y30102296D01*
X42348187Y30097526D01*
X42321981Y29999721D01*
X31395983Y29999721D01*
X31400283Y31113318D01*
X31401734Y31489130D01*
X33567366Y31489130D01*
X33567366Y31382941D01*
X33594850Y31280366D01*
X33621398Y31234385D01*
X33647946Y31188403D01*
X33723034Y31113315D01*
X33814998Y31060219D01*
X33917571Y31032735D01*
X33917573Y31032735D01*
X34023759Y31032735D01*
X34023761Y31032735D01*
X34126334Y31060219D01*
X34218298Y31113315D01*
X34231428Y31126446D01*
X34292747Y31159930D01*
X34362438Y31154947D01*
X34381109Y31146151D01*
X34384097Y31144426D01*
X34384099Y31144424D01*
X34476063Y31091328D01*
X34578636Y31063844D01*
X34578638Y31063844D01*
X34684824Y31063844D01*
X34684826Y31063844D01*
X34787399Y31091328D01*
X34860081Y31133292D01*
X34927979Y31149765D01*
X34984080Y31133292D01*
X35018676Y31113318D01*
X35056760Y31091329D01*
X35056762Y31091329D01*
X35056763Y31091328D01*
X35159336Y31063844D01*
X35159338Y31063844D01*
X35265524Y31063844D01*
X35265526Y31063844D01*
X35368099Y31091328D01*
X35460063Y31144424D01*
X35535151Y31219512D01*
X35588247Y31311476D01*
X35615731Y31414049D01*
X35615731Y31520239D01*
X35588247Y31622812D01*
X35585888Y31626897D01*
X35561634Y31668906D01*
X35535151Y31714776D01*
X35460063Y31789864D01*
X35384493Y31833495D01*
X35368100Y31842960D01*
X35291654Y31863443D01*
X35265526Y31870444D01*
X35159336Y31870444D01*
X35056761Y31842960D01*
X34984082Y31800997D01*
X34916182Y31784524D01*
X34860080Y31800997D01*
X34787400Y31842960D01*
X34710954Y31863443D01*
X34684826Y31870444D01*
X34578636Y31870444D01*
X34476061Y31842960D01*
X34384099Y31789864D01*
X34370967Y31776732D01*
X34309643Y31743249D01*
X34239951Y31748235D01*
X34221287Y31757029D01*
X34214634Y31760870D01*
X34187161Y31776732D01*
X34126335Y31811851D01*
X34045545Y31833498D01*
X34023761Y31839335D01*
X33917571Y31839335D01*
X33814996Y31811851D01*
X33723034Y31758755D01*
X33723031Y31758753D01*
X33647948Y31683670D01*
X33647946Y31683667D01*
X33594850Y31591705D01*
X33567366Y31489130D01*
X31401734Y31489130D01*
X31404106Y32103501D01*
X31424049Y32170463D01*
X31477029Y32216013D01*
X31528105Y32227021D01*
X39516014Y32227021D01*
X39583053Y32207336D01*
X39628808Y32154532D01*
X39638752Y32085374D01*
X39630579Y32055578D01*
X39630425Y32055208D01*
X39630423Y32055200D01*
X39601235Y31946269D01*
X39601235Y31833495D01*
X39630423Y31724564D01*
X39686810Y31626899D01*
X39766552Y31547157D01*
X39864217Y31490770D01*
X39973148Y31461582D01*
X39973150Y31461582D01*
X40085919Y31461582D01*
X40085922Y31461582D01*
X40194853Y31490770D01*
X40292518Y31547157D01*
X40372260Y31626899D01*
X40428647Y31724564D01*
X40457835Y31833495D01*
X40457835Y31946269D01*
X40428647Y32055200D01*
X40428642Y32055208D01*
X40427952Y32056877D01*
X40427787Y32058405D01*
X40426543Y32063050D01*
X40427267Y32063245D01*
X40420482Y32126346D01*
X40451755Y32188826D01*
X40511844Y32224480D01*
X40542188Y32228332D01*
X41045003Y32229627D01*
X41112092Y32210115D01*
X41157982Y32157429D01*
X41168104Y32088296D01*
X41165096Y32073534D01*
X41164740Y32072207D01*
X41164740Y32072206D01*
X41137256Y31969633D01*
X41137256Y31863443D01*
X41150998Y31812157D01*
X41164740Y31760869D01*
X41185701Y31724564D01*
X41217836Y31668906D01*
X41292924Y31593818D01*
X41384888Y31540722D01*
X41487461Y31513238D01*
X41487463Y31513238D01*
X41593649Y31513238D01*
X41593651Y31513238D01*
X41696224Y31540722D01*
X41788188Y31593818D01*
X41863276Y31668906D01*
X41916372Y31760870D01*
X41943856Y31863443D01*
X41943856Y31969633D01*
X41916372Y32072206D01*
X41916370Y32072209D01*
X41915332Y32076085D01*
X41916995Y32145934D01*
X41956158Y32203797D01*
X42020386Y32231301D01*
X42034778Y32232178D01*
X43728306Y32236540D01*
X43767031Y32240779D01*
X43767043Y32240782D01*
X43767046Y32240782D01*
X43793390Y32246549D01*
X43818223Y32251985D01*
X43820935Y32252600D01*
X43899062Y32292516D01*
X43951866Y32338271D01*
X43963560Y32349339D01*
X44007705Y32425157D01*
X44027390Y32492196D01*
X44032389Y32526976D01*
X44035350Y32541407D01*
X44040934Y32562248D01*
X44045583Y32579599D01*
X44057968Y32609500D01*
X44070611Y32631397D01*
X44090310Y32657067D01*
X44108189Y32674946D01*
X44133862Y32694648D01*
X44155757Y32707290D01*
X44185669Y32719678D01*
X44210089Y32726220D01*
X44242177Y32730444D01*
X44267457Y32730444D01*
X44299547Y32726220D01*
X44323958Y32719679D01*
X44353863Y32707292D01*
X44375757Y32694652D01*
X44401440Y32674945D01*
X44419314Y32657071D01*
X44439019Y32631392D01*
X44451660Y32609498D01*
X44464049Y32579588D01*
X44473635Y32543811D01*
X44477140Y32525058D01*
X44479053Y32507373D01*
X44479056Y32507354D01*
X44490388Y32455581D01*
X44491117Y32452387D01*
X44491118Y32452384D01*
X44531236Y32374359D01*
X44577114Y32321688D01*
X44577122Y32321680D01*
X44577126Y32321675D01*
X44588224Y32310010D01*
X44664156Y32266061D01*
X44731245Y32246549D01*
X44782906Y32239257D01*
X47614450Y32246552D01*
X47645676Y32249313D01*
X47687294Y32256620D01*
X47687296Y32256622D01*
X47687300Y32256622D01*
X47763668Y32289108D01*
X47763668Y32289109D01*
X47763675Y32289111D01*
X47813199Y32325265D01*
X47813198Y32325266D01*
X47835252Y32341365D01*
X47835802Y32342532D01*
X47840858Y32347900D01*
X47867581Y32374623D01*
X47887925Y32394967D01*
X47913597Y32414668D01*
X47935499Y32427313D01*
X47965396Y32439696D01*
X47989823Y32446240D01*
X48021911Y32450464D01*
X48047192Y32450464D01*
X48079277Y32446240D01*
X48079282Y32446240D01*
X48103693Y32439699D01*
X48133598Y32427312D01*
X48155492Y32414672D01*
X48181176Y32394964D01*
X48233383Y32342756D01*
X48233396Y32342744D01*
X48233404Y32342736D01*
X48234953Y32341365D01*
X48257117Y32321745D01*
X48257047Y32321667D01*
X48259379Y32319865D01*
X48263082Y32316467D01*
X48305629Y32292516D01*
X48335820Y32275520D01*
X48402909Y32256008D01*
X48454570Y32248716D01*
X49714127Y32251961D01*
X49753719Y32256392D01*
X49806004Y32268103D01*
X49806000Y32268103D01*
X49806022Y32268107D01*
X49807266Y32268399D01*
X49809579Y32268941D01*
X49887315Y32309614D01*
X49939672Y32355879D01*
X49951259Y32367061D01*
X49994665Y32443304D01*
X50013698Y32510532D01*
X50020621Y32562244D01*
X49997768Y34916072D01*
X49993354Y34954315D01*
X49982044Y35004864D01*
X49981522Y35007132D01*
X49941439Y35085173D01*
X49910309Y35120944D01*
X49895569Y35137882D01*
X49884477Y35149550D01*
X49884477Y35149551D01*
X49808564Y35193532D01*
X49795955Y35197205D01*
X49741483Y35213073D01*
X49720820Y35215999D01*
X49689829Y35220388D01*
X49689826Y35220388D01*
X49668278Y35220342D01*
X46363571Y35213267D01*
X46363568Y35213267D01*
X46363564Y35213266D01*
X46344179Y35211150D01*
X46324791Y35209034D01*
X46273562Y35197831D01*
X46270808Y35197206D01*
X46270799Y35197203D01*
X46220865Y35171691D01*
X46152210Y35158720D01*
X46088962Y35183739D01*
X46084561Y35187116D01*
X46084558Y35187119D01*
X46038576Y35213667D01*
X45992595Y35240215D01*
X45941307Y35253957D01*
X45890021Y35267699D01*
X45783831Y35267699D01*
X45681256Y35240215D01*
X45589283Y35187113D01*
X45583400Y35182599D01*
X45518228Y35157413D01*
X45449785Y35171459D01*
X45445765Y35173690D01*
X45427708Y35184152D01*
X45360627Y35203692D01*
X45308973Y35211007D01*
X45308971Y35211007D01*
X45006387Y35210360D01*
X38326599Y35196057D01*
X38259518Y35215598D01*
X38213650Y35268304D01*
X38202337Y35320908D01*
X38211766Y36688027D01*
X39605430Y36688027D01*
X39605430Y36575253D01*
X39634618Y36466322D01*
X39691005Y36368657D01*
X39770747Y36288915D01*
X39868412Y36232528D01*
X39977343Y36203340D01*
X39977345Y36203340D01*
X40090114Y36203340D01*
X40090117Y36203340D01*
X40199048Y36232528D01*
X40296713Y36288915D01*
X40376455Y36368657D01*
X40432842Y36466322D01*
X40462030Y36575253D01*
X40462030Y36688027D01*
X40432842Y36796958D01*
X40376455Y36894623D01*
X40296713Y36974365D01*
X40199048Y37030752D01*
X40090117Y37059940D01*
X39977343Y37059940D01*
X39868412Y37030752D01*
X39868410Y37030752D01*
X39868410Y37030751D01*
X39770747Y36974365D01*
X39770744Y36974363D01*
X39691007Y36894626D01*
X39691005Y36894623D01*
X39634618Y36796958D01*
X39605430Y36688027D01*
X38211766Y36688027D01*
X38249862Y42211691D01*
X38245863Y42251053D01*
X38234802Y42303109D01*
X38234064Y42306429D01*
X38208370Y42357063D01*
X38194365Y42384664D01*
X38148746Y42437604D01*
X38137721Y42449316D01*
X38062031Y42493669D01*
X38062027Y42493670D01*
X38062026Y42493671D01*
X37995044Y42513541D01*
X37943420Y42521109D01*
X33483170Y42533396D01*
X29022921Y42545683D01*
X29022920Y42545683D01*
X29022908Y42545683D01*
X28983705Y42541549D01*
X28983700Y42541548D01*
X28983695Y42541548D01*
X28983695Y42541547D01*
X28931845Y42530341D01*
X28931832Y42530339D01*
X28931753Y42530321D01*
X28928662Y42529625D01*
X28928654Y42529622D01*
X28850530Y42489708D01*
X28797720Y42443947D01*
X28786034Y42432887D01*
X28786030Y42432881D01*
X28741888Y42357068D01*
X28741886Y42357063D01*
X28722202Y42290029D01*
X28722200Y42290019D01*
X28714777Y42238388D01*
X27768961Y42238388D01*
X27768961Y44977650D01*
X27788646Y45044689D01*
X27830966Y45085040D01*
X27835961Y45087923D01*
X27940094Y45192056D01*
X28013727Y45319592D01*
X28051843Y45461841D01*
X28051843Y45609107D01*
X28013727Y45751356D01*
X27992359Y45788367D01*
X27990120Y45797657D01*
X37426230Y45797657D01*
X37426230Y45691467D01*
X37430241Y45676499D01*
X37453714Y45588893D01*
X37462356Y45573925D01*
X37506810Y45496930D01*
X37581898Y45421842D01*
X37673862Y45368746D01*
X37776435Y45341262D01*
X37776437Y45341262D01*
X37882623Y45341262D01*
X37882625Y45341262D01*
X37985198Y45368746D01*
X38077162Y45421842D01*
X38152250Y45496930D01*
X38205346Y45588894D01*
X38232830Y45691467D01*
X38232830Y45797657D01*
X38205346Y45900230D01*
X38202595Y45904994D01*
X38198231Y45912554D01*
X38152250Y45992194D01*
X38077162Y46067282D01*
X38011123Y46105410D01*
X37985199Y46120378D01*
X37929332Y46135347D01*
X37882625Y46147862D01*
X37776435Y46147862D01*
X37673860Y46120378D01*
X37581898Y46067282D01*
X37581895Y46067280D01*
X37506812Y45992197D01*
X37506810Y45992194D01*
X37453714Y45900232D01*
X37440311Y45850209D01*
X37426230Y45797657D01*
X27990120Y45797657D01*
X27984247Y45822018D01*
X27975977Y45856108D01*
X27976006Y45856208D01*
X27975986Y45856291D01*
X27976273Y45857118D01*
X27992450Y45912210D01*
X27994124Y45915109D01*
X28013727Y45949062D01*
X28051843Y46091311D01*
X28051843Y46238577D01*
X28023589Y46344020D01*
X39299829Y46344020D01*
X39299829Y46237831D01*
X39327313Y46135256D01*
X39353861Y46089275D01*
X39380409Y46043293D01*
X39455497Y45968205D01*
X39535137Y45922224D01*
X39547301Y45915201D01*
X39547461Y45915109D01*
X39650034Y45887625D01*
X39650036Y45887625D01*
X39672296Y45887625D01*
X39739335Y45867940D01*
X39785090Y45815136D01*
X39796296Y45763625D01*
X39796296Y45706436D01*
X39810038Y45655150D01*
X39823780Y45603862D01*
X39832422Y45588894D01*
X39876876Y45511899D01*
X39951964Y45436811D01*
X40043928Y45383715D01*
X40146501Y45356231D01*
X40146503Y45356231D01*
X40252689Y45356231D01*
X40252691Y45356231D01*
X40355264Y45383715D01*
X40447228Y45436811D01*
X40522316Y45511899D01*
X40575412Y45603863D01*
X40602896Y45706436D01*
X40602896Y45782689D01*
X41073636Y45782689D01*
X41073636Y45676500D01*
X41101120Y45573925D01*
X41127668Y45527944D01*
X41154216Y45481962D01*
X41229304Y45406874D01*
X41295343Y45368746D01*
X41317017Y45356232D01*
X41321268Y45353778D01*
X41423841Y45326294D01*
X41423843Y45326294D01*
X41530029Y45326294D01*
X41530031Y45326294D01*
X41632604Y45353778D01*
X41724568Y45406874D01*
X41799656Y45481962D01*
X41852752Y45573926D01*
X41880236Y45676499D01*
X41880236Y45782689D01*
X41852752Y45885262D01*
X41799656Y45977226D01*
X41724568Y46052314D01*
X41657019Y46091314D01*
X41632605Y46105410D01*
X41576742Y46120378D01*
X41530031Y46132894D01*
X41423841Y46132894D01*
X41321266Y46105410D01*
X41229304Y46052314D01*
X41229301Y46052312D01*
X41154218Y45977229D01*
X41154216Y45977226D01*
X41101120Y45885264D01*
X41073636Y45782689D01*
X40602896Y45782689D01*
X40602896Y45812626D01*
X40575412Y45915199D01*
X40522316Y46007163D01*
X40447228Y46082251D01*
X40381191Y46120378D01*
X40355265Y46135347D01*
X40303977Y46149089D01*
X40252691Y46162831D01*
X40230429Y46162831D01*
X40163390Y46182516D01*
X40117635Y46235320D01*
X40106429Y46286831D01*
X40106429Y46344018D01*
X40106429Y46344020D01*
X40078945Y46446593D01*
X40025849Y46538557D01*
X39950761Y46613645D01*
X39904779Y46640193D01*
X39858798Y46666741D01*
X39807510Y46680483D01*
X39756224Y46694225D01*
X39650034Y46694225D01*
X39547459Y46666741D01*
X39455497Y46613645D01*
X39455494Y46613643D01*
X39380411Y46538560D01*
X39380409Y46538557D01*
X39327313Y46446595D01*
X39299829Y46344020D01*
X28023589Y46344020D01*
X28013727Y46380826D01*
X27973488Y46450520D01*
X27970508Y46457561D01*
X27967344Y46484977D01*
X27960837Y46511800D01*
X27963287Y46520145D01*
X27962500Y46526970D01*
X27969447Y46541123D01*
X27977311Y46567902D01*
X28013724Y46630971D01*
X28013725Y46630972D01*
X28013725Y46630974D01*
X28013727Y46630976D01*
X28051843Y46773225D01*
X28051843Y46920491D01*
X28013727Y47062740D01*
X27982336Y47117110D01*
X27965864Y47185008D01*
X27982337Y47241110D01*
X28013727Y47295478D01*
X28051843Y47437727D01*
X28051843Y47584993D01*
X28035130Y47647366D01*
X28036792Y47717214D01*
X28075953Y47775077D01*
X28140182Y47802582D01*
X28154952Y47803459D01*
X52536001Y47792336D01*
G37*
%TD.AperFunction*%
%TD*%
%TA.AperFunction,Conductor*%
%TO.N,/VDD1A-2A*%
G36*
X15472491Y32398017D02*
G01*
X15501285Y32373420D01*
X15831942Y31989143D01*
X16055139Y31729753D01*
X16083944Y31666097D01*
X16085101Y31645525D01*
X16052716Y30447270D01*
X16052716Y30447268D01*
X16322153Y29706315D01*
X16322155Y29706314D01*
X19371479Y29706314D01*
X19438518Y29686629D01*
X19484273Y29633825D01*
X19494217Y29564667D01*
X19465192Y29501111D01*
X19459160Y29494633D01*
X19388482Y29423956D01*
X19388480Y29423953D01*
X19332093Y29326288D01*
X19302905Y29217357D01*
X19302905Y29104583D01*
X19332093Y28995652D01*
X19388480Y28897987D01*
X19468222Y28818245D01*
X19565887Y28761858D01*
X19674818Y28732670D01*
X19674820Y28732670D01*
X19787589Y28732670D01*
X19787592Y28732670D01*
X19896523Y28761858D01*
X19994188Y28818245D01*
X20073930Y28897987D01*
X20130317Y28995652D01*
X20159505Y29104583D01*
X20159505Y29217357D01*
X20130317Y29326288D01*
X20073930Y29423953D01*
X20003250Y29494633D01*
X19969765Y29555956D01*
X19974749Y29625648D01*
X20016621Y29681581D01*
X20082085Y29705998D01*
X20090931Y29706314D01*
X24998449Y29706314D01*
X25065488Y29686629D01*
X25111243Y29633825D01*
X25122449Y29582314D01*
X25122449Y23629176D01*
X25102764Y23562137D01*
X25060451Y23521790D01*
X25033534Y23506249D01*
X25033528Y23506245D01*
X24929400Y23402117D01*
X24929396Y23402111D01*
X24855766Y23274582D01*
X24855765Y23274578D01*
X24817649Y23132329D01*
X24817649Y22985063D01*
X24842414Y22892641D01*
X24855766Y22842811D01*
X24892181Y22779739D01*
X24908654Y22711839D01*
X24892181Y22655739D01*
X24855766Y22592668D01*
X24855765Y22592664D01*
X24817649Y22450415D01*
X24817649Y22303149D01*
X24846236Y22196463D01*
X24855765Y22160899D01*
X24855767Y22160896D01*
X24877042Y22124045D01*
X24893513Y22056145D01*
X24877042Y22000049D01*
X24855767Y21963199D01*
X24855765Y21963196D01*
X24836707Y21892070D01*
X24817649Y21820945D01*
X24817649Y21673679D01*
X24854348Y21536719D01*
X24855766Y21531427D01*
X24880339Y21488866D01*
X24929398Y21403894D01*
X24929400Y21403892D01*
X25033531Y21299761D01*
X25060448Y21284221D01*
X25108664Y21233654D01*
X25122449Y21176833D01*
X25122449Y3031642D01*
X25102764Y2964603D01*
X25060449Y2924255D01*
X24937644Y2853354D01*
X24937638Y2853349D01*
X24833510Y2749221D01*
X24833506Y2749215D01*
X24759876Y2621686D01*
X24759875Y2621682D01*
X24721759Y2479433D01*
X24721759Y2332167D01*
X24759875Y2189918D01*
X24791265Y2135548D01*
X24807736Y2067647D01*
X24791265Y2011550D01*
X24759875Y1957181D01*
X24759875Y1957180D01*
X24721759Y1814931D01*
X24721759Y1667665D01*
X24759875Y1525416D01*
X24759876Y1525413D01*
X24796291Y1462341D01*
X24812764Y1394441D01*
X24796291Y1338341D01*
X24759876Y1275270D01*
X24759875Y1275266D01*
X24721759Y1133017D01*
X24721759Y985751D01*
X24750346Y879065D01*
X24759875Y843501D01*
X24759877Y843498D01*
X24781152Y806647D01*
X24797623Y738747D01*
X24781152Y682651D01*
X24759877Y645801D01*
X24759875Y645798D01*
X24740817Y574672D01*
X24721759Y503547D01*
X24721759Y503545D01*
X24721759Y393368D01*
X24702074Y326329D01*
X24649270Y280574D01*
X24597753Y269368D01*
X355443Y270617D01*
X288404Y290305D01*
X242652Y343111D01*
X231449Y394617D01*
X231449Y6251645D01*
X5133649Y6251645D01*
X5133649Y6108174D01*
X5161635Y5967480D01*
X5161637Y5967472D01*
X5216537Y5834932D01*
X5296242Y5715643D01*
X5397682Y5614203D01*
X5397685Y5614201D01*
X5516970Y5534498D01*
X5649512Y5479597D01*
X5790213Y5451610D01*
X5790217Y5451609D01*
X5790218Y5451609D01*
X5933681Y5451609D01*
X5933682Y5451610D01*
X6074386Y5479597D01*
X6206928Y5534498D01*
X6326213Y5614201D01*
X6427657Y5715645D01*
X6507360Y5834930D01*
X6562261Y5967472D01*
X6590249Y6108178D01*
X6590249Y6251640D01*
X6590248Y6251645D01*
X7673649Y6251645D01*
X7673649Y6108174D01*
X7701635Y5967480D01*
X7701637Y5967472D01*
X7756537Y5834932D01*
X7836242Y5715643D01*
X7937682Y5614203D01*
X7937685Y5614201D01*
X8056970Y5534498D01*
X8189512Y5479597D01*
X8330213Y5451610D01*
X8330217Y5451609D01*
X8330218Y5451609D01*
X8473681Y5451609D01*
X8473682Y5451610D01*
X8614386Y5479597D01*
X8746928Y5534498D01*
X8866213Y5614201D01*
X8967657Y5715645D01*
X9047360Y5834930D01*
X9102261Y5967472D01*
X9130249Y6108178D01*
X9130249Y6251640D01*
X9130248Y6251645D01*
X15813649Y6251645D01*
X15813649Y6108174D01*
X15841635Y5967480D01*
X15841637Y5967472D01*
X15896537Y5834932D01*
X15976242Y5715643D01*
X16077682Y5614203D01*
X16077685Y5614201D01*
X16196970Y5534498D01*
X16329512Y5479597D01*
X16470213Y5451610D01*
X16470217Y5451609D01*
X16470218Y5451609D01*
X16613681Y5451609D01*
X16613682Y5451610D01*
X16754386Y5479597D01*
X16886928Y5534498D01*
X17006213Y5614201D01*
X17107657Y5715645D01*
X17187360Y5834930D01*
X17242261Y5967472D01*
X17270249Y6108178D01*
X17270249Y6251640D01*
X17270248Y6251645D01*
X18353649Y6251645D01*
X18353649Y6108174D01*
X18381635Y5967480D01*
X18381637Y5967472D01*
X18436537Y5834932D01*
X18516242Y5715643D01*
X18617682Y5614203D01*
X18617685Y5614201D01*
X18736970Y5534498D01*
X18869512Y5479597D01*
X19010213Y5451610D01*
X19010217Y5451609D01*
X19010218Y5451609D01*
X19153681Y5451609D01*
X19153682Y5451610D01*
X19294386Y5479597D01*
X19426928Y5534498D01*
X19546213Y5614201D01*
X19647657Y5715645D01*
X19727360Y5834930D01*
X19782261Y5967472D01*
X19810249Y6108178D01*
X19810249Y6251640D01*
X19782261Y6392346D01*
X19727360Y6524888D01*
X19647657Y6644173D01*
X19647655Y6644176D01*
X19546215Y6745616D01*
X19486570Y6785469D01*
X19426928Y6825320D01*
X19294386Y6880221D01*
X19294378Y6880223D01*
X19153684Y6908209D01*
X19153680Y6908209D01*
X19010218Y6908209D01*
X19010213Y6908209D01*
X18869519Y6880223D01*
X18869511Y6880221D01*
X18736971Y6825321D01*
X18617682Y6745616D01*
X18516242Y6644176D01*
X18436537Y6524887D01*
X18381637Y6392347D01*
X18381635Y6392339D01*
X18353649Y6251645D01*
X17270248Y6251645D01*
X17242261Y6392346D01*
X17187360Y6524888D01*
X17107657Y6644173D01*
X17107655Y6644176D01*
X17006215Y6745616D01*
X16946570Y6785469D01*
X16886928Y6825320D01*
X16754386Y6880221D01*
X16754378Y6880223D01*
X16613684Y6908209D01*
X16613680Y6908209D01*
X16470218Y6908209D01*
X16470213Y6908209D01*
X16329519Y6880223D01*
X16329511Y6880221D01*
X16196971Y6825321D01*
X16077682Y6745616D01*
X15976242Y6644176D01*
X15896537Y6524887D01*
X15841637Y6392347D01*
X15841635Y6392339D01*
X15813649Y6251645D01*
X9130248Y6251645D01*
X9102261Y6392346D01*
X9047360Y6524888D01*
X8967657Y6644173D01*
X8967655Y6644176D01*
X8866215Y6745616D01*
X8806570Y6785469D01*
X8746928Y6825320D01*
X8614386Y6880221D01*
X8614378Y6880223D01*
X8473684Y6908209D01*
X8473680Y6908209D01*
X8330218Y6908209D01*
X8330213Y6908209D01*
X8189519Y6880223D01*
X8189511Y6880221D01*
X8056971Y6825321D01*
X7937682Y6745616D01*
X7836242Y6644176D01*
X7756537Y6524887D01*
X7701637Y6392347D01*
X7701635Y6392339D01*
X7673649Y6251645D01*
X6590248Y6251645D01*
X6562261Y6392346D01*
X6507360Y6524888D01*
X6427657Y6644173D01*
X6427655Y6644176D01*
X6326215Y6745616D01*
X6266570Y6785469D01*
X6206928Y6825320D01*
X6074386Y6880221D01*
X6074378Y6880223D01*
X5933684Y6908209D01*
X5933680Y6908209D01*
X5790218Y6908209D01*
X5790213Y6908209D01*
X5649519Y6880223D01*
X5649511Y6880221D01*
X5516971Y6825321D01*
X5397682Y6745616D01*
X5296242Y6644176D01*
X5216537Y6524887D01*
X5161637Y6392347D01*
X5161635Y6392339D01*
X5133649Y6251645D01*
X231449Y6251645D01*
X231449Y11038307D01*
X5080249Y11038307D01*
X5080249Y10818512D01*
X5108936Y10600603D01*
X5165824Y10388295D01*
X5249933Y10185239D01*
X5249941Y10185222D01*
X5359828Y9994890D01*
X5359830Y9994886D01*
X5493634Y9820512D01*
X5493642Y9820503D01*
X5649043Y9665102D01*
X5649051Y9665095D01*
X5823425Y9531291D01*
X5823429Y9531289D01*
X6013761Y9421402D01*
X6013764Y9421401D01*
X6013772Y9421396D01*
X6216835Y9337284D01*
X6429139Y9280397D01*
X6592573Y9258881D01*
X6647051Y9251709D01*
X6647052Y9251709D01*
X6866847Y9251709D01*
X6910428Y9257447D01*
X7084759Y9280397D01*
X7297063Y9337284D01*
X7500126Y9421396D01*
X7690468Y9531289D01*
X7690472Y9531291D01*
X7723385Y9556547D01*
X7864846Y9665094D01*
X7864850Y9665099D01*
X7864855Y9665102D01*
X8020256Y9820503D01*
X8020259Y9820508D01*
X8020264Y9820512D01*
X8154066Y9994885D01*
X8263962Y10185232D01*
X8348074Y10388295D01*
X8404961Y10600599D01*
X8433649Y10818512D01*
X8433649Y11038306D01*
X8433649Y11038307D01*
X16510249Y11038307D01*
X16510249Y10818512D01*
X16538936Y10600603D01*
X16595824Y10388295D01*
X16679933Y10185239D01*
X16679941Y10185222D01*
X16789828Y9994890D01*
X16789830Y9994886D01*
X16923634Y9820512D01*
X16923642Y9820503D01*
X17079043Y9665102D01*
X17079051Y9665095D01*
X17253425Y9531291D01*
X17253429Y9531289D01*
X17443761Y9421402D01*
X17443764Y9421401D01*
X17443772Y9421396D01*
X17646835Y9337284D01*
X17859139Y9280397D01*
X18022573Y9258881D01*
X18077051Y9251709D01*
X18077052Y9251709D01*
X18296847Y9251709D01*
X18340428Y9257447D01*
X18514759Y9280397D01*
X18727063Y9337284D01*
X18930126Y9421396D01*
X19120468Y9531289D01*
X19120472Y9531291D01*
X19153385Y9556547D01*
X19294846Y9665094D01*
X19294850Y9665099D01*
X19294855Y9665102D01*
X19450256Y9820503D01*
X19450259Y9820508D01*
X19450264Y9820512D01*
X19584066Y9994885D01*
X19693962Y10185232D01*
X19778074Y10388295D01*
X19834961Y10600599D01*
X19863649Y10818512D01*
X19863649Y11038306D01*
X19834961Y11256219D01*
X19778074Y11468523D01*
X19693962Y11671586D01*
X19693956Y11671597D01*
X19584069Y11861929D01*
X19584067Y11861933D01*
X19450263Y12036307D01*
X19450256Y12036315D01*
X19294855Y12191716D01*
X19294846Y12191724D01*
X19120472Y12325528D01*
X19120468Y12325530D01*
X18930136Y12435417D01*
X18930128Y12435421D01*
X18930126Y12435422D01*
X18727063Y12519534D01*
X18514759Y12576421D01*
X18514758Y12576422D01*
X18514755Y12576422D01*
X18296847Y12605109D01*
X18296846Y12605109D01*
X18077052Y12605109D01*
X18077051Y12605109D01*
X17859142Y12576422D01*
X17646834Y12519534D01*
X17443778Y12435425D01*
X17443761Y12435417D01*
X17253429Y12325530D01*
X17253425Y12325528D01*
X17079051Y12191724D01*
X16923634Y12036307D01*
X16789830Y11861933D01*
X16789828Y11861929D01*
X16679941Y11671597D01*
X16679933Y11671580D01*
X16595824Y11468524D01*
X16538936Y11256216D01*
X16510249Y11038307D01*
X8433649Y11038307D01*
X8404961Y11256219D01*
X8348074Y11468523D01*
X8263962Y11671586D01*
X8263956Y11671597D01*
X8154069Y11861929D01*
X8154067Y11861933D01*
X8020263Y12036307D01*
X8020256Y12036315D01*
X7864855Y12191716D01*
X7864846Y12191724D01*
X7690472Y12325528D01*
X7690468Y12325530D01*
X7500136Y12435417D01*
X7500128Y12435421D01*
X7500126Y12435422D01*
X7297063Y12519534D01*
X7084759Y12576421D01*
X7084758Y12576422D01*
X7084755Y12576422D01*
X6866847Y12605109D01*
X6866846Y12605109D01*
X6647052Y12605109D01*
X6647051Y12605109D01*
X6429142Y12576422D01*
X6216834Y12519534D01*
X6013778Y12435425D01*
X6013761Y12435417D01*
X5823429Y12325530D01*
X5823425Y12325528D01*
X5649051Y12191724D01*
X5493634Y12036307D01*
X5359830Y11861933D01*
X5359828Y11861929D01*
X5249941Y11671597D01*
X5249933Y11671580D01*
X5165824Y11468524D01*
X5108936Y11256216D01*
X5080249Y11038307D01*
X231449Y11038307D01*
X231449Y14063273D01*
X3593649Y14063273D01*
X3593649Y13893546D01*
X3620201Y13725906D01*
X3672647Y13564489D01*
X3672648Y13564486D01*
X3749704Y13413257D01*
X3849468Y13275944D01*
X3969484Y13155928D01*
X4106797Y13056164D01*
X4180970Y13018371D01*
X4258025Y12979109D01*
X4258028Y12979108D01*
X4338736Y12952885D01*
X4419447Y12926661D01*
X4587085Y12900109D01*
X4587086Y12900109D01*
X4756812Y12900109D01*
X4756813Y12900109D01*
X4924451Y12926661D01*
X5085872Y12979109D01*
X5237101Y13056164D01*
X5374414Y13155928D01*
X5494430Y13275944D01*
X5594194Y13413257D01*
X5671249Y13564486D01*
X5723697Y13725907D01*
X5750249Y13893545D01*
X5750249Y14063273D01*
X5723697Y14230911D01*
X5671249Y14392332D01*
X5671249Y14392333D01*
X5649055Y14435890D01*
X5624512Y14484058D01*
X7361045Y14484058D01*
X7361045Y14371284D01*
X7390233Y14262353D01*
X7446620Y14164688D01*
X7526362Y14084946D01*
X7624027Y14028559D01*
X7732958Y13999371D01*
X7732960Y13999371D01*
X7845729Y13999371D01*
X7845732Y13999371D01*
X7954663Y14028559D01*
X8014789Y14063273D01*
X19193649Y14063273D01*
X19193649Y13893546D01*
X19220201Y13725906D01*
X19272647Y13564489D01*
X19272648Y13564486D01*
X19349704Y13413257D01*
X19449468Y13275944D01*
X19569484Y13155928D01*
X19706797Y13056164D01*
X19780970Y13018371D01*
X19858025Y12979109D01*
X19858028Y12979108D01*
X19938736Y12952885D01*
X20019447Y12926661D01*
X20187085Y12900109D01*
X20187086Y12900109D01*
X20356812Y12900109D01*
X20356813Y12900109D01*
X20524451Y12926661D01*
X20685872Y12979109D01*
X20837101Y13056164D01*
X20974414Y13155928D01*
X21094430Y13275944D01*
X21194194Y13413257D01*
X21271249Y13564486D01*
X21323697Y13725907D01*
X21350249Y13893545D01*
X21350249Y14063273D01*
X21323697Y14230911D01*
X21271249Y14392332D01*
X21271249Y14392333D01*
X21194193Y14543562D01*
X21158282Y14592989D01*
X21094430Y14680874D01*
X20974414Y14800890D01*
X20837101Y14900654D01*
X20685872Y14977710D01*
X20685869Y14977711D01*
X20524452Y15030157D01*
X20440632Y15043433D01*
X20356813Y15056709D01*
X20187085Y15056709D01*
X20131205Y15047859D01*
X20019445Y15030157D01*
X19858028Y14977711D01*
X19858025Y14977710D01*
X19706796Y14900654D01*
X19645296Y14855971D01*
X19569484Y14800890D01*
X19569482Y14800888D01*
X19569481Y14800888D01*
X19449470Y14680877D01*
X19449470Y14680876D01*
X19449468Y14680874D01*
X19406623Y14621904D01*
X19349704Y14543562D01*
X19272648Y14392333D01*
X19272647Y14392330D01*
X19220201Y14230913D01*
X19193649Y14063273D01*
X8014789Y14063273D01*
X8052328Y14084946D01*
X8132070Y14164688D01*
X8188457Y14262353D01*
X8217645Y14371284D01*
X8217645Y14484058D01*
X8188457Y14592989D01*
X8132070Y14690654D01*
X8052328Y14770396D01*
X7954663Y14826783D01*
X7845732Y14855971D01*
X7732958Y14855971D01*
X7624027Y14826783D01*
X7624025Y14826783D01*
X7624025Y14826782D01*
X7526362Y14770396D01*
X7526359Y14770394D01*
X7446622Y14690657D01*
X7446620Y14690654D01*
X7440974Y14680874D01*
X7390233Y14592989D01*
X7361045Y14484058D01*
X5624512Y14484058D01*
X5594193Y14543562D01*
X5558282Y14592989D01*
X5494430Y14680874D01*
X5374414Y14800890D01*
X5237101Y14900654D01*
X5085872Y14977710D01*
X5085869Y14977711D01*
X4924452Y15030157D01*
X4840632Y15043433D01*
X4756813Y15056709D01*
X4587085Y15056709D01*
X4531205Y15047859D01*
X4419445Y15030157D01*
X4258028Y14977711D01*
X4258025Y14977710D01*
X4106796Y14900654D01*
X4045296Y14855971D01*
X3969484Y14800890D01*
X3969482Y14800888D01*
X3969481Y14800888D01*
X3849470Y14680877D01*
X3849470Y14680876D01*
X3849468Y14680874D01*
X3806623Y14621904D01*
X3749704Y14543562D01*
X3672648Y14392333D01*
X3672647Y14392330D01*
X3620201Y14230913D01*
X3593649Y14063273D01*
X231449Y14063273D01*
X231449Y16553540D01*
X6858627Y16553540D01*
X6858627Y16440766D01*
X6887815Y16331835D01*
X6944202Y16234170D01*
X7023944Y16154428D01*
X7121609Y16098041D01*
X7230540Y16068853D01*
X7230542Y16068853D01*
X7343311Y16068853D01*
X7343314Y16068853D01*
X7452245Y16098041D01*
X7549910Y16154428D01*
X7629652Y16234170D01*
X7686039Y16331835D01*
X7715227Y16440766D01*
X7715227Y16553540D01*
X7686039Y16662471D01*
X7629652Y16760136D01*
X7549910Y16839878D01*
X7452245Y16896265D01*
X7343314Y16925453D01*
X7230540Y16925453D01*
X7121609Y16896265D01*
X7121607Y16896265D01*
X7121607Y16896264D01*
X7023944Y16839878D01*
X7023941Y16839876D01*
X6944204Y16760139D01*
X6944202Y16760136D01*
X6887815Y16662471D01*
X6858627Y16553540D01*
X231449Y16553540D01*
X231449Y17690296D01*
X7388649Y17690296D01*
X7388649Y17566523D01*
X7412792Y17445149D01*
X7412794Y17445141D01*
X7460156Y17330799D01*
X7528916Y17227891D01*
X7616430Y17140377D01*
X7667884Y17105997D01*
X7719337Y17071617D01*
X7833681Y17024254D01*
X7955062Y17000110D01*
X7955066Y17000109D01*
X7955067Y17000109D01*
X8078832Y17000109D01*
X8078833Y17000110D01*
X8200217Y17024254D01*
X8314561Y17071617D01*
X8417467Y17140377D01*
X8504981Y17227891D01*
X8573741Y17330797D01*
X8621104Y17445141D01*
X8645249Y17566527D01*
X8645249Y17690291D01*
X8645248Y17690296D01*
X9928649Y17690296D01*
X9928649Y17566523D01*
X9952792Y17445149D01*
X9952794Y17445141D01*
X10000156Y17330799D01*
X10068916Y17227891D01*
X10156430Y17140377D01*
X10207884Y17105997D01*
X10259337Y17071617D01*
X10373681Y17024254D01*
X10495062Y17000110D01*
X10495066Y17000109D01*
X10495067Y17000109D01*
X10618832Y17000109D01*
X10618833Y17000110D01*
X10740217Y17024254D01*
X10854561Y17071617D01*
X10957467Y17140377D01*
X11044981Y17227891D01*
X11113741Y17330797D01*
X11161104Y17445141D01*
X11185249Y17566527D01*
X11185249Y17690291D01*
X11185248Y17690296D01*
X12468649Y17690296D01*
X12468649Y17566523D01*
X12492792Y17445149D01*
X12492794Y17445141D01*
X12540156Y17330799D01*
X12608916Y17227891D01*
X12696430Y17140377D01*
X12747884Y17105997D01*
X12799337Y17071617D01*
X12913681Y17024254D01*
X13035062Y17000110D01*
X13035066Y17000109D01*
X13035067Y17000109D01*
X13158832Y17000109D01*
X13158833Y17000110D01*
X13280217Y17024254D01*
X13394561Y17071617D01*
X13497467Y17140377D01*
X13584981Y17227891D01*
X13653741Y17330797D01*
X13701104Y17445141D01*
X13725249Y17566527D01*
X13725249Y17690291D01*
X13725248Y17690296D01*
X15008649Y17690296D01*
X15008649Y17566523D01*
X15032792Y17445149D01*
X15032794Y17445141D01*
X15080156Y17330799D01*
X15148916Y17227891D01*
X15236430Y17140377D01*
X15287884Y17105997D01*
X15339337Y17071617D01*
X15453681Y17024254D01*
X15575062Y17000110D01*
X15575066Y17000109D01*
X15575067Y17000109D01*
X15698832Y17000109D01*
X15698833Y17000110D01*
X15820217Y17024254D01*
X15934561Y17071617D01*
X16037467Y17140377D01*
X16124981Y17227891D01*
X16137987Y17247355D01*
X16500260Y17247355D01*
X16500260Y17134581D01*
X16529448Y17025650D01*
X16585835Y16927985D01*
X16665577Y16848243D01*
X16763242Y16791856D01*
X16872173Y16762668D01*
X16872175Y16762668D01*
X16984944Y16762668D01*
X16984947Y16762668D01*
X17093878Y16791856D01*
X17136928Y16816711D01*
X18103211Y16816711D01*
X18103211Y16703937D01*
X18132399Y16595006D01*
X18188786Y16497341D01*
X18268528Y16417599D01*
X18366193Y16361212D01*
X18475124Y16332024D01*
X18475126Y16332024D01*
X18587895Y16332024D01*
X18587898Y16332024D01*
X18696829Y16361212D01*
X18794494Y16417599D01*
X18874236Y16497341D01*
X18930623Y16595006D01*
X18959811Y16703937D01*
X18959811Y16816711D01*
X18940579Y16888485D01*
X20699035Y16888485D01*
X20699035Y16775711D01*
X20728223Y16666780D01*
X20784610Y16569115D01*
X20864352Y16489373D01*
X20962017Y16432986D01*
X21070948Y16403798D01*
X21070950Y16403798D01*
X21183719Y16403798D01*
X21183722Y16403798D01*
X21292653Y16432986D01*
X21390318Y16489373D01*
X21470060Y16569115D01*
X21526447Y16666780D01*
X21555635Y16775711D01*
X21555635Y16888485D01*
X21526447Y16997416D01*
X21470060Y17095081D01*
X21390318Y17174823D01*
X21292653Y17231210D01*
X21183722Y17260398D01*
X21070948Y17260398D01*
X20962017Y17231210D01*
X20962015Y17231210D01*
X20962015Y17231209D01*
X20864352Y17174823D01*
X20864349Y17174821D01*
X20784612Y17095084D01*
X20784610Y17095081D01*
X20743719Y17024255D01*
X20728223Y16997416D01*
X20699035Y16888485D01*
X18940579Y16888485D01*
X18930623Y16925642D01*
X18874236Y17023307D01*
X18794494Y17103049D01*
X18696829Y17159436D01*
X18587898Y17188624D01*
X18475124Y17188624D01*
X18366193Y17159436D01*
X18366191Y17159436D01*
X18366191Y17159435D01*
X18268528Y17103049D01*
X18268525Y17103047D01*
X18188788Y17023310D01*
X18188786Y17023307D01*
X18133751Y16927983D01*
X18132399Y16925642D01*
X18103211Y16816711D01*
X17136928Y16816711D01*
X17191543Y16848243D01*
X17271285Y16927985D01*
X17327672Y17025650D01*
X17356860Y17134581D01*
X17356860Y17247355D01*
X17327672Y17356286D01*
X17271285Y17453951D01*
X17191543Y17533693D01*
X17093878Y17590080D01*
X16984947Y17619268D01*
X16872173Y17619268D01*
X16763242Y17590080D01*
X16763240Y17590080D01*
X16763240Y17590079D01*
X16665577Y17533693D01*
X16665574Y17533691D01*
X16585837Y17453954D01*
X16585835Y17453951D01*
X16572240Y17430403D01*
X16529448Y17356286D01*
X16500260Y17247355D01*
X16137987Y17247355D01*
X16193741Y17330797D01*
X16241104Y17445141D01*
X16265249Y17566527D01*
X16265249Y17690291D01*
X16253418Y17749772D01*
X19538690Y17749772D01*
X19538690Y17636998D01*
X19567878Y17528067D01*
X19624265Y17430402D01*
X19704007Y17350660D01*
X19801672Y17294273D01*
X19910603Y17265085D01*
X19910605Y17265085D01*
X20023374Y17265085D01*
X20023377Y17265085D01*
X20132308Y17294273D01*
X20229973Y17350660D01*
X20309715Y17430402D01*
X20366102Y17528067D01*
X20395290Y17636998D01*
X20395290Y17749772D01*
X20366102Y17858703D01*
X20309715Y17956368D01*
X20229973Y18036110D01*
X20132308Y18092497D01*
X20023377Y18121685D01*
X19910603Y18121685D01*
X19801672Y18092497D01*
X19801670Y18092497D01*
X19801670Y18092496D01*
X19704007Y18036110D01*
X19704004Y18036108D01*
X19624267Y17956371D01*
X19624265Y17956368D01*
X19576138Y17873009D01*
X19567878Y17858703D01*
X19538690Y17749772D01*
X16253418Y17749772D01*
X16241104Y17811677D01*
X16193741Y17926021D01*
X16159361Y17977474D01*
X16124981Y18028928D01*
X16037467Y18116442D01*
X15960461Y18167895D01*
X15934561Y18185201D01*
X15917234Y18192378D01*
X15820217Y18232564D01*
X15820209Y18232566D01*
X15698835Y18256709D01*
X15698831Y18256709D01*
X15575067Y18256709D01*
X15575062Y18256709D01*
X15453688Y18232566D01*
X15453680Y18232564D01*
X15339338Y18185202D01*
X15236430Y18116442D01*
X15148916Y18028928D01*
X15080156Y17926020D01*
X15032794Y17811678D01*
X15032792Y17811670D01*
X15008649Y17690296D01*
X13725248Y17690296D01*
X13701104Y17811677D01*
X13653741Y17926021D01*
X13619361Y17977474D01*
X13584981Y18028928D01*
X13497467Y18116442D01*
X13420461Y18167895D01*
X13394561Y18185201D01*
X13377234Y18192378D01*
X13280217Y18232564D01*
X13280209Y18232566D01*
X13158835Y18256709D01*
X13158831Y18256709D01*
X13035067Y18256709D01*
X13035062Y18256709D01*
X12913688Y18232566D01*
X12913680Y18232564D01*
X12799338Y18185202D01*
X12696430Y18116442D01*
X12608916Y18028928D01*
X12540156Y17926020D01*
X12492794Y17811678D01*
X12492792Y17811670D01*
X12468649Y17690296D01*
X11185248Y17690296D01*
X11161104Y17811677D01*
X11113741Y17926021D01*
X11079361Y17977474D01*
X11044981Y18028928D01*
X10957467Y18116442D01*
X10880461Y18167895D01*
X10854561Y18185201D01*
X10837234Y18192378D01*
X10740217Y18232564D01*
X10740209Y18232566D01*
X10618835Y18256709D01*
X10618831Y18256709D01*
X10495067Y18256709D01*
X10495062Y18256709D01*
X10373688Y18232566D01*
X10373680Y18232564D01*
X10259338Y18185202D01*
X10156430Y18116442D01*
X10068916Y18028928D01*
X10000156Y17926020D01*
X9952794Y17811678D01*
X9952792Y17811670D01*
X9928649Y17690296D01*
X8645248Y17690296D01*
X8621104Y17811677D01*
X8573741Y17926021D01*
X8539361Y17977474D01*
X8504981Y18028928D01*
X8417467Y18116442D01*
X8340461Y18167895D01*
X8314561Y18185201D01*
X8297234Y18192378D01*
X8200217Y18232564D01*
X8200209Y18232566D01*
X8078835Y18256709D01*
X8078831Y18256709D01*
X7955067Y18256709D01*
X7955062Y18256709D01*
X7833688Y18232566D01*
X7833680Y18232564D01*
X7719338Y18185202D01*
X7616430Y18116442D01*
X7528916Y18028928D01*
X7460156Y17926020D01*
X7412794Y17811678D01*
X7412792Y17811670D01*
X7388649Y17690296D01*
X231449Y17690296D01*
X231449Y18192378D01*
X5793980Y18192378D01*
X5793980Y18079604D01*
X5823168Y17970673D01*
X5879555Y17873008D01*
X5959297Y17793266D01*
X6056962Y17736879D01*
X6165893Y17707691D01*
X6165895Y17707691D01*
X6278664Y17707691D01*
X6278667Y17707691D01*
X6387598Y17736879D01*
X6485263Y17793266D01*
X6565005Y17873008D01*
X6621392Y17970673D01*
X6650580Y18079604D01*
X6650580Y18192378D01*
X6621392Y18301309D01*
X6565005Y18398974D01*
X6485263Y18478716D01*
X6387598Y18535103D01*
X6278667Y18564291D01*
X6165893Y18564291D01*
X6056962Y18535103D01*
X6056960Y18535103D01*
X6056960Y18535102D01*
X5959297Y18478716D01*
X5959294Y18478714D01*
X5879557Y18398977D01*
X5879555Y18398974D01*
X5823168Y18301309D01*
X5793980Y18192378D01*
X231449Y18192378D01*
X231449Y19209176D01*
X17265849Y19209176D01*
X17265849Y19096402D01*
X17295037Y18987471D01*
X17351424Y18889806D01*
X17431166Y18810064D01*
X17528831Y18753677D01*
X17637762Y18724489D01*
X17637764Y18724489D01*
X17750533Y18724489D01*
X17750536Y18724489D01*
X17859467Y18753677D01*
X17957132Y18810064D01*
X18036874Y18889806D01*
X18093261Y18987471D01*
X18122449Y19096402D01*
X18122449Y19209176D01*
X18093261Y19318107D01*
X18036874Y19415772D01*
X17957132Y19495514D01*
X17859467Y19551901D01*
X17750536Y19581089D01*
X17637762Y19581089D01*
X17574937Y19564255D01*
X17528826Y19551900D01*
X17528823Y19551899D01*
X17524297Y19549285D01*
X17524288Y19549279D01*
X17431166Y19495514D01*
X17351424Y19415772D01*
X17295037Y19318107D01*
X17265849Y19209176D01*
X231449Y19209176D01*
X231449Y19723556D01*
X7301233Y19723556D01*
X7301233Y19610782D01*
X7330421Y19501851D01*
X7386808Y19404186D01*
X7466550Y19324444D01*
X7564215Y19268057D01*
X7673146Y19238869D01*
X7673148Y19238869D01*
X7785917Y19238869D01*
X7785920Y19238869D01*
X7894851Y19268057D01*
X7992516Y19324444D01*
X8072258Y19404186D01*
X8128645Y19501851D01*
X8157833Y19610782D01*
X8157833Y19723556D01*
X8128645Y19832487D01*
X8072258Y19930152D01*
X7992516Y20009894D01*
X7894851Y20066281D01*
X7785920Y20095469D01*
X7673146Y20095469D01*
X7564215Y20066281D01*
X7564213Y20066281D01*
X7564213Y20066280D01*
X7466550Y20009894D01*
X7466547Y20009892D01*
X7386810Y19930155D01*
X7386808Y19930152D01*
X7330421Y19832487D01*
X7301233Y19723556D01*
X231449Y19723556D01*
X231449Y20230296D01*
X8658649Y20230296D01*
X8658649Y20106523D01*
X8682792Y19985149D01*
X8682794Y19985141D01*
X8730156Y19870799D01*
X8798916Y19767891D01*
X8886430Y19680377D01*
X8937884Y19645997D01*
X8989337Y19611617D01*
X9103681Y19564254D01*
X9225062Y19540110D01*
X9225066Y19540109D01*
X9225067Y19540109D01*
X9348832Y19540109D01*
X9348833Y19540110D01*
X9470217Y19564254D01*
X9584561Y19611617D01*
X9687467Y19680377D01*
X9774981Y19767891D01*
X9843741Y19870797D01*
X9891104Y19985141D01*
X9915249Y20106527D01*
X9915249Y20230291D01*
X9915248Y20230296D01*
X11198649Y20230296D01*
X11198649Y20106523D01*
X11222792Y19985149D01*
X11222794Y19985141D01*
X11270156Y19870799D01*
X11338916Y19767891D01*
X11426430Y19680377D01*
X11477884Y19645997D01*
X11529337Y19611617D01*
X11643681Y19564254D01*
X11765062Y19540110D01*
X11765066Y19540109D01*
X11765067Y19540109D01*
X11888832Y19540109D01*
X11888833Y19540110D01*
X12010217Y19564254D01*
X12124561Y19611617D01*
X12227467Y19680377D01*
X12314981Y19767891D01*
X12383741Y19870797D01*
X12431104Y19985141D01*
X12455249Y20106527D01*
X12455249Y20230291D01*
X12455248Y20230296D01*
X13738649Y20230296D01*
X13738649Y20106523D01*
X13762792Y19985149D01*
X13762794Y19985141D01*
X13810156Y19870799D01*
X13878916Y19767891D01*
X13966430Y19680377D01*
X14017884Y19645997D01*
X14069337Y19611617D01*
X14183681Y19564254D01*
X14305062Y19540110D01*
X14305066Y19540109D01*
X14305067Y19540109D01*
X14428832Y19540109D01*
X14428833Y19540110D01*
X14550217Y19564254D01*
X14664561Y19611617D01*
X14767467Y19680377D01*
X14854981Y19767891D01*
X14923741Y19870797D01*
X14971104Y19985141D01*
X14995249Y20106527D01*
X14995249Y20230291D01*
X14995248Y20230296D01*
X16278649Y20230296D01*
X16278649Y20106523D01*
X16302792Y19985149D01*
X16302794Y19985141D01*
X16350156Y19870799D01*
X16418916Y19767891D01*
X16506430Y19680377D01*
X16557884Y19645997D01*
X16609337Y19611617D01*
X16723681Y19564254D01*
X16845062Y19540110D01*
X16845066Y19540109D01*
X16845067Y19540109D01*
X16968832Y19540109D01*
X16968833Y19540110D01*
X17090217Y19564254D01*
X17204561Y19611617D01*
X17307467Y19680377D01*
X17394981Y19767891D01*
X17463741Y19870797D01*
X17511104Y19985141D01*
X17535249Y20106527D01*
X17535249Y20230291D01*
X17511104Y20351677D01*
X17463741Y20466021D01*
X17458537Y20473809D01*
X17448926Y20488194D01*
X17408325Y20548956D01*
X19825786Y20548956D01*
X19825786Y20436182D01*
X19854974Y20327251D01*
X19911361Y20229586D01*
X19991103Y20149844D01*
X20088768Y20093457D01*
X20197699Y20064269D01*
X20197701Y20064269D01*
X20310470Y20064269D01*
X20310473Y20064269D01*
X20419404Y20093457D01*
X20517069Y20149844D01*
X20596811Y20229586D01*
X20653198Y20327251D01*
X20682386Y20436182D01*
X20682386Y20548956D01*
X20653198Y20657887D01*
X20596811Y20755552D01*
X20517069Y20835294D01*
X20419404Y20891681D01*
X20310473Y20920869D01*
X20197699Y20920869D01*
X20088768Y20891681D01*
X20088766Y20891681D01*
X20088766Y20891680D01*
X19991103Y20835294D01*
X19991100Y20835292D01*
X19911363Y20755555D01*
X19911361Y20755552D01*
X19854974Y20657887D01*
X19825786Y20548956D01*
X17408325Y20548956D01*
X17394981Y20568927D01*
X17394978Y20568931D01*
X17307467Y20656442D01*
X17230461Y20707895D01*
X17204561Y20725201D01*
X17204556Y20725203D01*
X17090217Y20772564D01*
X17090209Y20772566D01*
X16968835Y20796709D01*
X16968831Y20796709D01*
X16845067Y20796709D01*
X16845062Y20796709D01*
X16723688Y20772566D01*
X16723680Y20772564D01*
X16609338Y20725202D01*
X16506430Y20656442D01*
X16418916Y20568928D01*
X16350156Y20466020D01*
X16302794Y20351678D01*
X16302792Y20351670D01*
X16278649Y20230296D01*
X14995248Y20230296D01*
X14971104Y20351677D01*
X14923741Y20466021D01*
X14868327Y20548954D01*
X14854981Y20568928D01*
X14767467Y20656442D01*
X14690461Y20707895D01*
X14664561Y20725201D01*
X14664556Y20725203D01*
X14550217Y20772564D01*
X14550209Y20772566D01*
X14428835Y20796709D01*
X14428831Y20796709D01*
X14305067Y20796709D01*
X14305062Y20796709D01*
X14183688Y20772566D01*
X14183680Y20772564D01*
X14069338Y20725202D01*
X13966430Y20656442D01*
X13878916Y20568928D01*
X13810156Y20466020D01*
X13762794Y20351678D01*
X13762792Y20351670D01*
X13738649Y20230296D01*
X12455248Y20230296D01*
X12431104Y20351677D01*
X12383741Y20466021D01*
X12328327Y20548954D01*
X12314981Y20568928D01*
X12227467Y20656442D01*
X12150461Y20707895D01*
X12124561Y20725201D01*
X12124556Y20725203D01*
X12010217Y20772564D01*
X12010209Y20772566D01*
X11888835Y20796709D01*
X11888831Y20796709D01*
X11765067Y20796709D01*
X11765062Y20796709D01*
X11643688Y20772566D01*
X11643680Y20772564D01*
X11529338Y20725202D01*
X11426430Y20656442D01*
X11338916Y20568928D01*
X11270156Y20466020D01*
X11222794Y20351678D01*
X11222792Y20351670D01*
X11198649Y20230296D01*
X9915248Y20230296D01*
X9891104Y20351677D01*
X9843741Y20466021D01*
X9788327Y20548954D01*
X9774981Y20568928D01*
X9687467Y20656442D01*
X9584558Y20725203D01*
X9584555Y20725205D01*
X9568085Y20732027D01*
X9513683Y20775869D01*
X9491621Y20842164D01*
X9508902Y20909863D01*
X9560041Y20957472D01*
X9583440Y20966358D01*
X9629388Y20978669D01*
X9727053Y21035056D01*
X9806795Y21114798D01*
X9863182Y21212463D01*
X9892370Y21321394D01*
X9892370Y21434168D01*
X9863182Y21543099D01*
X9829383Y21601640D01*
X12720166Y21601640D01*
X12720166Y21488866D01*
X12749354Y21379935D01*
X12805741Y21282270D01*
X12885483Y21202528D01*
X12983148Y21146141D01*
X13092079Y21116953D01*
X13092081Y21116953D01*
X13204850Y21116953D01*
X13204853Y21116953D01*
X13313784Y21146141D01*
X13411449Y21202528D01*
X13491191Y21282270D01*
X13547578Y21379935D01*
X13576766Y21488866D01*
X13576766Y21601640D01*
X13563945Y21649490D01*
X15650935Y21649490D01*
X15650935Y21536716D01*
X15680123Y21427785D01*
X15736510Y21330120D01*
X15816252Y21250378D01*
X15913917Y21193991D01*
X16022848Y21164803D01*
X16022850Y21164803D01*
X16135619Y21164803D01*
X16135622Y21164803D01*
X16244553Y21193991D01*
X16342218Y21250378D01*
X16421960Y21330120D01*
X16478347Y21427785D01*
X16507535Y21536716D01*
X16507535Y21649490D01*
X16478347Y21758421D01*
X16421960Y21856086D01*
X16342218Y21935828D01*
X16244553Y21992215D01*
X16135622Y22021403D01*
X16022848Y22021403D01*
X15913917Y21992215D01*
X15913915Y21992215D01*
X15913915Y21992214D01*
X15816252Y21935828D01*
X15816249Y21935826D01*
X15736512Y21856089D01*
X15736510Y21856086D01*
X15707640Y21806081D01*
X15680123Y21758421D01*
X15650935Y21649490D01*
X13563945Y21649490D01*
X13547578Y21710571D01*
X13491191Y21808236D01*
X13411449Y21887978D01*
X13313784Y21944365D01*
X13204853Y21973553D01*
X13092079Y21973553D01*
X12983148Y21944365D01*
X12983146Y21944365D01*
X12983146Y21944364D01*
X12885483Y21887978D01*
X12885480Y21887976D01*
X12805743Y21808239D01*
X12805741Y21808236D01*
X12780640Y21764759D01*
X12749354Y21710571D01*
X12720166Y21601640D01*
X9829383Y21601640D01*
X9806795Y21640764D01*
X9727053Y21720506D01*
X9629388Y21776893D01*
X9520457Y21806081D01*
X9407683Y21806081D01*
X9298752Y21776893D01*
X9298750Y21776893D01*
X9298750Y21776892D01*
X9201087Y21720506D01*
X9201084Y21720504D01*
X9121347Y21640767D01*
X9121345Y21640764D01*
X9079241Y21567837D01*
X9064958Y21543099D01*
X9035770Y21434168D01*
X9035770Y21321394D01*
X9064958Y21212463D01*
X9121345Y21114798D01*
X9201087Y21035056D01*
X9228954Y21018967D01*
X9277170Y20968400D01*
X9290393Y20899793D01*
X9264425Y20834928D01*
X9207510Y20794400D01*
X9191146Y20789963D01*
X9103686Y20772566D01*
X9103680Y20772564D01*
X8989338Y20725202D01*
X8886430Y20656442D01*
X8798916Y20568928D01*
X8730156Y20466020D01*
X8682794Y20351678D01*
X8682792Y20351670D01*
X8658649Y20230296D01*
X231449Y20230296D01*
X231449Y22163870D01*
X7851500Y22163870D01*
X7851500Y22051096D01*
X7880688Y21942165D01*
X7937075Y21844500D01*
X8016817Y21764758D01*
X8114482Y21708371D01*
X8223413Y21679183D01*
X8223415Y21679183D01*
X8336184Y21679183D01*
X8336187Y21679183D01*
X8445118Y21708371D01*
X8542783Y21764758D01*
X8622525Y21844500D01*
X8678912Y21942165D01*
X8708100Y22051096D01*
X8708100Y22163870D01*
X8678912Y22272801D01*
X8622525Y22370466D01*
X8542783Y22450208D01*
X8479314Y22486852D01*
X11141139Y22486852D01*
X11141139Y22374078D01*
X11170327Y22265147D01*
X11226714Y22167482D01*
X11306456Y22087740D01*
X11404121Y22031353D01*
X11513052Y22002165D01*
X11513054Y22002165D01*
X11625823Y22002165D01*
X11625826Y22002165D01*
X11734757Y22031353D01*
X11832422Y22087740D01*
X11912164Y22167482D01*
X11968551Y22265147D01*
X11997739Y22374078D01*
X11997739Y22486852D01*
X11968551Y22595783D01*
X11912164Y22693448D01*
X11832422Y22773190D01*
X11832420Y22773191D01*
X11832418Y22773193D01*
X11734760Y22829576D01*
X11734761Y22829576D01*
X11721890Y22833025D01*
X11625826Y22858765D01*
X11513052Y22858765D01*
X11404121Y22829577D01*
X11404119Y22829577D01*
X11404119Y22829576D01*
X11306456Y22773190D01*
X11306453Y22773188D01*
X11226716Y22693451D01*
X11226714Y22693448D01*
X11170327Y22595783D01*
X11141139Y22486852D01*
X8479314Y22486852D01*
X8445118Y22506595D01*
X8336187Y22535783D01*
X8223413Y22535783D01*
X8114482Y22506595D01*
X8114480Y22506595D01*
X8114480Y22506594D01*
X8016817Y22450208D01*
X8016814Y22450206D01*
X7937077Y22370469D01*
X7937075Y22370466D01*
X7880688Y22272801D01*
X7851500Y22163870D01*
X231449Y22163870D01*
X231449Y22869647D01*
X19610464Y22869647D01*
X19610464Y22756873D01*
X19639652Y22647942D01*
X19696039Y22550277D01*
X19775781Y22470535D01*
X19873446Y22414148D01*
X19982377Y22384960D01*
X19982379Y22384960D01*
X20095148Y22384960D01*
X20095151Y22384960D01*
X20204082Y22414148D01*
X20301747Y22470535D01*
X20381489Y22550277D01*
X20437876Y22647942D01*
X20467064Y22756873D01*
X20467064Y22869647D01*
X20437876Y22978578D01*
X20381489Y23076243D01*
X20301747Y23155985D01*
X20204082Y23212372D01*
X20114062Y23236493D01*
X20106172Y23238607D01*
X20095151Y23241560D01*
X19982377Y23241560D01*
X19873446Y23212372D01*
X19873444Y23212372D01*
X19873444Y23212371D01*
X19775781Y23155985D01*
X19775778Y23155983D01*
X19696041Y23076246D01*
X19696039Y23076243D01*
X19639652Y22978578D01*
X19610464Y22869647D01*
X231449Y22869647D01*
X231449Y24006067D01*
X6260511Y24006067D01*
X6260511Y23893293D01*
X6289699Y23784362D01*
X6346086Y23686697D01*
X6425828Y23606955D01*
X6523493Y23550568D01*
X6632424Y23521380D01*
X6632426Y23521380D01*
X6745195Y23521380D01*
X6745198Y23521380D01*
X6854129Y23550568D01*
X6938618Y23599348D01*
X9574075Y23599348D01*
X9574075Y23486574D01*
X9603263Y23377643D01*
X9659650Y23279978D01*
X9739392Y23200236D01*
X9837057Y23143849D01*
X9945988Y23114661D01*
X9945990Y23114661D01*
X10058759Y23114661D01*
X10058762Y23114661D01*
X10167693Y23143849D01*
X10265358Y23200236D01*
X10345100Y23279978D01*
X10384453Y23348140D01*
X21428737Y23348140D01*
X21428737Y23235366D01*
X21457925Y23126435D01*
X21514312Y23028770D01*
X21594054Y22949028D01*
X21691719Y22892641D01*
X21800650Y22863453D01*
X21800652Y22863453D01*
X21913421Y22863453D01*
X21913424Y22863453D01*
X22022355Y22892641D01*
X22120020Y22949028D01*
X22199762Y23028770D01*
X22256149Y23126435D01*
X22285337Y23235366D01*
X22285337Y23348140D01*
X22256149Y23457071D01*
X22199762Y23554736D01*
X22120020Y23634478D01*
X22022355Y23690865D01*
X21913424Y23720053D01*
X21800650Y23720053D01*
X21691719Y23690865D01*
X21691717Y23690865D01*
X21691717Y23690864D01*
X21594054Y23634478D01*
X21594051Y23634476D01*
X21514314Y23554739D01*
X21514312Y23554736D01*
X21474959Y23486574D01*
X21457925Y23457071D01*
X21428737Y23348140D01*
X10384453Y23348140D01*
X10401487Y23377643D01*
X10430675Y23486574D01*
X10430675Y23599348D01*
X10401487Y23708279D01*
X10345100Y23805944D01*
X10265358Y23885686D01*
X10167693Y23942073D01*
X10058762Y23971261D01*
X9945988Y23971261D01*
X9837057Y23942073D01*
X9837055Y23942073D01*
X9837055Y23942072D01*
X9739392Y23885686D01*
X9739389Y23885684D01*
X9659652Y23805947D01*
X9659650Y23805944D01*
X9603263Y23708279D01*
X9574075Y23599348D01*
X6938618Y23599348D01*
X6951794Y23606955D01*
X7031536Y23686697D01*
X7087923Y23784362D01*
X7117111Y23893293D01*
X7117111Y24006067D01*
X7087923Y24114998D01*
X7031536Y24212663D01*
X7022810Y24221389D01*
X13916398Y24221389D01*
X13916398Y24108615D01*
X13945586Y23999684D01*
X14001973Y23902019D01*
X14081715Y23822277D01*
X14179380Y23765890D01*
X14288311Y23736702D01*
X14288313Y23736702D01*
X14401082Y23736702D01*
X14401085Y23736702D01*
X14510016Y23765890D01*
X14607681Y23822277D01*
X14687423Y23902019D01*
X14719870Y23958218D01*
X17170150Y23958218D01*
X17170150Y23845444D01*
X17199338Y23736513D01*
X17255725Y23638848D01*
X17335467Y23559106D01*
X17433132Y23502719D01*
X17542063Y23473531D01*
X17542065Y23473531D01*
X17654834Y23473531D01*
X17654837Y23473531D01*
X17763768Y23502719D01*
X17861433Y23559106D01*
X17941175Y23638848D01*
X17997562Y23736513D01*
X18026750Y23845444D01*
X18026750Y23958218D01*
X17997562Y24067149D01*
X17941175Y24164814D01*
X17861433Y24244556D01*
X17763768Y24300943D01*
X17654837Y24330131D01*
X17542063Y24330131D01*
X17433132Y24300943D01*
X17433130Y24300943D01*
X17433130Y24300942D01*
X17335467Y24244556D01*
X17335464Y24244554D01*
X17255727Y24164817D01*
X17255725Y24164814D01*
X17199338Y24067149D01*
X17170150Y23958218D01*
X14719870Y23958218D01*
X14743810Y23999684D01*
X14772998Y24108615D01*
X14772998Y24221389D01*
X14743810Y24330320D01*
X14687423Y24427985D01*
X14607681Y24507727D01*
X14510016Y24564114D01*
X14401085Y24593302D01*
X14288311Y24593302D01*
X14179380Y24564114D01*
X14179378Y24564114D01*
X14179378Y24564113D01*
X14081715Y24507727D01*
X14081712Y24507725D01*
X14001975Y24427988D01*
X14001973Y24427985D01*
X13973103Y24377980D01*
X13945586Y24330320D01*
X13916398Y24221389D01*
X7022810Y24221389D01*
X6951794Y24292405D01*
X6854129Y24348792D01*
X6745198Y24377980D01*
X6632424Y24377980D01*
X6523493Y24348792D01*
X6523491Y24348792D01*
X6523491Y24348791D01*
X6425828Y24292405D01*
X6425825Y24292403D01*
X6346088Y24212666D01*
X6346086Y24212663D01*
X6289699Y24114998D01*
X6260511Y24006067D01*
X231449Y24006067D01*
X231449Y25405659D01*
X6176775Y25405659D01*
X6176775Y25292885D01*
X6205963Y25183954D01*
X6262350Y25086289D01*
X6342092Y25006547D01*
X6439757Y24950160D01*
X6548688Y24920972D01*
X6548690Y24920972D01*
X6661459Y24920972D01*
X6661462Y24920972D01*
X6770393Y24950160D01*
X6868058Y25006547D01*
X6947800Y25086289D01*
X7004187Y25183954D01*
X7015513Y25226224D01*
X8258219Y25226224D01*
X8258219Y25113450D01*
X8287407Y25004519D01*
X8343794Y24906854D01*
X8423536Y24827112D01*
X8521201Y24770725D01*
X8630132Y24741537D01*
X8630134Y24741537D01*
X8742903Y24741537D01*
X8742906Y24741537D01*
X8851837Y24770725D01*
X8949502Y24827112D01*
X9029244Y24906854D01*
X9085631Y25004519D01*
X9114819Y25113450D01*
X9114819Y25226224D01*
X9092393Y25309919D01*
X9092393Y25309921D01*
X9087341Y25328772D01*
X9085971Y25333885D01*
X10913855Y25333885D01*
X10913855Y25221111D01*
X10943043Y25112180D01*
X10999430Y25014515D01*
X11079172Y24934773D01*
X11176837Y24878386D01*
X11285768Y24849198D01*
X11285770Y24849198D01*
X11398539Y24849198D01*
X11398542Y24849198D01*
X11507473Y24878386D01*
X11605138Y24934773D01*
X11684880Y25014515D01*
X11741267Y25112180D01*
X11770455Y25221111D01*
X11770455Y25333885D01*
X11748029Y25417580D01*
X11748029Y25417582D01*
X11741607Y25441546D01*
X12744090Y25441546D01*
X12744090Y25328772D01*
X12773278Y25219841D01*
X12829665Y25122176D01*
X12909407Y25042434D01*
X13007072Y24986047D01*
X13116003Y24956859D01*
X13116005Y24956859D01*
X13228774Y24956859D01*
X13228777Y24956859D01*
X13337708Y24986047D01*
X13435373Y25042434D01*
X13515115Y25122176D01*
X13571502Y25219841D01*
X13600690Y25328772D01*
X13600690Y25441546D01*
X13571502Y25550477D01*
X13515115Y25648142D01*
X13435373Y25727884D01*
X13435371Y25727885D01*
X13435369Y25727887D01*
X13337711Y25784270D01*
X13337712Y25784270D01*
X13324841Y25787719D01*
X13228777Y25813459D01*
X13116003Y25813459D01*
X13007072Y25784271D01*
X13007070Y25784271D01*
X13007070Y25784270D01*
X12909407Y25727884D01*
X12909404Y25727882D01*
X12829667Y25648145D01*
X12829665Y25648142D01*
X12800795Y25598137D01*
X12773278Y25550477D01*
X12744090Y25441546D01*
X11741607Y25441546D01*
X11741267Y25442815D01*
X11741267Y25442816D01*
X11721817Y25476504D01*
X11684880Y25540481D01*
X11605138Y25620223D01*
X11507473Y25676610D01*
X11398542Y25705798D01*
X11285768Y25705798D01*
X11176837Y25676610D01*
X11176835Y25676610D01*
X11176835Y25676609D01*
X11079172Y25620223D01*
X11079169Y25620221D01*
X10999432Y25540484D01*
X10999430Y25540481D01*
X10943043Y25442816D01*
X10913855Y25333885D01*
X9085971Y25333885D01*
X9085631Y25335155D01*
X9029244Y25432820D01*
X8949502Y25512562D01*
X8851837Y25568949D01*
X8742906Y25598137D01*
X8630132Y25598137D01*
X8521201Y25568949D01*
X8521199Y25568949D01*
X8521199Y25568948D01*
X8423536Y25512562D01*
X8423533Y25512560D01*
X8343796Y25432823D01*
X8343794Y25432820D01*
X8290005Y25339654D01*
X8287407Y25335155D01*
X8258219Y25226224D01*
X7015513Y25226224D01*
X7033375Y25292885D01*
X7033375Y25405659D01*
X7004187Y25514590D01*
X6947800Y25612255D01*
X6868058Y25691997D01*
X6770393Y25748384D01*
X6661462Y25777572D01*
X6548688Y25777572D01*
X6439757Y25748384D01*
X6439755Y25748384D01*
X6439755Y25748383D01*
X6342092Y25691997D01*
X6342089Y25691995D01*
X6262352Y25612258D01*
X6262350Y25612255D01*
X6216529Y25532890D01*
X6205963Y25514590D01*
X6176775Y25405659D01*
X231449Y25405659D01*
X231449Y25824341D01*
X15519349Y25824341D01*
X15519349Y25711567D01*
X15548537Y25602636D01*
X15604924Y25504971D01*
X15684666Y25425229D01*
X15782331Y25368842D01*
X15891262Y25339654D01*
X15891264Y25339654D01*
X16004033Y25339654D01*
X16004036Y25339654D01*
X16112967Y25368842D01*
X16210632Y25425229D01*
X16290374Y25504971D01*
X16346761Y25602636D01*
X16375949Y25711567D01*
X16375949Y25824341D01*
X16346761Y25933272D01*
X16290374Y26030937D01*
X16210632Y26110679D01*
X16112967Y26167066D01*
X16004036Y26196254D01*
X15891262Y26196254D01*
X15782331Y26167066D01*
X15782329Y26167066D01*
X15782329Y26167065D01*
X15684666Y26110679D01*
X15684663Y26110677D01*
X15604926Y26030940D01*
X15604924Y26030937D01*
X15548537Y25933272D01*
X15519349Y25824341D01*
X231449Y25824341D01*
X231449Y26219097D01*
X17911814Y26219097D01*
X17911814Y26106323D01*
X17941002Y25997392D01*
X17997389Y25899727D01*
X18077131Y25819985D01*
X18174796Y25763598D01*
X18283727Y25734410D01*
X18283729Y25734410D01*
X18396498Y25734410D01*
X18396501Y25734410D01*
X18505432Y25763598D01*
X18603097Y25819985D01*
X18682839Y25899727D01*
X18701472Y25932001D01*
X20172693Y25932001D01*
X20172693Y25819227D01*
X20201881Y25710296D01*
X20258268Y25612631D01*
X20338010Y25532889D01*
X20435675Y25476502D01*
X20544606Y25447314D01*
X20544608Y25447314D01*
X20657377Y25447314D01*
X20657380Y25447314D01*
X20766311Y25476502D01*
X20863976Y25532889D01*
X20943718Y25612631D01*
X21000105Y25710296D01*
X21029293Y25819227D01*
X21029293Y25932001D01*
X21000105Y26040932D01*
X20943718Y26138597D01*
X20863976Y26218339D01*
X20766311Y26274726D01*
X20657380Y26303914D01*
X20544606Y26303914D01*
X20435675Y26274726D01*
X20435673Y26274726D01*
X20435673Y26274725D01*
X20338010Y26218339D01*
X20338007Y26218337D01*
X20258270Y26138600D01*
X20258268Y26138597D01*
X20242150Y26110679D01*
X20201881Y26040932D01*
X20172693Y25932001D01*
X18701472Y25932001D01*
X18739226Y25997392D01*
X18768414Y26106323D01*
X18768414Y26219097D01*
X18739226Y26328028D01*
X18682839Y26425693D01*
X18603097Y26505435D01*
X18505432Y26561822D01*
X18396501Y26591010D01*
X18283727Y26591010D01*
X18174796Y26561822D01*
X18174794Y26561822D01*
X18174794Y26561821D01*
X18077131Y26505435D01*
X18077128Y26505433D01*
X17997391Y26425696D01*
X17997389Y26425693D01*
X17941002Y26328028D01*
X17911814Y26219097D01*
X231449Y26219097D01*
X231449Y27666538D01*
X6057152Y27666538D01*
X6057152Y27553764D01*
X6086340Y27444833D01*
X6142727Y27347168D01*
X6222469Y27267426D01*
X6320134Y27211039D01*
X6429065Y27181851D01*
X6429067Y27181851D01*
X6541836Y27181851D01*
X6541839Y27181851D01*
X6650770Y27211039D01*
X6671180Y27222823D01*
X9487818Y27222823D01*
X9487818Y27110049D01*
X9517006Y27001118D01*
X9573393Y26903453D01*
X9653135Y26823711D01*
X9750800Y26767324D01*
X9859731Y26738136D01*
X9859733Y26738136D01*
X9972502Y26738136D01*
X9972505Y26738136D01*
X10081436Y26767324D01*
X10179101Y26823711D01*
X10258843Y26903453D01*
X10315230Y27001118D01*
X10344418Y27110049D01*
X10344418Y27222823D01*
X10337710Y27247857D01*
X18832913Y27247857D01*
X18832913Y27135083D01*
X18862101Y27026152D01*
X18918488Y26928487D01*
X18998230Y26848745D01*
X19095895Y26792358D01*
X19204826Y26763170D01*
X19204828Y26763170D01*
X19317597Y26763170D01*
X19317600Y26763170D01*
X19426531Y26792358D01*
X19524196Y26848745D01*
X19603938Y26928487D01*
X19660325Y27026152D01*
X19689513Y27135083D01*
X19689513Y27247857D01*
X19660325Y27356788D01*
X19603938Y27454453D01*
X19524196Y27534195D01*
X19426531Y27590582D01*
X19317600Y27619770D01*
X19204826Y27619770D01*
X19095895Y27590582D01*
X19095893Y27590582D01*
X19095893Y27590581D01*
X18998230Y27534195D01*
X18998227Y27534193D01*
X18918490Y27454456D01*
X18918488Y27454453D01*
X18862101Y27356788D01*
X18832913Y27247857D01*
X10337710Y27247857D01*
X10315230Y27331754D01*
X10258843Y27429419D01*
X10179101Y27509161D01*
X10081436Y27565548D01*
X9972505Y27594736D01*
X9859731Y27594736D01*
X9750800Y27565548D01*
X9750798Y27565548D01*
X9750798Y27565547D01*
X9653135Y27509161D01*
X9653132Y27509159D01*
X9573395Y27429422D01*
X9573393Y27429419D01*
X9531461Y27356790D01*
X9517006Y27331754D01*
X9487818Y27222823D01*
X6671180Y27222823D01*
X6748435Y27267426D01*
X6828177Y27347168D01*
X6884564Y27444833D01*
X6913752Y27553764D01*
X6913752Y27666538D01*
X6884564Y27775469D01*
X6828177Y27873134D01*
X6748435Y27952876D01*
X6650770Y28009263D01*
X6541839Y28038451D01*
X6429065Y28038451D01*
X6320134Y28009263D01*
X6320132Y28009263D01*
X6320132Y28009262D01*
X6222469Y27952876D01*
X6222466Y27952874D01*
X6142729Y27873137D01*
X6142727Y27873134D01*
X6086340Y27775469D01*
X6057152Y27666538D01*
X231449Y27666538D01*
X231449Y28651100D01*
X8047068Y28651100D01*
X8047068Y28538326D01*
X8076256Y28429395D01*
X8132643Y28331730D01*
X8212385Y28251988D01*
X8310050Y28195601D01*
X8418981Y28166413D01*
X8418983Y28166413D01*
X8531752Y28166413D01*
X8531755Y28166413D01*
X8640686Y28195601D01*
X8738351Y28251988D01*
X8818093Y28331730D01*
X8874480Y28429395D01*
X8903668Y28538326D01*
X8903668Y28581938D01*
X11431549Y28581938D01*
X11431549Y28469164D01*
X11460737Y28360233D01*
X11517124Y28262568D01*
X11596866Y28182826D01*
X11694531Y28126439D01*
X11803462Y28097251D01*
X11803464Y28097251D01*
X11916233Y28097251D01*
X11916236Y28097251D01*
X12025167Y28126439D01*
X12122832Y28182826D01*
X12202574Y28262568D01*
X12243929Y28334196D01*
X17663818Y28334196D01*
X17663818Y28221422D01*
X17693006Y28112491D01*
X17749393Y28014826D01*
X17829135Y27935084D01*
X17926800Y27878697D01*
X18035731Y27849509D01*
X18035733Y27849509D01*
X18148502Y27849509D01*
X18148505Y27849509D01*
X18257436Y27878697D01*
X18355101Y27935084D01*
X18434843Y28014826D01*
X18491230Y28112491D01*
X18520418Y28221422D01*
X18520418Y28334196D01*
X18491230Y28443127D01*
X18434843Y28540792D01*
X18355101Y28620534D01*
X18257436Y28676921D01*
X18148505Y28706109D01*
X18035731Y28706109D01*
X17926800Y28676921D01*
X17926798Y28676921D01*
X17926798Y28676920D01*
X17829135Y28620534D01*
X17829132Y28620532D01*
X17749395Y28540795D01*
X17749393Y28540792D01*
X17693006Y28443127D01*
X17663818Y28334196D01*
X12243929Y28334196D01*
X12258961Y28360233D01*
X12288149Y28469164D01*
X12288149Y28581938D01*
X12258961Y28690869D01*
X12202574Y28788534D01*
X12122832Y28868276D01*
X12025167Y28924663D01*
X11916236Y28953851D01*
X11803462Y28953851D01*
X11694531Y28924663D01*
X11694529Y28924663D01*
X11694529Y28924662D01*
X11596866Y28868276D01*
X11596863Y28868274D01*
X11517126Y28788537D01*
X11517124Y28788534D01*
X11460737Y28690869D01*
X11431549Y28581938D01*
X8903668Y28581938D01*
X8903668Y28651100D01*
X8874480Y28760031D01*
X8818093Y28857696D01*
X8738351Y28937438D01*
X8640686Y28993825D01*
X8531755Y29023013D01*
X8418981Y29023013D01*
X8310050Y28993825D01*
X8310048Y28993825D01*
X8310048Y28993824D01*
X8212385Y28937438D01*
X8212382Y28937436D01*
X8132645Y28857699D01*
X8132643Y28857696D01*
X8076256Y28760031D01*
X8047068Y28651100D01*
X231449Y28651100D01*
X231449Y29975362D01*
X5319206Y29975362D01*
X5319206Y29862588D01*
X5348394Y29753657D01*
X5404781Y29655992D01*
X5484523Y29576250D01*
X5582188Y29519863D01*
X5691119Y29490675D01*
X5691121Y29490675D01*
X5803890Y29490675D01*
X5803893Y29490675D01*
X5912824Y29519863D01*
X6010489Y29576250D01*
X6090231Y29655992D01*
X6146618Y29753657D01*
X6175806Y29862588D01*
X6175806Y29975362D01*
X6146618Y30084293D01*
X6142039Y30092224D01*
X6108033Y30151125D01*
X6108032Y30151127D01*
X6090235Y30181952D01*
X6090232Y30181955D01*
X6090231Y30181958D01*
X6067191Y30204998D01*
X8350974Y30204998D01*
X8350974Y30092224D01*
X8380162Y29983293D01*
X8436549Y29885628D01*
X8516291Y29805886D01*
X8613956Y29749499D01*
X8722887Y29720311D01*
X8722889Y29720311D01*
X8835658Y29720311D01*
X8835661Y29720311D01*
X8944592Y29749499D01*
X9042257Y29805886D01*
X9121999Y29885628D01*
X9178386Y29983293D01*
X9207574Y30092224D01*
X9207574Y30204998D01*
X9178386Y30313929D01*
X9121999Y30411594D01*
X9042257Y30491336D01*
X8944592Y30547723D01*
X8835661Y30576911D01*
X8722887Y30576911D01*
X8613956Y30547723D01*
X8613954Y30547723D01*
X8613954Y30547722D01*
X8516291Y30491336D01*
X8516288Y30491334D01*
X8436551Y30411597D01*
X8436549Y30411594D01*
X8382563Y30318087D01*
X8380162Y30313929D01*
X8350974Y30204998D01*
X6067191Y30204998D01*
X6010489Y30261700D01*
X5912824Y30318087D01*
X5803893Y30347275D01*
X5691119Y30347275D01*
X5582188Y30318087D01*
X5582186Y30318087D01*
X5582186Y30318086D01*
X5484523Y30261700D01*
X5484520Y30261698D01*
X5404783Y30181961D01*
X5404781Y30181958D01*
X5386980Y30151125D01*
X5348394Y30084293D01*
X5319206Y29975362D01*
X231449Y29975362D01*
X231449Y31521513D01*
X3139091Y31521513D01*
X3139091Y31408739D01*
X3168279Y31299808D01*
X3224666Y31202143D01*
X3304408Y31122401D01*
X3402073Y31066014D01*
X3511004Y31036826D01*
X3511006Y31036826D01*
X3623775Y31036826D01*
X3623778Y31036826D01*
X3732709Y31066014D01*
X3830374Y31122401D01*
X3910116Y31202143D01*
X3966503Y31299808D01*
X3979115Y31346876D01*
X6013108Y31346876D01*
X6013108Y31234102D01*
X6042296Y31125171D01*
X6098683Y31027506D01*
X6178425Y30947764D01*
X6276090Y30891377D01*
X6385021Y30862189D01*
X6385023Y30862189D01*
X6497792Y30862189D01*
X6497795Y30862189D01*
X6606726Y30891377D01*
X6704391Y30947764D01*
X6784133Y31027506D01*
X6840520Y31125171D01*
X6869708Y31234102D01*
X6869708Y31346876D01*
X6840520Y31455807D01*
X6784133Y31553472D01*
X6704391Y31633214D01*
X6606726Y31689601D01*
X6497795Y31718789D01*
X6385021Y31718789D01*
X6276090Y31689601D01*
X6276088Y31689601D01*
X6276088Y31689600D01*
X6178425Y31633214D01*
X6178422Y31633212D01*
X6098685Y31553475D01*
X6098683Y31553472D01*
X6042296Y31455807D01*
X6013108Y31346876D01*
X3979115Y31346876D01*
X3995691Y31408739D01*
X3995691Y31521513D01*
X3966503Y31630444D01*
X3910116Y31728109D01*
X3855678Y31782547D01*
X13149998Y31782547D01*
X13149998Y31669773D01*
X13179186Y31560842D01*
X13235573Y31463177D01*
X13315315Y31383435D01*
X13412980Y31327048D01*
X13521911Y31297860D01*
X13521913Y31297860D01*
X13634682Y31297860D01*
X13634685Y31297860D01*
X13743616Y31327048D01*
X13841281Y31383435D01*
X13921023Y31463177D01*
X13977410Y31560842D01*
X14006598Y31669773D01*
X14006598Y31782547D01*
X13977410Y31891478D01*
X13921023Y31989143D01*
X13841281Y32068885D01*
X13743616Y32125272D01*
X13634685Y32154460D01*
X13521911Y32154460D01*
X13412980Y32125272D01*
X13412978Y32125272D01*
X13412978Y32125271D01*
X13315315Y32068885D01*
X13315312Y32068883D01*
X13235575Y31989146D01*
X13235573Y31989143D01*
X13179186Y31891478D01*
X13149998Y31782547D01*
X3855678Y31782547D01*
X3830374Y31807851D01*
X3732709Y31864238D01*
X3623778Y31893426D01*
X3511004Y31893426D01*
X3402073Y31864238D01*
X3402071Y31864238D01*
X3402071Y31864237D01*
X3304408Y31807851D01*
X3304405Y31807849D01*
X3224668Y31728112D01*
X3224666Y31728109D01*
X3168279Y31630444D01*
X3139091Y31521513D01*
X231449Y31521513D01*
X231449Y32260852D01*
X251134Y32327891D01*
X303938Y32373646D01*
X355124Y32384851D01*
X6538150Y32400704D01*
X14503442Y32400704D01*
X15405117Y32416523D01*
X15472491Y32398017D01*
G37*
%TD.AperFunction*%
%TD*%
%TA.AperFunction,Conductor*%
%TO.N,/+5V_USB*%
G36*
X37942914Y42337810D02*
G01*
X38009896Y42317940D01*
X38055505Y42265011D01*
X38066566Y42212955D01*
X38016904Y35012093D01*
X38016905Y35012094D01*
X38016905Y35012092D01*
X45309363Y35027707D01*
X45376442Y35008167D01*
X45422310Y34955461D01*
X45433626Y34903708D01*
X45433626Y34811304D01*
X45437333Y34797470D01*
X45461110Y34708730D01*
X45487658Y34662749D01*
X45514206Y34616767D01*
X45589294Y34541679D01*
X45681258Y34488583D01*
X45783831Y34461099D01*
X45783833Y34461099D01*
X45890019Y34461099D01*
X45890021Y34461099D01*
X45992594Y34488583D01*
X46084558Y34541679D01*
X46159646Y34616767D01*
X46212742Y34708731D01*
X46240226Y34811304D01*
X46240226Y34905966D01*
X46259911Y34973005D01*
X46312715Y35018760D01*
X46363956Y35029966D01*
X49690218Y35037088D01*
X49757299Y35017547D01*
X49803167Y34964841D01*
X49814477Y34914292D01*
X49837330Y32560464D01*
X49818297Y32493236D01*
X49765940Y32446971D01*
X49713655Y32435260D01*
X48454098Y32432015D01*
X48387009Y32451527D01*
X48363638Y32472971D01*
X48363017Y32472349D01*
X48282184Y32553182D01*
X48282182Y32553184D01*
X48236200Y32579732D01*
X48190219Y32606280D01*
X48138931Y32620022D01*
X48087645Y32633764D01*
X47981455Y32633764D01*
X47878880Y32606280D01*
X47786918Y32553185D01*
X47706083Y32472349D01*
X47705120Y32473312D01*
X47655596Y32437158D01*
X47613978Y32429851D01*
X44782434Y32422556D01*
X44715345Y32442068D01*
X44669454Y32494754D01*
X44658115Y32546556D01*
X44658115Y32563537D01*
X44658115Y32563539D01*
X44630631Y32666112D01*
X44577535Y32758076D01*
X44502447Y32833164D01*
X44430826Y32874515D01*
X44410484Y32886260D01*
X44351740Y32902000D01*
X44307910Y32913744D01*
X44201720Y32913744D01*
X44099145Y32886260D01*
X44007183Y32833164D01*
X44007180Y32833162D01*
X43932097Y32758079D01*
X43932095Y32758076D01*
X43878999Y32666114D01*
X43851515Y32563539D01*
X43851515Y32543839D01*
X43831830Y32476800D01*
X43779026Y32431045D01*
X43727834Y32419839D01*
X40033730Y32410321D01*
X31221989Y32410321D01*
X31171471Y19326403D01*
X31171459Y19325059D01*
X31146209Y17608013D01*
X35113384Y17608013D01*
X35180423Y17588328D01*
X35226178Y17535524D01*
X35237381Y17483086D01*
X35225202Y15854387D01*
X35205016Y15787496D01*
X35151872Y15742138D01*
X35100952Y15731314D01*
X29748944Y15742214D01*
X29681945Y15762035D01*
X29681130Y15762566D01*
X29015564Y16199655D01*
X28970333Y16252909D01*
X28959632Y16302950D01*
X28956124Y17535524D01*
X28936777Y24332707D01*
X29684423Y24332707D01*
X29684423Y24226518D01*
X29711907Y24123943D01*
X29738455Y24077962D01*
X29765003Y24031980D01*
X29840091Y23956892D01*
X29932055Y23903796D01*
X30034628Y23876312D01*
X30034630Y23876312D01*
X30140816Y23876312D01*
X30140818Y23876312D01*
X30243391Y23903796D01*
X30335355Y23956892D01*
X30410443Y24031980D01*
X30463539Y24123944D01*
X30491023Y24226517D01*
X30491023Y24332707D01*
X30463539Y24435280D01*
X30410443Y24527244D01*
X30335355Y24602332D01*
X30289373Y24628880D01*
X30243392Y24655428D01*
X30192104Y24669170D01*
X30140818Y24682912D01*
X30034628Y24682912D01*
X29932053Y24655428D01*
X29840091Y24602332D01*
X29840088Y24602330D01*
X29765005Y24527247D01*
X29765003Y24527244D01*
X29711907Y24435282D01*
X29684423Y24332707D01*
X28936777Y24332707D01*
X28911213Y33314072D01*
X38267504Y33314072D01*
X38267504Y33207883D01*
X38294988Y33105308D01*
X38321536Y33059327D01*
X38348084Y33013345D01*
X38423172Y32938257D01*
X38515136Y32885161D01*
X38617709Y32857677D01*
X38617711Y32857677D01*
X38723897Y32857677D01*
X38723899Y32857677D01*
X38826472Y32885161D01*
X38918436Y32938257D01*
X38993524Y33013345D01*
X39046620Y33105309D01*
X39074104Y33207882D01*
X39074104Y33314072D01*
X39069592Y33330910D01*
X43013350Y33330910D01*
X43013350Y33224720D01*
X43017862Y33207882D01*
X43040834Y33122146D01*
X43050556Y33105308D01*
X43093930Y33030183D01*
X43169018Y32955095D01*
X43260982Y32901999D01*
X43363555Y32874515D01*
X43363557Y32874515D01*
X43469743Y32874515D01*
X43469745Y32874515D01*
X43572318Y32901999D01*
X43664282Y32955095D01*
X43739370Y33030183D01*
X43792466Y33122147D01*
X43819950Y33224720D01*
X43819950Y33330910D01*
X43792466Y33433483D01*
X43739370Y33525447D01*
X43664282Y33600535D01*
X43601482Y33636793D01*
X43572319Y33653631D01*
X43521031Y33667373D01*
X43469745Y33681115D01*
X43363555Y33681115D01*
X43260980Y33653631D01*
X43169018Y33600535D01*
X43169015Y33600533D01*
X43093932Y33525450D01*
X43093930Y33525447D01*
X43040834Y33433485D01*
X43036322Y33416645D01*
X43013350Y33330910D01*
X39069592Y33330910D01*
X39046620Y33416645D01*
X38993524Y33508609D01*
X38918436Y33583697D01*
X38872454Y33610245D01*
X38826473Y33636793D01*
X38763631Y33653631D01*
X38723899Y33664277D01*
X38617709Y33664277D01*
X38515134Y33636793D01*
X38423172Y33583697D01*
X38423169Y33583695D01*
X38348086Y33508612D01*
X38348084Y33508609D01*
X38294988Y33416647D01*
X38267504Y33314072D01*
X28911213Y33314072D01*
X28909370Y33961649D01*
X28928863Y34028741D01*
X28981537Y34074646D01*
X29050667Y34084787D01*
X29114305Y34055943D01*
X29121050Y34049680D01*
X29138729Y34032001D01*
X29138730Y34032000D01*
X29138732Y34031999D01*
X29193262Y34000517D01*
X29247795Y33969032D01*
X29369443Y33936436D01*
X29369446Y33936436D01*
X30095378Y33936436D01*
X30095381Y33936436D01*
X30217029Y33969032D01*
X30326095Y34032001D01*
X30415147Y34121053D01*
X30478116Y34230119D01*
X30510712Y34351767D01*
X30510712Y34351770D01*
X32424111Y34351770D01*
X32456708Y34230118D01*
X32456709Y34230117D01*
X32519674Y34121057D01*
X32519676Y34121054D01*
X32519677Y34121053D01*
X32608729Y34032001D01*
X32608730Y34032000D01*
X32608732Y34031999D01*
X32663262Y34000517D01*
X32717795Y33969032D01*
X32839443Y33936436D01*
X32839446Y33936436D01*
X33565378Y33936436D01*
X33565381Y33936436D01*
X33687029Y33969032D01*
X33796095Y34032001D01*
X33885147Y34121053D01*
X33948116Y34230119D01*
X33980712Y34351767D01*
X33980712Y34477705D01*
X33948116Y34599353D01*
X33885147Y34708419D01*
X33796095Y34797471D01*
X33796094Y34797472D01*
X33796091Y34797474D01*
X33687031Y34860439D01*
X33687030Y34860440D01*
X33656617Y34868589D01*
X33565381Y34893036D01*
X32839443Y34893036D01*
X32766454Y34873479D01*
X32717793Y34860440D01*
X32717792Y34860439D01*
X32608732Y34797474D01*
X32608727Y34797470D01*
X32519678Y34708421D01*
X32519674Y34708416D01*
X32456709Y34599356D01*
X32456708Y34599355D01*
X32441255Y34541682D01*
X32424112Y34477705D01*
X32424112Y34477703D01*
X32424112Y34351770D01*
X32424111Y34351770D01*
X30510712Y34351770D01*
X30510712Y34477705D01*
X30478116Y34599353D01*
X30415147Y34708419D01*
X30326095Y34797471D01*
X30326094Y34797472D01*
X30326091Y34797474D01*
X30217031Y34860439D01*
X30217030Y34860440D01*
X30186617Y34868589D01*
X30095381Y34893036D01*
X29369443Y34893036D01*
X29296454Y34873479D01*
X29247793Y34860440D01*
X29247792Y34860439D01*
X29138732Y34797474D01*
X29118479Y34777221D01*
X29057155Y34743737D01*
X28987463Y34748723D01*
X28931530Y34790595D01*
X28907115Y34856060D01*
X28906801Y34864523D01*
X28903386Y36064330D01*
X31505712Y36064330D01*
X31505712Y35965143D01*
X31531383Y35869334D01*
X31556180Y35826386D01*
X31580977Y35783436D01*
X31651112Y35713301D01*
X31737011Y35663707D01*
X31832818Y35638036D01*
X31832820Y35638036D01*
X31932004Y35638036D01*
X31932006Y35638036D01*
X32027813Y35663707D01*
X32113712Y35713301D01*
X32183847Y35783436D01*
X32233441Y35869335D01*
X32259112Y35965142D01*
X32259112Y36064330D01*
X32233441Y36160137D01*
X32183847Y36246036D01*
X32113712Y36316171D01*
X32070762Y36340968D01*
X32027814Y36365765D01*
X31979909Y36378601D01*
X31932006Y36391436D01*
X31832818Y36391436D01*
X31737009Y36365765D01*
X31651112Y36316171D01*
X31651109Y36316169D01*
X31580979Y36246039D01*
X31580977Y36246036D01*
X31531383Y36160139D01*
X31505712Y36064330D01*
X28903386Y36064330D01*
X28898077Y37929612D01*
X28898077Y40064330D01*
X31505712Y40064330D01*
X31505712Y39965143D01*
X31531383Y39869334D01*
X31556180Y39826386D01*
X31580977Y39783436D01*
X31651112Y39713301D01*
X31737011Y39663707D01*
X31832818Y39638036D01*
X31832820Y39638036D01*
X31932004Y39638036D01*
X31932006Y39638036D01*
X32027813Y39663707D01*
X32113712Y39713301D01*
X32183847Y39783436D01*
X32233441Y39869335D01*
X32259112Y39965142D01*
X32259112Y40064330D01*
X32233441Y40160137D01*
X32183847Y40246036D01*
X32113712Y40316171D01*
X32070762Y40340968D01*
X32027814Y40365765D01*
X31979909Y40378601D01*
X31932006Y40391436D01*
X31832818Y40391436D01*
X31737009Y40365765D01*
X31651112Y40316171D01*
X31651109Y40316169D01*
X31580979Y40246039D01*
X31580977Y40246036D01*
X31531383Y40160139D01*
X31505712Y40064330D01*
X28898077Y40064330D01*
X28898077Y41173291D01*
X28917762Y41240330D01*
X28970566Y41286085D01*
X29039724Y41296029D01*
X29103280Y41267004D01*
X29109758Y41260972D01*
X29138729Y41232001D01*
X29247795Y41169032D01*
X29369443Y41136436D01*
X29369446Y41136436D01*
X30095378Y41136436D01*
X30095381Y41136436D01*
X30217029Y41169032D01*
X30326095Y41232001D01*
X30415147Y41321053D01*
X30478116Y41430119D01*
X30510712Y41551767D01*
X30510712Y41551770D01*
X32424111Y41551770D01*
X32456708Y41430118D01*
X32456709Y41430117D01*
X32519674Y41321057D01*
X32519676Y41321054D01*
X32519677Y41321053D01*
X32608729Y41232001D01*
X32717795Y41169032D01*
X32839443Y41136436D01*
X32839446Y41136436D01*
X33565378Y41136436D01*
X33565381Y41136436D01*
X33687029Y41169032D01*
X33796095Y41232001D01*
X33885147Y41321053D01*
X33948116Y41430119D01*
X33980712Y41551767D01*
X33980712Y41677705D01*
X33948116Y41799353D01*
X33885147Y41908419D01*
X33796095Y41997471D01*
X33796094Y41997472D01*
X33796091Y41997474D01*
X33687031Y42060439D01*
X33687030Y42060440D01*
X33656617Y42068589D01*
X33565381Y42093036D01*
X32839443Y42093036D01*
X32766454Y42073479D01*
X32717793Y42060440D01*
X32717792Y42060439D01*
X32608732Y41997474D01*
X32608727Y41997470D01*
X32519678Y41908421D01*
X32519674Y41908416D01*
X32456709Y41799356D01*
X32456708Y41799355D01*
X32440410Y41738529D01*
X32424112Y41677705D01*
X32424112Y41677703D01*
X32424112Y41551770D01*
X32424111Y41551770D01*
X30510712Y41551770D01*
X30510712Y41677705D01*
X30478116Y41799353D01*
X30415147Y41908419D01*
X30326095Y41997471D01*
X30326094Y41997472D01*
X30326091Y41997474D01*
X30217031Y42060439D01*
X30217030Y42060440D01*
X30186617Y42068589D01*
X30095381Y42093036D01*
X29369443Y42093036D01*
X29296454Y42073479D01*
X29247793Y42060440D01*
X29247792Y42060439D01*
X29138732Y41997474D01*
X29138727Y41997470D01*
X29109758Y41968500D01*
X29048435Y41935015D01*
X28978743Y41939999D01*
X28922810Y41981871D01*
X28898393Y42047335D01*
X28898077Y42056181D01*
X28898077Y42238384D01*
X28917762Y42305423D01*
X28970566Y42351178D01*
X29022416Y42362384D01*
X37942914Y42337810D01*
G37*
%TD.AperFunction*%
%TD*%
%TA.AperFunction,Conductor*%
%TO.N,+3.3V*%
G36*
X25065243Y66412858D02*
G01*
X25111033Y66360084D01*
X25122273Y66308495D01*
X25122135Y60974419D01*
X25102449Y60907380D01*
X25049644Y60861626D01*
X24980485Y60851685D01*
X24945256Y60863879D01*
X24944961Y60863165D01*
X24937449Y60866276D01*
X24937448Y60866277D01*
X24937447Y60866277D01*
X24834874Y60893761D01*
X24728684Y60893761D01*
X24626109Y60866277D01*
X24534147Y60813181D01*
X24534144Y60813179D01*
X24459061Y60738096D01*
X24459059Y60738093D01*
X24405963Y60646131D01*
X24378479Y60543556D01*
X24378479Y60437367D01*
X24405963Y60334792D01*
X24420790Y60309112D01*
X24459059Y60242829D01*
X24534147Y60167741D01*
X24598915Y60130347D01*
X24626107Y60114647D01*
X24626111Y60114645D01*
X24728684Y60087161D01*
X24728686Y60087161D01*
X24834872Y60087161D01*
X24834874Y60087161D01*
X24937447Y60114645D01*
X24937454Y60114650D01*
X24944961Y60117757D01*
X24945615Y60116177D01*
X25003996Y60130347D01*
X25070025Y60107503D01*
X25113223Y60052588D01*
X25122111Y60006484D01*
X25121801Y48077662D01*
X25102115Y48010623D01*
X25059806Y47970281D01*
X25049308Y47964220D01*
X25049300Y47964214D01*
X24945172Y47860086D01*
X24945168Y47860080D01*
X24871538Y47732551D01*
X24871537Y47732547D01*
X24833421Y47590298D01*
X24833421Y47443032D01*
X24871537Y47300783D01*
X24902927Y47246413D01*
X24919398Y47178512D01*
X24902927Y47122415D01*
X24871537Y47068046D01*
X24871537Y47068045D01*
X24833421Y46925796D01*
X24833421Y46778530D01*
X24841966Y46746641D01*
X24871538Y46636278D01*
X24907953Y46573206D01*
X24924426Y46505306D01*
X24907953Y46449206D01*
X24871538Y46386135D01*
X24871537Y46386131D01*
X24833421Y46243882D01*
X24833421Y46096616D01*
X24853285Y46022483D01*
X24871537Y45954366D01*
X24871539Y45954363D01*
X24892814Y45917512D01*
X24909285Y45849612D01*
X24892814Y45793516D01*
X24871539Y45756666D01*
X24871537Y45756663D01*
X24865192Y45732983D01*
X24833421Y45614412D01*
X24833421Y45467146D01*
X24866741Y45342797D01*
X24871538Y45324894D01*
X24902990Y45270419D01*
X24945170Y45197361D01*
X25049303Y45093228D01*
X25060448Y45086794D01*
X25108663Y45036229D01*
X25122449Y44979406D01*
X25122449Y30189851D01*
X25102764Y30122812D01*
X25049960Y30077057D01*
X24998449Y30065851D01*
X17600525Y30065851D01*
X17533486Y30085536D01*
X17512844Y30102170D01*
X17316043Y30298971D01*
X17282558Y30360294D01*
X17279724Y30386652D01*
X17279724Y32086645D01*
X16636628Y32690164D01*
X16549993Y32771468D01*
X16549992Y32771468D01*
X14494619Y32759050D01*
X14447920Y32772456D01*
X19879206Y32772456D01*
X19879206Y32659682D01*
X19908394Y32550751D01*
X19964781Y32453086D01*
X20044523Y32373344D01*
X20142188Y32316957D01*
X20251119Y32287769D01*
X20251121Y32287769D01*
X20363890Y32287769D01*
X20363893Y32287769D01*
X20472824Y32316957D01*
X20570489Y32373344D01*
X20650231Y32453086D01*
X20706618Y32550751D01*
X20735806Y32659682D01*
X20735806Y32772456D01*
X20706618Y32881387D01*
X20650231Y32979052D01*
X20570489Y33058794D01*
X20472824Y33115181D01*
X20363893Y33144369D01*
X20251119Y33144369D01*
X20142188Y33115181D01*
X20142186Y33115181D01*
X20142186Y33115180D01*
X20044523Y33058794D01*
X20044520Y33058792D01*
X19964783Y32979055D01*
X19964781Y32979052D01*
X19913724Y32890618D01*
X19908394Y32881387D01*
X19879206Y32772456D01*
X14447920Y32772456D01*
X14427462Y32778329D01*
X14381389Y32830856D01*
X14371028Y32899953D01*
X14399668Y32963683D01*
X14406176Y32970716D01*
X15654043Y34218582D01*
X15680510Y34264425D01*
X15694237Y34288200D01*
X15715043Y34365848D01*
X15715043Y35119967D01*
X18471321Y35119967D01*
X18471321Y35007193D01*
X18500509Y34898262D01*
X18556896Y34800597D01*
X18636638Y34720855D01*
X18734303Y34664468D01*
X18843234Y34635280D01*
X18843236Y34635280D01*
X18956005Y34635280D01*
X18956008Y34635280D01*
X19064939Y34664468D01*
X19162604Y34720855D01*
X19242346Y34800597D01*
X19298733Y34898262D01*
X19327921Y35007193D01*
X19327921Y35119967D01*
X19320541Y35147511D01*
X21890019Y35147511D01*
X21890019Y35034737D01*
X21919207Y34925806D01*
X21975594Y34828141D01*
X22055336Y34748399D01*
X22153001Y34692012D01*
X22261932Y34662824D01*
X22261934Y34662824D01*
X22374703Y34662824D01*
X22374706Y34662824D01*
X22483637Y34692012D01*
X22581302Y34748399D01*
X22661044Y34828141D01*
X22717431Y34925806D01*
X22746619Y35034737D01*
X22746619Y35147511D01*
X22732318Y35200883D01*
X22733981Y35270730D01*
X22773143Y35328593D01*
X22819997Y35352748D01*
X22855901Y35362368D01*
X22947865Y35415464D01*
X23022953Y35490552D01*
X23076049Y35582516D01*
X23103533Y35685089D01*
X23103533Y35791279D01*
X23076049Y35893852D01*
X23022953Y35985816D01*
X22947865Y36060904D01*
X22901883Y36087452D01*
X22855902Y36114000D01*
X22804614Y36127742D01*
X22753328Y36141484D01*
X22647138Y36141484D01*
X22544563Y36114000D01*
X22452601Y36060904D01*
X22452598Y36060902D01*
X22377515Y35985819D01*
X22377513Y35985816D01*
X22324417Y35893854D01*
X22296933Y35791279D01*
X22296933Y35685088D01*
X22303911Y35659045D01*
X22302247Y35589195D01*
X22263084Y35531333D01*
X22216230Y35507179D01*
X22153001Y35490236D01*
X22152999Y35490236D01*
X22152999Y35490235D01*
X22055336Y35433849D01*
X22055333Y35433847D01*
X21975596Y35354110D01*
X21975594Y35354107D01*
X21919207Y35256442D01*
X21890019Y35147511D01*
X19320541Y35147511D01*
X19298733Y35228898D01*
X19242346Y35326563D01*
X19162604Y35406305D01*
X19064939Y35462692D01*
X18956008Y35491880D01*
X18843234Y35491880D01*
X18734303Y35462692D01*
X18734301Y35462692D01*
X18734301Y35462691D01*
X18636638Y35406305D01*
X18636635Y35406303D01*
X18556898Y35326566D01*
X18556896Y35326563D01*
X18516412Y35256442D01*
X18500509Y35228898D01*
X18471321Y35119967D01*
X15715043Y35119967D01*
X15715043Y38590343D01*
X18836377Y38590343D01*
X18836377Y38477569D01*
X18865565Y38368638D01*
X18921952Y38270973D01*
X19001694Y38191231D01*
X19099359Y38134844D01*
X19208290Y38105656D01*
X19208292Y38105656D01*
X19321061Y38105656D01*
X19321064Y38105656D01*
X19429995Y38134844D01*
X19527660Y38191231D01*
X19607402Y38270973D01*
X19663789Y38368638D01*
X19692977Y38477569D01*
X19692977Y38590343D01*
X19676226Y38652859D01*
X23569825Y38652859D01*
X23569825Y38546670D01*
X23597309Y38444095D01*
X23623857Y38398114D01*
X23650405Y38352132D01*
X23725493Y38277044D01*
X23817457Y38223948D01*
X23920030Y38196464D01*
X23920032Y38196464D01*
X24026218Y38196464D01*
X24026220Y38196464D01*
X24128793Y38223948D01*
X24220757Y38277044D01*
X24295845Y38352132D01*
X24348941Y38444096D01*
X24376425Y38546669D01*
X24376425Y38652859D01*
X24348941Y38755432D01*
X24295845Y38847396D01*
X24220757Y38922484D01*
X24151871Y38962256D01*
X24128794Y38975580D01*
X24045511Y38997895D01*
X24026220Y39003064D01*
X23920030Y39003064D01*
X23817455Y38975580D01*
X23725493Y38922484D01*
X23725490Y38922482D01*
X23650407Y38847399D01*
X23650405Y38847396D01*
X23597309Y38755434D01*
X23569825Y38652859D01*
X19676226Y38652859D01*
X19663789Y38699274D01*
X19607402Y38796939D01*
X19527660Y38876681D01*
X19429995Y38933068D01*
X19321064Y38962256D01*
X19208290Y38962256D01*
X19099359Y38933068D01*
X19099357Y38933068D01*
X19099357Y38933067D01*
X19001694Y38876681D01*
X19001691Y38876679D01*
X18921954Y38796942D01*
X18921952Y38796939D01*
X18865565Y38699274D01*
X18836377Y38590343D01*
X15715043Y38590343D01*
X15715043Y41553442D01*
X15731657Y41615443D01*
X15732463Y41616839D01*
X15785559Y41708803D01*
X15812807Y41810497D01*
X18653018Y41810497D01*
X18653018Y41704307D01*
X18666760Y41653021D01*
X18680502Y41601733D01*
X18700429Y41567220D01*
X18733598Y41509770D01*
X18808686Y41434682D01*
X18900650Y41381586D01*
X19003223Y41354102D01*
X19003225Y41354102D01*
X19109411Y41354102D01*
X19109413Y41354102D01*
X19211986Y41381586D01*
X19303950Y41434682D01*
X19379038Y41509770D01*
X19432134Y41601734D01*
X19459618Y41704307D01*
X19459618Y41810497D01*
X19432134Y41913070D01*
X19379038Y42005034D01*
X19303950Y42080122D01*
X19248553Y42112106D01*
X19211987Y42133218D01*
X19160699Y42146960D01*
X19109413Y42160702D01*
X19003223Y42160702D01*
X18900648Y42133218D01*
X18808686Y42080122D01*
X18808683Y42080120D01*
X18733600Y42005037D01*
X18733598Y42005034D01*
X18680502Y41913072D01*
X18658297Y41830200D01*
X18653018Y41810497D01*
X15812807Y41810497D01*
X15813043Y41811376D01*
X15813043Y41917566D01*
X15785559Y42020139D01*
X15732463Y42112103D01*
X15657375Y42187191D01*
X15603968Y42218026D01*
X15565412Y42240287D01*
X15514124Y42254029D01*
X15462838Y42267771D01*
X15356648Y42267771D01*
X15254073Y42240287D01*
X15162111Y42187191D01*
X15162108Y42187189D01*
X15087025Y42112106D01*
X15087023Y42112103D01*
X15033927Y42020141D01*
X15006443Y41917566D01*
X15006443Y41811376D01*
X15024329Y41744623D01*
X15033928Y41708801D01*
X15033929Y41708798D01*
X15087829Y41615443D01*
X15104443Y41553442D01*
X15104443Y34583862D01*
X15084758Y34516823D01*
X15068124Y34496181D01*
X13871797Y33299855D01*
X13816210Y33267761D01*
X13814650Y33267343D01*
X13712077Y33239859D01*
X13712075Y33239859D01*
X13712075Y33239858D01*
X13620113Y33186763D01*
X13620110Y33186761D01*
X13545027Y33111678D01*
X13545025Y33111675D01*
X13491929Y33019713D01*
X13464445Y32917138D01*
X13464445Y32876079D01*
X13444760Y32809040D01*
X13391956Y32763285D01*
X13341195Y32752081D01*
X12949791Y32749715D01*
X12882633Y32768994D01*
X12836560Y32821521D01*
X12826199Y32890618D01*
X12854839Y32954348D01*
X12887041Y32981100D01*
X12913366Y32996299D01*
X12963109Y33025018D01*
X13042851Y33104760D01*
X13099238Y33202425D01*
X13128426Y33311356D01*
X13128426Y33424130D01*
X13099238Y33533061D01*
X13042851Y33630726D01*
X12963109Y33710468D01*
X12865444Y33766855D01*
X12756513Y33796043D01*
X12643739Y33796043D01*
X12534808Y33766855D01*
X12534806Y33766855D01*
X12534806Y33766854D01*
X12437143Y33710468D01*
X12437140Y33710466D01*
X12357403Y33630729D01*
X12357401Y33630726D01*
X12301014Y33533061D01*
X12271826Y33424130D01*
X12271826Y33311356D01*
X12301014Y33202425D01*
X12357401Y33104760D01*
X12437143Y33025018D01*
X12474793Y33003281D01*
X12515572Y32979737D01*
X12563788Y32929170D01*
X12577011Y32860563D01*
X12551043Y32795698D01*
X12494128Y32755170D01*
X12453789Y32748350D01*
X10369466Y32744700D01*
X10302392Y32764267D01*
X10256545Y32816991D01*
X10247429Y32858719D01*
X10246310Y32858571D01*
X10245249Y32866629D01*
X10245249Y32866631D01*
X10222876Y32950128D01*
X10179654Y33024990D01*
X10118530Y33086114D01*
X10043668Y33129336D01*
X9960171Y33151709D01*
X9873727Y33151709D01*
X9790230Y33129336D01*
X9790228Y33129336D01*
X9790228Y33129335D01*
X9715368Y33086114D01*
X9715365Y33086112D01*
X9654246Y33024993D01*
X9654244Y33024990D01*
X9611022Y32950128D01*
X9604374Y32925318D01*
X9588648Y32866629D01*
X9587588Y32858571D01*
X9586193Y32858755D01*
X9586129Y32858536D01*
X9587418Y32849684D01*
X9576437Y32825528D01*
X9568964Y32800077D01*
X9562206Y32794222D01*
X9558504Y32786077D01*
X9536205Y32771692D01*
X9516160Y32754322D01*
X9505759Y32752050D01*
X9499792Y32748200D01*
X9464866Y32743116D01*
X9369466Y32742949D01*
X9302392Y32762516D01*
X9256545Y32815240D01*
X9247057Y32858670D01*
X9246310Y32858571D01*
X9245249Y32866629D01*
X9245249Y32866631D01*
X9222876Y32950128D01*
X9179654Y33024990D01*
X9118530Y33086114D01*
X9043668Y33129336D01*
X8960171Y33151709D01*
X8873727Y33151709D01*
X8790230Y33129336D01*
X8790228Y33129336D01*
X8790228Y33129335D01*
X8715368Y33086114D01*
X8715365Y33086112D01*
X8654246Y33024993D01*
X8654244Y33024990D01*
X8611022Y32950128D01*
X8588649Y32866631D01*
X8588649Y32866629D01*
X8588649Y32865365D01*
X8588347Y32864338D01*
X8587588Y32858571D01*
X8586688Y32858690D01*
X8568964Y32798326D01*
X8516160Y32752571D01*
X8464866Y32741365D01*
X6262870Y32737508D01*
X6254074Y32740074D01*
X6245006Y32738770D01*
X6221065Y32749704D01*
X6195796Y32757075D01*
X6189783Y32763990D01*
X6181450Y32767795D01*
X6167220Y32789937D01*
X6149949Y32809799D01*
X6147628Y32820424D01*
X6143676Y32826573D01*
X6138653Y32861508D01*
X6138653Y32883505D01*
X6158338Y32950544D01*
X6211142Y32996299D01*
X6230546Y33003276D01*
X6253057Y33009307D01*
X6345021Y33062403D01*
X6420109Y33137491D01*
X6473205Y33229455D01*
X6500689Y33332028D01*
X6500689Y33341223D01*
X6520374Y33408262D01*
X6537008Y33428904D01*
X6541792Y33433688D01*
X6567105Y33459001D01*
X6603954Y33522826D01*
X6623029Y33594013D01*
X6623029Y33666631D01*
X7788649Y33666631D01*
X7788649Y33580187D01*
X7811022Y33496690D01*
X7854244Y33421828D01*
X7915368Y33360704D01*
X7990230Y33317482D01*
X8073727Y33295109D01*
X8073729Y33295109D01*
X8160168Y33295109D01*
X8160171Y33295109D01*
X8243668Y33317482D01*
X8318530Y33360704D01*
X8379654Y33421828D01*
X8422876Y33496690D01*
X8445249Y33580187D01*
X8445249Y33666631D01*
X8422876Y33750128D01*
X8379654Y33824990D01*
X8318530Y33886114D01*
X8243668Y33929336D01*
X8160171Y33951709D01*
X8073727Y33951709D01*
X7990230Y33929336D01*
X7990228Y33929336D01*
X7990228Y33929335D01*
X7915368Y33886114D01*
X7915365Y33886112D01*
X7854246Y33824993D01*
X7854244Y33824990D01*
X7813691Y33754750D01*
X7811022Y33750128D01*
X7788649Y33666631D01*
X6623029Y33666631D01*
X6623029Y33667713D01*
X6623029Y34200070D01*
X8638649Y34200070D01*
X8638649Y34046749D01*
X8668556Y33896395D01*
X8668558Y33896387D01*
X8727226Y33754749D01*
X8812403Y33627273D01*
X8812406Y33627269D01*
X8920808Y33518867D01*
X8920812Y33518864D01*
X9048286Y33433688D01*
X9048287Y33433688D01*
X9048288Y33433687D01*
X9071361Y33424130D01*
X9189927Y33375018D01*
X9340288Y33345110D01*
X9340292Y33345109D01*
X9340293Y33345109D01*
X9493606Y33345109D01*
X9493607Y33345110D01*
X9643971Y33375018D01*
X9785612Y33433688D01*
X9913086Y33518864D01*
X10021494Y33627272D01*
X10047793Y33666631D01*
X10388649Y33666631D01*
X10388649Y33580187D01*
X10411022Y33496690D01*
X10454244Y33421828D01*
X10515368Y33360704D01*
X10590230Y33317482D01*
X10673727Y33295109D01*
X10673729Y33295109D01*
X10760168Y33295109D01*
X10760171Y33295109D01*
X10843668Y33317482D01*
X10918530Y33360704D01*
X10979654Y33421828D01*
X11022876Y33496690D01*
X11045249Y33580187D01*
X11045249Y33666631D01*
X11022876Y33750128D01*
X10979654Y33824990D01*
X10918530Y33886114D01*
X10843668Y33929336D01*
X10760171Y33951709D01*
X10673727Y33951709D01*
X10590230Y33929336D01*
X10590228Y33929336D01*
X10590228Y33929335D01*
X10515368Y33886114D01*
X10515365Y33886112D01*
X10454246Y33824993D01*
X10454244Y33824990D01*
X10413691Y33754750D01*
X10411022Y33750128D01*
X10388649Y33666631D01*
X10047793Y33666631D01*
X10106670Y33754746D01*
X10165340Y33896387D01*
X10195249Y34046753D01*
X10195249Y34200065D01*
X10165340Y34350431D01*
X10106670Y34492072D01*
X10021494Y34619546D01*
X10021491Y34619550D01*
X9974410Y34666631D01*
X10388649Y34666631D01*
X10388649Y34580187D01*
X10411022Y34496690D01*
X10454244Y34421828D01*
X10515368Y34360704D01*
X10590230Y34317482D01*
X10673727Y34295109D01*
X10673729Y34295109D01*
X10760168Y34295109D01*
X10760171Y34295109D01*
X10843668Y34317482D01*
X10918530Y34360704D01*
X10979654Y34421828D01*
X11022876Y34496690D01*
X11045249Y34580187D01*
X11045249Y34666631D01*
X11022876Y34750128D01*
X10979654Y34824990D01*
X10918530Y34886114D01*
X10843668Y34929336D01*
X10760171Y34951709D01*
X10673727Y34951709D01*
X10590230Y34929336D01*
X10590228Y34929336D01*
X10590228Y34929335D01*
X10515368Y34886114D01*
X10515365Y34886112D01*
X10454246Y34824993D01*
X10454244Y34824990D01*
X10411022Y34750128D01*
X10388649Y34666631D01*
X9974410Y34666631D01*
X9913089Y34727952D01*
X9913085Y34727955D01*
X9785609Y34813132D01*
X9643971Y34871800D01*
X9643963Y34871802D01*
X9493609Y34901709D01*
X9493605Y34901709D01*
X9340293Y34901709D01*
X9340288Y34901709D01*
X9189934Y34871802D01*
X9189926Y34871800D01*
X9048288Y34813132D01*
X8920812Y34727955D01*
X8920808Y34727952D01*
X8812406Y34619550D01*
X8812403Y34619546D01*
X8727226Y34492070D01*
X8668558Y34350432D01*
X8668556Y34350424D01*
X8638649Y34200070D01*
X6623029Y34200070D01*
X6623029Y34666631D01*
X7788649Y34666631D01*
X7788649Y34580187D01*
X7811022Y34496690D01*
X7854244Y34421828D01*
X7915368Y34360704D01*
X7990230Y34317482D01*
X8073727Y34295109D01*
X8073729Y34295109D01*
X8160168Y34295109D01*
X8160171Y34295109D01*
X8243668Y34317482D01*
X8318530Y34360704D01*
X8379654Y34421828D01*
X8422876Y34496690D01*
X8445249Y34580187D01*
X8445249Y34666631D01*
X8422876Y34750128D01*
X8379654Y34824990D01*
X8318530Y34886114D01*
X8243668Y34929336D01*
X8160171Y34951709D01*
X8073727Y34951709D01*
X7990230Y34929336D01*
X7990228Y34929336D01*
X7990228Y34929335D01*
X7915368Y34886114D01*
X7915365Y34886112D01*
X7854246Y34824993D01*
X7854244Y34824990D01*
X7811022Y34750128D01*
X7788649Y34666631D01*
X6623029Y34666631D01*
X6623029Y35466612D01*
X8588789Y35466612D01*
X8588789Y35380206D01*
X8611152Y35296744D01*
X8611153Y35296743D01*
X8611153Y35296742D01*
X8654352Y35221918D01*
X8654354Y35221915D01*
X8654355Y35221914D01*
X8715454Y35160815D01*
X8715455Y35160814D01*
X8715457Y35160813D01*
X8715646Y35160704D01*
X8790284Y35117612D01*
X8873746Y35095249D01*
X8873748Y35095249D01*
X8960150Y35095249D01*
X8960152Y35095249D01*
X9043614Y35117612D01*
X9118444Y35160815D01*
X9179543Y35221914D01*
X9222746Y35296744D01*
X9245109Y35380206D01*
X9245109Y35466612D01*
X9245104Y35466631D01*
X9588649Y35466631D01*
X9588649Y35380187D01*
X9611022Y35296690D01*
X9654244Y35221828D01*
X9715368Y35160704D01*
X9790230Y35117482D01*
X9873727Y35095109D01*
X9873729Y35095109D01*
X9960168Y35095109D01*
X9960171Y35095109D01*
X10043668Y35117482D01*
X10118530Y35160704D01*
X10179654Y35221828D01*
X10222876Y35296690D01*
X10245249Y35380187D01*
X10245249Y35466631D01*
X10222876Y35550128D01*
X10179654Y35624990D01*
X10118530Y35686114D01*
X10043668Y35729336D01*
X9960171Y35751709D01*
X9873727Y35751709D01*
X9790230Y35729336D01*
X9790228Y35729336D01*
X9790228Y35729335D01*
X9715368Y35686114D01*
X9715365Y35686112D01*
X9654246Y35624993D01*
X9654244Y35624990D01*
X9633578Y35589195D01*
X9611022Y35550128D01*
X9588649Y35466631D01*
X9245104Y35466631D01*
X9222746Y35550074D01*
X9183920Y35617323D01*
X9179545Y35624901D01*
X9179541Y35624906D01*
X9118445Y35686002D01*
X9118440Y35686006D01*
X9043616Y35729205D01*
X9043615Y35729206D01*
X9043614Y35729206D01*
X8960152Y35751569D01*
X8873746Y35751569D01*
X8790284Y35729206D01*
X8790282Y35729205D01*
X8790281Y35729205D01*
X8715457Y35686006D01*
X8715452Y35686002D01*
X8654356Y35624906D01*
X8654352Y35624901D01*
X8611153Y35550077D01*
X8611153Y35550076D01*
X8611152Y35550074D01*
X8588789Y35466612D01*
X6623029Y35466612D01*
X6623029Y35940721D01*
X13612932Y35940721D01*
X13612932Y35834532D01*
X13640416Y35731957D01*
X13642005Y35729205D01*
X13693512Y35639994D01*
X13768600Y35564906D01*
X13860564Y35511810D01*
X13963137Y35484326D01*
X13963139Y35484326D01*
X14069325Y35484326D01*
X14069327Y35484326D01*
X14171900Y35511810D01*
X14263864Y35564906D01*
X14338952Y35639994D01*
X14392048Y35731958D01*
X14419532Y35834531D01*
X14419532Y35940721D01*
X14392048Y36043294D01*
X14338952Y36135258D01*
X14263864Y36210346D01*
X14217882Y36236894D01*
X14171901Y36263442D01*
X14120613Y36277184D01*
X14069327Y36290926D01*
X13963137Y36290926D01*
X13860562Y36263442D01*
X13768600Y36210346D01*
X13768597Y36210344D01*
X13693514Y36135261D01*
X13693512Y36135258D01*
X13640416Y36043296D01*
X13612932Y35940721D01*
X6623029Y35940721D01*
X6623029Y36125322D01*
X6603954Y36196509D01*
X6567105Y36260334D01*
X6514991Y36312448D01*
X5723513Y37103926D01*
X5659688Y37140775D01*
X5659689Y37140775D01*
X5635959Y37147134D01*
X5588501Y37159850D01*
X5588499Y37159850D01*
X2951554Y37159850D01*
X2884515Y37179535D01*
X2863873Y37196169D01*
X2544755Y37515287D01*
X2511270Y37576610D01*
X2508436Y37602968D01*
X2508436Y38801319D01*
X2528121Y38868358D01*
X2580925Y38914113D01*
X2650083Y38924057D01*
X2713639Y38895032D01*
X2720117Y38889000D01*
X4080439Y37528678D01*
X4144264Y37491829D01*
X4215451Y37472754D01*
X4289151Y37472754D01*
X7194094Y37472754D01*
X7256095Y37456141D01*
X7262154Y37452643D01*
X7262156Y37452641D01*
X7354120Y37399545D01*
X7456693Y37372061D01*
X7456695Y37372061D01*
X7562881Y37372061D01*
X7562883Y37372061D01*
X7665456Y37399545D01*
X7757420Y37452641D01*
X7832508Y37527729D01*
X7885604Y37619693D01*
X7887563Y37627006D01*
X7921354Y37682449D01*
X9889028Y37682449D01*
X9889028Y37576260D01*
X9916512Y37473685D01*
X9928662Y37452642D01*
X9969608Y37381722D01*
X10044696Y37306634D01*
X10136660Y37253538D01*
X10239233Y37226054D01*
X10239235Y37226054D01*
X10345421Y37226054D01*
X10345423Y37226054D01*
X10447996Y37253538D01*
X10539960Y37306634D01*
X10615048Y37381722D01*
X10647916Y37438652D01*
X10698483Y37486867D01*
X10767090Y37500090D01*
X10831955Y37474122D01*
X10842984Y37464332D01*
X10882090Y37425226D01*
X10974054Y37372130D01*
X11076627Y37344646D01*
X11076629Y37344646D01*
X11182815Y37344646D01*
X11182817Y37344646D01*
X11285390Y37372130D01*
X11377354Y37425226D01*
X11452442Y37500314D01*
X11505538Y37592278D01*
X11533022Y37694851D01*
X11533022Y37801041D01*
X11505538Y37903614D01*
X11452442Y37995578D01*
X11377354Y38070666D01*
X11316750Y38105656D01*
X11285391Y38123762D01*
X11234103Y38137504D01*
X11182817Y38151246D01*
X11076627Y38151246D01*
X10974052Y38123762D01*
X10882090Y38070666D01*
X10882087Y38070664D01*
X10807004Y37995581D01*
X10807000Y37995575D01*
X10774132Y37938648D01*
X10723564Y37890433D01*
X10654957Y37877212D01*
X10590092Y37903181D01*
X10579065Y37912969D01*
X10539962Y37952072D01*
X10539960Y37952074D01*
X10464610Y37995578D01*
X10447997Y38005170D01*
X10396709Y38018912D01*
X10345423Y38032654D01*
X10239233Y38032654D01*
X10136658Y38005170D01*
X10044696Y37952074D01*
X10044693Y37952072D01*
X9969610Y37876989D01*
X9969608Y37876986D01*
X9916512Y37785024D01*
X9889028Y37682449D01*
X7921354Y37682449D01*
X7923924Y37686665D01*
X7986770Y37717197D01*
X8039427Y37714691D01*
X8113854Y37694748D01*
X8113857Y37694748D01*
X8220042Y37694748D01*
X8220044Y37694748D01*
X8322617Y37722232D01*
X8414581Y37775328D01*
X8489669Y37850416D01*
X8542765Y37942380D01*
X8570249Y38044953D01*
X8570249Y38151143D01*
X8542765Y38253716D01*
X8489669Y38345680D01*
X8414581Y38420768D01*
X8335528Y38466410D01*
X8322618Y38473864D01*
X8271330Y38487606D01*
X8220044Y38501348D01*
X8113854Y38501348D01*
X8011279Y38473864D01*
X7919317Y38420768D01*
X7919314Y38420766D01*
X7844231Y38345683D01*
X7844229Y38345680D01*
X7791133Y38253718D01*
X7789172Y38246397D01*
X7752805Y38186738D01*
X7689957Y38156211D01*
X7637305Y38158720D01*
X7623868Y38162321D01*
X7562883Y38178661D01*
X7456693Y38178661D01*
X7354118Y38151177D01*
X7262156Y38098081D01*
X7262153Y38098079D01*
X7232948Y38068873D01*
X7171625Y38035388D01*
X7145267Y38032554D01*
X6859485Y38032554D01*
X6792446Y38052239D01*
X6746691Y38105043D01*
X6736747Y38174201D01*
X6739706Y38188631D01*
X6760090Y38264704D01*
X6760090Y38370894D01*
X6732606Y38473467D01*
X6679510Y38565431D01*
X6604422Y38640519D01*
X6544402Y38675172D01*
X6544399Y38675174D01*
X8711949Y38675174D01*
X8711949Y38568985D01*
X8739433Y38466410D01*
X8752317Y38444095D01*
X8792529Y38374447D01*
X8867617Y38299359D01*
X8959581Y38246263D01*
X9062154Y38218779D01*
X9062156Y38218779D01*
X9168342Y38218779D01*
X9168344Y38218779D01*
X9270917Y38246263D01*
X9362881Y38299359D01*
X9437969Y38374447D01*
X9491065Y38466411D01*
X9518549Y38568984D01*
X9518549Y38675174D01*
X9491065Y38777747D01*
X9437969Y38869711D01*
X9362881Y38944799D01*
X9305471Y38977945D01*
X9270918Y38997895D01*
X9219630Y39011637D01*
X9168344Y39025379D01*
X9062154Y39025379D01*
X8959579Y38997895D01*
X8867617Y38944799D01*
X8867614Y38944797D01*
X8792531Y38869714D01*
X8792529Y38869711D01*
X8739433Y38777749D01*
X8711949Y38675174D01*
X6544399Y38675174D01*
X6512459Y38693615D01*
X6461171Y38707357D01*
X6409885Y38721099D01*
X6303695Y38721099D01*
X6201120Y38693615D01*
X6109158Y38640519D01*
X6109155Y38640517D01*
X6034072Y38565434D01*
X6034070Y38565431D01*
X5980974Y38473469D01*
X5966853Y38420766D01*
X5953490Y38370894D01*
X5953490Y38264704D01*
X5973869Y38188645D01*
X5972207Y38118798D01*
X5933045Y38060935D01*
X5868816Y38033431D01*
X5854095Y38032554D01*
X4419601Y38032554D01*
X4352562Y38052239D01*
X4331920Y38068873D01*
X3235192Y39165601D01*
X3201707Y39226924D01*
X3198873Y39253282D01*
X3198873Y41458287D01*
X12135536Y41458287D01*
X12135536Y41345513D01*
X12164724Y41236582D01*
X12221111Y41138917D01*
X12300853Y41059175D01*
X12398518Y41002788D01*
X12507449Y40973600D01*
X12507451Y40973600D01*
X12620220Y40973600D01*
X12620223Y40973600D01*
X12729154Y41002788D01*
X12826819Y41059175D01*
X12906561Y41138917D01*
X12962948Y41236582D01*
X12992136Y41345513D01*
X12992136Y41458287D01*
X12962948Y41567218D01*
X12906561Y41664883D01*
X12826819Y41744625D01*
X12729154Y41801012D01*
X12620223Y41830200D01*
X12507449Y41830200D01*
X12398518Y41801012D01*
X12398516Y41801012D01*
X12398516Y41801011D01*
X12300853Y41744625D01*
X12300850Y41744623D01*
X12221113Y41664886D01*
X12221111Y41664883D01*
X12164724Y41567218D01*
X12135536Y41458287D01*
X3198873Y41458287D01*
X3198873Y42911502D01*
X7782760Y42911502D01*
X7782760Y42805313D01*
X7810244Y42702738D01*
X7833550Y42662372D01*
X7863340Y42610775D01*
X7938428Y42535687D01*
X8030392Y42482591D01*
X8132965Y42455107D01*
X8132967Y42455107D01*
X8239153Y42455107D01*
X8239155Y42455107D01*
X8341728Y42482591D01*
X8433692Y42535687D01*
X8508780Y42610775D01*
X8561876Y42702739D01*
X8589360Y42805312D01*
X8589360Y42911502D01*
X8575535Y42963098D01*
X14731183Y42963098D01*
X14731183Y42856909D01*
X14758667Y42754334D01*
X14782363Y42713292D01*
X14811763Y42662371D01*
X14886851Y42587283D01*
X14978815Y42534187D01*
X15081388Y42506703D01*
X15081390Y42506703D01*
X15187576Y42506703D01*
X15187578Y42506703D01*
X15232546Y42518752D01*
X21150525Y42518752D01*
X21150525Y42412563D01*
X21178009Y42309988D01*
X21202384Y42267771D01*
X21231105Y42218025D01*
X21306193Y42142937D01*
X21398157Y42089841D01*
X21500730Y42062357D01*
X21500732Y42062357D01*
X21606918Y42062357D01*
X21606920Y42062357D01*
X21709493Y42089841D01*
X21801457Y42142937D01*
X21876545Y42218025D01*
X21929641Y42309989D01*
X21957125Y42412562D01*
X21957125Y42518752D01*
X21929641Y42621325D01*
X21876545Y42713289D01*
X21801457Y42788377D01*
X21755475Y42814925D01*
X21709494Y42841473D01*
X21651884Y42856909D01*
X21606920Y42868957D01*
X21500730Y42868957D01*
X21398155Y42841473D01*
X21306193Y42788377D01*
X21306190Y42788375D01*
X21231107Y42713292D01*
X21231105Y42713289D01*
X21178009Y42621327D01*
X21150525Y42518752D01*
X15232546Y42518752D01*
X15290151Y42534187D01*
X15382115Y42587283D01*
X15457203Y42662371D01*
X15510299Y42754335D01*
X15537783Y42856908D01*
X15537783Y42963098D01*
X15510299Y43065671D01*
X15457203Y43157635D01*
X15382115Y43232723D01*
X15324000Y43266276D01*
X15290152Y43285819D01*
X15238864Y43299561D01*
X15187578Y43313303D01*
X15081388Y43313303D01*
X14978813Y43285819D01*
X14886851Y43232723D01*
X14886848Y43232721D01*
X14811765Y43157638D01*
X14811763Y43157635D01*
X14758667Y43065673D01*
X14731183Y42963098D01*
X8575535Y42963098D01*
X8561876Y43014075D01*
X8559237Y43018645D01*
X8543369Y43046130D01*
X8508780Y43106039D01*
X8433692Y43181127D01*
X8344330Y43232721D01*
X8341729Y43234223D01*
X8290441Y43247965D01*
X8239155Y43261707D01*
X8132965Y43261707D01*
X8030390Y43234223D01*
X7938428Y43181127D01*
X7938425Y43181125D01*
X7863342Y43106042D01*
X7863340Y43106039D01*
X7810244Y43014077D01*
X7782760Y42911502D01*
X3198873Y42911502D01*
X3198873Y43475040D01*
X19082431Y43475040D01*
X19082431Y43368851D01*
X19109915Y43266276D01*
X19129289Y43232721D01*
X19163011Y43174313D01*
X19238099Y43099225D01*
X19330063Y43046129D01*
X19432636Y43018645D01*
X19432638Y43018645D01*
X19538824Y43018645D01*
X19538826Y43018645D01*
X19641399Y43046129D01*
X19733363Y43099225D01*
X19808451Y43174313D01*
X19861547Y43266277D01*
X19889031Y43368850D01*
X19889031Y43475040D01*
X19861547Y43577613D01*
X19808451Y43669577D01*
X19733363Y43744665D01*
X19687381Y43771213D01*
X19641400Y43797761D01*
X19590112Y43811503D01*
X19538826Y43825245D01*
X19432636Y43825245D01*
X19330061Y43797761D01*
X19238099Y43744665D01*
X19238096Y43744663D01*
X19163013Y43669580D01*
X19163011Y43669577D01*
X19109915Y43577615D01*
X19082431Y43475040D01*
X3198873Y43475040D01*
X3198873Y44859791D01*
X11636367Y44859791D01*
X11636367Y44747017D01*
X11665555Y44638086D01*
X11721942Y44540421D01*
X11801684Y44460679D01*
X11899349Y44404292D01*
X12008280Y44375104D01*
X12008282Y44375104D01*
X12121051Y44375104D01*
X12121054Y44375104D01*
X12229985Y44404292D01*
X12327650Y44460679D01*
X12378638Y44511667D01*
X20683891Y44511667D01*
X20683891Y44405478D01*
X20711375Y44302903D01*
X20737923Y44256922D01*
X20764471Y44210940D01*
X20839559Y44135852D01*
X20931523Y44082756D01*
X21034096Y44055272D01*
X21034098Y44055272D01*
X21140284Y44055272D01*
X21140286Y44055272D01*
X21242859Y44082756D01*
X21334823Y44135852D01*
X21409911Y44210940D01*
X21463007Y44302904D01*
X21490491Y44405477D01*
X21490491Y44511667D01*
X21463007Y44614240D01*
X21409911Y44706204D01*
X21334823Y44781292D01*
X21288841Y44807840D01*
X21242860Y44834388D01*
X21191572Y44848130D01*
X21140286Y44861872D01*
X21034096Y44861872D01*
X20931521Y44834388D01*
X20839559Y44781292D01*
X20839556Y44781290D01*
X20764473Y44706207D01*
X20764471Y44706204D01*
X20711375Y44614242D01*
X20683891Y44511667D01*
X12378638Y44511667D01*
X12407392Y44540421D01*
X12463779Y44638086D01*
X12492967Y44747017D01*
X12492967Y44859791D01*
X12463779Y44968722D01*
X12407392Y45066387D01*
X12389456Y45084323D01*
X14521610Y45084323D01*
X14521610Y44971549D01*
X14550798Y44862618D01*
X14607185Y44764953D01*
X14686927Y44685211D01*
X14784592Y44628824D01*
X14893523Y44599636D01*
X14893525Y44599636D01*
X15006294Y44599636D01*
X15006297Y44599636D01*
X15115228Y44628824D01*
X15212893Y44685211D01*
X15292635Y44764953D01*
X15349022Y44862618D01*
X15378210Y44971549D01*
X15378210Y45084323D01*
X15349022Y45193254D01*
X15292635Y45290919D01*
X15259261Y45324293D01*
X16846909Y45324293D01*
X16846909Y45218103D01*
X16852676Y45196581D01*
X16874393Y45115529D01*
X16892412Y45084321D01*
X16927489Y45023566D01*
X17002577Y44948478D01*
X17094541Y44895382D01*
X17197114Y44867898D01*
X17197116Y44867898D01*
X17303302Y44867898D01*
X17303304Y44867898D01*
X17405877Y44895382D01*
X17497841Y44948478D01*
X17572929Y45023566D01*
X17614842Y45096161D01*
X19083295Y45096161D01*
X19083295Y44989972D01*
X19110779Y44887397D01*
X19126718Y44859791D01*
X19163875Y44795434D01*
X19238963Y44720346D01*
X19330927Y44667250D01*
X19433500Y44639766D01*
X19433502Y44639766D01*
X19539688Y44639766D01*
X19539690Y44639766D01*
X19642263Y44667250D01*
X19734227Y44720346D01*
X19809315Y44795434D01*
X19862411Y44887398D01*
X19889895Y44989971D01*
X19889895Y45096161D01*
X19862411Y45198734D01*
X19860227Y45202516D01*
X19847785Y45224066D01*
X19809315Y45290698D01*
X19790212Y45309801D01*
X19756727Y45371124D01*
X19761711Y45440816D01*
X19790212Y45485163D01*
X19807510Y45502461D01*
X19843495Y45538446D01*
X19896591Y45630410D01*
X19924075Y45732983D01*
X19924075Y45827946D01*
X20677251Y45827946D01*
X20677251Y45721757D01*
X20704735Y45619182D01*
X20714666Y45601982D01*
X20757831Y45527219D01*
X20832919Y45452131D01*
X20924883Y45399035D01*
X21027456Y45371551D01*
X21027458Y45371551D01*
X21133644Y45371551D01*
X21133646Y45371551D01*
X21236219Y45399035D01*
X21302781Y45437466D01*
X21370680Y45453939D01*
X21436708Y45431087D01*
X21479899Y45376167D01*
X21484554Y45362180D01*
X21489748Y45342798D01*
X21542844Y45250834D01*
X21617932Y45175746D01*
X21709896Y45122650D01*
X21812469Y45095166D01*
X21812471Y45095166D01*
X21918657Y45095166D01*
X21918659Y45095166D01*
X22021232Y45122650D01*
X22113196Y45175746D01*
X22188284Y45250834D01*
X22241380Y45342798D01*
X22268864Y45445371D01*
X22268864Y45551561D01*
X22248112Y45629010D01*
X22248112Y45629012D01*
X22241690Y45652976D01*
X23405923Y45652976D01*
X23405923Y45546786D01*
X23413276Y45519343D01*
X23433407Y45444212D01*
X23435368Y45440816D01*
X23486503Y45352249D01*
X23561591Y45277161D01*
X23653555Y45224065D01*
X23756128Y45196581D01*
X23756130Y45196581D01*
X23862316Y45196581D01*
X23862318Y45196581D01*
X23964891Y45224065D01*
X24056855Y45277161D01*
X24131943Y45352249D01*
X24185039Y45444213D01*
X24212523Y45546786D01*
X24212523Y45652976D01*
X24185039Y45755549D01*
X24183825Y45757651D01*
X24163780Y45792370D01*
X24131943Y45847513D01*
X24056855Y45922601D01*
X23994471Y45958619D01*
X23964892Y45975697D01*
X23913604Y45989439D01*
X23862318Y46003181D01*
X23756128Y46003181D01*
X23653553Y45975697D01*
X23561591Y45922601D01*
X23561588Y45922599D01*
X23486505Y45847516D01*
X23486503Y45847513D01*
X23433407Y45755551D01*
X23424352Y45721756D01*
X23405923Y45652976D01*
X22241690Y45652976D01*
X22241380Y45654133D01*
X22241380Y45654134D01*
X22231585Y45671099D01*
X22188284Y45746098D01*
X22113196Y45821186D01*
X22053739Y45855514D01*
X22021233Y45874282D01*
X21969945Y45888024D01*
X21918659Y45901766D01*
X21812469Y45901766D01*
X21709896Y45874282D01*
X21709895Y45874282D01*
X21709893Y45874281D01*
X21709892Y45874281D01*
X21643332Y45835852D01*
X21575432Y45819379D01*
X21509405Y45842232D01*
X21466214Y45897153D01*
X21461563Y45911127D01*
X21456367Y45930519D01*
X21403271Y46022483D01*
X21328183Y46097571D01*
X21282201Y46124119D01*
X21236220Y46150667D01*
X21184932Y46164409D01*
X21133646Y46178151D01*
X21027456Y46178151D01*
X20924881Y46150667D01*
X20832919Y46097571D01*
X20832916Y46097569D01*
X20757833Y46022486D01*
X20757831Y46022483D01*
X20704735Y45930521D01*
X20677251Y45827946D01*
X19924075Y45827946D01*
X19924075Y45839173D01*
X19896591Y45941746D01*
X19843495Y46033710D01*
X19768407Y46108798D01*
X19718377Y46137683D01*
X19676444Y46161894D01*
X19615770Y46178151D01*
X19573870Y46189378D01*
X19467680Y46189378D01*
X19365105Y46161894D01*
X19273143Y46108798D01*
X19273140Y46108796D01*
X19198057Y46033713D01*
X19198055Y46033710D01*
X19144959Y45941748D01*
X19117475Y45839173D01*
X19117475Y45732984D01*
X19144959Y45630409D01*
X19161372Y45601982D01*
X19198055Y45538446D01*
X19198057Y45538444D01*
X19217158Y45519343D01*
X19250643Y45458020D01*
X19245659Y45388328D01*
X19217158Y45343981D01*
X19163877Y45290701D01*
X19163875Y45290698D01*
X19110779Y45198736D01*
X19083295Y45096161D01*
X17614842Y45096161D01*
X17626025Y45115530D01*
X17628841Y45126044D01*
X17631613Y45136383D01*
X17638042Y45160382D01*
X17653509Y45218103D01*
X17653509Y45324293D01*
X17626025Y45426866D01*
X17625920Y45427047D01*
X17611438Y45452131D01*
X17572929Y45518830D01*
X17497841Y45593918D01*
X17436269Y45629467D01*
X17405878Y45647014D01*
X17354590Y45660756D01*
X17303304Y45674498D01*
X17197114Y45674498D01*
X17094539Y45647014D01*
X17002577Y45593918D01*
X17002574Y45593916D01*
X16927491Y45518833D01*
X16927489Y45518830D01*
X16874393Y45426868D01*
X16858027Y45365786D01*
X16846909Y45324293D01*
X15259261Y45324293D01*
X15212893Y45370661D01*
X15115228Y45427048D01*
X15006297Y45456236D01*
X14893523Y45456236D01*
X14784592Y45427048D01*
X14784590Y45427048D01*
X14784590Y45427047D01*
X14686927Y45370661D01*
X14686924Y45370659D01*
X14607187Y45290922D01*
X14607185Y45290919D01*
X14565145Y45218103D01*
X14550798Y45193254D01*
X14521610Y45084323D01*
X12389456Y45084323D01*
X12327650Y45146129D01*
X12229985Y45202516D01*
X12121054Y45231704D01*
X12008280Y45231704D01*
X11899349Y45202516D01*
X11899347Y45202516D01*
X11899347Y45202515D01*
X11801684Y45146129D01*
X11801681Y45146127D01*
X11721944Y45066390D01*
X11721942Y45066387D01*
X11669314Y44975232D01*
X11665555Y44968722D01*
X11636367Y44859791D01*
X3198873Y44859791D01*
X3198873Y44919849D01*
X3218558Y44986888D01*
X3271362Y45032643D01*
X3340520Y45042587D01*
X3384869Y45027238D01*
X3474949Y44975230D01*
X3583880Y44946042D01*
X3583882Y44946042D01*
X3696651Y44946042D01*
X3696654Y44946042D01*
X3805585Y44975230D01*
X3903250Y45031617D01*
X3982992Y45111359D01*
X4039379Y45209024D01*
X4068567Y45317955D01*
X4068567Y45430729D01*
X4039379Y45539660D01*
X4002693Y45603202D01*
X3986221Y45671099D01*
X3986907Y45678756D01*
X3986907Y45778802D01*
X8003133Y45778802D01*
X8003133Y45666028D01*
X8032321Y45557097D01*
X8088708Y45459432D01*
X8168450Y45379690D01*
X8266115Y45323303D01*
X8375046Y45294115D01*
X8375048Y45294115D01*
X8487817Y45294115D01*
X8487820Y45294115D01*
X8596751Y45323303D01*
X8694416Y45379690D01*
X8774158Y45459432D01*
X8830545Y45557097D01*
X8859733Y45666028D01*
X8859733Y45778802D01*
X8830545Y45887733D01*
X8774158Y45985398D01*
X8701179Y46058377D01*
X10219843Y46058377D01*
X10219843Y45952187D01*
X10227771Y45922599D01*
X10247327Y45849613D01*
X10259837Y45827946D01*
X10300423Y45757650D01*
X10375511Y45682562D01*
X10453863Y45637325D01*
X10465841Y45630409D01*
X10467475Y45629466D01*
X10570048Y45601982D01*
X10570050Y45601982D01*
X10676236Y45601982D01*
X10676238Y45601982D01*
X10778811Y45629466D01*
X10870775Y45682562D01*
X10945863Y45757650D01*
X10998959Y45849614D01*
X11026443Y45952187D01*
X11026443Y46058377D01*
X10998959Y46160950D01*
X10945863Y46252914D01*
X10870775Y46328002D01*
X10824793Y46354550D01*
X10778812Y46381098D01*
X10727524Y46394840D01*
X10676238Y46408582D01*
X10570048Y46408582D01*
X10467473Y46381098D01*
X10375511Y46328002D01*
X10375508Y46328000D01*
X10300425Y46252917D01*
X10300423Y46252914D01*
X10247327Y46160952D01*
X10226854Y46084543D01*
X10219843Y46058377D01*
X8701179Y46058377D01*
X8694416Y46065140D01*
X8596751Y46121527D01*
X8487820Y46150715D01*
X8375046Y46150715D01*
X8266115Y46121527D01*
X8266113Y46121527D01*
X8266113Y46121526D01*
X8168450Y46065140D01*
X8168447Y46065138D01*
X8088710Y45985401D01*
X8088708Y45985398D01*
X8040155Y45901301D01*
X8032321Y45887733D01*
X8003133Y45778802D01*
X3986907Y45778802D01*
X3986907Y45792368D01*
X3986907Y45792370D01*
X3959559Y45894435D01*
X3959559Y45958616D01*
X3986907Y46060680D01*
X3986907Y46173454D01*
X3957719Y46282385D01*
X3920733Y46346446D01*
X6578585Y46346446D01*
X6578585Y46240256D01*
X6583833Y46220670D01*
X6606069Y46137682D01*
X6629779Y46096616D01*
X6659165Y46045719D01*
X6734253Y45970631D01*
X6810646Y45926525D01*
X6817442Y45922601D01*
X6826217Y45917535D01*
X6928790Y45890051D01*
X6928792Y45890051D01*
X7034978Y45890051D01*
X7034980Y45890051D01*
X7137553Y45917535D01*
X7229517Y45970631D01*
X7304605Y46045719D01*
X7357701Y46137683D01*
X7385185Y46240256D01*
X7385185Y46346446D01*
X7357701Y46449019D01*
X7357593Y46449206D01*
X7336253Y46486169D01*
X7305148Y46540042D01*
X16801862Y46540042D01*
X16801862Y46427268D01*
X16831050Y46318337D01*
X16887437Y46220672D01*
X16967179Y46140930D01*
X17064844Y46084543D01*
X17173775Y46055355D01*
X17173777Y46055355D01*
X17286546Y46055355D01*
X17286549Y46055355D01*
X17395480Y46084543D01*
X17493145Y46140930D01*
X17572887Y46220672D01*
X17629274Y46318337D01*
X17658462Y46427268D01*
X17658462Y46540042D01*
X17629274Y46648973D01*
X17572887Y46746638D01*
X17493145Y46826380D01*
X17395480Y46882767D01*
X17286549Y46911955D01*
X17173775Y46911955D01*
X17064844Y46882767D01*
X17064842Y46882767D01*
X17064842Y46882766D01*
X16967179Y46826380D01*
X16967176Y46826378D01*
X16887439Y46746641D01*
X16887437Y46746638D01*
X16831050Y46648973D01*
X16801862Y46540042D01*
X7305148Y46540042D01*
X7304605Y46540983D01*
X7229517Y46616071D01*
X7172526Y46648975D01*
X7137554Y46669167D01*
X7086266Y46682909D01*
X7034980Y46696651D01*
X6928790Y46696651D01*
X6826215Y46669167D01*
X6734253Y46616071D01*
X6734250Y46616069D01*
X6659167Y46540986D01*
X6659165Y46540983D01*
X6606069Y46449021D01*
X6595234Y46408582D01*
X6578585Y46346446D01*
X3920733Y46346446D01*
X3901332Y46380050D01*
X3821590Y46459792D01*
X3723925Y46516179D01*
X3614994Y46545367D01*
X3502220Y46545367D01*
X3435551Y46527504D01*
X3393284Y46516178D01*
X3393283Y46516177D01*
X3384871Y46511320D01*
X3316971Y46494849D01*
X3250944Y46517702D01*
X3207755Y46572624D01*
X3198873Y46618708D01*
X3198873Y48019796D01*
X5177481Y48019796D01*
X5177481Y47907022D01*
X5206669Y47798091D01*
X5263056Y47700426D01*
X5342798Y47620684D01*
X5440463Y47564297D01*
X5549394Y47535109D01*
X5549396Y47535109D01*
X5662165Y47535109D01*
X5662168Y47535109D01*
X5771099Y47564297D01*
X5771100Y47564299D01*
X5778949Y47566401D01*
X5779444Y47564551D01*
X5838468Y47570897D01*
X5853945Y47566353D01*
X5853958Y47566401D01*
X5861806Y47564299D01*
X5861808Y47564297D01*
X5970739Y47535109D01*
X5970741Y47535109D01*
X6083510Y47535109D01*
X6083513Y47535109D01*
X6192444Y47564297D01*
X6290109Y47620684D01*
X6369851Y47700426D01*
X6426238Y47798091D01*
X6455426Y47907022D01*
X6455426Y47943060D01*
X21765576Y47943060D01*
X21765576Y47836870D01*
X21775967Y47798091D01*
X21793060Y47734296D01*
X21812617Y47700424D01*
X21846156Y47642333D01*
X21921244Y47567245D01*
X22013208Y47514149D01*
X22115781Y47486665D01*
X22115783Y47486665D01*
X22221969Y47486665D01*
X22221971Y47486665D01*
X22324544Y47514149D01*
X22416508Y47567245D01*
X22491596Y47642333D01*
X22544692Y47734297D01*
X22572176Y47836870D01*
X22572176Y47943060D01*
X22544692Y48045633D01*
X22491596Y48137597D01*
X22416508Y48212685D01*
X22370526Y48239233D01*
X22324545Y48265781D01*
X22263957Y48282015D01*
X22221971Y48293265D01*
X22115781Y48293265D01*
X22013206Y48265781D01*
X21921244Y48212685D01*
X21921241Y48212683D01*
X21846158Y48137600D01*
X21846156Y48137597D01*
X21793060Y48045635D01*
X21783679Y48010623D01*
X21765576Y47943060D01*
X6455426Y47943060D01*
X6455426Y48019796D01*
X6426238Y48128727D01*
X6369851Y48226392D01*
X6290109Y48306134D01*
X6192444Y48362521D01*
X6083513Y48391709D01*
X5970739Y48391709D01*
X5861808Y48362521D01*
X5861806Y48362520D01*
X5853958Y48360417D01*
X5853462Y48362267D01*
X5794430Y48355922D01*
X5778961Y48360465D01*
X5778949Y48360417D01*
X5771100Y48362520D01*
X5771099Y48362521D01*
X5662168Y48391709D01*
X5549394Y48391709D01*
X5440463Y48362521D01*
X5440461Y48362521D01*
X5440461Y48362520D01*
X5342798Y48306134D01*
X5342795Y48306132D01*
X5263058Y48226395D01*
X5263056Y48226392D01*
X5206669Y48128727D01*
X5177481Y48019796D01*
X3198873Y48019796D01*
X3198873Y48917864D01*
X3218558Y48984903D01*
X3235192Y49005545D01*
X4369827Y50140180D01*
X11608120Y50140180D01*
X11608120Y50027406D01*
X11637308Y49918475D01*
X11693695Y49820810D01*
X11773437Y49741068D01*
X11871102Y49684681D01*
X11980033Y49655493D01*
X11980035Y49655493D01*
X12092804Y49655493D01*
X12092807Y49655493D01*
X12201738Y49684681D01*
X12299403Y49741068D01*
X12379145Y49820810D01*
X12435532Y49918475D01*
X12437616Y49926254D01*
X21975562Y49926254D01*
X21975562Y49820065D01*
X22003046Y49717490D01*
X22021988Y49684683D01*
X22056142Y49625527D01*
X22131230Y49550439D01*
X22223194Y49497343D01*
X22325767Y49469859D01*
X22325769Y49469859D01*
X22431955Y49469859D01*
X22431957Y49469859D01*
X22534530Y49497343D01*
X22626494Y49550439D01*
X22701582Y49625527D01*
X22754678Y49717491D01*
X22782162Y49820064D01*
X22782162Y49926254D01*
X22754678Y50028827D01*
X22701582Y50120791D01*
X22626494Y50195879D01*
X22580512Y50222427D01*
X22534531Y50248975D01*
X22483243Y50262717D01*
X22431957Y50276459D01*
X22325767Y50276459D01*
X22223192Y50248975D01*
X22131230Y50195879D01*
X22131227Y50195877D01*
X22056144Y50120794D01*
X22056142Y50120791D01*
X22003046Y50028829D01*
X21975562Y49926254D01*
X12437616Y49926254D01*
X12464720Y50027406D01*
X12464720Y50140180D01*
X12435532Y50249111D01*
X12379145Y50346776D01*
X12299403Y50426518D01*
X12201738Y50482905D01*
X12092807Y50512093D01*
X11980033Y50512093D01*
X11871102Y50482905D01*
X11871100Y50482905D01*
X11871100Y50482904D01*
X11773437Y50426518D01*
X11773434Y50426516D01*
X11693697Y50346779D01*
X11693695Y50346776D01*
X11637308Y50249111D01*
X11608120Y50140180D01*
X4369827Y50140180D01*
X6084043Y51854396D01*
X6145366Y51887881D01*
X6171724Y51890715D01*
X14751377Y51890715D01*
X14751379Y51890715D01*
X14822566Y51909790D01*
X14886391Y51946639D01*
X18045490Y55105738D01*
X18106813Y55139223D01*
X18133171Y55142057D01*
X18976815Y55142057D01*
X19043854Y55122372D01*
X19064496Y55105738D01*
X19070997Y55099237D01*
X19162961Y55046141D01*
X19265534Y55018657D01*
X19265536Y55018657D01*
X19371722Y55018657D01*
X19371724Y55018657D01*
X19474297Y55046141D01*
X19566261Y55099237D01*
X19641349Y55174325D01*
X19641351Y55174330D01*
X19642416Y55175394D01*
X19703739Y55208879D01*
X19745943Y55210696D01*
X19936093Y55186198D01*
X19936093Y55186199D01*
X19936094Y55186198D01*
X19935964Y55210696D01*
X19935219Y55350873D01*
X22512191Y55350873D01*
X22512191Y55244684D01*
X22539675Y55142109D01*
X22564426Y55099240D01*
X22592771Y55050146D01*
X22667859Y54975058D01*
X22759823Y54921962D01*
X22862396Y54894478D01*
X22862398Y54894478D01*
X22968584Y54894478D01*
X22968586Y54894478D01*
X23071159Y54921962D01*
X23163123Y54975058D01*
X23238211Y55050146D01*
X23291307Y55142110D01*
X23318791Y55244683D01*
X23318791Y55350873D01*
X23291307Y55453446D01*
X23238211Y55545410D01*
X23163123Y55620498D01*
X23117141Y55647046D01*
X23071160Y55673594D01*
X23019872Y55687336D01*
X22968586Y55701078D01*
X22862396Y55701078D01*
X22759821Y55673594D01*
X22667859Y55620498D01*
X22667856Y55620496D01*
X22592773Y55545413D01*
X22592771Y55545410D01*
X22539675Y55453448D01*
X22512191Y55350873D01*
X19935219Y55350873D01*
X19935179Y55358340D01*
X19921828Y57868192D01*
X19919829Y58244004D01*
X23118815Y58244004D01*
X23118815Y58137815D01*
X23146299Y58035240D01*
X23172847Y57989259D01*
X23199395Y57943277D01*
X23274483Y57868189D01*
X23366447Y57815093D01*
X23469020Y57787609D01*
X23469022Y57787609D01*
X23575208Y57787609D01*
X23575210Y57787609D01*
X23677783Y57815093D01*
X23769747Y57868189D01*
X23844835Y57943277D01*
X23897931Y58035241D01*
X23925415Y58137814D01*
X23925415Y58244004D01*
X23897931Y58346577D01*
X23844835Y58438541D01*
X23769747Y58513629D01*
X23721112Y58541709D01*
X23677784Y58566725D01*
X23626496Y58580467D01*
X23575210Y58594209D01*
X23469020Y58594209D01*
X23366445Y58566725D01*
X23274483Y58513629D01*
X23274480Y58513627D01*
X23199397Y58438544D01*
X23199395Y58438541D01*
X23146299Y58346579D01*
X23118815Y58244004D01*
X19919829Y58244004D01*
X19919569Y58292812D01*
X19938896Y58359954D01*
X19955881Y58381147D01*
X20511787Y58937051D01*
X20548636Y59000876D01*
X20567711Y59072063D01*
X20567711Y59145763D01*
X20567711Y61778638D01*
X22124215Y61778638D01*
X22124215Y61672449D01*
X22151699Y61569874D01*
X22178247Y61523893D01*
X22204795Y61477911D01*
X22279883Y61402823D01*
X22371847Y61349727D01*
X22474420Y61322243D01*
X22474422Y61322243D01*
X22580608Y61322243D01*
X22580610Y61322243D01*
X22683183Y61349727D01*
X22775147Y61402823D01*
X22850235Y61477911D01*
X22903331Y61569875D01*
X22930815Y61672448D01*
X22930815Y61778638D01*
X22903331Y61881211D01*
X22850235Y61973175D01*
X22775147Y62048263D01*
X22729165Y62074811D01*
X22683184Y62101359D01*
X22631896Y62115101D01*
X22580610Y62128843D01*
X22474420Y62128843D01*
X22371845Y62101359D01*
X22279883Y62048263D01*
X22279880Y62048261D01*
X22204797Y61973178D01*
X22204795Y61973175D01*
X22151699Y61881213D01*
X22124215Y61778638D01*
X20567711Y61778638D01*
X20567711Y63284180D01*
X20548636Y63355367D01*
X20548636Y63355368D01*
X20511787Y63419192D01*
X19666513Y64264466D01*
X19633028Y64325789D01*
X19630194Y64352147D01*
X19630194Y64361340D01*
X19630194Y64361342D01*
X19602710Y64463915D01*
X19549614Y64555879D01*
X19474526Y64630967D01*
X19428544Y64657515D01*
X19382563Y64684063D01*
X19331275Y64697805D01*
X19279989Y64711547D01*
X19173799Y64711547D01*
X19071224Y64684063D01*
X18979262Y64630967D01*
X18979259Y64630965D01*
X18904176Y64555882D01*
X18904174Y64555879D01*
X18851078Y64463917D01*
X18823594Y64361342D01*
X18823594Y64255153D01*
X18851078Y64152578D01*
X18877626Y64106597D01*
X18904174Y64060615D01*
X18979262Y63985527D01*
X19071226Y63932431D01*
X19173799Y63904947D01*
X19182994Y63904947D01*
X19250033Y63885262D01*
X19270675Y63868628D01*
X19971592Y63167711D01*
X20005077Y63106388D01*
X20007911Y63080030D01*
X20007911Y59529086D01*
X20007099Y59526325D01*
X20007786Y59523530D01*
X19997316Y59493006D01*
X19988226Y59462047D01*
X19986052Y59460164D01*
X19985118Y59457440D01*
X19959803Y59437419D01*
X19935422Y59416292D01*
X19931887Y59415340D01*
X19930316Y59414097D01*
X19896041Y59405681D01*
X19685094Y59384947D01*
X19616450Y59397979D01*
X19565749Y59446054D01*
X19565578Y59446349D01*
X19555278Y59464189D01*
X19480190Y59539277D01*
X19427451Y59569726D01*
X19388227Y59592373D01*
X19336939Y59606115D01*
X19285653Y59619857D01*
X19179463Y59619857D01*
X19076888Y59592373D01*
X19010450Y59554014D01*
X18984926Y59539277D01*
X18984924Y59539276D01*
X18977888Y59535213D01*
X18977240Y59536335D01*
X18919831Y59514139D01*
X18909513Y59513709D01*
X18496175Y59513709D01*
X18184324Y59513709D01*
X18110624Y59513709D01*
X18039436Y59494634D01*
X18039434Y59494634D01*
X18039434Y59494633D01*
X17975612Y59457785D01*
X17975609Y59457783D01*
X13467433Y54949606D01*
X13406110Y54916121D01*
X13379752Y54913287D01*
X2027083Y54913287D01*
X1953383Y54913287D01*
X1905925Y54900571D01*
X1882195Y54894212D01*
X1818372Y54857364D01*
X1818369Y54857362D01*
X1120323Y54159315D01*
X1059000Y54125830D01*
X989308Y54130814D01*
X933375Y54172686D01*
X908958Y54238150D01*
X908642Y54246996D01*
X908642Y56196461D01*
X909811Y56200443D01*
X9068648Y56200443D01*
X9101245Y56078791D01*
X9101246Y56078790D01*
X9164211Y55969730D01*
X9164213Y55969727D01*
X9164214Y55969726D01*
X9253266Y55880674D01*
X9362332Y55817705D01*
X9483980Y55785109D01*
X9483983Y55785109D01*
X9609915Y55785109D01*
X9609918Y55785109D01*
X9731566Y55817705D01*
X9840632Y55880674D01*
X9929684Y55969726D01*
X9992653Y56078792D01*
X10025249Y56200440D01*
X10025249Y56200443D01*
X10868648Y56200443D01*
X10901245Y56078791D01*
X10901246Y56078790D01*
X10964211Y55969730D01*
X10964213Y55969727D01*
X10964214Y55969726D01*
X11053266Y55880674D01*
X11162332Y55817705D01*
X11283980Y55785109D01*
X11283983Y55785109D01*
X11409915Y55785109D01*
X11409918Y55785109D01*
X11531566Y55817705D01*
X11640632Y55880674D01*
X11729684Y55969726D01*
X11792653Y56078792D01*
X11825249Y56200440D01*
X11825249Y56200443D01*
X12668648Y56200443D01*
X12701245Y56078791D01*
X12701246Y56078790D01*
X12764211Y55969730D01*
X12764213Y55969727D01*
X12764214Y55969726D01*
X12853266Y55880674D01*
X12962332Y55817705D01*
X13083980Y55785109D01*
X13083983Y55785109D01*
X13209915Y55785109D01*
X13209918Y55785109D01*
X13331566Y55817705D01*
X13440632Y55880674D01*
X13529684Y55969726D01*
X13592653Y56078792D01*
X13625249Y56200440D01*
X13625249Y56326378D01*
X13592653Y56448026D01*
X13529684Y56557092D01*
X13440632Y56646144D01*
X13440631Y56646145D01*
X13440628Y56646147D01*
X13331568Y56709112D01*
X13331567Y56709113D01*
X13301154Y56717262D01*
X13209918Y56741709D01*
X13083980Y56741709D01*
X13010991Y56722152D01*
X12962330Y56709113D01*
X12962329Y56709112D01*
X12853269Y56646147D01*
X12853264Y56646143D01*
X12764215Y56557094D01*
X12764211Y56557089D01*
X12701246Y56448029D01*
X12701245Y56448028D01*
X12688540Y56400611D01*
X12668649Y56326378D01*
X12668649Y56326376D01*
X12668649Y56200443D01*
X12668648Y56200443D01*
X11825249Y56200443D01*
X11825249Y56326378D01*
X11792653Y56448026D01*
X11729684Y56557092D01*
X11640632Y56646144D01*
X11640631Y56646145D01*
X11640628Y56646147D01*
X11531568Y56709112D01*
X11531567Y56709113D01*
X11501154Y56717262D01*
X11409918Y56741709D01*
X11283980Y56741709D01*
X11210991Y56722152D01*
X11162330Y56709113D01*
X11162329Y56709112D01*
X11053269Y56646147D01*
X11053264Y56646143D01*
X10964215Y56557094D01*
X10964211Y56557089D01*
X10901246Y56448029D01*
X10901245Y56448028D01*
X10888540Y56400611D01*
X10868649Y56326378D01*
X10868649Y56326376D01*
X10868649Y56200443D01*
X10868648Y56200443D01*
X10025249Y56200443D01*
X10025249Y56326378D01*
X9992653Y56448026D01*
X9929684Y56557092D01*
X9840632Y56646144D01*
X9840631Y56646145D01*
X9840628Y56646147D01*
X9731568Y56709112D01*
X9731567Y56709113D01*
X9701154Y56717262D01*
X9609918Y56741709D01*
X9483980Y56741709D01*
X9410991Y56722152D01*
X9362330Y56709113D01*
X9362329Y56709112D01*
X9253269Y56646147D01*
X9253264Y56646143D01*
X9164215Y56557094D01*
X9164211Y56557089D01*
X9101246Y56448029D01*
X9101245Y56448028D01*
X9088540Y56400611D01*
X9068649Y56326378D01*
X9068649Y56326376D01*
X9068649Y56200443D01*
X9068648Y56200443D01*
X909811Y56200443D01*
X917286Y56225902D01*
X923810Y56255888D01*
X927564Y56260904D01*
X928327Y56263500D01*
X944961Y56284142D01*
X2661262Y58000443D01*
X9068648Y58000443D01*
X9101245Y57878791D01*
X9101246Y57878790D01*
X9164211Y57769730D01*
X9164213Y57769727D01*
X9164214Y57769726D01*
X9253266Y57680674D01*
X9253267Y57680673D01*
X9253269Y57680672D01*
X9307799Y57649190D01*
X9362332Y57617705D01*
X9483980Y57585109D01*
X9483983Y57585109D01*
X9609915Y57585109D01*
X9609918Y57585109D01*
X9731566Y57617705D01*
X9840632Y57680674D01*
X9929684Y57769726D01*
X9992653Y57878792D01*
X10025249Y58000440D01*
X10025249Y58126378D01*
X10020261Y58144994D01*
X10518649Y58144994D01*
X10518649Y57981825D01*
X10550478Y57821811D01*
X10550480Y57821803D01*
X10612918Y57671064D01*
X10703567Y57535396D01*
X10818935Y57420028D01*
X10818938Y57420026D01*
X10954602Y57329379D01*
X11105343Y57266940D01*
X11265364Y57235110D01*
X11265368Y57235109D01*
X11265369Y57235109D01*
X11428530Y57235109D01*
X11428531Y57235110D01*
X11588555Y57266940D01*
X11739296Y57329379D01*
X11874960Y57420026D01*
X11990332Y57535398D01*
X12080979Y57671062D01*
X12143418Y57821803D01*
X12175249Y57981829D01*
X12175249Y58000443D01*
X12668648Y58000443D01*
X12701245Y57878791D01*
X12701246Y57878790D01*
X12764211Y57769730D01*
X12764213Y57769727D01*
X12764214Y57769726D01*
X12853266Y57680674D01*
X12853267Y57680673D01*
X12853269Y57680672D01*
X12907799Y57649190D01*
X12962332Y57617705D01*
X13083980Y57585109D01*
X13083983Y57585109D01*
X13209915Y57585109D01*
X13209918Y57585109D01*
X13331566Y57617705D01*
X13440632Y57680674D01*
X13529684Y57769726D01*
X13592653Y57878792D01*
X13625249Y58000440D01*
X13625249Y58126378D01*
X13592653Y58248026D01*
X13529684Y58357092D01*
X13440632Y58446144D01*
X13440631Y58446145D01*
X13440628Y58446147D01*
X13331568Y58509112D01*
X13331567Y58509113D01*
X13301154Y58517262D01*
X13209918Y58541709D01*
X13083980Y58541709D01*
X13010991Y58522152D01*
X12962330Y58509113D01*
X12962329Y58509112D01*
X12853269Y58446147D01*
X12853264Y58446143D01*
X12764215Y58357094D01*
X12764211Y58357089D01*
X12701246Y58248029D01*
X12701245Y58248028D01*
X12684947Y58187202D01*
X12668649Y58126378D01*
X12668649Y58126376D01*
X12668649Y58000443D01*
X12668648Y58000443D01*
X12175249Y58000443D01*
X12175249Y58144989D01*
X12143418Y58305015D01*
X12080979Y58455756D01*
X11990332Y58591420D01*
X11990330Y58591423D01*
X11874962Y58706791D01*
X11741472Y58795985D01*
X11739296Y58797439D01*
X11674037Y58824470D01*
X11588555Y58859878D01*
X11588547Y58859880D01*
X11428533Y58891709D01*
X11428529Y58891709D01*
X11265369Y58891709D01*
X11265364Y58891709D01*
X11105350Y58859880D01*
X11105342Y58859878D01*
X10954603Y58797440D01*
X10818935Y58706791D01*
X10703567Y58591423D01*
X10612918Y58455755D01*
X10550480Y58305016D01*
X10550478Y58305008D01*
X10518649Y58144994D01*
X10020261Y58144994D01*
X9992653Y58248026D01*
X9929684Y58357092D01*
X9840632Y58446144D01*
X9840631Y58446145D01*
X9840628Y58446147D01*
X9731568Y58509112D01*
X9731567Y58509113D01*
X9701154Y58517262D01*
X9609918Y58541709D01*
X9483980Y58541709D01*
X9410991Y58522152D01*
X9362330Y58509113D01*
X9362329Y58509112D01*
X9253269Y58446147D01*
X9253264Y58446143D01*
X9164215Y58357094D01*
X9164211Y58357089D01*
X9101246Y58248029D01*
X9101245Y58248028D01*
X9084947Y58187202D01*
X9068649Y58126378D01*
X9068649Y58126376D01*
X9068649Y58000443D01*
X9068648Y58000443D01*
X2661262Y58000443D01*
X4461262Y59800443D01*
X9068648Y59800443D01*
X9101245Y59678791D01*
X9101246Y59678790D01*
X9164211Y59569730D01*
X9164213Y59569727D01*
X9164214Y59569726D01*
X9253266Y59480674D01*
X9253267Y59480673D01*
X9253269Y59480672D01*
X9293509Y59457440D01*
X9362332Y59417705D01*
X9483980Y59385109D01*
X9483983Y59385109D01*
X9609915Y59385109D01*
X9609918Y59385109D01*
X9731566Y59417705D01*
X9840632Y59480674D01*
X9929684Y59569726D01*
X9992653Y59678792D01*
X10025249Y59800440D01*
X10025249Y59800443D01*
X10868648Y59800443D01*
X10901245Y59678791D01*
X10901246Y59678790D01*
X10964211Y59569730D01*
X10964213Y59569727D01*
X10964214Y59569726D01*
X11053266Y59480674D01*
X11053267Y59480673D01*
X11053269Y59480672D01*
X11093509Y59457440D01*
X11162332Y59417705D01*
X11283980Y59385109D01*
X11283983Y59385109D01*
X11409915Y59385109D01*
X11409918Y59385109D01*
X11531566Y59417705D01*
X11640632Y59480674D01*
X11729684Y59569726D01*
X11792653Y59678792D01*
X11825249Y59800440D01*
X11825249Y59800443D01*
X12668648Y59800443D01*
X12701245Y59678791D01*
X12701246Y59678790D01*
X12764211Y59569730D01*
X12764213Y59569727D01*
X12764214Y59569726D01*
X12853266Y59480674D01*
X12853267Y59480673D01*
X12853269Y59480672D01*
X12893509Y59457440D01*
X12962332Y59417705D01*
X13083980Y59385109D01*
X13083983Y59385109D01*
X13209915Y59385109D01*
X13209918Y59385109D01*
X13331566Y59417705D01*
X13440632Y59480674D01*
X13529684Y59569726D01*
X13592653Y59678792D01*
X13625249Y59800440D01*
X13625249Y59926378D01*
X13592653Y60048026D01*
X13529684Y60157092D01*
X13440632Y60246144D01*
X13440631Y60246145D01*
X13440628Y60246147D01*
X13331568Y60309112D01*
X13331567Y60309113D01*
X13301154Y60317262D01*
X13209918Y60341709D01*
X13083980Y60341709D01*
X13010991Y60322152D01*
X12962330Y60309113D01*
X12962329Y60309112D01*
X12853269Y60246147D01*
X12853264Y60246143D01*
X12764215Y60157094D01*
X12764211Y60157089D01*
X12701246Y60048029D01*
X12701245Y60048028D01*
X12690114Y60006484D01*
X12668649Y59926378D01*
X12668649Y59926376D01*
X12668649Y59800443D01*
X12668648Y59800443D01*
X11825249Y59800443D01*
X11825249Y59926378D01*
X11792653Y60048026D01*
X11729684Y60157092D01*
X11640632Y60246144D01*
X11640631Y60246145D01*
X11640628Y60246147D01*
X11531568Y60309112D01*
X11531567Y60309113D01*
X11501154Y60317262D01*
X11409918Y60341709D01*
X11283980Y60341709D01*
X11210991Y60322152D01*
X11162330Y60309113D01*
X11162329Y60309112D01*
X11053269Y60246147D01*
X11053264Y60246143D01*
X10964215Y60157094D01*
X10964211Y60157089D01*
X10901246Y60048029D01*
X10901245Y60048028D01*
X10890114Y60006484D01*
X10868649Y59926378D01*
X10868649Y59926376D01*
X10868649Y59800443D01*
X10868648Y59800443D01*
X10025249Y59800443D01*
X10025249Y59926378D01*
X9992653Y60048026D01*
X9929684Y60157092D01*
X9840632Y60246144D01*
X9840631Y60246145D01*
X9840628Y60246147D01*
X9731568Y60309112D01*
X9731567Y60309113D01*
X9701154Y60317262D01*
X9609918Y60341709D01*
X9483980Y60341709D01*
X9410991Y60322152D01*
X9362330Y60309113D01*
X9362329Y60309112D01*
X9253269Y60246147D01*
X9253264Y60246143D01*
X9164215Y60157094D01*
X9164211Y60157089D01*
X9101246Y60048029D01*
X9101245Y60048028D01*
X9090114Y60006484D01*
X9068649Y59926378D01*
X9068649Y59926376D01*
X9068649Y59800443D01*
X9068648Y59800443D01*
X4461262Y59800443D01*
X5496038Y60835219D01*
X5557361Y60868704D01*
X5583719Y60871538D01*
X17454128Y60871538D01*
X17454130Y60871538D01*
X17525317Y60890613D01*
X17589142Y60927462D01*
X19160661Y62498980D01*
X19221984Y62532465D01*
X19248342Y62535299D01*
X19257534Y62535299D01*
X19257536Y62535299D01*
X19360109Y62562783D01*
X19452073Y62615879D01*
X19527161Y62690967D01*
X19580257Y62782931D01*
X19607741Y62885504D01*
X19607741Y62991694D01*
X19580257Y63094267D01*
X19527161Y63186231D01*
X19452073Y63261319D01*
X19406091Y63287867D01*
X19360110Y63314415D01*
X19308822Y63328157D01*
X19257536Y63341899D01*
X19151346Y63341899D01*
X19048771Y63314415D01*
X18956809Y63261319D01*
X18956806Y63261317D01*
X18881723Y63186234D01*
X18881721Y63186231D01*
X18828625Y63094269D01*
X18801141Y62991694D01*
X18801141Y62982500D01*
X18781456Y62915461D01*
X18764822Y62894819D01*
X17337661Y61467657D01*
X17276338Y61434172D01*
X17249980Y61431338D01*
X5453269Y61431338D01*
X5379569Y61431338D01*
X5332111Y61418622D01*
X5308381Y61412263D01*
X5244558Y61375415D01*
X5244555Y61375413D01*
X2877992Y59008850D01*
X2816669Y58975365D01*
X2746977Y58980349D01*
X2691044Y59022221D01*
X2666627Y59087685D01*
X2670535Y59128619D01*
X2682876Y59174675D01*
X2682876Y59280865D01*
X2655392Y59383438D01*
X2602296Y59475402D01*
X2527208Y59550490D01*
X2481226Y59577038D01*
X2435245Y59603586D01*
X2374519Y59619857D01*
X2332671Y59631070D01*
X2226481Y59631070D01*
X2123906Y59603586D01*
X2031944Y59550490D01*
X2031941Y59550488D01*
X1956858Y59475405D01*
X1956856Y59475402D01*
X1903760Y59383440D01*
X1876276Y59280865D01*
X1876276Y59174676D01*
X1903760Y59072101D01*
X1930308Y59026120D01*
X1956856Y58980138D01*
X2031944Y58905050D01*
X2123908Y58851954D01*
X2226481Y58824470D01*
X2226483Y58824470D01*
X2332668Y58824470D01*
X2332671Y58824470D01*
X2378724Y58836810D01*
X2448571Y58835147D01*
X2506433Y58795985D01*
X2533938Y58731757D01*
X2522352Y58662854D01*
X2498496Y58629354D01*
X456880Y56587737D01*
X443130Y56573987D01*
X381807Y56540502D01*
X312115Y56545486D01*
X256182Y56587358D01*
X231765Y56652822D01*
X231449Y56661668D01*
X231449Y63089186D01*
X1733452Y63089186D01*
X1733452Y62982997D01*
X1760936Y62880422D01*
X1787484Y62834441D01*
X1814032Y62788459D01*
X1889120Y62713371D01*
X1981084Y62660275D01*
X2083657Y62632791D01*
X2083659Y62632791D01*
X2189845Y62632791D01*
X2189847Y62632791D01*
X2292420Y62660275D01*
X2384384Y62713371D01*
X2459472Y62788459D01*
X2512568Y62880423D01*
X2540052Y62982996D01*
X2540052Y63089186D01*
X2512568Y63191759D01*
X2459472Y63283723D01*
X2384384Y63358811D01*
X2338402Y63385359D01*
X2292421Y63411907D01*
X2241133Y63425649D01*
X2189847Y63439391D01*
X2083657Y63439391D01*
X1981082Y63411907D01*
X1889120Y63358811D01*
X1889117Y63358809D01*
X1814034Y63283726D01*
X1814032Y63283723D01*
X1760936Y63191761D01*
X1733452Y63089186D01*
X231449Y63089186D01*
X231449Y66292169D01*
X251134Y66359208D01*
X303938Y66404963D01*
X355361Y66416168D01*
X24998193Y66432498D01*
X25065243Y66412858D01*
G37*
%TD.AperFunction*%
%TD*%
M02*
