M48
; DRILL file {KiCad 9.0.0} date 2025-04-12T10:41:55+0800
; FORMAT={-:-/ absolute / metric / decimal}
; #@! TF.CreationDate,2025-04-12T10:41:55+08:00
; #@! TF.GenerationSoftware,Kicad,Pcbnew,9.0.0
; #@! TF.FileFunction,Plated,1,4,PTH
FMAT,2
METRIC
; #@! TA.AperFunction,Plated,PTH,ComponentDrill
T1C0.300
; #@! TA.AperFunction,Plated,PTH,ViaDrill
T2C0.300
; #@! TA.AperFunction,Plated,PTH,ComponentDrill
T3C0.300
; #@! TA.AperFunction,Plated,PTH,ViaDrill
T4C0.305
; #@! TA.AperFunction,Plated,PTH,ViaDrill
T5C0.406
; #@! TA.AperFunction,Plated,PTH,ComponentDrill
T6C0.600
; #@! TA.AperFunction,Plated,PTH,ComponentDrill
T7C0.900
; #@! TA.AperFunction,Plated,PTH,ComponentDrill
T8C1.000
; #@! TA.AperFunction,Plated,PTH,ComponentDrill
T9C1.100
; #@! TA.AperFunction,Plated,PTH,ComponentDrill
T10C1.200
; #@! TA.AperFunction,Plated,PTH,ComponentDrill
T11C1.300
; #@! TA.AperFunction,Plated,PTH,ComponentDrill
T12C1.800
%
G90
G05
T1
X8.917Y35.423
T2
X1.895Y64.3
X2.137Y63.036
X2.149Y51.629
X2.198Y64.303
X2.28Y59.228
X2.521Y52.864
X2.526Y54.129
X2.564Y64.303
X2.674Y31.804
X2.674Y31.358
X2.674Y30.965
X3.513Y22.166
X3.559Y46.117
X3.559Y45.736
X3.567Y31.465
X3.621Y30.582
X3.64Y45.374
X5.004Y42.427
X5.033Y43.157
X5.033Y33.802
X5.241Y26.374
X5.271Y42.16
X5.301Y43.425
X5.447Y35.289
X5.606Y47.963
X5.715Y33.884
X5.735Y32.872
X5.748Y29.919
X5.839Y34.831
X6.027Y47.963
X6.097Y33.385
X6.222Y18.136
X6.357Y38.318
X6.441Y31.29
X6.485Y27.61
X6.605Y25.349
X6.689Y23.95
X6.852Y51.084
X6.982Y46.293
X7.287Y16.497
X7.51Y37.775
X7.73Y19.667
X7.789Y14.428
X8.167Y38.098
X8.186Y42.858
X8.28Y22.107
X8.431Y45.722
X8.475Y28.595
X8.687Y25.17
X8.779Y30.149
X9.115Y38.622
X9.464Y21.378
X9.916Y27.166
X9.941Y26.376
X10.002Y23.543
X10.292Y37.629
X10.42Y50.016
X10.623Y46.005
X11.13Y37.748
X11.342Y25.277
X11.569Y22.43
X11.86Y28.526
X12.036Y50.084
X12.065Y44.803
X12.564Y41.402
X12.7Y33.368
X13.148Y21.545
X13.172Y25.385
X13.578Y31.726
X13.815Y30.694
X13.868Y32.864
X14.016Y35.888
X14.345Y24.165
X14.497Y41.819
X14.544Y26.366
X14.95Y45.028
X15.134Y42.91
X15.41Y41.864
X15.752Y46.563
X15.948Y25.768
X16.079Y21.593
X16.929Y17.191
X17.23Y46.484
X17.25Y45.271
X17.598Y23.902
X17.694Y19.153
X18.092Y28.278
X18.34Y26.163
X18.532Y16.76
X18.9Y35.064
X19.056Y41.757
X19.204Y62.939
X19.227Y64.308
X19.233Y59.217
X19.261Y27.191
X19.265Y38.534
X19.296Y56.702
X19.319Y55.422
X19.486Y43.422
X19.487Y45.043
X19.521Y45.786
X19.731Y29.161
X19.967Y17.693
X20.039Y22.813
X20.254Y20.493
X20.308Y32.716
X20.601Y25.876
X21.081Y45.775
X21.087Y44.459
X21.127Y16.832
X21.465Y30.57
X21.554Y42.466
X21.857Y23.292
X21.866Y45.498
X22.169Y47.89
X22.318Y35.091
X22.379Y49.873
X22.528Y61.726
X22.7Y35.738
X22.915Y55.298
X23.476Y51.862
X23.522Y58.191
X23.809Y45.6
X23.973Y38.6
X23.99Y30.759
X24.782Y60.49
X28.185Y24.819
X28.191Y33.35
X28.218Y20.525
X28.236Y17.043
X28.288Y10.201
X28.366Y30.341
X28.393Y13.316
X28.453Y43.185
X28.533Y4.251
X28.768Y46.124
X29.618Y0.769
X30.088Y24.28
X31.831Y47.069
X32.416Y26.433
X32.462Y16.089
X32.478Y16.733
X32.781Y16.382
X32.857Y21.524
X33.068Y16.733
X33.071Y16.089
X33.091Y18.74
X33.135Y10.463
X33.555Y0.804
X33.971Y31.436
X34.105Y29.507
X34.598Y29.507
X34.632Y31.467
X34.85Y12.056
X35.037Y40.139
X35.168Y29.552
X35.212Y31.467
X35.418Y46.999
X36.051Y23.201
X37.082Y27.022
X37.082Y26.669
X37.082Y26.269
X37.318Y0.979
X37.83Y45.745
X37.999Y26.517
X38.671Y33.261
X38.782Y28.798
X39.703Y46.291
X40.03Y31.89
X40.034Y36.632
X40.2Y45.76
X40.458Y47.349
X40.561Y26.527
X41.477Y45.73
X41.541Y31.917
X42.725Y29.947
X43.185Y0.979
X43.288Y26.107
X43.307Y27.564
X43.417Y33.278
X43.642Y30.638
X44.255Y32.51
X44.552Y38.373
X44.867Y47.087
X45.837Y34.864
X47.125Y27.278
X47.945Y34.328
X48.035Y32.23
X48.07Y30.078
X48.155Y1.061
X48.35Y28.608
X48.66Y27.514
X48.979Y26.771
X50.29Y22.596
X51.597Y0.734
X51.865Y3.58
X51.9Y7.792
X52.016Y10.977
X52.112Y26.211
X52.164Y33.525
X52.168Y19.633
X52.273Y17.089
X52.306Y29.942
X52.331Y14.453
X52.357Y28.573
T3
X8.117Y34.623
X8.117Y33.623
X8.917Y32.823
X9.917Y35.423
X9.917Y32.823
X10.717Y34.623
X10.717Y33.623
T4
X37.366Y18.266
X38.032Y18.237
X42.401Y22.034
X42.87Y22.04
X43.406Y22.017
X46.45Y21.793
X46.45Y21.325
X46.98Y21.805
X46.98Y21.325
X48.667Y22.165
X48.712Y25.497
X49.822Y25.409
T5
X25.281Y2.406
X25.281Y1.741
X25.281Y1.059
X25.281Y0.43
X25.377Y23.059
X25.377Y22.377
X25.377Y21.747
X25.393Y47.517
X25.393Y46.852
X25.393Y46.17
X25.393Y45.541
X27.493Y47.511
X27.493Y46.847
X27.493Y46.165
X27.493Y45.535
X27.514Y23.059
X27.514Y22.377
X27.514Y21.747
X27.538Y2.318
X27.538Y1.654
X27.538Y0.972
X27.538Y0.342
T6
X9.547Y59.863
X9.547Y58.063
X9.547Y56.263
X11.347Y59.863
X11.347Y56.263
X13.147Y59.863
X13.147Y58.063
X13.147Y56.263
T7
X8.017Y17.628
X9.287Y20.168
X10.557Y17.628
X11.827Y20.168
X13.097Y17.628
X14.367Y20.168
X15.637Y17.628
X16.907Y20.168
X46.31Y14.336
X46.313Y12.324
T9
X5.862Y6.18
X8.402Y6.18
X16.542Y6.18
X19.082Y6.18
T10
X9.417Y34.123
T11
X11.347Y58.063
X41.597Y4.429
X46.597Y4.429
T12
X4.672Y13.978
X20.272Y13.978
T6
G00X30.032Y41.615
M15
G01X29.432Y41.615
M16
G05
G00X30.032Y34.415
M15
G01X29.432Y34.415
M16
G05
G00X33.502Y41.615
M15
G01X32.902Y41.615
M16
G05
G00X33.502Y34.415
M15
G01X32.902Y34.415
M16
G05
T8
G00X30.693Y13.531
M15
G01X33.693Y13.531
M16
G05
G00X30.693Y7.031
M15
G01X33.693Y7.031
M16
G05
G00X36.643Y8.731
M15
G01X36.643Y11.731
M16
G05
M30
