%TF.GenerationSoftware,KiCad,Pcbnew,9.0.0*%
%TF.CreationDate,2025-04-12T10:41:42+08:00*%
%TF.ProjectId,ESP32-EVB_Rev_K1,45535033-322d-4455-9642-5f5265765f4b,K1*%
%TF.SameCoordinates,PXc1d4028PY6c847bc*%
%TF.FileFunction,Legend,Bot*%
%TF.FilePolarity,Positive*%
%FSLAX46Y46*%
G04 Gerber Fmt 4.6, Leading zero omitted, Abs format (unit mm)*
G04 Created by KiCad (PCBNEW 9.0.0) date 2025-04-12 10:41:42*
%MOMM*%
%LPD*%
G01*
G04 APERTURE LIST*
%ADD10C,0.150000*%
%ADD11C,0.190500*%
%ADD12C,0.158750*%
%ADD13C,0.254000*%
%ADD14C,0.222250*%
%ADD15C,0.250000*%
%ADD16C,0.127000*%
G04 APERTURE END LIST*
D10*
X42037199Y17662338D02*
X41537199Y18636544D01*
X41537199Y18576544D02*
X42027199Y18496544D01*
X41237199Y18156544D02*
X41537199Y18576544D01*
X41537199Y18636544D02*
X41237199Y18156544D01*
D11*
X34400341Y43755935D02*
X34400341Y43139078D01*
X34400341Y43139078D02*
X34364055Y43066506D01*
X34364055Y43066506D02*
X34327770Y43030220D01*
X34327770Y43030220D02*
X34255198Y42993935D01*
X34255198Y42993935D02*
X34110055Y42993935D01*
X34110055Y42993935D02*
X34037484Y43030220D01*
X34037484Y43030220D02*
X34001198Y43066506D01*
X34001198Y43066506D02*
X33964912Y43139078D01*
X33964912Y43139078D02*
X33964912Y43755935D01*
X33638341Y43030220D02*
X33529484Y42993935D01*
X33529484Y42993935D02*
X33348055Y42993935D01*
X33348055Y42993935D02*
X33275484Y43030220D01*
X33275484Y43030220D02*
X33239198Y43066506D01*
X33239198Y43066506D02*
X33202912Y43139078D01*
X33202912Y43139078D02*
X33202912Y43211649D01*
X33202912Y43211649D02*
X33239198Y43284220D01*
X33239198Y43284220D02*
X33275484Y43320506D01*
X33275484Y43320506D02*
X33348055Y43356792D01*
X33348055Y43356792D02*
X33493198Y43393078D01*
X33493198Y43393078D02*
X33565769Y43429363D01*
X33565769Y43429363D02*
X33602055Y43465649D01*
X33602055Y43465649D02*
X33638341Y43538220D01*
X33638341Y43538220D02*
X33638341Y43610792D01*
X33638341Y43610792D02*
X33602055Y43683363D01*
X33602055Y43683363D02*
X33565769Y43719649D01*
X33565769Y43719649D02*
X33493198Y43755935D01*
X33493198Y43755935D02*
X33311769Y43755935D01*
X33311769Y43755935D02*
X33202912Y43719649D01*
X32622341Y43393078D02*
X32513484Y43356792D01*
X32513484Y43356792D02*
X32477198Y43320506D01*
X32477198Y43320506D02*
X32440912Y43247935D01*
X32440912Y43247935D02*
X32440912Y43139078D01*
X32440912Y43139078D02*
X32477198Y43066506D01*
X32477198Y43066506D02*
X32513484Y43030220D01*
X32513484Y43030220D02*
X32586055Y42993935D01*
X32586055Y42993935D02*
X32876341Y42993935D01*
X32876341Y42993935D02*
X32876341Y43755935D01*
X32876341Y43755935D02*
X32622341Y43755935D01*
X32622341Y43755935D02*
X32549770Y43719649D01*
X32549770Y43719649D02*
X32513484Y43683363D01*
X32513484Y43683363D02*
X32477198Y43610792D01*
X32477198Y43610792D02*
X32477198Y43538220D01*
X32477198Y43538220D02*
X32513484Y43465649D01*
X32513484Y43465649D02*
X32549770Y43429363D01*
X32549770Y43429363D02*
X32622341Y43393078D01*
X32622341Y43393078D02*
X32876341Y43393078D01*
X32114341Y43284220D02*
X31533770Y43284220D01*
X31170912Y43755935D02*
X31170912Y43139078D01*
X31170912Y43139078D02*
X31134626Y43066506D01*
X31134626Y43066506D02*
X31098341Y43030220D01*
X31098341Y43030220D02*
X31025769Y42993935D01*
X31025769Y42993935D02*
X30880626Y42993935D01*
X30880626Y42993935D02*
X30808055Y43030220D01*
X30808055Y43030220D02*
X30771769Y43066506D01*
X30771769Y43066506D02*
X30735483Y43139078D01*
X30735483Y43139078D02*
X30735483Y43755935D01*
X30408912Y43211649D02*
X30046055Y43211649D01*
X30481483Y42993935D02*
X30227483Y43755935D01*
X30227483Y43755935D02*
X29973483Y42993935D01*
X29284054Y42993935D02*
X29538054Y43356792D01*
X29719483Y42993935D02*
X29719483Y43755935D01*
X29719483Y43755935D02*
X29429197Y43755935D01*
X29429197Y43755935D02*
X29356626Y43719649D01*
X29356626Y43719649D02*
X29320340Y43683363D01*
X29320340Y43683363D02*
X29284054Y43610792D01*
X29284054Y43610792D02*
X29284054Y43501935D01*
X29284054Y43501935D02*
X29320340Y43429363D01*
X29320340Y43429363D02*
X29356626Y43393078D01*
X29356626Y43393078D02*
X29429197Y43356792D01*
X29429197Y43356792D02*
X29719483Y43356792D01*
X29066340Y43755935D02*
X28630912Y43755935D01*
X28848626Y42993935D02*
X28848626Y43755935D01*
X27977769Y42993935D02*
X28413198Y42993935D01*
X28195483Y42993935D02*
X28195483Y43755935D01*
X28195483Y43755935D02*
X28268055Y43647078D01*
X28268055Y43647078D02*
X28340626Y43574506D01*
X28340626Y43574506D02*
X28413198Y43538220D01*
X45529627Y25743935D02*
X45529627Y26505935D01*
X45529627Y26505935D02*
X45348198Y26505935D01*
X45348198Y26505935D02*
X45239341Y26469649D01*
X45239341Y26469649D02*
X45166770Y26397078D01*
X45166770Y26397078D02*
X45130484Y26324506D01*
X45130484Y26324506D02*
X45094198Y26179363D01*
X45094198Y26179363D02*
X45094198Y26070506D01*
X45094198Y26070506D02*
X45130484Y25925363D01*
X45130484Y25925363D02*
X45166770Y25852792D01*
X45166770Y25852792D02*
X45239341Y25780220D01*
X45239341Y25780220D02*
X45348198Y25743935D01*
X45348198Y25743935D02*
X45529627Y25743935D01*
X44441056Y26251935D02*
X44441056Y25743935D01*
X44622484Y26542220D02*
X44803913Y25997935D01*
X44803913Y25997935D02*
X44332198Y25997935D01*
D12*
X45128032Y17563655D02*
X45339699Y17563655D01*
X45339699Y17231036D02*
X45339699Y17866036D01*
X45339699Y17866036D02*
X45037318Y17866036D01*
X44795413Y17563655D02*
X44583746Y17563655D01*
X44493032Y17231036D02*
X44795413Y17231036D01*
X44795413Y17231036D02*
X44795413Y17866036D01*
X44795413Y17866036D02*
X44493032Y17866036D01*
X44311603Y17866036D02*
X43948746Y17866036D01*
X44130175Y17231036D02*
X44130175Y17866036D01*
X43404460Y17231036D02*
X43767317Y17231036D01*
X43585889Y17231036D02*
X43585889Y17866036D01*
X43585889Y17866036D02*
X43646365Y17775322D01*
X43646365Y17775322D02*
X43706841Y17714846D01*
X43706841Y17714846D02*
X43767317Y17684608D01*
X6623663Y66233901D02*
X6835330Y66536282D01*
X6986520Y66233901D02*
X6986520Y66868901D01*
X6986520Y66868901D02*
X6744615Y66868901D01*
X6744615Y66868901D02*
X6684139Y66838663D01*
X6684139Y66838663D02*
X6653901Y66808425D01*
X6653901Y66808425D02*
X6623663Y66747949D01*
X6623663Y66747949D02*
X6623663Y66657235D01*
X6623663Y66657235D02*
X6653901Y66596759D01*
X6653901Y66596759D02*
X6684139Y66566520D01*
X6684139Y66566520D02*
X6744615Y66536282D01*
X6744615Y66536282D02*
X6986520Y66536282D01*
X6018901Y66233901D02*
X6381758Y66233901D01*
X6200330Y66233901D02*
X6200330Y66868901D01*
X6200330Y66868901D02*
X6260806Y66778187D01*
X6260806Y66778187D02*
X6321282Y66717711D01*
X6321282Y66717711D02*
X6381758Y66687473D01*
X5474615Y66657235D02*
X5474615Y66233901D01*
X5625806Y66899139D02*
X5776996Y66445568D01*
X5776996Y66445568D02*
X5383901Y66445568D01*
D11*
X48450192Y34437204D02*
X48704192Y34800061D01*
X48885621Y34437204D02*
X48885621Y35199204D01*
X48885621Y35199204D02*
X48595335Y35199204D01*
X48595335Y35199204D02*
X48522764Y35162918D01*
X48522764Y35162918D02*
X48486478Y35126632D01*
X48486478Y35126632D02*
X48450192Y35054061D01*
X48450192Y35054061D02*
X48450192Y34945204D01*
X48450192Y34945204D02*
X48486478Y34872632D01*
X48486478Y34872632D02*
X48522764Y34836347D01*
X48522764Y34836347D02*
X48595335Y34800061D01*
X48595335Y34800061D02*
X48885621Y34800061D01*
X48196192Y35199204D02*
X47724478Y35199204D01*
X47724478Y35199204D02*
X47978478Y34908918D01*
X47978478Y34908918D02*
X47869621Y34908918D01*
X47869621Y34908918D02*
X47797050Y34872632D01*
X47797050Y34872632D02*
X47760764Y34836347D01*
X47760764Y34836347D02*
X47724478Y34763775D01*
X47724478Y34763775D02*
X47724478Y34582347D01*
X47724478Y34582347D02*
X47760764Y34509775D01*
X47760764Y34509775D02*
X47797050Y34473489D01*
X47797050Y34473489D02*
X47869621Y34437204D01*
X47869621Y34437204D02*
X48087335Y34437204D01*
X48087335Y34437204D02*
X48159907Y34473489D01*
X48159907Y34473489D02*
X48196192Y34509775D01*
X47035050Y35199204D02*
X47397907Y35199204D01*
X47397907Y35199204D02*
X47434193Y34836347D01*
X47434193Y34836347D02*
X47397907Y34872632D01*
X47397907Y34872632D02*
X47325336Y34908918D01*
X47325336Y34908918D02*
X47143907Y34908918D01*
X47143907Y34908918D02*
X47071336Y34872632D01*
X47071336Y34872632D02*
X47035050Y34836347D01*
X47035050Y34836347D02*
X46998764Y34763775D01*
X46998764Y34763775D02*
X46998764Y34582347D01*
X46998764Y34582347D02*
X47035050Y34509775D01*
X47035050Y34509775D02*
X47071336Y34473489D01*
X47071336Y34473489D02*
X47143907Y34437204D01*
X47143907Y34437204D02*
X47325336Y34437204D01*
X47325336Y34437204D02*
X47397907Y34473489D01*
X47397907Y34473489D02*
X47434193Y34509775D01*
D13*
X13007674Y65761922D02*
X12862531Y65713541D01*
X12862531Y65713541D02*
X12814150Y65665160D01*
X12814150Y65665160D02*
X12765769Y65568398D01*
X12765769Y65568398D02*
X12765769Y65423255D01*
X12765769Y65423255D02*
X12814150Y65326493D01*
X12814150Y65326493D02*
X12862531Y65278112D01*
X12862531Y65278112D02*
X12959293Y65229732D01*
X12959293Y65229732D02*
X13346341Y65229732D01*
X13346341Y65229732D02*
X13346341Y66245732D01*
X13346341Y66245732D02*
X13007674Y66245732D01*
X13007674Y66245732D02*
X12910912Y66197351D01*
X12910912Y66197351D02*
X12862531Y66148970D01*
X12862531Y66148970D02*
X12814150Y66052208D01*
X12814150Y66052208D02*
X12814150Y65955446D01*
X12814150Y65955446D02*
X12862531Y65858684D01*
X12862531Y65858684D02*
X12910912Y65810303D01*
X12910912Y65810303D02*
X13007674Y65761922D01*
X13007674Y65761922D02*
X13346341Y65761922D01*
X12330341Y66245732D02*
X12330341Y65423255D01*
X12330341Y65423255D02*
X12281960Y65326493D01*
X12281960Y65326493D02*
X12233579Y65278112D01*
X12233579Y65278112D02*
X12136817Y65229732D01*
X12136817Y65229732D02*
X11943293Y65229732D01*
X11943293Y65229732D02*
X11846531Y65278112D01*
X11846531Y65278112D02*
X11798150Y65326493D01*
X11798150Y65326493D02*
X11749769Y65423255D01*
X11749769Y65423255D02*
X11749769Y66245732D01*
X11411103Y66245732D02*
X10830531Y66245732D01*
X11120817Y65229732D02*
X11120817Y66245732D01*
X9959674Y65229732D02*
X10540246Y65229732D01*
X10249960Y65229732D02*
X10249960Y66245732D01*
X10249960Y66245732D02*
X10346722Y66100589D01*
X10346722Y66100589D02*
X10443484Y66003827D01*
X10443484Y66003827D02*
X10540246Y65955446D01*
D12*
X35912230Y44324759D02*
X35942469Y44354997D01*
X35942469Y44354997D02*
X35972707Y44445711D01*
X35972707Y44445711D02*
X35972707Y44506187D01*
X35972707Y44506187D02*
X35942469Y44596902D01*
X35942469Y44596902D02*
X35881992Y44657378D01*
X35881992Y44657378D02*
X35821516Y44687616D01*
X35821516Y44687616D02*
X35700564Y44717854D01*
X35700564Y44717854D02*
X35609849Y44717854D01*
X35609849Y44717854D02*
X35488897Y44687616D01*
X35488897Y44687616D02*
X35428421Y44657378D01*
X35428421Y44657378D02*
X35367945Y44596902D01*
X35367945Y44596902D02*
X35337707Y44506187D01*
X35337707Y44506187D02*
X35337707Y44445711D01*
X35337707Y44445711D02*
X35367945Y44354997D01*
X35367945Y44354997D02*
X35398183Y44324759D01*
X35398183Y44082854D02*
X35367945Y44052616D01*
X35367945Y44052616D02*
X35337707Y43992140D01*
X35337707Y43992140D02*
X35337707Y43840949D01*
X35337707Y43840949D02*
X35367945Y43780473D01*
X35367945Y43780473D02*
X35398183Y43750235D01*
X35398183Y43750235D02*
X35458659Y43719997D01*
X35458659Y43719997D02*
X35519135Y43719997D01*
X35519135Y43719997D02*
X35609849Y43750235D01*
X35609849Y43750235D02*
X35972707Y44113092D01*
X35972707Y44113092D02*
X35972707Y43719997D01*
X35337707Y43508330D02*
X35337707Y43115235D01*
X35337707Y43115235D02*
X35579611Y43326902D01*
X35579611Y43326902D02*
X35579611Y43236187D01*
X35579611Y43236187D02*
X35609849Y43175711D01*
X35609849Y43175711D02*
X35640088Y43145473D01*
X35640088Y43145473D02*
X35700564Y43115235D01*
X35700564Y43115235D02*
X35851754Y43115235D01*
X35851754Y43115235D02*
X35912230Y43145473D01*
X35912230Y43145473D02*
X35942469Y43175711D01*
X35942469Y43175711D02*
X35972707Y43236187D01*
X35972707Y43236187D02*
X35972707Y43417616D01*
X35972707Y43417616D02*
X35942469Y43478092D01*
X35942469Y43478092D02*
X35912230Y43508330D01*
D11*
X38719770Y46071363D02*
X38792341Y46107649D01*
X38792341Y46107649D02*
X38864913Y46180220D01*
X38864913Y46180220D02*
X38973770Y46289078D01*
X38973770Y46289078D02*
X39046341Y46325363D01*
X39046341Y46325363D02*
X39118913Y46325363D01*
X39082627Y46143935D02*
X39155199Y46180220D01*
X39155199Y46180220D02*
X39227770Y46252792D01*
X39227770Y46252792D02*
X39264056Y46397935D01*
X39264056Y46397935D02*
X39264056Y46651935D01*
X39264056Y46651935D02*
X39227770Y46797078D01*
X39227770Y46797078D02*
X39155199Y46869649D01*
X39155199Y46869649D02*
X39082627Y46905935D01*
X39082627Y46905935D02*
X38937484Y46905935D01*
X38937484Y46905935D02*
X38864913Y46869649D01*
X38864913Y46869649D02*
X38792341Y46797078D01*
X38792341Y46797078D02*
X38756056Y46651935D01*
X38756056Y46651935D02*
X38756056Y46397935D01*
X38756056Y46397935D02*
X38792341Y46252792D01*
X38792341Y46252792D02*
X38864913Y46180220D01*
X38864913Y46180220D02*
X38937484Y46143935D01*
X38937484Y46143935D02*
X39082627Y46143935D01*
X38066627Y46905935D02*
X38429484Y46905935D01*
X38429484Y46905935D02*
X38465770Y46543078D01*
X38465770Y46543078D02*
X38429484Y46579363D01*
X38429484Y46579363D02*
X38356913Y46615649D01*
X38356913Y46615649D02*
X38175484Y46615649D01*
X38175484Y46615649D02*
X38102913Y46579363D01*
X38102913Y46579363D02*
X38066627Y46543078D01*
X38066627Y46543078D02*
X38030341Y46470506D01*
X38030341Y46470506D02*
X38030341Y46289078D01*
X38030341Y46289078D02*
X38066627Y46216506D01*
X38066627Y46216506D02*
X38102913Y46180220D01*
X38102913Y46180220D02*
X38175484Y46143935D01*
X38175484Y46143935D02*
X38356913Y46143935D01*
X38356913Y46143935D02*
X38429484Y46180220D01*
X38429484Y46180220D02*
X38465770Y46216506D01*
D12*
X13810687Y45302010D02*
X14022354Y45604391D01*
X14173544Y45302010D02*
X14173544Y45937010D01*
X14173544Y45937010D02*
X13931639Y45937010D01*
X13931639Y45937010D02*
X13871163Y45906772D01*
X13871163Y45906772D02*
X13840925Y45876534D01*
X13840925Y45876534D02*
X13810687Y45816058D01*
X13810687Y45816058D02*
X13810687Y45725344D01*
X13810687Y45725344D02*
X13840925Y45664868D01*
X13840925Y45664868D02*
X13871163Y45634629D01*
X13871163Y45634629D02*
X13931639Y45604391D01*
X13931639Y45604391D02*
X14173544Y45604391D01*
X13266401Y45725344D02*
X13266401Y45302010D01*
X13417592Y45967248D02*
X13568782Y45513677D01*
X13568782Y45513677D02*
X13175687Y45513677D01*
X12631401Y45937010D02*
X12933782Y45937010D01*
X12933782Y45937010D02*
X12964020Y45634629D01*
X12964020Y45634629D02*
X12933782Y45664868D01*
X12933782Y45664868D02*
X12873306Y45695106D01*
X12873306Y45695106D02*
X12722115Y45695106D01*
X12722115Y45695106D02*
X12661639Y45664868D01*
X12661639Y45664868D02*
X12631401Y45634629D01*
X12631401Y45634629D02*
X12601163Y45574153D01*
X12601163Y45574153D02*
X12601163Y45422963D01*
X12601163Y45422963D02*
X12631401Y45362487D01*
X12631401Y45362487D02*
X12661639Y45332248D01*
X12661639Y45332248D02*
X12722115Y45302010D01*
X12722115Y45302010D02*
X12873306Y45302010D01*
X12873306Y45302010D02*
X12933782Y45332248D01*
X12933782Y45332248D02*
X12964020Y45362487D01*
D11*
X50534198Y22196506D02*
X50570484Y22160220D01*
X50570484Y22160220D02*
X50679341Y22123935D01*
X50679341Y22123935D02*
X50751913Y22123935D01*
X50751913Y22123935D02*
X50860770Y22160220D01*
X50860770Y22160220D02*
X50933341Y22232792D01*
X50933341Y22232792D02*
X50969627Y22305363D01*
X50969627Y22305363D02*
X51005913Y22450506D01*
X51005913Y22450506D02*
X51005913Y22559363D01*
X51005913Y22559363D02*
X50969627Y22704506D01*
X50969627Y22704506D02*
X50933341Y22777078D01*
X50933341Y22777078D02*
X50860770Y22849649D01*
X50860770Y22849649D02*
X50751913Y22885935D01*
X50751913Y22885935D02*
X50679341Y22885935D01*
X50679341Y22885935D02*
X50570484Y22849649D01*
X50570484Y22849649D02*
X50534198Y22813363D01*
X50280198Y22885935D02*
X49808484Y22885935D01*
X49808484Y22885935D02*
X50062484Y22595649D01*
X50062484Y22595649D02*
X49953627Y22595649D01*
X49953627Y22595649D02*
X49881056Y22559363D01*
X49881056Y22559363D02*
X49844770Y22523078D01*
X49844770Y22523078D02*
X49808484Y22450506D01*
X49808484Y22450506D02*
X49808484Y22269078D01*
X49808484Y22269078D02*
X49844770Y22196506D01*
X49844770Y22196506D02*
X49881056Y22160220D01*
X49881056Y22160220D02*
X49953627Y22123935D01*
X49953627Y22123935D02*
X50171341Y22123935D01*
X50171341Y22123935D02*
X50243913Y22160220D01*
X50243913Y22160220D02*
X50280198Y22196506D01*
X49654198Y16416506D02*
X49690484Y16380220D01*
X49690484Y16380220D02*
X49799341Y16343935D01*
X49799341Y16343935D02*
X49871913Y16343935D01*
X49871913Y16343935D02*
X49980770Y16380220D01*
X49980770Y16380220D02*
X50053341Y16452792D01*
X50053341Y16452792D02*
X50089627Y16525363D01*
X50089627Y16525363D02*
X50125913Y16670506D01*
X50125913Y16670506D02*
X50125913Y16779363D01*
X50125913Y16779363D02*
X50089627Y16924506D01*
X50089627Y16924506D02*
X50053341Y16997078D01*
X50053341Y16997078D02*
X49980770Y17069649D01*
X49980770Y17069649D02*
X49871913Y17105935D01*
X49871913Y17105935D02*
X49799341Y17105935D01*
X49799341Y17105935D02*
X49690484Y17069649D01*
X49690484Y17069649D02*
X49654198Y17033363D01*
X49001056Y16851935D02*
X49001056Y16343935D01*
X49182484Y17142220D02*
X49363913Y16597935D01*
X49363913Y16597935D02*
X48892198Y16597935D01*
X43497055Y39393935D02*
X43751055Y39756792D01*
X43932484Y39393935D02*
X43932484Y40155935D01*
X43932484Y40155935D02*
X43642198Y40155935D01*
X43642198Y40155935D02*
X43569627Y40119649D01*
X43569627Y40119649D02*
X43533341Y40083363D01*
X43533341Y40083363D02*
X43497055Y40010792D01*
X43497055Y40010792D02*
X43497055Y39901935D01*
X43497055Y39901935D02*
X43533341Y39829363D01*
X43533341Y39829363D02*
X43569627Y39793078D01*
X43569627Y39793078D02*
X43642198Y39756792D01*
X43642198Y39756792D02*
X43932484Y39756792D01*
X43243055Y40155935D02*
X42771341Y40155935D01*
X42771341Y40155935D02*
X43025341Y39865649D01*
X43025341Y39865649D02*
X42916484Y39865649D01*
X42916484Y39865649D02*
X42843913Y39829363D01*
X42843913Y39829363D02*
X42807627Y39793078D01*
X42807627Y39793078D02*
X42771341Y39720506D01*
X42771341Y39720506D02*
X42771341Y39539078D01*
X42771341Y39539078D02*
X42807627Y39466506D01*
X42807627Y39466506D02*
X42843913Y39430220D01*
X42843913Y39430220D02*
X42916484Y39393935D01*
X42916484Y39393935D02*
X43134198Y39393935D01*
X43134198Y39393935D02*
X43206770Y39430220D01*
X43206770Y39430220D02*
X43243055Y39466506D01*
X42517341Y40155935D02*
X42009341Y40155935D01*
X42009341Y40155935D02*
X42335913Y39393935D01*
X38506122Y33002171D02*
X38760122Y33365028D01*
X38941551Y33002171D02*
X38941551Y33764171D01*
X38941551Y33764171D02*
X38651265Y33764171D01*
X38651265Y33764171D02*
X38578694Y33727885D01*
X38578694Y33727885D02*
X38542408Y33691599D01*
X38542408Y33691599D02*
X38506122Y33619028D01*
X38506122Y33619028D02*
X38506122Y33510171D01*
X38506122Y33510171D02*
X38542408Y33437599D01*
X38542408Y33437599D02*
X38578694Y33401314D01*
X38578694Y33401314D02*
X38651265Y33365028D01*
X38651265Y33365028D02*
X38941551Y33365028D01*
X37852980Y33510171D02*
X37852980Y33002171D01*
X38034408Y33800456D02*
X38215837Y33256171D01*
X38215837Y33256171D02*
X37744122Y33256171D01*
X37127266Y33510171D02*
X37127266Y33002171D01*
X37308694Y33800456D02*
X37490123Y33256171D01*
X37490123Y33256171D02*
X37018408Y33256171D01*
D14*
X13122244Y34908045D02*
X13164578Y34950378D01*
X13164578Y34950378D02*
X13206911Y35077378D01*
X13206911Y35077378D02*
X13206911Y35162045D01*
X13206911Y35162045D02*
X13164578Y35289045D01*
X13164578Y35289045D02*
X13079911Y35373711D01*
X13079911Y35373711D02*
X12995244Y35416045D01*
X12995244Y35416045D02*
X12825911Y35458378D01*
X12825911Y35458378D02*
X12698911Y35458378D01*
X12698911Y35458378D02*
X12529578Y35416045D01*
X12529578Y35416045D02*
X12444911Y35373711D01*
X12444911Y35373711D02*
X12360244Y35289045D01*
X12360244Y35289045D02*
X12317911Y35162045D01*
X12317911Y35162045D02*
X12317911Y35077378D01*
X12317911Y35077378D02*
X12360244Y34950378D01*
X12360244Y34950378D02*
X12402578Y34908045D01*
X12402578Y34569378D02*
X12360244Y34527045D01*
X12360244Y34527045D02*
X12317911Y34442378D01*
X12317911Y34442378D02*
X12317911Y34230711D01*
X12317911Y34230711D02*
X12360244Y34146045D01*
X12360244Y34146045D02*
X12402578Y34103711D01*
X12402578Y34103711D02*
X12487244Y34061378D01*
X12487244Y34061378D02*
X12571911Y34061378D01*
X12571911Y34061378D02*
X12698911Y34103711D01*
X12698911Y34103711D02*
X13206911Y34611711D01*
X13206911Y34611711D02*
X13206911Y34061378D01*
X13206911Y33638044D02*
X13206911Y33468711D01*
X13206911Y33468711D02*
X13164578Y33384044D01*
X13164578Y33384044D02*
X13122244Y33341711D01*
X13122244Y33341711D02*
X12995244Y33257044D01*
X12995244Y33257044D02*
X12825911Y33214711D01*
X12825911Y33214711D02*
X12487244Y33214711D01*
X12487244Y33214711D02*
X12402578Y33257044D01*
X12402578Y33257044D02*
X12360244Y33299378D01*
X12360244Y33299378D02*
X12317911Y33384044D01*
X12317911Y33384044D02*
X12317911Y33553378D01*
X12317911Y33553378D02*
X12360244Y33638044D01*
X12360244Y33638044D02*
X12402578Y33680378D01*
X12402578Y33680378D02*
X12487244Y33722711D01*
X12487244Y33722711D02*
X12698911Y33722711D01*
X12698911Y33722711D02*
X12783578Y33680378D01*
X12783578Y33680378D02*
X12825911Y33638044D01*
X12825911Y33638044D02*
X12868244Y33553378D01*
X12868244Y33553378D02*
X12868244Y33384044D01*
X12868244Y33384044D02*
X12825911Y33299378D01*
X12825911Y33299378D02*
X12783578Y33257044D01*
X12783578Y33257044D02*
X12698911Y33214711D01*
D11*
X17259808Y34006401D02*
X16896951Y34260401D01*
X17259808Y34441830D02*
X16497808Y34441830D01*
X16497808Y34441830D02*
X16497808Y34151544D01*
X16497808Y34151544D02*
X16534094Y34078973D01*
X16534094Y34078973D02*
X16570380Y34042687D01*
X16570380Y34042687D02*
X16642951Y34006401D01*
X16642951Y34006401D02*
X16751808Y34006401D01*
X16751808Y34006401D02*
X16824380Y34042687D01*
X16824380Y34042687D02*
X16860665Y34078973D01*
X16860665Y34078973D02*
X16896951Y34151544D01*
X16896951Y34151544D02*
X16896951Y34441830D01*
X16497808Y33316973D02*
X16497808Y33679830D01*
X16497808Y33679830D02*
X16860665Y33716116D01*
X16860665Y33716116D02*
X16824380Y33679830D01*
X16824380Y33679830D02*
X16788094Y33607258D01*
X16788094Y33607258D02*
X16788094Y33425830D01*
X16788094Y33425830D02*
X16824380Y33353258D01*
X16824380Y33353258D02*
X16860665Y33316973D01*
X16860665Y33316973D02*
X16933237Y33280687D01*
X16933237Y33280687D02*
X17114665Y33280687D01*
X17114665Y33280687D02*
X17187237Y33316973D01*
X17187237Y33316973D02*
X17223523Y33353258D01*
X17223523Y33353258D02*
X17259808Y33425830D01*
X17259808Y33425830D02*
X17259808Y33607258D01*
X17259808Y33607258D02*
X17223523Y33679830D01*
X17223523Y33679830D02*
X17187237Y33716116D01*
X16497808Y32808973D02*
X16497808Y32736402D01*
X16497808Y32736402D02*
X16534094Y32663830D01*
X16534094Y32663830D02*
X16570380Y32627544D01*
X16570380Y32627544D02*
X16642951Y32591259D01*
X16642951Y32591259D02*
X16788094Y32554973D01*
X16788094Y32554973D02*
X16969523Y32554973D01*
X16969523Y32554973D02*
X17114665Y32591259D01*
X17114665Y32591259D02*
X17187237Y32627544D01*
X17187237Y32627544D02*
X17223523Y32663830D01*
X17223523Y32663830D02*
X17259808Y32736402D01*
X17259808Y32736402D02*
X17259808Y32808973D01*
X17259808Y32808973D02*
X17223523Y32881544D01*
X17223523Y32881544D02*
X17187237Y32917830D01*
X17187237Y32917830D02*
X17114665Y32954116D01*
X17114665Y32954116D02*
X16969523Y32990402D01*
X16969523Y32990402D02*
X16788094Y32990402D01*
X16788094Y32990402D02*
X16642951Y32954116D01*
X16642951Y32954116D02*
X16570380Y32917830D01*
X16570380Y32917830D02*
X16534094Y32881544D01*
X16534094Y32881544D02*
X16497808Y32808973D01*
X14989808Y35106401D02*
X14626951Y35360401D01*
X14989808Y35541830D02*
X14227808Y35541830D01*
X14227808Y35541830D02*
X14227808Y35251544D01*
X14227808Y35251544D02*
X14264094Y35178973D01*
X14264094Y35178973D02*
X14300380Y35142687D01*
X14300380Y35142687D02*
X14372951Y35106401D01*
X14372951Y35106401D02*
X14481808Y35106401D01*
X14481808Y35106401D02*
X14554380Y35142687D01*
X14554380Y35142687D02*
X14590665Y35178973D01*
X14590665Y35178973D02*
X14626951Y35251544D01*
X14626951Y35251544D02*
X14626951Y35541830D01*
X14227808Y34416973D02*
X14227808Y34779830D01*
X14227808Y34779830D02*
X14590665Y34816116D01*
X14590665Y34816116D02*
X14554380Y34779830D01*
X14554380Y34779830D02*
X14518094Y34707258D01*
X14518094Y34707258D02*
X14518094Y34525830D01*
X14518094Y34525830D02*
X14554380Y34453258D01*
X14554380Y34453258D02*
X14590665Y34416973D01*
X14590665Y34416973D02*
X14663237Y34380687D01*
X14663237Y34380687D02*
X14844665Y34380687D01*
X14844665Y34380687D02*
X14917237Y34416973D01*
X14917237Y34416973D02*
X14953523Y34453258D01*
X14953523Y34453258D02*
X14989808Y34525830D01*
X14989808Y34525830D02*
X14989808Y34707258D01*
X14989808Y34707258D02*
X14953523Y34779830D01*
X14953523Y34779830D02*
X14917237Y34816116D01*
X14989808Y33654973D02*
X14989808Y34090402D01*
X14989808Y33872687D02*
X14227808Y33872687D01*
X14227808Y33872687D02*
X14336665Y33945259D01*
X14336665Y33945259D02*
X14409237Y34017830D01*
X14409237Y34017830D02*
X14445523Y34090402D01*
X8015570Y37372886D02*
X8015570Y37626886D01*
X8414713Y37626886D02*
X7652713Y37626886D01*
X7652713Y37626886D02*
X7652713Y37264029D01*
X8015570Y36973743D02*
X8015570Y36719743D01*
X8414713Y36610886D02*
X8414713Y36973743D01*
X8414713Y36973743D02*
X7652713Y36973743D01*
X7652713Y36973743D02*
X7652713Y36610886D01*
X7652713Y36393171D02*
X7652713Y35957742D01*
X8414713Y36175457D02*
X7652713Y36175457D01*
X7652713Y35776314D02*
X7652713Y35304600D01*
X7652713Y35304600D02*
X7942999Y35558600D01*
X7942999Y35558600D02*
X7942999Y35449743D01*
X7942999Y35449743D02*
X7979285Y35377171D01*
X7979285Y35377171D02*
X8015570Y35340886D01*
X8015570Y35340886D02*
X8088142Y35304600D01*
X8088142Y35304600D02*
X8269570Y35304600D01*
X8269570Y35304600D02*
X8342142Y35340886D01*
X8342142Y35340886D02*
X8378428Y35377171D01*
X8378428Y35377171D02*
X8414713Y35449743D01*
X8414713Y35449743D02*
X8414713Y35667457D01*
X8414713Y35667457D02*
X8378428Y35740029D01*
X8378428Y35740029D02*
X8342142Y35776314D01*
X1461121Y37484024D02*
X1461121Y37846881D01*
X1461121Y37846881D02*
X699121Y37846881D01*
X699121Y36867167D02*
X699121Y37230024D01*
X699121Y37230024D02*
X1061978Y37266310D01*
X1061978Y37266310D02*
X1025693Y37230024D01*
X1025693Y37230024D02*
X989407Y37157452D01*
X989407Y37157452D02*
X989407Y36976024D01*
X989407Y36976024D02*
X1025693Y36903452D01*
X1025693Y36903452D02*
X1061978Y36867167D01*
X1061978Y36867167D02*
X1134550Y36830881D01*
X1134550Y36830881D02*
X1315978Y36830881D01*
X1315978Y36830881D02*
X1388550Y36867167D01*
X1388550Y36867167D02*
X1424836Y36903452D01*
X1424836Y36903452D02*
X1461121Y36976024D01*
X1461121Y36976024D02*
X1461121Y37157452D01*
X1461121Y37157452D02*
X1424836Y37230024D01*
X1424836Y37230024D02*
X1388550Y37266310D01*
D13*
X43161294Y17545732D02*
X43161294Y16723255D01*
X43161294Y16723255D02*
X43112913Y16626493D01*
X43112913Y16626493D02*
X43064532Y16578112D01*
X43064532Y16578112D02*
X42967770Y16529732D01*
X42967770Y16529732D02*
X42774246Y16529732D01*
X42774246Y16529732D02*
X42677484Y16578112D01*
X42677484Y16578112D02*
X42629103Y16626493D01*
X42629103Y16626493D02*
X42580722Y16723255D01*
X42580722Y16723255D02*
X42580722Y17545732D01*
X41564722Y16529732D02*
X42145294Y16529732D01*
X41855008Y16529732D02*
X41855008Y17545732D01*
X41855008Y17545732D02*
X41951770Y17400589D01*
X41951770Y17400589D02*
X42048532Y17303827D01*
X42048532Y17303827D02*
X42145294Y17255446D01*
D11*
X36694198Y22053935D02*
X36948198Y22416792D01*
X37129627Y22053935D02*
X37129627Y22815935D01*
X37129627Y22815935D02*
X36839341Y22815935D01*
X36839341Y22815935D02*
X36766770Y22779649D01*
X36766770Y22779649D02*
X36730484Y22743363D01*
X36730484Y22743363D02*
X36694198Y22670792D01*
X36694198Y22670792D02*
X36694198Y22561935D01*
X36694198Y22561935D02*
X36730484Y22489363D01*
X36730484Y22489363D02*
X36766770Y22453078D01*
X36766770Y22453078D02*
X36839341Y22416792D01*
X36839341Y22416792D02*
X37129627Y22416792D01*
X36258770Y22489363D02*
X36331341Y22525649D01*
X36331341Y22525649D02*
X36367627Y22561935D01*
X36367627Y22561935D02*
X36403913Y22634506D01*
X36403913Y22634506D02*
X36403913Y22670792D01*
X36403913Y22670792D02*
X36367627Y22743363D01*
X36367627Y22743363D02*
X36331341Y22779649D01*
X36331341Y22779649D02*
X36258770Y22815935D01*
X36258770Y22815935D02*
X36113627Y22815935D01*
X36113627Y22815935D02*
X36041056Y22779649D01*
X36041056Y22779649D02*
X36004770Y22743363D01*
X36004770Y22743363D02*
X35968484Y22670792D01*
X35968484Y22670792D02*
X35968484Y22634506D01*
X35968484Y22634506D02*
X36004770Y22561935D01*
X36004770Y22561935D02*
X36041056Y22525649D01*
X36041056Y22525649D02*
X36113627Y22489363D01*
X36113627Y22489363D02*
X36258770Y22489363D01*
X36258770Y22489363D02*
X36331341Y22453078D01*
X36331341Y22453078D02*
X36367627Y22416792D01*
X36367627Y22416792D02*
X36403913Y22344220D01*
X36403913Y22344220D02*
X36403913Y22199078D01*
X36403913Y22199078D02*
X36367627Y22126506D01*
X36367627Y22126506D02*
X36331341Y22090220D01*
X36331341Y22090220D02*
X36258770Y22053935D01*
X36258770Y22053935D02*
X36113627Y22053935D01*
X36113627Y22053935D02*
X36041056Y22090220D01*
X36041056Y22090220D02*
X36004770Y22126506D01*
X36004770Y22126506D02*
X35968484Y22199078D01*
X35968484Y22199078D02*
X35968484Y22344220D01*
X35968484Y22344220D02*
X36004770Y22416792D01*
X36004770Y22416792D02*
X36041056Y22453078D01*
X36041056Y22453078D02*
X36113627Y22489363D01*
D15*
X34810056Y22610735D02*
X34667199Y22563116D01*
X34667199Y22563116D02*
X34619580Y22515497D01*
X34619580Y22515497D02*
X34571961Y22420259D01*
X34571961Y22420259D02*
X34571961Y22277402D01*
X34571961Y22277402D02*
X34619580Y22182164D01*
X34619580Y22182164D02*
X34667199Y22134544D01*
X34667199Y22134544D02*
X34762437Y22086925D01*
X34762437Y22086925D02*
X35143389Y22086925D01*
X35143389Y22086925D02*
X35143389Y23086925D01*
X35143389Y23086925D02*
X34810056Y23086925D01*
X34810056Y23086925D02*
X34714818Y23039306D01*
X34714818Y23039306D02*
X34667199Y22991687D01*
X34667199Y22991687D02*
X34619580Y22896449D01*
X34619580Y22896449D02*
X34619580Y22801211D01*
X34619580Y22801211D02*
X34667199Y22705973D01*
X34667199Y22705973D02*
X34714818Y22658354D01*
X34714818Y22658354D02*
X34810056Y22610735D01*
X34810056Y22610735D02*
X35143389Y22610735D01*
X34191008Y22372640D02*
X33714818Y22372640D01*
X34286246Y22086925D02*
X33952913Y23086925D01*
X33952913Y23086925D02*
X33619580Y22086925D01*
X33429103Y23086925D02*
X32857675Y23086925D01*
X33143389Y22086925D02*
X33143389Y23086925D01*
X31810056Y23134544D02*
X32667198Y21848830D01*
X31143389Y22610735D02*
X31000532Y22563116D01*
X31000532Y22563116D02*
X30952913Y22515497D01*
X30952913Y22515497D02*
X30905294Y22420259D01*
X30905294Y22420259D02*
X30905294Y22277402D01*
X30905294Y22277402D02*
X30952913Y22182164D01*
X30952913Y22182164D02*
X31000532Y22134544D01*
X31000532Y22134544D02*
X31095770Y22086925D01*
X31095770Y22086925D02*
X31476722Y22086925D01*
X31476722Y22086925D02*
X31476722Y23086925D01*
X31476722Y23086925D02*
X31143389Y23086925D01*
X31143389Y23086925D02*
X31048151Y23039306D01*
X31048151Y23039306D02*
X31000532Y22991687D01*
X31000532Y22991687D02*
X30952913Y22896449D01*
X30952913Y22896449D02*
X30952913Y22801211D01*
X30952913Y22801211D02*
X31000532Y22705973D01*
X31000532Y22705973D02*
X31048151Y22658354D01*
X31048151Y22658354D02*
X31143389Y22610735D01*
X31143389Y22610735D02*
X31476722Y22610735D01*
X30476722Y23086925D02*
X30476722Y22277402D01*
X30476722Y22277402D02*
X30429103Y22182164D01*
X30429103Y22182164D02*
X30381484Y22134544D01*
X30381484Y22134544D02*
X30286246Y22086925D01*
X30286246Y22086925D02*
X30095770Y22086925D01*
X30095770Y22086925D02*
X30000532Y22134544D01*
X30000532Y22134544D02*
X29952913Y22182164D01*
X29952913Y22182164D02*
X29905294Y22277402D01*
X29905294Y22277402D02*
X29905294Y23086925D01*
X29571960Y23086925D02*
X29000532Y23086925D01*
X29286246Y22086925D02*
X29286246Y23086925D01*
X28143389Y22086925D02*
X28714817Y22086925D01*
X28429103Y22086925D02*
X28429103Y23086925D01*
X28429103Y23086925D02*
X28524341Y22944068D01*
X28524341Y22944068D02*
X28619579Y22848830D01*
X28619579Y22848830D02*
X28714817Y22801211D01*
D11*
X45669627Y28773935D02*
X45669627Y29535935D01*
X45669627Y29535935D02*
X45488198Y29535935D01*
X45488198Y29535935D02*
X45379341Y29499649D01*
X45379341Y29499649D02*
X45306770Y29427078D01*
X45306770Y29427078D02*
X45270484Y29354506D01*
X45270484Y29354506D02*
X45234198Y29209363D01*
X45234198Y29209363D02*
X45234198Y29100506D01*
X45234198Y29100506D02*
X45270484Y28955363D01*
X45270484Y28955363D02*
X45306770Y28882792D01*
X45306770Y28882792D02*
X45379341Y28810220D01*
X45379341Y28810220D02*
X45488198Y28773935D01*
X45488198Y28773935D02*
X45669627Y28773935D01*
X44980198Y29535935D02*
X44472198Y29535935D01*
X44472198Y29535935D02*
X44798770Y28773935D01*
D12*
X32645413Y16601036D02*
X32857080Y16903417D01*
X33008270Y16601036D02*
X33008270Y17236036D01*
X33008270Y17236036D02*
X32766365Y17236036D01*
X32766365Y17236036D02*
X32705889Y17205798D01*
X32705889Y17205798D02*
X32675651Y17175560D01*
X32675651Y17175560D02*
X32645413Y17115084D01*
X32645413Y17115084D02*
X32645413Y17024370D01*
X32645413Y17024370D02*
X32675651Y16963894D01*
X32675651Y16963894D02*
X32705889Y16933655D01*
X32705889Y16933655D02*
X32766365Y16903417D01*
X32766365Y16903417D02*
X33008270Y16903417D01*
X32040651Y16601036D02*
X32403508Y16601036D01*
X32222080Y16601036D02*
X32222080Y17236036D01*
X32222080Y17236036D02*
X32282556Y17145322D01*
X32282556Y17145322D02*
X32343032Y17084846D01*
X32343032Y17084846D02*
X32403508Y17054608D01*
X31647556Y17236036D02*
X31587079Y17236036D01*
X31587079Y17236036D02*
X31526603Y17205798D01*
X31526603Y17205798D02*
X31496365Y17175560D01*
X31496365Y17175560D02*
X31466127Y17115084D01*
X31466127Y17115084D02*
X31435889Y16994132D01*
X31435889Y16994132D02*
X31435889Y16842941D01*
X31435889Y16842941D02*
X31466127Y16721989D01*
X31466127Y16721989D02*
X31496365Y16661513D01*
X31496365Y16661513D02*
X31526603Y16631274D01*
X31526603Y16631274D02*
X31587079Y16601036D01*
X31587079Y16601036D02*
X31647556Y16601036D01*
X31647556Y16601036D02*
X31708032Y16631274D01*
X31708032Y16631274D02*
X31738270Y16661513D01*
X31738270Y16661513D02*
X31768508Y16721989D01*
X31768508Y16721989D02*
X31798746Y16842941D01*
X31798746Y16842941D02*
X31798746Y16994132D01*
X31798746Y16994132D02*
X31768508Y17115084D01*
X31768508Y17115084D02*
X31738270Y17175560D01*
X31738270Y17175560D02*
X31708032Y17205798D01*
X31708032Y17205798D02*
X31647556Y17236036D01*
D11*
X39774198Y14723935D02*
X40028198Y15086792D01*
X40209627Y14723935D02*
X40209627Y15485935D01*
X40209627Y15485935D02*
X39919341Y15485935D01*
X39919341Y15485935D02*
X39846770Y15449649D01*
X39846770Y15449649D02*
X39810484Y15413363D01*
X39810484Y15413363D02*
X39774198Y15340792D01*
X39774198Y15340792D02*
X39774198Y15231935D01*
X39774198Y15231935D02*
X39810484Y15159363D01*
X39810484Y15159363D02*
X39846770Y15123078D01*
X39846770Y15123078D02*
X39919341Y15086792D01*
X39919341Y15086792D02*
X40209627Y15086792D01*
X39411341Y14723935D02*
X39266198Y14723935D01*
X39266198Y14723935D02*
X39193627Y14760220D01*
X39193627Y14760220D02*
X39157341Y14796506D01*
X39157341Y14796506D02*
X39084770Y14905363D01*
X39084770Y14905363D02*
X39048484Y15050506D01*
X39048484Y15050506D02*
X39048484Y15340792D01*
X39048484Y15340792D02*
X39084770Y15413363D01*
X39084770Y15413363D02*
X39121056Y15449649D01*
X39121056Y15449649D02*
X39193627Y15485935D01*
X39193627Y15485935D02*
X39338770Y15485935D01*
X39338770Y15485935D02*
X39411341Y15449649D01*
X39411341Y15449649D02*
X39447627Y15413363D01*
X39447627Y15413363D02*
X39483913Y15340792D01*
X39483913Y15340792D02*
X39483913Y15159363D01*
X39483913Y15159363D02*
X39447627Y15086792D01*
X39447627Y15086792D02*
X39411341Y15050506D01*
X39411341Y15050506D02*
X39338770Y15014220D01*
X39338770Y15014220D02*
X39193627Y15014220D01*
X39193627Y15014220D02*
X39121056Y15050506D01*
X39121056Y15050506D02*
X39084770Y15086792D01*
X39084770Y15086792D02*
X39048484Y15159363D01*
X32437055Y18696506D02*
X32473341Y18660220D01*
X32473341Y18660220D02*
X32582198Y18623935D01*
X32582198Y18623935D02*
X32654770Y18623935D01*
X32654770Y18623935D02*
X32763627Y18660220D01*
X32763627Y18660220D02*
X32836198Y18732792D01*
X32836198Y18732792D02*
X32872484Y18805363D01*
X32872484Y18805363D02*
X32908770Y18950506D01*
X32908770Y18950506D02*
X32908770Y19059363D01*
X32908770Y19059363D02*
X32872484Y19204506D01*
X32872484Y19204506D02*
X32836198Y19277078D01*
X32836198Y19277078D02*
X32763627Y19349649D01*
X32763627Y19349649D02*
X32654770Y19385935D01*
X32654770Y19385935D02*
X32582198Y19385935D01*
X32582198Y19385935D02*
X32473341Y19349649D01*
X32473341Y19349649D02*
X32437055Y19313363D01*
X32183055Y19385935D02*
X31711341Y19385935D01*
X31711341Y19385935D02*
X31965341Y19095649D01*
X31965341Y19095649D02*
X31856484Y19095649D01*
X31856484Y19095649D02*
X31783913Y19059363D01*
X31783913Y19059363D02*
X31747627Y19023078D01*
X31747627Y19023078D02*
X31711341Y18950506D01*
X31711341Y18950506D02*
X31711341Y18769078D01*
X31711341Y18769078D02*
X31747627Y18696506D01*
X31747627Y18696506D02*
X31783913Y18660220D01*
X31783913Y18660220D02*
X31856484Y18623935D01*
X31856484Y18623935D02*
X32074198Y18623935D01*
X32074198Y18623935D02*
X32146770Y18660220D01*
X32146770Y18660220D02*
X32183055Y18696506D01*
X31239627Y19385935D02*
X31167056Y19385935D01*
X31167056Y19385935D02*
X31094484Y19349649D01*
X31094484Y19349649D02*
X31058199Y19313363D01*
X31058199Y19313363D02*
X31021913Y19240792D01*
X31021913Y19240792D02*
X30985627Y19095649D01*
X30985627Y19095649D02*
X30985627Y18914220D01*
X30985627Y18914220D02*
X31021913Y18769078D01*
X31021913Y18769078D02*
X31058199Y18696506D01*
X31058199Y18696506D02*
X31094484Y18660220D01*
X31094484Y18660220D02*
X31167056Y18623935D01*
X31167056Y18623935D02*
X31239627Y18623935D01*
X31239627Y18623935D02*
X31312199Y18660220D01*
X31312199Y18660220D02*
X31348484Y18696506D01*
X31348484Y18696506D02*
X31384770Y18769078D01*
X31384770Y18769078D02*
X31421056Y18914220D01*
X31421056Y18914220D02*
X31421056Y19095649D01*
X31421056Y19095649D02*
X31384770Y19240792D01*
X31384770Y19240792D02*
X31348484Y19313363D01*
X31348484Y19313363D02*
X31312199Y19349649D01*
X31312199Y19349649D02*
X31239627Y19385935D01*
X35827808Y36467116D02*
X36444665Y36467116D01*
X36444665Y36467116D02*
X36517237Y36430830D01*
X36517237Y36430830D02*
X36553523Y36394544D01*
X36553523Y36394544D02*
X36589808Y36321973D01*
X36589808Y36321973D02*
X36589808Y36176830D01*
X36589808Y36176830D02*
X36553523Y36104259D01*
X36553523Y36104259D02*
X36517237Y36067973D01*
X36517237Y36067973D02*
X36444665Y36031687D01*
X36444665Y36031687D02*
X35827808Y36031687D01*
X36589808Y35632544D02*
X36589808Y35487401D01*
X36589808Y35487401D02*
X36553523Y35414830D01*
X36553523Y35414830D02*
X36517237Y35378544D01*
X36517237Y35378544D02*
X36408380Y35305973D01*
X36408380Y35305973D02*
X36263237Y35269687D01*
X36263237Y35269687D02*
X35972951Y35269687D01*
X35972951Y35269687D02*
X35900380Y35305973D01*
X35900380Y35305973D02*
X35864094Y35342258D01*
X35864094Y35342258D02*
X35827808Y35414830D01*
X35827808Y35414830D02*
X35827808Y35559973D01*
X35827808Y35559973D02*
X35864094Y35632544D01*
X35864094Y35632544D02*
X35900380Y35668830D01*
X35900380Y35668830D02*
X35972951Y35705116D01*
X35972951Y35705116D02*
X36154380Y35705116D01*
X36154380Y35705116D02*
X36226951Y35668830D01*
X36226951Y35668830D02*
X36263237Y35632544D01*
X36263237Y35632544D02*
X36299523Y35559973D01*
X36299523Y35559973D02*
X36299523Y35414830D01*
X36299523Y35414830D02*
X36263237Y35342258D01*
X36263237Y35342258D02*
X36226951Y35305973D01*
X36226951Y35305973D02*
X36154380Y35269687D01*
X45649627Y31083935D02*
X45649627Y31845935D01*
X45649627Y31845935D02*
X45468198Y31845935D01*
X45468198Y31845935D02*
X45359341Y31809649D01*
X45359341Y31809649D02*
X45286770Y31737078D01*
X45286770Y31737078D02*
X45250484Y31664506D01*
X45250484Y31664506D02*
X45214198Y31519363D01*
X45214198Y31519363D02*
X45214198Y31410506D01*
X45214198Y31410506D02*
X45250484Y31265363D01*
X45250484Y31265363D02*
X45286770Y31192792D01*
X45286770Y31192792D02*
X45359341Y31120220D01*
X45359341Y31120220D02*
X45468198Y31083935D01*
X45468198Y31083935D02*
X45649627Y31083935D01*
X44778770Y31519363D02*
X44851341Y31555649D01*
X44851341Y31555649D02*
X44887627Y31591935D01*
X44887627Y31591935D02*
X44923913Y31664506D01*
X44923913Y31664506D02*
X44923913Y31700792D01*
X44923913Y31700792D02*
X44887627Y31773363D01*
X44887627Y31773363D02*
X44851341Y31809649D01*
X44851341Y31809649D02*
X44778770Y31845935D01*
X44778770Y31845935D02*
X44633627Y31845935D01*
X44633627Y31845935D02*
X44561056Y31809649D01*
X44561056Y31809649D02*
X44524770Y31773363D01*
X44524770Y31773363D02*
X44488484Y31700792D01*
X44488484Y31700792D02*
X44488484Y31664506D01*
X44488484Y31664506D02*
X44524770Y31591935D01*
X44524770Y31591935D02*
X44561056Y31555649D01*
X44561056Y31555649D02*
X44633627Y31519363D01*
X44633627Y31519363D02*
X44778770Y31519363D01*
X44778770Y31519363D02*
X44851341Y31483078D01*
X44851341Y31483078D02*
X44887627Y31446792D01*
X44887627Y31446792D02*
X44923913Y31374220D01*
X44923913Y31374220D02*
X44923913Y31229078D01*
X44923913Y31229078D02*
X44887627Y31156506D01*
X44887627Y31156506D02*
X44851341Y31120220D01*
X44851341Y31120220D02*
X44778770Y31083935D01*
X44778770Y31083935D02*
X44633627Y31083935D01*
X44633627Y31083935D02*
X44561056Y31120220D01*
X44561056Y31120220D02*
X44524770Y31156506D01*
X44524770Y31156506D02*
X44488484Y31229078D01*
X44488484Y31229078D02*
X44488484Y31374220D01*
X44488484Y31374220D02*
X44524770Y31446792D01*
X44524770Y31446792D02*
X44561056Y31483078D01*
X44561056Y31483078D02*
X44633627Y31519363D01*
D12*
X3962707Y50524759D02*
X3660326Y50736426D01*
X3962707Y50887616D02*
X3327707Y50887616D01*
X3327707Y50887616D02*
X3327707Y50645711D01*
X3327707Y50645711D02*
X3357945Y50585235D01*
X3357945Y50585235D02*
X3388183Y50554997D01*
X3388183Y50554997D02*
X3448659Y50524759D01*
X3448659Y50524759D02*
X3539373Y50524759D01*
X3539373Y50524759D02*
X3599849Y50554997D01*
X3599849Y50554997D02*
X3630088Y50585235D01*
X3630088Y50585235D02*
X3660326Y50645711D01*
X3660326Y50645711D02*
X3660326Y50887616D01*
X3388183Y50282854D02*
X3357945Y50252616D01*
X3357945Y50252616D02*
X3327707Y50192140D01*
X3327707Y50192140D02*
X3327707Y50040949D01*
X3327707Y50040949D02*
X3357945Y49980473D01*
X3357945Y49980473D02*
X3388183Y49950235D01*
X3388183Y49950235D02*
X3448659Y49919997D01*
X3448659Y49919997D02*
X3509135Y49919997D01*
X3509135Y49919997D02*
X3599849Y49950235D01*
X3599849Y49950235D02*
X3962707Y50313092D01*
X3962707Y50313092D02*
X3962707Y49919997D01*
X3539373Y49375711D02*
X3962707Y49375711D01*
X3297469Y49526902D02*
X3751040Y49678092D01*
X3751040Y49678092D02*
X3751040Y49284997D01*
X46542707Y17434759D02*
X46240326Y17646426D01*
X46542707Y17797616D02*
X45907707Y17797616D01*
X45907707Y17797616D02*
X45907707Y17555711D01*
X45907707Y17555711D02*
X45937945Y17495235D01*
X45937945Y17495235D02*
X45968183Y17464997D01*
X45968183Y17464997D02*
X46028659Y17434759D01*
X46028659Y17434759D02*
X46119373Y17434759D01*
X46119373Y17434759D02*
X46179849Y17464997D01*
X46179849Y17464997D02*
X46210088Y17495235D01*
X46210088Y17495235D02*
X46240326Y17555711D01*
X46240326Y17555711D02*
X46240326Y17797616D01*
X46542707Y16829997D02*
X46542707Y17192854D01*
X46542707Y17011426D02*
X45907707Y17011426D01*
X45907707Y17011426D02*
X45998421Y17071902D01*
X45998421Y17071902D02*
X46058897Y17132378D01*
X46058897Y17132378D02*
X46089135Y17192854D01*
X45907707Y16618330D02*
X45907707Y16194997D01*
X45907707Y16194997D02*
X46542707Y16467140D01*
D11*
X36934198Y23803935D02*
X37188198Y24166792D01*
X37369627Y23803935D02*
X37369627Y24565935D01*
X37369627Y24565935D02*
X37079341Y24565935D01*
X37079341Y24565935D02*
X37006770Y24529649D01*
X37006770Y24529649D02*
X36970484Y24493363D01*
X36970484Y24493363D02*
X36934198Y24420792D01*
X36934198Y24420792D02*
X36934198Y24311935D01*
X36934198Y24311935D02*
X36970484Y24239363D01*
X36970484Y24239363D02*
X37006770Y24203078D01*
X37006770Y24203078D02*
X37079341Y24166792D01*
X37079341Y24166792D02*
X37369627Y24166792D01*
X36680198Y24565935D02*
X36172198Y24565935D01*
X36172198Y24565935D02*
X36498770Y23803935D01*
X6527055Y58016506D02*
X6563341Y57980220D01*
X6563341Y57980220D02*
X6672198Y57943935D01*
X6672198Y57943935D02*
X6744770Y57943935D01*
X6744770Y57943935D02*
X6853627Y57980220D01*
X6853627Y57980220D02*
X6926198Y58052792D01*
X6926198Y58052792D02*
X6962484Y58125363D01*
X6962484Y58125363D02*
X6998770Y58270506D01*
X6998770Y58270506D02*
X6998770Y58379363D01*
X6998770Y58379363D02*
X6962484Y58524506D01*
X6962484Y58524506D02*
X6926198Y58597078D01*
X6926198Y58597078D02*
X6853627Y58669649D01*
X6853627Y58669649D02*
X6744770Y58705935D01*
X6744770Y58705935D02*
X6672198Y58705935D01*
X6672198Y58705935D02*
X6563341Y58669649D01*
X6563341Y58669649D02*
X6527055Y58633363D01*
X6273055Y58705935D02*
X5801341Y58705935D01*
X5801341Y58705935D02*
X6055341Y58415649D01*
X6055341Y58415649D02*
X5946484Y58415649D01*
X5946484Y58415649D02*
X5873913Y58379363D01*
X5873913Y58379363D02*
X5837627Y58343078D01*
X5837627Y58343078D02*
X5801341Y58270506D01*
X5801341Y58270506D02*
X5801341Y58089078D01*
X5801341Y58089078D02*
X5837627Y58016506D01*
X5837627Y58016506D02*
X5873913Y57980220D01*
X5873913Y57980220D02*
X5946484Y57943935D01*
X5946484Y57943935D02*
X6164198Y57943935D01*
X6164198Y57943935D02*
X6236770Y57980220D01*
X6236770Y57980220D02*
X6273055Y58016506D01*
X5075627Y57943935D02*
X5511056Y57943935D01*
X5293341Y57943935D02*
X5293341Y58705935D01*
X5293341Y58705935D02*
X5365913Y58597078D01*
X5365913Y58597078D02*
X5438484Y58524506D01*
X5438484Y58524506D02*
X5511056Y58488220D01*
X19657340Y55743935D02*
X19911340Y56106792D01*
X20092769Y55743935D02*
X20092769Y56505935D01*
X20092769Y56505935D02*
X19802483Y56505935D01*
X19802483Y56505935D02*
X19729912Y56469649D01*
X19729912Y56469649D02*
X19693626Y56433363D01*
X19693626Y56433363D02*
X19657340Y56360792D01*
X19657340Y56360792D02*
X19657340Y56251935D01*
X19657340Y56251935D02*
X19693626Y56179363D01*
X19693626Y56179363D02*
X19729912Y56143078D01*
X19729912Y56143078D02*
X19802483Y56106792D01*
X19802483Y56106792D02*
X20092769Y56106792D01*
X19367055Y55780220D02*
X19258198Y55743935D01*
X19258198Y55743935D02*
X19076769Y55743935D01*
X19076769Y55743935D02*
X19004198Y55780220D01*
X19004198Y55780220D02*
X18967912Y55816506D01*
X18967912Y55816506D02*
X18931626Y55889078D01*
X18931626Y55889078D02*
X18931626Y55961649D01*
X18931626Y55961649D02*
X18967912Y56034220D01*
X18967912Y56034220D02*
X19004198Y56070506D01*
X19004198Y56070506D02*
X19076769Y56106792D01*
X19076769Y56106792D02*
X19221912Y56143078D01*
X19221912Y56143078D02*
X19294483Y56179363D01*
X19294483Y56179363D02*
X19330769Y56215649D01*
X19330769Y56215649D02*
X19367055Y56288220D01*
X19367055Y56288220D02*
X19367055Y56360792D01*
X19367055Y56360792D02*
X19330769Y56433363D01*
X19330769Y56433363D02*
X19294483Y56469649D01*
X19294483Y56469649D02*
X19221912Y56505935D01*
X19221912Y56505935D02*
X19040483Y56505935D01*
X19040483Y56505935D02*
X18931626Y56469649D01*
X18713912Y56505935D02*
X18278484Y56505935D01*
X18496198Y55743935D02*
X18496198Y56505935D01*
X17625341Y55743935D02*
X18060770Y55743935D01*
X17843055Y55743935D02*
X17843055Y56505935D01*
X17843055Y56505935D02*
X17915627Y56397078D01*
X17915627Y56397078D02*
X17988198Y56324506D01*
X17988198Y56324506D02*
X18060770Y56288220D01*
D12*
X6090687Y47002010D02*
X6302354Y47304391D01*
X6453544Y47002010D02*
X6453544Y47637010D01*
X6453544Y47637010D02*
X6211639Y47637010D01*
X6211639Y47637010D02*
X6151163Y47606772D01*
X6151163Y47606772D02*
X6120925Y47576534D01*
X6120925Y47576534D02*
X6090687Y47516058D01*
X6090687Y47516058D02*
X6090687Y47425344D01*
X6090687Y47425344D02*
X6120925Y47364868D01*
X6120925Y47364868D02*
X6151163Y47334629D01*
X6151163Y47334629D02*
X6211639Y47304391D01*
X6211639Y47304391D02*
X6453544Y47304391D01*
X5546401Y47425344D02*
X5546401Y47002010D01*
X5697592Y47667248D02*
X5848782Y47213677D01*
X5848782Y47213677D02*
X5455687Y47213677D01*
X4941639Y47637010D02*
X5062592Y47637010D01*
X5062592Y47637010D02*
X5123068Y47606772D01*
X5123068Y47606772D02*
X5153306Y47576534D01*
X5153306Y47576534D02*
X5213782Y47485820D01*
X5213782Y47485820D02*
X5244020Y47364868D01*
X5244020Y47364868D02*
X5244020Y47122963D01*
X5244020Y47122963D02*
X5213782Y47062487D01*
X5213782Y47062487D02*
X5183544Y47032248D01*
X5183544Y47032248D02*
X5123068Y47002010D01*
X5123068Y47002010D02*
X5002115Y47002010D01*
X5002115Y47002010D02*
X4941639Y47032248D01*
X4941639Y47032248D02*
X4911401Y47062487D01*
X4911401Y47062487D02*
X4881163Y47122963D01*
X4881163Y47122963D02*
X4881163Y47274153D01*
X4881163Y47274153D02*
X4911401Y47334629D01*
X4911401Y47334629D02*
X4941639Y47364868D01*
X4941639Y47364868D02*
X5002115Y47395106D01*
X5002115Y47395106D02*
X5123068Y47395106D01*
X5123068Y47395106D02*
X5183544Y47364868D01*
X5183544Y47364868D02*
X5213782Y47334629D01*
X5213782Y47334629D02*
X5244020Y47274153D01*
X2308901Y20624759D02*
X2006520Y20836426D01*
X2308901Y20987616D02*
X1673901Y20987616D01*
X1673901Y20987616D02*
X1673901Y20745711D01*
X1673901Y20745711D02*
X1704139Y20685235D01*
X1704139Y20685235D02*
X1734377Y20654997D01*
X1734377Y20654997D02*
X1794853Y20624759D01*
X1794853Y20624759D02*
X1885567Y20624759D01*
X1885567Y20624759D02*
X1946043Y20654997D01*
X1946043Y20654997D02*
X1976282Y20685235D01*
X1976282Y20685235D02*
X2006520Y20745711D01*
X2006520Y20745711D02*
X2006520Y20987616D01*
X1734377Y20382854D02*
X1704139Y20352616D01*
X1704139Y20352616D02*
X1673901Y20292140D01*
X1673901Y20292140D02*
X1673901Y20140949D01*
X1673901Y20140949D02*
X1704139Y20080473D01*
X1704139Y20080473D02*
X1734377Y20050235D01*
X1734377Y20050235D02*
X1794853Y20019997D01*
X1794853Y20019997D02*
X1855329Y20019997D01*
X1855329Y20019997D02*
X1946043Y20050235D01*
X1946043Y20050235D02*
X2308901Y20413092D01*
X2308901Y20413092D02*
X2308901Y20019997D01*
X1673901Y19445473D02*
X1673901Y19747854D01*
X1673901Y19747854D02*
X1976282Y19778092D01*
X1976282Y19778092D02*
X1946043Y19747854D01*
X1946043Y19747854D02*
X1915805Y19687378D01*
X1915805Y19687378D02*
X1915805Y19536187D01*
X1915805Y19536187D02*
X1946043Y19475711D01*
X1946043Y19475711D02*
X1976282Y19445473D01*
X1976282Y19445473D02*
X2036758Y19415235D01*
X2036758Y19415235D02*
X2187948Y19415235D01*
X2187948Y19415235D02*
X2248424Y19445473D01*
X2248424Y19445473D02*
X2278663Y19475711D01*
X2278663Y19475711D02*
X2308901Y19536187D01*
X2308901Y19536187D02*
X2308901Y19687378D01*
X2308901Y19687378D02*
X2278663Y19747854D01*
X2278663Y19747854D02*
X2248424Y19778092D01*
D11*
X44767808Y37319973D02*
X45384665Y37319973D01*
X45384665Y37319973D02*
X45457237Y37283687D01*
X45457237Y37283687D02*
X45493523Y37247401D01*
X45493523Y37247401D02*
X45529808Y37174830D01*
X45529808Y37174830D02*
X45529808Y37029687D01*
X45529808Y37029687D02*
X45493523Y36957116D01*
X45493523Y36957116D02*
X45457237Y36920830D01*
X45457237Y36920830D02*
X45384665Y36884544D01*
X45384665Y36884544D02*
X44767808Y36884544D01*
X45529808Y36122544D02*
X45529808Y36557973D01*
X45529808Y36340258D02*
X44767808Y36340258D01*
X44767808Y36340258D02*
X44876665Y36412830D01*
X44876665Y36412830D02*
X44949237Y36485401D01*
X44949237Y36485401D02*
X44985523Y36557973D01*
X44767808Y35650830D02*
X44767808Y35578259D01*
X44767808Y35578259D02*
X44804094Y35505687D01*
X44804094Y35505687D02*
X44840380Y35469401D01*
X44840380Y35469401D02*
X44912951Y35433116D01*
X44912951Y35433116D02*
X45058094Y35396830D01*
X45058094Y35396830D02*
X45239523Y35396830D01*
X45239523Y35396830D02*
X45384665Y35433116D01*
X45384665Y35433116D02*
X45457237Y35469401D01*
X45457237Y35469401D02*
X45493523Y35505687D01*
X45493523Y35505687D02*
X45529808Y35578259D01*
X45529808Y35578259D02*
X45529808Y35650830D01*
X45529808Y35650830D02*
X45493523Y35723401D01*
X45493523Y35723401D02*
X45457237Y35759687D01*
X45457237Y35759687D02*
X45384665Y35795973D01*
X45384665Y35795973D02*
X45239523Y35832259D01*
X45239523Y35832259D02*
X45058094Y35832259D01*
X45058094Y35832259D02*
X44912951Y35795973D01*
X44912951Y35795973D02*
X44840380Y35759687D01*
X44840380Y35759687D02*
X44804094Y35723401D01*
X44804094Y35723401D02*
X44767808Y35650830D01*
D12*
X6942230Y20204759D02*
X6972469Y20234997D01*
X6972469Y20234997D02*
X7002707Y20325711D01*
X7002707Y20325711D02*
X7002707Y20386187D01*
X7002707Y20386187D02*
X6972469Y20476902D01*
X6972469Y20476902D02*
X6911992Y20537378D01*
X6911992Y20537378D02*
X6851516Y20567616D01*
X6851516Y20567616D02*
X6730564Y20597854D01*
X6730564Y20597854D02*
X6639849Y20597854D01*
X6639849Y20597854D02*
X6518897Y20567616D01*
X6518897Y20567616D02*
X6458421Y20537378D01*
X6458421Y20537378D02*
X6397945Y20476902D01*
X6397945Y20476902D02*
X6367707Y20386187D01*
X6367707Y20386187D02*
X6367707Y20325711D01*
X6367707Y20325711D02*
X6397945Y20234997D01*
X6397945Y20234997D02*
X6428183Y20204759D01*
X7002707Y19599997D02*
X7002707Y19962854D01*
X7002707Y19781426D02*
X6367707Y19781426D01*
X6367707Y19781426D02*
X6458421Y19841902D01*
X6458421Y19841902D02*
X6518897Y19902378D01*
X6518897Y19902378D02*
X6549135Y19962854D01*
X7002707Y18995235D02*
X7002707Y19358092D01*
X7002707Y19176664D02*
X6367707Y19176664D01*
X6367707Y19176664D02*
X6458421Y19237140D01*
X6458421Y19237140D02*
X6518897Y19297616D01*
X6518897Y19297616D02*
X6549135Y19358092D01*
D11*
X47389808Y43988973D02*
X46627808Y43988973D01*
X46627808Y43988973D02*
X46627808Y43807544D01*
X46627808Y43807544D02*
X46664094Y43698687D01*
X46664094Y43698687D02*
X46736665Y43626116D01*
X46736665Y43626116D02*
X46809237Y43589830D01*
X46809237Y43589830D02*
X46954380Y43553544D01*
X46954380Y43553544D02*
X47063237Y43553544D01*
X47063237Y43553544D02*
X47208380Y43589830D01*
X47208380Y43589830D02*
X47280951Y43626116D01*
X47280951Y43626116D02*
X47353523Y43698687D01*
X47353523Y43698687D02*
X47389808Y43807544D01*
X47389808Y43807544D02*
X47389808Y43988973D01*
X47389808Y43190687D02*
X47389808Y43045544D01*
X47389808Y43045544D02*
X47353523Y42972973D01*
X47353523Y42972973D02*
X47317237Y42936687D01*
X47317237Y42936687D02*
X47208380Y42864116D01*
X47208380Y42864116D02*
X47063237Y42827830D01*
X47063237Y42827830D02*
X46772951Y42827830D01*
X46772951Y42827830D02*
X46700380Y42864116D01*
X46700380Y42864116D02*
X46664094Y42900401D01*
X46664094Y42900401D02*
X46627808Y42972973D01*
X46627808Y42972973D02*
X46627808Y43118116D01*
X46627808Y43118116D02*
X46664094Y43190687D01*
X46664094Y43190687D02*
X46700380Y43226973D01*
X46700380Y43226973D02*
X46772951Y43263259D01*
X46772951Y43263259D02*
X46954380Y43263259D01*
X46954380Y43263259D02*
X47026951Y43226973D01*
X47026951Y43226973D02*
X47063237Y43190687D01*
X47063237Y43190687D02*
X47099523Y43118116D01*
X47099523Y43118116D02*
X47099523Y42972973D01*
X47099523Y42972973D02*
X47063237Y42900401D01*
X47063237Y42900401D02*
X47026951Y42864116D01*
X47026951Y42864116D02*
X46954380Y42827830D01*
X42359770Y46131363D02*
X42432341Y46167649D01*
X42432341Y46167649D02*
X42504913Y46240220D01*
X42504913Y46240220D02*
X42613770Y46349078D01*
X42613770Y46349078D02*
X42686341Y46385363D01*
X42686341Y46385363D02*
X42758913Y46385363D01*
X42722627Y46203935D02*
X42795199Y46240220D01*
X42795199Y46240220D02*
X42867770Y46312792D01*
X42867770Y46312792D02*
X42904056Y46457935D01*
X42904056Y46457935D02*
X42904056Y46711935D01*
X42904056Y46711935D02*
X42867770Y46857078D01*
X42867770Y46857078D02*
X42795199Y46929649D01*
X42795199Y46929649D02*
X42722627Y46965935D01*
X42722627Y46965935D02*
X42577484Y46965935D01*
X42577484Y46965935D02*
X42504913Y46929649D01*
X42504913Y46929649D02*
X42432341Y46857078D01*
X42432341Y46857078D02*
X42396056Y46711935D01*
X42396056Y46711935D02*
X42396056Y46457935D01*
X42396056Y46457935D02*
X42432341Y46312792D01*
X42432341Y46312792D02*
X42504913Y46240220D01*
X42504913Y46240220D02*
X42577484Y46203935D01*
X42577484Y46203935D02*
X42722627Y46203935D01*
X41742913Y46711935D02*
X41742913Y46203935D01*
X41924341Y47002220D02*
X42105770Y46457935D01*
X42105770Y46457935D02*
X41634055Y46457935D01*
X11362458Y51368710D02*
X10600458Y51368710D01*
X10600458Y51368710D02*
X10600458Y51187281D01*
X10600458Y51187281D02*
X10636744Y51078424D01*
X10636744Y51078424D02*
X10709315Y51005853D01*
X10709315Y51005853D02*
X10781887Y50969567D01*
X10781887Y50969567D02*
X10927030Y50933281D01*
X10927030Y50933281D02*
X11035887Y50933281D01*
X11035887Y50933281D02*
X11181030Y50969567D01*
X11181030Y50969567D02*
X11253601Y51005853D01*
X11253601Y51005853D02*
X11326173Y51078424D01*
X11326173Y51078424D02*
X11362458Y51187281D01*
X11362458Y51187281D02*
X11362458Y51368710D01*
X11362458Y50207567D02*
X11362458Y50642996D01*
X11362458Y50425281D02*
X10600458Y50425281D01*
X10600458Y50425281D02*
X10709315Y50497853D01*
X10709315Y50497853D02*
X10781887Y50570424D01*
X10781887Y50570424D02*
X10818173Y50642996D01*
X10600458Y49735853D02*
X10600458Y49663282D01*
X10600458Y49663282D02*
X10636744Y49590710D01*
X10636744Y49590710D02*
X10673030Y49554424D01*
X10673030Y49554424D02*
X10745601Y49518139D01*
X10745601Y49518139D02*
X10890744Y49481853D01*
X10890744Y49481853D02*
X11072173Y49481853D01*
X11072173Y49481853D02*
X11217315Y49518139D01*
X11217315Y49518139D02*
X11289887Y49554424D01*
X11289887Y49554424D02*
X11326173Y49590710D01*
X11326173Y49590710D02*
X11362458Y49663282D01*
X11362458Y49663282D02*
X11362458Y49735853D01*
X11362458Y49735853D02*
X11326173Y49808424D01*
X11326173Y49808424D02*
X11289887Y49844710D01*
X11289887Y49844710D02*
X11217315Y49880996D01*
X11217315Y49880996D02*
X11072173Y49917282D01*
X11072173Y49917282D02*
X10890744Y49917282D01*
X10890744Y49917282D02*
X10745601Y49880996D01*
X10745601Y49880996D02*
X10673030Y49844710D01*
X10673030Y49844710D02*
X10636744Y49808424D01*
X10636744Y49808424D02*
X10600458Y49735853D01*
X5087055Y53353935D02*
X5341055Y53716792D01*
X5522484Y53353935D02*
X5522484Y54115935D01*
X5522484Y54115935D02*
X5232198Y54115935D01*
X5232198Y54115935D02*
X5159627Y54079649D01*
X5159627Y54079649D02*
X5123341Y54043363D01*
X5123341Y54043363D02*
X5087055Y53970792D01*
X5087055Y53970792D02*
X5087055Y53861935D01*
X5087055Y53861935D02*
X5123341Y53789363D01*
X5123341Y53789363D02*
X5159627Y53753078D01*
X5159627Y53753078D02*
X5232198Y53716792D01*
X5232198Y53716792D02*
X5522484Y53716792D01*
X4397627Y54115935D02*
X4760484Y54115935D01*
X4760484Y54115935D02*
X4796770Y53753078D01*
X4796770Y53753078D02*
X4760484Y53789363D01*
X4760484Y53789363D02*
X4687913Y53825649D01*
X4687913Y53825649D02*
X4506484Y53825649D01*
X4506484Y53825649D02*
X4433913Y53789363D01*
X4433913Y53789363D02*
X4397627Y53753078D01*
X4397627Y53753078D02*
X4361341Y53680506D01*
X4361341Y53680506D02*
X4361341Y53499078D01*
X4361341Y53499078D02*
X4397627Y53426506D01*
X4397627Y53426506D02*
X4433913Y53390220D01*
X4433913Y53390220D02*
X4506484Y53353935D01*
X4506484Y53353935D02*
X4687913Y53353935D01*
X4687913Y53353935D02*
X4760484Y53390220D01*
X4760484Y53390220D02*
X4796770Y53426506D01*
X4071056Y54043363D02*
X4034770Y54079649D01*
X4034770Y54079649D02*
X3962199Y54115935D01*
X3962199Y54115935D02*
X3780770Y54115935D01*
X3780770Y54115935D02*
X3708199Y54079649D01*
X3708199Y54079649D02*
X3671913Y54043363D01*
X3671913Y54043363D02*
X3635627Y53970792D01*
X3635627Y53970792D02*
X3635627Y53898220D01*
X3635627Y53898220D02*
X3671913Y53789363D01*
X3671913Y53789363D02*
X4107341Y53353935D01*
X4107341Y53353935D02*
X3635627Y53353935D01*
X11307055Y54573935D02*
X11561055Y54936792D01*
X11742484Y54573935D02*
X11742484Y55335935D01*
X11742484Y55335935D02*
X11452198Y55335935D01*
X11452198Y55335935D02*
X11379627Y55299649D01*
X11379627Y55299649D02*
X11343341Y55263363D01*
X11343341Y55263363D02*
X11307055Y55190792D01*
X11307055Y55190792D02*
X11307055Y55081935D01*
X11307055Y55081935D02*
X11343341Y55009363D01*
X11343341Y55009363D02*
X11379627Y54973078D01*
X11379627Y54973078D02*
X11452198Y54936792D01*
X11452198Y54936792D02*
X11742484Y54936792D01*
X10617627Y55335935D02*
X10980484Y55335935D01*
X10980484Y55335935D02*
X11016770Y54973078D01*
X11016770Y54973078D02*
X10980484Y55009363D01*
X10980484Y55009363D02*
X10907913Y55045649D01*
X10907913Y55045649D02*
X10726484Y55045649D01*
X10726484Y55045649D02*
X10653913Y55009363D01*
X10653913Y55009363D02*
X10617627Y54973078D01*
X10617627Y54973078D02*
X10581341Y54900506D01*
X10581341Y54900506D02*
X10581341Y54719078D01*
X10581341Y54719078D02*
X10617627Y54646506D01*
X10617627Y54646506D02*
X10653913Y54610220D01*
X10653913Y54610220D02*
X10726484Y54573935D01*
X10726484Y54573935D02*
X10907913Y54573935D01*
X10907913Y54573935D02*
X10980484Y54610220D01*
X10980484Y54610220D02*
X11016770Y54646506D01*
X10145913Y55009363D02*
X10218484Y55045649D01*
X10218484Y55045649D02*
X10254770Y55081935D01*
X10254770Y55081935D02*
X10291056Y55154506D01*
X10291056Y55154506D02*
X10291056Y55190792D01*
X10291056Y55190792D02*
X10254770Y55263363D01*
X10254770Y55263363D02*
X10218484Y55299649D01*
X10218484Y55299649D02*
X10145913Y55335935D01*
X10145913Y55335935D02*
X10000770Y55335935D01*
X10000770Y55335935D02*
X9928199Y55299649D01*
X9928199Y55299649D02*
X9891913Y55263363D01*
X9891913Y55263363D02*
X9855627Y55190792D01*
X9855627Y55190792D02*
X9855627Y55154506D01*
X9855627Y55154506D02*
X9891913Y55081935D01*
X9891913Y55081935D02*
X9928199Y55045649D01*
X9928199Y55045649D02*
X10000770Y55009363D01*
X10000770Y55009363D02*
X10145913Y55009363D01*
X10145913Y55009363D02*
X10218484Y54973078D01*
X10218484Y54973078D02*
X10254770Y54936792D01*
X10254770Y54936792D02*
X10291056Y54864220D01*
X10291056Y54864220D02*
X10291056Y54719078D01*
X10291056Y54719078D02*
X10254770Y54646506D01*
X10254770Y54646506D02*
X10218484Y54610220D01*
X10218484Y54610220D02*
X10145913Y54573935D01*
X10145913Y54573935D02*
X10000770Y54573935D01*
X10000770Y54573935D02*
X9928199Y54610220D01*
X9928199Y54610220D02*
X9891913Y54646506D01*
X9891913Y54646506D02*
X9855627Y54719078D01*
X9855627Y54719078D02*
X9855627Y54864220D01*
X9855627Y54864220D02*
X9891913Y54936792D01*
X9891913Y54936792D02*
X9928199Y54973078D01*
X9928199Y54973078D02*
X10000770Y55009363D01*
X16020458Y51156853D02*
X16637315Y51156853D01*
X16637315Y51156853D02*
X16709887Y51120567D01*
X16709887Y51120567D02*
X16746173Y51084281D01*
X16746173Y51084281D02*
X16782458Y51011710D01*
X16782458Y51011710D02*
X16782458Y50866567D01*
X16782458Y50866567D02*
X16746173Y50793996D01*
X16746173Y50793996D02*
X16709887Y50757710D01*
X16709887Y50757710D02*
X16637315Y50721424D01*
X16637315Y50721424D02*
X16020458Y50721424D01*
X16782458Y49959424D02*
X16782458Y50394853D01*
X16782458Y50177138D02*
X16020458Y50177138D01*
X16020458Y50177138D02*
X16129315Y50249710D01*
X16129315Y50249710D02*
X16201887Y50322281D01*
X16201887Y50322281D02*
X16238173Y50394853D01*
X16782458Y49233710D02*
X16782458Y49669139D01*
X16782458Y49451424D02*
X16020458Y49451424D01*
X16020458Y49451424D02*
X16129315Y49523996D01*
X16129315Y49523996D02*
X16201887Y49596567D01*
X16201887Y49596567D02*
X16238173Y49669139D01*
X20566198Y34123078D02*
X20820198Y34123078D01*
X20820198Y33723935D02*
X20820198Y34485935D01*
X20820198Y34485935D02*
X20457341Y34485935D01*
X20167055Y34123078D02*
X19913055Y34123078D01*
X19804198Y33723935D02*
X20167055Y33723935D01*
X20167055Y33723935D02*
X20167055Y34485935D01*
X20167055Y34485935D02*
X19804198Y34485935D01*
X19586483Y34485935D02*
X19151055Y34485935D01*
X19368769Y33723935D02*
X19368769Y34485935D01*
X18570484Y34231935D02*
X18570484Y33723935D01*
X18751912Y34522220D02*
X18933341Y33977935D01*
X18933341Y33977935D02*
X18461626Y33977935D01*
X17797055Y53296506D02*
X17833341Y53260220D01*
X17833341Y53260220D02*
X17942198Y53223935D01*
X17942198Y53223935D02*
X18014770Y53223935D01*
X18014770Y53223935D02*
X18123627Y53260220D01*
X18123627Y53260220D02*
X18196198Y53332792D01*
X18196198Y53332792D02*
X18232484Y53405363D01*
X18232484Y53405363D02*
X18268770Y53550506D01*
X18268770Y53550506D02*
X18268770Y53659363D01*
X18268770Y53659363D02*
X18232484Y53804506D01*
X18232484Y53804506D02*
X18196198Y53877078D01*
X18196198Y53877078D02*
X18123627Y53949649D01*
X18123627Y53949649D02*
X18014770Y53985935D01*
X18014770Y53985935D02*
X17942198Y53985935D01*
X17942198Y53985935D02*
X17833341Y53949649D01*
X17833341Y53949649D02*
X17797055Y53913363D01*
X17543055Y53985935D02*
X17071341Y53985935D01*
X17071341Y53985935D02*
X17325341Y53695649D01*
X17325341Y53695649D02*
X17216484Y53695649D01*
X17216484Y53695649D02*
X17143913Y53659363D01*
X17143913Y53659363D02*
X17107627Y53623078D01*
X17107627Y53623078D02*
X17071341Y53550506D01*
X17071341Y53550506D02*
X17071341Y53369078D01*
X17071341Y53369078D02*
X17107627Y53296506D01*
X17107627Y53296506D02*
X17143913Y53260220D01*
X17143913Y53260220D02*
X17216484Y53223935D01*
X17216484Y53223935D02*
X17434198Y53223935D01*
X17434198Y53223935D02*
X17506770Y53260220D01*
X17506770Y53260220D02*
X17543055Y53296506D01*
X16781056Y53913363D02*
X16744770Y53949649D01*
X16744770Y53949649D02*
X16672199Y53985935D01*
X16672199Y53985935D02*
X16490770Y53985935D01*
X16490770Y53985935D02*
X16418199Y53949649D01*
X16418199Y53949649D02*
X16381913Y53913363D01*
X16381913Y53913363D02*
X16345627Y53840792D01*
X16345627Y53840792D02*
X16345627Y53768220D01*
X16345627Y53768220D02*
X16381913Y53659363D01*
X16381913Y53659363D02*
X16817341Y53223935D01*
X16817341Y53223935D02*
X16345627Y53223935D01*
D10*
X8366529Y47626216D02*
X8366529Y46816693D01*
X8366529Y46816693D02*
X8318910Y46721455D01*
X8318910Y46721455D02*
X8271291Y46673835D01*
X8271291Y46673835D02*
X8176053Y46626216D01*
X8176053Y46626216D02*
X7985577Y46626216D01*
X7985577Y46626216D02*
X7890339Y46673835D01*
X7890339Y46673835D02*
X7842720Y46721455D01*
X7842720Y46721455D02*
X7795101Y46816693D01*
X7795101Y46816693D02*
X7795101Y47626216D01*
X6795101Y46626216D02*
X7366529Y46626216D01*
X7080815Y46626216D02*
X7080815Y47626216D01*
X7080815Y47626216D02*
X7176053Y47483359D01*
X7176053Y47483359D02*
X7271291Y47388121D01*
X7271291Y47388121D02*
X7366529Y47340502D01*
X6461767Y47626216D02*
X5842720Y47626216D01*
X5842720Y47626216D02*
X6176053Y47245264D01*
X6176053Y47245264D02*
X6033196Y47245264D01*
X6033196Y47245264D02*
X5937958Y47197645D01*
X5937958Y47197645D02*
X5890339Y47150026D01*
X5890339Y47150026D02*
X5842720Y47054788D01*
X5842720Y47054788D02*
X5842720Y46816693D01*
X5842720Y46816693D02*
X5890339Y46721455D01*
X5890339Y46721455D02*
X5937958Y46673835D01*
X5937958Y46673835D02*
X6033196Y46626216D01*
X6033196Y46626216D02*
X6318910Y46626216D01*
X6318910Y46626216D02*
X6414148Y46673835D01*
X6414148Y46673835D02*
X6461767Y46721455D01*
X21564252Y47327295D02*
X21564252Y46517772D01*
X21564252Y46517772D02*
X21516633Y46422534D01*
X21516633Y46422534D02*
X21469014Y46374914D01*
X21469014Y46374914D02*
X21373776Y46327295D01*
X21373776Y46327295D02*
X21183300Y46327295D01*
X21183300Y46327295D02*
X21088062Y46374914D01*
X21088062Y46374914D02*
X21040443Y46422534D01*
X21040443Y46422534D02*
X20992824Y46517772D01*
X20992824Y46517772D02*
X20992824Y47327295D01*
X19992824Y46327295D02*
X20564252Y46327295D01*
X20278538Y46327295D02*
X20278538Y47327295D01*
X20278538Y47327295D02*
X20373776Y47184438D01*
X20373776Y47184438D02*
X20469014Y47089200D01*
X20469014Y47089200D02*
X20564252Y47041581D01*
X19611871Y47232057D02*
X19564252Y47279676D01*
X19564252Y47279676D02*
X19469014Y47327295D01*
X19469014Y47327295D02*
X19230919Y47327295D01*
X19230919Y47327295D02*
X19135681Y47279676D01*
X19135681Y47279676D02*
X19088062Y47232057D01*
X19088062Y47232057D02*
X19040443Y47136819D01*
X19040443Y47136819D02*
X19040443Y47041581D01*
X19040443Y47041581D02*
X19088062Y46898724D01*
X19088062Y46898724D02*
X19659490Y46327295D01*
X19659490Y46327295D02*
X19040443Y46327295D01*
D13*
%TO.C,D4*%
X43114157Y25379575D02*
X48114157Y25379575D01*
X46304157Y25379575D02*
X46304157Y22679575D01*
X46744157Y25379575D02*
X46744157Y22679575D01*
X48114157Y22679575D02*
X43114157Y22679575D01*
%TO.C,FET1*%
X42422008Y20169766D02*
X42422008Y19331566D01*
X43133208Y19331566D02*
X42422008Y19331566D01*
X45266808Y20169766D02*
X45266808Y19331566D01*
X45266808Y19331566D02*
X44555608Y19331566D01*
%TO.C,PHY_RST1*%
X1731269Y34314553D02*
X1731269Y32790553D01*
X1985269Y32536553D02*
X4779269Y32536553D01*
X4779269Y34568553D02*
X1985269Y34568553D01*
X5033269Y34314553D02*
X5033269Y32790553D01*
X1731269Y34314553D02*
G75*
G02*
X1985269Y34568553I254000J0D01*
G01*
X1985269Y32536553D02*
G75*
G02*
X1731269Y32790553I0J254000D01*
G01*
X4779269Y34568553D02*
G75*
G02*
X5033269Y34314553I0J-254000D01*
G01*
X5033269Y32790553D02*
G75*
G02*
X4779269Y32536553I-254000J0D01*
G01*
%TO.C,R14*%
X6532949Y65884409D02*
X5516949Y65884409D01*
X6532949Y64360409D02*
X5516949Y64360409D01*
%TO.C,R35*%
X48468336Y34017813D02*
X47452336Y34017813D01*
X48468336Y32493813D02*
X47452336Y32493813D01*
%TO.C,BUT1*%
X16776949Y67893162D02*
X22576949Y67893162D01*
X16776949Y63693162D02*
X16776949Y67893162D01*
X18376949Y65193162D02*
X18376949Y66393162D01*
X20976949Y66393162D02*
X18376949Y66393162D01*
X20976949Y65193162D02*
X18376949Y65193162D01*
X20976949Y65193162D02*
X20976949Y66393162D01*
X22576949Y67893162D02*
X22576949Y63693162D01*
X22576949Y63693162D02*
X16776949Y63693162D01*
%TO.C,C23*%
X35078407Y40611254D02*
X35078407Y41627254D01*
X36602407Y40611254D02*
X36602407Y41627254D01*
%TO.C,Q5*%
X37347866Y43486980D02*
X37347866Y42648780D01*
X38059066Y42648780D02*
X37347866Y42648780D01*
X40192666Y43486980D02*
X40192666Y42648780D01*
X40192666Y42648780D02*
X39481466Y42648780D01*
%TO.C,R45*%
X14198990Y48105104D02*
X13182990Y48105104D01*
X14198990Y46581104D02*
X13182990Y46581104D01*
%TO.C,C3*%
X49413172Y21603594D02*
X50429172Y21603594D01*
X49413172Y19571594D02*
X50429172Y19571594D01*
%TO.C,C4*%
X49413172Y19571594D02*
X50429172Y19571594D01*
X49413172Y17539594D02*
X50429172Y17539594D01*
%TO.C,R37*%
X39191266Y40445780D02*
X40207266Y40445780D01*
X39191266Y38921780D02*
X40207266Y38921780D01*
%TO.C,R44*%
X41207266Y34045780D02*
X40191266Y34045780D01*
X41207266Y32521780D02*
X40191266Y32521780D01*
%TO.C,C29*%
X11935449Y39011909D02*
X11935449Y37995909D01*
X13459449Y39011909D02*
X13459449Y37995909D01*
%TO.C,R50*%
X16035449Y36206909D02*
X16035449Y37222909D01*
X17559449Y36206909D02*
X17559449Y37222909D01*
%TO.C,R51*%
X13735449Y39000909D02*
X13735449Y37984909D01*
X15259449Y39000909D02*
X15259449Y37984909D01*
%TO.C,FET3*%
X4067012Y37759570D02*
X4778212Y37759570D01*
X4067012Y36921370D02*
X4067012Y37759570D01*
X6200612Y37759570D02*
X6911812Y37759570D01*
X6911812Y36921370D02*
X6911812Y37759570D01*
D16*
%TO.C,L5*%
X1909976Y36947988D02*
X1909976Y37786188D01*
X3687976Y36947988D02*
X3687976Y37786188D01*
D13*
%TO.C,U1*%
X39238113Y21171548D02*
X40368413Y21171548D01*
X39238113Y18364848D02*
X40368413Y18364848D01*
%TO.C,R8*%
X40038034Y23059205D02*
X39022034Y23059205D01*
X40038034Y21535205D02*
X39022034Y21535205D01*
%TO.C,BAT/BUT1*%
X33479336Y21516601D02*
X33479336Y20500601D01*
X33733336Y20246601D02*
X36781336Y20246601D01*
X36781336Y21770601D02*
X33733336Y21770601D01*
X37035336Y21516601D02*
X37035336Y20500601D01*
X33479336Y21516601D02*
G75*
G02*
X33733336Y21770601I254000J0D01*
G01*
X33733336Y20246601D02*
G75*
G02*
X33479336Y20500601I0J254000D01*
G01*
X36781336Y21770601D02*
G75*
G02*
X37035336Y21516601I0J-254000D01*
G01*
X37035336Y20500601D02*
G75*
G02*
X36781336Y20246601I-254000J0D01*
G01*
%TO.C,D7*%
X48193932Y29592328D02*
X48193932Y27687328D01*
X48371732Y29592328D02*
X48193932Y29592328D01*
X48371732Y29592328D02*
X48371732Y27687328D01*
X48371732Y28677928D02*
X49743332Y27687328D01*
X48371732Y27687328D02*
X48193932Y27687328D01*
X48828932Y28779528D02*
X48828932Y28398528D01*
X48955932Y28906528D02*
X48955932Y28271528D01*
X49082932Y29033528D02*
X49082932Y28271528D01*
X49209932Y29033528D02*
X49209932Y28144528D01*
X49336932Y28144528D02*
X49336932Y29287528D01*
X49463932Y29287528D02*
X49463932Y28017528D01*
X49590932Y27890528D02*
X49590932Y29414528D01*
X49743332Y29592328D02*
X48371732Y28677928D01*
X49743332Y29592328D02*
X49743332Y27687328D01*
X50327532Y28639828D02*
X47851032Y28639828D01*
%TO.C,R10*%
X35736158Y17688717D02*
X34720158Y17688717D01*
X35736158Y16164717D02*
X34720158Y16164717D01*
%TO.C,R9*%
X40198130Y17662338D02*
X39182130Y17662338D01*
X40198130Y16138338D02*
X39182130Y16138338D01*
%TO.C,C30*%
X35736158Y19705142D02*
X34720158Y19705142D01*
X35736158Y18181142D02*
X34720158Y18181142D01*
%TO.C,U9*%
X37576866Y37144180D02*
X37576866Y36356780D01*
X38237266Y37144180D02*
X37576866Y37144180D01*
X39202466Y35823380D02*
X38796066Y35823380D01*
X40421666Y37144180D02*
X39761266Y37144180D01*
X40421666Y36356780D02*
X40421666Y37144180D01*
%TO.C,D8*%
X47853159Y31200586D02*
X50329659Y31200586D01*
X48437359Y30248086D02*
X48437359Y32153086D01*
X48437359Y30248086D02*
X49808959Y31162486D01*
X48589759Y31949886D02*
X48589759Y30425886D01*
X48716759Y30552886D02*
X48716759Y31822886D01*
X48843759Y31695886D02*
X48843759Y30552886D01*
X48970759Y30806886D02*
X48970759Y31695886D01*
X49097759Y30806886D02*
X49097759Y31568886D01*
X49224759Y30933886D02*
X49224759Y31568886D01*
X49351759Y31060886D02*
X49351759Y31441886D01*
X49808959Y32153086D02*
X49986759Y32153086D01*
X49808959Y31162486D02*
X48437359Y32153086D01*
X49808959Y30248086D02*
X49808959Y32153086D01*
X49808959Y30248086D02*
X49986759Y30248086D01*
X49986759Y30248086D02*
X49986759Y32153086D01*
%TO.C,R24*%
X5053502Y50709971D02*
X5053502Y49693971D01*
X6577502Y50709971D02*
X6577502Y49693971D01*
%TO.C,R17*%
X45735325Y19335394D02*
X45735325Y20351394D01*
X47259325Y19335394D02*
X47259325Y20351394D01*
%TO.C,R7*%
X40038034Y24882883D02*
X39022034Y24882883D01*
X40038034Y23358883D02*
X39022034Y23358883D01*
%TO.C,C31*%
X6519949Y60763409D02*
X5503949Y60763409D01*
X6519949Y59239409D02*
X5503949Y59239409D01*
%TO.C,RST1*%
X16776949Y61943409D02*
X22576949Y61943409D01*
X16776949Y57743409D02*
X16776949Y61943409D01*
X18376949Y60443409D02*
X18376949Y59243409D01*
X18376949Y60443409D02*
X20976949Y60443409D01*
X18376949Y59243409D02*
X20976949Y59243409D01*
X20976949Y60443409D02*
X20976949Y59243409D01*
X22576949Y61943409D02*
X22576949Y57743409D01*
X22576949Y57743409D02*
X16776949Y57743409D01*
%TO.C,R46*%
X9007033Y48107996D02*
X7991033Y48107996D01*
X9007033Y46583996D02*
X7991033Y46583996D01*
D16*
%TO.C,R25*%
X2904944Y21683790D02*
X2904944Y20667790D01*
X2904944Y21683790D02*
X4174944Y21683790D01*
X2904944Y19651790D02*
X2904944Y18635790D01*
X2904944Y18635790D02*
X4174944Y18635790D01*
X4174944Y21683790D02*
X4174944Y20667790D01*
X4174944Y18635790D02*
X4174944Y19651790D01*
D13*
%TO.C,U10*%
X41122406Y37155480D02*
X41122406Y36368080D01*
X41782806Y37155480D02*
X41122406Y37155480D01*
X42748006Y35834680D02*
X42341606Y35834680D01*
X43967206Y37155480D02*
X43306806Y37155480D01*
X43967206Y36368080D02*
X43967206Y37155480D01*
%TO.C,C11*%
X4495618Y19735989D02*
X4495618Y20751989D01*
X6019618Y19735989D02*
X6019618Y20751989D01*
%TO.C,D9*%
X44145806Y43929227D02*
X45060206Y42557627D01*
X44145806Y43929227D02*
X46050806Y43929227D01*
X44145806Y42557627D02*
X44145806Y42379827D01*
X44145806Y42557627D02*
X46050806Y42557627D01*
X44145806Y42379827D02*
X46050806Y42379827D01*
X44450606Y43649827D02*
X45720606Y43649827D01*
X44704606Y43395827D02*
X45593606Y43395827D01*
X44704606Y43268827D02*
X45466606Y43268827D01*
X44831606Y43141827D02*
X45466606Y43141827D01*
X44958606Y43014827D02*
X45339606Y43014827D01*
X45060206Y42557627D02*
X46050806Y43929227D01*
X45098306Y44513427D02*
X45098306Y42036927D01*
X45593606Y43522827D02*
X44450606Y43522827D01*
X45847606Y43776827D02*
X44323606Y43776827D01*
X46050806Y42557627D02*
X46050806Y42379827D01*
%TO.C,Q4*%
X40776866Y43486980D02*
X40776866Y42648780D01*
X41488066Y42648780D02*
X40776866Y42648780D01*
X43621666Y43486980D02*
X43621666Y42648780D01*
X43621666Y42648780D02*
X42910466Y42648780D01*
%TO.C,D10*%
X7181016Y51232411D02*
X7181016Y50445011D01*
X7841416Y51232411D02*
X7181016Y51232411D01*
X8806616Y49911611D02*
X8400216Y49911611D01*
X10025816Y51232411D02*
X9365416Y51232411D01*
X10025816Y50445011D02*
X10025816Y51232411D01*
%TO.C,R52*%
X8290448Y54340213D02*
X7274448Y54340213D01*
X8290448Y52816213D02*
X7274448Y52816213D01*
%TO.C,R58*%
X10847318Y54022713D02*
X10593318Y54022713D01*
X10847318Y54022713D02*
X11101318Y54022713D01*
X10847318Y53133713D02*
X10593318Y53133713D01*
X10847318Y53133713D02*
X11101318Y53133713D01*
%TO.C,U11*%
X12455243Y51246610D02*
X12455243Y50459210D01*
X13115643Y51246610D02*
X12455243Y51246610D01*
X14080843Y49925810D02*
X13674443Y49925810D01*
X15300043Y51246610D02*
X14639643Y51246610D01*
X15300043Y50459210D02*
X15300043Y51246610D01*
%TO.C,FET4*%
X19062449Y37426109D02*
X19062449Y38137309D01*
X19062449Y35292509D02*
X19062449Y36003709D01*
X19900649Y38137309D02*
X19062449Y38137309D01*
X19900649Y35292509D02*
X19062449Y35292509D01*
%TO.C,C32*%
X14375280Y54284079D02*
X13359280Y54284079D01*
X14375280Y52760079D02*
X13359280Y52760079D01*
%TO.C,U13*%
X9668435Y46254035D02*
X4588435Y46254035D01*
X9668435Y39254035D02*
X4588435Y39254035D01*
%TO.C,U12*%
X22866158Y45955114D02*
X17786158Y45955114D01*
X22866158Y38955114D02*
X17786158Y38955114D01*
%TD*%
M02*
