%TF.GenerationSoftware,KiCad,Pcbnew,9.0.0*%
%TF.CreationDate,2025-04-12T10:41:55+08:00*%
%TF.ProjectId,ESP32-EVB_Rev_K1,45535033-322d-4455-9642-5f5265765f4b,K1*%
%TF.SameCoordinates,PXc1d4028PY6c847bc*%
%TF.FileFunction,Drillmap*%
%TF.FilePolarity,Positive*%
%FSLAX45Y45*%
G04 Gerber Fmt 4.5, Leading zero omitted, Abs format (unit mm)*
G04 Created by KiCad (PCBNEW 9.0.0) date 2025-04-12 10:41:55*
%MOMM*%
%LPD*%
G01*
G04 APERTURE LIST*
%ADD10C,0.254000*%
%ADD11C,0.200000*%
%ADD12C,0.100000*%
%ADD13C,0.320000*%
G04 APERTURE END LIST*
D10*
X2537695Y4514367D02*
X2751446Y4514367D01*
X2751446Y2362108D01*
X2537695Y2362108D01*
X2537695Y4514367D01*
X2537695Y2135208D02*
X2751446Y2135208D01*
X2751446Y268623D01*
X2537695Y268623D01*
X2537695Y2135208D01*
X2537630Y4805923D02*
X5291446Y4804666D01*
X5291233Y1341D01*
X-2305Y1613D01*
X-2305Y7301134D01*
X2537695Y7301448D01*
X2537630Y4805923D01*
D11*
D12*
X3158241Y4031474D02*
X3218241Y3971474D01*
X3218241Y4031474D02*
X3158241Y3971474D01*
X3158241Y3631474D02*
X3218241Y3571474D01*
X3218241Y3631474D02*
X3158241Y3571474D01*
D13*
X835695Y1092841D02*
G75*
G02*
X515695Y1092841I-160000J0D01*
G01*
X515695Y1092841D02*
G75*
G02*
X835695Y1092841I160000J0D01*
G01*
X1978695Y1092841D02*
G75*
G02*
X1658695Y1092841I-160000J0D01*
G01*
X1658695Y1092841D02*
G75*
G02*
X1978695Y1092841I160000J0D01*
G01*
D11*
X245772Y-322843D02*
X245772Y-122843D01*
X245772Y-122843D02*
X293391Y-122843D01*
X293391Y-122843D02*
X321962Y-132367D01*
X321962Y-132367D02*
X341010Y-151414D01*
X341010Y-151414D02*
X350534Y-170462D01*
X350534Y-170462D02*
X360057Y-208557D01*
X360057Y-208557D02*
X360057Y-237129D01*
X360057Y-237129D02*
X350534Y-275224D01*
X350534Y-275224D02*
X341010Y-294271D01*
X341010Y-294271D02*
X321962Y-313319D01*
X321962Y-313319D02*
X293391Y-322843D01*
X293391Y-322843D02*
X245772Y-322843D01*
X445772Y-322843D02*
X445772Y-189509D01*
X445772Y-227605D02*
X455295Y-208557D01*
X455295Y-208557D02*
X464819Y-199033D01*
X464819Y-199033D02*
X483867Y-189509D01*
X483867Y-189509D02*
X502915Y-189509D01*
X569581Y-322843D02*
X569581Y-189509D01*
X569581Y-122843D02*
X560057Y-132367D01*
X560057Y-132367D02*
X569581Y-141891D01*
X569581Y-141891D02*
X579105Y-132367D01*
X579105Y-132367D02*
X569581Y-122843D01*
X569581Y-122843D02*
X569581Y-141891D01*
X693391Y-322843D02*
X674343Y-313319D01*
X674343Y-313319D02*
X664819Y-294271D01*
X664819Y-294271D02*
X664819Y-122843D01*
X798153Y-322843D02*
X779105Y-313319D01*
X779105Y-313319D02*
X769581Y-294271D01*
X769581Y-294271D02*
X769581Y-122843D01*
X1026724Y-322843D02*
X1026724Y-122843D01*
X1026724Y-122843D02*
X1093391Y-265700D01*
X1093391Y-265700D02*
X1160057Y-122843D01*
X1160057Y-122843D02*
X1160057Y-322843D01*
X1341010Y-322843D02*
X1341010Y-218081D01*
X1341010Y-218081D02*
X1331486Y-199033D01*
X1331486Y-199033D02*
X1312438Y-189509D01*
X1312438Y-189509D02*
X1274343Y-189509D01*
X1274343Y-189509D02*
X1255296Y-199033D01*
X1341010Y-313319D02*
X1321962Y-322843D01*
X1321962Y-322843D02*
X1274343Y-322843D01*
X1274343Y-322843D02*
X1255296Y-313319D01*
X1255296Y-313319D02*
X1245772Y-294271D01*
X1245772Y-294271D02*
X1245772Y-275224D01*
X1245772Y-275224D02*
X1255296Y-256176D01*
X1255296Y-256176D02*
X1274343Y-246652D01*
X1274343Y-246652D02*
X1321962Y-246652D01*
X1321962Y-246652D02*
X1341010Y-237129D01*
X1436248Y-189509D02*
X1436248Y-389509D01*
X1436248Y-199033D02*
X1455295Y-189509D01*
X1455295Y-189509D02*
X1493391Y-189509D01*
X1493391Y-189509D02*
X1512438Y-199033D01*
X1512438Y-199033D02*
X1521962Y-208557D01*
X1521962Y-208557D02*
X1531486Y-227605D01*
X1531486Y-227605D02*
X1531486Y-284748D01*
X1531486Y-284748D02*
X1521962Y-303795D01*
X1521962Y-303795D02*
X1512438Y-313319D01*
X1512438Y-313319D02*
X1493391Y-322843D01*
X1493391Y-322843D02*
X1455295Y-322843D01*
X1455295Y-322843D02*
X1436248Y-313319D01*
X1617200Y-303795D02*
X1626724Y-313319D01*
X1626724Y-313319D02*
X1617200Y-322843D01*
X1617200Y-322843D02*
X1607676Y-313319D01*
X1607676Y-313319D02*
X1617200Y-303795D01*
X1617200Y-303795D02*
X1617200Y-322843D01*
X1617200Y-199033D02*
X1626724Y-208557D01*
X1626724Y-208557D02*
X1617200Y-218081D01*
X1617200Y-218081D02*
X1607676Y-208557D01*
X1607676Y-208557D02*
X1617200Y-199033D01*
X1617200Y-199033D02*
X1617200Y-218081D01*
D12*
X-75005Y-621359D02*
X-15005Y-681359D01*
X-15005Y-621359D02*
X-75005Y-681359D01*
D11*
X283867Y-542843D02*
X302915Y-542843D01*
X302915Y-542843D02*
X321962Y-552367D01*
X321962Y-552367D02*
X331486Y-561891D01*
X331486Y-561891D02*
X341010Y-580938D01*
X341010Y-580938D02*
X350534Y-619033D01*
X350534Y-619033D02*
X350534Y-666652D01*
X350534Y-666652D02*
X341010Y-704748D01*
X341010Y-704748D02*
X331486Y-723795D01*
X331486Y-723795D02*
X321962Y-733319D01*
X321962Y-733319D02*
X302915Y-742843D01*
X302915Y-742843D02*
X283867Y-742843D01*
X283867Y-742843D02*
X264819Y-733319D01*
X264819Y-733319D02*
X255295Y-723795D01*
X255295Y-723795D02*
X245772Y-704748D01*
X245772Y-704748D02*
X236248Y-666652D01*
X236248Y-666652D02*
X236248Y-619033D01*
X236248Y-619033D02*
X245772Y-580938D01*
X245772Y-580938D02*
X255295Y-561891D01*
X255295Y-561891D02*
X264819Y-552367D01*
X264819Y-552367D02*
X283867Y-542843D01*
X436248Y-723795D02*
X445772Y-733319D01*
X445772Y-733319D02*
X436248Y-742843D01*
X436248Y-742843D02*
X426724Y-733319D01*
X426724Y-733319D02*
X436248Y-723795D01*
X436248Y-723795D02*
X436248Y-742843D01*
X617200Y-542843D02*
X579105Y-542843D01*
X579105Y-542843D02*
X560057Y-552367D01*
X560057Y-552367D02*
X550534Y-561891D01*
X550534Y-561891D02*
X531486Y-590462D01*
X531486Y-590462D02*
X521962Y-628557D01*
X521962Y-628557D02*
X521962Y-704748D01*
X521962Y-704748D02*
X531486Y-723795D01*
X531486Y-723795D02*
X541010Y-733319D01*
X541010Y-733319D02*
X560057Y-742843D01*
X560057Y-742843D02*
X598153Y-742843D01*
X598153Y-742843D02*
X617200Y-733319D01*
X617200Y-733319D02*
X626724Y-723795D01*
X626724Y-723795D02*
X636248Y-704748D01*
X636248Y-704748D02*
X636248Y-657129D01*
X636248Y-657129D02*
X626724Y-638081D01*
X626724Y-638081D02*
X617200Y-628557D01*
X617200Y-628557D02*
X598153Y-619033D01*
X598153Y-619033D02*
X560057Y-619033D01*
X560057Y-619033D02*
X541010Y-628557D01*
X541010Y-628557D02*
X531486Y-638081D01*
X531486Y-638081D02*
X521962Y-657129D01*
X760057Y-542843D02*
X779105Y-542843D01*
X779105Y-542843D02*
X798153Y-552367D01*
X798153Y-552367D02*
X807676Y-561891D01*
X807676Y-561891D02*
X817200Y-580938D01*
X817200Y-580938D02*
X826724Y-619033D01*
X826724Y-619033D02*
X826724Y-666652D01*
X826724Y-666652D02*
X817200Y-704748D01*
X817200Y-704748D02*
X807676Y-723795D01*
X807676Y-723795D02*
X798153Y-733319D01*
X798153Y-733319D02*
X779105Y-742843D01*
X779105Y-742843D02*
X760057Y-742843D01*
X760057Y-742843D02*
X741010Y-733319D01*
X741010Y-733319D02*
X731486Y-723795D01*
X731486Y-723795D02*
X721962Y-704748D01*
X721962Y-704748D02*
X712438Y-666652D01*
X712438Y-666652D02*
X712438Y-619033D01*
X712438Y-619033D02*
X721962Y-580938D01*
X721962Y-580938D02*
X731486Y-561891D01*
X731486Y-561891D02*
X741010Y-552367D01*
X741010Y-552367D02*
X760057Y-542843D01*
X950534Y-542843D02*
X969581Y-542843D01*
X969581Y-542843D02*
X988629Y-552367D01*
X988629Y-552367D02*
X998153Y-561891D01*
X998153Y-561891D02*
X1007676Y-580938D01*
X1007676Y-580938D02*
X1017200Y-619033D01*
X1017200Y-619033D02*
X1017200Y-666652D01*
X1017200Y-666652D02*
X1007676Y-704748D01*
X1007676Y-704748D02*
X998153Y-723795D01*
X998153Y-723795D02*
X988629Y-733319D01*
X988629Y-733319D02*
X969581Y-742843D01*
X969581Y-742843D02*
X950534Y-742843D01*
X950534Y-742843D02*
X931486Y-733319D01*
X931486Y-733319D02*
X921962Y-723795D01*
X921962Y-723795D02*
X912438Y-704748D01*
X912438Y-704748D02*
X902915Y-666652D01*
X902915Y-666652D02*
X902915Y-619033D01*
X902915Y-619033D02*
X912438Y-580938D01*
X912438Y-580938D02*
X921962Y-561891D01*
X921962Y-561891D02*
X931486Y-552367D01*
X931486Y-552367D02*
X950534Y-542843D01*
X1102915Y-742843D02*
X1102915Y-609510D01*
X1102915Y-628557D02*
X1112438Y-619033D01*
X1112438Y-619033D02*
X1131486Y-609510D01*
X1131486Y-609510D02*
X1160058Y-609510D01*
X1160058Y-609510D02*
X1179105Y-619033D01*
X1179105Y-619033D02*
X1188629Y-638081D01*
X1188629Y-638081D02*
X1188629Y-742843D01*
X1188629Y-638081D02*
X1198153Y-619033D01*
X1198153Y-619033D02*
X1217200Y-609510D01*
X1217200Y-609510D02*
X1245772Y-609510D01*
X1245772Y-609510D02*
X1264819Y-619033D01*
X1264819Y-619033D02*
X1274343Y-638081D01*
X1274343Y-638081D02*
X1274343Y-742843D01*
X1369581Y-742843D02*
X1369581Y-609510D01*
X1369581Y-628557D02*
X1379105Y-619033D01*
X1379105Y-619033D02*
X1398153Y-609510D01*
X1398153Y-609510D02*
X1426724Y-609510D01*
X1426724Y-609510D02*
X1445772Y-619033D01*
X1445772Y-619033D02*
X1455296Y-638081D01*
X1455296Y-638081D02*
X1455296Y-742843D01*
X1455296Y-638081D02*
X1464819Y-619033D01*
X1464819Y-619033D02*
X1483867Y-609510D01*
X1483867Y-609510D02*
X1512438Y-609510D01*
X1512438Y-609510D02*
X1531486Y-619033D01*
X1531486Y-619033D02*
X1541010Y-638081D01*
X1541010Y-638081D02*
X1541010Y-742843D01*
X1931486Y-533319D02*
X1760058Y-790462D01*
X2188629Y-542843D02*
X2207677Y-542843D01*
X2207677Y-542843D02*
X2226724Y-552367D01*
X2226724Y-552367D02*
X2236248Y-561891D01*
X2236248Y-561891D02*
X2245772Y-580938D01*
X2245772Y-580938D02*
X2255296Y-619033D01*
X2255296Y-619033D02*
X2255296Y-666652D01*
X2255296Y-666652D02*
X2245772Y-704748D01*
X2245772Y-704748D02*
X2236248Y-723795D01*
X2236248Y-723795D02*
X2226724Y-733319D01*
X2226724Y-733319D02*
X2207677Y-742843D01*
X2207677Y-742843D02*
X2188629Y-742843D01*
X2188629Y-742843D02*
X2169581Y-733319D01*
X2169581Y-733319D02*
X2160058Y-723795D01*
X2160058Y-723795D02*
X2150534Y-704748D01*
X2150534Y-704748D02*
X2141010Y-666652D01*
X2141010Y-666652D02*
X2141010Y-619033D01*
X2141010Y-619033D02*
X2150534Y-580938D01*
X2150534Y-580938D02*
X2160058Y-561891D01*
X2160058Y-561891D02*
X2169581Y-552367D01*
X2169581Y-552367D02*
X2188629Y-542843D01*
X2341010Y-723795D02*
X2350534Y-733319D01*
X2350534Y-733319D02*
X2341010Y-742843D01*
X2341010Y-742843D02*
X2331486Y-733319D01*
X2331486Y-733319D02*
X2341010Y-723795D01*
X2341010Y-723795D02*
X2341010Y-742843D01*
X2474343Y-542843D02*
X2493391Y-542843D01*
X2493391Y-542843D02*
X2512439Y-552367D01*
X2512439Y-552367D02*
X2521962Y-561891D01*
X2521962Y-561891D02*
X2531486Y-580938D01*
X2531486Y-580938D02*
X2541010Y-619033D01*
X2541010Y-619033D02*
X2541010Y-666652D01*
X2541010Y-666652D02*
X2531486Y-704748D01*
X2531486Y-704748D02*
X2521962Y-723795D01*
X2521962Y-723795D02*
X2512439Y-733319D01*
X2512439Y-733319D02*
X2493391Y-742843D01*
X2493391Y-742843D02*
X2474343Y-742843D01*
X2474343Y-742843D02*
X2455296Y-733319D01*
X2455296Y-733319D02*
X2445772Y-723795D01*
X2445772Y-723795D02*
X2436248Y-704748D01*
X2436248Y-704748D02*
X2426724Y-666652D01*
X2426724Y-666652D02*
X2426724Y-619033D01*
X2426724Y-619033D02*
X2436248Y-580938D01*
X2436248Y-580938D02*
X2445772Y-561891D01*
X2445772Y-561891D02*
X2455296Y-552367D01*
X2455296Y-552367D02*
X2474343Y-542843D01*
X2617201Y-561891D02*
X2626724Y-552367D01*
X2626724Y-552367D02*
X2645772Y-542843D01*
X2645772Y-542843D02*
X2693391Y-542843D01*
X2693391Y-542843D02*
X2712439Y-552367D01*
X2712439Y-552367D02*
X2721962Y-561891D01*
X2721962Y-561891D02*
X2731486Y-580938D01*
X2731486Y-580938D02*
X2731486Y-599986D01*
X2731486Y-599986D02*
X2721962Y-628557D01*
X2721962Y-628557D02*
X2607677Y-742843D01*
X2607677Y-742843D02*
X2731486Y-742843D01*
X2798153Y-542843D02*
X2921962Y-542843D01*
X2921962Y-542843D02*
X2855296Y-619033D01*
X2855296Y-619033D02*
X2883867Y-619033D01*
X2883867Y-619033D02*
X2902915Y-628557D01*
X2902915Y-628557D02*
X2912439Y-638081D01*
X2912439Y-638081D02*
X2921962Y-657129D01*
X2921962Y-657129D02*
X2921962Y-704748D01*
X2921962Y-704748D02*
X2912439Y-723795D01*
X2912439Y-723795D02*
X2902915Y-733319D01*
X2902915Y-733319D02*
X2883867Y-742843D01*
X2883867Y-742843D02*
X2826724Y-742843D01*
X2826724Y-742843D02*
X2807677Y-733319D01*
X2807677Y-733319D02*
X2798153Y-723795D01*
X3093391Y-542843D02*
X3055296Y-542843D01*
X3055296Y-542843D02*
X3036248Y-552367D01*
X3036248Y-552367D02*
X3026724Y-561891D01*
X3026724Y-561891D02*
X3007677Y-590462D01*
X3007677Y-590462D02*
X2998153Y-628557D01*
X2998153Y-628557D02*
X2998153Y-704748D01*
X2998153Y-704748D02*
X3007677Y-723795D01*
X3007677Y-723795D02*
X3017200Y-733319D01*
X3017200Y-733319D02*
X3036248Y-742843D01*
X3036248Y-742843D02*
X3074343Y-742843D01*
X3074343Y-742843D02*
X3093391Y-733319D01*
X3093391Y-733319D02*
X3102915Y-723795D01*
X3102915Y-723795D02*
X3112439Y-704748D01*
X3112439Y-704748D02*
X3112439Y-657129D01*
X3112439Y-657129D02*
X3102915Y-638081D01*
X3102915Y-638081D02*
X3093391Y-628557D01*
X3093391Y-628557D02*
X3074343Y-619033D01*
X3074343Y-619033D02*
X3036248Y-619033D01*
X3036248Y-619033D02*
X3017200Y-628557D01*
X3017200Y-628557D02*
X3007677Y-638081D01*
X3007677Y-638081D02*
X2998153Y-657129D01*
X3188629Y-542843D02*
X3188629Y-580938D01*
X3264820Y-542843D02*
X3264820Y-580938D01*
X3560058Y-819033D02*
X3550534Y-809509D01*
X3550534Y-809509D02*
X3531486Y-780938D01*
X3531486Y-780938D02*
X3521962Y-761890D01*
X3521962Y-761890D02*
X3512439Y-733319D01*
X3512439Y-733319D02*
X3502915Y-685700D01*
X3502915Y-685700D02*
X3502915Y-647605D01*
X3502915Y-647605D02*
X3512439Y-599986D01*
X3512439Y-599986D02*
X3521962Y-571414D01*
X3521962Y-571414D02*
X3531486Y-552367D01*
X3531486Y-552367D02*
X3550534Y-523795D01*
X3550534Y-523795D02*
X3560058Y-514271D01*
X3626724Y-561891D02*
X3636248Y-552367D01*
X3636248Y-552367D02*
X3655296Y-542843D01*
X3655296Y-542843D02*
X3702915Y-542843D01*
X3702915Y-542843D02*
X3721962Y-552367D01*
X3721962Y-552367D02*
X3731486Y-561891D01*
X3731486Y-561891D02*
X3741010Y-580938D01*
X3741010Y-580938D02*
X3741010Y-599986D01*
X3741010Y-599986D02*
X3731486Y-628557D01*
X3731486Y-628557D02*
X3617201Y-742843D01*
X3617201Y-742843D02*
X3741010Y-742843D01*
X3979105Y-742843D02*
X3979105Y-542843D01*
X4064820Y-742843D02*
X4064820Y-638081D01*
X4064820Y-638081D02*
X4055296Y-619033D01*
X4055296Y-619033D02*
X4036248Y-609510D01*
X4036248Y-609510D02*
X4007677Y-609510D01*
X4007677Y-609510D02*
X3988629Y-619033D01*
X3988629Y-619033D02*
X3979105Y-628557D01*
X4188629Y-742843D02*
X4169582Y-733319D01*
X4169582Y-733319D02*
X4160058Y-723795D01*
X4160058Y-723795D02*
X4150534Y-704748D01*
X4150534Y-704748D02*
X4150534Y-647605D01*
X4150534Y-647605D02*
X4160058Y-628557D01*
X4160058Y-628557D02*
X4169582Y-619033D01*
X4169582Y-619033D02*
X4188629Y-609510D01*
X4188629Y-609510D02*
X4217201Y-609510D01*
X4217201Y-609510D02*
X4236248Y-619033D01*
X4236248Y-619033D02*
X4245772Y-628557D01*
X4245772Y-628557D02*
X4255296Y-647605D01*
X4255296Y-647605D02*
X4255296Y-704748D01*
X4255296Y-704748D02*
X4245772Y-723795D01*
X4245772Y-723795D02*
X4236248Y-733319D01*
X4236248Y-733319D02*
X4217201Y-742843D01*
X4217201Y-742843D02*
X4188629Y-742843D01*
X4369582Y-742843D02*
X4350534Y-733319D01*
X4350534Y-733319D02*
X4341010Y-714271D01*
X4341010Y-714271D02*
X4341010Y-542843D01*
X4521963Y-733319D02*
X4502915Y-742843D01*
X4502915Y-742843D02*
X4464820Y-742843D01*
X4464820Y-742843D02*
X4445772Y-733319D01*
X4445772Y-733319D02*
X4436248Y-714271D01*
X4436248Y-714271D02*
X4436248Y-638081D01*
X4436248Y-638081D02*
X4445772Y-619033D01*
X4445772Y-619033D02*
X4464820Y-609510D01*
X4464820Y-609510D02*
X4502915Y-609510D01*
X4502915Y-609510D02*
X4521963Y-619033D01*
X4521963Y-619033D02*
X4531486Y-638081D01*
X4531486Y-638081D02*
X4531486Y-657129D01*
X4531486Y-657129D02*
X4436248Y-676176D01*
X4607677Y-733319D02*
X4626725Y-742843D01*
X4626725Y-742843D02*
X4664820Y-742843D01*
X4664820Y-742843D02*
X4683867Y-733319D01*
X4683867Y-733319D02*
X4693391Y-714271D01*
X4693391Y-714271D02*
X4693391Y-704748D01*
X4693391Y-704748D02*
X4683867Y-685700D01*
X4683867Y-685700D02*
X4664820Y-676176D01*
X4664820Y-676176D02*
X4636248Y-676176D01*
X4636248Y-676176D02*
X4617201Y-666652D01*
X4617201Y-666652D02*
X4607677Y-647605D01*
X4607677Y-647605D02*
X4607677Y-638081D01*
X4607677Y-638081D02*
X4617201Y-619033D01*
X4617201Y-619033D02*
X4636248Y-609510D01*
X4636248Y-609510D02*
X4664820Y-609510D01*
X4664820Y-609510D02*
X4683867Y-619033D01*
X4760058Y-819033D02*
X4769582Y-809509D01*
X4769582Y-809509D02*
X4788629Y-780938D01*
X4788629Y-780938D02*
X4798153Y-761890D01*
X4798153Y-761890D02*
X4807677Y-733319D01*
X4807677Y-733319D02*
X4817201Y-685700D01*
X4817201Y-685700D02*
X4817201Y-647605D01*
X4817201Y-647605D02*
X4807677Y-599986D01*
X4807677Y-599986D02*
X4798153Y-571414D01*
X4798153Y-571414D02*
X4788629Y-552367D01*
X4788629Y-552367D02*
X4769582Y-523795D01*
X4769582Y-523795D02*
X4760058Y-514271D01*
X5121963Y-819033D02*
X5112439Y-809509D01*
X5112439Y-809509D02*
X5093391Y-780938D01*
X5093391Y-780938D02*
X5083867Y-761890D01*
X5083867Y-761890D02*
X5074344Y-733319D01*
X5074344Y-733319D02*
X5064820Y-685700D01*
X5064820Y-685700D02*
X5064820Y-647605D01*
X5064820Y-647605D02*
X5074344Y-599986D01*
X5074344Y-599986D02*
X5083867Y-571414D01*
X5083867Y-571414D02*
X5093391Y-552367D01*
X5093391Y-552367D02*
X5112439Y-523795D01*
X5112439Y-523795D02*
X5121963Y-514271D01*
X5198153Y-609510D02*
X5198153Y-742843D01*
X5198153Y-628557D02*
X5207677Y-619033D01*
X5207677Y-619033D02*
X5226725Y-609510D01*
X5226725Y-609510D02*
X5255296Y-609510D01*
X5255296Y-609510D02*
X5274344Y-619033D01*
X5274344Y-619033D02*
X5283867Y-638081D01*
X5283867Y-638081D02*
X5283867Y-742843D01*
X5407677Y-742843D02*
X5388629Y-733319D01*
X5388629Y-733319D02*
X5379106Y-723795D01*
X5379106Y-723795D02*
X5369582Y-704748D01*
X5369582Y-704748D02*
X5369582Y-647605D01*
X5369582Y-647605D02*
X5379106Y-628557D01*
X5379106Y-628557D02*
X5388629Y-619033D01*
X5388629Y-619033D02*
X5407677Y-609510D01*
X5407677Y-609510D02*
X5436248Y-609510D01*
X5436248Y-609510D02*
X5455296Y-619033D01*
X5455296Y-619033D02*
X5464820Y-628557D01*
X5464820Y-628557D02*
X5474344Y-647605D01*
X5474344Y-647605D02*
X5474344Y-704748D01*
X5474344Y-704748D02*
X5464820Y-723795D01*
X5464820Y-723795D02*
X5455296Y-733319D01*
X5455296Y-733319D02*
X5436248Y-742843D01*
X5436248Y-742843D02*
X5407677Y-742843D01*
X5531487Y-609510D02*
X5607677Y-609510D01*
X5560058Y-542843D02*
X5560058Y-714271D01*
X5560058Y-714271D02*
X5569582Y-733319D01*
X5569582Y-733319D02*
X5588629Y-742843D01*
X5588629Y-742843D02*
X5607677Y-742843D01*
X5826725Y-609510D02*
X5826725Y-809509D01*
X5826725Y-619033D02*
X5845772Y-609510D01*
X5845772Y-609510D02*
X5883867Y-609510D01*
X5883867Y-609510D02*
X5902915Y-619033D01*
X5902915Y-619033D02*
X5912439Y-628557D01*
X5912439Y-628557D02*
X5921963Y-647605D01*
X5921963Y-647605D02*
X5921963Y-704748D01*
X5921963Y-704748D02*
X5912439Y-723795D01*
X5912439Y-723795D02*
X5902915Y-733319D01*
X5902915Y-733319D02*
X5883867Y-742843D01*
X5883867Y-742843D02*
X5845772Y-742843D01*
X5845772Y-742843D02*
X5826725Y-733319D01*
X6036248Y-742843D02*
X6017201Y-733319D01*
X6017201Y-733319D02*
X6007677Y-714271D01*
X6007677Y-714271D02*
X6007677Y-542843D01*
X6198153Y-742843D02*
X6198153Y-638081D01*
X6198153Y-638081D02*
X6188629Y-619033D01*
X6188629Y-619033D02*
X6169582Y-609510D01*
X6169582Y-609510D02*
X6131486Y-609510D01*
X6131486Y-609510D02*
X6112439Y-619033D01*
X6198153Y-733319D02*
X6179106Y-742843D01*
X6179106Y-742843D02*
X6131486Y-742843D01*
X6131486Y-742843D02*
X6112439Y-733319D01*
X6112439Y-733319D02*
X6102915Y-714271D01*
X6102915Y-714271D02*
X6102915Y-695224D01*
X6102915Y-695224D02*
X6112439Y-676176D01*
X6112439Y-676176D02*
X6131486Y-666652D01*
X6131486Y-666652D02*
X6179106Y-666652D01*
X6179106Y-666652D02*
X6198153Y-657129D01*
X6264820Y-609510D02*
X6341010Y-609510D01*
X6293391Y-542843D02*
X6293391Y-714271D01*
X6293391Y-714271D02*
X6302915Y-733319D01*
X6302915Y-733319D02*
X6321963Y-742843D01*
X6321963Y-742843D02*
X6341010Y-742843D01*
X6483867Y-733319D02*
X6464820Y-742843D01*
X6464820Y-742843D02*
X6426725Y-742843D01*
X6426725Y-742843D02*
X6407677Y-733319D01*
X6407677Y-733319D02*
X6398153Y-714271D01*
X6398153Y-714271D02*
X6398153Y-638081D01*
X6398153Y-638081D02*
X6407677Y-619033D01*
X6407677Y-619033D02*
X6426725Y-609510D01*
X6426725Y-609510D02*
X6464820Y-609510D01*
X6464820Y-609510D02*
X6483867Y-619033D01*
X6483867Y-619033D02*
X6493391Y-638081D01*
X6493391Y-638081D02*
X6493391Y-657129D01*
X6493391Y-657129D02*
X6398153Y-676176D01*
X6664820Y-742843D02*
X6664820Y-542843D01*
X6664820Y-733319D02*
X6645772Y-742843D01*
X6645772Y-742843D02*
X6607677Y-742843D01*
X6607677Y-742843D02*
X6588629Y-733319D01*
X6588629Y-733319D02*
X6579106Y-723795D01*
X6579106Y-723795D02*
X6569582Y-704748D01*
X6569582Y-704748D02*
X6569582Y-647605D01*
X6569582Y-647605D02*
X6579106Y-628557D01*
X6579106Y-628557D02*
X6588629Y-619033D01*
X6588629Y-619033D02*
X6607677Y-609510D01*
X6607677Y-609510D02*
X6645772Y-609510D01*
X6645772Y-609510D02*
X6664820Y-619033D01*
X6741010Y-819033D02*
X6750534Y-809509D01*
X6750534Y-809509D02*
X6769582Y-780938D01*
X6769582Y-780938D02*
X6779106Y-761890D01*
X6779106Y-761890D02*
X6788629Y-733319D01*
X6788629Y-733319D02*
X6798153Y-685700D01*
X6798153Y-685700D02*
X6798153Y-647605D01*
X6798153Y-647605D02*
X6788629Y-599986D01*
X6788629Y-599986D02*
X6779106Y-571414D01*
X6779106Y-571414D02*
X6769582Y-552367D01*
X6769582Y-552367D02*
X6750534Y-523795D01*
X6750534Y-523795D02*
X6741010Y-514271D01*
X-15005Y-915359D02*
G75*
G02*
X-215005Y-915359I-100000J0D01*
G01*
X-215005Y-915359D02*
G75*
G02*
X-15005Y-915359I100000J0D01*
G01*
X226724Y-806843D02*
X350534Y-806843D01*
X350534Y-806843D02*
X283867Y-883033D01*
X283867Y-883033D02*
X312438Y-883033D01*
X312438Y-883033D02*
X331486Y-892557D01*
X331486Y-892557D02*
X341010Y-902081D01*
X341010Y-902081D02*
X350534Y-921129D01*
X350534Y-921129D02*
X350534Y-968748D01*
X350534Y-968748D02*
X341010Y-987795D01*
X341010Y-987795D02*
X331486Y-997319D01*
X331486Y-997319D02*
X312438Y-1006843D01*
X312438Y-1006843D02*
X255295Y-1006843D01*
X255295Y-1006843D02*
X236248Y-997319D01*
X236248Y-997319D02*
X226724Y-987795D01*
X436248Y-987795D02*
X445772Y-997319D01*
X445772Y-997319D02*
X436248Y-1006843D01*
X436248Y-1006843D02*
X426724Y-997319D01*
X426724Y-997319D02*
X436248Y-987795D01*
X436248Y-987795D02*
X436248Y-1006843D01*
X521962Y-825890D02*
X531486Y-816367D01*
X531486Y-816367D02*
X550534Y-806843D01*
X550534Y-806843D02*
X598153Y-806843D01*
X598153Y-806843D02*
X617200Y-816367D01*
X617200Y-816367D02*
X626724Y-825890D01*
X626724Y-825890D02*
X636248Y-844938D01*
X636248Y-844938D02*
X636248Y-863986D01*
X636248Y-863986D02*
X626724Y-892557D01*
X626724Y-892557D02*
X512438Y-1006843D01*
X512438Y-1006843D02*
X636248Y-1006843D01*
X760057Y-806843D02*
X779105Y-806843D01*
X779105Y-806843D02*
X798153Y-816367D01*
X798153Y-816367D02*
X807676Y-825890D01*
X807676Y-825890D02*
X817200Y-844938D01*
X817200Y-844938D02*
X826724Y-883033D01*
X826724Y-883033D02*
X826724Y-930652D01*
X826724Y-930652D02*
X817200Y-968748D01*
X817200Y-968748D02*
X807676Y-987795D01*
X807676Y-987795D02*
X798153Y-997319D01*
X798153Y-997319D02*
X779105Y-1006843D01*
X779105Y-1006843D02*
X760057Y-1006843D01*
X760057Y-1006843D02*
X741010Y-997319D01*
X741010Y-997319D02*
X731486Y-987795D01*
X731486Y-987795D02*
X721962Y-968748D01*
X721962Y-968748D02*
X712438Y-930652D01*
X712438Y-930652D02*
X712438Y-883033D01*
X712438Y-883033D02*
X721962Y-844938D01*
X721962Y-844938D02*
X731486Y-825890D01*
X731486Y-825890D02*
X741010Y-816367D01*
X741010Y-816367D02*
X760057Y-806843D01*
X950534Y-806843D02*
X969581Y-806843D01*
X969581Y-806843D02*
X988629Y-816367D01*
X988629Y-816367D02*
X998153Y-825890D01*
X998153Y-825890D02*
X1007676Y-844938D01*
X1007676Y-844938D02*
X1017200Y-883033D01*
X1017200Y-883033D02*
X1017200Y-930652D01*
X1017200Y-930652D02*
X1007676Y-968748D01*
X1007676Y-968748D02*
X998153Y-987795D01*
X998153Y-987795D02*
X988629Y-997319D01*
X988629Y-997319D02*
X969581Y-1006843D01*
X969581Y-1006843D02*
X950534Y-1006843D01*
X950534Y-1006843D02*
X931486Y-997319D01*
X931486Y-997319D02*
X921962Y-987795D01*
X921962Y-987795D02*
X912438Y-968748D01*
X912438Y-968748D02*
X902915Y-930652D01*
X902915Y-930652D02*
X902915Y-883033D01*
X902915Y-883033D02*
X912438Y-844938D01*
X912438Y-844938D02*
X921962Y-825890D01*
X921962Y-825890D02*
X931486Y-816367D01*
X931486Y-816367D02*
X950534Y-806843D01*
X1102915Y-1006843D02*
X1102915Y-873509D01*
X1102915Y-892557D02*
X1112438Y-883033D01*
X1112438Y-883033D02*
X1131486Y-873509D01*
X1131486Y-873509D02*
X1160058Y-873509D01*
X1160058Y-873509D02*
X1179105Y-883033D01*
X1179105Y-883033D02*
X1188629Y-902081D01*
X1188629Y-902081D02*
X1188629Y-1006843D01*
X1188629Y-902081D02*
X1198153Y-883033D01*
X1198153Y-883033D02*
X1217200Y-873509D01*
X1217200Y-873509D02*
X1245772Y-873509D01*
X1245772Y-873509D02*
X1264819Y-883033D01*
X1264819Y-883033D02*
X1274343Y-902081D01*
X1274343Y-902081D02*
X1274343Y-1006843D01*
X1369581Y-1006843D02*
X1369581Y-873509D01*
X1369581Y-892557D02*
X1379105Y-883033D01*
X1379105Y-883033D02*
X1398153Y-873509D01*
X1398153Y-873509D02*
X1426724Y-873509D01*
X1426724Y-873509D02*
X1445772Y-883033D01*
X1445772Y-883033D02*
X1455296Y-902081D01*
X1455296Y-902081D02*
X1455296Y-1006843D01*
X1455296Y-902081D02*
X1464819Y-883033D01*
X1464819Y-883033D02*
X1483867Y-873509D01*
X1483867Y-873509D02*
X1512438Y-873509D01*
X1512438Y-873509D02*
X1531486Y-883033D01*
X1531486Y-883033D02*
X1541010Y-902081D01*
X1541010Y-902081D02*
X1541010Y-1006843D01*
X1931486Y-797319D02*
X1760058Y-1054462D01*
X2188629Y-806843D02*
X2207677Y-806843D01*
X2207677Y-806843D02*
X2226724Y-816367D01*
X2226724Y-816367D02*
X2236248Y-825890D01*
X2236248Y-825890D02*
X2245772Y-844938D01*
X2245772Y-844938D02*
X2255296Y-883033D01*
X2255296Y-883033D02*
X2255296Y-930652D01*
X2255296Y-930652D02*
X2245772Y-968748D01*
X2245772Y-968748D02*
X2236248Y-987795D01*
X2236248Y-987795D02*
X2226724Y-997319D01*
X2226724Y-997319D02*
X2207677Y-1006843D01*
X2207677Y-1006843D02*
X2188629Y-1006843D01*
X2188629Y-1006843D02*
X2169581Y-997319D01*
X2169581Y-997319D02*
X2160058Y-987795D01*
X2160058Y-987795D02*
X2150534Y-968748D01*
X2150534Y-968748D02*
X2141010Y-930652D01*
X2141010Y-930652D02*
X2141010Y-883033D01*
X2141010Y-883033D02*
X2150534Y-844938D01*
X2150534Y-844938D02*
X2160058Y-825890D01*
X2160058Y-825890D02*
X2169581Y-816367D01*
X2169581Y-816367D02*
X2188629Y-806843D01*
X2341010Y-987795D02*
X2350534Y-997319D01*
X2350534Y-997319D02*
X2341010Y-1006843D01*
X2341010Y-1006843D02*
X2331486Y-997319D01*
X2331486Y-997319D02*
X2341010Y-987795D01*
X2341010Y-987795D02*
X2341010Y-1006843D01*
X2541010Y-1006843D02*
X2426724Y-1006843D01*
X2483867Y-1006843D02*
X2483867Y-806843D01*
X2483867Y-806843D02*
X2464820Y-835414D01*
X2464820Y-835414D02*
X2445772Y-854462D01*
X2445772Y-854462D02*
X2426724Y-863986D01*
X2617201Y-825890D02*
X2626724Y-816367D01*
X2626724Y-816367D02*
X2645772Y-806843D01*
X2645772Y-806843D02*
X2693391Y-806843D01*
X2693391Y-806843D02*
X2712439Y-816367D01*
X2712439Y-816367D02*
X2721962Y-825890D01*
X2721962Y-825890D02*
X2731486Y-844938D01*
X2731486Y-844938D02*
X2731486Y-863986D01*
X2731486Y-863986D02*
X2721962Y-892557D01*
X2721962Y-892557D02*
X2607677Y-1006843D01*
X2607677Y-1006843D02*
X2731486Y-1006843D01*
X2902915Y-806843D02*
X2864819Y-806843D01*
X2864819Y-806843D02*
X2845772Y-816367D01*
X2845772Y-816367D02*
X2836248Y-825890D01*
X2836248Y-825890D02*
X2817200Y-854462D01*
X2817200Y-854462D02*
X2807677Y-892557D01*
X2807677Y-892557D02*
X2807677Y-968748D01*
X2807677Y-968748D02*
X2817200Y-987795D01*
X2817200Y-987795D02*
X2826724Y-997319D01*
X2826724Y-997319D02*
X2845772Y-1006843D01*
X2845772Y-1006843D02*
X2883867Y-1006843D01*
X2883867Y-1006843D02*
X2902915Y-997319D01*
X2902915Y-997319D02*
X2912439Y-987795D01*
X2912439Y-987795D02*
X2921962Y-968748D01*
X2921962Y-968748D02*
X2921962Y-921129D01*
X2921962Y-921129D02*
X2912439Y-902081D01*
X2912439Y-902081D02*
X2902915Y-892557D01*
X2902915Y-892557D02*
X2883867Y-883033D01*
X2883867Y-883033D02*
X2845772Y-883033D01*
X2845772Y-883033D02*
X2826724Y-892557D01*
X2826724Y-892557D02*
X2817200Y-902081D01*
X2817200Y-902081D02*
X2807677Y-921129D01*
X3045772Y-806843D02*
X3064820Y-806843D01*
X3064820Y-806843D02*
X3083867Y-816367D01*
X3083867Y-816367D02*
X3093391Y-825890D01*
X3093391Y-825890D02*
X3102915Y-844938D01*
X3102915Y-844938D02*
X3112439Y-883033D01*
X3112439Y-883033D02*
X3112439Y-930652D01*
X3112439Y-930652D02*
X3102915Y-968748D01*
X3102915Y-968748D02*
X3093391Y-987795D01*
X3093391Y-987795D02*
X3083867Y-997319D01*
X3083867Y-997319D02*
X3064820Y-1006843D01*
X3064820Y-1006843D02*
X3045772Y-1006843D01*
X3045772Y-1006843D02*
X3026724Y-997319D01*
X3026724Y-997319D02*
X3017200Y-987795D01*
X3017200Y-987795D02*
X3007677Y-968748D01*
X3007677Y-968748D02*
X2998153Y-930652D01*
X2998153Y-930652D02*
X2998153Y-883033D01*
X2998153Y-883033D02*
X3007677Y-844938D01*
X3007677Y-844938D02*
X3017200Y-825890D01*
X3017200Y-825890D02*
X3026724Y-816367D01*
X3026724Y-816367D02*
X3045772Y-806843D01*
X3188629Y-806843D02*
X3188629Y-844938D01*
X3264820Y-806843D02*
X3264820Y-844938D01*
X3560058Y-1083033D02*
X3550534Y-1073510D01*
X3550534Y-1073510D02*
X3531486Y-1044938D01*
X3531486Y-1044938D02*
X3521962Y-1025890D01*
X3521962Y-1025890D02*
X3512439Y-997319D01*
X3512439Y-997319D02*
X3502915Y-949700D01*
X3502915Y-949700D02*
X3502915Y-911605D01*
X3502915Y-911605D02*
X3512439Y-863986D01*
X3512439Y-863986D02*
X3521962Y-835414D01*
X3521962Y-835414D02*
X3531486Y-816367D01*
X3531486Y-816367D02*
X3550534Y-787795D01*
X3550534Y-787795D02*
X3560058Y-778271D01*
X3626724Y-825890D02*
X3636248Y-816367D01*
X3636248Y-816367D02*
X3655296Y-806843D01*
X3655296Y-806843D02*
X3702915Y-806843D01*
X3702915Y-806843D02*
X3721962Y-816367D01*
X3721962Y-816367D02*
X3731486Y-825890D01*
X3731486Y-825890D02*
X3741010Y-844938D01*
X3741010Y-844938D02*
X3741010Y-863986D01*
X3741010Y-863986D02*
X3731486Y-892557D01*
X3731486Y-892557D02*
X3617201Y-1006843D01*
X3617201Y-1006843D02*
X3741010Y-1006843D01*
X3979105Y-1006843D02*
X3979105Y-806843D01*
X4064820Y-1006843D02*
X4064820Y-902081D01*
X4064820Y-902081D02*
X4055296Y-883033D01*
X4055296Y-883033D02*
X4036248Y-873509D01*
X4036248Y-873509D02*
X4007677Y-873509D01*
X4007677Y-873509D02*
X3988629Y-883033D01*
X3988629Y-883033D02*
X3979105Y-892557D01*
X4188629Y-1006843D02*
X4169582Y-997319D01*
X4169582Y-997319D02*
X4160058Y-987795D01*
X4160058Y-987795D02*
X4150534Y-968748D01*
X4150534Y-968748D02*
X4150534Y-911605D01*
X4150534Y-911605D02*
X4160058Y-892557D01*
X4160058Y-892557D02*
X4169582Y-883033D01*
X4169582Y-883033D02*
X4188629Y-873509D01*
X4188629Y-873509D02*
X4217201Y-873509D01*
X4217201Y-873509D02*
X4236248Y-883033D01*
X4236248Y-883033D02*
X4245772Y-892557D01*
X4245772Y-892557D02*
X4255296Y-911605D01*
X4255296Y-911605D02*
X4255296Y-968748D01*
X4255296Y-968748D02*
X4245772Y-987795D01*
X4245772Y-987795D02*
X4236248Y-997319D01*
X4236248Y-997319D02*
X4217201Y-1006843D01*
X4217201Y-1006843D02*
X4188629Y-1006843D01*
X4369582Y-1006843D02*
X4350534Y-997319D01*
X4350534Y-997319D02*
X4341010Y-978271D01*
X4341010Y-978271D02*
X4341010Y-806843D01*
X4521963Y-997319D02*
X4502915Y-1006843D01*
X4502915Y-1006843D02*
X4464820Y-1006843D01*
X4464820Y-1006843D02*
X4445772Y-997319D01*
X4445772Y-997319D02*
X4436248Y-978271D01*
X4436248Y-978271D02*
X4436248Y-902081D01*
X4436248Y-902081D02*
X4445772Y-883033D01*
X4445772Y-883033D02*
X4464820Y-873509D01*
X4464820Y-873509D02*
X4502915Y-873509D01*
X4502915Y-873509D02*
X4521963Y-883033D01*
X4521963Y-883033D02*
X4531486Y-902081D01*
X4531486Y-902081D02*
X4531486Y-921129D01*
X4531486Y-921129D02*
X4436248Y-940176D01*
X4607677Y-997319D02*
X4626725Y-1006843D01*
X4626725Y-1006843D02*
X4664820Y-1006843D01*
X4664820Y-1006843D02*
X4683867Y-997319D01*
X4683867Y-997319D02*
X4693391Y-978271D01*
X4693391Y-978271D02*
X4693391Y-968748D01*
X4693391Y-968748D02*
X4683867Y-949700D01*
X4683867Y-949700D02*
X4664820Y-940176D01*
X4664820Y-940176D02*
X4636248Y-940176D01*
X4636248Y-940176D02*
X4617201Y-930652D01*
X4617201Y-930652D02*
X4607677Y-911605D01*
X4607677Y-911605D02*
X4607677Y-902081D01*
X4607677Y-902081D02*
X4617201Y-883033D01*
X4617201Y-883033D02*
X4636248Y-873509D01*
X4636248Y-873509D02*
X4664820Y-873509D01*
X4664820Y-873509D02*
X4683867Y-883033D01*
X4760058Y-1083033D02*
X4769582Y-1073510D01*
X4769582Y-1073510D02*
X4788629Y-1044938D01*
X4788629Y-1044938D02*
X4798153Y-1025890D01*
X4798153Y-1025890D02*
X4807677Y-997319D01*
X4807677Y-997319D02*
X4817201Y-949700D01*
X4817201Y-949700D02*
X4817201Y-911605D01*
X4817201Y-911605D02*
X4807677Y-863986D01*
X4807677Y-863986D02*
X4798153Y-835414D01*
X4798153Y-835414D02*
X4788629Y-816367D01*
X4788629Y-816367D02*
X4769582Y-787795D01*
X4769582Y-787795D02*
X4760058Y-778271D01*
X5121963Y-1083033D02*
X5112439Y-1073510D01*
X5112439Y-1073510D02*
X5093391Y-1044938D01*
X5093391Y-1044938D02*
X5083867Y-1025890D01*
X5083867Y-1025890D02*
X5074344Y-997319D01*
X5074344Y-997319D02*
X5064820Y-949700D01*
X5064820Y-949700D02*
X5064820Y-911605D01*
X5064820Y-911605D02*
X5074344Y-863986D01*
X5074344Y-863986D02*
X5083867Y-835414D01*
X5083867Y-835414D02*
X5093391Y-816367D01*
X5093391Y-816367D02*
X5112439Y-787795D01*
X5112439Y-787795D02*
X5121963Y-778271D01*
X5198153Y-873509D02*
X5198153Y-1006843D01*
X5198153Y-892557D02*
X5207677Y-883033D01*
X5207677Y-883033D02*
X5226725Y-873509D01*
X5226725Y-873509D02*
X5255296Y-873509D01*
X5255296Y-873509D02*
X5274344Y-883033D01*
X5274344Y-883033D02*
X5283867Y-902081D01*
X5283867Y-902081D02*
X5283867Y-1006843D01*
X5407677Y-1006843D02*
X5388629Y-997319D01*
X5388629Y-997319D02*
X5379106Y-987795D01*
X5379106Y-987795D02*
X5369582Y-968748D01*
X5369582Y-968748D02*
X5369582Y-911605D01*
X5369582Y-911605D02*
X5379106Y-892557D01*
X5379106Y-892557D02*
X5388629Y-883033D01*
X5388629Y-883033D02*
X5407677Y-873509D01*
X5407677Y-873509D02*
X5436248Y-873509D01*
X5436248Y-873509D02*
X5455296Y-883033D01*
X5455296Y-883033D02*
X5464820Y-892557D01*
X5464820Y-892557D02*
X5474344Y-911605D01*
X5474344Y-911605D02*
X5474344Y-968748D01*
X5474344Y-968748D02*
X5464820Y-987795D01*
X5464820Y-987795D02*
X5455296Y-997319D01*
X5455296Y-997319D02*
X5436248Y-1006843D01*
X5436248Y-1006843D02*
X5407677Y-1006843D01*
X5531487Y-873509D02*
X5607677Y-873509D01*
X5560058Y-806843D02*
X5560058Y-978271D01*
X5560058Y-978271D02*
X5569582Y-997319D01*
X5569582Y-997319D02*
X5588629Y-1006843D01*
X5588629Y-1006843D02*
X5607677Y-1006843D01*
X5826725Y-873509D02*
X5826725Y-1073510D01*
X5826725Y-883033D02*
X5845772Y-873509D01*
X5845772Y-873509D02*
X5883867Y-873509D01*
X5883867Y-873509D02*
X5902915Y-883033D01*
X5902915Y-883033D02*
X5912439Y-892557D01*
X5912439Y-892557D02*
X5921963Y-911605D01*
X5921963Y-911605D02*
X5921963Y-968748D01*
X5921963Y-968748D02*
X5912439Y-987795D01*
X5912439Y-987795D02*
X5902915Y-997319D01*
X5902915Y-997319D02*
X5883867Y-1006843D01*
X5883867Y-1006843D02*
X5845772Y-1006843D01*
X5845772Y-1006843D02*
X5826725Y-997319D01*
X6036248Y-1006843D02*
X6017201Y-997319D01*
X6017201Y-997319D02*
X6007677Y-978271D01*
X6007677Y-978271D02*
X6007677Y-806843D01*
X6198153Y-1006843D02*
X6198153Y-902081D01*
X6198153Y-902081D02*
X6188629Y-883033D01*
X6188629Y-883033D02*
X6169582Y-873509D01*
X6169582Y-873509D02*
X6131486Y-873509D01*
X6131486Y-873509D02*
X6112439Y-883033D01*
X6198153Y-997319D02*
X6179106Y-1006843D01*
X6179106Y-1006843D02*
X6131486Y-1006843D01*
X6131486Y-1006843D02*
X6112439Y-997319D01*
X6112439Y-997319D02*
X6102915Y-978271D01*
X6102915Y-978271D02*
X6102915Y-959224D01*
X6102915Y-959224D02*
X6112439Y-940176D01*
X6112439Y-940176D02*
X6131486Y-930652D01*
X6131486Y-930652D02*
X6179106Y-930652D01*
X6179106Y-930652D02*
X6198153Y-921129D01*
X6264820Y-873509D02*
X6341010Y-873509D01*
X6293391Y-806843D02*
X6293391Y-978271D01*
X6293391Y-978271D02*
X6302915Y-997319D01*
X6302915Y-997319D02*
X6321963Y-1006843D01*
X6321963Y-1006843D02*
X6341010Y-1006843D01*
X6483867Y-997319D02*
X6464820Y-1006843D01*
X6464820Y-1006843D02*
X6426725Y-1006843D01*
X6426725Y-1006843D02*
X6407677Y-997319D01*
X6407677Y-997319D02*
X6398153Y-978271D01*
X6398153Y-978271D02*
X6398153Y-902081D01*
X6398153Y-902081D02*
X6407677Y-883033D01*
X6407677Y-883033D02*
X6426725Y-873509D01*
X6426725Y-873509D02*
X6464820Y-873509D01*
X6464820Y-873509D02*
X6483867Y-883033D01*
X6483867Y-883033D02*
X6493391Y-902081D01*
X6493391Y-902081D02*
X6493391Y-921129D01*
X6493391Y-921129D02*
X6398153Y-940176D01*
X6664820Y-1006843D02*
X6664820Y-806843D01*
X6664820Y-997319D02*
X6645772Y-1006843D01*
X6645772Y-1006843D02*
X6607677Y-1006843D01*
X6607677Y-1006843D02*
X6588629Y-997319D01*
X6588629Y-997319D02*
X6579106Y-987795D01*
X6579106Y-987795D02*
X6569582Y-968748D01*
X6569582Y-968748D02*
X6569582Y-911605D01*
X6569582Y-911605D02*
X6579106Y-892557D01*
X6579106Y-892557D02*
X6588629Y-883033D01*
X6588629Y-883033D02*
X6607677Y-873509D01*
X6607677Y-873509D02*
X6645772Y-873509D01*
X6645772Y-873509D02*
X6664820Y-883033D01*
X6741010Y-1083033D02*
X6750534Y-1073510D01*
X6750534Y-1073510D02*
X6769582Y-1044938D01*
X6769582Y-1044938D02*
X6779106Y-1025890D01*
X6779106Y-1025890D02*
X6788629Y-997319D01*
X6788629Y-997319D02*
X6798153Y-949700D01*
X6798153Y-949700D02*
X6798153Y-911605D01*
X6798153Y-911605D02*
X6788629Y-863986D01*
X6788629Y-863986D02*
X6779106Y-835414D01*
X6779106Y-835414D02*
X6769582Y-816367D01*
X6769582Y-816367D02*
X6750534Y-787795D01*
X6750534Y-787795D02*
X6741010Y-778271D01*
M02*
