%TF.GenerationSoftware,KiCad,Pcbnew,9.0.0*%
%TF.CreationDate,2025-04-12T10:41:42+08:00*%
%TF.ProjectId,ESP32-EVB_Rev_K1,45535033-322d-4455-9642-5f5265765f4b,K1*%
%TF.SameCoordinates,PXc1d4028PY6c847bc*%
%TF.FileFunction,Legend,Top*%
%TF.FilePolarity,Positive*%
%FSLAX46Y46*%
G04 Gerber Fmt 4.6, Leading zero omitted, Abs format (unit mm)*
G04 Created by KiCad (PCBNEW 9.0.0) date 2025-04-12 10:41:42*
%MOMM*%
%LPD*%
G01*
G04 APERTURE LIST*
%ADD10C,0.317500*%
%ADD11C,0.190500*%
%ADD12C,0.158750*%
%ADD13C,0.254000*%
%ADD14C,0.150000*%
%ADD15C,0.127000*%
%ADD16C,0.200000*%
%ADD17C,0.400000*%
%ADD18C,0.100000*%
%ADD19C,0.050000*%
G04 APERTURE END LIST*
D10*
X29147324Y13344694D02*
X29147324Y12377074D01*
X28663514Y12860884D02*
X29631133Y12860884D01*
X32507039Y4551691D02*
X32507039Y3584071D01*
D11*
X3574949Y42235371D02*
X3538663Y42199085D01*
X3538663Y42199085D02*
X3429806Y42162800D01*
X3429806Y42162800D02*
X3357234Y42162800D01*
X3357234Y42162800D02*
X3248377Y42199085D01*
X3248377Y42199085D02*
X3175806Y42271657D01*
X3175806Y42271657D02*
X3139520Y42344228D01*
X3139520Y42344228D02*
X3103234Y42489371D01*
X3103234Y42489371D02*
X3103234Y42598228D01*
X3103234Y42598228D02*
X3139520Y42743371D01*
X3139520Y42743371D02*
X3175806Y42815943D01*
X3175806Y42815943D02*
X3248377Y42888514D01*
X3248377Y42888514D02*
X3357234Y42924800D01*
X3357234Y42924800D02*
X3429806Y42924800D01*
X3429806Y42924800D02*
X3538663Y42888514D01*
X3538663Y42888514D02*
X3574949Y42852228D01*
X4010377Y42598228D02*
X3937806Y42634514D01*
X3937806Y42634514D02*
X3901520Y42670800D01*
X3901520Y42670800D02*
X3865234Y42743371D01*
X3865234Y42743371D02*
X3865234Y42779657D01*
X3865234Y42779657D02*
X3901520Y42852228D01*
X3901520Y42852228D02*
X3937806Y42888514D01*
X3937806Y42888514D02*
X4010377Y42924800D01*
X4010377Y42924800D02*
X4155520Y42924800D01*
X4155520Y42924800D02*
X4228092Y42888514D01*
X4228092Y42888514D02*
X4264377Y42852228D01*
X4264377Y42852228D02*
X4300663Y42779657D01*
X4300663Y42779657D02*
X4300663Y42743371D01*
X4300663Y42743371D02*
X4264377Y42670800D01*
X4264377Y42670800D02*
X4228092Y42634514D01*
X4228092Y42634514D02*
X4155520Y42598228D01*
X4155520Y42598228D02*
X4010377Y42598228D01*
X4010377Y42598228D02*
X3937806Y42561943D01*
X3937806Y42561943D02*
X3901520Y42525657D01*
X3901520Y42525657D02*
X3865234Y42453085D01*
X3865234Y42453085D02*
X3865234Y42307943D01*
X3865234Y42307943D02*
X3901520Y42235371D01*
X3901520Y42235371D02*
X3937806Y42199085D01*
X3937806Y42199085D02*
X4010377Y42162800D01*
X4010377Y42162800D02*
X4155520Y42162800D01*
X4155520Y42162800D02*
X4228092Y42199085D01*
X4228092Y42199085D02*
X4264377Y42235371D01*
X4264377Y42235371D02*
X4300663Y42307943D01*
X4300663Y42307943D02*
X4300663Y42453085D01*
X4300663Y42453085D02*
X4264377Y42525657D01*
X4264377Y42525657D02*
X4228092Y42561943D01*
X4228092Y42561943D02*
X4155520Y42598228D01*
X5352949Y42235371D02*
X5316663Y42199085D01*
X5316663Y42199085D02*
X5207806Y42162800D01*
X5207806Y42162800D02*
X5135234Y42162800D01*
X5135234Y42162800D02*
X5026377Y42199085D01*
X5026377Y42199085D02*
X4953806Y42271657D01*
X4953806Y42271657D02*
X4917520Y42344228D01*
X4917520Y42344228D02*
X4881234Y42489371D01*
X4881234Y42489371D02*
X4881234Y42598228D01*
X4881234Y42598228D02*
X4917520Y42743371D01*
X4917520Y42743371D02*
X4953806Y42815943D01*
X4953806Y42815943D02*
X5026377Y42888514D01*
X5026377Y42888514D02*
X5135234Y42924800D01*
X5135234Y42924800D02*
X5207806Y42924800D01*
X5207806Y42924800D02*
X5316663Y42888514D01*
X5316663Y42888514D02*
X5352949Y42852228D01*
X5715806Y42162800D02*
X5860949Y42162800D01*
X5860949Y42162800D02*
X5933520Y42199085D01*
X5933520Y42199085D02*
X5969806Y42235371D01*
X5969806Y42235371D02*
X6042377Y42344228D01*
X6042377Y42344228D02*
X6078663Y42489371D01*
X6078663Y42489371D02*
X6078663Y42779657D01*
X6078663Y42779657D02*
X6042377Y42852228D01*
X6042377Y42852228D02*
X6006092Y42888514D01*
X6006092Y42888514D02*
X5933520Y42924800D01*
X5933520Y42924800D02*
X5788377Y42924800D01*
X5788377Y42924800D02*
X5715806Y42888514D01*
X5715806Y42888514D02*
X5679520Y42852228D01*
X5679520Y42852228D02*
X5643234Y42779657D01*
X5643234Y42779657D02*
X5643234Y42598228D01*
X5643234Y42598228D02*
X5679520Y42525657D01*
X5679520Y42525657D02*
X5715806Y42489371D01*
X5715806Y42489371D02*
X5788377Y42453085D01*
X5788377Y42453085D02*
X5933520Y42453085D01*
X5933520Y42453085D02*
X6006092Y42489371D01*
X6006092Y42489371D02*
X6042377Y42525657D01*
X6042377Y42525657D02*
X6078663Y42598228D01*
X11119383Y42212016D02*
X11083097Y42175730D01*
X11083097Y42175730D02*
X10974240Y42139445D01*
X10974240Y42139445D02*
X10901668Y42139445D01*
X10901668Y42139445D02*
X10792811Y42175730D01*
X10792811Y42175730D02*
X10720240Y42248302D01*
X10720240Y42248302D02*
X10683954Y42320873D01*
X10683954Y42320873D02*
X10647668Y42466016D01*
X10647668Y42466016D02*
X10647668Y42574873D01*
X10647668Y42574873D02*
X10683954Y42720016D01*
X10683954Y42720016D02*
X10720240Y42792588D01*
X10720240Y42792588D02*
X10792811Y42865159D01*
X10792811Y42865159D02*
X10901668Y42901445D01*
X10901668Y42901445D02*
X10974240Y42901445D01*
X10974240Y42901445D02*
X11083097Y42865159D01*
X11083097Y42865159D02*
X11119383Y42828873D01*
X11845097Y42139445D02*
X11409668Y42139445D01*
X11627383Y42139445D02*
X11627383Y42901445D01*
X11627383Y42901445D02*
X11554811Y42792588D01*
X11554811Y42792588D02*
X11482240Y42720016D01*
X11482240Y42720016D02*
X11409668Y42683730D01*
X12099097Y42901445D02*
X12570811Y42901445D01*
X12570811Y42901445D02*
X12316811Y42611159D01*
X12316811Y42611159D02*
X12425668Y42611159D01*
X12425668Y42611159D02*
X12498240Y42574873D01*
X12498240Y42574873D02*
X12534525Y42538588D01*
X12534525Y42538588D02*
X12570811Y42466016D01*
X12570811Y42466016D02*
X12570811Y42284588D01*
X12570811Y42284588D02*
X12534525Y42212016D01*
X12534525Y42212016D02*
X12498240Y42175730D01*
X12498240Y42175730D02*
X12425668Y42139445D01*
X12425668Y42139445D02*
X12207954Y42139445D01*
X12207954Y42139445D02*
X12135382Y42175730D01*
X12135382Y42175730D02*
X12099097Y42212016D01*
D12*
X12338984Y30171513D02*
X12308746Y30141274D01*
X12308746Y30141274D02*
X12218032Y30111036D01*
X12218032Y30111036D02*
X12157556Y30111036D01*
X12157556Y30111036D02*
X12066841Y30141274D01*
X12066841Y30141274D02*
X12006365Y30201751D01*
X12006365Y30201751D02*
X11976127Y30262227D01*
X11976127Y30262227D02*
X11945889Y30383179D01*
X11945889Y30383179D02*
X11945889Y30473894D01*
X11945889Y30473894D02*
X11976127Y30594846D01*
X11976127Y30594846D02*
X12006365Y30655322D01*
X12006365Y30655322D02*
X12066841Y30715798D01*
X12066841Y30715798D02*
X12157556Y30746036D01*
X12157556Y30746036D02*
X12218032Y30746036D01*
X12218032Y30746036D02*
X12308746Y30715798D01*
X12308746Y30715798D02*
X12338984Y30685560D01*
X12943746Y30111036D02*
X12580889Y30111036D01*
X12762317Y30111036D02*
X12762317Y30746036D01*
X12762317Y30746036D02*
X12701841Y30655322D01*
X12701841Y30655322D02*
X12641365Y30594846D01*
X12641365Y30594846D02*
X12580889Y30564608D01*
X13518270Y30746036D02*
X13215889Y30746036D01*
X13215889Y30746036D02*
X13185651Y30443655D01*
X13185651Y30443655D02*
X13215889Y30473894D01*
X13215889Y30473894D02*
X13276365Y30504132D01*
X13276365Y30504132D02*
X13427556Y30504132D01*
X13427556Y30504132D02*
X13488032Y30473894D01*
X13488032Y30473894D02*
X13518270Y30443655D01*
X13518270Y30443655D02*
X13548508Y30383179D01*
X13548508Y30383179D02*
X13548508Y30231989D01*
X13548508Y30231989D02*
X13518270Y30171513D01*
X13518270Y30171513D02*
X13488032Y30141274D01*
X13488032Y30141274D02*
X13427556Y30111036D01*
X13427556Y30111036D02*
X13276365Y30111036D01*
X13276365Y30111036D02*
X13215889Y30141274D01*
X13215889Y30141274D02*
X13185651Y30171513D01*
X12698984Y35741513D02*
X12668746Y35711274D01*
X12668746Y35711274D02*
X12578032Y35681036D01*
X12578032Y35681036D02*
X12517556Y35681036D01*
X12517556Y35681036D02*
X12426841Y35711274D01*
X12426841Y35711274D02*
X12366365Y35771751D01*
X12366365Y35771751D02*
X12336127Y35832227D01*
X12336127Y35832227D02*
X12305889Y35953179D01*
X12305889Y35953179D02*
X12305889Y36043894D01*
X12305889Y36043894D02*
X12336127Y36164846D01*
X12336127Y36164846D02*
X12366365Y36225322D01*
X12366365Y36225322D02*
X12426841Y36285798D01*
X12426841Y36285798D02*
X12517556Y36316036D01*
X12517556Y36316036D02*
X12578032Y36316036D01*
X12578032Y36316036D02*
X12668746Y36285798D01*
X12668746Y36285798D02*
X12698984Y36255560D01*
X13303746Y35681036D02*
X12940889Y35681036D01*
X13122317Y35681036D02*
X13122317Y36316036D01*
X13122317Y36316036D02*
X13061841Y36225322D01*
X13061841Y36225322D02*
X13001365Y36164846D01*
X13001365Y36164846D02*
X12940889Y36134608D01*
X13848032Y36316036D02*
X13727079Y36316036D01*
X13727079Y36316036D02*
X13666603Y36285798D01*
X13666603Y36285798D02*
X13636365Y36255560D01*
X13636365Y36255560D02*
X13575889Y36164846D01*
X13575889Y36164846D02*
X13545651Y36043894D01*
X13545651Y36043894D02*
X13545651Y35801989D01*
X13545651Y35801989D02*
X13575889Y35741513D01*
X13575889Y35741513D02*
X13606127Y35711274D01*
X13606127Y35711274D02*
X13666603Y35681036D01*
X13666603Y35681036D02*
X13787556Y35681036D01*
X13787556Y35681036D02*
X13848032Y35711274D01*
X13848032Y35711274D02*
X13878270Y35741513D01*
X13878270Y35741513D02*
X13908508Y35801989D01*
X13908508Y35801989D02*
X13908508Y35953179D01*
X13908508Y35953179D02*
X13878270Y36013655D01*
X13878270Y36013655D02*
X13848032Y36043894D01*
X13848032Y36043894D02*
X13787556Y36074132D01*
X13787556Y36074132D02*
X13666603Y36074132D01*
X13666603Y36074132D02*
X13606127Y36043894D01*
X13606127Y36043894D02*
X13575889Y36013655D01*
X13575889Y36013655D02*
X13545651Y35953179D01*
X13432230Y33878330D02*
X13462469Y33848092D01*
X13462469Y33848092D02*
X13492707Y33757378D01*
X13492707Y33757378D02*
X13492707Y33696902D01*
X13492707Y33696902D02*
X13462469Y33606187D01*
X13462469Y33606187D02*
X13401992Y33545711D01*
X13401992Y33545711D02*
X13341516Y33515473D01*
X13341516Y33515473D02*
X13220564Y33485235D01*
X13220564Y33485235D02*
X13129849Y33485235D01*
X13129849Y33485235D02*
X13008897Y33515473D01*
X13008897Y33515473D02*
X12948421Y33545711D01*
X12948421Y33545711D02*
X12887945Y33606187D01*
X12887945Y33606187D02*
X12857707Y33696902D01*
X12857707Y33696902D02*
X12857707Y33757378D01*
X12857707Y33757378D02*
X12887945Y33848092D01*
X12887945Y33848092D02*
X12918183Y33878330D01*
X13492707Y34483092D02*
X13492707Y34120235D01*
X13492707Y34301663D02*
X12857707Y34301663D01*
X12857707Y34301663D02*
X12948421Y34241187D01*
X12948421Y34241187D02*
X13008897Y34180711D01*
X13008897Y34180711D02*
X13039135Y34120235D01*
X12857707Y34694759D02*
X12857707Y35118092D01*
X12857707Y35118092D02*
X13492707Y34845949D01*
D11*
X6167237Y34176688D02*
X6203523Y34140402D01*
X6203523Y34140402D02*
X6239808Y34031545D01*
X6239808Y34031545D02*
X6239808Y33958973D01*
X6239808Y33958973D02*
X6203523Y33850116D01*
X6203523Y33850116D02*
X6130951Y33777545D01*
X6130951Y33777545D02*
X6058380Y33741259D01*
X6058380Y33741259D02*
X5913237Y33704973D01*
X5913237Y33704973D02*
X5804380Y33704973D01*
X5804380Y33704973D02*
X5659237Y33741259D01*
X5659237Y33741259D02*
X5586665Y33777545D01*
X5586665Y33777545D02*
X5514094Y33850116D01*
X5514094Y33850116D02*
X5477808Y33958973D01*
X5477808Y33958973D02*
X5477808Y34031545D01*
X5477808Y34031545D02*
X5514094Y34140402D01*
X5514094Y34140402D02*
X5550380Y34176688D01*
X6239808Y34902402D02*
X6239808Y34466973D01*
X6239808Y34684688D02*
X5477808Y34684688D01*
X5477808Y34684688D02*
X5586665Y34612116D01*
X5586665Y34612116D02*
X5659237Y34539545D01*
X5659237Y34539545D02*
X5695523Y34466973D01*
X5804380Y35337830D02*
X5768094Y35265259D01*
X5768094Y35265259D02*
X5731808Y35228973D01*
X5731808Y35228973D02*
X5659237Y35192687D01*
X5659237Y35192687D02*
X5622951Y35192687D01*
X5622951Y35192687D02*
X5550380Y35228973D01*
X5550380Y35228973D02*
X5514094Y35265259D01*
X5514094Y35265259D02*
X5477808Y35337830D01*
X5477808Y35337830D02*
X5477808Y35482973D01*
X5477808Y35482973D02*
X5514094Y35555544D01*
X5514094Y35555544D02*
X5550380Y35591830D01*
X5550380Y35591830D02*
X5622951Y35628116D01*
X5622951Y35628116D02*
X5659237Y35628116D01*
X5659237Y35628116D02*
X5731808Y35591830D01*
X5731808Y35591830D02*
X5768094Y35555544D01*
X5768094Y35555544D02*
X5804380Y35482973D01*
X5804380Y35482973D02*
X5804380Y35337830D01*
X5804380Y35337830D02*
X5840665Y35265259D01*
X5840665Y35265259D02*
X5876951Y35228973D01*
X5876951Y35228973D02*
X5949523Y35192687D01*
X5949523Y35192687D02*
X6094665Y35192687D01*
X6094665Y35192687D02*
X6167237Y35228973D01*
X6167237Y35228973D02*
X6203523Y35265259D01*
X6203523Y35265259D02*
X6239808Y35337830D01*
X6239808Y35337830D02*
X6239808Y35482973D01*
X6239808Y35482973D02*
X6203523Y35555544D01*
X6203523Y35555544D02*
X6167237Y35591830D01*
X6167237Y35591830D02*
X6094665Y35628116D01*
X6094665Y35628116D02*
X5949523Y35628116D01*
X5949523Y35628116D02*
X5876951Y35591830D01*
X5876951Y35591830D02*
X5840665Y35555544D01*
X5840665Y35555544D02*
X5804380Y35482973D01*
X19657949Y29616506D02*
X19621663Y29580220D01*
X19621663Y29580220D02*
X19512806Y29543935D01*
X19512806Y29543935D02*
X19440234Y29543935D01*
X19440234Y29543935D02*
X19331377Y29580220D01*
X19331377Y29580220D02*
X19258806Y29652792D01*
X19258806Y29652792D02*
X19222520Y29725363D01*
X19222520Y29725363D02*
X19186234Y29870506D01*
X19186234Y29870506D02*
X19186234Y29979363D01*
X19186234Y29979363D02*
X19222520Y30124506D01*
X19222520Y30124506D02*
X19258806Y30197078D01*
X19258806Y30197078D02*
X19331377Y30269649D01*
X19331377Y30269649D02*
X19440234Y30305935D01*
X19440234Y30305935D02*
X19512806Y30305935D01*
X19512806Y30305935D02*
X19621663Y30269649D01*
X19621663Y30269649D02*
X19657949Y30233363D01*
X20419949Y29543935D02*
X20165949Y29906792D01*
X19984520Y29543935D02*
X19984520Y30305935D01*
X19984520Y30305935D02*
X20274806Y30305935D01*
X20274806Y30305935D02*
X20347377Y30269649D01*
X20347377Y30269649D02*
X20383663Y30233363D01*
X20383663Y30233363D02*
X20419949Y30160792D01*
X20419949Y30160792D02*
X20419949Y30051935D01*
X20419949Y30051935D02*
X20383663Y29979363D01*
X20383663Y29979363D02*
X20347377Y29943078D01*
X20347377Y29943078D02*
X20274806Y29906792D01*
X20274806Y29906792D02*
X19984520Y29906792D01*
X21145663Y29543935D02*
X20710234Y29543935D01*
X20927949Y29543935D02*
X20927949Y30305935D01*
X20927949Y30305935D02*
X20855377Y30197078D01*
X20855377Y30197078D02*
X20782806Y30124506D01*
X20782806Y30124506D02*
X20710234Y30088220D01*
X1202551Y42156235D02*
X839694Y42156235D01*
X839694Y42156235D02*
X839694Y42918235D01*
X1383980Y42918235D02*
X1855694Y42918235D01*
X1855694Y42918235D02*
X1601694Y42627949D01*
X1601694Y42627949D02*
X1710551Y42627949D01*
X1710551Y42627949D02*
X1783123Y42591663D01*
X1783123Y42591663D02*
X1819408Y42555378D01*
X1819408Y42555378D02*
X1855694Y42482806D01*
X1855694Y42482806D02*
X1855694Y42301378D01*
X1855694Y42301378D02*
X1819408Y42228806D01*
X1819408Y42228806D02*
X1783123Y42192520D01*
X1783123Y42192520D02*
X1710551Y42156235D01*
X1710551Y42156235D02*
X1492837Y42156235D01*
X1492837Y42156235D02*
X1420265Y42192520D01*
X1420265Y42192520D02*
X1383980Y42228806D01*
D13*
X27738722Y15299732D02*
X27738722Y16315732D01*
X27738722Y16315732D02*
X28125770Y16315732D01*
X28125770Y16315732D02*
X28222532Y16267351D01*
X28222532Y16267351D02*
X28270913Y16218970D01*
X28270913Y16218970D02*
X28319294Y16122208D01*
X28319294Y16122208D02*
X28319294Y15977065D01*
X28319294Y15977065D02*
X28270913Y15880303D01*
X28270913Y15880303D02*
X28222532Y15831922D01*
X28222532Y15831922D02*
X28125770Y15783541D01*
X28125770Y15783541D02*
X27738722Y15783541D01*
X28657960Y16315732D02*
X28899865Y15299732D01*
X28899865Y15299732D02*
X29093389Y16025446D01*
X29093389Y16025446D02*
X29286913Y15299732D01*
X29286913Y15299732D02*
X29528818Y16315732D01*
X30496437Y15299732D02*
X30157770Y15783541D01*
X29915865Y15299732D02*
X29915865Y16315732D01*
X29915865Y16315732D02*
X30302913Y16315732D01*
X30302913Y16315732D02*
X30399675Y16267351D01*
X30399675Y16267351D02*
X30448056Y16218970D01*
X30448056Y16218970D02*
X30496437Y16122208D01*
X30496437Y16122208D02*
X30496437Y15977065D01*
X30496437Y15977065D02*
X30448056Y15880303D01*
X30448056Y15880303D02*
X30399675Y15831922D01*
X30399675Y15831922D02*
X30302913Y15783541D01*
X30302913Y15783541D02*
X29915865Y15783541D01*
X31464056Y15299732D02*
X30883484Y15299732D01*
X31173770Y15299732D02*
X31173770Y16315732D01*
X31173770Y16315732D02*
X31077008Y16170589D01*
X31077008Y16170589D02*
X30980246Y16073827D01*
X30980246Y16073827D02*
X30883484Y16025446D01*
X50674011Y2188068D02*
X49658011Y2188068D01*
X49658011Y2188068D02*
X49658011Y2575116D01*
X49658011Y2575116D02*
X49706392Y2671878D01*
X49706392Y2671878D02*
X49754773Y2720259D01*
X49754773Y2720259D02*
X49851535Y2768640D01*
X49851535Y2768640D02*
X49996678Y2768640D01*
X49996678Y2768640D02*
X50093440Y2720259D01*
X50093440Y2720259D02*
X50141821Y2671878D01*
X50141821Y2671878D02*
X50190202Y2575116D01*
X50190202Y2575116D02*
X50190202Y2188068D01*
X49658011Y3107306D02*
X50674011Y3349211D01*
X50674011Y3349211D02*
X49948297Y3542735D01*
X49948297Y3542735D02*
X50674011Y3736259D01*
X50674011Y3736259D02*
X49658011Y3978163D01*
X50674011Y4945783D02*
X50190202Y4607116D01*
X50674011Y4365211D02*
X49658011Y4365211D01*
X49658011Y4365211D02*
X49658011Y4752259D01*
X49658011Y4752259D02*
X49706392Y4849021D01*
X49706392Y4849021D02*
X49754773Y4897402D01*
X49754773Y4897402D02*
X49851535Y4945783D01*
X49851535Y4945783D02*
X49996678Y4945783D01*
X49996678Y4945783D02*
X50093440Y4897402D01*
X50093440Y4897402D02*
X50141821Y4849021D01*
X50141821Y4849021D02*
X50190202Y4752259D01*
X50190202Y4752259D02*
X50190202Y4365211D01*
X49754773Y5332830D02*
X49706392Y5381211D01*
X49706392Y5381211D02*
X49658011Y5477973D01*
X49658011Y5477973D02*
X49658011Y5719878D01*
X49658011Y5719878D02*
X49706392Y5816640D01*
X49706392Y5816640D02*
X49754773Y5865021D01*
X49754773Y5865021D02*
X49851535Y5913402D01*
X49851535Y5913402D02*
X49948297Y5913402D01*
X49948297Y5913402D02*
X50093440Y5865021D01*
X50093440Y5865021D02*
X50674011Y5284449D01*
X50674011Y5284449D02*
X50674011Y5913402D01*
D11*
X18017342Y26823935D02*
X17763342Y27186792D01*
X17581913Y26823935D02*
X17581913Y27585935D01*
X17581913Y27585935D02*
X17872199Y27585935D01*
X17872199Y27585935D02*
X17944770Y27549649D01*
X17944770Y27549649D02*
X17981056Y27513363D01*
X17981056Y27513363D02*
X18017342Y27440792D01*
X18017342Y27440792D02*
X18017342Y27331935D01*
X18017342Y27331935D02*
X17981056Y27259363D01*
X17981056Y27259363D02*
X17944770Y27223078D01*
X17944770Y27223078D02*
X17872199Y27186792D01*
X17872199Y27186792D02*
X17581913Y27186792D01*
X18307627Y27513363D02*
X18343913Y27549649D01*
X18343913Y27549649D02*
X18416485Y27585935D01*
X18416485Y27585935D02*
X18597913Y27585935D01*
X18597913Y27585935D02*
X18670485Y27549649D01*
X18670485Y27549649D02*
X18706770Y27513363D01*
X18706770Y27513363D02*
X18743056Y27440792D01*
X18743056Y27440792D02*
X18743056Y27368220D01*
X18743056Y27368220D02*
X18706770Y27259363D01*
X18706770Y27259363D02*
X18271342Y26823935D01*
X18271342Y26823935D02*
X18743056Y26823935D01*
X19396199Y27585935D02*
X19251056Y27585935D01*
X19251056Y27585935D02*
X19178484Y27549649D01*
X19178484Y27549649D02*
X19142199Y27513363D01*
X19142199Y27513363D02*
X19069627Y27404506D01*
X19069627Y27404506D02*
X19033341Y27259363D01*
X19033341Y27259363D02*
X19033341Y26969078D01*
X19033341Y26969078D02*
X19069627Y26896506D01*
X19069627Y26896506D02*
X19105913Y26860220D01*
X19105913Y26860220D02*
X19178484Y26823935D01*
X19178484Y26823935D02*
X19323627Y26823935D01*
X19323627Y26823935D02*
X19396199Y26860220D01*
X19396199Y26860220D02*
X19432484Y26896506D01*
X19432484Y26896506D02*
X19468770Y26969078D01*
X19468770Y26969078D02*
X19468770Y27150506D01*
X19468770Y27150506D02*
X19432484Y27223078D01*
X19432484Y27223078D02*
X19396199Y27259363D01*
X19396199Y27259363D02*
X19323627Y27295649D01*
X19323627Y27295649D02*
X19178484Y27295649D01*
X19178484Y27295649D02*
X19105913Y27259363D01*
X19105913Y27259363D02*
X19069627Y27223078D01*
X19069627Y27223078D02*
X19033341Y27150506D01*
X1533536Y4833935D02*
X1279536Y5196792D01*
X1098107Y4833935D02*
X1098107Y5595935D01*
X1098107Y5595935D02*
X1388393Y5595935D01*
X1388393Y5595935D02*
X1460964Y5559649D01*
X1460964Y5559649D02*
X1497250Y5523363D01*
X1497250Y5523363D02*
X1533536Y5450792D01*
X1533536Y5450792D02*
X1533536Y5341935D01*
X1533536Y5341935D02*
X1497250Y5269363D01*
X1497250Y5269363D02*
X1460964Y5233078D01*
X1460964Y5233078D02*
X1388393Y5196792D01*
X1388393Y5196792D02*
X1098107Y5196792D01*
X1823821Y5523363D02*
X1860107Y5559649D01*
X1860107Y5559649D02*
X1932679Y5595935D01*
X1932679Y5595935D02*
X2114107Y5595935D01*
X2114107Y5595935D02*
X2186679Y5559649D01*
X2186679Y5559649D02*
X2222964Y5523363D01*
X2222964Y5523363D02*
X2259250Y5450792D01*
X2259250Y5450792D02*
X2259250Y5378220D01*
X2259250Y5378220D02*
X2222964Y5269363D01*
X2222964Y5269363D02*
X1787536Y4833935D01*
X1787536Y4833935D02*
X2259250Y4833935D01*
X2513250Y5595935D02*
X3021250Y5595935D01*
X3021250Y5595935D02*
X2694678Y4833935D01*
X23467342Y29833935D02*
X23213342Y30196792D01*
X23031913Y29833935D02*
X23031913Y30595935D01*
X23031913Y30595935D02*
X23322199Y30595935D01*
X23322199Y30595935D02*
X23394770Y30559649D01*
X23394770Y30559649D02*
X23431056Y30523363D01*
X23431056Y30523363D02*
X23467342Y30450792D01*
X23467342Y30450792D02*
X23467342Y30341935D01*
X23467342Y30341935D02*
X23431056Y30269363D01*
X23431056Y30269363D02*
X23394770Y30233078D01*
X23394770Y30233078D02*
X23322199Y30196792D01*
X23322199Y30196792D02*
X23031913Y30196792D01*
X23721342Y30595935D02*
X24193056Y30595935D01*
X24193056Y30595935D02*
X23939056Y30305649D01*
X23939056Y30305649D02*
X24047913Y30305649D01*
X24047913Y30305649D02*
X24120485Y30269363D01*
X24120485Y30269363D02*
X24156770Y30233078D01*
X24156770Y30233078D02*
X24193056Y30160506D01*
X24193056Y30160506D02*
X24193056Y29979078D01*
X24193056Y29979078D02*
X24156770Y29906506D01*
X24156770Y29906506D02*
X24120485Y29870220D01*
X24120485Y29870220D02*
X24047913Y29833935D01*
X24047913Y29833935D02*
X23830199Y29833935D01*
X23830199Y29833935D02*
X23757627Y29870220D01*
X23757627Y29870220D02*
X23721342Y29906506D01*
X24846199Y30341935D02*
X24846199Y29833935D01*
X24664770Y30632220D02*
X24483341Y30087935D01*
X24483341Y30087935D02*
X24955056Y30087935D01*
D12*
X13522707Y31768330D02*
X13220326Y31556663D01*
X13522707Y31405473D02*
X12887707Y31405473D01*
X12887707Y31405473D02*
X12887707Y31647378D01*
X12887707Y31647378D02*
X12917945Y31707854D01*
X12917945Y31707854D02*
X12948183Y31738092D01*
X12948183Y31738092D02*
X13008659Y31768330D01*
X13008659Y31768330D02*
X13099373Y31768330D01*
X13099373Y31768330D02*
X13159849Y31738092D01*
X13159849Y31738092D02*
X13190088Y31707854D01*
X13190088Y31707854D02*
X13220326Y31647378D01*
X13220326Y31647378D02*
X13220326Y31405473D01*
X12887707Y31979997D02*
X12887707Y32373092D01*
X12887707Y32373092D02*
X13129611Y32161425D01*
X13129611Y32161425D02*
X13129611Y32252140D01*
X13129611Y32252140D02*
X13159849Y32312616D01*
X13159849Y32312616D02*
X13190088Y32342854D01*
X13190088Y32342854D02*
X13250564Y32373092D01*
X13250564Y32373092D02*
X13401754Y32373092D01*
X13401754Y32373092D02*
X13462230Y32342854D01*
X13462230Y32342854D02*
X13492469Y32312616D01*
X13492469Y32312616D02*
X13522707Y32252140D01*
X13522707Y32252140D02*
X13522707Y32070711D01*
X13522707Y32070711D02*
X13492469Y32010235D01*
X13492469Y32010235D02*
X13462230Y31979997D01*
X12887707Y32917378D02*
X12887707Y32796425D01*
X12887707Y32796425D02*
X12917945Y32735949D01*
X12917945Y32735949D02*
X12948183Y32705711D01*
X12948183Y32705711D02*
X13038897Y32645235D01*
X13038897Y32645235D02*
X13159849Y32614997D01*
X13159849Y32614997D02*
X13401754Y32614997D01*
X13401754Y32614997D02*
X13462230Y32645235D01*
X13462230Y32645235D02*
X13492469Y32675473D01*
X13492469Y32675473D02*
X13522707Y32735949D01*
X13522707Y32735949D02*
X13522707Y32856902D01*
X13522707Y32856902D02*
X13492469Y32917378D01*
X13492469Y32917378D02*
X13462230Y32947616D01*
X13462230Y32947616D02*
X13401754Y32977854D01*
X13401754Y32977854D02*
X13250564Y32977854D01*
X13250564Y32977854D02*
X13190088Y32947616D01*
X13190088Y32947616D02*
X13159849Y32917378D01*
X13159849Y32917378D02*
X13129611Y32856902D01*
X13129611Y32856902D02*
X13129611Y32735949D01*
X13129611Y32735949D02*
X13159849Y32675473D01*
X13159849Y32675473D02*
X13190088Y32645235D01*
X13190088Y32645235D02*
X13250564Y32614997D01*
D11*
X1169808Y35596688D02*
X806951Y35342688D01*
X1169808Y35161259D02*
X407808Y35161259D01*
X407808Y35161259D02*
X407808Y35451545D01*
X407808Y35451545D02*
X444094Y35524116D01*
X444094Y35524116D02*
X480380Y35560402D01*
X480380Y35560402D02*
X552951Y35596688D01*
X552951Y35596688D02*
X661808Y35596688D01*
X661808Y35596688D02*
X734380Y35560402D01*
X734380Y35560402D02*
X770665Y35524116D01*
X770665Y35524116D02*
X806951Y35451545D01*
X806951Y35451545D02*
X806951Y35161259D01*
X407808Y35850688D02*
X407808Y36322402D01*
X407808Y36322402D02*
X698094Y36068402D01*
X698094Y36068402D02*
X698094Y36177259D01*
X698094Y36177259D02*
X734380Y36249830D01*
X734380Y36249830D02*
X770665Y36286116D01*
X770665Y36286116D02*
X843237Y36322402D01*
X843237Y36322402D02*
X1024665Y36322402D01*
X1024665Y36322402D02*
X1097237Y36286116D01*
X1097237Y36286116D02*
X1133523Y36249830D01*
X1133523Y36249830D02*
X1169808Y36177259D01*
X1169808Y36177259D02*
X1169808Y35959545D01*
X1169808Y35959545D02*
X1133523Y35886973D01*
X1133523Y35886973D02*
X1097237Y35850688D01*
X734380Y36757830D02*
X698094Y36685259D01*
X698094Y36685259D02*
X661808Y36648973D01*
X661808Y36648973D02*
X589237Y36612687D01*
X589237Y36612687D02*
X552951Y36612687D01*
X552951Y36612687D02*
X480380Y36648973D01*
X480380Y36648973D02*
X444094Y36685259D01*
X444094Y36685259D02*
X407808Y36757830D01*
X407808Y36757830D02*
X407808Y36902973D01*
X407808Y36902973D02*
X444094Y36975544D01*
X444094Y36975544D02*
X480380Y37011830D01*
X480380Y37011830D02*
X552951Y37048116D01*
X552951Y37048116D02*
X589237Y37048116D01*
X589237Y37048116D02*
X661808Y37011830D01*
X661808Y37011830D02*
X698094Y36975544D01*
X698094Y36975544D02*
X734380Y36902973D01*
X734380Y36902973D02*
X734380Y36757830D01*
X734380Y36757830D02*
X770665Y36685259D01*
X770665Y36685259D02*
X806951Y36648973D01*
X806951Y36648973D02*
X879523Y36612687D01*
X879523Y36612687D02*
X1024665Y36612687D01*
X1024665Y36612687D02*
X1097237Y36648973D01*
X1097237Y36648973D02*
X1133523Y36685259D01*
X1133523Y36685259D02*
X1169808Y36757830D01*
X1169808Y36757830D02*
X1169808Y36902973D01*
X1169808Y36902973D02*
X1133523Y36975544D01*
X1133523Y36975544D02*
X1097237Y37011830D01*
X1097237Y37011830D02*
X1024665Y37048116D01*
X1024665Y37048116D02*
X879523Y37048116D01*
X879523Y37048116D02*
X806951Y37011830D01*
X806951Y37011830D02*
X770665Y36975544D01*
X770665Y36975544D02*
X734380Y36902973D01*
D12*
X18298984Y29031036D02*
X18087317Y29333417D01*
X17936127Y29031036D02*
X17936127Y29666036D01*
X17936127Y29666036D02*
X18178032Y29666036D01*
X18178032Y29666036D02*
X18238508Y29635798D01*
X18238508Y29635798D02*
X18268746Y29605560D01*
X18268746Y29605560D02*
X18298984Y29545084D01*
X18298984Y29545084D02*
X18298984Y29454370D01*
X18298984Y29454370D02*
X18268746Y29393894D01*
X18268746Y29393894D02*
X18238508Y29363655D01*
X18238508Y29363655D02*
X18178032Y29333417D01*
X18178032Y29333417D02*
X17936127Y29333417D01*
X18510651Y29666036D02*
X18903746Y29666036D01*
X18903746Y29666036D02*
X18692079Y29424132D01*
X18692079Y29424132D02*
X18782794Y29424132D01*
X18782794Y29424132D02*
X18843270Y29393894D01*
X18843270Y29393894D02*
X18873508Y29363655D01*
X18873508Y29363655D02*
X18903746Y29303179D01*
X18903746Y29303179D02*
X18903746Y29151989D01*
X18903746Y29151989D02*
X18873508Y29091513D01*
X18873508Y29091513D02*
X18843270Y29061274D01*
X18843270Y29061274D02*
X18782794Y29031036D01*
X18782794Y29031036D02*
X18601365Y29031036D01*
X18601365Y29031036D02*
X18540889Y29061274D01*
X18540889Y29061274D02*
X18510651Y29091513D01*
X19206127Y29031036D02*
X19327079Y29031036D01*
X19327079Y29031036D02*
X19387556Y29061274D01*
X19387556Y29061274D02*
X19417794Y29091513D01*
X19417794Y29091513D02*
X19478270Y29182227D01*
X19478270Y29182227D02*
X19508508Y29303179D01*
X19508508Y29303179D02*
X19508508Y29545084D01*
X19508508Y29545084D02*
X19478270Y29605560D01*
X19478270Y29605560D02*
X19448032Y29635798D01*
X19448032Y29635798D02*
X19387556Y29666036D01*
X19387556Y29666036D02*
X19266603Y29666036D01*
X19266603Y29666036D02*
X19206127Y29635798D01*
X19206127Y29635798D02*
X19175889Y29605560D01*
X19175889Y29605560D02*
X19145651Y29545084D01*
X19145651Y29545084D02*
X19145651Y29393894D01*
X19145651Y29393894D02*
X19175889Y29333417D01*
X19175889Y29333417D02*
X19206127Y29303179D01*
X19206127Y29303179D02*
X19266603Y29272941D01*
X19266603Y29272941D02*
X19387556Y29272941D01*
X19387556Y29272941D02*
X19448032Y29303179D01*
X19448032Y29303179D02*
X19478270Y29333417D01*
X19478270Y29333417D02*
X19508508Y29393894D01*
X41808984Y45841036D02*
X41597317Y46143417D01*
X41446127Y45841036D02*
X41446127Y46476036D01*
X41446127Y46476036D02*
X41688032Y46476036D01*
X41688032Y46476036D02*
X41748508Y46445798D01*
X41748508Y46445798D02*
X41778746Y46415560D01*
X41778746Y46415560D02*
X41808984Y46355084D01*
X41808984Y46355084D02*
X41808984Y46264370D01*
X41808984Y46264370D02*
X41778746Y46203894D01*
X41778746Y46203894D02*
X41748508Y46173655D01*
X41748508Y46173655D02*
X41688032Y46143417D01*
X41688032Y46143417D02*
X41446127Y46143417D01*
X42353270Y46264370D02*
X42353270Y45841036D01*
X42202079Y46506274D02*
X42050889Y46052703D01*
X42050889Y46052703D02*
X42443984Y46052703D01*
X43018508Y45841036D02*
X42655651Y45841036D01*
X42837079Y45841036D02*
X42837079Y46476036D01*
X42837079Y46476036D02*
X42776603Y46385322D01*
X42776603Y46385322D02*
X42716127Y46324846D01*
X42716127Y46324846D02*
X42655651Y46294608D01*
D11*
X14884771Y42043935D02*
X14630771Y42406792D01*
X14449342Y42043935D02*
X14449342Y42805935D01*
X14449342Y42805935D02*
X14739628Y42805935D01*
X14739628Y42805935D02*
X14812199Y42769649D01*
X14812199Y42769649D02*
X14848485Y42733363D01*
X14848485Y42733363D02*
X14884771Y42660792D01*
X14884771Y42660792D02*
X14884771Y42551935D01*
X14884771Y42551935D02*
X14848485Y42479363D01*
X14848485Y42479363D02*
X14812199Y42443078D01*
X14812199Y42443078D02*
X14739628Y42406792D01*
X14739628Y42406792D02*
X14449342Y42406792D01*
X15211342Y42043935D02*
X15211342Y42805935D01*
X15211342Y42805935D02*
X15465342Y42261649D01*
X15465342Y42261649D02*
X15719342Y42805935D01*
X15719342Y42805935D02*
X15719342Y42043935D01*
X16045913Y42733363D02*
X16082199Y42769649D01*
X16082199Y42769649D02*
X16154771Y42805935D01*
X16154771Y42805935D02*
X16336199Y42805935D01*
X16336199Y42805935D02*
X16408771Y42769649D01*
X16408771Y42769649D02*
X16445056Y42733363D01*
X16445056Y42733363D02*
X16481342Y42660792D01*
X16481342Y42660792D02*
X16481342Y42588220D01*
X16481342Y42588220D02*
X16445056Y42479363D01*
X16445056Y42479363D02*
X16009628Y42043935D01*
X16009628Y42043935D02*
X16481342Y42043935D01*
X7941602Y42159214D02*
X7687602Y42522071D01*
X7506173Y42159214D02*
X7506173Y42921214D01*
X7506173Y42921214D02*
X7796459Y42921214D01*
X7796459Y42921214D02*
X7869030Y42884928D01*
X7869030Y42884928D02*
X7905316Y42848642D01*
X7905316Y42848642D02*
X7941602Y42776071D01*
X7941602Y42776071D02*
X7941602Y42667214D01*
X7941602Y42667214D02*
X7905316Y42594642D01*
X7905316Y42594642D02*
X7869030Y42558357D01*
X7869030Y42558357D02*
X7796459Y42522071D01*
X7796459Y42522071D02*
X7506173Y42522071D01*
X8268173Y42159214D02*
X8268173Y42921214D01*
X8268173Y42921214D02*
X8522173Y42376928D01*
X8522173Y42376928D02*
X8776173Y42921214D01*
X8776173Y42921214D02*
X8776173Y42159214D01*
X9066459Y42921214D02*
X9538173Y42921214D01*
X9538173Y42921214D02*
X9284173Y42630928D01*
X9284173Y42630928D02*
X9393030Y42630928D01*
X9393030Y42630928D02*
X9465602Y42594642D01*
X9465602Y42594642D02*
X9501887Y42558357D01*
X9501887Y42558357D02*
X9538173Y42485785D01*
X9538173Y42485785D02*
X9538173Y42304357D01*
X9538173Y42304357D02*
X9501887Y42231785D01*
X9501887Y42231785D02*
X9465602Y42195499D01*
X9465602Y42195499D02*
X9393030Y42159214D01*
X9393030Y42159214D02*
X9175316Y42159214D01*
X9175316Y42159214D02*
X9102744Y42195499D01*
X9102744Y42195499D02*
X9066459Y42231785D01*
X46736627Y26075935D02*
X46736627Y25459078D01*
X46736627Y25459078D02*
X46772913Y25386506D01*
X46772913Y25386506D02*
X46809199Y25350220D01*
X46809199Y25350220D02*
X46881770Y25313935D01*
X46881770Y25313935D02*
X47026913Y25313935D01*
X47026913Y25313935D02*
X47099484Y25350220D01*
X47099484Y25350220D02*
X47135770Y25386506D01*
X47135770Y25386506D02*
X47172056Y25459078D01*
X47172056Y25459078D02*
X47172056Y26075935D01*
X47498627Y26003363D02*
X47534913Y26039649D01*
X47534913Y26039649D02*
X47607485Y26075935D01*
X47607485Y26075935D02*
X47788913Y26075935D01*
X47788913Y26075935D02*
X47861485Y26039649D01*
X47861485Y26039649D02*
X47897770Y26003363D01*
X47897770Y26003363D02*
X47934056Y25930792D01*
X47934056Y25930792D02*
X47934056Y25858220D01*
X47934056Y25858220D02*
X47897770Y25749363D01*
X47897770Y25749363D02*
X47462342Y25313935D01*
X47462342Y25313935D02*
X47934056Y25313935D01*
D13*
X19827853Y46852597D02*
X19827853Y46030120D01*
X19827853Y46030120D02*
X19876234Y45933358D01*
X19876234Y45933358D02*
X19924615Y45884977D01*
X19924615Y45884977D02*
X20021377Y45836597D01*
X20021377Y45836597D02*
X20214901Y45836597D01*
X20214901Y45836597D02*
X20311663Y45884977D01*
X20311663Y45884977D02*
X20360044Y45933358D01*
X20360044Y45933358D02*
X20408425Y46030120D01*
X20408425Y46030120D02*
X20408425Y46852597D01*
X20795472Y46852597D02*
X21424425Y46852597D01*
X21424425Y46852597D02*
X21085758Y46465549D01*
X21085758Y46465549D02*
X21230901Y46465549D01*
X21230901Y46465549D02*
X21327663Y46417168D01*
X21327663Y46417168D02*
X21376044Y46368787D01*
X21376044Y46368787D02*
X21424425Y46272025D01*
X21424425Y46272025D02*
X21424425Y46030120D01*
X21424425Y46030120D02*
X21376044Y45933358D01*
X21376044Y45933358D02*
X21327663Y45884977D01*
X21327663Y45884977D02*
X21230901Y45836597D01*
X21230901Y45836597D02*
X20940615Y45836597D01*
X20940615Y45836597D02*
X20843853Y45884977D01*
X20843853Y45884977D02*
X20795472Y45933358D01*
D11*
X9960342Y63035935D02*
X10432056Y63035935D01*
X10432056Y63035935D02*
X10178056Y62745649D01*
X10178056Y62745649D02*
X10286913Y62745649D01*
X10286913Y62745649D02*
X10359485Y62709363D01*
X10359485Y62709363D02*
X10395770Y62673078D01*
X10395770Y62673078D02*
X10432056Y62600506D01*
X10432056Y62600506D02*
X10432056Y62419078D01*
X10432056Y62419078D02*
X10395770Y62346506D01*
X10395770Y62346506D02*
X10359485Y62310220D01*
X10359485Y62310220D02*
X10286913Y62273935D01*
X10286913Y62273935D02*
X10069199Y62273935D01*
X10069199Y62273935D02*
X9996627Y62310220D01*
X9996627Y62310220D02*
X9960342Y62346506D01*
X10867484Y62709363D02*
X10794913Y62745649D01*
X10794913Y62745649D02*
X10758627Y62781935D01*
X10758627Y62781935D02*
X10722341Y62854506D01*
X10722341Y62854506D02*
X10722341Y62890792D01*
X10722341Y62890792D02*
X10758627Y62963363D01*
X10758627Y62963363D02*
X10794913Y62999649D01*
X10794913Y62999649D02*
X10867484Y63035935D01*
X10867484Y63035935D02*
X11012627Y63035935D01*
X11012627Y63035935D02*
X11085199Y62999649D01*
X11085199Y62999649D02*
X11121484Y62963363D01*
X11121484Y62963363D02*
X11157770Y62890792D01*
X11157770Y62890792D02*
X11157770Y62854506D01*
X11157770Y62854506D02*
X11121484Y62781935D01*
X11121484Y62781935D02*
X11085199Y62745649D01*
X11085199Y62745649D02*
X11012627Y62709363D01*
X11012627Y62709363D02*
X10867484Y62709363D01*
X10867484Y62709363D02*
X10794913Y62673078D01*
X10794913Y62673078D02*
X10758627Y62636792D01*
X10758627Y62636792D02*
X10722341Y62564220D01*
X10722341Y62564220D02*
X10722341Y62419078D01*
X10722341Y62419078D02*
X10758627Y62346506D01*
X10758627Y62346506D02*
X10794913Y62310220D01*
X10794913Y62310220D02*
X10867484Y62273935D01*
X10867484Y62273935D02*
X11012627Y62273935D01*
X11012627Y62273935D02*
X11085199Y62310220D01*
X11085199Y62310220D02*
X11121484Y62346506D01*
X11121484Y62346506D02*
X11157770Y62419078D01*
X11157770Y62419078D02*
X11157770Y62564220D01*
X11157770Y62564220D02*
X11121484Y62636792D01*
X11121484Y62636792D02*
X11085199Y62673078D01*
X11085199Y62673078D02*
X11012627Y62709363D01*
D13*
X12153425Y62109732D02*
X11572853Y62109732D01*
X11863139Y62109732D02*
X11863139Y63125732D01*
X11863139Y63125732D02*
X11766377Y62980589D01*
X11766377Y62980589D02*
X11669615Y62883827D01*
X11669615Y62883827D02*
X11572853Y62835446D01*
X13072663Y63125732D02*
X12588853Y63125732D01*
X12588853Y63125732D02*
X12540472Y62641922D01*
X12540472Y62641922D02*
X12588853Y62690303D01*
X12588853Y62690303D02*
X12685615Y62738684D01*
X12685615Y62738684D02*
X12927520Y62738684D01*
X12927520Y62738684D02*
X13024282Y62690303D01*
X13024282Y62690303D02*
X13072663Y62641922D01*
X13072663Y62641922D02*
X13121044Y62545160D01*
X13121044Y62545160D02*
X13121044Y62303255D01*
X13121044Y62303255D02*
X13072663Y62206493D01*
X13072663Y62206493D02*
X13024282Y62158112D01*
X13024282Y62158112D02*
X12927520Y62109732D01*
X12927520Y62109732D02*
X12685615Y62109732D01*
X12685615Y62109732D02*
X12588853Y62158112D01*
X12588853Y62158112D02*
X12540472Y62206493D01*
X8389579Y67825083D02*
X8994341Y67825083D01*
X8268627Y67462226D02*
X8691960Y68732226D01*
X8691960Y68732226D02*
X9115294Y67462226D01*
X9538626Y68308893D02*
X9538626Y67462226D01*
X9538626Y68187941D02*
X9599103Y68248417D01*
X9599103Y68248417D02*
X9720055Y68308893D01*
X9720055Y68308893D02*
X9901484Y68308893D01*
X9901484Y68308893D02*
X10022436Y68248417D01*
X10022436Y68248417D02*
X10082912Y68127464D01*
X10082912Y68127464D02*
X10082912Y67462226D01*
X10506246Y68308893D02*
X10990055Y68308893D01*
X10687674Y68732226D02*
X10687674Y67643655D01*
X10687674Y67643655D02*
X10748151Y67522702D01*
X10748151Y67522702D02*
X10869103Y67462226D01*
X10869103Y67462226D02*
X10990055Y67462226D01*
X11897198Y67522702D02*
X11776246Y67462226D01*
X11776246Y67462226D02*
X11534341Y67462226D01*
X11534341Y67462226D02*
X11413388Y67522702D01*
X11413388Y67522702D02*
X11352912Y67643655D01*
X11352912Y67643655D02*
X11352912Y68127464D01*
X11352912Y68127464D02*
X11413388Y68248417D01*
X11413388Y68248417D02*
X11534341Y68308893D01*
X11534341Y68308893D02*
X11776246Y68308893D01*
X11776246Y68308893D02*
X11897198Y68248417D01*
X11897198Y68248417D02*
X11957674Y68127464D01*
X11957674Y68127464D02*
X11957674Y68006512D01*
X11957674Y68006512D02*
X11352912Y67885560D01*
X12501959Y68308893D02*
X12501959Y67462226D01*
X12501959Y68187941D02*
X12562436Y68248417D01*
X12562436Y68248417D02*
X12683388Y68308893D01*
X12683388Y68308893D02*
X12864817Y68308893D01*
X12864817Y68308893D02*
X12985769Y68248417D01*
X12985769Y68248417D02*
X13046245Y68127464D01*
X13046245Y68127464D02*
X13046245Y67462226D01*
X13651007Y68308893D02*
X13651007Y67462226D01*
X13651007Y68187941D02*
X13711484Y68248417D01*
X13711484Y68248417D02*
X13832436Y68308893D01*
X13832436Y68308893D02*
X14013865Y68308893D01*
X14013865Y68308893D02*
X14134817Y68248417D01*
X14134817Y68248417D02*
X14195293Y68127464D01*
X14195293Y68127464D02*
X14195293Y67462226D01*
X15344341Y67462226D02*
X15344341Y68127464D01*
X15344341Y68127464D02*
X15283865Y68248417D01*
X15283865Y68248417D02*
X15162913Y68308893D01*
X15162913Y68308893D02*
X14921008Y68308893D01*
X14921008Y68308893D02*
X14800055Y68248417D01*
X15344341Y67522702D02*
X15223389Y67462226D01*
X15223389Y67462226D02*
X14921008Y67462226D01*
X14921008Y67462226D02*
X14800055Y67522702D01*
X14800055Y67522702D02*
X14739579Y67643655D01*
X14739579Y67643655D02*
X14739579Y67764607D01*
X14739579Y67764607D02*
X14800055Y67885560D01*
X14800055Y67885560D02*
X14921008Y67946036D01*
X14921008Y67946036D02*
X15223389Y67946036D01*
X15223389Y67946036D02*
X15344341Y68006512D01*
D11*
X6323520Y66016800D02*
X6250949Y66053085D01*
X6250949Y66053085D02*
X6214663Y66089371D01*
X6214663Y66089371D02*
X6178377Y66161943D01*
X6178377Y66161943D02*
X6178377Y66379657D01*
X6178377Y66379657D02*
X6214663Y66452228D01*
X6214663Y66452228D02*
X6250949Y66488514D01*
X6250949Y66488514D02*
X6323520Y66524800D01*
X6323520Y66524800D02*
X6432377Y66524800D01*
X6432377Y66524800D02*
X6504949Y66488514D01*
X6504949Y66488514D02*
X6541235Y66452228D01*
X6541235Y66452228D02*
X6577520Y66379657D01*
X6577520Y66379657D02*
X6577520Y66161943D01*
X6577520Y66161943D02*
X6541235Y66089371D01*
X6541235Y66089371D02*
X6504949Y66053085D01*
X6504949Y66053085D02*
X6432377Y66016800D01*
X6432377Y66016800D02*
X6323520Y66016800D01*
D13*
X6178377Y71931922D02*
X6517044Y71931922D01*
X6662187Y71399732D02*
X6178377Y71399732D01*
X6178377Y71399732D02*
X6178377Y72415732D01*
X6178377Y72415732D02*
X6662187Y72415732D01*
X7049234Y71448112D02*
X7194377Y71399732D01*
X7194377Y71399732D02*
X7436282Y71399732D01*
X7436282Y71399732D02*
X7533044Y71448112D01*
X7533044Y71448112D02*
X7581425Y71496493D01*
X7581425Y71496493D02*
X7629806Y71593255D01*
X7629806Y71593255D02*
X7629806Y71690017D01*
X7629806Y71690017D02*
X7581425Y71786779D01*
X7581425Y71786779D02*
X7533044Y71835160D01*
X7533044Y71835160D02*
X7436282Y71883541D01*
X7436282Y71883541D02*
X7242758Y71931922D01*
X7242758Y71931922D02*
X7145996Y71980303D01*
X7145996Y71980303D02*
X7097615Y72028684D01*
X7097615Y72028684D02*
X7049234Y72125446D01*
X7049234Y72125446D02*
X7049234Y72222208D01*
X7049234Y72222208D02*
X7097615Y72318970D01*
X7097615Y72318970D02*
X7145996Y72367351D01*
X7145996Y72367351D02*
X7242758Y72415732D01*
X7242758Y72415732D02*
X7484663Y72415732D01*
X7484663Y72415732D02*
X7629806Y72367351D01*
X8065234Y71399732D02*
X8065234Y72415732D01*
X8065234Y72415732D02*
X8452282Y72415732D01*
X8452282Y72415732D02*
X8549044Y72367351D01*
X8549044Y72367351D02*
X8597425Y72318970D01*
X8597425Y72318970D02*
X8645806Y72222208D01*
X8645806Y72222208D02*
X8645806Y72077065D01*
X8645806Y72077065D02*
X8597425Y71980303D01*
X8597425Y71980303D02*
X8549044Y71931922D01*
X8549044Y71931922D02*
X8452282Y71883541D01*
X8452282Y71883541D02*
X8065234Y71883541D01*
X9081234Y71786779D02*
X9855330Y71786779D01*
X10242377Y72415732D02*
X10484282Y71399732D01*
X10484282Y71399732D02*
X10677806Y72125446D01*
X10677806Y72125446D02*
X10871330Y71399732D01*
X10871330Y71399732D02*
X11113235Y72415732D01*
X12080854Y71399732D02*
X11742187Y71883541D01*
X11500282Y71399732D02*
X11500282Y72415732D01*
X11500282Y72415732D02*
X11887330Y72415732D01*
X11887330Y72415732D02*
X11984092Y72367351D01*
X11984092Y72367351D02*
X12032473Y72318970D01*
X12032473Y72318970D02*
X12080854Y72222208D01*
X12080854Y72222208D02*
X12080854Y72077065D01*
X12080854Y72077065D02*
X12032473Y71980303D01*
X12032473Y71980303D02*
X11984092Y71931922D01*
X11984092Y71931922D02*
X11887330Y71883541D01*
X11887330Y71883541D02*
X11500282Y71883541D01*
X12709806Y72415732D02*
X12903330Y72415732D01*
X12903330Y72415732D02*
X13000092Y72367351D01*
X13000092Y72367351D02*
X13096854Y72270589D01*
X13096854Y72270589D02*
X13145235Y72077065D01*
X13145235Y72077065D02*
X13145235Y71738398D01*
X13145235Y71738398D02*
X13096854Y71544874D01*
X13096854Y71544874D02*
X13000092Y71448112D01*
X13000092Y71448112D02*
X12903330Y71399732D01*
X12903330Y71399732D02*
X12709806Y71399732D01*
X12709806Y71399732D02*
X12613044Y71448112D01*
X12613044Y71448112D02*
X12516282Y71544874D01*
X12516282Y71544874D02*
X12467901Y71738398D01*
X12467901Y71738398D02*
X12467901Y72077065D01*
X12467901Y72077065D02*
X12516282Y72270589D01*
X12516282Y72270589D02*
X12613044Y72367351D01*
X12613044Y72367351D02*
X12709806Y72415732D01*
X13774187Y72415732D02*
X13967711Y72415732D01*
X13967711Y72415732D02*
X14064473Y72367351D01*
X14064473Y72367351D02*
X14161235Y72270589D01*
X14161235Y72270589D02*
X14209616Y72077065D01*
X14209616Y72077065D02*
X14209616Y71738398D01*
X14209616Y71738398D02*
X14161235Y71544874D01*
X14161235Y71544874D02*
X14064473Y71448112D01*
X14064473Y71448112D02*
X13967711Y71399732D01*
X13967711Y71399732D02*
X13774187Y71399732D01*
X13774187Y71399732D02*
X13677425Y71448112D01*
X13677425Y71448112D02*
X13580663Y71544874D01*
X13580663Y71544874D02*
X13532282Y71738398D01*
X13532282Y71738398D02*
X13532282Y72077065D01*
X13532282Y72077065D02*
X13580663Y72270589D01*
X13580663Y72270589D02*
X13677425Y72367351D01*
X13677425Y72367351D02*
X13774187Y72415732D01*
X14645044Y71399732D02*
X14645044Y72415732D01*
X14645044Y72415732D02*
X14983711Y71690017D01*
X14983711Y71690017D02*
X15322378Y72415732D01*
X15322378Y72415732D02*
X15322378Y71399732D01*
X15806187Y71786779D02*
X16580283Y71786779D01*
X16967330Y72415732D02*
X17596283Y72415732D01*
X17596283Y72415732D02*
X17257616Y72028684D01*
X17257616Y72028684D02*
X17402759Y72028684D01*
X17402759Y72028684D02*
X17499521Y71980303D01*
X17499521Y71980303D02*
X17547902Y71931922D01*
X17547902Y71931922D02*
X17596283Y71835160D01*
X17596283Y71835160D02*
X17596283Y71593255D01*
X17596283Y71593255D02*
X17547902Y71496493D01*
X17547902Y71496493D02*
X17499521Y71448112D01*
X17499521Y71448112D02*
X17402759Y71399732D01*
X17402759Y71399732D02*
X17112473Y71399732D01*
X17112473Y71399732D02*
X17015711Y71448112D01*
X17015711Y71448112D02*
X16967330Y71496493D01*
X17983330Y72318970D02*
X18031711Y72367351D01*
X18031711Y72367351D02*
X18128473Y72415732D01*
X18128473Y72415732D02*
X18370378Y72415732D01*
X18370378Y72415732D02*
X18467140Y72367351D01*
X18467140Y72367351D02*
X18515521Y72318970D01*
X18515521Y72318970D02*
X18563902Y72222208D01*
X18563902Y72222208D02*
X18563902Y72125446D01*
X18563902Y72125446D02*
X18515521Y71980303D01*
X18515521Y71980303D02*
X17934949Y71399732D01*
X17934949Y71399732D02*
X18563902Y71399732D01*
D11*
X2658663Y65762800D02*
X2223234Y65762800D01*
X2440949Y65762800D02*
X2440949Y66524800D01*
X2440949Y66524800D02*
X2368377Y66415943D01*
X2368377Y66415943D02*
X2295806Y66343371D01*
X2295806Y66343371D02*
X2223234Y66307085D01*
D13*
X17599523Y49554314D02*
X17551142Y49602695D01*
X17551142Y49602695D02*
X17502761Y49699457D01*
X17502761Y49699457D02*
X17502761Y49941362D01*
X17502761Y49941362D02*
X17551142Y50038124D01*
X17551142Y50038124D02*
X17599523Y50086505D01*
X17599523Y50086505D02*
X17696285Y50134886D01*
X17696285Y50134886D02*
X17793047Y50134886D01*
X17793047Y50134886D02*
X17938190Y50086505D01*
X17938190Y50086505D02*
X18518761Y49505933D01*
X18518761Y49505933D02*
X18518761Y50134886D01*
X17841428Y51005743D02*
X18518761Y51005743D01*
X17454381Y50763838D02*
X18180095Y50521933D01*
X18180095Y50521933D02*
X18180095Y51150886D01*
X6063103Y30985732D02*
X6063103Y30163255D01*
X6063103Y30163255D02*
X6111484Y30066493D01*
X6111484Y30066493D02*
X6159865Y30018112D01*
X6159865Y30018112D02*
X6256627Y29969732D01*
X6256627Y29969732D02*
X6450151Y29969732D01*
X6450151Y29969732D02*
X6546913Y30018112D01*
X6546913Y30018112D02*
X6595294Y30066493D01*
X6595294Y30066493D02*
X6643675Y30163255D01*
X6643675Y30163255D02*
X6643675Y30985732D01*
X7562913Y30647065D02*
X7562913Y29969732D01*
X7321008Y31034112D02*
X7079103Y30308398D01*
X7079103Y30308398D02*
X7708056Y30308398D01*
X22110247Y2669732D02*
X21626437Y2669732D01*
X21626437Y2669732D02*
X21626437Y3685732D01*
X22400532Y2960017D02*
X22884342Y2960017D01*
X22303770Y2669732D02*
X22642437Y3685732D01*
X22642437Y3685732D02*
X22981104Y2669732D01*
X23319770Y2669732D02*
X23319770Y3685732D01*
X23319770Y3685732D02*
X23900342Y2669732D01*
X23900342Y2669732D02*
X23900342Y3685732D01*
X24916342Y2669732D02*
X24335770Y2669732D01*
X24626056Y2669732D02*
X24626056Y3685732D01*
X24626056Y3685732D02*
X24529294Y3540589D01*
X24529294Y3540589D02*
X24432532Y3443827D01*
X24432532Y3443827D02*
X24335770Y3395446D01*
D11*
X1097342Y15226506D02*
X1061056Y15190220D01*
X1061056Y15190220D02*
X952199Y15153935D01*
X952199Y15153935D02*
X879627Y15153935D01*
X879627Y15153935D02*
X770770Y15190220D01*
X770770Y15190220D02*
X698199Y15262792D01*
X698199Y15262792D02*
X661913Y15335363D01*
X661913Y15335363D02*
X625627Y15480506D01*
X625627Y15480506D02*
X625627Y15589363D01*
X625627Y15589363D02*
X661913Y15734506D01*
X661913Y15734506D02*
X698199Y15807078D01*
X698199Y15807078D02*
X770770Y15879649D01*
X770770Y15879649D02*
X879627Y15915935D01*
X879627Y15915935D02*
X952199Y15915935D01*
X952199Y15915935D02*
X1061056Y15879649D01*
X1061056Y15879649D02*
X1097342Y15843363D01*
X1823056Y15153935D02*
X1387627Y15153935D01*
X1605342Y15153935D02*
X1605342Y15915935D01*
X1605342Y15915935D02*
X1532770Y15807078D01*
X1532770Y15807078D02*
X1460199Y15734506D01*
X1460199Y15734506D02*
X1387627Y15698220D01*
X2185913Y15153935D02*
X2331056Y15153935D01*
X2331056Y15153935D02*
X2403627Y15190220D01*
X2403627Y15190220D02*
X2439913Y15226506D01*
X2439913Y15226506D02*
X2512484Y15335363D01*
X2512484Y15335363D02*
X2548770Y15480506D01*
X2548770Y15480506D02*
X2548770Y15770792D01*
X2548770Y15770792D02*
X2512484Y15843363D01*
X2512484Y15843363D02*
X2476199Y15879649D01*
X2476199Y15879649D02*
X2403627Y15915935D01*
X2403627Y15915935D02*
X2258484Y15915935D01*
X2258484Y15915935D02*
X2185913Y15879649D01*
X2185913Y15879649D02*
X2149627Y15843363D01*
X2149627Y15843363D02*
X2113341Y15770792D01*
X2113341Y15770792D02*
X2113341Y15589363D01*
X2113341Y15589363D02*
X2149627Y15516792D01*
X2149627Y15516792D02*
X2185913Y15480506D01*
X2185913Y15480506D02*
X2258484Y15444220D01*
X2258484Y15444220D02*
X2403627Y15444220D01*
X2403627Y15444220D02*
X2476199Y15480506D01*
X2476199Y15480506D02*
X2512484Y15516792D01*
X2512484Y15516792D02*
X2548770Y15589363D01*
X22917342Y13846506D02*
X22881056Y13810220D01*
X22881056Y13810220D02*
X22772199Y13773935D01*
X22772199Y13773935D02*
X22699627Y13773935D01*
X22699627Y13773935D02*
X22590770Y13810220D01*
X22590770Y13810220D02*
X22518199Y13882792D01*
X22518199Y13882792D02*
X22481913Y13955363D01*
X22481913Y13955363D02*
X22445627Y14100506D01*
X22445627Y14100506D02*
X22445627Y14209363D01*
X22445627Y14209363D02*
X22481913Y14354506D01*
X22481913Y14354506D02*
X22518199Y14427078D01*
X22518199Y14427078D02*
X22590770Y14499649D01*
X22590770Y14499649D02*
X22699627Y14535935D01*
X22699627Y14535935D02*
X22772199Y14535935D01*
X22772199Y14535935D02*
X22881056Y14499649D01*
X22881056Y14499649D02*
X22917342Y14463363D01*
X23207627Y14463363D02*
X23243913Y14499649D01*
X23243913Y14499649D02*
X23316485Y14535935D01*
X23316485Y14535935D02*
X23497913Y14535935D01*
X23497913Y14535935D02*
X23570485Y14499649D01*
X23570485Y14499649D02*
X23606770Y14463363D01*
X23606770Y14463363D02*
X23643056Y14390792D01*
X23643056Y14390792D02*
X23643056Y14318220D01*
X23643056Y14318220D02*
X23606770Y14209363D01*
X23606770Y14209363D02*
X23171342Y13773935D01*
X23171342Y13773935D02*
X23643056Y13773935D01*
X24114770Y14535935D02*
X24187341Y14535935D01*
X24187341Y14535935D02*
X24259913Y14499649D01*
X24259913Y14499649D02*
X24296199Y14463363D01*
X24296199Y14463363D02*
X24332484Y14390792D01*
X24332484Y14390792D02*
X24368770Y14245649D01*
X24368770Y14245649D02*
X24368770Y14064220D01*
X24368770Y14064220D02*
X24332484Y13919078D01*
X24332484Y13919078D02*
X24296199Y13846506D01*
X24296199Y13846506D02*
X24259913Y13810220D01*
X24259913Y13810220D02*
X24187341Y13773935D01*
X24187341Y13773935D02*
X24114770Y13773935D01*
X24114770Y13773935D02*
X24042199Y13810220D01*
X24042199Y13810220D02*
X24005913Y13846506D01*
X24005913Y13846506D02*
X23969627Y13919078D01*
X23969627Y13919078D02*
X23933341Y14064220D01*
X23933341Y14064220D02*
X23933341Y14245649D01*
X23933341Y14245649D02*
X23969627Y14390792D01*
X23969627Y14390792D02*
X24005913Y14463363D01*
X24005913Y14463363D02*
X24042199Y14499649D01*
X24042199Y14499649D02*
X24114770Y14535935D01*
X28110199Y18633935D02*
X27856199Y18996792D01*
X27674770Y18633935D02*
X27674770Y19395935D01*
X27674770Y19395935D02*
X27965056Y19395935D01*
X27965056Y19395935D02*
X28037627Y19359649D01*
X28037627Y19359649D02*
X28073913Y19323363D01*
X28073913Y19323363D02*
X28110199Y19250792D01*
X28110199Y19250792D02*
X28110199Y19141935D01*
X28110199Y19141935D02*
X28073913Y19069363D01*
X28073913Y19069363D02*
X28037627Y19033078D01*
X28037627Y19033078D02*
X27965056Y18996792D01*
X27965056Y18996792D02*
X27674770Y18996792D01*
X28763342Y19141935D02*
X28763342Y18633935D01*
X28581913Y19432220D02*
X28400484Y18887935D01*
X28400484Y18887935D02*
X28872199Y18887935D01*
X50937342Y24843935D02*
X50683342Y25206792D01*
X50501913Y24843935D02*
X50501913Y25605935D01*
X50501913Y25605935D02*
X50792199Y25605935D01*
X50792199Y25605935D02*
X50864770Y25569649D01*
X50864770Y25569649D02*
X50901056Y25533363D01*
X50901056Y25533363D02*
X50937342Y25460792D01*
X50937342Y25460792D02*
X50937342Y25351935D01*
X50937342Y25351935D02*
X50901056Y25279363D01*
X50901056Y25279363D02*
X50864770Y25243078D01*
X50864770Y25243078D02*
X50792199Y25206792D01*
X50792199Y25206792D02*
X50501913Y25206792D01*
X51663056Y24843935D02*
X51227627Y24843935D01*
X51445342Y24843935D02*
X51445342Y25605935D01*
X51445342Y25605935D02*
X51372770Y25497078D01*
X51372770Y25497078D02*
X51300199Y25424506D01*
X51300199Y25424506D02*
X51227627Y25388220D01*
X52025913Y24843935D02*
X52171056Y24843935D01*
X52171056Y24843935D02*
X52243627Y24880220D01*
X52243627Y24880220D02*
X52279913Y24916506D01*
X52279913Y24916506D02*
X52352484Y25025363D01*
X52352484Y25025363D02*
X52388770Y25170506D01*
X52388770Y25170506D02*
X52388770Y25460792D01*
X52388770Y25460792D02*
X52352484Y25533363D01*
X52352484Y25533363D02*
X52316199Y25569649D01*
X52316199Y25569649D02*
X52243627Y25605935D01*
X52243627Y25605935D02*
X52098484Y25605935D01*
X52098484Y25605935D02*
X52025913Y25569649D01*
X52025913Y25569649D02*
X51989627Y25533363D01*
X51989627Y25533363D02*
X51953341Y25460792D01*
X51953341Y25460792D02*
X51953341Y25279363D01*
X51953341Y25279363D02*
X51989627Y25206792D01*
X51989627Y25206792D02*
X52025913Y25170506D01*
X52025913Y25170506D02*
X52098484Y25134220D01*
X52098484Y25134220D02*
X52243627Y25134220D01*
X52243627Y25134220D02*
X52316199Y25170506D01*
X52316199Y25170506D02*
X52352484Y25206792D01*
X52352484Y25206792D02*
X52388770Y25279363D01*
X48247342Y17323935D02*
X47993342Y17686792D01*
X47811913Y17323935D02*
X47811913Y18085935D01*
X47811913Y18085935D02*
X48102199Y18085935D01*
X48102199Y18085935D02*
X48174770Y18049649D01*
X48174770Y18049649D02*
X48211056Y18013363D01*
X48211056Y18013363D02*
X48247342Y17940792D01*
X48247342Y17940792D02*
X48247342Y17831935D01*
X48247342Y17831935D02*
X48211056Y17759363D01*
X48211056Y17759363D02*
X48174770Y17723078D01*
X48174770Y17723078D02*
X48102199Y17686792D01*
X48102199Y17686792D02*
X47811913Y17686792D01*
X48537627Y18013363D02*
X48573913Y18049649D01*
X48573913Y18049649D02*
X48646485Y18085935D01*
X48646485Y18085935D02*
X48827913Y18085935D01*
X48827913Y18085935D02*
X48900485Y18049649D01*
X48900485Y18049649D02*
X48936770Y18013363D01*
X48936770Y18013363D02*
X48973056Y17940792D01*
X48973056Y17940792D02*
X48973056Y17868220D01*
X48973056Y17868220D02*
X48936770Y17759363D01*
X48936770Y17759363D02*
X48501342Y17323935D01*
X48501342Y17323935D02*
X48973056Y17323935D01*
X49444770Y18085935D02*
X49517341Y18085935D01*
X49517341Y18085935D02*
X49589913Y18049649D01*
X49589913Y18049649D02*
X49626199Y18013363D01*
X49626199Y18013363D02*
X49662484Y17940792D01*
X49662484Y17940792D02*
X49698770Y17795649D01*
X49698770Y17795649D02*
X49698770Y17614220D01*
X49698770Y17614220D02*
X49662484Y17469078D01*
X49662484Y17469078D02*
X49626199Y17396506D01*
X49626199Y17396506D02*
X49589913Y17360220D01*
X49589913Y17360220D02*
X49517341Y17323935D01*
X49517341Y17323935D02*
X49444770Y17323935D01*
X49444770Y17323935D02*
X49372199Y17360220D01*
X49372199Y17360220D02*
X49335913Y17396506D01*
X49335913Y17396506D02*
X49299627Y17469078D01*
X49299627Y17469078D02*
X49263341Y17614220D01*
X49263341Y17614220D02*
X49263341Y17795649D01*
X49263341Y17795649D02*
X49299627Y17940792D01*
X49299627Y17940792D02*
X49335913Y18013363D01*
X49335913Y18013363D02*
X49372199Y18049649D01*
X49372199Y18049649D02*
X49444770Y18085935D01*
X45977237Y45476688D02*
X46013523Y45440402D01*
X46013523Y45440402D02*
X46049808Y45331545D01*
X46049808Y45331545D02*
X46049808Y45258973D01*
X46049808Y45258973D02*
X46013523Y45150116D01*
X46013523Y45150116D02*
X45940951Y45077545D01*
X45940951Y45077545D02*
X45868380Y45041259D01*
X45868380Y45041259D02*
X45723237Y45004973D01*
X45723237Y45004973D02*
X45614380Y45004973D01*
X45614380Y45004973D02*
X45469237Y45041259D01*
X45469237Y45041259D02*
X45396665Y45077545D01*
X45396665Y45077545D02*
X45324094Y45150116D01*
X45324094Y45150116D02*
X45287808Y45258973D01*
X45287808Y45258973D02*
X45287808Y45331545D01*
X45287808Y45331545D02*
X45324094Y45440402D01*
X45324094Y45440402D02*
X45360380Y45476688D01*
X45360380Y45766973D02*
X45324094Y45803259D01*
X45324094Y45803259D02*
X45287808Y45875830D01*
X45287808Y45875830D02*
X45287808Y46057259D01*
X45287808Y46057259D02*
X45324094Y46129830D01*
X45324094Y46129830D02*
X45360380Y46166116D01*
X45360380Y46166116D02*
X45432951Y46202402D01*
X45432951Y46202402D02*
X45505523Y46202402D01*
X45505523Y46202402D02*
X45614380Y46166116D01*
X45614380Y46166116D02*
X46049808Y45730688D01*
X46049808Y45730688D02*
X46049808Y46202402D01*
X46049808Y46928116D02*
X46049808Y46492687D01*
X46049808Y46710402D02*
X45287808Y46710402D01*
X45287808Y46710402D02*
X45396665Y46637830D01*
X45396665Y46637830D02*
X45469237Y46565259D01*
X45469237Y46565259D02*
X45505523Y46492687D01*
X46584400Y34083212D02*
X46620686Y34046926D01*
X46620686Y34046926D02*
X46656971Y33938069D01*
X46656971Y33938069D02*
X46656971Y33865497D01*
X46656971Y33865497D02*
X46620686Y33756640D01*
X46620686Y33756640D02*
X46548114Y33684069D01*
X46548114Y33684069D02*
X46475543Y33647783D01*
X46475543Y33647783D02*
X46330400Y33611497D01*
X46330400Y33611497D02*
X46221543Y33611497D01*
X46221543Y33611497D02*
X46076400Y33647783D01*
X46076400Y33647783D02*
X46003828Y33684069D01*
X46003828Y33684069D02*
X45931257Y33756640D01*
X45931257Y33756640D02*
X45894971Y33865497D01*
X45894971Y33865497D02*
X45894971Y33938069D01*
X45894971Y33938069D02*
X45931257Y34046926D01*
X45931257Y34046926D02*
X45967543Y34083212D01*
X45967543Y34373497D02*
X45931257Y34409783D01*
X45931257Y34409783D02*
X45894971Y34482354D01*
X45894971Y34482354D02*
X45894971Y34663783D01*
X45894971Y34663783D02*
X45931257Y34736354D01*
X45931257Y34736354D02*
X45967543Y34772640D01*
X45967543Y34772640D02*
X46040114Y34808926D01*
X46040114Y34808926D02*
X46112686Y34808926D01*
X46112686Y34808926D02*
X46221543Y34772640D01*
X46221543Y34772640D02*
X46656971Y34337212D01*
X46656971Y34337212D02*
X46656971Y34808926D01*
X45967543Y35099211D02*
X45931257Y35135497D01*
X45931257Y35135497D02*
X45894971Y35208068D01*
X45894971Y35208068D02*
X45894971Y35389497D01*
X45894971Y35389497D02*
X45931257Y35462068D01*
X45931257Y35462068D02*
X45967543Y35498354D01*
X45967543Y35498354D02*
X46040114Y35534640D01*
X46040114Y35534640D02*
X46112686Y35534640D01*
X46112686Y35534640D02*
X46221543Y35498354D01*
X46221543Y35498354D02*
X46656971Y35062926D01*
X46656971Y35062926D02*
X46656971Y35534640D01*
X39177342Y27236506D02*
X39141056Y27200220D01*
X39141056Y27200220D02*
X39032199Y27163935D01*
X39032199Y27163935D02*
X38959627Y27163935D01*
X38959627Y27163935D02*
X38850770Y27200220D01*
X38850770Y27200220D02*
X38778199Y27272792D01*
X38778199Y27272792D02*
X38741913Y27345363D01*
X38741913Y27345363D02*
X38705627Y27490506D01*
X38705627Y27490506D02*
X38705627Y27599363D01*
X38705627Y27599363D02*
X38741913Y27744506D01*
X38741913Y27744506D02*
X38778199Y27817078D01*
X38778199Y27817078D02*
X38850770Y27889649D01*
X38850770Y27889649D02*
X38959627Y27925935D01*
X38959627Y27925935D02*
X39032199Y27925935D01*
X39032199Y27925935D02*
X39141056Y27889649D01*
X39141056Y27889649D02*
X39177342Y27853363D01*
X39467627Y27853363D02*
X39503913Y27889649D01*
X39503913Y27889649D02*
X39576485Y27925935D01*
X39576485Y27925935D02*
X39757913Y27925935D01*
X39757913Y27925935D02*
X39830485Y27889649D01*
X39830485Y27889649D02*
X39866770Y27853363D01*
X39866770Y27853363D02*
X39903056Y27780792D01*
X39903056Y27780792D02*
X39903056Y27708220D01*
X39903056Y27708220D02*
X39866770Y27599363D01*
X39866770Y27599363D02*
X39431342Y27163935D01*
X39431342Y27163935D02*
X39903056Y27163935D01*
X40556199Y27671935D02*
X40556199Y27163935D01*
X40374770Y27962220D02*
X40193341Y27417935D01*
X40193341Y27417935D02*
X40665056Y27417935D01*
X39074770Y13363935D02*
X39074770Y14125935D01*
X39074770Y14125935D02*
X39256199Y14125935D01*
X39256199Y14125935D02*
X39365056Y14089649D01*
X39365056Y14089649D02*
X39437627Y14017078D01*
X39437627Y14017078D02*
X39473913Y13944506D01*
X39473913Y13944506D02*
X39510199Y13799363D01*
X39510199Y13799363D02*
X39510199Y13690506D01*
X39510199Y13690506D02*
X39473913Y13545363D01*
X39473913Y13545363D02*
X39437627Y13472792D01*
X39437627Y13472792D02*
X39365056Y13400220D01*
X39365056Y13400220D02*
X39256199Y13363935D01*
X39256199Y13363935D02*
X39074770Y13363935D01*
X40163342Y14125935D02*
X40018199Y14125935D01*
X40018199Y14125935D02*
X39945627Y14089649D01*
X39945627Y14089649D02*
X39909342Y14053363D01*
X39909342Y14053363D02*
X39836770Y13944506D01*
X39836770Y13944506D02*
X39800484Y13799363D01*
X39800484Y13799363D02*
X39800484Y13509078D01*
X39800484Y13509078D02*
X39836770Y13436506D01*
X39836770Y13436506D02*
X39873056Y13400220D01*
X39873056Y13400220D02*
X39945627Y13363935D01*
X39945627Y13363935D02*
X40090770Y13363935D01*
X40090770Y13363935D02*
X40163342Y13400220D01*
X40163342Y13400220D02*
X40199627Y13436506D01*
X40199627Y13436506D02*
X40235913Y13509078D01*
X40235913Y13509078D02*
X40235913Y13690506D01*
X40235913Y13690506D02*
X40199627Y13763078D01*
X40199627Y13763078D02*
X40163342Y13799363D01*
X40163342Y13799363D02*
X40090770Y13835649D01*
X40090770Y13835649D02*
X39945627Y13835649D01*
X39945627Y13835649D02*
X39873056Y13799363D01*
X39873056Y13799363D02*
X39836770Y13763078D01*
X39836770Y13763078D02*
X39800484Y13690506D01*
D13*
X30291866Y17001922D02*
X29953199Y17001922D01*
X29953199Y16469732D02*
X29953199Y17485732D01*
X29953199Y17485732D02*
X30437009Y17485732D01*
X30824056Y17001922D02*
X31162723Y17001922D01*
X31307866Y16469732D02*
X30824056Y16469732D01*
X30824056Y16469732D02*
X30824056Y17485732D01*
X30824056Y17485732D02*
X31307866Y17485732D01*
X31598151Y17485732D02*
X32178723Y17485732D01*
X31888437Y16469732D02*
X31888437Y17485732D01*
X32469008Y17388970D02*
X32517389Y17437351D01*
X32517389Y17437351D02*
X32614151Y17485732D01*
X32614151Y17485732D02*
X32856056Y17485732D01*
X32856056Y17485732D02*
X32952818Y17437351D01*
X32952818Y17437351D02*
X33001199Y17388970D01*
X33001199Y17388970D02*
X33049580Y17292208D01*
X33049580Y17292208D02*
X33049580Y17195446D01*
X33049580Y17195446D02*
X33001199Y17050303D01*
X33001199Y17050303D02*
X32420627Y16469732D01*
X32420627Y16469732D02*
X33049580Y16469732D01*
X51440437Y32762970D02*
X51343675Y32811351D01*
X51343675Y32811351D02*
X51246913Y32908112D01*
X51246913Y32908112D02*
X51101770Y33053255D01*
X51101770Y33053255D02*
X51005008Y33101636D01*
X51005008Y33101636D02*
X50908246Y33101636D01*
X50956627Y32859732D02*
X50859865Y32908112D01*
X50859865Y32908112D02*
X50763103Y33004874D01*
X50763103Y33004874D02*
X50714722Y33198398D01*
X50714722Y33198398D02*
X50714722Y33537065D01*
X50714722Y33537065D02*
X50763103Y33730589D01*
X50763103Y33730589D02*
X50859865Y33827351D01*
X50859865Y33827351D02*
X50956627Y33875732D01*
X50956627Y33875732D02*
X51150151Y33875732D01*
X51150151Y33875732D02*
X51246913Y33827351D01*
X51246913Y33827351D02*
X51343675Y33730589D01*
X51343675Y33730589D02*
X51392056Y33537065D01*
X51392056Y33537065D02*
X51392056Y33198398D01*
X51392056Y33198398D02*
X51343675Y33004874D01*
X51343675Y33004874D02*
X51246913Y32908112D01*
X51246913Y32908112D02*
X51150151Y32859732D01*
X51150151Y32859732D02*
X50956627Y32859732D01*
X51730722Y33875732D02*
X52359675Y33875732D01*
X52359675Y33875732D02*
X52021008Y33488684D01*
X52021008Y33488684D02*
X52166151Y33488684D01*
X52166151Y33488684D02*
X52262913Y33440303D01*
X52262913Y33440303D02*
X52311294Y33391922D01*
X52311294Y33391922D02*
X52359675Y33295160D01*
X52359675Y33295160D02*
X52359675Y33053255D01*
X52359675Y33053255D02*
X52311294Y32956493D01*
X52311294Y32956493D02*
X52262913Y32908112D01*
X52262913Y32908112D02*
X52166151Y32859732D01*
X52166151Y32859732D02*
X51875865Y32859732D01*
X51875865Y32859732D02*
X51779103Y32908112D01*
X51779103Y32908112D02*
X51730722Y32956493D01*
D12*
X41178984Y9961036D02*
X40967317Y10263417D01*
X40816127Y9961036D02*
X40816127Y10596036D01*
X40816127Y10596036D02*
X41058032Y10596036D01*
X41058032Y10596036D02*
X41118508Y10565798D01*
X41118508Y10565798D02*
X41148746Y10535560D01*
X41148746Y10535560D02*
X41178984Y10475084D01*
X41178984Y10475084D02*
X41178984Y10384370D01*
X41178984Y10384370D02*
X41148746Y10323894D01*
X41148746Y10323894D02*
X41118508Y10293655D01*
X41118508Y10293655D02*
X41058032Y10263417D01*
X41058032Y10263417D02*
X40816127Y10263417D01*
X41390651Y10596036D02*
X41783746Y10596036D01*
X41783746Y10596036D02*
X41572079Y10354132D01*
X41572079Y10354132D02*
X41662794Y10354132D01*
X41662794Y10354132D02*
X41723270Y10323894D01*
X41723270Y10323894D02*
X41753508Y10293655D01*
X41753508Y10293655D02*
X41783746Y10233179D01*
X41783746Y10233179D02*
X41783746Y10081989D01*
X41783746Y10081989D02*
X41753508Y10021513D01*
X41753508Y10021513D02*
X41723270Y9991274D01*
X41723270Y9991274D02*
X41662794Y9961036D01*
X41662794Y9961036D02*
X41481365Y9961036D01*
X41481365Y9961036D02*
X41420889Y9991274D01*
X41420889Y9991274D02*
X41390651Y10021513D01*
X42176841Y10596036D02*
X42237318Y10596036D01*
X42237318Y10596036D02*
X42297794Y10565798D01*
X42297794Y10565798D02*
X42328032Y10535560D01*
X42328032Y10535560D02*
X42358270Y10475084D01*
X42358270Y10475084D02*
X42388508Y10354132D01*
X42388508Y10354132D02*
X42388508Y10202941D01*
X42388508Y10202941D02*
X42358270Y10081989D01*
X42358270Y10081989D02*
X42328032Y10021513D01*
X42328032Y10021513D02*
X42297794Y9991274D01*
X42297794Y9991274D02*
X42237318Y9961036D01*
X42237318Y9961036D02*
X42176841Y9961036D01*
X42176841Y9961036D02*
X42116365Y9991274D01*
X42116365Y9991274D02*
X42086127Y10021513D01*
X42086127Y10021513D02*
X42055889Y10081989D01*
X42055889Y10081989D02*
X42025651Y10202941D01*
X42025651Y10202941D02*
X42025651Y10354132D01*
X42025651Y10354132D02*
X42055889Y10475084D01*
X42055889Y10475084D02*
X42086127Y10535560D01*
X42086127Y10535560D02*
X42116365Y10565798D01*
X42116365Y10565798D02*
X42176841Y10596036D01*
X37978984Y45871036D02*
X37767317Y46173417D01*
X37616127Y45871036D02*
X37616127Y46506036D01*
X37616127Y46506036D02*
X37858032Y46506036D01*
X37858032Y46506036D02*
X37918508Y46475798D01*
X37918508Y46475798D02*
X37948746Y46445560D01*
X37948746Y46445560D02*
X37978984Y46385084D01*
X37978984Y46385084D02*
X37978984Y46294370D01*
X37978984Y46294370D02*
X37948746Y46233894D01*
X37948746Y46233894D02*
X37918508Y46203655D01*
X37918508Y46203655D02*
X37858032Y46173417D01*
X37858032Y46173417D02*
X37616127Y46173417D01*
X38523270Y46294370D02*
X38523270Y45871036D01*
X38372079Y46536274D02*
X38220889Y46082703D01*
X38220889Y46082703D02*
X38613984Y46082703D01*
X38825651Y46445560D02*
X38855889Y46475798D01*
X38855889Y46475798D02*
X38916365Y46506036D01*
X38916365Y46506036D02*
X39067556Y46506036D01*
X39067556Y46506036D02*
X39128032Y46475798D01*
X39128032Y46475798D02*
X39158270Y46445560D01*
X39158270Y46445560D02*
X39188508Y46385084D01*
X39188508Y46385084D02*
X39188508Y46324608D01*
X39188508Y46324608D02*
X39158270Y46233894D01*
X39158270Y46233894D02*
X38795413Y45871036D01*
X38795413Y45871036D02*
X39188508Y45871036D01*
X23078734Y51797901D02*
X22867067Y52100282D01*
X22715877Y51797901D02*
X22715877Y52432901D01*
X22715877Y52432901D02*
X22957782Y52432901D01*
X22957782Y52432901D02*
X23018258Y52402663D01*
X23018258Y52402663D02*
X23048496Y52372425D01*
X23048496Y52372425D02*
X23078734Y52311949D01*
X23078734Y52311949D02*
X23078734Y52221235D01*
X23078734Y52221235D02*
X23048496Y52160759D01*
X23048496Y52160759D02*
X23018258Y52130520D01*
X23018258Y52130520D02*
X22957782Y52100282D01*
X22957782Y52100282D02*
X22715877Y52100282D01*
X23653258Y52432901D02*
X23350877Y52432901D01*
X23350877Y52432901D02*
X23320639Y52130520D01*
X23320639Y52130520D02*
X23350877Y52160759D01*
X23350877Y52160759D02*
X23411353Y52190997D01*
X23411353Y52190997D02*
X23562544Y52190997D01*
X23562544Y52190997D02*
X23623020Y52160759D01*
X23623020Y52160759D02*
X23653258Y52130520D01*
X23653258Y52130520D02*
X23683496Y52070044D01*
X23683496Y52070044D02*
X23683496Y51918854D01*
X23683496Y51918854D02*
X23653258Y51858378D01*
X23653258Y51858378D02*
X23623020Y51828139D01*
X23623020Y51828139D02*
X23562544Y51797901D01*
X23562544Y51797901D02*
X23411353Y51797901D01*
X23411353Y51797901D02*
X23350877Y51828139D01*
X23350877Y51828139D02*
X23320639Y51858378D01*
X24227782Y52221235D02*
X24227782Y51797901D01*
X24076591Y52463139D02*
X23925401Y52009568D01*
X23925401Y52009568D02*
X24318496Y52009568D01*
D13*
X46214011Y16966640D02*
X45198011Y16966640D01*
X45198011Y16966640D02*
X45198011Y17208545D01*
X45198011Y17208545D02*
X45246392Y17353688D01*
X45246392Y17353688D02*
X45343154Y17450450D01*
X45343154Y17450450D02*
X45439916Y17498831D01*
X45439916Y17498831D02*
X45633440Y17547212D01*
X45633440Y17547212D02*
X45778583Y17547212D01*
X45778583Y17547212D02*
X45972107Y17498831D01*
X45972107Y17498831D02*
X46068869Y17450450D01*
X46068869Y17450450D02*
X46165631Y17353688D01*
X46165631Y17353688D02*
X46214011Y17208545D01*
X46214011Y17208545D02*
X46214011Y16966640D01*
X45294773Y17934259D02*
X45246392Y17982640D01*
X45246392Y17982640D02*
X45198011Y18079402D01*
X45198011Y18079402D02*
X45198011Y18321307D01*
X45198011Y18321307D02*
X45246392Y18418069D01*
X45246392Y18418069D02*
X45294773Y18466450D01*
X45294773Y18466450D02*
X45391535Y18514831D01*
X45391535Y18514831D02*
X45488297Y18514831D01*
X45488297Y18514831D02*
X45633440Y18466450D01*
X45633440Y18466450D02*
X46214011Y17885878D01*
X46214011Y17885878D02*
X46214011Y18514831D01*
D11*
X23127342Y39253935D02*
X22873342Y39616792D01*
X22691913Y39253935D02*
X22691913Y40015935D01*
X22691913Y40015935D02*
X22982199Y40015935D01*
X22982199Y40015935D02*
X23054770Y39979649D01*
X23054770Y39979649D02*
X23091056Y39943363D01*
X23091056Y39943363D02*
X23127342Y39870792D01*
X23127342Y39870792D02*
X23127342Y39761935D01*
X23127342Y39761935D02*
X23091056Y39689363D01*
X23091056Y39689363D02*
X23054770Y39653078D01*
X23054770Y39653078D02*
X22982199Y39616792D01*
X22982199Y39616792D02*
X22691913Y39616792D01*
X23816770Y40015935D02*
X23453913Y40015935D01*
X23453913Y40015935D02*
X23417627Y39653078D01*
X23417627Y39653078D02*
X23453913Y39689363D01*
X23453913Y39689363D02*
X23526485Y39725649D01*
X23526485Y39725649D02*
X23707913Y39725649D01*
X23707913Y39725649D02*
X23780485Y39689363D01*
X23780485Y39689363D02*
X23816770Y39653078D01*
X23816770Y39653078D02*
X23853056Y39580506D01*
X23853056Y39580506D02*
X23853056Y39399078D01*
X23853056Y39399078D02*
X23816770Y39326506D01*
X23816770Y39326506D02*
X23780485Y39290220D01*
X23780485Y39290220D02*
X23707913Y39253935D01*
X23707913Y39253935D02*
X23526485Y39253935D01*
X23526485Y39253935D02*
X23453913Y39290220D01*
X23453913Y39290220D02*
X23417627Y39326506D01*
X24107056Y40015935D02*
X24615056Y40015935D01*
X24615056Y40015935D02*
X24288484Y39253935D01*
X1077237Y32286688D02*
X1113523Y32250402D01*
X1113523Y32250402D02*
X1149808Y32141545D01*
X1149808Y32141545D02*
X1149808Y32068973D01*
X1149808Y32068973D02*
X1113523Y31960116D01*
X1113523Y31960116D02*
X1040951Y31887545D01*
X1040951Y31887545D02*
X968380Y31851259D01*
X968380Y31851259D02*
X823237Y31814973D01*
X823237Y31814973D02*
X714380Y31814973D01*
X714380Y31814973D02*
X569237Y31851259D01*
X569237Y31851259D02*
X496665Y31887545D01*
X496665Y31887545D02*
X424094Y31960116D01*
X424094Y31960116D02*
X387808Y32068973D01*
X387808Y32068973D02*
X387808Y32141545D01*
X387808Y32141545D02*
X424094Y32250402D01*
X424094Y32250402D02*
X460380Y32286688D01*
X1149808Y33012402D02*
X1149808Y32576973D01*
X1149808Y32794688D02*
X387808Y32794688D01*
X387808Y32794688D02*
X496665Y32722116D01*
X496665Y32722116D02*
X569237Y32649545D01*
X569237Y32649545D02*
X605523Y32576973D01*
X460380Y33302687D02*
X424094Y33338973D01*
X424094Y33338973D02*
X387808Y33411544D01*
X387808Y33411544D02*
X387808Y33592973D01*
X387808Y33592973D02*
X424094Y33665544D01*
X424094Y33665544D02*
X460380Y33701830D01*
X460380Y33701830D02*
X532951Y33738116D01*
X532951Y33738116D02*
X605523Y33738116D01*
X605523Y33738116D02*
X714380Y33701830D01*
X714380Y33701830D02*
X1149808Y33266402D01*
X1149808Y33266402D02*
X1149808Y33738116D01*
X33586448Y21093927D02*
X33622734Y21057641D01*
X33622734Y21057641D02*
X33659019Y20948784D01*
X33659019Y20948784D02*
X33659019Y20876212D01*
X33659019Y20876212D02*
X33622734Y20767355D01*
X33622734Y20767355D02*
X33550162Y20694784D01*
X33550162Y20694784D02*
X33477591Y20658498D01*
X33477591Y20658498D02*
X33332448Y20622212D01*
X33332448Y20622212D02*
X33223591Y20622212D01*
X33223591Y20622212D02*
X33078448Y20658498D01*
X33078448Y20658498D02*
X33005876Y20694784D01*
X33005876Y20694784D02*
X32933305Y20767355D01*
X32933305Y20767355D02*
X32897019Y20876212D01*
X32897019Y20876212D02*
X32897019Y20948784D01*
X32897019Y20948784D02*
X32933305Y21057641D01*
X32933305Y21057641D02*
X32969591Y21093927D01*
X33659019Y21819641D02*
X33659019Y21384212D01*
X33659019Y21601927D02*
X32897019Y21601927D01*
X32897019Y21601927D02*
X33005876Y21529355D01*
X33005876Y21529355D02*
X33078448Y21456784D01*
X33078448Y21456784D02*
X33114734Y21384212D01*
X33586448Y19315927D02*
X33622734Y19279641D01*
X33622734Y19279641D02*
X33659019Y19170784D01*
X33659019Y19170784D02*
X33659019Y19098212D01*
X33659019Y19098212D02*
X33622734Y18989355D01*
X33622734Y18989355D02*
X33550162Y18916784D01*
X33550162Y18916784D02*
X33477591Y18880498D01*
X33477591Y18880498D02*
X33332448Y18844212D01*
X33332448Y18844212D02*
X33223591Y18844212D01*
X33223591Y18844212D02*
X33078448Y18880498D01*
X33078448Y18880498D02*
X33005876Y18916784D01*
X33005876Y18916784D02*
X32933305Y18989355D01*
X32933305Y18989355D02*
X32897019Y19098212D01*
X32897019Y19098212D02*
X32897019Y19170784D01*
X32897019Y19170784D02*
X32933305Y19279641D01*
X32933305Y19279641D02*
X32969591Y19315927D01*
X32969591Y19606212D02*
X32933305Y19642498D01*
X32933305Y19642498D02*
X32897019Y19715069D01*
X32897019Y19715069D02*
X32897019Y19896498D01*
X32897019Y19896498D02*
X32933305Y19969069D01*
X32933305Y19969069D02*
X32969591Y20005355D01*
X32969591Y20005355D02*
X33042162Y20041641D01*
X33042162Y20041641D02*
X33114734Y20041641D01*
X33114734Y20041641D02*
X33223591Y20005355D01*
X33223591Y20005355D02*
X33659019Y19569927D01*
X33659019Y19569927D02*
X33659019Y20041641D01*
X2993782Y29461375D02*
X3030068Y29425089D01*
X3030068Y29425089D02*
X3066353Y29316232D01*
X3066353Y29316232D02*
X3066353Y29243660D01*
X3066353Y29243660D02*
X3030068Y29134803D01*
X3030068Y29134803D02*
X2957496Y29062232D01*
X2957496Y29062232D02*
X2884925Y29025946D01*
X2884925Y29025946D02*
X2739782Y28989660D01*
X2739782Y28989660D02*
X2630925Y28989660D01*
X2630925Y28989660D02*
X2485782Y29025946D01*
X2485782Y29025946D02*
X2413210Y29062232D01*
X2413210Y29062232D02*
X2340639Y29134803D01*
X2340639Y29134803D02*
X2304353Y29243660D01*
X2304353Y29243660D02*
X2304353Y29316232D01*
X2304353Y29316232D02*
X2340639Y29425089D01*
X2340639Y29425089D02*
X2376925Y29461375D01*
X3066353Y30187089D02*
X3066353Y29751660D01*
X3066353Y29969375D02*
X2304353Y29969375D01*
X2304353Y29969375D02*
X2413210Y29896803D01*
X2413210Y29896803D02*
X2485782Y29824232D01*
X2485782Y29824232D02*
X2522068Y29751660D01*
X2558353Y30840231D02*
X3066353Y30840231D01*
X2268068Y30658803D02*
X2812353Y30477374D01*
X2812353Y30477374D02*
X2812353Y30949089D01*
X17457342Y42186506D02*
X17421056Y42150220D01*
X17421056Y42150220D02*
X17312199Y42113935D01*
X17312199Y42113935D02*
X17239627Y42113935D01*
X17239627Y42113935D02*
X17130770Y42150220D01*
X17130770Y42150220D02*
X17058199Y42222792D01*
X17058199Y42222792D02*
X17021913Y42295363D01*
X17021913Y42295363D02*
X16985627Y42440506D01*
X16985627Y42440506D02*
X16985627Y42549363D01*
X16985627Y42549363D02*
X17021913Y42694506D01*
X17021913Y42694506D02*
X17058199Y42767078D01*
X17058199Y42767078D02*
X17130770Y42839649D01*
X17130770Y42839649D02*
X17239627Y42875935D01*
X17239627Y42875935D02*
X17312199Y42875935D01*
X17312199Y42875935D02*
X17421056Y42839649D01*
X17421056Y42839649D02*
X17457342Y42803363D01*
X17747627Y42803363D02*
X17783913Y42839649D01*
X17783913Y42839649D02*
X17856485Y42875935D01*
X17856485Y42875935D02*
X18037913Y42875935D01*
X18037913Y42875935D02*
X18110485Y42839649D01*
X18110485Y42839649D02*
X18146770Y42803363D01*
X18146770Y42803363D02*
X18183056Y42730792D01*
X18183056Y42730792D02*
X18183056Y42658220D01*
X18183056Y42658220D02*
X18146770Y42549363D01*
X18146770Y42549363D02*
X17711342Y42113935D01*
X17711342Y42113935D02*
X18183056Y42113935D01*
X18618484Y42549363D02*
X18545913Y42585649D01*
X18545913Y42585649D02*
X18509627Y42621935D01*
X18509627Y42621935D02*
X18473341Y42694506D01*
X18473341Y42694506D02*
X18473341Y42730792D01*
X18473341Y42730792D02*
X18509627Y42803363D01*
X18509627Y42803363D02*
X18545913Y42839649D01*
X18545913Y42839649D02*
X18618484Y42875935D01*
X18618484Y42875935D02*
X18763627Y42875935D01*
X18763627Y42875935D02*
X18836199Y42839649D01*
X18836199Y42839649D02*
X18872484Y42803363D01*
X18872484Y42803363D02*
X18908770Y42730792D01*
X18908770Y42730792D02*
X18908770Y42694506D01*
X18908770Y42694506D02*
X18872484Y42621935D01*
X18872484Y42621935D02*
X18836199Y42585649D01*
X18836199Y42585649D02*
X18763627Y42549363D01*
X18763627Y42549363D02*
X18618484Y42549363D01*
X18618484Y42549363D02*
X18545913Y42513078D01*
X18545913Y42513078D02*
X18509627Y42476792D01*
X18509627Y42476792D02*
X18473341Y42404220D01*
X18473341Y42404220D02*
X18473341Y42259078D01*
X18473341Y42259078D02*
X18509627Y42186506D01*
X18509627Y42186506D02*
X18545913Y42150220D01*
X18545913Y42150220D02*
X18618484Y42113935D01*
X18618484Y42113935D02*
X18763627Y42113935D01*
X18763627Y42113935D02*
X18836199Y42150220D01*
X18836199Y42150220D02*
X18872484Y42186506D01*
X18872484Y42186506D02*
X18908770Y42259078D01*
X18908770Y42259078D02*
X18908770Y42404220D01*
X18908770Y42404220D02*
X18872484Y42476792D01*
X18872484Y42476792D02*
X18836199Y42513078D01*
X18836199Y42513078D02*
X18763627Y42549363D01*
X41445871Y27114508D02*
X41191871Y27477365D01*
X41010442Y27114508D02*
X41010442Y27876508D01*
X41010442Y27876508D02*
X41300728Y27876508D01*
X41300728Y27876508D02*
X41373299Y27840222D01*
X41373299Y27840222D02*
X41409585Y27803936D01*
X41409585Y27803936D02*
X41445871Y27731365D01*
X41445871Y27731365D02*
X41445871Y27622508D01*
X41445871Y27622508D02*
X41409585Y27549936D01*
X41409585Y27549936D02*
X41373299Y27513651D01*
X41373299Y27513651D02*
X41300728Y27477365D01*
X41300728Y27477365D02*
X41010442Y27477365D01*
X42099014Y27622508D02*
X42099014Y27114508D01*
X41917585Y27912793D02*
X41736156Y27368508D01*
X41736156Y27368508D02*
X42207871Y27368508D01*
X42643299Y27876508D02*
X42715870Y27876508D01*
X42715870Y27876508D02*
X42788442Y27840222D01*
X42788442Y27840222D02*
X42824728Y27803936D01*
X42824728Y27803936D02*
X42861013Y27731365D01*
X42861013Y27731365D02*
X42897299Y27586222D01*
X42897299Y27586222D02*
X42897299Y27404793D01*
X42897299Y27404793D02*
X42861013Y27259651D01*
X42861013Y27259651D02*
X42824728Y27187079D01*
X42824728Y27187079D02*
X42788442Y27150793D01*
X42788442Y27150793D02*
X42715870Y27114508D01*
X42715870Y27114508D02*
X42643299Y27114508D01*
X42643299Y27114508D02*
X42570728Y27150793D01*
X42570728Y27150793D02*
X42534442Y27187079D01*
X42534442Y27187079D02*
X42498156Y27259651D01*
X42498156Y27259651D02*
X42461870Y27404793D01*
X42461870Y27404793D02*
X42461870Y27586222D01*
X42461870Y27586222D02*
X42498156Y27731365D01*
X42498156Y27731365D02*
X42534442Y27803936D01*
X42534442Y27803936D02*
X42570728Y27840222D01*
X42570728Y27840222D02*
X42643299Y27876508D01*
X34426627Y42535935D02*
X34426627Y41919078D01*
X34426627Y41919078D02*
X34462913Y41846506D01*
X34462913Y41846506D02*
X34499199Y41810220D01*
X34499199Y41810220D02*
X34571770Y41773935D01*
X34571770Y41773935D02*
X34716913Y41773935D01*
X34716913Y41773935D02*
X34789484Y41810220D01*
X34789484Y41810220D02*
X34825770Y41846506D01*
X34825770Y41846506D02*
X34862056Y41919078D01*
X34862056Y41919078D02*
X34862056Y42535935D01*
X35587770Y42535935D02*
X35224913Y42535935D01*
X35224913Y42535935D02*
X35188627Y42173078D01*
X35188627Y42173078D02*
X35224913Y42209363D01*
X35224913Y42209363D02*
X35297485Y42245649D01*
X35297485Y42245649D02*
X35478913Y42245649D01*
X35478913Y42245649D02*
X35551485Y42209363D01*
X35551485Y42209363D02*
X35587770Y42173078D01*
X35587770Y42173078D02*
X35624056Y42100506D01*
X35624056Y42100506D02*
X35624056Y41919078D01*
X35624056Y41919078D02*
X35587770Y41846506D01*
X35587770Y41846506D02*
X35551485Y41810220D01*
X35551485Y41810220D02*
X35478913Y41773935D01*
X35478913Y41773935D02*
X35297485Y41773935D01*
X35297485Y41773935D02*
X35224913Y41810220D01*
X35224913Y41810220D02*
X35188627Y41846506D01*
D13*
X36476158Y34400646D02*
X36379396Y34449026D01*
X36379396Y34449026D02*
X36331015Y34497407D01*
X36331015Y34497407D02*
X36282634Y34594169D01*
X36282634Y34594169D02*
X36282634Y34884455D01*
X36282634Y34884455D02*
X36331015Y34981217D01*
X36331015Y34981217D02*
X36379396Y35029598D01*
X36379396Y35029598D02*
X36476158Y35077979D01*
X36476158Y35077979D02*
X36621301Y35077979D01*
X36621301Y35077979D02*
X36718063Y35029598D01*
X36718063Y35029598D02*
X36766444Y34981217D01*
X36766444Y34981217D02*
X36814825Y34884455D01*
X36814825Y34884455D02*
X36814825Y34594169D01*
X36814825Y34594169D02*
X36766444Y34497407D01*
X36766444Y34497407D02*
X36718063Y34449026D01*
X36718063Y34449026D02*
X36621301Y34400646D01*
X36621301Y34400646D02*
X36476158Y34400646D01*
D12*
X38496935Y26020871D02*
X38466697Y25990632D01*
X38466697Y25990632D02*
X38375983Y25960394D01*
X38375983Y25960394D02*
X38315507Y25960394D01*
X38315507Y25960394D02*
X38224792Y25990632D01*
X38224792Y25990632D02*
X38164316Y26051109D01*
X38164316Y26051109D02*
X38134078Y26111585D01*
X38134078Y26111585D02*
X38103840Y26232537D01*
X38103840Y26232537D02*
X38103840Y26323252D01*
X38103840Y26323252D02*
X38134078Y26444204D01*
X38134078Y26444204D02*
X38164316Y26504680D01*
X38164316Y26504680D02*
X38224792Y26565156D01*
X38224792Y26565156D02*
X38315507Y26595394D01*
X38315507Y26595394D02*
X38375983Y26595394D01*
X38375983Y26595394D02*
X38466697Y26565156D01*
X38466697Y26565156D02*
X38496935Y26534918D01*
X38708602Y26595394D02*
X39131935Y26595394D01*
X39131935Y26595394D02*
X38859792Y25960394D01*
X40760320Y25987100D02*
X40730082Y25956861D01*
X40730082Y25956861D02*
X40639368Y25926623D01*
X40639368Y25926623D02*
X40578892Y25926623D01*
X40578892Y25926623D02*
X40488177Y25956861D01*
X40488177Y25956861D02*
X40427701Y26017338D01*
X40427701Y26017338D02*
X40397463Y26077814D01*
X40397463Y26077814D02*
X40367225Y26198766D01*
X40367225Y26198766D02*
X40367225Y26289481D01*
X40367225Y26289481D02*
X40397463Y26410433D01*
X40397463Y26410433D02*
X40427701Y26470909D01*
X40427701Y26470909D02*
X40488177Y26531385D01*
X40488177Y26531385D02*
X40578892Y26561623D01*
X40578892Y26561623D02*
X40639368Y26561623D01*
X40639368Y26561623D02*
X40730082Y26531385D01*
X40730082Y26531385D02*
X40760320Y26501147D01*
X41304606Y26561623D02*
X41183653Y26561623D01*
X41183653Y26561623D02*
X41123177Y26531385D01*
X41123177Y26531385D02*
X41092939Y26501147D01*
X41092939Y26501147D02*
X41032463Y26410433D01*
X41032463Y26410433D02*
X41002225Y26289481D01*
X41002225Y26289481D02*
X41002225Y26047576D01*
X41002225Y26047576D02*
X41032463Y25987100D01*
X41032463Y25987100D02*
X41062701Y25956861D01*
X41062701Y25956861D02*
X41123177Y25926623D01*
X41123177Y25926623D02*
X41244130Y25926623D01*
X41244130Y25926623D02*
X41304606Y25956861D01*
X41304606Y25956861D02*
X41334844Y25987100D01*
X41334844Y25987100D02*
X41365082Y26047576D01*
X41365082Y26047576D02*
X41365082Y26198766D01*
X41365082Y26198766D02*
X41334844Y26259242D01*
X41334844Y26259242D02*
X41304606Y26289481D01*
X41304606Y26289481D02*
X41244130Y26319719D01*
X41244130Y26319719D02*
X41123177Y26319719D01*
X41123177Y26319719D02*
X41062701Y26289481D01*
X41062701Y26289481D02*
X41032463Y26259242D01*
X41032463Y26259242D02*
X41002225Y26198766D01*
D11*
X28667770Y24136506D02*
X28631484Y24100220D01*
X28631484Y24100220D02*
X28522627Y24063935D01*
X28522627Y24063935D02*
X28450055Y24063935D01*
X28450055Y24063935D02*
X28341198Y24100220D01*
X28341198Y24100220D02*
X28268627Y24172792D01*
X28268627Y24172792D02*
X28232341Y24245363D01*
X28232341Y24245363D02*
X28196055Y24390506D01*
X28196055Y24390506D02*
X28196055Y24499363D01*
X28196055Y24499363D02*
X28232341Y24644506D01*
X28232341Y24644506D02*
X28268627Y24717078D01*
X28268627Y24717078D02*
X28341198Y24789649D01*
X28341198Y24789649D02*
X28450055Y24825935D01*
X28450055Y24825935D02*
X28522627Y24825935D01*
X28522627Y24825935D02*
X28631484Y24789649D01*
X28631484Y24789649D02*
X28667770Y24753363D01*
X28994341Y24063935D02*
X28994341Y24825935D01*
X28994341Y24463078D02*
X29429770Y24463078D01*
X29429770Y24063935D02*
X29429770Y24825935D01*
X29756341Y24281649D02*
X30119199Y24281649D01*
X29683770Y24063935D02*
X29937770Y24825935D01*
X29937770Y24825935D02*
X30191770Y24063935D01*
X30881199Y24063935D02*
X30627199Y24426792D01*
X30445770Y24063935D02*
X30445770Y24825935D01*
X30445770Y24825935D02*
X30736056Y24825935D01*
X30736056Y24825935D02*
X30808627Y24789649D01*
X30808627Y24789649D02*
X30844913Y24753363D01*
X30844913Y24753363D02*
X30881199Y24680792D01*
X30881199Y24680792D02*
X30881199Y24571935D01*
X30881199Y24571935D02*
X30844913Y24499363D01*
X30844913Y24499363D02*
X30808627Y24463078D01*
X30808627Y24463078D02*
X30736056Y24426792D01*
X30736056Y24426792D02*
X30445770Y24426792D01*
X31606913Y24789649D02*
X31534342Y24825935D01*
X31534342Y24825935D02*
X31425484Y24825935D01*
X31425484Y24825935D02*
X31316627Y24789649D01*
X31316627Y24789649D02*
X31244056Y24717078D01*
X31244056Y24717078D02*
X31207770Y24644506D01*
X31207770Y24644506D02*
X31171484Y24499363D01*
X31171484Y24499363D02*
X31171484Y24390506D01*
X31171484Y24390506D02*
X31207770Y24245363D01*
X31207770Y24245363D02*
X31244056Y24172792D01*
X31244056Y24172792D02*
X31316627Y24100220D01*
X31316627Y24100220D02*
X31425484Y24063935D01*
X31425484Y24063935D02*
X31498056Y24063935D01*
X31498056Y24063935D02*
X31606913Y24100220D01*
X31606913Y24100220D02*
X31643199Y24136506D01*
X31643199Y24136506D02*
X31643199Y24390506D01*
X31643199Y24390506D02*
X31498056Y24390506D01*
X31969770Y24463078D02*
X32223770Y24463078D01*
X32332627Y24063935D02*
X31969770Y24063935D01*
X31969770Y24063935D02*
X31969770Y24825935D01*
X31969770Y24825935D02*
X32332627Y24825935D01*
X33058342Y24063935D02*
X32622913Y24063935D01*
X32840628Y24063935D02*
X32840628Y24825935D01*
X32840628Y24825935D02*
X32768056Y24717078D01*
X32768056Y24717078D02*
X32695485Y24644506D01*
X32695485Y24644506D02*
X32622913Y24608220D01*
D12*
X20873389Y39346036D02*
X20873389Y38831989D01*
X20873389Y38831989D02*
X20903627Y38771513D01*
X20903627Y38771513D02*
X20933865Y38741274D01*
X20933865Y38741274D02*
X20994341Y38711036D01*
X20994341Y38711036D02*
X21115294Y38711036D01*
X21115294Y38711036D02*
X21175770Y38741274D01*
X21175770Y38741274D02*
X21206008Y38771513D01*
X21206008Y38771513D02*
X21236246Y38831989D01*
X21236246Y38831989D02*
X21236246Y39346036D01*
X21629341Y39073894D02*
X21568865Y39104132D01*
X21568865Y39104132D02*
X21538627Y39134370D01*
X21538627Y39134370D02*
X21508389Y39194846D01*
X21508389Y39194846D02*
X21508389Y39225084D01*
X21508389Y39225084D02*
X21538627Y39285560D01*
X21538627Y39285560D02*
X21568865Y39315798D01*
X21568865Y39315798D02*
X21629341Y39346036D01*
X21629341Y39346036D02*
X21750294Y39346036D01*
X21750294Y39346036D02*
X21810770Y39315798D01*
X21810770Y39315798D02*
X21841008Y39285560D01*
X21841008Y39285560D02*
X21871246Y39225084D01*
X21871246Y39225084D02*
X21871246Y39194846D01*
X21871246Y39194846D02*
X21841008Y39134370D01*
X21841008Y39134370D02*
X21810770Y39104132D01*
X21810770Y39104132D02*
X21750294Y39073894D01*
X21750294Y39073894D02*
X21629341Y39073894D01*
X21629341Y39073894D02*
X21568865Y39043655D01*
X21568865Y39043655D02*
X21538627Y39013417D01*
X21538627Y39013417D02*
X21508389Y38952941D01*
X21508389Y38952941D02*
X21508389Y38831989D01*
X21508389Y38831989D02*
X21538627Y38771513D01*
X21538627Y38771513D02*
X21568865Y38741274D01*
X21568865Y38741274D02*
X21629341Y38711036D01*
X21629341Y38711036D02*
X21750294Y38711036D01*
X21750294Y38711036D02*
X21810770Y38741274D01*
X21810770Y38741274D02*
X21841008Y38771513D01*
X21841008Y38771513D02*
X21871246Y38831989D01*
X21871246Y38831989D02*
X21871246Y38952941D01*
X21871246Y38952941D02*
X21841008Y39013417D01*
X21841008Y39013417D02*
X21810770Y39043655D01*
X21810770Y39043655D02*
X21750294Y39073894D01*
D11*
X44260199Y25963935D02*
X43897342Y25963935D01*
X43897342Y25963935D02*
X43897342Y26725935D01*
X44477913Y26653363D02*
X44514199Y26689649D01*
X44514199Y26689649D02*
X44586771Y26725935D01*
X44586771Y26725935D02*
X44768199Y26725935D01*
X44768199Y26725935D02*
X44840771Y26689649D01*
X44840771Y26689649D02*
X44877056Y26653363D01*
X44877056Y26653363D02*
X44913342Y26580792D01*
X44913342Y26580792D02*
X44913342Y26508220D01*
X44913342Y26508220D02*
X44877056Y26399363D01*
X44877056Y26399363D02*
X44441628Y25963935D01*
X44441628Y25963935D02*
X44913342Y25963935D01*
X43051913Y13523078D02*
X43160770Y13486792D01*
X43160770Y13486792D02*
X43197056Y13450506D01*
X43197056Y13450506D02*
X43233342Y13377935D01*
X43233342Y13377935D02*
X43233342Y13269078D01*
X43233342Y13269078D02*
X43197056Y13196506D01*
X43197056Y13196506D02*
X43160770Y13160220D01*
X43160770Y13160220D02*
X43088199Y13123935D01*
X43088199Y13123935D02*
X42797913Y13123935D01*
X42797913Y13123935D02*
X42797913Y13885935D01*
X42797913Y13885935D02*
X43051913Y13885935D01*
X43051913Y13885935D02*
X43124485Y13849649D01*
X43124485Y13849649D02*
X43160770Y13813363D01*
X43160770Y13813363D02*
X43197056Y13740792D01*
X43197056Y13740792D02*
X43197056Y13668220D01*
X43197056Y13668220D02*
X43160770Y13595649D01*
X43160770Y13595649D02*
X43124485Y13559363D01*
X43124485Y13559363D02*
X43051913Y13523078D01*
X43051913Y13523078D02*
X42797913Y13523078D01*
X43523627Y13341649D02*
X43886485Y13341649D01*
X43451056Y13123935D02*
X43705056Y13885935D01*
X43705056Y13885935D02*
X43959056Y13123935D01*
X44104199Y13885935D02*
X44539628Y13885935D01*
X44321913Y13123935D02*
X44321913Y13885935D01*
X45192770Y13123935D02*
X44757341Y13123935D01*
X44975056Y13123935D02*
X44975056Y13885935D01*
X44975056Y13885935D02*
X44902484Y13777078D01*
X44902484Y13777078D02*
X44829913Y13704506D01*
X44829913Y13704506D02*
X44757341Y13668220D01*
X27957947Y22933935D02*
X27957947Y23695935D01*
X27957947Y23695935D02*
X28248233Y23695935D01*
X28248233Y23695935D02*
X28320804Y23659649D01*
X28320804Y23659649D02*
X28357090Y23623363D01*
X28357090Y23623363D02*
X28393376Y23550792D01*
X28393376Y23550792D02*
X28393376Y23441935D01*
X28393376Y23441935D02*
X28357090Y23369363D01*
X28357090Y23369363D02*
X28320804Y23333078D01*
X28320804Y23333078D02*
X28248233Y23296792D01*
X28248233Y23296792D02*
X27957947Y23296792D01*
X28647376Y23695935D02*
X28828804Y22933935D01*
X28828804Y22933935D02*
X28973947Y23478220D01*
X28973947Y23478220D02*
X29119090Y22933935D01*
X29119090Y22933935D02*
X29300519Y23695935D01*
X30026233Y22933935D02*
X29772233Y23296792D01*
X29590804Y22933935D02*
X29590804Y23695935D01*
X29590804Y23695935D02*
X29881090Y23695935D01*
X29881090Y23695935D02*
X29953661Y23659649D01*
X29953661Y23659649D02*
X29989947Y23623363D01*
X29989947Y23623363D02*
X30026233Y23550792D01*
X30026233Y23550792D02*
X30026233Y23441935D01*
X30026233Y23441935D02*
X29989947Y23369363D01*
X29989947Y23369363D02*
X29953661Y23333078D01*
X29953661Y23333078D02*
X29881090Y23296792D01*
X29881090Y23296792D02*
X29590804Y23296792D01*
X30715661Y22933935D02*
X30352804Y22933935D01*
X30352804Y22933935D02*
X30352804Y23695935D01*
X30969661Y23333078D02*
X31223661Y23333078D01*
X31332518Y22933935D02*
X30969661Y22933935D01*
X30969661Y22933935D02*
X30969661Y23695935D01*
X30969661Y23695935D02*
X31332518Y23695935D01*
X31659090Y22933935D02*
X31659090Y23695935D01*
X31659090Y23695935D02*
X31840519Y23695935D01*
X31840519Y23695935D02*
X31949376Y23659649D01*
X31949376Y23659649D02*
X32021947Y23587078D01*
X32021947Y23587078D02*
X32058233Y23514506D01*
X32058233Y23514506D02*
X32094519Y23369363D01*
X32094519Y23369363D02*
X32094519Y23260506D01*
X32094519Y23260506D02*
X32058233Y23115363D01*
X32058233Y23115363D02*
X32021947Y23042792D01*
X32021947Y23042792D02*
X31949376Y22970220D01*
X31949376Y22970220D02*
X31840519Y22933935D01*
X31840519Y22933935D02*
X31659090Y22933935D01*
X32820233Y22933935D02*
X32384804Y22933935D01*
X32602519Y22933935D02*
X32602519Y23695935D01*
X32602519Y23695935D02*
X32529947Y23587078D01*
X32529947Y23587078D02*
X32457376Y23514506D01*
X32457376Y23514506D02*
X32384804Y23478220D01*
D12*
X8128984Y24841036D02*
X7917317Y25143417D01*
X7766127Y24841036D02*
X7766127Y25476036D01*
X7766127Y25476036D02*
X8008032Y25476036D01*
X8008032Y25476036D02*
X8068508Y25445798D01*
X8068508Y25445798D02*
X8098746Y25415560D01*
X8098746Y25415560D02*
X8128984Y25355084D01*
X8128984Y25355084D02*
X8128984Y25264370D01*
X8128984Y25264370D02*
X8098746Y25203894D01*
X8098746Y25203894D02*
X8068508Y25173655D01*
X8068508Y25173655D02*
X8008032Y25143417D01*
X8008032Y25143417D02*
X7766127Y25143417D01*
X8340651Y25476036D02*
X8733746Y25476036D01*
X8733746Y25476036D02*
X8522079Y25234132D01*
X8522079Y25234132D02*
X8612794Y25234132D01*
X8612794Y25234132D02*
X8673270Y25203894D01*
X8673270Y25203894D02*
X8703508Y25173655D01*
X8703508Y25173655D02*
X8733746Y25113179D01*
X8733746Y25113179D02*
X8733746Y24961989D01*
X8733746Y24961989D02*
X8703508Y24901513D01*
X8703508Y24901513D02*
X8673270Y24871274D01*
X8673270Y24871274D02*
X8612794Y24841036D01*
X8612794Y24841036D02*
X8431365Y24841036D01*
X8431365Y24841036D02*
X8370889Y24871274D01*
X8370889Y24871274D02*
X8340651Y24901513D01*
X8945413Y25476036D02*
X9338508Y25476036D01*
X9338508Y25476036D02*
X9126841Y25234132D01*
X9126841Y25234132D02*
X9217556Y25234132D01*
X9217556Y25234132D02*
X9278032Y25203894D01*
X9278032Y25203894D02*
X9308270Y25173655D01*
X9308270Y25173655D02*
X9338508Y25113179D01*
X9338508Y25113179D02*
X9338508Y24961989D01*
X9338508Y24961989D02*
X9308270Y24901513D01*
X9308270Y24901513D02*
X9278032Y24871274D01*
X9278032Y24871274D02*
X9217556Y24841036D01*
X9217556Y24841036D02*
X9036127Y24841036D01*
X9036127Y24841036D02*
X8975651Y24871274D01*
X8975651Y24871274D02*
X8945413Y24901513D01*
X6168984Y24741036D02*
X5957317Y25043417D01*
X5806127Y24741036D02*
X5806127Y25376036D01*
X5806127Y25376036D02*
X6048032Y25376036D01*
X6048032Y25376036D02*
X6108508Y25345798D01*
X6108508Y25345798D02*
X6138746Y25315560D01*
X6138746Y25315560D02*
X6168984Y25255084D01*
X6168984Y25255084D02*
X6168984Y25164370D01*
X6168984Y25164370D02*
X6138746Y25103894D01*
X6138746Y25103894D02*
X6108508Y25073655D01*
X6108508Y25073655D02*
X6048032Y25043417D01*
X6048032Y25043417D02*
X5806127Y25043417D01*
X6380651Y25376036D02*
X6773746Y25376036D01*
X6773746Y25376036D02*
X6562079Y25134132D01*
X6562079Y25134132D02*
X6652794Y25134132D01*
X6652794Y25134132D02*
X6713270Y25103894D01*
X6713270Y25103894D02*
X6743508Y25073655D01*
X6743508Y25073655D02*
X6773746Y25013179D01*
X6773746Y25013179D02*
X6773746Y24861989D01*
X6773746Y24861989D02*
X6743508Y24801513D01*
X6743508Y24801513D02*
X6713270Y24771274D01*
X6713270Y24771274D02*
X6652794Y24741036D01*
X6652794Y24741036D02*
X6471365Y24741036D01*
X6471365Y24741036D02*
X6410889Y24771274D01*
X6410889Y24771274D02*
X6380651Y24801513D01*
X7015651Y25315560D02*
X7045889Y25345798D01*
X7045889Y25345798D02*
X7106365Y25376036D01*
X7106365Y25376036D02*
X7257556Y25376036D01*
X7257556Y25376036D02*
X7318032Y25345798D01*
X7318032Y25345798D02*
X7348270Y25315560D01*
X7348270Y25315560D02*
X7378508Y25255084D01*
X7378508Y25255084D02*
X7378508Y25194608D01*
X7378508Y25194608D02*
X7348270Y25103894D01*
X7348270Y25103894D02*
X6985413Y24741036D01*
X6985413Y24741036D02*
X7378508Y24741036D01*
X12808984Y24831036D02*
X12597317Y25133417D01*
X12446127Y24831036D02*
X12446127Y25466036D01*
X12446127Y25466036D02*
X12688032Y25466036D01*
X12688032Y25466036D02*
X12748508Y25435798D01*
X12748508Y25435798D02*
X12778746Y25405560D01*
X12778746Y25405560D02*
X12808984Y25345084D01*
X12808984Y25345084D02*
X12808984Y25254370D01*
X12808984Y25254370D02*
X12778746Y25193894D01*
X12778746Y25193894D02*
X12748508Y25163655D01*
X12748508Y25163655D02*
X12688032Y25133417D01*
X12688032Y25133417D02*
X12446127Y25133417D01*
X13020651Y25466036D02*
X13413746Y25466036D01*
X13413746Y25466036D02*
X13202079Y25224132D01*
X13202079Y25224132D02*
X13292794Y25224132D01*
X13292794Y25224132D02*
X13353270Y25193894D01*
X13353270Y25193894D02*
X13383508Y25163655D01*
X13383508Y25163655D02*
X13413746Y25103179D01*
X13413746Y25103179D02*
X13413746Y24951989D01*
X13413746Y24951989D02*
X13383508Y24891513D01*
X13383508Y24891513D02*
X13353270Y24861274D01*
X13353270Y24861274D02*
X13292794Y24831036D01*
X13292794Y24831036D02*
X13111365Y24831036D01*
X13111365Y24831036D02*
X13050889Y24861274D01*
X13050889Y24861274D02*
X13020651Y24891513D01*
X14018508Y24831036D02*
X13655651Y24831036D01*
X13837079Y24831036D02*
X13837079Y25466036D01*
X13837079Y25466036D02*
X13776603Y25375322D01*
X13776603Y25375322D02*
X13716127Y25314846D01*
X13716127Y25314846D02*
X13655651Y25284608D01*
X10748984Y24851036D02*
X10537317Y25153417D01*
X10386127Y24851036D02*
X10386127Y25486036D01*
X10386127Y25486036D02*
X10628032Y25486036D01*
X10628032Y25486036D02*
X10688508Y25455798D01*
X10688508Y25455798D02*
X10718746Y25425560D01*
X10718746Y25425560D02*
X10748984Y25365084D01*
X10748984Y25365084D02*
X10748984Y25274370D01*
X10748984Y25274370D02*
X10718746Y25213894D01*
X10718746Y25213894D02*
X10688508Y25183655D01*
X10688508Y25183655D02*
X10628032Y25153417D01*
X10628032Y25153417D02*
X10386127Y25153417D01*
X10990889Y25425560D02*
X11021127Y25455798D01*
X11021127Y25455798D02*
X11081603Y25486036D01*
X11081603Y25486036D02*
X11232794Y25486036D01*
X11232794Y25486036D02*
X11293270Y25455798D01*
X11293270Y25455798D02*
X11323508Y25425560D01*
X11323508Y25425560D02*
X11353746Y25365084D01*
X11353746Y25365084D02*
X11353746Y25304608D01*
X11353746Y25304608D02*
X11323508Y25213894D01*
X11323508Y25213894D02*
X10960651Y24851036D01*
X10960651Y24851036D02*
X11353746Y24851036D01*
X11716603Y25213894D02*
X11656127Y25244132D01*
X11656127Y25244132D02*
X11625889Y25274370D01*
X11625889Y25274370D02*
X11595651Y25334846D01*
X11595651Y25334846D02*
X11595651Y25365084D01*
X11595651Y25365084D02*
X11625889Y25425560D01*
X11625889Y25425560D02*
X11656127Y25455798D01*
X11656127Y25455798D02*
X11716603Y25486036D01*
X11716603Y25486036D02*
X11837556Y25486036D01*
X11837556Y25486036D02*
X11898032Y25455798D01*
X11898032Y25455798D02*
X11928270Y25425560D01*
X11928270Y25425560D02*
X11958508Y25365084D01*
X11958508Y25365084D02*
X11958508Y25334846D01*
X11958508Y25334846D02*
X11928270Y25274370D01*
X11928270Y25274370D02*
X11898032Y25244132D01*
X11898032Y25244132D02*
X11837556Y25213894D01*
X11837556Y25213894D02*
X11716603Y25213894D01*
X11716603Y25213894D02*
X11656127Y25183655D01*
X11656127Y25183655D02*
X11625889Y25153417D01*
X11625889Y25153417D02*
X11595651Y25092941D01*
X11595651Y25092941D02*
X11595651Y24971989D01*
X11595651Y24971989D02*
X11625889Y24911513D01*
X11625889Y24911513D02*
X11656127Y24881274D01*
X11656127Y24881274D02*
X11716603Y24851036D01*
X11716603Y24851036D02*
X11837556Y24851036D01*
X11837556Y24851036D02*
X11898032Y24881274D01*
X11898032Y24881274D02*
X11928270Y24911513D01*
X11928270Y24911513D02*
X11958508Y24971989D01*
X11958508Y24971989D02*
X11958508Y25092941D01*
X11958508Y25092941D02*
X11928270Y25153417D01*
X11928270Y25153417D02*
X11898032Y25183655D01*
X11898032Y25183655D02*
X11837556Y25213894D01*
X11828865Y28946036D02*
X12191722Y28946036D01*
X12010293Y28311036D02*
X12010293Y28946036D01*
X12312675Y28946036D02*
X12524341Y28311036D01*
X12524341Y28311036D02*
X12736008Y28946036D01*
X12917437Y28341274D02*
X13008151Y28311036D01*
X13008151Y28311036D02*
X13159342Y28311036D01*
X13159342Y28311036D02*
X13219818Y28341274D01*
X13219818Y28341274D02*
X13250056Y28371513D01*
X13250056Y28371513D02*
X13280294Y28431989D01*
X13280294Y28431989D02*
X13280294Y28492465D01*
X13280294Y28492465D02*
X13250056Y28552941D01*
X13250056Y28552941D02*
X13219818Y28583179D01*
X13219818Y28583179D02*
X13159342Y28613417D01*
X13159342Y28613417D02*
X13038389Y28643655D01*
X13038389Y28643655D02*
X12977913Y28673894D01*
X12977913Y28673894D02*
X12947675Y28704132D01*
X12947675Y28704132D02*
X12917437Y28764608D01*
X12917437Y28764608D02*
X12917437Y28825084D01*
X12917437Y28825084D02*
X12947675Y28885560D01*
X12947675Y28885560D02*
X12977913Y28915798D01*
X12977913Y28915798D02*
X13038389Y28946036D01*
X13038389Y28946036D02*
X13189580Y28946036D01*
X13189580Y28946036D02*
X13280294Y28915798D01*
X13885056Y28311036D02*
X13522199Y28311036D01*
X13703627Y28311036D02*
X13703627Y28946036D01*
X13703627Y28946036D02*
X13643151Y28855322D01*
X13643151Y28855322D02*
X13582675Y28794846D01*
X13582675Y28794846D02*
X13522199Y28764608D01*
D14*
X33972985Y25769881D02*
X33972985Y24960358D01*
X33972985Y24960358D02*
X34020604Y24865120D01*
X34020604Y24865120D02*
X34068223Y24817500D01*
X34068223Y24817500D02*
X34163461Y24769881D01*
X34163461Y24769881D02*
X34353937Y24769881D01*
X34353937Y24769881D02*
X34449175Y24817500D01*
X34449175Y24817500D02*
X34496794Y24865120D01*
X34496794Y24865120D02*
X34544413Y24960358D01*
X34544413Y24960358D02*
X34544413Y25769881D01*
X35449175Y25769881D02*
X35258699Y25769881D01*
X35258699Y25769881D02*
X35163461Y25722262D01*
X35163461Y25722262D02*
X35115842Y25674643D01*
X35115842Y25674643D02*
X35020604Y25531786D01*
X35020604Y25531786D02*
X34972985Y25341310D01*
X34972985Y25341310D02*
X34972985Y24960358D01*
X34972985Y24960358D02*
X35020604Y24865120D01*
X35020604Y24865120D02*
X35068223Y24817500D01*
X35068223Y24817500D02*
X35163461Y24769881D01*
X35163461Y24769881D02*
X35353937Y24769881D01*
X35353937Y24769881D02*
X35449175Y24817500D01*
X35449175Y24817500D02*
X35496794Y24865120D01*
X35496794Y24865120D02*
X35544413Y24960358D01*
X35544413Y24960358D02*
X35544413Y25198453D01*
X35544413Y25198453D02*
X35496794Y25293691D01*
X35496794Y25293691D02*
X35449175Y25341310D01*
X35449175Y25341310D02*
X35353937Y25388929D01*
X35353937Y25388929D02*
X35163461Y25388929D01*
X35163461Y25388929D02*
X35068223Y25341310D01*
X35068223Y25341310D02*
X35020604Y25293691D01*
X35020604Y25293691D02*
X34972985Y25198453D01*
X47171032Y25769881D02*
X47171032Y24960358D01*
X47171032Y24960358D02*
X47218651Y24865120D01*
X47218651Y24865120D02*
X47266270Y24817500D01*
X47266270Y24817500D02*
X47361508Y24769881D01*
X47361508Y24769881D02*
X47551984Y24769881D01*
X47551984Y24769881D02*
X47647222Y24817500D01*
X47647222Y24817500D02*
X47694841Y24865120D01*
X47694841Y24865120D02*
X47742460Y24960358D01*
X47742460Y24960358D02*
X47742460Y25769881D01*
X48123413Y25769881D02*
X48790079Y25769881D01*
X48790079Y25769881D02*
X48361508Y24769881D01*
D13*
%TO.C,C8*%
X2939949Y40600409D02*
X2939949Y39584409D01*
X4463949Y40600409D02*
X4463949Y39584409D01*
%TO.C,C9*%
X4463949Y40600409D02*
X4463949Y39584409D01*
X5987949Y40600409D02*
X5987949Y39584409D01*
%TO.C,C13*%
X10974240Y39561054D02*
X10974240Y40577054D01*
X12498240Y39561054D02*
X12498240Y40577054D01*
%TO.C,C15*%
X15258949Y31456409D02*
X16274949Y31456409D01*
X15258949Y29932409D02*
X16274949Y29932409D01*
%TO.C,C16*%
X15258949Y36663409D02*
X16274949Y36663409D01*
X15258949Y35139409D02*
X16274949Y35139409D01*
%TO.C,C17*%
X15258949Y35139409D02*
X16274949Y35139409D01*
X15258949Y33615409D02*
X16274949Y33615409D01*
%TO.C,C18*%
X2939949Y35520409D02*
X3955949Y35520409D01*
X2939949Y33996409D02*
X3955949Y33996409D01*
%TO.C,CR1*%
X17665949Y31138409D02*
X17665949Y34338409D01*
X17965949Y34338409D02*
X17665949Y34338409D01*
X17965949Y31138409D02*
X17665949Y31138409D01*
X19657949Y32992409D02*
X19657949Y32484409D01*
X19657949Y32484409D02*
X20673949Y32484409D01*
X20165949Y33373409D02*
X19838289Y33373409D01*
X20165949Y33373409D02*
X20165949Y33754409D01*
X20165949Y32103409D02*
X19838289Y32103409D01*
X20165949Y32103409D02*
X20165949Y31722409D01*
X20465949Y34338409D02*
X19865949Y34338409D01*
X20465949Y31138409D02*
X19865949Y31138409D01*
X20493609Y33373409D02*
X20165949Y33373409D01*
X20493609Y32103409D02*
X20165949Y32103409D01*
X20673949Y32992409D02*
X19657949Y32992409D01*
X20673949Y32484409D02*
X20673949Y32992409D01*
X22665949Y34338409D02*
X22365949Y34338409D01*
X22665949Y34338409D02*
X22665949Y31138409D01*
X22665949Y31138409D02*
X22365949Y31138409D01*
X22655949Y32238409D02*
G75*
G02*
X22655949Y33238409I0J500000D01*
G01*
D15*
%TO.C,L3*%
X440551Y40136644D02*
X440551Y39298444D01*
X2218551Y40136644D02*
X2218551Y39298444D01*
D13*
%TO.C,PWR1*%
X27590983Y13531010D02*
X27590983Y31010D01*
X27590983Y13531010D02*
X29195983Y13531010D01*
X27590983Y31010D02*
X36642983Y31010D01*
X36642983Y13531010D02*
X36642983Y13150010D01*
X36642983Y31010D02*
X36642983Y7308010D01*
X36643263Y13531010D02*
X35164983Y13531010D01*
%TO.C,PWR2*%
X38607291Y7729099D02*
X38607291Y6629099D01*
X38607291Y6629099D02*
X39087291Y6629099D01*
X38847291Y7729099D02*
X38847291Y6629099D01*
X39087291Y9329099D02*
X39087291Y239099D01*
X39087291Y9149099D02*
X39087291Y9519099D01*
X39087291Y7729099D02*
X38607291Y7729099D01*
X39087291Y2629099D02*
X40577291Y2629099D01*
X39087291Y239099D02*
X49097291Y229099D01*
X42627291Y2629099D02*
X45567291Y2629099D01*
X48497291Y7729099D02*
X48497291Y6629099D01*
X48497291Y6629099D02*
X49097291Y6629099D01*
X48747291Y7729099D02*
X48747291Y6639099D01*
X48927291Y7729099D02*
X48927291Y6629099D01*
X49097291Y9519099D02*
X39087291Y9519099D01*
X49097291Y9329099D02*
X39087291Y9329099D01*
X49097291Y9089099D02*
X49097291Y9519099D01*
X49097291Y7729099D02*
X48497291Y7729099D01*
X49097291Y2629099D02*
X47607291Y2629099D01*
X49097291Y229099D02*
X49097291Y9329099D01*
X42120741Y7929099D02*
G75*
G02*
X41073841Y7929099I-523450J0D01*
G01*
X41073841Y7929099D02*
G75*
G02*
X42120741Y7929099I523450J0D01*
G01*
X47110741Y7939099D02*
G75*
G02*
X46063841Y7939099I-523450J0D01*
G01*
X46063841Y7939099D02*
G75*
G02*
X47110741Y7939099I523450J0D01*
G01*
%TO.C,R26*%
X15231367Y28189345D02*
X16247367Y28189345D01*
X15231367Y26665345D02*
X16247367Y26665345D01*
%TO.C,R27*%
X1261393Y8636784D02*
X1261393Y9652784D01*
X2785393Y8636784D02*
X2785393Y9652784D01*
%TO.C,R34*%
X23203949Y32230409D02*
X23203949Y33246409D01*
X24727949Y32230409D02*
X24727949Y33246409D01*
%TO.C,R36*%
X16373949Y33300409D02*
X15357949Y33300409D01*
X16373949Y31776409D02*
X15357949Y31776409D01*
%TO.C,R38*%
X3955949Y37044409D02*
X2939949Y37044409D01*
X3955949Y35520409D02*
X2939949Y35520409D01*
%TO.C,R39*%
X15258949Y29932409D02*
X16274949Y29932409D01*
X15258949Y28408409D02*
X16274949Y28408409D01*
%TO.C,R41*%
X41903787Y45336603D02*
X42919787Y45336603D01*
X41903787Y43812603D02*
X42919787Y43812603D01*
%TO.C,RM2*%
X13001238Y41556182D02*
X13217138Y41556182D01*
X13001238Y38609782D02*
X13001238Y41556182D01*
X13191738Y38609782D02*
X13001238Y38609782D01*
X16989038Y38609782D02*
X16811238Y38609782D01*
X17001738Y38609782D02*
X17001738Y41556182D01*
X17014438Y41556182D02*
X16798538Y41556182D01*
%TO.C,RM3*%
X6497430Y38615623D02*
X6713330Y38615623D01*
X6510130Y41562023D02*
X6510130Y38615623D01*
X6522830Y41562023D02*
X6700630Y41562023D01*
X10320130Y41562023D02*
X10510630Y41562023D01*
X10510630Y41562023D02*
X10510630Y38615623D01*
X10510630Y38615623D02*
X10294730Y38615623D01*
%TO.C,U2*%
X47211877Y22216764D02*
X47211877Y23347064D01*
X50018577Y22216764D02*
X50018577Y23347064D01*
%TO.C,U3*%
X3346949Y73013409D02*
X3346949Y66393409D01*
X3346949Y73013409D02*
X21346949Y73013409D01*
X3346949Y67013409D02*
X21346949Y67013409D01*
X3346949Y47513409D02*
X3346949Y48263409D01*
X3346949Y47513409D02*
X5846949Y47513409D01*
X5196949Y47513409D02*
X5846949Y47513409D01*
X19496949Y47513409D02*
X18896949Y47513409D01*
X21346949Y73013409D02*
X21346949Y66393409D01*
X21346949Y47513409D02*
X18896949Y47513409D01*
X21346949Y47513409D02*
X21346949Y48263409D01*
%TO.C,U4*%
X6917589Y36622769D02*
X6917589Y36221449D01*
X6917589Y32025369D02*
X6917589Y31624049D01*
X6917589Y31624049D02*
X7318909Y31624049D01*
X7318909Y36622769D02*
X6917589Y36622769D01*
X11514989Y31624049D02*
X11741049Y31624049D01*
X11741049Y31624049D02*
X11916309Y31799309D01*
X11916309Y36622769D02*
X11514989Y36622769D01*
X11916309Y36221449D02*
X11916309Y36622769D01*
X11916309Y31799309D02*
X11916309Y32025369D01*
D16*
X12491102Y31225269D02*
G75*
G02*
X12139076Y31225269I-176013J0D01*
G01*
X12139076Y31225269D02*
G75*
G02*
X12491102Y31225269I176013J0D01*
G01*
D13*
%TO.C,LAN1*%
X3471949Y-71591D02*
X3471949Y6928409D01*
X4471949Y21928409D02*
X20471949Y21928409D01*
X4471949Y15678409D02*
X4471949Y21928409D01*
X4471949Y-71591D02*
X3471949Y-71591D01*
X4471949Y-71591D02*
X4471949Y12178409D01*
X5871949Y5128409D02*
X5871949Y3128409D01*
X5871949Y3128409D02*
X6571949Y3128409D01*
X6671949Y3928409D02*
X6671949Y2328409D01*
X6673129Y3930709D02*
X7473229Y3130609D01*
X6772189Y1929189D02*
X7173509Y1428809D01*
X7173509Y1428809D02*
X6972849Y1428809D01*
X7173509Y1428809D02*
X7173509Y1629469D01*
X7473229Y3130609D02*
X6673129Y2330509D01*
X7473229Y1929189D02*
X7872009Y1428809D01*
X7572289Y3930709D02*
X7572289Y2330509D01*
X7673889Y3130609D02*
X8372389Y3130609D01*
X7872009Y1428809D02*
X7673889Y1428809D01*
X7872009Y1428809D02*
X7872009Y1629469D01*
X8371949Y3128409D02*
X8371949Y5028409D01*
X8872769Y-69791D02*
X9873529Y5429309D01*
X9472209Y-69791D02*
X10272309Y4730809D01*
X9873529Y5429309D02*
X10874289Y5429309D01*
X10272309Y4730809D02*
X10472969Y4730809D01*
X10301949Y1568409D02*
X10501949Y-71591D01*
X10341949Y3158409D02*
X10701949Y-51591D01*
X10351949Y3968409D02*
X10911949Y-61591D01*
X10361949Y4578409D02*
X9711949Y-51591D01*
X10361949Y3678409D02*
X9951949Y-51591D01*
X10371949Y4728409D02*
X11021949Y-61591D01*
X10391949Y2448409D02*
X10201949Y-61591D01*
X10471949Y798409D02*
X10331949Y-11591D01*
X10472969Y4730809D02*
X11273069Y-69791D01*
X10874289Y5429309D02*
X11872509Y-69791D01*
X11273069Y-69791D02*
X9472209Y-69791D01*
X13071389Y-69791D02*
X14069609Y5429309D01*
X13670829Y-69791D02*
X14470929Y4730809D01*
X14069609Y5429309D02*
X15070369Y5429309D01*
X14451949Y1538409D02*
X14731949Y-41591D01*
X14470929Y4730809D02*
X14671589Y4730809D01*
X14491949Y2568409D02*
X14891949Y-1591D01*
X14521949Y2148409D02*
X14371949Y-31591D01*
X14561949Y4538409D02*
X15281949Y-61591D01*
X14561949Y3788409D02*
X15081949Y58409D01*
X14561949Y828409D02*
X14561949Y-41591D01*
X14571949Y4368409D02*
X13901949Y-51591D01*
X14621949Y3318409D02*
X14141949Y-41591D01*
X14671589Y4730809D02*
X15471689Y-69791D01*
X15070369Y5429309D02*
X16071129Y-69791D01*
X15471689Y-69791D02*
X13670829Y-69791D01*
X16538489Y3130609D02*
X16538489Y5068629D01*
X17239529Y3130609D02*
X16538489Y3130609D01*
X17338589Y2330509D02*
X17338589Y3930709D01*
X17338589Y2330509D02*
X18138689Y3130609D01*
X17470669Y1929189D02*
X17869449Y1428809D01*
X17869449Y1428809D02*
X17671329Y1428809D01*
X17869449Y1428809D02*
X17869449Y1629469D01*
X18138689Y3130609D02*
X17338589Y3930709D01*
X18171709Y1929189D02*
X18570489Y1428809D01*
X18237749Y2330509D02*
X18237749Y3930709D01*
X18570489Y1428809D02*
X18369829Y1428809D01*
X18570489Y1428809D02*
X18570489Y1629469D01*
X19037849Y5157529D02*
X19037849Y3130609D01*
X19037849Y3130609D02*
X18339349Y3130609D01*
X20471949Y21928409D02*
X20471949Y15678409D01*
X20471949Y12178409D02*
X20471949Y-71591D01*
X20471949Y-71591D02*
X4471949Y-71591D01*
X20471949Y-71591D02*
X21471949Y-71591D01*
X21471949Y-71591D02*
X21471949Y6928409D01*
%TO.C,C19*%
X880393Y19567781D02*
X880393Y18043781D01*
X3166393Y19567781D02*
X3166393Y18043781D01*
%TO.C,C20*%
X22043949Y18830409D02*
X22043949Y17306409D01*
X24329949Y18830409D02*
X24329949Y17306409D01*
%TO.C,R4*%
X31199870Y19738913D02*
X30183870Y19738913D01*
X31199870Y18214913D02*
X30183870Y18214913D01*
%TO.C,R19*%
X50659147Y22116005D02*
X50659147Y23132005D01*
X52183147Y22116005D02*
X52183147Y23132005D01*
%TO.C,R20*%
X49131046Y20276105D02*
X48115046Y20276105D01*
X49131046Y18752105D02*
X48115046Y18752105D01*
%TO.C,C21*%
X45053819Y42154299D02*
X45053819Y43170299D01*
X46577819Y42154299D02*
X46577819Y43170299D01*
%TO.C,C22*%
X45053819Y38059299D02*
X45053819Y37043299D01*
X46577819Y38059299D02*
X46577819Y37043299D01*
%TO.C,C24*%
X39171745Y30624736D02*
X39171745Y29608736D01*
X40695745Y30624736D02*
X40695745Y29608736D01*
%TO.C,D6*%
X38271180Y20547151D02*
X38271180Y15547151D01*
X40971180Y19177151D02*
X38271180Y19177151D01*
X40971180Y18737151D02*
X38271180Y18737151D01*
X40971180Y15547151D02*
X40971180Y20547151D01*
%TO.C,FET2*%
X35068723Y17831649D02*
X35068723Y17120449D01*
X35068723Y15698049D02*
X35068723Y14986849D01*
X35906923Y17831649D02*
X35068723Y17831649D01*
X35906923Y14986849D02*
X35068723Y14986849D01*
D14*
%TO.C,Q3*%
X47256775Y46357656D02*
X48526775Y46357656D01*
X47256775Y34927656D02*
X47256775Y46357656D01*
X47256775Y34927656D02*
X48526775Y34927656D01*
X47510775Y44960656D02*
X47510775Y36324656D01*
X47510775Y36324656D02*
X48145775Y35689656D01*
X48145775Y45595656D02*
X47510775Y44960656D01*
X48145775Y45595656D02*
X48526775Y45595656D01*
X48145775Y35689656D02*
X48526775Y35689656D01*
X51447775Y45595656D02*
X51066775Y45595656D01*
X51447775Y35689656D02*
X51066775Y35689656D01*
X51447775Y35689656D02*
X52082775Y36324656D01*
X52082775Y44960656D02*
X51447775Y45595656D01*
X52082775Y36324656D02*
X52082775Y44960656D01*
X52336775Y46357656D02*
X51066775Y46357656D01*
X52336775Y46357656D02*
X52336775Y34927656D01*
X52336775Y34927656D02*
X51066775Y34927656D01*
D13*
%TO.C,R30*%
X41434948Y12561483D02*
X42450948Y12561483D01*
X41434948Y11037483D02*
X42450948Y11037483D01*
%TO.C,R42*%
X39227951Y45351430D02*
X38211951Y45351430D01*
X39227951Y43827430D02*
X38211951Y43827430D01*
%TO.C,R54*%
X22704949Y49395409D02*
X22704949Y50411409D01*
X24228949Y49395409D02*
X24228949Y50411409D01*
%TO.C,D2*%
X41530642Y15395821D02*
X41530642Y20394541D01*
X42498382Y18276181D02*
X43768382Y18276181D01*
X42498382Y17260181D02*
X43133382Y18276181D01*
X42498382Y17260181D02*
X43768382Y17260181D01*
X43768382Y17260181D02*
X43133382Y18276181D01*
D17*
X44608382Y18845181D02*
X41608382Y18845181D01*
D13*
X44736122Y20394541D02*
X44736122Y15395821D01*
%TO.C,R57*%
X23203949Y37297409D02*
X23203949Y36281409D01*
X24727949Y37297409D02*
X24727949Y36281409D01*
%TO.C,C12*%
X3055255Y33594223D02*
X4071255Y33594223D01*
X3055255Y32070223D02*
X4071255Y32070223D01*
%TO.C,C1*%
X36110410Y22490926D02*
X35094410Y22490926D01*
X36110410Y20458926D02*
X35094410Y20458926D01*
%TO.C,C2*%
X36110410Y20458926D02*
X35094410Y20458926D01*
X36110410Y18426926D02*
X35094410Y18426926D01*
%TO.C,C14*%
X3612744Y30205231D02*
X3612744Y29189231D01*
X5136744Y30205231D02*
X5136744Y29189231D01*
%TO.C,C28*%
X17460838Y39520982D02*
X17460838Y40536982D01*
X18984838Y39520982D02*
X18984838Y40536982D01*
%TO.C,R40*%
X40826532Y30624736D02*
X40826532Y29608736D01*
X42350532Y30624736D02*
X42350532Y29608736D01*
%TO.C,U5*%
X36548730Y35682958D02*
X36548730Y41143958D01*
X36548730Y35682958D02*
X44168730Y35682958D01*
X36929730Y41143958D02*
X36929730Y35682958D01*
X44168730Y41143958D02*
X36548730Y41143958D01*
X44168730Y41143958D02*
X44168730Y35682958D01*
%TO.C,C7*%
X37840769Y24848902D02*
X37840769Y23832902D01*
X39364769Y24848902D02*
X39364769Y23832902D01*
%TO.C,C6*%
X39850154Y24815131D02*
X39850154Y23799131D01*
X41374154Y24815131D02*
X41374154Y23799131D01*
D18*
%TO.C,CHARGE1*%
X30370947Y22193546D02*
X30890947Y22193546D01*
D19*
X30461747Y21838946D02*
X30461747Y21918946D01*
X30461747Y21838946D02*
X30541747Y21848946D01*
D18*
X30540947Y22303546D02*
X30540947Y22083546D01*
X30540947Y22303546D02*
X30650947Y22203546D01*
X30540947Y22083546D02*
X30640947Y22183546D01*
D19*
X30601747Y21968946D02*
X30471747Y21858946D01*
X30677147Y21838946D02*
X30677147Y21918946D01*
X30677147Y21838946D02*
X30757147Y21848946D01*
D18*
X30730947Y22303546D02*
X30730947Y22083546D01*
D19*
X30808747Y21947946D02*
X30678747Y21837946D01*
D15*
X31011947Y22828546D02*
X32027947Y22828546D01*
D13*
X32027947Y21710946D02*
X32027947Y22752346D01*
D15*
X32027947Y21609346D02*
X31011947Y21609346D01*
D13*
X32040647Y22765046D02*
X32193047Y22638046D01*
X32040647Y21672846D02*
X32180347Y21799846D01*
X32193047Y22638046D02*
X32193047Y21812546D01*
%TO.C,U8*%
X19607149Y38135409D02*
X20737449Y38135409D01*
X19607149Y35328709D02*
X20737449Y35328709D01*
D16*
%TO.C,L2*%
X44291242Y24955817D02*
X44291242Y25305817D01*
X44291242Y23455817D02*
X44291242Y23105817D01*
D13*
X44341242Y25705817D02*
X43941242Y25705817D01*
X44341242Y22705817D02*
X43941242Y22705817D01*
D16*
X44241242Y24455817D02*
G75*
G02*
X44241242Y24955817I0J250000D01*
G01*
X44241242Y23955817D02*
G75*
G02*
X44241242Y24455817I0J250000D01*
G01*
X44241242Y23455817D02*
G75*
G02*
X44241242Y23955817I0J250000D01*
G01*
D13*
%TO.C,BAT1*%
X46302590Y15339480D02*
X46302590Y16342780D01*
X46302590Y10272180D02*
X46302590Y11326280D01*
X46310210Y10267100D02*
X52619570Y10267100D01*
X52619570Y16347860D02*
X46302588Y16347860D01*
X52619570Y10267100D02*
X52619570Y16347860D01*
D18*
%TO.C,PWRLED1*%
X30370947Y20758270D02*
X30890947Y20758270D01*
D19*
X30461747Y20403670D02*
X30461747Y20483670D01*
X30461747Y20403670D02*
X30541747Y20413670D01*
D18*
X30540947Y20868270D02*
X30540947Y20648270D01*
X30540947Y20868270D02*
X30650947Y20768270D01*
X30540947Y20648270D02*
X30640947Y20748270D01*
D19*
X30601747Y20533670D02*
X30471747Y20423670D01*
X30677147Y20403670D02*
X30677147Y20483670D01*
X30677147Y20403670D02*
X30757147Y20413670D01*
D18*
X30730947Y20868270D02*
X30730947Y20648270D01*
D19*
X30808747Y20512670D02*
X30678747Y20402670D01*
D15*
X31011947Y21393270D02*
X32027947Y21393270D01*
D13*
X32027947Y20275670D02*
X32027947Y21317070D01*
D15*
X32027947Y20174070D02*
X31011947Y20174070D01*
D13*
X32040647Y21329770D02*
X32193047Y21202770D01*
X32040647Y20237570D02*
X32180347Y20364570D01*
X32193047Y21202770D02*
X32193047Y20377270D01*
%TO.C,R33*%
X8527949Y26820909D02*
X8273949Y26820909D01*
X8527949Y26820909D02*
X8781949Y26820909D01*
X8527949Y25931909D02*
X8273949Y25931909D01*
X8527949Y25931909D02*
X8781949Y25931909D01*
%TO.C,R32*%
X6622949Y26820909D02*
X6368949Y26820909D01*
X6622949Y26820909D02*
X6876949Y26820909D01*
X6622949Y25931909D02*
X6368949Y25931909D01*
X6622949Y25931909D02*
X6876949Y25931909D01*
%TO.C,R31*%
X13226949Y26820909D02*
X12972949Y26820909D01*
X13226949Y26820909D02*
X13480949Y26820909D01*
X13226949Y25931909D02*
X12972949Y25931909D01*
X13226949Y25931909D02*
X13480949Y25931909D01*
%TO.C,R28*%
X11321949Y26820909D02*
X11067949Y26820909D01*
X11321949Y26820909D02*
X11575949Y26820909D01*
X11321949Y25931909D02*
X11067949Y25931909D01*
X11321949Y25931909D02*
X11575949Y25931909D01*
%TO.C,USB-UART1*%
X26482412Y33950736D02*
X26482412Y42078736D01*
X26553412Y42078736D02*
X27569412Y41697736D01*
X26553412Y33950736D02*
X27569412Y34331736D01*
X27582412Y41714736D02*
X28582412Y41714736D01*
X27582412Y34314736D02*
X27582412Y41714736D01*
X28582412Y34314736D02*
X27582412Y34314736D01*
X32082412Y41714736D02*
X30882412Y41714736D01*
X32082412Y34314736D02*
X30882412Y34314736D01*
X33582412Y39814736D02*
X33582412Y40814736D01*
X33582412Y35214736D02*
X33582412Y36214736D01*
%TO.C,TVS1*%
X9366149Y29932409D02*
X10496449Y29932409D01*
X9366149Y27125709D02*
X10496449Y27125709D01*
%TO.C,U6*%
X37274890Y33051700D02*
X32194890Y33051700D01*
X37274890Y26051700D02*
X32194890Y26051700D01*
%TO.C,U7*%
X50472937Y33051700D02*
X45392937Y33051700D01*
X50472937Y26051700D02*
X45392937Y26051700D01*
%TD*%
M02*
