%TF.GenerationSoftware,KiCad,Pcbnew,9.0.5*%
%TF.CreationDate,2026-02-09T22:48:57-08:00*%
%TF.ProjectId,Vine_Basestation_Power,56696e65-5f42-4617-9365-73746174696f,rev?*%
%TF.SameCoordinates,Original*%
%TF.FileFunction,Legend,Top*%
%TF.FilePolarity,Positive*%
%FSLAX46Y46*%
G04 Gerber Fmt 4.6, Leading zero omitted, Abs format (unit mm)*
G04 Created by KiCad (PCBNEW 9.0.5) date 2026-02-09 22:48:57*
%MOMM*%
%LPD*%
G01*
G04 APERTURE LIST*
%ADD10C,0.150000*%
%ADD11C,0.120000*%
%ADD12C,0.152400*%
%ADD13C,0.200000*%
%ADD14C,0.127000*%
%ADD15C,0.000000*%
G04 APERTURE END LIST*
D10*
X187126133Y-38027836D02*
X187126133Y-38789741D01*
X186745180Y-38408788D02*
X187507085Y-38408788D01*
X187126133Y-39265931D02*
X187126133Y-40027836D01*
X186926133Y-50000000D02*
X186926133Y-50761905D01*
X186545180Y-50380952D02*
X187307085Y-50380952D01*
X186926133Y-51238095D02*
X186926133Y-52000000D01*
X189704761Y-49054819D02*
X189133333Y-49054819D01*
X189419047Y-49054819D02*
X189419047Y-48054819D01*
X189419047Y-48054819D02*
X189323809Y-48197676D01*
X189323809Y-48197676D02*
X189228571Y-48292914D01*
X189228571Y-48292914D02*
X189133333Y-48340533D01*
X190085714Y-48150057D02*
X190133333Y-48102438D01*
X190133333Y-48102438D02*
X190228571Y-48054819D01*
X190228571Y-48054819D02*
X190466666Y-48054819D01*
X190466666Y-48054819D02*
X190561904Y-48102438D01*
X190561904Y-48102438D02*
X190609523Y-48150057D01*
X190609523Y-48150057D02*
X190657142Y-48245295D01*
X190657142Y-48245295D02*
X190657142Y-48340533D01*
X190657142Y-48340533D02*
X190609523Y-48483390D01*
X190609523Y-48483390D02*
X190038095Y-49054819D01*
X190038095Y-49054819D02*
X190657142Y-49054819D01*
X190942857Y-48054819D02*
X191276190Y-49054819D01*
X191276190Y-49054819D02*
X191609523Y-48054819D01*
X192133333Y-48054819D02*
X192228571Y-48054819D01*
X192228571Y-48054819D02*
X192323809Y-48102438D01*
X192323809Y-48102438D02*
X192371428Y-48150057D01*
X192371428Y-48150057D02*
X192419047Y-48245295D01*
X192419047Y-48245295D02*
X192466666Y-48435771D01*
X192466666Y-48435771D02*
X192466666Y-48673866D01*
X192466666Y-48673866D02*
X192419047Y-48864342D01*
X192419047Y-48864342D02*
X192371428Y-48959580D01*
X192371428Y-48959580D02*
X192323809Y-49007200D01*
X192323809Y-49007200D02*
X192228571Y-49054819D01*
X192228571Y-49054819D02*
X192133333Y-49054819D01*
X192133333Y-49054819D02*
X192038095Y-49007200D01*
X192038095Y-49007200D02*
X191990476Y-48959580D01*
X191990476Y-48959580D02*
X191942857Y-48864342D01*
X191942857Y-48864342D02*
X191895238Y-48673866D01*
X191895238Y-48673866D02*
X191895238Y-48435771D01*
X191895238Y-48435771D02*
X191942857Y-48245295D01*
X191942857Y-48245295D02*
X191990476Y-48150057D01*
X191990476Y-48150057D02*
X192038095Y-48102438D01*
X192038095Y-48102438D02*
X192133333Y-48054819D01*
X188761905Y-36454819D02*
X189380952Y-36454819D01*
X189380952Y-36454819D02*
X189047619Y-36835771D01*
X189047619Y-36835771D02*
X189190476Y-36835771D01*
X189190476Y-36835771D02*
X189285714Y-36883390D01*
X189285714Y-36883390D02*
X189333333Y-36931009D01*
X189333333Y-36931009D02*
X189380952Y-37026247D01*
X189380952Y-37026247D02*
X189380952Y-37264342D01*
X189380952Y-37264342D02*
X189333333Y-37359580D01*
X189333333Y-37359580D02*
X189285714Y-37407200D01*
X189285714Y-37407200D02*
X189190476Y-37454819D01*
X189190476Y-37454819D02*
X188904762Y-37454819D01*
X188904762Y-37454819D02*
X188809524Y-37407200D01*
X188809524Y-37407200D02*
X188761905Y-37359580D01*
X189666667Y-36454819D02*
X190000000Y-37454819D01*
X190000000Y-37454819D02*
X190333333Y-36454819D01*
X190571429Y-36454819D02*
X191190476Y-36454819D01*
X191190476Y-36454819D02*
X190857143Y-36835771D01*
X190857143Y-36835771D02*
X191000000Y-36835771D01*
X191000000Y-36835771D02*
X191095238Y-36883390D01*
X191095238Y-36883390D02*
X191142857Y-36931009D01*
X191142857Y-36931009D02*
X191190476Y-37026247D01*
X191190476Y-37026247D02*
X191190476Y-37264342D01*
X191190476Y-37264342D02*
X191142857Y-37359580D01*
X191142857Y-37359580D02*
X191095238Y-37407200D01*
X191095238Y-37407200D02*
X191000000Y-37454819D01*
X191000000Y-37454819D02*
X190714286Y-37454819D01*
X190714286Y-37454819D02*
X190619048Y-37407200D01*
X190619048Y-37407200D02*
X190571429Y-37359580D01*
X184759580Y-52642857D02*
X184807200Y-52690476D01*
X184807200Y-52690476D02*
X184854819Y-52833333D01*
X184854819Y-52833333D02*
X184854819Y-52928571D01*
X184854819Y-52928571D02*
X184807200Y-53071428D01*
X184807200Y-53071428D02*
X184711961Y-53166666D01*
X184711961Y-53166666D02*
X184616723Y-53214285D01*
X184616723Y-53214285D02*
X184426247Y-53261904D01*
X184426247Y-53261904D02*
X184283390Y-53261904D01*
X184283390Y-53261904D02*
X184092914Y-53214285D01*
X184092914Y-53214285D02*
X183997676Y-53166666D01*
X183997676Y-53166666D02*
X183902438Y-53071428D01*
X183902438Y-53071428D02*
X183854819Y-52928571D01*
X183854819Y-52928571D02*
X183854819Y-52833333D01*
X183854819Y-52833333D02*
X183902438Y-52690476D01*
X183902438Y-52690476D02*
X183950057Y-52642857D01*
X184854819Y-51690476D02*
X184854819Y-52261904D01*
X184854819Y-51976190D02*
X183854819Y-51976190D01*
X183854819Y-51976190D02*
X183997676Y-52071428D01*
X183997676Y-52071428D02*
X184092914Y-52166666D01*
X184092914Y-52166666D02*
X184140533Y-52261904D01*
X183854819Y-51357142D02*
X183854819Y-50690476D01*
X183854819Y-50690476D02*
X184854819Y-51119047D01*
X184759580Y-56242857D02*
X184807200Y-56290476D01*
X184807200Y-56290476D02*
X184854819Y-56433333D01*
X184854819Y-56433333D02*
X184854819Y-56528571D01*
X184854819Y-56528571D02*
X184807200Y-56671428D01*
X184807200Y-56671428D02*
X184711961Y-56766666D01*
X184711961Y-56766666D02*
X184616723Y-56814285D01*
X184616723Y-56814285D02*
X184426247Y-56861904D01*
X184426247Y-56861904D02*
X184283390Y-56861904D01*
X184283390Y-56861904D02*
X184092914Y-56814285D01*
X184092914Y-56814285D02*
X183997676Y-56766666D01*
X183997676Y-56766666D02*
X183902438Y-56671428D01*
X183902438Y-56671428D02*
X183854819Y-56528571D01*
X183854819Y-56528571D02*
X183854819Y-56433333D01*
X183854819Y-56433333D02*
X183902438Y-56290476D01*
X183902438Y-56290476D02*
X183950057Y-56242857D01*
X184854819Y-55290476D02*
X184854819Y-55861904D01*
X184854819Y-55576190D02*
X183854819Y-55576190D01*
X183854819Y-55576190D02*
X183997676Y-55671428D01*
X183997676Y-55671428D02*
X184092914Y-55766666D01*
X184092914Y-55766666D02*
X184140533Y-55861904D01*
X183854819Y-54433333D02*
X183854819Y-54623809D01*
X183854819Y-54623809D02*
X183902438Y-54719047D01*
X183902438Y-54719047D02*
X183950057Y-54766666D01*
X183950057Y-54766666D02*
X184092914Y-54861904D01*
X184092914Y-54861904D02*
X184283390Y-54909523D01*
X184283390Y-54909523D02*
X184664342Y-54909523D01*
X184664342Y-54909523D02*
X184759580Y-54861904D01*
X184759580Y-54861904D02*
X184807200Y-54814285D01*
X184807200Y-54814285D02*
X184854819Y-54719047D01*
X184854819Y-54719047D02*
X184854819Y-54528571D01*
X184854819Y-54528571D02*
X184807200Y-54433333D01*
X184807200Y-54433333D02*
X184759580Y-54385714D01*
X184759580Y-54385714D02*
X184664342Y-54338095D01*
X184664342Y-54338095D02*
X184426247Y-54338095D01*
X184426247Y-54338095D02*
X184331009Y-54385714D01*
X184331009Y-54385714D02*
X184283390Y-54433333D01*
X184283390Y-54433333D02*
X184235771Y-54528571D01*
X184235771Y-54528571D02*
X184235771Y-54719047D01*
X184235771Y-54719047D02*
X184283390Y-54814285D01*
X184283390Y-54814285D02*
X184331009Y-54861904D01*
X184331009Y-54861904D02*
X184426247Y-54909523D01*
X178233333Y-56159580D02*
X178185714Y-56207200D01*
X178185714Y-56207200D02*
X178042857Y-56254819D01*
X178042857Y-56254819D02*
X177947619Y-56254819D01*
X177947619Y-56254819D02*
X177804762Y-56207200D01*
X177804762Y-56207200D02*
X177709524Y-56111961D01*
X177709524Y-56111961D02*
X177661905Y-56016723D01*
X177661905Y-56016723D02*
X177614286Y-55826247D01*
X177614286Y-55826247D02*
X177614286Y-55683390D01*
X177614286Y-55683390D02*
X177661905Y-55492914D01*
X177661905Y-55492914D02*
X177709524Y-55397676D01*
X177709524Y-55397676D02*
X177804762Y-55302438D01*
X177804762Y-55302438D02*
X177947619Y-55254819D01*
X177947619Y-55254819D02*
X178042857Y-55254819D01*
X178042857Y-55254819D02*
X178185714Y-55302438D01*
X178185714Y-55302438D02*
X178233333Y-55350057D01*
X178566667Y-55254819D02*
X179233333Y-55254819D01*
X179233333Y-55254819D02*
X178804762Y-56254819D01*
X182757142Y-43759580D02*
X182709523Y-43807200D01*
X182709523Y-43807200D02*
X182566666Y-43854819D01*
X182566666Y-43854819D02*
X182471428Y-43854819D01*
X182471428Y-43854819D02*
X182328571Y-43807200D01*
X182328571Y-43807200D02*
X182233333Y-43711961D01*
X182233333Y-43711961D02*
X182185714Y-43616723D01*
X182185714Y-43616723D02*
X182138095Y-43426247D01*
X182138095Y-43426247D02*
X182138095Y-43283390D01*
X182138095Y-43283390D02*
X182185714Y-43092914D01*
X182185714Y-43092914D02*
X182233333Y-42997676D01*
X182233333Y-42997676D02*
X182328571Y-42902438D01*
X182328571Y-42902438D02*
X182471428Y-42854819D01*
X182471428Y-42854819D02*
X182566666Y-42854819D01*
X182566666Y-42854819D02*
X182709523Y-42902438D01*
X182709523Y-42902438D02*
X182757142Y-42950057D01*
X183709523Y-43854819D02*
X183138095Y-43854819D01*
X183423809Y-43854819D02*
X183423809Y-42854819D01*
X183423809Y-42854819D02*
X183328571Y-42997676D01*
X183328571Y-42997676D02*
X183233333Y-43092914D01*
X183233333Y-43092914D02*
X183138095Y-43140533D01*
X184280952Y-43283390D02*
X184185714Y-43235771D01*
X184185714Y-43235771D02*
X184138095Y-43188152D01*
X184138095Y-43188152D02*
X184090476Y-43092914D01*
X184090476Y-43092914D02*
X184090476Y-43045295D01*
X184090476Y-43045295D02*
X184138095Y-42950057D01*
X184138095Y-42950057D02*
X184185714Y-42902438D01*
X184185714Y-42902438D02*
X184280952Y-42854819D01*
X184280952Y-42854819D02*
X184471428Y-42854819D01*
X184471428Y-42854819D02*
X184566666Y-42902438D01*
X184566666Y-42902438D02*
X184614285Y-42950057D01*
X184614285Y-42950057D02*
X184661904Y-43045295D01*
X184661904Y-43045295D02*
X184661904Y-43092914D01*
X184661904Y-43092914D02*
X184614285Y-43188152D01*
X184614285Y-43188152D02*
X184566666Y-43235771D01*
X184566666Y-43235771D02*
X184471428Y-43283390D01*
X184471428Y-43283390D02*
X184280952Y-43283390D01*
X184280952Y-43283390D02*
X184185714Y-43331009D01*
X184185714Y-43331009D02*
X184138095Y-43378628D01*
X184138095Y-43378628D02*
X184090476Y-43473866D01*
X184090476Y-43473866D02*
X184090476Y-43664342D01*
X184090476Y-43664342D02*
X184138095Y-43759580D01*
X184138095Y-43759580D02*
X184185714Y-43807200D01*
X184185714Y-43807200D02*
X184280952Y-43854819D01*
X184280952Y-43854819D02*
X184471428Y-43854819D01*
X184471428Y-43854819D02*
X184566666Y-43807200D01*
X184566666Y-43807200D02*
X184614285Y-43759580D01*
X184614285Y-43759580D02*
X184661904Y-43664342D01*
X184661904Y-43664342D02*
X184661904Y-43473866D01*
X184661904Y-43473866D02*
X184614285Y-43378628D01*
X184614285Y-43378628D02*
X184566666Y-43331009D01*
X184566666Y-43331009D02*
X184471428Y-43283390D01*
X132254819Y-65661904D02*
X132254819Y-65090476D01*
X133254819Y-65376190D02*
X132254819Y-65376190D01*
X133254819Y-64757142D02*
X132254819Y-64757142D01*
X132254819Y-64757142D02*
X132254819Y-64376190D01*
X132254819Y-64376190D02*
X132302438Y-64280952D01*
X132302438Y-64280952D02*
X132350057Y-64233333D01*
X132350057Y-64233333D02*
X132445295Y-64185714D01*
X132445295Y-64185714D02*
X132588152Y-64185714D01*
X132588152Y-64185714D02*
X132683390Y-64233333D01*
X132683390Y-64233333D02*
X132731009Y-64280952D01*
X132731009Y-64280952D02*
X132778628Y-64376190D01*
X132778628Y-64376190D02*
X132778628Y-64757142D01*
X132350057Y-63804761D02*
X132302438Y-63757142D01*
X132302438Y-63757142D02*
X132254819Y-63661904D01*
X132254819Y-63661904D02*
X132254819Y-63423809D01*
X132254819Y-63423809D02*
X132302438Y-63328571D01*
X132302438Y-63328571D02*
X132350057Y-63280952D01*
X132350057Y-63280952D02*
X132445295Y-63233333D01*
X132445295Y-63233333D02*
X132540533Y-63233333D01*
X132540533Y-63233333D02*
X132683390Y-63280952D01*
X132683390Y-63280952D02*
X133254819Y-63852380D01*
X133254819Y-63852380D02*
X133254819Y-63233333D01*
X138254819Y-58422857D02*
X137778628Y-58756190D01*
X138254819Y-58994285D02*
X137254819Y-58994285D01*
X137254819Y-58994285D02*
X137254819Y-58613333D01*
X137254819Y-58613333D02*
X137302438Y-58518095D01*
X137302438Y-58518095D02*
X137350057Y-58470476D01*
X137350057Y-58470476D02*
X137445295Y-58422857D01*
X137445295Y-58422857D02*
X137588152Y-58422857D01*
X137588152Y-58422857D02*
X137683390Y-58470476D01*
X137683390Y-58470476D02*
X137731009Y-58518095D01*
X137731009Y-58518095D02*
X137778628Y-58613333D01*
X137778628Y-58613333D02*
X137778628Y-58994285D01*
X138254819Y-57470476D02*
X138254819Y-58041904D01*
X138254819Y-57756190D02*
X137254819Y-57756190D01*
X137254819Y-57756190D02*
X137397676Y-57851428D01*
X137397676Y-57851428D02*
X137492914Y-57946666D01*
X137492914Y-57946666D02*
X137540533Y-58041904D01*
X137254819Y-57137142D02*
X137254819Y-56518095D01*
X137254819Y-56518095D02*
X137635771Y-56851428D01*
X137635771Y-56851428D02*
X137635771Y-56708571D01*
X137635771Y-56708571D02*
X137683390Y-56613333D01*
X137683390Y-56613333D02*
X137731009Y-56565714D01*
X137731009Y-56565714D02*
X137826247Y-56518095D01*
X137826247Y-56518095D02*
X138064342Y-56518095D01*
X138064342Y-56518095D02*
X138159580Y-56565714D01*
X138159580Y-56565714D02*
X138207200Y-56613333D01*
X138207200Y-56613333D02*
X138254819Y-56708571D01*
X138254819Y-56708571D02*
X138254819Y-56994285D01*
X138254819Y-56994285D02*
X138207200Y-57089523D01*
X138207200Y-57089523D02*
X138159580Y-57137142D01*
X191854819Y-60533333D02*
X192569104Y-60533333D01*
X192569104Y-60533333D02*
X192711961Y-60580952D01*
X192711961Y-60580952D02*
X192807200Y-60676190D01*
X192807200Y-60676190D02*
X192854819Y-60819047D01*
X192854819Y-60819047D02*
X192854819Y-60914285D01*
X192854819Y-60009523D02*
X192854819Y-59819047D01*
X192854819Y-59819047D02*
X192807200Y-59723809D01*
X192807200Y-59723809D02*
X192759580Y-59676190D01*
X192759580Y-59676190D02*
X192616723Y-59580952D01*
X192616723Y-59580952D02*
X192426247Y-59533333D01*
X192426247Y-59533333D02*
X192045295Y-59533333D01*
X192045295Y-59533333D02*
X191950057Y-59580952D01*
X191950057Y-59580952D02*
X191902438Y-59628571D01*
X191902438Y-59628571D02*
X191854819Y-59723809D01*
X191854819Y-59723809D02*
X191854819Y-59914285D01*
X191854819Y-59914285D02*
X191902438Y-60009523D01*
X191902438Y-60009523D02*
X191950057Y-60057142D01*
X191950057Y-60057142D02*
X192045295Y-60104761D01*
X192045295Y-60104761D02*
X192283390Y-60104761D01*
X192283390Y-60104761D02*
X192378628Y-60057142D01*
X192378628Y-60057142D02*
X192426247Y-60009523D01*
X192426247Y-60009523D02*
X192473866Y-59914285D01*
X192473866Y-59914285D02*
X192473866Y-59723809D01*
X192473866Y-59723809D02*
X192426247Y-59628571D01*
X192426247Y-59628571D02*
X192378628Y-59580952D01*
X192378628Y-59580952D02*
X192283390Y-59533333D01*
X160559580Y-47042857D02*
X160607200Y-47090476D01*
X160607200Y-47090476D02*
X160654819Y-47233333D01*
X160654819Y-47233333D02*
X160654819Y-47328571D01*
X160654819Y-47328571D02*
X160607200Y-47471428D01*
X160607200Y-47471428D02*
X160511961Y-47566666D01*
X160511961Y-47566666D02*
X160416723Y-47614285D01*
X160416723Y-47614285D02*
X160226247Y-47661904D01*
X160226247Y-47661904D02*
X160083390Y-47661904D01*
X160083390Y-47661904D02*
X159892914Y-47614285D01*
X159892914Y-47614285D02*
X159797676Y-47566666D01*
X159797676Y-47566666D02*
X159702438Y-47471428D01*
X159702438Y-47471428D02*
X159654819Y-47328571D01*
X159654819Y-47328571D02*
X159654819Y-47233333D01*
X159654819Y-47233333D02*
X159702438Y-47090476D01*
X159702438Y-47090476D02*
X159750057Y-47042857D01*
X159750057Y-46661904D02*
X159702438Y-46614285D01*
X159702438Y-46614285D02*
X159654819Y-46519047D01*
X159654819Y-46519047D02*
X159654819Y-46280952D01*
X159654819Y-46280952D02*
X159702438Y-46185714D01*
X159702438Y-46185714D02*
X159750057Y-46138095D01*
X159750057Y-46138095D02*
X159845295Y-46090476D01*
X159845295Y-46090476D02*
X159940533Y-46090476D01*
X159940533Y-46090476D02*
X160083390Y-46138095D01*
X160083390Y-46138095D02*
X160654819Y-46709523D01*
X160654819Y-46709523D02*
X160654819Y-46090476D01*
X159750057Y-45709523D02*
X159702438Y-45661904D01*
X159702438Y-45661904D02*
X159654819Y-45566666D01*
X159654819Y-45566666D02*
X159654819Y-45328571D01*
X159654819Y-45328571D02*
X159702438Y-45233333D01*
X159702438Y-45233333D02*
X159750057Y-45185714D01*
X159750057Y-45185714D02*
X159845295Y-45138095D01*
X159845295Y-45138095D02*
X159940533Y-45138095D01*
X159940533Y-45138095D02*
X160083390Y-45185714D01*
X160083390Y-45185714D02*
X160654819Y-45757142D01*
X160654819Y-45757142D02*
X160654819Y-45138095D01*
X192054819Y-36809523D02*
X192769104Y-36809523D01*
X192769104Y-36809523D02*
X192911961Y-36857142D01*
X192911961Y-36857142D02*
X193007200Y-36952380D01*
X193007200Y-36952380D02*
X193054819Y-37095237D01*
X193054819Y-37095237D02*
X193054819Y-37190475D01*
X193054819Y-35809523D02*
X193054819Y-36380951D01*
X193054819Y-36095237D02*
X192054819Y-36095237D01*
X192054819Y-36095237D02*
X192197676Y-36190475D01*
X192197676Y-36190475D02*
X192292914Y-36285713D01*
X192292914Y-36285713D02*
X192340533Y-36380951D01*
X193054819Y-34857142D02*
X193054819Y-35428570D01*
X193054819Y-35142856D02*
X192054819Y-35142856D01*
X192054819Y-35142856D02*
X192197676Y-35238094D01*
X192197676Y-35238094D02*
X192292914Y-35333332D01*
X192292914Y-35333332D02*
X192340533Y-35428570D01*
X185557142Y-37159580D02*
X185509523Y-37207200D01*
X185509523Y-37207200D02*
X185366666Y-37254819D01*
X185366666Y-37254819D02*
X185271428Y-37254819D01*
X185271428Y-37254819D02*
X185128571Y-37207200D01*
X185128571Y-37207200D02*
X185033333Y-37111961D01*
X185033333Y-37111961D02*
X184985714Y-37016723D01*
X184985714Y-37016723D02*
X184938095Y-36826247D01*
X184938095Y-36826247D02*
X184938095Y-36683390D01*
X184938095Y-36683390D02*
X184985714Y-36492914D01*
X184985714Y-36492914D02*
X185033333Y-36397676D01*
X185033333Y-36397676D02*
X185128571Y-36302438D01*
X185128571Y-36302438D02*
X185271428Y-36254819D01*
X185271428Y-36254819D02*
X185366666Y-36254819D01*
X185366666Y-36254819D02*
X185509523Y-36302438D01*
X185509523Y-36302438D02*
X185557142Y-36350057D01*
X186509523Y-37254819D02*
X185938095Y-37254819D01*
X186223809Y-37254819D02*
X186223809Y-36254819D01*
X186223809Y-36254819D02*
X186128571Y-36397676D01*
X186128571Y-36397676D02*
X186033333Y-36492914D01*
X186033333Y-36492914D02*
X185938095Y-36540533D01*
X187461904Y-37254819D02*
X186890476Y-37254819D01*
X187176190Y-37254819D02*
X187176190Y-36254819D01*
X187176190Y-36254819D02*
X187080952Y-36397676D01*
X187080952Y-36397676D02*
X186985714Y-36492914D01*
X186985714Y-36492914D02*
X186890476Y-36540533D01*
X175119580Y-39522857D02*
X175167200Y-39570476D01*
X175167200Y-39570476D02*
X175214819Y-39713333D01*
X175214819Y-39713333D02*
X175214819Y-39808571D01*
X175214819Y-39808571D02*
X175167200Y-39951428D01*
X175167200Y-39951428D02*
X175071961Y-40046666D01*
X175071961Y-40046666D02*
X174976723Y-40094285D01*
X174976723Y-40094285D02*
X174786247Y-40141904D01*
X174786247Y-40141904D02*
X174643390Y-40141904D01*
X174643390Y-40141904D02*
X174452914Y-40094285D01*
X174452914Y-40094285D02*
X174357676Y-40046666D01*
X174357676Y-40046666D02*
X174262438Y-39951428D01*
X174262438Y-39951428D02*
X174214819Y-39808571D01*
X174214819Y-39808571D02*
X174214819Y-39713333D01*
X174214819Y-39713333D02*
X174262438Y-39570476D01*
X174262438Y-39570476D02*
X174310057Y-39522857D01*
X175214819Y-38570476D02*
X175214819Y-39141904D01*
X175214819Y-38856190D02*
X174214819Y-38856190D01*
X174214819Y-38856190D02*
X174357676Y-38951428D01*
X174357676Y-38951428D02*
X174452914Y-39046666D01*
X174452914Y-39046666D02*
X174500533Y-39141904D01*
X174214819Y-37951428D02*
X174214819Y-37856190D01*
X174214819Y-37856190D02*
X174262438Y-37760952D01*
X174262438Y-37760952D02*
X174310057Y-37713333D01*
X174310057Y-37713333D02*
X174405295Y-37665714D01*
X174405295Y-37665714D02*
X174595771Y-37618095D01*
X174595771Y-37618095D02*
X174833866Y-37618095D01*
X174833866Y-37618095D02*
X175024342Y-37665714D01*
X175024342Y-37665714D02*
X175119580Y-37713333D01*
X175119580Y-37713333D02*
X175167200Y-37760952D01*
X175167200Y-37760952D02*
X175214819Y-37856190D01*
X175214819Y-37856190D02*
X175214819Y-37951428D01*
X175214819Y-37951428D02*
X175167200Y-38046666D01*
X175167200Y-38046666D02*
X175119580Y-38094285D01*
X175119580Y-38094285D02*
X175024342Y-38141904D01*
X175024342Y-38141904D02*
X174833866Y-38189523D01*
X174833866Y-38189523D02*
X174595771Y-38189523D01*
X174595771Y-38189523D02*
X174405295Y-38141904D01*
X174405295Y-38141904D02*
X174310057Y-38094285D01*
X174310057Y-38094285D02*
X174262438Y-38046666D01*
X174262438Y-38046666D02*
X174214819Y-37951428D01*
X177238095Y-36854819D02*
X177238095Y-37664342D01*
X177238095Y-37664342D02*
X177285714Y-37759580D01*
X177285714Y-37759580D02*
X177333333Y-37807200D01*
X177333333Y-37807200D02*
X177428571Y-37854819D01*
X177428571Y-37854819D02*
X177619047Y-37854819D01*
X177619047Y-37854819D02*
X177714285Y-37807200D01*
X177714285Y-37807200D02*
X177761904Y-37759580D01*
X177761904Y-37759580D02*
X177809523Y-37664342D01*
X177809523Y-37664342D02*
X177809523Y-36854819D01*
X178238095Y-36950057D02*
X178285714Y-36902438D01*
X178285714Y-36902438D02*
X178380952Y-36854819D01*
X178380952Y-36854819D02*
X178619047Y-36854819D01*
X178619047Y-36854819D02*
X178714285Y-36902438D01*
X178714285Y-36902438D02*
X178761904Y-36950057D01*
X178761904Y-36950057D02*
X178809523Y-37045295D01*
X178809523Y-37045295D02*
X178809523Y-37140533D01*
X178809523Y-37140533D02*
X178761904Y-37283390D01*
X178761904Y-37283390D02*
X178190476Y-37854819D01*
X178190476Y-37854819D02*
X178809523Y-37854819D01*
X180233333Y-36254819D02*
X179757143Y-36254819D01*
X179757143Y-36254819D02*
X179757143Y-35254819D01*
X180519048Y-35350057D02*
X180566667Y-35302438D01*
X180566667Y-35302438D02*
X180661905Y-35254819D01*
X180661905Y-35254819D02*
X180900000Y-35254819D01*
X180900000Y-35254819D02*
X180995238Y-35302438D01*
X180995238Y-35302438D02*
X181042857Y-35350057D01*
X181042857Y-35350057D02*
X181090476Y-35445295D01*
X181090476Y-35445295D02*
X181090476Y-35540533D01*
X181090476Y-35540533D02*
X181042857Y-35683390D01*
X181042857Y-35683390D02*
X180471429Y-36254819D01*
X180471429Y-36254819D02*
X181090476Y-36254819D01*
X145447142Y-53024819D02*
X145113809Y-52548628D01*
X144875714Y-53024819D02*
X144875714Y-52024819D01*
X144875714Y-52024819D02*
X145256666Y-52024819D01*
X145256666Y-52024819D02*
X145351904Y-52072438D01*
X145351904Y-52072438D02*
X145399523Y-52120057D01*
X145399523Y-52120057D02*
X145447142Y-52215295D01*
X145447142Y-52215295D02*
X145447142Y-52358152D01*
X145447142Y-52358152D02*
X145399523Y-52453390D01*
X145399523Y-52453390D02*
X145351904Y-52501009D01*
X145351904Y-52501009D02*
X145256666Y-52548628D01*
X145256666Y-52548628D02*
X144875714Y-52548628D01*
X146399523Y-53024819D02*
X145828095Y-53024819D01*
X146113809Y-53024819D02*
X146113809Y-52024819D01*
X146113809Y-52024819D02*
X146018571Y-52167676D01*
X146018571Y-52167676D02*
X145923333Y-52262914D01*
X145923333Y-52262914D02*
X145828095Y-52310533D01*
X147351904Y-53024819D02*
X146780476Y-53024819D01*
X147066190Y-53024819D02*
X147066190Y-52024819D01*
X147066190Y-52024819D02*
X146970952Y-52167676D01*
X146970952Y-52167676D02*
X146875714Y-52262914D01*
X146875714Y-52262914D02*
X146780476Y-52310533D01*
X139654819Y-46442857D02*
X139178628Y-46776190D01*
X139654819Y-47014285D02*
X138654819Y-47014285D01*
X138654819Y-47014285D02*
X138654819Y-46633333D01*
X138654819Y-46633333D02*
X138702438Y-46538095D01*
X138702438Y-46538095D02*
X138750057Y-46490476D01*
X138750057Y-46490476D02*
X138845295Y-46442857D01*
X138845295Y-46442857D02*
X138988152Y-46442857D01*
X138988152Y-46442857D02*
X139083390Y-46490476D01*
X139083390Y-46490476D02*
X139131009Y-46538095D01*
X139131009Y-46538095D02*
X139178628Y-46633333D01*
X139178628Y-46633333D02*
X139178628Y-47014285D01*
X139654819Y-45490476D02*
X139654819Y-46061904D01*
X139654819Y-45776190D02*
X138654819Y-45776190D01*
X138654819Y-45776190D02*
X138797676Y-45871428D01*
X138797676Y-45871428D02*
X138892914Y-45966666D01*
X138892914Y-45966666D02*
X138940533Y-46061904D01*
X138654819Y-44871428D02*
X138654819Y-44776190D01*
X138654819Y-44776190D02*
X138702438Y-44680952D01*
X138702438Y-44680952D02*
X138750057Y-44633333D01*
X138750057Y-44633333D02*
X138845295Y-44585714D01*
X138845295Y-44585714D02*
X139035771Y-44538095D01*
X139035771Y-44538095D02*
X139273866Y-44538095D01*
X139273866Y-44538095D02*
X139464342Y-44585714D01*
X139464342Y-44585714D02*
X139559580Y-44633333D01*
X139559580Y-44633333D02*
X139607200Y-44680952D01*
X139607200Y-44680952D02*
X139654819Y-44776190D01*
X139654819Y-44776190D02*
X139654819Y-44871428D01*
X139654819Y-44871428D02*
X139607200Y-44966666D01*
X139607200Y-44966666D02*
X139559580Y-45014285D01*
X139559580Y-45014285D02*
X139464342Y-45061904D01*
X139464342Y-45061904D02*
X139273866Y-45109523D01*
X139273866Y-45109523D02*
X139035771Y-45109523D01*
X139035771Y-45109523D02*
X138845295Y-45061904D01*
X138845295Y-45061904D02*
X138750057Y-45014285D01*
X138750057Y-45014285D02*
X138702438Y-44966666D01*
X138702438Y-44966666D02*
X138654819Y-44871428D01*
X170484819Y-39166666D02*
X170008628Y-39499999D01*
X170484819Y-39738094D02*
X169484819Y-39738094D01*
X169484819Y-39738094D02*
X169484819Y-39357142D01*
X169484819Y-39357142D02*
X169532438Y-39261904D01*
X169532438Y-39261904D02*
X169580057Y-39214285D01*
X169580057Y-39214285D02*
X169675295Y-39166666D01*
X169675295Y-39166666D02*
X169818152Y-39166666D01*
X169818152Y-39166666D02*
X169913390Y-39214285D01*
X169913390Y-39214285D02*
X169961009Y-39261904D01*
X169961009Y-39261904D02*
X170008628Y-39357142D01*
X170008628Y-39357142D02*
X170008628Y-39738094D01*
X170484819Y-38690475D02*
X170484819Y-38499999D01*
X170484819Y-38499999D02*
X170437200Y-38404761D01*
X170437200Y-38404761D02*
X170389580Y-38357142D01*
X170389580Y-38357142D02*
X170246723Y-38261904D01*
X170246723Y-38261904D02*
X170056247Y-38214285D01*
X170056247Y-38214285D02*
X169675295Y-38214285D01*
X169675295Y-38214285D02*
X169580057Y-38261904D01*
X169580057Y-38261904D02*
X169532438Y-38309523D01*
X169532438Y-38309523D02*
X169484819Y-38404761D01*
X169484819Y-38404761D02*
X169484819Y-38595237D01*
X169484819Y-38595237D02*
X169532438Y-38690475D01*
X169532438Y-38690475D02*
X169580057Y-38738094D01*
X169580057Y-38738094D02*
X169675295Y-38785713D01*
X169675295Y-38785713D02*
X169913390Y-38785713D01*
X169913390Y-38785713D02*
X170008628Y-38738094D01*
X170008628Y-38738094D02*
X170056247Y-38690475D01*
X170056247Y-38690475D02*
X170103866Y-38595237D01*
X170103866Y-38595237D02*
X170103866Y-38404761D01*
X170103866Y-38404761D02*
X170056247Y-38309523D01*
X170056247Y-38309523D02*
X170008628Y-38261904D01*
X170008628Y-38261904D02*
X169913390Y-38214285D01*
X170484819Y-41076666D02*
X170008628Y-41409999D01*
X170484819Y-41648094D02*
X169484819Y-41648094D01*
X169484819Y-41648094D02*
X169484819Y-41267142D01*
X169484819Y-41267142D02*
X169532438Y-41171904D01*
X169532438Y-41171904D02*
X169580057Y-41124285D01*
X169580057Y-41124285D02*
X169675295Y-41076666D01*
X169675295Y-41076666D02*
X169818152Y-41076666D01*
X169818152Y-41076666D02*
X169913390Y-41124285D01*
X169913390Y-41124285D02*
X169961009Y-41171904D01*
X169961009Y-41171904D02*
X170008628Y-41267142D01*
X170008628Y-41267142D02*
X170008628Y-41648094D01*
X169913390Y-40505237D02*
X169865771Y-40600475D01*
X169865771Y-40600475D02*
X169818152Y-40648094D01*
X169818152Y-40648094D02*
X169722914Y-40695713D01*
X169722914Y-40695713D02*
X169675295Y-40695713D01*
X169675295Y-40695713D02*
X169580057Y-40648094D01*
X169580057Y-40648094D02*
X169532438Y-40600475D01*
X169532438Y-40600475D02*
X169484819Y-40505237D01*
X169484819Y-40505237D02*
X169484819Y-40314761D01*
X169484819Y-40314761D02*
X169532438Y-40219523D01*
X169532438Y-40219523D02*
X169580057Y-40171904D01*
X169580057Y-40171904D02*
X169675295Y-40124285D01*
X169675295Y-40124285D02*
X169722914Y-40124285D01*
X169722914Y-40124285D02*
X169818152Y-40171904D01*
X169818152Y-40171904D02*
X169865771Y-40219523D01*
X169865771Y-40219523D02*
X169913390Y-40314761D01*
X169913390Y-40314761D02*
X169913390Y-40505237D01*
X169913390Y-40505237D02*
X169961009Y-40600475D01*
X169961009Y-40600475D02*
X170008628Y-40648094D01*
X170008628Y-40648094D02*
X170103866Y-40695713D01*
X170103866Y-40695713D02*
X170294342Y-40695713D01*
X170294342Y-40695713D02*
X170389580Y-40648094D01*
X170389580Y-40648094D02*
X170437200Y-40600475D01*
X170437200Y-40600475D02*
X170484819Y-40505237D01*
X170484819Y-40505237D02*
X170484819Y-40314761D01*
X170484819Y-40314761D02*
X170437200Y-40219523D01*
X170437200Y-40219523D02*
X170389580Y-40171904D01*
X170389580Y-40171904D02*
X170294342Y-40124285D01*
X170294342Y-40124285D02*
X170103866Y-40124285D01*
X170103866Y-40124285D02*
X170008628Y-40171904D01*
X170008628Y-40171904D02*
X169961009Y-40219523D01*
X169961009Y-40219523D02*
X169913390Y-40314761D01*
X178454819Y-43966666D02*
X177978628Y-44299999D01*
X178454819Y-44538094D02*
X177454819Y-44538094D01*
X177454819Y-44538094D02*
X177454819Y-44157142D01*
X177454819Y-44157142D02*
X177502438Y-44061904D01*
X177502438Y-44061904D02*
X177550057Y-44014285D01*
X177550057Y-44014285D02*
X177645295Y-43966666D01*
X177645295Y-43966666D02*
X177788152Y-43966666D01*
X177788152Y-43966666D02*
X177883390Y-44014285D01*
X177883390Y-44014285D02*
X177931009Y-44061904D01*
X177931009Y-44061904D02*
X177978628Y-44157142D01*
X177978628Y-44157142D02*
X177978628Y-44538094D01*
X177454819Y-43633332D02*
X177454819Y-42966666D01*
X177454819Y-42966666D02*
X178454819Y-43395237D01*
X177033333Y-48854819D02*
X176700000Y-48378628D01*
X176461905Y-48854819D02*
X176461905Y-47854819D01*
X176461905Y-47854819D02*
X176842857Y-47854819D01*
X176842857Y-47854819D02*
X176938095Y-47902438D01*
X176938095Y-47902438D02*
X176985714Y-47950057D01*
X176985714Y-47950057D02*
X177033333Y-48045295D01*
X177033333Y-48045295D02*
X177033333Y-48188152D01*
X177033333Y-48188152D02*
X176985714Y-48283390D01*
X176985714Y-48283390D02*
X176938095Y-48331009D01*
X176938095Y-48331009D02*
X176842857Y-48378628D01*
X176842857Y-48378628D02*
X176461905Y-48378628D01*
X177890476Y-47854819D02*
X177700000Y-47854819D01*
X177700000Y-47854819D02*
X177604762Y-47902438D01*
X177604762Y-47902438D02*
X177557143Y-47950057D01*
X177557143Y-47950057D02*
X177461905Y-48092914D01*
X177461905Y-48092914D02*
X177414286Y-48283390D01*
X177414286Y-48283390D02*
X177414286Y-48664342D01*
X177414286Y-48664342D02*
X177461905Y-48759580D01*
X177461905Y-48759580D02*
X177509524Y-48807200D01*
X177509524Y-48807200D02*
X177604762Y-48854819D01*
X177604762Y-48854819D02*
X177795238Y-48854819D01*
X177795238Y-48854819D02*
X177890476Y-48807200D01*
X177890476Y-48807200D02*
X177938095Y-48759580D01*
X177938095Y-48759580D02*
X177985714Y-48664342D01*
X177985714Y-48664342D02*
X177985714Y-48426247D01*
X177985714Y-48426247D02*
X177938095Y-48331009D01*
X177938095Y-48331009D02*
X177890476Y-48283390D01*
X177890476Y-48283390D02*
X177795238Y-48235771D01*
X177795238Y-48235771D02*
X177604762Y-48235771D01*
X177604762Y-48235771D02*
X177509524Y-48283390D01*
X177509524Y-48283390D02*
X177461905Y-48331009D01*
X177461905Y-48331009D02*
X177414286Y-48426247D01*
X162854819Y-50366666D02*
X162378628Y-50699999D01*
X162854819Y-50938094D02*
X161854819Y-50938094D01*
X161854819Y-50938094D02*
X161854819Y-50557142D01*
X161854819Y-50557142D02*
X161902438Y-50461904D01*
X161902438Y-50461904D02*
X161950057Y-50414285D01*
X161950057Y-50414285D02*
X162045295Y-50366666D01*
X162045295Y-50366666D02*
X162188152Y-50366666D01*
X162188152Y-50366666D02*
X162283390Y-50414285D01*
X162283390Y-50414285D02*
X162331009Y-50461904D01*
X162331009Y-50461904D02*
X162378628Y-50557142D01*
X162378628Y-50557142D02*
X162378628Y-50938094D01*
X161854819Y-49461904D02*
X161854819Y-49938094D01*
X161854819Y-49938094D02*
X162331009Y-49985713D01*
X162331009Y-49985713D02*
X162283390Y-49938094D01*
X162283390Y-49938094D02*
X162235771Y-49842856D01*
X162235771Y-49842856D02*
X162235771Y-49604761D01*
X162235771Y-49604761D02*
X162283390Y-49509523D01*
X162283390Y-49509523D02*
X162331009Y-49461904D01*
X162331009Y-49461904D02*
X162426247Y-49414285D01*
X162426247Y-49414285D02*
X162664342Y-49414285D01*
X162664342Y-49414285D02*
X162759580Y-49461904D01*
X162759580Y-49461904D02*
X162807200Y-49509523D01*
X162807200Y-49509523D02*
X162854819Y-49604761D01*
X162854819Y-49604761D02*
X162854819Y-49842856D01*
X162854819Y-49842856D02*
X162807200Y-49938094D01*
X162807200Y-49938094D02*
X162759580Y-49985713D01*
X173254819Y-43966666D02*
X172778628Y-44299999D01*
X173254819Y-44538094D02*
X172254819Y-44538094D01*
X172254819Y-44538094D02*
X172254819Y-44157142D01*
X172254819Y-44157142D02*
X172302438Y-44061904D01*
X172302438Y-44061904D02*
X172350057Y-44014285D01*
X172350057Y-44014285D02*
X172445295Y-43966666D01*
X172445295Y-43966666D02*
X172588152Y-43966666D01*
X172588152Y-43966666D02*
X172683390Y-44014285D01*
X172683390Y-44014285D02*
X172731009Y-44061904D01*
X172731009Y-44061904D02*
X172778628Y-44157142D01*
X172778628Y-44157142D02*
X172778628Y-44538094D01*
X172588152Y-43109523D02*
X173254819Y-43109523D01*
X172207200Y-43347618D02*
X172921485Y-43585713D01*
X172921485Y-43585713D02*
X172921485Y-42966666D01*
X165054819Y-45966666D02*
X164578628Y-46299999D01*
X165054819Y-46538094D02*
X164054819Y-46538094D01*
X164054819Y-46538094D02*
X164054819Y-46157142D01*
X164054819Y-46157142D02*
X164102438Y-46061904D01*
X164102438Y-46061904D02*
X164150057Y-46014285D01*
X164150057Y-46014285D02*
X164245295Y-45966666D01*
X164245295Y-45966666D02*
X164388152Y-45966666D01*
X164388152Y-45966666D02*
X164483390Y-46014285D01*
X164483390Y-46014285D02*
X164531009Y-46061904D01*
X164531009Y-46061904D02*
X164578628Y-46157142D01*
X164578628Y-46157142D02*
X164578628Y-46538094D01*
X164054819Y-45633332D02*
X164054819Y-45014285D01*
X164054819Y-45014285D02*
X164435771Y-45347618D01*
X164435771Y-45347618D02*
X164435771Y-45204761D01*
X164435771Y-45204761D02*
X164483390Y-45109523D01*
X164483390Y-45109523D02*
X164531009Y-45061904D01*
X164531009Y-45061904D02*
X164626247Y-45014285D01*
X164626247Y-45014285D02*
X164864342Y-45014285D01*
X164864342Y-45014285D02*
X164959580Y-45061904D01*
X164959580Y-45061904D02*
X165007200Y-45109523D01*
X165007200Y-45109523D02*
X165054819Y-45204761D01*
X165054819Y-45204761D02*
X165054819Y-45490475D01*
X165054819Y-45490475D02*
X165007200Y-45585713D01*
X165007200Y-45585713D02*
X164959580Y-45633332D01*
X175454819Y-43966666D02*
X174978628Y-44299999D01*
X175454819Y-44538094D02*
X174454819Y-44538094D01*
X174454819Y-44538094D02*
X174454819Y-44157142D01*
X174454819Y-44157142D02*
X174502438Y-44061904D01*
X174502438Y-44061904D02*
X174550057Y-44014285D01*
X174550057Y-44014285D02*
X174645295Y-43966666D01*
X174645295Y-43966666D02*
X174788152Y-43966666D01*
X174788152Y-43966666D02*
X174883390Y-44014285D01*
X174883390Y-44014285D02*
X174931009Y-44061904D01*
X174931009Y-44061904D02*
X174978628Y-44157142D01*
X174978628Y-44157142D02*
X174978628Y-44538094D01*
X174550057Y-43585713D02*
X174502438Y-43538094D01*
X174502438Y-43538094D02*
X174454819Y-43442856D01*
X174454819Y-43442856D02*
X174454819Y-43204761D01*
X174454819Y-43204761D02*
X174502438Y-43109523D01*
X174502438Y-43109523D02*
X174550057Y-43061904D01*
X174550057Y-43061904D02*
X174645295Y-43014285D01*
X174645295Y-43014285D02*
X174740533Y-43014285D01*
X174740533Y-43014285D02*
X174883390Y-43061904D01*
X174883390Y-43061904D02*
X175454819Y-43633332D01*
X175454819Y-43633332D02*
X175454819Y-43014285D01*
X171854819Y-45166666D02*
X171378628Y-45499999D01*
X171854819Y-45738094D02*
X170854819Y-45738094D01*
X170854819Y-45738094D02*
X170854819Y-45357142D01*
X170854819Y-45357142D02*
X170902438Y-45261904D01*
X170902438Y-45261904D02*
X170950057Y-45214285D01*
X170950057Y-45214285D02*
X171045295Y-45166666D01*
X171045295Y-45166666D02*
X171188152Y-45166666D01*
X171188152Y-45166666D02*
X171283390Y-45214285D01*
X171283390Y-45214285D02*
X171331009Y-45261904D01*
X171331009Y-45261904D02*
X171378628Y-45357142D01*
X171378628Y-45357142D02*
X171378628Y-45738094D01*
X171854819Y-44214285D02*
X171854819Y-44785713D01*
X171854819Y-44499999D02*
X170854819Y-44499999D01*
X170854819Y-44499999D02*
X170997676Y-44595237D01*
X170997676Y-44595237D02*
X171092914Y-44690475D01*
X171092914Y-44690475D02*
X171140533Y-44785713D01*
X149157142Y-35359580D02*
X149109523Y-35407200D01*
X149109523Y-35407200D02*
X148966666Y-35454819D01*
X148966666Y-35454819D02*
X148871428Y-35454819D01*
X148871428Y-35454819D02*
X148728571Y-35407200D01*
X148728571Y-35407200D02*
X148633333Y-35311961D01*
X148633333Y-35311961D02*
X148585714Y-35216723D01*
X148585714Y-35216723D02*
X148538095Y-35026247D01*
X148538095Y-35026247D02*
X148538095Y-34883390D01*
X148538095Y-34883390D02*
X148585714Y-34692914D01*
X148585714Y-34692914D02*
X148633333Y-34597676D01*
X148633333Y-34597676D02*
X148728571Y-34502438D01*
X148728571Y-34502438D02*
X148871428Y-34454819D01*
X148871428Y-34454819D02*
X148966666Y-34454819D01*
X148966666Y-34454819D02*
X149109523Y-34502438D01*
X149109523Y-34502438D02*
X149157142Y-34550057D01*
X149538095Y-34550057D02*
X149585714Y-34502438D01*
X149585714Y-34502438D02*
X149680952Y-34454819D01*
X149680952Y-34454819D02*
X149919047Y-34454819D01*
X149919047Y-34454819D02*
X150014285Y-34502438D01*
X150014285Y-34502438D02*
X150061904Y-34550057D01*
X150061904Y-34550057D02*
X150109523Y-34645295D01*
X150109523Y-34645295D02*
X150109523Y-34740533D01*
X150109523Y-34740533D02*
X150061904Y-34883390D01*
X150061904Y-34883390D02*
X149490476Y-35454819D01*
X149490476Y-35454819D02*
X150109523Y-35454819D01*
X150966666Y-34454819D02*
X150776190Y-34454819D01*
X150776190Y-34454819D02*
X150680952Y-34502438D01*
X150680952Y-34502438D02*
X150633333Y-34550057D01*
X150633333Y-34550057D02*
X150538095Y-34692914D01*
X150538095Y-34692914D02*
X150490476Y-34883390D01*
X150490476Y-34883390D02*
X150490476Y-35264342D01*
X150490476Y-35264342D02*
X150538095Y-35359580D01*
X150538095Y-35359580D02*
X150585714Y-35407200D01*
X150585714Y-35407200D02*
X150680952Y-35454819D01*
X150680952Y-35454819D02*
X150871428Y-35454819D01*
X150871428Y-35454819D02*
X150966666Y-35407200D01*
X150966666Y-35407200D02*
X151014285Y-35359580D01*
X151014285Y-35359580D02*
X151061904Y-35264342D01*
X151061904Y-35264342D02*
X151061904Y-35026247D01*
X151061904Y-35026247D02*
X151014285Y-34931009D01*
X151014285Y-34931009D02*
X150966666Y-34883390D01*
X150966666Y-34883390D02*
X150871428Y-34835771D01*
X150871428Y-34835771D02*
X150680952Y-34835771D01*
X150680952Y-34835771D02*
X150585714Y-34883390D01*
X150585714Y-34883390D02*
X150538095Y-34931009D01*
X150538095Y-34931009D02*
X150490476Y-35026247D01*
X144957142Y-46159580D02*
X144909523Y-46207200D01*
X144909523Y-46207200D02*
X144766666Y-46254819D01*
X144766666Y-46254819D02*
X144671428Y-46254819D01*
X144671428Y-46254819D02*
X144528571Y-46207200D01*
X144528571Y-46207200D02*
X144433333Y-46111961D01*
X144433333Y-46111961D02*
X144385714Y-46016723D01*
X144385714Y-46016723D02*
X144338095Y-45826247D01*
X144338095Y-45826247D02*
X144338095Y-45683390D01*
X144338095Y-45683390D02*
X144385714Y-45492914D01*
X144385714Y-45492914D02*
X144433333Y-45397676D01*
X144433333Y-45397676D02*
X144528571Y-45302438D01*
X144528571Y-45302438D02*
X144671428Y-45254819D01*
X144671428Y-45254819D02*
X144766666Y-45254819D01*
X144766666Y-45254819D02*
X144909523Y-45302438D01*
X144909523Y-45302438D02*
X144957142Y-45350057D01*
X145338095Y-45350057D02*
X145385714Y-45302438D01*
X145385714Y-45302438D02*
X145480952Y-45254819D01*
X145480952Y-45254819D02*
X145719047Y-45254819D01*
X145719047Y-45254819D02*
X145814285Y-45302438D01*
X145814285Y-45302438D02*
X145861904Y-45350057D01*
X145861904Y-45350057D02*
X145909523Y-45445295D01*
X145909523Y-45445295D02*
X145909523Y-45540533D01*
X145909523Y-45540533D02*
X145861904Y-45683390D01*
X145861904Y-45683390D02*
X145290476Y-46254819D01*
X145290476Y-46254819D02*
X145909523Y-46254819D01*
X146861904Y-46254819D02*
X146290476Y-46254819D01*
X146576190Y-46254819D02*
X146576190Y-45254819D01*
X146576190Y-45254819D02*
X146480952Y-45397676D01*
X146480952Y-45397676D02*
X146385714Y-45492914D01*
X146385714Y-45492914D02*
X146290476Y-45540533D01*
X141757142Y-40959580D02*
X141709523Y-41007200D01*
X141709523Y-41007200D02*
X141566666Y-41054819D01*
X141566666Y-41054819D02*
X141471428Y-41054819D01*
X141471428Y-41054819D02*
X141328571Y-41007200D01*
X141328571Y-41007200D02*
X141233333Y-40911961D01*
X141233333Y-40911961D02*
X141185714Y-40816723D01*
X141185714Y-40816723D02*
X141138095Y-40626247D01*
X141138095Y-40626247D02*
X141138095Y-40483390D01*
X141138095Y-40483390D02*
X141185714Y-40292914D01*
X141185714Y-40292914D02*
X141233333Y-40197676D01*
X141233333Y-40197676D02*
X141328571Y-40102438D01*
X141328571Y-40102438D02*
X141471428Y-40054819D01*
X141471428Y-40054819D02*
X141566666Y-40054819D01*
X141566666Y-40054819D02*
X141709523Y-40102438D01*
X141709523Y-40102438D02*
X141757142Y-40150057D01*
X142138095Y-40150057D02*
X142185714Y-40102438D01*
X142185714Y-40102438D02*
X142280952Y-40054819D01*
X142280952Y-40054819D02*
X142519047Y-40054819D01*
X142519047Y-40054819D02*
X142614285Y-40102438D01*
X142614285Y-40102438D02*
X142661904Y-40150057D01*
X142661904Y-40150057D02*
X142709523Y-40245295D01*
X142709523Y-40245295D02*
X142709523Y-40340533D01*
X142709523Y-40340533D02*
X142661904Y-40483390D01*
X142661904Y-40483390D02*
X142090476Y-41054819D01*
X142090476Y-41054819D02*
X142709523Y-41054819D01*
X143328571Y-40054819D02*
X143423809Y-40054819D01*
X143423809Y-40054819D02*
X143519047Y-40102438D01*
X143519047Y-40102438D02*
X143566666Y-40150057D01*
X143566666Y-40150057D02*
X143614285Y-40245295D01*
X143614285Y-40245295D02*
X143661904Y-40435771D01*
X143661904Y-40435771D02*
X143661904Y-40673866D01*
X143661904Y-40673866D02*
X143614285Y-40864342D01*
X143614285Y-40864342D02*
X143566666Y-40959580D01*
X143566666Y-40959580D02*
X143519047Y-41007200D01*
X143519047Y-41007200D02*
X143423809Y-41054819D01*
X143423809Y-41054819D02*
X143328571Y-41054819D01*
X143328571Y-41054819D02*
X143233333Y-41007200D01*
X143233333Y-41007200D02*
X143185714Y-40959580D01*
X143185714Y-40959580D02*
X143138095Y-40864342D01*
X143138095Y-40864342D02*
X143090476Y-40673866D01*
X143090476Y-40673866D02*
X143090476Y-40435771D01*
X143090476Y-40435771D02*
X143138095Y-40245295D01*
X143138095Y-40245295D02*
X143185714Y-40150057D01*
X143185714Y-40150057D02*
X143233333Y-40102438D01*
X143233333Y-40102438D02*
X143328571Y-40054819D01*
X142759580Y-35442857D02*
X142807200Y-35490476D01*
X142807200Y-35490476D02*
X142854819Y-35633333D01*
X142854819Y-35633333D02*
X142854819Y-35728571D01*
X142854819Y-35728571D02*
X142807200Y-35871428D01*
X142807200Y-35871428D02*
X142711961Y-35966666D01*
X142711961Y-35966666D02*
X142616723Y-36014285D01*
X142616723Y-36014285D02*
X142426247Y-36061904D01*
X142426247Y-36061904D02*
X142283390Y-36061904D01*
X142283390Y-36061904D02*
X142092914Y-36014285D01*
X142092914Y-36014285D02*
X141997676Y-35966666D01*
X141997676Y-35966666D02*
X141902438Y-35871428D01*
X141902438Y-35871428D02*
X141854819Y-35728571D01*
X141854819Y-35728571D02*
X141854819Y-35633333D01*
X141854819Y-35633333D02*
X141902438Y-35490476D01*
X141902438Y-35490476D02*
X141950057Y-35442857D01*
X142854819Y-34490476D02*
X142854819Y-35061904D01*
X142854819Y-34776190D02*
X141854819Y-34776190D01*
X141854819Y-34776190D02*
X141997676Y-34871428D01*
X141997676Y-34871428D02*
X142092914Y-34966666D01*
X142092914Y-34966666D02*
X142140533Y-35061904D01*
X142854819Y-34014285D02*
X142854819Y-33823809D01*
X142854819Y-33823809D02*
X142807200Y-33728571D01*
X142807200Y-33728571D02*
X142759580Y-33680952D01*
X142759580Y-33680952D02*
X142616723Y-33585714D01*
X142616723Y-33585714D02*
X142426247Y-33538095D01*
X142426247Y-33538095D02*
X142045295Y-33538095D01*
X142045295Y-33538095D02*
X141950057Y-33585714D01*
X141950057Y-33585714D02*
X141902438Y-33633333D01*
X141902438Y-33633333D02*
X141854819Y-33728571D01*
X141854819Y-33728571D02*
X141854819Y-33919047D01*
X141854819Y-33919047D02*
X141902438Y-34014285D01*
X141902438Y-34014285D02*
X141950057Y-34061904D01*
X141950057Y-34061904D02*
X142045295Y-34109523D01*
X142045295Y-34109523D02*
X142283390Y-34109523D01*
X142283390Y-34109523D02*
X142378628Y-34061904D01*
X142378628Y-34061904D02*
X142426247Y-34014285D01*
X142426247Y-34014285D02*
X142473866Y-33919047D01*
X142473866Y-33919047D02*
X142473866Y-33728571D01*
X142473866Y-33728571D02*
X142426247Y-33633333D01*
X142426247Y-33633333D02*
X142378628Y-33585714D01*
X142378628Y-33585714D02*
X142283390Y-33538095D01*
X167957142Y-44159580D02*
X167909523Y-44207200D01*
X167909523Y-44207200D02*
X167766666Y-44254819D01*
X167766666Y-44254819D02*
X167671428Y-44254819D01*
X167671428Y-44254819D02*
X167528571Y-44207200D01*
X167528571Y-44207200D02*
X167433333Y-44111961D01*
X167433333Y-44111961D02*
X167385714Y-44016723D01*
X167385714Y-44016723D02*
X167338095Y-43826247D01*
X167338095Y-43826247D02*
X167338095Y-43683390D01*
X167338095Y-43683390D02*
X167385714Y-43492914D01*
X167385714Y-43492914D02*
X167433333Y-43397676D01*
X167433333Y-43397676D02*
X167528571Y-43302438D01*
X167528571Y-43302438D02*
X167671428Y-43254819D01*
X167671428Y-43254819D02*
X167766666Y-43254819D01*
X167766666Y-43254819D02*
X167909523Y-43302438D01*
X167909523Y-43302438D02*
X167957142Y-43350057D01*
X168909523Y-44254819D02*
X168338095Y-44254819D01*
X168623809Y-44254819D02*
X168623809Y-43254819D01*
X168623809Y-43254819D02*
X168528571Y-43397676D01*
X168528571Y-43397676D02*
X168433333Y-43492914D01*
X168433333Y-43492914D02*
X168338095Y-43540533D01*
X169814285Y-43254819D02*
X169338095Y-43254819D01*
X169338095Y-43254819D02*
X169290476Y-43731009D01*
X169290476Y-43731009D02*
X169338095Y-43683390D01*
X169338095Y-43683390D02*
X169433333Y-43635771D01*
X169433333Y-43635771D02*
X169671428Y-43635771D01*
X169671428Y-43635771D02*
X169766666Y-43683390D01*
X169766666Y-43683390D02*
X169814285Y-43731009D01*
X169814285Y-43731009D02*
X169861904Y-43826247D01*
X169861904Y-43826247D02*
X169861904Y-44064342D01*
X169861904Y-44064342D02*
X169814285Y-44159580D01*
X169814285Y-44159580D02*
X169766666Y-44207200D01*
X169766666Y-44207200D02*
X169671428Y-44254819D01*
X169671428Y-44254819D02*
X169433333Y-44254819D01*
X169433333Y-44254819D02*
X169338095Y-44207200D01*
X169338095Y-44207200D02*
X169290476Y-44159580D01*
X156919580Y-46642857D02*
X156967200Y-46690476D01*
X156967200Y-46690476D02*
X157014819Y-46833333D01*
X157014819Y-46833333D02*
X157014819Y-46928571D01*
X157014819Y-46928571D02*
X156967200Y-47071428D01*
X156967200Y-47071428D02*
X156871961Y-47166666D01*
X156871961Y-47166666D02*
X156776723Y-47214285D01*
X156776723Y-47214285D02*
X156586247Y-47261904D01*
X156586247Y-47261904D02*
X156443390Y-47261904D01*
X156443390Y-47261904D02*
X156252914Y-47214285D01*
X156252914Y-47214285D02*
X156157676Y-47166666D01*
X156157676Y-47166666D02*
X156062438Y-47071428D01*
X156062438Y-47071428D02*
X156014819Y-46928571D01*
X156014819Y-46928571D02*
X156014819Y-46833333D01*
X156014819Y-46833333D02*
X156062438Y-46690476D01*
X156062438Y-46690476D02*
X156110057Y-46642857D01*
X157014819Y-45690476D02*
X157014819Y-46261904D01*
X157014819Y-45976190D02*
X156014819Y-45976190D01*
X156014819Y-45976190D02*
X156157676Y-46071428D01*
X156157676Y-46071428D02*
X156252914Y-46166666D01*
X156252914Y-46166666D02*
X156300533Y-46261904D01*
X156348152Y-44833333D02*
X157014819Y-44833333D01*
X155967200Y-45071428D02*
X156681485Y-45309523D01*
X156681485Y-45309523D02*
X156681485Y-44690476D01*
X148757142Y-41359580D02*
X148709523Y-41407200D01*
X148709523Y-41407200D02*
X148566666Y-41454819D01*
X148566666Y-41454819D02*
X148471428Y-41454819D01*
X148471428Y-41454819D02*
X148328571Y-41407200D01*
X148328571Y-41407200D02*
X148233333Y-41311961D01*
X148233333Y-41311961D02*
X148185714Y-41216723D01*
X148185714Y-41216723D02*
X148138095Y-41026247D01*
X148138095Y-41026247D02*
X148138095Y-40883390D01*
X148138095Y-40883390D02*
X148185714Y-40692914D01*
X148185714Y-40692914D02*
X148233333Y-40597676D01*
X148233333Y-40597676D02*
X148328571Y-40502438D01*
X148328571Y-40502438D02*
X148471428Y-40454819D01*
X148471428Y-40454819D02*
X148566666Y-40454819D01*
X148566666Y-40454819D02*
X148709523Y-40502438D01*
X148709523Y-40502438D02*
X148757142Y-40550057D01*
X149709523Y-41454819D02*
X149138095Y-41454819D01*
X149423809Y-41454819D02*
X149423809Y-40454819D01*
X149423809Y-40454819D02*
X149328571Y-40597676D01*
X149328571Y-40597676D02*
X149233333Y-40692914D01*
X149233333Y-40692914D02*
X149138095Y-40740533D01*
X150042857Y-40454819D02*
X150661904Y-40454819D01*
X150661904Y-40454819D02*
X150328571Y-40835771D01*
X150328571Y-40835771D02*
X150471428Y-40835771D01*
X150471428Y-40835771D02*
X150566666Y-40883390D01*
X150566666Y-40883390D02*
X150614285Y-40931009D01*
X150614285Y-40931009D02*
X150661904Y-41026247D01*
X150661904Y-41026247D02*
X150661904Y-41264342D01*
X150661904Y-41264342D02*
X150614285Y-41359580D01*
X150614285Y-41359580D02*
X150566666Y-41407200D01*
X150566666Y-41407200D02*
X150471428Y-41454819D01*
X150471428Y-41454819D02*
X150185714Y-41454819D01*
X150185714Y-41454819D02*
X150090476Y-41407200D01*
X150090476Y-41407200D02*
X150042857Y-41359580D01*
X168033333Y-47959580D02*
X167985714Y-48007200D01*
X167985714Y-48007200D02*
X167842857Y-48054819D01*
X167842857Y-48054819D02*
X167747619Y-48054819D01*
X167747619Y-48054819D02*
X167604762Y-48007200D01*
X167604762Y-48007200D02*
X167509524Y-47911961D01*
X167509524Y-47911961D02*
X167461905Y-47816723D01*
X167461905Y-47816723D02*
X167414286Y-47626247D01*
X167414286Y-47626247D02*
X167414286Y-47483390D01*
X167414286Y-47483390D02*
X167461905Y-47292914D01*
X167461905Y-47292914D02*
X167509524Y-47197676D01*
X167509524Y-47197676D02*
X167604762Y-47102438D01*
X167604762Y-47102438D02*
X167747619Y-47054819D01*
X167747619Y-47054819D02*
X167842857Y-47054819D01*
X167842857Y-47054819D02*
X167985714Y-47102438D01*
X167985714Y-47102438D02*
X168033333Y-47150057D01*
X168509524Y-48054819D02*
X168700000Y-48054819D01*
X168700000Y-48054819D02*
X168795238Y-48007200D01*
X168795238Y-48007200D02*
X168842857Y-47959580D01*
X168842857Y-47959580D02*
X168938095Y-47816723D01*
X168938095Y-47816723D02*
X168985714Y-47626247D01*
X168985714Y-47626247D02*
X168985714Y-47245295D01*
X168985714Y-47245295D02*
X168938095Y-47150057D01*
X168938095Y-47150057D02*
X168890476Y-47102438D01*
X168890476Y-47102438D02*
X168795238Y-47054819D01*
X168795238Y-47054819D02*
X168604762Y-47054819D01*
X168604762Y-47054819D02*
X168509524Y-47102438D01*
X168509524Y-47102438D02*
X168461905Y-47150057D01*
X168461905Y-47150057D02*
X168414286Y-47245295D01*
X168414286Y-47245295D02*
X168414286Y-47483390D01*
X168414286Y-47483390D02*
X168461905Y-47578628D01*
X168461905Y-47578628D02*
X168509524Y-47626247D01*
X168509524Y-47626247D02*
X168604762Y-47673866D01*
X168604762Y-47673866D02*
X168795238Y-47673866D01*
X168795238Y-47673866D02*
X168890476Y-47626247D01*
X168890476Y-47626247D02*
X168938095Y-47578628D01*
X168938095Y-47578628D02*
X168985714Y-47483390D01*
X176559580Y-53766666D02*
X176607200Y-53814285D01*
X176607200Y-53814285D02*
X176654819Y-53957142D01*
X176654819Y-53957142D02*
X176654819Y-54052380D01*
X176654819Y-54052380D02*
X176607200Y-54195237D01*
X176607200Y-54195237D02*
X176511961Y-54290475D01*
X176511961Y-54290475D02*
X176416723Y-54338094D01*
X176416723Y-54338094D02*
X176226247Y-54385713D01*
X176226247Y-54385713D02*
X176083390Y-54385713D01*
X176083390Y-54385713D02*
X175892914Y-54338094D01*
X175892914Y-54338094D02*
X175797676Y-54290475D01*
X175797676Y-54290475D02*
X175702438Y-54195237D01*
X175702438Y-54195237D02*
X175654819Y-54052380D01*
X175654819Y-54052380D02*
X175654819Y-53957142D01*
X175654819Y-53957142D02*
X175702438Y-53814285D01*
X175702438Y-53814285D02*
X175750057Y-53766666D01*
X176083390Y-53195237D02*
X176035771Y-53290475D01*
X176035771Y-53290475D02*
X175988152Y-53338094D01*
X175988152Y-53338094D02*
X175892914Y-53385713D01*
X175892914Y-53385713D02*
X175845295Y-53385713D01*
X175845295Y-53385713D02*
X175750057Y-53338094D01*
X175750057Y-53338094D02*
X175702438Y-53290475D01*
X175702438Y-53290475D02*
X175654819Y-53195237D01*
X175654819Y-53195237D02*
X175654819Y-53004761D01*
X175654819Y-53004761D02*
X175702438Y-52909523D01*
X175702438Y-52909523D02*
X175750057Y-52861904D01*
X175750057Y-52861904D02*
X175845295Y-52814285D01*
X175845295Y-52814285D02*
X175892914Y-52814285D01*
X175892914Y-52814285D02*
X175988152Y-52861904D01*
X175988152Y-52861904D02*
X176035771Y-52909523D01*
X176035771Y-52909523D02*
X176083390Y-53004761D01*
X176083390Y-53004761D02*
X176083390Y-53195237D01*
X176083390Y-53195237D02*
X176131009Y-53290475D01*
X176131009Y-53290475D02*
X176178628Y-53338094D01*
X176178628Y-53338094D02*
X176273866Y-53385713D01*
X176273866Y-53385713D02*
X176464342Y-53385713D01*
X176464342Y-53385713D02*
X176559580Y-53338094D01*
X176559580Y-53338094D02*
X176607200Y-53290475D01*
X176607200Y-53290475D02*
X176654819Y-53195237D01*
X176654819Y-53195237D02*
X176654819Y-53004761D01*
X176654819Y-53004761D02*
X176607200Y-52909523D01*
X176607200Y-52909523D02*
X176559580Y-52861904D01*
X176559580Y-52861904D02*
X176464342Y-52814285D01*
X176464342Y-52814285D02*
X176273866Y-52814285D01*
X176273866Y-52814285D02*
X176178628Y-52861904D01*
X176178628Y-52861904D02*
X176131009Y-52909523D01*
X176131009Y-52909523D02*
X176083390Y-53004761D01*
X174559580Y-41566666D02*
X174607200Y-41614285D01*
X174607200Y-41614285D02*
X174654819Y-41757142D01*
X174654819Y-41757142D02*
X174654819Y-41852380D01*
X174654819Y-41852380D02*
X174607200Y-41995237D01*
X174607200Y-41995237D02*
X174511961Y-42090475D01*
X174511961Y-42090475D02*
X174416723Y-42138094D01*
X174416723Y-42138094D02*
X174226247Y-42185713D01*
X174226247Y-42185713D02*
X174083390Y-42185713D01*
X174083390Y-42185713D02*
X173892914Y-42138094D01*
X173892914Y-42138094D02*
X173797676Y-42090475D01*
X173797676Y-42090475D02*
X173702438Y-41995237D01*
X173702438Y-41995237D02*
X173654819Y-41852380D01*
X173654819Y-41852380D02*
X173654819Y-41757142D01*
X173654819Y-41757142D02*
X173702438Y-41614285D01*
X173702438Y-41614285D02*
X173750057Y-41566666D01*
X173654819Y-40709523D02*
X173654819Y-40899999D01*
X173654819Y-40899999D02*
X173702438Y-40995237D01*
X173702438Y-40995237D02*
X173750057Y-41042856D01*
X173750057Y-41042856D02*
X173892914Y-41138094D01*
X173892914Y-41138094D02*
X174083390Y-41185713D01*
X174083390Y-41185713D02*
X174464342Y-41185713D01*
X174464342Y-41185713D02*
X174559580Y-41138094D01*
X174559580Y-41138094D02*
X174607200Y-41090475D01*
X174607200Y-41090475D02*
X174654819Y-40995237D01*
X174654819Y-40995237D02*
X174654819Y-40804761D01*
X174654819Y-40804761D02*
X174607200Y-40709523D01*
X174607200Y-40709523D02*
X174559580Y-40661904D01*
X174559580Y-40661904D02*
X174464342Y-40614285D01*
X174464342Y-40614285D02*
X174226247Y-40614285D01*
X174226247Y-40614285D02*
X174131009Y-40661904D01*
X174131009Y-40661904D02*
X174083390Y-40709523D01*
X174083390Y-40709523D02*
X174035771Y-40804761D01*
X174035771Y-40804761D02*
X174035771Y-40995237D01*
X174035771Y-40995237D02*
X174083390Y-41090475D01*
X174083390Y-41090475D02*
X174131009Y-41138094D01*
X174131009Y-41138094D02*
X174226247Y-41185713D01*
X176559580Y-43966666D02*
X176607200Y-44014285D01*
X176607200Y-44014285D02*
X176654819Y-44157142D01*
X176654819Y-44157142D02*
X176654819Y-44252380D01*
X176654819Y-44252380D02*
X176607200Y-44395237D01*
X176607200Y-44395237D02*
X176511961Y-44490475D01*
X176511961Y-44490475D02*
X176416723Y-44538094D01*
X176416723Y-44538094D02*
X176226247Y-44585713D01*
X176226247Y-44585713D02*
X176083390Y-44585713D01*
X176083390Y-44585713D02*
X175892914Y-44538094D01*
X175892914Y-44538094D02*
X175797676Y-44490475D01*
X175797676Y-44490475D02*
X175702438Y-44395237D01*
X175702438Y-44395237D02*
X175654819Y-44252380D01*
X175654819Y-44252380D02*
X175654819Y-44157142D01*
X175654819Y-44157142D02*
X175702438Y-44014285D01*
X175702438Y-44014285D02*
X175750057Y-43966666D01*
X175654819Y-43061904D02*
X175654819Y-43538094D01*
X175654819Y-43538094D02*
X176131009Y-43585713D01*
X176131009Y-43585713D02*
X176083390Y-43538094D01*
X176083390Y-43538094D02*
X176035771Y-43442856D01*
X176035771Y-43442856D02*
X176035771Y-43204761D01*
X176035771Y-43204761D02*
X176083390Y-43109523D01*
X176083390Y-43109523D02*
X176131009Y-43061904D01*
X176131009Y-43061904D02*
X176226247Y-43014285D01*
X176226247Y-43014285D02*
X176464342Y-43014285D01*
X176464342Y-43014285D02*
X176559580Y-43061904D01*
X176559580Y-43061904D02*
X176607200Y-43109523D01*
X176607200Y-43109523D02*
X176654819Y-43204761D01*
X176654819Y-43204761D02*
X176654819Y-43442856D01*
X176654819Y-43442856D02*
X176607200Y-43538094D01*
X176607200Y-43538094D02*
X176559580Y-43585713D01*
X164959580Y-52566666D02*
X165007200Y-52614285D01*
X165007200Y-52614285D02*
X165054819Y-52757142D01*
X165054819Y-52757142D02*
X165054819Y-52852380D01*
X165054819Y-52852380D02*
X165007200Y-52995237D01*
X165007200Y-52995237D02*
X164911961Y-53090475D01*
X164911961Y-53090475D02*
X164816723Y-53138094D01*
X164816723Y-53138094D02*
X164626247Y-53185713D01*
X164626247Y-53185713D02*
X164483390Y-53185713D01*
X164483390Y-53185713D02*
X164292914Y-53138094D01*
X164292914Y-53138094D02*
X164197676Y-53090475D01*
X164197676Y-53090475D02*
X164102438Y-52995237D01*
X164102438Y-52995237D02*
X164054819Y-52852380D01*
X164054819Y-52852380D02*
X164054819Y-52757142D01*
X164054819Y-52757142D02*
X164102438Y-52614285D01*
X164102438Y-52614285D02*
X164150057Y-52566666D01*
X165054819Y-51614285D02*
X165054819Y-52185713D01*
X165054819Y-51899999D02*
X164054819Y-51899999D01*
X164054819Y-51899999D02*
X164197676Y-51995237D01*
X164197676Y-51995237D02*
X164292914Y-52090475D01*
X164292914Y-52090475D02*
X164340533Y-52185713D01*
X163033333Y-55359580D02*
X162985714Y-55407200D01*
X162985714Y-55407200D02*
X162842857Y-55454819D01*
X162842857Y-55454819D02*
X162747619Y-55454819D01*
X162747619Y-55454819D02*
X162604762Y-55407200D01*
X162604762Y-55407200D02*
X162509524Y-55311961D01*
X162509524Y-55311961D02*
X162461905Y-55216723D01*
X162461905Y-55216723D02*
X162414286Y-55026247D01*
X162414286Y-55026247D02*
X162414286Y-54883390D01*
X162414286Y-54883390D02*
X162461905Y-54692914D01*
X162461905Y-54692914D02*
X162509524Y-54597676D01*
X162509524Y-54597676D02*
X162604762Y-54502438D01*
X162604762Y-54502438D02*
X162747619Y-54454819D01*
X162747619Y-54454819D02*
X162842857Y-54454819D01*
X162842857Y-54454819D02*
X162985714Y-54502438D01*
X162985714Y-54502438D02*
X163033333Y-54550057D01*
X163414286Y-54550057D02*
X163461905Y-54502438D01*
X163461905Y-54502438D02*
X163557143Y-54454819D01*
X163557143Y-54454819D02*
X163795238Y-54454819D01*
X163795238Y-54454819D02*
X163890476Y-54502438D01*
X163890476Y-54502438D02*
X163938095Y-54550057D01*
X163938095Y-54550057D02*
X163985714Y-54645295D01*
X163985714Y-54645295D02*
X163985714Y-54740533D01*
X163985714Y-54740533D02*
X163938095Y-54883390D01*
X163938095Y-54883390D02*
X163366667Y-55454819D01*
X163366667Y-55454819D02*
X163985714Y-55454819D01*
X154838095Y-48454819D02*
X154838095Y-49264342D01*
X154838095Y-49264342D02*
X154885714Y-49359580D01*
X154885714Y-49359580D02*
X154933333Y-49407200D01*
X154933333Y-49407200D02*
X155028571Y-49454819D01*
X155028571Y-49454819D02*
X155219047Y-49454819D01*
X155219047Y-49454819D02*
X155314285Y-49407200D01*
X155314285Y-49407200D02*
X155361904Y-49359580D01*
X155361904Y-49359580D02*
X155409523Y-49264342D01*
X155409523Y-49264342D02*
X155409523Y-48454819D01*
X155790476Y-48454819D02*
X156409523Y-48454819D01*
X156409523Y-48454819D02*
X156076190Y-48835771D01*
X156076190Y-48835771D02*
X156219047Y-48835771D01*
X156219047Y-48835771D02*
X156314285Y-48883390D01*
X156314285Y-48883390D02*
X156361904Y-48931009D01*
X156361904Y-48931009D02*
X156409523Y-49026247D01*
X156409523Y-49026247D02*
X156409523Y-49264342D01*
X156409523Y-49264342D02*
X156361904Y-49359580D01*
X156361904Y-49359580D02*
X156314285Y-49407200D01*
X156314285Y-49407200D02*
X156219047Y-49454819D01*
X156219047Y-49454819D02*
X155933333Y-49454819D01*
X155933333Y-49454819D02*
X155838095Y-49407200D01*
X155838095Y-49407200D02*
X155790476Y-49359580D01*
X154803405Y-44503999D02*
X155041500Y-44503999D01*
X154946262Y-44742094D02*
X155041500Y-44503999D01*
X155041500Y-44503999D02*
X154946262Y-44265904D01*
X155231976Y-44646856D02*
X155041500Y-44503999D01*
X155041500Y-44503999D02*
X155231976Y-44361142D01*
X155893766Y-44504000D02*
X155655671Y-44504000D01*
X155750909Y-44265905D02*
X155655671Y-44504000D01*
X155655671Y-44504000D02*
X155750909Y-44742095D01*
X155465195Y-44361143D02*
X155655671Y-44504000D01*
X155655671Y-44504000D02*
X155465195Y-44646857D01*
X148945181Y-37431495D02*
X148135658Y-37431495D01*
X148135658Y-37431495D02*
X148040420Y-37479114D01*
X148040420Y-37479114D02*
X147992801Y-37526733D01*
X147992801Y-37526733D02*
X147945181Y-37621971D01*
X147945181Y-37621971D02*
X147945181Y-37812447D01*
X147945181Y-37812447D02*
X147992801Y-37907685D01*
X147992801Y-37907685D02*
X148040420Y-37955304D01*
X148040420Y-37955304D02*
X148135658Y-38002923D01*
X148135658Y-38002923D02*
X148945181Y-38002923D01*
X148611848Y-38907685D02*
X147945181Y-38907685D01*
X148992801Y-38669590D02*
X148278515Y-38431495D01*
X148278515Y-38431495D02*
X148278515Y-39050542D01*
X141861905Y-50254819D02*
X141861905Y-49254819D01*
X141861905Y-49254819D02*
X142100000Y-49254819D01*
X142100000Y-49254819D02*
X142242857Y-49302438D01*
X142242857Y-49302438D02*
X142338095Y-49397676D01*
X142338095Y-49397676D02*
X142385714Y-49492914D01*
X142385714Y-49492914D02*
X142433333Y-49683390D01*
X142433333Y-49683390D02*
X142433333Y-49826247D01*
X142433333Y-49826247D02*
X142385714Y-50016723D01*
X142385714Y-50016723D02*
X142338095Y-50111961D01*
X142338095Y-50111961D02*
X142242857Y-50207200D01*
X142242857Y-50207200D02*
X142100000Y-50254819D01*
X142100000Y-50254819D02*
X141861905Y-50254819D01*
X143290476Y-49254819D02*
X143100000Y-49254819D01*
X143100000Y-49254819D02*
X143004762Y-49302438D01*
X143004762Y-49302438D02*
X142957143Y-49350057D01*
X142957143Y-49350057D02*
X142861905Y-49492914D01*
X142861905Y-49492914D02*
X142814286Y-49683390D01*
X142814286Y-49683390D02*
X142814286Y-50064342D01*
X142814286Y-50064342D02*
X142861905Y-50159580D01*
X142861905Y-50159580D02*
X142909524Y-50207200D01*
X142909524Y-50207200D02*
X143004762Y-50254819D01*
X143004762Y-50254819D02*
X143195238Y-50254819D01*
X143195238Y-50254819D02*
X143290476Y-50207200D01*
X143290476Y-50207200D02*
X143338095Y-50159580D01*
X143338095Y-50159580D02*
X143385714Y-50064342D01*
X143385714Y-50064342D02*
X143385714Y-49826247D01*
X143385714Y-49826247D02*
X143338095Y-49731009D01*
X143338095Y-49731009D02*
X143290476Y-49683390D01*
X143290476Y-49683390D02*
X143195238Y-49635771D01*
X143195238Y-49635771D02*
X143004762Y-49635771D01*
X143004762Y-49635771D02*
X142909524Y-49683390D01*
X142909524Y-49683390D02*
X142861905Y-49731009D01*
X142861905Y-49731009D02*
X142814286Y-49826247D01*
X132454819Y-61261904D02*
X132454819Y-60690476D01*
X133454819Y-60976190D02*
X132454819Y-60976190D01*
X133454819Y-60357142D02*
X132454819Y-60357142D01*
X132454819Y-60357142D02*
X132454819Y-59976190D01*
X132454819Y-59976190D02*
X132502438Y-59880952D01*
X132502438Y-59880952D02*
X132550057Y-59833333D01*
X132550057Y-59833333D02*
X132645295Y-59785714D01*
X132645295Y-59785714D02*
X132788152Y-59785714D01*
X132788152Y-59785714D02*
X132883390Y-59833333D01*
X132883390Y-59833333D02*
X132931009Y-59880952D01*
X132931009Y-59880952D02*
X132978628Y-59976190D01*
X132978628Y-59976190D02*
X132978628Y-60357142D01*
X133454819Y-58833333D02*
X133454819Y-59404761D01*
X133454819Y-59119047D02*
X132454819Y-59119047D01*
X132454819Y-59119047D02*
X132597676Y-59214285D01*
X132597676Y-59214285D02*
X132692914Y-59309523D01*
X132692914Y-59309523D02*
X132740533Y-59404761D01*
X141957142Y-48254819D02*
X141623809Y-47778628D01*
X141385714Y-48254819D02*
X141385714Y-47254819D01*
X141385714Y-47254819D02*
X141766666Y-47254819D01*
X141766666Y-47254819D02*
X141861904Y-47302438D01*
X141861904Y-47302438D02*
X141909523Y-47350057D01*
X141909523Y-47350057D02*
X141957142Y-47445295D01*
X141957142Y-47445295D02*
X141957142Y-47588152D01*
X141957142Y-47588152D02*
X141909523Y-47683390D01*
X141909523Y-47683390D02*
X141861904Y-47731009D01*
X141861904Y-47731009D02*
X141766666Y-47778628D01*
X141766666Y-47778628D02*
X141385714Y-47778628D01*
X142909523Y-48254819D02*
X142338095Y-48254819D01*
X142623809Y-48254819D02*
X142623809Y-47254819D01*
X142623809Y-47254819D02*
X142528571Y-47397676D01*
X142528571Y-47397676D02*
X142433333Y-47492914D01*
X142433333Y-47492914D02*
X142338095Y-47540533D01*
X143290476Y-47350057D02*
X143338095Y-47302438D01*
X143338095Y-47302438D02*
X143433333Y-47254819D01*
X143433333Y-47254819D02*
X143671428Y-47254819D01*
X143671428Y-47254819D02*
X143766666Y-47302438D01*
X143766666Y-47302438D02*
X143814285Y-47350057D01*
X143814285Y-47350057D02*
X143861904Y-47445295D01*
X143861904Y-47445295D02*
X143861904Y-47540533D01*
X143861904Y-47540533D02*
X143814285Y-47683390D01*
X143814285Y-47683390D02*
X143242857Y-48254819D01*
X143242857Y-48254819D02*
X143861904Y-48254819D01*
X132866667Y-46607200D02*
X133009524Y-46654819D01*
X133009524Y-46654819D02*
X133247619Y-46654819D01*
X133247619Y-46654819D02*
X133342857Y-46607200D01*
X133342857Y-46607200D02*
X133390476Y-46559580D01*
X133390476Y-46559580D02*
X133438095Y-46464342D01*
X133438095Y-46464342D02*
X133438095Y-46369104D01*
X133438095Y-46369104D02*
X133390476Y-46273866D01*
X133390476Y-46273866D02*
X133342857Y-46226247D01*
X133342857Y-46226247D02*
X133247619Y-46178628D01*
X133247619Y-46178628D02*
X133057143Y-46131009D01*
X133057143Y-46131009D02*
X132961905Y-46083390D01*
X132961905Y-46083390D02*
X132914286Y-46035771D01*
X132914286Y-46035771D02*
X132866667Y-45940533D01*
X132866667Y-45940533D02*
X132866667Y-45845295D01*
X132866667Y-45845295D02*
X132914286Y-45750057D01*
X132914286Y-45750057D02*
X132961905Y-45702438D01*
X132961905Y-45702438D02*
X133057143Y-45654819D01*
X133057143Y-45654819D02*
X133295238Y-45654819D01*
X133295238Y-45654819D02*
X133438095Y-45702438D01*
X133771429Y-45654819D02*
X134009524Y-46654819D01*
X134009524Y-46654819D02*
X134200000Y-45940533D01*
X134200000Y-45940533D02*
X134390476Y-46654819D01*
X134390476Y-46654819D02*
X134628572Y-45654819D01*
X135533333Y-46654819D02*
X134961905Y-46654819D01*
X135247619Y-46654819D02*
X135247619Y-45654819D01*
X135247619Y-45654819D02*
X135152381Y-45797676D01*
X135152381Y-45797676D02*
X135057143Y-45892914D01*
X135057143Y-45892914D02*
X134961905Y-45940533D01*
X145854819Y-42966666D02*
X145854819Y-43442856D01*
X145854819Y-43442856D02*
X144854819Y-43442856D01*
X144854819Y-42728570D02*
X144854819Y-42109523D01*
X144854819Y-42109523D02*
X145235771Y-42442856D01*
X145235771Y-42442856D02*
X145235771Y-42299999D01*
X145235771Y-42299999D02*
X145283390Y-42204761D01*
X145283390Y-42204761D02*
X145331009Y-42157142D01*
X145331009Y-42157142D02*
X145426247Y-42109523D01*
X145426247Y-42109523D02*
X145664342Y-42109523D01*
X145664342Y-42109523D02*
X145759580Y-42157142D01*
X145759580Y-42157142D02*
X145807200Y-42204761D01*
X145807200Y-42204761D02*
X145854819Y-42299999D01*
X145854819Y-42299999D02*
X145854819Y-42585713D01*
X145854819Y-42585713D02*
X145807200Y-42680951D01*
X145807200Y-42680951D02*
X145759580Y-42728570D01*
X176633333Y-56854819D02*
X176157143Y-56854819D01*
X176157143Y-56854819D02*
X176157143Y-55854819D01*
X177490476Y-56854819D02*
X176919048Y-56854819D01*
X177204762Y-56854819D02*
X177204762Y-55854819D01*
X177204762Y-55854819D02*
X177109524Y-55997676D01*
X177109524Y-55997676D02*
X177014286Y-56092914D01*
X177014286Y-56092914D02*
X176919048Y-56140533D01*
X165438095Y-47854819D02*
X165438095Y-48664342D01*
X165438095Y-48664342D02*
X165485714Y-48759580D01*
X165485714Y-48759580D02*
X165533333Y-48807200D01*
X165533333Y-48807200D02*
X165628571Y-48854819D01*
X165628571Y-48854819D02*
X165819047Y-48854819D01*
X165819047Y-48854819D02*
X165914285Y-48807200D01*
X165914285Y-48807200D02*
X165961904Y-48759580D01*
X165961904Y-48759580D02*
X166009523Y-48664342D01*
X166009523Y-48664342D02*
X166009523Y-47854819D01*
X167009523Y-48854819D02*
X166438095Y-48854819D01*
X166723809Y-48854819D02*
X166723809Y-47854819D01*
X166723809Y-47854819D02*
X166628571Y-47997676D01*
X166628571Y-47997676D02*
X166533333Y-48092914D01*
X166533333Y-48092914D02*
X166438095Y-48140533D01*
X151054819Y-31733333D02*
X151769104Y-31733333D01*
X151769104Y-31733333D02*
X151911961Y-31780952D01*
X151911961Y-31780952D02*
X152007200Y-31876190D01*
X152007200Y-31876190D02*
X152054819Y-32019047D01*
X152054819Y-32019047D02*
X152054819Y-32114285D01*
X152054819Y-30733333D02*
X152054819Y-31304761D01*
X152054819Y-31019047D02*
X151054819Y-31019047D01*
X151054819Y-31019047D02*
X151197676Y-31114285D01*
X151197676Y-31114285D02*
X151292914Y-31209523D01*
X151292914Y-31209523D02*
X151340533Y-31304761D01*
X151714700Y-33971428D02*
X151714700Y-32828571D01*
X152286128Y-33399999D02*
X151143271Y-33399999D01*
X151714700Y-38221428D02*
X151714700Y-37078571D01*
X165454819Y-31733333D02*
X166169104Y-31733333D01*
X166169104Y-31733333D02*
X166311961Y-31780952D01*
X166311961Y-31780952D02*
X166407200Y-31876190D01*
X166407200Y-31876190D02*
X166454819Y-32019047D01*
X166454819Y-32019047D02*
X166454819Y-32114285D01*
X165550057Y-31304761D02*
X165502438Y-31257142D01*
X165502438Y-31257142D02*
X165454819Y-31161904D01*
X165454819Y-31161904D02*
X165454819Y-30923809D01*
X165454819Y-30923809D02*
X165502438Y-30828571D01*
X165502438Y-30828571D02*
X165550057Y-30780952D01*
X165550057Y-30780952D02*
X165645295Y-30733333D01*
X165645295Y-30733333D02*
X165740533Y-30733333D01*
X165740533Y-30733333D02*
X165883390Y-30780952D01*
X165883390Y-30780952D02*
X166454819Y-31352380D01*
X166454819Y-31352380D02*
X166454819Y-30733333D01*
X166314700Y-34171428D02*
X166314700Y-33028571D01*
X166886128Y-33599999D02*
X165743271Y-33599999D01*
X166514700Y-38571428D02*
X166514700Y-37428571D01*
X140833333Y-54959580D02*
X140785714Y-55007200D01*
X140785714Y-55007200D02*
X140642857Y-55054819D01*
X140642857Y-55054819D02*
X140547619Y-55054819D01*
X140547619Y-55054819D02*
X140404762Y-55007200D01*
X140404762Y-55007200D02*
X140309524Y-54911961D01*
X140309524Y-54911961D02*
X140261905Y-54816723D01*
X140261905Y-54816723D02*
X140214286Y-54626247D01*
X140214286Y-54626247D02*
X140214286Y-54483390D01*
X140214286Y-54483390D02*
X140261905Y-54292914D01*
X140261905Y-54292914D02*
X140309524Y-54197676D01*
X140309524Y-54197676D02*
X140404762Y-54102438D01*
X140404762Y-54102438D02*
X140547619Y-54054819D01*
X140547619Y-54054819D02*
X140642857Y-54054819D01*
X140642857Y-54054819D02*
X140785714Y-54102438D01*
X140785714Y-54102438D02*
X140833333Y-54150057D01*
X141690476Y-54388152D02*
X141690476Y-55054819D01*
X141452381Y-54007200D02*
X141214286Y-54721485D01*
X141214286Y-54721485D02*
X141833333Y-54721485D01*
X152833333Y-54759580D02*
X152785714Y-54807200D01*
X152785714Y-54807200D02*
X152642857Y-54854819D01*
X152642857Y-54854819D02*
X152547619Y-54854819D01*
X152547619Y-54854819D02*
X152404762Y-54807200D01*
X152404762Y-54807200D02*
X152309524Y-54711961D01*
X152309524Y-54711961D02*
X152261905Y-54616723D01*
X152261905Y-54616723D02*
X152214286Y-54426247D01*
X152214286Y-54426247D02*
X152214286Y-54283390D01*
X152214286Y-54283390D02*
X152261905Y-54092914D01*
X152261905Y-54092914D02*
X152309524Y-53997676D01*
X152309524Y-53997676D02*
X152404762Y-53902438D01*
X152404762Y-53902438D02*
X152547619Y-53854819D01*
X152547619Y-53854819D02*
X152642857Y-53854819D01*
X152642857Y-53854819D02*
X152785714Y-53902438D01*
X152785714Y-53902438D02*
X152833333Y-53950057D01*
X153166667Y-53854819D02*
X153785714Y-53854819D01*
X153785714Y-53854819D02*
X153452381Y-54235771D01*
X153452381Y-54235771D02*
X153595238Y-54235771D01*
X153595238Y-54235771D02*
X153690476Y-54283390D01*
X153690476Y-54283390D02*
X153738095Y-54331009D01*
X153738095Y-54331009D02*
X153785714Y-54426247D01*
X153785714Y-54426247D02*
X153785714Y-54664342D01*
X153785714Y-54664342D02*
X153738095Y-54759580D01*
X153738095Y-54759580D02*
X153690476Y-54807200D01*
X153690476Y-54807200D02*
X153595238Y-54854819D01*
X153595238Y-54854819D02*
X153309524Y-54854819D01*
X153309524Y-54854819D02*
X153214286Y-54807200D01*
X153214286Y-54807200D02*
X153166667Y-54759580D01*
D11*
%TO.C,C17*%
X181861252Y-52135000D02*
X181338748Y-52135000D01*
X181861252Y-50665000D02*
X181338748Y-50665000D01*
%TO.C,C16*%
X181861252Y-54335000D02*
X181338748Y-54335000D01*
X181861252Y-52865000D02*
X181338748Y-52865000D01*
%TO.C,C7*%
X181911252Y-56535000D02*
X181388748Y-56535000D01*
X181911252Y-55065000D02*
X181388748Y-55065000D01*
%TO.C,C18*%
X187020000Y-47800000D02*
G75*
G02*
X181780000Y-47800000I-2620000J0D01*
G01*
X181780000Y-47800000D02*
G75*
G02*
X187020000Y-47800000I2620000J0D01*
G01*
X184117000Y-45200000D02*
X184683000Y-45200000D01*
X183883000Y-45240000D02*
X184917000Y-45240000D01*
X183723000Y-45280000D02*
X185077000Y-45280000D01*
X183595000Y-45320000D02*
X185205000Y-45320000D01*
X183486000Y-45360000D02*
X185314000Y-45360000D01*
X183389000Y-45400000D02*
X185411000Y-45400000D01*
X183302000Y-45440000D02*
X185498000Y-45440000D01*
X183223000Y-45480000D02*
X185577000Y-45480000D01*
X183149000Y-45520000D02*
X185651000Y-45520000D01*
X183081000Y-45560000D02*
X185719000Y-45560000D01*
X183017000Y-45600000D02*
X185783000Y-45600000D01*
X182957000Y-45640000D02*
X185843000Y-45640000D01*
X182901000Y-45680000D02*
X185899000Y-45680000D01*
X182847000Y-45720000D02*
X185953000Y-45720000D01*
X182796000Y-45760000D02*
X186004000Y-45760000D01*
X185440000Y-45800000D02*
X186052000Y-45800000D01*
X182748000Y-45800000D02*
X183360000Y-45800000D01*
X185440000Y-45840000D02*
X186099000Y-45840000D01*
X182701000Y-45840000D02*
X183360000Y-45840000D01*
X185440000Y-45880000D02*
X186143000Y-45880000D01*
X182657000Y-45880000D02*
X183360000Y-45880000D01*
X185440000Y-45920000D02*
X186185000Y-45920000D01*
X182615000Y-45920000D02*
X183360000Y-45920000D01*
X185440000Y-45960000D02*
X186225000Y-45960000D01*
X182575000Y-45960000D02*
X183360000Y-45960000D01*
X185440000Y-46000000D02*
X186264000Y-46000000D01*
X182536000Y-46000000D02*
X183360000Y-46000000D01*
X185440000Y-46040000D02*
X186301000Y-46040000D01*
X182499000Y-46040000D02*
X183360000Y-46040000D01*
X185440000Y-46080000D02*
X186336000Y-46080000D01*
X182464000Y-46080000D02*
X183360000Y-46080000D01*
X185440000Y-46120000D02*
X186370000Y-46120000D01*
X182430000Y-46120000D02*
X183360000Y-46120000D01*
X185440000Y-46160000D02*
X186403000Y-46160000D01*
X182397000Y-46160000D02*
X183360000Y-46160000D01*
X185440000Y-46200000D02*
X186435000Y-46200000D01*
X182365000Y-46200000D02*
X183360000Y-46200000D01*
X185440000Y-46240000D02*
X186465000Y-46240000D01*
X182335000Y-46240000D02*
X183360000Y-46240000D01*
X185440000Y-46280000D02*
X186494000Y-46280000D01*
X182306000Y-46280000D02*
X183360000Y-46280000D01*
X185440000Y-46320000D02*
X186522000Y-46320000D01*
X182278000Y-46320000D02*
X183360000Y-46320000D01*
X185440000Y-46360000D02*
X186549000Y-46360000D01*
X182251000Y-46360000D02*
X183360000Y-46360000D01*
X185440000Y-46400000D02*
X186575000Y-46400000D01*
X182225000Y-46400000D02*
X183360000Y-46400000D01*
X185440000Y-46440000D02*
X186599000Y-46440000D01*
X182201000Y-46440000D02*
X183360000Y-46440000D01*
X185440000Y-46480000D02*
X186623000Y-46480000D01*
X182177000Y-46480000D02*
X183360000Y-46480000D01*
X185440000Y-46520000D02*
X186646000Y-46520000D01*
X182154000Y-46520000D02*
X183360000Y-46520000D01*
X185440000Y-46560000D02*
X186668000Y-46560000D01*
X182132000Y-46560000D02*
X183360000Y-46560000D01*
X185440000Y-46600000D02*
X186689000Y-46600000D01*
X182111000Y-46600000D02*
X183360000Y-46600000D01*
X185440000Y-46640000D02*
X186709000Y-46640000D01*
X182091000Y-46640000D02*
X183360000Y-46640000D01*
X185440000Y-46680000D02*
X186729000Y-46680000D01*
X182071000Y-46680000D02*
X183360000Y-46680000D01*
X185440000Y-46720000D02*
X186747000Y-46720000D01*
X182053000Y-46720000D02*
X183360000Y-46720000D01*
X185440000Y-46760000D02*
X186765000Y-46760000D01*
X182035000Y-46760000D02*
X183360000Y-46760000D01*
X185440000Y-46800000D02*
X186782000Y-46800000D01*
X182018000Y-46800000D02*
X183360000Y-46800000D01*
X185440000Y-46840000D02*
X186798000Y-46840000D01*
X182002000Y-46840000D02*
X183360000Y-46840000D01*
X185440000Y-46880000D02*
X186813000Y-46880000D01*
X181987000Y-46880000D02*
X183360000Y-46880000D01*
X185440000Y-46920000D02*
X186828000Y-46920000D01*
X181972000Y-46920000D02*
X183360000Y-46920000D01*
X185440000Y-46960000D02*
X186842000Y-46960000D01*
X181958000Y-46960000D02*
X183360000Y-46960000D01*
X185440000Y-47000000D02*
X186855000Y-47000000D01*
X181945000Y-47000000D02*
X183360000Y-47000000D01*
X185440000Y-47040000D02*
X186867000Y-47040000D01*
X181933000Y-47040000D02*
X183360000Y-47040000D01*
X185440000Y-47080000D02*
X186879000Y-47080000D01*
X181921000Y-47080000D02*
X183360000Y-47080000D01*
X185440000Y-47120000D02*
X186890000Y-47120000D01*
X181910000Y-47120000D02*
X183360000Y-47120000D01*
X185440000Y-47160000D02*
X186901000Y-47160000D01*
X181899000Y-47160000D02*
X183360000Y-47160000D01*
X185440000Y-47200000D02*
X186910000Y-47200000D01*
X181890000Y-47200000D02*
X183360000Y-47200000D01*
X185440000Y-47240000D02*
X186919000Y-47240000D01*
X181881000Y-47240000D02*
X183360000Y-47240000D01*
X185440000Y-47280000D02*
X186928000Y-47280000D01*
X181872000Y-47280000D02*
X183360000Y-47280000D01*
X185440000Y-47320000D02*
X186936000Y-47320000D01*
X181864000Y-47320000D02*
X183360000Y-47320000D01*
X185440000Y-47360000D02*
X186943000Y-47360000D01*
X181857000Y-47360000D02*
X183360000Y-47360000D01*
X185440000Y-47400000D02*
X186949000Y-47400000D01*
X181851000Y-47400000D02*
X183360000Y-47400000D01*
X185440000Y-47440000D02*
X186955000Y-47440000D01*
X181845000Y-47440000D02*
X183360000Y-47440000D01*
X185440000Y-47480000D02*
X186960000Y-47480000D01*
X181840000Y-47480000D02*
X183360000Y-47480000D01*
X185440000Y-47520000D02*
X186965000Y-47520000D01*
X181835000Y-47520000D02*
X183360000Y-47520000D01*
X185440000Y-47560000D02*
X186969000Y-47560000D01*
X181831000Y-47560000D02*
X183360000Y-47560000D01*
X185440000Y-47600000D02*
X186972000Y-47600000D01*
X181828000Y-47600000D02*
X183360000Y-47600000D01*
X185440000Y-47640000D02*
X186975000Y-47640000D01*
X181825000Y-47640000D02*
X183360000Y-47640000D01*
X185440000Y-47680000D02*
X186977000Y-47680000D01*
X181823000Y-47680000D02*
X183360000Y-47680000D01*
X185440000Y-47720000D02*
X186979000Y-47720000D01*
X181821000Y-47720000D02*
X183360000Y-47720000D01*
X185440000Y-47760000D02*
X186980000Y-47760000D01*
X181820000Y-47760000D02*
X183360000Y-47760000D01*
X185440000Y-47800000D02*
X186980000Y-47800000D01*
X181820000Y-47800000D02*
X183360000Y-47800000D01*
X182675000Y-50354775D02*
X183175000Y-50354775D01*
X182925000Y-50604775D02*
X182925000Y-50104775D01*
%TO.C,TP2*%
X137100000Y-64400000D02*
G75*
G02*
X134100000Y-64400000I-1500000J0D01*
G01*
X134100000Y-64400000D02*
G75*
G02*
X137100000Y-64400000I1500000J0D01*
G01*
%TO.C,R13*%
X135843641Y-57020000D02*
X135536359Y-57020000D01*
X135843641Y-57780000D02*
X135536359Y-57780000D01*
%TO.C,J9*%
X188040000Y-50115000D02*
X188040000Y-52440000D01*
X188040000Y-52440000D02*
X185650000Y-52440000D01*
X188040000Y-58285000D02*
X188040000Y-55960000D01*
X188890000Y-50115000D02*
X188040000Y-50115000D01*
X188890000Y-58285000D02*
X188040000Y-58285000D01*
X192410000Y-50115000D02*
X193260000Y-50115000D01*
X193260000Y-50115000D02*
X193260000Y-58285000D01*
X193260000Y-58285000D02*
X192410000Y-58285000D01*
%TO.C,C22*%
X158935000Y-46088748D02*
X158935000Y-46611252D01*
X157465000Y-46088748D02*
X157465000Y-46611252D01*
%TO.C,J11*%
X188240000Y-38435000D02*
X188240000Y-40760000D01*
X188240000Y-40760000D02*
X185850000Y-40760000D01*
X188240000Y-46605000D02*
X188240000Y-44280000D01*
X189090000Y-38435000D02*
X188240000Y-38435000D01*
X189090000Y-46605000D02*
X188240000Y-46605000D01*
X192610000Y-38435000D02*
X193460000Y-38435000D01*
X193460000Y-38435000D02*
X193460000Y-46605000D01*
X193460000Y-46605000D02*
X192610000Y-46605000D01*
%TO.C,C11*%
X186560000Y-39027836D02*
X186560000Y-38812164D01*
X185840000Y-39027836D02*
X185840000Y-38812164D01*
%TO.C,C10*%
X173240000Y-38772164D02*
X173240000Y-38987836D01*
X173960000Y-38772164D02*
X173960000Y-38987836D01*
D12*
%TO.C,U2*%
X175860860Y-39193829D02*
G75*
G02*
X175860860Y-39046171I-18860J73829D01*
G01*
X179622600Y-41495600D02*
X179622600Y-41079741D01*
X179622600Y-38660259D02*
X179622600Y-38244400D01*
X179622600Y-38244400D02*
X176371400Y-38244400D01*
X176371400Y-41495600D02*
X179622600Y-41495600D01*
X176371400Y-41079741D02*
X176371400Y-41495600D01*
X176371400Y-38244400D02*
X176371400Y-38660259D01*
%TO.C,L2*%
X184478800Y-41348301D02*
X184478800Y-36700101D01*
X184478800Y-36700101D02*
X183782840Y-36700101D01*
X183782840Y-41348301D02*
X184478800Y-41348301D01*
X183031000Y-34426801D02*
X182269000Y-34426801D01*
X182650000Y-34807801D02*
X182650000Y-34045801D01*
X181517160Y-36700101D02*
X180821200Y-36700101D01*
X180821200Y-41348301D02*
X181517160Y-41348301D01*
X180821200Y-36700101D02*
X180821200Y-41348301D01*
D11*
%TO.C,R11*%
X146243641Y-51780000D02*
X145936359Y-51780000D01*
X146243641Y-51020000D02*
X145936359Y-51020000D01*
%TO.C,R10*%
X139580000Y-48046359D02*
X139580000Y-48353641D01*
X138820000Y-48046359D02*
X138820000Y-48353641D01*
%TO.C,R9*%
X170820000Y-39153641D02*
X170820000Y-38846359D01*
X171580000Y-39153641D02*
X171580000Y-38846359D01*
%TO.C,R8*%
X170820000Y-41063641D02*
X170820000Y-40756359D01*
X171580000Y-41063641D02*
X171580000Y-40756359D01*
%TO.C,R7*%
X177020000Y-45863641D02*
X177020000Y-45556359D01*
X177780000Y-45863641D02*
X177780000Y-45556359D01*
%TO.C,R6*%
X178980000Y-46646359D02*
X178980000Y-46953641D01*
X178220000Y-46646359D02*
X178220000Y-46953641D01*
%TO.C,R5*%
X164620000Y-50553641D02*
X164620000Y-50246359D01*
X165380000Y-50553641D02*
X165380000Y-50246359D01*
%TO.C,R4*%
X173180000Y-45646359D02*
X173180000Y-45953641D01*
X172420000Y-45646359D02*
X172420000Y-45953641D01*
%TO.C,R3*%
X167980000Y-45846359D02*
X167980000Y-46153641D01*
X167220000Y-45846359D02*
X167220000Y-46153641D01*
%TO.C,R2*%
X174620000Y-45953641D02*
X174620000Y-45646359D01*
X175380000Y-45953641D02*
X175380000Y-45646359D01*
%TO.C,R1*%
X170380000Y-45846359D02*
X170380000Y-46153641D01*
X169620000Y-45846359D02*
X169620000Y-46153641D01*
%TO.C,C26*%
X147342165Y-34483400D02*
X147557837Y-34483400D01*
X147342165Y-35203400D02*
X147557837Y-35203400D01*
%TO.C,C21*%
X146057837Y-44953400D02*
X145842165Y-44953400D01*
X146057837Y-44233400D02*
X145842165Y-44233400D01*
%TO.C,C20*%
X144812164Y-40240000D02*
X145027836Y-40240000D01*
X144812164Y-40960000D02*
X145027836Y-40960000D01*
%TO.C,C19*%
X145010001Y-34485564D02*
X145010001Y-34701236D01*
X144290001Y-34485564D02*
X144290001Y-34701236D01*
%TO.C,C15*%
X168440000Y-46107836D02*
X168440000Y-45892164D01*
X169160000Y-46107836D02*
X169160000Y-45892164D01*
%TO.C,C14*%
X155760000Y-45892164D02*
X155760000Y-46107836D01*
X155040000Y-45892164D02*
X155040000Y-46107836D01*
%TO.C,C13*%
X148972164Y-42440000D02*
X149187836Y-42440000D01*
X148972164Y-43160000D02*
X149187836Y-43160000D01*
%TO.C,C9*%
X170692164Y-47240000D02*
X170907836Y-47240000D01*
X170692164Y-47960000D02*
X170907836Y-47960000D01*
%TO.C,C8*%
X175890000Y-51607836D02*
X175890000Y-51392164D01*
X176610000Y-51607836D02*
X176610000Y-51392164D01*
%TO.C,C6*%
X174360000Y-45692164D02*
X174360000Y-45907836D01*
X173640000Y-45692164D02*
X173640000Y-45907836D01*
%TO.C,C5*%
X175840000Y-45907836D02*
X175840000Y-45692164D01*
X176560000Y-45907836D02*
X176560000Y-45692164D01*
%TO.C,C1*%
X165640000Y-51587836D02*
X165640000Y-51372164D01*
X166360000Y-51587836D02*
X166360000Y-51372164D01*
D13*
%TO.C,C2*%
X167700000Y-55550000D02*
G75*
G02*
X167500000Y-55550000I-100000J0D01*
G01*
X167500000Y-55550000D02*
G75*
G02*
X167700000Y-55550000I100000J0D01*
G01*
D14*
X169750000Y-57700000D02*
X168250000Y-56200000D01*
X169750000Y-64500000D02*
X169750000Y-57700000D01*
X168250000Y-56200000D02*
X166920000Y-56200000D01*
X166920000Y-64500000D02*
X169750000Y-64500000D01*
X164280000Y-56200000D02*
X162950000Y-56200000D01*
X162950000Y-56200000D02*
X161450000Y-57700000D01*
X161450000Y-57700000D02*
X161450000Y-64500000D01*
X161450000Y-64500000D02*
X164280000Y-64500000D01*
D15*
%TO.C,U3*%
G36*
X148190612Y-43767400D02*
G01*
X147809612Y-43767400D01*
X147809612Y-43513400D01*
X148190612Y-43513400D01*
X148190612Y-43767400D01*
G37*
G36*
X154040486Y-51844600D02*
G01*
X153659486Y-51844600D01*
X153659486Y-51590600D01*
X154040486Y-51590600D01*
X154040486Y-51844600D01*
G37*
D12*
X147496049Y-45559933D02*
X147496049Y-49798067D01*
X154354049Y-49798067D02*
X154354049Y-45559933D01*
%TO.C,U4*%
X147276400Y-39377800D02*
X147276400Y-37015600D01*
X143923600Y-37015600D02*
X143923600Y-39377800D01*
X146701600Y-36287000D02*
G75*
G02*
X146498400Y-36287000I-101600J0D01*
G01*
X146498400Y-36287000D02*
G75*
G02*
X146701600Y-36287000I101600J0D01*
G01*
D11*
%TO.C,D6*%
X146517500Y-48640000D02*
X143832500Y-48640000D01*
X143832500Y-50560000D02*
X146517500Y-50560000D01*
X143832500Y-48640000D02*
X143832500Y-50560000D01*
%TO.C,TP1*%
X137100000Y-60200000D02*
G75*
G02*
X134100000Y-60200000I-1500000J0D01*
G01*
X134100000Y-60200000D02*
G75*
G02*
X137100000Y-60200000I1500000J0D01*
G01*
%TO.C,R12*%
X145536359Y-48180000D02*
X145843641Y-48180000D01*
X145536359Y-47420000D02*
X145843641Y-47420000D01*
%TO.C,SW1*%
X137960000Y-47515000D02*
X137960000Y-49840000D01*
X137110000Y-47515000D02*
X137960000Y-47515000D01*
X132740000Y-47515000D02*
X133590000Y-47515000D01*
X137960000Y-53360000D02*
X140350000Y-53360000D01*
X137960000Y-55685000D02*
X137960000Y-53360000D01*
X137110000Y-55685000D02*
X137960000Y-55685000D01*
X133590000Y-55685000D02*
X132740000Y-55685000D01*
X132740000Y-55685000D02*
X132740000Y-47515000D01*
%TO.C,L3*%
X146440000Y-41462878D02*
X146440000Y-42262122D01*
X147560000Y-41462878D02*
X147560000Y-42262122D01*
D14*
%TO.C,L1*%
X171235000Y-57200000D02*
X184685000Y-57200000D01*
X171235000Y-60575000D02*
X171235000Y-57200000D01*
X171235000Y-69800000D02*
X171235000Y-66425000D01*
X184685000Y-57200000D02*
X184685000Y-60575000D01*
X184685000Y-69800000D02*
X171235000Y-69800000D01*
X184685000Y-69800000D02*
X184685000Y-66425000D01*
%TO.C,U1*%
X168500000Y-49000000D02*
X168500000Y-49230000D01*
X168500000Y-49000000D02*
X168730000Y-49000000D01*
X168500000Y-55000000D02*
X168500000Y-54770000D01*
X168500000Y-55000000D02*
X168730000Y-55000000D01*
X174500000Y-49000000D02*
X174270000Y-49000000D01*
X174500000Y-49000000D02*
X174500000Y-49230000D01*
X174500000Y-55000000D02*
X174270000Y-55000000D01*
X174500000Y-55000000D02*
X174500000Y-54770000D01*
D13*
X167340000Y-49700000D02*
G75*
G02*
X167140000Y-49700000I-100000J0D01*
G01*
X167140000Y-49700000D02*
G75*
G02*
X167340000Y-49700000I100000J0D01*
G01*
D11*
%TO.C,J1*%
X152890000Y-30690000D02*
X158310000Y-30690000D01*
X158310000Y-39410000D02*
X158310000Y-30690000D01*
X152890000Y-39410000D02*
X152890000Y-30690000D01*
X157010000Y-41110000D02*
X158310000Y-39410000D01*
X154190000Y-41110000D02*
X152890000Y-39410000D01*
X154190000Y-41110000D02*
X157010000Y-41110000D01*
%TO.C,J2*%
X159290000Y-30690000D02*
X164710000Y-30690000D01*
X164710000Y-39410000D02*
X164710000Y-30690000D01*
X159290000Y-39410000D02*
X159290000Y-30690000D01*
X163410000Y-41110000D02*
X164710000Y-39410000D01*
X160590000Y-41110000D02*
X159290000Y-39410000D01*
X160590000Y-41110000D02*
X163410000Y-41110000D01*
D14*
%TO.C,C4*%
X150750000Y-56900000D02*
X148950000Y-55100000D01*
X150750000Y-65400000D02*
X150750000Y-56900000D01*
X148950000Y-55100000D02*
X146920000Y-55100000D01*
X146920000Y-65400000D02*
X150750000Y-65400000D01*
X144280000Y-55100000D02*
X142250000Y-55100000D01*
X142250000Y-55100000D02*
X140450000Y-56900000D01*
X140450000Y-56900000D02*
X140450000Y-65400000D01*
X140450000Y-65400000D02*
X144280000Y-65400000D01*
D13*
X147800000Y-53950000D02*
G75*
G02*
X147600000Y-53950000I-100000J0D01*
G01*
X147600000Y-53950000D02*
G75*
G02*
X147800000Y-53950000I100000J0D01*
G01*
D14*
%TO.C,C3*%
X152050000Y-64500000D02*
X154880000Y-64500000D01*
X152050000Y-57700000D02*
X152050000Y-64500000D01*
X153550000Y-56200000D02*
X152050000Y-57700000D01*
X154880000Y-56200000D02*
X153550000Y-56200000D01*
X157520000Y-64500000D02*
X160350000Y-64500000D01*
X158850000Y-56200000D02*
X157520000Y-56200000D01*
X160350000Y-64500000D02*
X160350000Y-57700000D01*
X160350000Y-57700000D02*
X158850000Y-56200000D01*
D13*
X158300000Y-55550000D02*
G75*
G02*
X158100000Y-55550000I-100000J0D01*
G01*
X158100000Y-55550000D02*
G75*
G02*
X158300000Y-55550000I100000J0D01*
G01*
%TD*%
M02*
