%TF.GenerationSoftware,KiCad,Pcbnew,9.0.5*%
%TF.CreationDate,2026-02-09T22:48:57-08:00*%
%TF.ProjectId,Vine_Basestation_Power,56696e65-5f42-4617-9365-73746174696f,rev?*%
%TF.SameCoordinates,Original*%
%TF.FileFunction,Soldermask,Top*%
%TF.FilePolarity,Negative*%
%FSLAX46Y46*%
G04 Gerber Fmt 4.6, Leading zero omitted, Abs format (unit mm)*
G04 Created by KiCad (PCBNEW 9.0.5) date 2026-02-09 22:48:57*
%MOMM*%
%LPD*%
G01*
G04 APERTURE LIST*
G04 Aperture macros list*
%AMRoundRect*
0 Rectangle with rounded corners*
0 $1 Rounding radius*
0 $2 $3 $4 $5 $6 $7 $8 $9 X,Y pos of 4 corners*
0 Add a 4 corners polygon primitive as box body*
4,1,4,$2,$3,$4,$5,$6,$7,$8,$9,$2,$3,0*
0 Add four circle primitives for the rounded corners*
1,1,$1+$1,$2,$3*
1,1,$1+$1,$4,$5*
1,1,$1+$1,$6,$7*
1,1,$1+$1,$8,$9*
0 Add four rect primitives between the rounded corners*
20,1,$1+$1,$2,$3,$4,$5,0*
20,1,$1+$1,$4,$5,$6,$7,0*
20,1,$1+$1,$6,$7,$8,$9,0*
20,1,$1+$1,$8,$9,$2,$3,0*%
G04 Aperture macros list end*
%ADD10RoundRect,0.250000X0.250000X0.475000X-0.250000X0.475000X-0.250000X-0.475000X0.250000X-0.475000X0*%
%ADD11C,1.600000*%
%ADD12RoundRect,0.250000X0.550000X-0.550000X0.550000X0.550000X-0.550000X0.550000X-0.550000X-0.550000X0*%
%ADD13C,2.000000*%
%ADD14RoundRect,0.135000X0.135000X0.185000X-0.135000X0.185000X-0.135000X-0.185000X0.135000X-0.185000X0*%
%ADD15RoundRect,0.250000X-2.500000X0.250000X-2.500000X-0.250000X2.500000X-0.250000X2.500000X0.250000X0*%
%ADD16RoundRect,0.250000X-1.250000X0.550000X-1.250000X-0.550000X1.250000X-0.550000X1.250000X0.550000X0*%
%ADD17RoundRect,0.250000X-0.475000X0.250000X-0.475000X-0.250000X0.475000X-0.250000X0.475000X0.250000X0*%
%ADD18RoundRect,0.140000X0.170000X-0.140000X0.170000X0.140000X-0.170000X0.140000X-0.170000X-0.140000X0*%
%ADD19RoundRect,0.140000X-0.170000X0.140000X-0.170000X-0.140000X0.170000X-0.140000X0.170000X0.140000X0*%
%ADD20R,1.752600X2.489200*%
%ADD21R,0.812800X0.254000*%
%ADD22R,1.600200X1.498600*%
%ADD23RoundRect,0.135000X-0.185000X0.135000X-0.185000X-0.135000X0.185000X-0.135000X0.185000X0.135000X0*%
%ADD24RoundRect,0.135000X0.185000X-0.135000X0.185000X0.135000X-0.185000X0.135000X-0.185000X-0.135000X0*%
%ADD25RoundRect,0.140000X-0.140000X-0.170000X0.140000X-0.170000X0.140000X0.170000X-0.140000X0.170000X0*%
%ADD26RoundRect,0.140000X0.140000X0.170000X-0.140000X0.170000X-0.140000X-0.170000X0.140000X-0.170000X0*%
%ADD27RoundRect,0.102000X-1.000000X2.000000X-1.000000X-2.000000X1.000000X-2.000000X1.000000X2.000000X0*%
%ADD28R,0.355600X1.473200*%
%ADD29R,2.971800X2.971800*%
%ADD30R,2.108200X0.889000*%
%ADD31R,0.254000X0.711200*%
%ADD32RoundRect,0.243750X-0.243750X-0.456250X0.243750X-0.456250X0.243750X0.456250X-0.243750X0.456250X0*%
%ADD33RoundRect,0.135000X-0.135000X-0.185000X0.135000X-0.185000X0.135000X0.185000X-0.135000X0.185000X0*%
%ADD34RoundRect,0.250000X1.250000X-0.550000X1.250000X0.550000X-1.250000X0.550000X-1.250000X-0.550000X0*%
%ADD35RoundRect,0.250000X2.500000X-0.250000X2.500000X0.250000X-2.500000X0.250000X-2.500000X-0.250000X0*%
%ADD36RoundRect,0.218750X-0.381250X0.218750X-0.381250X-0.218750X0.381250X-0.218750X0.381250X0.218750X0*%
%ADD37RoundRect,0.102000X-1.615000X-2.605000X1.615000X-2.605000X1.615000X2.605000X-1.615000X2.605000X0*%
%ADD38O,0.954000X0.554000*%
%ADD39O,0.554000X0.954000*%
%ADD40RoundRect,0.102000X-2.425000X-1.180000X2.425000X-1.180000X2.425000X1.180000X-2.425000X1.180000X0*%
%ADD41C,0.604000*%
%ADD42RoundRect,0.102000X-1.065000X-1.345000X1.065000X-1.345000X1.065000X1.345000X-1.065000X1.345000X0*%
%ADD43RoundRect,0.102000X-1.195000X-1.345000X1.195000X-1.345000X1.195000X1.345000X-1.195000X1.345000X0*%
%ADD44RoundRect,0.102000X-0.370000X-1.020000X0.370000X-1.020000X0.370000X1.020000X-0.370000X1.020000X0*%
%ADD45RoundRect,0.760000X1.140000X-1.140000X1.140000X1.140000X-1.140000X1.140000X-1.140000X-1.140000X0*%
%ADD46C,3.800000*%
%ADD47RoundRect,0.102000X-1.000000X2.050000X-1.000000X-2.050000X1.000000X-2.050000X1.000000X2.050000X0*%
G04 APERTURE END LIST*
D10*
%TO.C,C17*%
X182550000Y-51400000D03*
X180650000Y-51400000D03*
%TD*%
%TO.C,C16*%
X182550000Y-53600000D03*
X180650000Y-53600000D03*
%TD*%
%TO.C,C7*%
X182600000Y-55800000D03*
X180700000Y-55800000D03*
%TD*%
D11*
%TO.C,C18*%
X184400000Y-46800000D03*
D12*
X184400000Y-48800000D03*
%TD*%
D13*
%TO.C,TP2*%
X135600000Y-64400000D03*
%TD*%
D14*
%TO.C,R13*%
X135180000Y-57400000D03*
X136200000Y-57400000D03*
%TD*%
D15*
%TO.C,J9*%
X188400000Y-53200000D03*
X188400000Y-55200000D03*
D16*
X190650000Y-50800000D03*
X190650000Y-57600000D03*
%TD*%
D17*
%TO.C,C22*%
X158200000Y-45400000D03*
X158200000Y-47300000D03*
%TD*%
D15*
%TO.C,J11*%
X188600000Y-41520000D03*
X188600000Y-43520000D03*
D16*
X190850000Y-39120000D03*
X190850000Y-45920000D03*
%TD*%
D18*
%TO.C,C11*%
X186200000Y-38440000D03*
X186200000Y-39400000D03*
%TD*%
D19*
%TO.C,C10*%
X173600000Y-39360000D03*
X173600000Y-38400000D03*
%TD*%
D20*
%TO.C,U2*%
X177997000Y-39870000D03*
D21*
X179394000Y-39119999D03*
X179394000Y-39620000D03*
X179394000Y-40120000D03*
X179394000Y-40620001D03*
X176600000Y-40620001D03*
X176600000Y-40120000D03*
X176600000Y-39620000D03*
X176600000Y-39119999D03*
%TD*%
D22*
%TO.C,L2*%
X182650000Y-40878401D03*
X182650000Y-37170001D03*
%TD*%
D14*
%TO.C,R11*%
X146600000Y-51400000D03*
X145580000Y-51400000D03*
%TD*%
D23*
%TO.C,R10*%
X139200000Y-47690000D03*
X139200000Y-48710000D03*
%TD*%
D24*
%TO.C,R9*%
X171200000Y-39510000D03*
X171200000Y-38490000D03*
%TD*%
%TO.C,R8*%
X171200000Y-41420000D03*
X171200000Y-40400000D03*
%TD*%
%TO.C,R7*%
X177400000Y-46220000D03*
X177400000Y-45200000D03*
%TD*%
D23*
%TO.C,R6*%
X178600000Y-46290000D03*
X178600000Y-47310000D03*
%TD*%
D24*
%TO.C,R5*%
X165000000Y-50910000D03*
X165000000Y-49890000D03*
%TD*%
D23*
%TO.C,R4*%
X172800000Y-45290000D03*
X172800000Y-46310000D03*
%TD*%
%TO.C,R3*%
X167600000Y-45490000D03*
X167600000Y-46510000D03*
%TD*%
D24*
%TO.C,R2*%
X175000000Y-46310000D03*
X175000000Y-45290000D03*
%TD*%
D23*
%TO.C,R1*%
X170000000Y-45490000D03*
X170000000Y-46510000D03*
%TD*%
D25*
%TO.C,C26*%
X146970001Y-34843400D03*
X147930001Y-34843400D03*
%TD*%
D26*
%TO.C,C21*%
X146430001Y-44593400D03*
X145470001Y-44593400D03*
%TD*%
D25*
%TO.C,C20*%
X144440000Y-40600000D03*
X145400000Y-40600000D03*
%TD*%
D19*
%TO.C,C19*%
X144650001Y-34113400D03*
X144650001Y-35073400D03*
%TD*%
D18*
%TO.C,C15*%
X168800000Y-46480000D03*
X168800000Y-45520000D03*
%TD*%
D19*
%TO.C,C14*%
X155400000Y-45520000D03*
X155400000Y-46480000D03*
%TD*%
D25*
%TO.C,C13*%
X148600000Y-42800000D03*
X149560000Y-42800000D03*
%TD*%
%TO.C,C9*%
X170320000Y-47600000D03*
X171280000Y-47600000D03*
%TD*%
D18*
%TO.C,C8*%
X176250000Y-51980000D03*
X176250000Y-51020000D03*
%TD*%
D19*
%TO.C,C6*%
X174000000Y-45320000D03*
X174000000Y-46280000D03*
%TD*%
D18*
%TO.C,C5*%
X176200000Y-46280000D03*
X176200000Y-45320000D03*
%TD*%
%TO.C,C1*%
X166000000Y-51960000D03*
X166000000Y-51000000D03*
%TD*%
D27*
%TO.C,C2*%
X165600000Y-63900000D03*
X165600000Y-56800000D03*
%TD*%
D28*
%TO.C,U3*%
X153849986Y-44758000D03*
X153200000Y-44758000D03*
X152550014Y-44758000D03*
X151900028Y-44758000D03*
X151250042Y-44758000D03*
X150600056Y-44758000D03*
X149950070Y-44758000D03*
X149300084Y-44758000D03*
X148650098Y-44758000D03*
X148000112Y-44758000D03*
X148000112Y-50600000D03*
X148650098Y-50600000D03*
X149300084Y-50600000D03*
X149950070Y-50600000D03*
X150600056Y-50600000D03*
X151250042Y-50600000D03*
X151900028Y-50600000D03*
X152550014Y-50600000D03*
X153200000Y-50600000D03*
X153849986Y-50600000D03*
D29*
X150925049Y-47679000D03*
%TD*%
D30*
%TO.C,U4*%
X145600000Y-38196700D03*
D31*
X146600001Y-39200000D03*
X146099999Y-39200000D03*
X145600000Y-39200000D03*
X145100001Y-39200000D03*
X144599999Y-39200000D03*
X144599999Y-37193400D03*
X145100001Y-37193400D03*
X145600000Y-37193400D03*
X146099999Y-37193400D03*
X146600001Y-37193400D03*
%TD*%
D32*
%TO.C,D6*%
X146455000Y-49600000D03*
X144580000Y-49600000D03*
%TD*%
D13*
%TO.C,TP1*%
X135600000Y-60200000D03*
%TD*%
D33*
%TO.C,R12*%
X146200000Y-47800000D03*
X145180000Y-47800000D03*
%TD*%
D34*
%TO.C,SW1*%
X135350000Y-48200000D03*
X135350000Y-55000000D03*
D35*
X137600000Y-50600000D03*
X137600000Y-52600000D03*
%TD*%
D36*
%TO.C,L3*%
X147000000Y-42925000D03*
X147000000Y-40800000D03*
%TD*%
D37*
%TO.C,L1*%
X172170000Y-63500000D03*
X183750000Y-63500000D03*
%TD*%
D38*
%TO.C,U1*%
X168450000Y-49725000D03*
X168450000Y-50375000D03*
X168450000Y-51025000D03*
X168450000Y-51675000D03*
X168450000Y-52325000D03*
X168450000Y-52975000D03*
X168450000Y-53625000D03*
X168450000Y-54275000D03*
D39*
X169225000Y-55050000D03*
X169875000Y-55050000D03*
X170525000Y-55050000D03*
X171175000Y-55050000D03*
X171825000Y-55050000D03*
X172475000Y-55050000D03*
X173125000Y-55050000D03*
X173775000Y-55050000D03*
D38*
X174550000Y-54275000D03*
X174550000Y-53625000D03*
X174550000Y-52975000D03*
X174550000Y-52325000D03*
X174550000Y-51675000D03*
X174550000Y-51025000D03*
X174550000Y-50375000D03*
X174550000Y-49725000D03*
D39*
X173775000Y-48950000D03*
X173125000Y-48950000D03*
X172475000Y-48950000D03*
X171825000Y-48950000D03*
X171175000Y-48950000D03*
X170525000Y-48950000D03*
X169875000Y-48950000D03*
X169225000Y-48950000D03*
D40*
X171500000Y-50730000D03*
D41*
X169500000Y-51230000D03*
X169500000Y-50230000D03*
X170500000Y-50230000D03*
X171500000Y-50230000D03*
X172500000Y-50230000D03*
X173500000Y-50230000D03*
X173500000Y-51230000D03*
X172500000Y-51230000D03*
X171500000Y-51230000D03*
X170500000Y-51230000D03*
D42*
X169700000Y-53495000D03*
D41*
X169200000Y-52495000D03*
X169200000Y-53495000D03*
X169200000Y-54495000D03*
X170200000Y-52495000D03*
X170200000Y-53495000D03*
X170200000Y-54495000D03*
D43*
X172195000Y-53495000D03*
D41*
X171695000Y-52495500D03*
X171695000Y-53495500D03*
X171695000Y-54495500D03*
X172695000Y-52495500D03*
X172695000Y-53495500D03*
X172695000Y-54495500D03*
D44*
X173970000Y-53820000D03*
D41*
X173970000Y-53320000D03*
X173970000Y-54320000D03*
%TD*%
D45*
%TO.C,J1*%
X155600000Y-38400000D03*
D46*
X155600000Y-33400000D03*
%TD*%
D45*
%TO.C,J2*%
X162000000Y-38400000D03*
D46*
X162000000Y-33400000D03*
%TD*%
D47*
%TO.C,C4*%
X145600000Y-55900000D03*
X145600000Y-64600000D03*
%TD*%
D27*
%TO.C,C3*%
X156200000Y-56800000D03*
X156200000Y-63900000D03*
%TD*%
M02*
