%TF.GenerationSoftware,KiCad,Pcbnew,7.0.6-0*%
%TF.CreationDate,2024-11-22T11:46:18-08:00*%
%TF.ProjectId,OuterBoard_rev2.1,4f757465-7242-46f6-9172-645f72657632,rev?*%
%TF.SameCoordinates,Original*%
%TF.FileFunction,Paste,Top*%
%TF.FilePolarity,Positive*%
%FSLAX46Y46*%
G04 Gerber Fmt 4.6, Leading zero omitted, Abs format (unit mm)*
G04 Created by KiCad (PCBNEW 7.0.6-0) date 2024-11-22 11:46:18*
%MOMM*%
%LPD*%
G01*
G04 APERTURE LIST*
G04 Aperture macros list*
%AMRoundRect*
0 Rectangle with rounded corners*
0 $1 Rounding radius*
0 $2 $3 $4 $5 $6 $7 $8 $9 X,Y pos of 4 corners*
0 Add a 4 corners polygon primitive as box body*
4,1,4,$2,$3,$4,$5,$6,$7,$8,$9,$2,$3,0*
0 Add four circle primitives for the rounded corners*
1,1,$1+$1,$2,$3*
1,1,$1+$1,$4,$5*
1,1,$1+$1,$6,$7*
1,1,$1+$1,$8,$9*
0 Add four rect primitives between the rounded corners*
20,1,$1+$1,$2,$3,$4,$5,0*
20,1,$1+$1,$4,$5,$6,$7,0*
20,1,$1+$1,$6,$7,$8,$9,0*
20,1,$1+$1,$8,$9,$2,$3,0*%
G04 Aperture macros list end*
%ADD10C,0.010000*%
%ADD11RoundRect,0.250000X-0.475000X0.250000X-0.475000X-0.250000X0.475000X-0.250000X0.475000X0.250000X0*%
%ADD12R,1.050000X1.300000*%
%ADD13RoundRect,0.250000X-0.250000X-0.475000X0.250000X-0.475000X0.250000X0.475000X-0.250000X0.475000X0*%
%ADD14RoundRect,0.079500X0.100500X-0.079500X0.100500X0.079500X-0.100500X0.079500X-0.100500X-0.079500X0*%
%ADD15RoundRect,0.250000X0.475000X-0.250000X0.475000X0.250000X-0.475000X0.250000X-0.475000X-0.250000X0*%
%ADD16RoundRect,0.250000X-0.262500X-0.450000X0.262500X-0.450000X0.262500X0.450000X-0.262500X0.450000X0*%
%ADD17RoundRect,0.045000X-1.293000X-0.180000X1.293000X-0.180000X1.293000X0.180000X-1.293000X0.180000X0*%
%ADD18RoundRect,0.046800X-1.291200X-0.187200X1.291200X-0.187200X1.291200X0.187200X-1.291200X0.187200X0*%
%ADD19RoundRect,0.049000X-1.289000X-0.196000X1.289000X-0.196000X1.289000X0.196000X-1.289000X0.196000X0*%
%ADD20R,1.050000X2.200000*%
%ADD21R,1.050000X1.000000*%
%ADD22R,1.620000X0.350000*%
%ADD23RoundRect,0.125000X0.125000X0.125000X-0.125000X0.125000X-0.125000X-0.125000X0.125000X-0.125000X0*%
%ADD24RoundRect,0.250000X0.262500X0.450000X-0.262500X0.450000X-0.262500X-0.450000X0.262500X-0.450000X0*%
%ADD25RoundRect,0.150000X-0.512500X-0.150000X0.512500X-0.150000X0.512500X0.150000X-0.512500X0.150000X0*%
%ADD26R,1.968000X0.312000*%
%ADD27R,1.968000X0.300000*%
%ADD28RoundRect,0.079500X-0.100500X0.079500X-0.100500X-0.079500X0.100500X-0.079500X0.100500X0.079500X0*%
%ADD29RoundRect,0.125000X-0.125000X-0.125000X0.125000X-0.125000X0.125000X0.125000X-0.125000X0.125000X0*%
%ADD30RoundRect,0.218750X0.256250X-0.218750X0.256250X0.218750X-0.256250X0.218750X-0.256250X-0.218750X0*%
%ADD31RoundRect,0.225000X-0.250000X0.225000X-0.250000X-0.225000X0.250000X-0.225000X0.250000X0.225000X0*%
%ADD32RoundRect,0.250000X1.000000X0.650000X-1.000000X0.650000X-1.000000X-0.650000X1.000000X-0.650000X0*%
%ADD33RoundRect,0.250000X0.450000X-0.262500X0.450000X0.262500X-0.450000X0.262500X-0.450000X-0.262500X0*%
%ADD34RoundRect,0.250000X-0.450000X0.262500X-0.450000X-0.262500X0.450000X-0.262500X0.450000X0.262500X0*%
%ADD35RoundRect,0.218750X-0.218750X-0.256250X0.218750X-0.256250X0.218750X0.256250X-0.218750X0.256250X0*%
%ADD36RoundRect,0.147500X-0.147500X-0.172500X0.147500X-0.172500X0.147500X0.172500X-0.147500X0.172500X0*%
%ADD37RoundRect,0.150000X0.587500X0.150000X-0.587500X0.150000X-0.587500X-0.150000X0.587500X-0.150000X0*%
%ADD38RoundRect,0.218750X0.218750X0.256250X-0.218750X0.256250X-0.218750X-0.256250X0.218750X-0.256250X0*%
%ADD39R,0.300000X1.494000*%
%ADD40R,1.456000X0.300000*%
%ADD41RoundRect,0.147500X0.172500X-0.147500X0.172500X0.147500X-0.172500X0.147500X-0.172500X-0.147500X0*%
%ADD42RoundRect,0.033750X-0.101250X0.721750X-0.101250X-0.721750X0.101250X-0.721750X0.101250X0.721750X0*%
%ADD43RoundRect,0.033750X-0.721750X0.101250X-0.721750X-0.101250X0.721750X-0.101250X0.721750X0.101250X0*%
%ADD44RoundRect,0.125000X-0.125000X0.125000X-0.125000X-0.125000X0.125000X-0.125000X0.125000X0.125000X0*%
%ADD45RoundRect,0.140000X-0.140000X-0.170000X0.140000X-0.170000X0.140000X0.170000X-0.140000X0.170000X0*%
%ADD46RoundRect,0.250000X0.250000X0.475000X-0.250000X0.475000X-0.250000X-0.475000X0.250000X-0.475000X0*%
%ADD47R,1.549400X0.558800*%
%ADD48R,0.660400X4.190302*%
%ADD49R,0.584200X4.190302*%
%ADD50R,0.990600X0.711200*%
%ADD51R,0.609600X1.397000*%
%ADD52R,0.199200X1.496999*%
%ADD53R,0.199198X1.496999*%
%ADD54R,1.496999X0.199200*%
%ADD55R,1.496999X0.191598*%
%ADD56R,0.191598X1.496999*%
%ADD57R,0.229600X1.496999*%
%ADD58R,1.496999X0.185599*%
%ADD59R,4.038600X4.038600*%
G04 APERTURE END LIST*
%TO.C,U2*%
D10*
X130388000Y-69069600D02*
X130390000Y-69069600D01*
X130393000Y-69070600D01*
X130395000Y-69070600D01*
X130398000Y-69071600D01*
X130400000Y-69072600D01*
X130403000Y-69073600D01*
X130405000Y-69075600D01*
X130407000Y-69076600D01*
X130409000Y-69078600D01*
X130411000Y-69079600D01*
X130413000Y-69081600D01*
X130415000Y-69083600D01*
X130417000Y-69085600D01*
X130419000Y-69087600D01*
X130420000Y-69089600D01*
X130422000Y-69091600D01*
X130423000Y-69093600D01*
X130425000Y-69095600D01*
X130426000Y-69098600D01*
X130427000Y-69100600D01*
X130428000Y-69103600D01*
X130428000Y-69105600D01*
X130429000Y-69108600D01*
X130429000Y-69110600D01*
X130430000Y-69113600D01*
X130430000Y-69115600D01*
X130430000Y-69118600D01*
X130430000Y-71658600D01*
X130430000Y-71661600D01*
X130430000Y-71663600D01*
X130429000Y-71666600D01*
X130429000Y-71668600D01*
X130428000Y-71671600D01*
X130428000Y-71673600D01*
X130427000Y-71676600D01*
X130426000Y-71678600D01*
X130425000Y-71681600D01*
X130423000Y-71683600D01*
X130422000Y-71685600D01*
X130420000Y-71687600D01*
X130419000Y-71689600D01*
X130417000Y-71691600D01*
X130415000Y-71693600D01*
X130413000Y-71695600D01*
X130411000Y-71697600D01*
X130409000Y-71698600D01*
X130407000Y-71700600D01*
X130405000Y-71701600D01*
X130403000Y-71703600D01*
X130400000Y-71704600D01*
X130398000Y-71705600D01*
X130395000Y-71706600D01*
X130393000Y-71706600D01*
X130390000Y-71707600D01*
X130388000Y-71707600D01*
X130385000Y-71708600D01*
X130383000Y-71708600D01*
X130380000Y-71708600D01*
X127980000Y-71708600D01*
X127977000Y-71708600D01*
X127975000Y-71708600D01*
X127972000Y-71707600D01*
X127970000Y-71707600D01*
X127967000Y-71706600D01*
X127965000Y-71706600D01*
X127962000Y-71705600D01*
X127960000Y-71704600D01*
X127957000Y-71703600D01*
X127955000Y-71701600D01*
X127953000Y-71700600D01*
X127951000Y-71698600D01*
X127949000Y-71697600D01*
X127947000Y-71695600D01*
X127945000Y-71693600D01*
X127943000Y-71691600D01*
X127941000Y-71689600D01*
X127940000Y-71687600D01*
X127938000Y-71685600D01*
X127937000Y-71683600D01*
X127935000Y-71681600D01*
X127934000Y-71678600D01*
X127933000Y-71676600D01*
X127932000Y-71673600D01*
X127932000Y-71671600D01*
X127931000Y-71668600D01*
X127931000Y-71666600D01*
X127930000Y-71663600D01*
X127930000Y-71661600D01*
X127930000Y-71658600D01*
X127930000Y-69118600D01*
X127930000Y-69115600D01*
X127930000Y-69113600D01*
X127931000Y-69110600D01*
X127931000Y-69108600D01*
X127932000Y-69105600D01*
X127932000Y-69103600D01*
X127933000Y-69100600D01*
X127934000Y-69098600D01*
X127935000Y-69095600D01*
X127937000Y-69093600D01*
X127938000Y-69091600D01*
X127940000Y-69089600D01*
X127941000Y-69087600D01*
X127943000Y-69085600D01*
X127945000Y-69083600D01*
X127947000Y-69081600D01*
X127949000Y-69079600D01*
X127951000Y-69078600D01*
X127953000Y-69076600D01*
X127955000Y-69075600D01*
X127957000Y-69073600D01*
X127960000Y-69072600D01*
X127962000Y-69071600D01*
X127965000Y-69070600D01*
X127967000Y-69070600D01*
X127970000Y-69069600D01*
X127972000Y-69069600D01*
X127975000Y-69068600D01*
X127977000Y-69068600D01*
X127980000Y-69068600D01*
X130380000Y-69068600D01*
X130383000Y-69068600D01*
X130385000Y-69068600D01*
X130388000Y-69069600D01*
G36*
X130388000Y-69069600D02*
G01*
X130390000Y-69069600D01*
X130393000Y-69070600D01*
X130395000Y-69070600D01*
X130398000Y-69071600D01*
X130400000Y-69072600D01*
X130403000Y-69073600D01*
X130405000Y-69075600D01*
X130407000Y-69076600D01*
X130409000Y-69078600D01*
X130411000Y-69079600D01*
X130413000Y-69081600D01*
X130415000Y-69083600D01*
X130417000Y-69085600D01*
X130419000Y-69087600D01*
X130420000Y-69089600D01*
X130422000Y-69091600D01*
X130423000Y-69093600D01*
X130425000Y-69095600D01*
X130426000Y-69098600D01*
X130427000Y-69100600D01*
X130428000Y-69103600D01*
X130428000Y-69105600D01*
X130429000Y-69108600D01*
X130429000Y-69110600D01*
X130430000Y-69113600D01*
X130430000Y-69115600D01*
X130430000Y-69118600D01*
X130430000Y-71658600D01*
X130430000Y-71661600D01*
X130430000Y-71663600D01*
X130429000Y-71666600D01*
X130429000Y-71668600D01*
X130428000Y-71671600D01*
X130428000Y-71673600D01*
X130427000Y-71676600D01*
X130426000Y-71678600D01*
X130425000Y-71681600D01*
X130423000Y-71683600D01*
X130422000Y-71685600D01*
X130420000Y-71687600D01*
X130419000Y-71689600D01*
X130417000Y-71691600D01*
X130415000Y-71693600D01*
X130413000Y-71695600D01*
X130411000Y-71697600D01*
X130409000Y-71698600D01*
X130407000Y-71700600D01*
X130405000Y-71701600D01*
X130403000Y-71703600D01*
X130400000Y-71704600D01*
X130398000Y-71705600D01*
X130395000Y-71706600D01*
X130393000Y-71706600D01*
X130390000Y-71707600D01*
X130388000Y-71707600D01*
X130385000Y-71708600D01*
X130383000Y-71708600D01*
X130380000Y-71708600D01*
X127980000Y-71708600D01*
X127977000Y-71708600D01*
X127975000Y-71708600D01*
X127972000Y-71707600D01*
X127970000Y-71707600D01*
X127967000Y-71706600D01*
X127965000Y-71706600D01*
X127962000Y-71705600D01*
X127960000Y-71704600D01*
X127957000Y-71703600D01*
X127955000Y-71701600D01*
X127953000Y-71700600D01*
X127951000Y-71698600D01*
X127949000Y-71697600D01*
X127947000Y-71695600D01*
X127945000Y-71693600D01*
X127943000Y-71691600D01*
X127941000Y-71689600D01*
X127940000Y-71687600D01*
X127938000Y-71685600D01*
X127937000Y-71683600D01*
X127935000Y-71681600D01*
X127934000Y-71678600D01*
X127933000Y-71676600D01*
X127932000Y-71673600D01*
X127932000Y-71671600D01*
X127931000Y-71668600D01*
X127931000Y-71666600D01*
X127930000Y-71663600D01*
X127930000Y-71661600D01*
X127930000Y-71658600D01*
X127930000Y-69118600D01*
X127930000Y-69115600D01*
X127930000Y-69113600D01*
X127931000Y-69110600D01*
X127931000Y-69108600D01*
X127932000Y-69105600D01*
X127932000Y-69103600D01*
X127933000Y-69100600D01*
X127934000Y-69098600D01*
X127935000Y-69095600D01*
X127937000Y-69093600D01*
X127938000Y-69091600D01*
X127940000Y-69089600D01*
X127941000Y-69087600D01*
X127943000Y-69085600D01*
X127945000Y-69083600D01*
X127947000Y-69081600D01*
X127949000Y-69079600D01*
X127951000Y-69078600D01*
X127953000Y-69076600D01*
X127955000Y-69075600D01*
X127957000Y-69073600D01*
X127960000Y-69072600D01*
X127962000Y-69071600D01*
X127965000Y-69070600D01*
X127967000Y-69070600D01*
X127970000Y-69069600D01*
X127972000Y-69069600D01*
X127975000Y-69068600D01*
X127977000Y-69068600D01*
X127980000Y-69068600D01*
X130380000Y-69068600D01*
X130383000Y-69068600D01*
X130385000Y-69068600D01*
X130388000Y-69069600D01*
G37*
%TO.C,J10*%
X177431800Y-129611200D02*
X177081800Y-129611200D01*
X177081800Y-130411200D01*
X175481800Y-130411200D01*
X175481800Y-128311200D01*
X177431800Y-128311200D01*
X177431800Y-129611200D01*
G36*
X177431800Y-129611200D02*
G01*
X177081800Y-129611200D01*
X177081800Y-130411200D01*
X175481800Y-130411200D01*
X175481800Y-128311200D01*
X177431800Y-128311200D01*
X177431800Y-129611200D01*
G37*
X177081800Y-113111200D02*
X177431800Y-113111200D01*
X177431800Y-114411200D01*
X175481800Y-114411200D01*
X175481800Y-112311200D01*
X177081800Y-112311200D01*
X177081800Y-113111200D01*
G36*
X177081800Y-113111200D02*
G01*
X177431800Y-113111200D01*
X177431800Y-114411200D01*
X175481800Y-114411200D01*
X175481800Y-112311200D01*
X177081800Y-112311200D01*
X177081800Y-113111200D01*
G37*
%TO.C,U7*%
X100495600Y-125932000D02*
X98335600Y-125932000D01*
X98335600Y-123772000D01*
X100495600Y-123772000D01*
X100495600Y-125932000D01*
G36*
X100495600Y-125932000D02*
G01*
X98335600Y-125932000D01*
X98335600Y-123772000D01*
X100495600Y-123772000D01*
X100495600Y-125932000D01*
G37*
%TO.C,U9*%
G36*
X128255900Y-121275899D02*
G01*
X127109700Y-121275899D01*
X127109700Y-120129699D01*
X128255900Y-120129699D01*
X128255900Y-121275899D01*
G37*
G36*
X126909700Y-121275899D02*
G01*
X125763500Y-121275899D01*
X125763500Y-120129699D01*
X126909700Y-120129699D01*
X126909700Y-121275899D01*
G37*
G36*
X125563500Y-121275899D02*
G01*
X124417300Y-121275899D01*
X124417300Y-120129699D01*
X125563500Y-120129699D01*
X125563500Y-121275899D01*
G37*
G36*
X128255900Y-122622099D02*
G01*
X127109700Y-122622099D01*
X127109700Y-121475899D01*
X128255900Y-121475899D01*
X128255900Y-122622099D01*
G37*
G36*
X126909700Y-122622099D02*
G01*
X125763500Y-122622099D01*
X125763500Y-121475899D01*
X126909700Y-121475899D01*
X126909700Y-122622099D01*
G37*
G36*
X125563500Y-122622099D02*
G01*
X124417300Y-122622099D01*
X124417300Y-121475899D01*
X125563500Y-121475899D01*
X125563500Y-122622099D01*
G37*
G36*
X128255900Y-123968299D02*
G01*
X127109700Y-123968299D01*
X127109700Y-122822099D01*
X128255900Y-122822099D01*
X128255900Y-123968299D01*
G37*
G36*
X126909700Y-123968299D02*
G01*
X125763500Y-123968299D01*
X125763500Y-122822099D01*
X126909700Y-122822099D01*
X126909700Y-123968299D01*
G37*
G36*
X125563500Y-123968299D02*
G01*
X124417300Y-123968299D01*
X124417300Y-122822099D01*
X125563500Y-122822099D01*
X125563500Y-123968299D01*
G37*
%TD*%
D11*
%TO.C,C16*%
X170357800Y-65809500D03*
X170357800Y-67709500D03*
%TD*%
D12*
%TO.C,Y1*%
X135029000Y-119532400D03*
X135029000Y-121832400D03*
X136779000Y-121832400D03*
X136779000Y-119532400D03*
%TD*%
D13*
%TO.C,C32*%
X132806400Y-125425200D03*
X134706400Y-125425200D03*
%TD*%
D11*
%TO.C,C27*%
X173380400Y-76071100D03*
X173380400Y-77971100D03*
%TD*%
D14*
%TO.C,C43*%
X139547600Y-121035200D03*
X139547600Y-120345200D03*
%TD*%
D15*
%TO.C,C12*%
X163982400Y-110322400D03*
X163982400Y-108422400D03*
%TD*%
D16*
%TO.C,R13*%
X99571800Y-109829600D03*
X101396800Y-109829600D03*
%TD*%
D17*
%TO.C,U2*%
X125692000Y-68113600D03*
X125692000Y-68763600D03*
X125692000Y-69413600D03*
X125692000Y-70063600D03*
X125692000Y-70713600D03*
X125692000Y-71363600D03*
X125692000Y-72013600D03*
D18*
X125692000Y-72654600D03*
D17*
X132668000Y-72663600D03*
X132668000Y-72013600D03*
X132668000Y-71363600D03*
X132668000Y-70713600D03*
X132668000Y-70063600D03*
X132668000Y-69413600D03*
X132668000Y-68763600D03*
D19*
X132668000Y-68093600D03*
%TD*%
D13*
%TO.C,C7*%
X89829600Y-97536000D03*
X91729600Y-97536000D03*
%TD*%
D15*
%TO.C,C9*%
X158953200Y-110347800D03*
X158953200Y-108447800D03*
%TD*%
D14*
%TO.C,C31*%
X125501400Y-81081000D03*
X125501400Y-80391000D03*
%TD*%
D11*
%TO.C,C40*%
X113944400Y-108966000D03*
X113944400Y-110866000D03*
%TD*%
D20*
%TO.C,ANT1*%
X127506200Y-109041200D03*
X130456200Y-109041200D03*
D21*
X128981200Y-110566200D03*
%TD*%
D11*
%TO.C,C39*%
X111048800Y-108966000D03*
X111048800Y-110866000D03*
%TD*%
D22*
%TO.C,J42*%
X89211700Y-121252800D03*
X89211700Y-121752800D03*
X89211700Y-122252800D03*
X89211700Y-122752800D03*
X89211700Y-123252800D03*
X89211700Y-123752800D03*
X89211700Y-124252800D03*
X89211700Y-124752800D03*
X89211700Y-125252800D03*
X89211700Y-125752800D03*
X89211700Y-126252800D03*
X89211700Y-126752800D03*
%TD*%
D11*
%TO.C,C24*%
X169900600Y-85418300D03*
X169900600Y-87318300D03*
%TD*%
%TO.C,C20*%
X148539200Y-76198100D03*
X148539200Y-78098100D03*
%TD*%
%TO.C,C21*%
X151866600Y-85621500D03*
X151866600Y-87521500D03*
%TD*%
%TO.C,FB1*%
X150215600Y-112064800D03*
X150215600Y-113964800D03*
%TD*%
D23*
%TO.C,D15*%
X112471200Y-100787200D03*
X110271200Y-100787200D03*
%TD*%
D11*
%TO.C,C37*%
X117181700Y-104140000D03*
X117181700Y-106040000D03*
%TD*%
%TO.C,C23*%
X111709200Y-121158000D03*
X111709200Y-123058000D03*
%TD*%
D24*
%TO.C,R20*%
X112268000Y-97180400D03*
X110443000Y-97180400D03*
%TD*%
D25*
%TO.C,U3*%
X99344900Y-105476000D03*
X99344900Y-106426000D03*
X99344900Y-107376000D03*
X101619900Y-107376000D03*
X101619900Y-105476000D03*
%TD*%
D11*
%TO.C,C11*%
X145643600Y-65911100D03*
X145643600Y-67811100D03*
%TD*%
%TO.C,C8*%
X95351600Y-97129600D03*
X95351600Y-99029600D03*
%TD*%
D16*
%TO.C,R6*%
X154461200Y-114782600D03*
X156286200Y-114782600D03*
%TD*%
D26*
%TO.C,J10*%
X174897800Y-127105200D03*
D27*
X174897800Y-126611200D03*
X174897800Y-126111200D03*
X174897800Y-125611200D03*
X174897800Y-125111200D03*
X174897800Y-124611200D03*
X174897800Y-124111200D03*
X174897800Y-123611200D03*
X174897800Y-123111200D03*
X174897800Y-122611200D03*
X174897800Y-122111200D03*
X174897800Y-121611200D03*
X174897800Y-121111200D03*
X174897800Y-120611200D03*
X174897800Y-120111200D03*
X174897800Y-119611200D03*
X174897800Y-119111200D03*
X174897800Y-118611200D03*
X174897800Y-118111200D03*
X174897800Y-117611200D03*
X174897800Y-117111200D03*
X174897800Y-116611200D03*
X174897800Y-116111200D03*
X174897800Y-115611200D03*
%TD*%
D28*
%TO.C,C45*%
X132486400Y-120142000D03*
X132486400Y-120832000D03*
%TD*%
D29*
%TO.C,D2*%
X94751800Y-71424800D03*
X96951800Y-71424800D03*
%TD*%
D30*
%TO.C,D11*%
X178790600Y-90242600D03*
X178790600Y-88667600D03*
%TD*%
D24*
%TO.C,R3*%
X121869200Y-69342000D03*
X120044200Y-69342000D03*
%TD*%
D13*
%TO.C,C42*%
X132872400Y-128930400D03*
X134772400Y-128930400D03*
%TD*%
D29*
%TO.C,D3*%
X100017400Y-65125600D03*
X102217400Y-65125600D03*
%TD*%
D31*
%TO.C,C5*%
X143230600Y-72440800D03*
X143230600Y-73990800D03*
%TD*%
D32*
%TO.C,D7*%
X169970200Y-114731800D03*
X165970200Y-114731800D03*
%TD*%
D33*
%TO.C,R23*%
X178689000Y-85668500D03*
X178689000Y-83843500D03*
%TD*%
%TO.C,R7*%
X153314400Y-129360300D03*
X153314400Y-127535300D03*
%TD*%
D34*
%TO.C,R26*%
X104800400Y-132334000D03*
X104800400Y-134159000D03*
%TD*%
D35*
%TO.C,D13*%
X94691000Y-105156000D03*
X96266000Y-105156000D03*
%TD*%
%TO.C,D9*%
X113309200Y-133756400D03*
X114884200Y-133756400D03*
%TD*%
D24*
%TO.C,R25*%
X96418400Y-102158800D03*
X94593400Y-102158800D03*
%TD*%
D36*
%TO.C,L2*%
X120645200Y-105054400D03*
X121615200Y-105054400D03*
%TD*%
D14*
%TO.C,C30*%
X121945400Y-81117000D03*
X121945400Y-80427000D03*
%TD*%
D33*
%TO.C,R8*%
X153314400Y-133473200D03*
X153314400Y-131648200D03*
%TD*%
D11*
%TO.C,C29*%
X124307600Y-94513400D03*
X124307600Y-96413400D03*
%TD*%
D15*
%TO.C,C14*%
X158394400Y-133487200D03*
X158394400Y-131587200D03*
%TD*%
D25*
%TO.C,U4*%
X156957600Y-65946700D03*
X156957600Y-66896700D03*
X156957600Y-67846700D03*
X159232600Y-67846700D03*
X159232600Y-65946700D03*
%TD*%
D11*
%TO.C,C4*%
X90855800Y-93319600D03*
X90855800Y-95219600D03*
%TD*%
%TO.C,C26*%
X173609000Y-85367500D03*
X173609000Y-87267500D03*
%TD*%
D33*
%TO.C,R4*%
X104343200Y-107285800D03*
X104343200Y-105460800D03*
%TD*%
D24*
%TO.C,R5*%
X168427400Y-133121400D03*
X166602400Y-133121400D03*
%TD*%
D37*
%TO.C,U6*%
X161911200Y-77767900D03*
X161911200Y-75867900D03*
X160036200Y-76817900D03*
%TD*%
D11*
%TO.C,C25*%
X169672000Y-76041500D03*
X169672000Y-77941500D03*
%TD*%
D13*
%TO.C,C2*%
X112374600Y-68453000D03*
X114274600Y-68453000D03*
%TD*%
D11*
%TO.C,C41*%
X117144800Y-108955800D03*
X117144800Y-110855800D03*
%TD*%
%TO.C,C36*%
X113893600Y-104114600D03*
X113893600Y-106014600D03*
%TD*%
D33*
%TO.C,R24*%
X178308000Y-75483000D03*
X178308000Y-73658000D03*
%TD*%
D16*
%TO.C,R27*%
X92610300Y-133908800D03*
X94435300Y-133908800D03*
%TD*%
D38*
%TO.C,D14*%
X116535200Y-101396800D03*
X114960200Y-101396800D03*
%TD*%
D34*
%TO.C,R31*%
X124460000Y-128219200D03*
X124460000Y-130044200D03*
%TD*%
D13*
%TO.C,C18*%
X154320200Y-124206000D03*
X156220200Y-124206000D03*
%TD*%
D33*
%TO.C,R9*%
X149021800Y-129383800D03*
X149021800Y-127558800D03*
%TD*%
D34*
%TO.C,R10*%
X148996400Y-131673600D03*
X148996400Y-133498600D03*
%TD*%
D11*
%TO.C,C22*%
X152095200Y-76198100D03*
X152095200Y-78098100D03*
%TD*%
D16*
%TO.C,R14*%
X103432600Y-109829600D03*
X105257600Y-109829600D03*
%TD*%
%TO.C,R18*%
X130305800Y-90043000D03*
X132130800Y-90043000D03*
%TD*%
D39*
%TO.C,U8*%
X121573900Y-87780800D03*
D40*
X120995900Y-89077800D03*
X120995900Y-89577800D03*
X120995900Y-90077800D03*
X120995900Y-90577800D03*
D39*
X121573900Y-91874800D03*
X122073900Y-91874800D03*
X122573900Y-91874800D03*
X123073900Y-91874800D03*
X123573900Y-91874800D03*
X124073900Y-91874800D03*
X124573900Y-91874800D03*
X125073900Y-91874800D03*
X125573900Y-91874800D03*
X126073900Y-91874800D03*
D40*
X126651900Y-90577800D03*
X126651900Y-90077800D03*
X126651900Y-89577800D03*
X126651900Y-89077800D03*
D39*
X126073900Y-87780800D03*
X125573900Y-87780800D03*
X125073900Y-87780800D03*
X124573900Y-87780800D03*
X124073900Y-87780800D03*
X123573900Y-87780800D03*
X123073900Y-87780800D03*
X122573900Y-87780800D03*
X122073900Y-87780800D03*
%TD*%
D11*
%TO.C,C38*%
X124891800Y-104165400D03*
X124891800Y-106065400D03*
%TD*%
D41*
%TO.C,L1*%
X128981200Y-115219200D03*
X128981200Y-114249200D03*
%TD*%
D16*
%TO.C,R15*%
X113287800Y-130352800D03*
X115112800Y-130352800D03*
%TD*%
D24*
%TO.C,R16*%
X112316900Y-88696800D03*
X110491900Y-88696800D03*
%TD*%
D42*
%TO.C,U7*%
X101165600Y-122051500D03*
X100665600Y-122051500D03*
X100165600Y-122051500D03*
X99665600Y-122051500D03*
X99165600Y-122051500D03*
X98665600Y-122051500D03*
X98165600Y-122051500D03*
X97665600Y-122051500D03*
D43*
X96615100Y-123102000D03*
X96615100Y-123602000D03*
X96615100Y-124102000D03*
X96615100Y-124602000D03*
X96615100Y-125102000D03*
X96615100Y-125602000D03*
X96615100Y-126102000D03*
X96615100Y-126602000D03*
D42*
X97665600Y-127652500D03*
X98165600Y-127652500D03*
X98665600Y-127652500D03*
X99165600Y-127652500D03*
X99665600Y-127652500D03*
X100165600Y-127652500D03*
X100665600Y-127652500D03*
X101165600Y-127652500D03*
D43*
X102216100Y-126602000D03*
X102216100Y-126102000D03*
X102216100Y-125602000D03*
X102216100Y-125102000D03*
X102216100Y-124602000D03*
X102216100Y-124102000D03*
X102216100Y-123602000D03*
X102216100Y-123102000D03*
%TD*%
D44*
%TO.C,D8*%
X108458000Y-104343200D03*
X108458000Y-106543200D03*
%TD*%
D24*
%TO.C,R2*%
X121843800Y-72796400D03*
X120018800Y-72796400D03*
%TD*%
D29*
%TO.C,D1*%
X94777200Y-65151000D03*
X96977200Y-65151000D03*
%TD*%
D45*
%TO.C,C35*%
X128986400Y-116662200D03*
X129946400Y-116662200D03*
%TD*%
D46*
%TO.C,C44*%
X146669800Y-90551000D03*
X144769800Y-90551000D03*
%TD*%
D47*
%TO.C,U11*%
X138455400Y-97155000D03*
X138455400Y-98425000D03*
X138455400Y-99695000D03*
X138455400Y-100965000D03*
X145719800Y-100965000D03*
X145719800Y-99695000D03*
X145719800Y-98425000D03*
X145719800Y-97155000D03*
%TD*%
D25*
%TO.C,U5*%
X159904000Y-85636700D03*
X159904000Y-86586700D03*
X159904000Y-87536700D03*
X162179000Y-87536700D03*
X162179000Y-85636700D03*
%TD*%
D30*
%TO.C,D12*%
X178409600Y-80059000D03*
X178409600Y-78484000D03*
%TD*%
D11*
%TO.C,C10*%
X149174200Y-65926300D03*
X149174200Y-67826300D03*
%TD*%
D16*
%TO.C,R1*%
X99593400Y-93853000D03*
X101418400Y-93853000D03*
%TD*%
D15*
%TO.C,C3*%
X90830400Y-90571400D03*
X90830400Y-88671400D03*
%TD*%
D35*
%TO.C,D10*%
X173431000Y-70408800D03*
X175006000Y-70408800D03*
%TD*%
D11*
%TO.C,C19*%
X148259800Y-85632100D03*
X148259800Y-87532100D03*
%TD*%
D15*
%TO.C,C17*%
X158343600Y-129372400D03*
X158343600Y-127472400D03*
%TD*%
D16*
%TO.C,R19*%
X137339700Y-129794000D03*
X139164700Y-129794000D03*
%TD*%
D11*
%TO.C,C13*%
X166878000Y-65824700D03*
X166878000Y-67724700D03*
%TD*%
D23*
%TO.C,D5*%
X93522800Y-77724000D03*
X91322800Y-77724000D03*
%TD*%
D16*
%TO.C,R17*%
X110593500Y-93573600D03*
X112418500Y-93573600D03*
%TD*%
D23*
%TO.C,D6*%
X93505200Y-81432400D03*
X91305200Y-81432400D03*
%TD*%
D48*
%TO.C,J11*%
X165430200Y-96545749D03*
X166700200Y-96545749D03*
X167970200Y-96545749D03*
X169240200Y-96545749D03*
X170510200Y-96545749D03*
X165430200Y-102007447D03*
X166700200Y-102007447D03*
X167970200Y-102007447D03*
D49*
X169202100Y-102007447D03*
D48*
X170510200Y-102007447D03*
%TD*%
D50*
%TO.C,SW2*%
X114393150Y-119346401D03*
X118893152Y-119346401D03*
X114393150Y-121496399D03*
X118893152Y-121496399D03*
%TD*%
D13*
%TO.C,C1*%
X112374600Y-63474600D03*
X114274600Y-63474600D03*
%TD*%
D25*
%TO.C,U1*%
X94499000Y-93294200D03*
X94499000Y-94244200D03*
X94499000Y-95194200D03*
X96774000Y-95194200D03*
X96774000Y-93294200D03*
%TD*%
D45*
%TO.C,C33*%
X128986400Y-112674400D03*
X129946400Y-112674400D03*
%TD*%
D23*
%TO.C,D4*%
X102260400Y-71450200D03*
X100060400Y-71450200D03*
%TD*%
D24*
%TO.C,R12*%
X118819300Y-124333000D03*
X116994300Y-124333000D03*
%TD*%
D50*
%TO.C,SW1*%
X114393150Y-114575301D03*
X118893152Y-114575301D03*
X114393150Y-116725299D03*
X118893152Y-116725299D03*
%TD*%
D24*
%TO.C,R22*%
X170942000Y-71424800D03*
X169117000Y-71424800D03*
%TD*%
D11*
%TO.C,C34*%
X111099600Y-104140000D03*
X111099600Y-106040000D03*
%TD*%
D34*
%TO.C,R11*%
X128498600Y-128221100D03*
X128498600Y-130046100D03*
%TD*%
D46*
%TO.C,C28*%
X117866200Y-90500200D03*
X115966200Y-90500200D03*
%TD*%
D51*
%TO.C,XTAL1*%
X124841000Y-83794600D03*
X122453400Y-83794600D03*
%TD*%
D46*
%TO.C,C15*%
X163779200Y-133197600D03*
X161879200Y-133197600D03*
%TD*%
D52*
%TO.C,U9*%
X128936600Y-118225499D03*
D53*
X128536600Y-118225499D03*
D52*
X128136599Y-118225499D03*
X127736600Y-118225499D03*
X127336601Y-118225499D03*
X126936599Y-118225499D03*
X126536600Y-118225499D03*
X126136600Y-118225499D03*
X125736601Y-118225499D03*
X125336599Y-118225499D03*
X124936600Y-118225499D03*
X124536601Y-118225499D03*
X124136599Y-118225499D03*
X123736600Y-118225499D03*
D54*
X122513100Y-119448999D03*
X122513100Y-119848998D03*
X122513100Y-120249000D03*
X122513100Y-120648999D03*
X122513100Y-121048998D03*
D55*
X122513100Y-121445200D03*
D54*
X122513100Y-121848999D03*
X122513100Y-122248999D03*
X122513100Y-122648998D03*
X122513100Y-123049000D03*
X122513100Y-123448999D03*
X122513100Y-123848998D03*
X122513100Y-124249000D03*
X122513100Y-124648999D03*
D52*
X123736600Y-125872499D03*
X124136599Y-125872499D03*
X124536601Y-125872499D03*
X124936600Y-125872499D03*
X125336599Y-125872499D03*
X125736601Y-125872499D03*
X126136600Y-125872499D03*
X126536600Y-125872499D03*
D56*
X126940399Y-125872499D03*
D52*
X127336601Y-125872499D03*
D57*
X127721400Y-125872499D03*
D52*
X128136599Y-125872499D03*
X128536601Y-125872499D03*
X128936600Y-125872499D03*
D54*
X130160100Y-124648999D03*
D58*
X130160100Y-124242199D03*
D54*
X130160100Y-123848998D03*
X130160100Y-123448999D03*
X130160100Y-123049000D03*
X130160100Y-122648998D03*
X130160100Y-122248999D03*
X130160100Y-121848999D03*
X130160100Y-121449000D03*
X130160100Y-121048998D03*
X130160100Y-120648999D03*
X130160100Y-120249000D03*
X130160100Y-119848998D03*
X130160100Y-119448999D03*
D59*
X126336600Y-122048999D03*
%TD*%
M02*
