%TF.GenerationSoftware,KiCad,Pcbnew,7.0.6-0*%
%TF.CreationDate,2024-11-22T11:46:18-08:00*%
%TF.ProjectId,OuterBoard_rev2.1,4f757465-7242-46f6-9172-645f72657632,rev?*%
%TF.SameCoordinates,Original*%
%TF.FileFunction,Copper,L4,Bot*%
%TF.FilePolarity,Positive*%
%FSLAX46Y46*%
G04 Gerber Fmt 4.6, Leading zero omitted, Abs format (unit mm)*
G04 Created by KiCad (PCBNEW 7.0.6-0) date 2024-11-22 11:46:18*
%MOMM*%
%LPD*%
G01*
G04 APERTURE LIST*
%TA.AperFunction,ComponentPad*%
%ADD10R,1.530000X1.530000*%
%TD*%
%TA.AperFunction,ComponentPad*%
%ADD11C,1.530000*%
%TD*%
%TA.AperFunction,ComponentPad*%
%ADD12C,0.550000*%
%TD*%
%TA.AperFunction,ComponentPad*%
%ADD13C,0.700000*%
%TD*%
%TA.AperFunction,ComponentPad*%
%ADD14O,2.000000X1.000000*%
%TD*%
%TA.AperFunction,ComponentPad*%
%ADD15R,1.508000X1.508000*%
%TD*%
%TA.AperFunction,ComponentPad*%
%ADD16C,1.508000*%
%TD*%
%TA.AperFunction,ComponentPad*%
%ADD17C,3.396000*%
%TD*%
%TA.AperFunction,ComponentPad*%
%ADD18R,2.000000X2.000000*%
%TD*%
%TA.AperFunction,ComponentPad*%
%ADD19R,0.850000X0.850000*%
%TD*%
%TA.AperFunction,ComponentPad*%
%ADD20C,0.850000*%
%TD*%
%TA.AperFunction,ComponentPad*%
%ADD21R,1.600000X1.600000*%
%TD*%
%TA.AperFunction,ComponentPad*%
%ADD22C,1.600000*%
%TD*%
%TA.AperFunction,ViaPad*%
%ADD23C,0.550000*%
%TD*%
%TA.AperFunction,ViaPad*%
%ADD24C,0.609600*%
%TD*%
%TA.AperFunction,Conductor*%
%ADD25C,0.300000*%
%TD*%
%TA.AperFunction,Conductor*%
%ADD26C,0.254000*%
%TD*%
%TA.AperFunction,Conductor*%
%ADD27C,0.200000*%
%TD*%
G04 APERTURE END LIST*
D10*
%TO.P,J14,01,01*%
%TO.N,VCC*%
X97993200Y-89560400D03*
D11*
%TO.P,J14,02,02*%
%TO.N,Net-(U1-V_{DD})*%
X95453200Y-89560400D03*
%TD*%
D10*
%TO.P,J27,01,01*%
%TO.N,BNO_SDA*%
X117881400Y-128574800D03*
D11*
%TO.P,J27,02,02*%
%TO.N,GPIO33*%
X120421400Y-128574800D03*
%TD*%
D10*
%TO.P,J5,01,01*%
%TO.N,Net-(U2-BOUT1)*%
X124496900Y-62509400D03*
D11*
%TO.P,J5,02,02*%
%TO.N,Net-(U2-BOUT2)*%
X127036900Y-62509400D03*
%TD*%
D12*
%TO.P,U2,18_1*%
%TO.N,N/C*%
X128180000Y-68588600D03*
%TO.P,U2,18_2*%
X128180000Y-69788600D03*
%TO.P,U2,18_3*%
X128180000Y-70988600D03*
%TO.P,U2,18_4*%
X128180000Y-72188600D03*
%TO.P,U2,18_5*%
X129180000Y-68588600D03*
%TO.P,U2,18_6*%
X129180000Y-69788600D03*
%TO.P,U2,18_7*%
X129180000Y-70988600D03*
%TO.P,U2,18_8*%
X129180000Y-72188600D03*
%TO.P,U2,18_9*%
X130180000Y-68588600D03*
%TO.P,U2,18_10*%
X130180000Y-69788600D03*
%TO.P,U2,18_11*%
X130180000Y-70988600D03*
%TO.P,U2,18_12*%
X130180000Y-72188600D03*
%TD*%
D10*
%TO.P,J13,01,01*%
%TO.N,+BATT*%
X96570800Y-110298300D03*
D11*
%TO.P,J13,02,02*%
%TO.N,Net-(J13-Pad02)*%
X96570800Y-107758300D03*
%TD*%
D13*
%TO.P,J42,B1,GND__2*%
%TO.N,GND*%
X87641700Y-127052800D03*
%TO.P,J42,B2,SSTXP2*%
%TO.N,unconnected-(J42-SSTXP2-PadB2)*%
X86941700Y-126402800D03*
%TO.P,J42,B3,SSTXN2*%
%TO.N,unconnected-(J42-SSTXN2-PadB3)*%
X86941700Y-125602800D03*
%TO.P,J42,B4,VBUS__2*%
%TO.N,+5V*%
X87641700Y-125202800D03*
%TO.P,J42,B5,CC2*%
%TO.N,Net-(J42-CC2)*%
X86941700Y-124802800D03*
%TO.P,J42,B6,DP2*%
%TO.N,Net-(J42-DN2)*%
X87641700Y-124402800D03*
%TO.P,J42,B7,DN2*%
X87641700Y-123602800D03*
%TO.P,J42,B8,SBU2*%
%TO.N,unconnected-(J42-SBU2-PadB8)*%
X86941700Y-123202800D03*
%TO.P,J42,B9,VBUS__3*%
%TO.N,+5V*%
X87641700Y-122802800D03*
%TO.P,J42,B10,SSRXN1*%
%TO.N,unconnected-(J42-SSRXN1-PadB10)*%
X86941700Y-122402800D03*
%TO.P,J42,B11,SSRXP1*%
%TO.N,unconnected-(J42-SSRXP1-PadB11)*%
X86941700Y-121602800D03*
%TO.P,J42,B12,GND__3*%
%TO.N,GND*%
X87641700Y-120952800D03*
D14*
%TO.P,J42,SH1,SHIELD*%
X88441700Y-119502800D03*
%TO.P,J42,SH2,SHIELD__1*%
X88441700Y-128502800D03*
%TO.P,J42,SH3,SHIELD__2*%
X82841700Y-119502800D03*
%TO.P,J42,SH4,SHIELD__3*%
X82841700Y-128502800D03*
%TD*%
D10*
%TO.P,J16,01,01*%
%TO.N,DRV_FAULT*%
X139344400Y-133629400D03*
D11*
%TO.P,J16,02,02*%
%TO.N,GPIO37*%
X136804400Y-133629400D03*
%TD*%
D15*
%TO.P,J44,1,VCC*%
%TO.N,+5V*%
X91726100Y-104167550D03*
D16*
%TO.P,J44,2,D-*%
%TO.N,Net-(J44-D-)*%
X91726100Y-106667550D03*
%TO.P,J44,3,D+*%
%TO.N,Net-(J44-D+)*%
X91726100Y-108667550D03*
%TO.P,J44,4,GND*%
%TO.N,GND*%
X91726100Y-111167550D03*
D17*
%TO.P,J44,SH1,SHIELD*%
X89016100Y-101097550D03*
%TO.P,J44,SH2,SHIELD__1*%
X89016100Y-114237550D03*
%TD*%
D10*
%TO.P,J22,01,01*%
%TO.N,Net-(U5-VOUT)*%
X166293800Y-87805900D03*
D11*
%TO.P,J22,02,02*%
%TO.N,+1V8*%
X166293800Y-85265900D03*
%TD*%
D10*
%TO.P,J35,01,01*%
%TO.N,+3.3V*%
X108672700Y-122682000D03*
D11*
%TO.P,J35,02,02*%
%TO.N,Net-(U7-VCC)*%
X106132700Y-122682000D03*
%TD*%
D10*
%TO.P,J31,01,01*%
%TO.N,D0{slash}A0*%
X126097100Y-114249200D03*
D11*
%TO.P,J31,02,02*%
%TO.N,MOTOR2_BIN2*%
X123557100Y-114249200D03*
%TD*%
D10*
%TO.P,J9,01,01*%
%TO.N,USB_DP*%
X104495600Y-116433600D03*
D11*
%TO.P,J9,02,02*%
%TO.N,Net-(U7-USBDP)*%
X101955600Y-116433600D03*
%TD*%
D10*
%TO.P,J36,01,01*%
%TO.N,+5V*%
X111353600Y-114249200D03*
D11*
%TO.P,J36,02,02*%
%TO.N,Net-(D8-A)*%
X111353600Y-116789200D03*
%TD*%
D10*
%TO.P,J15,01,01*%
%TO.N,VCC*%
X101854000Y-101498400D03*
D11*
%TO.P,J15,02,02*%
%TO.N,Net-(U3-V_{DD})*%
X99314000Y-101498400D03*
%TD*%
D10*
%TO.P,J1,01,01*%
%TO.N,Net-(J1-Pad01)*%
X88823800Y-65227200D03*
D11*
%TO.P,J1,02,02*%
%TO.N,Net-(D1-K)*%
X91363800Y-65227200D03*
%TD*%
D10*
%TO.P,J6,01,01*%
%TO.N,Net-(U2-AOUT1)*%
X131343400Y-62534800D03*
D11*
%TO.P,J6,02,02*%
%TO.N,Net-(U2-AOUT2)*%
X133883400Y-62534800D03*
%TD*%
D10*
%TO.P,J38,01,01*%
%TO.N,+3.3V*%
X115722400Y-81229200D03*
D11*
%TO.P,J38,02,02*%
%TO.N,Net-(U8-VDD)*%
X115722400Y-83769200D03*
%TD*%
D10*
%TO.P,J46,01,01*%
%TO.N,Net-(D15-K)*%
X107746800Y-98094800D03*
D11*
%TO.P,J46,02,02*%
%TO.N,VDC*%
X105206800Y-98094800D03*
%TD*%
D10*
%TO.P,J34,01,01*%
%TO.N,Net-(U11-VCC)*%
X149961600Y-93726000D03*
D11*
%TO.P,J34,02,02*%
%TO.N,+3.3V*%
X149961600Y-91186000D03*
%TD*%
D10*
%TO.P,J25,01,01*%
%TO.N,BNO_INT*%
X126568200Y-133654800D03*
D11*
%TO.P,J25,02,02*%
%TO.N,GPIO35*%
X124028200Y-133654800D03*
%TD*%
D10*
%TO.P,J23,01,01*%
%TO.N,Net-(U2-VM)*%
X136996100Y-74015600D03*
D11*
%TO.P,J23,02,02*%
%TO.N,+BATT*%
X139536100Y-74015600D03*
%TD*%
D10*
%TO.P,J33,01,01*%
%TO.N,Net-(J33-Pad01)*%
X123774200Y-109687400D03*
D11*
%TO.P,J33,02,02*%
%TO.N,+3.3V*%
X121234200Y-109687400D03*
%TD*%
D10*
%TO.P,J29,01,01*%
%TO.N,D2{slash}A2*%
X143865600Y-109829600D03*
D11*
%TO.P,J29,02,02*%
%TO.N,MOTOR1_AIN2*%
X141325600Y-109829600D03*
%TD*%
D10*
%TO.P,J43,01,01*%
%TO.N,Net-(U7-USBDM)*%
X104495600Y-119634000D03*
D11*
%TO.P,J43,02,02*%
%TO.N,USB_DN*%
X101955600Y-119634000D03*
%TD*%
D10*
%TO.P,J48,01,01*%
%TO.N,USB_DP*%
X104495600Y-113131600D03*
D11*
%TO.P,J48,02,02*%
%TO.N,Net-(J44-D+)*%
X101955600Y-113131600D03*
%TD*%
D10*
%TO.P,J3,01,01*%
%TO.N,Net-(D3-K)*%
X105779500Y-65252600D03*
D11*
%TO.P,J3,02,02*%
%TO.N,VCC*%
X108319500Y-65252600D03*
%TD*%
D18*
%TO.P,TP1,1,1*%
%TO.N,Net-(J1-Pad01)*%
X85140800Y-65244000D03*
%TD*%
D10*
%TO.P,J2,01,01*%
%TO.N,Net-(D2-K)*%
X91389200Y-71450200D03*
D11*
%TO.P,J2,02,02*%
%TO.N,Net-(J2-Pad02)*%
X88849200Y-71450200D03*
%TD*%
D10*
%TO.P,J41,01,01*%
%TO.N,GND*%
X130886200Y-81102200D03*
D11*
%TO.P,J41,02,02*%
%TO.N,Net-(U8-PIN16)*%
X130886200Y-83642200D03*
%TD*%
D10*
%TO.P,J4,01,01*%
%TO.N,GND*%
X108444100Y-71501000D03*
D11*
%TO.P,J4,02,02*%
%TO.N,Net-(D1-A)*%
X105904100Y-71501000D03*
%TD*%
D19*
%TO.P,J7,1,1*%
%TO.N,Net-(J12-Pad02)*%
X84785200Y-86801801D03*
D20*
%TO.P,J7,2,2*%
%TO.N,GND*%
X84785200Y-88051801D03*
%TD*%
D19*
%TO.P,J8,1,1*%
%TO.N,Net-(J13-Pad02)*%
X84792401Y-93913801D03*
D20*
%TO.P,J8,2,2*%
%TO.N,GND*%
X84792401Y-95163801D03*
%TD*%
D10*
%TO.P,J51,01,01*%
%TO.N,Net-(U7-TXD)*%
X105359200Y-126441200D03*
D11*
%TO.P,J51,02,02*%
%TO.N,RX_D7*%
X105359200Y-128981200D03*
%TD*%
D10*
%TO.P,J39,01,01*%
%TO.N,GND*%
X115646200Y-98196400D03*
D11*
%TO.P,J39,02,02*%
%TO.N,Net-(U8-PIN10)*%
X115646200Y-95656400D03*
%TD*%
D18*
%TO.P,TP2,1,1*%
%TO.N,Net-(J2-Pad02)*%
X85166200Y-71450200D03*
%TD*%
D10*
%TO.P,J21,01,01*%
%TO.N,Net-(U6-VO)*%
X165760400Y-78306300D03*
D11*
%TO.P,J21,02,02*%
%TO.N,Net-(C25-Pad1)*%
X165760400Y-75766300D03*
%TD*%
D10*
%TO.P,J28,01,01*%
%TO.N,D3{slash}A3*%
X143865600Y-106095800D03*
D11*
%TO.P,J28,02,02*%
%TO.N,MOTOR1_AIN1*%
X141325600Y-106095800D03*
%TD*%
D10*
%TO.P,J26,01,01*%
%TO.N,BNO_SCL*%
X117881400Y-133654800D03*
D11*
%TO.P,J26,02,02*%
%TO.N,GPIO34*%
X120421400Y-133654800D03*
%TD*%
D10*
%TO.P,J52,01,01*%
%TO.N,TX_D6*%
X112064800Y-126644400D03*
D11*
%TO.P,J52,02,02*%
%TO.N,Net-(U7-RXD)*%
X109524800Y-126644400D03*
%TD*%
D10*
%TO.P,J32,01,01*%
%TO.N,Net-(C38-Pad1)*%
X129260600Y-103936800D03*
D11*
%TO.P,J32,02,02*%
%TO.N,Net-(J32-Pad02)*%
X131800600Y-103936800D03*
%TD*%
D10*
%TO.P,J24,01,01*%
%TO.N,DRV_SLEEP*%
X132943600Y-133629400D03*
D11*
%TO.P,J24,02,02*%
%TO.N,GPIO36*%
X130403600Y-133629400D03*
%TD*%
D10*
%TO.P,J18,01,01*%
%TO.N,VDC*%
X155930600Y-87856700D03*
D11*
%TO.P,J18,02,02*%
%TO.N,Net-(U5-EN)*%
X155930600Y-85316700D03*
%TD*%
D10*
%TO.P,J17,01,01*%
%TO.N,VDC*%
X153187400Y-68095500D03*
D11*
%TO.P,J17,02,02*%
%TO.N,Net-(U4-EN)*%
X153187400Y-65555500D03*
%TD*%
D10*
%TO.P,J45,01,01*%
%TO.N,+5V*%
X105257600Y-101346000D03*
D11*
%TO.P,J45,02,02*%
%TO.N,Net-(D15-A)*%
X107797600Y-101346000D03*
%TD*%
D10*
%TO.P,J30,01,01*%
%TO.N,D1{slash}A1*%
X137541000Y-109829600D03*
D11*
%TO.P,J30,02,02*%
%TO.N,MOTOR2_BIN1*%
X135001000Y-109829600D03*
%TD*%
D10*
%TO.P,J49,01,01*%
%TO.N,Net-(J42-DN1)*%
X97485200Y-114046000D03*
D11*
%TO.P,J49,02,02*%
%TO.N,USB_DN*%
X94945200Y-114046000D03*
%TD*%
D10*
%TO.P,J50,01,01*%
%TO.N,USB_DP*%
X94945200Y-117398800D03*
D11*
%TO.P,J50,02,02*%
%TO.N,Net-(J42-DN2)*%
X97485200Y-117398800D03*
%TD*%
D10*
%TO.P,J20,01,01*%
%TO.N,Net-(U4-VOUT)*%
X163195000Y-68095500D03*
D11*
%TO.P,J20,02,02*%
%TO.N,+3.3V*%
X163195000Y-65555500D03*
%TD*%
D21*
%TO.P,C6,1*%
%TO.N,+BATT*%
X138436600Y-67538600D03*
D22*
%TO.P,C6,2*%
%TO.N,GND*%
X140436600Y-67538600D03*
%TD*%
D10*
%TO.P,J12,01,01*%
%TO.N,+BATT*%
X101803200Y-98094800D03*
D11*
%TO.P,J12,02,02*%
%TO.N,Net-(J12-Pad02)*%
X99263200Y-98094800D03*
%TD*%
D10*
%TO.P,J19,01,01*%
%TO.N,VDC*%
X156006800Y-78306300D03*
D11*
%TO.P,J19,02,02*%
%TO.N,Net-(U6-VI)*%
X156006800Y-75766300D03*
%TD*%
D10*
%TO.P,J47,01,01*%
%TO.N,Net-(J44-D-)*%
X95504000Y-129946400D03*
D11*
%TO.P,J47,02,02*%
%TO.N,USB_DN*%
X92964000Y-129946400D03*
%TD*%
D10*
%TO.P,J37,01,01*%
%TO.N,Net-(D8-K)*%
X106832400Y-93167200D03*
D11*
%TO.P,J37,02,02*%
%TO.N,VDC*%
X106832400Y-90627200D03*
%TD*%
D10*
%TO.P,J40,01,01*%
%TO.N,GND*%
X131038600Y-98018600D03*
D11*
%TO.P,J40,02,02*%
%TO.N,Net-(U8-PIN15)*%
X131038600Y-95478600D03*
%TD*%
D23*
%TO.N,GND*%
X131013200Y-112572800D03*
X124155200Y-95470100D03*
X171500800Y-78689200D03*
X128930400Y-109067600D03*
X117652800Y-101396800D03*
X98094800Y-106222800D03*
X93014800Y-93929200D03*
X178003200Y-110134400D03*
X124714000Y-107238800D03*
X123698000Y-86258400D03*
X158394400Y-86512400D03*
X90982800Y-120751600D03*
X143306800Y-75133200D03*
X148996400Y-68986400D03*
X148640800Y-79349600D03*
X93675200Y-105105200D03*
X94081600Y-99568000D03*
X109169200Y-88442800D03*
X101142800Y-92506800D03*
X113741200Y-93218000D03*
X118770400Y-69138800D03*
X172212000Y-70104000D03*
X159105600Y-107238800D03*
X161747200Y-79044800D03*
X143611600Y-90271600D03*
X158242000Y-126339600D03*
X115544600Y-67995800D03*
X115519200Y-63855600D03*
X171856400Y-88188800D03*
X117805200Y-121767600D03*
X168605200Y-93370400D03*
X105765600Y-105714800D03*
X129543100Y-115976400D03*
X97383600Y-128879600D03*
X91084400Y-87426800D03*
X138582400Y-102362000D03*
X92049600Y-95605600D03*
X118821200Y-72542400D03*
X128371600Y-89052400D03*
X145491200Y-69037200D03*
X134772400Y-70053200D03*
X116941600Y-112064800D03*
X160731200Y-132994400D03*
X135991600Y-125222000D03*
X155498800Y-66903600D03*
X117094000Y-107238800D03*
X133451600Y-89763600D03*
X173177200Y-127101600D03*
X99415600Y-120751600D03*
X168503600Y-68681600D03*
X119329200Y-89052400D03*
X113284000Y-123545600D03*
X117805200Y-116890800D03*
X178511200Y-81229200D03*
X103327200Y-133705600D03*
X151688800Y-88696800D03*
X101549200Y-128879600D03*
X157530800Y-124460000D03*
X165506400Y-132943600D03*
X158292800Y-130505200D03*
X123850400Y-80416000D03*
X114858800Y-90322400D03*
X99161600Y-129184400D03*
X138836400Y-118567200D03*
X125069600Y-124612400D03*
X151993600Y-79248000D03*
X163830000Y-107289600D03*
X176631600Y-120091200D03*
X148488400Y-88747600D03*
X178866800Y-91541600D03*
X95758000Y-133756400D03*
%TO.N,+BATT*%
X100431600Y-108305600D03*
%TO.N,VDC*%
X105257600Y-87985600D03*
X100025200Y-86309200D03*
%TO.N,Net-(D7-K)*%
X180131484Y-121848810D03*
X178257200Y-115265200D03*
%TO.N,+3.3V*%
X147574000Y-130860800D03*
X108204000Y-132334000D03*
X170484800Y-93421200D03*
X131775200Y-128574800D03*
X128524000Y-129076900D03*
X117500400Y-103174800D03*
X121107200Y-121412000D03*
X103124000Y-108508800D03*
X133604000Y-124460000D03*
X119329200Y-90119200D03*
X153111200Y-124409200D03*
X120243600Y-123901200D03*
X98348800Y-110134400D03*
%TO.N,CAM_RESET*%
X172821600Y-124409200D03*
X174396400Y-133604000D03*
%TO.N,+1V8*%
X176479200Y-122732800D03*
%TO.N,Net-(U8-CAP)*%
X123035500Y-100025200D03*
X123035500Y-95605600D03*
%TO.N,Net-(U9-XTAL_N)*%
X134874000Y-115976400D03*
X134874000Y-117244300D03*
%TO.N,+5V*%
X92202000Y-121107200D03*
%TO.N,IO21{slash}USER_LED*%
X120904000Y-124968000D03*
X111658400Y-128473200D03*
%TO.N,USB_DP*%
X120949646Y-124093262D03*
%TO.N,USB_DN*%
X120700800Y-123291600D03*
%TO.N,MTDO{slash}IO40{slash}CAM_SDA*%
X132008281Y-127267660D03*
X151638000Y-127709100D03*
X177800000Y-107342500D03*
X176682400Y-126085600D03*
X154635200Y-127711200D03*
%TO.N,MTCK{slash}IO39{slash}CAM_SCL*%
X131451081Y-124628219D03*
X180212900Y-120980100D03*
X150834481Y-126243300D03*
X166420800Y-99364800D03*
%TO.N,IO38{slash}DVP_VSYNC*%
X130556000Y-125628400D03*
X166878000Y-125120400D03*
%TO.N,Net-(J10-Pad8)*%
X176580800Y-123596400D03*
X171145200Y-126238000D03*
%TO.N,IO47{slash}DVP_HREF*%
X158394400Y-125222000D03*
X128930400Y-124667298D03*
%TO.N,IO48{slash}DVP_Y9*%
X126288300Y-124525001D03*
X158445200Y-121462800D03*
%TO.N,IO10{slash}XMCLK*%
X121364646Y-118920291D03*
X153568400Y-119583200D03*
X121767600Y-99974400D03*
X153314400Y-116027200D03*
%TO.N,IO11{slash}DVP_Y8*%
X173075600Y-120548400D03*
X145857581Y-116498913D03*
X123835702Y-119889354D03*
%TO.N,IO12{slash}DVP_Y7*%
X145846800Y-121767100D03*
X122369811Y-117380683D03*
%TO.N,IO13{slash}DVP_PCLK*%
X123860598Y-120650000D03*
X173380400Y-119024400D03*
X151942800Y-123799600D03*
X152692047Y-119291153D03*
%TO.N,IO14{slash}DVP_Y6*%
X120142000Y-120684097D03*
X181205700Y-111607600D03*
X148386800Y-125069600D03*
X176631600Y-118668800D03*
X172669200Y-118465600D03*
%TO.N,IO15{slash}DVP_Y2*%
X123860598Y-121666000D03*
X143782250Y-113950798D03*
X173278800Y-117908900D03*
X140817600Y-114452400D03*
%TO.N,IO16{slash}DVP_Y5*%
X146100800Y-134975600D03*
X176631600Y-117652800D03*
X121183647Y-122199153D03*
%TO.N,IO17{slash}DVP_Y3*%
X163169600Y-121208800D03*
X123860598Y-122631200D03*
%TO.N,IO18{slash}DVP_Y4*%
X147091400Y-117881400D03*
X123860598Y-123545600D03*
%TO.N,CHIP_EN*%
X156260800Y-97332800D03*
X115671600Y-115366800D03*
D24*
%TO.N,MTDI{slash}IO41{slash}PDM_DATA*%
X171704000Y-104546400D03*
D23*
X128955296Y-123850797D03*
%TO.N,MTMS{slash}IO42{slash}PDM_CLK*%
X172059600Y-103276400D03*
X132740400Y-122883100D03*
%TO.N,Net-(U1-PROG)*%
X99923600Y-92049600D03*
X100330000Y-90322400D03*
%TO.N,Net-(R6-Pad1)*%
X155448000Y-129184400D03*
X153611369Y-102709769D03*
%TO.N,Net-(R13-Pad2)*%
X110642400Y-112064800D03*
X101498400Y-111150400D03*
%TO.N,DRV_FAULT*%
X127660400Y-74777600D03*
%TO.N,BNO_SCL*%
X125780800Y-85293200D03*
%TO.N,BNO_SDA*%
X114198400Y-123190000D03*
X125171200Y-86055200D03*
%TO.N,DRV_SLEEP*%
X123850400Y-67614800D03*
%TO.N,BNO_INT*%
X125528900Y-92961270D03*
%TO.N,MOTOR1_AIN1*%
X135280400Y-68122800D03*
%TO.N,D3{slash}A3*%
X124443168Y-119430700D03*
%TO.N,MOTOR1_AIN2*%
X135331200Y-68935600D03*
%TO.N,D2{slash}A2*%
X125445310Y-116988985D03*
%TO.N,MOTOR2_BIN1*%
X135890000Y-72136000D03*
%TO.N,D1{slash}A1*%
X125859272Y-116349828D03*
%TO.N,MOTOR2_BIN2*%
X135077200Y-72085200D03*
%TO.N,D0{slash}A0*%
X126763569Y-116466831D03*
%TO.N,Net-(U9-U0TXD)*%
X128930400Y-122275600D03*
X125882400Y-128627700D03*
%TO.N,RX_D7*%
X120853200Y-126441200D03*
X131826000Y-121767600D03*
X122936000Y-126339600D03*
X103581200Y-130556000D03*
%TO.N,SPIWP*%
X124053600Y-124612400D03*
X134315200Y-104495600D03*
%TO.N,SPICS0*%
X118465600Y-108254800D03*
X118516400Y-122580400D03*
%TO.N,SPICLK*%
X121666000Y-114655600D03*
X122834400Y-127914400D03*
%TO.N,SPIQ*%
X140004800Y-98094800D03*
X135229600Y-99923600D03*
X125589161Y-127470932D03*
X140106400Y-91948000D03*
%TO.N,SPID*%
X132689600Y-116078000D03*
X126435841Y-127077200D03*
%TO.N,Net-(J32-Pad02)*%
X126390400Y-109728000D03*
%TO.N,Net-(J42-CC1)*%
X98501200Y-132943600D03*
X90932000Y-123444000D03*
%TO.N,Net-(U7-USBDP)*%
X99720400Y-118313200D03*
%TO.N,Net-(U7-USBDM)*%
X103073200Y-117604100D03*
%TO.N,Net-(J42-DN2)*%
X95859600Y-112877600D03*
%TD*%
D25*
%TO.N,VCC*%
X102870600Y-92046433D02*
X102870600Y-100481800D01*
X100384567Y-89560400D02*
X102870600Y-92046433D01*
X97993200Y-89560400D02*
X100384567Y-89560400D01*
X102870600Y-100481800D02*
X101854000Y-101498400D01*
D26*
%TO.N,+BATT*%
X100431600Y-99466400D02*
X101803200Y-98094800D01*
X100431600Y-108305600D02*
X100431600Y-99466400D01*
%TO.N,VDC*%
X105257600Y-87985600D02*
X103581200Y-86309200D01*
X103581200Y-86309200D02*
X100025200Y-86309200D01*
D27*
%TO.N,Net-(D7-K)*%
X178257200Y-115265200D02*
X178714400Y-115265200D01*
X179578000Y-116128800D02*
X179578000Y-121295326D01*
X178714400Y-115265200D02*
X179578000Y-116128800D01*
X179578000Y-121295326D02*
X180131484Y-121848810D01*
%TO.N,CAM_RESET*%
X174650400Y-133350000D02*
X174396400Y-133604000D01*
X173736000Y-124409200D02*
X174650400Y-125323600D01*
X174650400Y-125323600D02*
X174650400Y-133350000D01*
X172821600Y-124409200D02*
X173736000Y-124409200D01*
%TO.N,+1V8*%
X175842300Y-85265900D02*
X166293800Y-85265900D01*
X175669600Y-110902832D02*
X176733200Y-109839232D01*
X176733200Y-122478800D02*
X176733200Y-122367568D01*
X176479200Y-122732800D02*
X176733200Y-122478800D01*
X176733200Y-86156800D02*
X175842300Y-85265900D01*
X175669600Y-121303968D02*
X175669600Y-110902832D01*
X176733200Y-122367568D02*
X175669600Y-121303968D01*
X176733200Y-109839232D02*
X176733200Y-86156800D01*
%TO.N,Net-(U8-CAP)*%
X123035500Y-95605600D02*
X123035500Y-100025200D01*
%TO.N,Net-(U9-XTAL_N)*%
X134874000Y-115976400D02*
X134874000Y-117244300D01*
%TO.N,+5V*%
X91862600Y-113808200D02*
X89662000Y-111607600D01*
X92202000Y-121107200D02*
X91862600Y-120767800D01*
X90396450Y-104167550D02*
X91726100Y-104167550D01*
X89662000Y-104902000D02*
X90396450Y-104167550D01*
X89662000Y-111607600D02*
X89662000Y-104902000D01*
X91862600Y-120767800D02*
X91862600Y-113808200D01*
%TO.N,IO21{slash}USER_LED*%
X117149600Y-125064800D02*
X113741200Y-128473200D01*
X120807200Y-125064800D02*
X117149600Y-125064800D01*
X113741200Y-128473200D02*
X111658400Y-128473200D01*
X120904000Y-124968000D02*
X120807200Y-125064800D01*
%TO.N,USB_DP*%
X97839200Y-124712400D02*
X94945200Y-121818400D01*
X120330508Y-124712400D02*
X97839200Y-124712400D01*
X120949646Y-124093262D02*
X120330508Y-124712400D01*
X94945200Y-121818400D02*
X94945200Y-117398800D01*
%TO.N,USB_DN*%
X114096800Y-124206000D02*
X104495600Y-124206000D01*
X120700800Y-123291600D02*
X115011200Y-123291600D01*
X96266000Y-131673600D02*
X96774000Y-131165600D01*
X104495600Y-124206000D02*
X103225600Y-122936000D01*
X92964000Y-129946400D02*
X94691200Y-131673600D01*
X103225600Y-122936000D02*
X103225600Y-120904000D01*
X94691200Y-131673600D02*
X96266000Y-131673600D01*
X93927800Y-115063400D02*
X94945200Y-114046000D01*
X93927800Y-121563000D02*
X93927800Y-115063400D01*
X96774000Y-131165600D02*
X96774000Y-124409200D01*
X94945200Y-114046000D02*
X96164400Y-115265200D01*
X96774000Y-124409200D02*
X93927800Y-121563000D01*
X103225600Y-120904000D02*
X101955600Y-119634000D01*
X115011200Y-123291600D02*
X114096800Y-124206000D01*
X96164400Y-115265200D02*
X96164400Y-118414800D01*
X97383600Y-119634000D02*
X101955600Y-119634000D01*
X96164400Y-118414800D02*
X97383600Y-119634000D01*
%TO.N,MTDO{slash}IO40{slash}CAM_SDA*%
X176022000Y-121158000D02*
X177138000Y-122274000D01*
X175418832Y-134623200D02*
X177346000Y-132696032D01*
X176022000Y-111048800D02*
X176022000Y-121158000D01*
X177346000Y-126749200D02*
X176682400Y-126085600D01*
X151638000Y-127709100D02*
X151433700Y-127504800D01*
X177346000Y-132696032D02*
X177346000Y-126749200D01*
X177138000Y-122274000D02*
X177138000Y-125630000D01*
X177138000Y-125630000D02*
X176682400Y-126085600D01*
X154635200Y-127711200D02*
X154635200Y-133299200D01*
X132245421Y-127504800D02*
X132008281Y-127267660D01*
X155959200Y-134623200D02*
X175418832Y-134623200D01*
X151433700Y-127504800D02*
X132245421Y-127504800D01*
X177800000Y-109270800D02*
X176022000Y-111048800D01*
X154635200Y-133299200D02*
X155959200Y-134623200D01*
X177800000Y-107342500D02*
X177800000Y-109270800D01*
%TO.N,MTCK{slash}IO39{slash}CAM_SCL*%
X179930400Y-120697600D02*
X180212900Y-120980100D01*
X131451081Y-124628219D02*
X133270462Y-126447600D01*
X164976300Y-84248500D02*
X175323268Y-84248500D01*
X177085600Y-86010832D02*
X177085600Y-105051200D01*
X133270462Y-126447600D02*
X150630181Y-126447600D01*
X179930400Y-107896000D02*
X179930400Y-120697600D01*
X175323268Y-84248500D02*
X177085600Y-86010832D01*
X166420800Y-99364800D02*
X163677600Y-96621600D01*
X150630181Y-126447600D02*
X150834481Y-126243300D01*
X163677600Y-85547200D02*
X164976300Y-84248500D01*
X177085600Y-105051200D02*
X179930400Y-107896000D01*
X163677600Y-96621600D02*
X163677600Y-85547200D01*
%TO.N,IO38{slash}DVP_VSYNC*%
X164846000Y-127152400D02*
X166878000Y-125120400D01*
X132689600Y-127152400D02*
X164846000Y-127152400D01*
X130556000Y-125628400D02*
X131165600Y-125628400D01*
X131165600Y-125628400D02*
X132689600Y-127152400D01*
%TO.N,Net-(J10-Pad8)*%
X171145200Y-124307600D02*
X171856400Y-123596400D01*
X171856400Y-123596400D02*
X176580800Y-123596400D01*
X171145200Y-126238000D02*
X171145200Y-124307600D01*
%TO.N,IO47{slash}DVP_HREF*%
X130702866Y-124667298D02*
X132835568Y-126800000D01*
X128930400Y-124667298D02*
X130702866Y-124667298D01*
X132835568Y-126800000D02*
X156816400Y-126800000D01*
X156816400Y-126800000D02*
X158394400Y-125222000D01*
%TO.N,IO48{slash}DVP_Y9*%
X153320832Y-121205600D02*
X158188000Y-121205600D01*
X129123968Y-120599200D02*
X152714432Y-120599200D01*
X152714432Y-120599200D02*
X153320832Y-121205600D01*
X158188000Y-121205600D02*
X158445200Y-121462800D01*
X126288300Y-124525001D02*
X126288300Y-123434868D01*
X126288300Y-123434868D02*
X129123968Y-120599200D01*
%TO.N,IO10{slash}XMCLK*%
X153568400Y-116281200D02*
X153568400Y-119583200D01*
X121364646Y-118920291D02*
X120216800Y-117772445D01*
X153314400Y-116027200D02*
X153568400Y-116281200D01*
X120216800Y-117772445D02*
X120216800Y-101525200D01*
X120216800Y-101525200D02*
X121767600Y-99974400D01*
%TO.N,IO11{slash}DVP_Y8*%
X123835702Y-119889354D02*
X123934248Y-119987900D01*
X174396400Y-117289668D02*
X174396400Y-119294768D01*
X142443200Y-113336400D02*
X143772032Y-113336400D01*
X130718000Y-115081295D02*
X132462895Y-113336400D01*
X130718000Y-115935264D02*
X130718000Y-115081295D01*
X123934248Y-119987900D02*
X126665364Y-119987900D01*
X173142768Y-120548400D02*
X173075600Y-120548400D01*
X126665364Y-119987900D02*
X130718000Y-115935264D01*
X154946432Y-102162000D02*
X172266000Y-102162000D01*
X132462895Y-113336400D02*
X142443200Y-113336400D01*
X174844000Y-104740000D02*
X174844000Y-116842068D01*
X172266000Y-102162000D02*
X174844000Y-104740000D01*
X174844000Y-116842068D02*
X174396400Y-117289668D01*
X143772032Y-113336400D02*
X154946432Y-102162000D01*
X144776268Y-115417600D02*
X143814800Y-115417600D01*
X174396400Y-119294768D02*
X173142768Y-120548400D01*
X143814800Y-115417600D02*
X142443200Y-114046000D01*
X145857581Y-116498913D02*
X144776268Y-115417600D01*
X142443200Y-114046000D02*
X142443200Y-113336400D01*
%TO.N,IO12{slash}DVP_Y7*%
X125400729Y-128070500D02*
X125857100Y-128070500D01*
X133351600Y-121210400D02*
X133908800Y-121767600D01*
X122275600Y-119938800D02*
X122564046Y-120227246D01*
X122564046Y-125154846D02*
X123493200Y-126084000D01*
X122275600Y-117474894D02*
X122275600Y-119938800D01*
X122369811Y-117380683D02*
X122275600Y-117474894D01*
X125857100Y-128070500D02*
X126113200Y-127814400D01*
X127517632Y-122875568D02*
X129182800Y-121210400D01*
X123493200Y-126162971D02*
X125400729Y-128070500D01*
X126113200Y-127814400D02*
X126115679Y-127816879D01*
X127517632Y-127212832D02*
X127517632Y-122875568D01*
X133909300Y-121767100D02*
X145846800Y-121767100D01*
X123493200Y-126084000D02*
X123493200Y-126162971D01*
X126913585Y-127816879D02*
X127517632Y-127212832D01*
X133908800Y-121767600D02*
X133909300Y-121767100D01*
X122564046Y-120227246D02*
X122564046Y-125154846D01*
X129182800Y-121210400D02*
X133351600Y-121210400D01*
X126115679Y-127816879D02*
X126913585Y-127816879D01*
%TO.N,IO13{slash}DVP_PCLK*%
X131070400Y-115227263D02*
X132402463Y-113895200D01*
X141225600Y-113895200D02*
X144532400Y-117202000D01*
X146714632Y-116971800D02*
X150372694Y-116971800D01*
X152250800Y-123491600D02*
X151942800Y-123799600D01*
X150372694Y-116971800D02*
X152692047Y-119291153D01*
X171786336Y-119024400D02*
X167319136Y-123491600D01*
X167319136Y-123491600D02*
X152250800Y-123491600D01*
X173380400Y-119024400D02*
X171786336Y-119024400D01*
X132402463Y-113895200D02*
X141225600Y-113895200D01*
X123860598Y-120650000D02*
X126501632Y-120650000D01*
X131070400Y-116081232D02*
X131070400Y-115227263D01*
X144532400Y-117202000D02*
X146484432Y-117202000D01*
X146484432Y-117202000D02*
X146714632Y-116971800D01*
X126501632Y-120650000D02*
X131070400Y-116081232D01*
%TO.N,IO14{slash}DVP_Y6*%
X180543200Y-88477457D02*
X180543200Y-110945100D01*
X154405600Y-123902800D02*
X153238800Y-125069600D01*
X125018800Y-93621168D02*
X125844464Y-93621168D01*
X153238800Y-125069600D02*
X148386800Y-125069600D01*
X126393600Y-86407600D02*
X127914400Y-84886800D01*
X152024031Y-69465300D02*
X152177332Y-69465300D01*
X164830332Y-83896100D02*
X175961843Y-83896100D01*
X119864400Y-96172938D02*
X122529600Y-93507738D01*
X173937600Y-119255200D02*
X173611200Y-119581600D01*
X175961843Y-83896100D02*
X180543200Y-88477457D01*
X125844464Y-93621168D02*
X126393600Y-93072032D01*
X134597400Y-68989800D02*
X134597400Y-67729368D01*
X127914400Y-84886800D02*
X127914400Y-78460000D01*
X167406304Y-123902800D02*
X154405600Y-123902800D01*
X154536800Y-96854000D02*
X156588800Y-98906000D01*
X135299800Y-71074600D02*
X135299800Y-69692200D01*
X173611200Y-119581600D02*
X171727504Y-119581600D01*
X180543200Y-110945100D02*
X181205700Y-111607600D01*
X120142000Y-120684097D02*
X119864400Y-120406497D01*
X126393600Y-93072032D02*
X126393600Y-86407600D01*
X152177332Y-69465300D02*
X154536800Y-71824768D01*
X156588800Y-98906000D02*
X161190000Y-98906000D01*
X163325200Y-85401232D02*
X164830332Y-83896100D01*
X163325200Y-96770800D02*
X163325200Y-85401232D01*
X171727504Y-119581600D02*
X167406304Y-123902800D01*
X151817600Y-69258869D02*
X152024031Y-69465300D01*
X172669200Y-118465600D02*
X173609600Y-118465600D01*
X161190000Y-98906000D02*
X163325200Y-96770800D01*
X148596432Y-65884400D02*
X151817600Y-69105568D01*
X125018800Y-93507738D02*
X125018800Y-93621168D01*
X134597400Y-67729368D02*
X136442368Y-65884400D01*
X173937600Y-118793600D02*
X173937600Y-119255200D01*
X127914400Y-78460000D02*
X135299800Y-71074600D01*
X154536800Y-71824768D02*
X154536800Y-96854000D01*
X122529600Y-93507738D02*
X125018800Y-93507738D01*
X173609600Y-118465600D02*
X173937600Y-118793600D01*
X119864400Y-120406497D02*
X119864400Y-96172938D01*
X136442368Y-65884400D02*
X148596432Y-65884400D01*
X151817600Y-69105568D02*
X151817600Y-69258869D01*
X135299800Y-69692200D02*
X134597400Y-68989800D01*
%TO.N,IO15{slash}DVP_Y2*%
X125984000Y-121666000D02*
X131422800Y-116227200D01*
X155092400Y-102514400D02*
X172085600Y-102514400D01*
X140722400Y-114357200D02*
X140817600Y-114452400D01*
X123860598Y-121666000D02*
X125984000Y-121666000D01*
X143782250Y-113950798D02*
X143782250Y-113824550D01*
X143782250Y-113824550D02*
X155092400Y-102514400D01*
X131422800Y-116227200D02*
X131422800Y-115373231D01*
X172085600Y-102514400D02*
X174491600Y-104920400D01*
X131422800Y-115373231D02*
X132438831Y-114357200D01*
X174491600Y-104920400D02*
X174491600Y-116696100D01*
X132438831Y-114357200D02*
X140722400Y-114357200D01*
X174491600Y-116696100D02*
X173278800Y-117908900D01*
%TO.N,IO16{slash}DVP_Y5*%
X121859246Y-123163677D02*
X121183647Y-122488079D01*
X146100800Y-134975600D02*
X143357600Y-132232400D01*
X121859246Y-128447478D02*
X121859246Y-123163677D01*
X121183647Y-122488079D02*
X121183647Y-122199153D01*
X143357600Y-132232400D02*
X128879600Y-132232400D01*
X128270000Y-131622800D02*
X125034568Y-131622800D01*
X176631600Y-117652800D02*
X177698400Y-118719600D01*
X177698400Y-118719600D02*
X177698400Y-132842000D01*
X125034568Y-131622800D02*
X121859246Y-128447478D01*
X175564800Y-134975600D02*
X146100800Y-134975600D01*
X177698400Y-132842000D02*
X175564800Y-134975600D01*
X128879600Y-132232400D02*
X128270000Y-131622800D01*
%TO.N,IO17{slash}DVP_Y3*%
X162814000Y-120853200D02*
X163169600Y-121208800D01*
X125596864Y-122631200D02*
X131775200Y-116452864D01*
X146630400Y-117554400D02*
X146860600Y-117324200D01*
X132584800Y-114709600D02*
X139550800Y-114709600D01*
X142395600Y-117554400D02*
X146630400Y-117554400D01*
X139550800Y-114709600D02*
X142395600Y-117554400D01*
X123860598Y-122631200D02*
X125596864Y-122631200D01*
X149937800Y-117324200D02*
X153466800Y-120853200D01*
X146860600Y-117324200D02*
X149937800Y-117324200D01*
X153466800Y-120853200D02*
X162814000Y-120853200D01*
X131775200Y-115519200D02*
X132584800Y-114709600D01*
X131775200Y-116452864D02*
X131775200Y-115519200D01*
%TO.N,IO18{slash}DVP_Y4*%
X132132400Y-115847200D02*
X132917600Y-115062000D01*
X124058966Y-123347232D02*
X125379200Y-123347232D01*
X132132400Y-116594032D02*
X132132400Y-115847200D01*
X134747600Y-115062000D02*
X137592400Y-117906800D01*
X123860598Y-123545600D02*
X124058966Y-123347232D01*
X147066000Y-117906800D02*
X147091400Y-117881400D01*
X137592400Y-117906800D02*
X147066000Y-117906800D01*
X125379200Y-123347232D02*
X132132400Y-116594032D01*
X132917600Y-115062000D02*
X134747600Y-115062000D01*
%TO.N,CHIP_EN*%
X127508000Y-78282800D02*
X127508000Y-84506400D01*
X136296400Y-65532000D02*
X134245000Y-67583400D01*
X148742400Y-65532000D02*
X136296400Y-65532000D01*
X113738000Y-94989568D02*
X113738000Y-114347600D01*
X156260800Y-97332800D02*
X155513968Y-97332800D01*
X115411168Y-93316400D02*
X113738000Y-94989568D01*
X127508000Y-84506400D02*
X118698000Y-93316400D01*
X134245000Y-67583400D02*
X134245000Y-71545800D01*
X118698000Y-93316400D02*
X115411168Y-93316400D01*
X154889200Y-71678800D02*
X152323300Y-69112900D01*
X114757200Y-115366800D02*
X115671600Y-115366800D01*
X155513968Y-97332800D02*
X154889200Y-96708032D01*
X152170000Y-69112900D02*
X152170000Y-68959600D01*
X152323300Y-69112900D02*
X152170000Y-69112900D01*
X154889200Y-96708032D02*
X154889200Y-71678800D01*
X152170000Y-68959600D02*
X148742400Y-65532000D01*
X134245000Y-71545800D02*
X127508000Y-78282800D01*
X113738000Y-114347600D02*
X114757200Y-115366800D01*
%TO.N,MTDI{slash}IO41{slash}PDM_DATA*%
X173786800Y-116027200D02*
X173786800Y-106273600D01*
X167487600Y-122326400D02*
X173786800Y-116027200D01*
X130190768Y-122326400D02*
X167487600Y-122326400D01*
X128955296Y-123561872D02*
X130190768Y-122326400D01*
X128955296Y-123850797D02*
X128955296Y-123561872D01*
X173786800Y-106273600D02*
X172059600Y-104546400D01*
X172059600Y-104546400D02*
X171704000Y-104546400D01*
%TO.N,MTMS{slash}IO42{slash}PDM_CLK*%
X174139200Y-116173168D02*
X174139200Y-105356000D01*
X167173168Y-123139200D02*
X174139200Y-116173168D01*
X132996500Y-123139200D02*
X167173168Y-123139200D01*
X174139200Y-105356000D02*
X172059600Y-103276400D01*
X132740400Y-122883100D02*
X132996500Y-123139200D01*
D25*
%TO.N,Net-(U1-PROG)*%
X99923600Y-90728800D02*
X100330000Y-90322400D01*
X99923600Y-92049600D02*
X99923600Y-90728800D01*
D27*
%TO.N,Net-(R6-Pad1)*%
X172411968Y-101809600D02*
X154511538Y-101809600D01*
X165770032Y-129184400D02*
X175196400Y-119758032D01*
X175196400Y-104594031D02*
X172411968Y-101809600D01*
X154511538Y-101809600D02*
X153611369Y-102709769D01*
X175196400Y-119758032D02*
X175196400Y-104594031D01*
X155448000Y-129184400D02*
X165770032Y-129184400D01*
D26*
%TO.N,Net-(R13-Pad2)*%
X101904800Y-111556800D02*
X101498400Y-111150400D01*
X110642400Y-112064800D02*
X110134400Y-111556800D01*
X110134400Y-111556800D02*
X101904800Y-111556800D01*
D27*
%TO.N,DRV_FAULT*%
X99679232Y-66954400D02*
X129291657Y-66954400D01*
X129680000Y-72434457D02*
X129398457Y-72716000D01*
X90052200Y-123079574D02*
X90071600Y-123060175D01*
X130398457Y-72716000D02*
X129961543Y-72716000D01*
X90227200Y-123983426D02*
X90052200Y-123808426D01*
X129398457Y-72716000D02*
X127961543Y-72716000D01*
X137949200Y-135024600D02*
X93184664Y-135024600D01*
X129961543Y-72716000D02*
X129680000Y-72434457D01*
X90071600Y-119230800D02*
X85750400Y-114909600D01*
X139344400Y-133629400D02*
X137949200Y-135024600D01*
X85750400Y-80883232D02*
X99679232Y-66954400D01*
X85750400Y-114909600D02*
X85750400Y-80883232D01*
X130707400Y-72407057D02*
X130398457Y-72716000D01*
X129291657Y-66954400D02*
X130707400Y-68370143D01*
X90227200Y-132067136D02*
X90227200Y-123983426D01*
X127660400Y-73017143D02*
X127660400Y-74777600D01*
X127961543Y-72716000D02*
X127660400Y-73017143D01*
X90052200Y-123808426D02*
X90052200Y-123079574D01*
X90071600Y-123060175D02*
X90071600Y-119230800D01*
X130707400Y-68370143D02*
X130707400Y-72407057D01*
X93184664Y-135024600D02*
X90227200Y-132067136D01*
%TO.N,BNO_SCL*%
X117273400Y-134262800D02*
X100566257Y-134262800D01*
X91510200Y-131855032D02*
X91510200Y-119672664D01*
X86455200Y-114617664D02*
X86455200Y-87331600D01*
X91510200Y-119672664D02*
X86455200Y-114617664D01*
X92071368Y-132416200D02*
X91510200Y-131855032D01*
X100566257Y-134262800D02*
X98719657Y-132416200D01*
X86455200Y-87331600D02*
X88493600Y-85293200D01*
X117881400Y-133654800D02*
X117273400Y-134262800D01*
X88493600Y-85293200D02*
X125780800Y-85293200D01*
X98719657Y-132416200D02*
X92071368Y-132416200D01*
%TO.N,BNO_SDA*%
X118059200Y-92964000D02*
X115265200Y-92964000D01*
X115265200Y-92964000D02*
X113385600Y-94843600D01*
X113385600Y-122377200D02*
X114198400Y-123190000D01*
X113385600Y-94843600D02*
X113385600Y-122377200D01*
X124968000Y-86055200D02*
X118059200Y-92964000D01*
X125171200Y-86055200D02*
X124968000Y-86055200D01*
%TO.N,DRV_SLEEP*%
X90579600Y-131921168D02*
X90579600Y-123837457D01*
X86102800Y-114763632D02*
X86102800Y-81029200D01*
X123704000Y-67468400D02*
X123850400Y-67614800D01*
X131900800Y-134672200D02*
X93330632Y-134672200D01*
X86102800Y-81029200D02*
X99663600Y-67468400D01*
X90579600Y-123837457D02*
X90404600Y-123662457D01*
X99663600Y-67468400D02*
X123704000Y-67468400D01*
X90404600Y-123662457D02*
X90404600Y-123225543D01*
X90424000Y-123206143D02*
X90424000Y-119084832D01*
X132943600Y-133629400D02*
X131900800Y-134672200D01*
X90404600Y-123225543D02*
X90424000Y-123206143D01*
X93330632Y-134672200D02*
X90579600Y-131921168D01*
X90424000Y-119084832D02*
X86102800Y-114763632D01*
%TO.N,BNO_INT*%
X121506846Y-123309646D02*
X121506846Y-128593446D01*
X125334832Y-93155338D02*
X121830262Y-93155338D01*
X121506846Y-128593446D02*
X126568200Y-133654800D01*
X121830262Y-93155338D02*
X119075200Y-95910400D01*
X125528900Y-92961270D02*
X125334832Y-93155338D01*
X119075200Y-120878000D02*
X121506846Y-123309646D01*
X119075200Y-95910400D02*
X119075200Y-120878000D01*
%TO.N,MOTOR1_AIN1*%
X141325600Y-106095800D02*
X141325600Y-72999600D01*
X141325600Y-72999600D02*
X136448800Y-68122800D01*
X136448800Y-68122800D02*
X135280400Y-68122800D01*
%TO.N,D3{slash}A3*%
X124443168Y-119430700D02*
X126724196Y-119430700D01*
X144551400Y-106095800D02*
X143865600Y-106095800D01*
X128771600Y-113017136D02*
X130236936Y-111551800D01*
X126724196Y-119430700D02*
X128771600Y-117383296D01*
X144480200Y-111551800D02*
X145237200Y-110794800D01*
X128771600Y-117383296D02*
X128771600Y-113017136D01*
X145237200Y-110794800D02*
X145237200Y-106781600D01*
X130236936Y-111551800D02*
X144480200Y-111551800D01*
X145237200Y-106781600D02*
X144551400Y-106095800D01*
%TO.N,MOTOR1_AIN2*%
X139954000Y-104952800D02*
X140973200Y-103933600D01*
X136763232Y-68935600D02*
X135331200Y-68935600D01*
X140973200Y-103933600D02*
X140973200Y-73145568D01*
X141325600Y-109829600D02*
X140868400Y-109829600D01*
X139954000Y-108915200D02*
X139954000Y-104952800D01*
X140973200Y-73145568D02*
X136763232Y-68935600D01*
X140868400Y-109829600D02*
X139954000Y-108915200D01*
%TO.N,D2{slash}A2*%
X136669568Y-111199400D02*
X137021968Y-110847000D01*
X142848200Y-110847000D02*
X143865600Y-109829600D01*
X128419200Y-116630368D02*
X128419200Y-116179600D01*
X127673137Y-117376431D02*
X128419200Y-116630368D01*
X125832756Y-117376431D02*
X127673137Y-117376431D01*
X137021968Y-110847000D02*
X142848200Y-110847000D01*
X128419200Y-112871168D02*
X130090968Y-111199400D01*
X125445310Y-116988985D02*
X125832756Y-117376431D01*
X130090968Y-111199400D02*
X136669568Y-111199400D01*
X128419200Y-116179600D02*
X128419200Y-112871168D01*
%TO.N,MOTOR2_BIN1*%
X135890000Y-72136000D02*
X135890000Y-108940600D01*
X135890000Y-108940600D02*
X135001000Y-109829600D01*
%TO.N,D1{slash}A1*%
X128066800Y-112725200D02*
X129945000Y-110847000D01*
X125859272Y-116349828D02*
X126533475Y-117024031D01*
X126533475Y-117024031D02*
X127527169Y-117024031D01*
X127527169Y-117024031D02*
X128066800Y-116484400D01*
X128066800Y-116484400D02*
X128066800Y-112725200D01*
X129945000Y-110847000D02*
X136523600Y-110847000D01*
X136523600Y-110847000D02*
X137541000Y-109829600D01*
%TO.N,MOTOR2_BIN2*%
X128371600Y-85242400D02*
X126746000Y-86868000D01*
X126746000Y-86868000D02*
X126746000Y-93218000D01*
X122478800Y-95250000D02*
X122478800Y-113170900D01*
X123342400Y-94386400D02*
X122478800Y-95250000D01*
X135077200Y-72085200D02*
X128371600Y-78790800D01*
X128371600Y-78790800D02*
X128371600Y-85242400D01*
X125577600Y-94386400D02*
X123342400Y-94386400D01*
X126746000Y-93218000D02*
X125577600Y-94386400D01*
X122478800Y-113170900D02*
X123557100Y-114249200D01*
%TO.N,D0{slash}A0*%
X126097100Y-115800362D02*
X126763569Y-116466831D01*
X126097100Y-114249200D02*
X126097100Y-115800362D01*
%TO.N,Net-(U9-U0TXD)*%
X127917600Y-127311232D02*
X127917600Y-123602832D01*
X128930400Y-122590032D02*
X128930400Y-122275600D01*
X126340821Y-128169279D02*
X127059553Y-128169279D01*
X125882400Y-128627700D02*
X126340821Y-128169279D01*
X127917600Y-123602832D02*
X128930400Y-122590032D01*
X127059553Y-128169279D02*
X127917600Y-127311232D01*
%TO.N,RX_D7*%
X123431247Y-127952447D02*
X124815600Y-129336800D01*
X119989600Y-126441200D02*
X120853200Y-126441200D01*
X128270000Y-123748800D02*
X130251200Y-121767600D01*
X123431247Y-126834847D02*
X123431247Y-127952447D01*
X130251200Y-121767600D02*
X131826000Y-121767600D01*
X103581200Y-130556000D02*
X118414800Y-130556000D01*
X124815600Y-129336800D02*
X126390400Y-129336800D01*
X119126000Y-129844800D02*
X119126000Y-127304800D01*
X126390400Y-129336800D02*
X128270000Y-127457200D01*
X128270000Y-127457200D02*
X128270000Y-123748800D01*
X122936000Y-126339600D02*
X123431247Y-126834847D01*
X119126000Y-127304800D02*
X119989600Y-126441200D01*
X118414800Y-130556000D02*
X119126000Y-129844800D01*
%TO.N,SPIWP*%
X133248400Y-104495600D02*
X134315200Y-104495600D01*
X128711943Y-108540200D02*
X129203800Y-108540200D01*
X129203800Y-108540200D02*
X133248400Y-104495600D01*
X123291600Y-123850400D02*
X123291600Y-120133252D01*
X123278502Y-117462698D02*
X124926900Y-115814300D01*
X124053600Y-124612400D02*
X123291600Y-123850400D01*
X123278502Y-120120154D02*
X123278502Y-117462698D01*
X123291600Y-120133252D02*
X123278502Y-120120154D01*
X124926900Y-115814300D02*
X124926900Y-112325243D01*
X124926900Y-112325243D02*
X128711943Y-108540200D01*
%TO.N,SPICS0*%
X118465600Y-122529600D02*
X118516400Y-122580400D01*
X118465600Y-108254800D02*
X118465600Y-122529600D01*
%TO.N,SPICLK*%
X121923200Y-117943798D02*
X121666000Y-117686598D01*
X122834400Y-127914400D02*
X122211646Y-127291646D01*
X122211646Y-122872046D02*
X121740847Y-122401247D01*
X121740847Y-120584218D02*
X121923200Y-120401865D01*
X121666000Y-117686598D02*
X121666000Y-114655600D01*
X121740847Y-122401247D02*
X121740847Y-120584218D01*
X122211646Y-127291646D02*
X122211646Y-122872046D01*
X121923200Y-120401865D02*
X121923200Y-117943798D01*
%TO.N,SPIQ*%
X124561600Y-112074432D02*
X125628400Y-111007632D01*
X123496400Y-125411138D02*
X123496400Y-124553568D01*
X124574500Y-113827779D02*
X124561600Y-113814879D01*
X129082800Y-99923600D02*
X135229600Y-99923600D01*
X124561600Y-113814879D02*
X124561600Y-112074432D01*
X124574500Y-115668332D02*
X124574500Y-113827779D01*
X125628400Y-103378000D02*
X129082800Y-99923600D01*
X125628400Y-111007632D02*
X125628400Y-103378000D01*
X125589161Y-127470932D02*
X125556194Y-127470932D01*
X122939200Y-123996368D02*
X122939200Y-120279221D01*
X123496400Y-124553568D02*
X122939200Y-123996368D01*
X122926102Y-120266123D02*
X122926102Y-117316730D01*
X122939200Y-120279221D02*
X122926102Y-120266123D01*
X140004800Y-98094800D02*
X140004800Y-92049600D01*
X122926102Y-117316730D02*
X124574500Y-115668332D01*
X125556194Y-127470932D02*
X123496400Y-125411138D01*
X140004800Y-92049600D02*
X140106400Y-91948000D01*
%TO.N,SPID*%
X132689600Y-116535200D02*
X132689600Y-116078000D01*
X126435841Y-127077200D02*
X126061200Y-127077200D01*
X125731600Y-123493200D02*
X132689600Y-116535200D01*
X125731600Y-126747600D02*
X125731600Y-123493200D01*
X126061200Y-127077200D02*
X125731600Y-126747600D01*
%TO.N,Net-(J32-Pad02)*%
X127025775Y-109728000D02*
X128565975Y-108187800D01*
X128565975Y-108187800D02*
X129057832Y-108187800D01*
X126390400Y-109728000D02*
X127025775Y-109728000D01*
X129057832Y-108187800D02*
X131800600Y-105445032D01*
X131800600Y-105445032D02*
X131800600Y-103936800D01*
%TO.N,Net-(J42-CC1)*%
X90932000Y-131775200D02*
X92100400Y-132943600D01*
X90932000Y-123444000D02*
X90932000Y-131775200D01*
X92100400Y-132943600D02*
X98501200Y-132943600D01*
D26*
%TO.N,Net-(U7-USBDP)*%
X101549200Y-116433600D02*
X101955600Y-116433600D01*
X99720400Y-118262400D02*
X101549200Y-116433600D01*
X99720400Y-118313200D02*
X99720400Y-118262400D01*
%TO.N,Net-(U7-USBDM)*%
X103634100Y-117604100D02*
X104495600Y-118465600D01*
X104495600Y-118465600D02*
X104495600Y-119634000D01*
X103073200Y-117604100D02*
X103634100Y-117604100D01*
D27*
%TO.N,Net-(J42-DN2)*%
X96516800Y-117090800D02*
X96824800Y-117398800D01*
X96266000Y-113182400D02*
X96266000Y-114868432D01*
X95859600Y-112877600D02*
X95961200Y-112877600D01*
X95961200Y-112877600D02*
X96266000Y-113182400D01*
X96516800Y-115119232D02*
X96516800Y-117090800D01*
X96824800Y-117398800D02*
X97485200Y-117398800D01*
X96266000Y-114868432D02*
X96516800Y-115119232D01*
%TO.N,Net-(J44-D-)*%
X91726100Y-106667550D02*
X90792050Y-106667550D01*
X92786200Y-127228600D02*
X95504000Y-129946400D01*
X92786200Y-114195248D02*
X92786200Y-127228600D01*
X90792050Y-106667550D02*
X90041400Y-107418200D01*
X90041400Y-107418200D02*
X90041400Y-111450448D01*
X90041400Y-111450448D02*
X92786200Y-114195248D01*
%TO.N,Net-(J44-D+)*%
X95326550Y-112268000D02*
X101092000Y-112268000D01*
X101092000Y-112268000D02*
X101955600Y-113131600D01*
X91726100Y-108667550D02*
X95326550Y-112268000D01*
%TD*%
M02*
