M48
; DRILL file {KiCad 9.0.2} date 2025-10-29T13:47:12-0700
; FORMAT={-:-/ absolute / metric / decimal}
; #@! TF.CreationDate,2025-10-29T13:47:12-07:00
; #@! TF.GenerationSoftware,Kicad,Pcbnew,9.0.2
; #@! TF.FileFunction,Plated,1,4,PTH
FMAT,2
METRIC
; #@! TA.AperFunction,Plated,PTH,ComponentDrill
T1C0.200
; #@! TA.AperFunction,Plated,PTH,ViaDrill
T2C0.300
; #@! TA.AperFunction,Plated,PTH,ComponentDrill
T3C0.300
; #@! TA.AperFunction,Plated,PTH,ComponentDrill
T4C0.400
; #@! TA.AperFunction,Plated,PTH,ViaDrill
T5C0.500
; #@! TA.AperFunction,Plated,PTH,ComponentDrill
T6C0.600
; #@! TA.AperFunction,Plated,PTH,ComponentDrill
T7C0.900
; #@! TA.AperFunction,Plated,PTH,ComponentDrill
T8C1.000
; #@! TA.AperFunction,Plated,PTH,ComponentDrill
T9C1.030
; #@! TA.AperFunction,Plated,PTH,ComponentDrill
T10C1.600
%
G90
G05
T1
X83.35Y-70.837
X83.35Y-71.837
X83.35Y-72.837
X84.35Y-70.837
X84.35Y-71.837
X84.35Y-72.837
X85.35Y-70.837
X85.35Y-71.837
X85.35Y-72.837
T2
X66.8Y-79.5
X73.4Y-71.1
X73.68Y-76.75
X73.8Y-73.1
X73.8Y-74.9
X73.808Y-75.849
X76.5Y-66.45
X76.5Y-67.25
X79.932Y-70.182
X79.932Y-72.818
X80.3Y-66.9
X80.568Y-70.818
X80.568Y-72.182
X80.735Y-69.265
X80.88Y-65.0
X82.034Y-69.716
X82.3Y-74.0
X83.1Y-68.5
X84.506Y-77.594
X85.0Y-64.4
X85.906Y-68.244
X86.9Y-74.3
X87.9Y-132.5
X89.25Y-65.75
X90.425Y-77.8
X91.4Y-72.7
X91.701Y-73.9
X92.5Y-93.9
X92.6Y-66.2
X93.1Y-125.4
X93.3Y-68.4
X94.4Y-73.7
X95.9Y-128.7
X121.5Y-130.0
X123.2Y-71.1
X123.25Y-75.25
X125.6Y-130.0
X127.9Y-71.0
X128.1Y-118.9
X128.2Y-115.0
X128.5Y-63.9
X128.8Y-72.4
X130.8Y-107.0
X131.9Y-118.9
X131.9Y-123.7
X132.2Y-105.8
X132.5Y-126.4
X132.7Y-115.4
X135.2Y-53.5
X136.0Y-113.6
X136.0Y-114.4
X136.4Y-116.5
X136.7Y-123.3
X137.1Y-62.9
X138.5Y-106.0
X138.6Y-54.9
X140.2Y-94.2
X141.4Y-55.3
X144.075Y-73.425
X144.6Y-77.3
X147.2Y-107.7
X147.2Y-122.7
X147.2Y-132.1
X149.9Y-77.4
X151.09Y-77.41
X152.2Y-60.0
X152.4Y-77.5
X153.1Y-75.9
X153.1Y-81.7
X153.3Y-112.5
X153.3Y-118.0
X153.5Y-63.0
X153.7Y-60.0
T3
X145.7Y-67.9
X145.7Y-69.3
X146.4Y-67.2
X146.4Y-68.6
X146.4Y-70.0
X147.1Y-67.9
X147.1Y-69.3
X147.8Y-67.2
X147.8Y-68.6
X147.8Y-70.0
X148.5Y-67.9
X148.5Y-69.3
T4
X150.14Y-112.35
X150.14Y-113.2
X150.14Y-114.05
X150.14Y-114.9
X150.14Y-115.75
X150.14Y-116.6
X150.14Y-117.45
X150.14Y-118.3
X151.49Y-112.35
X151.49Y-113.2
X151.49Y-114.05
X151.49Y-114.9
X151.49Y-115.75
X151.49Y-116.6
X151.49Y-117.45
X151.49Y-118.3
T5
X59.5Y-121.885
X59.5Y-126.29
X59.5Y-64.524
X59.5Y-104.266
X59.5Y-108.671
X59.5Y-113.076
X59.5Y-82.144
X59.5Y-42.5
X59.5Y-46.905
X59.5Y-51.31
X59.5Y-130.695
X59.5Y-135.1
X59.5Y-139.505
X59.5Y-68.929
X59.5Y-73.334
X59.5Y-77.739
X59.5Y-117.481
X59.5Y-55.715
X59.5Y-60.12
X63.909Y-42.5
X63.909Y-139.505
X68.318Y-42.5
X68.318Y-139.505
X72.727Y-42.5
X72.727Y-139.505
X77.136Y-42.5
X77.136Y-139.505
X81.545Y-42.5
X81.545Y-139.505
X85.955Y-42.5
X85.955Y-139.505
X90.364Y-42.5
X90.364Y-139.505
X94.773Y-42.5
X94.773Y-139.505
X99.182Y-42.5
X99.182Y-139.505
X103.591Y-42.5
X103.591Y-139.505
X108.0Y-42.5
X108.0Y-139.505
X112.409Y-42.5
X112.409Y-139.505
X116.818Y-42.5
X116.818Y-139.505
X121.227Y-42.5
X121.227Y-139.505
X125.636Y-42.5
X125.636Y-139.505
X130.045Y-42.5
X130.045Y-139.505
X134.455Y-42.5
X134.455Y-139.505
X138.864Y-42.5
X138.864Y-139.505
X143.273Y-42.5
X143.273Y-139.505
X147.682Y-42.5
X147.682Y-139.505
X152.091Y-42.5
X152.091Y-139.505
X156.5Y-42.5
X156.5Y-81.4
X156.5Y-85.55
X156.5Y-89.701
X156.5Y-93.851
X156.5Y-98.001
X156.5Y-102.152
X156.5Y-108.2
X156.5Y-121.9
X156.5Y-126.3
X156.5Y-130.7
X156.5Y-135.1
X156.5Y-139.505
X156.502Y-46.649
X156.502Y-50.799
X156.502Y-54.95
X156.502Y-59.1
T7
X75.75Y-88.97
X75.75Y-91.51
X75.75Y-94.05
X75.75Y-96.59
X78.29Y-90.24
X78.29Y-92.78
X78.29Y-95.32
X78.29Y-97.86
T8
X64.425Y-107.6
X66.965Y-107.6
X76.4Y-60.2
X76.4Y-62.74
X78.94Y-60.2
X78.94Y-62.74
X81.48Y-60.2
X81.48Y-62.74
X83.3Y-129.635
X83.3Y-132.175
X84.02Y-60.2
X84.02Y-62.74
X86.56Y-60.2
X86.56Y-62.74
X87.6Y-84.8
X87.6Y-87.34
X89.1Y-60.2
X89.1Y-62.74
X91.64Y-60.2
X91.64Y-62.74
X104.02Y-47.3
X106.56Y-47.3
X106.86Y-86.5
X109.1Y-47.3
X109.4Y-86.5
X111.64Y-47.3
X111.94Y-86.5
X114.18Y-47.3
X114.48Y-86.5
X116.72Y-47.3
X117.02Y-86.5
X119.26Y-47.3
X119.56Y-86.5
X121.8Y-47.3
X122.1Y-86.5
X124.34Y-47.3
X124.64Y-86.5
X126.88Y-47.3
X127.18Y-86.5
X129.42Y-47.3
X129.72Y-86.5
X131.96Y-47.3
X132.26Y-86.5
X134.5Y-47.3
X134.8Y-86.5
X137.04Y-47.3
X137.34Y-86.5
X139.58Y-47.3
X139.88Y-86.5
X142.12Y-47.3
X142.42Y-86.5
X144.66Y-47.3
X144.96Y-86.5
X147.2Y-47.3
X147.5Y-86.5
X149.74Y-47.3
X150.04Y-86.5
X152.58Y-86.5
T9
X64.5Y-87.09
X64.5Y-97.2
X66.02Y-89.63
X66.02Y-99.74
T10
X72.45Y-85.67
X72.45Y-101.16
T6
G00X150.37Y-111.0
M15
G01X151.87Y-111.0
M16
G05
G00X150.37Y-119.65
M15
G01X151.87Y-119.65
M16
G05
G00X154.1Y-111.0
M15
G01X154.9Y-111.0
M16
G05
G00X154.1Y-119.65
M15
G01X154.9Y-119.65
M16
G05
M30
