%TF.GenerationSoftware,KiCad,Pcbnew,9.0.4*%
%TF.CreationDate,2025-10-24T14:24:18-07:00*%
%TF.ProjectId,EthernetBoardv1.1,45746865-726e-4657-9442-6f6172647631,rev?*%
%TF.SameCoordinates,Original*%
%TF.FileFunction,Legend,Top*%
%TF.FilePolarity,Positive*%
%FSLAX46Y46*%
G04 Gerber Fmt 4.6, Leading zero omitted, Abs format (unit mm)*
G04 Created by KiCad (PCBNEW 9.0.4) date 2025-10-24 14:24:18*
%MOMM*%
%LPD*%
G01*
G04 APERTURE LIST*
%ADD10C,0.100000*%
%ADD11C,0.125000*%
%ADD12C,0.150000*%
%ADD13C,0.120000*%
%ADD14C,0.127000*%
%ADD15C,0.200000*%
G04 APERTURE END LIST*
D10*
X123303884Y-106772419D02*
X123303884Y-107581942D01*
X123303884Y-107581942D02*
X123351503Y-107677180D01*
X123351503Y-107677180D02*
X123399122Y-107724800D01*
X123399122Y-107724800D02*
X123494360Y-107772419D01*
X123494360Y-107772419D02*
X123684836Y-107772419D01*
X123684836Y-107772419D02*
X123780074Y-107724800D01*
X123780074Y-107724800D02*
X123827693Y-107677180D01*
X123827693Y-107677180D02*
X123875312Y-107581942D01*
X123875312Y-107581942D02*
X123875312Y-106772419D01*
X124303884Y-107724800D02*
X124446741Y-107772419D01*
X124446741Y-107772419D02*
X124684836Y-107772419D01*
X124684836Y-107772419D02*
X124780074Y-107724800D01*
X124780074Y-107724800D02*
X124827693Y-107677180D01*
X124827693Y-107677180D02*
X124875312Y-107581942D01*
X124875312Y-107581942D02*
X124875312Y-107486704D01*
X124875312Y-107486704D02*
X124827693Y-107391466D01*
X124827693Y-107391466D02*
X124780074Y-107343847D01*
X124780074Y-107343847D02*
X124684836Y-107296228D01*
X124684836Y-107296228D02*
X124494360Y-107248609D01*
X124494360Y-107248609D02*
X124399122Y-107200990D01*
X124399122Y-107200990D02*
X124351503Y-107153371D01*
X124351503Y-107153371D02*
X124303884Y-107058133D01*
X124303884Y-107058133D02*
X124303884Y-106962895D01*
X124303884Y-106962895D02*
X124351503Y-106867657D01*
X124351503Y-106867657D02*
X124399122Y-106820038D01*
X124399122Y-106820038D02*
X124494360Y-106772419D01*
X124494360Y-106772419D02*
X124732455Y-106772419D01*
X124732455Y-106772419D02*
X124875312Y-106820038D01*
X125637217Y-107248609D02*
X125780074Y-107296228D01*
X125780074Y-107296228D02*
X125827693Y-107343847D01*
X125827693Y-107343847D02*
X125875312Y-107439085D01*
X125875312Y-107439085D02*
X125875312Y-107581942D01*
X125875312Y-107581942D02*
X125827693Y-107677180D01*
X125827693Y-107677180D02*
X125780074Y-107724800D01*
X125780074Y-107724800D02*
X125684836Y-107772419D01*
X125684836Y-107772419D02*
X125303884Y-107772419D01*
X125303884Y-107772419D02*
X125303884Y-106772419D01*
X125303884Y-106772419D02*
X125637217Y-106772419D01*
X125637217Y-106772419D02*
X125732455Y-106820038D01*
X125732455Y-106820038D02*
X125780074Y-106867657D01*
X125780074Y-106867657D02*
X125827693Y-106962895D01*
X125827693Y-106962895D02*
X125827693Y-107058133D01*
X125827693Y-107058133D02*
X125780074Y-107153371D01*
X125780074Y-107153371D02*
X125732455Y-107200990D01*
X125732455Y-107200990D02*
X125637217Y-107248609D01*
X125637217Y-107248609D02*
X125303884Y-107248609D01*
X122803884Y-65748609D02*
X123137217Y-65748609D01*
X123280074Y-66272419D02*
X122803884Y-66272419D01*
X122803884Y-66272419D02*
X122803884Y-65272419D01*
X122803884Y-65272419D02*
X123280074Y-65272419D01*
X123661027Y-66224800D02*
X123803884Y-66272419D01*
X123803884Y-66272419D02*
X124041979Y-66272419D01*
X124041979Y-66272419D02*
X124137217Y-66224800D01*
X124137217Y-66224800D02*
X124184836Y-66177180D01*
X124184836Y-66177180D02*
X124232455Y-66081942D01*
X124232455Y-66081942D02*
X124232455Y-65986704D01*
X124232455Y-65986704D02*
X124184836Y-65891466D01*
X124184836Y-65891466D02*
X124137217Y-65843847D01*
X124137217Y-65843847D02*
X124041979Y-65796228D01*
X124041979Y-65796228D02*
X123851503Y-65748609D01*
X123851503Y-65748609D02*
X123756265Y-65700990D01*
X123756265Y-65700990D02*
X123708646Y-65653371D01*
X123708646Y-65653371D02*
X123661027Y-65558133D01*
X123661027Y-65558133D02*
X123661027Y-65462895D01*
X123661027Y-65462895D02*
X123708646Y-65367657D01*
X123708646Y-65367657D02*
X123756265Y-65320038D01*
X123756265Y-65320038D02*
X123851503Y-65272419D01*
X123851503Y-65272419D02*
X124089598Y-65272419D01*
X124089598Y-65272419D02*
X124232455Y-65320038D01*
X124661027Y-66272419D02*
X124661027Y-65272419D01*
X124661027Y-65272419D02*
X125041979Y-65272419D01*
X125041979Y-65272419D02*
X125137217Y-65320038D01*
X125137217Y-65320038D02*
X125184836Y-65367657D01*
X125184836Y-65367657D02*
X125232455Y-65462895D01*
X125232455Y-65462895D02*
X125232455Y-65605752D01*
X125232455Y-65605752D02*
X125184836Y-65700990D01*
X125184836Y-65700990D02*
X125137217Y-65748609D01*
X125137217Y-65748609D02*
X125041979Y-65796228D01*
X125041979Y-65796228D02*
X124661027Y-65796228D01*
X125565789Y-65272419D02*
X126184836Y-65272419D01*
X126184836Y-65272419D02*
X125851503Y-65653371D01*
X125851503Y-65653371D02*
X125994360Y-65653371D01*
X125994360Y-65653371D02*
X126089598Y-65700990D01*
X126089598Y-65700990D02*
X126137217Y-65748609D01*
X126137217Y-65748609D02*
X126184836Y-65843847D01*
X126184836Y-65843847D02*
X126184836Y-66081942D01*
X126184836Y-66081942D02*
X126137217Y-66177180D01*
X126137217Y-66177180D02*
X126089598Y-66224800D01*
X126089598Y-66224800D02*
X125994360Y-66272419D01*
X125994360Y-66272419D02*
X125708646Y-66272419D01*
X125708646Y-66272419D02*
X125613408Y-66224800D01*
X125613408Y-66224800D02*
X125565789Y-66177180D01*
X126565789Y-65367657D02*
X126613408Y-65320038D01*
X126613408Y-65320038D02*
X126708646Y-65272419D01*
X126708646Y-65272419D02*
X126946741Y-65272419D01*
X126946741Y-65272419D02*
X127041979Y-65320038D01*
X127041979Y-65320038D02*
X127089598Y-65367657D01*
X127089598Y-65367657D02*
X127137217Y-65462895D01*
X127137217Y-65462895D02*
X127137217Y-65558133D01*
X127137217Y-65558133D02*
X127089598Y-65700990D01*
X127089598Y-65700990D02*
X126518170Y-66272419D01*
X126518170Y-66272419D02*
X127137217Y-66272419D01*
X61803884Y-67048609D02*
X62137217Y-67048609D01*
X62280074Y-67572419D02*
X61803884Y-67572419D01*
X61803884Y-67572419D02*
X61803884Y-66572419D01*
X61803884Y-66572419D02*
X62280074Y-66572419D01*
X62565789Y-66905752D02*
X62946741Y-66905752D01*
X62708646Y-66572419D02*
X62708646Y-67429561D01*
X62708646Y-67429561D02*
X62756265Y-67524800D01*
X62756265Y-67524800D02*
X62851503Y-67572419D01*
X62851503Y-67572419D02*
X62946741Y-67572419D01*
X63280075Y-67572419D02*
X63280075Y-66572419D01*
X63708646Y-67572419D02*
X63708646Y-67048609D01*
X63708646Y-67048609D02*
X63661027Y-66953371D01*
X63661027Y-66953371D02*
X63565789Y-66905752D01*
X63565789Y-66905752D02*
X63422932Y-66905752D01*
X63422932Y-66905752D02*
X63327694Y-66953371D01*
X63327694Y-66953371D02*
X63280075Y-67000990D01*
X64565789Y-67524800D02*
X64470551Y-67572419D01*
X64470551Y-67572419D02*
X64280075Y-67572419D01*
X64280075Y-67572419D02*
X64184837Y-67524800D01*
X64184837Y-67524800D02*
X64137218Y-67429561D01*
X64137218Y-67429561D02*
X64137218Y-67048609D01*
X64137218Y-67048609D02*
X64184837Y-66953371D01*
X64184837Y-66953371D02*
X64280075Y-66905752D01*
X64280075Y-66905752D02*
X64470551Y-66905752D01*
X64470551Y-66905752D02*
X64565789Y-66953371D01*
X64565789Y-66953371D02*
X64613408Y-67048609D01*
X64613408Y-67048609D02*
X64613408Y-67143847D01*
X64613408Y-67143847D02*
X64137218Y-67239085D01*
X65041980Y-67572419D02*
X65041980Y-66905752D01*
X65041980Y-67096228D02*
X65089599Y-67000990D01*
X65089599Y-67000990D02*
X65137218Y-66953371D01*
X65137218Y-66953371D02*
X65232456Y-66905752D01*
X65232456Y-66905752D02*
X65327694Y-66905752D01*
X65661028Y-66905752D02*
X65661028Y-67572419D01*
X65661028Y-67000990D02*
X65708647Y-66953371D01*
X65708647Y-66953371D02*
X65803885Y-66905752D01*
X65803885Y-66905752D02*
X65946742Y-66905752D01*
X65946742Y-66905752D02*
X66041980Y-66953371D01*
X66041980Y-66953371D02*
X66089599Y-67048609D01*
X66089599Y-67048609D02*
X66089599Y-67572419D01*
X66946742Y-67524800D02*
X66851504Y-67572419D01*
X66851504Y-67572419D02*
X66661028Y-67572419D01*
X66661028Y-67572419D02*
X66565790Y-67524800D01*
X66565790Y-67524800D02*
X66518171Y-67429561D01*
X66518171Y-67429561D02*
X66518171Y-67048609D01*
X66518171Y-67048609D02*
X66565790Y-66953371D01*
X66565790Y-66953371D02*
X66661028Y-66905752D01*
X66661028Y-66905752D02*
X66851504Y-66905752D01*
X66851504Y-66905752D02*
X66946742Y-66953371D01*
X66946742Y-66953371D02*
X66994361Y-67048609D01*
X66994361Y-67048609D02*
X66994361Y-67143847D01*
X66994361Y-67143847D02*
X66518171Y-67239085D01*
X67280076Y-66905752D02*
X67661028Y-66905752D01*
X67422933Y-66572419D02*
X67422933Y-67429561D01*
X67422933Y-67429561D02*
X67470552Y-67524800D01*
X67470552Y-67524800D02*
X67565790Y-67572419D01*
X67565790Y-67572419D02*
X67661028Y-67572419D01*
X81303884Y-124172419D02*
X81303884Y-123172419D01*
X81303884Y-123172419D02*
X81684836Y-123172419D01*
X81684836Y-123172419D02*
X81780074Y-123220038D01*
X81780074Y-123220038D02*
X81827693Y-123267657D01*
X81827693Y-123267657D02*
X81875312Y-123362895D01*
X81875312Y-123362895D02*
X81875312Y-123505752D01*
X81875312Y-123505752D02*
X81827693Y-123600990D01*
X81827693Y-123600990D02*
X81780074Y-123648609D01*
X81780074Y-123648609D02*
X81684836Y-123696228D01*
X81684836Y-123696228D02*
X81303884Y-123696228D01*
X82446741Y-124172419D02*
X82351503Y-124124800D01*
X82351503Y-124124800D02*
X82303884Y-124077180D01*
X82303884Y-124077180D02*
X82256265Y-123981942D01*
X82256265Y-123981942D02*
X82256265Y-123696228D01*
X82256265Y-123696228D02*
X82303884Y-123600990D01*
X82303884Y-123600990D02*
X82351503Y-123553371D01*
X82351503Y-123553371D02*
X82446741Y-123505752D01*
X82446741Y-123505752D02*
X82589598Y-123505752D01*
X82589598Y-123505752D02*
X82684836Y-123553371D01*
X82684836Y-123553371D02*
X82732455Y-123600990D01*
X82732455Y-123600990D02*
X82780074Y-123696228D01*
X82780074Y-123696228D02*
X82780074Y-123981942D01*
X82780074Y-123981942D02*
X82732455Y-124077180D01*
X82732455Y-124077180D02*
X82684836Y-124124800D01*
X82684836Y-124124800D02*
X82589598Y-124172419D01*
X82589598Y-124172419D02*
X82446741Y-124172419D01*
X83113408Y-123505752D02*
X83303884Y-124172419D01*
X83303884Y-124172419D02*
X83494360Y-123696228D01*
X83494360Y-123696228D02*
X83684836Y-124172419D01*
X83684836Y-124172419D02*
X83875312Y-123505752D01*
X84637217Y-124124800D02*
X84541979Y-124172419D01*
X84541979Y-124172419D02*
X84351503Y-124172419D01*
X84351503Y-124172419D02*
X84256265Y-124124800D01*
X84256265Y-124124800D02*
X84208646Y-124029561D01*
X84208646Y-124029561D02*
X84208646Y-123648609D01*
X84208646Y-123648609D02*
X84256265Y-123553371D01*
X84256265Y-123553371D02*
X84351503Y-123505752D01*
X84351503Y-123505752D02*
X84541979Y-123505752D01*
X84541979Y-123505752D02*
X84637217Y-123553371D01*
X84637217Y-123553371D02*
X84684836Y-123648609D01*
X84684836Y-123648609D02*
X84684836Y-123743847D01*
X84684836Y-123743847D02*
X84208646Y-123839085D01*
X85113408Y-124172419D02*
X85113408Y-123505752D01*
X85113408Y-123696228D02*
X85161027Y-123600990D01*
X85161027Y-123600990D02*
X85208646Y-123553371D01*
X85208646Y-123553371D02*
X85303884Y-123505752D01*
X85303884Y-123505752D02*
X85399122Y-123505752D01*
X118337217Y-73048609D02*
X118480074Y-73096228D01*
X118480074Y-73096228D02*
X118527693Y-73143847D01*
X118527693Y-73143847D02*
X118575312Y-73239085D01*
X118575312Y-73239085D02*
X118575312Y-73381942D01*
X118575312Y-73381942D02*
X118527693Y-73477180D01*
X118527693Y-73477180D02*
X118480074Y-73524800D01*
X118480074Y-73524800D02*
X118384836Y-73572419D01*
X118384836Y-73572419D02*
X118003884Y-73572419D01*
X118003884Y-73572419D02*
X118003884Y-72572419D01*
X118003884Y-72572419D02*
X118337217Y-72572419D01*
X118337217Y-72572419D02*
X118432455Y-72620038D01*
X118432455Y-72620038D02*
X118480074Y-72667657D01*
X118480074Y-72667657D02*
X118527693Y-72762895D01*
X118527693Y-72762895D02*
X118527693Y-72858133D01*
X118527693Y-72858133D02*
X118480074Y-72953371D01*
X118480074Y-72953371D02*
X118432455Y-73000990D01*
X118432455Y-73000990D02*
X118337217Y-73048609D01*
X118337217Y-73048609D02*
X118003884Y-73048609D01*
X119194360Y-72572419D02*
X119384836Y-72572419D01*
X119384836Y-72572419D02*
X119480074Y-72620038D01*
X119480074Y-72620038D02*
X119575312Y-72715276D01*
X119575312Y-72715276D02*
X119622931Y-72905752D01*
X119622931Y-72905752D02*
X119622931Y-73239085D01*
X119622931Y-73239085D02*
X119575312Y-73429561D01*
X119575312Y-73429561D02*
X119480074Y-73524800D01*
X119480074Y-73524800D02*
X119384836Y-73572419D01*
X119384836Y-73572419D02*
X119194360Y-73572419D01*
X119194360Y-73572419D02*
X119099122Y-73524800D01*
X119099122Y-73524800D02*
X119003884Y-73429561D01*
X119003884Y-73429561D02*
X118956265Y-73239085D01*
X118956265Y-73239085D02*
X118956265Y-72905752D01*
X118956265Y-72905752D02*
X119003884Y-72715276D01*
X119003884Y-72715276D02*
X119099122Y-72620038D01*
X119099122Y-72620038D02*
X119194360Y-72572419D01*
X120241979Y-72572419D02*
X120432455Y-72572419D01*
X120432455Y-72572419D02*
X120527693Y-72620038D01*
X120527693Y-72620038D02*
X120622931Y-72715276D01*
X120622931Y-72715276D02*
X120670550Y-72905752D01*
X120670550Y-72905752D02*
X120670550Y-73239085D01*
X120670550Y-73239085D02*
X120622931Y-73429561D01*
X120622931Y-73429561D02*
X120527693Y-73524800D01*
X120527693Y-73524800D02*
X120432455Y-73572419D01*
X120432455Y-73572419D02*
X120241979Y-73572419D01*
X120241979Y-73572419D02*
X120146741Y-73524800D01*
X120146741Y-73524800D02*
X120051503Y-73429561D01*
X120051503Y-73429561D02*
X120003884Y-73239085D01*
X120003884Y-73239085D02*
X120003884Y-72905752D01*
X120003884Y-72905752D02*
X120051503Y-72715276D01*
X120051503Y-72715276D02*
X120146741Y-72620038D01*
X120146741Y-72620038D02*
X120241979Y-72572419D01*
X120956265Y-72572419D02*
X121527693Y-72572419D01*
X121241979Y-73572419D02*
X121241979Y-72572419D01*
X120703884Y-124248609D02*
X121037217Y-124248609D01*
X121180074Y-124772419D02*
X120703884Y-124772419D01*
X120703884Y-124772419D02*
X120703884Y-123772419D01*
X120703884Y-123772419D02*
X121180074Y-123772419D01*
X121608646Y-124772419D02*
X121608646Y-123772419D01*
X121608646Y-123772419D02*
X122180074Y-124772419D01*
X122180074Y-124772419D02*
X122180074Y-123772419D01*
D11*
X71578571Y-60324809D02*
X71411905Y-60086714D01*
X71292857Y-60324809D02*
X71292857Y-59824809D01*
X71292857Y-59824809D02*
X71483333Y-59824809D01*
X71483333Y-59824809D02*
X71530952Y-59848619D01*
X71530952Y-59848619D02*
X71554762Y-59872428D01*
X71554762Y-59872428D02*
X71578571Y-59920047D01*
X71578571Y-59920047D02*
X71578571Y-59991476D01*
X71578571Y-59991476D02*
X71554762Y-60039095D01*
X71554762Y-60039095D02*
X71530952Y-60062904D01*
X71530952Y-60062904D02*
X71483333Y-60086714D01*
X71483333Y-60086714D02*
X71292857Y-60086714D01*
X71769048Y-59872428D02*
X71792857Y-59848619D01*
X71792857Y-59848619D02*
X71840476Y-59824809D01*
X71840476Y-59824809D02*
X71959524Y-59824809D01*
X71959524Y-59824809D02*
X72007143Y-59848619D01*
X72007143Y-59848619D02*
X72030952Y-59872428D01*
X72030952Y-59872428D02*
X72054762Y-59920047D01*
X72054762Y-59920047D02*
X72054762Y-59967666D01*
X72054762Y-59967666D02*
X72030952Y-60039095D01*
X72030952Y-60039095D02*
X71745238Y-60324809D01*
X71745238Y-60324809D02*
X72054762Y-60324809D01*
X72221428Y-59824809D02*
X72554761Y-59824809D01*
X72554761Y-59824809D02*
X72340476Y-60324809D01*
X149833333Y-109024809D02*
X149833333Y-109381952D01*
X149833333Y-109381952D02*
X149809524Y-109453380D01*
X149809524Y-109453380D02*
X149761905Y-109501000D01*
X149761905Y-109501000D02*
X149690476Y-109524809D01*
X149690476Y-109524809D02*
X149642857Y-109524809D01*
X150309523Y-109024809D02*
X150071428Y-109024809D01*
X150071428Y-109024809D02*
X150047619Y-109262904D01*
X150047619Y-109262904D02*
X150071428Y-109239095D01*
X150071428Y-109239095D02*
X150119047Y-109215285D01*
X150119047Y-109215285D02*
X150238095Y-109215285D01*
X150238095Y-109215285D02*
X150285714Y-109239095D01*
X150285714Y-109239095D02*
X150309523Y-109262904D01*
X150309523Y-109262904D02*
X150333333Y-109310523D01*
X150333333Y-109310523D02*
X150333333Y-109429571D01*
X150333333Y-109429571D02*
X150309523Y-109477190D01*
X150309523Y-109477190D02*
X150285714Y-109501000D01*
X150285714Y-109501000D02*
X150238095Y-109524809D01*
X150238095Y-109524809D02*
X150119047Y-109524809D01*
X150119047Y-109524809D02*
X150071428Y-109501000D01*
X150071428Y-109501000D02*
X150047619Y-109477190D01*
X79424809Y-71283333D02*
X79186714Y-71449999D01*
X79424809Y-71569047D02*
X78924809Y-71569047D01*
X78924809Y-71569047D02*
X78924809Y-71378571D01*
X78924809Y-71378571D02*
X78948619Y-71330952D01*
X78948619Y-71330952D02*
X78972428Y-71307142D01*
X78972428Y-71307142D02*
X79020047Y-71283333D01*
X79020047Y-71283333D02*
X79091476Y-71283333D01*
X79091476Y-71283333D02*
X79139095Y-71307142D01*
X79139095Y-71307142D02*
X79162904Y-71330952D01*
X79162904Y-71330952D02*
X79186714Y-71378571D01*
X79186714Y-71378571D02*
X79186714Y-71569047D01*
X78924809Y-70854761D02*
X78924809Y-70949999D01*
X78924809Y-70949999D02*
X78948619Y-70997618D01*
X78948619Y-70997618D02*
X78972428Y-71021428D01*
X78972428Y-71021428D02*
X79043857Y-71069047D01*
X79043857Y-71069047D02*
X79139095Y-71092856D01*
X79139095Y-71092856D02*
X79329571Y-71092856D01*
X79329571Y-71092856D02*
X79377190Y-71069047D01*
X79377190Y-71069047D02*
X79401000Y-71045237D01*
X79401000Y-71045237D02*
X79424809Y-70997618D01*
X79424809Y-70997618D02*
X79424809Y-70902380D01*
X79424809Y-70902380D02*
X79401000Y-70854761D01*
X79401000Y-70854761D02*
X79377190Y-70830952D01*
X79377190Y-70830952D02*
X79329571Y-70807142D01*
X79329571Y-70807142D02*
X79210523Y-70807142D01*
X79210523Y-70807142D02*
X79162904Y-70830952D01*
X79162904Y-70830952D02*
X79139095Y-70854761D01*
X79139095Y-70854761D02*
X79115285Y-70902380D01*
X79115285Y-70902380D02*
X79115285Y-70997618D01*
X79115285Y-70997618D02*
X79139095Y-71045237D01*
X79139095Y-71045237D02*
X79162904Y-71069047D01*
X79162904Y-71069047D02*
X79210523Y-71092856D01*
X93224809Y-68483333D02*
X92986714Y-68649999D01*
X93224809Y-68769047D02*
X92724809Y-68769047D01*
X92724809Y-68769047D02*
X92724809Y-68578571D01*
X92724809Y-68578571D02*
X92748619Y-68530952D01*
X92748619Y-68530952D02*
X92772428Y-68507142D01*
X92772428Y-68507142D02*
X92820047Y-68483333D01*
X92820047Y-68483333D02*
X92891476Y-68483333D01*
X92891476Y-68483333D02*
X92939095Y-68507142D01*
X92939095Y-68507142D02*
X92962904Y-68530952D01*
X92962904Y-68530952D02*
X92986714Y-68578571D01*
X92986714Y-68578571D02*
X92986714Y-68769047D01*
X92891476Y-68054761D02*
X93224809Y-68054761D01*
X92701000Y-68173809D02*
X93058142Y-68292856D01*
X93058142Y-68292856D02*
X93058142Y-67983333D01*
X146124809Y-117351047D02*
X145624809Y-117351047D01*
X145624809Y-117351047D02*
X145624809Y-117231999D01*
X145624809Y-117231999D02*
X145648619Y-117160571D01*
X145648619Y-117160571D02*
X145696238Y-117112952D01*
X145696238Y-117112952D02*
X145743857Y-117089142D01*
X145743857Y-117089142D02*
X145839095Y-117065333D01*
X145839095Y-117065333D02*
X145910523Y-117065333D01*
X145910523Y-117065333D02*
X146005761Y-117089142D01*
X146005761Y-117089142D02*
X146053380Y-117112952D01*
X146053380Y-117112952D02*
X146101000Y-117160571D01*
X146101000Y-117160571D02*
X146124809Y-117231999D01*
X146124809Y-117231999D02*
X146124809Y-117351047D01*
X145624809Y-116636761D02*
X145624809Y-116731999D01*
X145624809Y-116731999D02*
X145648619Y-116779618D01*
X145648619Y-116779618D02*
X145672428Y-116803428D01*
X145672428Y-116803428D02*
X145743857Y-116851047D01*
X145743857Y-116851047D02*
X145839095Y-116874856D01*
X145839095Y-116874856D02*
X146029571Y-116874856D01*
X146029571Y-116874856D02*
X146077190Y-116851047D01*
X146077190Y-116851047D02*
X146101000Y-116827237D01*
X146101000Y-116827237D02*
X146124809Y-116779618D01*
X146124809Y-116779618D02*
X146124809Y-116684380D01*
X146124809Y-116684380D02*
X146101000Y-116636761D01*
X146101000Y-116636761D02*
X146077190Y-116612952D01*
X146077190Y-116612952D02*
X146029571Y-116589142D01*
X146029571Y-116589142D02*
X145910523Y-116589142D01*
X145910523Y-116589142D02*
X145862904Y-116612952D01*
X145862904Y-116612952D02*
X145839095Y-116636761D01*
X145839095Y-116636761D02*
X145815285Y-116684380D01*
X145815285Y-116684380D02*
X145815285Y-116779618D01*
X145815285Y-116779618D02*
X145839095Y-116827237D01*
X145839095Y-116827237D02*
X145862904Y-116851047D01*
X145862904Y-116851047D02*
X145910523Y-116874856D01*
X146124809Y-130451047D02*
X145624809Y-130451047D01*
X145624809Y-130451047D02*
X145624809Y-130331999D01*
X145624809Y-130331999D02*
X145648619Y-130260571D01*
X145648619Y-130260571D02*
X145696238Y-130212952D01*
X145696238Y-130212952D02*
X145743857Y-130189142D01*
X145743857Y-130189142D02*
X145839095Y-130165333D01*
X145839095Y-130165333D02*
X145910523Y-130165333D01*
X145910523Y-130165333D02*
X146005761Y-130189142D01*
X146005761Y-130189142D02*
X146053380Y-130212952D01*
X146053380Y-130212952D02*
X146101000Y-130260571D01*
X146101000Y-130260571D02*
X146124809Y-130331999D01*
X146124809Y-130331999D02*
X146124809Y-130451047D01*
X145624809Y-129998666D02*
X145624809Y-129689142D01*
X145624809Y-129689142D02*
X145815285Y-129855809D01*
X145815285Y-129855809D02*
X145815285Y-129784380D01*
X145815285Y-129784380D02*
X145839095Y-129736761D01*
X145839095Y-129736761D02*
X145862904Y-129712952D01*
X145862904Y-129712952D02*
X145910523Y-129689142D01*
X145910523Y-129689142D02*
X146029571Y-129689142D01*
X146029571Y-129689142D02*
X146077190Y-129712952D01*
X146077190Y-129712952D02*
X146101000Y-129736761D01*
X146101000Y-129736761D02*
X146124809Y-129784380D01*
X146124809Y-129784380D02*
X146124809Y-129927237D01*
X146124809Y-129927237D02*
X146101000Y-129974856D01*
X146101000Y-129974856D02*
X146077190Y-129998666D01*
X84424809Y-68221428D02*
X84186714Y-68388094D01*
X84424809Y-68507142D02*
X83924809Y-68507142D01*
X83924809Y-68507142D02*
X83924809Y-68316666D01*
X83924809Y-68316666D02*
X83948619Y-68269047D01*
X83948619Y-68269047D02*
X83972428Y-68245237D01*
X83972428Y-68245237D02*
X84020047Y-68221428D01*
X84020047Y-68221428D02*
X84091476Y-68221428D01*
X84091476Y-68221428D02*
X84139095Y-68245237D01*
X84139095Y-68245237D02*
X84162904Y-68269047D01*
X84162904Y-68269047D02*
X84186714Y-68316666D01*
X84186714Y-68316666D02*
X84186714Y-68507142D01*
X83972428Y-68030951D02*
X83948619Y-68007142D01*
X83948619Y-68007142D02*
X83924809Y-67959523D01*
X83924809Y-67959523D02*
X83924809Y-67840475D01*
X83924809Y-67840475D02*
X83948619Y-67792856D01*
X83948619Y-67792856D02*
X83972428Y-67769047D01*
X83972428Y-67769047D02*
X84020047Y-67745237D01*
X84020047Y-67745237D02*
X84067666Y-67745237D01*
X84067666Y-67745237D02*
X84139095Y-67769047D01*
X84139095Y-67769047D02*
X84424809Y-68054761D01*
X84424809Y-68054761D02*
X84424809Y-67745237D01*
X83972428Y-67554761D02*
X83948619Y-67530952D01*
X83948619Y-67530952D02*
X83924809Y-67483333D01*
X83924809Y-67483333D02*
X83924809Y-67364285D01*
X83924809Y-67364285D02*
X83948619Y-67316666D01*
X83948619Y-67316666D02*
X83972428Y-67292857D01*
X83972428Y-67292857D02*
X84020047Y-67269047D01*
X84020047Y-67269047D02*
X84067666Y-67269047D01*
X84067666Y-67269047D02*
X84139095Y-67292857D01*
X84139095Y-67292857D02*
X84424809Y-67578571D01*
X84424809Y-67578571D02*
X84424809Y-67269047D01*
X92524809Y-74883333D02*
X92286714Y-75049999D01*
X92524809Y-75169047D02*
X92024809Y-75169047D01*
X92024809Y-75169047D02*
X92024809Y-74978571D01*
X92024809Y-74978571D02*
X92048619Y-74930952D01*
X92048619Y-74930952D02*
X92072428Y-74907142D01*
X92072428Y-74907142D02*
X92120047Y-74883333D01*
X92120047Y-74883333D02*
X92191476Y-74883333D01*
X92191476Y-74883333D02*
X92239095Y-74907142D01*
X92239095Y-74907142D02*
X92262904Y-74930952D01*
X92262904Y-74930952D02*
X92286714Y-74978571D01*
X92286714Y-74978571D02*
X92286714Y-75169047D01*
X92524809Y-74407142D02*
X92524809Y-74692856D01*
X92524809Y-74549999D02*
X92024809Y-74549999D01*
X92024809Y-74549999D02*
X92096238Y-74597618D01*
X92096238Y-74597618D02*
X92143857Y-74645237D01*
X92143857Y-74645237D02*
X92167666Y-74692856D01*
X129824809Y-61380952D02*
X130229571Y-61380952D01*
X130229571Y-61380952D02*
X130277190Y-61357142D01*
X130277190Y-61357142D02*
X130301000Y-61333333D01*
X130301000Y-61333333D02*
X130324809Y-61285714D01*
X130324809Y-61285714D02*
X130324809Y-61190476D01*
X130324809Y-61190476D02*
X130301000Y-61142857D01*
X130301000Y-61142857D02*
X130277190Y-61119047D01*
X130277190Y-61119047D02*
X130229571Y-61095238D01*
X130229571Y-61095238D02*
X129824809Y-61095238D01*
X129824809Y-60619047D02*
X129824809Y-60857142D01*
X129824809Y-60857142D02*
X130062904Y-60880951D01*
X130062904Y-60880951D02*
X130039095Y-60857142D01*
X130039095Y-60857142D02*
X130015285Y-60809523D01*
X130015285Y-60809523D02*
X130015285Y-60690475D01*
X130015285Y-60690475D02*
X130039095Y-60642856D01*
X130039095Y-60642856D02*
X130062904Y-60619047D01*
X130062904Y-60619047D02*
X130110523Y-60595237D01*
X130110523Y-60595237D02*
X130229571Y-60595237D01*
X130229571Y-60595237D02*
X130277190Y-60619047D01*
X130277190Y-60619047D02*
X130301000Y-60642856D01*
X130301000Y-60642856D02*
X130324809Y-60690475D01*
X130324809Y-60690475D02*
X130324809Y-60809523D01*
X130324809Y-60809523D02*
X130301000Y-60857142D01*
X130301000Y-60857142D02*
X130277190Y-60880951D01*
X74928571Y-78144809D02*
X74761905Y-77906714D01*
X74642857Y-78144809D02*
X74642857Y-77644809D01*
X74642857Y-77644809D02*
X74833333Y-77644809D01*
X74833333Y-77644809D02*
X74880952Y-77668619D01*
X74880952Y-77668619D02*
X74904762Y-77692428D01*
X74904762Y-77692428D02*
X74928571Y-77740047D01*
X74928571Y-77740047D02*
X74928571Y-77811476D01*
X74928571Y-77811476D02*
X74904762Y-77859095D01*
X74904762Y-77859095D02*
X74880952Y-77882904D01*
X74880952Y-77882904D02*
X74833333Y-77906714D01*
X74833333Y-77906714D02*
X74642857Y-77906714D01*
X75404762Y-78144809D02*
X75119048Y-78144809D01*
X75261905Y-78144809D02*
X75261905Y-77644809D01*
X75261905Y-77644809D02*
X75214286Y-77716238D01*
X75214286Y-77716238D02*
X75166667Y-77763857D01*
X75166667Y-77763857D02*
X75119048Y-77787666D01*
X75714285Y-77644809D02*
X75761904Y-77644809D01*
X75761904Y-77644809D02*
X75809523Y-77668619D01*
X75809523Y-77668619D02*
X75833333Y-77692428D01*
X75833333Y-77692428D02*
X75857142Y-77740047D01*
X75857142Y-77740047D02*
X75880952Y-77835285D01*
X75880952Y-77835285D02*
X75880952Y-77954333D01*
X75880952Y-77954333D02*
X75857142Y-78049571D01*
X75857142Y-78049571D02*
X75833333Y-78097190D01*
X75833333Y-78097190D02*
X75809523Y-78121000D01*
X75809523Y-78121000D02*
X75761904Y-78144809D01*
X75761904Y-78144809D02*
X75714285Y-78144809D01*
X75714285Y-78144809D02*
X75666666Y-78121000D01*
X75666666Y-78121000D02*
X75642857Y-78097190D01*
X75642857Y-78097190D02*
X75619047Y-78049571D01*
X75619047Y-78049571D02*
X75595238Y-77954333D01*
X75595238Y-77954333D02*
X75595238Y-77835285D01*
X75595238Y-77835285D02*
X75619047Y-77740047D01*
X75619047Y-77740047D02*
X75642857Y-77692428D01*
X75642857Y-77692428D02*
X75666666Y-77668619D01*
X75666666Y-77668619D02*
X75714285Y-77644809D01*
X130177190Y-74583333D02*
X130201000Y-74607142D01*
X130201000Y-74607142D02*
X130224809Y-74678571D01*
X130224809Y-74678571D02*
X130224809Y-74726190D01*
X130224809Y-74726190D02*
X130201000Y-74797618D01*
X130201000Y-74797618D02*
X130153380Y-74845237D01*
X130153380Y-74845237D02*
X130105761Y-74869047D01*
X130105761Y-74869047D02*
X130010523Y-74892856D01*
X130010523Y-74892856D02*
X129939095Y-74892856D01*
X129939095Y-74892856D02*
X129843857Y-74869047D01*
X129843857Y-74869047D02*
X129796238Y-74845237D01*
X129796238Y-74845237D02*
X129748619Y-74797618D01*
X129748619Y-74797618D02*
X129724809Y-74726190D01*
X129724809Y-74726190D02*
X129724809Y-74678571D01*
X129724809Y-74678571D02*
X129748619Y-74607142D01*
X129748619Y-74607142D02*
X129772428Y-74583333D01*
X130224809Y-74107142D02*
X130224809Y-74392856D01*
X130224809Y-74249999D02*
X129724809Y-74249999D01*
X129724809Y-74249999D02*
X129796238Y-74297618D01*
X129796238Y-74297618D02*
X129843857Y-74345237D01*
X129843857Y-74345237D02*
X129867666Y-74392856D01*
X137077190Y-112721428D02*
X137101000Y-112745237D01*
X137101000Y-112745237D02*
X137124809Y-112816666D01*
X137124809Y-112816666D02*
X137124809Y-112864285D01*
X137124809Y-112864285D02*
X137101000Y-112935713D01*
X137101000Y-112935713D02*
X137053380Y-112983332D01*
X137053380Y-112983332D02*
X137005761Y-113007142D01*
X137005761Y-113007142D02*
X136910523Y-113030951D01*
X136910523Y-113030951D02*
X136839095Y-113030951D01*
X136839095Y-113030951D02*
X136743857Y-113007142D01*
X136743857Y-113007142D02*
X136696238Y-112983332D01*
X136696238Y-112983332D02*
X136648619Y-112935713D01*
X136648619Y-112935713D02*
X136624809Y-112864285D01*
X136624809Y-112864285D02*
X136624809Y-112816666D01*
X136624809Y-112816666D02*
X136648619Y-112745237D01*
X136648619Y-112745237D02*
X136672428Y-112721428D01*
X137124809Y-112245237D02*
X137124809Y-112530951D01*
X137124809Y-112388094D02*
X136624809Y-112388094D01*
X136624809Y-112388094D02*
X136696238Y-112435713D01*
X136696238Y-112435713D02*
X136743857Y-112483332D01*
X136743857Y-112483332D02*
X136767666Y-112530951D01*
X136791476Y-111816666D02*
X137124809Y-111816666D01*
X136601000Y-111935714D02*
X136958142Y-112054761D01*
X136958142Y-112054761D02*
X136958142Y-111745238D01*
X92724809Y-70883333D02*
X92486714Y-71049999D01*
X92724809Y-71169047D02*
X92224809Y-71169047D01*
X92224809Y-71169047D02*
X92224809Y-70978571D01*
X92224809Y-70978571D02*
X92248619Y-70930952D01*
X92248619Y-70930952D02*
X92272428Y-70907142D01*
X92272428Y-70907142D02*
X92320047Y-70883333D01*
X92320047Y-70883333D02*
X92391476Y-70883333D01*
X92391476Y-70883333D02*
X92439095Y-70907142D01*
X92439095Y-70907142D02*
X92462904Y-70930952D01*
X92462904Y-70930952D02*
X92486714Y-70978571D01*
X92486714Y-70978571D02*
X92486714Y-71169047D01*
X92224809Y-70716666D02*
X92224809Y-70407142D01*
X92224809Y-70407142D02*
X92415285Y-70573809D01*
X92415285Y-70573809D02*
X92415285Y-70502380D01*
X92415285Y-70502380D02*
X92439095Y-70454761D01*
X92439095Y-70454761D02*
X92462904Y-70430952D01*
X92462904Y-70430952D02*
X92510523Y-70407142D01*
X92510523Y-70407142D02*
X92629571Y-70407142D01*
X92629571Y-70407142D02*
X92677190Y-70430952D01*
X92677190Y-70430952D02*
X92701000Y-70454761D01*
X92701000Y-70454761D02*
X92724809Y-70502380D01*
X92724809Y-70502380D02*
X92724809Y-70645237D01*
X92724809Y-70645237D02*
X92701000Y-70692856D01*
X92701000Y-70692856D02*
X92677190Y-70716666D01*
X89478571Y-54174809D02*
X89311905Y-53936714D01*
X89192857Y-54174809D02*
X89192857Y-53674809D01*
X89192857Y-53674809D02*
X89383333Y-53674809D01*
X89383333Y-53674809D02*
X89430952Y-53698619D01*
X89430952Y-53698619D02*
X89454762Y-53722428D01*
X89454762Y-53722428D02*
X89478571Y-53770047D01*
X89478571Y-53770047D02*
X89478571Y-53841476D01*
X89478571Y-53841476D02*
X89454762Y-53889095D01*
X89454762Y-53889095D02*
X89430952Y-53912904D01*
X89430952Y-53912904D02*
X89383333Y-53936714D01*
X89383333Y-53936714D02*
X89192857Y-53936714D01*
X89645238Y-53674809D02*
X89954762Y-53674809D01*
X89954762Y-53674809D02*
X89788095Y-53865285D01*
X89788095Y-53865285D02*
X89859524Y-53865285D01*
X89859524Y-53865285D02*
X89907143Y-53889095D01*
X89907143Y-53889095D02*
X89930952Y-53912904D01*
X89930952Y-53912904D02*
X89954762Y-53960523D01*
X89954762Y-53960523D02*
X89954762Y-54079571D01*
X89954762Y-54079571D02*
X89930952Y-54127190D01*
X89930952Y-54127190D02*
X89907143Y-54151000D01*
X89907143Y-54151000D02*
X89859524Y-54174809D01*
X89859524Y-54174809D02*
X89716667Y-54174809D01*
X89716667Y-54174809D02*
X89669048Y-54151000D01*
X89669048Y-54151000D02*
X89645238Y-54127190D01*
X90430952Y-54174809D02*
X90145238Y-54174809D01*
X90288095Y-54174809D02*
X90288095Y-53674809D01*
X90288095Y-53674809D02*
X90240476Y-53746238D01*
X90240476Y-53746238D02*
X90192857Y-53793857D01*
X90192857Y-53793857D02*
X90145238Y-53817666D01*
X91777190Y-72783333D02*
X91801000Y-72807142D01*
X91801000Y-72807142D02*
X91824809Y-72878571D01*
X91824809Y-72878571D02*
X91824809Y-72926190D01*
X91824809Y-72926190D02*
X91801000Y-72997618D01*
X91801000Y-72997618D02*
X91753380Y-73045237D01*
X91753380Y-73045237D02*
X91705761Y-73069047D01*
X91705761Y-73069047D02*
X91610523Y-73092856D01*
X91610523Y-73092856D02*
X91539095Y-73092856D01*
X91539095Y-73092856D02*
X91443857Y-73069047D01*
X91443857Y-73069047D02*
X91396238Y-73045237D01*
X91396238Y-73045237D02*
X91348619Y-72997618D01*
X91348619Y-72997618D02*
X91324809Y-72926190D01*
X91324809Y-72926190D02*
X91324809Y-72878571D01*
X91324809Y-72878571D02*
X91348619Y-72807142D01*
X91348619Y-72807142D02*
X91372428Y-72783333D01*
X91324809Y-72616666D02*
X91324809Y-72283333D01*
X91324809Y-72283333D02*
X91824809Y-72497618D01*
X94669048Y-69324809D02*
X94954762Y-69324809D01*
X94811905Y-69824809D02*
X94811905Y-69324809D01*
X95121428Y-69824809D02*
X95121428Y-69324809D01*
X95121428Y-69324809D02*
X95311904Y-69324809D01*
X95311904Y-69324809D02*
X95359523Y-69348619D01*
X95359523Y-69348619D02*
X95383333Y-69372428D01*
X95383333Y-69372428D02*
X95407142Y-69420047D01*
X95407142Y-69420047D02*
X95407142Y-69491476D01*
X95407142Y-69491476D02*
X95383333Y-69539095D01*
X95383333Y-69539095D02*
X95359523Y-69562904D01*
X95359523Y-69562904D02*
X95311904Y-69586714D01*
X95311904Y-69586714D02*
X95121428Y-69586714D01*
X95597619Y-69372428D02*
X95621428Y-69348619D01*
X95621428Y-69348619D02*
X95669047Y-69324809D01*
X95669047Y-69324809D02*
X95788095Y-69324809D01*
X95788095Y-69324809D02*
X95835714Y-69348619D01*
X95835714Y-69348619D02*
X95859523Y-69372428D01*
X95859523Y-69372428D02*
X95883333Y-69420047D01*
X95883333Y-69420047D02*
X95883333Y-69467666D01*
X95883333Y-69467666D02*
X95859523Y-69539095D01*
X95859523Y-69539095D02*
X95573809Y-69824809D01*
X95573809Y-69824809D02*
X95883333Y-69824809D01*
X81016666Y-69477190D02*
X80992857Y-69501000D01*
X80992857Y-69501000D02*
X80921428Y-69524809D01*
X80921428Y-69524809D02*
X80873809Y-69524809D01*
X80873809Y-69524809D02*
X80802381Y-69501000D01*
X80802381Y-69501000D02*
X80754762Y-69453380D01*
X80754762Y-69453380D02*
X80730952Y-69405761D01*
X80730952Y-69405761D02*
X80707143Y-69310523D01*
X80707143Y-69310523D02*
X80707143Y-69239095D01*
X80707143Y-69239095D02*
X80730952Y-69143857D01*
X80730952Y-69143857D02*
X80754762Y-69096238D01*
X80754762Y-69096238D02*
X80802381Y-69048619D01*
X80802381Y-69048619D02*
X80873809Y-69024809D01*
X80873809Y-69024809D02*
X80921428Y-69024809D01*
X80921428Y-69024809D02*
X80992857Y-69048619D01*
X80992857Y-69048619D02*
X81016666Y-69072428D01*
X81302381Y-69239095D02*
X81254762Y-69215285D01*
X81254762Y-69215285D02*
X81230952Y-69191476D01*
X81230952Y-69191476D02*
X81207143Y-69143857D01*
X81207143Y-69143857D02*
X81207143Y-69120047D01*
X81207143Y-69120047D02*
X81230952Y-69072428D01*
X81230952Y-69072428D02*
X81254762Y-69048619D01*
X81254762Y-69048619D02*
X81302381Y-69024809D01*
X81302381Y-69024809D02*
X81397619Y-69024809D01*
X81397619Y-69024809D02*
X81445238Y-69048619D01*
X81445238Y-69048619D02*
X81469047Y-69072428D01*
X81469047Y-69072428D02*
X81492857Y-69120047D01*
X81492857Y-69120047D02*
X81492857Y-69143857D01*
X81492857Y-69143857D02*
X81469047Y-69191476D01*
X81469047Y-69191476D02*
X81445238Y-69215285D01*
X81445238Y-69215285D02*
X81397619Y-69239095D01*
X81397619Y-69239095D02*
X81302381Y-69239095D01*
X81302381Y-69239095D02*
X81254762Y-69262904D01*
X81254762Y-69262904D02*
X81230952Y-69286714D01*
X81230952Y-69286714D02*
X81207143Y-69334333D01*
X81207143Y-69334333D02*
X81207143Y-69429571D01*
X81207143Y-69429571D02*
X81230952Y-69477190D01*
X81230952Y-69477190D02*
X81254762Y-69501000D01*
X81254762Y-69501000D02*
X81302381Y-69524809D01*
X81302381Y-69524809D02*
X81397619Y-69524809D01*
X81397619Y-69524809D02*
X81445238Y-69501000D01*
X81445238Y-69501000D02*
X81469047Y-69477190D01*
X81469047Y-69477190D02*
X81492857Y-69429571D01*
X81492857Y-69429571D02*
X81492857Y-69334333D01*
X81492857Y-69334333D02*
X81469047Y-69286714D01*
X81469047Y-69286714D02*
X81445238Y-69262904D01*
X81445238Y-69262904D02*
X81397619Y-69239095D01*
X86719047Y-125824809D02*
X86719047Y-126229571D01*
X86719047Y-126229571D02*
X86742857Y-126277190D01*
X86742857Y-126277190D02*
X86766666Y-126301000D01*
X86766666Y-126301000D02*
X86814285Y-126324809D01*
X86814285Y-126324809D02*
X86909523Y-126324809D01*
X86909523Y-126324809D02*
X86957142Y-126301000D01*
X86957142Y-126301000D02*
X86980952Y-126277190D01*
X86980952Y-126277190D02*
X87004761Y-126229571D01*
X87004761Y-126229571D02*
X87004761Y-125824809D01*
X87195238Y-125824809D02*
X87504762Y-125824809D01*
X87504762Y-125824809D02*
X87338095Y-126015285D01*
X87338095Y-126015285D02*
X87409524Y-126015285D01*
X87409524Y-126015285D02*
X87457143Y-126039095D01*
X87457143Y-126039095D02*
X87480952Y-126062904D01*
X87480952Y-126062904D02*
X87504762Y-126110523D01*
X87504762Y-126110523D02*
X87504762Y-126229571D01*
X87504762Y-126229571D02*
X87480952Y-126277190D01*
X87480952Y-126277190D02*
X87457143Y-126301000D01*
X87457143Y-126301000D02*
X87409524Y-126324809D01*
X87409524Y-126324809D02*
X87266667Y-126324809D01*
X87266667Y-126324809D02*
X87219048Y-126301000D01*
X87219048Y-126301000D02*
X87195238Y-126277190D01*
X150630952Y-129524809D02*
X150630952Y-129024809D01*
X150630952Y-129024809D02*
X150750000Y-129024809D01*
X150750000Y-129024809D02*
X150821428Y-129048619D01*
X150821428Y-129048619D02*
X150869047Y-129096238D01*
X150869047Y-129096238D02*
X150892857Y-129143857D01*
X150892857Y-129143857D02*
X150916666Y-129239095D01*
X150916666Y-129239095D02*
X150916666Y-129310523D01*
X150916666Y-129310523D02*
X150892857Y-129405761D01*
X150892857Y-129405761D02*
X150869047Y-129453380D01*
X150869047Y-129453380D02*
X150821428Y-129501000D01*
X150821428Y-129501000D02*
X150750000Y-129524809D01*
X150750000Y-129524809D02*
X150630952Y-129524809D01*
X151107143Y-129072428D02*
X151130952Y-129048619D01*
X151130952Y-129048619D02*
X151178571Y-129024809D01*
X151178571Y-129024809D02*
X151297619Y-129024809D01*
X151297619Y-129024809D02*
X151345238Y-129048619D01*
X151345238Y-129048619D02*
X151369047Y-129072428D01*
X151369047Y-129072428D02*
X151392857Y-129120047D01*
X151392857Y-129120047D02*
X151392857Y-129167666D01*
X151392857Y-129167666D02*
X151369047Y-129239095D01*
X151369047Y-129239095D02*
X151083333Y-129524809D01*
X151083333Y-129524809D02*
X151392857Y-129524809D01*
X73877190Y-73183333D02*
X73901000Y-73207142D01*
X73901000Y-73207142D02*
X73924809Y-73278571D01*
X73924809Y-73278571D02*
X73924809Y-73326190D01*
X73924809Y-73326190D02*
X73901000Y-73397618D01*
X73901000Y-73397618D02*
X73853380Y-73445237D01*
X73853380Y-73445237D02*
X73805761Y-73469047D01*
X73805761Y-73469047D02*
X73710523Y-73492856D01*
X73710523Y-73492856D02*
X73639095Y-73492856D01*
X73639095Y-73492856D02*
X73543857Y-73469047D01*
X73543857Y-73469047D02*
X73496238Y-73445237D01*
X73496238Y-73445237D02*
X73448619Y-73397618D01*
X73448619Y-73397618D02*
X73424809Y-73326190D01*
X73424809Y-73326190D02*
X73424809Y-73278571D01*
X73424809Y-73278571D02*
X73448619Y-73207142D01*
X73448619Y-73207142D02*
X73472428Y-73183333D01*
X73924809Y-72945237D02*
X73924809Y-72849999D01*
X73924809Y-72849999D02*
X73901000Y-72802380D01*
X73901000Y-72802380D02*
X73877190Y-72778571D01*
X73877190Y-72778571D02*
X73805761Y-72730952D01*
X73805761Y-72730952D02*
X73710523Y-72707142D01*
X73710523Y-72707142D02*
X73520047Y-72707142D01*
X73520047Y-72707142D02*
X73472428Y-72730952D01*
X73472428Y-72730952D02*
X73448619Y-72754761D01*
X73448619Y-72754761D02*
X73424809Y-72802380D01*
X73424809Y-72802380D02*
X73424809Y-72897618D01*
X73424809Y-72897618D02*
X73448619Y-72945237D01*
X73448619Y-72945237D02*
X73472428Y-72969047D01*
X73472428Y-72969047D02*
X73520047Y-72992856D01*
X73520047Y-72992856D02*
X73639095Y-72992856D01*
X73639095Y-72992856D02*
X73686714Y-72969047D01*
X73686714Y-72969047D02*
X73710523Y-72945237D01*
X73710523Y-72945237D02*
X73734333Y-72897618D01*
X73734333Y-72897618D02*
X73734333Y-72802380D01*
X73734333Y-72802380D02*
X73710523Y-72754761D01*
X73710523Y-72754761D02*
X73686714Y-72730952D01*
X73686714Y-72730952D02*
X73639095Y-72707142D01*
X150078571Y-59077190D02*
X150054762Y-59101000D01*
X150054762Y-59101000D02*
X149983333Y-59124809D01*
X149983333Y-59124809D02*
X149935714Y-59124809D01*
X149935714Y-59124809D02*
X149864286Y-59101000D01*
X149864286Y-59101000D02*
X149816667Y-59053380D01*
X149816667Y-59053380D02*
X149792857Y-59005761D01*
X149792857Y-59005761D02*
X149769048Y-58910523D01*
X149769048Y-58910523D02*
X149769048Y-58839095D01*
X149769048Y-58839095D02*
X149792857Y-58743857D01*
X149792857Y-58743857D02*
X149816667Y-58696238D01*
X149816667Y-58696238D02*
X149864286Y-58648619D01*
X149864286Y-58648619D02*
X149935714Y-58624809D01*
X149935714Y-58624809D02*
X149983333Y-58624809D01*
X149983333Y-58624809D02*
X150054762Y-58648619D01*
X150054762Y-58648619D02*
X150078571Y-58672428D01*
X150554762Y-59124809D02*
X150269048Y-59124809D01*
X150411905Y-59124809D02*
X150411905Y-58624809D01*
X150411905Y-58624809D02*
X150364286Y-58696238D01*
X150364286Y-58696238D02*
X150316667Y-58743857D01*
X150316667Y-58743857D02*
X150269048Y-58767666D01*
X150745238Y-58672428D02*
X150769047Y-58648619D01*
X150769047Y-58648619D02*
X150816666Y-58624809D01*
X150816666Y-58624809D02*
X150935714Y-58624809D01*
X150935714Y-58624809D02*
X150983333Y-58648619D01*
X150983333Y-58648619D02*
X151007142Y-58672428D01*
X151007142Y-58672428D02*
X151030952Y-58720047D01*
X151030952Y-58720047D02*
X151030952Y-58767666D01*
X151030952Y-58767666D02*
X151007142Y-58839095D01*
X151007142Y-58839095D02*
X150721428Y-59124809D01*
X150721428Y-59124809D02*
X151030952Y-59124809D01*
X71628571Y-66724809D02*
X71461905Y-66486714D01*
X71342857Y-66724809D02*
X71342857Y-66224809D01*
X71342857Y-66224809D02*
X71533333Y-66224809D01*
X71533333Y-66224809D02*
X71580952Y-66248619D01*
X71580952Y-66248619D02*
X71604762Y-66272428D01*
X71604762Y-66272428D02*
X71628571Y-66320047D01*
X71628571Y-66320047D02*
X71628571Y-66391476D01*
X71628571Y-66391476D02*
X71604762Y-66439095D01*
X71604762Y-66439095D02*
X71580952Y-66462904D01*
X71580952Y-66462904D02*
X71533333Y-66486714D01*
X71533333Y-66486714D02*
X71342857Y-66486714D01*
X71819048Y-66272428D02*
X71842857Y-66248619D01*
X71842857Y-66248619D02*
X71890476Y-66224809D01*
X71890476Y-66224809D02*
X72009524Y-66224809D01*
X72009524Y-66224809D02*
X72057143Y-66248619D01*
X72057143Y-66248619D02*
X72080952Y-66272428D01*
X72080952Y-66272428D02*
X72104762Y-66320047D01*
X72104762Y-66320047D02*
X72104762Y-66367666D01*
X72104762Y-66367666D02*
X72080952Y-66439095D01*
X72080952Y-66439095D02*
X71795238Y-66724809D01*
X71795238Y-66724809D02*
X72104762Y-66724809D01*
X72390476Y-66439095D02*
X72342857Y-66415285D01*
X72342857Y-66415285D02*
X72319047Y-66391476D01*
X72319047Y-66391476D02*
X72295238Y-66343857D01*
X72295238Y-66343857D02*
X72295238Y-66320047D01*
X72295238Y-66320047D02*
X72319047Y-66272428D01*
X72319047Y-66272428D02*
X72342857Y-66248619D01*
X72342857Y-66248619D02*
X72390476Y-66224809D01*
X72390476Y-66224809D02*
X72485714Y-66224809D01*
X72485714Y-66224809D02*
X72533333Y-66248619D01*
X72533333Y-66248619D02*
X72557142Y-66272428D01*
X72557142Y-66272428D02*
X72580952Y-66320047D01*
X72580952Y-66320047D02*
X72580952Y-66343857D01*
X72580952Y-66343857D02*
X72557142Y-66391476D01*
X72557142Y-66391476D02*
X72533333Y-66415285D01*
X72533333Y-66415285D02*
X72485714Y-66439095D01*
X72485714Y-66439095D02*
X72390476Y-66439095D01*
X72390476Y-66439095D02*
X72342857Y-66462904D01*
X72342857Y-66462904D02*
X72319047Y-66486714D01*
X72319047Y-66486714D02*
X72295238Y-66534333D01*
X72295238Y-66534333D02*
X72295238Y-66629571D01*
X72295238Y-66629571D02*
X72319047Y-66677190D01*
X72319047Y-66677190D02*
X72342857Y-66701000D01*
X72342857Y-66701000D02*
X72390476Y-66724809D01*
X72390476Y-66724809D02*
X72485714Y-66724809D01*
X72485714Y-66724809D02*
X72533333Y-66701000D01*
X72533333Y-66701000D02*
X72557142Y-66677190D01*
X72557142Y-66677190D02*
X72580952Y-66629571D01*
X72580952Y-66629571D02*
X72580952Y-66534333D01*
X72580952Y-66534333D02*
X72557142Y-66486714D01*
X72557142Y-66486714D02*
X72533333Y-66462904D01*
X72533333Y-66462904D02*
X72485714Y-66439095D01*
X146124809Y-114105047D02*
X145624809Y-114105047D01*
X145624809Y-114105047D02*
X145624809Y-113985999D01*
X145624809Y-113985999D02*
X145648619Y-113914571D01*
X145648619Y-113914571D02*
X145696238Y-113866952D01*
X145696238Y-113866952D02*
X145743857Y-113843142D01*
X145743857Y-113843142D02*
X145839095Y-113819333D01*
X145839095Y-113819333D02*
X145910523Y-113819333D01*
X145910523Y-113819333D02*
X146005761Y-113843142D01*
X146005761Y-113843142D02*
X146053380Y-113866952D01*
X146053380Y-113866952D02*
X146101000Y-113914571D01*
X146101000Y-113914571D02*
X146124809Y-113985999D01*
X146124809Y-113985999D02*
X146124809Y-114105047D01*
X145791476Y-113390761D02*
X146124809Y-113390761D01*
X145601000Y-113509809D02*
X145958142Y-113628856D01*
X145958142Y-113628856D02*
X145958142Y-113319333D01*
X77768333Y-84039809D02*
X77768333Y-84396952D01*
X77768333Y-84396952D02*
X77744524Y-84468380D01*
X77744524Y-84468380D02*
X77696905Y-84516000D01*
X77696905Y-84516000D02*
X77625476Y-84539809D01*
X77625476Y-84539809D02*
X77577857Y-84539809D01*
X78268333Y-84539809D02*
X77982619Y-84539809D01*
X78125476Y-84539809D02*
X78125476Y-84039809D01*
X78125476Y-84039809D02*
X78077857Y-84111238D01*
X78077857Y-84111238D02*
X78030238Y-84158857D01*
X78030238Y-84158857D02*
X77982619Y-84182666D01*
X123974809Y-115421428D02*
X123736714Y-115588094D01*
X123974809Y-115707142D02*
X123474809Y-115707142D01*
X123474809Y-115707142D02*
X123474809Y-115516666D01*
X123474809Y-115516666D02*
X123498619Y-115469047D01*
X123498619Y-115469047D02*
X123522428Y-115445237D01*
X123522428Y-115445237D02*
X123570047Y-115421428D01*
X123570047Y-115421428D02*
X123641476Y-115421428D01*
X123641476Y-115421428D02*
X123689095Y-115445237D01*
X123689095Y-115445237D02*
X123712904Y-115469047D01*
X123712904Y-115469047D02*
X123736714Y-115516666D01*
X123736714Y-115516666D02*
X123736714Y-115707142D01*
X123974809Y-114945237D02*
X123974809Y-115230951D01*
X123974809Y-115088094D02*
X123474809Y-115088094D01*
X123474809Y-115088094D02*
X123546238Y-115135713D01*
X123546238Y-115135713D02*
X123593857Y-115183332D01*
X123593857Y-115183332D02*
X123617666Y-115230951D01*
X123474809Y-114778571D02*
X123474809Y-114445238D01*
X123474809Y-114445238D02*
X123974809Y-114659523D01*
X78878571Y-78924809D02*
X78711905Y-78686714D01*
X78592857Y-78924809D02*
X78592857Y-78424809D01*
X78592857Y-78424809D02*
X78783333Y-78424809D01*
X78783333Y-78424809D02*
X78830952Y-78448619D01*
X78830952Y-78448619D02*
X78854762Y-78472428D01*
X78854762Y-78472428D02*
X78878571Y-78520047D01*
X78878571Y-78520047D02*
X78878571Y-78591476D01*
X78878571Y-78591476D02*
X78854762Y-78639095D01*
X78854762Y-78639095D02*
X78830952Y-78662904D01*
X78830952Y-78662904D02*
X78783333Y-78686714D01*
X78783333Y-78686714D02*
X78592857Y-78686714D01*
X79354762Y-78924809D02*
X79069048Y-78924809D01*
X79211905Y-78924809D02*
X79211905Y-78424809D01*
X79211905Y-78424809D02*
X79164286Y-78496238D01*
X79164286Y-78496238D02*
X79116667Y-78543857D01*
X79116667Y-78543857D02*
X79069048Y-78567666D01*
X79830952Y-78924809D02*
X79545238Y-78924809D01*
X79688095Y-78924809D02*
X79688095Y-78424809D01*
X79688095Y-78424809D02*
X79640476Y-78496238D01*
X79640476Y-78496238D02*
X79592857Y-78543857D01*
X79592857Y-78543857D02*
X79545238Y-78567666D01*
D12*
X88166666Y-89654819D02*
X88166666Y-90369104D01*
X88166666Y-90369104D02*
X88119047Y-90511961D01*
X88119047Y-90511961D02*
X88023809Y-90607200D01*
X88023809Y-90607200D02*
X87880952Y-90654819D01*
X87880952Y-90654819D02*
X87785714Y-90654819D01*
X88547619Y-89654819D02*
X89214285Y-89654819D01*
X89214285Y-89654819D02*
X88785714Y-90654819D01*
D11*
X73577190Y-71421428D02*
X73601000Y-71445237D01*
X73601000Y-71445237D02*
X73624809Y-71516666D01*
X73624809Y-71516666D02*
X73624809Y-71564285D01*
X73624809Y-71564285D02*
X73601000Y-71635713D01*
X73601000Y-71635713D02*
X73553380Y-71683332D01*
X73553380Y-71683332D02*
X73505761Y-71707142D01*
X73505761Y-71707142D02*
X73410523Y-71730951D01*
X73410523Y-71730951D02*
X73339095Y-71730951D01*
X73339095Y-71730951D02*
X73243857Y-71707142D01*
X73243857Y-71707142D02*
X73196238Y-71683332D01*
X73196238Y-71683332D02*
X73148619Y-71635713D01*
X73148619Y-71635713D02*
X73124809Y-71564285D01*
X73124809Y-71564285D02*
X73124809Y-71516666D01*
X73124809Y-71516666D02*
X73148619Y-71445237D01*
X73148619Y-71445237D02*
X73172428Y-71421428D01*
X73624809Y-70945237D02*
X73624809Y-71230951D01*
X73624809Y-71088094D02*
X73124809Y-71088094D01*
X73124809Y-71088094D02*
X73196238Y-71135713D01*
X73196238Y-71135713D02*
X73243857Y-71183332D01*
X73243857Y-71183332D02*
X73267666Y-71230951D01*
X73624809Y-70469047D02*
X73624809Y-70754761D01*
X73624809Y-70611904D02*
X73124809Y-70611904D01*
X73124809Y-70611904D02*
X73196238Y-70659523D01*
X73196238Y-70659523D02*
X73243857Y-70707142D01*
X73243857Y-70707142D02*
X73267666Y-70754761D01*
X66478571Y-79574809D02*
X66311905Y-79336714D01*
X66192857Y-79574809D02*
X66192857Y-79074809D01*
X66192857Y-79074809D02*
X66383333Y-79074809D01*
X66383333Y-79074809D02*
X66430952Y-79098619D01*
X66430952Y-79098619D02*
X66454762Y-79122428D01*
X66454762Y-79122428D02*
X66478571Y-79170047D01*
X66478571Y-79170047D02*
X66478571Y-79241476D01*
X66478571Y-79241476D02*
X66454762Y-79289095D01*
X66454762Y-79289095D02*
X66430952Y-79312904D01*
X66430952Y-79312904D02*
X66383333Y-79336714D01*
X66383333Y-79336714D02*
X66192857Y-79336714D01*
X66954762Y-79574809D02*
X66669048Y-79574809D01*
X66811905Y-79574809D02*
X66811905Y-79074809D01*
X66811905Y-79074809D02*
X66764286Y-79146238D01*
X66764286Y-79146238D02*
X66716667Y-79193857D01*
X66716667Y-79193857D02*
X66669048Y-79217666D01*
X67145238Y-79122428D02*
X67169047Y-79098619D01*
X67169047Y-79098619D02*
X67216666Y-79074809D01*
X67216666Y-79074809D02*
X67335714Y-79074809D01*
X67335714Y-79074809D02*
X67383333Y-79098619D01*
X67383333Y-79098619D02*
X67407142Y-79122428D01*
X67407142Y-79122428D02*
X67430952Y-79170047D01*
X67430952Y-79170047D02*
X67430952Y-79217666D01*
X67430952Y-79217666D02*
X67407142Y-79289095D01*
X67407142Y-79289095D02*
X67121428Y-79574809D01*
X67121428Y-79574809D02*
X67430952Y-79574809D01*
X84224809Y-78371428D02*
X83986714Y-78538094D01*
X84224809Y-78657142D02*
X83724809Y-78657142D01*
X83724809Y-78657142D02*
X83724809Y-78466666D01*
X83724809Y-78466666D02*
X83748619Y-78419047D01*
X83748619Y-78419047D02*
X83772428Y-78395237D01*
X83772428Y-78395237D02*
X83820047Y-78371428D01*
X83820047Y-78371428D02*
X83891476Y-78371428D01*
X83891476Y-78371428D02*
X83939095Y-78395237D01*
X83939095Y-78395237D02*
X83962904Y-78419047D01*
X83962904Y-78419047D02*
X83986714Y-78466666D01*
X83986714Y-78466666D02*
X83986714Y-78657142D01*
X83772428Y-78180951D02*
X83748619Y-78157142D01*
X83748619Y-78157142D02*
X83724809Y-78109523D01*
X83724809Y-78109523D02*
X83724809Y-77990475D01*
X83724809Y-77990475D02*
X83748619Y-77942856D01*
X83748619Y-77942856D02*
X83772428Y-77919047D01*
X83772428Y-77919047D02*
X83820047Y-77895237D01*
X83820047Y-77895237D02*
X83867666Y-77895237D01*
X83867666Y-77895237D02*
X83939095Y-77919047D01*
X83939095Y-77919047D02*
X84224809Y-78204761D01*
X84224809Y-78204761D02*
X84224809Y-77895237D01*
X84224809Y-77419047D02*
X84224809Y-77704761D01*
X84224809Y-77561904D02*
X83724809Y-77561904D01*
X83724809Y-77561904D02*
X83796238Y-77609523D01*
X83796238Y-77609523D02*
X83843857Y-77657142D01*
X83843857Y-77657142D02*
X83867666Y-77704761D01*
X146124809Y-125951047D02*
X145624809Y-125951047D01*
X145624809Y-125951047D02*
X145624809Y-125831999D01*
X145624809Y-125831999D02*
X145648619Y-125760571D01*
X145648619Y-125760571D02*
X145696238Y-125712952D01*
X145696238Y-125712952D02*
X145743857Y-125689142D01*
X145743857Y-125689142D02*
X145839095Y-125665333D01*
X145839095Y-125665333D02*
X145910523Y-125665333D01*
X145910523Y-125665333D02*
X146005761Y-125689142D01*
X146005761Y-125689142D02*
X146053380Y-125712952D01*
X146053380Y-125712952D02*
X146101000Y-125760571D01*
X146101000Y-125760571D02*
X146124809Y-125831999D01*
X146124809Y-125831999D02*
X146124809Y-125951047D01*
X146124809Y-125189142D02*
X146124809Y-125474856D01*
X146124809Y-125331999D02*
X145624809Y-125331999D01*
X145624809Y-125331999D02*
X145696238Y-125379618D01*
X145696238Y-125379618D02*
X145743857Y-125427237D01*
X145743857Y-125427237D02*
X145767666Y-125474856D01*
X86216666Y-77877190D02*
X86192857Y-77901000D01*
X86192857Y-77901000D02*
X86121428Y-77924809D01*
X86121428Y-77924809D02*
X86073809Y-77924809D01*
X86073809Y-77924809D02*
X86002381Y-77901000D01*
X86002381Y-77901000D02*
X85954762Y-77853380D01*
X85954762Y-77853380D02*
X85930952Y-77805761D01*
X85930952Y-77805761D02*
X85907143Y-77710523D01*
X85907143Y-77710523D02*
X85907143Y-77639095D01*
X85907143Y-77639095D02*
X85930952Y-77543857D01*
X85930952Y-77543857D02*
X85954762Y-77496238D01*
X85954762Y-77496238D02*
X86002381Y-77448619D01*
X86002381Y-77448619D02*
X86073809Y-77424809D01*
X86073809Y-77424809D02*
X86121428Y-77424809D01*
X86121428Y-77424809D02*
X86192857Y-77448619D01*
X86192857Y-77448619D02*
X86216666Y-77472428D01*
X86669047Y-77424809D02*
X86430952Y-77424809D01*
X86430952Y-77424809D02*
X86407143Y-77662904D01*
X86407143Y-77662904D02*
X86430952Y-77639095D01*
X86430952Y-77639095D02*
X86478571Y-77615285D01*
X86478571Y-77615285D02*
X86597619Y-77615285D01*
X86597619Y-77615285D02*
X86645238Y-77639095D01*
X86645238Y-77639095D02*
X86669047Y-77662904D01*
X86669047Y-77662904D02*
X86692857Y-77710523D01*
X86692857Y-77710523D02*
X86692857Y-77829571D01*
X86692857Y-77829571D02*
X86669047Y-77877190D01*
X86669047Y-77877190D02*
X86645238Y-77901000D01*
X86645238Y-77901000D02*
X86597619Y-77924809D01*
X86597619Y-77924809D02*
X86478571Y-77924809D01*
X86478571Y-77924809D02*
X86430952Y-77901000D01*
X86430952Y-77901000D02*
X86407143Y-77877190D01*
X146124809Y-121451047D02*
X145624809Y-121451047D01*
X145624809Y-121451047D02*
X145624809Y-121331999D01*
X145624809Y-121331999D02*
X145648619Y-121260571D01*
X145648619Y-121260571D02*
X145696238Y-121212952D01*
X145696238Y-121212952D02*
X145743857Y-121189142D01*
X145743857Y-121189142D02*
X145839095Y-121165333D01*
X145839095Y-121165333D02*
X145910523Y-121165333D01*
X145910523Y-121165333D02*
X146005761Y-121189142D01*
X146005761Y-121189142D02*
X146053380Y-121212952D01*
X146053380Y-121212952D02*
X146101000Y-121260571D01*
X146101000Y-121260571D02*
X146124809Y-121331999D01*
X146124809Y-121331999D02*
X146124809Y-121451047D01*
X145624809Y-120998666D02*
X145624809Y-120665333D01*
X145624809Y-120665333D02*
X146124809Y-120879618D01*
X97524809Y-131169047D02*
X97024809Y-131169047D01*
X97024809Y-131169047D02*
X97024809Y-131049999D01*
X97024809Y-131049999D02*
X97048619Y-130978571D01*
X97048619Y-130978571D02*
X97096238Y-130930952D01*
X97096238Y-130930952D02*
X97143857Y-130907142D01*
X97143857Y-130907142D02*
X97239095Y-130883333D01*
X97239095Y-130883333D02*
X97310523Y-130883333D01*
X97310523Y-130883333D02*
X97405761Y-130907142D01*
X97405761Y-130907142D02*
X97453380Y-130930952D01*
X97453380Y-130930952D02*
X97501000Y-130978571D01*
X97501000Y-130978571D02*
X97524809Y-131049999D01*
X97524809Y-131049999D02*
X97524809Y-131169047D01*
X97239095Y-130597618D02*
X97215285Y-130645237D01*
X97215285Y-130645237D02*
X97191476Y-130669047D01*
X97191476Y-130669047D02*
X97143857Y-130692856D01*
X97143857Y-130692856D02*
X97120047Y-130692856D01*
X97120047Y-130692856D02*
X97072428Y-130669047D01*
X97072428Y-130669047D02*
X97048619Y-130645237D01*
X97048619Y-130645237D02*
X97024809Y-130597618D01*
X97024809Y-130597618D02*
X97024809Y-130502380D01*
X97024809Y-130502380D02*
X97048619Y-130454761D01*
X97048619Y-130454761D02*
X97072428Y-130430952D01*
X97072428Y-130430952D02*
X97120047Y-130407142D01*
X97120047Y-130407142D02*
X97143857Y-130407142D01*
X97143857Y-130407142D02*
X97191476Y-130430952D01*
X97191476Y-130430952D02*
X97215285Y-130454761D01*
X97215285Y-130454761D02*
X97239095Y-130502380D01*
X97239095Y-130502380D02*
X97239095Y-130597618D01*
X97239095Y-130597618D02*
X97262904Y-130645237D01*
X97262904Y-130645237D02*
X97286714Y-130669047D01*
X97286714Y-130669047D02*
X97334333Y-130692856D01*
X97334333Y-130692856D02*
X97429571Y-130692856D01*
X97429571Y-130692856D02*
X97477190Y-130669047D01*
X97477190Y-130669047D02*
X97501000Y-130645237D01*
X97501000Y-130645237D02*
X97524809Y-130597618D01*
X97524809Y-130597618D02*
X97524809Y-130502380D01*
X97524809Y-130502380D02*
X97501000Y-130454761D01*
X97501000Y-130454761D02*
X97477190Y-130430952D01*
X97477190Y-130430952D02*
X97429571Y-130407142D01*
X97429571Y-130407142D02*
X97334333Y-130407142D01*
X97334333Y-130407142D02*
X97286714Y-130430952D01*
X97286714Y-130430952D02*
X97262904Y-130454761D01*
X97262904Y-130454761D02*
X97239095Y-130502380D01*
X138477190Y-111221428D02*
X138501000Y-111245237D01*
X138501000Y-111245237D02*
X138524809Y-111316666D01*
X138524809Y-111316666D02*
X138524809Y-111364285D01*
X138524809Y-111364285D02*
X138501000Y-111435713D01*
X138501000Y-111435713D02*
X138453380Y-111483332D01*
X138453380Y-111483332D02*
X138405761Y-111507142D01*
X138405761Y-111507142D02*
X138310523Y-111530951D01*
X138310523Y-111530951D02*
X138239095Y-111530951D01*
X138239095Y-111530951D02*
X138143857Y-111507142D01*
X138143857Y-111507142D02*
X138096238Y-111483332D01*
X138096238Y-111483332D02*
X138048619Y-111435713D01*
X138048619Y-111435713D02*
X138024809Y-111364285D01*
X138024809Y-111364285D02*
X138024809Y-111316666D01*
X138024809Y-111316666D02*
X138048619Y-111245237D01*
X138048619Y-111245237D02*
X138072428Y-111221428D01*
X138524809Y-110745237D02*
X138524809Y-111030951D01*
X138524809Y-110888094D02*
X138024809Y-110888094D01*
X138024809Y-110888094D02*
X138096238Y-110935713D01*
X138096238Y-110935713D02*
X138143857Y-110983332D01*
X138143857Y-110983332D02*
X138167666Y-111030951D01*
X138024809Y-110292857D02*
X138024809Y-110530952D01*
X138024809Y-110530952D02*
X138262904Y-110554761D01*
X138262904Y-110554761D02*
X138239095Y-110530952D01*
X138239095Y-110530952D02*
X138215285Y-110483333D01*
X138215285Y-110483333D02*
X138215285Y-110364285D01*
X138215285Y-110364285D02*
X138239095Y-110316666D01*
X138239095Y-110316666D02*
X138262904Y-110292857D01*
X138262904Y-110292857D02*
X138310523Y-110269047D01*
X138310523Y-110269047D02*
X138429571Y-110269047D01*
X138429571Y-110269047D02*
X138477190Y-110292857D01*
X138477190Y-110292857D02*
X138501000Y-110316666D01*
X138501000Y-110316666D02*
X138524809Y-110364285D01*
X138524809Y-110364285D02*
X138524809Y-110483333D01*
X138524809Y-110483333D02*
X138501000Y-110530952D01*
X138501000Y-110530952D02*
X138477190Y-110554761D01*
X135678571Y-128624809D02*
X135511905Y-128386714D01*
X135392857Y-128624809D02*
X135392857Y-128124809D01*
X135392857Y-128124809D02*
X135583333Y-128124809D01*
X135583333Y-128124809D02*
X135630952Y-128148619D01*
X135630952Y-128148619D02*
X135654762Y-128172428D01*
X135654762Y-128172428D02*
X135678571Y-128220047D01*
X135678571Y-128220047D02*
X135678571Y-128291476D01*
X135678571Y-128291476D02*
X135654762Y-128339095D01*
X135654762Y-128339095D02*
X135630952Y-128362904D01*
X135630952Y-128362904D02*
X135583333Y-128386714D01*
X135583333Y-128386714D02*
X135392857Y-128386714D01*
X136154762Y-128624809D02*
X135869048Y-128624809D01*
X136011905Y-128624809D02*
X136011905Y-128124809D01*
X136011905Y-128124809D02*
X135964286Y-128196238D01*
X135964286Y-128196238D02*
X135916667Y-128243857D01*
X135916667Y-128243857D02*
X135869048Y-128267666D01*
X136607142Y-128124809D02*
X136369047Y-128124809D01*
X136369047Y-128124809D02*
X136345238Y-128362904D01*
X136345238Y-128362904D02*
X136369047Y-128339095D01*
X136369047Y-128339095D02*
X136416666Y-128315285D01*
X136416666Y-128315285D02*
X136535714Y-128315285D01*
X136535714Y-128315285D02*
X136583333Y-128339095D01*
X136583333Y-128339095D02*
X136607142Y-128362904D01*
X136607142Y-128362904D02*
X136630952Y-128410523D01*
X136630952Y-128410523D02*
X136630952Y-128529571D01*
X136630952Y-128529571D02*
X136607142Y-128577190D01*
X136607142Y-128577190D02*
X136583333Y-128601000D01*
X136583333Y-128601000D02*
X136535714Y-128624809D01*
X136535714Y-128624809D02*
X136416666Y-128624809D01*
X136416666Y-128624809D02*
X136369047Y-128601000D01*
X136369047Y-128601000D02*
X136345238Y-128577190D01*
X84424809Y-66221428D02*
X84186714Y-66388094D01*
X84424809Y-66507142D02*
X83924809Y-66507142D01*
X83924809Y-66507142D02*
X83924809Y-66316666D01*
X83924809Y-66316666D02*
X83948619Y-66269047D01*
X83948619Y-66269047D02*
X83972428Y-66245237D01*
X83972428Y-66245237D02*
X84020047Y-66221428D01*
X84020047Y-66221428D02*
X84091476Y-66221428D01*
X84091476Y-66221428D02*
X84139095Y-66245237D01*
X84139095Y-66245237D02*
X84162904Y-66269047D01*
X84162904Y-66269047D02*
X84186714Y-66316666D01*
X84186714Y-66316666D02*
X84186714Y-66507142D01*
X83972428Y-66030951D02*
X83948619Y-66007142D01*
X83948619Y-66007142D02*
X83924809Y-65959523D01*
X83924809Y-65959523D02*
X83924809Y-65840475D01*
X83924809Y-65840475D02*
X83948619Y-65792856D01*
X83948619Y-65792856D02*
X83972428Y-65769047D01*
X83972428Y-65769047D02*
X84020047Y-65745237D01*
X84020047Y-65745237D02*
X84067666Y-65745237D01*
X84067666Y-65745237D02*
X84139095Y-65769047D01*
X84139095Y-65769047D02*
X84424809Y-66054761D01*
X84424809Y-66054761D02*
X84424809Y-65745237D01*
X83924809Y-65578571D02*
X83924809Y-65269047D01*
X83924809Y-65269047D02*
X84115285Y-65435714D01*
X84115285Y-65435714D02*
X84115285Y-65364285D01*
X84115285Y-65364285D02*
X84139095Y-65316666D01*
X84139095Y-65316666D02*
X84162904Y-65292857D01*
X84162904Y-65292857D02*
X84210523Y-65269047D01*
X84210523Y-65269047D02*
X84329571Y-65269047D01*
X84329571Y-65269047D02*
X84377190Y-65292857D01*
X84377190Y-65292857D02*
X84401000Y-65316666D01*
X84401000Y-65316666D02*
X84424809Y-65364285D01*
X84424809Y-65364285D02*
X84424809Y-65507142D01*
X84424809Y-65507142D02*
X84401000Y-65554761D01*
X84401000Y-65554761D02*
X84377190Y-65578571D01*
D12*
X74024819Y-67666666D02*
X74024819Y-68142856D01*
X74024819Y-68142856D02*
X73024819Y-68142856D01*
X74024819Y-66809523D02*
X74024819Y-67380951D01*
X74024819Y-67095237D02*
X73024819Y-67095237D01*
X73024819Y-67095237D02*
X73167676Y-67190475D01*
X73167676Y-67190475D02*
X73262914Y-67285713D01*
X73262914Y-67285713D02*
X73310533Y-67380951D01*
D11*
X92724809Y-66321428D02*
X92486714Y-66488094D01*
X92724809Y-66607142D02*
X92224809Y-66607142D01*
X92224809Y-66607142D02*
X92224809Y-66416666D01*
X92224809Y-66416666D02*
X92248619Y-66369047D01*
X92248619Y-66369047D02*
X92272428Y-66345237D01*
X92272428Y-66345237D02*
X92320047Y-66321428D01*
X92320047Y-66321428D02*
X92391476Y-66321428D01*
X92391476Y-66321428D02*
X92439095Y-66345237D01*
X92439095Y-66345237D02*
X92462904Y-66369047D01*
X92462904Y-66369047D02*
X92486714Y-66416666D01*
X92486714Y-66416666D02*
X92486714Y-66607142D01*
X92724809Y-65845237D02*
X92724809Y-66130951D01*
X92724809Y-65988094D02*
X92224809Y-65988094D01*
X92224809Y-65988094D02*
X92296238Y-66035713D01*
X92296238Y-66035713D02*
X92343857Y-66083332D01*
X92343857Y-66083332D02*
X92367666Y-66130951D01*
X92724809Y-65607142D02*
X92724809Y-65511904D01*
X92724809Y-65511904D02*
X92701000Y-65464285D01*
X92701000Y-65464285D02*
X92677190Y-65440476D01*
X92677190Y-65440476D02*
X92605761Y-65392857D01*
X92605761Y-65392857D02*
X92510523Y-65369047D01*
X92510523Y-65369047D02*
X92320047Y-65369047D01*
X92320047Y-65369047D02*
X92272428Y-65392857D01*
X92272428Y-65392857D02*
X92248619Y-65416666D01*
X92248619Y-65416666D02*
X92224809Y-65464285D01*
X92224809Y-65464285D02*
X92224809Y-65559523D01*
X92224809Y-65559523D02*
X92248619Y-65607142D01*
X92248619Y-65607142D02*
X92272428Y-65630952D01*
X92272428Y-65630952D02*
X92320047Y-65654761D01*
X92320047Y-65654761D02*
X92439095Y-65654761D01*
X92439095Y-65654761D02*
X92486714Y-65630952D01*
X92486714Y-65630952D02*
X92510523Y-65607142D01*
X92510523Y-65607142D02*
X92534333Y-65559523D01*
X92534333Y-65559523D02*
X92534333Y-65464285D01*
X92534333Y-65464285D02*
X92510523Y-65416666D01*
X92510523Y-65416666D02*
X92486714Y-65392857D01*
X92486714Y-65392857D02*
X92439095Y-65369047D01*
X134978571Y-106024809D02*
X134811905Y-105786714D01*
X134692857Y-106024809D02*
X134692857Y-105524809D01*
X134692857Y-105524809D02*
X134883333Y-105524809D01*
X134883333Y-105524809D02*
X134930952Y-105548619D01*
X134930952Y-105548619D02*
X134954762Y-105572428D01*
X134954762Y-105572428D02*
X134978571Y-105620047D01*
X134978571Y-105620047D02*
X134978571Y-105691476D01*
X134978571Y-105691476D02*
X134954762Y-105739095D01*
X134954762Y-105739095D02*
X134930952Y-105762904D01*
X134930952Y-105762904D02*
X134883333Y-105786714D01*
X134883333Y-105786714D02*
X134692857Y-105786714D01*
X135145238Y-105524809D02*
X135454762Y-105524809D01*
X135454762Y-105524809D02*
X135288095Y-105715285D01*
X135288095Y-105715285D02*
X135359524Y-105715285D01*
X135359524Y-105715285D02*
X135407143Y-105739095D01*
X135407143Y-105739095D02*
X135430952Y-105762904D01*
X135430952Y-105762904D02*
X135454762Y-105810523D01*
X135454762Y-105810523D02*
X135454762Y-105929571D01*
X135454762Y-105929571D02*
X135430952Y-105977190D01*
X135430952Y-105977190D02*
X135407143Y-106001000D01*
X135407143Y-106001000D02*
X135359524Y-106024809D01*
X135359524Y-106024809D02*
X135216667Y-106024809D01*
X135216667Y-106024809D02*
X135169048Y-106001000D01*
X135169048Y-106001000D02*
X135145238Y-105977190D01*
X135621428Y-105524809D02*
X135930952Y-105524809D01*
X135930952Y-105524809D02*
X135764285Y-105715285D01*
X135764285Y-105715285D02*
X135835714Y-105715285D01*
X135835714Y-105715285D02*
X135883333Y-105739095D01*
X135883333Y-105739095D02*
X135907142Y-105762904D01*
X135907142Y-105762904D02*
X135930952Y-105810523D01*
X135930952Y-105810523D02*
X135930952Y-105929571D01*
X135930952Y-105929571D02*
X135907142Y-105977190D01*
X135907142Y-105977190D02*
X135883333Y-106001000D01*
X135883333Y-106001000D02*
X135835714Y-106024809D01*
X135835714Y-106024809D02*
X135692857Y-106024809D01*
X135692857Y-106024809D02*
X135645238Y-106001000D01*
X135645238Y-106001000D02*
X135621428Y-105977190D01*
X83078571Y-54124809D02*
X82911905Y-53886714D01*
X82792857Y-54124809D02*
X82792857Y-53624809D01*
X82792857Y-53624809D02*
X82983333Y-53624809D01*
X82983333Y-53624809D02*
X83030952Y-53648619D01*
X83030952Y-53648619D02*
X83054762Y-53672428D01*
X83054762Y-53672428D02*
X83078571Y-53720047D01*
X83078571Y-53720047D02*
X83078571Y-53791476D01*
X83078571Y-53791476D02*
X83054762Y-53839095D01*
X83054762Y-53839095D02*
X83030952Y-53862904D01*
X83030952Y-53862904D02*
X82983333Y-53886714D01*
X82983333Y-53886714D02*
X82792857Y-53886714D01*
X83245238Y-53624809D02*
X83554762Y-53624809D01*
X83554762Y-53624809D02*
X83388095Y-53815285D01*
X83388095Y-53815285D02*
X83459524Y-53815285D01*
X83459524Y-53815285D02*
X83507143Y-53839095D01*
X83507143Y-53839095D02*
X83530952Y-53862904D01*
X83530952Y-53862904D02*
X83554762Y-53910523D01*
X83554762Y-53910523D02*
X83554762Y-54029571D01*
X83554762Y-54029571D02*
X83530952Y-54077190D01*
X83530952Y-54077190D02*
X83507143Y-54101000D01*
X83507143Y-54101000D02*
X83459524Y-54124809D01*
X83459524Y-54124809D02*
X83316667Y-54124809D01*
X83316667Y-54124809D02*
X83269048Y-54101000D01*
X83269048Y-54101000D02*
X83245238Y-54077190D01*
X83745238Y-53672428D02*
X83769047Y-53648619D01*
X83769047Y-53648619D02*
X83816666Y-53624809D01*
X83816666Y-53624809D02*
X83935714Y-53624809D01*
X83935714Y-53624809D02*
X83983333Y-53648619D01*
X83983333Y-53648619D02*
X84007142Y-53672428D01*
X84007142Y-53672428D02*
X84030952Y-53720047D01*
X84030952Y-53720047D02*
X84030952Y-53767666D01*
X84030952Y-53767666D02*
X84007142Y-53839095D01*
X84007142Y-53839095D02*
X83721428Y-54124809D01*
X83721428Y-54124809D02*
X84030952Y-54124809D01*
X129278571Y-106124809D02*
X129111905Y-105886714D01*
X128992857Y-106124809D02*
X128992857Y-105624809D01*
X128992857Y-105624809D02*
X129183333Y-105624809D01*
X129183333Y-105624809D02*
X129230952Y-105648619D01*
X129230952Y-105648619D02*
X129254762Y-105672428D01*
X129254762Y-105672428D02*
X129278571Y-105720047D01*
X129278571Y-105720047D02*
X129278571Y-105791476D01*
X129278571Y-105791476D02*
X129254762Y-105839095D01*
X129254762Y-105839095D02*
X129230952Y-105862904D01*
X129230952Y-105862904D02*
X129183333Y-105886714D01*
X129183333Y-105886714D02*
X128992857Y-105886714D01*
X129754762Y-106124809D02*
X129469048Y-106124809D01*
X129611905Y-106124809D02*
X129611905Y-105624809D01*
X129611905Y-105624809D02*
X129564286Y-105696238D01*
X129564286Y-105696238D02*
X129516667Y-105743857D01*
X129516667Y-105743857D02*
X129469048Y-105767666D01*
X129921428Y-105624809D02*
X130230952Y-105624809D01*
X130230952Y-105624809D02*
X130064285Y-105815285D01*
X130064285Y-105815285D02*
X130135714Y-105815285D01*
X130135714Y-105815285D02*
X130183333Y-105839095D01*
X130183333Y-105839095D02*
X130207142Y-105862904D01*
X130207142Y-105862904D02*
X130230952Y-105910523D01*
X130230952Y-105910523D02*
X130230952Y-106029571D01*
X130230952Y-106029571D02*
X130207142Y-106077190D01*
X130207142Y-106077190D02*
X130183333Y-106101000D01*
X130183333Y-106101000D02*
X130135714Y-106124809D01*
X130135714Y-106124809D02*
X129992857Y-106124809D01*
X129992857Y-106124809D02*
X129945238Y-106101000D01*
X129945238Y-106101000D02*
X129921428Y-106077190D01*
X87216666Y-74377190D02*
X87192857Y-74401000D01*
X87192857Y-74401000D02*
X87121428Y-74424809D01*
X87121428Y-74424809D02*
X87073809Y-74424809D01*
X87073809Y-74424809D02*
X87002381Y-74401000D01*
X87002381Y-74401000D02*
X86954762Y-74353380D01*
X86954762Y-74353380D02*
X86930952Y-74305761D01*
X86930952Y-74305761D02*
X86907143Y-74210523D01*
X86907143Y-74210523D02*
X86907143Y-74139095D01*
X86907143Y-74139095D02*
X86930952Y-74043857D01*
X86930952Y-74043857D02*
X86954762Y-73996238D01*
X86954762Y-73996238D02*
X87002381Y-73948619D01*
X87002381Y-73948619D02*
X87073809Y-73924809D01*
X87073809Y-73924809D02*
X87121428Y-73924809D01*
X87121428Y-73924809D02*
X87192857Y-73948619D01*
X87192857Y-73948619D02*
X87216666Y-73972428D01*
X87645238Y-73924809D02*
X87550000Y-73924809D01*
X87550000Y-73924809D02*
X87502381Y-73948619D01*
X87502381Y-73948619D02*
X87478571Y-73972428D01*
X87478571Y-73972428D02*
X87430952Y-74043857D01*
X87430952Y-74043857D02*
X87407143Y-74139095D01*
X87407143Y-74139095D02*
X87407143Y-74329571D01*
X87407143Y-74329571D02*
X87430952Y-74377190D01*
X87430952Y-74377190D02*
X87454762Y-74401000D01*
X87454762Y-74401000D02*
X87502381Y-74424809D01*
X87502381Y-74424809D02*
X87597619Y-74424809D01*
X87597619Y-74424809D02*
X87645238Y-74401000D01*
X87645238Y-74401000D02*
X87669047Y-74377190D01*
X87669047Y-74377190D02*
X87692857Y-74329571D01*
X87692857Y-74329571D02*
X87692857Y-74210523D01*
X87692857Y-74210523D02*
X87669047Y-74162904D01*
X87669047Y-74162904D02*
X87645238Y-74139095D01*
X87645238Y-74139095D02*
X87597619Y-74115285D01*
X87597619Y-74115285D02*
X87502381Y-74115285D01*
X87502381Y-74115285D02*
X87454762Y-74139095D01*
X87454762Y-74139095D02*
X87430952Y-74162904D01*
X87430952Y-74162904D02*
X87407143Y-74210523D01*
X131878571Y-106024809D02*
X131711905Y-105786714D01*
X131592857Y-106024809D02*
X131592857Y-105524809D01*
X131592857Y-105524809D02*
X131783333Y-105524809D01*
X131783333Y-105524809D02*
X131830952Y-105548619D01*
X131830952Y-105548619D02*
X131854762Y-105572428D01*
X131854762Y-105572428D02*
X131878571Y-105620047D01*
X131878571Y-105620047D02*
X131878571Y-105691476D01*
X131878571Y-105691476D02*
X131854762Y-105739095D01*
X131854762Y-105739095D02*
X131830952Y-105762904D01*
X131830952Y-105762904D02*
X131783333Y-105786714D01*
X131783333Y-105786714D02*
X131592857Y-105786714D01*
X132045238Y-105524809D02*
X132354762Y-105524809D01*
X132354762Y-105524809D02*
X132188095Y-105715285D01*
X132188095Y-105715285D02*
X132259524Y-105715285D01*
X132259524Y-105715285D02*
X132307143Y-105739095D01*
X132307143Y-105739095D02*
X132330952Y-105762904D01*
X132330952Y-105762904D02*
X132354762Y-105810523D01*
X132354762Y-105810523D02*
X132354762Y-105929571D01*
X132354762Y-105929571D02*
X132330952Y-105977190D01*
X132330952Y-105977190D02*
X132307143Y-106001000D01*
X132307143Y-106001000D02*
X132259524Y-106024809D01*
X132259524Y-106024809D02*
X132116667Y-106024809D01*
X132116667Y-106024809D02*
X132069048Y-106001000D01*
X132069048Y-106001000D02*
X132045238Y-105977190D01*
X132807142Y-105524809D02*
X132569047Y-105524809D01*
X132569047Y-105524809D02*
X132545238Y-105762904D01*
X132545238Y-105762904D02*
X132569047Y-105739095D01*
X132569047Y-105739095D02*
X132616666Y-105715285D01*
X132616666Y-105715285D02*
X132735714Y-105715285D01*
X132735714Y-105715285D02*
X132783333Y-105739095D01*
X132783333Y-105739095D02*
X132807142Y-105762904D01*
X132807142Y-105762904D02*
X132830952Y-105810523D01*
X132830952Y-105810523D02*
X132830952Y-105929571D01*
X132830952Y-105929571D02*
X132807142Y-105977190D01*
X132807142Y-105977190D02*
X132783333Y-106001000D01*
X132783333Y-106001000D02*
X132735714Y-106024809D01*
X132735714Y-106024809D02*
X132616666Y-106024809D01*
X132616666Y-106024809D02*
X132569047Y-106001000D01*
X132569047Y-106001000D02*
X132545238Y-105977190D01*
D12*
X93474819Y-61803333D02*
X94189104Y-61803333D01*
X94189104Y-61803333D02*
X94331961Y-61850952D01*
X94331961Y-61850952D02*
X94427200Y-61946190D01*
X94427200Y-61946190D02*
X94474819Y-62089047D01*
X94474819Y-62089047D02*
X94474819Y-62184285D01*
X93808152Y-60898571D02*
X94474819Y-60898571D01*
X93427200Y-61136666D02*
X94141485Y-61374761D01*
X94141485Y-61374761D02*
X94141485Y-60755714D01*
X63166666Y-104254819D02*
X63166666Y-104969104D01*
X63166666Y-104969104D02*
X63119047Y-105111961D01*
X63119047Y-105111961D02*
X63023809Y-105207200D01*
X63023809Y-105207200D02*
X62880952Y-105254819D01*
X62880952Y-105254819D02*
X62785714Y-105254819D01*
X63690476Y-105254819D02*
X63880952Y-105254819D01*
X63880952Y-105254819D02*
X63976190Y-105207200D01*
X63976190Y-105207200D02*
X64023809Y-105159580D01*
X64023809Y-105159580D02*
X64119047Y-105016723D01*
X64119047Y-105016723D02*
X64166666Y-104826247D01*
X64166666Y-104826247D02*
X64166666Y-104445295D01*
X64166666Y-104445295D02*
X64119047Y-104350057D01*
X64119047Y-104350057D02*
X64071428Y-104302438D01*
X64071428Y-104302438D02*
X63976190Y-104254819D01*
X63976190Y-104254819D02*
X63785714Y-104254819D01*
X63785714Y-104254819D02*
X63690476Y-104302438D01*
X63690476Y-104302438D02*
X63642857Y-104350057D01*
X63642857Y-104350057D02*
X63595238Y-104445295D01*
X63595238Y-104445295D02*
X63595238Y-104683390D01*
X63595238Y-104683390D02*
X63642857Y-104778628D01*
X63642857Y-104778628D02*
X63690476Y-104826247D01*
X63690476Y-104826247D02*
X63785714Y-104873866D01*
X63785714Y-104873866D02*
X63976190Y-104873866D01*
X63976190Y-104873866D02*
X64071428Y-104826247D01*
X64071428Y-104826247D02*
X64119047Y-104778628D01*
X64119047Y-104778628D02*
X64166666Y-104683390D01*
D11*
X81416666Y-78924809D02*
X81250000Y-78686714D01*
X81130952Y-78924809D02*
X81130952Y-78424809D01*
X81130952Y-78424809D02*
X81321428Y-78424809D01*
X81321428Y-78424809D02*
X81369047Y-78448619D01*
X81369047Y-78448619D02*
X81392857Y-78472428D01*
X81392857Y-78472428D02*
X81416666Y-78520047D01*
X81416666Y-78520047D02*
X81416666Y-78591476D01*
X81416666Y-78591476D02*
X81392857Y-78639095D01*
X81392857Y-78639095D02*
X81369047Y-78662904D01*
X81369047Y-78662904D02*
X81321428Y-78686714D01*
X81321428Y-78686714D02*
X81130952Y-78686714D01*
X81869047Y-78424809D02*
X81630952Y-78424809D01*
X81630952Y-78424809D02*
X81607143Y-78662904D01*
X81607143Y-78662904D02*
X81630952Y-78639095D01*
X81630952Y-78639095D02*
X81678571Y-78615285D01*
X81678571Y-78615285D02*
X81797619Y-78615285D01*
X81797619Y-78615285D02*
X81845238Y-78639095D01*
X81845238Y-78639095D02*
X81869047Y-78662904D01*
X81869047Y-78662904D02*
X81892857Y-78710523D01*
X81892857Y-78710523D02*
X81892857Y-78829571D01*
X81892857Y-78829571D02*
X81869047Y-78877190D01*
X81869047Y-78877190D02*
X81845238Y-78901000D01*
X81845238Y-78901000D02*
X81797619Y-78924809D01*
X81797619Y-78924809D02*
X81678571Y-78924809D01*
X81678571Y-78924809D02*
X81630952Y-78901000D01*
X81630952Y-78901000D02*
X81607143Y-78877190D01*
X130752380Y-129072428D02*
X130704761Y-129048619D01*
X130704761Y-129048619D02*
X130657142Y-129001000D01*
X130657142Y-129001000D02*
X130585714Y-128929571D01*
X130585714Y-128929571D02*
X130538095Y-128905761D01*
X130538095Y-128905761D02*
X130490476Y-128905761D01*
X130514285Y-129024809D02*
X130466666Y-129001000D01*
X130466666Y-129001000D02*
X130419047Y-128953380D01*
X130419047Y-128953380D02*
X130395238Y-128858142D01*
X130395238Y-128858142D02*
X130395238Y-128691476D01*
X130395238Y-128691476D02*
X130419047Y-128596238D01*
X130419047Y-128596238D02*
X130466666Y-128548619D01*
X130466666Y-128548619D02*
X130514285Y-128524809D01*
X130514285Y-128524809D02*
X130609523Y-128524809D01*
X130609523Y-128524809D02*
X130657142Y-128548619D01*
X130657142Y-128548619D02*
X130704761Y-128596238D01*
X130704761Y-128596238D02*
X130728571Y-128691476D01*
X130728571Y-128691476D02*
X130728571Y-128858142D01*
X130728571Y-128858142D02*
X130704761Y-128953380D01*
X130704761Y-128953380D02*
X130657142Y-129001000D01*
X130657142Y-129001000D02*
X130609523Y-129024809D01*
X130609523Y-129024809D02*
X130514285Y-129024809D01*
X131204762Y-129024809D02*
X130919048Y-129024809D01*
X131061905Y-129024809D02*
X131061905Y-128524809D01*
X131061905Y-128524809D02*
X131014286Y-128596238D01*
X131014286Y-128596238D02*
X130966667Y-128643857D01*
X130966667Y-128643857D02*
X130919048Y-128667666D01*
X138878571Y-54824809D02*
X138711905Y-54586714D01*
X138592857Y-54824809D02*
X138592857Y-54324809D01*
X138592857Y-54324809D02*
X138783333Y-54324809D01*
X138783333Y-54324809D02*
X138830952Y-54348619D01*
X138830952Y-54348619D02*
X138854762Y-54372428D01*
X138854762Y-54372428D02*
X138878571Y-54420047D01*
X138878571Y-54420047D02*
X138878571Y-54491476D01*
X138878571Y-54491476D02*
X138854762Y-54539095D01*
X138854762Y-54539095D02*
X138830952Y-54562904D01*
X138830952Y-54562904D02*
X138783333Y-54586714D01*
X138783333Y-54586714D02*
X138592857Y-54586714D01*
X139069048Y-54372428D02*
X139092857Y-54348619D01*
X139092857Y-54348619D02*
X139140476Y-54324809D01*
X139140476Y-54324809D02*
X139259524Y-54324809D01*
X139259524Y-54324809D02*
X139307143Y-54348619D01*
X139307143Y-54348619D02*
X139330952Y-54372428D01*
X139330952Y-54372428D02*
X139354762Y-54420047D01*
X139354762Y-54420047D02*
X139354762Y-54467666D01*
X139354762Y-54467666D02*
X139330952Y-54539095D01*
X139330952Y-54539095D02*
X139045238Y-54824809D01*
X139045238Y-54824809D02*
X139354762Y-54824809D01*
X139807142Y-54324809D02*
X139569047Y-54324809D01*
X139569047Y-54324809D02*
X139545238Y-54562904D01*
X139545238Y-54562904D02*
X139569047Y-54539095D01*
X139569047Y-54539095D02*
X139616666Y-54515285D01*
X139616666Y-54515285D02*
X139735714Y-54515285D01*
X139735714Y-54515285D02*
X139783333Y-54539095D01*
X139783333Y-54539095D02*
X139807142Y-54562904D01*
X139807142Y-54562904D02*
X139830952Y-54610523D01*
X139830952Y-54610523D02*
X139830952Y-54729571D01*
X139830952Y-54729571D02*
X139807142Y-54777190D01*
X139807142Y-54777190D02*
X139783333Y-54801000D01*
X139783333Y-54801000D02*
X139735714Y-54824809D01*
X139735714Y-54824809D02*
X139616666Y-54824809D01*
X139616666Y-54824809D02*
X139569047Y-54801000D01*
X139569047Y-54801000D02*
X139545238Y-54777190D01*
X123501000Y-73766665D02*
X123524809Y-73695237D01*
X123524809Y-73695237D02*
X123524809Y-73576189D01*
X123524809Y-73576189D02*
X123501000Y-73528570D01*
X123501000Y-73528570D02*
X123477190Y-73504761D01*
X123477190Y-73504761D02*
X123429571Y-73480951D01*
X123429571Y-73480951D02*
X123381952Y-73480951D01*
X123381952Y-73480951D02*
X123334333Y-73504761D01*
X123334333Y-73504761D02*
X123310523Y-73528570D01*
X123310523Y-73528570D02*
X123286714Y-73576189D01*
X123286714Y-73576189D02*
X123262904Y-73671427D01*
X123262904Y-73671427D02*
X123239095Y-73719046D01*
X123239095Y-73719046D02*
X123215285Y-73742856D01*
X123215285Y-73742856D02*
X123167666Y-73766665D01*
X123167666Y-73766665D02*
X123120047Y-73766665D01*
X123120047Y-73766665D02*
X123072428Y-73742856D01*
X123072428Y-73742856D02*
X123048619Y-73719046D01*
X123048619Y-73719046D02*
X123024809Y-73671427D01*
X123024809Y-73671427D02*
X123024809Y-73552380D01*
X123024809Y-73552380D02*
X123048619Y-73480951D01*
X123024809Y-73314285D02*
X123524809Y-73195237D01*
X123524809Y-73195237D02*
X123167666Y-73099999D01*
X123167666Y-73099999D02*
X123524809Y-73004761D01*
X123524809Y-73004761D02*
X123024809Y-72885714D01*
X123524809Y-72433332D02*
X123524809Y-72719046D01*
X123524809Y-72576189D02*
X123024809Y-72576189D01*
X123024809Y-72576189D02*
X123096238Y-72623808D01*
X123096238Y-72623808D02*
X123143857Y-72671427D01*
X123143857Y-72671427D02*
X123167666Y-72719046D01*
X118502190Y-127608333D02*
X118526000Y-127632142D01*
X118526000Y-127632142D02*
X118549809Y-127703571D01*
X118549809Y-127703571D02*
X118549809Y-127751190D01*
X118549809Y-127751190D02*
X118526000Y-127822618D01*
X118526000Y-127822618D02*
X118478380Y-127870237D01*
X118478380Y-127870237D02*
X118430761Y-127894047D01*
X118430761Y-127894047D02*
X118335523Y-127917856D01*
X118335523Y-127917856D02*
X118264095Y-127917856D01*
X118264095Y-127917856D02*
X118168857Y-127894047D01*
X118168857Y-127894047D02*
X118121238Y-127870237D01*
X118121238Y-127870237D02*
X118073619Y-127822618D01*
X118073619Y-127822618D02*
X118049809Y-127751190D01*
X118049809Y-127751190D02*
X118049809Y-127703571D01*
X118049809Y-127703571D02*
X118073619Y-127632142D01*
X118073619Y-127632142D02*
X118097428Y-127608333D01*
X118097428Y-127417856D02*
X118073619Y-127394047D01*
X118073619Y-127394047D02*
X118049809Y-127346428D01*
X118049809Y-127346428D02*
X118049809Y-127227380D01*
X118049809Y-127227380D02*
X118073619Y-127179761D01*
X118073619Y-127179761D02*
X118097428Y-127155952D01*
X118097428Y-127155952D02*
X118145047Y-127132142D01*
X118145047Y-127132142D02*
X118192666Y-127132142D01*
X118192666Y-127132142D02*
X118264095Y-127155952D01*
X118264095Y-127155952D02*
X118549809Y-127441666D01*
X118549809Y-127441666D02*
X118549809Y-127132142D01*
X80719047Y-69824809D02*
X80719047Y-70229571D01*
X80719047Y-70229571D02*
X80742857Y-70277190D01*
X80742857Y-70277190D02*
X80766666Y-70301000D01*
X80766666Y-70301000D02*
X80814285Y-70324809D01*
X80814285Y-70324809D02*
X80909523Y-70324809D01*
X80909523Y-70324809D02*
X80957142Y-70301000D01*
X80957142Y-70301000D02*
X80980952Y-70277190D01*
X80980952Y-70277190D02*
X81004761Y-70229571D01*
X81004761Y-70229571D02*
X81004761Y-69824809D01*
X81504762Y-70324809D02*
X81219048Y-70324809D01*
X81361905Y-70324809D02*
X81361905Y-69824809D01*
X81361905Y-69824809D02*
X81314286Y-69896238D01*
X81314286Y-69896238D02*
X81266667Y-69943857D01*
X81266667Y-69943857D02*
X81219048Y-69967666D01*
X97224809Y-134321428D02*
X96986714Y-134488094D01*
X97224809Y-134607142D02*
X96724809Y-134607142D01*
X96724809Y-134607142D02*
X96724809Y-134416666D01*
X96724809Y-134416666D02*
X96748619Y-134369047D01*
X96748619Y-134369047D02*
X96772428Y-134345237D01*
X96772428Y-134345237D02*
X96820047Y-134321428D01*
X96820047Y-134321428D02*
X96891476Y-134321428D01*
X96891476Y-134321428D02*
X96939095Y-134345237D01*
X96939095Y-134345237D02*
X96962904Y-134369047D01*
X96962904Y-134369047D02*
X96986714Y-134416666D01*
X96986714Y-134416666D02*
X96986714Y-134607142D01*
X97224809Y-133845237D02*
X97224809Y-134130951D01*
X97224809Y-133988094D02*
X96724809Y-133988094D01*
X96724809Y-133988094D02*
X96796238Y-134035713D01*
X96796238Y-134035713D02*
X96843857Y-134083332D01*
X96843857Y-134083332D02*
X96867666Y-134130951D01*
X96939095Y-133559523D02*
X96915285Y-133607142D01*
X96915285Y-133607142D02*
X96891476Y-133630952D01*
X96891476Y-133630952D02*
X96843857Y-133654761D01*
X96843857Y-133654761D02*
X96820047Y-133654761D01*
X96820047Y-133654761D02*
X96772428Y-133630952D01*
X96772428Y-133630952D02*
X96748619Y-133607142D01*
X96748619Y-133607142D02*
X96724809Y-133559523D01*
X96724809Y-133559523D02*
X96724809Y-133464285D01*
X96724809Y-133464285D02*
X96748619Y-133416666D01*
X96748619Y-133416666D02*
X96772428Y-133392857D01*
X96772428Y-133392857D02*
X96820047Y-133369047D01*
X96820047Y-133369047D02*
X96843857Y-133369047D01*
X96843857Y-133369047D02*
X96891476Y-133392857D01*
X96891476Y-133392857D02*
X96915285Y-133416666D01*
X96915285Y-133416666D02*
X96939095Y-133464285D01*
X96939095Y-133464285D02*
X96939095Y-133559523D01*
X96939095Y-133559523D02*
X96962904Y-133607142D01*
X96962904Y-133607142D02*
X96986714Y-133630952D01*
X96986714Y-133630952D02*
X97034333Y-133654761D01*
X97034333Y-133654761D02*
X97129571Y-133654761D01*
X97129571Y-133654761D02*
X97177190Y-133630952D01*
X97177190Y-133630952D02*
X97201000Y-133607142D01*
X97201000Y-133607142D02*
X97224809Y-133559523D01*
X97224809Y-133559523D02*
X97224809Y-133464285D01*
X97224809Y-133464285D02*
X97201000Y-133416666D01*
X97201000Y-133416666D02*
X97177190Y-133392857D01*
X97177190Y-133392857D02*
X97129571Y-133369047D01*
X97129571Y-133369047D02*
X97034333Y-133369047D01*
X97034333Y-133369047D02*
X96986714Y-133392857D01*
X96986714Y-133392857D02*
X96962904Y-133416666D01*
X96962904Y-133416666D02*
X96939095Y-133464285D01*
X139228571Y-89174809D02*
X139061905Y-88936714D01*
X138942857Y-89174809D02*
X138942857Y-88674809D01*
X138942857Y-88674809D02*
X139133333Y-88674809D01*
X139133333Y-88674809D02*
X139180952Y-88698619D01*
X139180952Y-88698619D02*
X139204762Y-88722428D01*
X139204762Y-88722428D02*
X139228571Y-88770047D01*
X139228571Y-88770047D02*
X139228571Y-88841476D01*
X139228571Y-88841476D02*
X139204762Y-88889095D01*
X139204762Y-88889095D02*
X139180952Y-88912904D01*
X139180952Y-88912904D02*
X139133333Y-88936714D01*
X139133333Y-88936714D02*
X138942857Y-88936714D01*
X139419048Y-88722428D02*
X139442857Y-88698619D01*
X139442857Y-88698619D02*
X139490476Y-88674809D01*
X139490476Y-88674809D02*
X139609524Y-88674809D01*
X139609524Y-88674809D02*
X139657143Y-88698619D01*
X139657143Y-88698619D02*
X139680952Y-88722428D01*
X139680952Y-88722428D02*
X139704762Y-88770047D01*
X139704762Y-88770047D02*
X139704762Y-88817666D01*
X139704762Y-88817666D02*
X139680952Y-88889095D01*
X139680952Y-88889095D02*
X139395238Y-89174809D01*
X139395238Y-89174809D02*
X139704762Y-89174809D01*
X140133333Y-88674809D02*
X140038095Y-88674809D01*
X140038095Y-88674809D02*
X139990476Y-88698619D01*
X139990476Y-88698619D02*
X139966666Y-88722428D01*
X139966666Y-88722428D02*
X139919047Y-88793857D01*
X139919047Y-88793857D02*
X139895238Y-88889095D01*
X139895238Y-88889095D02*
X139895238Y-89079571D01*
X139895238Y-89079571D02*
X139919047Y-89127190D01*
X139919047Y-89127190D02*
X139942857Y-89151000D01*
X139942857Y-89151000D02*
X139990476Y-89174809D01*
X139990476Y-89174809D02*
X140085714Y-89174809D01*
X140085714Y-89174809D02*
X140133333Y-89151000D01*
X140133333Y-89151000D02*
X140157142Y-89127190D01*
X140157142Y-89127190D02*
X140180952Y-89079571D01*
X140180952Y-89079571D02*
X140180952Y-88960523D01*
X140180952Y-88960523D02*
X140157142Y-88912904D01*
X140157142Y-88912904D02*
X140133333Y-88889095D01*
X140133333Y-88889095D02*
X140085714Y-88865285D01*
X140085714Y-88865285D02*
X139990476Y-88865285D01*
X139990476Y-88865285D02*
X139942857Y-88889095D01*
X139942857Y-88889095D02*
X139919047Y-88912904D01*
X139919047Y-88912904D02*
X139895238Y-88960523D01*
X154704809Y-86666666D02*
X155061952Y-86666666D01*
X155061952Y-86666666D02*
X155133380Y-86690475D01*
X155133380Y-86690475D02*
X155181000Y-86738094D01*
X155181000Y-86738094D02*
X155204809Y-86809523D01*
X155204809Y-86809523D02*
X155204809Y-86857142D01*
X154704809Y-86476190D02*
X154704809Y-86166666D01*
X154704809Y-86166666D02*
X154895285Y-86333333D01*
X154895285Y-86333333D02*
X154895285Y-86261904D01*
X154895285Y-86261904D02*
X154919095Y-86214285D01*
X154919095Y-86214285D02*
X154942904Y-86190476D01*
X154942904Y-86190476D02*
X154990523Y-86166666D01*
X154990523Y-86166666D02*
X155109571Y-86166666D01*
X155109571Y-86166666D02*
X155157190Y-86190476D01*
X155157190Y-86190476D02*
X155181000Y-86214285D01*
X155181000Y-86214285D02*
X155204809Y-86261904D01*
X155204809Y-86261904D02*
X155204809Y-86404761D01*
X155204809Y-86404761D02*
X155181000Y-86452380D01*
X155181000Y-86452380D02*
X155157190Y-86476190D01*
X137152380Y-119472428D02*
X137104761Y-119448619D01*
X137104761Y-119448619D02*
X137057142Y-119401000D01*
X137057142Y-119401000D02*
X136985714Y-119329571D01*
X136985714Y-119329571D02*
X136938095Y-119305761D01*
X136938095Y-119305761D02*
X136890476Y-119305761D01*
X136914285Y-119424809D02*
X136866666Y-119401000D01*
X136866666Y-119401000D02*
X136819047Y-119353380D01*
X136819047Y-119353380D02*
X136795238Y-119258142D01*
X136795238Y-119258142D02*
X136795238Y-119091476D01*
X136795238Y-119091476D02*
X136819047Y-118996238D01*
X136819047Y-118996238D02*
X136866666Y-118948619D01*
X136866666Y-118948619D02*
X136914285Y-118924809D01*
X136914285Y-118924809D02*
X137009523Y-118924809D01*
X137009523Y-118924809D02*
X137057142Y-118948619D01*
X137057142Y-118948619D02*
X137104761Y-118996238D01*
X137104761Y-118996238D02*
X137128571Y-119091476D01*
X137128571Y-119091476D02*
X137128571Y-119258142D01*
X137128571Y-119258142D02*
X137104761Y-119353380D01*
X137104761Y-119353380D02*
X137057142Y-119401000D01*
X137057142Y-119401000D02*
X137009523Y-119424809D01*
X137009523Y-119424809D02*
X136914285Y-119424809D01*
X137319048Y-118972428D02*
X137342857Y-118948619D01*
X137342857Y-118948619D02*
X137390476Y-118924809D01*
X137390476Y-118924809D02*
X137509524Y-118924809D01*
X137509524Y-118924809D02*
X137557143Y-118948619D01*
X137557143Y-118948619D02*
X137580952Y-118972428D01*
X137580952Y-118972428D02*
X137604762Y-119020047D01*
X137604762Y-119020047D02*
X137604762Y-119067666D01*
X137604762Y-119067666D02*
X137580952Y-119139095D01*
X137580952Y-119139095D02*
X137295238Y-119424809D01*
X137295238Y-119424809D02*
X137604762Y-119424809D01*
X151824809Y-47466666D02*
X152181952Y-47466666D01*
X152181952Y-47466666D02*
X152253380Y-47490475D01*
X152253380Y-47490475D02*
X152301000Y-47538094D01*
X152301000Y-47538094D02*
X152324809Y-47609523D01*
X152324809Y-47609523D02*
X152324809Y-47657142D01*
X151872428Y-47252380D02*
X151848619Y-47228571D01*
X151848619Y-47228571D02*
X151824809Y-47180952D01*
X151824809Y-47180952D02*
X151824809Y-47061904D01*
X151824809Y-47061904D02*
X151848619Y-47014285D01*
X151848619Y-47014285D02*
X151872428Y-46990476D01*
X151872428Y-46990476D02*
X151920047Y-46966666D01*
X151920047Y-46966666D02*
X151967666Y-46966666D01*
X151967666Y-46966666D02*
X152039095Y-46990476D01*
X152039095Y-46990476D02*
X152324809Y-47276190D01*
X152324809Y-47276190D02*
X152324809Y-46966666D01*
X90916666Y-124147190D02*
X90892857Y-124171000D01*
X90892857Y-124171000D02*
X90821428Y-124194809D01*
X90821428Y-124194809D02*
X90773809Y-124194809D01*
X90773809Y-124194809D02*
X90702381Y-124171000D01*
X90702381Y-124171000D02*
X90654762Y-124123380D01*
X90654762Y-124123380D02*
X90630952Y-124075761D01*
X90630952Y-124075761D02*
X90607143Y-123980523D01*
X90607143Y-123980523D02*
X90607143Y-123909095D01*
X90607143Y-123909095D02*
X90630952Y-123813857D01*
X90630952Y-123813857D02*
X90654762Y-123766238D01*
X90654762Y-123766238D02*
X90702381Y-123718619D01*
X90702381Y-123718619D02*
X90773809Y-123694809D01*
X90773809Y-123694809D02*
X90821428Y-123694809D01*
X90821428Y-123694809D02*
X90892857Y-123718619D01*
X90892857Y-123718619D02*
X90916666Y-123742428D01*
X91345238Y-123861476D02*
X91345238Y-124194809D01*
X91226190Y-123671000D02*
X91107143Y-124028142D01*
X91107143Y-124028142D02*
X91416666Y-124028142D01*
X84869048Y-81724809D02*
X85154762Y-81724809D01*
X85011905Y-82224809D02*
X85011905Y-81724809D01*
X85321428Y-82224809D02*
X85321428Y-81724809D01*
X85321428Y-81724809D02*
X85511904Y-81724809D01*
X85511904Y-81724809D02*
X85559523Y-81748619D01*
X85559523Y-81748619D02*
X85583333Y-81772428D01*
X85583333Y-81772428D02*
X85607142Y-81820047D01*
X85607142Y-81820047D02*
X85607142Y-81891476D01*
X85607142Y-81891476D02*
X85583333Y-81939095D01*
X85583333Y-81939095D02*
X85559523Y-81962904D01*
X85559523Y-81962904D02*
X85511904Y-81986714D01*
X85511904Y-81986714D02*
X85321428Y-81986714D01*
X86083333Y-82224809D02*
X85797619Y-82224809D01*
X85940476Y-82224809D02*
X85940476Y-81724809D01*
X85940476Y-81724809D02*
X85892857Y-81796238D01*
X85892857Y-81796238D02*
X85845238Y-81843857D01*
X85845238Y-81843857D02*
X85797619Y-81867666D01*
X86228571Y-54174809D02*
X86061905Y-53936714D01*
X85942857Y-54174809D02*
X85942857Y-53674809D01*
X85942857Y-53674809D02*
X86133333Y-53674809D01*
X86133333Y-53674809D02*
X86180952Y-53698619D01*
X86180952Y-53698619D02*
X86204762Y-53722428D01*
X86204762Y-53722428D02*
X86228571Y-53770047D01*
X86228571Y-53770047D02*
X86228571Y-53841476D01*
X86228571Y-53841476D02*
X86204762Y-53889095D01*
X86204762Y-53889095D02*
X86180952Y-53912904D01*
X86180952Y-53912904D02*
X86133333Y-53936714D01*
X86133333Y-53936714D02*
X85942857Y-53936714D01*
X86395238Y-53674809D02*
X86704762Y-53674809D01*
X86704762Y-53674809D02*
X86538095Y-53865285D01*
X86538095Y-53865285D02*
X86609524Y-53865285D01*
X86609524Y-53865285D02*
X86657143Y-53889095D01*
X86657143Y-53889095D02*
X86680952Y-53912904D01*
X86680952Y-53912904D02*
X86704762Y-53960523D01*
X86704762Y-53960523D02*
X86704762Y-54079571D01*
X86704762Y-54079571D02*
X86680952Y-54127190D01*
X86680952Y-54127190D02*
X86657143Y-54151000D01*
X86657143Y-54151000D02*
X86609524Y-54174809D01*
X86609524Y-54174809D02*
X86466667Y-54174809D01*
X86466667Y-54174809D02*
X86419048Y-54151000D01*
X86419048Y-54151000D02*
X86395238Y-54127190D01*
X87014285Y-53674809D02*
X87061904Y-53674809D01*
X87061904Y-53674809D02*
X87109523Y-53698619D01*
X87109523Y-53698619D02*
X87133333Y-53722428D01*
X87133333Y-53722428D02*
X87157142Y-53770047D01*
X87157142Y-53770047D02*
X87180952Y-53865285D01*
X87180952Y-53865285D02*
X87180952Y-53984333D01*
X87180952Y-53984333D02*
X87157142Y-54079571D01*
X87157142Y-54079571D02*
X87133333Y-54127190D01*
X87133333Y-54127190D02*
X87109523Y-54151000D01*
X87109523Y-54151000D02*
X87061904Y-54174809D01*
X87061904Y-54174809D02*
X87014285Y-54174809D01*
X87014285Y-54174809D02*
X86966666Y-54151000D01*
X86966666Y-54151000D02*
X86942857Y-54127190D01*
X86942857Y-54127190D02*
X86919047Y-54079571D01*
X86919047Y-54079571D02*
X86895238Y-53984333D01*
X86895238Y-53984333D02*
X86895238Y-53865285D01*
X86895238Y-53865285D02*
X86919047Y-53770047D01*
X86919047Y-53770047D02*
X86942857Y-53722428D01*
X86942857Y-53722428D02*
X86966666Y-53698619D01*
X86966666Y-53698619D02*
X87014285Y-53674809D01*
X142278571Y-55224809D02*
X142111905Y-54986714D01*
X141992857Y-55224809D02*
X141992857Y-54724809D01*
X141992857Y-54724809D02*
X142183333Y-54724809D01*
X142183333Y-54724809D02*
X142230952Y-54748619D01*
X142230952Y-54748619D02*
X142254762Y-54772428D01*
X142254762Y-54772428D02*
X142278571Y-54820047D01*
X142278571Y-54820047D02*
X142278571Y-54891476D01*
X142278571Y-54891476D02*
X142254762Y-54939095D01*
X142254762Y-54939095D02*
X142230952Y-54962904D01*
X142230952Y-54962904D02*
X142183333Y-54986714D01*
X142183333Y-54986714D02*
X141992857Y-54986714D01*
X142469048Y-54772428D02*
X142492857Y-54748619D01*
X142492857Y-54748619D02*
X142540476Y-54724809D01*
X142540476Y-54724809D02*
X142659524Y-54724809D01*
X142659524Y-54724809D02*
X142707143Y-54748619D01*
X142707143Y-54748619D02*
X142730952Y-54772428D01*
X142730952Y-54772428D02*
X142754762Y-54820047D01*
X142754762Y-54820047D02*
X142754762Y-54867666D01*
X142754762Y-54867666D02*
X142730952Y-54939095D01*
X142730952Y-54939095D02*
X142445238Y-55224809D01*
X142445238Y-55224809D02*
X142754762Y-55224809D01*
X143183333Y-54891476D02*
X143183333Y-55224809D01*
X143064285Y-54701000D02*
X142945238Y-55058142D01*
X142945238Y-55058142D02*
X143254761Y-55058142D01*
X76334809Y-69333333D02*
X76096714Y-69499999D01*
X76334809Y-69619047D02*
X75834809Y-69619047D01*
X75834809Y-69619047D02*
X75834809Y-69428571D01*
X75834809Y-69428571D02*
X75858619Y-69380952D01*
X75858619Y-69380952D02*
X75882428Y-69357142D01*
X75882428Y-69357142D02*
X75930047Y-69333333D01*
X75930047Y-69333333D02*
X76001476Y-69333333D01*
X76001476Y-69333333D02*
X76049095Y-69357142D01*
X76049095Y-69357142D02*
X76072904Y-69380952D01*
X76072904Y-69380952D02*
X76096714Y-69428571D01*
X76096714Y-69428571D02*
X76096714Y-69619047D01*
X76334809Y-69095237D02*
X76334809Y-68999999D01*
X76334809Y-68999999D02*
X76311000Y-68952380D01*
X76311000Y-68952380D02*
X76287190Y-68928571D01*
X76287190Y-68928571D02*
X76215761Y-68880952D01*
X76215761Y-68880952D02*
X76120523Y-68857142D01*
X76120523Y-68857142D02*
X75930047Y-68857142D01*
X75930047Y-68857142D02*
X75882428Y-68880952D01*
X75882428Y-68880952D02*
X75858619Y-68904761D01*
X75858619Y-68904761D02*
X75834809Y-68952380D01*
X75834809Y-68952380D02*
X75834809Y-69047618D01*
X75834809Y-69047618D02*
X75858619Y-69095237D01*
X75858619Y-69095237D02*
X75882428Y-69119047D01*
X75882428Y-69119047D02*
X75930047Y-69142856D01*
X75930047Y-69142856D02*
X76049095Y-69142856D01*
X76049095Y-69142856D02*
X76096714Y-69119047D01*
X76096714Y-69119047D02*
X76120523Y-69095237D01*
X76120523Y-69095237D02*
X76144333Y-69047618D01*
X76144333Y-69047618D02*
X76144333Y-68952380D01*
X76144333Y-68952380D02*
X76120523Y-68904761D01*
X76120523Y-68904761D02*
X76096714Y-68880952D01*
X76096714Y-68880952D02*
X76049095Y-68857142D01*
X78116666Y-75024809D02*
X77950000Y-74786714D01*
X77830952Y-75024809D02*
X77830952Y-74524809D01*
X77830952Y-74524809D02*
X78021428Y-74524809D01*
X78021428Y-74524809D02*
X78069047Y-74548619D01*
X78069047Y-74548619D02*
X78092857Y-74572428D01*
X78092857Y-74572428D02*
X78116666Y-74620047D01*
X78116666Y-74620047D02*
X78116666Y-74691476D01*
X78116666Y-74691476D02*
X78092857Y-74739095D01*
X78092857Y-74739095D02*
X78069047Y-74762904D01*
X78069047Y-74762904D02*
X78021428Y-74786714D01*
X78021428Y-74786714D02*
X77830952Y-74786714D01*
X78283333Y-74524809D02*
X78616666Y-74524809D01*
X78616666Y-74524809D02*
X78402381Y-75024809D01*
X86436905Y-68386714D02*
X86436905Y-68624809D01*
X86270239Y-68124809D02*
X86436905Y-68386714D01*
X86436905Y-68386714D02*
X86603572Y-68124809D01*
X87032143Y-68624809D02*
X86746429Y-68624809D01*
X86889286Y-68624809D02*
X86889286Y-68124809D01*
X86889286Y-68124809D02*
X86841667Y-68196238D01*
X86841667Y-68196238D02*
X86794048Y-68243857D01*
X86794048Y-68243857D02*
X86746429Y-68267666D01*
X138178571Y-106224809D02*
X138011905Y-105986714D01*
X137892857Y-106224809D02*
X137892857Y-105724809D01*
X137892857Y-105724809D02*
X138083333Y-105724809D01*
X138083333Y-105724809D02*
X138130952Y-105748619D01*
X138130952Y-105748619D02*
X138154762Y-105772428D01*
X138154762Y-105772428D02*
X138178571Y-105820047D01*
X138178571Y-105820047D02*
X138178571Y-105891476D01*
X138178571Y-105891476D02*
X138154762Y-105939095D01*
X138154762Y-105939095D02*
X138130952Y-105962904D01*
X138130952Y-105962904D02*
X138083333Y-105986714D01*
X138083333Y-105986714D02*
X137892857Y-105986714D01*
X138345238Y-105724809D02*
X138654762Y-105724809D01*
X138654762Y-105724809D02*
X138488095Y-105915285D01*
X138488095Y-105915285D02*
X138559524Y-105915285D01*
X138559524Y-105915285D02*
X138607143Y-105939095D01*
X138607143Y-105939095D02*
X138630952Y-105962904D01*
X138630952Y-105962904D02*
X138654762Y-106010523D01*
X138654762Y-106010523D02*
X138654762Y-106129571D01*
X138654762Y-106129571D02*
X138630952Y-106177190D01*
X138630952Y-106177190D02*
X138607143Y-106201000D01*
X138607143Y-106201000D02*
X138559524Y-106224809D01*
X138559524Y-106224809D02*
X138416667Y-106224809D01*
X138416667Y-106224809D02*
X138369048Y-106201000D01*
X138369048Y-106201000D02*
X138345238Y-106177190D01*
X139083333Y-105891476D02*
X139083333Y-106224809D01*
X138964285Y-105701000D02*
X138845238Y-106058142D01*
X138845238Y-106058142D02*
X139154761Y-106058142D01*
X124024809Y-119621428D02*
X123786714Y-119788094D01*
X124024809Y-119907142D02*
X123524809Y-119907142D01*
X123524809Y-119907142D02*
X123524809Y-119716666D01*
X123524809Y-119716666D02*
X123548619Y-119669047D01*
X123548619Y-119669047D02*
X123572428Y-119645237D01*
X123572428Y-119645237D02*
X123620047Y-119621428D01*
X123620047Y-119621428D02*
X123691476Y-119621428D01*
X123691476Y-119621428D02*
X123739095Y-119645237D01*
X123739095Y-119645237D02*
X123762904Y-119669047D01*
X123762904Y-119669047D02*
X123786714Y-119716666D01*
X123786714Y-119716666D02*
X123786714Y-119907142D01*
X124024809Y-119145237D02*
X124024809Y-119430951D01*
X124024809Y-119288094D02*
X123524809Y-119288094D01*
X123524809Y-119288094D02*
X123596238Y-119335713D01*
X123596238Y-119335713D02*
X123643857Y-119383332D01*
X123643857Y-119383332D02*
X123667666Y-119430951D01*
X123524809Y-118716666D02*
X123524809Y-118811904D01*
X123524809Y-118811904D02*
X123548619Y-118859523D01*
X123548619Y-118859523D02*
X123572428Y-118883333D01*
X123572428Y-118883333D02*
X123643857Y-118930952D01*
X123643857Y-118930952D02*
X123739095Y-118954761D01*
X123739095Y-118954761D02*
X123929571Y-118954761D01*
X123929571Y-118954761D02*
X123977190Y-118930952D01*
X123977190Y-118930952D02*
X124001000Y-118907142D01*
X124001000Y-118907142D02*
X124024809Y-118859523D01*
X124024809Y-118859523D02*
X124024809Y-118764285D01*
X124024809Y-118764285D02*
X124001000Y-118716666D01*
X124001000Y-118716666D02*
X123977190Y-118692857D01*
X123977190Y-118692857D02*
X123929571Y-118669047D01*
X123929571Y-118669047D02*
X123810523Y-118669047D01*
X123810523Y-118669047D02*
X123762904Y-118692857D01*
X123762904Y-118692857D02*
X123739095Y-118716666D01*
X123739095Y-118716666D02*
X123715285Y-118764285D01*
X123715285Y-118764285D02*
X123715285Y-118859523D01*
X123715285Y-118859523D02*
X123739095Y-118907142D01*
X123739095Y-118907142D02*
X123762904Y-118930952D01*
X123762904Y-118930952D02*
X123810523Y-118954761D01*
X146124809Y-109851047D02*
X145624809Y-109851047D01*
X145624809Y-109851047D02*
X145624809Y-109731999D01*
X145624809Y-109731999D02*
X145648619Y-109660571D01*
X145648619Y-109660571D02*
X145696238Y-109612952D01*
X145696238Y-109612952D02*
X145743857Y-109589142D01*
X145743857Y-109589142D02*
X145839095Y-109565333D01*
X145839095Y-109565333D02*
X145910523Y-109565333D01*
X145910523Y-109565333D02*
X146005761Y-109589142D01*
X146005761Y-109589142D02*
X146053380Y-109612952D01*
X146053380Y-109612952D02*
X146101000Y-109660571D01*
X146101000Y-109660571D02*
X146124809Y-109731999D01*
X146124809Y-109731999D02*
X146124809Y-109851047D01*
X145624809Y-109112952D02*
X145624809Y-109351047D01*
X145624809Y-109351047D02*
X145862904Y-109374856D01*
X145862904Y-109374856D02*
X145839095Y-109351047D01*
X145839095Y-109351047D02*
X145815285Y-109303428D01*
X145815285Y-109303428D02*
X145815285Y-109184380D01*
X145815285Y-109184380D02*
X145839095Y-109136761D01*
X145839095Y-109136761D02*
X145862904Y-109112952D01*
X145862904Y-109112952D02*
X145910523Y-109089142D01*
X145910523Y-109089142D02*
X146029571Y-109089142D01*
X146029571Y-109089142D02*
X146077190Y-109112952D01*
X146077190Y-109112952D02*
X146101000Y-109136761D01*
X146101000Y-109136761D02*
X146124809Y-109184380D01*
X146124809Y-109184380D02*
X146124809Y-109303428D01*
X146124809Y-109303428D02*
X146101000Y-109351047D01*
X146101000Y-109351047D02*
X146077190Y-109374856D01*
X81933333Y-127024809D02*
X81933333Y-127381952D01*
X81933333Y-127381952D02*
X81909524Y-127453380D01*
X81909524Y-127453380D02*
X81861905Y-127501000D01*
X81861905Y-127501000D02*
X81790476Y-127524809D01*
X81790476Y-127524809D02*
X81742857Y-127524809D01*
X82385714Y-127024809D02*
X82290476Y-127024809D01*
X82290476Y-127024809D02*
X82242857Y-127048619D01*
X82242857Y-127048619D02*
X82219047Y-127072428D01*
X82219047Y-127072428D02*
X82171428Y-127143857D01*
X82171428Y-127143857D02*
X82147619Y-127239095D01*
X82147619Y-127239095D02*
X82147619Y-127429571D01*
X82147619Y-127429571D02*
X82171428Y-127477190D01*
X82171428Y-127477190D02*
X82195238Y-127501000D01*
X82195238Y-127501000D02*
X82242857Y-127524809D01*
X82242857Y-127524809D02*
X82338095Y-127524809D01*
X82338095Y-127524809D02*
X82385714Y-127501000D01*
X82385714Y-127501000D02*
X82409523Y-127477190D01*
X82409523Y-127477190D02*
X82433333Y-127429571D01*
X82433333Y-127429571D02*
X82433333Y-127310523D01*
X82433333Y-127310523D02*
X82409523Y-127262904D01*
X82409523Y-127262904D02*
X82385714Y-127239095D01*
X82385714Y-127239095D02*
X82338095Y-127215285D01*
X82338095Y-127215285D02*
X82242857Y-127215285D01*
X82242857Y-127215285D02*
X82195238Y-127239095D01*
X82195238Y-127239095D02*
X82171428Y-127262904D01*
X82171428Y-127262904D02*
X82147619Y-127310523D01*
X128319047Y-112724809D02*
X128319047Y-113129571D01*
X128319047Y-113129571D02*
X128342857Y-113177190D01*
X128342857Y-113177190D02*
X128366666Y-113201000D01*
X128366666Y-113201000D02*
X128414285Y-113224809D01*
X128414285Y-113224809D02*
X128509523Y-113224809D01*
X128509523Y-113224809D02*
X128557142Y-113201000D01*
X128557142Y-113201000D02*
X128580952Y-113177190D01*
X128580952Y-113177190D02*
X128604761Y-113129571D01*
X128604761Y-113129571D02*
X128604761Y-112724809D01*
X129057143Y-112891476D02*
X129057143Y-113224809D01*
X128938095Y-112701000D02*
X128819048Y-113058142D01*
X128819048Y-113058142D02*
X129128571Y-113058142D01*
X134178571Y-131124809D02*
X134011905Y-130886714D01*
X133892857Y-131124809D02*
X133892857Y-130624809D01*
X133892857Y-130624809D02*
X134083333Y-130624809D01*
X134083333Y-130624809D02*
X134130952Y-130648619D01*
X134130952Y-130648619D02*
X134154762Y-130672428D01*
X134154762Y-130672428D02*
X134178571Y-130720047D01*
X134178571Y-130720047D02*
X134178571Y-130791476D01*
X134178571Y-130791476D02*
X134154762Y-130839095D01*
X134154762Y-130839095D02*
X134130952Y-130862904D01*
X134130952Y-130862904D02*
X134083333Y-130886714D01*
X134083333Y-130886714D02*
X133892857Y-130886714D01*
X134654762Y-131124809D02*
X134369048Y-131124809D01*
X134511905Y-131124809D02*
X134511905Y-130624809D01*
X134511905Y-130624809D02*
X134464286Y-130696238D01*
X134464286Y-130696238D02*
X134416667Y-130743857D01*
X134416667Y-130743857D02*
X134369048Y-130767666D01*
X135083333Y-130791476D02*
X135083333Y-131124809D01*
X134964285Y-130601000D02*
X134845238Y-130958142D01*
X134845238Y-130958142D02*
X135154761Y-130958142D01*
X150078571Y-57377190D02*
X150054762Y-57401000D01*
X150054762Y-57401000D02*
X149983333Y-57424809D01*
X149983333Y-57424809D02*
X149935714Y-57424809D01*
X149935714Y-57424809D02*
X149864286Y-57401000D01*
X149864286Y-57401000D02*
X149816667Y-57353380D01*
X149816667Y-57353380D02*
X149792857Y-57305761D01*
X149792857Y-57305761D02*
X149769048Y-57210523D01*
X149769048Y-57210523D02*
X149769048Y-57139095D01*
X149769048Y-57139095D02*
X149792857Y-57043857D01*
X149792857Y-57043857D02*
X149816667Y-56996238D01*
X149816667Y-56996238D02*
X149864286Y-56948619D01*
X149864286Y-56948619D02*
X149935714Y-56924809D01*
X149935714Y-56924809D02*
X149983333Y-56924809D01*
X149983333Y-56924809D02*
X150054762Y-56948619D01*
X150054762Y-56948619D02*
X150078571Y-56972428D01*
X150554762Y-57424809D02*
X150269048Y-57424809D01*
X150411905Y-57424809D02*
X150411905Y-56924809D01*
X150411905Y-56924809D02*
X150364286Y-56996238D01*
X150364286Y-56996238D02*
X150316667Y-57043857D01*
X150316667Y-57043857D02*
X150269048Y-57067666D01*
X150721428Y-56924809D02*
X151030952Y-56924809D01*
X151030952Y-56924809D02*
X150864285Y-57115285D01*
X150864285Y-57115285D02*
X150935714Y-57115285D01*
X150935714Y-57115285D02*
X150983333Y-57139095D01*
X150983333Y-57139095D02*
X151007142Y-57162904D01*
X151007142Y-57162904D02*
X151030952Y-57210523D01*
X151030952Y-57210523D02*
X151030952Y-57329571D01*
X151030952Y-57329571D02*
X151007142Y-57377190D01*
X151007142Y-57377190D02*
X150983333Y-57401000D01*
X150983333Y-57401000D02*
X150935714Y-57424809D01*
X150935714Y-57424809D02*
X150792857Y-57424809D01*
X150792857Y-57424809D02*
X150745238Y-57401000D01*
X150745238Y-57401000D02*
X150721428Y-57377190D01*
X88377190Y-136683333D02*
X88401000Y-136707142D01*
X88401000Y-136707142D02*
X88424809Y-136778571D01*
X88424809Y-136778571D02*
X88424809Y-136826190D01*
X88424809Y-136826190D02*
X88401000Y-136897618D01*
X88401000Y-136897618D02*
X88353380Y-136945237D01*
X88353380Y-136945237D02*
X88305761Y-136969047D01*
X88305761Y-136969047D02*
X88210523Y-136992856D01*
X88210523Y-136992856D02*
X88139095Y-136992856D01*
X88139095Y-136992856D02*
X88043857Y-136969047D01*
X88043857Y-136969047D02*
X87996238Y-136945237D01*
X87996238Y-136945237D02*
X87948619Y-136897618D01*
X87948619Y-136897618D02*
X87924809Y-136826190D01*
X87924809Y-136826190D02*
X87924809Y-136778571D01*
X87924809Y-136778571D02*
X87948619Y-136707142D01*
X87948619Y-136707142D02*
X87972428Y-136683333D01*
X87924809Y-136516666D02*
X87924809Y-136207142D01*
X87924809Y-136207142D02*
X88115285Y-136373809D01*
X88115285Y-136373809D02*
X88115285Y-136302380D01*
X88115285Y-136302380D02*
X88139095Y-136254761D01*
X88139095Y-136254761D02*
X88162904Y-136230952D01*
X88162904Y-136230952D02*
X88210523Y-136207142D01*
X88210523Y-136207142D02*
X88329571Y-136207142D01*
X88329571Y-136207142D02*
X88377190Y-136230952D01*
X88377190Y-136230952D02*
X88401000Y-136254761D01*
X88401000Y-136254761D02*
X88424809Y-136302380D01*
X88424809Y-136302380D02*
X88424809Y-136445237D01*
X88424809Y-136445237D02*
X88401000Y-136492856D01*
X88401000Y-136492856D02*
X88377190Y-136516666D01*
X95049809Y-76983333D02*
X94811714Y-77149999D01*
X95049809Y-77269047D02*
X94549809Y-77269047D01*
X94549809Y-77269047D02*
X94549809Y-77078571D01*
X94549809Y-77078571D02*
X94573619Y-77030952D01*
X94573619Y-77030952D02*
X94597428Y-77007142D01*
X94597428Y-77007142D02*
X94645047Y-76983333D01*
X94645047Y-76983333D02*
X94716476Y-76983333D01*
X94716476Y-76983333D02*
X94764095Y-77007142D01*
X94764095Y-77007142D02*
X94787904Y-77030952D01*
X94787904Y-77030952D02*
X94811714Y-77078571D01*
X94811714Y-77078571D02*
X94811714Y-77269047D01*
X94597428Y-76792856D02*
X94573619Y-76769047D01*
X94573619Y-76769047D02*
X94549809Y-76721428D01*
X94549809Y-76721428D02*
X94549809Y-76602380D01*
X94549809Y-76602380D02*
X94573619Y-76554761D01*
X94573619Y-76554761D02*
X94597428Y-76530952D01*
X94597428Y-76530952D02*
X94645047Y-76507142D01*
X94645047Y-76507142D02*
X94692666Y-76507142D01*
X94692666Y-76507142D02*
X94764095Y-76530952D01*
X94764095Y-76530952D02*
X95049809Y-76816666D01*
X95049809Y-76816666D02*
X95049809Y-76507142D01*
X135578571Y-53324809D02*
X135411905Y-53086714D01*
X135292857Y-53324809D02*
X135292857Y-52824809D01*
X135292857Y-52824809D02*
X135483333Y-52824809D01*
X135483333Y-52824809D02*
X135530952Y-52848619D01*
X135530952Y-52848619D02*
X135554762Y-52872428D01*
X135554762Y-52872428D02*
X135578571Y-52920047D01*
X135578571Y-52920047D02*
X135578571Y-52991476D01*
X135578571Y-52991476D02*
X135554762Y-53039095D01*
X135554762Y-53039095D02*
X135530952Y-53062904D01*
X135530952Y-53062904D02*
X135483333Y-53086714D01*
X135483333Y-53086714D02*
X135292857Y-53086714D01*
X135769048Y-52872428D02*
X135792857Y-52848619D01*
X135792857Y-52848619D02*
X135840476Y-52824809D01*
X135840476Y-52824809D02*
X135959524Y-52824809D01*
X135959524Y-52824809D02*
X136007143Y-52848619D01*
X136007143Y-52848619D02*
X136030952Y-52872428D01*
X136030952Y-52872428D02*
X136054762Y-52920047D01*
X136054762Y-52920047D02*
X136054762Y-52967666D01*
X136054762Y-52967666D02*
X136030952Y-53039095D01*
X136030952Y-53039095D02*
X135745238Y-53324809D01*
X135745238Y-53324809D02*
X136054762Y-53324809D01*
X136292857Y-53324809D02*
X136388095Y-53324809D01*
X136388095Y-53324809D02*
X136435714Y-53301000D01*
X136435714Y-53301000D02*
X136459523Y-53277190D01*
X136459523Y-53277190D02*
X136507142Y-53205761D01*
X136507142Y-53205761D02*
X136530952Y-53110523D01*
X136530952Y-53110523D02*
X136530952Y-52920047D01*
X136530952Y-52920047D02*
X136507142Y-52872428D01*
X136507142Y-52872428D02*
X136483333Y-52848619D01*
X136483333Y-52848619D02*
X136435714Y-52824809D01*
X136435714Y-52824809D02*
X136340476Y-52824809D01*
X136340476Y-52824809D02*
X136292857Y-52848619D01*
X136292857Y-52848619D02*
X136269047Y-52872428D01*
X136269047Y-52872428D02*
X136245238Y-52920047D01*
X136245238Y-52920047D02*
X136245238Y-53039095D01*
X136245238Y-53039095D02*
X136269047Y-53086714D01*
X136269047Y-53086714D02*
X136292857Y-53110523D01*
X136292857Y-53110523D02*
X136340476Y-53134333D01*
X136340476Y-53134333D02*
X136435714Y-53134333D01*
X136435714Y-53134333D02*
X136483333Y-53110523D01*
X136483333Y-53110523D02*
X136507142Y-53086714D01*
X136507142Y-53086714D02*
X136530952Y-53039095D01*
X73877190Y-75221428D02*
X73901000Y-75245237D01*
X73901000Y-75245237D02*
X73924809Y-75316666D01*
X73924809Y-75316666D02*
X73924809Y-75364285D01*
X73924809Y-75364285D02*
X73901000Y-75435713D01*
X73901000Y-75435713D02*
X73853380Y-75483332D01*
X73853380Y-75483332D02*
X73805761Y-75507142D01*
X73805761Y-75507142D02*
X73710523Y-75530951D01*
X73710523Y-75530951D02*
X73639095Y-75530951D01*
X73639095Y-75530951D02*
X73543857Y-75507142D01*
X73543857Y-75507142D02*
X73496238Y-75483332D01*
X73496238Y-75483332D02*
X73448619Y-75435713D01*
X73448619Y-75435713D02*
X73424809Y-75364285D01*
X73424809Y-75364285D02*
X73424809Y-75316666D01*
X73424809Y-75316666D02*
X73448619Y-75245237D01*
X73448619Y-75245237D02*
X73472428Y-75221428D01*
X73924809Y-74745237D02*
X73924809Y-75030951D01*
X73924809Y-74888094D02*
X73424809Y-74888094D01*
X73424809Y-74888094D02*
X73496238Y-74935713D01*
X73496238Y-74935713D02*
X73543857Y-74983332D01*
X73543857Y-74983332D02*
X73567666Y-75030951D01*
X73424809Y-74435714D02*
X73424809Y-74388095D01*
X73424809Y-74388095D02*
X73448619Y-74340476D01*
X73448619Y-74340476D02*
X73472428Y-74316666D01*
X73472428Y-74316666D02*
X73520047Y-74292857D01*
X73520047Y-74292857D02*
X73615285Y-74269047D01*
X73615285Y-74269047D02*
X73734333Y-74269047D01*
X73734333Y-74269047D02*
X73829571Y-74292857D01*
X73829571Y-74292857D02*
X73877190Y-74316666D01*
X73877190Y-74316666D02*
X73901000Y-74340476D01*
X73901000Y-74340476D02*
X73924809Y-74388095D01*
X73924809Y-74388095D02*
X73924809Y-74435714D01*
X73924809Y-74435714D02*
X73901000Y-74483333D01*
X73901000Y-74483333D02*
X73877190Y-74507142D01*
X73877190Y-74507142D02*
X73829571Y-74530952D01*
X73829571Y-74530952D02*
X73734333Y-74554761D01*
X73734333Y-74554761D02*
X73615285Y-74554761D01*
X73615285Y-74554761D02*
X73520047Y-74530952D01*
X73520047Y-74530952D02*
X73472428Y-74507142D01*
X73472428Y-74507142D02*
X73448619Y-74483333D01*
X73448619Y-74483333D02*
X73424809Y-74435714D01*
X122858334Y-130226000D02*
X122929762Y-130249809D01*
X122929762Y-130249809D02*
X123048810Y-130249809D01*
X123048810Y-130249809D02*
X123096429Y-130226000D01*
X123096429Y-130226000D02*
X123120238Y-130202190D01*
X123120238Y-130202190D02*
X123144048Y-130154571D01*
X123144048Y-130154571D02*
X123144048Y-130106952D01*
X123144048Y-130106952D02*
X123120238Y-130059333D01*
X123120238Y-130059333D02*
X123096429Y-130035523D01*
X123096429Y-130035523D02*
X123048810Y-130011714D01*
X123048810Y-130011714D02*
X122953572Y-129987904D01*
X122953572Y-129987904D02*
X122905953Y-129964095D01*
X122905953Y-129964095D02*
X122882143Y-129940285D01*
X122882143Y-129940285D02*
X122858334Y-129892666D01*
X122858334Y-129892666D02*
X122858334Y-129845047D01*
X122858334Y-129845047D02*
X122882143Y-129797428D01*
X122882143Y-129797428D02*
X122905953Y-129773619D01*
X122905953Y-129773619D02*
X122953572Y-129749809D01*
X122953572Y-129749809D02*
X123072619Y-129749809D01*
X123072619Y-129749809D02*
X123144048Y-129773619D01*
X123310714Y-129749809D02*
X123429762Y-130249809D01*
X123429762Y-130249809D02*
X123525000Y-129892666D01*
X123525000Y-129892666D02*
X123620238Y-130249809D01*
X123620238Y-130249809D02*
X123739286Y-129749809D01*
X123905953Y-129797428D02*
X123929762Y-129773619D01*
X123929762Y-129773619D02*
X123977381Y-129749809D01*
X123977381Y-129749809D02*
X124096429Y-129749809D01*
X124096429Y-129749809D02*
X124144048Y-129773619D01*
X124144048Y-129773619D02*
X124167857Y-129797428D01*
X124167857Y-129797428D02*
X124191667Y-129845047D01*
X124191667Y-129845047D02*
X124191667Y-129892666D01*
X124191667Y-129892666D02*
X124167857Y-129964095D01*
X124167857Y-129964095D02*
X123882143Y-130249809D01*
X123882143Y-130249809D02*
X124191667Y-130249809D01*
X76324809Y-68083333D02*
X76086714Y-68249999D01*
X76324809Y-68369047D02*
X75824809Y-68369047D01*
X75824809Y-68369047D02*
X75824809Y-68178571D01*
X75824809Y-68178571D02*
X75848619Y-68130952D01*
X75848619Y-68130952D02*
X75872428Y-68107142D01*
X75872428Y-68107142D02*
X75920047Y-68083333D01*
X75920047Y-68083333D02*
X75991476Y-68083333D01*
X75991476Y-68083333D02*
X76039095Y-68107142D01*
X76039095Y-68107142D02*
X76062904Y-68130952D01*
X76062904Y-68130952D02*
X76086714Y-68178571D01*
X76086714Y-68178571D02*
X76086714Y-68369047D01*
X76039095Y-67797618D02*
X76015285Y-67845237D01*
X76015285Y-67845237D02*
X75991476Y-67869047D01*
X75991476Y-67869047D02*
X75943857Y-67892856D01*
X75943857Y-67892856D02*
X75920047Y-67892856D01*
X75920047Y-67892856D02*
X75872428Y-67869047D01*
X75872428Y-67869047D02*
X75848619Y-67845237D01*
X75848619Y-67845237D02*
X75824809Y-67797618D01*
X75824809Y-67797618D02*
X75824809Y-67702380D01*
X75824809Y-67702380D02*
X75848619Y-67654761D01*
X75848619Y-67654761D02*
X75872428Y-67630952D01*
X75872428Y-67630952D02*
X75920047Y-67607142D01*
X75920047Y-67607142D02*
X75943857Y-67607142D01*
X75943857Y-67607142D02*
X75991476Y-67630952D01*
X75991476Y-67630952D02*
X76015285Y-67654761D01*
X76015285Y-67654761D02*
X76039095Y-67702380D01*
X76039095Y-67702380D02*
X76039095Y-67797618D01*
X76039095Y-67797618D02*
X76062904Y-67845237D01*
X76062904Y-67845237D02*
X76086714Y-67869047D01*
X76086714Y-67869047D02*
X76134333Y-67892856D01*
X76134333Y-67892856D02*
X76229571Y-67892856D01*
X76229571Y-67892856D02*
X76277190Y-67869047D01*
X76277190Y-67869047D02*
X76301000Y-67845237D01*
X76301000Y-67845237D02*
X76324809Y-67797618D01*
X76324809Y-67797618D02*
X76324809Y-67702380D01*
X76324809Y-67702380D02*
X76301000Y-67654761D01*
X76301000Y-67654761D02*
X76277190Y-67630952D01*
X76277190Y-67630952D02*
X76229571Y-67607142D01*
X76229571Y-67607142D02*
X76134333Y-67607142D01*
X76134333Y-67607142D02*
X76086714Y-67630952D01*
X76086714Y-67630952D02*
X76062904Y-67654761D01*
X76062904Y-67654761D02*
X76039095Y-67702380D01*
X81124809Y-66301428D02*
X80886714Y-66468094D01*
X81124809Y-66587142D02*
X80624809Y-66587142D01*
X80624809Y-66587142D02*
X80624809Y-66396666D01*
X80624809Y-66396666D02*
X80648619Y-66349047D01*
X80648619Y-66349047D02*
X80672428Y-66325237D01*
X80672428Y-66325237D02*
X80720047Y-66301428D01*
X80720047Y-66301428D02*
X80791476Y-66301428D01*
X80791476Y-66301428D02*
X80839095Y-66325237D01*
X80839095Y-66325237D02*
X80862904Y-66349047D01*
X80862904Y-66349047D02*
X80886714Y-66396666D01*
X80886714Y-66396666D02*
X80886714Y-66587142D01*
X80672428Y-66110951D02*
X80648619Y-66087142D01*
X80648619Y-66087142D02*
X80624809Y-66039523D01*
X80624809Y-66039523D02*
X80624809Y-65920475D01*
X80624809Y-65920475D02*
X80648619Y-65872856D01*
X80648619Y-65872856D02*
X80672428Y-65849047D01*
X80672428Y-65849047D02*
X80720047Y-65825237D01*
X80720047Y-65825237D02*
X80767666Y-65825237D01*
X80767666Y-65825237D02*
X80839095Y-65849047D01*
X80839095Y-65849047D02*
X81124809Y-66134761D01*
X81124809Y-66134761D02*
X81124809Y-65825237D01*
X80624809Y-65515714D02*
X80624809Y-65468095D01*
X80624809Y-65468095D02*
X80648619Y-65420476D01*
X80648619Y-65420476D02*
X80672428Y-65396666D01*
X80672428Y-65396666D02*
X80720047Y-65372857D01*
X80720047Y-65372857D02*
X80815285Y-65349047D01*
X80815285Y-65349047D02*
X80934333Y-65349047D01*
X80934333Y-65349047D02*
X81029571Y-65372857D01*
X81029571Y-65372857D02*
X81077190Y-65396666D01*
X81077190Y-65396666D02*
X81101000Y-65420476D01*
X81101000Y-65420476D02*
X81124809Y-65468095D01*
X81124809Y-65468095D02*
X81124809Y-65515714D01*
X81124809Y-65515714D02*
X81101000Y-65563333D01*
X81101000Y-65563333D02*
X81077190Y-65587142D01*
X81077190Y-65587142D02*
X81029571Y-65610952D01*
X81029571Y-65610952D02*
X80934333Y-65634761D01*
X80934333Y-65634761D02*
X80815285Y-65634761D01*
X80815285Y-65634761D02*
X80720047Y-65610952D01*
X80720047Y-65610952D02*
X80672428Y-65587142D01*
X80672428Y-65587142D02*
X80648619Y-65563333D01*
X80648619Y-65563333D02*
X80624809Y-65515714D01*
D13*
%TO.C,R27*%
X70550000Y-62200000D02*
X70550000Y-61600000D01*
X71250000Y-60900000D02*
X72650000Y-60900000D01*
X72650000Y-62900000D02*
X71250000Y-62900000D01*
X73350000Y-61600000D02*
X73350000Y-62200000D01*
X70550000Y-61600000D02*
G75*
G02*
X71250000Y-60900000I699999J1D01*
G01*
X71250000Y-62900000D02*
G75*
G02*
X70550000Y-62200000I-1J699999D01*
G01*
X72650000Y-60900000D02*
G75*
G02*
X73350000Y-61600000I0J-700000D01*
G01*
X73350000Y-62200000D02*
G75*
G02*
X72650000Y-62900000I-700000J0D01*
G01*
%TO.C,J5*%
X149460000Y-119800000D02*
X149460000Y-110850000D01*
X152540000Y-110730000D02*
X153440000Y-110730000D01*
X152540000Y-119920000D02*
X153440000Y-119920000D01*
X156140000Y-110730000D02*
X158870000Y-110730000D01*
X156140000Y-119920000D02*
X158870000Y-119920000D01*
X158870000Y-119920000D02*
X158870000Y-110730000D01*
%TO.C,R6*%
X77820000Y-71146359D02*
X77820000Y-71453641D01*
X78580000Y-71146359D02*
X78580000Y-71453641D01*
%TO.C,R4*%
X90762742Y-67877500D02*
X91237258Y-67877500D01*
X90762742Y-68922500D02*
X91237258Y-68922500D01*
%TO.C,D6*%
X146600000Y-116200000D02*
X146600000Y-118160000D01*
X146600000Y-118160000D02*
X147800000Y-118160000D01*
X147800000Y-116200000D02*
X147800000Y-118160000D01*
%TO.C,D3*%
X146600000Y-130800000D02*
X146600000Y-128840000D01*
X147800000Y-128840000D02*
X146600000Y-128840000D01*
X147800000Y-130800000D02*
X147800000Y-128840000D01*
%TO.C,R22*%
X84720000Y-68153641D02*
X84720000Y-67846359D01*
X85480000Y-68153641D02*
X85480000Y-67846359D01*
%TO.C,R1*%
X90537258Y-74377500D02*
X90062742Y-74377500D01*
X90537258Y-75422500D02*
X90062742Y-75422500D01*
D14*
%TO.C,U5*%
X130940000Y-61100000D02*
X130940000Y-79100000D01*
X155790000Y-79100000D02*
X162340000Y-79100000D01*
X162340000Y-61100000D02*
X155790000Y-61100000D01*
X162340000Y-79100000D02*
X162340000Y-61100000D01*
D15*
X155000000Y-59940000D02*
G75*
G02*
X154800000Y-59940000I-100000J0D01*
G01*
X154800000Y-59940000D02*
G75*
G02*
X155000000Y-59940000I100000J0D01*
G01*
D13*
%TO.C,R10*%
X75403641Y-76370000D02*
X75096359Y-76370000D01*
X75403641Y-77130000D02*
X75096359Y-77130000D01*
%TO.C,C1*%
X128290000Y-74359420D02*
X128290000Y-74640580D01*
X129310000Y-74359420D02*
X129310000Y-74640580D01*
%TO.C,R3*%
X90262742Y-70277500D02*
X90737258Y-70277500D01*
X90262742Y-71322500D02*
X90737258Y-71322500D01*
%TO.C,R31*%
X88700000Y-56800000D02*
X88700000Y-55400000D01*
X89400000Y-54700000D02*
X90000000Y-54700000D01*
X90000000Y-57500000D02*
X89400000Y-57500000D01*
X90700000Y-55400000D02*
X90700000Y-56800000D01*
X88700000Y-55400000D02*
G75*
G02*
X89400000Y-54700000I699999J1D01*
G01*
X89400000Y-57500000D02*
G75*
G02*
X88700000Y-56800000I0J700000D01*
G01*
X90000000Y-54700000D02*
G75*
G02*
X90700000Y-55400000I1J-699999D01*
G01*
X90700000Y-56800000D02*
G75*
G02*
X90000000Y-57500000I-700000J0D01*
G01*
%TO.C,C7*%
X89459420Y-72190000D02*
X89740580Y-72190000D01*
X89459420Y-73210000D02*
X89740580Y-73210000D01*
%TO.C,TP2*%
X93200000Y-70400000D02*
X95600000Y-70400000D01*
X93200000Y-72800000D02*
X93200000Y-70400000D01*
X95600000Y-70400000D02*
X95600000Y-72800000D01*
X95600000Y-72800000D02*
X93200000Y-72800000D01*
%TO.C,C8*%
X81240580Y-67490000D02*
X80959420Y-67490000D01*
X81240580Y-68510000D02*
X80959420Y-68510000D01*
%TO.C,U3*%
X86790000Y-129190000D02*
X88050000Y-129190000D01*
X86790000Y-132950000D02*
X86790000Y-129190000D01*
X93610000Y-129190000D02*
X92350000Y-129190000D01*
X93610000Y-132950000D02*
X93610000Y-129190000D01*
X86890000Y-134230000D02*
X86560000Y-134470000D01*
X86560000Y-133990000D01*
X86890000Y-134230000D01*
G36*
X86890000Y-134230000D02*
G01*
X86560000Y-134470000D01*
X86560000Y-133990000D01*
X86890000Y-134230000D01*
G37*
%TO.C,D2*%
X149350000Y-128510000D02*
X149350000Y-123000000D01*
X149350000Y-128510000D02*
X152650000Y-128510000D01*
X152650000Y-128510000D02*
X152650000Y-123000000D01*
%TO.C,C9*%
X75840580Y-72590000D02*
X75559420Y-72590000D01*
X75840580Y-73610000D02*
X75559420Y-73610000D01*
%TO.C,C12*%
X152940580Y-58390000D02*
X152659420Y-58390000D01*
X152940580Y-59410000D02*
X152659420Y-59410000D01*
%TO.C,R28*%
X70550000Y-65100000D02*
X70550000Y-64500000D01*
X71250000Y-63800000D02*
X72650000Y-63800000D01*
X72650000Y-65800000D02*
X71250000Y-65800000D01*
X73350000Y-64500000D02*
X73350000Y-65100000D01*
X70550000Y-64500000D02*
G75*
G02*
X71250000Y-63800000I699999J1D01*
G01*
X71250000Y-65800000D02*
G75*
G02*
X70550000Y-65100000I-1J699999D01*
G01*
X72650000Y-63800000D02*
G75*
G02*
X73350000Y-64500000I0J-700000D01*
G01*
X73350000Y-65100000D02*
G75*
G02*
X72650000Y-65800000I-700000J0D01*
G01*
%TO.C,D4*%
X146600000Y-114454000D02*
X146600000Y-112494000D01*
X147800000Y-112494000D02*
X146600000Y-112494000D01*
X147800000Y-114454000D02*
X147800000Y-112494000D01*
%TO.C,J1*%
X63750000Y-101525000D02*
X71020000Y-101525000D01*
X71020000Y-85305000D02*
X63750000Y-85305000D01*
X73880000Y-101525000D02*
X79870000Y-101525000D01*
X75350000Y-85305000D02*
X73880000Y-85305000D01*
X79870000Y-85305000D02*
X76150000Y-85305000D01*
X79870000Y-101525000D02*
X79870000Y-85305000D01*
X75750000Y-85300000D02*
X75450000Y-84900000D01*
X76050000Y-84900000D01*
X75750000Y-85300000D01*
G36*
X75750000Y-85300000D02*
G01*
X75450000Y-84900000D01*
X76050000Y-84900000D01*
X75750000Y-85300000D01*
G37*
%TO.C,R17*%
X124500000Y-115400000D02*
X124500000Y-114800000D01*
X125200000Y-114100000D02*
X126600000Y-114100000D01*
X126600000Y-116100000D02*
X125200000Y-116100000D01*
X127300000Y-114800000D02*
X127300000Y-115400000D01*
X124500000Y-114800000D02*
G75*
G02*
X125200000Y-114100000I700000J0D01*
G01*
X125200000Y-116100000D02*
G75*
G02*
X124500000Y-115400000I0J700000D01*
G01*
X126600000Y-114100000D02*
G75*
G02*
X127300000Y-114800000I1J-699999D01*
G01*
X127300000Y-115400000D02*
G75*
G02*
X126600000Y-116100000I-699999J-1D01*
G01*
%TO.C,R11*%
X78677500Y-76462742D02*
X78677500Y-76937258D01*
X79722500Y-76462742D02*
X79722500Y-76937258D01*
%TO.C,J7*%
X86220000Y-83420000D02*
X87600000Y-83420000D01*
X86220000Y-84800000D02*
X86220000Y-83420000D01*
X86220000Y-86070000D02*
X86220000Y-88720000D01*
X86220000Y-86070000D02*
X88980000Y-86070000D01*
X86220000Y-88720000D02*
X88980000Y-88720000D01*
X88980000Y-86070000D02*
X88980000Y-88720000D01*
%TO.C,C11*%
X75861252Y-70365000D02*
X75338748Y-70365000D01*
X75861252Y-71835000D02*
X75338748Y-71835000D01*
%TO.C,R12*%
X65800000Y-82200000D02*
X65800000Y-80800000D01*
X66500000Y-80100000D02*
X67100000Y-80100000D01*
X67100000Y-82900000D02*
X66500000Y-82900000D01*
X67800000Y-80800000D02*
X67800000Y-82200000D01*
X65800000Y-80800000D02*
G75*
G02*
X66500000Y-80100000I700000J0D01*
G01*
X66500000Y-82900000D02*
G75*
G02*
X65800000Y-82200000I-1J699999D01*
G01*
X67100000Y-80100000D02*
G75*
G02*
X67800000Y-80800000I0J-700000D01*
G01*
X67800000Y-82200000D02*
G75*
G02*
X67100000Y-82900000I-699999J-1D01*
G01*
%TO.C,R21*%
X83620000Y-76096359D02*
X83620000Y-76403641D01*
X84380000Y-76096359D02*
X84380000Y-76403641D01*
%TO.C,D1*%
X146600000Y-124800000D02*
X146600000Y-126760000D01*
X146600000Y-126760000D02*
X147800000Y-126760000D01*
X147800000Y-124800000D02*
X147800000Y-126760000D01*
%TO.C,C5*%
X86159420Y-75990000D02*
X86440580Y-75990000D01*
X86159420Y-77010000D02*
X86440580Y-77010000D01*
%TO.C,D7*%
X146600000Y-121800000D02*
X146600000Y-119840000D01*
X147800000Y-119840000D02*
X146600000Y-119840000D01*
X147800000Y-121800000D02*
X147800000Y-119840000D01*
%TO.C,D8*%
X95165000Y-129315000D02*
X95165000Y-131600000D01*
X96635000Y-129315000D02*
X95165000Y-129315000D01*
X96635000Y-131600000D02*
X96635000Y-129315000D01*
%TO.C,C15*%
X137790000Y-113440580D02*
X137790000Y-113159420D01*
X138810000Y-113440580D02*
X138810000Y-113159420D01*
%TO.C,R15*%
X135477500Y-126637258D02*
X135477500Y-126162742D01*
X136522500Y-126637258D02*
X136522500Y-126162742D01*
%TO.C,R23*%
X84720000Y-65746359D02*
X84720000Y-66053641D01*
X85480000Y-65746359D02*
X85480000Y-66053641D01*
%TO.C,L1*%
X74490000Y-67662779D02*
X74490000Y-67337221D01*
X75510000Y-67662779D02*
X75510000Y-67337221D01*
%TO.C,R19*%
X90846359Y-65820000D02*
X91153641Y-65820000D01*
X90846359Y-66580000D02*
X91153641Y-66580000D01*
%TO.C,R33*%
X134565000Y-107772936D02*
X134565000Y-108227064D01*
X136035000Y-107772936D02*
X136035000Y-108227064D01*
%TO.C,R32*%
X82400000Y-56800000D02*
X82400000Y-55400000D01*
X83100000Y-54700000D02*
X83700000Y-54700000D01*
X83700000Y-57500000D02*
X83100000Y-57500000D01*
X84400000Y-55400000D02*
X84400000Y-56800000D01*
X82400000Y-55400000D02*
G75*
G02*
X83100000Y-54700000I699999J1D01*
G01*
X83100000Y-57500000D02*
G75*
G02*
X82400000Y-56800000I0J700000D01*
G01*
X83700000Y-54700000D02*
G75*
G02*
X84400000Y-55400000I1J-699999D01*
G01*
X84400000Y-56800000D02*
G75*
G02*
X83700000Y-57500000I-700000J0D01*
G01*
%TO.C,R13*%
X129077500Y-108137258D02*
X129077500Y-107662742D01*
X130122500Y-108137258D02*
X130122500Y-107662742D01*
%TO.C,C6*%
X86292164Y-74740000D02*
X86507836Y-74740000D01*
X86292164Y-75460000D02*
X86507836Y-75460000D01*
%TO.C,R35*%
X131465000Y-107772936D02*
X131465000Y-108227064D01*
X132935000Y-107772936D02*
X132935000Y-108227064D01*
%TO.C,J4*%
X75020000Y-58820000D02*
X75020000Y-64120000D01*
X90370000Y-58820000D02*
X75020000Y-58820000D01*
X90370000Y-58820000D02*
X90370000Y-61470000D01*
X90370000Y-61470000D02*
X93020000Y-61470000D01*
X91640000Y-58820000D02*
X93020000Y-58820000D01*
X93020000Y-58820000D02*
X93020000Y-60200000D01*
X93020000Y-61470000D02*
X93020000Y-64120000D01*
X93020000Y-64120000D02*
X75020000Y-64120000D01*
%TO.C,J9*%
X63045000Y-108980000D02*
X63045000Y-107600000D01*
X64425000Y-108980000D02*
X63045000Y-108980000D01*
X65695000Y-106220000D02*
X68345000Y-106220000D01*
X65695000Y-108980000D02*
X65695000Y-106220000D01*
X65695000Y-108980000D02*
X68345000Y-108980000D01*
X68345000Y-108980000D02*
X68345000Y-106220000D01*
%TO.C,R5*%
X80977500Y-76462742D02*
X80977500Y-76937258D01*
X82022500Y-76462742D02*
X82022500Y-76937258D01*
%TO.C,Q1*%
X129462500Y-124690000D02*
X128812500Y-124690000D01*
X129462500Y-124690000D02*
X130112500Y-124690000D01*
X129462500Y-127810000D02*
X128812500Y-127810000D01*
X129462500Y-127810000D02*
X130112500Y-127810000D01*
X130865000Y-128090000D02*
X130385000Y-128090000D01*
X130625000Y-127760000D01*
X130865000Y-128090000D01*
G36*
X130865000Y-128090000D02*
G01*
X130385000Y-128090000D01*
X130625000Y-127760000D01*
X130865000Y-128090000D01*
G37*
%TO.C,R25*%
X137700000Y-57500000D02*
X137700000Y-56100000D01*
X138400000Y-55400000D02*
X139000000Y-55400000D01*
X139000000Y-58200000D02*
X138400000Y-58200000D01*
X139700000Y-56100000D02*
X139700000Y-57500000D01*
X137700000Y-56100000D02*
G75*
G02*
X138400000Y-55400000I700000J0D01*
G01*
X138400000Y-58200000D02*
G75*
G02*
X137700000Y-57500000I-1J699999D01*
G01*
X139000000Y-55400000D02*
G75*
G02*
X139700000Y-56100000I0J-700000D01*
G01*
X139700000Y-57500000D02*
G75*
G02*
X139000000Y-58200000I-699999J-1D01*
G01*
%TO.C,SW1*%
X124000000Y-70900000D02*
X124000000Y-75300000D01*
X124000000Y-75300000D02*
X124120000Y-75300000D01*
X124120000Y-70900000D02*
X124000000Y-70900000D01*
X125130000Y-75300000D02*
X126270000Y-75300000D01*
X126270000Y-70900000D02*
X125130000Y-70900000D01*
X127280000Y-75300000D02*
X127400000Y-75300000D01*
X127400000Y-70900000D02*
X127280000Y-70900000D01*
X127400000Y-75300000D02*
X127400000Y-70900000D01*
%TO.C,C2*%
X119015000Y-127665580D02*
X119015000Y-127384420D01*
X120035000Y-127665580D02*
X120035000Y-127384420D01*
%TO.C,U1*%
X82240000Y-69727500D02*
X82715000Y-69727500D01*
X82240000Y-70202500D02*
X82240000Y-69727500D01*
X82240000Y-73472500D02*
X82240000Y-73647500D01*
X82715000Y-73947500D02*
X82480000Y-73947500D01*
X86460000Y-69727500D02*
X85985000Y-69727500D01*
X86460000Y-70202500D02*
X86460000Y-69727500D01*
X86460000Y-73472500D02*
X86460000Y-73947500D01*
X86460000Y-73947500D02*
X85985000Y-73947500D01*
X82240000Y-73947500D02*
X81910000Y-74187500D01*
X81910000Y-73707500D01*
X82240000Y-73947500D01*
G36*
X82240000Y-73947500D02*
G01*
X81910000Y-74187500D01*
X81910000Y-73707500D01*
X82240000Y-73947500D01*
G37*
%TO.C,R18*%
X95520000Y-134163641D02*
X95520000Y-133856359D01*
X96280000Y-134163641D02*
X96280000Y-133856359D01*
%TO.C,R26*%
X138200000Y-91000000D02*
X138200000Y-90400000D01*
X138900000Y-89700000D02*
X140300000Y-89700000D01*
X140300000Y-91700000D02*
X138900000Y-91700000D01*
X141000000Y-90400000D02*
X141000000Y-91000000D01*
X138200000Y-90400000D02*
G75*
G02*
X138900000Y-89700000I699999J1D01*
G01*
X138900000Y-91700000D02*
G75*
G02*
X138200000Y-91000000I-1J699999D01*
G01*
X140300000Y-89700000D02*
G75*
G02*
X141000000Y-90400000I0J-700000D01*
G01*
X141000000Y-91000000D02*
G75*
G02*
X140300000Y-91700000I-700000J0D01*
G01*
%TO.C,J3*%
X105480000Y-85120000D02*
X105480000Y-87880000D01*
X151310000Y-85120000D02*
X105480000Y-85120000D01*
X151310000Y-85120000D02*
X151310000Y-87880000D01*
X151310000Y-87880000D02*
X105480000Y-87880000D01*
X152580000Y-85120000D02*
X153960000Y-85120000D01*
X153960000Y-85120000D02*
X153960000Y-86500000D01*
%TO.C,Q2*%
X134140000Y-120700000D02*
X134140000Y-120050000D01*
X134140000Y-120700000D02*
X134140000Y-121350000D01*
X137260000Y-120700000D02*
X137260000Y-120050000D01*
X137260000Y-120700000D02*
X137260000Y-121350000D01*
X134190000Y-121862500D02*
X133860000Y-122102500D01*
X133860000Y-121622500D01*
X134190000Y-121862500D01*
G36*
X134190000Y-121862500D02*
G01*
X133860000Y-122102500D01*
X133860000Y-121622500D01*
X134190000Y-121862500D01*
G37*
%TO.C,J2*%
X102640000Y-45920000D02*
X102640000Y-48680000D01*
X148470000Y-45920000D02*
X102640000Y-45920000D01*
X148470000Y-45920000D02*
X148470000Y-48680000D01*
X148470000Y-48680000D02*
X102640000Y-48680000D01*
X149740000Y-45920000D02*
X151120000Y-45920000D01*
X151120000Y-45920000D02*
X151120000Y-47300000D01*
%TO.C,C4*%
X90859420Y-124890000D02*
X91140580Y-124890000D01*
X90859420Y-125910000D02*
X91140580Y-125910000D01*
%TO.C,TP1*%
X85100000Y-78700000D02*
X87500000Y-78700000D01*
X85100000Y-81100000D02*
X85100000Y-78700000D01*
X87500000Y-78700000D02*
X87500000Y-81100000D01*
X87500000Y-81100000D02*
X85100000Y-81100000D01*
%TO.C,R30*%
X85550000Y-56800000D02*
X85550000Y-55400000D01*
X86250000Y-54700000D02*
X86850000Y-54700000D01*
X86850000Y-57500000D02*
X86250000Y-57500000D01*
X87550000Y-55400000D02*
X87550000Y-56800000D01*
X85550000Y-55400000D02*
G75*
G02*
X86250000Y-54700000I699999J1D01*
G01*
X86250000Y-57500000D02*
G75*
G02*
X85550000Y-56800000I0J700000D01*
G01*
X86850000Y-54700000D02*
G75*
G02*
X87550000Y-55400000I1J-699999D01*
G01*
X87550000Y-56800000D02*
G75*
G02*
X86850000Y-57500000I-700000J0D01*
G01*
%TO.C,R24*%
X141100000Y-57900000D02*
X141100000Y-56500000D01*
X141800000Y-55800000D02*
X142400000Y-55800000D01*
X142400000Y-58600000D02*
X141800000Y-58600000D01*
X143100000Y-56500000D02*
X143100000Y-57900000D01*
X141100000Y-56500000D02*
G75*
G02*
X141800000Y-55800000I700000J0D01*
G01*
X141800000Y-58600000D02*
G75*
G02*
X141100000Y-57900000I-1J699999D01*
G01*
X142400000Y-55800000D02*
G75*
G02*
X143100000Y-56500000I0J-700000D01*
G01*
X143100000Y-57900000D02*
G75*
G02*
X142400000Y-58600000I-699999J-1D01*
G01*
%TO.C,R9*%
X77356359Y-68870000D02*
X77663641Y-68870000D01*
X77356359Y-69630000D02*
X77663641Y-69630000D01*
%TO.C,R7*%
X77820000Y-73463641D02*
X77820000Y-73156359D01*
X78580000Y-73463641D02*
X78580000Y-73156359D01*
%TO.C,Y1*%
X86050000Y-67800000D02*
X87500000Y-67800000D01*
X87500000Y-67800000D02*
X87500000Y-65950000D01*
%TO.C,R34*%
X137977500Y-107762742D02*
X137977500Y-108237258D01*
X139022500Y-107762742D02*
X139022500Y-108237258D01*
%TO.C,R16*%
X124550000Y-119600000D02*
X124550000Y-119000000D01*
X125250000Y-118300000D02*
X126650000Y-118300000D01*
X126650000Y-120300000D02*
X125250000Y-120300000D01*
X127350000Y-119000000D02*
X127350000Y-119600000D01*
X124550000Y-119000000D02*
G75*
G02*
X125250000Y-118300000I700000J0D01*
G01*
X125250000Y-120300000D02*
G75*
G02*
X124550000Y-119600000I0J700000D01*
G01*
X126650000Y-118300000D02*
G75*
G02*
X127350000Y-119000000I1J-699999D01*
G01*
X127350000Y-119600000D02*
G75*
G02*
X126650000Y-120300000I-699999J-1D01*
G01*
%TO.C,D5*%
X146600000Y-108700000D02*
X146600000Y-110660000D01*
X146600000Y-110660000D02*
X147800000Y-110660000D01*
X147800000Y-108700000D02*
X147800000Y-110660000D01*
%TO.C,J6*%
X81920000Y-130905000D02*
X81920000Y-128255000D01*
X84680000Y-128255000D02*
X81920000Y-128255000D01*
X84680000Y-130905000D02*
X81920000Y-130905000D01*
X84680000Y-130905000D02*
X84680000Y-128255000D01*
X84680000Y-132175000D02*
X84680000Y-133555000D01*
X84680000Y-133555000D02*
X83300000Y-133555000D01*
%TO.C,U4*%
X130040000Y-112790000D02*
X130040000Y-113515000D01*
X130040000Y-118010000D02*
X130040000Y-117285000D01*
X130765000Y-112790000D02*
X130040000Y-112790000D01*
X130765000Y-118010000D02*
X130040000Y-118010000D01*
X134535000Y-112790000D02*
X135260000Y-112790000D01*
X134535000Y-118010000D02*
X134960000Y-118010000D01*
X135260000Y-112790000D02*
X135260000Y-113515000D01*
X135260000Y-117285000D02*
X135260000Y-117770000D01*
X135500000Y-118340000D02*
X135020000Y-118340000D01*
X135260000Y-118010000D01*
X135500000Y-118340000D01*
G36*
X135500000Y-118340000D02*
G01*
X135020000Y-118340000D01*
X135260000Y-118010000D01*
X135500000Y-118340000D01*
G37*
%TO.C,R14*%
X134837258Y-129077500D02*
X134362742Y-129077500D01*
X134837258Y-130122500D02*
X134362742Y-130122500D01*
%TO.C,C13*%
X152940580Y-56690000D02*
X152659420Y-56690000D01*
X152940580Y-57710000D02*
X152659420Y-57710000D01*
%TO.C,C3*%
X90340580Y-136090000D02*
X90059420Y-136090000D01*
X90340580Y-137110000D02*
X90059420Y-137110000D01*
%TO.C,R2*%
X92562742Y-76477500D02*
X93037258Y-76477500D01*
X92562742Y-77522500D02*
X93037258Y-77522500D01*
%TO.C,R29*%
X134300000Y-56000000D02*
X134300000Y-54600000D01*
X135000000Y-53900000D02*
X135600000Y-53900000D01*
X135600000Y-56700000D02*
X135000000Y-56700000D01*
X136300000Y-54600000D02*
X136300000Y-56000000D01*
X134300000Y-54600000D02*
G75*
G02*
X135000000Y-53900000I700000J0D01*
G01*
X135000000Y-56700000D02*
G75*
G02*
X134300000Y-56000000I-1J699999D01*
G01*
X135600000Y-53900000D02*
G75*
G02*
X136300000Y-54600000I0J-700000D01*
G01*
X136300000Y-56000000D02*
G75*
G02*
X135600000Y-56700000I-699999J-1D01*
G01*
%TO.C,C10*%
X75840580Y-74390000D02*
X75559420Y-74390000D01*
X75840580Y-75410000D02*
X75559420Y-75410000D01*
%TO.C,SW2*%
X121325000Y-125925000D02*
X121325000Y-126045000D01*
X121325000Y-127055000D02*
X121325000Y-128195000D01*
X121325000Y-129205000D02*
X121325000Y-129325000D01*
X121325000Y-129325000D02*
X125725000Y-129325000D01*
X125725000Y-125925000D02*
X121325000Y-125925000D01*
X125725000Y-126045000D02*
X125725000Y-125925000D01*
X125725000Y-128195000D02*
X125725000Y-127055000D01*
X125725000Y-129325000D02*
X125725000Y-129205000D01*
%TO.C,R8*%
X77346359Y-67620000D02*
X77653641Y-67620000D01*
X77346359Y-68380000D02*
X77653641Y-68380000D01*
%TO.C,R20*%
X81520000Y-66243641D02*
X81520000Y-65936359D01*
X82280000Y-66243641D02*
X82280000Y-65936359D01*
%TD*%
M02*
