%TF.GenerationSoftware,KiCad,Pcbnew,9.0.4*%
%TF.CreationDate,2025-10-24T14:24:17-07:00*%
%TF.ProjectId,EthernetBoardv1.1,45746865-726e-4657-9442-6f6172647631,rev?*%
%TF.SameCoordinates,Original*%
%TF.FileFunction,Paste,Top*%
%TF.FilePolarity,Positive*%
%FSLAX46Y46*%
G04 Gerber Fmt 4.6, Leading zero omitted, Abs format (unit mm)*
G04 Created by KiCad (PCBNEW 9.0.4) date 2025-10-24 14:24:17*
%MOMM*%
%LPD*%
G01*
G04 APERTURE LIST*
G04 Aperture macros list*
%AMRoundRect*
0 Rectangle with rounded corners*
0 $1 Rounding radius*
0 $2 $3 $4 $5 $6 $7 $8 $9 X,Y pos of 4 corners*
0 Add a 4 corners polygon primitive as box body*
4,1,4,$2,$3,$4,$5,$6,$7,$8,$9,$2,$3,0*
0 Add four circle primitives for the rounded corners*
1,1,$1+$1,$2,$3*
1,1,$1+$1,$4,$5*
1,1,$1+$1,$6,$7*
1,1,$1+$1,$8,$9*
0 Add four rect primitives between the rounded corners*
20,1,$1+$1,$2,$3,$4,$5,0*
20,1,$1+$1,$4,$5,$6,$7,0*
20,1,$1+$1,$6,$7,$8,$9,0*
20,1,$1+$1,$8,$9,$2,$3,0*%
G04 Aperture macros list end*
%ADD10RoundRect,0.135000X-0.185000X0.135000X-0.185000X-0.135000X0.185000X-0.135000X0.185000X0.135000X0*%
%ADD11RoundRect,0.200000X-0.200000X-0.275000X0.200000X-0.275000X0.200000X0.275000X-0.200000X0.275000X0*%
%ADD12RoundRect,0.150000X-0.200000X0.150000X-0.200000X-0.150000X0.200000X-0.150000X0.200000X0.150000X0*%
%ADD13RoundRect,0.150000X0.200000X-0.150000X0.200000X0.150000X-0.200000X0.150000X-0.200000X-0.150000X0*%
%ADD14RoundRect,0.135000X0.185000X-0.135000X0.185000X0.135000X-0.185000X0.135000X-0.185000X-0.135000X0*%
%ADD15RoundRect,0.200000X0.200000X0.275000X-0.200000X0.275000X-0.200000X-0.275000X0.200000X-0.275000X0*%
%ADD16R,0.900000X1.500000*%
%ADD17R,0.900000X0.900000*%
%ADD18RoundRect,0.135000X0.135000X0.185000X-0.135000X0.185000X-0.135000X-0.185000X0.135000X-0.185000X0*%
%ADD19RoundRect,0.225000X-0.250000X0.225000X-0.250000X-0.225000X0.250000X-0.225000X0.250000X0.225000X0*%
%ADD20RoundRect,0.079500X0.100500X-0.079500X0.100500X0.079500X-0.100500X0.079500X-0.100500X-0.079500X0*%
%ADD21RoundRect,0.225000X-0.225000X-0.250000X0.225000X-0.250000X0.225000X0.250000X-0.225000X0.250000X0*%
%ADD22RoundRect,0.225000X0.225000X0.250000X-0.225000X0.250000X-0.225000X-0.250000X0.225000X-0.250000X0*%
%ADD23RoundRect,0.375000X0.375000X-0.625000X0.375000X0.625000X-0.375000X0.625000X-0.375000X-0.625000X0*%
%ADD24RoundRect,0.500000X1.400000X-0.500000X1.400000X0.500000X-1.400000X0.500000X-1.400000X-0.500000X0*%
%ADD25RoundRect,0.250000X0.650000X-1.000000X0.650000X1.000000X-0.650000X1.000000X-0.650000X-1.000000X0*%
%ADD26RoundRect,0.200000X-0.275000X0.200000X-0.275000X-0.200000X0.275000X-0.200000X0.275000X0.200000X0*%
%ADD27RoundRect,0.250000X0.250000X0.475000X-0.250000X0.475000X-0.250000X-0.475000X0.250000X-0.475000X0*%
%ADD28RoundRect,0.218750X-0.256250X0.218750X-0.256250X-0.218750X0.256250X-0.218750X0.256250X0.218750X0*%
%ADD29RoundRect,0.225000X0.250000X-0.225000X0.250000X0.225000X-0.250000X0.225000X-0.250000X-0.225000X0*%
%ADD30RoundRect,0.200000X0.275000X-0.200000X0.275000X0.200000X-0.275000X0.200000X-0.275000X-0.200000X0*%
%ADD31RoundRect,0.218750X0.256250X-0.218750X0.256250X0.218750X-0.256250X0.218750X-0.256250X-0.218750X0*%
%ADD32RoundRect,0.135000X-0.135000X-0.185000X0.135000X-0.185000X0.135000X0.185000X-0.135000X0.185000X0*%
%ADD33RoundRect,0.250000X-0.450000X0.262500X-0.450000X-0.262500X0.450000X-0.262500X0.450000X0.262500X0*%
%ADD34RoundRect,0.140000X-0.140000X-0.170000X0.140000X-0.170000X0.140000X0.170000X-0.140000X0.170000X0*%
%ADD35RoundRect,0.150000X0.587500X0.150000X-0.587500X0.150000X-0.587500X-0.150000X0.587500X-0.150000X0*%
%ADD36R,0.650000X1.050000*%
%ADD37RoundRect,0.232500X0.232500X-0.232500X0.232500X0.232500X-0.232500X0.232500X-0.232500X-0.232500X0*%
%ADD38RoundRect,0.062500X0.062500X-0.375000X0.062500X0.375000X-0.062500X0.375000X-0.062500X-0.375000X0*%
%ADD39RoundRect,0.062500X0.375000X-0.062500X0.375000X0.062500X-0.375000X0.062500X-0.375000X-0.062500X0*%
%ADD40RoundRect,0.150000X0.150000X-0.587500X0.150000X0.587500X-0.150000X0.587500X-0.150000X-0.587500X0*%
%ADD41R,0.500000X0.600000*%
%ADD42RoundRect,0.225000X0.225000X0.225000X-0.225000X0.225000X-0.225000X-0.225000X0.225000X-0.225000X0*%
%ADD43RoundRect,0.062500X0.337500X0.062500X-0.337500X0.062500X-0.337500X-0.062500X0.337500X-0.062500X0*%
%ADD44RoundRect,0.062500X0.062500X0.337500X-0.062500X0.337500X-0.062500X-0.337500X0.062500X-0.337500X0*%
%ADD45R,1.050000X0.650000*%
G04 APERTURE END LIST*
D10*
%TO.C,R6*%
X78200000Y-70790000D03*
X78200000Y-71810000D03*
%TD*%
D11*
%TO.C,R4*%
X90175000Y-68400000D03*
X91825000Y-68400000D03*
%TD*%
D12*
%TO.C,D6*%
X147200000Y-117600000D03*
X147200000Y-116200000D03*
%TD*%
D13*
%TO.C,D3*%
X147200000Y-129400000D03*
X147200000Y-130800000D03*
%TD*%
D14*
%TO.C,R22*%
X85100000Y-68510000D03*
X85100000Y-67490000D03*
%TD*%
D15*
%TO.C,R1*%
X91125000Y-74900000D03*
X89475000Y-74900000D03*
%TD*%
D16*
%TO.C,U5*%
X154900000Y-61350000D03*
X153630000Y-61350000D03*
X152360000Y-61350000D03*
X151090000Y-61350000D03*
X149820000Y-61350000D03*
X148550000Y-61350000D03*
X147280000Y-61350000D03*
X146010000Y-61350000D03*
X144740000Y-61350000D03*
X143470000Y-61350000D03*
X142200000Y-61350000D03*
X140930000Y-61350000D03*
X139660000Y-61350000D03*
X138390000Y-61350000D03*
X137120000Y-61350000D03*
X135850000Y-61350000D03*
X134580000Y-61350000D03*
X133310000Y-61350000D03*
X132040000Y-61350000D03*
X132040000Y-78850000D03*
X133310000Y-78850000D03*
X134580000Y-78850000D03*
X135850000Y-78850000D03*
X137120000Y-78850000D03*
X138390000Y-78850000D03*
X139660000Y-78850000D03*
X140930000Y-78850000D03*
X142200000Y-78850000D03*
X143470000Y-78850000D03*
X144740000Y-78850000D03*
X146010000Y-78850000D03*
X147280000Y-78850000D03*
X148550000Y-78850000D03*
X149820000Y-78850000D03*
X151090000Y-78850000D03*
X152360000Y-78850000D03*
X153630000Y-78850000D03*
X154900000Y-78850000D03*
D17*
X148500000Y-67200000D03*
X148500000Y-68600000D03*
X148500000Y-70000000D03*
X147100000Y-67200000D03*
X147100000Y-68600000D03*
X147100000Y-70000000D03*
X145700000Y-67200000D03*
X145700000Y-68600000D03*
X145700000Y-70000000D03*
%TD*%
D18*
%TO.C,R10*%
X75760000Y-76750000D03*
X74740000Y-76750000D03*
%TD*%
D19*
%TO.C,C1*%
X128800000Y-73725000D03*
X128800000Y-75275000D03*
%TD*%
D20*
%TO.C,C14*%
X136900000Y-114445000D03*
X136900000Y-113755000D03*
%TD*%
D11*
%TO.C,R3*%
X89675000Y-70800000D03*
X91325000Y-70800000D03*
%TD*%
D21*
%TO.C,C7*%
X88825000Y-72700000D03*
X90375000Y-72700000D03*
%TD*%
D22*
%TO.C,C8*%
X81875000Y-68000000D03*
X80325000Y-68000000D03*
%TD*%
D23*
%TO.C,U3*%
X87900000Y-134250000D03*
X90200000Y-134250000D03*
D24*
X90200000Y-127950000D03*
D23*
X92500000Y-134250000D03*
%TD*%
D25*
%TO.C,D2*%
X151000000Y-127000000D03*
X151000000Y-123000000D03*
%TD*%
D22*
%TO.C,C9*%
X76475000Y-73100000D03*
X74925000Y-73100000D03*
%TD*%
%TO.C,C12*%
X153575000Y-58900000D03*
X152025000Y-58900000D03*
%TD*%
D13*
%TO.C,D4*%
X147200000Y-113054000D03*
X147200000Y-114454000D03*
%TD*%
D26*
%TO.C,R11*%
X79200000Y-75875000D03*
X79200000Y-77525000D03*
%TD*%
D27*
%TO.C,C11*%
X76550000Y-71100000D03*
X74650000Y-71100000D03*
%TD*%
D10*
%TO.C,R21*%
X84000000Y-75740000D03*
X84000000Y-76760000D03*
%TD*%
D12*
%TO.C,D1*%
X147200000Y-126200000D03*
X147200000Y-124800000D03*
%TD*%
D21*
%TO.C,C5*%
X85525000Y-76500000D03*
X87075000Y-76500000D03*
%TD*%
D13*
%TO.C,D7*%
X147200000Y-120400000D03*
X147200000Y-121800000D03*
%TD*%
D28*
%TO.C,D8*%
X95900000Y-130012500D03*
X95900000Y-131587500D03*
%TD*%
D29*
%TO.C,C15*%
X138300000Y-114075000D03*
X138300000Y-112525000D03*
%TD*%
D30*
%TO.C,R15*%
X136000000Y-127225000D03*
X136000000Y-125575000D03*
%TD*%
D10*
%TO.C,R23*%
X85100000Y-65390000D03*
X85100000Y-66410000D03*
%TD*%
D31*
%TO.C,L1*%
X75000000Y-68287500D03*
X75000000Y-66712500D03*
%TD*%
D32*
%TO.C,R19*%
X90490000Y-66200000D03*
X91510000Y-66200000D03*
%TD*%
D33*
%TO.C,R33*%
X135300000Y-107087500D03*
X135300000Y-108912500D03*
%TD*%
D30*
%TO.C,R13*%
X129600000Y-108725000D03*
X129600000Y-107075000D03*
%TD*%
D34*
%TO.C,C6*%
X85920000Y-75100000D03*
X86880000Y-75100000D03*
%TD*%
D33*
%TO.C,R35*%
X132200000Y-107087500D03*
X132200000Y-108912500D03*
%TD*%
D26*
%TO.C,R5*%
X81500000Y-75875000D03*
X81500000Y-77525000D03*
%TD*%
D35*
%TO.C,Q1*%
X130400000Y-127200000D03*
X130400000Y-125300000D03*
X128525000Y-126250000D03*
%TD*%
D36*
%TO.C,SW1*%
X124625000Y-75175000D03*
X124625000Y-71025000D03*
X126775000Y-75175000D03*
X126775000Y-71025000D03*
%TD*%
D29*
%TO.C,C2*%
X119525000Y-128300000D03*
X119525000Y-126750000D03*
%TD*%
D37*
%TO.C,U1*%
X83725000Y-72462500D03*
X84975000Y-72462500D03*
X83725000Y-71212500D03*
X84975000Y-71212500D03*
D38*
X83100000Y-73775000D03*
X83600000Y-73775000D03*
X84100000Y-73775000D03*
X84600000Y-73775000D03*
X85100000Y-73775000D03*
X85600000Y-73775000D03*
D39*
X86287500Y-73087500D03*
X86287500Y-72587500D03*
X86287500Y-72087500D03*
X86287500Y-71587500D03*
X86287500Y-71087500D03*
X86287500Y-70587500D03*
D38*
X85600000Y-69900000D03*
X85100000Y-69900000D03*
X84600000Y-69900000D03*
X84100000Y-69900000D03*
X83600000Y-69900000D03*
X83100000Y-69900000D03*
D39*
X82412500Y-70587500D03*
X82412500Y-71087500D03*
X82412500Y-71587500D03*
X82412500Y-72087500D03*
X82412500Y-72587500D03*
X82412500Y-73087500D03*
%TD*%
D14*
%TO.C,R18*%
X95900000Y-134520000D03*
X95900000Y-133500000D03*
%TD*%
D40*
%TO.C,Q2*%
X134750000Y-121637500D03*
X136650000Y-121637500D03*
X135700000Y-119762500D03*
%TD*%
D21*
%TO.C,C4*%
X90225000Y-125400000D03*
X91775000Y-125400000D03*
%TD*%
D32*
%TO.C,R9*%
X77000000Y-69250000D03*
X78020000Y-69250000D03*
%TD*%
D14*
%TO.C,R7*%
X78200000Y-73820000D03*
X78200000Y-72800000D03*
%TD*%
D41*
%TO.C,Y1*%
X87100000Y-67350000D03*
X87100000Y-66250000D03*
X86300000Y-66250000D03*
X86300000Y-67350000D03*
%TD*%
D26*
%TO.C,R34*%
X138500000Y-107175000D03*
X138500000Y-108825000D03*
%TD*%
D12*
%TO.C,D5*%
X147200000Y-110100000D03*
X147200000Y-108700000D03*
%TD*%
D42*
%TO.C,U4*%
X133770000Y-116520000D03*
X133770000Y-115400000D03*
X133770000Y-114280000D03*
X132650000Y-116520000D03*
X132650000Y-115400000D03*
X132650000Y-114280000D03*
X131530000Y-116520000D03*
X131530000Y-115400000D03*
X131530000Y-114280000D03*
D43*
X135100000Y-116900000D03*
X135100000Y-116400000D03*
X135100000Y-115900000D03*
X135100000Y-115400000D03*
X135100000Y-114900000D03*
X135100000Y-114400000D03*
X135100000Y-113900000D03*
D44*
X134150000Y-112950000D03*
X133650000Y-112950000D03*
X133150000Y-112950000D03*
X132650000Y-112950000D03*
X132150000Y-112950000D03*
X131650000Y-112950000D03*
X131150000Y-112950000D03*
D43*
X130200000Y-113900000D03*
X130200000Y-114400000D03*
X130200000Y-114900000D03*
X130200000Y-115400000D03*
X130200000Y-115900000D03*
X130200000Y-116400000D03*
X130200000Y-116900000D03*
D44*
X131150000Y-117850000D03*
X131650000Y-117850000D03*
X132150000Y-117850000D03*
X132650000Y-117850000D03*
X133150000Y-117850000D03*
X133650000Y-117850000D03*
X134150000Y-117850000D03*
%TD*%
D15*
%TO.C,R14*%
X135425000Y-129600000D03*
X133775000Y-129600000D03*
%TD*%
D22*
%TO.C,C13*%
X153575000Y-57200000D03*
X152025000Y-57200000D03*
%TD*%
%TO.C,C3*%
X90975000Y-136600000D03*
X89425000Y-136600000D03*
%TD*%
D11*
%TO.C,R2*%
X91975000Y-77000000D03*
X93625000Y-77000000D03*
%TD*%
D22*
%TO.C,C10*%
X76475000Y-74900000D03*
X74925000Y-74900000D03*
%TD*%
D45*
%TO.C,SW2*%
X125600000Y-128700000D03*
X121450000Y-128700000D03*
X125600000Y-126550000D03*
X121450000Y-126550000D03*
%TD*%
D32*
%TO.C,R8*%
X76990000Y-68000000D03*
X78010000Y-68000000D03*
%TD*%
D14*
%TO.C,R20*%
X81900000Y-66600000D03*
X81900000Y-65580000D03*
%TD*%
M02*
