%TF.GenerationSoftware,KiCad,Pcbnew,9.0.4*%
%TF.CreationDate,2025-10-22T11:27:05-07:00*%
%TF.ProjectId,EthernetBoardv1.1,45746865-726e-4657-9442-6f6172647631,rev?*%
%TF.SameCoordinates,Original*%
%TF.FileFunction,Legend,Bot*%
%TF.FilePolarity,Positive*%
%FSLAX46Y46*%
G04 Gerber Fmt 4.6, Leading zero omitted, Abs format (unit mm)*
G04 Created by KiCad (PCBNEW 9.0.4) date 2025-10-22 11:27:05*
%MOMM*%
%LPD*%
G01*
G04 APERTURE LIST*
%ADD10C,0.250000*%
G04 APERTURE END LIST*
D10*
X151797431Y-131020921D02*
X151464098Y-131020921D01*
X151321241Y-131544731D02*
X151797431Y-131544731D01*
X151797431Y-131544731D02*
X151797431Y-130544731D01*
X151797431Y-130544731D02*
X151321241Y-130544731D01*
X151035526Y-130878064D02*
X150654574Y-130878064D01*
X150892669Y-130544731D02*
X150892669Y-131401873D01*
X150892669Y-131401873D02*
X150845050Y-131497112D01*
X150845050Y-131497112D02*
X150749812Y-131544731D01*
X150749812Y-131544731D02*
X150654574Y-131544731D01*
X150321240Y-131544731D02*
X150321240Y-130544731D01*
X149892669Y-131544731D02*
X149892669Y-131020921D01*
X149892669Y-131020921D02*
X149940288Y-130925683D01*
X149940288Y-130925683D02*
X150035526Y-130878064D01*
X150035526Y-130878064D02*
X150178383Y-130878064D01*
X150178383Y-130878064D02*
X150273621Y-130925683D01*
X150273621Y-130925683D02*
X150321240Y-130973302D01*
X149035526Y-131497112D02*
X149130764Y-131544731D01*
X149130764Y-131544731D02*
X149321240Y-131544731D01*
X149321240Y-131544731D02*
X149416478Y-131497112D01*
X149416478Y-131497112D02*
X149464097Y-131401873D01*
X149464097Y-131401873D02*
X149464097Y-131020921D01*
X149464097Y-131020921D02*
X149416478Y-130925683D01*
X149416478Y-130925683D02*
X149321240Y-130878064D01*
X149321240Y-130878064D02*
X149130764Y-130878064D01*
X149130764Y-130878064D02*
X149035526Y-130925683D01*
X149035526Y-130925683D02*
X148987907Y-131020921D01*
X148987907Y-131020921D02*
X148987907Y-131116159D01*
X148987907Y-131116159D02*
X149464097Y-131211397D01*
X148559335Y-131544731D02*
X148559335Y-130878064D01*
X148559335Y-131068540D02*
X148511716Y-130973302D01*
X148511716Y-130973302D02*
X148464097Y-130925683D01*
X148464097Y-130925683D02*
X148368859Y-130878064D01*
X148368859Y-130878064D02*
X148273621Y-130878064D01*
X147940287Y-130878064D02*
X147940287Y-131544731D01*
X147940287Y-130973302D02*
X147892668Y-130925683D01*
X147892668Y-130925683D02*
X147797430Y-130878064D01*
X147797430Y-130878064D02*
X147654573Y-130878064D01*
X147654573Y-130878064D02*
X147559335Y-130925683D01*
X147559335Y-130925683D02*
X147511716Y-131020921D01*
X147511716Y-131020921D02*
X147511716Y-131544731D01*
X146654573Y-131497112D02*
X146749811Y-131544731D01*
X146749811Y-131544731D02*
X146940287Y-131544731D01*
X146940287Y-131544731D02*
X147035525Y-131497112D01*
X147035525Y-131497112D02*
X147083144Y-131401873D01*
X147083144Y-131401873D02*
X147083144Y-131020921D01*
X147083144Y-131020921D02*
X147035525Y-130925683D01*
X147035525Y-130925683D02*
X146940287Y-130878064D01*
X146940287Y-130878064D02*
X146749811Y-130878064D01*
X146749811Y-130878064D02*
X146654573Y-130925683D01*
X146654573Y-130925683D02*
X146606954Y-131020921D01*
X146606954Y-131020921D02*
X146606954Y-131116159D01*
X146606954Y-131116159D02*
X147083144Y-131211397D01*
X146321239Y-130878064D02*
X145940287Y-130878064D01*
X146178382Y-130544731D02*
X146178382Y-131401873D01*
X146178382Y-131401873D02*
X146130763Y-131497112D01*
X146130763Y-131497112D02*
X146035525Y-131544731D01*
X146035525Y-131544731D02*
X145940287Y-131544731D01*
X144845048Y-131544731D02*
X144845048Y-130544731D01*
X144845048Y-130544731D02*
X144606953Y-130544731D01*
X144606953Y-130544731D02*
X144464096Y-130592350D01*
X144464096Y-130592350D02*
X144368858Y-130687588D01*
X144368858Y-130687588D02*
X144321239Y-130782826D01*
X144321239Y-130782826D02*
X144273620Y-130973302D01*
X144273620Y-130973302D02*
X144273620Y-131116159D01*
X144273620Y-131116159D02*
X144321239Y-131306635D01*
X144321239Y-131306635D02*
X144368858Y-131401873D01*
X144368858Y-131401873D02*
X144464096Y-131497112D01*
X144464096Y-131497112D02*
X144606953Y-131544731D01*
X144606953Y-131544731D02*
X144845048Y-131544731D01*
X143464096Y-131497112D02*
X143559334Y-131544731D01*
X143559334Y-131544731D02*
X143749810Y-131544731D01*
X143749810Y-131544731D02*
X143845048Y-131497112D01*
X143845048Y-131497112D02*
X143892667Y-131401873D01*
X143892667Y-131401873D02*
X143892667Y-131020921D01*
X143892667Y-131020921D02*
X143845048Y-130925683D01*
X143845048Y-130925683D02*
X143749810Y-130878064D01*
X143749810Y-130878064D02*
X143559334Y-130878064D01*
X143559334Y-130878064D02*
X143464096Y-130925683D01*
X143464096Y-130925683D02*
X143416477Y-131020921D01*
X143416477Y-131020921D02*
X143416477Y-131116159D01*
X143416477Y-131116159D02*
X143892667Y-131211397D01*
X143083143Y-130878064D02*
X142845048Y-131544731D01*
X142845048Y-131544731D02*
X142606953Y-130878064D01*
X141130762Y-131020921D02*
X140987905Y-131068540D01*
X140987905Y-131068540D02*
X140940286Y-131116159D01*
X140940286Y-131116159D02*
X140892667Y-131211397D01*
X140892667Y-131211397D02*
X140892667Y-131354254D01*
X140892667Y-131354254D02*
X140940286Y-131449492D01*
X140940286Y-131449492D02*
X140987905Y-131497112D01*
X140987905Y-131497112D02*
X141083143Y-131544731D01*
X141083143Y-131544731D02*
X141464095Y-131544731D01*
X141464095Y-131544731D02*
X141464095Y-130544731D01*
X141464095Y-130544731D02*
X141130762Y-130544731D01*
X141130762Y-130544731D02*
X141035524Y-130592350D01*
X141035524Y-130592350D02*
X140987905Y-130639969D01*
X140987905Y-130639969D02*
X140940286Y-130735207D01*
X140940286Y-130735207D02*
X140940286Y-130830445D01*
X140940286Y-130830445D02*
X140987905Y-130925683D01*
X140987905Y-130925683D02*
X141035524Y-130973302D01*
X141035524Y-130973302D02*
X141130762Y-131020921D01*
X141130762Y-131020921D02*
X141464095Y-131020921D01*
X140321238Y-131544731D02*
X140416476Y-131497112D01*
X140416476Y-131497112D02*
X140464095Y-131449492D01*
X140464095Y-131449492D02*
X140511714Y-131354254D01*
X140511714Y-131354254D02*
X140511714Y-131068540D01*
X140511714Y-131068540D02*
X140464095Y-130973302D01*
X140464095Y-130973302D02*
X140416476Y-130925683D01*
X140416476Y-130925683D02*
X140321238Y-130878064D01*
X140321238Y-130878064D02*
X140178381Y-130878064D01*
X140178381Y-130878064D02*
X140083143Y-130925683D01*
X140083143Y-130925683D02*
X140035524Y-130973302D01*
X140035524Y-130973302D02*
X139987905Y-131068540D01*
X139987905Y-131068540D02*
X139987905Y-131354254D01*
X139987905Y-131354254D02*
X140035524Y-131449492D01*
X140035524Y-131449492D02*
X140083143Y-131497112D01*
X140083143Y-131497112D02*
X140178381Y-131544731D01*
X140178381Y-131544731D02*
X140321238Y-131544731D01*
X139130762Y-131544731D02*
X139130762Y-131020921D01*
X139130762Y-131020921D02*
X139178381Y-130925683D01*
X139178381Y-130925683D02*
X139273619Y-130878064D01*
X139273619Y-130878064D02*
X139464095Y-130878064D01*
X139464095Y-130878064D02*
X139559333Y-130925683D01*
X139130762Y-131497112D02*
X139226000Y-131544731D01*
X139226000Y-131544731D02*
X139464095Y-131544731D01*
X139464095Y-131544731D02*
X139559333Y-131497112D01*
X139559333Y-131497112D02*
X139606952Y-131401873D01*
X139606952Y-131401873D02*
X139606952Y-131306635D01*
X139606952Y-131306635D02*
X139559333Y-131211397D01*
X139559333Y-131211397D02*
X139464095Y-131163778D01*
X139464095Y-131163778D02*
X139226000Y-131163778D01*
X139226000Y-131163778D02*
X139130762Y-131116159D01*
X138654571Y-131544731D02*
X138654571Y-130878064D01*
X138654571Y-131068540D02*
X138606952Y-130973302D01*
X138606952Y-130973302D02*
X138559333Y-130925683D01*
X138559333Y-130925683D02*
X138464095Y-130878064D01*
X138464095Y-130878064D02*
X138368857Y-130878064D01*
X137606952Y-131544731D02*
X137606952Y-130544731D01*
X137606952Y-131497112D02*
X137702190Y-131544731D01*
X137702190Y-131544731D02*
X137892666Y-131544731D01*
X137892666Y-131544731D02*
X137987904Y-131497112D01*
X137987904Y-131497112D02*
X138035523Y-131449492D01*
X138035523Y-131449492D02*
X138083142Y-131354254D01*
X138083142Y-131354254D02*
X138083142Y-131068540D01*
X138083142Y-131068540D02*
X138035523Y-130973302D01*
X138035523Y-130973302D02*
X137987904Y-130925683D01*
X137987904Y-130925683D02*
X137892666Y-130878064D01*
X137892666Y-130878064D02*
X137702190Y-130878064D01*
X137702190Y-130878064D02*
X137606952Y-130925683D01*
X136368856Y-131163778D02*
X135606952Y-131163778D01*
X134511713Y-130544731D02*
X134178380Y-131544731D01*
X134178380Y-131544731D02*
X133845047Y-130544731D01*
X133511713Y-131544731D02*
X133511713Y-130878064D01*
X133511713Y-130544731D02*
X133559332Y-130592350D01*
X133559332Y-130592350D02*
X133511713Y-130639969D01*
X133511713Y-130639969D02*
X133464094Y-130592350D01*
X133464094Y-130592350D02*
X133511713Y-130544731D01*
X133511713Y-130544731D02*
X133511713Y-130639969D01*
X133035523Y-130878064D02*
X133035523Y-131544731D01*
X133035523Y-130973302D02*
X132987904Y-130925683D01*
X132987904Y-130925683D02*
X132892666Y-130878064D01*
X132892666Y-130878064D02*
X132749809Y-130878064D01*
X132749809Y-130878064D02*
X132654571Y-130925683D01*
X132654571Y-130925683D02*
X132606952Y-131020921D01*
X132606952Y-131020921D02*
X132606952Y-131544731D01*
X131749809Y-131497112D02*
X131845047Y-131544731D01*
X131845047Y-131544731D02*
X132035523Y-131544731D01*
X132035523Y-131544731D02*
X132130761Y-131497112D01*
X132130761Y-131497112D02*
X132178380Y-131401873D01*
X132178380Y-131401873D02*
X132178380Y-131020921D01*
X132178380Y-131020921D02*
X132130761Y-130925683D01*
X132130761Y-130925683D02*
X132035523Y-130878064D01*
X132035523Y-130878064D02*
X131845047Y-130878064D01*
X131845047Y-130878064D02*
X131749809Y-130925683D01*
X131749809Y-130925683D02*
X131702190Y-131020921D01*
X131702190Y-131020921D02*
X131702190Y-131116159D01*
X131702190Y-131116159D02*
X132178380Y-131211397D01*
X130511713Y-131544731D02*
X130511713Y-130544731D01*
X130035523Y-130878064D02*
X130035523Y-131544731D01*
X130035523Y-130973302D02*
X129987904Y-130925683D01*
X129987904Y-130925683D02*
X129892666Y-130878064D01*
X129892666Y-130878064D02*
X129749809Y-130878064D01*
X129749809Y-130878064D02*
X129654571Y-130925683D01*
X129654571Y-130925683D02*
X129606952Y-131020921D01*
X129606952Y-131020921D02*
X129606952Y-131544731D01*
X129273618Y-130878064D02*
X128892666Y-130878064D01*
X129130761Y-130544731D02*
X129130761Y-131401873D01*
X129130761Y-131401873D02*
X129083142Y-131497112D01*
X129083142Y-131497112D02*
X128987904Y-131544731D01*
X128987904Y-131544731D02*
X128892666Y-131544731D01*
X128178380Y-131497112D02*
X128273618Y-131544731D01*
X128273618Y-131544731D02*
X128464094Y-131544731D01*
X128464094Y-131544731D02*
X128559332Y-131497112D01*
X128559332Y-131497112D02*
X128606951Y-131401873D01*
X128606951Y-131401873D02*
X128606951Y-131020921D01*
X128606951Y-131020921D02*
X128559332Y-130925683D01*
X128559332Y-130925683D02*
X128464094Y-130878064D01*
X128464094Y-130878064D02*
X128273618Y-130878064D01*
X128273618Y-130878064D02*
X128178380Y-130925683D01*
X128178380Y-130925683D02*
X128130761Y-131020921D01*
X128130761Y-131020921D02*
X128130761Y-131116159D01*
X128130761Y-131116159D02*
X128606951Y-131211397D01*
X127702189Y-131544731D02*
X127702189Y-130878064D01*
X127702189Y-131068540D02*
X127654570Y-130973302D01*
X127654570Y-130973302D02*
X127606951Y-130925683D01*
X127606951Y-130925683D02*
X127511713Y-130878064D01*
X127511713Y-130878064D02*
X127416475Y-130878064D01*
X127083141Y-130878064D02*
X127083141Y-131544731D01*
X127083141Y-130973302D02*
X127035522Y-130925683D01*
X127035522Y-130925683D02*
X126940284Y-130878064D01*
X126940284Y-130878064D02*
X126797427Y-130878064D01*
X126797427Y-130878064D02*
X126702189Y-130925683D01*
X126702189Y-130925683D02*
X126654570Y-131020921D01*
X126654570Y-131020921D02*
X126654570Y-131544731D01*
X125749808Y-131544731D02*
X125749808Y-131020921D01*
X125749808Y-131020921D02*
X125797427Y-130925683D01*
X125797427Y-130925683D02*
X125892665Y-130878064D01*
X125892665Y-130878064D02*
X126083141Y-130878064D01*
X126083141Y-130878064D02*
X126178379Y-130925683D01*
X125749808Y-131497112D02*
X125845046Y-131544731D01*
X125845046Y-131544731D02*
X126083141Y-131544731D01*
X126083141Y-131544731D02*
X126178379Y-131497112D01*
X126178379Y-131497112D02*
X126225998Y-131401873D01*
X126225998Y-131401873D02*
X126225998Y-131306635D01*
X126225998Y-131306635D02*
X126178379Y-131211397D01*
X126178379Y-131211397D02*
X126083141Y-131163778D01*
X126083141Y-131163778D02*
X125845046Y-131163778D01*
X125845046Y-131163778D02*
X125749808Y-131116159D01*
X125130760Y-131544731D02*
X125225998Y-131497112D01*
X125225998Y-131497112D02*
X125273617Y-131401873D01*
X125273617Y-131401873D02*
X125273617Y-130544731D01*
X123987902Y-131544731D02*
X123987902Y-130878064D01*
X123987902Y-131068540D02*
X123940283Y-130973302D01*
X123940283Y-130973302D02*
X123892664Y-130925683D01*
X123892664Y-130925683D02*
X123797426Y-130878064D01*
X123797426Y-130878064D02*
X123702188Y-130878064D01*
X122987902Y-131497112D02*
X123083140Y-131544731D01*
X123083140Y-131544731D02*
X123273616Y-131544731D01*
X123273616Y-131544731D02*
X123368854Y-131497112D01*
X123368854Y-131497112D02*
X123416473Y-131401873D01*
X123416473Y-131401873D02*
X123416473Y-131020921D01*
X123416473Y-131020921D02*
X123368854Y-130925683D01*
X123368854Y-130925683D02*
X123273616Y-130878064D01*
X123273616Y-130878064D02*
X123083140Y-130878064D01*
X123083140Y-130878064D02*
X122987902Y-130925683D01*
X122987902Y-130925683D02*
X122940283Y-131020921D01*
X122940283Y-131020921D02*
X122940283Y-131116159D01*
X122940283Y-131116159D02*
X123416473Y-131211397D01*
X122606949Y-130878064D02*
X122368854Y-131544731D01*
X122368854Y-131544731D02*
X122130759Y-130878064D01*
X120464092Y-131544731D02*
X121035520Y-131544731D01*
X120749806Y-131544731D02*
X120749806Y-130544731D01*
X120749806Y-130544731D02*
X120845044Y-130687588D01*
X120845044Y-130687588D02*
X120940282Y-130782826D01*
X120940282Y-130782826D02*
X121035520Y-130830445D01*
X120035520Y-131449492D02*
X119987901Y-131497112D01*
X119987901Y-131497112D02*
X120035520Y-131544731D01*
X120035520Y-131544731D02*
X120083139Y-131497112D01*
X120083139Y-131497112D02*
X120035520Y-131449492D01*
X120035520Y-131449492D02*
X120035520Y-131544731D01*
X119035521Y-131544731D02*
X119606949Y-131544731D01*
X119321235Y-131544731D02*
X119321235Y-130544731D01*
X119321235Y-130544731D02*
X119416473Y-130687588D01*
X119416473Y-130687588D02*
X119511711Y-130782826D01*
X119511711Y-130782826D02*
X119606949Y-130830445D01*
X151226003Y-133059436D02*
X151273622Y-133107056D01*
X151273622Y-133107056D02*
X151416479Y-133154675D01*
X151416479Y-133154675D02*
X151511717Y-133154675D01*
X151511717Y-133154675D02*
X151654574Y-133107056D01*
X151654574Y-133107056D02*
X151749812Y-133011817D01*
X151749812Y-133011817D02*
X151797431Y-132916579D01*
X151797431Y-132916579D02*
X151845050Y-132726103D01*
X151845050Y-132726103D02*
X151845050Y-132583246D01*
X151845050Y-132583246D02*
X151797431Y-132392770D01*
X151797431Y-132392770D02*
X151749812Y-132297532D01*
X151749812Y-132297532D02*
X151654574Y-132202294D01*
X151654574Y-132202294D02*
X151511717Y-132154675D01*
X151511717Y-132154675D02*
X151416479Y-132154675D01*
X151416479Y-132154675D02*
X151273622Y-132202294D01*
X151273622Y-132202294D02*
X151226003Y-132249913D01*
X150797431Y-133154675D02*
X150797431Y-132154675D01*
X150368860Y-133154675D02*
X150368860Y-132630865D01*
X150368860Y-132630865D02*
X150416479Y-132535627D01*
X150416479Y-132535627D02*
X150511717Y-132488008D01*
X150511717Y-132488008D02*
X150654574Y-132488008D01*
X150654574Y-132488008D02*
X150749812Y-132535627D01*
X150749812Y-132535627D02*
X150797431Y-132583246D01*
X149464098Y-133154675D02*
X149464098Y-132630865D01*
X149464098Y-132630865D02*
X149511717Y-132535627D01*
X149511717Y-132535627D02*
X149606955Y-132488008D01*
X149606955Y-132488008D02*
X149797431Y-132488008D01*
X149797431Y-132488008D02*
X149892669Y-132535627D01*
X149464098Y-133107056D02*
X149559336Y-133154675D01*
X149559336Y-133154675D02*
X149797431Y-133154675D01*
X149797431Y-133154675D02*
X149892669Y-133107056D01*
X149892669Y-133107056D02*
X149940288Y-133011817D01*
X149940288Y-133011817D02*
X149940288Y-132916579D01*
X149940288Y-132916579D02*
X149892669Y-132821341D01*
X149892669Y-132821341D02*
X149797431Y-132773722D01*
X149797431Y-132773722D02*
X149559336Y-132773722D01*
X149559336Y-132773722D02*
X149464098Y-132726103D01*
X148987907Y-133154675D02*
X148987907Y-132488008D01*
X148987907Y-132678484D02*
X148940288Y-132583246D01*
X148940288Y-132583246D02*
X148892669Y-132535627D01*
X148892669Y-132535627D02*
X148797431Y-132488008D01*
X148797431Y-132488008D02*
X148702193Y-132488008D01*
X148368859Y-133154675D02*
X148368859Y-132488008D01*
X148368859Y-132583246D02*
X148321240Y-132535627D01*
X148321240Y-132535627D02*
X148226002Y-132488008D01*
X148226002Y-132488008D02*
X148083145Y-132488008D01*
X148083145Y-132488008D02*
X147987907Y-132535627D01*
X147987907Y-132535627D02*
X147940288Y-132630865D01*
X147940288Y-132630865D02*
X147940288Y-133154675D01*
X147940288Y-132630865D02*
X147892669Y-132535627D01*
X147892669Y-132535627D02*
X147797431Y-132488008D01*
X147797431Y-132488008D02*
X147654574Y-132488008D01*
X147654574Y-132488008D02*
X147559335Y-132535627D01*
X147559335Y-132535627D02*
X147511716Y-132630865D01*
X147511716Y-132630865D02*
X147511716Y-133154675D01*
X145797431Y-133154675D02*
X146273621Y-133154675D01*
X146273621Y-133154675D02*
X146273621Y-132154675D01*
X145035526Y-133154675D02*
X145035526Y-132630865D01*
X145035526Y-132630865D02*
X145083145Y-132535627D01*
X145083145Y-132535627D02*
X145178383Y-132488008D01*
X145178383Y-132488008D02*
X145368859Y-132488008D01*
X145368859Y-132488008D02*
X145464097Y-132535627D01*
X145035526Y-133107056D02*
X145130764Y-133154675D01*
X145130764Y-133154675D02*
X145368859Y-133154675D01*
X145368859Y-133154675D02*
X145464097Y-133107056D01*
X145464097Y-133107056D02*
X145511716Y-133011817D01*
X145511716Y-133011817D02*
X145511716Y-132916579D01*
X145511716Y-132916579D02*
X145464097Y-132821341D01*
X145464097Y-132821341D02*
X145368859Y-132773722D01*
X145368859Y-132773722D02*
X145130764Y-132773722D01*
X145130764Y-132773722D02*
X145035526Y-132726103D01*
X144559335Y-133154675D02*
X144559335Y-132154675D01*
X144559335Y-132535627D02*
X144464097Y-132488008D01*
X144464097Y-132488008D02*
X144273621Y-132488008D01*
X144273621Y-132488008D02*
X144178383Y-132535627D01*
X144178383Y-132535627D02*
X144130764Y-132583246D01*
X144130764Y-132583246D02*
X144083145Y-132678484D01*
X144083145Y-132678484D02*
X144083145Y-132964198D01*
X144083145Y-132964198D02*
X144130764Y-133059436D01*
X144130764Y-133059436D02*
X144178383Y-133107056D01*
X144178383Y-133107056D02*
X144273621Y-133154675D01*
X144273621Y-133154675D02*
X144464097Y-133154675D01*
X144464097Y-133154675D02*
X144559335Y-133107056D01*
X143606954Y-133107056D02*
X143606954Y-133154675D01*
X143606954Y-133154675D02*
X143654573Y-133249913D01*
X143654573Y-133249913D02*
X143702192Y-133297532D01*
X142464097Y-133107056D02*
X142321240Y-133154675D01*
X142321240Y-133154675D02*
X142083145Y-133154675D01*
X142083145Y-133154675D02*
X141987907Y-133107056D01*
X141987907Y-133107056D02*
X141940288Y-133059436D01*
X141940288Y-133059436D02*
X141892669Y-132964198D01*
X141892669Y-132964198D02*
X141892669Y-132868960D01*
X141892669Y-132868960D02*
X141940288Y-132773722D01*
X141940288Y-132773722D02*
X141987907Y-132726103D01*
X141987907Y-132726103D02*
X142083145Y-132678484D01*
X142083145Y-132678484D02*
X142273621Y-132630865D01*
X142273621Y-132630865D02*
X142368859Y-132583246D01*
X142368859Y-132583246D02*
X142416478Y-132535627D01*
X142416478Y-132535627D02*
X142464097Y-132440389D01*
X142464097Y-132440389D02*
X142464097Y-132345151D01*
X142464097Y-132345151D02*
X142416478Y-132249913D01*
X142416478Y-132249913D02*
X142368859Y-132202294D01*
X142368859Y-132202294D02*
X142273621Y-132154675D01*
X142273621Y-132154675D02*
X142035526Y-132154675D01*
X142035526Y-132154675D02*
X141892669Y-132202294D01*
X141606954Y-132488008D02*
X141226002Y-132488008D01*
X141464097Y-132154675D02*
X141464097Y-133011817D01*
X141464097Y-133011817D02*
X141416478Y-133107056D01*
X141416478Y-133107056D02*
X141321240Y-133154675D01*
X141321240Y-133154675D02*
X141226002Y-133154675D01*
X140464097Y-133154675D02*
X140464097Y-132630865D01*
X140464097Y-132630865D02*
X140511716Y-132535627D01*
X140511716Y-132535627D02*
X140606954Y-132488008D01*
X140606954Y-132488008D02*
X140797430Y-132488008D01*
X140797430Y-132488008D02*
X140892668Y-132535627D01*
X140464097Y-133107056D02*
X140559335Y-133154675D01*
X140559335Y-133154675D02*
X140797430Y-133154675D01*
X140797430Y-133154675D02*
X140892668Y-133107056D01*
X140892668Y-133107056D02*
X140940287Y-133011817D01*
X140940287Y-133011817D02*
X140940287Y-132916579D01*
X140940287Y-132916579D02*
X140892668Y-132821341D01*
X140892668Y-132821341D02*
X140797430Y-132773722D01*
X140797430Y-132773722D02*
X140559335Y-132773722D01*
X140559335Y-132773722D02*
X140464097Y-132726103D01*
X139987906Y-132488008D02*
X139987906Y-133154675D01*
X139987906Y-132583246D02*
X139940287Y-132535627D01*
X139940287Y-132535627D02*
X139845049Y-132488008D01*
X139845049Y-132488008D02*
X139702192Y-132488008D01*
X139702192Y-132488008D02*
X139606954Y-132535627D01*
X139606954Y-132535627D02*
X139559335Y-132630865D01*
X139559335Y-132630865D02*
X139559335Y-133154675D01*
X139226001Y-132488008D02*
X138845049Y-132488008D01*
X139083144Y-133154675D02*
X139083144Y-132297532D01*
X139083144Y-132297532D02*
X139035525Y-132202294D01*
X139035525Y-132202294D02*
X138940287Y-132154675D01*
X138940287Y-132154675D02*
X138845049Y-132154675D01*
X138368858Y-133154675D02*
X138464096Y-133107056D01*
X138464096Y-133107056D02*
X138511715Y-133059436D01*
X138511715Y-133059436D02*
X138559334Y-132964198D01*
X138559334Y-132964198D02*
X138559334Y-132678484D01*
X138559334Y-132678484D02*
X138511715Y-132583246D01*
X138511715Y-132583246D02*
X138464096Y-132535627D01*
X138464096Y-132535627D02*
X138368858Y-132488008D01*
X138368858Y-132488008D02*
X138226001Y-132488008D01*
X138226001Y-132488008D02*
X138130763Y-132535627D01*
X138130763Y-132535627D02*
X138083144Y-132583246D01*
X138083144Y-132583246D02*
X138035525Y-132678484D01*
X138035525Y-132678484D02*
X138035525Y-132964198D01*
X138035525Y-132964198D02*
X138083144Y-133059436D01*
X138083144Y-133059436D02*
X138130763Y-133107056D01*
X138130763Y-133107056D02*
X138226001Y-133154675D01*
X138226001Y-133154675D02*
X138368858Y-133154675D01*
X137606953Y-133154675D02*
X137606953Y-132488008D01*
X137606953Y-132678484D02*
X137559334Y-132583246D01*
X137559334Y-132583246D02*
X137511715Y-132535627D01*
X137511715Y-132535627D02*
X137416477Y-132488008D01*
X137416477Y-132488008D02*
X137321239Y-132488008D01*
X136559334Y-133154675D02*
X136559334Y-132154675D01*
X136559334Y-133107056D02*
X136654572Y-133154675D01*
X136654572Y-133154675D02*
X136845048Y-133154675D01*
X136845048Y-133154675D02*
X136940286Y-133107056D01*
X136940286Y-133107056D02*
X136987905Y-133059436D01*
X136987905Y-133059436D02*
X137035524Y-132964198D01*
X137035524Y-132964198D02*
X137035524Y-132678484D01*
X137035524Y-132678484D02*
X136987905Y-132583246D01*
X136987905Y-132583246D02*
X136940286Y-132535627D01*
X136940286Y-132535627D02*
X136845048Y-132488008D01*
X136845048Y-132488008D02*
X136654572Y-132488008D01*
X136654572Y-132488008D02*
X136559334Y-132535627D01*
X151606955Y-133764619D02*
X151416479Y-133764619D01*
X151416479Y-133764619D02*
X151321241Y-133812238D01*
X151321241Y-133812238D02*
X151226003Y-133907476D01*
X151226003Y-133907476D02*
X151178384Y-134097952D01*
X151178384Y-134097952D02*
X151178384Y-134431285D01*
X151178384Y-134431285D02*
X151226003Y-134621761D01*
X151226003Y-134621761D02*
X151321241Y-134717000D01*
X151321241Y-134717000D02*
X151416479Y-134764619D01*
X151416479Y-134764619D02*
X151606955Y-134764619D01*
X151606955Y-134764619D02*
X151702193Y-134717000D01*
X151702193Y-134717000D02*
X151797431Y-134621761D01*
X151797431Y-134621761D02*
X151845050Y-134431285D01*
X151845050Y-134431285D02*
X151845050Y-134097952D01*
X151845050Y-134097952D02*
X151797431Y-133907476D01*
X151797431Y-133907476D02*
X151702193Y-133812238D01*
X151702193Y-133812238D02*
X151606955Y-133764619D01*
X150321241Y-134717000D02*
X150416479Y-134764619D01*
X150416479Y-134764619D02*
X150606955Y-134764619D01*
X150606955Y-134764619D02*
X150702193Y-134717000D01*
X150702193Y-134717000D02*
X150749812Y-134669380D01*
X150749812Y-134669380D02*
X150797431Y-134574142D01*
X150797431Y-134574142D02*
X150797431Y-134288428D01*
X150797431Y-134288428D02*
X150749812Y-134193190D01*
X150749812Y-134193190D02*
X150702193Y-134145571D01*
X150702193Y-134145571D02*
X150606955Y-134097952D01*
X150606955Y-134097952D02*
X150416479Y-134097952D01*
X150416479Y-134097952D02*
X150321241Y-134145571D01*
X150035526Y-134097952D02*
X149654574Y-134097952D01*
X149892669Y-133764619D02*
X149892669Y-134621761D01*
X149892669Y-134621761D02*
X149845050Y-134717000D01*
X149845050Y-134717000D02*
X149749812Y-134764619D01*
X149749812Y-134764619D02*
X149654574Y-134764619D01*
X149178383Y-134764619D02*
X149273621Y-134717000D01*
X149273621Y-134717000D02*
X149321240Y-134669380D01*
X149321240Y-134669380D02*
X149368859Y-134574142D01*
X149368859Y-134574142D02*
X149368859Y-134288428D01*
X149368859Y-134288428D02*
X149321240Y-134193190D01*
X149321240Y-134193190D02*
X149273621Y-134145571D01*
X149273621Y-134145571D02*
X149178383Y-134097952D01*
X149178383Y-134097952D02*
X149035526Y-134097952D01*
X149035526Y-134097952D02*
X148940288Y-134145571D01*
X148940288Y-134145571D02*
X148892669Y-134193190D01*
X148892669Y-134193190D02*
X148845050Y-134288428D01*
X148845050Y-134288428D02*
X148845050Y-134574142D01*
X148845050Y-134574142D02*
X148892669Y-134669380D01*
X148892669Y-134669380D02*
X148940288Y-134717000D01*
X148940288Y-134717000D02*
X149035526Y-134764619D01*
X149035526Y-134764619D02*
X149178383Y-134764619D01*
X148416478Y-134764619D02*
X148416478Y-133764619D01*
X148416478Y-134145571D02*
X148321240Y-134097952D01*
X148321240Y-134097952D02*
X148130764Y-134097952D01*
X148130764Y-134097952D02*
X148035526Y-134145571D01*
X148035526Y-134145571D02*
X147987907Y-134193190D01*
X147987907Y-134193190D02*
X147940288Y-134288428D01*
X147940288Y-134288428D02*
X147940288Y-134574142D01*
X147940288Y-134574142D02*
X147987907Y-134669380D01*
X147987907Y-134669380D02*
X148035526Y-134717000D01*
X148035526Y-134717000D02*
X148130764Y-134764619D01*
X148130764Y-134764619D02*
X148321240Y-134764619D01*
X148321240Y-134764619D02*
X148416478Y-134717000D01*
X147130764Y-134717000D02*
X147226002Y-134764619D01*
X147226002Y-134764619D02*
X147416478Y-134764619D01*
X147416478Y-134764619D02*
X147511716Y-134717000D01*
X147511716Y-134717000D02*
X147559335Y-134621761D01*
X147559335Y-134621761D02*
X147559335Y-134240809D01*
X147559335Y-134240809D02*
X147511716Y-134145571D01*
X147511716Y-134145571D02*
X147416478Y-134097952D01*
X147416478Y-134097952D02*
X147226002Y-134097952D01*
X147226002Y-134097952D02*
X147130764Y-134145571D01*
X147130764Y-134145571D02*
X147083145Y-134240809D01*
X147083145Y-134240809D02*
X147083145Y-134336047D01*
X147083145Y-134336047D02*
X147559335Y-134431285D01*
X146654573Y-134764619D02*
X146654573Y-134097952D01*
X146654573Y-134288428D02*
X146606954Y-134193190D01*
X146606954Y-134193190D02*
X146559335Y-134145571D01*
X146559335Y-134145571D02*
X146464097Y-134097952D01*
X146464097Y-134097952D02*
X146368859Y-134097952D01*
X144749811Y-134764619D02*
X145321239Y-134764619D01*
X145035525Y-134764619D02*
X145035525Y-133764619D01*
X145035525Y-133764619D02*
X145130763Y-133907476D01*
X145130763Y-133907476D02*
X145226001Y-134002714D01*
X145226001Y-134002714D02*
X145321239Y-134050333D01*
X144273620Y-134764619D02*
X144083144Y-134764619D01*
X144083144Y-134764619D02*
X143987906Y-134717000D01*
X143987906Y-134717000D02*
X143940287Y-134669380D01*
X143940287Y-134669380D02*
X143845049Y-134526523D01*
X143845049Y-134526523D02*
X143797430Y-134336047D01*
X143797430Y-134336047D02*
X143797430Y-133955095D01*
X143797430Y-133955095D02*
X143845049Y-133859857D01*
X143845049Y-133859857D02*
X143892668Y-133812238D01*
X143892668Y-133812238D02*
X143987906Y-133764619D01*
X143987906Y-133764619D02*
X144178382Y-133764619D01*
X144178382Y-133764619D02*
X144273620Y-133812238D01*
X144273620Y-133812238D02*
X144321239Y-133859857D01*
X144321239Y-133859857D02*
X144368858Y-133955095D01*
X144368858Y-133955095D02*
X144368858Y-134193190D01*
X144368858Y-134193190D02*
X144321239Y-134288428D01*
X144321239Y-134288428D02*
X144273620Y-134336047D01*
X144273620Y-134336047D02*
X144178382Y-134383666D01*
X144178382Y-134383666D02*
X143987906Y-134383666D01*
X143987906Y-134383666D02*
X143892668Y-134336047D01*
X143892668Y-134336047D02*
X143845049Y-134288428D01*
X143845049Y-134288428D02*
X143797430Y-134193190D01*
X142654572Y-133859857D02*
X142606953Y-133812238D01*
X142606953Y-133812238D02*
X142511715Y-133764619D01*
X142511715Y-133764619D02*
X142273620Y-133764619D01*
X142273620Y-133764619D02*
X142178382Y-133812238D01*
X142178382Y-133812238D02*
X142130763Y-133859857D01*
X142130763Y-133859857D02*
X142083144Y-133955095D01*
X142083144Y-133955095D02*
X142083144Y-134050333D01*
X142083144Y-134050333D02*
X142130763Y-134193190D01*
X142130763Y-134193190D02*
X142702191Y-134764619D01*
X142702191Y-134764619D02*
X142083144Y-134764619D01*
X141464096Y-133764619D02*
X141368858Y-133764619D01*
X141368858Y-133764619D02*
X141273620Y-133812238D01*
X141273620Y-133812238D02*
X141226001Y-133859857D01*
X141226001Y-133859857D02*
X141178382Y-133955095D01*
X141178382Y-133955095D02*
X141130763Y-134145571D01*
X141130763Y-134145571D02*
X141130763Y-134383666D01*
X141130763Y-134383666D02*
X141178382Y-134574142D01*
X141178382Y-134574142D02*
X141226001Y-134669380D01*
X141226001Y-134669380D02*
X141273620Y-134717000D01*
X141273620Y-134717000D02*
X141368858Y-134764619D01*
X141368858Y-134764619D02*
X141464096Y-134764619D01*
X141464096Y-134764619D02*
X141559334Y-134717000D01*
X141559334Y-134717000D02*
X141606953Y-134669380D01*
X141606953Y-134669380D02*
X141654572Y-134574142D01*
X141654572Y-134574142D02*
X141702191Y-134383666D01*
X141702191Y-134383666D02*
X141702191Y-134145571D01*
X141702191Y-134145571D02*
X141654572Y-133955095D01*
X141654572Y-133955095D02*
X141606953Y-133859857D01*
X141606953Y-133859857D02*
X141559334Y-133812238D01*
X141559334Y-133812238D02*
X141464096Y-133764619D01*
X140749810Y-133859857D02*
X140702191Y-133812238D01*
X140702191Y-133812238D02*
X140606953Y-133764619D01*
X140606953Y-133764619D02*
X140368858Y-133764619D01*
X140368858Y-133764619D02*
X140273620Y-133812238D01*
X140273620Y-133812238D02*
X140226001Y-133859857D01*
X140226001Y-133859857D02*
X140178382Y-133955095D01*
X140178382Y-133955095D02*
X140178382Y-134050333D01*
X140178382Y-134050333D02*
X140226001Y-134193190D01*
X140226001Y-134193190D02*
X140797429Y-134764619D01*
X140797429Y-134764619D02*
X140178382Y-134764619D01*
X139273620Y-133764619D02*
X139749810Y-133764619D01*
X139749810Y-133764619D02*
X139797429Y-134240809D01*
X139797429Y-134240809D02*
X139749810Y-134193190D01*
X139749810Y-134193190D02*
X139654572Y-134145571D01*
X139654572Y-134145571D02*
X139416477Y-134145571D01*
X139416477Y-134145571D02*
X139321239Y-134193190D01*
X139321239Y-134193190D02*
X139273620Y-134240809D01*
X139273620Y-134240809D02*
X139226001Y-134336047D01*
X139226001Y-134336047D02*
X139226001Y-134574142D01*
X139226001Y-134574142D02*
X139273620Y-134669380D01*
X139273620Y-134669380D02*
X139321239Y-134717000D01*
X139321239Y-134717000D02*
X139416477Y-134764619D01*
X139416477Y-134764619D02*
X139654572Y-134764619D01*
X139654572Y-134764619D02*
X139749810Y-134717000D01*
X139749810Y-134717000D02*
X139797429Y-134669380D01*
M02*
