%TF.GenerationSoftware,KiCad,Pcbnew,9.0.5*%
%TF.CreationDate,2025-10-28T16:25:52-07:00*%
%TF.ProjectId,Vine_Basestation_Cable_Reeling,56696e65-5f42-4617-9365-73746174696f,rev?*%
%TF.SameCoordinates,Original*%
%TF.FileFunction,Copper,L3,Inr*%
%TF.FilePolarity,Positive*%
%FSLAX46Y46*%
G04 Gerber Fmt 4.6, Leading zero omitted, Abs format (unit mm)*
G04 Created by KiCad (PCBNEW 9.0.5) date 2025-10-28 16:25:52*
%MOMM*%
%LPD*%
G01*
G04 APERTURE LIST*
%TA.AperFunction,ViaPad*%
%ADD10C,0.660400*%
%TD*%
G04 APERTURE END LIST*
D10*
%TO.N,GND*%
X130750000Y-92750000D03*
X130750000Y-95000000D03*
X132750000Y-95000000D03*
X135000000Y-95000000D03*
X132750000Y-92750000D03*
X142750000Y-79500000D03*
X118750000Y-64750000D03*
X122750000Y-70000000D03*
X122750000Y-67750000D03*
X127000000Y-98250000D03*
X124750000Y-98250000D03*
X138000000Y-115000000D03*
X135750000Y-115000000D03*
X127000000Y-115000000D03*
X124750000Y-115000000D03*
X142000000Y-107750000D03*
X139750000Y-107750000D03*
X125000000Y-89000000D03*
X122750000Y-89000000D03*
X153500000Y-73750000D03*
X151250000Y-73750000D03*
X153500000Y-69250000D03*
X151250000Y-69250000D03*
X125000000Y-86250000D03*
X122750000Y-86250000D03*
X120500000Y-86250000D03*
X118250000Y-86250000D03*
X158000000Y-78250000D03*
X155750000Y-78250000D03*
X153500000Y-78250000D03*
X151250000Y-78250000D03*
X117250000Y-114000000D03*
X115000000Y-114000000D03*
X112750000Y-114000000D03*
X110500000Y-114000000D03*
X155000000Y-108250000D03*
X152750000Y-108250000D03*
X150500000Y-108250000D03*
X148250000Y-108250000D03*
X155000000Y-105000000D03*
X152750000Y-105000000D03*
X150500000Y-105000000D03*
X148250000Y-105000000D03*
X160250000Y-61500000D03*
X158000000Y-61500000D03*
X155750000Y-61500000D03*
X116500000Y-61500000D03*
X118750000Y-61500000D03*
X114250000Y-61500000D03*
%TO.N,5V0*%
X115750000Y-96750000D03*
X115750000Y-93250000D03*
%TO.N,/IO8*%
X139150000Y-70750000D03*
%TO.N,/IO2*%
X138250000Y-63000000D03*
%TO.N,/IO42*%
X139250000Y-63000000D03*
%TO.N,/IO39*%
X140000000Y-63500000D03*
%TO.N,/IO18*%
X139750000Y-66500000D03*
%TO.N,/IO36*%
X138250000Y-70000000D03*
%TO.N,/IO35*%
X137350000Y-71000000D03*
X147750000Y-94500000D03*
%TO.N,/IO36*%
X147750000Y-93250000D03*
%TO.N,/IO8*%
X147750000Y-92250000D03*
%TO.N,/IO18*%
X147750000Y-90750000D03*
%TO.N,/IO39*%
X147750000Y-89500000D03*
%TO.N,/IO42*%
X147500000Y-85750000D03*
%TO.N,/IO2*%
X147750000Y-82000000D03*
%TO.N,/IO45*%
X144000000Y-95500000D03*
X136750000Y-70000000D03*
%TO.N,/IO48*%
X135750000Y-71000000D03*
X143000000Y-95500000D03*
%TO.N,/IO47*%
X135463169Y-69975737D03*
X141750000Y-95500000D03*
%TO.N,/IO21*%
X134019593Y-70841214D03*
X140500000Y-95500000D03*
%TO.N,/IO14*%
X133838900Y-70000000D03*
X139000000Y-95500000D03*
%TO.N,GND*%
X122250000Y-105750000D03*
X155250000Y-90250000D03*
X150000000Y-95250000D03*
X141250000Y-99750000D03*
X125750000Y-113000000D03*
X118500000Y-71750000D03*
X111250000Y-110500000D03*
X143250000Y-63000000D03*
X143500000Y-69750000D03*
X159750000Y-110750000D03*
X152250000Y-65500000D03*
X155500000Y-70750000D03*
X138500000Y-88250000D03*
X119750000Y-79500000D03*
X117500000Y-103750000D03*
X118750000Y-113250000D03*
X150250000Y-115250000D03*
X135232300Y-99750000D03*
X138500000Y-86000000D03*
X122500000Y-65250000D03*
X159750000Y-116750000D03*
X121250000Y-91000000D03*
X155500000Y-100750000D03*
%TO.N,3V3*%
X140500000Y-69750000D03*
X118500000Y-74000000D03*
X125000000Y-73750000D03*
X155500000Y-67500000D03*
X119750000Y-81500000D03*
X159750000Y-105250000D03*
X133500000Y-99500000D03*
X148750000Y-97750000D03*
X119250000Y-110500000D03*
X142000000Y-69750000D03*
X118250000Y-84000000D03*
X152000000Y-95250000D03*
X125750000Y-110750000D03*
X156500000Y-81750000D03*
%TO.N,12V0*%
X154250000Y-113000000D03*
X142500000Y-104500000D03*
X144750000Y-103500000D03*
%TO.N,5V0*%
X113750000Y-110750000D03*
X113500000Y-105500000D03*
X111750000Y-105500000D03*
%TO.N,/USB2_Dp*%
X155250000Y-95154900D03*
%TO.N,/USB2_Dn*%
X154500000Y-96360000D03*
%TO.N,/ENCODER_AO1*%
X126250000Y-92000000D03*
X119250000Y-69500000D03*
%TO.N,/ENCODER_AO2*%
X118500000Y-67750000D03*
X126500000Y-93250000D03*
%TO.N,/ENCODER_BO2*%
X155750000Y-74500000D03*
X147500000Y-88250000D03*
%TO.N,/ENCODER_BO1*%
X155750000Y-72500000D03*
X147583584Y-87333584D03*
%TO.N,/RXD0*%
X149750000Y-87750000D03*
%TO.N,/TXD0*%
X151000000Y-84750000D03*
%TO.N,CHASSIS*%
X162000000Y-102500000D03*
X114500000Y-101000000D03*
%TO.N,/IO7*%
X130250000Y-87000000D03*
X131000000Y-67250000D03*
%TO.N,/IO15*%
X133754800Y-62750000D03*
X130250000Y-88250000D03*
%TO.N,/IO17*%
X135750000Y-62750000D03*
X130250000Y-90750000D03*
%TO.N,/IO16*%
X130250000Y-89500000D03*
X134750000Y-62750000D03*
%TO.N,/IO5*%
X129500000Y-65000000D03*
X130000000Y-84500000D03*
%TO.N,/IO6*%
X130250000Y-85750000D03*
X130000000Y-67000000D03*
%TD*%
%TA.AperFunction,Conductor*%
%TO.N,5V0*%
G36*
X116193039Y-92769685D02*
G01*
X116238794Y-92822489D01*
X116250000Y-92874000D01*
X116250000Y-97078342D01*
X116230315Y-97145381D01*
X116177511Y-97191136D01*
X116108353Y-97201080D01*
X116093907Y-97198117D01*
X116067853Y-97191136D01*
X116005766Y-97174500D01*
X115854234Y-97174500D01*
X115707863Y-97213719D01*
X115576635Y-97289485D01*
X115576632Y-97289487D01*
X115469487Y-97396632D01*
X115469483Y-97396638D01*
X115445603Y-97438000D01*
X115395036Y-97486216D01*
X115338216Y-97500000D01*
X114500000Y-97500000D01*
X114500000Y-100051261D01*
X114480315Y-100118300D01*
X114427511Y-100164055D01*
X114400192Y-100172878D01*
X114257699Y-100201222D01*
X114257693Y-100201224D01*
X114106517Y-100263843D01*
X113970457Y-100354754D01*
X113854754Y-100470457D01*
X113763843Y-100606517D01*
X113701224Y-100757693D01*
X113701222Y-100757699D01*
X113669300Y-100918180D01*
X113669300Y-100918183D01*
X113669300Y-101081817D01*
X113669300Y-101081819D01*
X113669299Y-101081819D01*
X113701222Y-101242300D01*
X113701224Y-101242306D01*
X113763843Y-101393482D01*
X113854754Y-101529542D01*
X113970457Y-101645245D01*
X113970460Y-101645247D01*
X114106516Y-101736156D01*
X114257694Y-101798776D01*
X114400191Y-101827121D01*
X114462102Y-101859506D01*
X114496676Y-101920221D01*
X114500000Y-101948738D01*
X114500000Y-111376000D01*
X114480315Y-111443039D01*
X114427511Y-111488794D01*
X114376000Y-111500000D01*
X113124000Y-111500000D01*
X113056961Y-111480315D01*
X113011206Y-111427511D01*
X113000000Y-111376000D01*
X113000000Y-108500000D01*
X110874000Y-108500000D01*
X110806961Y-108480315D01*
X110761206Y-108427511D01*
X110750000Y-108376000D01*
X110750000Y-92874000D01*
X110769685Y-92806961D01*
X110822489Y-92761206D01*
X110874000Y-92750000D01*
X116126000Y-92750000D01*
X116193039Y-92769685D01*
G37*
%TD.AperFunction*%
%TD*%
%TA.AperFunction,Conductor*%
%TO.N,12V0*%
G36*
X145943039Y-102519685D02*
G01*
X145988794Y-102572489D01*
X146000000Y-102624000D01*
X146000000Y-112000000D01*
X156376000Y-112000000D01*
X156443039Y-112019685D01*
X156488794Y-112072489D01*
X156500000Y-112124000D01*
X156500000Y-113876000D01*
X156480315Y-113943039D01*
X156427511Y-113988794D01*
X156376000Y-114000000D01*
X143374000Y-114000000D01*
X143306961Y-113980315D01*
X143261206Y-113927511D01*
X143250000Y-113876000D01*
X143250000Y-105250000D01*
X141624000Y-105250000D01*
X141556961Y-105230315D01*
X141511206Y-105177511D01*
X141500000Y-105126000D01*
X141500000Y-102624000D01*
X141519685Y-102556961D01*
X141572489Y-102511206D01*
X141624000Y-102500000D01*
X145876000Y-102500000D01*
X145943039Y-102519685D01*
G37*
%TD.AperFunction*%
%TD*%
%TA.AperFunction,Conductor*%
%TO.N,3V3*%
G36*
X161726775Y-59270185D02*
G01*
X161772530Y-59322989D01*
X161782474Y-59392147D01*
X161753449Y-59455703D01*
X161735222Y-59472876D01*
X161612073Y-59567370D01*
X161612066Y-59567376D01*
X161417376Y-59762066D01*
X161417370Y-59762073D01*
X161249754Y-59980516D01*
X161112080Y-60218971D01*
X161112075Y-60218982D01*
X161006704Y-60473369D01*
X160979335Y-60575513D01*
X160945652Y-60701224D01*
X160935441Y-60739331D01*
X160935437Y-60739350D01*
X160934895Y-60743470D01*
X160906626Y-60807365D01*
X160848300Y-60845834D01*
X160778435Y-60846662D01*
X160743067Y-60830382D01*
X160675444Y-60785198D01*
X160643484Y-60763844D01*
X160584350Y-60739350D01*
X160492306Y-60701224D01*
X160492300Y-60701222D01*
X160331819Y-60669300D01*
X160331817Y-60669300D01*
X160168183Y-60669300D01*
X160168181Y-60669300D01*
X160007699Y-60701222D01*
X160007693Y-60701224D01*
X159856517Y-60763843D01*
X159720457Y-60854754D01*
X159604754Y-60970457D01*
X159513843Y-61106517D01*
X159451224Y-61257693D01*
X159451222Y-61257699D01*
X159419300Y-61418180D01*
X159419300Y-61418183D01*
X159419300Y-61581817D01*
X159419300Y-61581819D01*
X159419299Y-61581819D01*
X159451222Y-61742300D01*
X159451224Y-61742306D01*
X159513843Y-61893482D01*
X159604754Y-62029542D01*
X159720457Y-62145245D01*
X159720460Y-62145247D01*
X159856516Y-62236156D01*
X160007694Y-62298776D01*
X160007698Y-62298776D01*
X160007699Y-62298777D01*
X160168180Y-62330700D01*
X160168183Y-62330700D01*
X160331819Y-62330700D01*
X160439785Y-62309223D01*
X160492306Y-62298776D01*
X160643484Y-62236156D01*
X160779540Y-62145247D01*
X160837309Y-62087478D01*
X160899555Y-62025233D01*
X160900795Y-62026473D01*
X160951653Y-61991816D01*
X161021497Y-61989932D01*
X161081273Y-62026107D01*
X161104345Y-62062355D01*
X161112075Y-62081017D01*
X161112080Y-62081028D01*
X161163045Y-62169300D01*
X161249751Y-62319479D01*
X161249753Y-62319482D01*
X161249754Y-62319483D01*
X161417370Y-62537926D01*
X161417376Y-62537933D01*
X161612066Y-62732623D01*
X161612073Y-62732629D01*
X161740403Y-62831099D01*
X161830521Y-62900249D01*
X161952123Y-62970456D01*
X162068971Y-63037919D01*
X162068976Y-63037921D01*
X162068979Y-63037923D01*
X162323368Y-63143295D01*
X162589334Y-63214560D01*
X162862326Y-63250500D01*
X162862333Y-63250500D01*
X163137667Y-63250500D01*
X163137674Y-63250500D01*
X163410666Y-63214560D01*
X163676632Y-63143295D01*
X163931021Y-63037923D01*
X164169479Y-62900249D01*
X164387928Y-62732628D01*
X164582628Y-62537928D01*
X164750249Y-62319479D01*
X164768115Y-62288534D01*
X164818679Y-62240321D01*
X164887286Y-62227097D01*
X164952151Y-62253065D01*
X164992680Y-62309979D01*
X164999500Y-62350536D01*
X164999500Y-118399463D01*
X164979815Y-118466502D01*
X164927011Y-118512257D01*
X164857853Y-118522201D01*
X164794297Y-118493176D01*
X164768116Y-118461467D01*
X164750249Y-118430521D01*
X164750243Y-118430513D01*
X164582629Y-118212073D01*
X164582623Y-118212066D01*
X164387933Y-118017376D01*
X164387926Y-118017370D01*
X164169483Y-117849754D01*
X164169482Y-117849753D01*
X164169479Y-117849751D01*
X164074407Y-117794861D01*
X163931028Y-117712080D01*
X163931017Y-117712075D01*
X163676630Y-117606704D01*
X163543649Y-117571072D01*
X163410666Y-117535440D01*
X163410660Y-117535439D01*
X163410655Y-117535438D01*
X163137684Y-117499501D01*
X163137679Y-117499500D01*
X163137674Y-117499500D01*
X162862326Y-117499500D01*
X162862320Y-117499500D01*
X162862315Y-117499501D01*
X162589344Y-117535438D01*
X162589337Y-117535439D01*
X162589334Y-117535440D01*
X162539567Y-117548775D01*
X162323369Y-117606704D01*
X162068982Y-117712075D01*
X162068971Y-117712080D01*
X161830516Y-117849754D01*
X161612073Y-118017370D01*
X161612066Y-118017376D01*
X161417376Y-118212066D01*
X161417370Y-118212073D01*
X161249754Y-118430516D01*
X161112080Y-118668971D01*
X161112075Y-118668982D01*
X161006704Y-118923369D01*
X160935441Y-119189331D01*
X160935438Y-119189344D01*
X160899501Y-119462315D01*
X160899500Y-119462332D01*
X160899500Y-119737667D01*
X160899501Y-119737684D01*
X160935438Y-120010655D01*
X160935439Y-120010660D01*
X160935440Y-120010666D01*
X160935441Y-120010668D01*
X161006704Y-120276630D01*
X161112075Y-120531017D01*
X161112080Y-120531028D01*
X161191809Y-120669121D01*
X161249751Y-120769479D01*
X161249753Y-120769482D01*
X161249754Y-120769483D01*
X161417370Y-120987926D01*
X161417376Y-120987933D01*
X161612066Y-121182623D01*
X161612073Y-121182629D01*
X161735222Y-121277124D01*
X161776425Y-121333552D01*
X161780580Y-121403298D01*
X161746368Y-121464218D01*
X161684651Y-121496971D01*
X161659736Y-121499500D01*
X113090264Y-121499500D01*
X113023225Y-121479815D01*
X112977470Y-121427011D01*
X112967526Y-121357853D01*
X112996551Y-121294297D01*
X113014778Y-121277124D01*
X113078074Y-121228555D01*
X113137928Y-121182628D01*
X113332628Y-120987928D01*
X113500249Y-120769479D01*
X113637923Y-120531021D01*
X113743295Y-120276632D01*
X113814560Y-120010666D01*
X113850500Y-119737674D01*
X113850500Y-119462326D01*
X113814560Y-119189334D01*
X113743295Y-118923368D01*
X113637923Y-118668979D01*
X113637921Y-118668976D01*
X113637919Y-118668971D01*
X113588732Y-118583778D01*
X113500249Y-118430521D01*
X113332628Y-118212072D01*
X113332623Y-118212066D01*
X113137933Y-118017376D01*
X113137926Y-118017370D01*
X112919483Y-117849754D01*
X112919482Y-117849753D01*
X112919479Y-117849751D01*
X112824407Y-117794861D01*
X112681028Y-117712080D01*
X112681017Y-117712075D01*
X112426630Y-117606704D01*
X112293649Y-117571072D01*
X112160666Y-117535440D01*
X112160660Y-117535439D01*
X112160655Y-117535438D01*
X111887684Y-117499501D01*
X111887679Y-117499500D01*
X111887674Y-117499500D01*
X111612326Y-117499500D01*
X111612320Y-117499500D01*
X111612315Y-117499501D01*
X111339344Y-117535438D01*
X111339337Y-117535439D01*
X111339334Y-117535440D01*
X111289567Y-117548775D01*
X111073369Y-117606704D01*
X110818982Y-117712075D01*
X110818971Y-117712080D01*
X110580516Y-117849754D01*
X110362073Y-118017370D01*
X110362066Y-118017376D01*
X110167376Y-118212066D01*
X110167370Y-118212073D01*
X109999756Y-118430513D01*
X109999752Y-118430518D01*
X109999751Y-118430521D01*
X109981884Y-118461466D01*
X109931320Y-118509679D01*
X109862712Y-118522901D01*
X109797848Y-118496933D01*
X109757320Y-118440019D01*
X109750500Y-118399463D01*
X109750500Y-116831819D01*
X158919299Y-116831819D01*
X158951222Y-116992300D01*
X158951224Y-116992306D01*
X159013843Y-117143482D01*
X159104754Y-117279542D01*
X159220457Y-117395245D01*
X159220460Y-117395247D01*
X159356516Y-117486156D01*
X159507694Y-117548776D01*
X159507698Y-117548776D01*
X159507699Y-117548777D01*
X159668180Y-117580700D01*
X159668183Y-117580700D01*
X159831819Y-117580700D01*
X159939785Y-117559223D01*
X159992306Y-117548776D01*
X160143484Y-117486156D01*
X160279540Y-117395247D01*
X160395247Y-117279540D01*
X160486156Y-117143484D01*
X160548776Y-116992306D01*
X160580700Y-116831817D01*
X160580700Y-116668183D01*
X160580700Y-116668180D01*
X160548777Y-116507699D01*
X160548776Y-116507698D01*
X160548776Y-116507694D01*
X160486156Y-116356516D01*
X160395247Y-116220460D01*
X160395245Y-116220457D01*
X160279542Y-116104754D01*
X160195762Y-116048775D01*
X160143484Y-116013844D01*
X160076639Y-115986156D01*
X159992306Y-115951224D01*
X159992300Y-115951222D01*
X159831819Y-115919300D01*
X159831817Y-115919300D01*
X159668183Y-115919300D01*
X159668181Y-115919300D01*
X159507699Y-115951222D01*
X159507693Y-115951224D01*
X159356517Y-116013843D01*
X159220457Y-116104754D01*
X159104754Y-116220457D01*
X159013843Y-116356517D01*
X158951224Y-116507693D01*
X158951222Y-116507699D01*
X158919300Y-116668180D01*
X158919300Y-116668183D01*
X158919300Y-116831817D01*
X158919300Y-116831819D01*
X158919299Y-116831819D01*
X109750500Y-116831819D01*
X109750500Y-115081819D01*
X123919299Y-115081819D01*
X123951222Y-115242300D01*
X123951224Y-115242306D01*
X124013843Y-115393482D01*
X124104754Y-115529542D01*
X124220457Y-115645245D01*
X124220460Y-115645247D01*
X124356516Y-115736156D01*
X124507694Y-115798776D01*
X124507698Y-115798776D01*
X124507699Y-115798777D01*
X124668180Y-115830700D01*
X124668183Y-115830700D01*
X124831819Y-115830700D01*
X124939785Y-115809223D01*
X124992306Y-115798776D01*
X125143484Y-115736156D01*
X125279540Y-115645247D01*
X125395247Y-115529540D01*
X125486156Y-115393484D01*
X125548776Y-115242306D01*
X125580700Y-115081819D01*
X126169299Y-115081819D01*
X126201222Y-115242300D01*
X126201224Y-115242306D01*
X126263843Y-115393482D01*
X126354754Y-115529542D01*
X126470457Y-115645245D01*
X126470460Y-115645247D01*
X126606516Y-115736156D01*
X126757694Y-115798776D01*
X126757698Y-115798776D01*
X126757699Y-115798777D01*
X126918180Y-115830700D01*
X126918183Y-115830700D01*
X127081819Y-115830700D01*
X127189785Y-115809223D01*
X127242306Y-115798776D01*
X127393484Y-115736156D01*
X127529540Y-115645247D01*
X127645247Y-115529540D01*
X127736156Y-115393484D01*
X127798776Y-115242306D01*
X127830700Y-115081819D01*
X134919299Y-115081819D01*
X134951222Y-115242300D01*
X134951224Y-115242306D01*
X135013843Y-115393482D01*
X135104754Y-115529542D01*
X135220457Y-115645245D01*
X135220460Y-115645247D01*
X135356516Y-115736156D01*
X135507694Y-115798776D01*
X135507698Y-115798776D01*
X135507699Y-115798777D01*
X135668180Y-115830700D01*
X135668183Y-115830700D01*
X135831819Y-115830700D01*
X135939785Y-115809223D01*
X135992306Y-115798776D01*
X136143484Y-115736156D01*
X136279540Y-115645247D01*
X136395247Y-115529540D01*
X136486156Y-115393484D01*
X136548776Y-115242306D01*
X136580700Y-115081819D01*
X137169299Y-115081819D01*
X137201222Y-115242300D01*
X137201224Y-115242306D01*
X137263843Y-115393482D01*
X137354754Y-115529542D01*
X137470457Y-115645245D01*
X137470460Y-115645247D01*
X137606516Y-115736156D01*
X137757694Y-115798776D01*
X137757698Y-115798776D01*
X137757699Y-115798777D01*
X137918180Y-115830700D01*
X137918183Y-115830700D01*
X138081819Y-115830700D01*
X138189785Y-115809223D01*
X138242306Y-115798776D01*
X138393484Y-115736156D01*
X138529540Y-115645247D01*
X138645247Y-115529540D01*
X138736156Y-115393484D01*
X138798776Y-115242306D01*
X138830700Y-115081817D01*
X138830700Y-114918183D01*
X138830700Y-114918180D01*
X138798777Y-114757699D01*
X138798776Y-114757698D01*
X138798776Y-114757694D01*
X138736156Y-114606516D01*
X138645247Y-114470460D01*
X138645245Y-114470457D01*
X138529542Y-114354754D01*
X138461512Y-114309298D01*
X138393484Y-114263844D01*
X138380698Y-114258548D01*
X138242306Y-114201224D01*
X138242300Y-114201222D01*
X138081819Y-114169300D01*
X138081817Y-114169300D01*
X137918183Y-114169300D01*
X137918181Y-114169300D01*
X137757699Y-114201222D01*
X137757693Y-114201224D01*
X137606517Y-114263843D01*
X137470457Y-114354754D01*
X137354754Y-114470457D01*
X137263843Y-114606517D01*
X137201224Y-114757693D01*
X137201222Y-114757699D01*
X137169300Y-114918180D01*
X137169300Y-114918183D01*
X137169300Y-115081817D01*
X137169300Y-115081819D01*
X137169299Y-115081819D01*
X136580700Y-115081819D01*
X136580700Y-115081817D01*
X136580700Y-114918183D01*
X136580700Y-114918180D01*
X136548777Y-114757699D01*
X136548776Y-114757698D01*
X136548776Y-114757694D01*
X136486156Y-114606516D01*
X136395247Y-114470460D01*
X136395245Y-114470457D01*
X136279542Y-114354754D01*
X136211512Y-114309298D01*
X136143484Y-114263844D01*
X136130698Y-114258548D01*
X135992306Y-114201224D01*
X135992300Y-114201222D01*
X135831819Y-114169300D01*
X135831817Y-114169300D01*
X135668183Y-114169300D01*
X135668181Y-114169300D01*
X135507699Y-114201222D01*
X135507693Y-114201224D01*
X135356517Y-114263843D01*
X135220457Y-114354754D01*
X135104754Y-114470457D01*
X135013843Y-114606517D01*
X134951224Y-114757693D01*
X134951222Y-114757699D01*
X134919300Y-114918180D01*
X134919300Y-114918183D01*
X134919300Y-115081817D01*
X134919300Y-115081819D01*
X134919299Y-115081819D01*
X127830700Y-115081819D01*
X127830700Y-115081817D01*
X127830700Y-114918183D01*
X127830700Y-114918180D01*
X127798777Y-114757699D01*
X127798776Y-114757698D01*
X127798776Y-114757694D01*
X127736156Y-114606516D01*
X127645247Y-114470460D01*
X127645245Y-114470457D01*
X127529542Y-114354754D01*
X127461512Y-114309298D01*
X127393484Y-114263844D01*
X127380698Y-114258548D01*
X127242306Y-114201224D01*
X127242300Y-114201222D01*
X127081819Y-114169300D01*
X127081817Y-114169300D01*
X126918183Y-114169300D01*
X126918181Y-114169300D01*
X126757699Y-114201222D01*
X126757693Y-114201224D01*
X126606517Y-114263843D01*
X126470457Y-114354754D01*
X126354754Y-114470457D01*
X126263843Y-114606517D01*
X126201224Y-114757693D01*
X126201222Y-114757699D01*
X126169300Y-114918180D01*
X126169300Y-114918183D01*
X126169300Y-115081817D01*
X126169300Y-115081819D01*
X126169299Y-115081819D01*
X125580700Y-115081819D01*
X125580700Y-115081817D01*
X125580700Y-114918183D01*
X125580700Y-114918180D01*
X125548777Y-114757699D01*
X125548776Y-114757698D01*
X125548776Y-114757694D01*
X125486156Y-114606516D01*
X125395247Y-114470460D01*
X125395245Y-114470457D01*
X125279542Y-114354754D01*
X125211512Y-114309298D01*
X125143484Y-114263844D01*
X125130698Y-114258548D01*
X124992306Y-114201224D01*
X124992300Y-114201222D01*
X124831819Y-114169300D01*
X124831817Y-114169300D01*
X124668183Y-114169300D01*
X124668181Y-114169300D01*
X124507699Y-114201222D01*
X124507693Y-114201224D01*
X124356517Y-114263843D01*
X124220457Y-114354754D01*
X124104754Y-114470457D01*
X124013843Y-114606517D01*
X123951224Y-114757693D01*
X123951222Y-114757699D01*
X123919300Y-114918180D01*
X123919300Y-114918183D01*
X123919300Y-115081817D01*
X123919300Y-115081819D01*
X123919299Y-115081819D01*
X109750500Y-115081819D01*
X109750500Y-114724650D01*
X109770185Y-114657611D01*
X109822989Y-114611856D01*
X109892147Y-114601912D01*
X109955703Y-114630937D01*
X109962181Y-114636969D01*
X109970457Y-114645245D01*
X109970460Y-114645247D01*
X110106516Y-114736156D01*
X110257694Y-114798776D01*
X110257698Y-114798776D01*
X110257699Y-114798777D01*
X110418180Y-114830700D01*
X110418183Y-114830700D01*
X110581819Y-114830700D01*
X110689785Y-114809223D01*
X110742306Y-114798776D01*
X110893484Y-114736156D01*
X111029540Y-114645247D01*
X111145247Y-114529540D01*
X111236156Y-114393484D01*
X111298776Y-114242306D01*
X111319624Y-114137497D01*
X111330700Y-114081819D01*
X111919299Y-114081819D01*
X111951222Y-114242300D01*
X111951224Y-114242306D01*
X112013843Y-114393482D01*
X112104754Y-114529542D01*
X112220457Y-114645245D01*
X112220460Y-114645247D01*
X112356516Y-114736156D01*
X112507694Y-114798776D01*
X112507698Y-114798776D01*
X112507699Y-114798777D01*
X112668180Y-114830700D01*
X112668183Y-114830700D01*
X112831819Y-114830700D01*
X112939785Y-114809223D01*
X112992306Y-114798776D01*
X113143484Y-114736156D01*
X113279540Y-114645247D01*
X113395247Y-114529540D01*
X113486156Y-114393484D01*
X113548776Y-114242306D01*
X113569624Y-114137497D01*
X113580700Y-114081819D01*
X114169299Y-114081819D01*
X114201222Y-114242300D01*
X114201224Y-114242306D01*
X114263843Y-114393482D01*
X114354754Y-114529542D01*
X114470457Y-114645245D01*
X114470460Y-114645247D01*
X114606516Y-114736156D01*
X114757694Y-114798776D01*
X114757698Y-114798776D01*
X114757699Y-114798777D01*
X114918180Y-114830700D01*
X114918183Y-114830700D01*
X115081819Y-114830700D01*
X115189785Y-114809223D01*
X115242306Y-114798776D01*
X115393484Y-114736156D01*
X115529540Y-114645247D01*
X115645247Y-114529540D01*
X115736156Y-114393484D01*
X115798776Y-114242306D01*
X115819624Y-114137497D01*
X115830700Y-114081819D01*
X116419299Y-114081819D01*
X116451222Y-114242300D01*
X116451224Y-114242306D01*
X116513843Y-114393482D01*
X116604754Y-114529542D01*
X116720457Y-114645245D01*
X116720460Y-114645247D01*
X116856516Y-114736156D01*
X117007694Y-114798776D01*
X117007698Y-114798776D01*
X117007699Y-114798777D01*
X117168180Y-114830700D01*
X117168183Y-114830700D01*
X117331819Y-114830700D01*
X117439785Y-114809223D01*
X117492306Y-114798776D01*
X117643484Y-114736156D01*
X117779540Y-114645247D01*
X117895247Y-114529540D01*
X117986156Y-114393484D01*
X118048776Y-114242306D01*
X118069624Y-114137497D01*
X118080700Y-114081819D01*
X118080700Y-114033849D01*
X118100385Y-113966810D01*
X118153189Y-113921055D01*
X118222347Y-113911111D01*
X118273588Y-113930746D01*
X118356516Y-113986156D01*
X118507694Y-114048776D01*
X118507698Y-114048776D01*
X118507699Y-114048777D01*
X118668180Y-114080700D01*
X118668183Y-114080700D01*
X118831819Y-114080700D01*
X118939785Y-114059223D01*
X118992306Y-114048776D01*
X119143484Y-113986156D01*
X119279540Y-113895247D01*
X119395247Y-113779540D01*
X119486156Y-113643484D01*
X119548776Y-113492306D01*
X119567830Y-113396516D01*
X119580700Y-113331819D01*
X119580700Y-113168180D01*
X119563521Y-113081819D01*
X124919299Y-113081819D01*
X124951222Y-113242300D01*
X124951224Y-113242306D01*
X125013843Y-113393482D01*
X125104754Y-113529542D01*
X125220457Y-113645245D01*
X125220460Y-113645247D01*
X125356516Y-113736156D01*
X125507694Y-113798776D01*
X125507698Y-113798776D01*
X125507699Y-113798777D01*
X125668180Y-113830700D01*
X125668183Y-113830700D01*
X125831819Y-113830700D01*
X125939785Y-113809223D01*
X125992306Y-113798776D01*
X126143484Y-113736156D01*
X126279540Y-113645247D01*
X126395247Y-113529540D01*
X126486156Y-113393484D01*
X126548776Y-113242306D01*
X126580700Y-113081817D01*
X126580700Y-112918183D01*
X126580700Y-112918180D01*
X126548777Y-112757699D01*
X126548776Y-112757698D01*
X126548776Y-112757694D01*
X126486156Y-112606516D01*
X126395247Y-112470460D01*
X126395245Y-112470457D01*
X126279542Y-112354754D01*
X126211512Y-112309298D01*
X126143484Y-112263844D01*
X125992306Y-112201224D01*
X125992300Y-112201222D01*
X125831819Y-112169300D01*
X125831817Y-112169300D01*
X125668183Y-112169300D01*
X125668181Y-112169300D01*
X125507699Y-112201222D01*
X125507693Y-112201224D01*
X125356517Y-112263843D01*
X125220457Y-112354754D01*
X125104754Y-112470457D01*
X125013843Y-112606517D01*
X124951224Y-112757693D01*
X124951222Y-112757699D01*
X124919300Y-112918180D01*
X124919300Y-112918183D01*
X124919300Y-113081817D01*
X124919300Y-113081819D01*
X124919299Y-113081819D01*
X119563521Y-113081819D01*
X119548777Y-113007699D01*
X119548776Y-113007698D01*
X119548776Y-113007694D01*
X119548774Y-113007689D01*
X119528832Y-112959543D01*
X119486157Y-112856517D01*
X119395245Y-112720457D01*
X119279542Y-112604754D01*
X119211512Y-112559298D01*
X119143484Y-112513844D01*
X118992306Y-112451224D01*
X118992300Y-112451222D01*
X118831819Y-112419300D01*
X118831817Y-112419300D01*
X118668183Y-112419300D01*
X118668181Y-112419300D01*
X118507699Y-112451222D01*
X118507693Y-112451224D01*
X118356517Y-112513843D01*
X118220457Y-112604754D01*
X118104754Y-112720457D01*
X118013843Y-112856517D01*
X117951224Y-113007693D01*
X117951222Y-113007699D01*
X117919300Y-113168180D01*
X117919300Y-113216150D01*
X117899615Y-113283189D01*
X117846811Y-113328944D01*
X117777653Y-113338888D01*
X117726410Y-113319253D01*
X117660704Y-113275350D01*
X117643484Y-113263844D01*
X117492306Y-113201224D01*
X117492300Y-113201222D01*
X117331819Y-113169300D01*
X117331817Y-113169300D01*
X117168183Y-113169300D01*
X117168181Y-113169300D01*
X117007699Y-113201222D01*
X117007693Y-113201224D01*
X116856517Y-113263843D01*
X116720457Y-113354754D01*
X116604754Y-113470457D01*
X116513843Y-113606517D01*
X116451224Y-113757693D01*
X116451222Y-113757699D01*
X116419300Y-113918180D01*
X116419300Y-113918183D01*
X116419300Y-114081817D01*
X116419300Y-114081819D01*
X116419299Y-114081819D01*
X115830700Y-114081819D01*
X115830700Y-113918180D01*
X115798777Y-113757699D01*
X115798776Y-113757698D01*
X115798776Y-113757694D01*
X115736156Y-113606516D01*
X115645247Y-113470460D01*
X115645245Y-113470457D01*
X115529542Y-113354754D01*
X115410704Y-113275350D01*
X115393484Y-113263844D01*
X115242306Y-113201224D01*
X115242300Y-113201222D01*
X115081819Y-113169300D01*
X115081817Y-113169300D01*
X114918183Y-113169300D01*
X114918181Y-113169300D01*
X114757699Y-113201222D01*
X114757693Y-113201224D01*
X114606517Y-113263843D01*
X114470457Y-113354754D01*
X114354754Y-113470457D01*
X114263843Y-113606517D01*
X114201224Y-113757693D01*
X114201222Y-113757699D01*
X114169300Y-113918180D01*
X114169300Y-113918183D01*
X114169300Y-114081817D01*
X114169300Y-114081819D01*
X114169299Y-114081819D01*
X113580700Y-114081819D01*
X113580700Y-113918180D01*
X113548777Y-113757699D01*
X113548776Y-113757698D01*
X113548776Y-113757694D01*
X113486156Y-113606516D01*
X113395247Y-113470460D01*
X113395245Y-113470457D01*
X113279542Y-113354754D01*
X113160704Y-113275350D01*
X113143484Y-113263844D01*
X112992306Y-113201224D01*
X112992300Y-113201222D01*
X112831819Y-113169300D01*
X112831817Y-113169300D01*
X112668183Y-113169300D01*
X112668181Y-113169300D01*
X112507699Y-113201222D01*
X112507693Y-113201224D01*
X112356517Y-113263843D01*
X112220457Y-113354754D01*
X112104754Y-113470457D01*
X112013843Y-113606517D01*
X111951224Y-113757693D01*
X111951222Y-113757699D01*
X111919300Y-113918180D01*
X111919300Y-113918183D01*
X111919300Y-114081817D01*
X111919300Y-114081819D01*
X111919299Y-114081819D01*
X111330700Y-114081819D01*
X111330700Y-113918180D01*
X111298777Y-113757699D01*
X111298776Y-113757698D01*
X111298776Y-113757694D01*
X111236156Y-113606516D01*
X111145247Y-113470460D01*
X111145245Y-113470457D01*
X111029542Y-113354754D01*
X110910704Y-113275350D01*
X110893484Y-113263844D01*
X110742306Y-113201224D01*
X110742300Y-113201222D01*
X110581819Y-113169300D01*
X110581817Y-113169300D01*
X110418183Y-113169300D01*
X110418181Y-113169300D01*
X110257699Y-113201222D01*
X110257693Y-113201224D01*
X110106517Y-113263843D01*
X109970457Y-113354754D01*
X109970456Y-113354755D01*
X109962181Y-113363031D01*
X109900858Y-113396516D01*
X109831166Y-113391532D01*
X109775233Y-113349660D01*
X109750816Y-113284196D01*
X109750500Y-113275350D01*
X109750500Y-110581819D01*
X110419299Y-110581819D01*
X110451222Y-110742300D01*
X110451224Y-110742306D01*
X110513843Y-110893482D01*
X110604754Y-111029542D01*
X110720457Y-111145245D01*
X110720460Y-111145247D01*
X110856516Y-111236156D01*
X111007694Y-111298776D01*
X111007698Y-111298776D01*
X111007699Y-111298777D01*
X111168180Y-111330700D01*
X111168183Y-111330700D01*
X111331819Y-111330700D01*
X111439785Y-111309223D01*
X111492306Y-111298776D01*
X111643484Y-111236156D01*
X111779540Y-111145247D01*
X111895247Y-111029540D01*
X111986156Y-110893484D01*
X112048776Y-110742306D01*
X112080700Y-110581817D01*
X112080700Y-110418183D01*
X112080700Y-110418180D01*
X112048777Y-110257699D01*
X112048776Y-110257698D01*
X112048776Y-110257694D01*
X111986156Y-110106516D01*
X111895247Y-109970460D01*
X111895245Y-109970457D01*
X111779542Y-109854754D01*
X111711512Y-109809298D01*
X111643484Y-109763844D01*
X111492306Y-109701224D01*
X111492300Y-109701222D01*
X111331819Y-109669300D01*
X111331817Y-109669300D01*
X111168183Y-109669300D01*
X111168181Y-109669300D01*
X111007699Y-109701222D01*
X111007693Y-109701224D01*
X110856517Y-109763843D01*
X110720457Y-109854754D01*
X110604754Y-109970457D01*
X110513843Y-110106517D01*
X110451224Y-110257693D01*
X110451222Y-110257699D01*
X110419300Y-110418180D01*
X110419300Y-110418183D01*
X110419300Y-110581817D01*
X110419300Y-110581819D01*
X110419299Y-110581819D01*
X109750500Y-110581819D01*
X109750500Y-92874000D01*
X110244500Y-92874000D01*
X110244500Y-108376000D01*
X110244501Y-108376009D01*
X110256052Y-108483450D01*
X110256054Y-108483462D01*
X110267260Y-108534972D01*
X110301383Y-108637497D01*
X110301386Y-108637503D01*
X110379171Y-108758537D01*
X110379179Y-108758548D01*
X110424923Y-108811340D01*
X110424926Y-108811343D01*
X110424930Y-108811347D01*
X110533664Y-108905567D01*
X110664541Y-108965338D01*
X110731580Y-108985023D01*
X110731584Y-108985024D01*
X110874000Y-109005500D01*
X112370500Y-109005500D01*
X112437539Y-109025185D01*
X112483294Y-109077989D01*
X112494500Y-109129500D01*
X112494500Y-111376000D01*
X112494501Y-111376009D01*
X112506052Y-111483450D01*
X112506054Y-111483462D01*
X112517260Y-111534972D01*
X112551383Y-111637497D01*
X112551386Y-111637503D01*
X112629171Y-111758537D01*
X112629179Y-111758548D01*
X112674923Y-111811340D01*
X112674926Y-111811343D01*
X112674930Y-111811347D01*
X112783664Y-111905567D01*
X112783667Y-111905568D01*
X112783668Y-111905569D01*
X112877925Y-111948616D01*
X112914541Y-111965338D01*
X112981580Y-111985023D01*
X112981584Y-111985024D01*
X113124000Y-112005500D01*
X113124003Y-112005500D01*
X114375990Y-112005500D01*
X114376000Y-112005500D01*
X114483456Y-111993947D01*
X114534967Y-111982741D01*
X114569197Y-111971347D01*
X114637497Y-111948616D01*
X114637501Y-111948613D01*
X114637504Y-111948613D01*
X114758543Y-111870825D01*
X114811347Y-111825070D01*
X114905567Y-111716336D01*
X114965338Y-111585459D01*
X114985023Y-111518420D01*
X114985024Y-111518416D01*
X115005500Y-111376000D01*
X115005500Y-107831819D01*
X138919299Y-107831819D01*
X138951222Y-107992300D01*
X138951224Y-107992306D01*
X139013843Y-108143482D01*
X139104754Y-108279542D01*
X139220457Y-108395245D01*
X139220460Y-108395247D01*
X139356516Y-108486156D01*
X139507694Y-108548776D01*
X139507698Y-108548776D01*
X139507699Y-108548777D01*
X139668180Y-108580700D01*
X139668183Y-108580700D01*
X139831819Y-108580700D01*
X139939785Y-108559223D01*
X139992306Y-108548776D01*
X140143484Y-108486156D01*
X140279540Y-108395247D01*
X140395247Y-108279540D01*
X140486156Y-108143484D01*
X140548776Y-107992306D01*
X140580700Y-107831817D01*
X140580700Y-107668183D01*
X140580700Y-107668180D01*
X140548777Y-107507699D01*
X140548776Y-107507698D01*
X140548776Y-107507694D01*
X140486156Y-107356516D01*
X140395247Y-107220460D01*
X140395245Y-107220457D01*
X140279542Y-107104754D01*
X140153221Y-107020350D01*
X140143484Y-107013844D01*
X139992306Y-106951224D01*
X139992300Y-106951222D01*
X139831819Y-106919300D01*
X139831817Y-106919300D01*
X139668183Y-106919300D01*
X139668181Y-106919300D01*
X139507699Y-106951222D01*
X139507693Y-106951224D01*
X139356517Y-107013843D01*
X139220457Y-107104754D01*
X139104754Y-107220457D01*
X139013843Y-107356517D01*
X138951224Y-107507693D01*
X138951222Y-107507699D01*
X138919300Y-107668180D01*
X138919300Y-107668183D01*
X138919300Y-107831817D01*
X138919300Y-107831819D01*
X138919299Y-107831819D01*
X115005500Y-107831819D01*
X115005500Y-105831819D01*
X121419299Y-105831819D01*
X121451222Y-105992300D01*
X121451224Y-105992306D01*
X121513843Y-106143482D01*
X121604754Y-106279542D01*
X121720457Y-106395245D01*
X121720460Y-106395247D01*
X121856516Y-106486156D01*
X122007694Y-106548776D01*
X122007698Y-106548776D01*
X122007699Y-106548777D01*
X122168180Y-106580700D01*
X122168183Y-106580700D01*
X122331819Y-106580700D01*
X122439785Y-106559223D01*
X122492306Y-106548776D01*
X122643484Y-106486156D01*
X122779540Y-106395247D01*
X122895247Y-106279540D01*
X122986156Y-106143484D01*
X123048776Y-105992306D01*
X123080700Y-105831817D01*
X123080700Y-105668183D01*
X123080700Y-105668180D01*
X123048777Y-105507699D01*
X123048776Y-105507698D01*
X123048776Y-105507694D01*
X122986156Y-105356516D01*
X122895247Y-105220460D01*
X122895245Y-105220457D01*
X122779542Y-105104754D01*
X122711512Y-105059298D01*
X122643484Y-105013844D01*
X122492306Y-104951224D01*
X122492300Y-104951222D01*
X122331819Y-104919300D01*
X122331817Y-104919300D01*
X122168183Y-104919300D01*
X122168181Y-104919300D01*
X122007699Y-104951222D01*
X122007693Y-104951224D01*
X121856517Y-105013843D01*
X121720457Y-105104754D01*
X121604754Y-105220457D01*
X121513843Y-105356517D01*
X121451224Y-105507693D01*
X121451222Y-105507699D01*
X121419300Y-105668180D01*
X121419300Y-105668183D01*
X121419300Y-105831817D01*
X121419300Y-105831819D01*
X121419299Y-105831819D01*
X115005500Y-105831819D01*
X115005500Y-103831819D01*
X116669299Y-103831819D01*
X116701222Y-103992300D01*
X116701224Y-103992306D01*
X116763843Y-104143482D01*
X116854754Y-104279542D01*
X116970457Y-104395245D01*
X116970460Y-104395247D01*
X117106516Y-104486156D01*
X117257694Y-104548776D01*
X117257698Y-104548776D01*
X117257699Y-104548777D01*
X117418180Y-104580700D01*
X117418183Y-104580700D01*
X117581819Y-104580700D01*
X117689785Y-104559223D01*
X117742306Y-104548776D01*
X117893484Y-104486156D01*
X118029540Y-104395247D01*
X118145247Y-104279540D01*
X118236156Y-104143484D01*
X118298776Y-103992306D01*
X118330700Y-103831817D01*
X118330700Y-103668183D01*
X118330700Y-103668180D01*
X118298777Y-103507699D01*
X118298776Y-103507698D01*
X118298776Y-103507694D01*
X118236156Y-103356516D01*
X118145247Y-103220460D01*
X118145245Y-103220457D01*
X118029542Y-103104754D01*
X117916975Y-103029540D01*
X117893484Y-103013844D01*
X117742306Y-102951224D01*
X117742300Y-102951222D01*
X117581819Y-102919300D01*
X117581817Y-102919300D01*
X117418183Y-102919300D01*
X117418181Y-102919300D01*
X117257699Y-102951222D01*
X117257693Y-102951224D01*
X117106517Y-103013843D01*
X116970457Y-103104754D01*
X116854754Y-103220457D01*
X116763843Y-103356517D01*
X116701224Y-103507693D01*
X116701222Y-103507699D01*
X116669300Y-103668180D01*
X116669300Y-103668183D01*
X116669300Y-103831817D01*
X116669300Y-103831819D01*
X116669299Y-103831819D01*
X115005500Y-103831819D01*
X115005500Y-102624000D01*
X140994500Y-102624000D01*
X140994500Y-105126000D01*
X140994501Y-105126009D01*
X141006052Y-105233450D01*
X141006054Y-105233462D01*
X141017260Y-105284972D01*
X141051383Y-105387497D01*
X141051386Y-105387503D01*
X141129171Y-105508537D01*
X141129179Y-105508548D01*
X141174923Y-105561340D01*
X141174926Y-105561343D01*
X141174930Y-105561347D01*
X141283664Y-105655567D01*
X141283667Y-105655568D01*
X141283668Y-105655569D01*
X141311288Y-105668183D01*
X141414541Y-105715338D01*
X141481580Y-105735023D01*
X141481584Y-105735024D01*
X141624000Y-105755500D01*
X142620500Y-105755500D01*
X142687539Y-105775185D01*
X142733294Y-105827989D01*
X142744500Y-105879500D01*
X142744500Y-107020350D01*
X142724815Y-107087389D01*
X142672011Y-107133144D01*
X142602853Y-107143088D01*
X142539297Y-107114063D01*
X142532819Y-107108031D01*
X142529542Y-107104754D01*
X142403221Y-107020350D01*
X142393484Y-107013844D01*
X142242306Y-106951224D01*
X142242300Y-106951222D01*
X142081819Y-106919300D01*
X142081817Y-106919300D01*
X141918183Y-106919300D01*
X141918181Y-106919300D01*
X141757699Y-106951222D01*
X141757693Y-106951224D01*
X141606517Y-107013843D01*
X141470457Y-107104754D01*
X141354754Y-107220457D01*
X141263843Y-107356517D01*
X141201224Y-107507693D01*
X141201222Y-107507699D01*
X141169300Y-107668180D01*
X141169300Y-107668183D01*
X141169300Y-107831817D01*
X141169300Y-107831819D01*
X141169299Y-107831819D01*
X141201222Y-107992300D01*
X141201224Y-107992306D01*
X141263843Y-108143482D01*
X141354754Y-108279542D01*
X141470457Y-108395245D01*
X141470460Y-108395247D01*
X141606516Y-108486156D01*
X141757694Y-108548776D01*
X141757698Y-108548776D01*
X141757699Y-108548777D01*
X141918180Y-108580700D01*
X141918183Y-108580700D01*
X142081819Y-108580700D01*
X142189785Y-108559223D01*
X142242306Y-108548776D01*
X142393484Y-108486156D01*
X142529540Y-108395247D01*
X142529543Y-108395244D01*
X142532819Y-108391969D01*
X142594142Y-108358484D01*
X142663834Y-108363468D01*
X142719767Y-108405340D01*
X142744184Y-108470804D01*
X142744500Y-108479650D01*
X142744500Y-113876000D01*
X142744501Y-113876009D01*
X142756052Y-113983450D01*
X142756054Y-113983462D01*
X142767260Y-114034972D01*
X142801383Y-114137497D01*
X142801386Y-114137503D01*
X142879171Y-114258537D01*
X142879179Y-114258548D01*
X142924923Y-114311340D01*
X142924926Y-114311343D01*
X142924930Y-114311347D01*
X143033664Y-114405567D01*
X143033667Y-114405568D01*
X143033668Y-114405569D01*
X143127925Y-114448616D01*
X143164541Y-114465338D01*
X143231580Y-114485023D01*
X143231584Y-114485024D01*
X143374000Y-114505500D01*
X149520350Y-114505500D01*
X149587389Y-114525185D01*
X149633144Y-114577989D01*
X149643088Y-114647147D01*
X149614063Y-114710703D01*
X149608031Y-114717181D01*
X149604755Y-114720456D01*
X149604754Y-114720457D01*
X149513843Y-114856517D01*
X149451224Y-115007693D01*
X149451222Y-115007699D01*
X149419300Y-115168180D01*
X149419300Y-115168183D01*
X149419300Y-115331817D01*
X149419300Y-115331819D01*
X149419299Y-115331819D01*
X149451222Y-115492300D01*
X149451224Y-115492306D01*
X149513843Y-115643482D01*
X149604754Y-115779542D01*
X149720457Y-115895245D01*
X149720460Y-115895247D01*
X149856516Y-115986156D01*
X150007694Y-116048776D01*
X150007698Y-116048776D01*
X150007699Y-116048777D01*
X150168180Y-116080700D01*
X150168183Y-116080700D01*
X150331819Y-116080700D01*
X150439785Y-116059223D01*
X150492306Y-116048776D01*
X150643484Y-115986156D01*
X150779540Y-115895247D01*
X150895247Y-115779540D01*
X150986156Y-115643484D01*
X151048776Y-115492306D01*
X151059223Y-115439785D01*
X151080700Y-115331819D01*
X151080700Y-115168180D01*
X151048777Y-115007699D01*
X151048776Y-115007698D01*
X151048776Y-115007694D01*
X150986156Y-114856516D01*
X150895247Y-114720460D01*
X150895245Y-114720457D01*
X150891969Y-114717181D01*
X150858484Y-114655858D01*
X150863468Y-114586166D01*
X150905340Y-114530233D01*
X150970804Y-114505816D01*
X150979650Y-114505500D01*
X156375990Y-114505500D01*
X156376000Y-114505500D01*
X156483456Y-114493947D01*
X156534967Y-114482741D01*
X156571874Y-114470457D01*
X156637497Y-114448616D01*
X156637501Y-114448613D01*
X156637504Y-114448613D01*
X156758543Y-114370825D01*
X156811347Y-114325070D01*
X156905567Y-114216336D01*
X156965338Y-114085459D01*
X156985023Y-114018420D01*
X156985024Y-114018416D01*
X157005500Y-113876000D01*
X157005500Y-112124000D01*
X156993947Y-112016544D01*
X156982741Y-111965033D01*
X156977276Y-111948613D01*
X156948616Y-111862502D01*
X156948613Y-111862496D01*
X156881809Y-111758548D01*
X156870825Y-111741457D01*
X156870820Y-111741451D01*
X156825076Y-111688659D01*
X156825072Y-111688656D01*
X156825070Y-111688653D01*
X156716336Y-111594433D01*
X156716333Y-111594431D01*
X156716331Y-111594430D01*
X156585465Y-111534664D01*
X156585460Y-111534662D01*
X156585459Y-111534662D01*
X156540766Y-111521538D01*
X156518417Y-111514976D01*
X156470944Y-111508150D01*
X156376000Y-111494500D01*
X156375998Y-111494500D01*
X146629500Y-111494500D01*
X146562461Y-111474815D01*
X146516706Y-111422011D01*
X146505500Y-111370500D01*
X146505500Y-110831819D01*
X158919299Y-110831819D01*
X158951222Y-110992300D01*
X158951224Y-110992306D01*
X159013843Y-111143482D01*
X159104754Y-111279542D01*
X159220457Y-111395245D01*
X159220460Y-111395247D01*
X159356516Y-111486156D01*
X159507694Y-111548776D01*
X159507698Y-111548776D01*
X159507699Y-111548777D01*
X159668180Y-111580700D01*
X159668183Y-111580700D01*
X159831819Y-111580700D01*
X159939785Y-111559223D01*
X159992306Y-111548776D01*
X160143484Y-111486156D01*
X160279540Y-111395247D01*
X160395247Y-111279540D01*
X160486156Y-111143484D01*
X160548776Y-110992306D01*
X160559223Y-110939785D01*
X160580700Y-110831819D01*
X160580700Y-110668180D01*
X160548777Y-110507699D01*
X160548776Y-110507698D01*
X160548776Y-110507694D01*
X160486156Y-110356516D01*
X160395247Y-110220460D01*
X160395245Y-110220457D01*
X160279542Y-110104754D01*
X160211512Y-110059298D01*
X160143484Y-110013844D01*
X159992306Y-109951224D01*
X159992300Y-109951222D01*
X159831819Y-109919300D01*
X159831817Y-109919300D01*
X159668183Y-109919300D01*
X159668181Y-109919300D01*
X159507699Y-109951222D01*
X159507693Y-109951224D01*
X159356517Y-110013843D01*
X159220457Y-110104754D01*
X159104754Y-110220457D01*
X159013843Y-110356517D01*
X158951224Y-110507693D01*
X158951222Y-110507699D01*
X158919300Y-110668180D01*
X158919300Y-110668183D01*
X158919300Y-110831817D01*
X158919300Y-110831819D01*
X158919299Y-110831819D01*
X146505500Y-110831819D01*
X146505500Y-108331819D01*
X147419299Y-108331819D01*
X147451222Y-108492300D01*
X147451224Y-108492306D01*
X147513843Y-108643482D01*
X147604754Y-108779542D01*
X147720457Y-108895245D01*
X147720460Y-108895247D01*
X147856516Y-108986156D01*
X148007694Y-109048776D01*
X148007698Y-109048776D01*
X148007699Y-109048777D01*
X148168180Y-109080700D01*
X148168183Y-109080700D01*
X148331819Y-109080700D01*
X148439785Y-109059223D01*
X148492306Y-109048776D01*
X148643484Y-108986156D01*
X148779540Y-108895247D01*
X148895247Y-108779540D01*
X148986156Y-108643484D01*
X149048776Y-108492306D01*
X149068735Y-108391969D01*
X149080700Y-108331819D01*
X149669299Y-108331819D01*
X149701222Y-108492300D01*
X149701224Y-108492306D01*
X149763843Y-108643482D01*
X149854754Y-108779542D01*
X149970457Y-108895245D01*
X149970460Y-108895247D01*
X150106516Y-108986156D01*
X150257694Y-109048776D01*
X150257698Y-109048776D01*
X150257699Y-109048777D01*
X150418180Y-109080700D01*
X150418183Y-109080700D01*
X150581819Y-109080700D01*
X150689785Y-109059223D01*
X150742306Y-109048776D01*
X150893484Y-108986156D01*
X151029540Y-108895247D01*
X151145247Y-108779540D01*
X151236156Y-108643484D01*
X151298776Y-108492306D01*
X151318735Y-108391969D01*
X151330700Y-108331819D01*
X151919299Y-108331819D01*
X151951222Y-108492300D01*
X151951224Y-108492306D01*
X152013843Y-108643482D01*
X152104754Y-108779542D01*
X152220457Y-108895245D01*
X152220460Y-108895247D01*
X152356516Y-108986156D01*
X152507694Y-109048776D01*
X152507698Y-109048776D01*
X152507699Y-109048777D01*
X152668180Y-109080700D01*
X152668183Y-109080700D01*
X152831819Y-109080700D01*
X152939785Y-109059223D01*
X152992306Y-109048776D01*
X153143484Y-108986156D01*
X153279540Y-108895247D01*
X153395247Y-108779540D01*
X153486156Y-108643484D01*
X153548776Y-108492306D01*
X153568735Y-108391969D01*
X153580700Y-108331819D01*
X154169299Y-108331819D01*
X154201222Y-108492300D01*
X154201224Y-108492306D01*
X154263843Y-108643482D01*
X154354754Y-108779542D01*
X154470457Y-108895245D01*
X154470460Y-108895247D01*
X154606516Y-108986156D01*
X154757694Y-109048776D01*
X154757698Y-109048776D01*
X154757699Y-109048777D01*
X154918180Y-109080700D01*
X154918183Y-109080700D01*
X155081819Y-109080700D01*
X155189785Y-109059223D01*
X155242306Y-109048776D01*
X155393484Y-108986156D01*
X155529540Y-108895247D01*
X155645247Y-108779540D01*
X155736156Y-108643484D01*
X155798776Y-108492306D01*
X155818735Y-108391969D01*
X155830700Y-108331819D01*
X155830700Y-108168180D01*
X155798777Y-108007699D01*
X155798776Y-108007698D01*
X155798776Y-108007694D01*
X155736156Y-107856516D01*
X155645247Y-107720460D01*
X155645245Y-107720457D01*
X155529542Y-107604754D01*
X155461512Y-107559298D01*
X155393484Y-107513844D01*
X155378634Y-107507693D01*
X155242306Y-107451224D01*
X155242300Y-107451222D01*
X155081819Y-107419300D01*
X155081817Y-107419300D01*
X154918183Y-107419300D01*
X154918181Y-107419300D01*
X154757699Y-107451222D01*
X154757693Y-107451224D01*
X154606517Y-107513843D01*
X154470457Y-107604754D01*
X154354754Y-107720457D01*
X154263843Y-107856517D01*
X154201224Y-108007693D01*
X154201222Y-108007699D01*
X154169300Y-108168180D01*
X154169300Y-108168183D01*
X154169300Y-108331817D01*
X154169300Y-108331819D01*
X154169299Y-108331819D01*
X153580700Y-108331819D01*
X153580700Y-108168180D01*
X153548777Y-108007699D01*
X153548776Y-108007698D01*
X153548776Y-108007694D01*
X153486156Y-107856516D01*
X153395247Y-107720460D01*
X153395245Y-107720457D01*
X153279542Y-107604754D01*
X153211512Y-107559298D01*
X153143484Y-107513844D01*
X153128634Y-107507693D01*
X152992306Y-107451224D01*
X152992300Y-107451222D01*
X152831819Y-107419300D01*
X152831817Y-107419300D01*
X152668183Y-107419300D01*
X152668181Y-107419300D01*
X152507699Y-107451222D01*
X152507693Y-107451224D01*
X152356517Y-107513843D01*
X152220457Y-107604754D01*
X152104754Y-107720457D01*
X152013843Y-107856517D01*
X151951224Y-108007693D01*
X151951222Y-108007699D01*
X151919300Y-108168180D01*
X151919300Y-108168183D01*
X151919300Y-108331817D01*
X151919300Y-108331819D01*
X151919299Y-108331819D01*
X151330700Y-108331819D01*
X151330700Y-108168180D01*
X151298777Y-108007699D01*
X151298776Y-108007698D01*
X151298776Y-108007694D01*
X151236156Y-107856516D01*
X151145247Y-107720460D01*
X151145245Y-107720457D01*
X151029542Y-107604754D01*
X150961512Y-107559298D01*
X150893484Y-107513844D01*
X150878634Y-107507693D01*
X150742306Y-107451224D01*
X150742300Y-107451222D01*
X150581819Y-107419300D01*
X150581817Y-107419300D01*
X150418183Y-107419300D01*
X150418181Y-107419300D01*
X150257699Y-107451222D01*
X150257693Y-107451224D01*
X150106517Y-107513843D01*
X149970457Y-107604754D01*
X149854754Y-107720457D01*
X149763843Y-107856517D01*
X149701224Y-108007693D01*
X149701222Y-108007699D01*
X149669300Y-108168180D01*
X149669300Y-108168183D01*
X149669300Y-108331817D01*
X149669300Y-108331819D01*
X149669299Y-108331819D01*
X149080700Y-108331819D01*
X149080700Y-108168180D01*
X149048777Y-108007699D01*
X149048776Y-108007698D01*
X149048776Y-108007694D01*
X148986156Y-107856516D01*
X148895247Y-107720460D01*
X148895245Y-107720457D01*
X148779542Y-107604754D01*
X148711512Y-107559298D01*
X148643484Y-107513844D01*
X148628634Y-107507693D01*
X148492306Y-107451224D01*
X148492300Y-107451222D01*
X148331819Y-107419300D01*
X148331817Y-107419300D01*
X148168183Y-107419300D01*
X148168181Y-107419300D01*
X148007699Y-107451222D01*
X148007693Y-107451224D01*
X147856517Y-107513843D01*
X147720457Y-107604754D01*
X147604754Y-107720457D01*
X147513843Y-107856517D01*
X147451224Y-108007693D01*
X147451222Y-108007699D01*
X147419300Y-108168180D01*
X147419300Y-108168183D01*
X147419300Y-108331817D01*
X147419300Y-108331819D01*
X147419299Y-108331819D01*
X146505500Y-108331819D01*
X146505500Y-105081819D01*
X147419299Y-105081819D01*
X147451222Y-105242300D01*
X147451224Y-105242306D01*
X147513843Y-105393482D01*
X147604754Y-105529542D01*
X147720457Y-105645245D01*
X147720460Y-105645247D01*
X147856516Y-105736156D01*
X148007694Y-105798776D01*
X148007698Y-105798776D01*
X148007699Y-105798777D01*
X148168180Y-105830700D01*
X148168183Y-105830700D01*
X148331819Y-105830700D01*
X148439785Y-105809223D01*
X148492306Y-105798776D01*
X148643484Y-105736156D01*
X148779540Y-105645247D01*
X148895247Y-105529540D01*
X148986156Y-105393484D01*
X149048776Y-105242306D01*
X149059223Y-105189785D01*
X149080700Y-105081819D01*
X149669299Y-105081819D01*
X149701222Y-105242300D01*
X149701224Y-105242306D01*
X149763843Y-105393482D01*
X149854754Y-105529542D01*
X149970457Y-105645245D01*
X149970460Y-105645247D01*
X150106516Y-105736156D01*
X150257694Y-105798776D01*
X150257698Y-105798776D01*
X150257699Y-105798777D01*
X150418180Y-105830700D01*
X150418183Y-105830700D01*
X150581819Y-105830700D01*
X150689785Y-105809223D01*
X150742306Y-105798776D01*
X150893484Y-105736156D01*
X151029540Y-105645247D01*
X151145247Y-105529540D01*
X151236156Y-105393484D01*
X151298776Y-105242306D01*
X151309223Y-105189785D01*
X151330700Y-105081819D01*
X151919299Y-105081819D01*
X151951222Y-105242300D01*
X151951224Y-105242306D01*
X152013843Y-105393482D01*
X152104754Y-105529542D01*
X152220457Y-105645245D01*
X152220460Y-105645247D01*
X152356516Y-105736156D01*
X152507694Y-105798776D01*
X152507698Y-105798776D01*
X152507699Y-105798777D01*
X152668180Y-105830700D01*
X152668183Y-105830700D01*
X152831819Y-105830700D01*
X152939785Y-105809223D01*
X152992306Y-105798776D01*
X153143484Y-105736156D01*
X153279540Y-105645247D01*
X153395247Y-105529540D01*
X153486156Y-105393484D01*
X153548776Y-105242306D01*
X153559223Y-105189785D01*
X153580700Y-105081819D01*
X154169299Y-105081819D01*
X154201222Y-105242300D01*
X154201224Y-105242306D01*
X154263843Y-105393482D01*
X154354754Y-105529542D01*
X154470457Y-105645245D01*
X154470460Y-105645247D01*
X154606516Y-105736156D01*
X154757694Y-105798776D01*
X154757698Y-105798776D01*
X154757699Y-105798777D01*
X154918180Y-105830700D01*
X154918183Y-105830700D01*
X155081819Y-105830700D01*
X155189785Y-105809223D01*
X155242306Y-105798776D01*
X155393484Y-105736156D01*
X155529540Y-105645247D01*
X155645247Y-105529540D01*
X155736156Y-105393484D01*
X155798776Y-105242306D01*
X155809223Y-105189785D01*
X155830700Y-105081819D01*
X155830700Y-104918180D01*
X155798777Y-104757699D01*
X155798776Y-104757698D01*
X155798776Y-104757694D01*
X155736156Y-104606516D01*
X155645247Y-104470460D01*
X155645245Y-104470457D01*
X155529542Y-104354754D01*
X155416975Y-104279540D01*
X155393484Y-104263844D01*
X155242306Y-104201224D01*
X155242300Y-104201222D01*
X155081819Y-104169300D01*
X155081817Y-104169300D01*
X154918183Y-104169300D01*
X154918181Y-104169300D01*
X154757699Y-104201222D01*
X154757693Y-104201224D01*
X154606517Y-104263843D01*
X154470457Y-104354754D01*
X154354754Y-104470457D01*
X154263843Y-104606517D01*
X154201224Y-104757693D01*
X154201222Y-104757699D01*
X154169300Y-104918180D01*
X154169300Y-104918183D01*
X154169300Y-105081817D01*
X154169300Y-105081819D01*
X154169299Y-105081819D01*
X153580700Y-105081819D01*
X153580700Y-104918180D01*
X153548777Y-104757699D01*
X153548776Y-104757698D01*
X153548776Y-104757694D01*
X153486156Y-104606516D01*
X153395247Y-104470460D01*
X153395245Y-104470457D01*
X153279542Y-104354754D01*
X153166975Y-104279540D01*
X153143484Y-104263844D01*
X152992306Y-104201224D01*
X152992300Y-104201222D01*
X152831819Y-104169300D01*
X152831817Y-104169300D01*
X152668183Y-104169300D01*
X152668181Y-104169300D01*
X152507699Y-104201222D01*
X152507693Y-104201224D01*
X152356517Y-104263843D01*
X152220457Y-104354754D01*
X152104754Y-104470457D01*
X152013843Y-104606517D01*
X151951224Y-104757693D01*
X151951222Y-104757699D01*
X151919300Y-104918180D01*
X151919300Y-104918183D01*
X151919300Y-105081817D01*
X151919300Y-105081819D01*
X151919299Y-105081819D01*
X151330700Y-105081819D01*
X151330700Y-104918180D01*
X151298777Y-104757699D01*
X151298776Y-104757698D01*
X151298776Y-104757694D01*
X151236156Y-104606516D01*
X151145247Y-104470460D01*
X151145245Y-104470457D01*
X151029542Y-104354754D01*
X150916975Y-104279540D01*
X150893484Y-104263844D01*
X150742306Y-104201224D01*
X150742300Y-104201222D01*
X150581819Y-104169300D01*
X150581817Y-104169300D01*
X150418183Y-104169300D01*
X150418181Y-104169300D01*
X150257699Y-104201222D01*
X150257693Y-104201224D01*
X150106517Y-104263843D01*
X149970457Y-104354754D01*
X149854754Y-104470457D01*
X149763843Y-104606517D01*
X149701224Y-104757693D01*
X149701222Y-104757699D01*
X149669300Y-104918180D01*
X149669300Y-104918183D01*
X149669300Y-105081817D01*
X149669300Y-105081819D01*
X149669299Y-105081819D01*
X149080700Y-105081819D01*
X149080700Y-104918180D01*
X149048777Y-104757699D01*
X149048776Y-104757698D01*
X149048776Y-104757694D01*
X148986156Y-104606516D01*
X148895247Y-104470460D01*
X148895245Y-104470457D01*
X148779542Y-104354754D01*
X148666975Y-104279540D01*
X148643484Y-104263844D01*
X148492306Y-104201224D01*
X148492300Y-104201222D01*
X148331819Y-104169300D01*
X148331817Y-104169300D01*
X148168183Y-104169300D01*
X148168181Y-104169300D01*
X148007699Y-104201222D01*
X148007693Y-104201224D01*
X147856517Y-104263843D01*
X147720457Y-104354754D01*
X147604754Y-104470457D01*
X147513843Y-104606517D01*
X147451224Y-104757693D01*
X147451222Y-104757699D01*
X147419300Y-104918180D01*
X147419300Y-104918183D01*
X147419300Y-105081817D01*
X147419300Y-105081819D01*
X147419299Y-105081819D01*
X146505500Y-105081819D01*
X146505500Y-102624010D01*
X146505500Y-102624000D01*
X146500965Y-102581819D01*
X161169299Y-102581819D01*
X161201222Y-102742300D01*
X161201224Y-102742306D01*
X161263843Y-102893482D01*
X161354754Y-103029542D01*
X161470457Y-103145245D01*
X161470460Y-103145247D01*
X161606516Y-103236156D01*
X161757694Y-103298776D01*
X161757698Y-103298776D01*
X161757699Y-103298777D01*
X161918180Y-103330700D01*
X161918183Y-103330700D01*
X162081819Y-103330700D01*
X162189785Y-103309223D01*
X162242306Y-103298776D01*
X162393484Y-103236156D01*
X162529540Y-103145247D01*
X162645247Y-103029540D01*
X162736156Y-102893484D01*
X162798776Y-102742306D01*
X162830700Y-102581817D01*
X162830700Y-102418183D01*
X162830700Y-102418180D01*
X162798777Y-102257699D01*
X162798776Y-102257698D01*
X162798776Y-102257694D01*
X162736156Y-102106516D01*
X162645247Y-101970460D01*
X162645245Y-101970457D01*
X162529542Y-101854754D01*
X162437007Y-101792925D01*
X162393484Y-101763844D01*
X162242306Y-101701224D01*
X162242300Y-101701222D01*
X162081819Y-101669300D01*
X162081817Y-101669300D01*
X161918183Y-101669300D01*
X161918181Y-101669300D01*
X161757699Y-101701222D01*
X161757693Y-101701224D01*
X161606517Y-101763843D01*
X161470457Y-101854754D01*
X161354754Y-101970457D01*
X161263843Y-102106517D01*
X161201224Y-102257693D01*
X161201222Y-102257699D01*
X161169300Y-102418180D01*
X161169300Y-102418183D01*
X161169300Y-102581817D01*
X161169300Y-102581819D01*
X161169299Y-102581819D01*
X146500965Y-102581819D01*
X146493947Y-102516544D01*
X146482741Y-102465033D01*
X146448613Y-102362496D01*
X146370825Y-102241457D01*
X146370820Y-102241451D01*
X146325076Y-102188659D01*
X146325072Y-102188656D01*
X146325070Y-102188653D01*
X146216336Y-102094433D01*
X146216333Y-102094431D01*
X146216331Y-102094430D01*
X146085465Y-102034664D01*
X146085460Y-102034662D01*
X146085459Y-102034662D01*
X146018420Y-102014977D01*
X146018422Y-102014977D01*
X146018417Y-102014976D01*
X145956347Y-102006052D01*
X145876000Y-101994500D01*
X141624000Y-101994500D01*
X141623991Y-101994500D01*
X141623990Y-101994501D01*
X141516549Y-102006052D01*
X141516537Y-102006054D01*
X141465027Y-102017260D01*
X141362502Y-102051383D01*
X141362496Y-102051386D01*
X141241462Y-102129171D01*
X141241451Y-102129179D01*
X141188659Y-102174923D01*
X141094433Y-102283664D01*
X141094430Y-102283668D01*
X141034664Y-102414534D01*
X141014976Y-102481582D01*
X141009949Y-102516549D01*
X140994500Y-102624000D01*
X115005500Y-102624000D01*
X115005500Y-101948738D01*
X115005500Y-101948727D01*
X115005499Y-101948725D01*
X115002102Y-101890226D01*
X115002100Y-101890207D01*
X114998778Y-101861707D01*
X114998777Y-101861695D01*
X114988627Y-101803969D01*
X114988626Y-101803967D01*
X114988626Y-101803965D01*
X114984282Y-101792925D01*
X114978052Y-101723334D01*
X115010435Y-101661422D01*
X115024961Y-101649283D01*
X115024825Y-101649117D01*
X115029534Y-101645251D01*
X115029533Y-101645251D01*
X115029540Y-101645247D01*
X115145247Y-101529540D01*
X115236156Y-101393484D01*
X115298776Y-101242306D01*
X115309223Y-101189785D01*
X115330700Y-101081819D01*
X115330700Y-100918180D01*
X115313521Y-100831819D01*
X154669299Y-100831819D01*
X154701222Y-100992300D01*
X154701224Y-100992306D01*
X154763843Y-101143482D01*
X154854754Y-101279542D01*
X154970457Y-101395245D01*
X154970460Y-101395247D01*
X155106516Y-101486156D01*
X155257694Y-101548776D01*
X155257698Y-101548776D01*
X155257699Y-101548777D01*
X155418180Y-101580700D01*
X155418183Y-101580700D01*
X155581819Y-101580700D01*
X155689785Y-101559223D01*
X155742306Y-101548776D01*
X155893484Y-101486156D01*
X156029540Y-101395247D01*
X156145247Y-101279540D01*
X156236156Y-101143484D01*
X156298776Y-100992306D01*
X156330700Y-100831817D01*
X156330700Y-100668183D01*
X156330700Y-100668180D01*
X156298777Y-100507699D01*
X156298776Y-100507698D01*
X156298776Y-100507694D01*
X156236156Y-100356516D01*
X156145247Y-100220460D01*
X156145245Y-100220457D01*
X156029542Y-100104754D01*
X155949478Y-100051258D01*
X155893484Y-100013844D01*
X155742306Y-99951224D01*
X155742300Y-99951222D01*
X155581819Y-99919300D01*
X155581817Y-99919300D01*
X155418183Y-99919300D01*
X155418181Y-99919300D01*
X155257699Y-99951222D01*
X155257693Y-99951224D01*
X155106517Y-100013843D01*
X154970457Y-100104754D01*
X154854754Y-100220457D01*
X154763843Y-100356517D01*
X154701224Y-100507693D01*
X154701222Y-100507699D01*
X154669300Y-100668180D01*
X154669300Y-100668183D01*
X154669300Y-100831817D01*
X154669300Y-100831819D01*
X154669299Y-100831819D01*
X115313521Y-100831819D01*
X115298777Y-100757699D01*
X115298776Y-100757698D01*
X115298776Y-100757694D01*
X115236156Y-100606516D01*
X115145247Y-100470460D01*
X115145245Y-100470457D01*
X115029546Y-100354758D01*
X115029542Y-100354755D01*
X115029540Y-100354753D01*
X115028540Y-100354085D01*
X115028135Y-100353600D01*
X115024836Y-100350893D01*
X115025349Y-100350267D01*
X114983737Y-100300476D01*
X114975028Y-100231151D01*
X114978456Y-100216046D01*
X114985022Y-100193683D01*
X114985023Y-100193681D01*
X114985024Y-100193677D01*
X115005500Y-100051261D01*
X115005500Y-99831819D01*
X134401599Y-99831819D01*
X134433522Y-99992300D01*
X134433524Y-99992306D01*
X134496143Y-100143482D01*
X134587054Y-100279542D01*
X134702757Y-100395245D01*
X134702760Y-100395247D01*
X134838816Y-100486156D01*
X134989994Y-100548776D01*
X134989998Y-100548776D01*
X134989999Y-100548777D01*
X135150480Y-100580700D01*
X135150483Y-100580700D01*
X135314119Y-100580700D01*
X135422085Y-100559223D01*
X135474606Y-100548776D01*
X135625784Y-100486156D01*
X135761840Y-100395247D01*
X135877547Y-100279540D01*
X135968456Y-100143484D01*
X136031076Y-99992306D01*
X136063000Y-99831819D01*
X140419299Y-99831819D01*
X140451222Y-99992300D01*
X140451224Y-99992306D01*
X140513843Y-100143482D01*
X140604754Y-100279542D01*
X140720457Y-100395245D01*
X140720460Y-100395247D01*
X140856516Y-100486156D01*
X141007694Y-100548776D01*
X141007698Y-100548776D01*
X141007699Y-100548777D01*
X141168180Y-100580700D01*
X141168183Y-100580700D01*
X141331819Y-100580700D01*
X141439785Y-100559223D01*
X141492306Y-100548776D01*
X141643484Y-100486156D01*
X141779540Y-100395247D01*
X141895247Y-100279540D01*
X141986156Y-100143484D01*
X142048776Y-99992306D01*
X142080700Y-99831817D01*
X142080700Y-99668183D01*
X142080700Y-99668180D01*
X142048777Y-99507699D01*
X142048776Y-99507698D01*
X142048776Y-99507694D01*
X141986156Y-99356516D01*
X141895247Y-99220460D01*
X141895245Y-99220457D01*
X141779542Y-99104754D01*
X141695762Y-99048775D01*
X141643484Y-99013844D01*
X141576639Y-98986156D01*
X141492306Y-98951224D01*
X141492300Y-98951222D01*
X141331819Y-98919300D01*
X141331817Y-98919300D01*
X141168183Y-98919300D01*
X141168181Y-98919300D01*
X141007699Y-98951222D01*
X141007693Y-98951224D01*
X140856517Y-99013843D01*
X140720457Y-99104754D01*
X140604754Y-99220457D01*
X140513843Y-99356517D01*
X140451224Y-99507693D01*
X140451222Y-99507699D01*
X140419300Y-99668180D01*
X140419300Y-99668183D01*
X140419300Y-99831817D01*
X140419300Y-99831819D01*
X140419299Y-99831819D01*
X136063000Y-99831819D01*
X136063000Y-99831817D01*
X136063000Y-99668183D01*
X136063000Y-99668180D01*
X136031077Y-99507699D01*
X136031076Y-99507698D01*
X136031076Y-99507694D01*
X135968456Y-99356516D01*
X135877547Y-99220460D01*
X135877545Y-99220457D01*
X135761842Y-99104754D01*
X135678062Y-99048775D01*
X135625784Y-99013844D01*
X135558939Y-98986156D01*
X135474606Y-98951224D01*
X135474600Y-98951222D01*
X135314119Y-98919300D01*
X135314117Y-98919300D01*
X135150483Y-98919300D01*
X135150481Y-98919300D01*
X134989999Y-98951222D01*
X134989993Y-98951224D01*
X134838817Y-99013843D01*
X134702757Y-99104754D01*
X134587054Y-99220457D01*
X134496143Y-99356517D01*
X134433524Y-99507693D01*
X134433522Y-99507699D01*
X134401600Y-99668180D01*
X134401600Y-99668183D01*
X134401600Y-99831817D01*
X134401600Y-99831819D01*
X134401599Y-99831819D01*
X115005500Y-99831819D01*
X115005500Y-98331819D01*
X123919299Y-98331819D01*
X123951222Y-98492300D01*
X123951224Y-98492306D01*
X124013843Y-98643482D01*
X124104754Y-98779542D01*
X124220457Y-98895245D01*
X124220460Y-98895247D01*
X124356516Y-98986156D01*
X124507694Y-99048776D01*
X124507698Y-99048776D01*
X124507699Y-99048777D01*
X124668180Y-99080700D01*
X124668183Y-99080700D01*
X124831819Y-99080700D01*
X124939785Y-99059223D01*
X124992306Y-99048776D01*
X125143484Y-98986156D01*
X125279540Y-98895247D01*
X125395247Y-98779540D01*
X125486156Y-98643484D01*
X125548776Y-98492306D01*
X125562317Y-98424234D01*
X125580700Y-98331819D01*
X126169299Y-98331819D01*
X126201222Y-98492300D01*
X126201224Y-98492306D01*
X126263843Y-98643482D01*
X126354754Y-98779542D01*
X126470457Y-98895245D01*
X126470460Y-98895247D01*
X126606516Y-98986156D01*
X126757694Y-99048776D01*
X126757698Y-99048776D01*
X126757699Y-99048777D01*
X126918180Y-99080700D01*
X126918183Y-99080700D01*
X127081819Y-99080700D01*
X127189785Y-99059223D01*
X127242306Y-99048776D01*
X127393484Y-98986156D01*
X127529540Y-98895247D01*
X127645247Y-98779540D01*
X127736156Y-98643484D01*
X127798776Y-98492306D01*
X127804211Y-98464978D01*
X127812317Y-98424234D01*
X158209500Y-98424234D01*
X158209500Y-98575765D01*
X158248719Y-98722136D01*
X158281862Y-98779540D01*
X158324485Y-98853365D01*
X158431635Y-98960515D01*
X158562865Y-99036281D01*
X158709234Y-99075500D01*
X158709236Y-99075500D01*
X158860764Y-99075500D01*
X158860766Y-99075500D01*
X159007135Y-99036281D01*
X159138365Y-98960515D01*
X159245515Y-98853365D01*
X159321281Y-98722135D01*
X159360500Y-98575766D01*
X159360500Y-98424234D01*
X159321281Y-98277865D01*
X159245515Y-98146635D01*
X159138365Y-98039485D01*
X159021714Y-97972136D01*
X159007136Y-97963719D01*
X158933950Y-97944109D01*
X158860766Y-97924500D01*
X158709234Y-97924500D01*
X158562863Y-97963719D01*
X158431635Y-98039485D01*
X158431632Y-98039487D01*
X158324487Y-98146632D01*
X158324485Y-98146635D01*
X158248719Y-98277863D01*
X158209500Y-98424234D01*
X127812317Y-98424234D01*
X127818746Y-98391915D01*
X127830700Y-98331819D01*
X127830700Y-98168180D01*
X127798777Y-98007699D01*
X127798776Y-98007698D01*
X127798776Y-98007694D01*
X127736156Y-97856516D01*
X127645247Y-97720460D01*
X127645245Y-97720457D01*
X127529542Y-97604754D01*
X127437893Y-97543517D01*
X127393484Y-97513844D01*
X127242306Y-97451224D01*
X127242300Y-97451222D01*
X127081819Y-97419300D01*
X127081817Y-97419300D01*
X126918183Y-97419300D01*
X126918181Y-97419300D01*
X126757699Y-97451222D01*
X126757693Y-97451224D01*
X126606517Y-97513843D01*
X126470457Y-97604754D01*
X126354754Y-97720457D01*
X126263843Y-97856517D01*
X126201224Y-98007693D01*
X126201222Y-98007699D01*
X126169300Y-98168180D01*
X126169300Y-98168183D01*
X126169300Y-98331817D01*
X126169300Y-98331819D01*
X126169299Y-98331819D01*
X125580700Y-98331819D01*
X125580700Y-98168180D01*
X125548777Y-98007699D01*
X125548776Y-98007698D01*
X125548776Y-98007694D01*
X125486156Y-97856516D01*
X125395247Y-97720460D01*
X125395245Y-97720457D01*
X125279542Y-97604754D01*
X125187893Y-97543517D01*
X125143484Y-97513844D01*
X124992306Y-97451224D01*
X124992300Y-97451222D01*
X124831819Y-97419300D01*
X124831817Y-97419300D01*
X124668183Y-97419300D01*
X124668181Y-97419300D01*
X124507699Y-97451222D01*
X124507693Y-97451224D01*
X124356517Y-97513843D01*
X124220457Y-97604754D01*
X124104754Y-97720457D01*
X124013843Y-97856517D01*
X123951224Y-98007693D01*
X123951222Y-98007699D01*
X123919300Y-98168180D01*
X123919300Y-98168183D01*
X123919300Y-98331817D01*
X123919300Y-98331819D01*
X123919299Y-98331819D01*
X115005500Y-98331819D01*
X115005500Y-98129500D01*
X115008050Y-98120814D01*
X115006762Y-98111853D01*
X115017740Y-98087812D01*
X115025185Y-98062461D01*
X115032025Y-98056533D01*
X115035787Y-98048297D01*
X115058021Y-98034007D01*
X115077989Y-98016706D01*
X115088503Y-98014418D01*
X115094565Y-98010523D01*
X115129500Y-98005500D01*
X115341391Y-98005500D01*
X115408430Y-98025185D01*
X115448776Y-98067497D01*
X115469485Y-98103365D01*
X115576635Y-98210515D01*
X115707865Y-98286281D01*
X115854234Y-98325500D01*
X115854236Y-98325500D01*
X116005764Y-98325500D01*
X116005766Y-98325500D01*
X116152135Y-98286281D01*
X116283365Y-98210515D01*
X116390515Y-98103365D01*
X116466281Y-97972135D01*
X116505500Y-97825766D01*
X116505500Y-97674234D01*
X116504185Y-97669326D01*
X116505846Y-97599481D01*
X116542758Y-97543518D01*
X116561347Y-97527412D01*
X116655567Y-97418678D01*
X116715338Y-97287801D01*
X116735023Y-97220762D01*
X116735024Y-97220758D01*
X116755500Y-97078342D01*
X116755500Y-96441819D01*
X153669299Y-96441819D01*
X153701222Y-96602300D01*
X153701224Y-96602306D01*
X153763843Y-96753482D01*
X153854754Y-96889542D01*
X153970457Y-97005245D01*
X153970460Y-97005247D01*
X154106516Y-97096156D01*
X154257694Y-97158776D01*
X154257698Y-97158776D01*
X154257699Y-97158777D01*
X154418180Y-97190700D01*
X154418183Y-97190700D01*
X154581819Y-97190700D01*
X154689785Y-97169223D01*
X154742306Y-97158776D01*
X154893484Y-97096156D01*
X155029540Y-97005247D01*
X155145247Y-96889540D01*
X155236156Y-96753484D01*
X155298776Y-96602306D01*
X155330700Y-96441817D01*
X155330700Y-96278183D01*
X155330700Y-96278180D01*
X155298950Y-96118567D01*
X155305177Y-96048975D01*
X155348040Y-95993798D01*
X155396375Y-95972758D01*
X155492306Y-95953676D01*
X155643484Y-95891056D01*
X155779540Y-95800147D01*
X155895247Y-95684440D01*
X155986156Y-95548384D01*
X156048776Y-95397206D01*
X156068355Y-95298777D01*
X156080700Y-95236719D01*
X156080700Y-95073080D01*
X156048777Y-94912599D01*
X156048776Y-94912598D01*
X156048776Y-94912594D01*
X155986156Y-94761416D01*
X155895247Y-94625360D01*
X155895245Y-94625357D01*
X155779542Y-94509654D01*
X155644316Y-94419300D01*
X155643484Y-94418744D01*
X155642122Y-94418180D01*
X155492306Y-94356124D01*
X155492300Y-94356122D01*
X155331819Y-94324200D01*
X155331817Y-94324200D01*
X155168183Y-94324200D01*
X155168181Y-94324200D01*
X155007699Y-94356122D01*
X155007693Y-94356124D01*
X154856517Y-94418743D01*
X154720457Y-94509654D01*
X154604754Y-94625357D01*
X154513843Y-94761417D01*
X154451224Y-94912593D01*
X154451222Y-94912599D01*
X154419300Y-95073080D01*
X154419300Y-95236721D01*
X154451049Y-95396333D01*
X154444822Y-95465924D01*
X154401959Y-95521102D01*
X154353624Y-95542141D01*
X154257699Y-95561222D01*
X154257693Y-95561224D01*
X154106517Y-95623843D01*
X153970457Y-95714754D01*
X153854754Y-95830457D01*
X153763843Y-95966517D01*
X153701224Y-96117693D01*
X153701222Y-96117699D01*
X153669300Y-96278180D01*
X153669300Y-96278183D01*
X153669300Y-96441817D01*
X153669300Y-96441819D01*
X153669299Y-96441819D01*
X116755500Y-96441819D01*
X116755500Y-95081819D01*
X129919299Y-95081819D01*
X129951222Y-95242300D01*
X129951224Y-95242306D01*
X130013843Y-95393482D01*
X130104754Y-95529542D01*
X130220457Y-95645245D01*
X130220460Y-95645247D01*
X130356516Y-95736156D01*
X130507694Y-95798776D01*
X130507698Y-95798776D01*
X130507699Y-95798777D01*
X130668180Y-95830700D01*
X130668183Y-95830700D01*
X130831819Y-95830700D01*
X130939785Y-95809223D01*
X130992306Y-95798776D01*
X131143484Y-95736156D01*
X131279540Y-95645247D01*
X131395247Y-95529540D01*
X131486156Y-95393484D01*
X131548776Y-95242306D01*
X131580700Y-95081819D01*
X131919299Y-95081819D01*
X131951222Y-95242300D01*
X131951224Y-95242306D01*
X132013843Y-95393482D01*
X132104754Y-95529542D01*
X132220457Y-95645245D01*
X132220460Y-95645247D01*
X132356516Y-95736156D01*
X132507694Y-95798776D01*
X132507698Y-95798776D01*
X132507699Y-95798777D01*
X132668180Y-95830700D01*
X132668183Y-95830700D01*
X132831819Y-95830700D01*
X132939785Y-95809223D01*
X132992306Y-95798776D01*
X133143484Y-95736156D01*
X133279540Y-95645247D01*
X133395247Y-95529540D01*
X133486156Y-95393484D01*
X133548776Y-95242306D01*
X133580700Y-95081819D01*
X134169299Y-95081819D01*
X134201222Y-95242300D01*
X134201224Y-95242306D01*
X134263843Y-95393482D01*
X134354754Y-95529542D01*
X134470457Y-95645245D01*
X134470460Y-95645247D01*
X134606516Y-95736156D01*
X134757694Y-95798776D01*
X134757698Y-95798776D01*
X134757699Y-95798777D01*
X134918180Y-95830700D01*
X134918183Y-95830700D01*
X135081819Y-95830700D01*
X135189785Y-95809223D01*
X135242306Y-95798776D01*
X135393484Y-95736156D01*
X135529540Y-95645247D01*
X135592968Y-95581819D01*
X138169299Y-95581819D01*
X138201222Y-95742300D01*
X138201224Y-95742306D01*
X138263843Y-95893482D01*
X138354754Y-96029542D01*
X138470457Y-96145245D01*
X138470460Y-96145247D01*
X138606516Y-96236156D01*
X138757694Y-96298776D01*
X138757698Y-96298776D01*
X138757699Y-96298777D01*
X138918180Y-96330700D01*
X138918183Y-96330700D01*
X139081819Y-96330700D01*
X139189785Y-96309223D01*
X139242306Y-96298776D01*
X139393484Y-96236156D01*
X139529540Y-96145247D01*
X139645247Y-96029540D01*
X139646895Y-96027072D01*
X139648094Y-96026070D01*
X139649111Y-96024832D01*
X139649345Y-96025024D01*
X139700506Y-95982266D01*
X139769831Y-95973556D01*
X139832859Y-96003708D01*
X139853105Y-96027073D01*
X139854755Y-96029543D01*
X139970457Y-96145245D01*
X139970460Y-96145247D01*
X140106516Y-96236156D01*
X140257694Y-96298776D01*
X140257698Y-96298776D01*
X140257699Y-96298777D01*
X140418180Y-96330700D01*
X140418183Y-96330700D01*
X140581819Y-96330700D01*
X140689785Y-96309223D01*
X140742306Y-96298776D01*
X140893484Y-96236156D01*
X141029540Y-96145247D01*
X141037317Y-96137469D01*
X141098637Y-96103984D01*
X141168329Y-96108965D01*
X141212682Y-96137469D01*
X141220460Y-96145247D01*
X141356516Y-96236156D01*
X141507694Y-96298776D01*
X141507698Y-96298776D01*
X141507699Y-96298777D01*
X141668180Y-96330700D01*
X141668183Y-96330700D01*
X141831819Y-96330700D01*
X141939785Y-96309223D01*
X141992306Y-96298776D01*
X142143484Y-96236156D01*
X142279540Y-96145247D01*
X142287317Y-96137469D01*
X142348637Y-96103984D01*
X142418329Y-96108965D01*
X142462682Y-96137469D01*
X142470460Y-96145247D01*
X142606516Y-96236156D01*
X142757694Y-96298776D01*
X142757698Y-96298776D01*
X142757699Y-96298777D01*
X142918180Y-96330700D01*
X142918183Y-96330700D01*
X143081819Y-96330700D01*
X143189785Y-96309223D01*
X143242306Y-96298776D01*
X143393484Y-96236156D01*
X143431109Y-96211016D01*
X143497786Y-96190138D01*
X143565166Y-96208622D01*
X143568891Y-96211016D01*
X143606516Y-96236156D01*
X143757694Y-96298776D01*
X143757698Y-96298776D01*
X143757699Y-96298777D01*
X143918180Y-96330700D01*
X143918183Y-96330700D01*
X144081819Y-96330700D01*
X144189785Y-96309223D01*
X144242306Y-96298776D01*
X144393484Y-96236156D01*
X144529540Y-96145247D01*
X144645247Y-96029540D01*
X144736156Y-95893484D01*
X144798776Y-95742306D01*
X144818083Y-95645245D01*
X144830700Y-95581819D01*
X144830700Y-95418180D01*
X144813521Y-95331819D01*
X149169299Y-95331819D01*
X149201222Y-95492300D01*
X149201224Y-95492306D01*
X149263843Y-95643482D01*
X149354754Y-95779542D01*
X149470457Y-95895245D01*
X149470460Y-95895247D01*
X149606516Y-95986156D01*
X149757694Y-96048776D01*
X149757698Y-96048776D01*
X149757699Y-96048777D01*
X149918180Y-96080700D01*
X149918183Y-96080700D01*
X150081819Y-96080700D01*
X150237223Y-96049787D01*
X150242306Y-96048776D01*
X150393484Y-95986156D01*
X150529540Y-95895247D01*
X150645247Y-95779540D01*
X150736156Y-95643484D01*
X150798776Y-95492306D01*
X150817867Y-95396333D01*
X150830700Y-95331819D01*
X150830700Y-95168180D01*
X150798777Y-95007699D01*
X150798776Y-95007698D01*
X150798776Y-95007694D01*
X150736156Y-94856516D01*
X150645247Y-94720460D01*
X150645245Y-94720457D01*
X150529542Y-94604754D01*
X150461512Y-94559298D01*
X150393484Y-94513844D01*
X150383368Y-94509654D01*
X150242306Y-94451224D01*
X150242300Y-94451222D01*
X150081819Y-94419300D01*
X150081817Y-94419300D01*
X149918183Y-94419300D01*
X149918181Y-94419300D01*
X149757699Y-94451222D01*
X149757693Y-94451224D01*
X149606517Y-94513843D01*
X149470457Y-94604754D01*
X149354754Y-94720457D01*
X149263843Y-94856517D01*
X149201224Y-95007693D01*
X149201222Y-95007699D01*
X149169300Y-95168180D01*
X149169300Y-95168183D01*
X149169300Y-95331817D01*
X149169300Y-95331819D01*
X149169299Y-95331819D01*
X144813521Y-95331819D01*
X144798777Y-95257699D01*
X144798776Y-95257698D01*
X144798776Y-95257694D01*
X144736156Y-95106516D01*
X144645247Y-94970460D01*
X144645246Y-94970459D01*
X144645245Y-94970457D01*
X144529542Y-94854754D01*
X144431110Y-94788985D01*
X144393484Y-94763844D01*
X144393479Y-94763842D01*
X144242306Y-94701224D01*
X144242300Y-94701222D01*
X144081819Y-94669300D01*
X144081817Y-94669300D01*
X143918183Y-94669300D01*
X143918181Y-94669300D01*
X143757699Y-94701222D01*
X143757693Y-94701224D01*
X143606518Y-94763842D01*
X143568889Y-94788985D01*
X143502211Y-94809861D01*
X143434831Y-94791375D01*
X143431111Y-94788985D01*
X143393481Y-94763842D01*
X143242306Y-94701224D01*
X143242300Y-94701222D01*
X143081819Y-94669300D01*
X143081817Y-94669300D01*
X142918183Y-94669300D01*
X142918181Y-94669300D01*
X142757699Y-94701222D01*
X142757693Y-94701224D01*
X142606517Y-94763843D01*
X142470457Y-94854754D01*
X142470456Y-94854755D01*
X142462681Y-94862531D01*
X142401358Y-94896016D01*
X142331666Y-94891032D01*
X142287319Y-94862531D01*
X142279542Y-94854754D01*
X142181110Y-94788985D01*
X142143484Y-94763844D01*
X142143479Y-94763842D01*
X141992306Y-94701224D01*
X141992300Y-94701222D01*
X141831819Y-94669300D01*
X141831817Y-94669300D01*
X141668183Y-94669300D01*
X141668181Y-94669300D01*
X141507699Y-94701222D01*
X141507693Y-94701224D01*
X141356517Y-94763843D01*
X141220457Y-94854754D01*
X141220456Y-94854755D01*
X141212681Y-94862531D01*
X141151358Y-94896016D01*
X141081666Y-94891032D01*
X141037319Y-94862531D01*
X141029542Y-94854754D01*
X140931110Y-94788985D01*
X140893484Y-94763844D01*
X140893479Y-94763842D01*
X140742306Y-94701224D01*
X140742300Y-94701222D01*
X140581819Y-94669300D01*
X140581817Y-94669300D01*
X140418183Y-94669300D01*
X140418181Y-94669300D01*
X140257699Y-94701222D01*
X140257693Y-94701224D01*
X140106517Y-94763843D01*
X139970457Y-94854754D01*
X139854755Y-94970456D01*
X139854753Y-94970459D01*
X139853101Y-94972932D01*
X139851901Y-94973934D01*
X139850889Y-94975168D01*
X139850655Y-94974976D01*
X139799487Y-95017736D01*
X139730162Y-95026442D01*
X139667135Y-94996286D01*
X139646899Y-94972932D01*
X139645246Y-94970459D01*
X139645244Y-94970456D01*
X139529542Y-94854754D01*
X139431110Y-94788985D01*
X139393484Y-94763844D01*
X139393479Y-94763842D01*
X139242306Y-94701224D01*
X139242300Y-94701222D01*
X139081819Y-94669300D01*
X139081817Y-94669300D01*
X138918183Y-94669300D01*
X138918181Y-94669300D01*
X138757699Y-94701222D01*
X138757693Y-94701224D01*
X138606517Y-94763843D01*
X138470457Y-94854754D01*
X138354754Y-94970457D01*
X138263843Y-95106517D01*
X138201224Y-95257693D01*
X138201222Y-95257699D01*
X138169300Y-95418180D01*
X138169300Y-95418183D01*
X138169300Y-95581817D01*
X138169300Y-95581819D01*
X138169299Y-95581819D01*
X135592968Y-95581819D01*
X135645247Y-95529540D01*
X135736156Y-95393484D01*
X135798776Y-95242306D01*
X135830700Y-95081817D01*
X135830700Y-94918183D01*
X135830700Y-94918180D01*
X135798777Y-94757699D01*
X135798776Y-94757698D01*
X135798776Y-94757694D01*
X135736156Y-94606516D01*
X135645247Y-94470460D01*
X135645245Y-94470457D01*
X135529542Y-94354754D01*
X135461512Y-94309298D01*
X135393484Y-94263844D01*
X135378634Y-94257693D01*
X135242306Y-94201224D01*
X135242300Y-94201222D01*
X135081819Y-94169300D01*
X135081817Y-94169300D01*
X134918183Y-94169300D01*
X134918181Y-94169300D01*
X134757699Y-94201222D01*
X134757693Y-94201224D01*
X134606517Y-94263843D01*
X134470457Y-94354754D01*
X134354754Y-94470457D01*
X134263843Y-94606517D01*
X134201224Y-94757693D01*
X134201222Y-94757699D01*
X134169300Y-94918180D01*
X134169300Y-94918183D01*
X134169300Y-95081817D01*
X134169300Y-95081819D01*
X134169299Y-95081819D01*
X133580700Y-95081819D01*
X133580700Y-95081817D01*
X133580700Y-94918183D01*
X133580700Y-94918180D01*
X133548777Y-94757699D01*
X133548776Y-94757698D01*
X133548776Y-94757694D01*
X133486156Y-94606516D01*
X133395247Y-94470460D01*
X133395245Y-94470457D01*
X133279542Y-94354754D01*
X133211512Y-94309298D01*
X133143484Y-94263844D01*
X133128634Y-94257693D01*
X132992306Y-94201224D01*
X132992300Y-94201222D01*
X132831819Y-94169300D01*
X132831817Y-94169300D01*
X132668183Y-94169300D01*
X132668181Y-94169300D01*
X132507699Y-94201222D01*
X132507693Y-94201224D01*
X132356517Y-94263843D01*
X132220457Y-94354754D01*
X132104754Y-94470457D01*
X132013843Y-94606517D01*
X131951224Y-94757693D01*
X131951222Y-94757699D01*
X131919300Y-94918180D01*
X131919300Y-94918183D01*
X131919300Y-95081817D01*
X131919300Y-95081819D01*
X131919299Y-95081819D01*
X131580700Y-95081819D01*
X131580700Y-95081817D01*
X131580700Y-94918183D01*
X131580700Y-94918180D01*
X131548777Y-94757699D01*
X131548776Y-94757698D01*
X131548776Y-94757694D01*
X131486156Y-94606516D01*
X131395247Y-94470460D01*
X131395245Y-94470457D01*
X131279542Y-94354754D01*
X131211512Y-94309298D01*
X131143484Y-94263844D01*
X131128634Y-94257693D01*
X130992306Y-94201224D01*
X130992300Y-94201222D01*
X130831819Y-94169300D01*
X130831817Y-94169300D01*
X130668183Y-94169300D01*
X130668181Y-94169300D01*
X130507699Y-94201222D01*
X130507693Y-94201224D01*
X130356517Y-94263843D01*
X130220457Y-94354754D01*
X130104754Y-94470457D01*
X130013843Y-94606517D01*
X129951224Y-94757693D01*
X129951222Y-94757699D01*
X129919300Y-94918180D01*
X129919300Y-94918183D01*
X129919300Y-95081817D01*
X129919300Y-95081819D01*
X129919299Y-95081819D01*
X116755500Y-95081819D01*
X116755500Y-92874000D01*
X116743947Y-92766544D01*
X116732741Y-92715033D01*
X116717147Y-92668180D01*
X116698616Y-92612502D01*
X116698613Y-92612496D01*
X116624942Y-92497863D01*
X116620825Y-92491457D01*
X116598295Y-92465456D01*
X116575076Y-92438659D01*
X116575072Y-92438656D01*
X116575070Y-92438653D01*
X116485065Y-92360662D01*
X116447291Y-92301883D01*
X116447292Y-92232014D01*
X116458884Y-92204946D01*
X116466280Y-92192136D01*
X116466281Y-92192135D01*
X116495840Y-92081819D01*
X125419299Y-92081819D01*
X125451222Y-92242300D01*
X125451224Y-92242306D01*
X125502721Y-92366632D01*
X125513844Y-92393484D01*
X125544025Y-92438653D01*
X125604754Y-92529542D01*
X125720454Y-92645242D01*
X125720457Y-92645244D01*
X125720460Y-92645247D01*
X125744944Y-92661606D01*
X125789748Y-92715217D01*
X125798456Y-92784542D01*
X125779158Y-92833595D01*
X125763847Y-92856510D01*
X125763842Y-92856519D01*
X125701224Y-93007693D01*
X125701222Y-93007699D01*
X125669300Y-93168180D01*
X125669300Y-93168183D01*
X125669300Y-93331817D01*
X125669300Y-93331819D01*
X125669299Y-93331819D01*
X125701222Y-93492300D01*
X125701224Y-93492306D01*
X125763843Y-93643482D01*
X125854754Y-93779542D01*
X125970457Y-93895245D01*
X125970460Y-93895247D01*
X126106516Y-93986156D01*
X126257694Y-94048776D01*
X126257698Y-94048776D01*
X126257699Y-94048777D01*
X126418180Y-94080700D01*
X126418183Y-94080700D01*
X126581819Y-94080700D01*
X126689785Y-94059223D01*
X126742306Y-94048776D01*
X126893484Y-93986156D01*
X127029540Y-93895247D01*
X127145247Y-93779540D01*
X127236156Y-93643484D01*
X127298776Y-93492306D01*
X127330700Y-93331817D01*
X127330700Y-93168183D01*
X127330700Y-93168180D01*
X127298777Y-93007699D01*
X127298776Y-93007698D01*
X127298776Y-93007694D01*
X127236156Y-92856516D01*
X127219654Y-92831819D01*
X129919299Y-92831819D01*
X129951222Y-92992300D01*
X129951224Y-92992306D01*
X129984800Y-93073367D01*
X130013844Y-93143484D01*
X130038587Y-93180515D01*
X130104754Y-93279542D01*
X130220457Y-93395245D01*
X130220460Y-93395247D01*
X130356516Y-93486156D01*
X130507694Y-93548776D01*
X130507698Y-93548776D01*
X130507699Y-93548777D01*
X130668180Y-93580700D01*
X130668183Y-93580700D01*
X130831819Y-93580700D01*
X130939785Y-93559223D01*
X130992306Y-93548776D01*
X131143484Y-93486156D01*
X131279540Y-93395247D01*
X131395247Y-93279540D01*
X131486156Y-93143484D01*
X131548776Y-92992306D01*
X131572311Y-92873990D01*
X131580700Y-92831819D01*
X131919299Y-92831819D01*
X131951222Y-92992300D01*
X131951224Y-92992306D01*
X131984800Y-93073367D01*
X132013844Y-93143484D01*
X132038587Y-93180515D01*
X132104754Y-93279542D01*
X132220457Y-93395245D01*
X132220460Y-93395247D01*
X132356516Y-93486156D01*
X132507694Y-93548776D01*
X132507698Y-93548776D01*
X132507699Y-93548777D01*
X132668180Y-93580700D01*
X132668183Y-93580700D01*
X132831819Y-93580700D01*
X132939785Y-93559223D01*
X132992306Y-93548776D01*
X133143484Y-93486156D01*
X133279540Y-93395247D01*
X133395247Y-93279540D01*
X133486156Y-93143484D01*
X133548776Y-92992306D01*
X133572311Y-92873990D01*
X133580700Y-92831819D01*
X133580700Y-92668180D01*
X133548777Y-92507699D01*
X133548776Y-92507698D01*
X133548776Y-92507694D01*
X133486156Y-92356516D01*
X133395247Y-92220460D01*
X133395245Y-92220457D01*
X133279542Y-92104754D01*
X133191259Y-92045766D01*
X133143484Y-92013844D01*
X133128634Y-92007693D01*
X132992306Y-91951224D01*
X132992300Y-91951222D01*
X132831819Y-91919300D01*
X132831817Y-91919300D01*
X132668183Y-91919300D01*
X132668181Y-91919300D01*
X132507699Y-91951222D01*
X132507693Y-91951224D01*
X132356517Y-92013843D01*
X132220457Y-92104754D01*
X132104754Y-92220457D01*
X132013843Y-92356517D01*
X131951224Y-92507693D01*
X131951222Y-92507699D01*
X131919300Y-92668180D01*
X131919300Y-92668183D01*
X131919300Y-92831817D01*
X131919300Y-92831819D01*
X131919299Y-92831819D01*
X131580700Y-92831819D01*
X131580700Y-92668180D01*
X131548777Y-92507699D01*
X131548776Y-92507698D01*
X131548776Y-92507694D01*
X131486156Y-92356516D01*
X131395247Y-92220460D01*
X131395245Y-92220457D01*
X131279542Y-92104754D01*
X131191259Y-92045766D01*
X131143484Y-92013844D01*
X131128634Y-92007693D01*
X130992306Y-91951224D01*
X130992300Y-91951222D01*
X130831819Y-91919300D01*
X130831817Y-91919300D01*
X130668183Y-91919300D01*
X130668181Y-91919300D01*
X130507699Y-91951222D01*
X130507693Y-91951224D01*
X130356517Y-92013843D01*
X130220457Y-92104754D01*
X130104754Y-92220457D01*
X130013843Y-92356517D01*
X129951224Y-92507693D01*
X129951222Y-92507699D01*
X129919300Y-92668180D01*
X129919300Y-92668183D01*
X129919300Y-92831817D01*
X129919300Y-92831819D01*
X129919299Y-92831819D01*
X127219654Y-92831819D01*
X127152680Y-92731584D01*
X127152277Y-92730981D01*
X127152276Y-92730980D01*
X127145247Y-92720460D01*
X127145244Y-92720456D01*
X127029542Y-92604754D01*
X127005055Y-92588393D01*
X126960250Y-92534781D01*
X126951543Y-92465456D01*
X126970845Y-92416399D01*
X126986151Y-92393491D01*
X126986156Y-92393484D01*
X127048776Y-92242306D01*
X127068231Y-92144500D01*
X127080700Y-92081819D01*
X127080700Y-91918180D01*
X127048777Y-91757699D01*
X127048776Y-91757698D01*
X127048776Y-91757694D01*
X126986156Y-91606516D01*
X126895247Y-91470460D01*
X126895245Y-91470457D01*
X126779542Y-91354754D01*
X126666975Y-91279540D01*
X126643484Y-91263844D01*
X126492306Y-91201224D01*
X126492300Y-91201222D01*
X126331819Y-91169300D01*
X126331817Y-91169300D01*
X126168183Y-91169300D01*
X126168181Y-91169300D01*
X126007699Y-91201222D01*
X126007693Y-91201224D01*
X125856517Y-91263843D01*
X125720457Y-91354754D01*
X125604754Y-91470457D01*
X125513843Y-91606517D01*
X125451224Y-91757693D01*
X125451222Y-91757699D01*
X125419300Y-91918180D01*
X125419300Y-91918183D01*
X125419300Y-92081817D01*
X125419300Y-92081819D01*
X125419299Y-92081819D01*
X116495840Y-92081819D01*
X116505500Y-92045766D01*
X116505500Y-91894234D01*
X116466281Y-91747865D01*
X116390515Y-91616635D01*
X116283365Y-91509485D01*
X116181223Y-91450513D01*
X116152136Y-91433719D01*
X116023844Y-91399344D01*
X116005766Y-91394500D01*
X115854234Y-91394500D01*
X115707863Y-91433719D01*
X115576635Y-91509485D01*
X115576632Y-91509487D01*
X115469487Y-91616632D01*
X115469485Y-91616635D01*
X115393719Y-91747863D01*
X115364606Y-91856516D01*
X115354500Y-91894234D01*
X115354500Y-92045766D01*
X115365925Y-92088408D01*
X115364263Y-92158256D01*
X115325101Y-92216119D01*
X115260872Y-92243623D01*
X115246151Y-92244500D01*
X110874000Y-92244500D01*
X110873991Y-92244500D01*
X110873990Y-92244501D01*
X110766549Y-92256052D01*
X110766537Y-92256054D01*
X110715027Y-92267260D01*
X110612502Y-92301383D01*
X110612496Y-92301386D01*
X110491462Y-92379171D01*
X110491451Y-92379179D01*
X110438659Y-92424923D01*
X110344433Y-92533664D01*
X110344430Y-92533668D01*
X110284664Y-92664534D01*
X110264976Y-92731582D01*
X110259949Y-92766549D01*
X110244500Y-92874000D01*
X109750500Y-92874000D01*
X109750500Y-91081819D01*
X120419299Y-91081819D01*
X120451222Y-91242300D01*
X120451224Y-91242306D01*
X120497801Y-91354754D01*
X120513844Y-91393484D01*
X120529651Y-91417141D01*
X120604754Y-91529542D01*
X120720457Y-91645245D01*
X120720460Y-91645247D01*
X120856516Y-91736156D01*
X121007694Y-91798776D01*
X121007698Y-91798776D01*
X121007699Y-91798777D01*
X121168180Y-91830700D01*
X121168183Y-91830700D01*
X121331819Y-91830700D01*
X121439785Y-91809223D01*
X121492306Y-91798776D01*
X121643484Y-91736156D01*
X121779540Y-91645247D01*
X121895247Y-91529540D01*
X121986156Y-91393484D01*
X122048776Y-91242306D01*
X122063298Y-91169300D01*
X122080700Y-91081819D01*
X122080700Y-90918180D01*
X122048777Y-90757699D01*
X122048776Y-90757698D01*
X122048776Y-90757694D01*
X121986156Y-90606516D01*
X121895247Y-90470460D01*
X121895245Y-90470457D01*
X121779542Y-90354754D01*
X121711512Y-90309298D01*
X121643484Y-90263844D01*
X121575946Y-90235869D01*
X121492306Y-90201224D01*
X121492300Y-90201222D01*
X121331819Y-90169300D01*
X121331817Y-90169300D01*
X121168183Y-90169300D01*
X121168181Y-90169300D01*
X121007699Y-90201222D01*
X121007693Y-90201224D01*
X120856517Y-90263843D01*
X120720457Y-90354754D01*
X120604754Y-90470457D01*
X120513843Y-90606517D01*
X120451224Y-90757693D01*
X120451222Y-90757699D01*
X120419300Y-90918180D01*
X120419300Y-90918183D01*
X120419300Y-91081817D01*
X120419300Y-91081819D01*
X120419299Y-91081819D01*
X109750500Y-91081819D01*
X109750500Y-89081819D01*
X121919299Y-89081819D01*
X121951222Y-89242300D01*
X121951224Y-89242306D01*
X122013843Y-89393482D01*
X122104754Y-89529542D01*
X122220457Y-89645245D01*
X122220460Y-89645247D01*
X122356516Y-89736156D01*
X122507694Y-89798776D01*
X122507698Y-89798776D01*
X122507699Y-89798777D01*
X122668180Y-89830700D01*
X122668183Y-89830700D01*
X122831819Y-89830700D01*
X122939785Y-89809223D01*
X122992306Y-89798776D01*
X123143484Y-89736156D01*
X123279540Y-89645247D01*
X123395247Y-89529540D01*
X123486156Y-89393484D01*
X123548776Y-89242306D01*
X123559223Y-89189785D01*
X123580700Y-89081819D01*
X124169299Y-89081819D01*
X124201222Y-89242300D01*
X124201224Y-89242306D01*
X124263843Y-89393482D01*
X124354754Y-89529542D01*
X124470457Y-89645245D01*
X124470460Y-89645247D01*
X124606516Y-89736156D01*
X124757694Y-89798776D01*
X124757698Y-89798776D01*
X124757699Y-89798777D01*
X124918180Y-89830700D01*
X124918183Y-89830700D01*
X125081819Y-89830700D01*
X125189785Y-89809223D01*
X125242306Y-89798776D01*
X125393484Y-89736156D01*
X125529540Y-89645247D01*
X125645247Y-89529540D01*
X125736156Y-89393484D01*
X125798776Y-89242306D01*
X125809223Y-89189785D01*
X125830700Y-89081819D01*
X125830700Y-88918180D01*
X125798777Y-88757699D01*
X125798776Y-88757698D01*
X125798776Y-88757694D01*
X125736156Y-88606516D01*
X125645247Y-88470460D01*
X125645245Y-88470457D01*
X125529542Y-88354754D01*
X125416975Y-88279540D01*
X125393484Y-88263844D01*
X125242306Y-88201224D01*
X125242300Y-88201222D01*
X125081819Y-88169300D01*
X125081817Y-88169300D01*
X124918183Y-88169300D01*
X124918181Y-88169300D01*
X124757699Y-88201222D01*
X124757693Y-88201224D01*
X124606517Y-88263843D01*
X124470457Y-88354754D01*
X124354754Y-88470457D01*
X124263843Y-88606517D01*
X124201224Y-88757693D01*
X124201222Y-88757699D01*
X124169300Y-88918180D01*
X124169300Y-88918183D01*
X124169300Y-89081817D01*
X124169300Y-89081819D01*
X124169299Y-89081819D01*
X123580700Y-89081819D01*
X123580700Y-88918180D01*
X123548777Y-88757699D01*
X123548776Y-88757698D01*
X123548776Y-88757694D01*
X123486156Y-88606516D01*
X123395247Y-88470460D01*
X123395245Y-88470457D01*
X123279542Y-88354754D01*
X123166975Y-88279540D01*
X123143484Y-88263844D01*
X122992306Y-88201224D01*
X122992300Y-88201222D01*
X122831819Y-88169300D01*
X122831817Y-88169300D01*
X122668183Y-88169300D01*
X122668181Y-88169300D01*
X122507699Y-88201222D01*
X122507693Y-88201224D01*
X122356517Y-88263843D01*
X122220457Y-88354754D01*
X122104754Y-88470457D01*
X122013843Y-88606517D01*
X121951224Y-88757693D01*
X121951222Y-88757699D01*
X121919300Y-88918180D01*
X121919300Y-88918183D01*
X121919300Y-89081817D01*
X121919300Y-89081819D01*
X121919299Y-89081819D01*
X109750500Y-89081819D01*
X109750500Y-86331819D01*
X117419299Y-86331819D01*
X117451222Y-86492300D01*
X117451224Y-86492306D01*
X117513844Y-86643484D01*
X117533444Y-86672818D01*
X117604754Y-86779542D01*
X117720457Y-86895245D01*
X117720460Y-86895247D01*
X117856516Y-86986156D01*
X118007694Y-87048776D01*
X118007698Y-87048776D01*
X118007699Y-87048777D01*
X118168180Y-87080700D01*
X118168183Y-87080700D01*
X118331819Y-87080700D01*
X118439785Y-87059223D01*
X118492306Y-87048776D01*
X118643484Y-86986156D01*
X118779540Y-86895247D01*
X118895247Y-86779540D01*
X118986156Y-86643484D01*
X119048776Y-86492306D01*
X119063490Y-86418334D01*
X119080700Y-86331819D01*
X119669299Y-86331819D01*
X119701222Y-86492300D01*
X119701224Y-86492306D01*
X119763844Y-86643484D01*
X119783444Y-86672818D01*
X119854754Y-86779542D01*
X119970457Y-86895245D01*
X119970460Y-86895247D01*
X120106516Y-86986156D01*
X120257694Y-87048776D01*
X120257698Y-87048776D01*
X120257699Y-87048777D01*
X120418180Y-87080700D01*
X120418183Y-87080700D01*
X120581819Y-87080700D01*
X120689785Y-87059223D01*
X120742306Y-87048776D01*
X120893484Y-86986156D01*
X121029540Y-86895247D01*
X121145247Y-86779540D01*
X121236156Y-86643484D01*
X121298776Y-86492306D01*
X121313490Y-86418334D01*
X121330700Y-86331819D01*
X121919299Y-86331819D01*
X121951222Y-86492300D01*
X121951224Y-86492306D01*
X122013844Y-86643484D01*
X122033444Y-86672818D01*
X122104754Y-86779542D01*
X122220457Y-86895245D01*
X122220460Y-86895247D01*
X122356516Y-86986156D01*
X122507694Y-87048776D01*
X122507698Y-87048776D01*
X122507699Y-87048777D01*
X122668180Y-87080700D01*
X122668183Y-87080700D01*
X122831819Y-87080700D01*
X122939785Y-87059223D01*
X122992306Y-87048776D01*
X123143484Y-86986156D01*
X123279540Y-86895247D01*
X123395247Y-86779540D01*
X123486156Y-86643484D01*
X123548776Y-86492306D01*
X123563490Y-86418334D01*
X123580700Y-86331819D01*
X124169299Y-86331819D01*
X124201222Y-86492300D01*
X124201224Y-86492306D01*
X124263844Y-86643484D01*
X124283444Y-86672818D01*
X124354754Y-86779542D01*
X124470457Y-86895245D01*
X124470460Y-86895247D01*
X124606516Y-86986156D01*
X124757694Y-87048776D01*
X124757698Y-87048776D01*
X124757699Y-87048777D01*
X124918180Y-87080700D01*
X124918183Y-87080700D01*
X125081819Y-87080700D01*
X125189785Y-87059223D01*
X125242306Y-87048776D01*
X125393484Y-86986156D01*
X125529540Y-86895247D01*
X125645247Y-86779540D01*
X125736156Y-86643484D01*
X125798776Y-86492306D01*
X125813490Y-86418334D01*
X125830700Y-86331819D01*
X125830700Y-86168180D01*
X125798777Y-86007699D01*
X125798776Y-86007698D01*
X125798776Y-86007694D01*
X125736156Y-85856516D01*
X125645247Y-85720460D01*
X125645245Y-85720457D01*
X125529542Y-85604754D01*
X125445762Y-85548775D01*
X125393484Y-85513844D01*
X125378634Y-85507693D01*
X125242306Y-85451224D01*
X125242300Y-85451222D01*
X125081819Y-85419300D01*
X125081817Y-85419300D01*
X124918183Y-85419300D01*
X124918181Y-85419300D01*
X124757699Y-85451222D01*
X124757693Y-85451224D01*
X124606517Y-85513843D01*
X124470457Y-85604754D01*
X124354754Y-85720457D01*
X124263843Y-85856517D01*
X124201224Y-86007693D01*
X124201222Y-86007699D01*
X124169300Y-86168180D01*
X124169300Y-86168183D01*
X124169300Y-86331817D01*
X124169300Y-86331819D01*
X124169299Y-86331819D01*
X123580700Y-86331819D01*
X123580700Y-86168180D01*
X123548777Y-86007699D01*
X123548776Y-86007698D01*
X123548776Y-86007694D01*
X123486156Y-85856516D01*
X123395247Y-85720460D01*
X123395245Y-85720457D01*
X123279542Y-85604754D01*
X123195762Y-85548775D01*
X123143484Y-85513844D01*
X123128634Y-85507693D01*
X122992306Y-85451224D01*
X122992300Y-85451222D01*
X122831819Y-85419300D01*
X122831817Y-85419300D01*
X122668183Y-85419300D01*
X122668181Y-85419300D01*
X122507699Y-85451222D01*
X122507693Y-85451224D01*
X122356517Y-85513843D01*
X122220457Y-85604754D01*
X122104754Y-85720457D01*
X122013843Y-85856517D01*
X121951224Y-86007693D01*
X121951222Y-86007699D01*
X121919300Y-86168180D01*
X121919300Y-86168183D01*
X121919300Y-86331817D01*
X121919300Y-86331819D01*
X121919299Y-86331819D01*
X121330700Y-86331819D01*
X121330700Y-86168180D01*
X121298777Y-86007699D01*
X121298776Y-86007698D01*
X121298776Y-86007694D01*
X121236156Y-85856516D01*
X121145247Y-85720460D01*
X121145245Y-85720457D01*
X121029542Y-85604754D01*
X120945762Y-85548775D01*
X120893484Y-85513844D01*
X120878634Y-85507693D01*
X120742306Y-85451224D01*
X120742300Y-85451222D01*
X120581819Y-85419300D01*
X120581817Y-85419300D01*
X120418183Y-85419300D01*
X120418181Y-85419300D01*
X120257699Y-85451222D01*
X120257693Y-85451224D01*
X120106517Y-85513843D01*
X119970457Y-85604754D01*
X119854754Y-85720457D01*
X119763843Y-85856517D01*
X119701224Y-86007693D01*
X119701222Y-86007699D01*
X119669300Y-86168180D01*
X119669300Y-86168183D01*
X119669300Y-86331817D01*
X119669300Y-86331819D01*
X119669299Y-86331819D01*
X119080700Y-86331819D01*
X119080700Y-86168180D01*
X119048777Y-86007699D01*
X119048776Y-86007698D01*
X119048776Y-86007694D01*
X118986156Y-85856516D01*
X118895247Y-85720460D01*
X118895245Y-85720457D01*
X118779542Y-85604754D01*
X118695762Y-85548775D01*
X118643484Y-85513844D01*
X118628634Y-85507693D01*
X118492306Y-85451224D01*
X118492300Y-85451222D01*
X118331819Y-85419300D01*
X118331817Y-85419300D01*
X118168183Y-85419300D01*
X118168181Y-85419300D01*
X118007699Y-85451222D01*
X118007693Y-85451224D01*
X117856517Y-85513843D01*
X117720457Y-85604754D01*
X117604754Y-85720457D01*
X117513843Y-85856517D01*
X117451224Y-86007693D01*
X117451222Y-86007699D01*
X117419300Y-86168180D01*
X117419300Y-86168183D01*
X117419300Y-86331817D01*
X117419300Y-86331819D01*
X117419299Y-86331819D01*
X109750500Y-86331819D01*
X109750500Y-84581819D01*
X129169299Y-84581819D01*
X129201222Y-84742300D01*
X129201224Y-84742306D01*
X129263843Y-84893482D01*
X129354754Y-85029542D01*
X129470454Y-85145242D01*
X129470457Y-85145244D01*
X129470460Y-85145247D01*
X129494944Y-85161606D01*
X129539748Y-85215217D01*
X129548456Y-85284542D01*
X129529158Y-85333595D01*
X129513847Y-85356510D01*
X129513842Y-85356519D01*
X129451224Y-85507693D01*
X129451222Y-85507699D01*
X129419300Y-85668180D01*
X129419300Y-85668183D01*
X129419300Y-85831817D01*
X129419300Y-85831819D01*
X129419299Y-85831819D01*
X129451222Y-85992300D01*
X129451224Y-85992306D01*
X129513843Y-86143482D01*
X129604754Y-86279542D01*
X129612531Y-86287319D01*
X129646016Y-86348642D01*
X129641032Y-86418334D01*
X129612531Y-86462681D01*
X129604755Y-86470456D01*
X129604754Y-86470457D01*
X129513843Y-86606517D01*
X129451224Y-86757693D01*
X129451222Y-86757699D01*
X129419300Y-86918180D01*
X129419300Y-86918183D01*
X129419300Y-87081817D01*
X129419300Y-87081819D01*
X129419299Y-87081819D01*
X129451222Y-87242300D01*
X129451224Y-87242306D01*
X129513844Y-87393484D01*
X129528490Y-87415403D01*
X129604754Y-87529542D01*
X129612531Y-87537319D01*
X129646016Y-87598642D01*
X129641032Y-87668334D01*
X129612531Y-87712681D01*
X129604755Y-87720456D01*
X129604754Y-87720457D01*
X129513843Y-87856517D01*
X129451224Y-88007693D01*
X129451222Y-88007699D01*
X129419300Y-88168180D01*
X129419300Y-88168183D01*
X129419300Y-88331817D01*
X129419300Y-88331819D01*
X129419299Y-88331819D01*
X129451222Y-88492300D01*
X129451224Y-88492306D01*
X129513843Y-88643482D01*
X129604754Y-88779542D01*
X129612531Y-88787319D01*
X129646016Y-88848642D01*
X129641032Y-88918334D01*
X129612531Y-88962681D01*
X129604755Y-88970456D01*
X129604754Y-88970457D01*
X129513843Y-89106517D01*
X129451224Y-89257693D01*
X129451222Y-89257699D01*
X129419300Y-89418180D01*
X129419300Y-89418183D01*
X129419300Y-89581817D01*
X129419300Y-89581819D01*
X129419299Y-89581819D01*
X129451222Y-89742300D01*
X129451224Y-89742306D01*
X129513843Y-89893482D01*
X129604754Y-90029542D01*
X129612531Y-90037319D01*
X129646016Y-90098642D01*
X129641032Y-90168334D01*
X129612531Y-90212681D01*
X129604755Y-90220456D01*
X129604754Y-90220457D01*
X129513843Y-90356517D01*
X129451224Y-90507693D01*
X129451222Y-90507699D01*
X129419300Y-90668180D01*
X129419300Y-90668183D01*
X129419300Y-90831817D01*
X129419300Y-90831819D01*
X129419299Y-90831819D01*
X129451222Y-90992300D01*
X129451224Y-90992306D01*
X129513843Y-91143482D01*
X129604754Y-91279542D01*
X129720457Y-91395245D01*
X129720460Y-91395247D01*
X129856516Y-91486156D01*
X130007694Y-91548776D01*
X130007698Y-91548776D01*
X130007699Y-91548777D01*
X130168180Y-91580700D01*
X130168183Y-91580700D01*
X130331819Y-91580700D01*
X130488696Y-91549494D01*
X130492306Y-91548776D01*
X130643484Y-91486156D01*
X130779540Y-91395247D01*
X130895247Y-91279540D01*
X130986156Y-91143484D01*
X131048776Y-90992306D01*
X131080700Y-90831817D01*
X131080700Y-90668183D01*
X131080700Y-90668180D01*
X131048777Y-90507699D01*
X131048776Y-90507698D01*
X131048776Y-90507694D01*
X130986156Y-90356516D01*
X130895247Y-90220460D01*
X130887469Y-90212682D01*
X130853984Y-90151363D01*
X130858965Y-90081671D01*
X130887469Y-90037317D01*
X130895247Y-90029540D01*
X130986156Y-89893484D01*
X131048776Y-89742306D01*
X131068083Y-89645245D01*
X131080700Y-89581819D01*
X131080700Y-89418180D01*
X131048777Y-89257699D01*
X131048776Y-89257698D01*
X131048776Y-89257694D01*
X130986156Y-89106516D01*
X130895247Y-88970460D01*
X130887469Y-88962682D01*
X130853984Y-88901363D01*
X130858965Y-88831671D01*
X130887469Y-88787317D01*
X130895247Y-88779540D01*
X130986156Y-88643484D01*
X131048776Y-88492306D01*
X131068083Y-88395245D01*
X131080700Y-88331819D01*
X137669299Y-88331819D01*
X137701222Y-88492300D01*
X137701224Y-88492306D01*
X137763843Y-88643482D01*
X137854754Y-88779542D01*
X137970457Y-88895245D01*
X137970460Y-88895247D01*
X138106516Y-88986156D01*
X138257694Y-89048776D01*
X138257698Y-89048776D01*
X138257699Y-89048777D01*
X138418180Y-89080700D01*
X138418183Y-89080700D01*
X138581819Y-89080700D01*
X138689785Y-89059223D01*
X138742306Y-89048776D01*
X138893484Y-88986156D01*
X139029540Y-88895247D01*
X139145247Y-88779540D01*
X139236156Y-88643484D01*
X139298776Y-88492306D01*
X139318083Y-88395245D01*
X139330700Y-88331819D01*
X139330700Y-88168180D01*
X139298777Y-88007699D01*
X139298776Y-88007698D01*
X139298776Y-88007694D01*
X139236156Y-87856516D01*
X139145247Y-87720460D01*
X139145245Y-87720457D01*
X139029542Y-87604754D01*
X138916973Y-87529539D01*
X138893484Y-87513844D01*
X138878634Y-87507693D01*
X138742306Y-87451224D01*
X138742300Y-87451222D01*
X138581819Y-87419300D01*
X138581817Y-87419300D01*
X138418183Y-87419300D01*
X138418181Y-87419300D01*
X138257699Y-87451222D01*
X138257693Y-87451224D01*
X138106517Y-87513843D01*
X137970457Y-87604754D01*
X137854754Y-87720457D01*
X137763843Y-87856517D01*
X137701224Y-88007693D01*
X137701222Y-88007699D01*
X137669300Y-88168180D01*
X137669300Y-88168183D01*
X137669300Y-88331817D01*
X137669300Y-88331819D01*
X137669299Y-88331819D01*
X131080700Y-88331819D01*
X131080700Y-88168180D01*
X131048777Y-88007699D01*
X131048776Y-88007698D01*
X131048776Y-88007694D01*
X130986156Y-87856516D01*
X130895247Y-87720460D01*
X130887469Y-87712682D01*
X130853984Y-87651363D01*
X130858965Y-87581671D01*
X130887469Y-87537317D01*
X130895247Y-87529540D01*
X130986156Y-87393484D01*
X131048776Y-87242306D01*
X131059223Y-87189785D01*
X131080700Y-87081819D01*
X131080700Y-86918180D01*
X131048777Y-86757699D01*
X131048776Y-86757698D01*
X131048776Y-86757694D01*
X130986156Y-86606516D01*
X130895247Y-86470460D01*
X130887469Y-86462682D01*
X130853984Y-86401363D01*
X130858965Y-86331671D01*
X130887469Y-86287317D01*
X130895247Y-86279540D01*
X130986156Y-86143484D01*
X131011698Y-86081819D01*
X137669299Y-86081819D01*
X137701222Y-86242300D01*
X137701224Y-86242306D01*
X137763843Y-86393482D01*
X137854754Y-86529542D01*
X137970457Y-86645245D01*
X137970460Y-86645247D01*
X138106516Y-86736156D01*
X138257694Y-86798776D01*
X138257698Y-86798776D01*
X138257699Y-86798777D01*
X138418180Y-86830700D01*
X138418183Y-86830700D01*
X138581819Y-86830700D01*
X138689785Y-86809223D01*
X138742306Y-86798776D01*
X138893484Y-86736156D01*
X139029540Y-86645247D01*
X139145247Y-86529540D01*
X139236156Y-86393484D01*
X139298776Y-86242306D01*
X139313521Y-86168180D01*
X139330700Y-86081819D01*
X139330700Y-85918180D01*
X139313521Y-85831819D01*
X146669299Y-85831819D01*
X146701222Y-85992300D01*
X146701224Y-85992306D01*
X146763843Y-86143482D01*
X146854754Y-86279542D01*
X146970457Y-86395245D01*
X146970460Y-86395247D01*
X147005012Y-86418334D01*
X147077268Y-86466613D01*
X147122074Y-86520225D01*
X147130781Y-86589550D01*
X147100627Y-86652578D01*
X147077269Y-86672818D01*
X147054044Y-86688336D01*
X147054040Y-86688339D01*
X146938338Y-86804041D01*
X146847427Y-86940101D01*
X146784808Y-87091277D01*
X146784806Y-87091283D01*
X146752884Y-87251764D01*
X146752884Y-87251767D01*
X146752884Y-87415401D01*
X146752884Y-87415403D01*
X146752883Y-87415403D01*
X146784806Y-87575884D01*
X146784808Y-87575890D01*
X146823177Y-87668521D01*
X146830646Y-87737991D01*
X146811719Y-87784863D01*
X146763844Y-87856514D01*
X146701224Y-88007693D01*
X146701222Y-88007699D01*
X146669300Y-88168180D01*
X146669300Y-88168183D01*
X146669300Y-88331817D01*
X146669300Y-88331819D01*
X146669299Y-88331819D01*
X146701222Y-88492300D01*
X146701224Y-88492306D01*
X146763843Y-88643482D01*
X146854754Y-88779542D01*
X146970454Y-88895242D01*
X146970457Y-88895244D01*
X146970460Y-88895247D01*
X146994944Y-88911606D01*
X147039748Y-88965217D01*
X147048456Y-89034542D01*
X147029158Y-89083595D01*
X147013847Y-89106510D01*
X147013842Y-89106519D01*
X146951224Y-89257693D01*
X146951222Y-89257699D01*
X146919300Y-89418180D01*
X146919300Y-89418183D01*
X146919300Y-89581817D01*
X146919300Y-89581819D01*
X146919299Y-89581819D01*
X146951222Y-89742300D01*
X146951224Y-89742306D01*
X147013843Y-89893482D01*
X147104754Y-90029542D01*
X147112531Y-90037319D01*
X147146016Y-90098642D01*
X147141032Y-90168334D01*
X147112531Y-90212681D01*
X147104755Y-90220456D01*
X147104754Y-90220457D01*
X147013843Y-90356517D01*
X146951224Y-90507693D01*
X146951222Y-90507699D01*
X146919300Y-90668180D01*
X146919300Y-90668183D01*
X146919300Y-90831817D01*
X146919300Y-90831819D01*
X146919299Y-90831819D01*
X146951222Y-90992300D01*
X146951224Y-90992306D01*
X147013843Y-91143482D01*
X147104754Y-91279542D01*
X147220456Y-91395244D01*
X147220459Y-91395246D01*
X147222932Y-91396899D01*
X147223934Y-91398098D01*
X147225168Y-91399111D01*
X147224976Y-91399344D01*
X147267736Y-91450513D01*
X147276442Y-91519838D01*
X147246286Y-91582865D01*
X147222932Y-91603101D01*
X147220459Y-91604753D01*
X147220456Y-91604755D01*
X147104754Y-91720457D01*
X147013843Y-91856517D01*
X146951224Y-92007693D01*
X146951222Y-92007699D01*
X146919300Y-92168180D01*
X146919300Y-92168183D01*
X146919300Y-92331817D01*
X146919300Y-92331819D01*
X146919299Y-92331819D01*
X146951222Y-92492300D01*
X146951224Y-92492306D01*
X147013842Y-92643481D01*
X147038985Y-92681111D01*
X147059861Y-92747789D01*
X147041375Y-92815169D01*
X147038985Y-92818889D01*
X147013842Y-92856518D01*
X146951224Y-93007693D01*
X146951222Y-93007699D01*
X146919300Y-93168180D01*
X146919300Y-93168183D01*
X146919300Y-93331817D01*
X146919300Y-93331819D01*
X146919299Y-93331819D01*
X146951222Y-93492300D01*
X146951224Y-93492306D01*
X147013843Y-93643482D01*
X147104754Y-93779542D01*
X147112531Y-93787319D01*
X147146016Y-93848642D01*
X147141032Y-93918334D01*
X147112531Y-93962681D01*
X147104755Y-93970456D01*
X147104754Y-93970457D01*
X147013843Y-94106517D01*
X146951224Y-94257693D01*
X146951222Y-94257699D01*
X146919300Y-94418180D01*
X146919300Y-94418183D01*
X146919300Y-94581817D01*
X146919300Y-94581819D01*
X146919299Y-94581819D01*
X146951222Y-94742300D01*
X146951224Y-94742306D01*
X147013843Y-94893482D01*
X147104754Y-95029542D01*
X147220457Y-95145245D01*
X147220460Y-95145247D01*
X147356516Y-95236156D01*
X147507694Y-95298776D01*
X147507698Y-95298776D01*
X147507699Y-95298777D01*
X147668180Y-95330700D01*
X147668183Y-95330700D01*
X147831819Y-95330700D01*
X147939785Y-95309223D01*
X147992306Y-95298776D01*
X148143484Y-95236156D01*
X148279540Y-95145247D01*
X148284849Y-95139938D01*
X148350378Y-95074410D01*
X148395244Y-95029543D01*
X148395245Y-95029542D01*
X148395247Y-95029540D01*
X148486156Y-94893484D01*
X148548776Y-94742306D01*
X148575787Y-94606516D01*
X148580700Y-94581819D01*
X148580700Y-94418180D01*
X148548777Y-94257699D01*
X148548776Y-94257698D01*
X148548776Y-94257694D01*
X148486156Y-94106516D01*
X148395247Y-93970460D01*
X148387469Y-93962682D01*
X148353984Y-93901363D01*
X148358965Y-93831671D01*
X148387469Y-93787317D01*
X148395247Y-93779540D01*
X148486156Y-93643484D01*
X148548776Y-93492306D01*
X148580700Y-93331817D01*
X148580700Y-93168183D01*
X148580700Y-93168180D01*
X148548777Y-93007699D01*
X148548776Y-93007698D01*
X148548776Y-93007694D01*
X148486156Y-92856516D01*
X148461016Y-92818891D01*
X148457024Y-92806144D01*
X148448812Y-92795612D01*
X148446787Y-92773450D01*
X148440138Y-92752214D01*
X148443530Y-92737797D01*
X148442456Y-92726032D01*
X148451385Y-92704418D01*
X148454137Y-92692727D01*
X148457260Y-92686729D01*
X148485655Y-92644234D01*
X158209500Y-92644234D01*
X158209500Y-92795765D01*
X158248719Y-92942136D01*
X158277682Y-92992300D01*
X158324485Y-93073365D01*
X158431635Y-93180515D01*
X158562865Y-93256281D01*
X158709234Y-93295500D01*
X158709236Y-93295500D01*
X158860764Y-93295500D01*
X158860766Y-93295500D01*
X159007135Y-93256281D01*
X159138365Y-93180515D01*
X159245515Y-93073365D01*
X159321281Y-92942135D01*
X159360500Y-92795766D01*
X159360500Y-92644234D01*
X159321281Y-92497865D01*
X159318071Y-92492306D01*
X159311129Y-92480281D01*
X159245515Y-92366635D01*
X159138365Y-92259485D01*
X159063253Y-92216119D01*
X159007136Y-92183719D01*
X158933950Y-92164109D01*
X158860766Y-92144500D01*
X158709234Y-92144500D01*
X158562863Y-92183719D01*
X158431635Y-92259485D01*
X158431632Y-92259487D01*
X158324487Y-92366632D01*
X158324485Y-92366635D01*
X158248719Y-92497863D01*
X158209500Y-92644234D01*
X148485655Y-92644234D01*
X148486156Y-92643484D01*
X148548776Y-92492306D01*
X148559447Y-92438659D01*
X148580700Y-92331819D01*
X148580700Y-92168180D01*
X148548777Y-92007699D01*
X148548776Y-92007698D01*
X148548776Y-92007694D01*
X148486156Y-91856516D01*
X148395247Y-91720460D01*
X148395245Y-91720457D01*
X148279543Y-91604755D01*
X148279514Y-91604735D01*
X148277072Y-91603104D01*
X148276070Y-91601905D01*
X148274832Y-91600889D01*
X148275024Y-91600654D01*
X148232266Y-91549494D01*
X148223556Y-91480169D01*
X148253708Y-91417141D01*
X148277071Y-91396896D01*
X148279540Y-91395247D01*
X148395247Y-91279540D01*
X148486156Y-91143484D01*
X148548776Y-90992306D01*
X148580700Y-90831817D01*
X148580700Y-90668183D01*
X148580700Y-90668180D01*
X148548777Y-90507699D01*
X148548776Y-90507698D01*
X148548776Y-90507694D01*
X148486156Y-90356516D01*
X148469654Y-90331819D01*
X154419299Y-90331819D01*
X154451222Y-90492300D01*
X154451224Y-90492306D01*
X154513843Y-90643482D01*
X154604754Y-90779542D01*
X154720457Y-90895245D01*
X154720460Y-90895247D01*
X154856516Y-90986156D01*
X155007694Y-91048776D01*
X155007698Y-91048776D01*
X155007699Y-91048777D01*
X155168180Y-91080700D01*
X155168183Y-91080700D01*
X155331819Y-91080700D01*
X155439785Y-91059223D01*
X155492306Y-91048776D01*
X155643484Y-90986156D01*
X155779540Y-90895247D01*
X155895247Y-90779540D01*
X155986156Y-90643484D01*
X156048776Y-90492306D01*
X156075787Y-90356516D01*
X156080700Y-90331819D01*
X156080700Y-90168180D01*
X156048777Y-90007699D01*
X156048776Y-90007698D01*
X156048776Y-90007694D01*
X155986156Y-89856516D01*
X155895247Y-89720460D01*
X155895245Y-89720457D01*
X155779542Y-89604754D01*
X155666975Y-89529540D01*
X155643484Y-89513844D01*
X155492306Y-89451224D01*
X155492300Y-89451222D01*
X155331819Y-89419300D01*
X155331817Y-89419300D01*
X155168183Y-89419300D01*
X155168181Y-89419300D01*
X155007699Y-89451222D01*
X155007693Y-89451224D01*
X154856517Y-89513843D01*
X154720457Y-89604754D01*
X154604754Y-89720457D01*
X154513843Y-89856517D01*
X154451224Y-90007693D01*
X154451222Y-90007699D01*
X154419300Y-90168180D01*
X154419300Y-90168183D01*
X154419300Y-90331817D01*
X154419300Y-90331819D01*
X154419299Y-90331819D01*
X148469654Y-90331819D01*
X148395247Y-90220460D01*
X148383010Y-90208223D01*
X148379031Y-90203341D01*
X148367829Y-90176716D01*
X148353984Y-90151363D01*
X148354445Y-90144905D01*
X148351935Y-90138939D01*
X148356905Y-90110487D01*
X148358965Y-90081671D01*
X148363050Y-90075314D01*
X148363959Y-90070112D01*
X148372020Y-90061355D01*
X148387469Y-90037317D01*
X148395247Y-90029540D01*
X148486156Y-89893484D01*
X148548776Y-89742306D01*
X148568083Y-89645245D01*
X148580700Y-89581819D01*
X148580700Y-89418180D01*
X148548777Y-89257699D01*
X148548776Y-89257698D01*
X148548776Y-89257694D01*
X148486156Y-89106516D01*
X148395247Y-88970460D01*
X148395245Y-88970457D01*
X148279542Y-88854754D01*
X148255055Y-88838393D01*
X148210250Y-88784781D01*
X148201543Y-88715456D01*
X148220845Y-88666399D01*
X148236151Y-88643491D01*
X148236156Y-88643484D01*
X148298776Y-88492306D01*
X148318083Y-88395245D01*
X148330700Y-88331819D01*
X148330700Y-88168180D01*
X148298777Y-88007699D01*
X148298776Y-88007698D01*
X148298776Y-88007694D01*
X148260405Y-87915060D01*
X148260325Y-87914308D01*
X148259858Y-87913715D01*
X148256600Y-87879666D01*
X148252937Y-87845591D01*
X148253251Y-87844663D01*
X148253204Y-87844163D01*
X148254457Y-87841109D01*
X148257610Y-87831819D01*
X148919299Y-87831819D01*
X148951222Y-87992300D01*
X148951224Y-87992306D01*
X149013843Y-88143482D01*
X149104754Y-88279542D01*
X149220457Y-88395245D01*
X149220460Y-88395247D01*
X149356516Y-88486156D01*
X149507694Y-88548776D01*
X149507698Y-88548776D01*
X149507699Y-88548777D01*
X149668180Y-88580700D01*
X149668183Y-88580700D01*
X149831819Y-88580700D01*
X149939785Y-88559223D01*
X149992306Y-88548776D01*
X150143484Y-88486156D01*
X150279540Y-88395247D01*
X150395247Y-88279540D01*
X150486156Y-88143484D01*
X150548776Y-87992306D01*
X150575787Y-87856516D01*
X150580700Y-87831819D01*
X150580700Y-87668180D01*
X150548777Y-87507699D01*
X150548776Y-87507698D01*
X150548776Y-87507694D01*
X150486156Y-87356516D01*
X150395247Y-87220460D01*
X150395245Y-87220457D01*
X150279542Y-87104754D01*
X150195762Y-87048775D01*
X150143484Y-87013844D01*
X150076639Y-86986156D01*
X149992306Y-86951224D01*
X149992300Y-86951222D01*
X149831819Y-86919300D01*
X149831817Y-86919300D01*
X149668183Y-86919300D01*
X149668181Y-86919300D01*
X149507699Y-86951222D01*
X149507693Y-86951224D01*
X149356517Y-87013843D01*
X149220457Y-87104754D01*
X149104754Y-87220457D01*
X149013843Y-87356517D01*
X148951224Y-87507693D01*
X148951222Y-87507699D01*
X148919300Y-87668180D01*
X148919300Y-87668183D01*
X148919300Y-87831817D01*
X148919300Y-87831819D01*
X148919299Y-87831819D01*
X148257610Y-87831819D01*
X148264741Y-87810808D01*
X148267957Y-87804566D01*
X148319740Y-87727068D01*
X148382360Y-87575890D01*
X148407159Y-87451222D01*
X148414284Y-87415403D01*
X148414284Y-87251764D01*
X148382361Y-87091283D01*
X148382360Y-87091282D01*
X148382360Y-87091278D01*
X148319740Y-86940100D01*
X148228831Y-86804044D01*
X148228829Y-86804041D01*
X148113127Y-86688339D01*
X148113119Y-86688333D01*
X148006315Y-86616969D01*
X147961509Y-86563357D01*
X147952802Y-86494032D01*
X147982956Y-86431005D01*
X148006311Y-86410767D01*
X148029540Y-86395247D01*
X148145247Y-86279540D01*
X148236156Y-86143484D01*
X148298776Y-85992306D01*
X148313521Y-85918180D01*
X148330700Y-85831819D01*
X148330700Y-85668180D01*
X148298777Y-85507699D01*
X148298776Y-85507698D01*
X148298776Y-85507694D01*
X148236156Y-85356516D01*
X148145247Y-85220460D01*
X148145245Y-85220457D01*
X148029542Y-85104754D01*
X147961512Y-85059298D01*
X147893484Y-85013844D01*
X147742306Y-84951224D01*
X147742300Y-84951222D01*
X147581819Y-84919300D01*
X147581817Y-84919300D01*
X147418183Y-84919300D01*
X147418181Y-84919300D01*
X147257699Y-84951222D01*
X147257693Y-84951224D01*
X147106517Y-85013843D01*
X146970457Y-85104754D01*
X146854754Y-85220457D01*
X146763843Y-85356517D01*
X146701224Y-85507693D01*
X146701222Y-85507699D01*
X146669300Y-85668180D01*
X146669300Y-85668183D01*
X146669300Y-85831817D01*
X146669300Y-85831819D01*
X146669299Y-85831819D01*
X139313521Y-85831819D01*
X139298777Y-85757699D01*
X139298776Y-85757698D01*
X139298776Y-85757694D01*
X139298774Y-85757689D01*
X139278832Y-85709543D01*
X139236157Y-85606517D01*
X139145245Y-85470457D01*
X139029542Y-85354754D01*
X138916975Y-85279540D01*
X138893484Y-85263844D01*
X138742306Y-85201224D01*
X138742300Y-85201222D01*
X138581819Y-85169300D01*
X138581817Y-85169300D01*
X138418183Y-85169300D01*
X138418181Y-85169300D01*
X138257699Y-85201222D01*
X138257693Y-85201224D01*
X138106517Y-85263843D01*
X137970457Y-85354754D01*
X137854754Y-85470457D01*
X137763843Y-85606517D01*
X137701224Y-85757693D01*
X137701222Y-85757699D01*
X137669300Y-85918180D01*
X137669300Y-85918183D01*
X137669300Y-86081817D01*
X137669300Y-86081819D01*
X137669299Y-86081819D01*
X131011698Y-86081819D01*
X131048776Y-85992306D01*
X131053449Y-85968810D01*
X131069545Y-85887899D01*
X131069545Y-85887898D01*
X131080699Y-85831821D01*
X131080700Y-85831819D01*
X131080700Y-85668180D01*
X131048777Y-85507699D01*
X131048776Y-85507698D01*
X131048776Y-85507694D01*
X130986156Y-85356516D01*
X130895247Y-85220460D01*
X130895245Y-85220457D01*
X130779542Y-85104754D01*
X130755055Y-85088393D01*
X130710250Y-85034781D01*
X130701543Y-84965456D01*
X130720845Y-84916399D01*
X130736151Y-84893491D01*
X130736156Y-84893484D01*
X130761698Y-84831819D01*
X150169299Y-84831819D01*
X150201222Y-84992300D01*
X150201224Y-84992306D01*
X150263843Y-85143482D01*
X150354754Y-85279542D01*
X150470457Y-85395245D01*
X150470460Y-85395247D01*
X150606516Y-85486156D01*
X150757694Y-85548776D01*
X150757698Y-85548776D01*
X150757699Y-85548777D01*
X150918180Y-85580700D01*
X150918183Y-85580700D01*
X151081819Y-85580700D01*
X151189785Y-85559223D01*
X151242306Y-85548776D01*
X151393484Y-85486156D01*
X151529540Y-85395247D01*
X151645247Y-85279540D01*
X151736156Y-85143484D01*
X151798776Y-84992306D01*
X151818432Y-84893491D01*
X151830700Y-84831819D01*
X151830700Y-84668180D01*
X151798777Y-84507699D01*
X151798776Y-84507698D01*
X151798776Y-84507694D01*
X151736156Y-84356516D01*
X151645247Y-84220460D01*
X151645245Y-84220457D01*
X151529542Y-84104754D01*
X151461512Y-84059298D01*
X151393484Y-84013844D01*
X151242306Y-83951224D01*
X151242300Y-83951222D01*
X151081819Y-83919300D01*
X151081817Y-83919300D01*
X150918183Y-83919300D01*
X150918181Y-83919300D01*
X150757699Y-83951222D01*
X150757693Y-83951224D01*
X150606517Y-84013843D01*
X150470457Y-84104754D01*
X150354754Y-84220457D01*
X150263843Y-84356517D01*
X150201224Y-84507693D01*
X150201222Y-84507699D01*
X150169300Y-84668180D01*
X150169300Y-84668183D01*
X150169300Y-84831817D01*
X150169300Y-84831819D01*
X150169299Y-84831819D01*
X130761698Y-84831819D01*
X130798776Y-84742306D01*
X130803449Y-84718810D01*
X130819545Y-84637899D01*
X130819545Y-84637898D01*
X130830699Y-84581821D01*
X130830700Y-84581819D01*
X130830700Y-84418180D01*
X130798777Y-84257699D01*
X130798776Y-84257698D01*
X130798776Y-84257694D01*
X130736156Y-84106516D01*
X130645247Y-83970460D01*
X130645245Y-83970457D01*
X130529542Y-83854754D01*
X130461512Y-83809298D01*
X130393484Y-83763844D01*
X130242306Y-83701224D01*
X130242300Y-83701222D01*
X130081819Y-83669300D01*
X130081817Y-83669300D01*
X129918183Y-83669300D01*
X129918181Y-83669300D01*
X129757699Y-83701222D01*
X129757693Y-83701224D01*
X129606517Y-83763843D01*
X129470457Y-83854754D01*
X129354754Y-83970457D01*
X129263843Y-84106517D01*
X129201224Y-84257693D01*
X129201222Y-84257699D01*
X129169300Y-84418180D01*
X129169300Y-84418183D01*
X129169300Y-84581817D01*
X129169300Y-84581819D01*
X129169299Y-84581819D01*
X109750500Y-84581819D01*
X109750500Y-82081819D01*
X146919299Y-82081819D01*
X146951222Y-82242300D01*
X146951224Y-82242306D01*
X147013843Y-82393482D01*
X147104754Y-82529542D01*
X147220457Y-82645245D01*
X147220460Y-82645247D01*
X147356516Y-82736156D01*
X147507694Y-82798776D01*
X147507698Y-82798776D01*
X147507699Y-82798777D01*
X147668180Y-82830700D01*
X147668183Y-82830700D01*
X147831819Y-82830700D01*
X147939785Y-82809223D01*
X147992306Y-82798776D01*
X148143484Y-82736156D01*
X148279540Y-82645247D01*
X148395247Y-82529540D01*
X148486156Y-82393484D01*
X148548776Y-82242306D01*
X148580700Y-82081817D01*
X148580700Y-81918183D01*
X148580700Y-81918180D01*
X148548777Y-81757699D01*
X148548776Y-81757698D01*
X148548776Y-81757694D01*
X148486156Y-81606516D01*
X148395247Y-81470460D01*
X148395245Y-81470457D01*
X148279542Y-81354754D01*
X148211512Y-81309298D01*
X148143484Y-81263844D01*
X147992306Y-81201224D01*
X147992300Y-81201222D01*
X147831819Y-81169300D01*
X147831817Y-81169300D01*
X147668183Y-81169300D01*
X147668181Y-81169300D01*
X147507699Y-81201222D01*
X147507693Y-81201224D01*
X147356517Y-81263843D01*
X147220457Y-81354754D01*
X147104754Y-81470457D01*
X147013843Y-81606517D01*
X146951224Y-81757693D01*
X146951222Y-81757699D01*
X146919300Y-81918180D01*
X146919300Y-81918183D01*
X146919300Y-82081817D01*
X146919300Y-82081819D01*
X146919299Y-82081819D01*
X109750500Y-82081819D01*
X109750500Y-79581819D01*
X118919299Y-79581819D01*
X118951222Y-79742300D01*
X118951224Y-79742306D01*
X119013843Y-79893482D01*
X119104754Y-80029542D01*
X119220457Y-80145245D01*
X119220460Y-80145247D01*
X119356516Y-80236156D01*
X119507694Y-80298776D01*
X119507698Y-80298776D01*
X119507699Y-80298777D01*
X119668180Y-80330700D01*
X119668183Y-80330700D01*
X119831819Y-80330700D01*
X119939785Y-80309223D01*
X119992306Y-80298776D01*
X120143484Y-80236156D01*
X120279540Y-80145247D01*
X120395247Y-80029540D01*
X120486156Y-79893484D01*
X120548776Y-79742306D01*
X120580700Y-79581819D01*
X141919299Y-79581819D01*
X141951222Y-79742300D01*
X141951224Y-79742306D01*
X142013843Y-79893482D01*
X142104754Y-80029542D01*
X142220457Y-80145245D01*
X142220460Y-80145247D01*
X142356516Y-80236156D01*
X142507694Y-80298776D01*
X142507698Y-80298776D01*
X142507699Y-80298777D01*
X142668180Y-80330700D01*
X142668183Y-80330700D01*
X142831819Y-80330700D01*
X142939785Y-80309223D01*
X142992306Y-80298776D01*
X143143484Y-80236156D01*
X143279540Y-80145247D01*
X143395247Y-80029540D01*
X143486156Y-79893484D01*
X143548776Y-79742306D01*
X143580700Y-79581817D01*
X143580700Y-79418183D01*
X143580700Y-79418180D01*
X143548777Y-79257699D01*
X143548776Y-79257698D01*
X143548776Y-79257694D01*
X143486156Y-79106516D01*
X143395247Y-78970460D01*
X143395245Y-78970457D01*
X143279542Y-78854754D01*
X143166975Y-78779540D01*
X143143484Y-78763844D01*
X142992306Y-78701224D01*
X142992300Y-78701222D01*
X142831819Y-78669300D01*
X142831817Y-78669300D01*
X142668183Y-78669300D01*
X142668181Y-78669300D01*
X142507699Y-78701222D01*
X142507693Y-78701224D01*
X142356517Y-78763843D01*
X142220457Y-78854754D01*
X142104754Y-78970457D01*
X142013843Y-79106517D01*
X141951224Y-79257693D01*
X141951222Y-79257699D01*
X141919300Y-79418180D01*
X141919300Y-79418183D01*
X141919300Y-79581817D01*
X141919300Y-79581819D01*
X141919299Y-79581819D01*
X120580700Y-79581819D01*
X120580700Y-79581817D01*
X120580700Y-79418183D01*
X120580700Y-79418180D01*
X120548777Y-79257699D01*
X120548776Y-79257698D01*
X120548776Y-79257694D01*
X120486156Y-79106516D01*
X120395247Y-78970460D01*
X120395245Y-78970457D01*
X120279542Y-78854754D01*
X120166975Y-78779540D01*
X120143484Y-78763844D01*
X119992306Y-78701224D01*
X119992300Y-78701222D01*
X119831819Y-78669300D01*
X119831817Y-78669300D01*
X119668183Y-78669300D01*
X119668181Y-78669300D01*
X119507699Y-78701222D01*
X119507693Y-78701224D01*
X119356517Y-78763843D01*
X119220457Y-78854754D01*
X119104754Y-78970457D01*
X119013843Y-79106517D01*
X118951224Y-79257693D01*
X118951222Y-79257699D01*
X118919300Y-79418180D01*
X118919300Y-79418183D01*
X118919300Y-79581817D01*
X118919300Y-79581819D01*
X118919299Y-79581819D01*
X109750500Y-79581819D01*
X109750500Y-78331819D01*
X150419299Y-78331819D01*
X150451222Y-78492300D01*
X150451224Y-78492306D01*
X150513843Y-78643482D01*
X150604754Y-78779542D01*
X150720457Y-78895245D01*
X150720460Y-78895247D01*
X150856516Y-78986156D01*
X151007694Y-79048776D01*
X151007698Y-79048776D01*
X151007699Y-79048777D01*
X151168180Y-79080700D01*
X151168183Y-79080700D01*
X151331819Y-79080700D01*
X151439785Y-79059223D01*
X151492306Y-79048776D01*
X151643484Y-78986156D01*
X151779540Y-78895247D01*
X151895247Y-78779540D01*
X151986156Y-78643484D01*
X152048776Y-78492306D01*
X152080700Y-78331819D01*
X152669299Y-78331819D01*
X152701222Y-78492300D01*
X152701224Y-78492306D01*
X152763843Y-78643482D01*
X152854754Y-78779542D01*
X152970457Y-78895245D01*
X152970460Y-78895247D01*
X153106516Y-78986156D01*
X153257694Y-79048776D01*
X153257698Y-79048776D01*
X153257699Y-79048777D01*
X153418180Y-79080700D01*
X153418183Y-79080700D01*
X153581819Y-79080700D01*
X153689785Y-79059223D01*
X153742306Y-79048776D01*
X153893484Y-78986156D01*
X154029540Y-78895247D01*
X154145247Y-78779540D01*
X154236156Y-78643484D01*
X154298776Y-78492306D01*
X154330700Y-78331819D01*
X154919299Y-78331819D01*
X154951222Y-78492300D01*
X154951224Y-78492306D01*
X155013843Y-78643482D01*
X155104754Y-78779542D01*
X155220457Y-78895245D01*
X155220460Y-78895247D01*
X155356516Y-78986156D01*
X155507694Y-79048776D01*
X155507698Y-79048776D01*
X155507699Y-79048777D01*
X155668180Y-79080700D01*
X155668183Y-79080700D01*
X155831819Y-79080700D01*
X155939785Y-79059223D01*
X155992306Y-79048776D01*
X156143484Y-78986156D01*
X156279540Y-78895247D01*
X156395247Y-78779540D01*
X156486156Y-78643484D01*
X156548776Y-78492306D01*
X156580700Y-78331819D01*
X157169299Y-78331819D01*
X157201222Y-78492300D01*
X157201224Y-78492306D01*
X157263843Y-78643482D01*
X157354754Y-78779542D01*
X157470457Y-78895245D01*
X157470460Y-78895247D01*
X157606516Y-78986156D01*
X157757694Y-79048776D01*
X157757698Y-79048776D01*
X157757699Y-79048777D01*
X157918180Y-79080700D01*
X157918183Y-79080700D01*
X158081819Y-79080700D01*
X158189785Y-79059223D01*
X158242306Y-79048776D01*
X158393484Y-78986156D01*
X158529540Y-78895247D01*
X158645247Y-78779540D01*
X158736156Y-78643484D01*
X158798776Y-78492306D01*
X158830700Y-78331817D01*
X158830700Y-78168183D01*
X158830700Y-78168180D01*
X158798777Y-78007699D01*
X158798776Y-78007698D01*
X158798776Y-78007694D01*
X158736156Y-77856516D01*
X158645247Y-77720460D01*
X158645245Y-77720457D01*
X158529542Y-77604754D01*
X158461512Y-77559298D01*
X158393484Y-77513844D01*
X158242306Y-77451224D01*
X158242300Y-77451222D01*
X158081819Y-77419300D01*
X158081817Y-77419300D01*
X157918183Y-77419300D01*
X157918181Y-77419300D01*
X157757699Y-77451222D01*
X157757693Y-77451224D01*
X157606517Y-77513843D01*
X157470457Y-77604754D01*
X157354754Y-77720457D01*
X157263843Y-77856517D01*
X157201224Y-78007693D01*
X157201222Y-78007699D01*
X157169300Y-78168180D01*
X157169300Y-78168183D01*
X157169300Y-78331817D01*
X157169300Y-78331819D01*
X157169299Y-78331819D01*
X156580700Y-78331819D01*
X156580700Y-78331817D01*
X156580700Y-78168183D01*
X156580700Y-78168180D01*
X156548777Y-78007699D01*
X156548776Y-78007698D01*
X156548776Y-78007694D01*
X156486156Y-77856516D01*
X156395247Y-77720460D01*
X156395245Y-77720457D01*
X156279542Y-77604754D01*
X156211512Y-77559298D01*
X156143484Y-77513844D01*
X155992306Y-77451224D01*
X155992300Y-77451222D01*
X155831819Y-77419300D01*
X155831817Y-77419300D01*
X155668183Y-77419300D01*
X155668181Y-77419300D01*
X155507699Y-77451222D01*
X155507693Y-77451224D01*
X155356517Y-77513843D01*
X155220457Y-77604754D01*
X155104754Y-77720457D01*
X155013843Y-77856517D01*
X154951224Y-78007693D01*
X154951222Y-78007699D01*
X154919300Y-78168180D01*
X154919300Y-78168183D01*
X154919300Y-78331817D01*
X154919300Y-78331819D01*
X154919299Y-78331819D01*
X154330700Y-78331819D01*
X154330700Y-78331817D01*
X154330700Y-78168183D01*
X154330700Y-78168180D01*
X154298777Y-78007699D01*
X154298776Y-78007698D01*
X154298776Y-78007694D01*
X154236156Y-77856516D01*
X154145247Y-77720460D01*
X154145245Y-77720457D01*
X154029542Y-77604754D01*
X153961512Y-77559298D01*
X153893484Y-77513844D01*
X153742306Y-77451224D01*
X153742300Y-77451222D01*
X153581819Y-77419300D01*
X153581817Y-77419300D01*
X153418183Y-77419300D01*
X153418181Y-77419300D01*
X153257699Y-77451222D01*
X153257693Y-77451224D01*
X153106517Y-77513843D01*
X152970457Y-77604754D01*
X152854754Y-77720457D01*
X152763843Y-77856517D01*
X152701224Y-78007693D01*
X152701222Y-78007699D01*
X152669300Y-78168180D01*
X152669300Y-78168183D01*
X152669300Y-78331817D01*
X152669300Y-78331819D01*
X152669299Y-78331819D01*
X152080700Y-78331819D01*
X152080700Y-78331817D01*
X152080700Y-78168183D01*
X152080700Y-78168180D01*
X152048777Y-78007699D01*
X152048776Y-78007698D01*
X152048776Y-78007694D01*
X151986156Y-77856516D01*
X151895247Y-77720460D01*
X151895245Y-77720457D01*
X151779542Y-77604754D01*
X151711512Y-77559298D01*
X151643484Y-77513844D01*
X151492306Y-77451224D01*
X151492300Y-77451222D01*
X151331819Y-77419300D01*
X151331817Y-77419300D01*
X151168183Y-77419300D01*
X151168181Y-77419300D01*
X151007699Y-77451222D01*
X151007693Y-77451224D01*
X150856517Y-77513843D01*
X150720457Y-77604754D01*
X150604754Y-77720457D01*
X150513843Y-77856517D01*
X150451224Y-78007693D01*
X150451222Y-78007699D01*
X150419300Y-78168180D01*
X150419300Y-78168183D01*
X150419300Y-78331817D01*
X150419300Y-78331819D01*
X150419299Y-78331819D01*
X109750500Y-78331819D01*
X109750500Y-74581819D01*
X154919299Y-74581819D01*
X154951222Y-74742300D01*
X154951224Y-74742306D01*
X155013843Y-74893482D01*
X155104754Y-75029542D01*
X155220457Y-75145245D01*
X155220460Y-75145247D01*
X155356516Y-75236156D01*
X155507694Y-75298776D01*
X155507698Y-75298776D01*
X155507699Y-75298777D01*
X155668180Y-75330700D01*
X155668183Y-75330700D01*
X155831819Y-75330700D01*
X155939785Y-75309223D01*
X155992306Y-75298776D01*
X156143484Y-75236156D01*
X156279540Y-75145247D01*
X156395247Y-75029540D01*
X156486156Y-74893484D01*
X156548776Y-74742306D01*
X156580700Y-74581817D01*
X156580700Y-74418183D01*
X156580700Y-74418180D01*
X156548777Y-74257699D01*
X156548776Y-74257698D01*
X156548776Y-74257694D01*
X156486156Y-74106516D01*
X156395247Y-73970460D01*
X156395245Y-73970457D01*
X156279542Y-73854754D01*
X156211512Y-73809298D01*
X156143484Y-73763844D01*
X155992306Y-73701224D01*
X155992300Y-73701222D01*
X155831819Y-73669300D01*
X155831817Y-73669300D01*
X155668183Y-73669300D01*
X155668181Y-73669300D01*
X155507699Y-73701222D01*
X155507693Y-73701224D01*
X155356517Y-73763843D01*
X155220457Y-73854754D01*
X155104754Y-73970457D01*
X155013843Y-74106517D01*
X154951224Y-74257693D01*
X154951222Y-74257699D01*
X154919300Y-74418180D01*
X154919300Y-74418183D01*
X154919300Y-74581817D01*
X154919300Y-74581819D01*
X154919299Y-74581819D01*
X109750500Y-74581819D01*
X109750500Y-73831819D01*
X150419299Y-73831819D01*
X150451222Y-73992300D01*
X150451224Y-73992306D01*
X150513843Y-74143482D01*
X150604754Y-74279542D01*
X150720457Y-74395245D01*
X150720460Y-74395247D01*
X150856516Y-74486156D01*
X151007694Y-74548776D01*
X151007698Y-74548776D01*
X151007699Y-74548777D01*
X151168180Y-74580700D01*
X151168183Y-74580700D01*
X151331819Y-74580700D01*
X151439785Y-74559223D01*
X151492306Y-74548776D01*
X151643484Y-74486156D01*
X151779540Y-74395247D01*
X151895247Y-74279540D01*
X151986156Y-74143484D01*
X152048776Y-73992306D01*
X152059223Y-73939785D01*
X152080700Y-73831819D01*
X152669299Y-73831819D01*
X152701222Y-73992300D01*
X152701224Y-73992306D01*
X152763843Y-74143482D01*
X152854754Y-74279542D01*
X152970457Y-74395245D01*
X152970460Y-74395247D01*
X153106516Y-74486156D01*
X153257694Y-74548776D01*
X153257698Y-74548776D01*
X153257699Y-74548777D01*
X153418180Y-74580700D01*
X153418183Y-74580700D01*
X153581819Y-74580700D01*
X153689785Y-74559223D01*
X153742306Y-74548776D01*
X153893484Y-74486156D01*
X154029540Y-74395247D01*
X154029543Y-74395244D01*
X154100378Y-74324410D01*
X154145244Y-74279543D01*
X154145245Y-74279542D01*
X154145247Y-74279540D01*
X154236156Y-74143484D01*
X154298776Y-73992306D01*
X154309223Y-73939785D01*
X154330700Y-73831819D01*
X154330700Y-73668180D01*
X154298777Y-73507699D01*
X154298776Y-73507698D01*
X154298776Y-73507694D01*
X154236156Y-73356516D01*
X154145247Y-73220460D01*
X154145245Y-73220457D01*
X154029542Y-73104754D01*
X153916975Y-73029540D01*
X153893484Y-73013844D01*
X153742306Y-72951224D01*
X153742300Y-72951222D01*
X153581819Y-72919300D01*
X153581817Y-72919300D01*
X153418183Y-72919300D01*
X153418181Y-72919300D01*
X153257699Y-72951222D01*
X153257693Y-72951224D01*
X153106517Y-73013843D01*
X152970457Y-73104754D01*
X152854754Y-73220457D01*
X152763843Y-73356517D01*
X152701224Y-73507693D01*
X152701222Y-73507699D01*
X152669300Y-73668180D01*
X152669300Y-73668183D01*
X152669300Y-73831817D01*
X152669300Y-73831819D01*
X152669299Y-73831819D01*
X152080700Y-73831819D01*
X152080700Y-73668180D01*
X152048777Y-73507699D01*
X152048776Y-73507698D01*
X152048776Y-73507694D01*
X151986156Y-73356516D01*
X151895247Y-73220460D01*
X151895245Y-73220457D01*
X151779542Y-73104754D01*
X151666975Y-73029540D01*
X151643484Y-73013844D01*
X151492306Y-72951224D01*
X151492300Y-72951222D01*
X151331819Y-72919300D01*
X151331817Y-72919300D01*
X151168183Y-72919300D01*
X151168181Y-72919300D01*
X151007699Y-72951222D01*
X151007693Y-72951224D01*
X150856517Y-73013843D01*
X150720457Y-73104754D01*
X150604754Y-73220457D01*
X150513843Y-73356517D01*
X150451224Y-73507693D01*
X150451222Y-73507699D01*
X150419300Y-73668180D01*
X150419300Y-73668183D01*
X150419300Y-73831817D01*
X150419300Y-73831819D01*
X150419299Y-73831819D01*
X109750500Y-73831819D01*
X109750500Y-71831819D01*
X117669299Y-71831819D01*
X117701222Y-71992300D01*
X117701224Y-71992306D01*
X117763843Y-72143482D01*
X117854754Y-72279542D01*
X117970457Y-72395245D01*
X117970460Y-72395247D01*
X118106516Y-72486156D01*
X118257694Y-72548776D01*
X118257698Y-72548776D01*
X118257699Y-72548777D01*
X118418180Y-72580700D01*
X118418183Y-72580700D01*
X118581819Y-72580700D01*
X118689785Y-72559223D01*
X118742306Y-72548776D01*
X118893484Y-72486156D01*
X119029540Y-72395247D01*
X119145247Y-72279540D01*
X119236156Y-72143484D01*
X119298776Y-71992306D01*
X119309223Y-71939785D01*
X119330700Y-71831819D01*
X119330700Y-71668180D01*
X119298777Y-71507699D01*
X119298776Y-71507698D01*
X119298776Y-71507694D01*
X119236156Y-71356516D01*
X119145247Y-71220460D01*
X119145245Y-71220457D01*
X119029542Y-71104754D01*
X118944088Y-71047656D01*
X118893484Y-71013844D01*
X118742306Y-70951224D01*
X118742300Y-70951222D01*
X118581819Y-70919300D01*
X118581817Y-70919300D01*
X118418183Y-70919300D01*
X118418181Y-70919300D01*
X118257699Y-70951222D01*
X118257693Y-70951224D01*
X118106517Y-71013843D01*
X117970457Y-71104754D01*
X117854754Y-71220457D01*
X117763843Y-71356517D01*
X117701224Y-71507693D01*
X117701222Y-71507699D01*
X117669300Y-71668180D01*
X117669300Y-71668183D01*
X117669300Y-71831817D01*
X117669300Y-71831819D01*
X117669299Y-71831819D01*
X109750500Y-71831819D01*
X109750500Y-69581819D01*
X118419299Y-69581819D01*
X118451222Y-69742300D01*
X118451224Y-69742306D01*
X118488301Y-69831819D01*
X118513844Y-69893484D01*
X118523649Y-69908158D01*
X118604754Y-70029542D01*
X118720457Y-70145245D01*
X118720460Y-70145247D01*
X118856516Y-70236156D01*
X119007694Y-70298776D01*
X119007698Y-70298776D01*
X119007699Y-70298777D01*
X119168180Y-70330700D01*
X119168183Y-70330700D01*
X119331819Y-70330700D01*
X119439785Y-70309223D01*
X119492306Y-70298776D01*
X119643484Y-70236156D01*
X119779540Y-70145247D01*
X119842968Y-70081819D01*
X121919299Y-70081819D01*
X121951222Y-70242300D01*
X121951224Y-70242306D01*
X122013843Y-70393482D01*
X122104754Y-70529542D01*
X122220457Y-70645245D01*
X122220460Y-70645247D01*
X122356516Y-70736156D01*
X122507694Y-70798776D01*
X122507698Y-70798776D01*
X122507699Y-70798777D01*
X122668180Y-70830700D01*
X122668183Y-70830700D01*
X122831819Y-70830700D01*
X122939785Y-70809223D01*
X122992306Y-70798776D01*
X123143484Y-70736156D01*
X123279540Y-70645247D01*
X123395247Y-70529540D01*
X123486156Y-70393484D01*
X123548776Y-70242306D01*
X123568083Y-70145245D01*
X123580700Y-70081819D01*
X133008199Y-70081819D01*
X133040122Y-70242300D01*
X133040124Y-70242306D01*
X133102743Y-70393482D01*
X133196683Y-70534075D01*
X133217560Y-70600752D01*
X133215197Y-70627156D01*
X133188893Y-70759392D01*
X133188893Y-70759397D01*
X133188893Y-70923031D01*
X133188893Y-70923033D01*
X133188892Y-70923033D01*
X133220815Y-71083514D01*
X133220817Y-71083520D01*
X133283437Y-71234698D01*
X133293598Y-71249905D01*
X133374347Y-71370756D01*
X133490050Y-71486459D01*
X133490053Y-71486461D01*
X133626109Y-71577370D01*
X133777287Y-71639990D01*
X133777291Y-71639990D01*
X133777292Y-71639991D01*
X133937773Y-71671914D01*
X133937776Y-71671914D01*
X134101412Y-71671914D01*
X134221842Y-71647958D01*
X134261899Y-71639990D01*
X134413077Y-71577370D01*
X134549133Y-71486461D01*
X134664840Y-71370754D01*
X134745589Y-71249902D01*
X134799199Y-71205100D01*
X134868524Y-71196391D01*
X134931552Y-71226546D01*
X134963251Y-71271342D01*
X135013843Y-71393482D01*
X135104754Y-71529542D01*
X135220457Y-71645245D01*
X135220460Y-71645247D01*
X135356516Y-71736156D01*
X135507694Y-71798776D01*
X135507698Y-71798776D01*
X135507699Y-71798777D01*
X135668180Y-71830700D01*
X135668183Y-71830700D01*
X135831819Y-71830700D01*
X135939785Y-71809223D01*
X135992306Y-71798776D01*
X136143484Y-71736156D01*
X136279540Y-71645247D01*
X136395247Y-71529540D01*
X136446898Y-71452238D01*
X136500509Y-71407434D01*
X136569834Y-71398726D01*
X136632862Y-71428880D01*
X136653100Y-71452236D01*
X136675969Y-71486461D01*
X136704754Y-71529542D01*
X136820457Y-71645245D01*
X136820460Y-71645247D01*
X136956516Y-71736156D01*
X137107694Y-71798776D01*
X137107698Y-71798776D01*
X137107699Y-71798777D01*
X137268180Y-71830700D01*
X137268183Y-71830700D01*
X137431819Y-71830700D01*
X137539785Y-71809223D01*
X137592306Y-71798776D01*
X137743484Y-71736156D01*
X137879540Y-71645247D01*
X137995247Y-71529540D01*
X138086156Y-71393484D01*
X138148776Y-71242306D01*
X138168303Y-71144141D01*
X138200688Y-71082230D01*
X138261404Y-71047656D01*
X138331173Y-71051396D01*
X138387845Y-71092263D01*
X138404481Y-71120881D01*
X138413841Y-71143480D01*
X138504754Y-71279542D01*
X138620457Y-71395245D01*
X138620460Y-71395247D01*
X138756516Y-71486156D01*
X138907694Y-71548776D01*
X138907698Y-71548776D01*
X138907699Y-71548777D01*
X139068180Y-71580700D01*
X139068183Y-71580700D01*
X139231819Y-71580700D01*
X139361730Y-71554858D01*
X139392306Y-71548776D01*
X139543484Y-71486156D01*
X139679540Y-71395247D01*
X139795247Y-71279540D01*
X139886156Y-71143484D01*
X139948776Y-70992306D01*
X139980700Y-70831819D01*
X154669299Y-70831819D01*
X154701222Y-70992300D01*
X154701224Y-70992306D01*
X154763843Y-71143482D01*
X154854754Y-71279542D01*
X154970457Y-71395245D01*
X154970460Y-71395247D01*
X155106516Y-71486156D01*
X155257694Y-71548776D01*
X155274782Y-71552175D01*
X155288268Y-71554858D01*
X155350179Y-71587243D01*
X155384753Y-71647958D01*
X155381014Y-71717728D01*
X155340148Y-71774400D01*
X155332968Y-71779577D01*
X155220460Y-71854752D01*
X155220456Y-71854755D01*
X155104754Y-71970457D01*
X155013843Y-72106517D01*
X154951224Y-72257693D01*
X154951222Y-72257699D01*
X154919300Y-72418180D01*
X154919300Y-72418183D01*
X154919300Y-72581817D01*
X154919300Y-72581819D01*
X154919299Y-72581819D01*
X154951222Y-72742300D01*
X154951224Y-72742306D01*
X155013843Y-72893482D01*
X155104754Y-73029542D01*
X155220457Y-73145245D01*
X155220460Y-73145247D01*
X155356516Y-73236156D01*
X155507694Y-73298776D01*
X155507698Y-73298776D01*
X155507699Y-73298777D01*
X155668180Y-73330700D01*
X155668183Y-73330700D01*
X155831819Y-73330700D01*
X155939785Y-73309223D01*
X155992306Y-73298776D01*
X156143484Y-73236156D01*
X156279540Y-73145247D01*
X156395247Y-73029540D01*
X156486156Y-72893484D01*
X156548776Y-72742306D01*
X156580700Y-72581817D01*
X156580700Y-72418183D01*
X156580700Y-72418180D01*
X156548777Y-72257699D01*
X156548776Y-72257698D01*
X156548776Y-72257694D01*
X156486156Y-72106516D01*
X156395247Y-71970460D01*
X156395245Y-71970457D01*
X156279542Y-71854754D01*
X156159282Y-71774400D01*
X156143484Y-71763844D01*
X156076639Y-71736156D01*
X155992306Y-71701224D01*
X155992303Y-71701223D01*
X155961728Y-71695141D01*
X155899818Y-71662755D01*
X155865245Y-71602038D01*
X155868986Y-71532269D01*
X155909854Y-71475598D01*
X155917015Y-71470432D01*
X156029540Y-71395247D01*
X156145247Y-71279540D01*
X156236156Y-71143484D01*
X156298776Y-70992306D01*
X156330700Y-70831817D01*
X156330700Y-70668183D01*
X156330700Y-70668180D01*
X156298777Y-70507699D01*
X156298776Y-70507698D01*
X156298776Y-70507694D01*
X156236156Y-70356516D01*
X156145247Y-70220460D01*
X156145245Y-70220457D01*
X156029542Y-70104754D01*
X155916975Y-70029540D01*
X155893484Y-70013844D01*
X155826639Y-69986156D01*
X155742306Y-69951224D01*
X155742300Y-69951222D01*
X155581819Y-69919300D01*
X155581817Y-69919300D01*
X155418183Y-69919300D01*
X155418181Y-69919300D01*
X155257699Y-69951222D01*
X155257693Y-69951224D01*
X155106517Y-70013843D01*
X154970457Y-70104754D01*
X154854754Y-70220457D01*
X154763843Y-70356517D01*
X154701224Y-70507693D01*
X154701222Y-70507699D01*
X154669300Y-70668180D01*
X154669300Y-70668183D01*
X154669300Y-70831817D01*
X154669300Y-70831819D01*
X154669299Y-70831819D01*
X139980700Y-70831819D01*
X139980700Y-70831817D01*
X139980700Y-70668183D01*
X139980700Y-70668180D01*
X139948777Y-70507699D01*
X139948776Y-70507698D01*
X139948776Y-70507694D01*
X139886156Y-70356516D01*
X139795247Y-70220460D01*
X139795245Y-70220457D01*
X139679542Y-70104754D01*
X139566975Y-70029540D01*
X139543484Y-70013844D01*
X139476639Y-69986156D01*
X139392306Y-69951224D01*
X139392300Y-69951222D01*
X139231819Y-69919300D01*
X139231817Y-69919300D01*
X139182686Y-69919300D01*
X139157403Y-69911876D01*
X139131314Y-69908158D01*
X139124405Y-69902186D01*
X139115647Y-69899615D01*
X139098393Y-69879703D01*
X139078454Y-69862469D01*
X139074070Y-69851633D01*
X139069892Y-69846811D01*
X139064289Y-69831819D01*
X142669299Y-69831819D01*
X142701222Y-69992300D01*
X142701224Y-69992306D01*
X142763843Y-70143482D01*
X142854754Y-70279542D01*
X142970457Y-70395245D01*
X142970460Y-70395247D01*
X143106516Y-70486156D01*
X143257694Y-70548776D01*
X143257698Y-70548776D01*
X143257699Y-70548777D01*
X143418180Y-70580700D01*
X143418183Y-70580700D01*
X143581819Y-70580700D01*
X143689785Y-70559223D01*
X143742306Y-70548776D01*
X143893484Y-70486156D01*
X144029540Y-70395247D01*
X144145247Y-70279540D01*
X144236156Y-70143484D01*
X144298776Y-69992306D01*
X144314775Y-69911876D01*
X144330700Y-69831819D01*
X144330700Y-69668180D01*
X144298777Y-69507699D01*
X144298776Y-69507698D01*
X144298776Y-69507694D01*
X144236156Y-69356516D01*
X144219654Y-69331819D01*
X150419299Y-69331819D01*
X150451222Y-69492300D01*
X150451224Y-69492306D01*
X150513843Y-69643482D01*
X150604754Y-69779542D01*
X150720457Y-69895245D01*
X150720460Y-69895247D01*
X150856516Y-69986156D01*
X151007694Y-70048776D01*
X151007698Y-70048776D01*
X151007699Y-70048777D01*
X151168180Y-70080700D01*
X151168183Y-70080700D01*
X151331819Y-70080700D01*
X151439785Y-70059223D01*
X151492306Y-70048776D01*
X151643484Y-69986156D01*
X151779540Y-69895247D01*
X151895247Y-69779540D01*
X151986156Y-69643484D01*
X152048776Y-69492306D01*
X152073340Y-69368818D01*
X152080700Y-69331819D01*
X152669299Y-69331819D01*
X152701222Y-69492300D01*
X152701224Y-69492306D01*
X152763843Y-69643482D01*
X152854754Y-69779542D01*
X152970457Y-69895245D01*
X152970460Y-69895247D01*
X153106516Y-69986156D01*
X153257694Y-70048776D01*
X153257698Y-70048776D01*
X153257699Y-70048777D01*
X153418180Y-70080700D01*
X153418183Y-70080700D01*
X153581819Y-70080700D01*
X153689785Y-70059223D01*
X153742306Y-70048776D01*
X153893484Y-69986156D01*
X154029540Y-69895247D01*
X154145247Y-69779540D01*
X154236156Y-69643484D01*
X154298776Y-69492306D01*
X154323340Y-69368818D01*
X154330700Y-69331819D01*
X154330700Y-69168180D01*
X154298777Y-69007699D01*
X154298776Y-69007698D01*
X154298776Y-69007694D01*
X154236156Y-68856516D01*
X154145247Y-68720460D01*
X154145245Y-68720457D01*
X154029542Y-68604754D01*
X153945762Y-68548775D01*
X153893484Y-68513844D01*
X153826639Y-68486156D01*
X153742306Y-68451224D01*
X153742300Y-68451222D01*
X153581819Y-68419300D01*
X153581817Y-68419300D01*
X153418183Y-68419300D01*
X153418181Y-68419300D01*
X153257699Y-68451222D01*
X153257693Y-68451224D01*
X153106517Y-68513843D01*
X152970457Y-68604754D01*
X152854754Y-68720457D01*
X152763843Y-68856517D01*
X152701224Y-69007693D01*
X152701222Y-69007699D01*
X152669300Y-69168180D01*
X152669300Y-69168183D01*
X152669300Y-69331817D01*
X152669300Y-69331819D01*
X152669299Y-69331819D01*
X152080700Y-69331819D01*
X152080700Y-69168180D01*
X152048777Y-69007699D01*
X152048776Y-69007698D01*
X152048776Y-69007694D01*
X151986156Y-68856516D01*
X151895247Y-68720460D01*
X151895245Y-68720457D01*
X151779542Y-68604754D01*
X151695762Y-68548775D01*
X151643484Y-68513844D01*
X151576639Y-68486156D01*
X151492306Y-68451224D01*
X151492300Y-68451222D01*
X151331819Y-68419300D01*
X151331817Y-68419300D01*
X151168183Y-68419300D01*
X151168181Y-68419300D01*
X151007699Y-68451222D01*
X151007693Y-68451224D01*
X150856517Y-68513843D01*
X150720457Y-68604754D01*
X150604754Y-68720457D01*
X150513843Y-68856517D01*
X150451224Y-69007693D01*
X150451222Y-69007699D01*
X150419300Y-69168180D01*
X150419300Y-69168183D01*
X150419300Y-69331817D01*
X150419300Y-69331819D01*
X150419299Y-69331819D01*
X144219654Y-69331819D01*
X144158023Y-69239581D01*
X144152277Y-69230981D01*
X144152276Y-69230980D01*
X144145247Y-69220460D01*
X144145244Y-69220456D01*
X144029542Y-69104754D01*
X143961512Y-69059298D01*
X143893484Y-69013844D01*
X143878634Y-69007693D01*
X143742306Y-68951224D01*
X143742300Y-68951222D01*
X143581819Y-68919300D01*
X143581817Y-68919300D01*
X143418183Y-68919300D01*
X143418181Y-68919300D01*
X143257699Y-68951222D01*
X143257693Y-68951224D01*
X143106517Y-69013843D01*
X142970457Y-69104754D01*
X142854754Y-69220457D01*
X142763843Y-69356517D01*
X142701224Y-69507693D01*
X142701222Y-69507699D01*
X142669300Y-69668180D01*
X142669300Y-69668183D01*
X142669300Y-69831817D01*
X142669300Y-69831819D01*
X142669299Y-69831819D01*
X139064289Y-69831819D01*
X139063752Y-69830382D01*
X139062164Y-69824998D01*
X139048776Y-69757694D01*
X139026317Y-69703473D01*
X138986157Y-69606517D01*
X138895245Y-69470457D01*
X138779542Y-69354754D01*
X138711512Y-69309298D01*
X138643484Y-69263844D01*
X138628634Y-69257693D01*
X138492306Y-69201224D01*
X138492300Y-69201222D01*
X138331819Y-69169300D01*
X138331817Y-69169300D01*
X138168183Y-69169300D01*
X138168181Y-69169300D01*
X138007699Y-69201222D01*
X138007693Y-69201224D01*
X137856517Y-69263843D01*
X137720457Y-69354754D01*
X137604755Y-69470456D01*
X137604753Y-69470459D01*
X137603101Y-69472932D01*
X137601901Y-69473934D01*
X137600889Y-69475168D01*
X137600655Y-69474976D01*
X137549487Y-69517736D01*
X137480162Y-69526442D01*
X137417135Y-69496286D01*
X137396899Y-69472932D01*
X137395246Y-69470459D01*
X137395244Y-69470456D01*
X137279542Y-69354754D01*
X137211512Y-69309298D01*
X137143484Y-69263844D01*
X137128634Y-69257693D01*
X136992306Y-69201224D01*
X136992300Y-69201222D01*
X136831819Y-69169300D01*
X136831817Y-69169300D01*
X136668183Y-69169300D01*
X136668181Y-69169300D01*
X136507699Y-69201222D01*
X136507693Y-69201224D01*
X136356516Y-69263843D01*
X136220461Y-69354752D01*
X136206395Y-69368818D01*
X136145071Y-69402301D01*
X136075379Y-69397315D01*
X136031035Y-69368815D01*
X135992711Y-69330491D01*
X135892964Y-69263843D01*
X135856653Y-69239581D01*
X135835888Y-69230980D01*
X135705475Y-69176961D01*
X135705469Y-69176959D01*
X135544988Y-69145037D01*
X135544986Y-69145037D01*
X135381352Y-69145037D01*
X135381350Y-69145037D01*
X135220868Y-69176959D01*
X135220862Y-69176961D01*
X135069686Y-69239580D01*
X134933626Y-69330491D01*
X134817924Y-69446193D01*
X134817921Y-69446197D01*
X134746030Y-69553790D01*
X134692418Y-69598595D01*
X134623093Y-69607302D01*
X134560065Y-69577147D01*
X134539825Y-69553789D01*
X134515735Y-69517736D01*
X134484147Y-69470460D01*
X134484146Y-69470459D01*
X134484145Y-69470457D01*
X134368442Y-69354754D01*
X134300412Y-69309298D01*
X134232384Y-69263844D01*
X134217534Y-69257693D01*
X134081206Y-69201224D01*
X134081200Y-69201222D01*
X133920719Y-69169300D01*
X133920717Y-69169300D01*
X133757083Y-69169300D01*
X133757081Y-69169300D01*
X133596599Y-69201222D01*
X133596593Y-69201224D01*
X133445417Y-69263843D01*
X133309357Y-69354754D01*
X133193654Y-69470457D01*
X133102743Y-69606517D01*
X133040124Y-69757693D01*
X133040122Y-69757699D01*
X133008200Y-69918180D01*
X133008200Y-69918183D01*
X133008200Y-70081817D01*
X133008200Y-70081819D01*
X133008199Y-70081819D01*
X123580700Y-70081819D01*
X123580700Y-69918180D01*
X123548777Y-69757699D01*
X123548776Y-69757698D01*
X123548776Y-69757694D01*
X123486156Y-69606516D01*
X123395247Y-69470460D01*
X123395246Y-69470459D01*
X123395245Y-69470457D01*
X123279542Y-69354754D01*
X123211512Y-69309298D01*
X123143484Y-69263844D01*
X123128634Y-69257693D01*
X122992306Y-69201224D01*
X122992300Y-69201222D01*
X122831819Y-69169300D01*
X122831817Y-69169300D01*
X122668183Y-69169300D01*
X122668181Y-69169300D01*
X122507699Y-69201222D01*
X122507693Y-69201224D01*
X122356517Y-69263843D01*
X122220457Y-69354754D01*
X122104754Y-69470457D01*
X122013843Y-69606517D01*
X121951224Y-69757693D01*
X121951222Y-69757699D01*
X121919300Y-69918180D01*
X121919300Y-69918183D01*
X121919300Y-70081817D01*
X121919300Y-70081819D01*
X121919299Y-70081819D01*
X119842968Y-70081819D01*
X119895247Y-70029540D01*
X119986156Y-69893484D01*
X120048776Y-69742306D01*
X120063521Y-69668180D01*
X120080700Y-69581819D01*
X120080700Y-69418180D01*
X120048777Y-69257699D01*
X120048776Y-69257698D01*
X120048776Y-69257694D01*
X119986156Y-69106516D01*
X119895247Y-68970460D01*
X119895245Y-68970457D01*
X119779542Y-68854754D01*
X119663229Y-68777037D01*
X119643484Y-68763844D01*
X119492306Y-68701224D01*
X119492300Y-68701222D01*
X119331819Y-68669300D01*
X119331817Y-68669300D01*
X119168183Y-68669300D01*
X119168181Y-68669300D01*
X119012324Y-68700302D01*
X119012319Y-68700303D01*
X119007694Y-68701224D01*
X118856516Y-68763844D01*
X118836777Y-68777033D01*
X118836768Y-68777037D01*
X118720464Y-68854749D01*
X118720456Y-68854755D01*
X118604754Y-68970457D01*
X118513843Y-69106517D01*
X118451224Y-69257693D01*
X118451222Y-69257699D01*
X118419300Y-69418180D01*
X118419300Y-69418183D01*
X118419300Y-69581817D01*
X118419300Y-69581819D01*
X118419299Y-69581819D01*
X109750500Y-69581819D01*
X109750500Y-67831819D01*
X117669299Y-67831819D01*
X117701222Y-67992300D01*
X117701224Y-67992306D01*
X117763843Y-68143482D01*
X117854754Y-68279542D01*
X117970457Y-68395245D01*
X117970460Y-68395247D01*
X118106516Y-68486156D01*
X118257694Y-68548776D01*
X118257698Y-68548776D01*
X118257699Y-68548777D01*
X118418180Y-68580700D01*
X118418183Y-68580700D01*
X118581819Y-68580700D01*
X118645400Y-68568052D01*
X118742306Y-68548776D01*
X118893484Y-68486156D01*
X119029540Y-68395247D01*
X119145247Y-68279540D01*
X119236156Y-68143484D01*
X119298776Y-67992306D01*
X119330700Y-67831819D01*
X121919299Y-67831819D01*
X121951222Y-67992300D01*
X121951224Y-67992306D01*
X122013843Y-68143482D01*
X122104754Y-68279542D01*
X122220457Y-68395245D01*
X122220460Y-68395247D01*
X122356516Y-68486156D01*
X122507694Y-68548776D01*
X122507698Y-68548776D01*
X122507699Y-68548777D01*
X122668180Y-68580700D01*
X122668183Y-68580700D01*
X122831819Y-68580700D01*
X122939785Y-68559223D01*
X122992306Y-68548776D01*
X123143484Y-68486156D01*
X123279540Y-68395247D01*
X123395247Y-68279540D01*
X123486156Y-68143484D01*
X123548776Y-67992306D01*
X123580700Y-67831817D01*
X123580700Y-67668183D01*
X123580700Y-67668180D01*
X123548777Y-67507699D01*
X123548776Y-67507698D01*
X123548776Y-67507694D01*
X123486156Y-67356516D01*
X123395247Y-67220460D01*
X123395245Y-67220457D01*
X123279542Y-67104754D01*
X123245217Y-67081819D01*
X129169299Y-67081819D01*
X129201222Y-67242300D01*
X129201224Y-67242306D01*
X129263843Y-67393482D01*
X129354754Y-67529542D01*
X129470457Y-67645245D01*
X129470460Y-67645247D01*
X129606516Y-67736156D01*
X129757694Y-67798776D01*
X129757698Y-67798776D01*
X129757699Y-67798777D01*
X129918180Y-67830700D01*
X129918183Y-67830700D01*
X130081819Y-67830700D01*
X130242301Y-67798777D01*
X130242301Y-67798776D01*
X130242306Y-67798776D01*
X130242308Y-67798774D01*
X130242312Y-67798774D01*
X130258871Y-67791915D01*
X130328340Y-67784445D01*
X130390820Y-67815719D01*
X130394006Y-67818794D01*
X130470457Y-67895245D01*
X130470460Y-67895247D01*
X130606516Y-67986156D01*
X130757694Y-68048776D01*
X130757698Y-68048776D01*
X130757699Y-68048777D01*
X130918180Y-68080700D01*
X130918183Y-68080700D01*
X131081819Y-68080700D01*
X131189785Y-68059223D01*
X131242306Y-68048776D01*
X131393484Y-67986156D01*
X131529540Y-67895247D01*
X131645247Y-67779540D01*
X131736156Y-67643484D01*
X131798776Y-67492306D01*
X131809223Y-67439785D01*
X131830700Y-67331819D01*
X131830700Y-67168180D01*
X131798777Y-67007699D01*
X131798776Y-67007698D01*
X131798776Y-67007694D01*
X131736156Y-66856516D01*
X131645247Y-66720460D01*
X131645245Y-66720457D01*
X131529542Y-66604754D01*
X131495217Y-66581819D01*
X138919299Y-66581819D01*
X138951222Y-66742300D01*
X138951224Y-66742306D01*
X139013843Y-66893482D01*
X139104754Y-67029542D01*
X139220457Y-67145245D01*
X139220460Y-67145247D01*
X139356516Y-67236156D01*
X139507694Y-67298776D01*
X139507698Y-67298776D01*
X139507699Y-67298777D01*
X139668180Y-67330700D01*
X139668183Y-67330700D01*
X139831819Y-67330700D01*
X139939785Y-67309223D01*
X139992306Y-67298776D01*
X140143484Y-67236156D01*
X140279540Y-67145247D01*
X140395247Y-67029540D01*
X140486156Y-66893484D01*
X140548776Y-66742306D01*
X140575787Y-66606516D01*
X140580700Y-66581819D01*
X140580700Y-66418180D01*
X140548777Y-66257699D01*
X140548776Y-66257698D01*
X140548776Y-66257694D01*
X140486156Y-66106516D01*
X140395247Y-65970460D01*
X140395245Y-65970457D01*
X140279542Y-65854754D01*
X140166975Y-65779540D01*
X140143484Y-65763844D01*
X140076639Y-65736156D01*
X139992306Y-65701224D01*
X139992300Y-65701222D01*
X139831819Y-65669300D01*
X139831817Y-65669300D01*
X139668183Y-65669300D01*
X139668181Y-65669300D01*
X139507699Y-65701222D01*
X139507693Y-65701224D01*
X139356517Y-65763843D01*
X139220457Y-65854754D01*
X139104754Y-65970457D01*
X139013843Y-66106517D01*
X138951224Y-66257693D01*
X138951222Y-66257699D01*
X138919300Y-66418180D01*
X138919300Y-66418183D01*
X138919300Y-66581817D01*
X138919300Y-66581819D01*
X138919299Y-66581819D01*
X131495217Y-66581819D01*
X131395504Y-66515194D01*
X131393484Y-66513844D01*
X131242306Y-66451224D01*
X131242300Y-66451222D01*
X131081819Y-66419300D01*
X131081817Y-66419300D01*
X130918183Y-66419300D01*
X130918181Y-66419300D01*
X130757700Y-66451222D01*
X130757697Y-66451223D01*
X130757695Y-66451223D01*
X130757694Y-66451224D01*
X130741123Y-66458088D01*
X130671653Y-66465554D01*
X130609175Y-66434277D01*
X130606020Y-66431233D01*
X130529540Y-66354753D01*
X130393484Y-66263844D01*
X130378634Y-66257693D01*
X130242306Y-66201224D01*
X130242300Y-66201222D01*
X130081819Y-66169300D01*
X130081817Y-66169300D01*
X129918183Y-66169300D01*
X129918181Y-66169300D01*
X129757699Y-66201222D01*
X129757693Y-66201224D01*
X129606517Y-66263843D01*
X129470457Y-66354754D01*
X129354754Y-66470457D01*
X129263843Y-66606517D01*
X129201224Y-66757693D01*
X129201222Y-66757699D01*
X129169300Y-66918180D01*
X129169300Y-66918183D01*
X129169300Y-67081817D01*
X129169300Y-67081819D01*
X129169299Y-67081819D01*
X123245217Y-67081819D01*
X123145504Y-67015194D01*
X123143484Y-67013844D01*
X123128634Y-67007693D01*
X122992306Y-66951224D01*
X122992300Y-66951222D01*
X122831819Y-66919300D01*
X122831817Y-66919300D01*
X122668183Y-66919300D01*
X122668181Y-66919300D01*
X122507699Y-66951222D01*
X122507693Y-66951224D01*
X122356517Y-67013843D01*
X122220457Y-67104754D01*
X122104754Y-67220457D01*
X122013843Y-67356517D01*
X121951224Y-67507693D01*
X121951222Y-67507699D01*
X121919300Y-67668180D01*
X121919300Y-67668183D01*
X121919300Y-67831817D01*
X121919300Y-67831819D01*
X121919299Y-67831819D01*
X119330700Y-67831819D01*
X119330700Y-67831817D01*
X119330700Y-67668183D01*
X119330700Y-67668180D01*
X119298777Y-67507699D01*
X119298776Y-67507698D01*
X119298776Y-67507694D01*
X119236156Y-67356516D01*
X119145247Y-67220460D01*
X119145245Y-67220457D01*
X119029542Y-67104754D01*
X118895504Y-67015194D01*
X118893484Y-67013844D01*
X118878634Y-67007693D01*
X118742306Y-66951224D01*
X118742300Y-66951222D01*
X118581819Y-66919300D01*
X118581817Y-66919300D01*
X118418183Y-66919300D01*
X118418181Y-66919300D01*
X118257699Y-66951222D01*
X118257693Y-66951224D01*
X118106517Y-67013843D01*
X117970457Y-67104754D01*
X117854754Y-67220457D01*
X117763843Y-67356517D01*
X117701224Y-67507693D01*
X117701222Y-67507699D01*
X117669300Y-67668180D01*
X117669300Y-67668183D01*
X117669300Y-67831817D01*
X117669300Y-67831819D01*
X117669299Y-67831819D01*
X109750500Y-67831819D01*
X109750500Y-64831819D01*
X117919299Y-64831819D01*
X117951222Y-64992300D01*
X117951224Y-64992306D01*
X118013843Y-65143482D01*
X118104754Y-65279542D01*
X118220457Y-65395245D01*
X118220460Y-65395247D01*
X118356516Y-65486156D01*
X118507694Y-65548776D01*
X118507698Y-65548776D01*
X118507699Y-65548777D01*
X118668180Y-65580700D01*
X118668183Y-65580700D01*
X118831819Y-65580700D01*
X118939785Y-65559223D01*
X118992306Y-65548776D01*
X119143484Y-65486156D01*
X119279540Y-65395247D01*
X119342968Y-65331819D01*
X121669299Y-65331819D01*
X121701222Y-65492300D01*
X121701224Y-65492306D01*
X121763843Y-65643482D01*
X121854754Y-65779542D01*
X121970457Y-65895245D01*
X121970460Y-65895247D01*
X122106516Y-65986156D01*
X122257694Y-66048776D01*
X122257698Y-66048776D01*
X122257699Y-66048777D01*
X122418180Y-66080700D01*
X122418183Y-66080700D01*
X122581819Y-66080700D01*
X122689785Y-66059223D01*
X122742306Y-66048776D01*
X122893484Y-65986156D01*
X123029540Y-65895247D01*
X123145247Y-65779540D01*
X123236156Y-65643484D01*
X123298776Y-65492306D01*
X123318083Y-65395245D01*
X123330700Y-65331819D01*
X123330700Y-65168180D01*
X123313521Y-65081819D01*
X128669299Y-65081819D01*
X128701222Y-65242300D01*
X128701224Y-65242306D01*
X128763843Y-65393482D01*
X128854754Y-65529542D01*
X128970457Y-65645245D01*
X128970460Y-65645247D01*
X129106516Y-65736156D01*
X129257694Y-65798776D01*
X129257698Y-65798776D01*
X129257699Y-65798777D01*
X129418180Y-65830700D01*
X129418183Y-65830700D01*
X129581819Y-65830700D01*
X129689785Y-65809223D01*
X129742306Y-65798776D01*
X129893484Y-65736156D01*
X130029540Y-65645247D01*
X130092968Y-65581819D01*
X151419299Y-65581819D01*
X151451222Y-65742300D01*
X151451224Y-65742306D01*
X151513843Y-65893482D01*
X151604754Y-66029542D01*
X151720457Y-66145245D01*
X151720460Y-66145247D01*
X151856516Y-66236156D01*
X152007694Y-66298776D01*
X152007698Y-66298776D01*
X152007699Y-66298777D01*
X152168180Y-66330700D01*
X152168183Y-66330700D01*
X152331819Y-66330700D01*
X152439785Y-66309223D01*
X152492306Y-66298776D01*
X152643484Y-66236156D01*
X152779540Y-66145247D01*
X152895247Y-66029540D01*
X152986156Y-65893484D01*
X153048776Y-65742306D01*
X153068083Y-65645245D01*
X153080700Y-65581819D01*
X153080700Y-65418180D01*
X153048777Y-65257699D01*
X153048776Y-65257698D01*
X153048776Y-65257694D01*
X152986156Y-65106516D01*
X152895247Y-64970460D01*
X152895245Y-64970457D01*
X152779542Y-64854754D01*
X152711512Y-64809298D01*
X152643484Y-64763844D01*
X152628634Y-64757693D01*
X152492306Y-64701224D01*
X152492300Y-64701222D01*
X152331819Y-64669300D01*
X152331817Y-64669300D01*
X152168183Y-64669300D01*
X152168181Y-64669300D01*
X152007699Y-64701222D01*
X152007693Y-64701224D01*
X151856517Y-64763843D01*
X151720457Y-64854754D01*
X151604754Y-64970457D01*
X151513843Y-65106517D01*
X151451224Y-65257693D01*
X151451222Y-65257699D01*
X151419300Y-65418180D01*
X151419300Y-65418183D01*
X151419300Y-65581817D01*
X151419300Y-65581819D01*
X151419299Y-65581819D01*
X130092968Y-65581819D01*
X130145247Y-65529540D01*
X130236156Y-65393484D01*
X130298776Y-65242306D01*
X130313521Y-65168180D01*
X130330700Y-65081819D01*
X130330700Y-64918180D01*
X130298777Y-64757699D01*
X130298776Y-64757698D01*
X130298776Y-64757694D01*
X130236156Y-64606516D01*
X130145247Y-64470460D01*
X130145245Y-64470457D01*
X130029542Y-64354754D01*
X129945762Y-64298775D01*
X129893484Y-64263844D01*
X129826639Y-64236156D01*
X129742306Y-64201224D01*
X129742300Y-64201222D01*
X129581819Y-64169300D01*
X129581817Y-64169300D01*
X129418183Y-64169300D01*
X129418181Y-64169300D01*
X129257699Y-64201222D01*
X129257693Y-64201224D01*
X129106517Y-64263843D01*
X128970457Y-64354754D01*
X128854754Y-64470457D01*
X128763843Y-64606517D01*
X128701224Y-64757693D01*
X128701222Y-64757699D01*
X128669300Y-64918180D01*
X128669300Y-64918183D01*
X128669300Y-65081817D01*
X128669300Y-65081819D01*
X128669299Y-65081819D01*
X123313521Y-65081819D01*
X123298777Y-65007699D01*
X123298776Y-65007698D01*
X123298776Y-65007694D01*
X123292400Y-64992300D01*
X123278832Y-64959543D01*
X123236157Y-64856517D01*
X123145245Y-64720457D01*
X123029542Y-64604754D01*
X122961512Y-64559298D01*
X122893484Y-64513844D01*
X122878634Y-64507693D01*
X122742306Y-64451224D01*
X122742300Y-64451222D01*
X122581819Y-64419300D01*
X122581817Y-64419300D01*
X122418183Y-64419300D01*
X122418181Y-64419300D01*
X122257699Y-64451222D01*
X122257693Y-64451224D01*
X122106517Y-64513843D01*
X121970457Y-64604754D01*
X121854754Y-64720457D01*
X121763843Y-64856517D01*
X121701224Y-65007693D01*
X121701222Y-65007699D01*
X121669300Y-65168180D01*
X121669300Y-65168183D01*
X121669300Y-65331817D01*
X121669300Y-65331819D01*
X121669299Y-65331819D01*
X119342968Y-65331819D01*
X119395247Y-65279540D01*
X119486156Y-65143484D01*
X119548776Y-64992306D01*
X119575787Y-64856516D01*
X119580700Y-64831819D01*
X119580700Y-64668180D01*
X119548777Y-64507699D01*
X119548776Y-64507698D01*
X119548776Y-64507694D01*
X119486156Y-64356516D01*
X119395247Y-64220460D01*
X119395245Y-64220457D01*
X119279542Y-64104754D01*
X119166975Y-64029540D01*
X119143484Y-64013844D01*
X118992306Y-63951224D01*
X118992300Y-63951222D01*
X118831819Y-63919300D01*
X118831817Y-63919300D01*
X118668183Y-63919300D01*
X118668181Y-63919300D01*
X118507699Y-63951222D01*
X118507693Y-63951224D01*
X118356517Y-64013843D01*
X118220457Y-64104754D01*
X118104754Y-64220457D01*
X118013843Y-64356517D01*
X117951224Y-64507693D01*
X117951222Y-64507699D01*
X117919300Y-64668180D01*
X117919300Y-64668183D01*
X117919300Y-64831817D01*
X117919300Y-64831819D01*
X117919299Y-64831819D01*
X109750500Y-64831819D01*
X109750500Y-62350536D01*
X109770185Y-62283497D01*
X109822989Y-62237742D01*
X109892147Y-62227798D01*
X109955703Y-62256823D01*
X109981883Y-62288531D01*
X109999751Y-62319479D01*
X110028171Y-62356517D01*
X110167370Y-62537926D01*
X110167376Y-62537933D01*
X110362066Y-62732623D01*
X110362073Y-62732629D01*
X110490403Y-62831099D01*
X110580521Y-62900249D01*
X110702123Y-62970456D01*
X110818971Y-63037919D01*
X110818976Y-63037921D01*
X110818979Y-63037923D01*
X111073368Y-63143295D01*
X111339334Y-63214560D01*
X111612326Y-63250500D01*
X111612333Y-63250500D01*
X111887667Y-63250500D01*
X111887674Y-63250500D01*
X112160666Y-63214560D01*
X112426632Y-63143295D01*
X112681021Y-63037923D01*
X112919479Y-62900249D01*
X113008659Y-62831819D01*
X132924099Y-62831819D01*
X132956022Y-62992300D01*
X132956024Y-62992306D01*
X133018643Y-63143482D01*
X133109554Y-63279542D01*
X133225257Y-63395245D01*
X133225260Y-63395247D01*
X133361316Y-63486156D01*
X133512494Y-63548776D01*
X133512498Y-63548776D01*
X133512499Y-63548777D01*
X133672980Y-63580700D01*
X133672983Y-63580700D01*
X133836619Y-63580700D01*
X133944585Y-63559223D01*
X133997106Y-63548776D01*
X134148284Y-63486156D01*
X134183509Y-63462619D01*
X134250184Y-63441741D01*
X134317565Y-63460224D01*
X134321262Y-63462600D01*
X134356516Y-63486156D01*
X134507694Y-63548776D01*
X134507698Y-63548776D01*
X134507699Y-63548777D01*
X134668180Y-63580700D01*
X134668183Y-63580700D01*
X134831819Y-63580700D01*
X134939785Y-63559223D01*
X134992306Y-63548776D01*
X135143484Y-63486156D01*
X135181109Y-63461016D01*
X135247786Y-63440138D01*
X135315166Y-63458622D01*
X135318891Y-63461016D01*
X135356516Y-63486156D01*
X135507694Y-63548776D01*
X135507698Y-63548776D01*
X135507699Y-63548777D01*
X135668180Y-63580700D01*
X135668183Y-63580700D01*
X135831819Y-63580700D01*
X135939785Y-63559223D01*
X135992306Y-63548776D01*
X136143484Y-63486156D01*
X136279540Y-63395247D01*
X136395247Y-63279540D01*
X136486156Y-63143484D01*
X136511698Y-63081819D01*
X137419299Y-63081819D01*
X137451222Y-63242300D01*
X137451224Y-63242306D01*
X137457597Y-63257693D01*
X137513844Y-63393484D01*
X137530345Y-63418180D01*
X137604754Y-63529542D01*
X137720457Y-63645245D01*
X137720460Y-63645247D01*
X137856516Y-63736156D01*
X138007694Y-63798776D01*
X138007698Y-63798776D01*
X138007699Y-63798777D01*
X138168180Y-63830700D01*
X138168183Y-63830700D01*
X138331819Y-63830700D01*
X138439785Y-63809223D01*
X138492306Y-63798776D01*
X138643484Y-63736156D01*
X138681109Y-63711016D01*
X138747786Y-63690138D01*
X138815166Y-63708622D01*
X138818891Y-63711016D01*
X138856516Y-63736156D01*
X139007694Y-63798776D01*
X139007698Y-63798776D01*
X139007699Y-63798777D01*
X139174158Y-63831889D01*
X139173908Y-63833141D01*
X139232546Y-63856807D01*
X139259505Y-63889056D01*
X139260460Y-63888419D01*
X139354754Y-64029542D01*
X139470457Y-64145245D01*
X139470460Y-64145247D01*
X139606516Y-64236156D01*
X139757694Y-64298776D01*
X139757698Y-64298776D01*
X139757699Y-64298777D01*
X139918180Y-64330700D01*
X139918183Y-64330700D01*
X140081819Y-64330700D01*
X140189785Y-64309223D01*
X140242306Y-64298776D01*
X140393484Y-64236156D01*
X140529540Y-64145247D01*
X140645247Y-64029540D01*
X140736156Y-63893484D01*
X140798776Y-63742306D01*
X140830700Y-63581817D01*
X140830700Y-63418183D01*
X140830700Y-63418180D01*
X140798777Y-63257699D01*
X140798776Y-63257698D01*
X140798776Y-63257694D01*
X140736156Y-63106516D01*
X140719654Y-63081819D01*
X142419299Y-63081819D01*
X142451222Y-63242300D01*
X142451224Y-63242306D01*
X142457597Y-63257693D01*
X142513844Y-63393484D01*
X142530345Y-63418180D01*
X142604754Y-63529542D01*
X142720457Y-63645245D01*
X142720460Y-63645247D01*
X142856516Y-63736156D01*
X143007694Y-63798776D01*
X143007698Y-63798776D01*
X143007699Y-63798777D01*
X143168180Y-63830700D01*
X143168183Y-63830700D01*
X143331819Y-63830700D01*
X143439785Y-63809223D01*
X143492306Y-63798776D01*
X143643484Y-63736156D01*
X143779540Y-63645247D01*
X143895247Y-63529540D01*
X143986156Y-63393484D01*
X144048776Y-63242306D01*
X144059223Y-63189785D01*
X144080700Y-63081819D01*
X144080700Y-62918180D01*
X144048777Y-62757699D01*
X144048776Y-62757698D01*
X144048776Y-62757694D01*
X143986156Y-62606516D01*
X143895247Y-62470460D01*
X143895245Y-62470457D01*
X143779542Y-62354754D01*
X143672897Y-62283497D01*
X143643484Y-62263844D01*
X143643479Y-62263842D01*
X143492306Y-62201224D01*
X143492300Y-62201222D01*
X143331819Y-62169300D01*
X143331817Y-62169300D01*
X143168183Y-62169300D01*
X143168181Y-62169300D01*
X143007699Y-62201222D01*
X143007693Y-62201224D01*
X142856517Y-62263843D01*
X142720457Y-62354754D01*
X142604754Y-62470457D01*
X142513843Y-62606517D01*
X142451224Y-62757693D01*
X142451222Y-62757699D01*
X142419300Y-62918180D01*
X142419300Y-62918183D01*
X142419300Y-63081817D01*
X142419300Y-63081819D01*
X142419299Y-63081819D01*
X140719654Y-63081819D01*
X140645247Y-62970460D01*
X140645244Y-62970456D01*
X140529542Y-62854754D01*
X140461512Y-62809298D01*
X140393484Y-62763844D01*
X140378634Y-62757693D01*
X140242306Y-62701224D01*
X140242300Y-62701222D01*
X140075842Y-62668111D01*
X140076090Y-62666862D01*
X140017438Y-62643180D01*
X139990495Y-62610942D01*
X139989540Y-62611581D01*
X139964703Y-62574410D01*
X139895247Y-62470460D01*
X139895245Y-62470457D01*
X139779542Y-62354754D01*
X139672897Y-62283497D01*
X139643484Y-62263844D01*
X139643479Y-62263842D01*
X139492306Y-62201224D01*
X139492300Y-62201222D01*
X139331819Y-62169300D01*
X139331817Y-62169300D01*
X139168183Y-62169300D01*
X139168181Y-62169300D01*
X139007699Y-62201222D01*
X139007693Y-62201224D01*
X138856518Y-62263842D01*
X138818889Y-62288985D01*
X138752211Y-62309861D01*
X138684831Y-62291375D01*
X138681111Y-62288985D01*
X138643481Y-62263842D01*
X138492306Y-62201224D01*
X138492300Y-62201222D01*
X138331819Y-62169300D01*
X138331817Y-62169300D01*
X138168183Y-62169300D01*
X138168181Y-62169300D01*
X138007699Y-62201222D01*
X138007693Y-62201224D01*
X137856517Y-62263843D01*
X137720457Y-62354754D01*
X137604754Y-62470457D01*
X137513843Y-62606517D01*
X137451224Y-62757693D01*
X137451222Y-62757699D01*
X137419300Y-62918180D01*
X137419300Y-62918183D01*
X137419300Y-63081817D01*
X137419300Y-63081819D01*
X137419299Y-63081819D01*
X136511698Y-63081819D01*
X136548776Y-62992306D01*
X136553449Y-62968810D01*
X136569545Y-62887899D01*
X136569545Y-62887898D01*
X136580699Y-62831821D01*
X136580700Y-62831819D01*
X136580700Y-62668180D01*
X136548777Y-62507699D01*
X136548776Y-62507698D01*
X136548776Y-62507694D01*
X136486156Y-62356516D01*
X136395247Y-62220460D01*
X136395245Y-62220457D01*
X136279542Y-62104754D01*
X136166975Y-62029540D01*
X136143484Y-62013844D01*
X136143479Y-62013842D01*
X135992306Y-61951224D01*
X135992300Y-61951222D01*
X135831819Y-61919300D01*
X135831817Y-61919300D01*
X135668183Y-61919300D01*
X135668181Y-61919300D01*
X135507699Y-61951222D01*
X135507693Y-61951224D01*
X135356518Y-62013842D01*
X135318889Y-62038985D01*
X135252211Y-62059861D01*
X135184831Y-62041375D01*
X135181111Y-62038985D01*
X135143481Y-62013842D01*
X134992306Y-61951224D01*
X134992300Y-61951222D01*
X134831819Y-61919300D01*
X134831817Y-61919300D01*
X134668183Y-61919300D01*
X134668181Y-61919300D01*
X134507699Y-61951222D01*
X134507693Y-61951224D01*
X134356517Y-62013843D01*
X134321290Y-62037381D01*
X134254612Y-62058258D01*
X134187232Y-62039773D01*
X134183510Y-62037381D01*
X134165329Y-62025233D01*
X134148284Y-62013844D01*
X134148279Y-62013842D01*
X133997106Y-61951224D01*
X133997100Y-61951222D01*
X133836619Y-61919300D01*
X133836617Y-61919300D01*
X133672983Y-61919300D01*
X133672981Y-61919300D01*
X133512499Y-61951222D01*
X133512493Y-61951224D01*
X133361317Y-62013843D01*
X133225257Y-62104754D01*
X133109554Y-62220457D01*
X133018643Y-62356517D01*
X132956024Y-62507693D01*
X132956022Y-62507699D01*
X132924100Y-62668180D01*
X132924100Y-62668183D01*
X132924100Y-62831817D01*
X132924100Y-62831819D01*
X132924099Y-62831819D01*
X113008659Y-62831819D01*
X113137928Y-62732628D01*
X113203694Y-62666862D01*
X113296147Y-62574410D01*
X113332623Y-62537933D01*
X113332628Y-62537928D01*
X113500249Y-62319479D01*
X113567946Y-62202223D01*
X113618511Y-62154011D01*
X113687118Y-62140787D01*
X113744221Y-62161124D01*
X113856514Y-62236155D01*
X113856513Y-62236155D01*
X113866571Y-62240321D01*
X114007694Y-62298776D01*
X114007698Y-62298776D01*
X114007699Y-62298777D01*
X114168180Y-62330700D01*
X114168183Y-62330700D01*
X114331819Y-62330700D01*
X114439785Y-62309223D01*
X114492306Y-62298776D01*
X114643484Y-62236156D01*
X114779540Y-62145247D01*
X114895247Y-62029540D01*
X114986156Y-61893484D01*
X115048776Y-61742306D01*
X115080700Y-61581819D01*
X115669299Y-61581819D01*
X115701222Y-61742300D01*
X115701224Y-61742306D01*
X115763843Y-61893482D01*
X115854754Y-62029542D01*
X115970457Y-62145245D01*
X115970460Y-62145247D01*
X116106516Y-62236156D01*
X116257694Y-62298776D01*
X116257698Y-62298776D01*
X116257699Y-62298777D01*
X116418180Y-62330700D01*
X116418183Y-62330700D01*
X116581819Y-62330700D01*
X116689785Y-62309223D01*
X116742306Y-62298776D01*
X116893484Y-62236156D01*
X117029540Y-62145247D01*
X117145247Y-62029540D01*
X117236156Y-61893484D01*
X117298776Y-61742306D01*
X117330700Y-61581819D01*
X117919299Y-61581819D01*
X117951222Y-61742300D01*
X117951224Y-61742306D01*
X118013843Y-61893482D01*
X118104754Y-62029542D01*
X118220457Y-62145245D01*
X118220460Y-62145247D01*
X118356516Y-62236156D01*
X118507694Y-62298776D01*
X118507698Y-62298776D01*
X118507699Y-62298777D01*
X118668180Y-62330700D01*
X118668183Y-62330700D01*
X118831819Y-62330700D01*
X118939785Y-62309223D01*
X118992306Y-62298776D01*
X119143484Y-62236156D01*
X119279540Y-62145247D01*
X119395247Y-62029540D01*
X119486156Y-61893484D01*
X119548776Y-61742306D01*
X119580700Y-61581819D01*
X154919299Y-61581819D01*
X154951222Y-61742300D01*
X154951224Y-61742306D01*
X155013843Y-61893482D01*
X155104754Y-62029542D01*
X155220457Y-62145245D01*
X155220460Y-62145247D01*
X155356516Y-62236156D01*
X155507694Y-62298776D01*
X155507698Y-62298776D01*
X155507699Y-62298777D01*
X155668180Y-62330700D01*
X155668183Y-62330700D01*
X155831819Y-62330700D01*
X155939785Y-62309223D01*
X155992306Y-62298776D01*
X156143484Y-62236156D01*
X156279540Y-62145247D01*
X156395247Y-62029540D01*
X156486156Y-61893484D01*
X156548776Y-61742306D01*
X156580700Y-61581819D01*
X157169299Y-61581819D01*
X157201222Y-61742300D01*
X157201224Y-61742306D01*
X157263843Y-61893482D01*
X157354754Y-62029542D01*
X157470457Y-62145245D01*
X157470460Y-62145247D01*
X157606516Y-62236156D01*
X157757694Y-62298776D01*
X157757698Y-62298776D01*
X157757699Y-62298777D01*
X157918180Y-62330700D01*
X157918183Y-62330700D01*
X158081819Y-62330700D01*
X158189785Y-62309223D01*
X158242306Y-62298776D01*
X158393484Y-62236156D01*
X158529540Y-62145247D01*
X158645247Y-62029540D01*
X158736156Y-61893484D01*
X158798776Y-61742306D01*
X158830700Y-61581817D01*
X158830700Y-61418183D01*
X158830700Y-61418180D01*
X158798777Y-61257699D01*
X158798776Y-61257698D01*
X158798776Y-61257694D01*
X158736156Y-61106516D01*
X158645247Y-60970460D01*
X158645245Y-60970457D01*
X158529542Y-60854754D01*
X158429081Y-60787629D01*
X158393484Y-60763844D01*
X158334350Y-60739350D01*
X158242306Y-60701224D01*
X158242300Y-60701222D01*
X158081819Y-60669300D01*
X158081817Y-60669300D01*
X157918183Y-60669300D01*
X157918181Y-60669300D01*
X157757699Y-60701222D01*
X157757693Y-60701224D01*
X157606517Y-60763843D01*
X157470457Y-60854754D01*
X157354754Y-60970457D01*
X157263843Y-61106517D01*
X157201224Y-61257693D01*
X157201222Y-61257699D01*
X157169300Y-61418180D01*
X157169300Y-61418183D01*
X157169300Y-61581817D01*
X157169300Y-61581819D01*
X157169299Y-61581819D01*
X156580700Y-61581819D01*
X156580700Y-61581817D01*
X156580700Y-61418183D01*
X156580700Y-61418180D01*
X156548777Y-61257699D01*
X156548776Y-61257698D01*
X156548776Y-61257694D01*
X156486156Y-61106516D01*
X156395247Y-60970460D01*
X156395245Y-60970457D01*
X156279542Y-60854754D01*
X156179081Y-60787629D01*
X156143484Y-60763844D01*
X156084350Y-60739350D01*
X155992306Y-60701224D01*
X155992300Y-60701222D01*
X155831819Y-60669300D01*
X155831817Y-60669300D01*
X155668183Y-60669300D01*
X155668181Y-60669300D01*
X155507699Y-60701222D01*
X155507693Y-60701224D01*
X155356517Y-60763843D01*
X155220457Y-60854754D01*
X155104754Y-60970457D01*
X155013843Y-61106517D01*
X154951224Y-61257693D01*
X154951222Y-61257699D01*
X154919300Y-61418180D01*
X154919300Y-61418183D01*
X154919300Y-61581817D01*
X154919300Y-61581819D01*
X154919299Y-61581819D01*
X119580700Y-61581819D01*
X119580700Y-61581817D01*
X119580700Y-61418183D01*
X119580700Y-61418180D01*
X119548777Y-61257699D01*
X119548776Y-61257698D01*
X119548776Y-61257694D01*
X119486156Y-61106516D01*
X119395247Y-60970460D01*
X119395245Y-60970457D01*
X119279542Y-60854754D01*
X119179081Y-60787629D01*
X119143484Y-60763844D01*
X119084350Y-60739350D01*
X118992306Y-60701224D01*
X118992300Y-60701222D01*
X118831819Y-60669300D01*
X118831817Y-60669300D01*
X118668183Y-60669300D01*
X118668181Y-60669300D01*
X118507699Y-60701222D01*
X118507693Y-60701224D01*
X118356517Y-60763843D01*
X118220457Y-60854754D01*
X118104754Y-60970457D01*
X118013843Y-61106517D01*
X117951224Y-61257693D01*
X117951222Y-61257699D01*
X117919300Y-61418180D01*
X117919300Y-61418183D01*
X117919300Y-61581817D01*
X117919300Y-61581819D01*
X117919299Y-61581819D01*
X117330700Y-61581819D01*
X117330700Y-61581817D01*
X117330700Y-61418183D01*
X117330700Y-61418180D01*
X117298777Y-61257699D01*
X117298776Y-61257698D01*
X117298776Y-61257694D01*
X117236156Y-61106516D01*
X117145247Y-60970460D01*
X117145245Y-60970457D01*
X117029542Y-60854754D01*
X116929081Y-60787629D01*
X116893484Y-60763844D01*
X116834350Y-60739350D01*
X116742306Y-60701224D01*
X116742300Y-60701222D01*
X116581819Y-60669300D01*
X116581817Y-60669300D01*
X116418183Y-60669300D01*
X116418181Y-60669300D01*
X116257699Y-60701222D01*
X116257693Y-60701224D01*
X116106517Y-60763843D01*
X115970457Y-60854754D01*
X115854754Y-60970457D01*
X115763843Y-61106517D01*
X115701224Y-61257693D01*
X115701222Y-61257699D01*
X115669300Y-61418180D01*
X115669300Y-61418183D01*
X115669300Y-61581817D01*
X115669300Y-61581819D01*
X115669299Y-61581819D01*
X115080700Y-61581819D01*
X115080700Y-61581817D01*
X115080700Y-61418183D01*
X115080700Y-61418180D01*
X115048777Y-61257699D01*
X115048776Y-61257698D01*
X115048776Y-61257694D01*
X114986156Y-61106516D01*
X114895247Y-60970460D01*
X114895245Y-60970457D01*
X114779542Y-60854754D01*
X114679081Y-60787629D01*
X114643484Y-60763844D01*
X114584350Y-60739350D01*
X114492306Y-60701224D01*
X114492300Y-60701222D01*
X114331819Y-60669300D01*
X114331817Y-60669300D01*
X114168183Y-60669300D01*
X114168181Y-60669300D01*
X114007699Y-60701222D01*
X114007694Y-60701224D01*
X113955292Y-60722929D01*
X113885823Y-60730396D01*
X113823344Y-60699121D01*
X113788067Y-60640462D01*
X113743295Y-60473368D01*
X113637923Y-60218979D01*
X113637921Y-60218976D01*
X113637919Y-60218971D01*
X113588732Y-60133778D01*
X113500249Y-59980521D01*
X113332628Y-59762072D01*
X113332623Y-59762066D01*
X113137933Y-59567376D01*
X113137926Y-59567370D01*
X113014778Y-59472876D01*
X112973575Y-59416448D01*
X112969420Y-59346702D01*
X113003632Y-59285782D01*
X113065349Y-59253029D01*
X113090264Y-59250500D01*
X161659736Y-59250500D01*
X161726775Y-59270185D01*
G37*
%TD.AperFunction*%
%TD*%
M02*
