%TF.GenerationSoftware,KiCad,Pcbnew,9.0.5*%
%TF.CreationDate,2025-10-28T16:25:52-07:00*%
%TF.ProjectId,Vine_Basestation_Cable_Reeling,56696e65-5f42-4617-9365-73746174696f,rev?*%
%TF.SameCoordinates,Original*%
%TF.FileFunction,Soldermask,Top*%
%TF.FilePolarity,Negative*%
%FSLAX46Y46*%
G04 Gerber Fmt 4.6, Leading zero omitted, Abs format (unit mm)*
G04 Created by KiCad (PCBNEW 9.0.5) date 2025-10-28 16:25:52*
%MOMM*%
%LPD*%
G01*
G04 APERTURE LIST*
G04 Aperture macros list*
%AMRoundRect*
0 Rectangle with rounded corners*
0 $1 Rounding radius*
0 $2 $3 $4 $5 $6 $7 $8 $9 X,Y pos of 4 corners*
0 Add a 4 corners polygon primitive as box body*
4,1,4,$2,$3,$4,$5,$6,$7,$8,$9,$2,$3,0*
0 Add four circle primitives for the rounded corners*
1,1,$1+$1,$2,$3*
1,1,$1+$1,$4,$5*
1,1,$1+$1,$6,$7*
1,1,$1+$1,$8,$9*
0 Add four rect primitives between the rounded corners*
20,1,$1+$1,$2,$3,$4,$5,0*
20,1,$1+$1,$4,$5,$6,$7,0*
20,1,$1+$1,$6,$7,$8,$9,0*
20,1,$1+$1,$8,$9,$2,$3,0*%
G04 Aperture macros list end*
%ADD10RoundRect,0.150000X-0.200000X0.150000X-0.200000X-0.150000X0.200000X-0.150000X0.200000X0.150000X0*%
%ADD11RoundRect,0.250000X0.475000X-0.250000X0.475000X0.250000X-0.475000X0.250000X-0.475000X-0.250000X0*%
%ADD12RoundRect,0.250000X0.262500X0.450000X-0.262500X0.450000X-0.262500X-0.450000X0.262500X-0.450000X0*%
%ADD13RoundRect,0.250000X0.450000X-0.262500X0.450000X0.262500X-0.450000X0.262500X-0.450000X-0.262500X0*%
%ADD14RoundRect,0.250000X-0.262500X-0.450000X0.262500X-0.450000X0.262500X0.450000X-0.262500X0.450000X0*%
%ADD15R,1.422400X0.558800*%
%ADD16RoundRect,0.250000X-0.450000X0.262500X-0.450000X-0.262500X0.450000X-0.262500X0.450000X0.262500X0*%
%ADD17RoundRect,0.150000X0.200000X-0.150000X0.200000X0.150000X-0.200000X0.150000X-0.200000X-0.150000X0*%
%ADD18RoundRect,0.243750X-0.243750X-0.456250X0.243750X-0.456250X0.243750X0.456250X-0.243750X0.456250X0*%
%ADD19RoundRect,0.250000X0.250000X2.500000X-0.250000X2.500000X-0.250000X-2.500000X0.250000X-2.500000X0*%
%ADD20RoundRect,0.250000X0.550000X1.250000X-0.550000X1.250000X-0.550000X-1.250000X0.550000X-1.250000X0*%
%ADD21R,0.500000X1.850000*%
%ADD22RoundRect,0.100000X0.100000X-0.850000X0.100000X0.850000X-0.100000X0.850000X-0.100000X-0.850000X0*%
%ADD23RoundRect,0.100000X-0.100000X0.217500X-0.100000X-0.217500X0.100000X-0.217500X0.100000X0.217500X0*%
%ADD24C,0.650000*%
%ADD25RoundRect,0.150000X-0.425000X0.150000X-0.425000X-0.150000X0.425000X-0.150000X0.425000X0.150000X0*%
%ADD26RoundRect,0.075000X-0.500000X0.075000X-0.500000X-0.075000X0.500000X-0.075000X0.500000X0.075000X0*%
%ADD27RoundRect,0.250000X-0.750000X0.840000X-0.750000X-0.840000X0.750000X-0.840000X0.750000X0.840000X0*%
%ADD28R,1.498600X0.812800*%
%ADD29R,0.812800X1.498600*%
%ADD30R,0.889000X0.889000*%
%ADD31RoundRect,0.250000X2.500000X-0.250000X2.500000X0.250000X-2.500000X0.250000X-2.500000X-0.250000X0*%
%ADD32RoundRect,0.250000X1.250000X-0.550000X1.250000X0.550000X-1.250000X0.550000X-1.250000X-0.550000X0*%
%ADD33R,0.900000X1.700000*%
%ADD34RoundRect,0.150000X0.425000X-0.150000X0.425000X0.150000X-0.425000X0.150000X-0.425000X-0.150000X0*%
%ADD35RoundRect,0.075000X0.500000X-0.075000X0.500000X0.075000X-0.500000X0.075000X-0.500000X-0.075000X0*%
%ADD36RoundRect,0.250000X0.750000X-0.840000X0.750000X0.840000X-0.750000X0.840000X-0.750000X-0.840000X0*%
%ADD37RoundRect,0.250000X-2.500000X0.250000X-2.500000X-0.250000X2.500000X-0.250000X2.500000X0.250000X0*%
%ADD38RoundRect,0.250000X-1.250000X0.550000X-1.250000X-0.550000X1.250000X-0.550000X1.250000X0.550000X0*%
%ADD39RoundRect,0.250000X-0.475000X0.250000X-0.475000X-0.250000X0.475000X-0.250000X0.475000X0.250000X0*%
%ADD40RoundRect,0.050000X0.285000X0.100000X-0.285000X0.100000X-0.285000X-0.100000X0.285000X-0.100000X0*%
G04 APERTURE END LIST*
D10*
%TO.C,D2*%
X153390000Y-96610000D03*
X153390000Y-98010000D03*
%TD*%
D11*
%TO.C,C12*%
X116000000Y-105950000D03*
X116000000Y-104050000D03*
%TD*%
D12*
%TO.C,R3*%
X157912500Y-86750000D03*
X156087500Y-86750000D03*
%TD*%
D11*
%TO.C,C8*%
X139950000Y-103000000D03*
X139950000Y-101100000D03*
%TD*%
D13*
%TO.C,R9*%
X119325000Y-93022500D03*
X119325000Y-91197500D03*
%TD*%
D14*
%TO.C,R5*%
X125425000Y-101250000D03*
X127250000Y-101250000D03*
%TD*%
D15*
%TO.C,U4*%
X113711200Y-107699998D03*
X113711200Y-108649999D03*
X113711200Y-109600000D03*
X116000000Y-109600000D03*
X116000000Y-107699998D03*
%TD*%
D11*
%TO.C,C10*%
X123500000Y-81400000D03*
X123500000Y-79500000D03*
%TD*%
%TO.C,C5*%
X120750000Y-107550000D03*
X120750000Y-105650000D03*
%TD*%
D16*
%TO.C,R10*%
X120000000Y-97110000D03*
X120000000Y-98935000D03*
%TD*%
D17*
%TO.C,D4*%
X121325000Y-92460000D03*
X121325000Y-93860000D03*
%TD*%
D18*
%TO.C,D7*%
X159750000Y-115000000D03*
X161625000Y-115000000D03*
%TD*%
D11*
%TO.C,C7*%
X125750000Y-81400000D03*
X125750000Y-79500000D03*
%TD*%
D19*
%TO.C,J1*%
X121000000Y-116750000D03*
X119000000Y-116750000D03*
D20*
X123400000Y-119000000D03*
X116600000Y-119000000D03*
%TD*%
D19*
%TO.C,J2*%
X154200000Y-116750000D03*
X152200000Y-116750000D03*
D20*
X156600000Y-119000000D03*
X149800000Y-119000000D03*
%TD*%
D14*
%TO.C,R2*%
X116587500Y-79250000D03*
X118412500Y-79250000D03*
%TD*%
D18*
%TO.C,D6*%
X159750000Y-109250000D03*
X161625000Y-109250000D03*
%TD*%
D21*
%TO.C,J11*%
X132250000Y-65000000D03*
X132250000Y-68050000D03*
X133250000Y-65000000D03*
X133250000Y-68050000D03*
X134250000Y-65000000D03*
X134250000Y-68050000D03*
X135250000Y-65000000D03*
X135250000Y-68050000D03*
X136250000Y-65000000D03*
X136250000Y-68050000D03*
X137250000Y-65000000D03*
X137250000Y-68050000D03*
X138250000Y-65000000D03*
X138250000Y-68050000D03*
X139250000Y-65000000D03*
X139250000Y-68050000D03*
X140250000Y-65000000D03*
X140250000Y-68050000D03*
X141250000Y-65000000D03*
X141250000Y-68050000D03*
X142250000Y-65000000D03*
X142250000Y-68050000D03*
X143250000Y-65000000D03*
X143250000Y-68050000D03*
%TD*%
D12*
%TO.C,R12*%
X148662500Y-99000000D03*
X146837500Y-99000000D03*
%TD*%
D16*
%TO.C,R6*%
X155390000Y-97360000D03*
X155390000Y-99185000D03*
%TD*%
D17*
%TO.C,D1*%
X153390000Y-92460000D03*
X153390000Y-93860000D03*
%TD*%
D14*
%TO.C,R4*%
X121925000Y-101250000D03*
X123750000Y-101250000D03*
%TD*%
D22*
%TO.C,U5*%
X131000000Y-110500000D03*
X131650000Y-110500000D03*
X132300000Y-110500000D03*
X132950000Y-110500000D03*
X133600000Y-110500000D03*
X134250000Y-110500000D03*
X134900000Y-110500000D03*
X135550000Y-110500000D03*
X136200000Y-110500000D03*
X136850000Y-110500000D03*
X137500000Y-110500000D03*
X138150000Y-110500000D03*
X138150000Y-103500000D03*
X137500000Y-103500000D03*
X136850000Y-103500000D03*
X136200000Y-103500000D03*
X135550000Y-103500000D03*
X134900000Y-103500000D03*
X134250000Y-103500000D03*
X133600000Y-103500000D03*
X132950000Y-103500000D03*
X132300000Y-103500000D03*
X131650000Y-103500000D03*
X131000000Y-103500000D03*
%TD*%
D14*
%TO.C,R8*%
X159750000Y-106750000D03*
X161575000Y-106750000D03*
%TD*%
D23*
%TO.C,D5*%
X118500000Y-97775000D03*
X118500000Y-98590000D03*
%TD*%
D24*
%TO.C,J10*%
X115930000Y-91970000D03*
X115930000Y-97750000D03*
D25*
X117005000Y-91660000D03*
X117005000Y-92460000D03*
D26*
X117005000Y-93610000D03*
X117005000Y-94610000D03*
X117005000Y-95110000D03*
X117005000Y-96110000D03*
D25*
X117005000Y-97260000D03*
X117005000Y-98060000D03*
X117005000Y-98060000D03*
X117005000Y-97260000D03*
D26*
X117005000Y-96610000D03*
X117005000Y-95610000D03*
X117005000Y-94110000D03*
X117005000Y-93110000D03*
D25*
X117005000Y-92460000D03*
X117005000Y-91660000D03*
D27*
X116430000Y-89750000D03*
X112500000Y-89750000D03*
X116430000Y-99970000D03*
X112500000Y-99970000D03*
%TD*%
D28*
%TO.C,U1*%
X128600000Y-79380000D03*
X128600000Y-80650000D03*
X128600000Y-81920000D03*
X128600000Y-83190000D03*
X128600000Y-84460000D03*
X128600000Y-85730000D03*
X128600000Y-87000000D03*
X128600000Y-88270000D03*
X128600000Y-89540000D03*
X128600000Y-90810000D03*
X128600000Y-92080000D03*
X128600000Y-93350000D03*
X128600000Y-94620000D03*
X128600000Y-95890000D03*
D29*
X130365000Y-97140000D03*
X131635000Y-97140000D03*
X132905000Y-97140000D03*
X134175000Y-97140000D03*
X135445000Y-97140000D03*
X136715000Y-97140000D03*
X137985000Y-97140000D03*
X139255000Y-97140000D03*
X140525000Y-97140000D03*
X141795000Y-97140000D03*
X143065000Y-97140000D03*
X144335000Y-97140000D03*
D28*
X146100000Y-95890000D03*
X146100000Y-94620000D03*
X146100000Y-93350000D03*
X146100000Y-92080000D03*
X146100000Y-90810000D03*
X146100000Y-89540000D03*
X146100000Y-88270000D03*
X146100000Y-87000000D03*
X146100000Y-85730000D03*
X146100000Y-84460000D03*
X146100000Y-83190000D03*
X146100000Y-81920000D03*
X146100000Y-80650000D03*
X146100000Y-79380000D03*
D30*
X135850000Y-87100000D03*
X134450000Y-85700000D03*
X134450000Y-87100000D03*
X134450000Y-88500000D03*
X135850000Y-88500000D03*
X137250000Y-88500000D03*
X137250000Y-87100000D03*
X137250000Y-85700000D03*
X135850000Y-85700000D03*
%TD*%
D19*
%TO.C,J7*%
X143200000Y-116750000D03*
X141200000Y-116750000D03*
D20*
X145600000Y-119000000D03*
X138800000Y-119000000D03*
%TD*%
D11*
%TO.C,C2*%
X124350000Y-109050000D03*
X124350000Y-107150000D03*
%TD*%
D19*
%TO.C,J6*%
X132050000Y-116750000D03*
X130050000Y-116750000D03*
D20*
X134450000Y-119000000D03*
X127650000Y-119000000D03*
%TD*%
D14*
%TO.C,R11*%
X159837500Y-112750000D03*
X161662500Y-112750000D03*
%TD*%
D31*
%TO.C,J8*%
X114500000Y-73600000D03*
X114500000Y-71600000D03*
X114500000Y-69600000D03*
X114500000Y-67600000D03*
D32*
X112250000Y-76000000D03*
X112250000Y-65200000D03*
%TD*%
D33*
%TO.C,SW1*%
X122600000Y-62750000D03*
X126000000Y-62750000D03*
%TD*%
D24*
%TO.C,J3*%
X158785000Y-98500000D03*
X158785000Y-92720000D03*
D34*
X157710000Y-98810000D03*
X157710000Y-98010000D03*
D35*
X157710000Y-96860000D03*
X157710000Y-95860000D03*
X157710000Y-95360000D03*
X157710000Y-94360000D03*
D34*
X157710000Y-93210000D03*
X157710000Y-92410000D03*
X157710000Y-92410000D03*
X157710000Y-93210000D03*
D35*
X157710000Y-93860000D03*
X157710000Y-94860000D03*
X157710000Y-96360000D03*
X157710000Y-97360000D03*
D34*
X157710000Y-98010000D03*
X157710000Y-98810000D03*
D36*
X158285000Y-100720000D03*
X162215000Y-100720000D03*
X158285000Y-90500000D03*
X162215000Y-90500000D03*
%TD*%
D11*
%TO.C,C15*%
X121250000Y-81400000D03*
X121250000Y-79500000D03*
%TD*%
D13*
%TO.C,R7*%
X155390000Y-93272500D03*
X155390000Y-91447500D03*
%TD*%
D11*
%TO.C,C4*%
X118500000Y-107550000D03*
X118500000Y-105650000D03*
%TD*%
D37*
%TO.C,J9*%
X160000000Y-68400000D03*
X160000000Y-70400000D03*
X160000000Y-72400000D03*
X160000000Y-74400000D03*
D38*
X162250000Y-66000000D03*
X162250000Y-76800000D03*
%TD*%
D33*
%TO.C,SW2*%
X152200000Y-62250000D03*
X148800000Y-62250000D03*
%TD*%
D14*
%TO.C,R1*%
X119000000Y-89000000D03*
X120825000Y-89000000D03*
%TD*%
D11*
%TO.C,C1*%
X126600000Y-109000000D03*
X126600000Y-107100000D03*
%TD*%
D39*
%TO.C,C11*%
X111400000Y-107250000D03*
X111400000Y-109150000D03*
%TD*%
D37*
%TO.C,J5*%
X160000000Y-82400000D03*
X160000000Y-84400000D03*
D38*
X162250000Y-80000000D03*
X162250000Y-86800000D03*
%TD*%
D10*
%TO.C,D3*%
X121750000Y-97700000D03*
X121750000Y-96300000D03*
%TD*%
D39*
%TO.C,C3*%
X124350000Y-110900000D03*
X124350000Y-112800000D03*
%TD*%
D40*
%TO.C,U3*%
X121850000Y-110750000D03*
X121850000Y-110250000D03*
X121850000Y-109750000D03*
X121850000Y-109250000D03*
X120370000Y-109250000D03*
X120370000Y-109750000D03*
X120370000Y-110250000D03*
X120370000Y-110750000D03*
%TD*%
D11*
%TO.C,C9*%
X142450000Y-103000000D03*
X142450000Y-101100000D03*
%TD*%
D31*
%TO.C,J4*%
X114500000Y-83650000D03*
X114500000Y-81650000D03*
D32*
X112250000Y-86050000D03*
X112250000Y-79250000D03*
%TD*%
D14*
%TO.C,R13*%
X124837500Y-76000000D03*
X126662500Y-76000000D03*
%TD*%
M02*
