%TF.GenerationSoftware,KiCad,Pcbnew,9.0.5*%
%TF.CreationDate,2025-10-28T16:25:52-07:00*%
%TF.ProjectId,Vine_Basestation_Cable_Reeling,56696e65-5f42-4617-9365-73746174696f,rev?*%
%TF.SameCoordinates,Original*%
%TF.FileFunction,Copper,L2,Inr*%
%TF.FilePolarity,Positive*%
%FSLAX46Y46*%
G04 Gerber Fmt 4.6, Leading zero omitted, Abs format (unit mm)*
G04 Created by KiCad (PCBNEW 9.0.5) date 2025-10-28 16:25:52*
%MOMM*%
%LPD*%
G01*
G04 APERTURE LIST*
%TA.AperFunction,ViaPad*%
%ADD10C,0.660400*%
%TD*%
G04 APERTURE END LIST*
D10*
%TO.N,GND*%
X130750000Y-92750000D03*
X130750000Y-95000000D03*
X132750000Y-95000000D03*
X135000000Y-95000000D03*
X132750000Y-92750000D03*
X142750000Y-79500000D03*
X118750000Y-64750000D03*
X122750000Y-70000000D03*
X122750000Y-67750000D03*
X127000000Y-98250000D03*
X124750000Y-98250000D03*
X138000000Y-115000000D03*
X135750000Y-115000000D03*
X127000000Y-115000000D03*
X124750000Y-115000000D03*
X142000000Y-107750000D03*
X139750000Y-107750000D03*
X125000000Y-89000000D03*
X122750000Y-89000000D03*
X153500000Y-73750000D03*
X151250000Y-73750000D03*
X153500000Y-69250000D03*
X151250000Y-69250000D03*
X125000000Y-86250000D03*
X122750000Y-86250000D03*
X120500000Y-86250000D03*
X118250000Y-86250000D03*
X158000000Y-78250000D03*
X155750000Y-78250000D03*
X153500000Y-78250000D03*
X151250000Y-78250000D03*
X117250000Y-114000000D03*
X115000000Y-114000000D03*
X112750000Y-114000000D03*
X110500000Y-114000000D03*
X155000000Y-108250000D03*
X152750000Y-108250000D03*
X150500000Y-108250000D03*
X148250000Y-108250000D03*
X155000000Y-105000000D03*
X152750000Y-105000000D03*
X150500000Y-105000000D03*
X148250000Y-105000000D03*
X160250000Y-61500000D03*
X158000000Y-61500000D03*
X155750000Y-61500000D03*
X116500000Y-61500000D03*
X118750000Y-61500000D03*
X114250000Y-61500000D03*
%TO.N,5V0*%
X115750000Y-96750000D03*
X115750000Y-93250000D03*
%TO.N,/IO8*%
X139150000Y-70750000D03*
%TO.N,/IO2*%
X138250000Y-63000000D03*
%TO.N,/IO42*%
X139250000Y-63000000D03*
%TO.N,/IO39*%
X140000000Y-63500000D03*
%TO.N,/IO18*%
X139750000Y-66500000D03*
%TO.N,/IO36*%
X138250000Y-70000000D03*
%TO.N,/IO35*%
X137350000Y-71000000D03*
X147750000Y-94500000D03*
%TO.N,/IO36*%
X147750000Y-93250000D03*
%TO.N,/IO8*%
X147750000Y-92250000D03*
%TO.N,/IO18*%
X147750000Y-90750000D03*
%TO.N,/IO39*%
X147750000Y-89500000D03*
%TO.N,/IO42*%
X147500000Y-85750000D03*
%TO.N,/IO2*%
X147750000Y-82000000D03*
%TO.N,/IO45*%
X144000000Y-95500000D03*
X136750000Y-70000000D03*
%TO.N,/IO48*%
X135750000Y-71000000D03*
X143000000Y-95500000D03*
%TO.N,/IO47*%
X135463169Y-69975737D03*
X141750000Y-95500000D03*
%TO.N,/IO21*%
X134019593Y-70841214D03*
X140500000Y-95500000D03*
%TO.N,/IO14*%
X133838900Y-70000000D03*
X139000000Y-95500000D03*
%TO.N,GND*%
X122250000Y-105750000D03*
X155250000Y-90250000D03*
X150000000Y-95250000D03*
X141250000Y-99750000D03*
X125750000Y-113000000D03*
X118500000Y-71750000D03*
X111250000Y-110500000D03*
X143250000Y-63000000D03*
X143500000Y-69750000D03*
X159750000Y-110750000D03*
X152250000Y-65500000D03*
X155500000Y-70750000D03*
X138500000Y-88250000D03*
X119750000Y-79500000D03*
X117500000Y-103750000D03*
X118750000Y-113250000D03*
X150250000Y-115250000D03*
X135232300Y-99750000D03*
X138500000Y-86000000D03*
X122500000Y-65250000D03*
X159750000Y-116750000D03*
X121250000Y-91000000D03*
X155500000Y-100750000D03*
%TO.N,3V3*%
X140500000Y-69750000D03*
X118500000Y-74000000D03*
X125000000Y-73750000D03*
X155500000Y-67500000D03*
X119750000Y-81500000D03*
X159750000Y-105250000D03*
X133500000Y-99500000D03*
X148750000Y-97750000D03*
X119250000Y-110500000D03*
X142000000Y-69750000D03*
X118250000Y-84000000D03*
X152000000Y-95250000D03*
X125750000Y-110750000D03*
X156500000Y-81750000D03*
%TO.N,12V0*%
X154250000Y-113000000D03*
X142500000Y-104500000D03*
X144750000Y-103500000D03*
%TO.N,5V0*%
X113750000Y-110750000D03*
X113500000Y-105500000D03*
X111750000Y-105500000D03*
%TO.N,/USB2_Dp*%
X155250000Y-95154900D03*
%TO.N,/USB2_Dn*%
X154500000Y-96360000D03*
%TO.N,/ENCODER_AO1*%
X126250000Y-92000000D03*
X119250000Y-69500000D03*
%TO.N,/ENCODER_AO2*%
X118500000Y-67750000D03*
X126500000Y-93250000D03*
%TO.N,/ENCODER_BO2*%
X155750000Y-74500000D03*
X147500000Y-88250000D03*
%TO.N,/ENCODER_BO1*%
X155750000Y-72500000D03*
X147583584Y-87333584D03*
%TO.N,/RXD0*%
X149750000Y-87750000D03*
%TO.N,/TXD0*%
X151000000Y-84750000D03*
%TO.N,CHASSIS*%
X162000000Y-102500000D03*
X114500000Y-101000000D03*
%TO.N,/IO7*%
X130250000Y-87000000D03*
X131000000Y-67250000D03*
%TO.N,/IO15*%
X133754800Y-62750000D03*
X130250000Y-88250000D03*
%TO.N,/IO17*%
X135750000Y-62750000D03*
X130250000Y-90750000D03*
%TO.N,/IO16*%
X130250000Y-89500000D03*
X134750000Y-62750000D03*
%TO.N,/IO5*%
X129500000Y-65000000D03*
X130000000Y-84500000D03*
%TO.N,/IO6*%
X130250000Y-85750000D03*
X130000000Y-67000000D03*
%TD*%
%TA.AperFunction,Conductor*%
%TO.N,GND*%
G36*
X161726775Y-59270185D02*
G01*
X161772530Y-59322989D01*
X161782474Y-59392147D01*
X161753449Y-59455703D01*
X161735222Y-59472876D01*
X161612073Y-59567370D01*
X161612066Y-59567376D01*
X161417376Y-59762066D01*
X161417370Y-59762073D01*
X161249754Y-59980516D01*
X161112080Y-60218971D01*
X161112075Y-60218982D01*
X161006704Y-60473369D01*
X160935441Y-60739331D01*
X160935438Y-60739344D01*
X160899501Y-61012315D01*
X160899500Y-61012332D01*
X160899500Y-61287667D01*
X160899501Y-61287684D01*
X160935438Y-61560655D01*
X160935439Y-61560660D01*
X160935440Y-61560666D01*
X160935441Y-61560668D01*
X161006704Y-61826630D01*
X161112075Y-62081017D01*
X161112080Y-62081028D01*
X161163045Y-62169300D01*
X161249751Y-62319479D01*
X161249753Y-62319482D01*
X161249754Y-62319483D01*
X161417370Y-62537926D01*
X161417376Y-62537933D01*
X161612066Y-62732623D01*
X161612073Y-62732629D01*
X161740403Y-62831099D01*
X161830521Y-62900249D01*
X161952125Y-62970457D01*
X162068971Y-63037919D01*
X162068976Y-63037921D01*
X162068979Y-63037923D01*
X162323368Y-63143295D01*
X162589334Y-63214560D01*
X162862326Y-63250500D01*
X162862333Y-63250500D01*
X163137667Y-63250500D01*
X163137674Y-63250500D01*
X163410666Y-63214560D01*
X163676632Y-63143295D01*
X163931021Y-63037923D01*
X164169479Y-62900249D01*
X164387928Y-62732628D01*
X164582628Y-62537928D01*
X164750249Y-62319479D01*
X164768115Y-62288534D01*
X164818679Y-62240321D01*
X164887286Y-62227097D01*
X164952151Y-62253065D01*
X164992680Y-62309979D01*
X164999500Y-62350536D01*
X164999500Y-118399463D01*
X164979815Y-118466502D01*
X164927011Y-118512257D01*
X164857853Y-118522201D01*
X164794297Y-118493176D01*
X164768116Y-118461467D01*
X164750249Y-118430521D01*
X164750243Y-118430513D01*
X164582629Y-118212073D01*
X164582623Y-118212066D01*
X164387933Y-118017376D01*
X164387926Y-118017370D01*
X164169483Y-117849754D01*
X164169482Y-117849753D01*
X164169479Y-117849751D01*
X164074407Y-117794861D01*
X163931028Y-117712080D01*
X163931017Y-117712075D01*
X163676630Y-117606704D01*
X163543649Y-117571072D01*
X163410666Y-117535440D01*
X163410660Y-117535439D01*
X163410655Y-117535438D01*
X163137684Y-117499501D01*
X163137679Y-117499500D01*
X163137674Y-117499500D01*
X162862326Y-117499500D01*
X162862320Y-117499500D01*
X162862315Y-117499501D01*
X162589344Y-117535438D01*
X162589337Y-117535439D01*
X162589334Y-117535440D01*
X162533125Y-117550500D01*
X162323369Y-117606704D01*
X162068982Y-117712075D01*
X162068971Y-117712080D01*
X161830516Y-117849754D01*
X161612073Y-118017370D01*
X161612066Y-118017376D01*
X161417376Y-118212066D01*
X161417370Y-118212073D01*
X161249754Y-118430516D01*
X161112080Y-118668971D01*
X161112075Y-118668982D01*
X161006704Y-118923369D01*
X160935441Y-119189331D01*
X160935438Y-119189344D01*
X160899501Y-119462315D01*
X160899500Y-119462332D01*
X160899500Y-119737667D01*
X160899501Y-119737684D01*
X160935438Y-120010655D01*
X160935439Y-120010660D01*
X160935440Y-120010666D01*
X160935441Y-120010668D01*
X161006704Y-120276630D01*
X161112075Y-120531017D01*
X161112080Y-120531028D01*
X161191809Y-120669121D01*
X161249751Y-120769479D01*
X161249753Y-120769482D01*
X161249754Y-120769483D01*
X161417370Y-120987926D01*
X161417376Y-120987933D01*
X161612066Y-121182623D01*
X161612073Y-121182629D01*
X161735222Y-121277124D01*
X161776425Y-121333552D01*
X161780580Y-121403298D01*
X161746368Y-121464218D01*
X161684651Y-121496971D01*
X161659736Y-121499500D01*
X113090264Y-121499500D01*
X113023225Y-121479815D01*
X112977470Y-121427011D01*
X112967526Y-121357853D01*
X112996551Y-121294297D01*
X113014778Y-121277124D01*
X113078074Y-121228555D01*
X113137928Y-121182628D01*
X113332628Y-120987928D01*
X113500249Y-120769479D01*
X113637923Y-120531021D01*
X113743295Y-120276632D01*
X113814560Y-120010666D01*
X113850500Y-119737674D01*
X113850500Y-119462326D01*
X113814560Y-119189334D01*
X113743295Y-118923368D01*
X113637923Y-118668979D01*
X113637921Y-118668976D01*
X113637919Y-118668971D01*
X113588732Y-118583778D01*
X113500249Y-118430521D01*
X113332628Y-118212072D01*
X113332623Y-118212066D01*
X113137933Y-118017376D01*
X113137926Y-118017370D01*
X112919483Y-117849754D01*
X112919482Y-117849753D01*
X112919479Y-117849751D01*
X112824407Y-117794861D01*
X112681028Y-117712080D01*
X112681017Y-117712075D01*
X112426630Y-117606704D01*
X112293649Y-117571072D01*
X112160666Y-117535440D01*
X112160660Y-117535439D01*
X112160655Y-117535438D01*
X111887684Y-117499501D01*
X111887679Y-117499500D01*
X111887674Y-117499500D01*
X111612326Y-117499500D01*
X111612320Y-117499500D01*
X111612315Y-117499501D01*
X111339344Y-117535438D01*
X111339337Y-117535439D01*
X111339334Y-117535440D01*
X111283125Y-117550500D01*
X111073369Y-117606704D01*
X110818982Y-117712075D01*
X110818971Y-117712080D01*
X110580516Y-117849754D01*
X110362073Y-118017370D01*
X110362066Y-118017376D01*
X110167376Y-118212066D01*
X110167370Y-118212073D01*
X109999756Y-118430513D01*
X109999752Y-118430518D01*
X109999751Y-118430521D01*
X109981884Y-118461466D01*
X109931320Y-118509679D01*
X109862712Y-118522901D01*
X109797848Y-118496933D01*
X109757320Y-118440019D01*
X109750500Y-118399463D01*
X109750500Y-113081819D01*
X153419299Y-113081819D01*
X153451222Y-113242300D01*
X153451224Y-113242306D01*
X153513843Y-113393482D01*
X153604754Y-113529542D01*
X153720457Y-113645245D01*
X153720460Y-113645247D01*
X153856516Y-113736156D01*
X154007694Y-113798776D01*
X154007698Y-113798776D01*
X154007699Y-113798777D01*
X154168180Y-113830700D01*
X154168183Y-113830700D01*
X154331819Y-113830700D01*
X154439785Y-113809223D01*
X154492306Y-113798776D01*
X154643484Y-113736156D01*
X154779540Y-113645247D01*
X154895247Y-113529540D01*
X154986156Y-113393484D01*
X155048776Y-113242306D01*
X155080700Y-113081817D01*
X155080700Y-112918183D01*
X155080700Y-112918180D01*
X155048777Y-112757699D01*
X155048776Y-112757698D01*
X155048776Y-112757694D01*
X154986156Y-112606516D01*
X154895247Y-112470460D01*
X154895245Y-112470457D01*
X154779542Y-112354754D01*
X154711512Y-112309298D01*
X154643484Y-112263844D01*
X154492306Y-112201224D01*
X154492300Y-112201222D01*
X154331819Y-112169300D01*
X154331817Y-112169300D01*
X154168183Y-112169300D01*
X154168181Y-112169300D01*
X154007699Y-112201222D01*
X154007693Y-112201224D01*
X153856517Y-112263843D01*
X153720457Y-112354754D01*
X153604754Y-112470457D01*
X153513843Y-112606517D01*
X153451224Y-112757693D01*
X153451222Y-112757699D01*
X153419300Y-112918180D01*
X153419300Y-112918183D01*
X153419300Y-113081817D01*
X153419300Y-113081819D01*
X153419299Y-113081819D01*
X109750500Y-113081819D01*
X109750500Y-110831819D01*
X112919299Y-110831819D01*
X112951222Y-110992300D01*
X112951224Y-110992306D01*
X113013843Y-111143482D01*
X113104754Y-111279542D01*
X113220457Y-111395245D01*
X113220460Y-111395247D01*
X113356516Y-111486156D01*
X113507694Y-111548776D01*
X113507698Y-111548776D01*
X113507699Y-111548777D01*
X113668180Y-111580700D01*
X113668183Y-111580700D01*
X113831819Y-111580700D01*
X113939785Y-111559223D01*
X113992306Y-111548776D01*
X114143484Y-111486156D01*
X114279540Y-111395247D01*
X114395247Y-111279540D01*
X114486156Y-111143484D01*
X114548776Y-110992306D01*
X114559223Y-110939785D01*
X114580700Y-110831819D01*
X114580700Y-110668180D01*
X114563521Y-110581819D01*
X118419299Y-110581819D01*
X118451222Y-110742300D01*
X118451224Y-110742306D01*
X118513843Y-110893482D01*
X118604754Y-111029542D01*
X118720457Y-111145245D01*
X118720460Y-111145247D01*
X118856516Y-111236156D01*
X119007694Y-111298776D01*
X119007698Y-111298776D01*
X119007699Y-111298777D01*
X119168180Y-111330700D01*
X119168183Y-111330700D01*
X119331819Y-111330700D01*
X119439785Y-111309223D01*
X119492306Y-111298776D01*
X119643484Y-111236156D01*
X119779540Y-111145247D01*
X119895247Y-111029540D01*
X119986156Y-110893484D01*
X120011698Y-110831819D01*
X124919299Y-110831819D01*
X124951222Y-110992300D01*
X124951224Y-110992306D01*
X125013843Y-111143482D01*
X125104754Y-111279542D01*
X125220457Y-111395245D01*
X125220460Y-111395247D01*
X125356516Y-111486156D01*
X125507694Y-111548776D01*
X125507698Y-111548776D01*
X125507699Y-111548777D01*
X125668180Y-111580700D01*
X125668183Y-111580700D01*
X125831819Y-111580700D01*
X125939785Y-111559223D01*
X125992306Y-111548776D01*
X126143484Y-111486156D01*
X126279540Y-111395247D01*
X126395247Y-111279540D01*
X126486156Y-111143484D01*
X126548776Y-110992306D01*
X126559223Y-110939785D01*
X126580700Y-110831819D01*
X126580700Y-110668180D01*
X126548777Y-110507699D01*
X126548776Y-110507698D01*
X126548776Y-110507694D01*
X126486156Y-110356516D01*
X126395247Y-110220460D01*
X126395245Y-110220457D01*
X126279542Y-110104754D01*
X126211512Y-110059298D01*
X126143484Y-110013844D01*
X125992306Y-109951224D01*
X125992300Y-109951222D01*
X125831819Y-109919300D01*
X125831817Y-109919300D01*
X125668183Y-109919300D01*
X125668181Y-109919300D01*
X125507699Y-109951222D01*
X125507693Y-109951224D01*
X125356517Y-110013843D01*
X125220457Y-110104754D01*
X125104754Y-110220457D01*
X125013843Y-110356517D01*
X124951224Y-110507693D01*
X124951222Y-110507699D01*
X124919300Y-110668180D01*
X124919300Y-110668183D01*
X124919300Y-110831817D01*
X124919300Y-110831819D01*
X124919299Y-110831819D01*
X120011698Y-110831819D01*
X120048776Y-110742306D01*
X120053449Y-110718810D01*
X120069545Y-110637899D01*
X120069545Y-110637898D01*
X120080699Y-110581821D01*
X120080700Y-110581819D01*
X120080700Y-110418180D01*
X120048777Y-110257699D01*
X120048776Y-110257698D01*
X120048776Y-110257694D01*
X119986156Y-110106516D01*
X119895247Y-109970460D01*
X119895245Y-109970457D01*
X119779542Y-109854754D01*
X119711512Y-109809298D01*
X119643484Y-109763844D01*
X119492306Y-109701224D01*
X119492300Y-109701222D01*
X119331819Y-109669300D01*
X119331817Y-109669300D01*
X119168183Y-109669300D01*
X119168181Y-109669300D01*
X119007699Y-109701222D01*
X119007693Y-109701224D01*
X118856517Y-109763843D01*
X118720457Y-109854754D01*
X118604754Y-109970457D01*
X118513843Y-110106517D01*
X118451224Y-110257693D01*
X118451222Y-110257699D01*
X118419300Y-110418180D01*
X118419300Y-110418183D01*
X118419300Y-110581817D01*
X118419300Y-110581819D01*
X118419299Y-110581819D01*
X114563521Y-110581819D01*
X114548777Y-110507699D01*
X114548776Y-110507698D01*
X114548776Y-110507694D01*
X114548774Y-110507689D01*
X114528832Y-110459543D01*
X114486157Y-110356517D01*
X114395245Y-110220457D01*
X114279542Y-110104754D01*
X114211512Y-110059298D01*
X114143484Y-110013844D01*
X113992306Y-109951224D01*
X113992300Y-109951222D01*
X113831819Y-109919300D01*
X113831817Y-109919300D01*
X113668183Y-109919300D01*
X113668181Y-109919300D01*
X113507699Y-109951222D01*
X113507693Y-109951224D01*
X113356517Y-110013843D01*
X113220457Y-110104754D01*
X113104754Y-110220457D01*
X113013843Y-110356517D01*
X112951224Y-110507693D01*
X112951222Y-110507699D01*
X112919300Y-110668180D01*
X112919300Y-110668183D01*
X112919300Y-110831817D01*
X112919300Y-110831819D01*
X112919299Y-110831819D01*
X109750500Y-110831819D01*
X109750500Y-105581819D01*
X110919299Y-105581819D01*
X110951222Y-105742300D01*
X110951224Y-105742306D01*
X111013843Y-105893482D01*
X111104754Y-106029542D01*
X111220457Y-106145245D01*
X111220460Y-106145247D01*
X111356516Y-106236156D01*
X111507694Y-106298776D01*
X111507698Y-106298776D01*
X111507699Y-106298777D01*
X111668180Y-106330700D01*
X111668183Y-106330700D01*
X111831819Y-106330700D01*
X111939785Y-106309223D01*
X111992306Y-106298776D01*
X112143484Y-106236156D01*
X112279540Y-106145247D01*
X112395247Y-106029540D01*
X112486156Y-105893484D01*
X112510439Y-105834860D01*
X112554279Y-105780456D01*
X112620573Y-105758391D01*
X112688273Y-105775670D01*
X112735884Y-105826807D01*
X112739561Y-105834860D01*
X112763844Y-105893484D01*
X112824450Y-105984188D01*
X112854754Y-106029542D01*
X112970457Y-106145245D01*
X112970460Y-106145247D01*
X113106516Y-106236156D01*
X113257694Y-106298776D01*
X113257698Y-106298776D01*
X113257699Y-106298777D01*
X113418180Y-106330700D01*
X113418183Y-106330700D01*
X113581819Y-106330700D01*
X113689785Y-106309223D01*
X113742306Y-106298776D01*
X113893484Y-106236156D01*
X114029540Y-106145247D01*
X114145247Y-106029540D01*
X114236156Y-105893484D01*
X114298776Y-105742306D01*
X114309223Y-105689785D01*
X114330700Y-105581819D01*
X114330700Y-105418180D01*
X114313521Y-105331819D01*
X158919299Y-105331819D01*
X158951222Y-105492300D01*
X158951224Y-105492306D01*
X159013843Y-105643482D01*
X159104754Y-105779542D01*
X159220457Y-105895245D01*
X159220460Y-105895247D01*
X159356516Y-105986156D01*
X159507694Y-106048776D01*
X159507698Y-106048776D01*
X159507699Y-106048777D01*
X159668180Y-106080700D01*
X159668183Y-106080700D01*
X159831819Y-106080700D01*
X159939785Y-106059223D01*
X159992306Y-106048776D01*
X160143484Y-105986156D01*
X160279540Y-105895247D01*
X160395247Y-105779540D01*
X160486156Y-105643484D01*
X160548776Y-105492306D01*
X160580700Y-105331817D01*
X160580700Y-105168183D01*
X160580700Y-105168180D01*
X160548777Y-105007699D01*
X160548776Y-105007698D01*
X160548776Y-105007694D01*
X160486156Y-104856516D01*
X160395247Y-104720460D01*
X160395245Y-104720457D01*
X160279542Y-104604754D01*
X160211512Y-104559298D01*
X160143484Y-104513844D01*
X159992306Y-104451224D01*
X159992300Y-104451222D01*
X159831819Y-104419300D01*
X159831817Y-104419300D01*
X159668183Y-104419300D01*
X159668181Y-104419300D01*
X159507699Y-104451222D01*
X159507693Y-104451224D01*
X159356517Y-104513843D01*
X159220457Y-104604754D01*
X159104754Y-104720457D01*
X159013843Y-104856517D01*
X158951224Y-105007693D01*
X158951222Y-105007699D01*
X158919300Y-105168180D01*
X158919300Y-105168183D01*
X158919300Y-105331817D01*
X158919300Y-105331819D01*
X158919299Y-105331819D01*
X114313521Y-105331819D01*
X114298777Y-105257699D01*
X114298776Y-105257698D01*
X114298776Y-105257694D01*
X114236156Y-105106516D01*
X114145247Y-104970460D01*
X114145245Y-104970457D01*
X114029542Y-104854754D01*
X113961512Y-104809298D01*
X113893484Y-104763844D01*
X113742306Y-104701224D01*
X113742300Y-104701222D01*
X113581819Y-104669300D01*
X113581817Y-104669300D01*
X113418183Y-104669300D01*
X113418181Y-104669300D01*
X113257699Y-104701222D01*
X113257693Y-104701224D01*
X113106517Y-104763843D01*
X112970457Y-104854754D01*
X112854754Y-104970457D01*
X112763843Y-105106517D01*
X112739561Y-105165140D01*
X112695720Y-105219543D01*
X112629426Y-105241608D01*
X112561727Y-105224329D01*
X112514116Y-105173192D01*
X112510439Y-105165140D01*
X112486156Y-105106517D01*
X112486156Y-105106516D01*
X112395247Y-104970460D01*
X112395245Y-104970457D01*
X112279542Y-104854754D01*
X112211512Y-104809298D01*
X112143484Y-104763844D01*
X111992306Y-104701224D01*
X111992300Y-104701222D01*
X111831819Y-104669300D01*
X111831817Y-104669300D01*
X111668183Y-104669300D01*
X111668181Y-104669300D01*
X111507699Y-104701222D01*
X111507693Y-104701224D01*
X111356517Y-104763843D01*
X111220457Y-104854754D01*
X111104754Y-104970457D01*
X111013843Y-105106517D01*
X110951224Y-105257693D01*
X110951222Y-105257699D01*
X110919300Y-105418180D01*
X110919300Y-105418183D01*
X110919300Y-105581817D01*
X110919300Y-105581819D01*
X110919299Y-105581819D01*
X109750500Y-105581819D01*
X109750500Y-104581819D01*
X141669299Y-104581819D01*
X141701222Y-104742300D01*
X141701224Y-104742306D01*
X141763843Y-104893482D01*
X141854754Y-105029542D01*
X141970457Y-105145245D01*
X141970460Y-105145247D01*
X142106516Y-105236156D01*
X142257694Y-105298776D01*
X142257698Y-105298776D01*
X142257699Y-105298777D01*
X142418180Y-105330700D01*
X142418183Y-105330700D01*
X142581819Y-105330700D01*
X142689785Y-105309223D01*
X142742306Y-105298776D01*
X142893484Y-105236156D01*
X143029540Y-105145247D01*
X143029543Y-105145244D01*
X143100378Y-105074410D01*
X143145244Y-105029543D01*
X143145245Y-105029542D01*
X143145247Y-105029540D01*
X143236156Y-104893484D01*
X143298776Y-104742306D01*
X143313298Y-104669300D01*
X143330700Y-104581819D01*
X143330700Y-104418180D01*
X143298777Y-104257699D01*
X143298776Y-104257698D01*
X143298776Y-104257694D01*
X143236156Y-104106516D01*
X143145247Y-103970460D01*
X143145245Y-103970457D01*
X143029542Y-103854754D01*
X142961512Y-103809298D01*
X142893484Y-103763844D01*
X142742306Y-103701224D01*
X142742300Y-103701222D01*
X142581819Y-103669300D01*
X142581817Y-103669300D01*
X142418183Y-103669300D01*
X142418181Y-103669300D01*
X142257699Y-103701222D01*
X142257693Y-103701224D01*
X142106517Y-103763843D01*
X141970457Y-103854754D01*
X141854754Y-103970457D01*
X141763843Y-104106517D01*
X141701224Y-104257693D01*
X141701222Y-104257699D01*
X141669300Y-104418180D01*
X141669300Y-104418183D01*
X141669300Y-104581817D01*
X141669300Y-104581819D01*
X141669299Y-104581819D01*
X109750500Y-104581819D01*
X109750500Y-103581819D01*
X143919299Y-103581819D01*
X143951222Y-103742300D01*
X143951224Y-103742306D01*
X144013843Y-103893482D01*
X144104754Y-104029542D01*
X144220457Y-104145245D01*
X144220460Y-104145247D01*
X144356516Y-104236156D01*
X144507694Y-104298776D01*
X144507698Y-104298776D01*
X144507699Y-104298777D01*
X144668180Y-104330700D01*
X144668183Y-104330700D01*
X144831819Y-104330700D01*
X144939785Y-104309223D01*
X144992306Y-104298776D01*
X145143484Y-104236156D01*
X145279540Y-104145247D01*
X145395247Y-104029540D01*
X145486156Y-103893484D01*
X145548776Y-103742306D01*
X145580700Y-103581817D01*
X145580700Y-103418183D01*
X145580700Y-103418180D01*
X145548777Y-103257699D01*
X145548776Y-103257698D01*
X145548776Y-103257694D01*
X145486156Y-103106516D01*
X145395247Y-102970460D01*
X145395245Y-102970457D01*
X145279542Y-102854754D01*
X145211512Y-102809298D01*
X145143484Y-102763844D01*
X144992306Y-102701224D01*
X144992300Y-102701222D01*
X144831819Y-102669300D01*
X144831817Y-102669300D01*
X144668183Y-102669300D01*
X144668181Y-102669300D01*
X144507699Y-102701222D01*
X144507693Y-102701224D01*
X144356517Y-102763843D01*
X144220457Y-102854754D01*
X144104754Y-102970457D01*
X144013843Y-103106517D01*
X143951224Y-103257693D01*
X143951222Y-103257699D01*
X143919300Y-103418180D01*
X143919300Y-103418183D01*
X143919300Y-103581817D01*
X143919300Y-103581819D01*
X143919299Y-103581819D01*
X109750500Y-103581819D01*
X109750500Y-102581819D01*
X161169299Y-102581819D01*
X161201222Y-102742300D01*
X161201224Y-102742306D01*
X161263843Y-102893482D01*
X161354754Y-103029542D01*
X161470457Y-103145245D01*
X161470460Y-103145247D01*
X161606516Y-103236156D01*
X161757694Y-103298776D01*
X161757698Y-103298776D01*
X161757699Y-103298777D01*
X161918180Y-103330700D01*
X161918183Y-103330700D01*
X162081819Y-103330700D01*
X162189785Y-103309223D01*
X162242306Y-103298776D01*
X162393484Y-103236156D01*
X162529540Y-103145247D01*
X162645247Y-103029540D01*
X162736156Y-102893484D01*
X162798776Y-102742306D01*
X162830700Y-102581817D01*
X162830700Y-102418183D01*
X162830700Y-102418180D01*
X162798777Y-102257699D01*
X162798776Y-102257698D01*
X162798776Y-102257694D01*
X162736156Y-102106516D01*
X162645247Y-101970460D01*
X162645245Y-101970457D01*
X162529542Y-101854754D01*
X162445762Y-101798775D01*
X162393484Y-101763844D01*
X162326639Y-101736156D01*
X162242306Y-101701224D01*
X162242300Y-101701222D01*
X162081819Y-101669300D01*
X162081817Y-101669300D01*
X161918183Y-101669300D01*
X161918181Y-101669300D01*
X161757699Y-101701222D01*
X161757693Y-101701224D01*
X161606517Y-101763843D01*
X161470457Y-101854754D01*
X161354754Y-101970457D01*
X161263843Y-102106517D01*
X161201224Y-102257693D01*
X161201222Y-102257699D01*
X161169300Y-102418180D01*
X161169300Y-102418183D01*
X161169300Y-102581817D01*
X161169300Y-102581819D01*
X161169299Y-102581819D01*
X109750500Y-102581819D01*
X109750500Y-101081819D01*
X113669299Y-101081819D01*
X113701222Y-101242300D01*
X113701224Y-101242306D01*
X113763843Y-101393482D01*
X113854754Y-101529542D01*
X113970457Y-101645245D01*
X113970460Y-101645247D01*
X114106516Y-101736156D01*
X114257694Y-101798776D01*
X114257698Y-101798776D01*
X114257699Y-101798777D01*
X114418180Y-101830700D01*
X114418183Y-101830700D01*
X114581819Y-101830700D01*
X114689785Y-101809223D01*
X114742306Y-101798776D01*
X114893484Y-101736156D01*
X115029540Y-101645247D01*
X115145247Y-101529540D01*
X115236156Y-101393484D01*
X115298776Y-101242306D01*
X115330700Y-101081817D01*
X115330700Y-100918183D01*
X115330700Y-100918180D01*
X115298777Y-100757699D01*
X115298776Y-100757698D01*
X115298776Y-100757694D01*
X115236156Y-100606516D01*
X115145247Y-100470460D01*
X115145245Y-100470457D01*
X115029542Y-100354754D01*
X114945762Y-100298775D01*
X114893484Y-100263844D01*
X114826639Y-100236156D01*
X114742306Y-100201224D01*
X114742300Y-100201222D01*
X114581819Y-100169300D01*
X114581817Y-100169300D01*
X114418183Y-100169300D01*
X114418181Y-100169300D01*
X114257699Y-100201222D01*
X114257693Y-100201224D01*
X114106517Y-100263843D01*
X113970457Y-100354754D01*
X113854754Y-100470457D01*
X113763843Y-100606517D01*
X113701224Y-100757693D01*
X113701222Y-100757699D01*
X113669300Y-100918180D01*
X113669300Y-100918183D01*
X113669300Y-101081817D01*
X113669300Y-101081819D01*
X113669299Y-101081819D01*
X109750500Y-101081819D01*
X109750500Y-99581819D01*
X132669299Y-99581819D01*
X132701222Y-99742300D01*
X132701224Y-99742306D01*
X132763843Y-99893482D01*
X132854754Y-100029542D01*
X132970457Y-100145245D01*
X132970460Y-100145247D01*
X133106516Y-100236156D01*
X133257694Y-100298776D01*
X133257698Y-100298776D01*
X133257699Y-100298777D01*
X133418180Y-100330700D01*
X133418183Y-100330700D01*
X133581819Y-100330700D01*
X133689785Y-100309223D01*
X133742306Y-100298776D01*
X133893484Y-100236156D01*
X134029540Y-100145247D01*
X134145247Y-100029540D01*
X134236156Y-99893484D01*
X134298776Y-99742306D01*
X134330700Y-99581817D01*
X134330700Y-99418183D01*
X134330700Y-99418180D01*
X134298777Y-99257699D01*
X134298776Y-99257698D01*
X134298776Y-99257694D01*
X134236156Y-99106516D01*
X134145247Y-98970460D01*
X134145245Y-98970457D01*
X134029542Y-98854754D01*
X133961512Y-98809298D01*
X133893484Y-98763844D01*
X133742306Y-98701224D01*
X133742300Y-98701222D01*
X133581819Y-98669300D01*
X133581817Y-98669300D01*
X133418183Y-98669300D01*
X133418181Y-98669300D01*
X133257699Y-98701222D01*
X133257693Y-98701224D01*
X133106517Y-98763843D01*
X132970457Y-98854754D01*
X132854754Y-98970457D01*
X132763843Y-99106517D01*
X132701224Y-99257693D01*
X132701222Y-99257699D01*
X132669300Y-99418180D01*
X132669300Y-99418183D01*
X132669300Y-99581817D01*
X132669300Y-99581819D01*
X132669299Y-99581819D01*
X109750500Y-99581819D01*
X109750500Y-96831819D01*
X114919299Y-96831819D01*
X114951222Y-96992300D01*
X114951224Y-96992306D01*
X114997801Y-97104754D01*
X115013844Y-97143484D01*
X115059298Y-97211512D01*
X115104754Y-97279542D01*
X115220456Y-97395244D01*
X115220464Y-97395250D01*
X115323665Y-97464207D01*
X115368471Y-97517819D01*
X115377178Y-97587144D01*
X115374550Y-97599400D01*
X115354500Y-97674229D01*
X115354500Y-97674234D01*
X115354500Y-97825766D01*
X115356122Y-97831819D01*
X115393719Y-97972136D01*
X115431602Y-98037750D01*
X115469485Y-98103365D01*
X115576635Y-98210515D01*
X115707865Y-98286281D01*
X115854234Y-98325500D01*
X115854236Y-98325500D01*
X116005764Y-98325500D01*
X116005766Y-98325500D01*
X116152135Y-98286281D01*
X116283365Y-98210515D01*
X116390515Y-98103365D01*
X116466281Y-97972135D01*
X116503878Y-97831819D01*
X147919299Y-97831819D01*
X147951222Y-97992300D01*
X147951224Y-97992306D01*
X148013844Y-98143484D01*
X148058630Y-98210512D01*
X148104754Y-98279542D01*
X148220457Y-98395245D01*
X148220460Y-98395247D01*
X148356516Y-98486156D01*
X148507694Y-98548776D01*
X148507698Y-98548776D01*
X148507699Y-98548777D01*
X148668180Y-98580700D01*
X148668183Y-98580700D01*
X148831819Y-98580700D01*
X148939785Y-98559223D01*
X148992306Y-98548776D01*
X149143484Y-98486156D01*
X149236158Y-98424234D01*
X158209500Y-98424234D01*
X158209500Y-98575765D01*
X158248719Y-98722136D01*
X158272799Y-98763843D01*
X158324485Y-98853365D01*
X158431635Y-98960515D01*
X158562865Y-99036281D01*
X158709234Y-99075500D01*
X158709236Y-99075500D01*
X158860764Y-99075500D01*
X158860766Y-99075500D01*
X159007135Y-99036281D01*
X159138365Y-98960515D01*
X159245515Y-98853365D01*
X159321281Y-98722135D01*
X159360500Y-98575766D01*
X159360500Y-98424234D01*
X159321281Y-98277865D01*
X159245515Y-98146635D01*
X159138365Y-98039485D01*
X159021714Y-97972136D01*
X159007136Y-97963719D01*
X158933950Y-97944109D01*
X158860766Y-97924500D01*
X158709234Y-97924500D01*
X158562863Y-97963719D01*
X158431635Y-98039485D01*
X158431632Y-98039487D01*
X158324487Y-98146632D01*
X158324485Y-98146635D01*
X158248719Y-98277863D01*
X158209500Y-98424234D01*
X149236158Y-98424234D01*
X149279540Y-98395247D01*
X149279543Y-98395244D01*
X149346362Y-98328426D01*
X149395244Y-98279543D01*
X149395245Y-98279542D01*
X149395247Y-98279540D01*
X149486156Y-98143484D01*
X149548776Y-97992306D01*
X149580700Y-97831817D01*
X149580700Y-97668183D01*
X149580700Y-97668180D01*
X149548777Y-97507699D01*
X149548776Y-97507698D01*
X149548776Y-97507694D01*
X149486156Y-97356516D01*
X149395247Y-97220460D01*
X149395245Y-97220457D01*
X149279542Y-97104754D01*
X149211512Y-97059298D01*
X149143484Y-97013844D01*
X149122724Y-97005245D01*
X148992306Y-96951224D01*
X148992300Y-96951222D01*
X148831819Y-96919300D01*
X148831817Y-96919300D01*
X148668183Y-96919300D01*
X148668181Y-96919300D01*
X148507699Y-96951222D01*
X148507693Y-96951224D01*
X148356517Y-97013843D01*
X148220457Y-97104754D01*
X148104754Y-97220457D01*
X148013843Y-97356517D01*
X147951224Y-97507693D01*
X147951222Y-97507699D01*
X147919300Y-97668180D01*
X147919300Y-97668183D01*
X147919300Y-97831817D01*
X147919300Y-97831819D01*
X147919299Y-97831819D01*
X116503878Y-97831819D01*
X116505500Y-97825766D01*
X116505500Y-97674234D01*
X116466281Y-97527865D01*
X116394994Y-97404393D01*
X116378522Y-97336496D01*
X116399280Y-97273505D01*
X116486155Y-97143486D01*
X116502199Y-97104753D01*
X116548776Y-96992306D01*
X116580700Y-96831817D01*
X116580700Y-96668183D01*
X116580700Y-96668180D01*
X116548777Y-96507699D01*
X116548776Y-96507698D01*
X116548776Y-96507694D01*
X116521490Y-96441819D01*
X153669299Y-96441819D01*
X153701222Y-96602300D01*
X153701224Y-96602306D01*
X153763843Y-96753482D01*
X153854754Y-96889542D01*
X153970457Y-97005245D01*
X153970460Y-97005247D01*
X154106516Y-97096156D01*
X154257694Y-97158776D01*
X154257698Y-97158776D01*
X154257699Y-97158777D01*
X154418180Y-97190700D01*
X154418183Y-97190700D01*
X154581819Y-97190700D01*
X154689785Y-97169223D01*
X154742306Y-97158776D01*
X154893484Y-97096156D01*
X155029540Y-97005247D01*
X155145247Y-96889540D01*
X155236156Y-96753484D01*
X155298776Y-96602306D01*
X155330700Y-96441817D01*
X155330700Y-96278183D01*
X155330700Y-96278180D01*
X155298950Y-96118567D01*
X155305177Y-96048975D01*
X155348040Y-95993798D01*
X155396375Y-95972758D01*
X155492306Y-95953676D01*
X155643484Y-95891056D01*
X155779540Y-95800147D01*
X155895247Y-95684440D01*
X155986156Y-95548384D01*
X156048776Y-95397206D01*
X156068355Y-95298777D01*
X156080700Y-95236719D01*
X156080700Y-95073080D01*
X156048777Y-94912599D01*
X156048776Y-94912598D01*
X156048776Y-94912594D01*
X155986156Y-94761416D01*
X155895247Y-94625360D01*
X155895245Y-94625357D01*
X155779542Y-94509654D01*
X155644316Y-94419300D01*
X155643484Y-94418744D01*
X155642122Y-94418180D01*
X155492306Y-94356124D01*
X155492300Y-94356122D01*
X155331819Y-94324200D01*
X155331817Y-94324200D01*
X155168183Y-94324200D01*
X155168181Y-94324200D01*
X155007699Y-94356122D01*
X155007693Y-94356124D01*
X154856517Y-94418743D01*
X154720457Y-94509654D01*
X154604754Y-94625357D01*
X154513843Y-94761417D01*
X154451224Y-94912593D01*
X154451222Y-94912599D01*
X154419300Y-95073080D01*
X154419300Y-95236721D01*
X154451049Y-95396333D01*
X154444822Y-95465924D01*
X154401959Y-95521102D01*
X154353624Y-95542141D01*
X154257699Y-95561222D01*
X154257693Y-95561224D01*
X154106517Y-95623843D01*
X153970457Y-95714754D01*
X153854754Y-95830457D01*
X153763843Y-95966517D01*
X153701224Y-96117693D01*
X153701222Y-96117699D01*
X153669300Y-96278180D01*
X153669300Y-96278183D01*
X153669300Y-96441817D01*
X153669300Y-96441819D01*
X153669299Y-96441819D01*
X116521490Y-96441819D01*
X116486156Y-96356516D01*
X116395247Y-96220460D01*
X116395245Y-96220457D01*
X116279542Y-96104754D01*
X116166975Y-96029540D01*
X116143484Y-96013844D01*
X116076639Y-95986156D01*
X115992306Y-95951224D01*
X115992300Y-95951222D01*
X115831819Y-95919300D01*
X115831817Y-95919300D01*
X115668183Y-95919300D01*
X115668181Y-95919300D01*
X115507699Y-95951222D01*
X115507693Y-95951224D01*
X115356517Y-96013843D01*
X115220457Y-96104754D01*
X115104754Y-96220457D01*
X115013843Y-96356517D01*
X114951224Y-96507693D01*
X114951222Y-96507699D01*
X114919300Y-96668180D01*
X114919300Y-96668183D01*
X114919300Y-96831817D01*
X114919300Y-96831819D01*
X114919299Y-96831819D01*
X109750500Y-96831819D01*
X109750500Y-95581819D01*
X138169299Y-95581819D01*
X138201222Y-95742300D01*
X138201224Y-95742306D01*
X138263843Y-95893482D01*
X138354754Y-96029542D01*
X138470457Y-96145245D01*
X138470460Y-96145247D01*
X138606516Y-96236156D01*
X138757694Y-96298776D01*
X138757698Y-96298776D01*
X138757699Y-96298777D01*
X138918180Y-96330700D01*
X138918183Y-96330700D01*
X139081819Y-96330700D01*
X139189785Y-96309223D01*
X139242306Y-96298776D01*
X139393484Y-96236156D01*
X139529540Y-96145247D01*
X139645247Y-96029540D01*
X139646895Y-96027072D01*
X139648094Y-96026070D01*
X139649111Y-96024832D01*
X139649345Y-96025024D01*
X139700506Y-95982266D01*
X139769831Y-95973556D01*
X139832859Y-96003708D01*
X139853105Y-96027073D01*
X139854755Y-96029543D01*
X139970457Y-96145245D01*
X139970460Y-96145247D01*
X140106516Y-96236156D01*
X140257694Y-96298776D01*
X140257698Y-96298776D01*
X140257699Y-96298777D01*
X140418180Y-96330700D01*
X140418183Y-96330700D01*
X140581819Y-96330700D01*
X140689785Y-96309223D01*
X140742306Y-96298776D01*
X140893484Y-96236156D01*
X141029540Y-96145247D01*
X141037317Y-96137469D01*
X141098637Y-96103984D01*
X141168329Y-96108965D01*
X141212682Y-96137469D01*
X141220460Y-96145247D01*
X141356516Y-96236156D01*
X141507694Y-96298776D01*
X141507698Y-96298776D01*
X141507699Y-96298777D01*
X141668180Y-96330700D01*
X141668183Y-96330700D01*
X141831819Y-96330700D01*
X141939785Y-96309223D01*
X141992306Y-96298776D01*
X142143484Y-96236156D01*
X142279540Y-96145247D01*
X142287317Y-96137469D01*
X142348637Y-96103984D01*
X142418329Y-96108965D01*
X142462682Y-96137469D01*
X142470460Y-96145247D01*
X142606516Y-96236156D01*
X142757694Y-96298776D01*
X142757698Y-96298776D01*
X142757699Y-96298777D01*
X142918180Y-96330700D01*
X142918183Y-96330700D01*
X143081819Y-96330700D01*
X143189785Y-96309223D01*
X143242306Y-96298776D01*
X143393484Y-96236156D01*
X143431109Y-96211016D01*
X143497786Y-96190138D01*
X143565166Y-96208622D01*
X143568891Y-96211016D01*
X143606516Y-96236156D01*
X143757694Y-96298776D01*
X143757698Y-96298776D01*
X143757699Y-96298777D01*
X143918180Y-96330700D01*
X143918183Y-96330700D01*
X144081819Y-96330700D01*
X144189785Y-96309223D01*
X144242306Y-96298776D01*
X144393484Y-96236156D01*
X144529540Y-96145247D01*
X144645247Y-96029540D01*
X144736156Y-95893484D01*
X144798776Y-95742306D01*
X144810287Y-95684440D01*
X144830700Y-95581819D01*
X144830700Y-95418180D01*
X144813521Y-95331819D01*
X151169299Y-95331819D01*
X151201222Y-95492300D01*
X151201224Y-95492306D01*
X151263843Y-95643482D01*
X151354754Y-95779542D01*
X151470457Y-95895245D01*
X151470460Y-95895247D01*
X151606516Y-95986156D01*
X151757694Y-96048776D01*
X151757698Y-96048776D01*
X151757699Y-96048777D01*
X151918180Y-96080700D01*
X151918183Y-96080700D01*
X152081819Y-96080700D01*
X152237223Y-96049787D01*
X152242306Y-96048776D01*
X152393484Y-95986156D01*
X152529540Y-95895247D01*
X152645247Y-95779540D01*
X152736156Y-95643484D01*
X152798776Y-95492306D01*
X152830700Y-95331817D01*
X152830700Y-95168183D01*
X152830700Y-95168180D01*
X152798777Y-95007699D01*
X152798776Y-95007698D01*
X152798776Y-95007694D01*
X152736156Y-94856516D01*
X152645247Y-94720460D01*
X152645245Y-94720457D01*
X152529542Y-94604754D01*
X152461512Y-94559298D01*
X152393484Y-94513844D01*
X152383368Y-94509654D01*
X152242306Y-94451224D01*
X152242300Y-94451222D01*
X152081819Y-94419300D01*
X152081817Y-94419300D01*
X151918183Y-94419300D01*
X151918181Y-94419300D01*
X151757699Y-94451222D01*
X151757693Y-94451224D01*
X151606517Y-94513843D01*
X151470457Y-94604754D01*
X151354754Y-94720457D01*
X151263843Y-94856517D01*
X151201224Y-95007693D01*
X151201222Y-95007699D01*
X151169300Y-95168180D01*
X151169300Y-95168183D01*
X151169300Y-95331817D01*
X151169300Y-95331819D01*
X151169299Y-95331819D01*
X144813521Y-95331819D01*
X144798777Y-95257699D01*
X144798776Y-95257698D01*
X144798776Y-95257694D01*
X144736156Y-95106516D01*
X144645247Y-94970460D01*
X144645246Y-94970459D01*
X144645245Y-94970457D01*
X144529542Y-94854754D01*
X144431110Y-94788985D01*
X144393484Y-94763844D01*
X144393479Y-94763842D01*
X144242306Y-94701224D01*
X144242300Y-94701222D01*
X144081819Y-94669300D01*
X144081817Y-94669300D01*
X143918183Y-94669300D01*
X143918181Y-94669300D01*
X143757699Y-94701222D01*
X143757693Y-94701224D01*
X143606518Y-94763842D01*
X143568889Y-94788985D01*
X143502211Y-94809861D01*
X143434831Y-94791375D01*
X143431111Y-94788985D01*
X143393481Y-94763842D01*
X143242306Y-94701224D01*
X143242300Y-94701222D01*
X143081819Y-94669300D01*
X143081817Y-94669300D01*
X142918183Y-94669300D01*
X142918181Y-94669300D01*
X142757699Y-94701222D01*
X142757693Y-94701224D01*
X142606517Y-94763843D01*
X142470457Y-94854754D01*
X142470456Y-94854755D01*
X142462681Y-94862531D01*
X142401358Y-94896016D01*
X142331666Y-94891032D01*
X142287319Y-94862531D01*
X142279542Y-94854754D01*
X142181110Y-94788985D01*
X142143484Y-94763844D01*
X142143479Y-94763842D01*
X141992306Y-94701224D01*
X141992300Y-94701222D01*
X141831819Y-94669300D01*
X141831817Y-94669300D01*
X141668183Y-94669300D01*
X141668181Y-94669300D01*
X141507699Y-94701222D01*
X141507693Y-94701224D01*
X141356517Y-94763843D01*
X141220457Y-94854754D01*
X141220456Y-94854755D01*
X141212681Y-94862531D01*
X141151358Y-94896016D01*
X141081666Y-94891032D01*
X141037319Y-94862531D01*
X141029542Y-94854754D01*
X140931110Y-94788985D01*
X140893484Y-94763844D01*
X140893479Y-94763842D01*
X140742306Y-94701224D01*
X140742300Y-94701222D01*
X140581819Y-94669300D01*
X140581817Y-94669300D01*
X140418183Y-94669300D01*
X140418181Y-94669300D01*
X140257699Y-94701222D01*
X140257693Y-94701224D01*
X140106517Y-94763843D01*
X139970457Y-94854754D01*
X139854755Y-94970456D01*
X139854753Y-94970459D01*
X139853101Y-94972932D01*
X139851901Y-94973934D01*
X139850889Y-94975168D01*
X139850655Y-94974976D01*
X139799487Y-95017736D01*
X139730162Y-95026442D01*
X139667135Y-94996286D01*
X139646899Y-94972932D01*
X139645246Y-94970459D01*
X139645244Y-94970456D01*
X139529542Y-94854754D01*
X139431110Y-94788985D01*
X139393484Y-94763844D01*
X139393479Y-94763842D01*
X139242306Y-94701224D01*
X139242300Y-94701222D01*
X139081819Y-94669300D01*
X139081817Y-94669300D01*
X138918183Y-94669300D01*
X138918181Y-94669300D01*
X138757699Y-94701222D01*
X138757693Y-94701224D01*
X138606517Y-94763843D01*
X138470457Y-94854754D01*
X138354754Y-94970457D01*
X138263843Y-95106517D01*
X138201224Y-95257693D01*
X138201222Y-95257699D01*
X138169300Y-95418180D01*
X138169300Y-95418183D01*
X138169300Y-95581817D01*
X138169300Y-95581819D01*
X138169299Y-95581819D01*
X109750500Y-95581819D01*
X109750500Y-93331819D01*
X114919299Y-93331819D01*
X114951222Y-93492300D01*
X114951224Y-93492306D01*
X115013843Y-93643482D01*
X115104754Y-93779542D01*
X115220457Y-93895245D01*
X115220460Y-93895247D01*
X115356516Y-93986156D01*
X115507694Y-94048776D01*
X115507698Y-94048776D01*
X115507699Y-94048777D01*
X115668180Y-94080700D01*
X115668183Y-94080700D01*
X115831819Y-94080700D01*
X115939785Y-94059223D01*
X115992306Y-94048776D01*
X116143484Y-93986156D01*
X116279540Y-93895247D01*
X116395247Y-93779540D01*
X116486156Y-93643484D01*
X116548776Y-93492306D01*
X116580700Y-93331817D01*
X116580700Y-93168183D01*
X116580700Y-93168180D01*
X116548777Y-93007699D01*
X116548776Y-93007698D01*
X116548776Y-93007694D01*
X116486156Y-92856516D01*
X116395247Y-92720460D01*
X116395245Y-92720457D01*
X116282015Y-92607227D01*
X116248530Y-92545904D01*
X116253514Y-92476212D01*
X116282015Y-92431865D01*
X116329113Y-92384767D01*
X116390515Y-92323365D01*
X116466281Y-92192135D01*
X116495840Y-92081819D01*
X125419299Y-92081819D01*
X125451222Y-92242300D01*
X125451224Y-92242306D01*
X125513843Y-92393482D01*
X125604754Y-92529542D01*
X125720454Y-92645242D01*
X125720457Y-92645244D01*
X125720460Y-92645247D01*
X125744944Y-92661606D01*
X125789748Y-92715217D01*
X125798456Y-92784542D01*
X125779158Y-92833595D01*
X125763847Y-92856510D01*
X125763842Y-92856519D01*
X125701224Y-93007693D01*
X125701222Y-93007699D01*
X125669300Y-93168180D01*
X125669300Y-93168183D01*
X125669300Y-93331817D01*
X125669300Y-93331819D01*
X125669299Y-93331819D01*
X125701222Y-93492300D01*
X125701224Y-93492306D01*
X125763843Y-93643482D01*
X125854754Y-93779542D01*
X125970457Y-93895245D01*
X125970460Y-93895247D01*
X126106516Y-93986156D01*
X126257694Y-94048776D01*
X126257698Y-94048776D01*
X126257699Y-94048777D01*
X126418180Y-94080700D01*
X126418183Y-94080700D01*
X126581819Y-94080700D01*
X126689785Y-94059223D01*
X126742306Y-94048776D01*
X126893484Y-93986156D01*
X127029540Y-93895247D01*
X127145247Y-93779540D01*
X127236156Y-93643484D01*
X127298776Y-93492306D01*
X127330700Y-93331817D01*
X127330700Y-93168183D01*
X127330700Y-93168180D01*
X127298777Y-93007699D01*
X127298776Y-93007698D01*
X127298776Y-93007694D01*
X127236156Y-92856516D01*
X127145247Y-92720460D01*
X127145245Y-92720457D01*
X127029542Y-92604754D01*
X127005055Y-92588393D01*
X126960250Y-92534781D01*
X126951543Y-92465456D01*
X126970845Y-92416399D01*
X126986151Y-92393491D01*
X126986156Y-92393484D01*
X127048776Y-92242306D01*
X127080700Y-92081817D01*
X127080700Y-91918183D01*
X127080700Y-91918180D01*
X127048777Y-91757699D01*
X127048776Y-91757698D01*
X127048776Y-91757694D01*
X126986156Y-91606516D01*
X126895247Y-91470460D01*
X126895245Y-91470457D01*
X126779542Y-91354754D01*
X126666975Y-91279540D01*
X126643484Y-91263844D01*
X126492306Y-91201224D01*
X126492300Y-91201222D01*
X126331819Y-91169300D01*
X126331817Y-91169300D01*
X126168183Y-91169300D01*
X126168181Y-91169300D01*
X126007699Y-91201222D01*
X126007693Y-91201224D01*
X125856517Y-91263843D01*
X125720457Y-91354754D01*
X125604754Y-91470457D01*
X125513843Y-91606517D01*
X125451224Y-91757693D01*
X125451222Y-91757699D01*
X125419300Y-91918180D01*
X125419300Y-91918183D01*
X125419300Y-92081817D01*
X125419300Y-92081819D01*
X125419299Y-92081819D01*
X116495840Y-92081819D01*
X116505500Y-92045766D01*
X116505500Y-91894234D01*
X116466281Y-91747865D01*
X116390515Y-91616635D01*
X116283365Y-91509485D01*
X116181223Y-91450513D01*
X116152136Y-91433719D01*
X116023844Y-91399344D01*
X116005766Y-91394500D01*
X115854234Y-91394500D01*
X115707863Y-91433719D01*
X115576635Y-91509485D01*
X115576632Y-91509487D01*
X115469487Y-91616632D01*
X115469485Y-91616635D01*
X115393719Y-91747863D01*
X115354500Y-91894234D01*
X115354500Y-92045765D01*
X115393719Y-92192136D01*
X115422682Y-92242300D01*
X115465734Y-92316868D01*
X115482207Y-92384767D01*
X115459355Y-92450794D01*
X115405801Y-92493429D01*
X115356516Y-92513843D01*
X115220457Y-92604754D01*
X115104754Y-92720457D01*
X115013843Y-92856517D01*
X114951224Y-93007693D01*
X114951222Y-93007699D01*
X114919300Y-93168180D01*
X114919300Y-93168183D01*
X114919300Y-93331817D01*
X114919300Y-93331819D01*
X114919299Y-93331819D01*
X109750500Y-93331819D01*
X109750500Y-84081819D01*
X117419299Y-84081819D01*
X117451222Y-84242300D01*
X117451224Y-84242306D01*
X117513843Y-84393482D01*
X117604754Y-84529542D01*
X117720457Y-84645245D01*
X117720460Y-84645247D01*
X117856516Y-84736156D01*
X118007694Y-84798776D01*
X118007698Y-84798776D01*
X118007699Y-84798777D01*
X118168180Y-84830700D01*
X118168183Y-84830700D01*
X118331819Y-84830700D01*
X118439785Y-84809223D01*
X118492306Y-84798776D01*
X118643484Y-84736156D01*
X118779540Y-84645247D01*
X118842968Y-84581819D01*
X129169299Y-84581819D01*
X129201222Y-84742300D01*
X129201224Y-84742306D01*
X129263843Y-84893482D01*
X129354754Y-85029542D01*
X129470454Y-85145242D01*
X129470457Y-85145244D01*
X129470460Y-85145247D01*
X129494944Y-85161606D01*
X129539748Y-85215217D01*
X129548456Y-85284542D01*
X129529158Y-85333595D01*
X129513847Y-85356510D01*
X129513842Y-85356519D01*
X129451224Y-85507693D01*
X129451222Y-85507699D01*
X129419300Y-85668180D01*
X129419300Y-85668183D01*
X129419300Y-85831817D01*
X129419300Y-85831819D01*
X129419299Y-85831819D01*
X129451222Y-85992300D01*
X129451224Y-85992306D01*
X129513843Y-86143482D01*
X129604754Y-86279542D01*
X129612531Y-86287319D01*
X129646016Y-86348642D01*
X129641032Y-86418334D01*
X129612531Y-86462681D01*
X129604755Y-86470456D01*
X129604754Y-86470457D01*
X129513843Y-86606517D01*
X129451224Y-86757693D01*
X129451222Y-86757699D01*
X129419300Y-86918180D01*
X129419300Y-86918183D01*
X129419300Y-87081817D01*
X129419300Y-87081819D01*
X129419299Y-87081819D01*
X129451222Y-87242300D01*
X129451224Y-87242306D01*
X129513844Y-87393484D01*
X129528490Y-87415403D01*
X129604754Y-87529542D01*
X129612531Y-87537319D01*
X129646016Y-87598642D01*
X129641032Y-87668334D01*
X129612531Y-87712681D01*
X129604755Y-87720456D01*
X129604754Y-87720457D01*
X129513843Y-87856517D01*
X129451224Y-88007693D01*
X129451222Y-88007699D01*
X129419300Y-88168180D01*
X129419300Y-88168183D01*
X129419300Y-88331817D01*
X129419300Y-88331819D01*
X129419299Y-88331819D01*
X129451222Y-88492300D01*
X129451224Y-88492306D01*
X129513843Y-88643482D01*
X129604754Y-88779542D01*
X129612531Y-88787319D01*
X129646016Y-88848642D01*
X129641032Y-88918334D01*
X129612531Y-88962681D01*
X129604755Y-88970456D01*
X129604754Y-88970457D01*
X129513843Y-89106517D01*
X129451224Y-89257693D01*
X129451222Y-89257699D01*
X129419300Y-89418180D01*
X129419300Y-89418183D01*
X129419300Y-89581817D01*
X129419300Y-89581819D01*
X129419299Y-89581819D01*
X129451222Y-89742300D01*
X129451224Y-89742306D01*
X129513843Y-89893482D01*
X129604754Y-90029542D01*
X129612531Y-90037319D01*
X129646016Y-90098642D01*
X129641032Y-90168334D01*
X129612531Y-90212681D01*
X129604755Y-90220456D01*
X129604754Y-90220457D01*
X129513843Y-90356517D01*
X129451224Y-90507693D01*
X129451222Y-90507699D01*
X129419300Y-90668180D01*
X129419300Y-90668183D01*
X129419300Y-90831817D01*
X129419300Y-90831819D01*
X129419299Y-90831819D01*
X129451222Y-90992300D01*
X129451224Y-90992306D01*
X129513843Y-91143482D01*
X129604754Y-91279542D01*
X129720457Y-91395245D01*
X129720460Y-91395247D01*
X129856516Y-91486156D01*
X130007694Y-91548776D01*
X130007698Y-91548776D01*
X130007699Y-91548777D01*
X130168180Y-91580700D01*
X130168183Y-91580700D01*
X130331819Y-91580700D01*
X130488696Y-91549494D01*
X130492306Y-91548776D01*
X130643484Y-91486156D01*
X130779540Y-91395247D01*
X130895247Y-91279540D01*
X130986156Y-91143484D01*
X131048776Y-90992306D01*
X131080700Y-90831817D01*
X131080700Y-90668183D01*
X131080700Y-90668180D01*
X131048777Y-90507699D01*
X131048776Y-90507698D01*
X131048776Y-90507694D01*
X130986156Y-90356516D01*
X130895247Y-90220460D01*
X130887469Y-90212682D01*
X130853984Y-90151363D01*
X130858965Y-90081671D01*
X130887469Y-90037317D01*
X130895247Y-90029540D01*
X130986156Y-89893484D01*
X131048776Y-89742306D01*
X131080700Y-89581817D01*
X131080700Y-89418183D01*
X131080700Y-89418180D01*
X131048777Y-89257699D01*
X131048776Y-89257698D01*
X131048776Y-89257694D01*
X130986156Y-89106516D01*
X130895247Y-88970460D01*
X130887469Y-88962682D01*
X130853984Y-88901363D01*
X130858965Y-88831671D01*
X130887469Y-88787317D01*
X130895247Y-88779540D01*
X130986156Y-88643484D01*
X131048776Y-88492306D01*
X131080700Y-88331817D01*
X131080700Y-88168183D01*
X131080700Y-88168180D01*
X131048777Y-88007699D01*
X131048776Y-88007698D01*
X131048776Y-88007694D01*
X130986156Y-87856516D01*
X130895247Y-87720460D01*
X130887469Y-87712682D01*
X130853984Y-87651363D01*
X130858965Y-87581671D01*
X130887469Y-87537317D01*
X130895247Y-87529540D01*
X130986156Y-87393484D01*
X131048776Y-87242306D01*
X131059223Y-87189785D01*
X131080700Y-87081819D01*
X131080700Y-86918180D01*
X131048777Y-86757699D01*
X131048776Y-86757698D01*
X131048776Y-86757694D01*
X130986156Y-86606516D01*
X130895247Y-86470460D01*
X130887469Y-86462682D01*
X130853984Y-86401363D01*
X130858965Y-86331671D01*
X130887469Y-86287317D01*
X130895247Y-86279540D01*
X130986156Y-86143484D01*
X131048776Y-85992306D01*
X131080700Y-85831819D01*
X146669299Y-85831819D01*
X146701222Y-85992300D01*
X146701224Y-85992306D01*
X146763843Y-86143482D01*
X146854754Y-86279542D01*
X146970457Y-86395245D01*
X146970460Y-86395247D01*
X147005012Y-86418334D01*
X147077268Y-86466613D01*
X147122074Y-86520225D01*
X147130781Y-86589550D01*
X147100627Y-86652578D01*
X147077269Y-86672818D01*
X147054044Y-86688336D01*
X147054040Y-86688339D01*
X146938338Y-86804041D01*
X146847427Y-86940101D01*
X146784808Y-87091277D01*
X146784806Y-87091283D01*
X146752884Y-87251764D01*
X146752884Y-87251767D01*
X146752884Y-87415401D01*
X146752884Y-87415403D01*
X146752883Y-87415403D01*
X146784806Y-87575884D01*
X146784808Y-87575890D01*
X146823177Y-87668521D01*
X146830646Y-87737991D01*
X146811719Y-87784863D01*
X146763844Y-87856514D01*
X146701224Y-88007693D01*
X146701222Y-88007699D01*
X146669300Y-88168180D01*
X146669300Y-88168183D01*
X146669300Y-88331817D01*
X146669300Y-88331819D01*
X146669299Y-88331819D01*
X146701222Y-88492300D01*
X146701224Y-88492306D01*
X146763843Y-88643482D01*
X146854754Y-88779542D01*
X146970454Y-88895242D01*
X146970457Y-88895244D01*
X146970460Y-88895247D01*
X146994944Y-88911606D01*
X147039748Y-88965217D01*
X147048456Y-89034542D01*
X147029158Y-89083595D01*
X147013847Y-89106510D01*
X147013842Y-89106519D01*
X146951224Y-89257693D01*
X146951222Y-89257699D01*
X146919300Y-89418180D01*
X146919300Y-89418183D01*
X146919300Y-89581817D01*
X146919300Y-89581819D01*
X146919299Y-89581819D01*
X146951222Y-89742300D01*
X146951224Y-89742306D01*
X147013843Y-89893482D01*
X147104754Y-90029542D01*
X147112531Y-90037319D01*
X147146016Y-90098642D01*
X147141032Y-90168334D01*
X147112531Y-90212681D01*
X147104755Y-90220456D01*
X147104754Y-90220457D01*
X147013843Y-90356517D01*
X146951224Y-90507693D01*
X146951222Y-90507699D01*
X146919300Y-90668180D01*
X146919300Y-90668183D01*
X146919300Y-90831817D01*
X146919300Y-90831819D01*
X146919299Y-90831819D01*
X146951222Y-90992300D01*
X146951224Y-90992306D01*
X147013843Y-91143482D01*
X147104754Y-91279542D01*
X147220456Y-91395244D01*
X147220459Y-91395246D01*
X147222932Y-91396899D01*
X147223934Y-91398098D01*
X147225168Y-91399111D01*
X147224976Y-91399344D01*
X147267736Y-91450513D01*
X147276442Y-91519838D01*
X147246286Y-91582865D01*
X147222932Y-91603101D01*
X147220459Y-91604753D01*
X147220456Y-91604755D01*
X147104754Y-91720457D01*
X147013843Y-91856517D01*
X146951224Y-92007693D01*
X146951222Y-92007699D01*
X146919300Y-92168180D01*
X146919300Y-92168183D01*
X146919300Y-92331817D01*
X146919300Y-92331819D01*
X146919299Y-92331819D01*
X146951222Y-92492300D01*
X146951224Y-92492306D01*
X147013842Y-92643481D01*
X147038985Y-92681111D01*
X147059861Y-92747789D01*
X147041375Y-92815169D01*
X147038985Y-92818889D01*
X147013842Y-92856518D01*
X146951224Y-93007693D01*
X146951222Y-93007699D01*
X146919300Y-93168180D01*
X146919300Y-93168183D01*
X146919300Y-93331817D01*
X146919300Y-93331819D01*
X146919299Y-93331819D01*
X146951222Y-93492300D01*
X146951224Y-93492306D01*
X147013843Y-93643482D01*
X147104754Y-93779542D01*
X147112531Y-93787319D01*
X147146016Y-93848642D01*
X147141032Y-93918334D01*
X147112531Y-93962681D01*
X147104755Y-93970456D01*
X147104754Y-93970457D01*
X147013843Y-94106517D01*
X146951224Y-94257693D01*
X146951222Y-94257699D01*
X146919300Y-94418180D01*
X146919300Y-94418183D01*
X146919300Y-94581817D01*
X146919300Y-94581819D01*
X146919299Y-94581819D01*
X146951222Y-94742300D01*
X146951224Y-94742306D01*
X147013843Y-94893482D01*
X147104754Y-95029542D01*
X147220457Y-95145245D01*
X147220460Y-95145247D01*
X147356516Y-95236156D01*
X147507694Y-95298776D01*
X147507698Y-95298776D01*
X147507699Y-95298777D01*
X147668180Y-95330700D01*
X147668183Y-95330700D01*
X147831819Y-95330700D01*
X147939785Y-95309223D01*
X147992306Y-95298776D01*
X148143484Y-95236156D01*
X148279540Y-95145247D01*
X148284849Y-95139938D01*
X148350378Y-95074410D01*
X148395244Y-95029543D01*
X148395245Y-95029542D01*
X148395247Y-95029540D01*
X148486156Y-94893484D01*
X148548776Y-94742306D01*
X148572039Y-94625357D01*
X148580700Y-94581819D01*
X148580700Y-94418180D01*
X148548777Y-94257699D01*
X148548776Y-94257698D01*
X148548776Y-94257694D01*
X148486156Y-94106516D01*
X148395247Y-93970460D01*
X148387469Y-93962682D01*
X148353984Y-93901363D01*
X148358965Y-93831671D01*
X148387469Y-93787317D01*
X148395247Y-93779540D01*
X148486156Y-93643484D01*
X148548776Y-93492306D01*
X148580700Y-93331817D01*
X148580700Y-93168183D01*
X148580700Y-93168180D01*
X148548777Y-93007699D01*
X148548776Y-93007698D01*
X148548776Y-93007694D01*
X148486156Y-92856516D01*
X148461016Y-92818891D01*
X148457024Y-92806144D01*
X148448812Y-92795612D01*
X148446787Y-92773450D01*
X148440138Y-92752214D01*
X148443530Y-92737797D01*
X148442456Y-92726032D01*
X148451385Y-92704418D01*
X148454137Y-92692727D01*
X148457260Y-92686729D01*
X148485655Y-92644234D01*
X158209500Y-92644234D01*
X158209500Y-92795765D01*
X158248719Y-92942136D01*
X158286569Y-93007693D01*
X158324485Y-93073365D01*
X158431635Y-93180515D01*
X158562865Y-93256281D01*
X158709234Y-93295500D01*
X158709236Y-93295500D01*
X158860764Y-93295500D01*
X158860766Y-93295500D01*
X159007135Y-93256281D01*
X159138365Y-93180515D01*
X159245515Y-93073365D01*
X159321281Y-92942135D01*
X159360500Y-92795766D01*
X159360500Y-92644234D01*
X159321281Y-92497865D01*
X159318071Y-92492306D01*
X159308780Y-92476212D01*
X159245515Y-92366635D01*
X159138365Y-92259485D01*
X159021714Y-92192136D01*
X159007136Y-92183719D01*
X158933950Y-92164109D01*
X158860766Y-92144500D01*
X158709234Y-92144500D01*
X158562863Y-92183719D01*
X158431635Y-92259485D01*
X158431632Y-92259487D01*
X158324487Y-92366632D01*
X158324485Y-92366635D01*
X158248719Y-92497863D01*
X158209500Y-92644234D01*
X148485655Y-92644234D01*
X148486156Y-92643484D01*
X148548776Y-92492306D01*
X148568432Y-92393491D01*
X148580700Y-92331819D01*
X148580700Y-92168180D01*
X148548777Y-92007699D01*
X148548776Y-92007698D01*
X148548776Y-92007694D01*
X148486156Y-91856516D01*
X148395247Y-91720460D01*
X148395245Y-91720457D01*
X148279543Y-91604755D01*
X148279514Y-91604735D01*
X148277072Y-91603104D01*
X148276070Y-91601905D01*
X148274832Y-91600889D01*
X148275024Y-91600654D01*
X148232266Y-91549494D01*
X148223556Y-91480169D01*
X148253708Y-91417141D01*
X148277071Y-91396896D01*
X148279540Y-91395247D01*
X148395247Y-91279540D01*
X148486156Y-91143484D01*
X148548776Y-90992306D01*
X148580700Y-90831817D01*
X148580700Y-90668183D01*
X148580700Y-90668180D01*
X148548777Y-90507699D01*
X148548776Y-90507698D01*
X148548776Y-90507694D01*
X148486156Y-90356516D01*
X148395247Y-90220460D01*
X148387469Y-90212682D01*
X148353984Y-90151363D01*
X148358965Y-90081671D01*
X148387469Y-90037317D01*
X148395247Y-90029540D01*
X148486156Y-89893484D01*
X148548776Y-89742306D01*
X148580700Y-89581817D01*
X148580700Y-89418183D01*
X148580700Y-89418180D01*
X148548777Y-89257699D01*
X148548776Y-89257698D01*
X148548776Y-89257694D01*
X148486156Y-89106516D01*
X148395247Y-88970460D01*
X148395245Y-88970457D01*
X148279542Y-88854754D01*
X148255055Y-88838393D01*
X148210250Y-88784781D01*
X148201543Y-88715456D01*
X148220845Y-88666399D01*
X148236151Y-88643491D01*
X148236156Y-88643484D01*
X148298776Y-88492306D01*
X148330700Y-88331817D01*
X148330700Y-88168183D01*
X148330700Y-88168180D01*
X148298777Y-88007699D01*
X148298776Y-88007698D01*
X148298776Y-88007694D01*
X148260405Y-87915060D01*
X148260325Y-87914308D01*
X148259858Y-87913715D01*
X148256600Y-87879666D01*
X148252937Y-87845591D01*
X148253251Y-87844663D01*
X148253204Y-87844163D01*
X148254457Y-87841109D01*
X148257610Y-87831819D01*
X148919299Y-87831819D01*
X148951222Y-87992300D01*
X148951224Y-87992306D01*
X149013843Y-88143482D01*
X149104754Y-88279542D01*
X149220457Y-88395245D01*
X149220460Y-88395247D01*
X149356516Y-88486156D01*
X149507694Y-88548776D01*
X149507698Y-88548776D01*
X149507699Y-88548777D01*
X149668180Y-88580700D01*
X149668183Y-88580700D01*
X149831819Y-88580700D01*
X149939785Y-88559223D01*
X149992306Y-88548776D01*
X150143484Y-88486156D01*
X150279540Y-88395247D01*
X150395247Y-88279540D01*
X150486156Y-88143484D01*
X150548776Y-87992306D01*
X150575787Y-87856516D01*
X150580700Y-87831819D01*
X150580700Y-87668180D01*
X150548777Y-87507699D01*
X150548776Y-87507698D01*
X150548776Y-87507694D01*
X150486156Y-87356516D01*
X150395247Y-87220460D01*
X150395245Y-87220457D01*
X150279542Y-87104754D01*
X150211512Y-87059298D01*
X150143484Y-87013844D01*
X149992306Y-86951224D01*
X149992300Y-86951222D01*
X149831819Y-86919300D01*
X149831817Y-86919300D01*
X149668183Y-86919300D01*
X149668181Y-86919300D01*
X149507699Y-86951222D01*
X149507693Y-86951224D01*
X149356517Y-87013843D01*
X149220457Y-87104754D01*
X149104754Y-87220457D01*
X149013843Y-87356517D01*
X148951224Y-87507693D01*
X148951222Y-87507699D01*
X148919300Y-87668180D01*
X148919300Y-87668183D01*
X148919300Y-87831817D01*
X148919300Y-87831819D01*
X148919299Y-87831819D01*
X148257610Y-87831819D01*
X148264741Y-87810808D01*
X148267957Y-87804566D01*
X148319740Y-87727068D01*
X148382360Y-87575890D01*
X148414284Y-87415401D01*
X148414284Y-87251767D01*
X148414284Y-87251764D01*
X148382361Y-87091283D01*
X148382360Y-87091282D01*
X148382360Y-87091278D01*
X148319740Y-86940100D01*
X148228831Y-86804044D01*
X148228829Y-86804041D01*
X148113127Y-86688339D01*
X148113119Y-86688333D01*
X148006315Y-86616969D01*
X147961509Y-86563357D01*
X147952802Y-86494032D01*
X147982956Y-86431005D01*
X148006311Y-86410767D01*
X148029540Y-86395247D01*
X148145247Y-86279540D01*
X148236156Y-86143484D01*
X148298776Y-85992306D01*
X148330700Y-85831817D01*
X148330700Y-85668183D01*
X148330700Y-85668180D01*
X148298777Y-85507699D01*
X148298776Y-85507698D01*
X148298776Y-85507694D01*
X148236156Y-85356516D01*
X148145247Y-85220460D01*
X148145245Y-85220457D01*
X148029542Y-85104754D01*
X147961512Y-85059298D01*
X147893484Y-85013844D01*
X147742306Y-84951224D01*
X147742300Y-84951222D01*
X147581819Y-84919300D01*
X147581817Y-84919300D01*
X147418183Y-84919300D01*
X147418181Y-84919300D01*
X147257699Y-84951222D01*
X147257693Y-84951224D01*
X147106517Y-85013843D01*
X146970457Y-85104754D01*
X146854754Y-85220457D01*
X146763843Y-85356517D01*
X146701224Y-85507693D01*
X146701222Y-85507699D01*
X146669300Y-85668180D01*
X146669300Y-85668183D01*
X146669300Y-85831817D01*
X146669300Y-85831819D01*
X146669299Y-85831819D01*
X131080700Y-85831819D01*
X131080700Y-85831817D01*
X131080700Y-85668183D01*
X131080700Y-85668180D01*
X131048777Y-85507699D01*
X131048776Y-85507698D01*
X131048776Y-85507694D01*
X130986156Y-85356516D01*
X130895247Y-85220460D01*
X130895245Y-85220457D01*
X130779542Y-85104754D01*
X130755055Y-85088393D01*
X130710250Y-85034781D01*
X130701543Y-84965456D01*
X130720845Y-84916399D01*
X130736151Y-84893491D01*
X130736156Y-84893484D01*
X130761698Y-84831819D01*
X150169299Y-84831819D01*
X150201222Y-84992300D01*
X150201224Y-84992306D01*
X150263843Y-85143482D01*
X150354754Y-85279542D01*
X150470457Y-85395245D01*
X150470460Y-85395247D01*
X150606516Y-85486156D01*
X150757694Y-85548776D01*
X150757698Y-85548776D01*
X150757699Y-85548777D01*
X150918180Y-85580700D01*
X150918183Y-85580700D01*
X151081819Y-85580700D01*
X151189785Y-85559223D01*
X151242306Y-85548776D01*
X151393484Y-85486156D01*
X151529540Y-85395247D01*
X151645247Y-85279540D01*
X151736156Y-85143484D01*
X151798776Y-84992306D01*
X151818432Y-84893491D01*
X151830700Y-84831819D01*
X151830700Y-84668180D01*
X151798777Y-84507699D01*
X151798776Y-84507698D01*
X151798776Y-84507694D01*
X151736156Y-84356516D01*
X151645247Y-84220460D01*
X151645245Y-84220457D01*
X151529542Y-84104754D01*
X151461512Y-84059298D01*
X151393484Y-84013844D01*
X151242306Y-83951224D01*
X151242300Y-83951222D01*
X151081819Y-83919300D01*
X151081817Y-83919300D01*
X150918183Y-83919300D01*
X150918181Y-83919300D01*
X150757699Y-83951222D01*
X150757693Y-83951224D01*
X150606517Y-84013843D01*
X150470457Y-84104754D01*
X150354754Y-84220457D01*
X150263843Y-84356517D01*
X150201224Y-84507693D01*
X150201222Y-84507699D01*
X150169300Y-84668180D01*
X150169300Y-84668183D01*
X150169300Y-84831817D01*
X150169300Y-84831819D01*
X150169299Y-84831819D01*
X130761698Y-84831819D01*
X130798776Y-84742306D01*
X130803449Y-84718810D01*
X130819545Y-84637899D01*
X130819545Y-84637898D01*
X130830699Y-84581821D01*
X130830700Y-84581819D01*
X130830700Y-84418180D01*
X130798777Y-84257699D01*
X130798776Y-84257698D01*
X130798776Y-84257694D01*
X130736156Y-84106516D01*
X130645247Y-83970460D01*
X130645245Y-83970457D01*
X130529542Y-83854754D01*
X130461512Y-83809298D01*
X130393484Y-83763844D01*
X130378634Y-83757693D01*
X130242306Y-83701224D01*
X130242300Y-83701222D01*
X130081819Y-83669300D01*
X130081817Y-83669300D01*
X129918183Y-83669300D01*
X129918181Y-83669300D01*
X129757699Y-83701222D01*
X129757693Y-83701224D01*
X129606517Y-83763843D01*
X129470457Y-83854754D01*
X129354754Y-83970457D01*
X129263843Y-84106517D01*
X129201224Y-84257693D01*
X129201222Y-84257699D01*
X129169300Y-84418180D01*
X129169300Y-84418183D01*
X129169300Y-84581817D01*
X129169300Y-84581819D01*
X129169299Y-84581819D01*
X118842968Y-84581819D01*
X118895247Y-84529540D01*
X118986156Y-84393484D01*
X119048776Y-84242306D01*
X119075787Y-84106516D01*
X119080700Y-84081819D01*
X119080700Y-83918180D01*
X119048777Y-83757699D01*
X119048776Y-83757698D01*
X119048776Y-83757694D01*
X118986156Y-83606516D01*
X118895247Y-83470460D01*
X118895245Y-83470457D01*
X118779542Y-83354754D01*
X118711512Y-83309298D01*
X118643484Y-83263844D01*
X118492306Y-83201224D01*
X118492300Y-83201222D01*
X118331819Y-83169300D01*
X118331817Y-83169300D01*
X118168183Y-83169300D01*
X118168181Y-83169300D01*
X118007699Y-83201222D01*
X118007693Y-83201224D01*
X117856517Y-83263843D01*
X117720457Y-83354754D01*
X117604754Y-83470457D01*
X117513843Y-83606517D01*
X117451224Y-83757693D01*
X117451222Y-83757699D01*
X117419300Y-83918180D01*
X117419300Y-83918183D01*
X117419300Y-84081817D01*
X117419300Y-84081819D01*
X117419299Y-84081819D01*
X109750500Y-84081819D01*
X109750500Y-81581819D01*
X118919299Y-81581819D01*
X118951222Y-81742300D01*
X118951224Y-81742306D01*
X119013843Y-81893482D01*
X119104754Y-82029542D01*
X119220457Y-82145245D01*
X119220460Y-82145247D01*
X119356516Y-82236156D01*
X119507694Y-82298776D01*
X119507698Y-82298776D01*
X119507699Y-82298777D01*
X119668180Y-82330700D01*
X119668183Y-82330700D01*
X119831819Y-82330700D01*
X119939785Y-82309223D01*
X119992306Y-82298776D01*
X120143484Y-82236156D01*
X120279540Y-82145247D01*
X120342968Y-82081819D01*
X146919299Y-82081819D01*
X146951222Y-82242300D01*
X146951224Y-82242306D01*
X147013843Y-82393482D01*
X147104754Y-82529542D01*
X147220457Y-82645245D01*
X147220460Y-82645247D01*
X147356516Y-82736156D01*
X147507694Y-82798776D01*
X147507698Y-82798776D01*
X147507699Y-82798777D01*
X147668180Y-82830700D01*
X147668183Y-82830700D01*
X147831819Y-82830700D01*
X147939785Y-82809223D01*
X147992306Y-82798776D01*
X148143484Y-82736156D01*
X148279540Y-82645247D01*
X148395247Y-82529540D01*
X148486156Y-82393484D01*
X148548776Y-82242306D01*
X148568083Y-82145245D01*
X148580700Y-82081819D01*
X148580700Y-81918180D01*
X148563521Y-81831819D01*
X155669299Y-81831819D01*
X155701222Y-81992300D01*
X155701224Y-81992306D01*
X155763843Y-82143482D01*
X155854754Y-82279542D01*
X155970457Y-82395245D01*
X155970460Y-82395247D01*
X156106516Y-82486156D01*
X156257694Y-82548776D01*
X156257698Y-82548776D01*
X156257699Y-82548777D01*
X156418180Y-82580700D01*
X156418183Y-82580700D01*
X156581819Y-82580700D01*
X156689785Y-82559223D01*
X156742306Y-82548776D01*
X156893484Y-82486156D01*
X157029540Y-82395247D01*
X157145247Y-82279540D01*
X157236156Y-82143484D01*
X157298776Y-81992306D01*
X157313521Y-81918180D01*
X157330700Y-81831819D01*
X157330700Y-81668180D01*
X157298777Y-81507699D01*
X157298776Y-81507698D01*
X157298776Y-81507694D01*
X157236156Y-81356516D01*
X157145247Y-81220460D01*
X157145245Y-81220457D01*
X157029542Y-81104754D01*
X156961512Y-81059298D01*
X156893484Y-81013844D01*
X156742306Y-80951224D01*
X156742300Y-80951222D01*
X156581819Y-80919300D01*
X156581817Y-80919300D01*
X156418183Y-80919300D01*
X156418181Y-80919300D01*
X156257699Y-80951222D01*
X156257693Y-80951224D01*
X156106517Y-81013843D01*
X155970457Y-81104754D01*
X155854754Y-81220457D01*
X155763843Y-81356517D01*
X155701224Y-81507693D01*
X155701222Y-81507699D01*
X155669300Y-81668180D01*
X155669300Y-81668183D01*
X155669300Y-81831817D01*
X155669300Y-81831819D01*
X155669299Y-81831819D01*
X148563521Y-81831819D01*
X148548777Y-81757699D01*
X148548776Y-81757698D01*
X148548776Y-81757694D01*
X148542400Y-81742300D01*
X148528832Y-81709543D01*
X148486157Y-81606517D01*
X148395245Y-81470457D01*
X148279542Y-81354754D01*
X148211512Y-81309298D01*
X148143484Y-81263844D01*
X148128634Y-81257693D01*
X147992306Y-81201224D01*
X147992300Y-81201222D01*
X147831819Y-81169300D01*
X147831817Y-81169300D01*
X147668183Y-81169300D01*
X147668181Y-81169300D01*
X147507699Y-81201222D01*
X147507693Y-81201224D01*
X147356517Y-81263843D01*
X147220457Y-81354754D01*
X147104754Y-81470457D01*
X147013843Y-81606517D01*
X146951224Y-81757693D01*
X146951222Y-81757699D01*
X146919300Y-81918180D01*
X146919300Y-81918183D01*
X146919300Y-82081817D01*
X146919300Y-82081819D01*
X146919299Y-82081819D01*
X120342968Y-82081819D01*
X120395247Y-82029540D01*
X120486156Y-81893484D01*
X120548776Y-81742306D01*
X120580700Y-81581817D01*
X120580700Y-81418183D01*
X120580700Y-81418180D01*
X120548777Y-81257699D01*
X120548776Y-81257698D01*
X120548776Y-81257694D01*
X120486156Y-81106516D01*
X120395247Y-80970460D01*
X120395245Y-80970457D01*
X120279542Y-80854754D01*
X120211512Y-80809298D01*
X120143484Y-80763844D01*
X119992306Y-80701224D01*
X119992300Y-80701222D01*
X119831819Y-80669300D01*
X119831817Y-80669300D01*
X119668183Y-80669300D01*
X119668181Y-80669300D01*
X119507699Y-80701222D01*
X119507693Y-80701224D01*
X119356517Y-80763843D01*
X119220457Y-80854754D01*
X119104754Y-80970457D01*
X119013843Y-81106517D01*
X118951224Y-81257693D01*
X118951222Y-81257699D01*
X118919300Y-81418180D01*
X118919300Y-81418183D01*
X118919300Y-81581817D01*
X118919300Y-81581819D01*
X118919299Y-81581819D01*
X109750500Y-81581819D01*
X109750500Y-74081819D01*
X117669299Y-74081819D01*
X117701222Y-74242300D01*
X117701224Y-74242306D01*
X117763843Y-74393482D01*
X117854754Y-74529542D01*
X117970457Y-74645245D01*
X117970460Y-74645247D01*
X118106516Y-74736156D01*
X118257694Y-74798776D01*
X118257698Y-74798776D01*
X118257699Y-74798777D01*
X118418180Y-74830700D01*
X118418183Y-74830700D01*
X118581819Y-74830700D01*
X118689785Y-74809223D01*
X118742306Y-74798776D01*
X118893484Y-74736156D01*
X119029540Y-74645247D01*
X119092968Y-74581819D01*
X154919299Y-74581819D01*
X154951222Y-74742300D01*
X154951224Y-74742306D01*
X155013843Y-74893482D01*
X155104754Y-75029542D01*
X155220457Y-75145245D01*
X155220460Y-75145247D01*
X155356516Y-75236156D01*
X155507694Y-75298776D01*
X155507698Y-75298776D01*
X155507699Y-75298777D01*
X155668180Y-75330700D01*
X155668183Y-75330700D01*
X155831819Y-75330700D01*
X155939785Y-75309223D01*
X155992306Y-75298776D01*
X156143484Y-75236156D01*
X156279540Y-75145247D01*
X156395247Y-75029540D01*
X156486156Y-74893484D01*
X156548776Y-74742306D01*
X156580700Y-74581817D01*
X156580700Y-74418183D01*
X156580700Y-74418180D01*
X156548777Y-74257699D01*
X156548776Y-74257698D01*
X156548776Y-74257694D01*
X156486156Y-74106516D01*
X156395247Y-73970460D01*
X156395245Y-73970457D01*
X156279542Y-73854754D01*
X156211512Y-73809298D01*
X156143484Y-73763844D01*
X156128634Y-73757693D01*
X155992306Y-73701224D01*
X155992300Y-73701222D01*
X155831819Y-73669300D01*
X155831817Y-73669300D01*
X155668183Y-73669300D01*
X155668181Y-73669300D01*
X155507699Y-73701222D01*
X155507693Y-73701224D01*
X155356517Y-73763843D01*
X155220457Y-73854754D01*
X155104754Y-73970457D01*
X155013843Y-74106517D01*
X154951224Y-74257693D01*
X154951222Y-74257699D01*
X154919300Y-74418180D01*
X154919300Y-74418183D01*
X154919300Y-74581817D01*
X154919300Y-74581819D01*
X154919299Y-74581819D01*
X119092968Y-74581819D01*
X119145247Y-74529540D01*
X119236156Y-74393484D01*
X119298776Y-74242306D01*
X119309223Y-74189785D01*
X119330700Y-74081819D01*
X119330700Y-73918180D01*
X119313521Y-73831819D01*
X124169299Y-73831819D01*
X124201222Y-73992300D01*
X124201224Y-73992306D01*
X124263843Y-74143482D01*
X124354754Y-74279542D01*
X124470457Y-74395245D01*
X124470460Y-74395247D01*
X124606516Y-74486156D01*
X124757694Y-74548776D01*
X124757698Y-74548776D01*
X124757699Y-74548777D01*
X124918180Y-74580700D01*
X124918183Y-74580700D01*
X125081819Y-74580700D01*
X125189785Y-74559223D01*
X125242306Y-74548776D01*
X125393484Y-74486156D01*
X125529540Y-74395247D01*
X125531305Y-74393482D01*
X125600378Y-74324410D01*
X125645244Y-74279543D01*
X125645245Y-74279542D01*
X125645247Y-74279540D01*
X125736156Y-74143484D01*
X125798776Y-73992306D01*
X125813521Y-73918180D01*
X125830700Y-73831819D01*
X125830700Y-73668180D01*
X125798777Y-73507699D01*
X125798776Y-73507698D01*
X125798776Y-73507694D01*
X125736156Y-73356516D01*
X125645247Y-73220460D01*
X125645245Y-73220457D01*
X125529542Y-73104754D01*
X125416975Y-73029540D01*
X125393484Y-73013844D01*
X125242306Y-72951224D01*
X125242300Y-72951222D01*
X125081819Y-72919300D01*
X125081817Y-72919300D01*
X124918183Y-72919300D01*
X124918181Y-72919300D01*
X124757699Y-72951222D01*
X124757693Y-72951224D01*
X124606517Y-73013843D01*
X124470457Y-73104754D01*
X124354754Y-73220457D01*
X124263843Y-73356517D01*
X124201224Y-73507693D01*
X124201222Y-73507699D01*
X124169300Y-73668180D01*
X124169300Y-73668183D01*
X124169300Y-73831817D01*
X124169300Y-73831819D01*
X124169299Y-73831819D01*
X119313521Y-73831819D01*
X119298777Y-73757699D01*
X119298776Y-73757698D01*
X119298776Y-73757694D01*
X119298774Y-73757689D01*
X119278832Y-73709543D01*
X119236157Y-73606517D01*
X119145245Y-73470457D01*
X119029542Y-73354754D01*
X118945762Y-73298775D01*
X118893484Y-73263844D01*
X118826639Y-73236156D01*
X118742306Y-73201224D01*
X118742300Y-73201222D01*
X118581819Y-73169300D01*
X118581817Y-73169300D01*
X118418183Y-73169300D01*
X118418181Y-73169300D01*
X118257699Y-73201222D01*
X118257693Y-73201224D01*
X118106517Y-73263843D01*
X117970457Y-73354754D01*
X117854754Y-73470457D01*
X117763843Y-73606517D01*
X117701224Y-73757693D01*
X117701222Y-73757699D01*
X117669300Y-73918180D01*
X117669300Y-73918183D01*
X117669300Y-74081817D01*
X117669300Y-74081819D01*
X117669299Y-74081819D01*
X109750500Y-74081819D01*
X109750500Y-72581819D01*
X154919299Y-72581819D01*
X154951222Y-72742300D01*
X154951224Y-72742306D01*
X155013843Y-72893482D01*
X155104754Y-73029542D01*
X155220457Y-73145245D01*
X155220460Y-73145247D01*
X155356516Y-73236156D01*
X155507694Y-73298776D01*
X155507698Y-73298776D01*
X155507699Y-73298777D01*
X155668180Y-73330700D01*
X155668183Y-73330700D01*
X155831819Y-73330700D01*
X155939785Y-73309223D01*
X155992306Y-73298776D01*
X156143484Y-73236156D01*
X156279540Y-73145247D01*
X156395247Y-73029540D01*
X156486156Y-72893484D01*
X156548776Y-72742306D01*
X156580700Y-72581817D01*
X156580700Y-72418183D01*
X156580700Y-72418180D01*
X156548777Y-72257699D01*
X156548776Y-72257698D01*
X156548776Y-72257694D01*
X156486156Y-72106516D01*
X156395247Y-71970460D01*
X156395245Y-71970457D01*
X156279542Y-71854754D01*
X156195762Y-71798775D01*
X156143484Y-71763844D01*
X156076639Y-71736156D01*
X155992306Y-71701224D01*
X155992300Y-71701222D01*
X155831819Y-71669300D01*
X155831817Y-71669300D01*
X155668183Y-71669300D01*
X155668181Y-71669300D01*
X155507699Y-71701222D01*
X155507693Y-71701224D01*
X155356517Y-71763843D01*
X155220457Y-71854754D01*
X155104754Y-71970457D01*
X155013843Y-72106517D01*
X154951224Y-72257693D01*
X154951222Y-72257699D01*
X154919300Y-72418180D01*
X154919300Y-72418183D01*
X154919300Y-72581817D01*
X154919300Y-72581819D01*
X154919299Y-72581819D01*
X109750500Y-72581819D01*
X109750500Y-69581819D01*
X118419299Y-69581819D01*
X118451222Y-69742300D01*
X118451224Y-69742306D01*
X118513843Y-69893482D01*
X118604754Y-70029542D01*
X118720457Y-70145245D01*
X118720460Y-70145247D01*
X118856516Y-70236156D01*
X119007694Y-70298776D01*
X119007698Y-70298776D01*
X119007699Y-70298777D01*
X119168180Y-70330700D01*
X119168183Y-70330700D01*
X119331819Y-70330700D01*
X119439785Y-70309223D01*
X119492306Y-70298776D01*
X119643484Y-70236156D01*
X119779540Y-70145247D01*
X119842968Y-70081819D01*
X133008199Y-70081819D01*
X133040122Y-70242300D01*
X133040124Y-70242306D01*
X133102743Y-70393482D01*
X133196683Y-70534075D01*
X133217560Y-70600752D01*
X133215197Y-70627156D01*
X133188893Y-70759392D01*
X133188893Y-70759397D01*
X133188893Y-70923031D01*
X133188893Y-70923033D01*
X133188892Y-70923033D01*
X133220815Y-71083514D01*
X133220817Y-71083520D01*
X133283437Y-71234698D01*
X133293598Y-71249905D01*
X133374347Y-71370756D01*
X133490050Y-71486459D01*
X133490053Y-71486461D01*
X133626109Y-71577370D01*
X133777287Y-71639990D01*
X133777291Y-71639990D01*
X133777292Y-71639991D01*
X133937773Y-71671914D01*
X133937776Y-71671914D01*
X134101412Y-71671914D01*
X134209378Y-71650437D01*
X134261899Y-71639990D01*
X134413077Y-71577370D01*
X134549133Y-71486461D01*
X134664840Y-71370754D01*
X134745589Y-71249902D01*
X134799199Y-71205100D01*
X134868524Y-71196391D01*
X134931552Y-71226546D01*
X134963251Y-71271342D01*
X135013843Y-71393482D01*
X135104754Y-71529542D01*
X135220457Y-71645245D01*
X135220460Y-71645247D01*
X135356516Y-71736156D01*
X135507694Y-71798776D01*
X135507698Y-71798776D01*
X135507699Y-71798777D01*
X135668180Y-71830700D01*
X135668183Y-71830700D01*
X135831819Y-71830700D01*
X135939785Y-71809223D01*
X135992306Y-71798776D01*
X136143484Y-71736156D01*
X136279540Y-71645247D01*
X136395247Y-71529540D01*
X136446898Y-71452238D01*
X136500509Y-71407434D01*
X136569834Y-71398726D01*
X136632862Y-71428880D01*
X136653100Y-71452236D01*
X136675969Y-71486461D01*
X136704754Y-71529542D01*
X136820457Y-71645245D01*
X136820460Y-71645247D01*
X136956516Y-71736156D01*
X137107694Y-71798776D01*
X137107698Y-71798776D01*
X137107699Y-71798777D01*
X137268180Y-71830700D01*
X137268183Y-71830700D01*
X137431819Y-71830700D01*
X137539785Y-71809223D01*
X137592306Y-71798776D01*
X137743484Y-71736156D01*
X137879540Y-71645247D01*
X137995247Y-71529540D01*
X138086156Y-71393484D01*
X138148776Y-71242306D01*
X138168303Y-71144141D01*
X138200688Y-71082230D01*
X138261404Y-71047656D01*
X138331173Y-71051396D01*
X138387845Y-71092263D01*
X138404481Y-71120881D01*
X138413841Y-71143480D01*
X138504754Y-71279542D01*
X138620457Y-71395245D01*
X138620460Y-71395247D01*
X138756516Y-71486156D01*
X138907694Y-71548776D01*
X138907698Y-71548776D01*
X138907699Y-71548777D01*
X139068180Y-71580700D01*
X139068183Y-71580700D01*
X139231819Y-71580700D01*
X139339785Y-71559223D01*
X139392306Y-71548776D01*
X139543484Y-71486156D01*
X139679540Y-71395247D01*
X139795247Y-71279540D01*
X139886156Y-71143484D01*
X139948776Y-70992306D01*
X139980700Y-70831817D01*
X139980700Y-70668183D01*
X139975203Y-70640548D01*
X139981429Y-70570957D01*
X140024292Y-70515779D01*
X140090181Y-70492534D01*
X140144271Y-70501794D01*
X140257694Y-70548776D01*
X140257698Y-70548776D01*
X140257699Y-70548777D01*
X140418180Y-70580700D01*
X140418183Y-70580700D01*
X140581819Y-70580700D01*
X140689785Y-70559223D01*
X140742306Y-70548776D01*
X140893484Y-70486156D01*
X141029540Y-70395247D01*
X141145247Y-70279540D01*
X141146895Y-70277072D01*
X141148094Y-70276070D01*
X141149111Y-70274832D01*
X141149345Y-70275024D01*
X141200506Y-70232266D01*
X141269831Y-70223556D01*
X141332859Y-70253708D01*
X141353105Y-70277073D01*
X141354755Y-70279543D01*
X141470457Y-70395245D01*
X141470460Y-70395247D01*
X141606516Y-70486156D01*
X141757694Y-70548776D01*
X141757698Y-70548776D01*
X141757699Y-70548777D01*
X141918180Y-70580700D01*
X141918183Y-70580700D01*
X142081819Y-70580700D01*
X142189785Y-70559223D01*
X142242306Y-70548776D01*
X142393484Y-70486156D01*
X142529540Y-70395247D01*
X142645247Y-70279540D01*
X142736156Y-70143484D01*
X142798776Y-69992306D01*
X142817214Y-69899615D01*
X142830700Y-69831819D01*
X142830700Y-69668180D01*
X142798777Y-69507699D01*
X142798776Y-69507698D01*
X142798776Y-69507694D01*
X142736156Y-69356516D01*
X142645247Y-69220460D01*
X142645246Y-69220459D01*
X142645245Y-69220457D01*
X142529542Y-69104754D01*
X142461512Y-69059298D01*
X142393484Y-69013844D01*
X142242306Y-68951224D01*
X142242300Y-68951222D01*
X142081819Y-68919300D01*
X142081817Y-68919300D01*
X141918183Y-68919300D01*
X141918181Y-68919300D01*
X141757699Y-68951222D01*
X141757693Y-68951224D01*
X141606517Y-69013843D01*
X141470457Y-69104754D01*
X141354755Y-69220456D01*
X141354753Y-69220459D01*
X141353101Y-69222932D01*
X141351901Y-69223934D01*
X141350889Y-69225168D01*
X141350655Y-69224976D01*
X141299487Y-69267736D01*
X141230162Y-69276442D01*
X141167135Y-69246286D01*
X141146899Y-69222932D01*
X141145246Y-69220459D01*
X141145244Y-69220456D01*
X141029542Y-69104754D01*
X140961512Y-69059298D01*
X140893484Y-69013844D01*
X140742306Y-68951224D01*
X140742300Y-68951222D01*
X140581819Y-68919300D01*
X140581817Y-68919300D01*
X140418183Y-68919300D01*
X140418181Y-68919300D01*
X140257699Y-68951222D01*
X140257693Y-68951224D01*
X140106517Y-69013843D01*
X139970457Y-69104754D01*
X139854754Y-69220457D01*
X139763843Y-69356517D01*
X139701224Y-69507693D01*
X139701222Y-69507699D01*
X139669300Y-69668180D01*
X139669300Y-69668183D01*
X139669300Y-69831817D01*
X139671622Y-69843493D01*
X139674797Y-69859453D01*
X139668568Y-69929044D01*
X139625705Y-69984221D01*
X139559815Y-70007465D01*
X139505726Y-69998204D01*
X139392306Y-69951224D01*
X139392300Y-69951222D01*
X139231819Y-69919300D01*
X139231817Y-69919300D01*
X139182686Y-69919300D01*
X139115647Y-69899615D01*
X139069892Y-69846811D01*
X139061069Y-69819492D01*
X139048777Y-69757699D01*
X139048776Y-69757698D01*
X139048776Y-69757694D01*
X138986156Y-69606516D01*
X138895247Y-69470460D01*
X138895246Y-69470459D01*
X138895245Y-69470457D01*
X138779542Y-69354754D01*
X138662338Y-69276442D01*
X138643484Y-69263844D01*
X138628634Y-69257693D01*
X138492306Y-69201224D01*
X138492300Y-69201222D01*
X138331819Y-69169300D01*
X138331817Y-69169300D01*
X138168183Y-69169300D01*
X138168181Y-69169300D01*
X138007699Y-69201222D01*
X138007693Y-69201224D01*
X137856517Y-69263843D01*
X137720457Y-69354754D01*
X137604755Y-69470456D01*
X137604753Y-69470459D01*
X137603101Y-69472932D01*
X137601901Y-69473934D01*
X137600889Y-69475168D01*
X137600655Y-69474976D01*
X137549487Y-69517736D01*
X137480162Y-69526442D01*
X137417135Y-69496286D01*
X137396899Y-69472932D01*
X137395246Y-69470459D01*
X137395244Y-69470456D01*
X137279542Y-69354754D01*
X137162338Y-69276442D01*
X137143484Y-69263844D01*
X137128634Y-69257693D01*
X136992306Y-69201224D01*
X136992300Y-69201222D01*
X136831819Y-69169300D01*
X136831817Y-69169300D01*
X136668183Y-69169300D01*
X136668181Y-69169300D01*
X136507699Y-69201222D01*
X136507693Y-69201224D01*
X136356516Y-69263843D01*
X136220461Y-69354752D01*
X136206395Y-69368818D01*
X136145071Y-69402301D01*
X136075379Y-69397315D01*
X136031035Y-69368815D01*
X135992711Y-69330491D01*
X135892964Y-69263843D01*
X135856653Y-69239581D01*
X135821393Y-69224976D01*
X135705475Y-69176961D01*
X135705469Y-69176959D01*
X135544988Y-69145037D01*
X135544986Y-69145037D01*
X135381352Y-69145037D01*
X135381350Y-69145037D01*
X135220868Y-69176959D01*
X135220862Y-69176961D01*
X135069686Y-69239580D01*
X134933626Y-69330491D01*
X134817924Y-69446193D01*
X134817921Y-69446197D01*
X134746030Y-69553790D01*
X134692418Y-69598595D01*
X134623093Y-69607302D01*
X134560065Y-69577147D01*
X134539825Y-69553789D01*
X134515735Y-69517736D01*
X134484147Y-69470460D01*
X134484146Y-69470459D01*
X134484145Y-69470457D01*
X134368442Y-69354754D01*
X134251238Y-69276442D01*
X134232384Y-69263844D01*
X134217534Y-69257693D01*
X134081206Y-69201224D01*
X134081200Y-69201222D01*
X133920719Y-69169300D01*
X133920717Y-69169300D01*
X133757083Y-69169300D01*
X133757081Y-69169300D01*
X133596599Y-69201222D01*
X133596593Y-69201224D01*
X133445417Y-69263843D01*
X133309357Y-69354754D01*
X133193654Y-69470457D01*
X133102743Y-69606517D01*
X133040124Y-69757693D01*
X133040122Y-69757699D01*
X133008200Y-69918180D01*
X133008200Y-69918183D01*
X133008200Y-70081817D01*
X133008200Y-70081819D01*
X133008199Y-70081819D01*
X119842968Y-70081819D01*
X119895247Y-70029540D01*
X119986156Y-69893484D01*
X120048776Y-69742306D01*
X120077363Y-69598595D01*
X120080700Y-69581819D01*
X120080700Y-69418180D01*
X120048777Y-69257699D01*
X120048776Y-69257698D01*
X120048776Y-69257694D01*
X119986156Y-69106516D01*
X119895247Y-68970460D01*
X119895245Y-68970457D01*
X119779542Y-68854754D01*
X119663229Y-68777037D01*
X119643484Y-68763844D01*
X119492306Y-68701224D01*
X119492300Y-68701222D01*
X119331819Y-68669300D01*
X119331817Y-68669300D01*
X119168183Y-68669300D01*
X119168181Y-68669300D01*
X119012324Y-68700302D01*
X119012319Y-68700303D01*
X119007694Y-68701224D01*
X118856516Y-68763844D01*
X118836777Y-68777033D01*
X118836768Y-68777037D01*
X118720464Y-68854749D01*
X118720456Y-68854755D01*
X118604754Y-68970457D01*
X118513843Y-69106517D01*
X118451224Y-69257693D01*
X118451222Y-69257699D01*
X118419300Y-69418180D01*
X118419300Y-69418183D01*
X118419300Y-69581817D01*
X118419300Y-69581819D01*
X118419299Y-69581819D01*
X109750500Y-69581819D01*
X109750500Y-67831819D01*
X117669299Y-67831819D01*
X117701222Y-67992300D01*
X117701224Y-67992306D01*
X117763843Y-68143482D01*
X117854754Y-68279542D01*
X117970457Y-68395245D01*
X117970460Y-68395247D01*
X118106516Y-68486156D01*
X118257694Y-68548776D01*
X118257698Y-68548776D01*
X118257699Y-68548777D01*
X118418180Y-68580700D01*
X118418183Y-68580700D01*
X118581819Y-68580700D01*
X118645400Y-68568052D01*
X118742306Y-68548776D01*
X118893484Y-68486156D01*
X119029540Y-68395247D01*
X119145247Y-68279540D01*
X119236156Y-68143484D01*
X119298776Y-67992306D01*
X119318083Y-67895245D01*
X119330700Y-67831819D01*
X119330700Y-67668180D01*
X119298777Y-67507699D01*
X119298776Y-67507698D01*
X119298776Y-67507694D01*
X119236156Y-67356516D01*
X119145247Y-67220460D01*
X119145245Y-67220457D01*
X119029542Y-67104754D01*
X118995217Y-67081819D01*
X129169299Y-67081819D01*
X129201222Y-67242300D01*
X129201224Y-67242306D01*
X129263843Y-67393482D01*
X129354754Y-67529542D01*
X129470457Y-67645245D01*
X129470460Y-67645247D01*
X129606516Y-67736156D01*
X129757694Y-67798776D01*
X129757698Y-67798776D01*
X129757699Y-67798777D01*
X129918180Y-67830700D01*
X129918183Y-67830700D01*
X130081819Y-67830700D01*
X130242301Y-67798777D01*
X130242301Y-67798776D01*
X130242306Y-67798776D01*
X130242308Y-67798774D01*
X130242312Y-67798774D01*
X130258871Y-67791915D01*
X130328340Y-67784445D01*
X130390820Y-67815719D01*
X130394006Y-67818794D01*
X130470457Y-67895245D01*
X130470460Y-67895247D01*
X130606516Y-67986156D01*
X130757694Y-68048776D01*
X130757698Y-68048776D01*
X130757699Y-68048777D01*
X130918180Y-68080700D01*
X130918183Y-68080700D01*
X131081819Y-68080700D01*
X131189785Y-68059223D01*
X131242306Y-68048776D01*
X131393484Y-67986156D01*
X131529540Y-67895247D01*
X131645247Y-67779540D01*
X131736156Y-67643484D01*
X131761698Y-67581819D01*
X154669299Y-67581819D01*
X154701222Y-67742300D01*
X154701224Y-67742306D01*
X154763843Y-67893482D01*
X154854754Y-68029542D01*
X154970457Y-68145245D01*
X154970460Y-68145247D01*
X155106516Y-68236156D01*
X155257694Y-68298776D01*
X155257698Y-68298776D01*
X155257699Y-68298777D01*
X155418180Y-68330700D01*
X155418183Y-68330700D01*
X155581819Y-68330700D01*
X155689785Y-68309223D01*
X155742306Y-68298776D01*
X155893484Y-68236156D01*
X156029540Y-68145247D01*
X156145247Y-68029540D01*
X156236156Y-67893484D01*
X156298776Y-67742306D01*
X156318083Y-67645245D01*
X156330700Y-67581819D01*
X156330700Y-67418180D01*
X156298777Y-67257699D01*
X156298776Y-67257698D01*
X156298776Y-67257694D01*
X156236156Y-67106516D01*
X156145247Y-66970460D01*
X156145245Y-66970457D01*
X156029542Y-66854754D01*
X155961512Y-66809298D01*
X155893484Y-66763844D01*
X155878634Y-66757693D01*
X155742306Y-66701224D01*
X155742300Y-66701222D01*
X155581819Y-66669300D01*
X155581817Y-66669300D01*
X155418183Y-66669300D01*
X155418181Y-66669300D01*
X155257699Y-66701222D01*
X155257693Y-66701224D01*
X155106517Y-66763843D01*
X154970457Y-66854754D01*
X154854754Y-66970457D01*
X154763843Y-67106517D01*
X154701224Y-67257693D01*
X154701222Y-67257699D01*
X154669300Y-67418180D01*
X154669300Y-67418183D01*
X154669300Y-67581817D01*
X154669300Y-67581819D01*
X154669299Y-67581819D01*
X131761698Y-67581819D01*
X131798776Y-67492306D01*
X131813521Y-67418180D01*
X131830700Y-67331819D01*
X131830700Y-67168180D01*
X131798777Y-67007699D01*
X131798776Y-67007698D01*
X131798776Y-67007694D01*
X131736156Y-66856516D01*
X131645247Y-66720460D01*
X131645245Y-66720457D01*
X131529542Y-66604754D01*
X131495217Y-66581819D01*
X138919299Y-66581819D01*
X138951222Y-66742300D01*
X138951224Y-66742306D01*
X139013843Y-66893482D01*
X139104754Y-67029542D01*
X139220457Y-67145245D01*
X139220460Y-67145247D01*
X139356516Y-67236156D01*
X139507694Y-67298776D01*
X139507698Y-67298776D01*
X139507699Y-67298777D01*
X139668180Y-67330700D01*
X139668183Y-67330700D01*
X139831819Y-67330700D01*
X139939785Y-67309223D01*
X139992306Y-67298776D01*
X140143484Y-67236156D01*
X140279540Y-67145247D01*
X140395247Y-67029540D01*
X140486156Y-66893484D01*
X140548776Y-66742306D01*
X140575787Y-66606516D01*
X140580700Y-66581819D01*
X140580700Y-66418180D01*
X140548777Y-66257699D01*
X140548776Y-66257698D01*
X140548776Y-66257694D01*
X140486156Y-66106516D01*
X140395247Y-65970460D01*
X140395245Y-65970457D01*
X140279542Y-65854754D01*
X140195762Y-65798775D01*
X140143484Y-65763844D01*
X140076639Y-65736156D01*
X139992306Y-65701224D01*
X139992300Y-65701222D01*
X139831819Y-65669300D01*
X139831817Y-65669300D01*
X139668183Y-65669300D01*
X139668181Y-65669300D01*
X139507699Y-65701222D01*
X139507693Y-65701224D01*
X139356517Y-65763843D01*
X139220457Y-65854754D01*
X139104754Y-65970457D01*
X139013843Y-66106517D01*
X138951224Y-66257693D01*
X138951222Y-66257699D01*
X138919300Y-66418180D01*
X138919300Y-66418183D01*
X138919300Y-66581817D01*
X138919300Y-66581819D01*
X138919299Y-66581819D01*
X131495217Y-66581819D01*
X131395504Y-66515194D01*
X131393484Y-66513844D01*
X131242306Y-66451224D01*
X131242300Y-66451222D01*
X131081819Y-66419300D01*
X131081817Y-66419300D01*
X130918183Y-66419300D01*
X130918181Y-66419300D01*
X130757700Y-66451222D01*
X130757697Y-66451223D01*
X130757695Y-66451223D01*
X130757694Y-66451224D01*
X130741123Y-66458088D01*
X130671653Y-66465554D01*
X130609175Y-66434277D01*
X130606020Y-66431233D01*
X130529540Y-66354753D01*
X130393484Y-66263844D01*
X130378634Y-66257693D01*
X130242306Y-66201224D01*
X130242300Y-66201222D01*
X130081819Y-66169300D01*
X130081817Y-66169300D01*
X129918183Y-66169300D01*
X129918181Y-66169300D01*
X129757699Y-66201222D01*
X129757693Y-66201224D01*
X129606517Y-66263843D01*
X129470457Y-66354754D01*
X129354754Y-66470457D01*
X129263843Y-66606517D01*
X129201224Y-66757693D01*
X129201222Y-66757699D01*
X129169300Y-66918180D01*
X129169300Y-66918183D01*
X129169300Y-67081817D01*
X129169300Y-67081819D01*
X129169299Y-67081819D01*
X118995217Y-67081819D01*
X118895504Y-67015194D01*
X118893484Y-67013844D01*
X118878634Y-67007693D01*
X118742306Y-66951224D01*
X118742300Y-66951222D01*
X118581819Y-66919300D01*
X118581817Y-66919300D01*
X118418183Y-66919300D01*
X118418181Y-66919300D01*
X118257699Y-66951222D01*
X118257693Y-66951224D01*
X118106517Y-67013843D01*
X117970457Y-67104754D01*
X117854754Y-67220457D01*
X117763843Y-67356517D01*
X117701224Y-67507693D01*
X117701222Y-67507699D01*
X117669300Y-67668180D01*
X117669300Y-67668183D01*
X117669300Y-67831817D01*
X117669300Y-67831819D01*
X117669299Y-67831819D01*
X109750500Y-67831819D01*
X109750500Y-65081819D01*
X128669299Y-65081819D01*
X128701222Y-65242300D01*
X128701224Y-65242306D01*
X128763843Y-65393482D01*
X128854754Y-65529542D01*
X128970457Y-65645245D01*
X128970460Y-65645247D01*
X129106516Y-65736156D01*
X129257694Y-65798776D01*
X129257698Y-65798776D01*
X129257699Y-65798777D01*
X129418180Y-65830700D01*
X129418183Y-65830700D01*
X129581819Y-65830700D01*
X129689785Y-65809223D01*
X129742306Y-65798776D01*
X129893484Y-65736156D01*
X130029540Y-65645247D01*
X130145247Y-65529540D01*
X130236156Y-65393484D01*
X130298776Y-65242306D01*
X130330700Y-65081817D01*
X130330700Y-64918183D01*
X130330700Y-64918180D01*
X130298777Y-64757699D01*
X130298776Y-64757698D01*
X130298776Y-64757694D01*
X130236156Y-64606516D01*
X130145247Y-64470460D01*
X130145245Y-64470457D01*
X130029542Y-64354754D01*
X129945762Y-64298775D01*
X129893484Y-64263844D01*
X129826639Y-64236156D01*
X129742306Y-64201224D01*
X129742300Y-64201222D01*
X129581819Y-64169300D01*
X129581817Y-64169300D01*
X129418183Y-64169300D01*
X129418181Y-64169300D01*
X129257699Y-64201222D01*
X129257693Y-64201224D01*
X129106517Y-64263843D01*
X128970457Y-64354754D01*
X128854754Y-64470457D01*
X128763843Y-64606517D01*
X128701224Y-64757693D01*
X128701222Y-64757699D01*
X128669300Y-64918180D01*
X128669300Y-64918183D01*
X128669300Y-65081817D01*
X128669300Y-65081819D01*
X128669299Y-65081819D01*
X109750500Y-65081819D01*
X109750500Y-62350536D01*
X109770185Y-62283497D01*
X109822989Y-62237742D01*
X109892147Y-62227798D01*
X109955703Y-62256823D01*
X109981883Y-62288531D01*
X109999751Y-62319479D01*
X110028171Y-62356517D01*
X110167370Y-62537926D01*
X110167376Y-62537933D01*
X110362066Y-62732623D01*
X110362073Y-62732629D01*
X110490403Y-62831099D01*
X110580521Y-62900249D01*
X110702125Y-62970457D01*
X110818971Y-63037919D01*
X110818976Y-63037921D01*
X110818979Y-63037923D01*
X111073368Y-63143295D01*
X111339334Y-63214560D01*
X111612326Y-63250500D01*
X111612333Y-63250500D01*
X111887667Y-63250500D01*
X111887674Y-63250500D01*
X112160666Y-63214560D01*
X112426632Y-63143295D01*
X112681021Y-63037923D01*
X112919479Y-62900249D01*
X113008659Y-62831819D01*
X132924099Y-62831819D01*
X132956022Y-62992300D01*
X132956024Y-62992306D01*
X133018643Y-63143482D01*
X133109554Y-63279542D01*
X133225257Y-63395245D01*
X133225260Y-63395247D01*
X133361316Y-63486156D01*
X133512494Y-63548776D01*
X133512498Y-63548776D01*
X133512499Y-63548777D01*
X133672980Y-63580700D01*
X133672983Y-63580700D01*
X133836619Y-63580700D01*
X133944585Y-63559223D01*
X133997106Y-63548776D01*
X134148284Y-63486156D01*
X134183509Y-63462619D01*
X134250184Y-63441741D01*
X134317565Y-63460224D01*
X134321262Y-63462600D01*
X134356516Y-63486156D01*
X134507694Y-63548776D01*
X134507698Y-63548776D01*
X134507699Y-63548777D01*
X134668180Y-63580700D01*
X134668183Y-63580700D01*
X134831819Y-63580700D01*
X134939785Y-63559223D01*
X134992306Y-63548776D01*
X135143484Y-63486156D01*
X135181109Y-63461016D01*
X135247786Y-63440138D01*
X135315166Y-63458622D01*
X135318891Y-63461016D01*
X135356516Y-63486156D01*
X135507694Y-63548776D01*
X135507698Y-63548776D01*
X135507699Y-63548777D01*
X135668180Y-63580700D01*
X135668183Y-63580700D01*
X135831819Y-63580700D01*
X135939785Y-63559223D01*
X135992306Y-63548776D01*
X136143484Y-63486156D01*
X136279540Y-63395247D01*
X136395247Y-63279540D01*
X136486156Y-63143484D01*
X136511698Y-63081819D01*
X137419299Y-63081819D01*
X137451222Y-63242300D01*
X137451224Y-63242306D01*
X137457597Y-63257693D01*
X137513844Y-63393484D01*
X137530345Y-63418180D01*
X137604754Y-63529542D01*
X137720457Y-63645245D01*
X137720460Y-63645247D01*
X137856516Y-63736156D01*
X138007694Y-63798776D01*
X138007698Y-63798776D01*
X138007699Y-63798777D01*
X138168180Y-63830700D01*
X138168183Y-63830700D01*
X138331819Y-63830700D01*
X138439785Y-63809223D01*
X138492306Y-63798776D01*
X138643484Y-63736156D01*
X138681109Y-63711016D01*
X138747786Y-63690138D01*
X138815166Y-63708622D01*
X138818891Y-63711016D01*
X138856516Y-63736156D01*
X139007694Y-63798776D01*
X139007698Y-63798776D01*
X139007699Y-63798777D01*
X139174158Y-63831889D01*
X139173908Y-63833141D01*
X139232546Y-63856807D01*
X139259505Y-63889056D01*
X139260460Y-63888419D01*
X139354754Y-64029542D01*
X139470457Y-64145245D01*
X139470460Y-64145247D01*
X139606516Y-64236156D01*
X139757694Y-64298776D01*
X139757698Y-64298776D01*
X139757699Y-64298777D01*
X139918180Y-64330700D01*
X139918183Y-64330700D01*
X140081819Y-64330700D01*
X140189785Y-64309223D01*
X140242306Y-64298776D01*
X140393484Y-64236156D01*
X140529540Y-64145247D01*
X140645247Y-64029540D01*
X140736156Y-63893484D01*
X140798776Y-63742306D01*
X140830700Y-63581817D01*
X140830700Y-63418183D01*
X140830700Y-63418180D01*
X140798777Y-63257699D01*
X140798776Y-63257698D01*
X140798776Y-63257694D01*
X140736156Y-63106516D01*
X140645247Y-62970460D01*
X140645245Y-62970457D01*
X140529542Y-62854754D01*
X140461512Y-62809298D01*
X140393484Y-62763844D01*
X140378634Y-62757693D01*
X140242306Y-62701224D01*
X140242300Y-62701222D01*
X140075842Y-62668111D01*
X140076090Y-62666862D01*
X140017438Y-62643180D01*
X139990495Y-62610942D01*
X139989540Y-62611581D01*
X139964703Y-62574410D01*
X139895247Y-62470460D01*
X139895245Y-62470457D01*
X139779542Y-62354754D01*
X139672897Y-62283497D01*
X139643484Y-62263844D01*
X139643479Y-62263842D01*
X139492306Y-62201224D01*
X139492300Y-62201222D01*
X139331819Y-62169300D01*
X139331817Y-62169300D01*
X139168183Y-62169300D01*
X139168181Y-62169300D01*
X139007699Y-62201222D01*
X139007693Y-62201224D01*
X138856518Y-62263842D01*
X138818889Y-62288985D01*
X138752211Y-62309861D01*
X138684831Y-62291375D01*
X138681111Y-62288985D01*
X138643481Y-62263842D01*
X138492306Y-62201224D01*
X138492300Y-62201222D01*
X138331819Y-62169300D01*
X138331817Y-62169300D01*
X138168183Y-62169300D01*
X138168181Y-62169300D01*
X138007699Y-62201222D01*
X138007693Y-62201224D01*
X137856517Y-62263843D01*
X137720457Y-62354754D01*
X137604754Y-62470457D01*
X137513843Y-62606517D01*
X137451224Y-62757693D01*
X137451222Y-62757699D01*
X137419300Y-62918180D01*
X137419300Y-62918183D01*
X137419300Y-63081817D01*
X137419300Y-63081819D01*
X137419299Y-63081819D01*
X136511698Y-63081819D01*
X136548776Y-62992306D01*
X136553449Y-62968810D01*
X136569545Y-62887899D01*
X136569545Y-62887898D01*
X136580699Y-62831821D01*
X136580700Y-62831819D01*
X136580700Y-62668180D01*
X136548777Y-62507699D01*
X136548776Y-62507698D01*
X136548776Y-62507694D01*
X136486156Y-62356516D01*
X136395247Y-62220460D01*
X136395245Y-62220457D01*
X136279542Y-62104754D01*
X136178710Y-62037381D01*
X136143484Y-62013844D01*
X136143479Y-62013842D01*
X135992306Y-61951224D01*
X135992300Y-61951222D01*
X135831819Y-61919300D01*
X135831817Y-61919300D01*
X135668183Y-61919300D01*
X135668181Y-61919300D01*
X135507699Y-61951222D01*
X135507693Y-61951224D01*
X135356518Y-62013842D01*
X135318889Y-62038985D01*
X135252211Y-62059861D01*
X135184831Y-62041375D01*
X135181111Y-62038985D01*
X135143481Y-62013842D01*
X134992306Y-61951224D01*
X134992300Y-61951222D01*
X134831819Y-61919300D01*
X134831817Y-61919300D01*
X134668183Y-61919300D01*
X134668181Y-61919300D01*
X134507699Y-61951222D01*
X134507693Y-61951224D01*
X134356517Y-62013843D01*
X134321290Y-62037381D01*
X134254612Y-62058258D01*
X134187232Y-62039773D01*
X134183510Y-62037381D01*
X134148284Y-62013844D01*
X134148279Y-62013842D01*
X133997106Y-61951224D01*
X133997100Y-61951222D01*
X133836619Y-61919300D01*
X133836617Y-61919300D01*
X133672983Y-61919300D01*
X133672981Y-61919300D01*
X133512499Y-61951222D01*
X133512493Y-61951224D01*
X133361317Y-62013843D01*
X133225257Y-62104754D01*
X133109554Y-62220457D01*
X133018643Y-62356517D01*
X132956024Y-62507693D01*
X132956022Y-62507699D01*
X132924100Y-62668180D01*
X132924100Y-62668183D01*
X132924100Y-62831817D01*
X132924100Y-62831819D01*
X132924099Y-62831819D01*
X113008659Y-62831819D01*
X113137928Y-62732628D01*
X113203694Y-62666862D01*
X113296147Y-62574410D01*
X113332623Y-62537933D01*
X113332628Y-62537928D01*
X113500249Y-62319479D01*
X113637923Y-62081021D01*
X113743295Y-61826632D01*
X113814560Y-61560666D01*
X113850500Y-61287674D01*
X113850500Y-61012326D01*
X113814560Y-60739334D01*
X113743295Y-60473368D01*
X113637923Y-60218979D01*
X113637921Y-60218976D01*
X113637919Y-60218971D01*
X113588732Y-60133778D01*
X113500249Y-59980521D01*
X113332628Y-59762072D01*
X113332623Y-59762066D01*
X113137933Y-59567376D01*
X113137926Y-59567370D01*
X113014778Y-59472876D01*
X112973575Y-59416448D01*
X112969420Y-59346702D01*
X113003632Y-59285782D01*
X113065349Y-59253029D01*
X113090264Y-59250500D01*
X161659736Y-59250500D01*
X161726775Y-59270185D01*
G37*
%TD.AperFunction*%
%TD*%
M02*
