%TF.GenerationSoftware,KiCad,Pcbnew,9.0.5*%
%TF.CreationDate,2025-10-28T16:25:52-07:00*%
%TF.ProjectId,Vine_Basestation_Cable_Reeling,56696e65-5f42-4617-9365-73746174696f,rev?*%
%TF.SameCoordinates,Original*%
%TF.FileFunction,Legend,Top*%
%TF.FilePolarity,Positive*%
%FSLAX46Y46*%
G04 Gerber Fmt 4.6, Leading zero omitted, Abs format (unit mm)*
G04 Created by KiCad (PCBNEW 9.0.5) date 2025-10-28 16:25:52*
%MOMM*%
%LPD*%
G01*
G04 APERTURE LIST*
%ADD10C,0.247650*%
%ADD11C,0.150000*%
%ADD12C,0.120000*%
%ADD13C,0.152400*%
%ADD14C,0.100000*%
G04 APERTURE END LIST*
D10*
X159615891Y-120082330D02*
X159615891Y-120648387D01*
X159615891Y-120365358D02*
X158625291Y-120365358D01*
X158625291Y-120365358D02*
X158766805Y-120459701D01*
X158766805Y-120459701D02*
X158861148Y-120554044D01*
X158861148Y-120554044D02*
X158908320Y-120648387D01*
X158719634Y-119704958D02*
X158672462Y-119657786D01*
X158672462Y-119657786D02*
X158625291Y-119563444D01*
X158625291Y-119563444D02*
X158625291Y-119327586D01*
X158625291Y-119327586D02*
X158672462Y-119233244D01*
X158672462Y-119233244D02*
X158719634Y-119186072D01*
X158719634Y-119186072D02*
X158813977Y-119138901D01*
X158813977Y-119138901D02*
X158908320Y-119138901D01*
X158908320Y-119138901D02*
X159049834Y-119186072D01*
X159049834Y-119186072D02*
X159615891Y-119752129D01*
X159615891Y-119752129D02*
X159615891Y-119138901D01*
X158625291Y-118855872D02*
X159615891Y-118525672D01*
X159615891Y-118525672D02*
X158625291Y-118195472D01*
X158625291Y-117676586D02*
X158625291Y-117582243D01*
X158625291Y-117582243D02*
X158672462Y-117487900D01*
X158672462Y-117487900D02*
X158719634Y-117440729D01*
X158719634Y-117440729D02*
X158813977Y-117393557D01*
X158813977Y-117393557D02*
X159002662Y-117346386D01*
X159002662Y-117346386D02*
X159238520Y-117346386D01*
X159238520Y-117346386D02*
X159427205Y-117393557D01*
X159427205Y-117393557D02*
X159521548Y-117440729D01*
X159521548Y-117440729D02*
X159568720Y-117487900D01*
X159568720Y-117487900D02*
X159615891Y-117582243D01*
X159615891Y-117582243D02*
X159615891Y-117676586D01*
X159615891Y-117676586D02*
X159568720Y-117770929D01*
X159568720Y-117770929D02*
X159521548Y-117818100D01*
X159521548Y-117818100D02*
X159427205Y-117865271D01*
X159427205Y-117865271D02*
X159238520Y-117912443D01*
X159238520Y-117912443D02*
X159002662Y-117912443D01*
X159002662Y-117912443D02*
X158813977Y-117865271D01*
X158813977Y-117865271D02*
X158719634Y-117818100D01*
X158719634Y-117818100D02*
X158672462Y-117770929D01*
X158672462Y-117770929D02*
X158625291Y-117676586D01*
X113625291Y-120945558D02*
X113625291Y-120332330D01*
X113625291Y-120332330D02*
X114002662Y-120662530D01*
X114002662Y-120662530D02*
X114002662Y-120521015D01*
X114002662Y-120521015D02*
X114049834Y-120426673D01*
X114049834Y-120426673D02*
X114097005Y-120379501D01*
X114097005Y-120379501D02*
X114191348Y-120332330D01*
X114191348Y-120332330D02*
X114427205Y-120332330D01*
X114427205Y-120332330D02*
X114521548Y-120379501D01*
X114521548Y-120379501D02*
X114568720Y-120426673D01*
X114568720Y-120426673D02*
X114615891Y-120521015D01*
X114615891Y-120521015D02*
X114615891Y-120804044D01*
X114615891Y-120804044D02*
X114568720Y-120898387D01*
X114568720Y-120898387D02*
X114521548Y-120945558D01*
X113625291Y-120049301D02*
X114615891Y-119719101D01*
X114615891Y-119719101D02*
X113625291Y-119388901D01*
X113625291Y-119153043D02*
X113625291Y-118539815D01*
X113625291Y-118539815D02*
X114002662Y-118870015D01*
X114002662Y-118870015D02*
X114002662Y-118728500D01*
X114002662Y-118728500D02*
X114049834Y-118634158D01*
X114049834Y-118634158D02*
X114097005Y-118586986D01*
X114097005Y-118586986D02*
X114191348Y-118539815D01*
X114191348Y-118539815D02*
X114427205Y-118539815D01*
X114427205Y-118539815D02*
X114521548Y-118586986D01*
X114521548Y-118586986D02*
X114568720Y-118634158D01*
X114568720Y-118634158D02*
X114615891Y-118728500D01*
X114615891Y-118728500D02*
X114615891Y-119011529D01*
X114615891Y-119011529D02*
X114568720Y-119105872D01*
X114568720Y-119105872D02*
X114521548Y-119153043D01*
X163375291Y-109945558D02*
X163375291Y-109332330D01*
X163375291Y-109332330D02*
X163752662Y-109662530D01*
X163752662Y-109662530D02*
X163752662Y-109521015D01*
X163752662Y-109521015D02*
X163799834Y-109426673D01*
X163799834Y-109426673D02*
X163847005Y-109379501D01*
X163847005Y-109379501D02*
X163941348Y-109332330D01*
X163941348Y-109332330D02*
X164177205Y-109332330D01*
X164177205Y-109332330D02*
X164271548Y-109379501D01*
X164271548Y-109379501D02*
X164318720Y-109426673D01*
X164318720Y-109426673D02*
X164365891Y-109521015D01*
X164365891Y-109521015D02*
X164365891Y-109804044D01*
X164365891Y-109804044D02*
X164318720Y-109898387D01*
X164318720Y-109898387D02*
X164271548Y-109945558D01*
X163375291Y-109049301D02*
X164365891Y-108719101D01*
X164365891Y-108719101D02*
X163375291Y-108388901D01*
X163375291Y-108153043D02*
X163375291Y-107539815D01*
X163375291Y-107539815D02*
X163752662Y-107870015D01*
X163752662Y-107870015D02*
X163752662Y-107728500D01*
X163752662Y-107728500D02*
X163799834Y-107634158D01*
X163799834Y-107634158D02*
X163847005Y-107586986D01*
X163847005Y-107586986D02*
X163941348Y-107539815D01*
X163941348Y-107539815D02*
X164177205Y-107539815D01*
X164177205Y-107539815D02*
X164271548Y-107586986D01*
X164271548Y-107586986D02*
X164318720Y-107634158D01*
X164318720Y-107634158D02*
X164365891Y-107728500D01*
X164365891Y-107728500D02*
X164365891Y-108011529D01*
X164365891Y-108011529D02*
X164318720Y-108105872D01*
X164318720Y-108105872D02*
X164271548Y-108153043D01*
X164365891Y-115332330D02*
X164365891Y-115898387D01*
X164365891Y-115615358D02*
X163375291Y-115615358D01*
X163375291Y-115615358D02*
X163516805Y-115709701D01*
X163516805Y-115709701D02*
X163611148Y-115804044D01*
X163611148Y-115804044D02*
X163658320Y-115898387D01*
X163469634Y-114954958D02*
X163422462Y-114907786D01*
X163422462Y-114907786D02*
X163375291Y-114813444D01*
X163375291Y-114813444D02*
X163375291Y-114577586D01*
X163375291Y-114577586D02*
X163422462Y-114483244D01*
X163422462Y-114483244D02*
X163469634Y-114436072D01*
X163469634Y-114436072D02*
X163563977Y-114388901D01*
X163563977Y-114388901D02*
X163658320Y-114388901D01*
X163658320Y-114388901D02*
X163799834Y-114436072D01*
X163799834Y-114436072D02*
X164365891Y-115002129D01*
X164365891Y-115002129D02*
X164365891Y-114388901D01*
X163375291Y-114105872D02*
X164365891Y-113775672D01*
X164365891Y-113775672D02*
X163375291Y-113445472D01*
X163375291Y-112926586D02*
X163375291Y-112832243D01*
X163375291Y-112832243D02*
X163422462Y-112737900D01*
X163422462Y-112737900D02*
X163469634Y-112690729D01*
X163469634Y-112690729D02*
X163563977Y-112643557D01*
X163563977Y-112643557D02*
X163752662Y-112596386D01*
X163752662Y-112596386D02*
X163988520Y-112596386D01*
X163988520Y-112596386D02*
X164177205Y-112643557D01*
X164177205Y-112643557D02*
X164271548Y-112690729D01*
X164271548Y-112690729D02*
X164318720Y-112737900D01*
X164318720Y-112737900D02*
X164365891Y-112832243D01*
X164365891Y-112832243D02*
X164365891Y-112926586D01*
X164365891Y-112926586D02*
X164318720Y-113020929D01*
X164318720Y-113020929D02*
X164271548Y-113068100D01*
X164271548Y-113068100D02*
X164177205Y-113115271D01*
X164177205Y-113115271D02*
X163988520Y-113162443D01*
X163988520Y-113162443D02*
X163752662Y-113162443D01*
X163752662Y-113162443D02*
X163563977Y-113115271D01*
X163563977Y-113115271D02*
X163469634Y-113068100D01*
X163469634Y-113068100D02*
X163422462Y-113020929D01*
X163422462Y-113020929D02*
X163375291Y-112926586D01*
X148978984Y-59847005D02*
X149120498Y-59894177D01*
X149120498Y-59894177D02*
X149167669Y-59941348D01*
X149167669Y-59941348D02*
X149214841Y-60035691D01*
X149214841Y-60035691D02*
X149214841Y-60177205D01*
X149214841Y-60177205D02*
X149167669Y-60271548D01*
X149167669Y-60271548D02*
X149120498Y-60318720D01*
X149120498Y-60318720D02*
X149026155Y-60365891D01*
X149026155Y-60365891D02*
X148648784Y-60365891D01*
X148648784Y-60365891D02*
X148648784Y-59375291D01*
X148648784Y-59375291D02*
X148978984Y-59375291D01*
X148978984Y-59375291D02*
X149073327Y-59422462D01*
X149073327Y-59422462D02*
X149120498Y-59469634D01*
X149120498Y-59469634D02*
X149167669Y-59563977D01*
X149167669Y-59563977D02*
X149167669Y-59658320D01*
X149167669Y-59658320D02*
X149120498Y-59752662D01*
X149120498Y-59752662D02*
X149073327Y-59799834D01*
X149073327Y-59799834D02*
X148978984Y-59847005D01*
X148978984Y-59847005D02*
X148648784Y-59847005D01*
X149828069Y-59375291D02*
X150016755Y-59375291D01*
X150016755Y-59375291D02*
X150111098Y-59422462D01*
X150111098Y-59422462D02*
X150205441Y-59516805D01*
X150205441Y-59516805D02*
X150252612Y-59705491D01*
X150252612Y-59705491D02*
X150252612Y-60035691D01*
X150252612Y-60035691D02*
X150205441Y-60224377D01*
X150205441Y-60224377D02*
X150111098Y-60318720D01*
X150111098Y-60318720D02*
X150016755Y-60365891D01*
X150016755Y-60365891D02*
X149828069Y-60365891D01*
X149828069Y-60365891D02*
X149733727Y-60318720D01*
X149733727Y-60318720D02*
X149639384Y-60224377D01*
X149639384Y-60224377D02*
X149592212Y-60035691D01*
X149592212Y-60035691D02*
X149592212Y-59705491D01*
X149592212Y-59705491D02*
X149639384Y-59516805D01*
X149639384Y-59516805D02*
X149733727Y-59422462D01*
X149733727Y-59422462D02*
X149828069Y-59375291D01*
X150865840Y-59375291D02*
X151054526Y-59375291D01*
X151054526Y-59375291D02*
X151148869Y-59422462D01*
X151148869Y-59422462D02*
X151243212Y-59516805D01*
X151243212Y-59516805D02*
X151290383Y-59705491D01*
X151290383Y-59705491D02*
X151290383Y-60035691D01*
X151290383Y-60035691D02*
X151243212Y-60224377D01*
X151243212Y-60224377D02*
X151148869Y-60318720D01*
X151148869Y-60318720D02*
X151054526Y-60365891D01*
X151054526Y-60365891D02*
X150865840Y-60365891D01*
X150865840Y-60365891D02*
X150771498Y-60318720D01*
X150771498Y-60318720D02*
X150677155Y-60224377D01*
X150677155Y-60224377D02*
X150629983Y-60035691D01*
X150629983Y-60035691D02*
X150629983Y-59705491D01*
X150629983Y-59705491D02*
X150677155Y-59516805D01*
X150677155Y-59516805D02*
X150771498Y-59422462D01*
X150771498Y-59422462D02*
X150865840Y-59375291D01*
X151573411Y-59375291D02*
X152139469Y-59375291D01*
X151856440Y-60365891D02*
X151856440Y-59375291D01*
X122964841Y-60615891D02*
X122634641Y-60144177D01*
X122398784Y-60615891D02*
X122398784Y-59625291D01*
X122398784Y-59625291D02*
X122776155Y-59625291D01*
X122776155Y-59625291D02*
X122870498Y-59672462D01*
X122870498Y-59672462D02*
X122917669Y-59719634D01*
X122917669Y-59719634D02*
X122964841Y-59813977D01*
X122964841Y-59813977D02*
X122964841Y-59955491D01*
X122964841Y-59955491D02*
X122917669Y-60049834D01*
X122917669Y-60049834D02*
X122870498Y-60097005D01*
X122870498Y-60097005D02*
X122776155Y-60144177D01*
X122776155Y-60144177D02*
X122398784Y-60144177D01*
X123389384Y-60097005D02*
X123719584Y-60097005D01*
X123861098Y-60615891D02*
X123389384Y-60615891D01*
X123389384Y-60615891D02*
X123389384Y-59625291D01*
X123389384Y-59625291D02*
X123861098Y-59625291D01*
X124238469Y-60568720D02*
X124379984Y-60615891D01*
X124379984Y-60615891D02*
X124615841Y-60615891D01*
X124615841Y-60615891D02*
X124710184Y-60568720D01*
X124710184Y-60568720D02*
X124757355Y-60521548D01*
X124757355Y-60521548D02*
X124804526Y-60427205D01*
X124804526Y-60427205D02*
X124804526Y-60332862D01*
X124804526Y-60332862D02*
X124757355Y-60238520D01*
X124757355Y-60238520D02*
X124710184Y-60191348D01*
X124710184Y-60191348D02*
X124615841Y-60144177D01*
X124615841Y-60144177D02*
X124427155Y-60097005D01*
X124427155Y-60097005D02*
X124332812Y-60049834D01*
X124332812Y-60049834D02*
X124285641Y-60002662D01*
X124285641Y-60002662D02*
X124238469Y-59908320D01*
X124238469Y-59908320D02*
X124238469Y-59813977D01*
X124238469Y-59813977D02*
X124285641Y-59719634D01*
X124285641Y-59719634D02*
X124332812Y-59672462D01*
X124332812Y-59672462D02*
X124427155Y-59625291D01*
X124427155Y-59625291D02*
X124663012Y-59625291D01*
X124663012Y-59625291D02*
X124804526Y-59672462D01*
X125229070Y-60097005D02*
X125559270Y-60097005D01*
X125700784Y-60615891D02*
X125229070Y-60615891D01*
X125229070Y-60615891D02*
X125229070Y-59625291D01*
X125229070Y-59625291D02*
X125700784Y-59625291D01*
X125983812Y-59625291D02*
X126549870Y-59625291D01*
X126266841Y-60615891D02*
X126266841Y-59625291D01*
D11*
X152761905Y-99954819D02*
X152761905Y-98954819D01*
X152761905Y-98954819D02*
X153000000Y-98954819D01*
X153000000Y-98954819D02*
X153142857Y-99002438D01*
X153142857Y-99002438D02*
X153238095Y-99097676D01*
X153238095Y-99097676D02*
X153285714Y-99192914D01*
X153285714Y-99192914D02*
X153333333Y-99383390D01*
X153333333Y-99383390D02*
X153333333Y-99526247D01*
X153333333Y-99526247D02*
X153285714Y-99716723D01*
X153285714Y-99716723D02*
X153238095Y-99811961D01*
X153238095Y-99811961D02*
X153142857Y-99907200D01*
X153142857Y-99907200D02*
X153000000Y-99954819D01*
X153000000Y-99954819D02*
X152761905Y-99954819D01*
X153714286Y-99050057D02*
X153761905Y-99002438D01*
X153761905Y-99002438D02*
X153857143Y-98954819D01*
X153857143Y-98954819D02*
X154095238Y-98954819D01*
X154095238Y-98954819D02*
X154190476Y-99002438D01*
X154190476Y-99002438D02*
X154238095Y-99050057D01*
X154238095Y-99050057D02*
X154285714Y-99145295D01*
X154285714Y-99145295D02*
X154285714Y-99240533D01*
X154285714Y-99240533D02*
X154238095Y-99383390D01*
X154238095Y-99383390D02*
X153666667Y-99954819D01*
X153666667Y-99954819D02*
X154285714Y-99954819D01*
X115357142Y-102859580D02*
X115309523Y-102907200D01*
X115309523Y-102907200D02*
X115166666Y-102954819D01*
X115166666Y-102954819D02*
X115071428Y-102954819D01*
X115071428Y-102954819D02*
X114928571Y-102907200D01*
X114928571Y-102907200D02*
X114833333Y-102811961D01*
X114833333Y-102811961D02*
X114785714Y-102716723D01*
X114785714Y-102716723D02*
X114738095Y-102526247D01*
X114738095Y-102526247D02*
X114738095Y-102383390D01*
X114738095Y-102383390D02*
X114785714Y-102192914D01*
X114785714Y-102192914D02*
X114833333Y-102097676D01*
X114833333Y-102097676D02*
X114928571Y-102002438D01*
X114928571Y-102002438D02*
X115071428Y-101954819D01*
X115071428Y-101954819D02*
X115166666Y-101954819D01*
X115166666Y-101954819D02*
X115309523Y-102002438D01*
X115309523Y-102002438D02*
X115357142Y-102050057D01*
X116309523Y-102954819D02*
X115738095Y-102954819D01*
X116023809Y-102954819D02*
X116023809Y-101954819D01*
X116023809Y-101954819D02*
X115928571Y-102097676D01*
X115928571Y-102097676D02*
X115833333Y-102192914D01*
X115833333Y-102192914D02*
X115738095Y-102240533D01*
X116690476Y-102050057D02*
X116738095Y-102002438D01*
X116738095Y-102002438D02*
X116833333Y-101954819D01*
X116833333Y-101954819D02*
X117071428Y-101954819D01*
X117071428Y-101954819D02*
X117166666Y-102002438D01*
X117166666Y-102002438D02*
X117214285Y-102050057D01*
X117214285Y-102050057D02*
X117261904Y-102145295D01*
X117261904Y-102145295D02*
X117261904Y-102240533D01*
X117261904Y-102240533D02*
X117214285Y-102383390D01*
X117214285Y-102383390D02*
X116642857Y-102954819D01*
X116642857Y-102954819D02*
X117261904Y-102954819D01*
X153833333Y-87204819D02*
X153500000Y-86728628D01*
X153261905Y-87204819D02*
X153261905Y-86204819D01*
X153261905Y-86204819D02*
X153642857Y-86204819D01*
X153642857Y-86204819D02*
X153738095Y-86252438D01*
X153738095Y-86252438D02*
X153785714Y-86300057D01*
X153785714Y-86300057D02*
X153833333Y-86395295D01*
X153833333Y-86395295D02*
X153833333Y-86538152D01*
X153833333Y-86538152D02*
X153785714Y-86633390D01*
X153785714Y-86633390D02*
X153738095Y-86681009D01*
X153738095Y-86681009D02*
X153642857Y-86728628D01*
X153642857Y-86728628D02*
X153261905Y-86728628D01*
X154166667Y-86204819D02*
X154785714Y-86204819D01*
X154785714Y-86204819D02*
X154452381Y-86585771D01*
X154452381Y-86585771D02*
X154595238Y-86585771D01*
X154595238Y-86585771D02*
X154690476Y-86633390D01*
X154690476Y-86633390D02*
X154738095Y-86681009D01*
X154738095Y-86681009D02*
X154785714Y-86776247D01*
X154785714Y-86776247D02*
X154785714Y-87014342D01*
X154785714Y-87014342D02*
X154738095Y-87109580D01*
X154738095Y-87109580D02*
X154690476Y-87157200D01*
X154690476Y-87157200D02*
X154595238Y-87204819D01*
X154595238Y-87204819D02*
X154309524Y-87204819D01*
X154309524Y-87204819D02*
X154214286Y-87157200D01*
X154214286Y-87157200D02*
X154166667Y-87109580D01*
X139083333Y-99859580D02*
X139035714Y-99907200D01*
X139035714Y-99907200D02*
X138892857Y-99954819D01*
X138892857Y-99954819D02*
X138797619Y-99954819D01*
X138797619Y-99954819D02*
X138654762Y-99907200D01*
X138654762Y-99907200D02*
X138559524Y-99811961D01*
X138559524Y-99811961D02*
X138511905Y-99716723D01*
X138511905Y-99716723D02*
X138464286Y-99526247D01*
X138464286Y-99526247D02*
X138464286Y-99383390D01*
X138464286Y-99383390D02*
X138511905Y-99192914D01*
X138511905Y-99192914D02*
X138559524Y-99097676D01*
X138559524Y-99097676D02*
X138654762Y-99002438D01*
X138654762Y-99002438D02*
X138797619Y-98954819D01*
X138797619Y-98954819D02*
X138892857Y-98954819D01*
X138892857Y-98954819D02*
X139035714Y-99002438D01*
X139035714Y-99002438D02*
X139083333Y-99050057D01*
X139654762Y-99383390D02*
X139559524Y-99335771D01*
X139559524Y-99335771D02*
X139511905Y-99288152D01*
X139511905Y-99288152D02*
X139464286Y-99192914D01*
X139464286Y-99192914D02*
X139464286Y-99145295D01*
X139464286Y-99145295D02*
X139511905Y-99050057D01*
X139511905Y-99050057D02*
X139559524Y-99002438D01*
X139559524Y-99002438D02*
X139654762Y-98954819D01*
X139654762Y-98954819D02*
X139845238Y-98954819D01*
X139845238Y-98954819D02*
X139940476Y-99002438D01*
X139940476Y-99002438D02*
X139988095Y-99050057D01*
X139988095Y-99050057D02*
X140035714Y-99145295D01*
X140035714Y-99145295D02*
X140035714Y-99192914D01*
X140035714Y-99192914D02*
X139988095Y-99288152D01*
X139988095Y-99288152D02*
X139940476Y-99335771D01*
X139940476Y-99335771D02*
X139845238Y-99383390D01*
X139845238Y-99383390D02*
X139654762Y-99383390D01*
X139654762Y-99383390D02*
X139559524Y-99431009D01*
X139559524Y-99431009D02*
X139511905Y-99478628D01*
X139511905Y-99478628D02*
X139464286Y-99573866D01*
X139464286Y-99573866D02*
X139464286Y-99764342D01*
X139464286Y-99764342D02*
X139511905Y-99859580D01*
X139511905Y-99859580D02*
X139559524Y-99907200D01*
X139559524Y-99907200D02*
X139654762Y-99954819D01*
X139654762Y-99954819D02*
X139845238Y-99954819D01*
X139845238Y-99954819D02*
X139940476Y-99907200D01*
X139940476Y-99907200D02*
X139988095Y-99859580D01*
X139988095Y-99859580D02*
X140035714Y-99764342D01*
X140035714Y-99764342D02*
X140035714Y-99573866D01*
X140035714Y-99573866D02*
X139988095Y-99478628D01*
X139988095Y-99478628D02*
X139940476Y-99431009D01*
X139940476Y-99431009D02*
X139845238Y-99383390D01*
X123204819Y-91416666D02*
X122728628Y-91749999D01*
X123204819Y-91988094D02*
X122204819Y-91988094D01*
X122204819Y-91988094D02*
X122204819Y-91607142D01*
X122204819Y-91607142D02*
X122252438Y-91511904D01*
X122252438Y-91511904D02*
X122300057Y-91464285D01*
X122300057Y-91464285D02*
X122395295Y-91416666D01*
X122395295Y-91416666D02*
X122538152Y-91416666D01*
X122538152Y-91416666D02*
X122633390Y-91464285D01*
X122633390Y-91464285D02*
X122681009Y-91511904D01*
X122681009Y-91511904D02*
X122728628Y-91607142D01*
X122728628Y-91607142D02*
X122728628Y-91988094D01*
X123204819Y-90940475D02*
X123204819Y-90749999D01*
X123204819Y-90749999D02*
X123157200Y-90654761D01*
X123157200Y-90654761D02*
X123109580Y-90607142D01*
X123109580Y-90607142D02*
X122966723Y-90511904D01*
X122966723Y-90511904D02*
X122776247Y-90464285D01*
X122776247Y-90464285D02*
X122395295Y-90464285D01*
X122395295Y-90464285D02*
X122300057Y-90511904D01*
X122300057Y-90511904D02*
X122252438Y-90559523D01*
X122252438Y-90559523D02*
X122204819Y-90654761D01*
X122204819Y-90654761D02*
X122204819Y-90845237D01*
X122204819Y-90845237D02*
X122252438Y-90940475D01*
X122252438Y-90940475D02*
X122300057Y-90988094D01*
X122300057Y-90988094D02*
X122395295Y-91035713D01*
X122395295Y-91035713D02*
X122633390Y-91035713D01*
X122633390Y-91035713D02*
X122728628Y-90988094D01*
X122728628Y-90988094D02*
X122776247Y-90940475D01*
X122776247Y-90940475D02*
X122823866Y-90845237D01*
X122823866Y-90845237D02*
X122823866Y-90654761D01*
X122823866Y-90654761D02*
X122776247Y-90559523D01*
X122776247Y-90559523D02*
X122728628Y-90511904D01*
X122728628Y-90511904D02*
X122633390Y-90464285D01*
X126170833Y-100054819D02*
X125837500Y-99578628D01*
X125599405Y-100054819D02*
X125599405Y-99054819D01*
X125599405Y-99054819D02*
X125980357Y-99054819D01*
X125980357Y-99054819D02*
X126075595Y-99102438D01*
X126075595Y-99102438D02*
X126123214Y-99150057D01*
X126123214Y-99150057D02*
X126170833Y-99245295D01*
X126170833Y-99245295D02*
X126170833Y-99388152D01*
X126170833Y-99388152D02*
X126123214Y-99483390D01*
X126123214Y-99483390D02*
X126075595Y-99531009D01*
X126075595Y-99531009D02*
X125980357Y-99578628D01*
X125980357Y-99578628D02*
X125599405Y-99578628D01*
X127075595Y-99054819D02*
X126599405Y-99054819D01*
X126599405Y-99054819D02*
X126551786Y-99531009D01*
X126551786Y-99531009D02*
X126599405Y-99483390D01*
X126599405Y-99483390D02*
X126694643Y-99435771D01*
X126694643Y-99435771D02*
X126932738Y-99435771D01*
X126932738Y-99435771D02*
X127027976Y-99483390D01*
X127027976Y-99483390D02*
X127075595Y-99531009D01*
X127075595Y-99531009D02*
X127123214Y-99626247D01*
X127123214Y-99626247D02*
X127123214Y-99864342D01*
X127123214Y-99864342D02*
X127075595Y-99959580D01*
X127075595Y-99959580D02*
X127027976Y-100007200D01*
X127027976Y-100007200D02*
X126932738Y-100054819D01*
X126932738Y-100054819D02*
X126694643Y-100054819D01*
X126694643Y-100054819D02*
X126599405Y-100007200D01*
X126599405Y-100007200D02*
X126551786Y-99959580D01*
X115488095Y-110704819D02*
X115488095Y-111514342D01*
X115488095Y-111514342D02*
X115535714Y-111609580D01*
X115535714Y-111609580D02*
X115583333Y-111657200D01*
X115583333Y-111657200D02*
X115678571Y-111704819D01*
X115678571Y-111704819D02*
X115869047Y-111704819D01*
X115869047Y-111704819D02*
X115964285Y-111657200D01*
X115964285Y-111657200D02*
X116011904Y-111609580D01*
X116011904Y-111609580D02*
X116059523Y-111514342D01*
X116059523Y-111514342D02*
X116059523Y-110704819D01*
X116964285Y-111038152D02*
X116964285Y-111704819D01*
X116726190Y-110657200D02*
X116488095Y-111371485D01*
X116488095Y-111371485D02*
X117107142Y-111371485D01*
X112750000Y-106154817D02*
X112750000Y-106392912D01*
X112511905Y-106297674D02*
X112750000Y-106392912D01*
X112750000Y-106392912D02*
X112988095Y-106297674D01*
X112607143Y-106583388D02*
X112750000Y-106392912D01*
X112750000Y-106392912D02*
X112892857Y-106583388D01*
X123609580Y-77892857D02*
X123657200Y-77940476D01*
X123657200Y-77940476D02*
X123704819Y-78083333D01*
X123704819Y-78083333D02*
X123704819Y-78178571D01*
X123704819Y-78178571D02*
X123657200Y-78321428D01*
X123657200Y-78321428D02*
X123561961Y-78416666D01*
X123561961Y-78416666D02*
X123466723Y-78464285D01*
X123466723Y-78464285D02*
X123276247Y-78511904D01*
X123276247Y-78511904D02*
X123133390Y-78511904D01*
X123133390Y-78511904D02*
X122942914Y-78464285D01*
X122942914Y-78464285D02*
X122847676Y-78416666D01*
X122847676Y-78416666D02*
X122752438Y-78321428D01*
X122752438Y-78321428D02*
X122704819Y-78178571D01*
X122704819Y-78178571D02*
X122704819Y-78083333D01*
X122704819Y-78083333D02*
X122752438Y-77940476D01*
X122752438Y-77940476D02*
X122800057Y-77892857D01*
X123704819Y-76940476D02*
X123704819Y-77511904D01*
X123704819Y-77226190D02*
X122704819Y-77226190D01*
X122704819Y-77226190D02*
X122847676Y-77321428D01*
X122847676Y-77321428D02*
X122942914Y-77416666D01*
X122942914Y-77416666D02*
X122990533Y-77511904D01*
X122704819Y-76321428D02*
X122704819Y-76226190D01*
X122704819Y-76226190D02*
X122752438Y-76130952D01*
X122752438Y-76130952D02*
X122800057Y-76083333D01*
X122800057Y-76083333D02*
X122895295Y-76035714D01*
X122895295Y-76035714D02*
X123085771Y-75988095D01*
X123085771Y-75988095D02*
X123323866Y-75988095D01*
X123323866Y-75988095D02*
X123514342Y-76035714D01*
X123514342Y-76035714D02*
X123609580Y-76083333D01*
X123609580Y-76083333D02*
X123657200Y-76130952D01*
X123657200Y-76130952D02*
X123704819Y-76226190D01*
X123704819Y-76226190D02*
X123704819Y-76321428D01*
X123704819Y-76321428D02*
X123657200Y-76416666D01*
X123657200Y-76416666D02*
X123609580Y-76464285D01*
X123609580Y-76464285D02*
X123514342Y-76511904D01*
X123514342Y-76511904D02*
X123323866Y-76559523D01*
X123323866Y-76559523D02*
X123085771Y-76559523D01*
X123085771Y-76559523D02*
X122895295Y-76511904D01*
X122895295Y-76511904D02*
X122800057Y-76464285D01*
X122800057Y-76464285D02*
X122752438Y-76416666D01*
X122752438Y-76416666D02*
X122704819Y-76321428D01*
X120833333Y-104609580D02*
X120785714Y-104657200D01*
X120785714Y-104657200D02*
X120642857Y-104704819D01*
X120642857Y-104704819D02*
X120547619Y-104704819D01*
X120547619Y-104704819D02*
X120404762Y-104657200D01*
X120404762Y-104657200D02*
X120309524Y-104561961D01*
X120309524Y-104561961D02*
X120261905Y-104466723D01*
X120261905Y-104466723D02*
X120214286Y-104276247D01*
X120214286Y-104276247D02*
X120214286Y-104133390D01*
X120214286Y-104133390D02*
X120261905Y-103942914D01*
X120261905Y-103942914D02*
X120309524Y-103847676D01*
X120309524Y-103847676D02*
X120404762Y-103752438D01*
X120404762Y-103752438D02*
X120547619Y-103704819D01*
X120547619Y-103704819D02*
X120642857Y-103704819D01*
X120642857Y-103704819D02*
X120785714Y-103752438D01*
X120785714Y-103752438D02*
X120833333Y-103800057D01*
X121738095Y-103704819D02*
X121261905Y-103704819D01*
X121261905Y-103704819D02*
X121214286Y-104181009D01*
X121214286Y-104181009D02*
X121261905Y-104133390D01*
X121261905Y-104133390D02*
X121357143Y-104085771D01*
X121357143Y-104085771D02*
X121595238Y-104085771D01*
X121595238Y-104085771D02*
X121690476Y-104133390D01*
X121690476Y-104133390D02*
X121738095Y-104181009D01*
X121738095Y-104181009D02*
X121785714Y-104276247D01*
X121785714Y-104276247D02*
X121785714Y-104514342D01*
X121785714Y-104514342D02*
X121738095Y-104609580D01*
X121738095Y-104609580D02*
X121690476Y-104657200D01*
X121690476Y-104657200D02*
X121595238Y-104704819D01*
X121595238Y-104704819D02*
X121357143Y-104704819D01*
X121357143Y-104704819D02*
X121261905Y-104657200D01*
X121261905Y-104657200D02*
X121214286Y-104609580D01*
X124129819Y-97892857D02*
X123653628Y-98226190D01*
X124129819Y-98464285D02*
X123129819Y-98464285D01*
X123129819Y-98464285D02*
X123129819Y-98083333D01*
X123129819Y-98083333D02*
X123177438Y-97988095D01*
X123177438Y-97988095D02*
X123225057Y-97940476D01*
X123225057Y-97940476D02*
X123320295Y-97892857D01*
X123320295Y-97892857D02*
X123463152Y-97892857D01*
X123463152Y-97892857D02*
X123558390Y-97940476D01*
X123558390Y-97940476D02*
X123606009Y-97988095D01*
X123606009Y-97988095D02*
X123653628Y-98083333D01*
X123653628Y-98083333D02*
X123653628Y-98464285D01*
X124129819Y-96940476D02*
X124129819Y-97511904D01*
X124129819Y-97226190D02*
X123129819Y-97226190D01*
X123129819Y-97226190D02*
X123272676Y-97321428D01*
X123272676Y-97321428D02*
X123367914Y-97416666D01*
X123367914Y-97416666D02*
X123415533Y-97511904D01*
X123129819Y-96321428D02*
X123129819Y-96226190D01*
X123129819Y-96226190D02*
X123177438Y-96130952D01*
X123177438Y-96130952D02*
X123225057Y-96083333D01*
X123225057Y-96083333D02*
X123320295Y-96035714D01*
X123320295Y-96035714D02*
X123510771Y-95988095D01*
X123510771Y-95988095D02*
X123748866Y-95988095D01*
X123748866Y-95988095D02*
X123939342Y-96035714D01*
X123939342Y-96035714D02*
X124034580Y-96083333D01*
X124034580Y-96083333D02*
X124082200Y-96130952D01*
X124082200Y-96130952D02*
X124129819Y-96226190D01*
X124129819Y-96226190D02*
X124129819Y-96321428D01*
X124129819Y-96321428D02*
X124082200Y-96416666D01*
X124082200Y-96416666D02*
X124034580Y-96464285D01*
X124034580Y-96464285D02*
X123939342Y-96511904D01*
X123939342Y-96511904D02*
X123748866Y-96559523D01*
X123748866Y-96559523D02*
X123510771Y-96559523D01*
X123510771Y-96559523D02*
X123320295Y-96511904D01*
X123320295Y-96511904D02*
X123225057Y-96464285D01*
X123225057Y-96464285D02*
X123177438Y-96416666D01*
X123177438Y-96416666D02*
X123129819Y-96321428D01*
X124704819Y-91988094D02*
X123704819Y-91988094D01*
X123704819Y-91988094D02*
X123704819Y-91749999D01*
X123704819Y-91749999D02*
X123752438Y-91607142D01*
X123752438Y-91607142D02*
X123847676Y-91511904D01*
X123847676Y-91511904D02*
X123942914Y-91464285D01*
X123942914Y-91464285D02*
X124133390Y-91416666D01*
X124133390Y-91416666D02*
X124276247Y-91416666D01*
X124276247Y-91416666D02*
X124466723Y-91464285D01*
X124466723Y-91464285D02*
X124561961Y-91511904D01*
X124561961Y-91511904D02*
X124657200Y-91607142D01*
X124657200Y-91607142D02*
X124704819Y-91749999D01*
X124704819Y-91749999D02*
X124704819Y-91988094D01*
X124038152Y-90559523D02*
X124704819Y-90559523D01*
X123657200Y-90797618D02*
X124371485Y-91035713D01*
X124371485Y-91035713D02*
X124371485Y-90416666D01*
X156761905Y-115704819D02*
X156761905Y-114704819D01*
X156761905Y-114704819D02*
X157000000Y-114704819D01*
X157000000Y-114704819D02*
X157142857Y-114752438D01*
X157142857Y-114752438D02*
X157238095Y-114847676D01*
X157238095Y-114847676D02*
X157285714Y-114942914D01*
X157285714Y-114942914D02*
X157333333Y-115133390D01*
X157333333Y-115133390D02*
X157333333Y-115276247D01*
X157333333Y-115276247D02*
X157285714Y-115466723D01*
X157285714Y-115466723D02*
X157238095Y-115561961D01*
X157238095Y-115561961D02*
X157142857Y-115657200D01*
X157142857Y-115657200D02*
X157000000Y-115704819D01*
X157000000Y-115704819D02*
X156761905Y-115704819D01*
X157666667Y-114704819D02*
X158333333Y-114704819D01*
X158333333Y-114704819D02*
X157904762Y-115704819D01*
X125583333Y-78359580D02*
X125535714Y-78407200D01*
X125535714Y-78407200D02*
X125392857Y-78454819D01*
X125392857Y-78454819D02*
X125297619Y-78454819D01*
X125297619Y-78454819D02*
X125154762Y-78407200D01*
X125154762Y-78407200D02*
X125059524Y-78311961D01*
X125059524Y-78311961D02*
X125011905Y-78216723D01*
X125011905Y-78216723D02*
X124964286Y-78026247D01*
X124964286Y-78026247D02*
X124964286Y-77883390D01*
X124964286Y-77883390D02*
X125011905Y-77692914D01*
X125011905Y-77692914D02*
X125059524Y-77597676D01*
X125059524Y-77597676D02*
X125154762Y-77502438D01*
X125154762Y-77502438D02*
X125297619Y-77454819D01*
X125297619Y-77454819D02*
X125392857Y-77454819D01*
X125392857Y-77454819D02*
X125535714Y-77502438D01*
X125535714Y-77502438D02*
X125583333Y-77550057D01*
X125916667Y-77454819D02*
X126583333Y-77454819D01*
X126583333Y-77454819D02*
X126154762Y-78454819D01*
X116416666Y-114704819D02*
X116416666Y-115419104D01*
X116416666Y-115419104D02*
X116369047Y-115561961D01*
X116369047Y-115561961D02*
X116273809Y-115657200D01*
X116273809Y-115657200D02*
X116130952Y-115704819D01*
X116130952Y-115704819D02*
X116035714Y-115704819D01*
X117416666Y-115704819D02*
X116845238Y-115704819D01*
X117130952Y-115704819D02*
X117130952Y-114704819D01*
X117130952Y-114704819D02*
X117035714Y-114847676D01*
X117035714Y-114847676D02*
X116940476Y-114942914D01*
X116940476Y-114942914D02*
X116845238Y-114990533D01*
X149416666Y-114704819D02*
X149416666Y-115419104D01*
X149416666Y-115419104D02*
X149369047Y-115561961D01*
X149369047Y-115561961D02*
X149273809Y-115657200D01*
X149273809Y-115657200D02*
X149130952Y-115704819D01*
X149130952Y-115704819D02*
X149035714Y-115704819D01*
X149845238Y-114800057D02*
X149892857Y-114752438D01*
X149892857Y-114752438D02*
X149988095Y-114704819D01*
X149988095Y-114704819D02*
X150226190Y-114704819D01*
X150226190Y-114704819D02*
X150321428Y-114752438D01*
X150321428Y-114752438D02*
X150369047Y-114800057D01*
X150369047Y-114800057D02*
X150416666Y-114895295D01*
X150416666Y-114895295D02*
X150416666Y-114990533D01*
X150416666Y-114990533D02*
X150369047Y-115133390D01*
X150369047Y-115133390D02*
X149797619Y-115704819D01*
X149797619Y-115704819D02*
X150416666Y-115704819D01*
X117333333Y-78054819D02*
X117000000Y-77578628D01*
X116761905Y-78054819D02*
X116761905Y-77054819D01*
X116761905Y-77054819D02*
X117142857Y-77054819D01*
X117142857Y-77054819D02*
X117238095Y-77102438D01*
X117238095Y-77102438D02*
X117285714Y-77150057D01*
X117285714Y-77150057D02*
X117333333Y-77245295D01*
X117333333Y-77245295D02*
X117333333Y-77388152D01*
X117333333Y-77388152D02*
X117285714Y-77483390D01*
X117285714Y-77483390D02*
X117238095Y-77531009D01*
X117238095Y-77531009D02*
X117142857Y-77578628D01*
X117142857Y-77578628D02*
X116761905Y-77578628D01*
X117714286Y-77150057D02*
X117761905Y-77102438D01*
X117761905Y-77102438D02*
X117857143Y-77054819D01*
X117857143Y-77054819D02*
X118095238Y-77054819D01*
X118095238Y-77054819D02*
X118190476Y-77102438D01*
X118190476Y-77102438D02*
X118238095Y-77150057D01*
X118238095Y-77150057D02*
X118285714Y-77245295D01*
X118285714Y-77245295D02*
X118285714Y-77340533D01*
X118285714Y-77340533D02*
X118238095Y-77483390D01*
X118238095Y-77483390D02*
X117666667Y-78054819D01*
X117666667Y-78054819D02*
X118285714Y-78054819D01*
X157011905Y-109704819D02*
X157011905Y-108704819D01*
X157011905Y-108704819D02*
X157250000Y-108704819D01*
X157250000Y-108704819D02*
X157392857Y-108752438D01*
X157392857Y-108752438D02*
X157488095Y-108847676D01*
X157488095Y-108847676D02*
X157535714Y-108942914D01*
X157535714Y-108942914D02*
X157583333Y-109133390D01*
X157583333Y-109133390D02*
X157583333Y-109276247D01*
X157583333Y-109276247D02*
X157535714Y-109466723D01*
X157535714Y-109466723D02*
X157488095Y-109561961D01*
X157488095Y-109561961D02*
X157392857Y-109657200D01*
X157392857Y-109657200D02*
X157250000Y-109704819D01*
X157250000Y-109704819D02*
X157011905Y-109704819D01*
X158440476Y-108704819D02*
X158250000Y-108704819D01*
X158250000Y-108704819D02*
X158154762Y-108752438D01*
X158154762Y-108752438D02*
X158107143Y-108800057D01*
X158107143Y-108800057D02*
X158011905Y-108942914D01*
X158011905Y-108942914D02*
X157964286Y-109133390D01*
X157964286Y-109133390D02*
X157964286Y-109514342D01*
X157964286Y-109514342D02*
X158011905Y-109609580D01*
X158011905Y-109609580D02*
X158059524Y-109657200D01*
X158059524Y-109657200D02*
X158154762Y-109704819D01*
X158154762Y-109704819D02*
X158345238Y-109704819D01*
X158345238Y-109704819D02*
X158440476Y-109657200D01*
X158440476Y-109657200D02*
X158488095Y-109609580D01*
X158488095Y-109609580D02*
X158535714Y-109514342D01*
X158535714Y-109514342D02*
X158535714Y-109276247D01*
X158535714Y-109276247D02*
X158488095Y-109181009D01*
X158488095Y-109181009D02*
X158440476Y-109133390D01*
X158440476Y-109133390D02*
X158345238Y-109085771D01*
X158345238Y-109085771D02*
X158154762Y-109085771D01*
X158154762Y-109085771D02*
X158059524Y-109133390D01*
X158059524Y-109133390D02*
X158011905Y-109181009D01*
X158011905Y-109181009D02*
X157964286Y-109276247D01*
X135940476Y-60454819D02*
X135940476Y-61169104D01*
X135940476Y-61169104D02*
X135892857Y-61311961D01*
X135892857Y-61311961D02*
X135797619Y-61407200D01*
X135797619Y-61407200D02*
X135654762Y-61454819D01*
X135654762Y-61454819D02*
X135559524Y-61454819D01*
X136940476Y-61454819D02*
X136369048Y-61454819D01*
X136654762Y-61454819D02*
X136654762Y-60454819D01*
X136654762Y-60454819D02*
X136559524Y-60597676D01*
X136559524Y-60597676D02*
X136464286Y-60692914D01*
X136464286Y-60692914D02*
X136369048Y-60740533D01*
X137892857Y-61454819D02*
X137321429Y-61454819D01*
X137607143Y-61454819D02*
X137607143Y-60454819D01*
X137607143Y-60454819D02*
X137511905Y-60597676D01*
X137511905Y-60597676D02*
X137416667Y-60692914D01*
X137416667Y-60692914D02*
X137321429Y-60740533D01*
X147107142Y-101104819D02*
X146773809Y-100628628D01*
X146535714Y-101104819D02*
X146535714Y-100104819D01*
X146535714Y-100104819D02*
X146916666Y-100104819D01*
X146916666Y-100104819D02*
X147011904Y-100152438D01*
X147011904Y-100152438D02*
X147059523Y-100200057D01*
X147059523Y-100200057D02*
X147107142Y-100295295D01*
X147107142Y-100295295D02*
X147107142Y-100438152D01*
X147107142Y-100438152D02*
X147059523Y-100533390D01*
X147059523Y-100533390D02*
X147011904Y-100581009D01*
X147011904Y-100581009D02*
X146916666Y-100628628D01*
X146916666Y-100628628D02*
X146535714Y-100628628D01*
X148059523Y-101104819D02*
X147488095Y-101104819D01*
X147773809Y-101104819D02*
X147773809Y-100104819D01*
X147773809Y-100104819D02*
X147678571Y-100247676D01*
X147678571Y-100247676D02*
X147583333Y-100342914D01*
X147583333Y-100342914D02*
X147488095Y-100390533D01*
X148440476Y-100200057D02*
X148488095Y-100152438D01*
X148488095Y-100152438D02*
X148583333Y-100104819D01*
X148583333Y-100104819D02*
X148821428Y-100104819D01*
X148821428Y-100104819D02*
X148916666Y-100152438D01*
X148916666Y-100152438D02*
X148964285Y-100200057D01*
X148964285Y-100200057D02*
X149011904Y-100295295D01*
X149011904Y-100295295D02*
X149011904Y-100390533D01*
X149011904Y-100390533D02*
X148964285Y-100533390D01*
X148964285Y-100533390D02*
X148392857Y-101104819D01*
X148392857Y-101104819D02*
X149011904Y-101104819D01*
X155333333Y-102454819D02*
X155000000Y-101978628D01*
X154761905Y-102454819D02*
X154761905Y-101454819D01*
X154761905Y-101454819D02*
X155142857Y-101454819D01*
X155142857Y-101454819D02*
X155238095Y-101502438D01*
X155238095Y-101502438D02*
X155285714Y-101550057D01*
X155285714Y-101550057D02*
X155333333Y-101645295D01*
X155333333Y-101645295D02*
X155333333Y-101788152D01*
X155333333Y-101788152D02*
X155285714Y-101883390D01*
X155285714Y-101883390D02*
X155238095Y-101931009D01*
X155238095Y-101931009D02*
X155142857Y-101978628D01*
X155142857Y-101978628D02*
X154761905Y-101978628D01*
X156190476Y-101454819D02*
X156000000Y-101454819D01*
X156000000Y-101454819D02*
X155904762Y-101502438D01*
X155904762Y-101502438D02*
X155857143Y-101550057D01*
X155857143Y-101550057D02*
X155761905Y-101692914D01*
X155761905Y-101692914D02*
X155714286Y-101883390D01*
X155714286Y-101883390D02*
X155714286Y-102264342D01*
X155714286Y-102264342D02*
X155761905Y-102359580D01*
X155761905Y-102359580D02*
X155809524Y-102407200D01*
X155809524Y-102407200D02*
X155904762Y-102454819D01*
X155904762Y-102454819D02*
X156095238Y-102454819D01*
X156095238Y-102454819D02*
X156190476Y-102407200D01*
X156190476Y-102407200D02*
X156238095Y-102359580D01*
X156238095Y-102359580D02*
X156285714Y-102264342D01*
X156285714Y-102264342D02*
X156285714Y-102026247D01*
X156285714Y-102026247D02*
X156238095Y-101931009D01*
X156238095Y-101931009D02*
X156190476Y-101883390D01*
X156190476Y-101883390D02*
X156095238Y-101835771D01*
X156095238Y-101835771D02*
X155904762Y-101835771D01*
X155904762Y-101835771D02*
X155809524Y-101883390D01*
X155809524Y-101883390D02*
X155761905Y-101931009D01*
X155761905Y-101931009D02*
X155714286Y-102026247D01*
X152761905Y-91454819D02*
X152761905Y-90454819D01*
X152761905Y-90454819D02*
X153000000Y-90454819D01*
X153000000Y-90454819D02*
X153142857Y-90502438D01*
X153142857Y-90502438D02*
X153238095Y-90597676D01*
X153238095Y-90597676D02*
X153285714Y-90692914D01*
X153285714Y-90692914D02*
X153333333Y-90883390D01*
X153333333Y-90883390D02*
X153333333Y-91026247D01*
X153333333Y-91026247D02*
X153285714Y-91216723D01*
X153285714Y-91216723D02*
X153238095Y-91311961D01*
X153238095Y-91311961D02*
X153142857Y-91407200D01*
X153142857Y-91407200D02*
X153000000Y-91454819D01*
X153000000Y-91454819D02*
X152761905Y-91454819D01*
X154285714Y-91454819D02*
X153714286Y-91454819D01*
X154000000Y-91454819D02*
X154000000Y-90454819D01*
X154000000Y-90454819D02*
X153904762Y-90597676D01*
X153904762Y-90597676D02*
X153809524Y-90692914D01*
X153809524Y-90692914D02*
X153714286Y-90740533D01*
X122670833Y-100054819D02*
X122337500Y-99578628D01*
X122099405Y-100054819D02*
X122099405Y-99054819D01*
X122099405Y-99054819D02*
X122480357Y-99054819D01*
X122480357Y-99054819D02*
X122575595Y-99102438D01*
X122575595Y-99102438D02*
X122623214Y-99150057D01*
X122623214Y-99150057D02*
X122670833Y-99245295D01*
X122670833Y-99245295D02*
X122670833Y-99388152D01*
X122670833Y-99388152D02*
X122623214Y-99483390D01*
X122623214Y-99483390D02*
X122575595Y-99531009D01*
X122575595Y-99531009D02*
X122480357Y-99578628D01*
X122480357Y-99578628D02*
X122099405Y-99578628D01*
X123527976Y-99388152D02*
X123527976Y-100054819D01*
X123289881Y-99007200D02*
X123051786Y-99721485D01*
X123051786Y-99721485D02*
X123670833Y-99721485D01*
X128979819Y-107761904D02*
X129789342Y-107761904D01*
X129789342Y-107761904D02*
X129884580Y-107714285D01*
X129884580Y-107714285D02*
X129932200Y-107666666D01*
X129932200Y-107666666D02*
X129979819Y-107571428D01*
X129979819Y-107571428D02*
X129979819Y-107380952D01*
X129979819Y-107380952D02*
X129932200Y-107285714D01*
X129932200Y-107285714D02*
X129884580Y-107238095D01*
X129884580Y-107238095D02*
X129789342Y-107190476D01*
X129789342Y-107190476D02*
X128979819Y-107190476D01*
X128979819Y-106238095D02*
X128979819Y-106714285D01*
X128979819Y-106714285D02*
X129456009Y-106761904D01*
X129456009Y-106761904D02*
X129408390Y-106714285D01*
X129408390Y-106714285D02*
X129360771Y-106619047D01*
X129360771Y-106619047D02*
X129360771Y-106380952D01*
X129360771Y-106380952D02*
X129408390Y-106285714D01*
X129408390Y-106285714D02*
X129456009Y-106238095D01*
X129456009Y-106238095D02*
X129551247Y-106190476D01*
X129551247Y-106190476D02*
X129789342Y-106190476D01*
X129789342Y-106190476D02*
X129884580Y-106238095D01*
X129884580Y-106238095D02*
X129932200Y-106285714D01*
X129932200Y-106285714D02*
X129979819Y-106380952D01*
X129979819Y-106380952D02*
X129979819Y-106619047D01*
X129979819Y-106619047D02*
X129932200Y-106714285D01*
X129932200Y-106714285D02*
X129884580Y-106761904D01*
X157333333Y-107204819D02*
X157000000Y-106728628D01*
X156761905Y-107204819D02*
X156761905Y-106204819D01*
X156761905Y-106204819D02*
X157142857Y-106204819D01*
X157142857Y-106204819D02*
X157238095Y-106252438D01*
X157238095Y-106252438D02*
X157285714Y-106300057D01*
X157285714Y-106300057D02*
X157333333Y-106395295D01*
X157333333Y-106395295D02*
X157333333Y-106538152D01*
X157333333Y-106538152D02*
X157285714Y-106633390D01*
X157285714Y-106633390D02*
X157238095Y-106681009D01*
X157238095Y-106681009D02*
X157142857Y-106728628D01*
X157142857Y-106728628D02*
X156761905Y-106728628D01*
X157904762Y-106633390D02*
X157809524Y-106585771D01*
X157809524Y-106585771D02*
X157761905Y-106538152D01*
X157761905Y-106538152D02*
X157714286Y-106442914D01*
X157714286Y-106442914D02*
X157714286Y-106395295D01*
X157714286Y-106395295D02*
X157761905Y-106300057D01*
X157761905Y-106300057D02*
X157809524Y-106252438D01*
X157809524Y-106252438D02*
X157904762Y-106204819D01*
X157904762Y-106204819D02*
X158095238Y-106204819D01*
X158095238Y-106204819D02*
X158190476Y-106252438D01*
X158190476Y-106252438D02*
X158238095Y-106300057D01*
X158238095Y-106300057D02*
X158285714Y-106395295D01*
X158285714Y-106395295D02*
X158285714Y-106442914D01*
X158285714Y-106442914D02*
X158238095Y-106538152D01*
X158238095Y-106538152D02*
X158190476Y-106585771D01*
X158190476Y-106585771D02*
X158095238Y-106633390D01*
X158095238Y-106633390D02*
X157904762Y-106633390D01*
X157904762Y-106633390D02*
X157809524Y-106681009D01*
X157809524Y-106681009D02*
X157761905Y-106728628D01*
X157761905Y-106728628D02*
X157714286Y-106823866D01*
X157714286Y-106823866D02*
X157714286Y-107014342D01*
X157714286Y-107014342D02*
X157761905Y-107109580D01*
X157761905Y-107109580D02*
X157809524Y-107157200D01*
X157809524Y-107157200D02*
X157904762Y-107204819D01*
X157904762Y-107204819D02*
X158095238Y-107204819D01*
X158095238Y-107204819D02*
X158190476Y-107157200D01*
X158190476Y-107157200D02*
X158238095Y-107109580D01*
X158238095Y-107109580D02*
X158285714Y-107014342D01*
X158285714Y-107014342D02*
X158285714Y-106823866D01*
X158285714Y-106823866D02*
X158238095Y-106728628D01*
X158238095Y-106728628D02*
X158190476Y-106681009D01*
X158190476Y-106681009D02*
X158095238Y-106633390D01*
X119204819Y-101238094D02*
X118204819Y-101238094D01*
X118204819Y-101238094D02*
X118204819Y-100999999D01*
X118204819Y-100999999D02*
X118252438Y-100857142D01*
X118252438Y-100857142D02*
X118347676Y-100761904D01*
X118347676Y-100761904D02*
X118442914Y-100714285D01*
X118442914Y-100714285D02*
X118633390Y-100666666D01*
X118633390Y-100666666D02*
X118776247Y-100666666D01*
X118776247Y-100666666D02*
X118966723Y-100714285D01*
X118966723Y-100714285D02*
X119061961Y-100761904D01*
X119061961Y-100761904D02*
X119157200Y-100857142D01*
X119157200Y-100857142D02*
X119204819Y-100999999D01*
X119204819Y-100999999D02*
X119204819Y-101238094D01*
X118204819Y-99761904D02*
X118204819Y-100238094D01*
X118204819Y-100238094D02*
X118681009Y-100285713D01*
X118681009Y-100285713D02*
X118633390Y-100238094D01*
X118633390Y-100238094D02*
X118585771Y-100142856D01*
X118585771Y-100142856D02*
X118585771Y-99904761D01*
X118585771Y-99904761D02*
X118633390Y-99809523D01*
X118633390Y-99809523D02*
X118681009Y-99761904D01*
X118681009Y-99761904D02*
X118776247Y-99714285D01*
X118776247Y-99714285D02*
X119014342Y-99714285D01*
X119014342Y-99714285D02*
X119109580Y-99761904D01*
X119109580Y-99761904D02*
X119157200Y-99809523D01*
X119157200Y-99809523D02*
X119204819Y-99904761D01*
X119204819Y-99904761D02*
X119204819Y-100142856D01*
X119204819Y-100142856D02*
X119157200Y-100238094D01*
X119157200Y-100238094D02*
X119109580Y-100285713D01*
X111045180Y-101940476D02*
X110330895Y-101940476D01*
X110330895Y-101940476D02*
X110188038Y-101892857D01*
X110188038Y-101892857D02*
X110092800Y-101797619D01*
X110092800Y-101797619D02*
X110045180Y-101654762D01*
X110045180Y-101654762D02*
X110045180Y-101559524D01*
X110045180Y-102940476D02*
X110045180Y-102369048D01*
X110045180Y-102654762D02*
X111045180Y-102654762D01*
X111045180Y-102654762D02*
X110902323Y-102559524D01*
X110902323Y-102559524D02*
X110807085Y-102464286D01*
X110807085Y-102464286D02*
X110759466Y-102369048D01*
X111045180Y-103559524D02*
X111045180Y-103654762D01*
X111045180Y-103654762D02*
X110997561Y-103750000D01*
X110997561Y-103750000D02*
X110949942Y-103797619D01*
X110949942Y-103797619D02*
X110854704Y-103845238D01*
X110854704Y-103845238D02*
X110664228Y-103892857D01*
X110664228Y-103892857D02*
X110426133Y-103892857D01*
X110426133Y-103892857D02*
X110235657Y-103845238D01*
X110235657Y-103845238D02*
X110140419Y-103797619D01*
X110140419Y-103797619D02*
X110092800Y-103750000D01*
X110092800Y-103750000D02*
X110045180Y-103654762D01*
X110045180Y-103654762D02*
X110045180Y-103559524D01*
X110045180Y-103559524D02*
X110092800Y-103464286D01*
X110092800Y-103464286D02*
X110140419Y-103416667D01*
X110140419Y-103416667D02*
X110235657Y-103369048D01*
X110235657Y-103369048D02*
X110426133Y-103321429D01*
X110426133Y-103321429D02*
X110664228Y-103321429D01*
X110664228Y-103321429D02*
X110854704Y-103369048D01*
X110854704Y-103369048D02*
X110949942Y-103416667D01*
X110949942Y-103416667D02*
X110997561Y-103464286D01*
X110997561Y-103464286D02*
X111045180Y-103559524D01*
X128338095Y-69834819D02*
X128338095Y-70644342D01*
X128338095Y-70644342D02*
X128385714Y-70739580D01*
X128385714Y-70739580D02*
X128433333Y-70787200D01*
X128433333Y-70787200D02*
X128528571Y-70834819D01*
X128528571Y-70834819D02*
X128719047Y-70834819D01*
X128719047Y-70834819D02*
X128814285Y-70787200D01*
X128814285Y-70787200D02*
X128861904Y-70739580D01*
X128861904Y-70739580D02*
X128909523Y-70644342D01*
X128909523Y-70644342D02*
X128909523Y-69834819D01*
X129909523Y-70834819D02*
X129338095Y-70834819D01*
X129623809Y-70834819D02*
X129623809Y-69834819D01*
X129623809Y-69834819D02*
X129528571Y-69977676D01*
X129528571Y-69977676D02*
X129433333Y-70072914D01*
X129433333Y-70072914D02*
X129338095Y-70120533D01*
X138166666Y-114704819D02*
X138166666Y-115419104D01*
X138166666Y-115419104D02*
X138119047Y-115561961D01*
X138119047Y-115561961D02*
X138023809Y-115657200D01*
X138023809Y-115657200D02*
X137880952Y-115704819D01*
X137880952Y-115704819D02*
X137785714Y-115704819D01*
X138547619Y-114704819D02*
X139214285Y-114704819D01*
X139214285Y-114704819D02*
X138785714Y-115704819D01*
X124959580Y-105016666D02*
X125007200Y-105064285D01*
X125007200Y-105064285D02*
X125054819Y-105207142D01*
X125054819Y-105207142D02*
X125054819Y-105302380D01*
X125054819Y-105302380D02*
X125007200Y-105445237D01*
X125007200Y-105445237D02*
X124911961Y-105540475D01*
X124911961Y-105540475D02*
X124816723Y-105588094D01*
X124816723Y-105588094D02*
X124626247Y-105635713D01*
X124626247Y-105635713D02*
X124483390Y-105635713D01*
X124483390Y-105635713D02*
X124292914Y-105588094D01*
X124292914Y-105588094D02*
X124197676Y-105540475D01*
X124197676Y-105540475D02*
X124102438Y-105445237D01*
X124102438Y-105445237D02*
X124054819Y-105302380D01*
X124054819Y-105302380D02*
X124054819Y-105207142D01*
X124054819Y-105207142D02*
X124102438Y-105064285D01*
X124102438Y-105064285D02*
X124150057Y-105016666D01*
X124150057Y-104635713D02*
X124102438Y-104588094D01*
X124102438Y-104588094D02*
X124054819Y-104492856D01*
X124054819Y-104492856D02*
X124054819Y-104254761D01*
X124054819Y-104254761D02*
X124102438Y-104159523D01*
X124102438Y-104159523D02*
X124150057Y-104111904D01*
X124150057Y-104111904D02*
X124245295Y-104064285D01*
X124245295Y-104064285D02*
X124340533Y-104064285D01*
X124340533Y-104064285D02*
X124483390Y-104111904D01*
X124483390Y-104111904D02*
X125054819Y-104683332D01*
X125054819Y-104683332D02*
X125054819Y-104064285D01*
X127416666Y-114704819D02*
X127416666Y-115419104D01*
X127416666Y-115419104D02*
X127369047Y-115561961D01*
X127369047Y-115561961D02*
X127273809Y-115657200D01*
X127273809Y-115657200D02*
X127130952Y-115704819D01*
X127130952Y-115704819D02*
X127035714Y-115704819D01*
X128321428Y-114704819D02*
X128130952Y-114704819D01*
X128130952Y-114704819D02*
X128035714Y-114752438D01*
X128035714Y-114752438D02*
X127988095Y-114800057D01*
X127988095Y-114800057D02*
X127892857Y-114942914D01*
X127892857Y-114942914D02*
X127845238Y-115133390D01*
X127845238Y-115133390D02*
X127845238Y-115514342D01*
X127845238Y-115514342D02*
X127892857Y-115609580D01*
X127892857Y-115609580D02*
X127940476Y-115657200D01*
X127940476Y-115657200D02*
X128035714Y-115704819D01*
X128035714Y-115704819D02*
X128226190Y-115704819D01*
X128226190Y-115704819D02*
X128321428Y-115657200D01*
X128321428Y-115657200D02*
X128369047Y-115609580D01*
X128369047Y-115609580D02*
X128416666Y-115514342D01*
X128416666Y-115514342D02*
X128416666Y-115276247D01*
X128416666Y-115276247D02*
X128369047Y-115181009D01*
X128369047Y-115181009D02*
X128321428Y-115133390D01*
X128321428Y-115133390D02*
X128226190Y-115085771D01*
X128226190Y-115085771D02*
X128035714Y-115085771D01*
X128035714Y-115085771D02*
X127940476Y-115133390D01*
X127940476Y-115133390D02*
X127892857Y-115181009D01*
X127892857Y-115181009D02*
X127845238Y-115276247D01*
X156857142Y-113204819D02*
X156523809Y-112728628D01*
X156285714Y-113204819D02*
X156285714Y-112204819D01*
X156285714Y-112204819D02*
X156666666Y-112204819D01*
X156666666Y-112204819D02*
X156761904Y-112252438D01*
X156761904Y-112252438D02*
X156809523Y-112300057D01*
X156809523Y-112300057D02*
X156857142Y-112395295D01*
X156857142Y-112395295D02*
X156857142Y-112538152D01*
X156857142Y-112538152D02*
X156809523Y-112633390D01*
X156809523Y-112633390D02*
X156761904Y-112681009D01*
X156761904Y-112681009D02*
X156666666Y-112728628D01*
X156666666Y-112728628D02*
X156285714Y-112728628D01*
X157809523Y-113204819D02*
X157238095Y-113204819D01*
X157523809Y-113204819D02*
X157523809Y-112204819D01*
X157523809Y-112204819D02*
X157428571Y-112347676D01*
X157428571Y-112347676D02*
X157333333Y-112442914D01*
X157333333Y-112442914D02*
X157238095Y-112490533D01*
X158761904Y-113204819D02*
X158190476Y-113204819D01*
X158476190Y-113204819D02*
X158476190Y-112204819D01*
X158476190Y-112204819D02*
X158380952Y-112347676D01*
X158380952Y-112347676D02*
X158285714Y-112442914D01*
X158285714Y-112442914D02*
X158190476Y-112490533D01*
X115454819Y-76083333D02*
X116169104Y-76083333D01*
X116169104Y-76083333D02*
X116311961Y-76130952D01*
X116311961Y-76130952D02*
X116407200Y-76226190D01*
X116407200Y-76226190D02*
X116454819Y-76369047D01*
X116454819Y-76369047D02*
X116454819Y-76464285D01*
X115883390Y-75464285D02*
X115835771Y-75559523D01*
X115835771Y-75559523D02*
X115788152Y-75607142D01*
X115788152Y-75607142D02*
X115692914Y-75654761D01*
X115692914Y-75654761D02*
X115645295Y-75654761D01*
X115645295Y-75654761D02*
X115550057Y-75607142D01*
X115550057Y-75607142D02*
X115502438Y-75559523D01*
X115502438Y-75559523D02*
X115454819Y-75464285D01*
X115454819Y-75464285D02*
X115454819Y-75273809D01*
X115454819Y-75273809D02*
X115502438Y-75178571D01*
X115502438Y-75178571D02*
X115550057Y-75130952D01*
X115550057Y-75130952D02*
X115645295Y-75083333D01*
X115645295Y-75083333D02*
X115692914Y-75083333D01*
X115692914Y-75083333D02*
X115788152Y-75130952D01*
X115788152Y-75130952D02*
X115835771Y-75178571D01*
X115835771Y-75178571D02*
X115883390Y-75273809D01*
X115883390Y-75273809D02*
X115883390Y-75464285D01*
X115883390Y-75464285D02*
X115931009Y-75559523D01*
X115931009Y-75559523D02*
X115978628Y-75607142D01*
X115978628Y-75607142D02*
X116073866Y-75654761D01*
X116073866Y-75654761D02*
X116264342Y-75654761D01*
X116264342Y-75654761D02*
X116359580Y-75607142D01*
X116359580Y-75607142D02*
X116407200Y-75559523D01*
X116407200Y-75559523D02*
X116454819Y-75464285D01*
X116454819Y-75464285D02*
X116454819Y-75273809D01*
X116454819Y-75273809D02*
X116407200Y-75178571D01*
X116407200Y-75178571D02*
X116359580Y-75130952D01*
X116359580Y-75130952D02*
X116264342Y-75083333D01*
X116264342Y-75083333D02*
X116073866Y-75083333D01*
X116073866Y-75083333D02*
X115978628Y-75130952D01*
X115978628Y-75130952D02*
X115931009Y-75178571D01*
X115931009Y-75178571D02*
X115883390Y-75273809D01*
X122966667Y-66157200D02*
X123109524Y-66204819D01*
X123109524Y-66204819D02*
X123347619Y-66204819D01*
X123347619Y-66204819D02*
X123442857Y-66157200D01*
X123442857Y-66157200D02*
X123490476Y-66109580D01*
X123490476Y-66109580D02*
X123538095Y-66014342D01*
X123538095Y-66014342D02*
X123538095Y-65919104D01*
X123538095Y-65919104D02*
X123490476Y-65823866D01*
X123490476Y-65823866D02*
X123442857Y-65776247D01*
X123442857Y-65776247D02*
X123347619Y-65728628D01*
X123347619Y-65728628D02*
X123157143Y-65681009D01*
X123157143Y-65681009D02*
X123061905Y-65633390D01*
X123061905Y-65633390D02*
X123014286Y-65585771D01*
X123014286Y-65585771D02*
X122966667Y-65490533D01*
X122966667Y-65490533D02*
X122966667Y-65395295D01*
X122966667Y-65395295D02*
X123014286Y-65300057D01*
X123014286Y-65300057D02*
X123061905Y-65252438D01*
X123061905Y-65252438D02*
X123157143Y-65204819D01*
X123157143Y-65204819D02*
X123395238Y-65204819D01*
X123395238Y-65204819D02*
X123538095Y-65252438D01*
X123871429Y-65204819D02*
X124109524Y-66204819D01*
X124109524Y-66204819D02*
X124300000Y-65490533D01*
X124300000Y-65490533D02*
X124490476Y-66204819D01*
X124490476Y-66204819D02*
X124728572Y-65204819D01*
X125633333Y-66204819D02*
X125061905Y-66204819D01*
X125347619Y-66204819D02*
X125347619Y-65204819D01*
X125347619Y-65204819D02*
X125252381Y-65347676D01*
X125252381Y-65347676D02*
X125157143Y-65442914D01*
X125157143Y-65442914D02*
X125061905Y-65490533D01*
X163454819Y-104083333D02*
X164169104Y-104083333D01*
X164169104Y-104083333D02*
X164311961Y-104130952D01*
X164311961Y-104130952D02*
X164407200Y-104226190D01*
X164407200Y-104226190D02*
X164454819Y-104369047D01*
X164454819Y-104369047D02*
X164454819Y-104464285D01*
X163454819Y-103702380D02*
X163454819Y-103083333D01*
X163454819Y-103083333D02*
X163835771Y-103416666D01*
X163835771Y-103416666D02*
X163835771Y-103273809D01*
X163835771Y-103273809D02*
X163883390Y-103178571D01*
X163883390Y-103178571D02*
X163931009Y-103130952D01*
X163931009Y-103130952D02*
X164026247Y-103083333D01*
X164026247Y-103083333D02*
X164264342Y-103083333D01*
X164264342Y-103083333D02*
X164359580Y-103130952D01*
X164359580Y-103130952D02*
X164407200Y-103178571D01*
X164407200Y-103178571D02*
X164454819Y-103273809D01*
X164454819Y-103273809D02*
X164454819Y-103559523D01*
X164454819Y-103559523D02*
X164407200Y-103654761D01*
X164407200Y-103654761D02*
X164359580Y-103702380D01*
X121359580Y-77642857D02*
X121407200Y-77690476D01*
X121407200Y-77690476D02*
X121454819Y-77833333D01*
X121454819Y-77833333D02*
X121454819Y-77928571D01*
X121454819Y-77928571D02*
X121407200Y-78071428D01*
X121407200Y-78071428D02*
X121311961Y-78166666D01*
X121311961Y-78166666D02*
X121216723Y-78214285D01*
X121216723Y-78214285D02*
X121026247Y-78261904D01*
X121026247Y-78261904D02*
X120883390Y-78261904D01*
X120883390Y-78261904D02*
X120692914Y-78214285D01*
X120692914Y-78214285D02*
X120597676Y-78166666D01*
X120597676Y-78166666D02*
X120502438Y-78071428D01*
X120502438Y-78071428D02*
X120454819Y-77928571D01*
X120454819Y-77928571D02*
X120454819Y-77833333D01*
X120454819Y-77833333D02*
X120502438Y-77690476D01*
X120502438Y-77690476D02*
X120550057Y-77642857D01*
X121454819Y-76690476D02*
X121454819Y-77261904D01*
X121454819Y-76976190D02*
X120454819Y-76976190D01*
X120454819Y-76976190D02*
X120597676Y-77071428D01*
X120597676Y-77071428D02*
X120692914Y-77166666D01*
X120692914Y-77166666D02*
X120740533Y-77261904D01*
X120454819Y-75785714D02*
X120454819Y-76261904D01*
X120454819Y-76261904D02*
X120931009Y-76309523D01*
X120931009Y-76309523D02*
X120883390Y-76261904D01*
X120883390Y-76261904D02*
X120835771Y-76166666D01*
X120835771Y-76166666D02*
X120835771Y-75928571D01*
X120835771Y-75928571D02*
X120883390Y-75833333D01*
X120883390Y-75833333D02*
X120931009Y-75785714D01*
X120931009Y-75785714D02*
X121026247Y-75738095D01*
X121026247Y-75738095D02*
X121264342Y-75738095D01*
X121264342Y-75738095D02*
X121359580Y-75785714D01*
X121359580Y-75785714D02*
X121407200Y-75833333D01*
X121407200Y-75833333D02*
X121454819Y-75928571D01*
X121454819Y-75928571D02*
X121454819Y-76166666D01*
X121454819Y-76166666D02*
X121407200Y-76261904D01*
X121407200Y-76261904D02*
X121359580Y-76309523D01*
X155083333Y-89704819D02*
X154750000Y-89228628D01*
X154511905Y-89704819D02*
X154511905Y-88704819D01*
X154511905Y-88704819D02*
X154892857Y-88704819D01*
X154892857Y-88704819D02*
X154988095Y-88752438D01*
X154988095Y-88752438D02*
X155035714Y-88800057D01*
X155035714Y-88800057D02*
X155083333Y-88895295D01*
X155083333Y-88895295D02*
X155083333Y-89038152D01*
X155083333Y-89038152D02*
X155035714Y-89133390D01*
X155035714Y-89133390D02*
X154988095Y-89181009D01*
X154988095Y-89181009D02*
X154892857Y-89228628D01*
X154892857Y-89228628D02*
X154511905Y-89228628D01*
X155416667Y-88704819D02*
X156083333Y-88704819D01*
X156083333Y-88704819D02*
X155654762Y-89704819D01*
X118583333Y-104609580D02*
X118535714Y-104657200D01*
X118535714Y-104657200D02*
X118392857Y-104704819D01*
X118392857Y-104704819D02*
X118297619Y-104704819D01*
X118297619Y-104704819D02*
X118154762Y-104657200D01*
X118154762Y-104657200D02*
X118059524Y-104561961D01*
X118059524Y-104561961D02*
X118011905Y-104466723D01*
X118011905Y-104466723D02*
X117964286Y-104276247D01*
X117964286Y-104276247D02*
X117964286Y-104133390D01*
X117964286Y-104133390D02*
X118011905Y-103942914D01*
X118011905Y-103942914D02*
X118059524Y-103847676D01*
X118059524Y-103847676D02*
X118154762Y-103752438D01*
X118154762Y-103752438D02*
X118297619Y-103704819D01*
X118297619Y-103704819D02*
X118392857Y-103704819D01*
X118392857Y-103704819D02*
X118535714Y-103752438D01*
X118535714Y-103752438D02*
X118583333Y-103800057D01*
X119440476Y-104038152D02*
X119440476Y-104704819D01*
X119202381Y-103657200D02*
X118964286Y-104371485D01*
X118964286Y-104371485D02*
X119583333Y-104371485D01*
X157954819Y-66583333D02*
X158669104Y-66583333D01*
X158669104Y-66583333D02*
X158811961Y-66630952D01*
X158811961Y-66630952D02*
X158907200Y-66726190D01*
X158907200Y-66726190D02*
X158954819Y-66869047D01*
X158954819Y-66869047D02*
X158954819Y-66964285D01*
X158954819Y-66059523D02*
X158954819Y-65869047D01*
X158954819Y-65869047D02*
X158907200Y-65773809D01*
X158907200Y-65773809D02*
X158859580Y-65726190D01*
X158859580Y-65726190D02*
X158716723Y-65630952D01*
X158716723Y-65630952D02*
X158526247Y-65583333D01*
X158526247Y-65583333D02*
X158145295Y-65583333D01*
X158145295Y-65583333D02*
X158050057Y-65630952D01*
X158050057Y-65630952D02*
X158002438Y-65678571D01*
X158002438Y-65678571D02*
X157954819Y-65773809D01*
X157954819Y-65773809D02*
X157954819Y-65964285D01*
X157954819Y-65964285D02*
X158002438Y-66059523D01*
X158002438Y-66059523D02*
X158050057Y-66107142D01*
X158050057Y-66107142D02*
X158145295Y-66154761D01*
X158145295Y-66154761D02*
X158383390Y-66154761D01*
X158383390Y-66154761D02*
X158478628Y-66107142D01*
X158478628Y-66107142D02*
X158526247Y-66059523D01*
X158526247Y-66059523D02*
X158573866Y-65964285D01*
X158573866Y-65964285D02*
X158573866Y-65773809D01*
X158573866Y-65773809D02*
X158526247Y-65678571D01*
X158526247Y-65678571D02*
X158478628Y-65630952D01*
X158478628Y-65630952D02*
X158383390Y-65583333D01*
X153916667Y-64157200D02*
X154059524Y-64204819D01*
X154059524Y-64204819D02*
X154297619Y-64204819D01*
X154297619Y-64204819D02*
X154392857Y-64157200D01*
X154392857Y-64157200D02*
X154440476Y-64109580D01*
X154440476Y-64109580D02*
X154488095Y-64014342D01*
X154488095Y-64014342D02*
X154488095Y-63919104D01*
X154488095Y-63919104D02*
X154440476Y-63823866D01*
X154440476Y-63823866D02*
X154392857Y-63776247D01*
X154392857Y-63776247D02*
X154297619Y-63728628D01*
X154297619Y-63728628D02*
X154107143Y-63681009D01*
X154107143Y-63681009D02*
X154011905Y-63633390D01*
X154011905Y-63633390D02*
X153964286Y-63585771D01*
X153964286Y-63585771D02*
X153916667Y-63490533D01*
X153916667Y-63490533D02*
X153916667Y-63395295D01*
X153916667Y-63395295D02*
X153964286Y-63300057D01*
X153964286Y-63300057D02*
X154011905Y-63252438D01*
X154011905Y-63252438D02*
X154107143Y-63204819D01*
X154107143Y-63204819D02*
X154345238Y-63204819D01*
X154345238Y-63204819D02*
X154488095Y-63252438D01*
X154821429Y-63204819D02*
X155059524Y-64204819D01*
X155059524Y-64204819D02*
X155250000Y-63490533D01*
X155250000Y-63490533D02*
X155440476Y-64204819D01*
X155440476Y-64204819D02*
X155678572Y-63204819D01*
X156011905Y-63300057D02*
X156059524Y-63252438D01*
X156059524Y-63252438D02*
X156154762Y-63204819D01*
X156154762Y-63204819D02*
X156392857Y-63204819D01*
X156392857Y-63204819D02*
X156488095Y-63252438D01*
X156488095Y-63252438D02*
X156535714Y-63300057D01*
X156535714Y-63300057D02*
X156583333Y-63395295D01*
X156583333Y-63395295D02*
X156583333Y-63490533D01*
X156583333Y-63490533D02*
X156535714Y-63633390D01*
X156535714Y-63633390D02*
X155964286Y-64204819D01*
X155964286Y-64204819D02*
X156583333Y-64204819D01*
X119745833Y-87804819D02*
X119412500Y-87328628D01*
X119174405Y-87804819D02*
X119174405Y-86804819D01*
X119174405Y-86804819D02*
X119555357Y-86804819D01*
X119555357Y-86804819D02*
X119650595Y-86852438D01*
X119650595Y-86852438D02*
X119698214Y-86900057D01*
X119698214Y-86900057D02*
X119745833Y-86995295D01*
X119745833Y-86995295D02*
X119745833Y-87138152D01*
X119745833Y-87138152D02*
X119698214Y-87233390D01*
X119698214Y-87233390D02*
X119650595Y-87281009D01*
X119650595Y-87281009D02*
X119555357Y-87328628D01*
X119555357Y-87328628D02*
X119174405Y-87328628D01*
X120698214Y-87804819D02*
X120126786Y-87804819D01*
X120412500Y-87804819D02*
X120412500Y-86804819D01*
X120412500Y-86804819D02*
X120317262Y-86947676D01*
X120317262Y-86947676D02*
X120222024Y-87042914D01*
X120222024Y-87042914D02*
X120126786Y-87090533D01*
X127209580Y-104916666D02*
X127257200Y-104964285D01*
X127257200Y-104964285D02*
X127304819Y-105107142D01*
X127304819Y-105107142D02*
X127304819Y-105202380D01*
X127304819Y-105202380D02*
X127257200Y-105345237D01*
X127257200Y-105345237D02*
X127161961Y-105440475D01*
X127161961Y-105440475D02*
X127066723Y-105488094D01*
X127066723Y-105488094D02*
X126876247Y-105535713D01*
X126876247Y-105535713D02*
X126733390Y-105535713D01*
X126733390Y-105535713D02*
X126542914Y-105488094D01*
X126542914Y-105488094D02*
X126447676Y-105440475D01*
X126447676Y-105440475D02*
X126352438Y-105345237D01*
X126352438Y-105345237D02*
X126304819Y-105202380D01*
X126304819Y-105202380D02*
X126304819Y-105107142D01*
X126304819Y-105107142D02*
X126352438Y-104964285D01*
X126352438Y-104964285D02*
X126400057Y-104916666D01*
X127304819Y-103964285D02*
X127304819Y-104535713D01*
X127304819Y-104249999D02*
X126304819Y-104249999D01*
X126304819Y-104249999D02*
X126447676Y-104345237D01*
X126447676Y-104345237D02*
X126542914Y-104440475D01*
X126542914Y-104440475D02*
X126590533Y-104535713D01*
X110607142Y-112359580D02*
X110559523Y-112407200D01*
X110559523Y-112407200D02*
X110416666Y-112454819D01*
X110416666Y-112454819D02*
X110321428Y-112454819D01*
X110321428Y-112454819D02*
X110178571Y-112407200D01*
X110178571Y-112407200D02*
X110083333Y-112311961D01*
X110083333Y-112311961D02*
X110035714Y-112216723D01*
X110035714Y-112216723D02*
X109988095Y-112026247D01*
X109988095Y-112026247D02*
X109988095Y-111883390D01*
X109988095Y-111883390D02*
X110035714Y-111692914D01*
X110035714Y-111692914D02*
X110083333Y-111597676D01*
X110083333Y-111597676D02*
X110178571Y-111502438D01*
X110178571Y-111502438D02*
X110321428Y-111454819D01*
X110321428Y-111454819D02*
X110416666Y-111454819D01*
X110416666Y-111454819D02*
X110559523Y-111502438D01*
X110559523Y-111502438D02*
X110607142Y-111550057D01*
X111559523Y-112454819D02*
X110988095Y-112454819D01*
X111273809Y-112454819D02*
X111273809Y-111454819D01*
X111273809Y-111454819D02*
X111178571Y-111597676D01*
X111178571Y-111597676D02*
X111083333Y-111692914D01*
X111083333Y-111692914D02*
X110988095Y-111740533D01*
X112511904Y-112454819D02*
X111940476Y-112454819D01*
X112226190Y-112454819D02*
X112226190Y-111454819D01*
X112226190Y-111454819D02*
X112130952Y-111597676D01*
X112130952Y-111597676D02*
X112035714Y-111692914D01*
X112035714Y-111692914D02*
X111940476Y-111740533D01*
X157954819Y-80583333D02*
X158669104Y-80583333D01*
X158669104Y-80583333D02*
X158811961Y-80630952D01*
X158811961Y-80630952D02*
X158907200Y-80726190D01*
X158907200Y-80726190D02*
X158954819Y-80869047D01*
X158954819Y-80869047D02*
X158954819Y-80964285D01*
X157954819Y-79630952D02*
X157954819Y-80107142D01*
X157954819Y-80107142D02*
X158431009Y-80154761D01*
X158431009Y-80154761D02*
X158383390Y-80107142D01*
X158383390Y-80107142D02*
X158335771Y-80011904D01*
X158335771Y-80011904D02*
X158335771Y-79773809D01*
X158335771Y-79773809D02*
X158383390Y-79678571D01*
X158383390Y-79678571D02*
X158431009Y-79630952D01*
X158431009Y-79630952D02*
X158526247Y-79583333D01*
X158526247Y-79583333D02*
X158764342Y-79583333D01*
X158764342Y-79583333D02*
X158859580Y-79630952D01*
X158859580Y-79630952D02*
X158907200Y-79678571D01*
X158907200Y-79678571D02*
X158954819Y-79773809D01*
X158954819Y-79773809D02*
X158954819Y-80011904D01*
X158954819Y-80011904D02*
X158907200Y-80107142D01*
X158907200Y-80107142D02*
X158859580Y-80154761D01*
X125379819Y-97678094D02*
X124379819Y-97678094D01*
X124379819Y-97678094D02*
X124379819Y-97439999D01*
X124379819Y-97439999D02*
X124427438Y-97297142D01*
X124427438Y-97297142D02*
X124522676Y-97201904D01*
X124522676Y-97201904D02*
X124617914Y-97154285D01*
X124617914Y-97154285D02*
X124808390Y-97106666D01*
X124808390Y-97106666D02*
X124951247Y-97106666D01*
X124951247Y-97106666D02*
X125141723Y-97154285D01*
X125141723Y-97154285D02*
X125236961Y-97201904D01*
X125236961Y-97201904D02*
X125332200Y-97297142D01*
X125332200Y-97297142D02*
X125379819Y-97439999D01*
X125379819Y-97439999D02*
X125379819Y-97678094D01*
X124379819Y-96773332D02*
X124379819Y-96154285D01*
X124379819Y-96154285D02*
X124760771Y-96487618D01*
X124760771Y-96487618D02*
X124760771Y-96344761D01*
X124760771Y-96344761D02*
X124808390Y-96249523D01*
X124808390Y-96249523D02*
X124856009Y-96201904D01*
X124856009Y-96201904D02*
X124951247Y-96154285D01*
X124951247Y-96154285D02*
X125189342Y-96154285D01*
X125189342Y-96154285D02*
X125284580Y-96201904D01*
X125284580Y-96201904D02*
X125332200Y-96249523D01*
X125332200Y-96249523D02*
X125379819Y-96344761D01*
X125379819Y-96344761D02*
X125379819Y-96630475D01*
X125379819Y-96630475D02*
X125332200Y-96725713D01*
X125332200Y-96725713D02*
X125284580Y-96773332D01*
X127359580Y-111916666D02*
X127407200Y-111964285D01*
X127407200Y-111964285D02*
X127454819Y-112107142D01*
X127454819Y-112107142D02*
X127454819Y-112202380D01*
X127454819Y-112202380D02*
X127407200Y-112345237D01*
X127407200Y-112345237D02*
X127311961Y-112440475D01*
X127311961Y-112440475D02*
X127216723Y-112488094D01*
X127216723Y-112488094D02*
X127026247Y-112535713D01*
X127026247Y-112535713D02*
X126883390Y-112535713D01*
X126883390Y-112535713D02*
X126692914Y-112488094D01*
X126692914Y-112488094D02*
X126597676Y-112440475D01*
X126597676Y-112440475D02*
X126502438Y-112345237D01*
X126502438Y-112345237D02*
X126454819Y-112202380D01*
X126454819Y-112202380D02*
X126454819Y-112107142D01*
X126454819Y-112107142D02*
X126502438Y-111964285D01*
X126502438Y-111964285D02*
X126550057Y-111916666D01*
X126454819Y-111583332D02*
X126454819Y-110964285D01*
X126454819Y-110964285D02*
X126835771Y-111297618D01*
X126835771Y-111297618D02*
X126835771Y-111154761D01*
X126835771Y-111154761D02*
X126883390Y-111059523D01*
X126883390Y-111059523D02*
X126931009Y-111011904D01*
X126931009Y-111011904D02*
X127026247Y-110964285D01*
X127026247Y-110964285D02*
X127264342Y-110964285D01*
X127264342Y-110964285D02*
X127359580Y-111011904D01*
X127359580Y-111011904D02*
X127407200Y-111059523D01*
X127407200Y-111059523D02*
X127454819Y-111154761D01*
X127454819Y-111154761D02*
X127454819Y-111440475D01*
X127454819Y-111440475D02*
X127407200Y-111535713D01*
X127407200Y-111535713D02*
X127359580Y-111583332D01*
X120511904Y-112545180D02*
X120511904Y-111735657D01*
X120511904Y-111735657D02*
X120464285Y-111640419D01*
X120464285Y-111640419D02*
X120416666Y-111592800D01*
X120416666Y-111592800D02*
X120321428Y-111545180D01*
X120321428Y-111545180D02*
X120130952Y-111545180D01*
X120130952Y-111545180D02*
X120035714Y-111592800D01*
X120035714Y-111592800D02*
X119988095Y-111640419D01*
X119988095Y-111640419D02*
X119940476Y-111735657D01*
X119940476Y-111735657D02*
X119940476Y-112545180D01*
X119559523Y-112545180D02*
X118940476Y-112545180D01*
X118940476Y-112545180D02*
X119273809Y-112164228D01*
X119273809Y-112164228D02*
X119130952Y-112164228D01*
X119130952Y-112164228D02*
X119035714Y-112116609D01*
X119035714Y-112116609D02*
X118988095Y-112068990D01*
X118988095Y-112068990D02*
X118940476Y-111973752D01*
X118940476Y-111973752D02*
X118940476Y-111735657D01*
X118940476Y-111735657D02*
X118988095Y-111640419D01*
X118988095Y-111640419D02*
X119035714Y-111592800D01*
X119035714Y-111592800D02*
X119130952Y-111545180D01*
X119130952Y-111545180D02*
X119416666Y-111545180D01*
X119416666Y-111545180D02*
X119511904Y-111592800D01*
X119511904Y-111592800D02*
X119559523Y-111640419D01*
X142833333Y-100109580D02*
X142785714Y-100157200D01*
X142785714Y-100157200D02*
X142642857Y-100204819D01*
X142642857Y-100204819D02*
X142547619Y-100204819D01*
X142547619Y-100204819D02*
X142404762Y-100157200D01*
X142404762Y-100157200D02*
X142309524Y-100061961D01*
X142309524Y-100061961D02*
X142261905Y-99966723D01*
X142261905Y-99966723D02*
X142214286Y-99776247D01*
X142214286Y-99776247D02*
X142214286Y-99633390D01*
X142214286Y-99633390D02*
X142261905Y-99442914D01*
X142261905Y-99442914D02*
X142309524Y-99347676D01*
X142309524Y-99347676D02*
X142404762Y-99252438D01*
X142404762Y-99252438D02*
X142547619Y-99204819D01*
X142547619Y-99204819D02*
X142642857Y-99204819D01*
X142642857Y-99204819D02*
X142785714Y-99252438D01*
X142785714Y-99252438D02*
X142833333Y-99300057D01*
X143309524Y-100204819D02*
X143500000Y-100204819D01*
X143500000Y-100204819D02*
X143595238Y-100157200D01*
X143595238Y-100157200D02*
X143642857Y-100109580D01*
X143642857Y-100109580D02*
X143738095Y-99966723D01*
X143738095Y-99966723D02*
X143785714Y-99776247D01*
X143785714Y-99776247D02*
X143785714Y-99395295D01*
X143785714Y-99395295D02*
X143738095Y-99300057D01*
X143738095Y-99300057D02*
X143690476Y-99252438D01*
X143690476Y-99252438D02*
X143595238Y-99204819D01*
X143595238Y-99204819D02*
X143404762Y-99204819D01*
X143404762Y-99204819D02*
X143309524Y-99252438D01*
X143309524Y-99252438D02*
X143261905Y-99300057D01*
X143261905Y-99300057D02*
X143214286Y-99395295D01*
X143214286Y-99395295D02*
X143214286Y-99633390D01*
X143214286Y-99633390D02*
X143261905Y-99728628D01*
X143261905Y-99728628D02*
X143309524Y-99776247D01*
X143309524Y-99776247D02*
X143404762Y-99823866D01*
X143404762Y-99823866D02*
X143595238Y-99823866D01*
X143595238Y-99823866D02*
X143690476Y-99776247D01*
X143690476Y-99776247D02*
X143738095Y-99728628D01*
X143738095Y-99728628D02*
X143785714Y-99633390D01*
X115454819Y-86333333D02*
X116169104Y-86333333D01*
X116169104Y-86333333D02*
X116311961Y-86380952D01*
X116311961Y-86380952D02*
X116407200Y-86476190D01*
X116407200Y-86476190D02*
X116454819Y-86619047D01*
X116454819Y-86619047D02*
X116454819Y-86714285D01*
X115788152Y-85428571D02*
X116454819Y-85428571D01*
X115407200Y-85666666D02*
X116121485Y-85904761D01*
X116121485Y-85904761D02*
X116121485Y-85285714D01*
X121857142Y-74954819D02*
X121523809Y-74478628D01*
X121285714Y-74954819D02*
X121285714Y-73954819D01*
X121285714Y-73954819D02*
X121666666Y-73954819D01*
X121666666Y-73954819D02*
X121761904Y-74002438D01*
X121761904Y-74002438D02*
X121809523Y-74050057D01*
X121809523Y-74050057D02*
X121857142Y-74145295D01*
X121857142Y-74145295D02*
X121857142Y-74288152D01*
X121857142Y-74288152D02*
X121809523Y-74383390D01*
X121809523Y-74383390D02*
X121761904Y-74431009D01*
X121761904Y-74431009D02*
X121666666Y-74478628D01*
X121666666Y-74478628D02*
X121285714Y-74478628D01*
X122809523Y-74954819D02*
X122238095Y-74954819D01*
X122523809Y-74954819D02*
X122523809Y-73954819D01*
X122523809Y-73954819D02*
X122428571Y-74097676D01*
X122428571Y-74097676D02*
X122333333Y-74192914D01*
X122333333Y-74192914D02*
X122238095Y-74240533D01*
X123142857Y-73954819D02*
X123761904Y-73954819D01*
X123761904Y-73954819D02*
X123428571Y-74335771D01*
X123428571Y-74335771D02*
X123571428Y-74335771D01*
X123571428Y-74335771D02*
X123666666Y-74383390D01*
X123666666Y-74383390D02*
X123714285Y-74431009D01*
X123714285Y-74431009D02*
X123761904Y-74526247D01*
X123761904Y-74526247D02*
X123761904Y-74764342D01*
X123761904Y-74764342D02*
X123714285Y-74859580D01*
X123714285Y-74859580D02*
X123666666Y-74907200D01*
X123666666Y-74907200D02*
X123571428Y-74954819D01*
X123571428Y-74954819D02*
X123285714Y-74954819D01*
X123285714Y-74954819D02*
X123190476Y-74907200D01*
X123190476Y-74907200D02*
X123142857Y-74859580D01*
D12*
%TO.C,D2*%
X153990000Y-96610000D02*
X153990000Y-98570000D01*
X152790000Y-98570000D02*
X153990000Y-98570000D01*
X152790000Y-96610000D02*
X152790000Y-98570000D01*
%TO.C,C12*%
X115265000Y-105261252D02*
X115265000Y-104738748D01*
X116735000Y-105261252D02*
X116735000Y-104738748D01*
%TO.C,R3*%
X157227064Y-86015000D02*
X156772936Y-86015000D01*
X157227064Y-87485000D02*
X156772936Y-87485000D01*
%TO.C,C8*%
X139215000Y-102311252D02*
X139215000Y-101788748D01*
X140685000Y-102311252D02*
X140685000Y-101788748D01*
%TO.C,R9*%
X118590000Y-92337064D02*
X118590000Y-91882936D01*
X120060000Y-92337064D02*
X120060000Y-91882936D01*
%TO.C,R5*%
X126110436Y-100515000D02*
X126564564Y-100515000D01*
X126110436Y-101985000D02*
X126564564Y-101985000D01*
D13*
%TO.C,U4*%
X113928500Y-110224799D02*
X115782700Y-110224799D01*
X115782700Y-107075199D02*
X113928500Y-107075199D01*
D12*
%TO.C,C10*%
X122765000Y-80711252D02*
X122765000Y-80188748D01*
X124235000Y-80711252D02*
X124235000Y-80188748D01*
%TO.C,C5*%
X120015000Y-106861252D02*
X120015000Y-106338748D01*
X121485000Y-106861252D02*
X121485000Y-106338748D01*
%TO.C,R10*%
X119265000Y-97795436D02*
X119265000Y-98249564D01*
X120735000Y-97795436D02*
X120735000Y-98249564D01*
%TO.C,D4*%
X120725000Y-93860000D02*
X120725000Y-91900000D01*
X121925000Y-91900000D02*
X120725000Y-91900000D01*
X121925000Y-93860000D02*
X121925000Y-91900000D01*
%TO.C,D7*%
X159002500Y-114040000D02*
X159002500Y-115960000D01*
X159002500Y-115960000D02*
X161687500Y-115960000D01*
X161687500Y-114040000D02*
X159002500Y-114040000D01*
%TO.C,C7*%
X125015000Y-80711252D02*
X125015000Y-80188748D01*
X126485000Y-80711252D02*
X126485000Y-80188748D01*
%TO.C,J1*%
X115915000Y-116390000D02*
X118240000Y-116390000D01*
X115915000Y-117240000D02*
X115915000Y-116390000D01*
X115915000Y-121610000D02*
X115915000Y-120760000D01*
X121760000Y-116390000D02*
X121760000Y-114000000D01*
X124085000Y-116390000D02*
X121760000Y-116390000D01*
X124085000Y-117240000D02*
X124085000Y-116390000D01*
X124085000Y-120760000D02*
X124085000Y-121610000D01*
X124085000Y-121610000D02*
X115915000Y-121610000D01*
%TO.C,J2*%
X149115000Y-116390000D02*
X151440000Y-116390000D01*
X149115000Y-117240000D02*
X149115000Y-116390000D01*
X149115000Y-121610000D02*
X149115000Y-120760000D01*
X154960000Y-116390000D02*
X154960000Y-114000000D01*
X157285000Y-116390000D02*
X154960000Y-116390000D01*
X157285000Y-117240000D02*
X157285000Y-116390000D01*
X157285000Y-120760000D02*
X157285000Y-121610000D01*
X157285000Y-121610000D02*
X149115000Y-121610000D01*
%TO.C,R2*%
X117272936Y-78515000D02*
X117727064Y-78515000D01*
X117272936Y-79985000D02*
X117727064Y-79985000D01*
%TO.C,D6*%
X159002500Y-108290000D02*
X159002500Y-110210000D01*
X159002500Y-110210000D02*
X161687500Y-110210000D01*
X161687500Y-108290000D02*
X159002500Y-108290000D01*
%TO.C,J11*%
X131440000Y-65215000D02*
X131740000Y-65215000D01*
X131440000Y-67835000D02*
X131440000Y-65215000D01*
X131440000Y-67835000D02*
X131740000Y-67835000D01*
X131740000Y-65215000D02*
X131740000Y-64135000D01*
X143760000Y-65215000D02*
X144060000Y-65215000D01*
X143760000Y-67835000D02*
X144060000Y-67835000D01*
X144060000Y-67835000D02*
X144060000Y-65215000D01*
%TO.C,R12*%
X147977064Y-98265000D02*
X147522936Y-98265000D01*
X147977064Y-99735000D02*
X147522936Y-99735000D01*
%TO.C,R6*%
X154655000Y-98045436D02*
X154655000Y-98499564D01*
X156125000Y-98045436D02*
X156125000Y-98499564D01*
%TO.C,D1*%
X152790000Y-93860000D02*
X152790000Y-91900000D01*
X153990000Y-91900000D02*
X152790000Y-91900000D01*
X153990000Y-93860000D02*
X153990000Y-91900000D01*
%TO.C,R4*%
X122610436Y-100515000D02*
X123064564Y-100515000D01*
X122610436Y-101985000D02*
X123064564Y-101985000D01*
%TO.C,U5*%
X130365000Y-104240000D02*
X130540000Y-104240000D01*
X130365000Y-109760000D02*
X130365000Y-104240000D01*
X130540000Y-109760000D02*
X130365000Y-109760000D01*
X138610000Y-104240000D02*
X138785000Y-104240000D01*
X138785000Y-104240000D02*
X138785000Y-109760000D01*
X138785000Y-109760000D02*
X138610000Y-109760000D01*
X130535000Y-110500000D02*
X130065000Y-110840000D01*
X130065000Y-110160000D01*
X130535000Y-110500000D01*
G36*
X130535000Y-110500000D02*
G01*
X130065000Y-110840000D01*
X130065000Y-110160000D01*
X130535000Y-110500000D01*
G37*
%TO.C,R8*%
X160435436Y-106015000D02*
X160889564Y-106015000D01*
X160435436Y-107485000D02*
X160889564Y-107485000D01*
D14*
%TO.C,D5*%
X118550000Y-97147500D02*
G75*
G02*
X118450000Y-97147500I-50000J0D01*
G01*
X118450000Y-97147500D02*
G75*
G02*
X118550000Y-97147500I50000J0D01*
G01*
D12*
%TO.C,J10*%
X113760000Y-90280000D02*
X115170000Y-90280000D01*
X113760000Y-99440000D02*
X115170000Y-99440000D01*
X117840000Y-91100000D02*
X117690000Y-91100000D01*
X117840000Y-91900000D02*
X117840000Y-91100000D01*
D13*
%TO.C,U1*%
X128218700Y-71762200D02*
X128218700Y-78640860D01*
X128218700Y-96629140D02*
X128218700Y-97517800D01*
X128218700Y-97517800D02*
X129625860Y-97517800D01*
X145074140Y-97517800D02*
X146481300Y-97517800D01*
X146481300Y-71762200D02*
X128218700Y-71762200D01*
X146481300Y-78640860D02*
X146481300Y-71762200D01*
X146481300Y-97517800D02*
X146481300Y-96629140D01*
D12*
%TO.C,J7*%
X138115000Y-116390000D02*
X140440000Y-116390000D01*
X138115000Y-117240000D02*
X138115000Y-116390000D01*
X138115000Y-121610000D02*
X138115000Y-120760000D01*
X143960000Y-116390000D02*
X143960000Y-114000000D01*
X146285000Y-116390000D02*
X143960000Y-116390000D01*
X146285000Y-117240000D02*
X146285000Y-116390000D01*
X146285000Y-120760000D02*
X146285000Y-121610000D01*
X146285000Y-121610000D02*
X138115000Y-121610000D01*
%TO.C,C2*%
X123615000Y-108361252D02*
X123615000Y-107838748D01*
X125085000Y-108361252D02*
X125085000Y-107838748D01*
%TO.C,J6*%
X126965000Y-116390000D02*
X129290000Y-116390000D01*
X126965000Y-117240000D02*
X126965000Y-116390000D01*
X126965000Y-121610000D02*
X126965000Y-120760000D01*
X132810000Y-116390000D02*
X132810000Y-114000000D01*
X135135000Y-116390000D02*
X132810000Y-116390000D01*
X135135000Y-117240000D02*
X135135000Y-116390000D01*
X135135000Y-120760000D02*
X135135000Y-121610000D01*
X135135000Y-121610000D02*
X126965000Y-121610000D01*
%TO.C,R11*%
X160522936Y-112015000D02*
X160977064Y-112015000D01*
X160522936Y-113485000D02*
X160977064Y-113485000D01*
%TO.C,J8*%
X109640000Y-64515000D02*
X110490000Y-64515000D01*
X109640000Y-76685000D02*
X109640000Y-64515000D01*
X110490000Y-76685000D02*
X109640000Y-76685000D01*
X114010000Y-64515000D02*
X114860000Y-64515000D01*
X114010000Y-76685000D02*
X114860000Y-76685000D01*
X114860000Y-64515000D02*
X114860000Y-66840000D01*
X114860000Y-74360000D02*
X117250000Y-74360000D01*
X114860000Y-76685000D02*
X114860000Y-74360000D01*
%TO.C,SW1*%
X122650000Y-61350000D02*
X125950000Y-61350000D01*
X122650000Y-61650000D02*
X122650000Y-61350000D01*
X122650000Y-63850000D02*
X122650000Y-64150000D01*
X122650000Y-64150000D02*
X125950000Y-64150000D01*
X125950000Y-61350000D02*
X125950000Y-61650000D01*
X125950000Y-64150000D02*
X125950000Y-63850000D01*
%TO.C,J3*%
X156875000Y-98570000D02*
X156875000Y-99370000D01*
X156875000Y-99370000D02*
X157025000Y-99370000D01*
X160955000Y-91030000D02*
X159545000Y-91030000D01*
X160955000Y-100190000D02*
X159545000Y-100190000D01*
%TO.C,C15*%
X120515000Y-80711252D02*
X120515000Y-80188748D01*
X121985000Y-80711252D02*
X121985000Y-80188748D01*
%TO.C,R7*%
X154655000Y-92587064D02*
X154655000Y-92132936D01*
X156125000Y-92587064D02*
X156125000Y-92132936D01*
%TO.C,C4*%
X117765000Y-106861252D02*
X117765000Y-106338748D01*
X119235000Y-106861252D02*
X119235000Y-106338748D01*
%TO.C,J9*%
X159640000Y-65315000D02*
X159640000Y-67640000D01*
X159640000Y-67640000D02*
X157250000Y-67640000D01*
X159640000Y-77485000D02*
X159640000Y-75160000D01*
X160490000Y-65315000D02*
X159640000Y-65315000D01*
X160490000Y-77485000D02*
X159640000Y-77485000D01*
X164010000Y-65315000D02*
X164860000Y-65315000D01*
X164860000Y-65315000D02*
X164860000Y-77485000D01*
X164860000Y-77485000D02*
X164010000Y-77485000D01*
%TO.C,SW2*%
X148850000Y-60850000D02*
X148850000Y-61150000D01*
X148850000Y-63650000D02*
X148850000Y-63350000D01*
X152150000Y-60850000D02*
X148850000Y-60850000D01*
X152150000Y-61150000D02*
X152150000Y-60850000D01*
X152150000Y-63350000D02*
X152150000Y-63650000D01*
X152150000Y-63650000D02*
X148850000Y-63650000D01*
%TO.C,R1*%
X119685436Y-88265000D02*
X120139564Y-88265000D01*
X119685436Y-89735000D02*
X120139564Y-89735000D01*
%TO.C,C1*%
X125865000Y-108311252D02*
X125865000Y-107788748D01*
X127335000Y-108311252D02*
X127335000Y-107788748D01*
%TO.C,C11*%
X110665000Y-107938748D02*
X110665000Y-108461252D01*
X112135000Y-107938748D02*
X112135000Y-108461252D01*
%TO.C,J5*%
X159640000Y-79315000D02*
X159640000Y-81640000D01*
X159640000Y-81640000D02*
X157250000Y-81640000D01*
X159640000Y-87485000D02*
X159640000Y-85160000D01*
X160490000Y-79315000D02*
X159640000Y-79315000D01*
X160490000Y-87485000D02*
X159640000Y-87485000D01*
X164010000Y-79315000D02*
X164860000Y-79315000D01*
X164860000Y-79315000D02*
X164860000Y-87485000D01*
X164860000Y-87485000D02*
X164010000Y-87485000D01*
%TO.C,D3*%
X121150000Y-96300000D02*
X121150000Y-98260000D01*
X121150000Y-98260000D02*
X122350000Y-98260000D01*
X122350000Y-96300000D02*
X122350000Y-98260000D01*
%TO.C,C3*%
X123615000Y-111588748D02*
X123615000Y-112111252D01*
X125085000Y-111588748D02*
X125085000Y-112111252D01*
%TO.C,U3*%
X120460000Y-108840000D02*
X121760000Y-108840000D01*
X120460000Y-111160000D02*
X121510000Y-111160000D01*
X121870000Y-111440000D02*
X121870000Y-111160000D01*
X122150000Y-111160000D01*
X121870000Y-111440000D01*
G36*
X121870000Y-111440000D02*
G01*
X121870000Y-111160000D01*
X122150000Y-111160000D01*
X121870000Y-111440000D01*
G37*
%TO.C,C9*%
X141715000Y-102311252D02*
X141715000Y-101788748D01*
X143185000Y-102311252D02*
X143185000Y-101788748D01*
%TO.C,J4*%
X109640000Y-78565000D02*
X110490000Y-78565000D01*
X109640000Y-86735000D02*
X109640000Y-78565000D01*
X110490000Y-86735000D02*
X109640000Y-86735000D01*
X114010000Y-78565000D02*
X114860000Y-78565000D01*
X114010000Y-86735000D02*
X114860000Y-86735000D01*
X114860000Y-78565000D02*
X114860000Y-80890000D01*
X114860000Y-84410000D02*
X117250000Y-84410000D01*
X114860000Y-86735000D02*
X114860000Y-84410000D01*
%TO.C,R13*%
X125522936Y-75265000D02*
X125977064Y-75265000D01*
X125522936Y-76735000D02*
X125977064Y-76735000D01*
%TD*%
M02*
