%TF.GenerationSoftware,KiCad,Pcbnew,7.0.7*%
%TF.CreationDate,2024-10-30T15:59:05-07:00*%
%TF.ProjectId,SensingBoard_rev1.1,53656e73-696e-4674-926f-6172645f7265,rev?*%
%TF.SameCoordinates,Original*%
%TF.FileFunction,Copper,L2,Inr*%
%TF.FilePolarity,Positive*%
%FSLAX46Y46*%
G04 Gerber Fmt 4.6, Leading zero omitted, Abs format (unit mm)*
G04 Created by KiCad (PCBNEW 7.0.7) date 2024-10-30 15:59:05*
%MOMM*%
%LPD*%
G01*
G04 APERTURE LIST*
%TA.AperFunction,ComponentPad*%
%ADD10C,1.524000*%
%TD*%
%TA.AperFunction,ComponentPad*%
%ADD11C,2.100000*%
%TD*%
%TA.AperFunction,ComponentPad*%
%ADD12C,2.600000*%
%TD*%
%TA.AperFunction,ViaPad*%
%ADD13C,0.550000*%
%TD*%
G04 APERTURE END LIST*
D10*
%TO.N,MOTOR2_BIN2*%
%TO.C,J6*%
X124764800Y-49377600D03*
%TO.N,MOTOR2_BIN1*%
X124764800Y-46837600D03*
%TD*%
%TO.N,DRV_FAULT*%
%TO.C,J7*%
X121666000Y-46824900D03*
%TO.N,DRV_SLEEP*%
X121666000Y-49364900D03*
%TD*%
%TO.N,GND*%
%TO.C,J9*%
X128879600Y-52730400D03*
%TO.N,VDC*%
X131419600Y-52730400D03*
%TD*%
D11*
%TO.N,GND*%
%TO.C,J1*%
X117882000Y-58318400D03*
D12*
X112522000Y-58318400D03*
D11*
X117882000Y-66958400D03*
D12*
X112522000Y-66958400D03*
%TD*%
D10*
%TO.N,MOTOR1_AIN2*%
%TO.C,J5*%
X124460000Y-52679600D03*
%TO.N,MOTOR1_AIN1*%
X121920000Y-52679600D03*
%TD*%
D13*
%TO.N,Net-(U2-XIN32)*%
X140496118Y-67595586D03*
X144678400Y-69427900D03*
%TO.N,+5V*%
X116294500Y-61382635D03*
X116136972Y-64112900D03*
%TO.N,DRV_SLEEP*%
X137974396Y-68511505D03*
%TO.N,DRV_FAULT*%
X139496800Y-67614800D03*
%TO.N,+1V8*%
X131599700Y-73710800D03*
X117348000Y-52984400D03*
%TO.N,+2V8*%
X139649200Y-47193200D03*
X130914831Y-71326283D03*
X143713200Y-60350400D03*
X141244669Y-67708302D03*
%TO.N,Net-(D4-K)*%
X140882921Y-71613813D03*
X123647200Y-72644000D03*
%TO.N,IO38{slash}DVP_VSYNC*%
X139039600Y-64429900D03*
X131908935Y-68459735D03*
%TO.N,IO47{slash}DVP_HREF*%
X135534400Y-64668400D03*
X131927697Y-71138096D03*
%TO.N,IO48{slash}DVP_Y9*%
X130518100Y-70307200D03*
X134975600Y-66548000D03*
%TO.N,IO10{slash}XMCLK*%
X128117600Y-58028800D03*
%TO.N,IO11{slash}DVP_Y8*%
X129619678Y-58899122D03*
%TO.N,IO12{slash}DVP_Y7*%
X128724700Y-71221600D03*
X128701732Y-59294572D03*
%TO.N,IO13{slash}DVP_PCLK*%
X128724700Y-70408800D03*
X128823958Y-60406042D03*
%TO.N,BNO_INT*%
X137286833Y-68808767D03*
X145796000Y-66954400D03*
%TO.N,USB_DP*%
X120345200Y-62738000D03*
X128431283Y-64253555D03*
%TO.N,USB_DN*%
X119430800Y-63347600D03*
X120497600Y-63906400D03*
X116294097Y-62382747D03*
X128431283Y-63614052D03*
%TO.N,IO14{slash}DVP_Y6*%
X132181600Y-60706000D03*
X128760001Y-69225233D03*
%TO.N,IO15{slash}DVP_Y2*%
X132326990Y-61328757D03*
X127355600Y-70154800D03*
%TO.N,IO16{slash}DVP_Y5*%
X132284525Y-62028125D03*
%TO.N,IO17{slash}DVP_Y3*%
X132147918Y-62792809D03*
X125873961Y-68523514D03*
%TO.N,IO18{slash}DVP_Y4*%
X132130800Y-63441900D03*
X124874884Y-68552681D03*
%TO.N,CHIP_EN*%
X126238000Y-77774800D03*
X136194887Y-57718139D03*
%TO.N,SPID*%
X134355826Y-64576974D03*
X130454400Y-75809300D03*
%TO.N,SPIQ*%
X132527900Y-67259200D03*
X133248400Y-64770000D03*
%TO.N,GND*%
X115062000Y-52070000D03*
X121869200Y-64973200D03*
X136122501Y-55664292D03*
X121920000Y-57962800D03*
X128371600Y-79908400D03*
X118465600Y-48615600D03*
X148844000Y-66649600D03*
X118110000Y-72034400D03*
X140004800Y-66103900D03*
X141028693Y-74352978D03*
X136245600Y-73406000D03*
X136499600Y-78892400D03*
X119923979Y-70420735D03*
X146964400Y-65227200D03*
X119278400Y-53898800D03*
X127355600Y-73456800D03*
X122021600Y-76606400D03*
X137414000Y-49936400D03*
X131292600Y-70069800D03*
X139700000Y-48869600D03*
X134721600Y-62128400D03*
X145237200Y-73050400D03*
X145237200Y-63550800D03*
X116992400Y-69646800D03*
X128828800Y-62382400D03*
X138042436Y-76102776D03*
X139903200Y-70866000D03*
X125171200Y-66311183D03*
X124968000Y-58216800D03*
X134416800Y-48768000D03*
X145288000Y-68580000D03*
X130810000Y-44348400D03*
X127254000Y-48818800D03*
X142480700Y-56438800D03*
X139242800Y-54051200D03*
%TO.N,+3.3V*%
X122377200Y-66294000D03*
X128066800Y-65278000D03*
X147116800Y-61112400D03*
X140106400Y-63578800D03*
X132384800Y-81178400D03*
X141481197Y-56438800D03*
X140970000Y-73355200D03*
X128524000Y-80924400D03*
X136369675Y-54417709D03*
X136519984Y-72708528D03*
X126565800Y-58216800D03*
X127457200Y-47752000D03*
X121107200Y-76606400D03*
X137793500Y-70223700D03*
X130030601Y-61599131D03*
X140328058Y-59352858D03*
X137210800Y-76657200D03*
%TO.N,RX_D7*%
X139085064Y-61608223D03*
X128171085Y-61528315D03*
%TO.N,TX_D6*%
X139722764Y-61560242D03*
X125831600Y-57759600D03*
%TO.N,MTDO{slash}IO40{slash}CAM_SDA*%
X142778620Y-64566316D03*
X123228303Y-68986400D03*
X135435433Y-73962167D03*
X137312400Y-63550800D03*
%TO.N,MTCK{slash}IO39{slash}CAM_SCL*%
X137280918Y-64331785D03*
X133096000Y-73456800D03*
X124124268Y-69024617D03*
%TO.N,D3{slash}A3*%
X132597902Y-57628415D03*
X133858000Y-59619598D03*
%TO.N,D2{slash}A2*%
X132556500Y-56591200D03*
X135026400Y-59588400D03*
%TO.N,GPIO0*%
X132638800Y-77825600D03*
X136601200Y-59542901D03*
%TO.N,MTDI{slash}IO41{slash}PDM_DATA*%
X122478800Y-68986400D03*
X139100758Y-62920105D03*
%TO.N,MTMS{slash}IO42{slash}PDM_CLK*%
X121361200Y-68986400D03*
X137215402Y-62002900D03*
%TD*%
%TA.AperFunction,Conductor*%
%TO.N,GND*%
G36*
X131051758Y-42704406D02*
G01*
X131054447Y-42704527D01*
X131938295Y-42764118D01*
X131940951Y-42764357D01*
X132821226Y-42863540D01*
X132823886Y-42863901D01*
X133698807Y-43002475D01*
X133701461Y-43002957D01*
X134569263Y-43180640D01*
X134571947Y-43181254D01*
X135227152Y-43346350D01*
X135364639Y-43380994D01*
X135430860Y-43397680D01*
X135433535Y-43398418D01*
X136281869Y-43653162D01*
X136284479Y-43654011D01*
X137120552Y-43946566D01*
X137123157Y-43947544D01*
X137945205Y-44277291D01*
X137947757Y-44278381D01*
X138754240Y-44644703D01*
X138756709Y-44645893D01*
X139545926Y-45048019D01*
X139548376Y-45049337D01*
X140318736Y-45486455D01*
X140321125Y-45487882D01*
X140924128Y-45866774D01*
X141071114Y-45959131D01*
X141073423Y-45960655D01*
X141713575Y-46404154D01*
X141801511Y-46465076D01*
X141803762Y-46466712D01*
X141956561Y-46583053D01*
X142508494Y-47003296D01*
X142510642Y-47005010D01*
X143190593Y-47572673D01*
X143192688Y-47574504D01*
X143846474Y-48172090D01*
X143848485Y-48174013D01*
X144474786Y-48800314D01*
X144476709Y-48802325D01*
X145074295Y-49456111D01*
X145076126Y-49458206D01*
X145643789Y-50138157D01*
X145645507Y-50140311D01*
X145942963Y-50530980D01*
X146182087Y-50845037D01*
X146183723Y-50847288D01*
X146663621Y-51539980D01*
X146688135Y-51575363D01*
X146689668Y-51577685D01*
X147160917Y-52327674D01*
X147162344Y-52330063D01*
X147599462Y-53100423D01*
X147600780Y-53102873D01*
X148002906Y-53892090D01*
X148004105Y-53894578D01*
X148162847Y-54244060D01*
X148370415Y-54701036D01*
X148371508Y-54703594D01*
X148701255Y-55525642D01*
X148702233Y-55528247D01*
X148994788Y-56364320D01*
X148995645Y-56366957D01*
X149053195Y-56558607D01*
X149250378Y-57215256D01*
X149251119Y-57217939D01*
X149467545Y-58076852D01*
X149468165Y-58079565D01*
X149645837Y-58947311D01*
X149646330Y-58950028D01*
X149779885Y-59793256D01*
X149784892Y-59824871D01*
X149785263Y-59827611D01*
X149884234Y-60705997D01*
X149884437Y-60707801D01*
X149884684Y-60710544D01*
X149944269Y-61594302D01*
X149944394Y-61597082D01*
X149964268Y-62482610D01*
X149964268Y-62485390D01*
X149944394Y-63370917D01*
X149944269Y-63373691D01*
X149884684Y-64257451D01*
X149884437Y-64260195D01*
X149787060Y-65124450D01*
X149785266Y-65140370D01*
X149784892Y-65143128D01*
X149782494Y-65158269D01*
X149646396Y-66017561D01*
X149646334Y-66017950D01*
X149645837Y-66020688D01*
X149468165Y-66888434D01*
X149467545Y-66891147D01*
X149251119Y-67750060D01*
X149250378Y-67752743D01*
X148995648Y-68601033D01*
X148994788Y-68603679D01*
X148702233Y-69439752D01*
X148701255Y-69442357D01*
X148371508Y-70264405D01*
X148370415Y-70266963D01*
X148004114Y-71073402D01*
X148002906Y-71075909D01*
X147600780Y-71865126D01*
X147599462Y-71867576D01*
X147162344Y-72637936D01*
X147160917Y-72640325D01*
X146689668Y-73390314D01*
X146688135Y-73392636D01*
X146183723Y-74120711D01*
X146182087Y-74122962D01*
X145645524Y-74827667D01*
X145643789Y-74829842D01*
X145076126Y-75509793D01*
X145074295Y-75511888D01*
X144476709Y-76165674D01*
X144474786Y-76167685D01*
X143848485Y-76793986D01*
X143846474Y-76795909D01*
X143192688Y-77393495D01*
X143190593Y-77395326D01*
X142510642Y-77962989D01*
X142508467Y-77964724D01*
X141803762Y-78501287D01*
X141801511Y-78502923D01*
X141073436Y-79007335D01*
X141071114Y-79008868D01*
X140321125Y-79480117D01*
X140318736Y-79481544D01*
X139548376Y-79918662D01*
X139545926Y-79919980D01*
X138756709Y-80322106D01*
X138754202Y-80323314D01*
X137947763Y-80689615D01*
X137945205Y-80690708D01*
X137123157Y-81020455D01*
X137120552Y-81021433D01*
X136284479Y-81313988D01*
X136281833Y-81314848D01*
X135433543Y-81569578D01*
X135430860Y-81570319D01*
X134571947Y-81786745D01*
X134569234Y-81787365D01*
X133701488Y-81965037D01*
X133698763Y-81965531D01*
X133298208Y-82028973D01*
X132823926Y-82104092D01*
X132821166Y-82104466D01*
X132809561Y-82105773D01*
X132740740Y-82093715D01*
X132689363Y-82046363D01*
X132671742Y-81978752D01*
X132693472Y-81912347D01*
X132729709Y-81877561D01*
X132871376Y-81788547D01*
X132994947Y-81664976D01*
X133087922Y-81517006D01*
X133145641Y-81352057D01*
X133154084Y-81277123D01*
X133165207Y-81178403D01*
X133165207Y-81178396D01*
X133145642Y-81004751D01*
X133145641Y-81004749D01*
X133145641Y-81004743D01*
X133087922Y-80839794D01*
X132994947Y-80691824D01*
X132871376Y-80568253D01*
X132723406Y-80475278D01*
X132723405Y-80475277D01*
X132723404Y-80475277D01*
X132558458Y-80417559D01*
X132558448Y-80417557D01*
X132384804Y-80397993D01*
X132384796Y-80397993D01*
X132211151Y-80417557D01*
X132211141Y-80417559D01*
X132046195Y-80475277D01*
X131898223Y-80568253D01*
X131774653Y-80691823D01*
X131681677Y-80839795D01*
X131623959Y-81004741D01*
X131623957Y-81004751D01*
X131604393Y-81178396D01*
X131604393Y-81178403D01*
X131623957Y-81352048D01*
X131623959Y-81352057D01*
X131681678Y-81517006D01*
X131774653Y-81664976D01*
X131898224Y-81788547D01*
X132046194Y-81881522D01*
X132204111Y-81936780D01*
X132260887Y-81977501D01*
X132286634Y-82042454D01*
X132273178Y-82111016D01*
X132224790Y-82161418D01*
X132177040Y-82177041D01*
X131940998Y-82203637D01*
X131938251Y-82203884D01*
X131054491Y-82263469D01*
X131051717Y-82263594D01*
X130166191Y-82283468D01*
X130163409Y-82283468D01*
X129277882Y-82263594D01*
X129275110Y-82263469D01*
X128391344Y-82203884D01*
X128388608Y-82203637D01*
X127508411Y-82104463D01*
X127505675Y-82104092D01*
X126630828Y-81965530D01*
X126628111Y-81965037D01*
X125760365Y-81787365D01*
X125757652Y-81786745D01*
X124898739Y-81570319D01*
X124896056Y-81569578D01*
X124171648Y-81352048D01*
X124047757Y-81314845D01*
X124045120Y-81313988D01*
X123209047Y-81021433D01*
X123206442Y-81020455D01*
X122966988Y-80924403D01*
X127743593Y-80924403D01*
X127763157Y-81098048D01*
X127763159Y-81098058D01*
X127820877Y-81263004D01*
X127820878Y-81263006D01*
X127913853Y-81410976D01*
X128037424Y-81534547D01*
X128185394Y-81627522D01*
X128350343Y-81685241D01*
X128350349Y-81685241D01*
X128350351Y-81685242D01*
X128523996Y-81704807D01*
X128524000Y-81704807D01*
X128524004Y-81704807D01*
X128697648Y-81685242D01*
X128697647Y-81685242D01*
X128697657Y-81685241D01*
X128862606Y-81627522D01*
X129010576Y-81534547D01*
X129134147Y-81410976D01*
X129227122Y-81263006D01*
X129284841Y-81098057D01*
X129293525Y-81020982D01*
X129304407Y-80924403D01*
X129304407Y-80924396D01*
X129284842Y-80750751D01*
X129284841Y-80750749D01*
X129284841Y-80750743D01*
X129227122Y-80585794D01*
X129134147Y-80437824D01*
X129010576Y-80314253D01*
X128862606Y-80221278D01*
X128862605Y-80221277D01*
X128862604Y-80221277D01*
X128697658Y-80163559D01*
X128697648Y-80163557D01*
X128524004Y-80143993D01*
X128523996Y-80143993D01*
X128350351Y-80163557D01*
X128350341Y-80163559D01*
X128185395Y-80221277D01*
X128037423Y-80314253D01*
X127913853Y-80437823D01*
X127820877Y-80585795D01*
X127763159Y-80750741D01*
X127763157Y-80750751D01*
X127743593Y-80924396D01*
X127743593Y-80924403D01*
X122966988Y-80924403D01*
X122384394Y-80690708D01*
X122381836Y-80689615D01*
X121909955Y-80475277D01*
X121575378Y-80323305D01*
X121572890Y-80322106D01*
X120783673Y-79919980D01*
X120781223Y-79918662D01*
X120010863Y-79481544D01*
X120008474Y-79480117D01*
X119258485Y-79008868D01*
X119256163Y-79007335D01*
X118528088Y-78502923D01*
X118525837Y-78501287D01*
X118210745Y-78261376D01*
X117821111Y-77964707D01*
X117818957Y-77962989D01*
X117593546Y-77774803D01*
X125457593Y-77774803D01*
X125477157Y-77948448D01*
X125477159Y-77948458D01*
X125494935Y-77999257D01*
X125534878Y-78113406D01*
X125627853Y-78261376D01*
X125751424Y-78384947D01*
X125899394Y-78477922D01*
X126064343Y-78535641D01*
X126064349Y-78535641D01*
X126064351Y-78535642D01*
X126237996Y-78555207D01*
X126238000Y-78555207D01*
X126238004Y-78555207D01*
X126411648Y-78535642D01*
X126411647Y-78535642D01*
X126411657Y-78535641D01*
X126576606Y-78477922D01*
X126724576Y-78384947D01*
X126848147Y-78261376D01*
X126941122Y-78113406D01*
X126998841Y-77948457D01*
X127012683Y-77825603D01*
X131858393Y-77825603D01*
X131877957Y-77999248D01*
X131877959Y-77999257D01*
X131935678Y-78164206D01*
X132028653Y-78312176D01*
X132152224Y-78435747D01*
X132300194Y-78528722D01*
X132465143Y-78586441D01*
X132465149Y-78586441D01*
X132465151Y-78586442D01*
X132638796Y-78606007D01*
X132638800Y-78606007D01*
X132638804Y-78606007D01*
X132812448Y-78586442D01*
X132812447Y-78586442D01*
X132812457Y-78586441D01*
X132977406Y-78528722D01*
X133125376Y-78435747D01*
X133248947Y-78312176D01*
X133341922Y-78164206D01*
X133399641Y-77999257D01*
X133419207Y-77825600D01*
X133413483Y-77774800D01*
X133399642Y-77651951D01*
X133399641Y-77651949D01*
X133399641Y-77651943D01*
X133341922Y-77486994D01*
X133248947Y-77339024D01*
X133125376Y-77215453D01*
X132977406Y-77122478D01*
X132977405Y-77122477D01*
X132977404Y-77122477D01*
X132812458Y-77064759D01*
X132812448Y-77064757D01*
X132638804Y-77045193D01*
X132638796Y-77045193D01*
X132465151Y-77064757D01*
X132465141Y-77064759D01*
X132300195Y-77122477D01*
X132152223Y-77215453D01*
X132028653Y-77339023D01*
X131935677Y-77486995D01*
X131877959Y-77651941D01*
X131877957Y-77651951D01*
X131858393Y-77825596D01*
X131858393Y-77825603D01*
X127012683Y-77825603D01*
X127018407Y-77774803D01*
X127018407Y-77774796D01*
X126998842Y-77601151D01*
X126998841Y-77601149D01*
X126998841Y-77601143D01*
X126941122Y-77436194D01*
X126848147Y-77288224D01*
X126724576Y-77164653D01*
X126576606Y-77071678D01*
X126576605Y-77071677D01*
X126576604Y-77071677D01*
X126411658Y-77013959D01*
X126411648Y-77013957D01*
X126238004Y-76994393D01*
X126237996Y-76994393D01*
X126064351Y-77013957D01*
X126064341Y-77013959D01*
X125899395Y-77071677D01*
X125751423Y-77164653D01*
X125627853Y-77288223D01*
X125534877Y-77436195D01*
X125477159Y-77601141D01*
X125477157Y-77601151D01*
X125457593Y-77774796D01*
X125457593Y-77774803D01*
X117593546Y-77774803D01*
X117139006Y-77395326D01*
X117136911Y-77393495D01*
X116483125Y-76795909D01*
X116481114Y-76793986D01*
X116293531Y-76606403D01*
X120326793Y-76606403D01*
X120346357Y-76780048D01*
X120346359Y-76780058D01*
X120364135Y-76830857D01*
X120404078Y-76945006D01*
X120497053Y-77092976D01*
X120620624Y-77216547D01*
X120768594Y-77309522D01*
X120933543Y-77367241D01*
X120933549Y-77367241D01*
X120933551Y-77367242D01*
X121107196Y-77386807D01*
X121107200Y-77386807D01*
X121107204Y-77386807D01*
X121280848Y-77367242D01*
X121280847Y-77367242D01*
X121280857Y-77367241D01*
X121445806Y-77309522D01*
X121593776Y-77216547D01*
X121717347Y-77092976D01*
X121810322Y-76945006D01*
X121868041Y-76780057D01*
X121881883Y-76657203D01*
X136430393Y-76657203D01*
X136449957Y-76830848D01*
X136449959Y-76830858D01*
X136507677Y-76995804D01*
X136507678Y-76995806D01*
X136600653Y-77143776D01*
X136724224Y-77267347D01*
X136872194Y-77360322D01*
X137037143Y-77418041D01*
X137037149Y-77418041D01*
X137037151Y-77418042D01*
X137210796Y-77437607D01*
X137210800Y-77437607D01*
X137210804Y-77437607D01*
X137384448Y-77418042D01*
X137384447Y-77418042D01*
X137384457Y-77418041D01*
X137549406Y-77360322D01*
X137697376Y-77267347D01*
X137820947Y-77143776D01*
X137913922Y-76995806D01*
X137971641Y-76830857D01*
X137991207Y-76657200D01*
X137985483Y-76606400D01*
X137971642Y-76483551D01*
X137971641Y-76483549D01*
X137971641Y-76483543D01*
X137913922Y-76318594D01*
X137820947Y-76170624D01*
X137697376Y-76047053D01*
X137549406Y-75954078D01*
X137549405Y-75954077D01*
X137549404Y-75954077D01*
X137384458Y-75896359D01*
X137384448Y-75896357D01*
X137210804Y-75876793D01*
X137210796Y-75876793D01*
X137037151Y-75896357D01*
X137037141Y-75896359D01*
X136872195Y-75954077D01*
X136724223Y-76047053D01*
X136600653Y-76170623D01*
X136507677Y-76318595D01*
X136449959Y-76483541D01*
X136449957Y-76483551D01*
X136430393Y-76657196D01*
X136430393Y-76657203D01*
X121881883Y-76657203D01*
X121887607Y-76606403D01*
X121887607Y-76606396D01*
X121868042Y-76432751D01*
X121868041Y-76432749D01*
X121868041Y-76432743D01*
X121810322Y-76267794D01*
X121717347Y-76119824D01*
X121593776Y-75996253D01*
X121445806Y-75903278D01*
X121445805Y-75903277D01*
X121445804Y-75903277D01*
X121280858Y-75845559D01*
X121280848Y-75845557D01*
X121107204Y-75825993D01*
X121107196Y-75825993D01*
X120933551Y-75845557D01*
X120933541Y-75845559D01*
X120768595Y-75903277D01*
X120620623Y-75996253D01*
X120497053Y-76119823D01*
X120404077Y-76267795D01*
X120346359Y-76432741D01*
X120346357Y-76432751D01*
X120326793Y-76606396D01*
X120326793Y-76606403D01*
X116293531Y-76606403D01*
X115854813Y-76167685D01*
X115852890Y-76165674D01*
X115527153Y-75809303D01*
X129673993Y-75809303D01*
X129693557Y-75982948D01*
X129693559Y-75982958D01*
X129751277Y-76147904D01*
X129751278Y-76147906D01*
X129844253Y-76295876D01*
X129967824Y-76419447D01*
X130115794Y-76512422D01*
X130280743Y-76570141D01*
X130280749Y-76570141D01*
X130280751Y-76570142D01*
X130454396Y-76589707D01*
X130454400Y-76589707D01*
X130454404Y-76589707D01*
X130628048Y-76570142D01*
X130628047Y-76570142D01*
X130628057Y-76570141D01*
X130793006Y-76512422D01*
X130940976Y-76419447D01*
X131064547Y-76295876D01*
X131157522Y-76147906D01*
X131215241Y-75982957D01*
X131218495Y-75954077D01*
X131234807Y-75809303D01*
X131234807Y-75809296D01*
X131215242Y-75635651D01*
X131215241Y-75635649D01*
X131215241Y-75635643D01*
X131157522Y-75470694D01*
X131064547Y-75322724D01*
X130940976Y-75199153D01*
X130793006Y-75106178D01*
X130793005Y-75106177D01*
X130793004Y-75106177D01*
X130628058Y-75048459D01*
X130628048Y-75048457D01*
X130454404Y-75028893D01*
X130454396Y-75028893D01*
X130280751Y-75048457D01*
X130280741Y-75048459D01*
X130115795Y-75106177D01*
X129967823Y-75199153D01*
X129844253Y-75322723D01*
X129751277Y-75470695D01*
X129693559Y-75635641D01*
X129693557Y-75635651D01*
X129673993Y-75809296D01*
X129673993Y-75809303D01*
X115527153Y-75809303D01*
X115255304Y-75511888D01*
X115253473Y-75509793D01*
X114685810Y-74829842D01*
X114684096Y-74827694D01*
X114219601Y-74217642D01*
X114147512Y-74122962D01*
X114145876Y-74120711D01*
X114108628Y-74066947D01*
X113861891Y-73710803D01*
X130819293Y-73710803D01*
X130838857Y-73884448D01*
X130838859Y-73884458D01*
X130867164Y-73965347D01*
X130896578Y-74049406D01*
X130989553Y-74197376D01*
X131113124Y-74320947D01*
X131261094Y-74413922D01*
X131426043Y-74471641D01*
X131426049Y-74471641D01*
X131426051Y-74471642D01*
X131599696Y-74491207D01*
X131599700Y-74491207D01*
X131599704Y-74491207D01*
X131773348Y-74471642D01*
X131773347Y-74471642D01*
X131773357Y-74471641D01*
X131938306Y-74413922D01*
X132086276Y-74320947D01*
X132209847Y-74197376D01*
X132302822Y-74049406D01*
X132312572Y-74021541D01*
X132353290Y-73964768D01*
X132418242Y-73939019D01*
X132486804Y-73952474D01*
X132517293Y-73974815D01*
X132609424Y-74066947D01*
X132757394Y-74159922D01*
X132922343Y-74217641D01*
X132922349Y-74217641D01*
X132922351Y-74217642D01*
X133095996Y-74237207D01*
X133096000Y-74237207D01*
X133096004Y-74237207D01*
X133269648Y-74217642D01*
X133269647Y-74217642D01*
X133269657Y-74217641D01*
X133434606Y-74159922D01*
X133582576Y-74066947D01*
X133687353Y-73962170D01*
X134655026Y-73962170D01*
X134674590Y-74135815D01*
X134674592Y-74135825D01*
X134710068Y-74237207D01*
X134732311Y-74300773D01*
X134825286Y-74448743D01*
X134948857Y-74572314D01*
X135096827Y-74665289D01*
X135261776Y-74723008D01*
X135261782Y-74723008D01*
X135261784Y-74723009D01*
X135435429Y-74742574D01*
X135435433Y-74742574D01*
X135435437Y-74742574D01*
X135609081Y-74723009D01*
X135609080Y-74723009D01*
X135609090Y-74723008D01*
X135774039Y-74665289D01*
X135922009Y-74572314D01*
X136045580Y-74448743D01*
X136138555Y-74300773D01*
X136196274Y-74135824D01*
X136198503Y-74116040D01*
X136215840Y-73962170D01*
X136215840Y-73962163D01*
X136196275Y-73788518D01*
X136196274Y-73788516D01*
X136196274Y-73788510D01*
X136163134Y-73693804D01*
X136138556Y-73623563D01*
X136137031Y-73620397D01*
X136136660Y-73618146D01*
X136136255Y-73616988D01*
X136136458Y-73616916D01*
X136125680Y-73551456D01*
X136153403Y-73487322D01*
X136211399Y-73448357D01*
X136281254Y-73446932D01*
X136289686Y-73449549D01*
X136346327Y-73469369D01*
X136346331Y-73469369D01*
X136346335Y-73469370D01*
X136519980Y-73488935D01*
X136519984Y-73488935D01*
X136519988Y-73488935D01*
X136693632Y-73469370D01*
X136693631Y-73469370D01*
X136693641Y-73469369D01*
X136858590Y-73411650D01*
X137006560Y-73318675D01*
X137130131Y-73195104D01*
X137223106Y-73047134D01*
X137280825Y-72882185D01*
X137288095Y-72817658D01*
X137300391Y-72708531D01*
X137300391Y-72708524D01*
X137280826Y-72534879D01*
X137280825Y-72534877D01*
X137280825Y-72534871D01*
X137223106Y-72369922D01*
X137130131Y-72221952D01*
X137006560Y-72098381D01*
X136858590Y-72005406D01*
X136858589Y-72005405D01*
X136858588Y-72005405D01*
X136693642Y-71947687D01*
X136693632Y-71947685D01*
X136519988Y-71928121D01*
X136519980Y-71928121D01*
X136346335Y-71947685D01*
X136346325Y-71947687D01*
X136181379Y-72005405D01*
X136033407Y-72098381D01*
X135909837Y-72221951D01*
X135816861Y-72369923D01*
X135759143Y-72534869D01*
X135759141Y-72534879D01*
X135739577Y-72708524D01*
X135739577Y-72708531D01*
X135759141Y-72882176D01*
X135759143Y-72882186D01*
X135816862Y-73047136D01*
X135818387Y-73050302D01*
X135818756Y-73052549D01*
X135819162Y-73053707D01*
X135818959Y-73053777D01*
X135829735Y-73119244D01*
X135802009Y-73183377D01*
X135744012Y-73222339D01*
X135674157Y-73223760D01*
X135665709Y-73221138D01*
X135609092Y-73201326D01*
X135609081Y-73201324D01*
X135435437Y-73181760D01*
X135435429Y-73181760D01*
X135261784Y-73201324D01*
X135261774Y-73201326D01*
X135096828Y-73259044D01*
X134948856Y-73352020D01*
X134825286Y-73475590D01*
X134732310Y-73623562D01*
X134674592Y-73788508D01*
X134674590Y-73788518D01*
X134655026Y-73962163D01*
X134655026Y-73962170D01*
X133687353Y-73962170D01*
X133706147Y-73943376D01*
X133799122Y-73795406D01*
X133856841Y-73630457D01*
X133868288Y-73528858D01*
X133876407Y-73456803D01*
X133876407Y-73456796D01*
X133856842Y-73283151D01*
X133856841Y-73283149D01*
X133856841Y-73283143D01*
X133799122Y-73118194D01*
X133706147Y-72970224D01*
X133582576Y-72846653D01*
X133434606Y-72753678D01*
X133434605Y-72753677D01*
X133434604Y-72753677D01*
X133269658Y-72695959D01*
X133269648Y-72695957D01*
X133096004Y-72676393D01*
X133095996Y-72676393D01*
X132922351Y-72695957D01*
X132922341Y-72695959D01*
X132757395Y-72753677D01*
X132609423Y-72846653D01*
X132485853Y-72970223D01*
X132392878Y-73118194D01*
X132383128Y-73146058D01*
X132342406Y-73202833D01*
X132277453Y-73228580D01*
X132208892Y-73215123D01*
X132178406Y-73192783D01*
X132086276Y-73100653D01*
X132086275Y-73100653D01*
X131938306Y-73007678D01*
X131938305Y-73007677D01*
X131938304Y-73007677D01*
X131773358Y-72949959D01*
X131773348Y-72949957D01*
X131599704Y-72930393D01*
X131599696Y-72930393D01*
X131426051Y-72949957D01*
X131426041Y-72949959D01*
X131261095Y-73007677D01*
X131113123Y-73100653D01*
X130989553Y-73224223D01*
X130896577Y-73372195D01*
X130838859Y-73537141D01*
X130838857Y-73537151D01*
X130819293Y-73710796D01*
X130819293Y-73710803D01*
X113861891Y-73710803D01*
X113641455Y-73392623D01*
X113639931Y-73390314D01*
X113628545Y-73372194D01*
X113170993Y-72644003D01*
X122866793Y-72644003D01*
X122886357Y-72817648D01*
X122886359Y-72817658D01*
X122932653Y-72949957D01*
X122944078Y-72982606D01*
X123037053Y-73130576D01*
X123160624Y-73254147D01*
X123308594Y-73347122D01*
X123473543Y-73404841D01*
X123473549Y-73404841D01*
X123473551Y-73404842D01*
X123647196Y-73424407D01*
X123647200Y-73424407D01*
X123647204Y-73424407D01*
X123820848Y-73404842D01*
X123820847Y-73404842D01*
X123820857Y-73404841D01*
X123985806Y-73347122D01*
X124133776Y-73254147D01*
X124257347Y-73130576D01*
X124350322Y-72982606D01*
X124408041Y-72817657D01*
X124421753Y-72695957D01*
X124427607Y-72644003D01*
X124427607Y-72643996D01*
X124408042Y-72470351D01*
X124408041Y-72470349D01*
X124408041Y-72470343D01*
X124350322Y-72305394D01*
X124257347Y-72157424D01*
X124133776Y-72033853D01*
X123985806Y-71940878D01*
X123985805Y-71940877D01*
X123985804Y-71940877D01*
X123820858Y-71883159D01*
X123820848Y-71883157D01*
X123647204Y-71863593D01*
X123647196Y-71863593D01*
X123473551Y-71883157D01*
X123473541Y-71883159D01*
X123308595Y-71940877D01*
X123160623Y-72033853D01*
X123037053Y-72157423D01*
X122944077Y-72305395D01*
X122886359Y-72470341D01*
X122886357Y-72470351D01*
X122866793Y-72643996D01*
X122866793Y-72644003D01*
X113170993Y-72644003D01*
X113168682Y-72640325D01*
X113167255Y-72637936D01*
X112862240Y-72100389D01*
X112730131Y-71867566D01*
X112728819Y-71865126D01*
X112326693Y-71075909D01*
X112325503Y-71073440D01*
X111959181Y-70266957D01*
X111958091Y-70264405D01*
X111914126Y-70154803D01*
X126575193Y-70154803D01*
X126594757Y-70328448D01*
X126594759Y-70328458D01*
X126626611Y-70419483D01*
X126652478Y-70493406D01*
X126745453Y-70641376D01*
X126869024Y-70764947D01*
X127016994Y-70857922D01*
X127181943Y-70915641D01*
X127181949Y-70915641D01*
X127181951Y-70915642D01*
X127355596Y-70935207D01*
X127355600Y-70935207D01*
X127355604Y-70935207D01*
X127529248Y-70915642D01*
X127529247Y-70915642D01*
X127529257Y-70915641D01*
X127694206Y-70857922D01*
X127825035Y-70775717D01*
X127892269Y-70756718D01*
X127959104Y-70777086D01*
X128004318Y-70830354D01*
X128013556Y-70899610D01*
X128008045Y-70921667D01*
X127963859Y-71047940D01*
X127963857Y-71047951D01*
X127944293Y-71221596D01*
X127944293Y-71221603D01*
X127963857Y-71395248D01*
X127963859Y-71395258D01*
X128000490Y-71499941D01*
X128021578Y-71560206D01*
X128114553Y-71708176D01*
X128238124Y-71831747D01*
X128386094Y-71924722D01*
X128551043Y-71982441D01*
X128551049Y-71982441D01*
X128551051Y-71982442D01*
X128724696Y-72002007D01*
X128724700Y-72002007D01*
X128724704Y-72002007D01*
X128898348Y-71982442D01*
X128898347Y-71982442D01*
X128898357Y-71982441D01*
X129063306Y-71924722D01*
X129211276Y-71831747D01*
X129334847Y-71708176D01*
X129427822Y-71560206D01*
X129485541Y-71395257D01*
X129494949Y-71311754D01*
X129505107Y-71221603D01*
X129505107Y-71221596D01*
X129485542Y-71047951D01*
X129485541Y-71047949D01*
X129485541Y-71047943D01*
X129427822Y-70882994D01*
X129427820Y-70882992D01*
X129427820Y-70882990D01*
X129426680Y-70881176D01*
X129426301Y-70879835D01*
X129424798Y-70876714D01*
X129425344Y-70876450D01*
X129407677Y-70813941D01*
X129425298Y-70753927D01*
X129424798Y-70753686D01*
X129426263Y-70750642D01*
X129426680Y-70749224D01*
X129427820Y-70747409D01*
X129427819Y-70747409D01*
X129427822Y-70747406D01*
X129485541Y-70582457D01*
X129503903Y-70419483D01*
X129525773Y-70367433D01*
X129524491Y-70366664D01*
X129515546Y-70348564D01*
X129717025Y-70348564D01*
X129718307Y-70349334D01*
X129749263Y-70411972D01*
X129750343Y-70419483D01*
X129757257Y-70480849D01*
X129757259Y-70480858D01*
X129792808Y-70582449D01*
X129814978Y-70645806D01*
X129907953Y-70793776D01*
X130031524Y-70917347D01*
X130086282Y-70951753D01*
X130115676Y-70970223D01*
X130161967Y-71022558D01*
X130172615Y-71091611D01*
X130166746Y-71116170D01*
X130153990Y-71152625D01*
X130153988Y-71152634D01*
X130134424Y-71326279D01*
X130134424Y-71326286D01*
X130153988Y-71499931D01*
X130153990Y-71499941D01*
X130197636Y-71624672D01*
X130211709Y-71664889D01*
X130304684Y-71812859D01*
X130428255Y-71936430D01*
X130576225Y-72029405D01*
X130741174Y-72087124D01*
X130741180Y-72087124D01*
X130741182Y-72087125D01*
X130914827Y-72106690D01*
X130914831Y-72106690D01*
X130914835Y-72106690D01*
X131088479Y-72087125D01*
X131088478Y-72087125D01*
X131088488Y-72087124D01*
X131253437Y-72029405D01*
X131401407Y-71936430D01*
X131465498Y-71872338D01*
X131526817Y-71838856D01*
X131594128Y-71842980D01*
X131754040Y-71898937D01*
X131754046Y-71898937D01*
X131754048Y-71898938D01*
X131927693Y-71918503D01*
X131927697Y-71918503D01*
X131927701Y-71918503D01*
X132101345Y-71898938D01*
X132101344Y-71898938D01*
X132101354Y-71898937D01*
X132266303Y-71841218D01*
X132414273Y-71748243D01*
X132537844Y-71624672D01*
X132544665Y-71613816D01*
X140102514Y-71613816D01*
X140122078Y-71787461D01*
X140122080Y-71787471D01*
X140178142Y-71947685D01*
X140179799Y-71952419D01*
X140272774Y-72100389D01*
X140396345Y-72223960D01*
X140544315Y-72316935D01*
X140709264Y-72374654D01*
X140709270Y-72374654D01*
X140709272Y-72374655D01*
X140710216Y-72374762D01*
X140710784Y-72375000D01*
X140716059Y-72376205D01*
X140715848Y-72377128D01*
X140774631Y-72401828D01*
X140814186Y-72459422D01*
X140816325Y-72529259D01*
X140780367Y-72589166D01*
X140737289Y-72615023D01*
X140631395Y-72652077D01*
X140483423Y-72745053D01*
X140359853Y-72868623D01*
X140266877Y-73016595D01*
X140209159Y-73181541D01*
X140209157Y-73181551D01*
X140189593Y-73355196D01*
X140189593Y-73355203D01*
X140209157Y-73528848D01*
X140209159Y-73528858D01*
X140244711Y-73630457D01*
X140266878Y-73693806D01*
X140359853Y-73841776D01*
X140483424Y-73965347D01*
X140631394Y-74058322D01*
X140796343Y-74116041D01*
X140796349Y-74116041D01*
X140796351Y-74116042D01*
X140969996Y-74135607D01*
X140970000Y-74135607D01*
X140970004Y-74135607D01*
X141143648Y-74116042D01*
X141143647Y-74116042D01*
X141143657Y-74116041D01*
X141308606Y-74058322D01*
X141456576Y-73965347D01*
X141580147Y-73841776D01*
X141673122Y-73693806D01*
X141730841Y-73528857D01*
X141736843Y-73475590D01*
X141750407Y-73355203D01*
X141750407Y-73355196D01*
X141730842Y-73181551D01*
X141730841Y-73181549D01*
X141730841Y-73181543D01*
X141673122Y-73016594D01*
X141580147Y-72868624D01*
X141456576Y-72745053D01*
X141308606Y-72652078D01*
X141308605Y-72652077D01*
X141308604Y-72652077D01*
X141143658Y-72594359D01*
X141143646Y-72594356D01*
X141142690Y-72594249D01*
X141142114Y-72594007D01*
X141136862Y-72592808D01*
X141137072Y-72591887D01*
X141078279Y-72567176D01*
X141038729Y-72509577D01*
X141036599Y-72439739D01*
X141072563Y-72379837D01*
X141115624Y-72353992D01*
X141221527Y-72316935D01*
X141369497Y-72223960D01*
X141493068Y-72100389D01*
X141586043Y-71952419D01*
X141643762Y-71787470D01*
X141657573Y-71664889D01*
X141663328Y-71613816D01*
X141663328Y-71613809D01*
X141643763Y-71440164D01*
X141643762Y-71440162D01*
X141643762Y-71440156D01*
X141586043Y-71275207D01*
X141493068Y-71127237D01*
X141369497Y-71003666D01*
X141221527Y-70910691D01*
X141221526Y-70910690D01*
X141221525Y-70910690D01*
X141056579Y-70852972D01*
X141056569Y-70852970D01*
X140882925Y-70833406D01*
X140882917Y-70833406D01*
X140709272Y-70852970D01*
X140709262Y-70852972D01*
X140544316Y-70910690D01*
X140396344Y-71003666D01*
X140272774Y-71127236D01*
X140179798Y-71275208D01*
X140122080Y-71440154D01*
X140122078Y-71440164D01*
X140102514Y-71613809D01*
X140102514Y-71613816D01*
X132544665Y-71613816D01*
X132630819Y-71476702D01*
X132688538Y-71311753D01*
X132708104Y-71138096D01*
X132707819Y-71135567D01*
X132688539Y-70964447D01*
X132688538Y-70964445D01*
X132688538Y-70964439D01*
X132630819Y-70799490D01*
X132537844Y-70651520D01*
X132414273Y-70527949D01*
X132266303Y-70434974D01*
X132266302Y-70434973D01*
X132266301Y-70434973D01*
X132101355Y-70377255D01*
X132101345Y-70377253D01*
X131927701Y-70357689D01*
X131927693Y-70357689D01*
X131754048Y-70377253D01*
X131754038Y-70377255D01*
X131589093Y-70434973D01*
X131478894Y-70504214D01*
X131411657Y-70523213D01*
X131344822Y-70502844D01*
X131299608Y-70449576D01*
X131289703Y-70385335D01*
X131290614Y-70377255D01*
X131298507Y-70307200D01*
X131298149Y-70304026D01*
X131278942Y-70133551D01*
X131278941Y-70133549D01*
X131278941Y-70133543D01*
X131221222Y-69968594D01*
X131128247Y-69820624D01*
X131004676Y-69697053D01*
X130856706Y-69604078D01*
X130856705Y-69604077D01*
X130856704Y-69604077D01*
X130691758Y-69546359D01*
X130691748Y-69546357D01*
X130518104Y-69526793D01*
X130518096Y-69526793D01*
X130344451Y-69546357D01*
X130344441Y-69546359D01*
X130179495Y-69604077D01*
X130031523Y-69697053D01*
X129907953Y-69820623D01*
X129814977Y-69968595D01*
X129757259Y-70133541D01*
X129757257Y-70133551D01*
X129738896Y-70296515D01*
X129717025Y-70348564D01*
X129515546Y-70348564D01*
X129493536Y-70304026D01*
X129492456Y-70296514D01*
X129485542Y-70235151D01*
X129485541Y-70235149D01*
X129485541Y-70235143D01*
X129427822Y-70070194D01*
X129334847Y-69922224D01*
X129334846Y-69922222D01*
X129330506Y-69916781D01*
X129331498Y-69915989D01*
X129301486Y-69861025D01*
X129306470Y-69791333D01*
X129334971Y-69746986D01*
X129344834Y-69737123D01*
X129370148Y-69711809D01*
X129463123Y-69563839D01*
X129520842Y-69398890D01*
X129530460Y-69313523D01*
X129540408Y-69225236D01*
X129540408Y-69225229D01*
X129520843Y-69051584D01*
X129520842Y-69051582D01*
X129520842Y-69051576D01*
X129463123Y-68886627D01*
X129370148Y-68738657D01*
X129246577Y-68615086D01*
X129098607Y-68522111D01*
X129098606Y-68522110D01*
X129098605Y-68522110D01*
X128933659Y-68464392D01*
X128933649Y-68464390D01*
X128892359Y-68459738D01*
X131128528Y-68459738D01*
X131148092Y-68633383D01*
X131148094Y-68633393D01*
X131184928Y-68738656D01*
X131205813Y-68798341D01*
X131298788Y-68946311D01*
X131422359Y-69069882D01*
X131570329Y-69162857D01*
X131735278Y-69220576D01*
X131735284Y-69220576D01*
X131735286Y-69220577D01*
X131908931Y-69240142D01*
X131908935Y-69240142D01*
X131908939Y-69240142D01*
X132082583Y-69220577D01*
X132082582Y-69220577D01*
X132082592Y-69220576D01*
X132247541Y-69162857D01*
X132395511Y-69069882D01*
X132519082Y-68946311D01*
X132605504Y-68808770D01*
X136506426Y-68808770D01*
X136525990Y-68982415D01*
X136525992Y-68982425D01*
X136583710Y-69147371D01*
X136583711Y-69147373D01*
X136676686Y-69295343D01*
X136800257Y-69418914D01*
X136948227Y-69511889D01*
X137110226Y-69568575D01*
X137167001Y-69609296D01*
X137192748Y-69674249D01*
X137179292Y-69742811D01*
X137174264Y-69751587D01*
X137090378Y-69885092D01*
X137032659Y-70050041D01*
X137032657Y-70050051D01*
X137013093Y-70223696D01*
X137013093Y-70223703D01*
X137032657Y-70397348D01*
X137032659Y-70397358D01*
X137090377Y-70562304D01*
X137090378Y-70562306D01*
X137183353Y-70710276D01*
X137306924Y-70833847D01*
X137454894Y-70926822D01*
X137619843Y-70984541D01*
X137619849Y-70984541D01*
X137619851Y-70984542D01*
X137793496Y-71004107D01*
X137793500Y-71004107D01*
X137793504Y-71004107D01*
X137967148Y-70984542D01*
X137967147Y-70984542D01*
X137967157Y-70984541D01*
X138132106Y-70926822D01*
X138280076Y-70833847D01*
X138403647Y-70710276D01*
X138496622Y-70562306D01*
X138554341Y-70397357D01*
X138564499Y-70307200D01*
X138573907Y-70223703D01*
X138573907Y-70223696D01*
X138554342Y-70050051D01*
X138554341Y-70050049D01*
X138554341Y-70050043D01*
X138496622Y-69885094D01*
X138403647Y-69737124D01*
X138280076Y-69613553D01*
X138132106Y-69520578D01*
X138112163Y-69513599D01*
X138055389Y-69472877D01*
X138037563Y-69427903D01*
X143897993Y-69427903D01*
X143917557Y-69601548D01*
X143917559Y-69601558D01*
X143975277Y-69766504D01*
X143975278Y-69766506D01*
X144068253Y-69914476D01*
X144191824Y-70038047D01*
X144339794Y-70131022D01*
X144504743Y-70188741D01*
X144504749Y-70188741D01*
X144504751Y-70188742D01*
X144678396Y-70208307D01*
X144678400Y-70208307D01*
X144678404Y-70208307D01*
X144852048Y-70188742D01*
X144852047Y-70188742D01*
X144852057Y-70188741D01*
X145017006Y-70131022D01*
X145164976Y-70038047D01*
X145288547Y-69914476D01*
X145381522Y-69766506D01*
X145439241Y-69601557D01*
X145445460Y-69546359D01*
X145458807Y-69427903D01*
X145458807Y-69427896D01*
X145439242Y-69254251D01*
X145439241Y-69254249D01*
X145439241Y-69254243D01*
X145381522Y-69089294D01*
X145288547Y-68941324D01*
X145164976Y-68817753D01*
X145017006Y-68724778D01*
X145017005Y-68724777D01*
X145017004Y-68724777D01*
X144852058Y-68667059D01*
X144852048Y-68667057D01*
X144678404Y-68647493D01*
X144678396Y-68647493D01*
X144504751Y-68667057D01*
X144504741Y-68667059D01*
X144339795Y-68724777D01*
X144191823Y-68817753D01*
X144068253Y-68941323D01*
X143975277Y-69089295D01*
X143917559Y-69254241D01*
X143917557Y-69254251D01*
X143897993Y-69427896D01*
X143897993Y-69427903D01*
X138037563Y-69427903D01*
X138029643Y-69407923D01*
X138043101Y-69339362D01*
X138091489Y-69288960D01*
X138139241Y-69273338D01*
X138148053Y-69272346D01*
X138313002Y-69214627D01*
X138460972Y-69121652D01*
X138584543Y-68998081D01*
X138677518Y-68850111D01*
X138735237Y-68685162D01*
X138740475Y-68638669D01*
X138754803Y-68511508D01*
X138754803Y-68511501D01*
X138735238Y-68337856D01*
X138735237Y-68337849D01*
X138732372Y-68329661D01*
X138705883Y-68253962D01*
X138702321Y-68184187D01*
X138737050Y-68123559D01*
X138799043Y-68091332D01*
X138868618Y-68097736D01*
X138910606Y-68125329D01*
X139010224Y-68224947D01*
X139158194Y-68317922D01*
X139323143Y-68375641D01*
X139323149Y-68375641D01*
X139323151Y-68375642D01*
X139496796Y-68395207D01*
X139496800Y-68395207D01*
X139496804Y-68395207D01*
X139670448Y-68375642D01*
X139670447Y-68375642D01*
X139670457Y-68375641D01*
X139835406Y-68317922D01*
X139945780Y-68248569D01*
X140013012Y-68229571D01*
X140077717Y-68248570D01*
X140157512Y-68298708D01*
X140322461Y-68356427D01*
X140322467Y-68356427D01*
X140322469Y-68356428D01*
X140496114Y-68375993D01*
X140496118Y-68375993D01*
X140496122Y-68375993D01*
X140669768Y-68356428D01*
X140669768Y-68356427D01*
X140669775Y-68356427D01*
X140708960Y-68342714D01*
X140778735Y-68339152D01*
X140815883Y-68354760D01*
X140906063Y-68411424D01*
X141071012Y-68469143D01*
X141071018Y-68469143D01*
X141071020Y-68469144D01*
X141244665Y-68488709D01*
X141244669Y-68488709D01*
X141244673Y-68488709D01*
X141418317Y-68469144D01*
X141418316Y-68469144D01*
X141418326Y-68469143D01*
X141583275Y-68411424D01*
X141731245Y-68318449D01*
X141854816Y-68194878D01*
X141947791Y-68046908D01*
X142005510Y-67881959D01*
X142016433Y-67785010D01*
X142025076Y-67708305D01*
X142025076Y-67708298D01*
X142005511Y-67534653D01*
X142005510Y-67534651D01*
X142005510Y-67534645D01*
X141947791Y-67369696D01*
X141854816Y-67221726D01*
X141731245Y-67098155D01*
X141583275Y-67005180D01*
X141583274Y-67005179D01*
X141583273Y-67005179D01*
X141438166Y-66954403D01*
X145015593Y-66954403D01*
X145035157Y-67128048D01*
X145035159Y-67128058D01*
X145086995Y-67276194D01*
X145092878Y-67293006D01*
X145185853Y-67440976D01*
X145309424Y-67564547D01*
X145457394Y-67657522D01*
X145622343Y-67715241D01*
X145622349Y-67715241D01*
X145622351Y-67715242D01*
X145795996Y-67734807D01*
X145796000Y-67734807D01*
X145796004Y-67734807D01*
X145969648Y-67715242D01*
X145969647Y-67715242D01*
X145969657Y-67715241D01*
X146134606Y-67657522D01*
X146282576Y-67564547D01*
X146406147Y-67440976D01*
X146499122Y-67293006D01*
X146556841Y-67128057D01*
X146565090Y-67054841D01*
X146576407Y-66954403D01*
X146576407Y-66954396D01*
X146556842Y-66780751D01*
X146556841Y-66780749D01*
X146556841Y-66780743D01*
X146499122Y-66615794D01*
X146406147Y-66467824D01*
X146282576Y-66344253D01*
X146134606Y-66251278D01*
X146134605Y-66251277D01*
X146134604Y-66251277D01*
X145969658Y-66193559D01*
X145969648Y-66193557D01*
X145796004Y-66173993D01*
X145795996Y-66173993D01*
X145622351Y-66193557D01*
X145622341Y-66193559D01*
X145457395Y-66251277D01*
X145309423Y-66344253D01*
X145185853Y-66467823D01*
X145092877Y-66615795D01*
X145035159Y-66780741D01*
X145035157Y-66780751D01*
X145015593Y-66954396D01*
X145015593Y-66954403D01*
X141438166Y-66954403D01*
X141418327Y-66947461D01*
X141418317Y-66947459D01*
X141244673Y-66927895D01*
X141244665Y-66927895D01*
X141071017Y-66947459D01*
X141071005Y-66947462D01*
X141031824Y-66961172D01*
X140962045Y-66964733D01*
X140924900Y-66949124D01*
X140834725Y-66892464D01*
X140669776Y-66834745D01*
X140669766Y-66834743D01*
X140496122Y-66815179D01*
X140496114Y-66815179D01*
X140322469Y-66834743D01*
X140322459Y-66834745D01*
X140157510Y-66892464D01*
X140047140Y-66961814D01*
X139979903Y-66980814D01*
X139915198Y-66961814D01*
X139835406Y-66911678D01*
X139835405Y-66911677D01*
X139835404Y-66911677D01*
X139670458Y-66853959D01*
X139670448Y-66853957D01*
X139496804Y-66834393D01*
X139496796Y-66834393D01*
X139323151Y-66853957D01*
X139323141Y-66853959D01*
X139158195Y-66911677D01*
X139010223Y-67004653D01*
X138886653Y-67128223D01*
X138793677Y-67276195D01*
X138735959Y-67441141D01*
X138735957Y-67441151D01*
X138716393Y-67614796D01*
X138716393Y-67614803D01*
X138735957Y-67788448D01*
X138735959Y-67788458D01*
X138765311Y-67872339D01*
X138768873Y-67942118D01*
X138734145Y-68002745D01*
X138672152Y-68034973D01*
X138602576Y-68028568D01*
X138560589Y-68000975D01*
X138460972Y-67901358D01*
X138332114Y-67820392D01*
X138313002Y-67808383D01*
X138313001Y-67808382D01*
X138313000Y-67808382D01*
X138148054Y-67750664D01*
X138148044Y-67750662D01*
X137974400Y-67731098D01*
X137974392Y-67731098D01*
X137800747Y-67750662D01*
X137800737Y-67750664D01*
X137635791Y-67808382D01*
X137487821Y-67901357D01*
X137395551Y-67993627D01*
X137334227Y-68027111D01*
X137293994Y-68029166D01*
X137286837Y-68028360D01*
X137286829Y-68028360D01*
X137113184Y-68047924D01*
X137113174Y-68047926D01*
X136948228Y-68105644D01*
X136800256Y-68198620D01*
X136676686Y-68322190D01*
X136583710Y-68470162D01*
X136525992Y-68635108D01*
X136525990Y-68635118D01*
X136506426Y-68808763D01*
X136506426Y-68808770D01*
X132605504Y-68808770D01*
X132612057Y-68798341D01*
X132669776Y-68633392D01*
X132682156Y-68523514D01*
X132689342Y-68459738D01*
X132689342Y-68459731D01*
X132669777Y-68286086D01*
X132669776Y-68286084D01*
X132669776Y-68286078D01*
X132631261Y-68176010D01*
X132627699Y-68106231D01*
X132662427Y-68045604D01*
X132707339Y-68018017D01*
X132866506Y-67962322D01*
X133014476Y-67869347D01*
X133138047Y-67745776D01*
X133231022Y-67597806D01*
X133288741Y-67432857D01*
X133296706Y-67362162D01*
X133308307Y-67259203D01*
X133308307Y-67259196D01*
X133288742Y-67085551D01*
X133288741Y-67085549D01*
X133288741Y-67085543D01*
X133231022Y-66920594D01*
X133138047Y-66772624D01*
X133014476Y-66649053D01*
X132866506Y-66556078D01*
X132866505Y-66556077D01*
X132866504Y-66556077D01*
X132843430Y-66548003D01*
X134195193Y-66548003D01*
X134214757Y-66721648D01*
X134214759Y-66721658D01*
X134261053Y-66853957D01*
X134272478Y-66886606D01*
X134365453Y-67034576D01*
X134489024Y-67158147D01*
X134636994Y-67251122D01*
X134801943Y-67308841D01*
X134801949Y-67308841D01*
X134801951Y-67308842D01*
X134975596Y-67328407D01*
X134975600Y-67328407D01*
X134975604Y-67328407D01*
X135149248Y-67308842D01*
X135149247Y-67308842D01*
X135149257Y-67308841D01*
X135314206Y-67251122D01*
X135462176Y-67158147D01*
X135585747Y-67034576D01*
X135678722Y-66886606D01*
X135736441Y-66721657D01*
X135737221Y-66714726D01*
X135756007Y-66548003D01*
X135756007Y-66547996D01*
X135736442Y-66374351D01*
X135736441Y-66374349D01*
X135736441Y-66374343D01*
X135678722Y-66209394D01*
X135585747Y-66061424D01*
X135462176Y-65937853D01*
X135314206Y-65844878D01*
X135314205Y-65844877D01*
X135314204Y-65844877D01*
X135149258Y-65787159D01*
X135149248Y-65787157D01*
X134975604Y-65767593D01*
X134975596Y-65767593D01*
X134801951Y-65787157D01*
X134801941Y-65787159D01*
X134636995Y-65844877D01*
X134489023Y-65937853D01*
X134365453Y-66061423D01*
X134272477Y-66209395D01*
X134214759Y-66374341D01*
X134214757Y-66374351D01*
X134195193Y-66547996D01*
X134195193Y-66548003D01*
X132843430Y-66548003D01*
X132701558Y-66498359D01*
X132701548Y-66498357D01*
X132527904Y-66478793D01*
X132527896Y-66478793D01*
X132354251Y-66498357D01*
X132354241Y-66498359D01*
X132189295Y-66556077D01*
X132041323Y-66649053D01*
X131917753Y-66772623D01*
X131824777Y-66920595D01*
X131767059Y-67085541D01*
X131767057Y-67085551D01*
X131747493Y-67259196D01*
X131747493Y-67259203D01*
X131767057Y-67432848D01*
X131767057Y-67432850D01*
X131767058Y-67432855D01*
X131767059Y-67432857D01*
X131805574Y-67542924D01*
X131809135Y-67612703D01*
X131774406Y-67673331D01*
X131729487Y-67700920D01*
X131570330Y-67756612D01*
X131422358Y-67849588D01*
X131298788Y-67973158D01*
X131205812Y-68121130D01*
X131148094Y-68286076D01*
X131148092Y-68286086D01*
X131128528Y-68459731D01*
X131128528Y-68459738D01*
X128892359Y-68459738D01*
X128760005Y-68444826D01*
X128759997Y-68444826D01*
X128586352Y-68464390D01*
X128586342Y-68464392D01*
X128421396Y-68522110D01*
X128273424Y-68615086D01*
X128149854Y-68738656D01*
X128056878Y-68886628D01*
X127999160Y-69051574D01*
X127999158Y-69051584D01*
X127979594Y-69225229D01*
X127979594Y-69225236D01*
X127999939Y-69405810D01*
X127996819Y-69406161D01*
X127993399Y-69462082D01*
X127952106Y-69518444D01*
X127886896Y-69543533D01*
X127818474Y-69529385D01*
X127810806Y-69524941D01*
X127694207Y-69451678D01*
X127529258Y-69393959D01*
X127529248Y-69393957D01*
X127355604Y-69374393D01*
X127355596Y-69374393D01*
X127181951Y-69393957D01*
X127181941Y-69393959D01*
X127016995Y-69451677D01*
X126869023Y-69544653D01*
X126745453Y-69668223D01*
X126652477Y-69816195D01*
X126594759Y-69981141D01*
X126594757Y-69981151D01*
X126575193Y-70154796D01*
X126575193Y-70154803D01*
X111914126Y-70154803D01*
X111628344Y-69442357D01*
X111627366Y-69439752D01*
X111468732Y-68986403D01*
X120580793Y-68986403D01*
X120600357Y-69160048D01*
X120600359Y-69160058D01*
X120654060Y-69313523D01*
X120658078Y-69325006D01*
X120751053Y-69472976D01*
X120874624Y-69596547D01*
X121022594Y-69689522D01*
X121187543Y-69747241D01*
X121187549Y-69747241D01*
X121187551Y-69747242D01*
X121361196Y-69766807D01*
X121361200Y-69766807D01*
X121361204Y-69766807D01*
X121534848Y-69747242D01*
X121534847Y-69747242D01*
X121534857Y-69747241D01*
X121699806Y-69689522D01*
X121847776Y-69596547D01*
X121847776Y-69596546D01*
X121853672Y-69592842D01*
X121855313Y-69595454D01*
X121907353Y-69574199D01*
X121976050Y-69586943D01*
X121986011Y-69593345D01*
X121986328Y-69592842D01*
X121992223Y-69596546D01*
X121992224Y-69596547D01*
X122140194Y-69689522D01*
X122305143Y-69747241D01*
X122305149Y-69747241D01*
X122305151Y-69747242D01*
X122478796Y-69766807D01*
X122478800Y-69766807D01*
X122478804Y-69766807D01*
X122652448Y-69747242D01*
X122652447Y-69747242D01*
X122652457Y-69747241D01*
X122812599Y-69691203D01*
X122882374Y-69687641D01*
X122894487Y-69691198D01*
X123054646Y-69747241D01*
X123054650Y-69747241D01*
X123054654Y-69747242D01*
X123228299Y-69766807D01*
X123228303Y-69766807D01*
X123228307Y-69766807D01*
X123401951Y-69747242D01*
X123401950Y-69747242D01*
X123401960Y-69747241D01*
X123566909Y-69689522D01*
X123579900Y-69681359D01*
X123647133Y-69662357D01*
X123711846Y-69681357D01*
X123785662Y-69727739D01*
X123950611Y-69785458D01*
X123950617Y-69785458D01*
X123950619Y-69785459D01*
X124124264Y-69805024D01*
X124124268Y-69805024D01*
X124124272Y-69805024D01*
X124297916Y-69785459D01*
X124297915Y-69785459D01*
X124297925Y-69785458D01*
X124462874Y-69727739D01*
X124610844Y-69634764D01*
X124734415Y-69511193D01*
X124812378Y-69387113D01*
X124864712Y-69340822D01*
X124903488Y-69329865D01*
X124960462Y-69323445D01*
X125048533Y-69313523D01*
X125048533Y-69313522D01*
X125048541Y-69313522D01*
X125213490Y-69255803D01*
X125331661Y-69181551D01*
X125398897Y-69162552D01*
X125463602Y-69181551D01*
X125535355Y-69226636D01*
X125700304Y-69284355D01*
X125700310Y-69284355D01*
X125700312Y-69284356D01*
X125873957Y-69303921D01*
X125873961Y-69303921D01*
X125873965Y-69303921D01*
X126047609Y-69284356D01*
X126047608Y-69284356D01*
X126047618Y-69284355D01*
X126212567Y-69226636D01*
X126360537Y-69133661D01*
X126484108Y-69010090D01*
X126577083Y-68862120D01*
X126634802Y-68697171D01*
X126640935Y-68642736D01*
X126654368Y-68523517D01*
X126654368Y-68523510D01*
X126634803Y-68349865D01*
X126634802Y-68349863D01*
X126634802Y-68349857D01*
X126577083Y-68184908D01*
X126484108Y-68036938D01*
X126360537Y-67913367D01*
X126212567Y-67820392D01*
X126212566Y-67820391D01*
X126212565Y-67820391D01*
X126047619Y-67762673D01*
X126047609Y-67762671D01*
X125873965Y-67743107D01*
X125873957Y-67743107D01*
X125700312Y-67762671D01*
X125700302Y-67762673D01*
X125535353Y-67820392D01*
X125417184Y-67894642D01*
X125349947Y-67913642D01*
X125285242Y-67894643D01*
X125213490Y-67849559D01*
X125192951Y-67842372D01*
X125048542Y-67791840D01*
X125048532Y-67791838D01*
X124874888Y-67772274D01*
X124874880Y-67772274D01*
X124701235Y-67791838D01*
X124701225Y-67791840D01*
X124536279Y-67849558D01*
X124388307Y-67942534D01*
X124264737Y-68066104D01*
X124186773Y-68190184D01*
X124134438Y-68236475D01*
X124095663Y-68247432D01*
X123950618Y-68263774D01*
X123950608Y-68263776D01*
X123785662Y-68321494D01*
X123772664Y-68329661D01*
X123705427Y-68348659D01*
X123640725Y-68329659D01*
X123566909Y-68283278D01*
X123566908Y-68283277D01*
X123566907Y-68283277D01*
X123401961Y-68225559D01*
X123401951Y-68225557D01*
X123228307Y-68205993D01*
X123228299Y-68205993D01*
X123054654Y-68225557D01*
X123054648Y-68225558D01*
X122894504Y-68281595D01*
X122824725Y-68285156D01*
X122812595Y-68281594D01*
X122652459Y-68225559D01*
X122652448Y-68225557D01*
X122478804Y-68205993D01*
X122478796Y-68205993D01*
X122305151Y-68225557D01*
X122305141Y-68225559D01*
X122140195Y-68283277D01*
X122078265Y-68322190D01*
X121993197Y-68375642D01*
X121986328Y-68379958D01*
X121984706Y-68377376D01*
X121932435Y-68398622D01*
X121863760Y-68385759D01*
X121853977Y-68379472D01*
X121853672Y-68379958D01*
X121847776Y-68376253D01*
X121699806Y-68283278D01*
X121699805Y-68283277D01*
X121699804Y-68283277D01*
X121534858Y-68225559D01*
X121534848Y-68225557D01*
X121361204Y-68205993D01*
X121361196Y-68205993D01*
X121187551Y-68225557D01*
X121187541Y-68225559D01*
X121022595Y-68283277D01*
X120874623Y-68376253D01*
X120751053Y-68499823D01*
X120658077Y-68647795D01*
X120600359Y-68812741D01*
X120600357Y-68812751D01*
X120580793Y-68986396D01*
X120580793Y-68986403D01*
X111468732Y-68986403D01*
X111334811Y-68603678D01*
X111333963Y-68601070D01*
X111331165Y-68591755D01*
X111330740Y-68521888D01*
X111368156Y-68462881D01*
X111431534Y-68433470D01*
X111500752Y-68442992D01*
X111519780Y-68453644D01*
X111619483Y-68521620D01*
X111619485Y-68521621D01*
X111862539Y-68638669D01*
X111862537Y-68638669D01*
X112120337Y-68718190D01*
X112120343Y-68718192D01*
X112387101Y-68758399D01*
X112387110Y-68758400D01*
X112656890Y-68758400D01*
X112656898Y-68758399D01*
X112923656Y-68718192D01*
X112923662Y-68718190D01*
X113181461Y-68638669D01*
X113424521Y-68521618D01*
X113607150Y-68397102D01*
X113170609Y-67960562D01*
X113137124Y-67899239D01*
X113142108Y-67829548D01*
X113179625Y-67777028D01*
X113268055Y-67704455D01*
X113340628Y-67616025D01*
X113398373Y-67576691D01*
X113468218Y-67574820D01*
X113524162Y-67607009D01*
X113959703Y-68042551D01*
X113959704Y-68042550D01*
X114013393Y-67975228D01*
X114013400Y-67975217D01*
X114148290Y-67741581D01*
X114246851Y-67490452D01*
X114246857Y-67490433D01*
X114306886Y-67227428D01*
X114306886Y-67227426D01*
X114327047Y-66958404D01*
X114327047Y-66958400D01*
X116327207Y-66958400D01*
X116346348Y-67201619D01*
X116403303Y-67438857D01*
X116496668Y-67664261D01*
X116620504Y-67866342D01*
X117055389Y-67431456D01*
X117116712Y-67397971D01*
X117186403Y-67402955D01*
X117242337Y-67444826D01*
X117248059Y-67453158D01*
X117252577Y-67460348D01*
X117380052Y-67587823D01*
X117387232Y-67592334D01*
X117433523Y-67644668D01*
X117444172Y-67713721D01*
X117415797Y-67777570D01*
X117408941Y-67785009D01*
X116974056Y-68219894D01*
X117176138Y-68343731D01*
X117401542Y-68437096D01*
X117638780Y-68494051D01*
X117638779Y-68494051D01*
X117882000Y-68513192D01*
X118125219Y-68494051D01*
X118362457Y-68437096D01*
X118587861Y-68343731D01*
X118789942Y-68219894D01*
X118355057Y-67785010D01*
X118321572Y-67723687D01*
X118326556Y-67653996D01*
X118368427Y-67598062D01*
X118376769Y-67592334D01*
X118378351Y-67591339D01*
X118383948Y-67587823D01*
X118511423Y-67460348D01*
X118515933Y-67453169D01*
X118568267Y-67406876D01*
X118637320Y-67396226D01*
X118701169Y-67424600D01*
X118708610Y-67431457D01*
X119143494Y-67866342D01*
X119267331Y-67664261D01*
X119360696Y-67438857D01*
X119417651Y-67201619D01*
X119436792Y-66958399D01*
X119417651Y-66715180D01*
X119360696Y-66477942D01*
X119284506Y-66294003D01*
X121596793Y-66294003D01*
X121616357Y-66467648D01*
X121616359Y-66467658D01*
X121668195Y-66615794D01*
X121674078Y-66632606D01*
X121767053Y-66780576D01*
X121890624Y-66904147D01*
X122038594Y-66997122D01*
X122203543Y-67054841D01*
X122203549Y-67054841D01*
X122203551Y-67054842D01*
X122377196Y-67074407D01*
X122377200Y-67074407D01*
X122377204Y-67074407D01*
X122550848Y-67054842D01*
X122550847Y-67054842D01*
X122550857Y-67054841D01*
X122715806Y-66997122D01*
X122863776Y-66904147D01*
X122987347Y-66780576D01*
X123080322Y-66632606D01*
X123138041Y-66467657D01*
X123153666Y-66328977D01*
X123157607Y-66294003D01*
X123157607Y-66293996D01*
X123138042Y-66120351D01*
X123138041Y-66120349D01*
X123138041Y-66120343D01*
X123080322Y-65955394D01*
X122987347Y-65807424D01*
X122863776Y-65683853D01*
X122715806Y-65590878D01*
X122715805Y-65590877D01*
X122715804Y-65590877D01*
X122550858Y-65533159D01*
X122550848Y-65533157D01*
X122377204Y-65513593D01*
X122377196Y-65513593D01*
X122203551Y-65533157D01*
X122203541Y-65533159D01*
X122038595Y-65590877D01*
X121890623Y-65683853D01*
X121767053Y-65807423D01*
X121674077Y-65955395D01*
X121616359Y-66120341D01*
X121616357Y-66120351D01*
X121596793Y-66293996D01*
X121596793Y-66294003D01*
X119284506Y-66294003D01*
X119267331Y-66252538D01*
X119143494Y-66050456D01*
X118708609Y-66485341D01*
X118647286Y-66518826D01*
X118577594Y-66513842D01*
X118521661Y-66471970D01*
X118515943Y-66463645D01*
X118511423Y-66456452D01*
X118383948Y-66328977D01*
X118376764Y-66324463D01*
X118330474Y-66272130D01*
X118319825Y-66203076D01*
X118348200Y-66139228D01*
X118355056Y-66131789D01*
X118789942Y-65696904D01*
X118587861Y-65573068D01*
X118362457Y-65479703D01*
X118125219Y-65422748D01*
X118125220Y-65422748D01*
X117882000Y-65403607D01*
X117638780Y-65422748D01*
X117401542Y-65479703D01*
X117176146Y-65573065D01*
X117176141Y-65573068D01*
X116974056Y-65696904D01*
X117408942Y-66131789D01*
X117442427Y-66193112D01*
X117437443Y-66262803D01*
X117395572Y-66318737D01*
X117387236Y-66324462D01*
X117380054Y-66328974D01*
X117252574Y-66456454D01*
X117248062Y-66463636D01*
X117195726Y-66509926D01*
X117126672Y-66520572D01*
X117062825Y-66492195D01*
X117055389Y-66485342D01*
X116620504Y-66050456D01*
X116496668Y-66252541D01*
X116496665Y-66252546D01*
X116403303Y-66477942D01*
X116346348Y-66715180D01*
X116327207Y-66958400D01*
X114327047Y-66958400D01*
X114327047Y-66958395D01*
X114306886Y-66689373D01*
X114306886Y-66689371D01*
X114246857Y-66426366D01*
X114246851Y-66426347D01*
X114148290Y-66175218D01*
X114148291Y-66175218D01*
X114013397Y-65941577D01*
X113959704Y-65874247D01*
X113959703Y-65874247D01*
X113524161Y-66309790D01*
X113462838Y-66343275D01*
X113393146Y-66338291D01*
X113340627Y-66300774D01*
X113268055Y-66212344D01*
X113179624Y-66139771D01*
X113140290Y-66082026D01*
X113138419Y-66012181D01*
X113170608Y-65956237D01*
X113607150Y-65519696D01*
X113424517Y-65395179D01*
X113424516Y-65395178D01*
X113181460Y-65278130D01*
X113181462Y-65278130D01*
X113181050Y-65278003D01*
X127286393Y-65278003D01*
X127305957Y-65451648D01*
X127305959Y-65451658D01*
X127348442Y-65573065D01*
X127363678Y-65616606D01*
X127456653Y-65764576D01*
X127580224Y-65888147D01*
X127728194Y-65981122D01*
X127893143Y-66038841D01*
X127893149Y-66038841D01*
X127893151Y-66038842D01*
X128066796Y-66058407D01*
X128066800Y-66058407D01*
X128066804Y-66058407D01*
X128240448Y-66038842D01*
X128240447Y-66038842D01*
X128240457Y-66038841D01*
X128405406Y-65981122D01*
X128553376Y-65888147D01*
X128676947Y-65764576D01*
X128769922Y-65616606D01*
X128827641Y-65451657D01*
X128840468Y-65337814D01*
X128847207Y-65278003D01*
X128847207Y-65277996D01*
X128827642Y-65104351D01*
X128827641Y-65104349D01*
X128827641Y-65104343D01*
X128807533Y-65046881D01*
X128803971Y-64977104D01*
X128838700Y-64916476D01*
X128858599Y-64900936D01*
X128917859Y-64863702D01*
X129041430Y-64740131D01*
X129134405Y-64592161D01*
X129192124Y-64427212D01*
X129203100Y-64329794D01*
X129211690Y-64253558D01*
X129211690Y-64253551D01*
X129192125Y-64079906D01*
X129192124Y-64079904D01*
X129192124Y-64079898D01*
X129155332Y-63974757D01*
X129151770Y-63904980D01*
X129155333Y-63892848D01*
X129192124Y-63787709D01*
X129192936Y-63780504D01*
X129211690Y-63614055D01*
X129211690Y-63614048D01*
X129192294Y-63441903D01*
X131350393Y-63441903D01*
X131369957Y-63615548D01*
X131369959Y-63615558D01*
X131427677Y-63780504D01*
X131427678Y-63780506D01*
X131520653Y-63928476D01*
X131644224Y-64052047D01*
X131792194Y-64145022D01*
X131957143Y-64202741D01*
X131957149Y-64202741D01*
X131957151Y-64202742D01*
X132130796Y-64222307D01*
X132130800Y-64222307D01*
X132130804Y-64222307D01*
X132304448Y-64202742D01*
X132304447Y-64202742D01*
X132304457Y-64202741D01*
X132462827Y-64147323D01*
X132532606Y-64143762D01*
X132593233Y-64178490D01*
X132625461Y-64240483D01*
X132619056Y-64310059D01*
X132608776Y-64330335D01*
X132602930Y-64339641D01*
X132545277Y-64431395D01*
X132487559Y-64596341D01*
X132487557Y-64596351D01*
X132467993Y-64769996D01*
X132467993Y-64770003D01*
X132487557Y-64943648D01*
X132487559Y-64943658D01*
X132543786Y-65104343D01*
X132545278Y-65108606D01*
X132638253Y-65256576D01*
X132761824Y-65380147D01*
X132909794Y-65473122D01*
X133074743Y-65530841D01*
X133074749Y-65530841D01*
X133074751Y-65530842D01*
X133248396Y-65550407D01*
X133248400Y-65550407D01*
X133248404Y-65550407D01*
X133422048Y-65530842D01*
X133422047Y-65530842D01*
X133422057Y-65530841D01*
X133587006Y-65473122D01*
X133734976Y-65380147D01*
X133835407Y-65279715D01*
X133896731Y-65246230D01*
X133966423Y-65251214D01*
X133989055Y-65262399D01*
X134017220Y-65280096D01*
X134182169Y-65337815D01*
X134182175Y-65337815D01*
X134182177Y-65337816D01*
X134355822Y-65357381D01*
X134355826Y-65357381D01*
X134355830Y-65357381D01*
X134529474Y-65337816D01*
X134529473Y-65337816D01*
X134529483Y-65337815D01*
X134694432Y-65280096D01*
X134828683Y-65195740D01*
X134895915Y-65176742D01*
X134962751Y-65197110D01*
X134982331Y-65213054D01*
X135047824Y-65278547D01*
X135195794Y-65371522D01*
X135360743Y-65429241D01*
X135360749Y-65429241D01*
X135360751Y-65429242D01*
X135534396Y-65448807D01*
X135534400Y-65448807D01*
X135534404Y-65448807D01*
X135708048Y-65429242D01*
X135708047Y-65429242D01*
X135708057Y-65429241D01*
X135873006Y-65371522D01*
X136020976Y-65278547D01*
X136144547Y-65154976D01*
X136237522Y-65007006D01*
X136295241Y-64842057D01*
X136314807Y-64668400D01*
X136313457Y-64656422D01*
X136325509Y-64587604D01*
X136372857Y-64536223D01*
X136440466Y-64518596D01*
X136506873Y-64540320D01*
X136550993Y-64594497D01*
X136553718Y-64601582D01*
X136563879Y-64630619D01*
X136577796Y-64670391D01*
X136670771Y-64818361D01*
X136794342Y-64941932D01*
X136942312Y-65034907D01*
X137107261Y-65092626D01*
X137107267Y-65092626D01*
X137107269Y-65092627D01*
X137280914Y-65112192D01*
X137280918Y-65112192D01*
X137280922Y-65112192D01*
X137454566Y-65092627D01*
X137454565Y-65092627D01*
X137454575Y-65092626D01*
X137619524Y-65034907D01*
X137767494Y-64941932D01*
X137891065Y-64818361D01*
X137984040Y-64670391D01*
X138033238Y-64529792D01*
X138073957Y-64473021D01*
X138138910Y-64447273D01*
X138207471Y-64460729D01*
X138257874Y-64509116D01*
X138273497Y-64556866D01*
X138278757Y-64603549D01*
X138278759Y-64603558D01*
X138326494Y-64739974D01*
X138336478Y-64768506D01*
X138429453Y-64916476D01*
X138553024Y-65040047D01*
X138700994Y-65133022D01*
X138865943Y-65190741D01*
X138865949Y-65190741D01*
X138865951Y-65190742D01*
X139039596Y-65210307D01*
X139039600Y-65210307D01*
X139039604Y-65210307D01*
X139213248Y-65190742D01*
X139213247Y-65190742D01*
X139213257Y-65190741D01*
X139378206Y-65133022D01*
X139526176Y-65040047D01*
X139649747Y-64916476D01*
X139742722Y-64768506D01*
X139800441Y-64603557D01*
X139802239Y-64587604D01*
X139804637Y-64566319D01*
X141998213Y-64566319D01*
X142017777Y-64739964D01*
X142017779Y-64739974D01*
X142074102Y-64900932D01*
X142075498Y-64904922D01*
X142168473Y-65052892D01*
X142292044Y-65176463D01*
X142440014Y-65269438D01*
X142604963Y-65327157D01*
X142604969Y-65327157D01*
X142604971Y-65327158D01*
X142778616Y-65346723D01*
X142778620Y-65346723D01*
X142778624Y-65346723D01*
X142952268Y-65327158D01*
X142952267Y-65327158D01*
X142952277Y-65327157D01*
X143117226Y-65269438D01*
X143265196Y-65176463D01*
X143388767Y-65052892D01*
X143481742Y-64904922D01*
X143539461Y-64739973D01*
X143556115Y-64592161D01*
X143559027Y-64566319D01*
X143559027Y-64566312D01*
X143539462Y-64392667D01*
X143539461Y-64392665D01*
X143539461Y-64392659D01*
X143481742Y-64227710D01*
X143388767Y-64079740D01*
X143265196Y-63956169D01*
X143117226Y-63863194D01*
X143117225Y-63863193D01*
X143117224Y-63863193D01*
X142952278Y-63805475D01*
X142952268Y-63805473D01*
X142778624Y-63785909D01*
X142778616Y-63785909D01*
X142604971Y-63805473D01*
X142604961Y-63805475D01*
X142440015Y-63863193D01*
X142292043Y-63956169D01*
X142168473Y-64079739D01*
X142075497Y-64227711D01*
X142017779Y-64392657D01*
X142017777Y-64392667D01*
X141998213Y-64566312D01*
X141998213Y-64566319D01*
X139804637Y-64566319D01*
X139817579Y-64451450D01*
X139844645Y-64387036D01*
X139902240Y-64347481D01*
X139954683Y-64342113D01*
X140106397Y-64359207D01*
X140106400Y-64359207D01*
X140106404Y-64359207D01*
X140280048Y-64339642D01*
X140280047Y-64339642D01*
X140280057Y-64339641D01*
X140445006Y-64281922D01*
X140592976Y-64188947D01*
X140716547Y-64065376D01*
X140809522Y-63917406D01*
X140867241Y-63752457D01*
X140876286Y-63672181D01*
X140886807Y-63578803D01*
X140886807Y-63578796D01*
X140867242Y-63405151D01*
X140867241Y-63405149D01*
X140867241Y-63405143D01*
X140809522Y-63240194D01*
X140716547Y-63092224D01*
X140592976Y-62968653D01*
X140445006Y-62875678D01*
X140445005Y-62875677D01*
X140445004Y-62875677D01*
X140280058Y-62817959D01*
X140280048Y-62817957D01*
X140106404Y-62798393D01*
X140106396Y-62798393D01*
X139986635Y-62811886D01*
X139917813Y-62799831D01*
X139866434Y-62752482D01*
X139855711Y-62729621D01*
X139843441Y-62694557D01*
X139803880Y-62581499D01*
X139762179Y-62515132D01*
X139743180Y-62447897D01*
X139763548Y-62381062D01*
X139816816Y-62335848D01*
X139853286Y-62325942D01*
X139896421Y-62321083D01*
X140061370Y-62263364D01*
X140209340Y-62170389D01*
X140332911Y-62046818D01*
X140425886Y-61898848D01*
X140483605Y-61733899D01*
X140488905Y-61686863D01*
X140503171Y-61560245D01*
X140503171Y-61560238D01*
X140483606Y-61386593D01*
X140483605Y-61386591D01*
X140483605Y-61386585D01*
X140425886Y-61221636D01*
X140332911Y-61073666D01*
X140209340Y-60950095D01*
X140061370Y-60857120D01*
X140061369Y-60857119D01*
X140061368Y-60857119D01*
X139896422Y-60799401D01*
X139896412Y-60799399D01*
X139722768Y-60779835D01*
X139722760Y-60779835D01*
X139549115Y-60799399D01*
X139549104Y-60799401D01*
X139377586Y-60859419D01*
X139376641Y-60856720D01*
X139320352Y-60865959D01*
X139294601Y-60859936D01*
X139258728Y-60847383D01*
X139258715Y-60847380D01*
X139085068Y-60827816D01*
X139085060Y-60827816D01*
X138911415Y-60847380D01*
X138911405Y-60847382D01*
X138746459Y-60905100D01*
X138598487Y-60998076D01*
X138474917Y-61121646D01*
X138381941Y-61269618D01*
X138324223Y-61434564D01*
X138324221Y-61434574D01*
X138304657Y-61608219D01*
X138304657Y-61608226D01*
X138324221Y-61781871D01*
X138324223Y-61781881D01*
X138381941Y-61946827D01*
X138381942Y-61946829D01*
X138443087Y-62044141D01*
X138474917Y-62094799D01*
X138564448Y-62184330D01*
X138597933Y-62245653D01*
X138592949Y-62315345D01*
X138564448Y-62359692D01*
X138490611Y-62433528D01*
X138397635Y-62581500D01*
X138339917Y-62746446D01*
X138339915Y-62746456D01*
X138320351Y-62920101D01*
X138320351Y-62920108D01*
X138339915Y-63093753D01*
X138339917Y-63093763D01*
X138397635Y-63258709D01*
X138397636Y-63258711D01*
X138490611Y-63406681D01*
X138614182Y-63530252D01*
X138646877Y-63550795D01*
X138693166Y-63603127D01*
X138703816Y-63672181D01*
X138675441Y-63736029D01*
X138646876Y-63760782D01*
X138553023Y-63819753D01*
X138429453Y-63943323D01*
X138336477Y-64091295D01*
X138287281Y-64231888D01*
X138246559Y-64288664D01*
X138181606Y-64314411D01*
X138113045Y-64300954D01*
X138062642Y-64252567D01*
X138047020Y-64204816D01*
X138041760Y-64158136D01*
X138041759Y-64158134D01*
X138041759Y-64158128D01*
X137991699Y-64015069D01*
X137988138Y-63945291D01*
X138003745Y-63908147D01*
X138015522Y-63889406D01*
X138073241Y-63724457D01*
X138079744Y-63666741D01*
X138092807Y-63550803D01*
X138092807Y-63550793D01*
X138073242Y-63377151D01*
X138073241Y-63377149D01*
X138073241Y-63377143D01*
X138015522Y-63212194D01*
X137922547Y-63064224D01*
X137798976Y-62940653D01*
X137656879Y-62851368D01*
X137610590Y-62799036D01*
X137599941Y-62729982D01*
X137628316Y-62666134D01*
X137656879Y-62641384D01*
X137701978Y-62613047D01*
X137825549Y-62489476D01*
X137918524Y-62341506D01*
X137976243Y-62176557D01*
X137980535Y-62138461D01*
X137995809Y-62002903D01*
X137995809Y-62002896D01*
X137976244Y-61829251D01*
X137976243Y-61829249D01*
X137976243Y-61829243D01*
X137918524Y-61664294D01*
X137825549Y-61516324D01*
X137701978Y-61392753D01*
X137554008Y-61299778D01*
X137554007Y-61299777D01*
X137554006Y-61299777D01*
X137389060Y-61242059D01*
X137389050Y-61242057D01*
X137215406Y-61222493D01*
X137215398Y-61222493D01*
X137041753Y-61242057D01*
X137041743Y-61242059D01*
X136876797Y-61299777D01*
X136728825Y-61392753D01*
X136605255Y-61516323D01*
X136512279Y-61664295D01*
X136454561Y-61829241D01*
X136454559Y-61829251D01*
X136434995Y-62002896D01*
X136434995Y-62002903D01*
X136454559Y-62176548D01*
X136454561Y-62176558D01*
X136506833Y-62325941D01*
X136512280Y-62341506D01*
X136579129Y-62447897D01*
X136605255Y-62489476D01*
X136728828Y-62613049D01*
X136870919Y-62702329D01*
X136917211Y-62754663D01*
X136927860Y-62823716D01*
X136899485Y-62887565D01*
X136870921Y-62912316D01*
X136825826Y-62940651D01*
X136825823Y-62940653D01*
X136702253Y-63064223D01*
X136609277Y-63212195D01*
X136551559Y-63377141D01*
X136551557Y-63377151D01*
X136531993Y-63550793D01*
X136531993Y-63550803D01*
X136551557Y-63724448D01*
X136551559Y-63724458D01*
X136601617Y-63867513D01*
X136605179Y-63937292D01*
X136589571Y-63974437D01*
X136577797Y-63993175D01*
X136577796Y-63993177D01*
X136520077Y-64158126D01*
X136520075Y-64158136D01*
X136500511Y-64331781D01*
X136500511Y-64331790D01*
X136501860Y-64343764D01*
X136489805Y-64412585D01*
X136442456Y-64463964D01*
X136374845Y-64481588D01*
X136308439Y-64459861D01*
X136264322Y-64405681D01*
X136261599Y-64398601D01*
X136242410Y-64343764D01*
X136237522Y-64329794D01*
X136144547Y-64181824D01*
X136020976Y-64058253D01*
X135873006Y-63965278D01*
X135873005Y-63965277D01*
X135873004Y-63965277D01*
X135708058Y-63907559D01*
X135708048Y-63907557D01*
X135534404Y-63887993D01*
X135534396Y-63887993D01*
X135360751Y-63907557D01*
X135360741Y-63907559D01*
X135195792Y-63965278D01*
X135061545Y-64049631D01*
X134994309Y-64068631D01*
X134927474Y-64048263D01*
X134907893Y-64032318D01*
X134842402Y-63966827D01*
X134763745Y-63917404D01*
X134694432Y-63873852D01*
X134694431Y-63873851D01*
X134694430Y-63873851D01*
X134529484Y-63816133D01*
X134529474Y-63816131D01*
X134355830Y-63796567D01*
X134355822Y-63796567D01*
X134182177Y-63816131D01*
X134182167Y-63816133D01*
X134017221Y-63873851D01*
X133869251Y-63966826D01*
X133768818Y-64067259D01*
X133707495Y-64100743D01*
X133637803Y-64095759D01*
X133615167Y-64084572D01*
X133587006Y-64066878D01*
X133422058Y-64009159D01*
X133422048Y-64009157D01*
X133248404Y-63989593D01*
X133248396Y-63989593D01*
X133074751Y-64009157D01*
X133074746Y-64009158D01*
X132916371Y-64064576D01*
X132846593Y-64068137D01*
X132785965Y-64033408D01*
X132753738Y-63971415D01*
X132760143Y-63901839D01*
X132770418Y-63881572D01*
X132833922Y-63780506D01*
X132891641Y-63615557D01*
X132892421Y-63608626D01*
X132911207Y-63441903D01*
X132911207Y-63441896D01*
X132891642Y-63268251D01*
X132891641Y-63268249D01*
X132891641Y-63268243D01*
X132861731Y-63182769D01*
X132858169Y-63112992D01*
X132861732Y-63100860D01*
X132874552Y-63064223D01*
X132908759Y-62966466D01*
X132920639Y-62861024D01*
X132928325Y-62792812D01*
X132928325Y-62792805D01*
X132908760Y-62619160D01*
X132908759Y-62619153D01*
X132906623Y-62613049D01*
X132899966Y-62594025D01*
X132896404Y-62524249D01*
X132912012Y-62487103D01*
X132987647Y-62366731D01*
X133045366Y-62201782D01*
X133052500Y-62138462D01*
X133064932Y-62028128D01*
X133064932Y-62028121D01*
X133045367Y-61854473D01*
X133045366Y-61854471D01*
X133045366Y-61854468D01*
X133017578Y-61775059D01*
X133014016Y-61705283D01*
X133027277Y-61673730D01*
X133027089Y-61673640D01*
X133028871Y-61669939D01*
X133029634Y-61668122D01*
X133030112Y-61667363D01*
X133087831Y-61502414D01*
X133095475Y-61434574D01*
X133107397Y-61328760D01*
X133107397Y-61328753D01*
X133087832Y-61155108D01*
X133087831Y-61155106D01*
X133087831Y-61155100D01*
X133030112Y-60990151D01*
X132968297Y-60891774D01*
X132949298Y-60824539D01*
X132950071Y-60811927D01*
X132962007Y-60706000D01*
X132960092Y-60689006D01*
X132942442Y-60532350D01*
X132942441Y-60532348D01*
X132942441Y-60532343D01*
X132884722Y-60367394D01*
X132791747Y-60219424D01*
X132668176Y-60095853D01*
X132520206Y-60002878D01*
X132520205Y-60002877D01*
X132520204Y-60002877D01*
X132355258Y-59945159D01*
X132355248Y-59945157D01*
X132181604Y-59925593D01*
X132181596Y-59925593D01*
X132007951Y-59945157D01*
X132007941Y-59945159D01*
X131842995Y-60002877D01*
X131695023Y-60095853D01*
X131571453Y-60219423D01*
X131478477Y-60367395D01*
X131420759Y-60532341D01*
X131420757Y-60532351D01*
X131401193Y-60705996D01*
X131401193Y-60706003D01*
X131420757Y-60879648D01*
X131420759Y-60879658D01*
X131478477Y-61044604D01*
X131478481Y-61044613D01*
X131540290Y-61142982D01*
X131559290Y-61210218D01*
X131558516Y-61222835D01*
X131546583Y-61328752D01*
X131546583Y-61328760D01*
X131566147Y-61502405D01*
X131566148Y-61502411D01*
X131593935Y-61581821D01*
X131597496Y-61651600D01*
X131584239Y-61683153D01*
X131584425Y-61683243D01*
X131582681Y-61686863D01*
X131581897Y-61688731D01*
X131581405Y-61689513D01*
X131581403Y-61689517D01*
X131523684Y-61854466D01*
X131523682Y-61854476D01*
X131504118Y-62028121D01*
X131504118Y-62028128D01*
X131523683Y-62201780D01*
X131532476Y-62226911D01*
X131536036Y-62296689D01*
X131520428Y-62333833D01*
X131444795Y-62454205D01*
X131387077Y-62619150D01*
X131387075Y-62619160D01*
X131367511Y-62792805D01*
X131367511Y-62792812D01*
X131387075Y-62966457D01*
X131387076Y-62966463D01*
X131416986Y-63051941D01*
X131420547Y-63121720D01*
X131416986Y-63133847D01*
X131373022Y-63259489D01*
X131369957Y-63268249D01*
X131369957Y-63268251D01*
X131350393Y-63441896D01*
X131350393Y-63441903D01*
X129192294Y-63441903D01*
X129192125Y-63440403D01*
X129192124Y-63440401D01*
X129192124Y-63440395D01*
X129134405Y-63275446D01*
X129041430Y-63127476D01*
X128917859Y-63003905D01*
X128769889Y-62910930D01*
X128769888Y-62910929D01*
X128769887Y-62910929D01*
X128604941Y-62853211D01*
X128604931Y-62853209D01*
X128431287Y-62833645D01*
X128431279Y-62833645D01*
X128257634Y-62853209D01*
X128257624Y-62853211D01*
X128092678Y-62910929D01*
X127944706Y-63003905D01*
X127821136Y-63127475D01*
X127728160Y-63275447D01*
X127670442Y-63440393D01*
X127670440Y-63440403D01*
X127650876Y-63614048D01*
X127650876Y-63614055D01*
X127670440Y-63787700D01*
X127670442Y-63787711D01*
X127707232Y-63892848D01*
X127710794Y-63962627D01*
X127707237Y-63974743D01*
X127674385Y-64068631D01*
X127670440Y-64079904D01*
X127670440Y-64079906D01*
X127650876Y-64253551D01*
X127650876Y-64253558D01*
X127670440Y-64427203D01*
X127670442Y-64427213D01*
X127690548Y-64484671D01*
X127694110Y-64554450D01*
X127659382Y-64615077D01*
X127639480Y-64630619D01*
X127580226Y-64667851D01*
X127580223Y-64667853D01*
X127456653Y-64791423D01*
X127363677Y-64939395D01*
X127305959Y-65104341D01*
X127305957Y-65104351D01*
X127286393Y-65277996D01*
X127286393Y-65278003D01*
X113181050Y-65278003D01*
X112923662Y-65198609D01*
X112923656Y-65198607D01*
X112656898Y-65158400D01*
X112387101Y-65158400D01*
X112120343Y-65198607D01*
X112120337Y-65198609D01*
X111862538Y-65278130D01*
X111619485Y-65395178D01*
X111619476Y-65395183D01*
X111436848Y-65519696D01*
X111873391Y-65956238D01*
X111906876Y-66017561D01*
X111901892Y-66087252D01*
X111864375Y-66139772D01*
X111775944Y-66212344D01*
X111703372Y-66300775D01*
X111645627Y-66340109D01*
X111575782Y-66341980D01*
X111519838Y-66309791D01*
X111084295Y-65874248D01*
X111030600Y-65941580D01*
X110925945Y-66122848D01*
X110875378Y-66171064D01*
X110806771Y-66184286D01*
X110741906Y-66158318D01*
X110701378Y-66101404D01*
X110697078Y-66085722D01*
X110683755Y-66020653D01*
X110683275Y-66018007D01*
X110544701Y-65143086D01*
X110544340Y-65140426D01*
X110445157Y-64260151D01*
X110444918Y-64257495D01*
X110435169Y-64112903D01*
X115356565Y-64112903D01*
X115376129Y-64286548D01*
X115376131Y-64286558D01*
X115433830Y-64451450D01*
X115433850Y-64451506D01*
X115526825Y-64599476D01*
X115650396Y-64723047D01*
X115798366Y-64816022D01*
X115963315Y-64873741D01*
X115963321Y-64873741D01*
X115963323Y-64873742D01*
X116136968Y-64893307D01*
X116136972Y-64893307D01*
X116136976Y-64893307D01*
X116310620Y-64873742D01*
X116310619Y-64873742D01*
X116310629Y-64873741D01*
X116475578Y-64816022D01*
X116623548Y-64723047D01*
X116747119Y-64599476D01*
X116840094Y-64451506D01*
X116897813Y-64286557D01*
X116901095Y-64257427D01*
X116917379Y-64112903D01*
X116917379Y-64112896D01*
X116897814Y-63939251D01*
X116897813Y-63939249D01*
X116897813Y-63939243D01*
X116840094Y-63774294D01*
X116747119Y-63626324D01*
X116623548Y-63502753D01*
X116475578Y-63409778D01*
X116440613Y-63397543D01*
X116411027Y-63387190D01*
X116355833Y-63347603D01*
X118650393Y-63347603D01*
X118669957Y-63521248D01*
X118669959Y-63521258D01*
X118721678Y-63669059D01*
X118727678Y-63686206D01*
X118820653Y-63834176D01*
X118944224Y-63957747D01*
X119092194Y-64050722D01*
X119257143Y-64108441D01*
X119257149Y-64108441D01*
X119257151Y-64108442D01*
X119430796Y-64128007D01*
X119430800Y-64128007D01*
X119430804Y-64128007D01*
X119604448Y-64108442D01*
X119604450Y-64108442D01*
X119604450Y-64108441D01*
X119604457Y-64108441D01*
X119614134Y-64105054D01*
X119683907Y-64101490D01*
X119744536Y-64136216D01*
X119772129Y-64181139D01*
X119794478Y-64245006D01*
X119887453Y-64392976D01*
X120011024Y-64516547D01*
X120158994Y-64609522D01*
X120323943Y-64667241D01*
X120323949Y-64667241D01*
X120323951Y-64667242D01*
X120497596Y-64686807D01*
X120497600Y-64686807D01*
X120497604Y-64686807D01*
X120671248Y-64667242D01*
X120671247Y-64667242D01*
X120671257Y-64667241D01*
X120836206Y-64609522D01*
X120984176Y-64516547D01*
X121107747Y-64392976D01*
X121200722Y-64245006D01*
X121258441Y-64080057D01*
X121271373Y-63965278D01*
X121278007Y-63906403D01*
X121278007Y-63906396D01*
X121258442Y-63732751D01*
X121258441Y-63732749D01*
X121258441Y-63732743D01*
X121200722Y-63567794D01*
X121107747Y-63419824D01*
X121008735Y-63320812D01*
X120975251Y-63259489D01*
X120980235Y-63189797D01*
X120991418Y-63167168D01*
X121048322Y-63076606D01*
X121106041Y-62911657D01*
X121114831Y-62833645D01*
X121125607Y-62738003D01*
X121125607Y-62737996D01*
X121106042Y-62564351D01*
X121106041Y-62564349D01*
X121106041Y-62564343D01*
X121048322Y-62399394D01*
X120955347Y-62251424D01*
X120831776Y-62127853D01*
X120683806Y-62034878D01*
X120683805Y-62034877D01*
X120683804Y-62034877D01*
X120518858Y-61977159D01*
X120518848Y-61977157D01*
X120345204Y-61957593D01*
X120345196Y-61957593D01*
X120171551Y-61977157D01*
X120171541Y-61977159D01*
X120006595Y-62034877D01*
X119858623Y-62127853D01*
X119735053Y-62251423D01*
X119642078Y-62399394D01*
X119610235Y-62490394D01*
X119569513Y-62547169D01*
X119504560Y-62572916D01*
X119479312Y-62572658D01*
X119430804Y-62567193D01*
X119430796Y-62567193D01*
X119257151Y-62586757D01*
X119257141Y-62586759D01*
X119092195Y-62644477D01*
X118944223Y-62737453D01*
X118820653Y-62861023D01*
X118727677Y-63008995D01*
X118669959Y-63173941D01*
X118669957Y-63173951D01*
X118650393Y-63347596D01*
X118650393Y-63347603D01*
X116355833Y-63347603D01*
X116354251Y-63346468D01*
X116328505Y-63281515D01*
X116341962Y-63212953D01*
X116390350Y-63162551D01*
X116438097Y-63146929D01*
X116467754Y-63143588D01*
X116632703Y-63085869D01*
X116780673Y-62992894D01*
X116904244Y-62869323D01*
X116997219Y-62721353D01*
X117054938Y-62556404D01*
X117063096Y-62484000D01*
X117074504Y-62382750D01*
X117074504Y-62382743D01*
X117054939Y-62209098D01*
X117054938Y-62209096D01*
X117054938Y-62209090D01*
X116997219Y-62044141D01*
X116937426Y-61948980D01*
X116918427Y-61881746D01*
X116937426Y-61817041D01*
X116997622Y-61721241D01*
X117055341Y-61556292D01*
X117061411Y-61502415D01*
X117074907Y-61382638D01*
X117074907Y-61382631D01*
X117055342Y-61208986D01*
X117055341Y-61208984D01*
X117055341Y-61208978D01*
X116997622Y-61044029D01*
X116904647Y-60896059D01*
X116781076Y-60772488D01*
X116633106Y-60679513D01*
X116633105Y-60679512D01*
X116633104Y-60679512D01*
X116468158Y-60621794D01*
X116468148Y-60621792D01*
X116294504Y-60602228D01*
X116294496Y-60602228D01*
X116120851Y-60621792D01*
X116120841Y-60621794D01*
X115955895Y-60679512D01*
X115807923Y-60772488D01*
X115684353Y-60896058D01*
X115591377Y-61044030D01*
X115533659Y-61208976D01*
X115533657Y-61208986D01*
X115514093Y-61382631D01*
X115514093Y-61382638D01*
X115533657Y-61556283D01*
X115533659Y-61556293D01*
X115585794Y-61705283D01*
X115591378Y-61721241D01*
X115650618Y-61815522D01*
X115651169Y-61816398D01*
X115670169Y-61883635D01*
X115651169Y-61948341D01*
X115590975Y-62044139D01*
X115533256Y-62209088D01*
X115533254Y-62209098D01*
X115513690Y-62382743D01*
X115513690Y-62382750D01*
X115533254Y-62556395D01*
X115533256Y-62556405D01*
X115584318Y-62702329D01*
X115590975Y-62721353D01*
X115683950Y-62869323D01*
X115807521Y-62992894D01*
X115955491Y-63085869D01*
X116005288Y-63103294D01*
X116020040Y-63108456D01*
X116076816Y-63149178D01*
X116102563Y-63214130D01*
X116089107Y-63282692D01*
X116040719Y-63333095D01*
X115992969Y-63348717D01*
X115963322Y-63352057D01*
X115963313Y-63352059D01*
X115798367Y-63409777D01*
X115650395Y-63502753D01*
X115526825Y-63626323D01*
X115433849Y-63774295D01*
X115376131Y-63939241D01*
X115376129Y-63939251D01*
X115356565Y-64112896D01*
X115356565Y-64112903D01*
X110435169Y-64112903D01*
X110385327Y-63373647D01*
X110385206Y-63370958D01*
X110365331Y-62485381D01*
X110365331Y-62482608D01*
X110385206Y-61597039D01*
X110385327Y-61594354D01*
X110444918Y-60710500D01*
X110445157Y-60707852D01*
X110544341Y-59827567D01*
X110544700Y-59824919D01*
X110655924Y-59122681D01*
X110685852Y-59059549D01*
X110745164Y-59022618D01*
X110815026Y-59023616D01*
X110873259Y-59062226D01*
X110893821Y-59096772D01*
X110895708Y-59101579D01*
X110895708Y-59101581D01*
X111030602Y-59335222D01*
X111084294Y-59402551D01*
X111519837Y-58967008D01*
X111581160Y-58933523D01*
X111650851Y-58938507D01*
X111703371Y-58976024D01*
X111775944Y-59064455D01*
X111864374Y-59137027D01*
X111903708Y-59194772D01*
X111905579Y-59264617D01*
X111873390Y-59320561D01*
X111436848Y-59757102D01*
X111619483Y-59881620D01*
X111619485Y-59881621D01*
X111862539Y-59998669D01*
X111862537Y-59998669D01*
X112120337Y-60078190D01*
X112120343Y-60078192D01*
X112387101Y-60118399D01*
X112387110Y-60118400D01*
X112656890Y-60118400D01*
X112656898Y-60118399D01*
X112923656Y-60078192D01*
X112923662Y-60078190D01*
X113181461Y-59998669D01*
X113424521Y-59881618D01*
X113607150Y-59757102D01*
X113170609Y-59320562D01*
X113137124Y-59259239D01*
X113142108Y-59189548D01*
X113179625Y-59137028D01*
X113268055Y-59064455D01*
X113340628Y-58976025D01*
X113398373Y-58936691D01*
X113468218Y-58934820D01*
X113524162Y-58967009D01*
X113959703Y-59402551D01*
X113959704Y-59402550D01*
X114013393Y-59335228D01*
X114013400Y-59335217D01*
X114148290Y-59101581D01*
X114246851Y-58850452D01*
X114246857Y-58850433D01*
X114306886Y-58587428D01*
X114306886Y-58587426D01*
X114327047Y-58318404D01*
X114327047Y-58318400D01*
X116327207Y-58318400D01*
X116346348Y-58561619D01*
X116403303Y-58798857D01*
X116496668Y-59024261D01*
X116620504Y-59226342D01*
X117055389Y-58791456D01*
X117116712Y-58757971D01*
X117186403Y-58762955D01*
X117242337Y-58804826D01*
X117248059Y-58813158D01*
X117252577Y-58820348D01*
X117380052Y-58947823D01*
X117387232Y-58952334D01*
X117433523Y-59004668D01*
X117444172Y-59073721D01*
X117415797Y-59137570D01*
X117408941Y-59145009D01*
X116974056Y-59579894D01*
X117176138Y-59703731D01*
X117401542Y-59797096D01*
X117638780Y-59854051D01*
X117638779Y-59854051D01*
X117882000Y-59873192D01*
X118125219Y-59854051D01*
X118362457Y-59797096D01*
X118587861Y-59703731D01*
X118789942Y-59579894D01*
X118355057Y-59145010D01*
X118321572Y-59083687D01*
X118326556Y-59013996D01*
X118368427Y-58958062D01*
X118376769Y-58952334D01*
X118381449Y-58949393D01*
X118383948Y-58947823D01*
X118511423Y-58820348D01*
X118515933Y-58813169D01*
X118568267Y-58766876D01*
X118637320Y-58756226D01*
X118701169Y-58784600D01*
X118708610Y-58791457D01*
X119143494Y-59226342D01*
X119267331Y-59024261D01*
X119360696Y-58798857D01*
X119417651Y-58561619D01*
X119436792Y-58318399D01*
X119417651Y-58075180D01*
X119360696Y-57837942D01*
X119328247Y-57759603D01*
X125051193Y-57759603D01*
X125070757Y-57933248D01*
X125070759Y-57933258D01*
X125121476Y-58078197D01*
X125128478Y-58098206D01*
X125221453Y-58246176D01*
X125345024Y-58369747D01*
X125492994Y-58462722D01*
X125657943Y-58520441D01*
X125657948Y-58520441D01*
X125657950Y-58520442D01*
X125795291Y-58535916D01*
X125859705Y-58562982D01*
X125886402Y-58593164D01*
X125921948Y-58649735D01*
X125955653Y-58703376D01*
X126079224Y-58826947D01*
X126227194Y-58919922D01*
X126392143Y-58977641D01*
X126392149Y-58977641D01*
X126392151Y-58977642D01*
X126565796Y-58997207D01*
X126565800Y-58997207D01*
X126565804Y-58997207D01*
X126739448Y-58977642D01*
X126739447Y-58977642D01*
X126739457Y-58977641D01*
X126904406Y-58919922D01*
X127052376Y-58826947D01*
X127175947Y-58703376D01*
X127268922Y-58555406D01*
X127278196Y-58528900D01*
X127318915Y-58472126D01*
X127383867Y-58446377D01*
X127452429Y-58459832D01*
X127500229Y-58503880D01*
X127507451Y-58515374D01*
X127507453Y-58515376D01*
X127631024Y-58638947D01*
X127778994Y-58731922D01*
X127928305Y-58784169D01*
X127985080Y-58824889D01*
X128010827Y-58889842D01*
X128000135Y-58949122D01*
X128000910Y-58949393D01*
X127999211Y-58954245D01*
X127999077Y-58954994D01*
X127998612Y-58955959D01*
X127940891Y-59120913D01*
X127940889Y-59120923D01*
X127921325Y-59294568D01*
X127921325Y-59294575D01*
X127940889Y-59468220D01*
X127940891Y-59468230D01*
X127993858Y-59619598D01*
X127998610Y-59633178D01*
X128035232Y-59691462D01*
X128091585Y-59781148D01*
X128150097Y-59839660D01*
X128183582Y-59900983D01*
X128178598Y-59970675D01*
X128167410Y-59993312D01*
X128120836Y-60067434D01*
X128063117Y-60232383D01*
X128063115Y-60232393D01*
X128043551Y-60406038D01*
X128043551Y-60406045D01*
X128063115Y-60579690D01*
X128063116Y-60579696D01*
X128073535Y-60609471D01*
X128077096Y-60679250D01*
X128042367Y-60739877D01*
X127997449Y-60767466D01*
X127832479Y-60825193D01*
X127684508Y-60918168D01*
X127560938Y-61041738D01*
X127467962Y-61189710D01*
X127410244Y-61354656D01*
X127410242Y-61354666D01*
X127390678Y-61528311D01*
X127390678Y-61528318D01*
X127410242Y-61701963D01*
X127410244Y-61701973D01*
X127463605Y-61854468D01*
X127467963Y-61866921D01*
X127560938Y-62014891D01*
X127684509Y-62138462D01*
X127832479Y-62231437D01*
X127997428Y-62289156D01*
X127997434Y-62289156D01*
X127997436Y-62289157D01*
X128171081Y-62308722D01*
X128171085Y-62308722D01*
X128171089Y-62308722D01*
X128344733Y-62289157D01*
X128344732Y-62289157D01*
X128344742Y-62289156D01*
X128509691Y-62231437D01*
X128657661Y-62138462D01*
X128781232Y-62014891D01*
X128874207Y-61866921D01*
X128931926Y-61701972D01*
X128935535Y-61669939D01*
X128951492Y-61528318D01*
X128951492Y-61528311D01*
X128931927Y-61354666D01*
X128931926Y-61354659D01*
X128931925Y-61354656D01*
X128921507Y-61324885D01*
X128917945Y-61255108D01*
X128952674Y-61194480D01*
X128997593Y-61166890D01*
X128997612Y-61166883D01*
X128997615Y-61166883D01*
X129162564Y-61109164D01*
X129162569Y-61109160D01*
X129167801Y-61107330D01*
X129237580Y-61103767D01*
X129298208Y-61138496D01*
X129330435Y-61200489D01*
X129325799Y-61265325D01*
X129269759Y-61425477D01*
X129269758Y-61425482D01*
X129250194Y-61599127D01*
X129250194Y-61599134D01*
X129269758Y-61772779D01*
X129269760Y-61772789D01*
X129311757Y-61892807D01*
X129327479Y-61937737D01*
X129420454Y-62085707D01*
X129544025Y-62209278D01*
X129691995Y-62302253D01*
X129856944Y-62359972D01*
X129856950Y-62359972D01*
X129856952Y-62359973D01*
X130030597Y-62379538D01*
X130030601Y-62379538D01*
X130030605Y-62379538D01*
X130204249Y-62359973D01*
X130204248Y-62359973D01*
X130204258Y-62359972D01*
X130369207Y-62302253D01*
X130517177Y-62209278D01*
X130640748Y-62085707D01*
X130733723Y-61937737D01*
X130791442Y-61772788D01*
X130803030Y-61669939D01*
X130811008Y-61599134D01*
X130811008Y-61599127D01*
X130791443Y-61425482D01*
X130791442Y-61425477D01*
X130791442Y-61425474D01*
X130733723Y-61260525D01*
X130640748Y-61112555D01*
X130517177Y-60988984D01*
X130369207Y-60896009D01*
X130369206Y-60896008D01*
X130369205Y-60896008D01*
X130204259Y-60838290D01*
X130204249Y-60838288D01*
X130030605Y-60818724D01*
X130030597Y-60818724D01*
X129856952Y-60838288D01*
X129856942Y-60838290D01*
X129686756Y-60897842D01*
X129616977Y-60901404D01*
X129556350Y-60866676D01*
X129524122Y-60804682D01*
X129528760Y-60739846D01*
X129539004Y-60710572D01*
X129584799Y-60579699D01*
X129593525Y-60502253D01*
X129604365Y-60406045D01*
X129604365Y-60406038D01*
X129584800Y-60232393D01*
X129584799Y-60232391D01*
X129584799Y-60232385D01*
X129527080Y-60067436D01*
X129434105Y-59919466D01*
X129390715Y-59876076D01*
X129357230Y-59814753D01*
X129362214Y-59745061D01*
X129404086Y-59689128D01*
X129469550Y-59664711D01*
X129492280Y-59665175D01*
X129619675Y-59679529D01*
X129619678Y-59679529D01*
X129619682Y-59679529D01*
X129793326Y-59659964D01*
X129793325Y-59659964D01*
X129793335Y-59659963D01*
X129908681Y-59619601D01*
X133077593Y-59619601D01*
X133097157Y-59793246D01*
X133097159Y-59793256D01*
X133150313Y-59945159D01*
X133154878Y-59958204D01*
X133247853Y-60106174D01*
X133371424Y-60229745D01*
X133519394Y-60322720D01*
X133684343Y-60380439D01*
X133684349Y-60380439D01*
X133684351Y-60380440D01*
X133857996Y-60400005D01*
X133858000Y-60400005D01*
X133858004Y-60400005D01*
X134031648Y-60380440D01*
X134031647Y-60380440D01*
X134031657Y-60380439D01*
X134196606Y-60322720D01*
X134344576Y-60229745D01*
X134370201Y-60204118D01*
X134431521Y-60170635D01*
X134501213Y-60175619D01*
X134535196Y-60194856D01*
X134539822Y-60198545D01*
X134539824Y-60198547D01*
X134687794Y-60291522D01*
X134852743Y-60349241D01*
X134852749Y-60349241D01*
X134852751Y-60349242D01*
X135026396Y-60368807D01*
X135026400Y-60368807D01*
X135026404Y-60368807D01*
X135189744Y-60350403D01*
X142932793Y-60350403D01*
X142952357Y-60524048D01*
X142952359Y-60524058D01*
X142982247Y-60609471D01*
X143010078Y-60689006D01*
X143103053Y-60836976D01*
X143226624Y-60960547D01*
X143374594Y-61053522D01*
X143539543Y-61111241D01*
X143539549Y-61111241D01*
X143539551Y-61111242D01*
X143713196Y-61130807D01*
X143713200Y-61130807D01*
X143713204Y-61130807D01*
X143876544Y-61112403D01*
X146336393Y-61112403D01*
X146355957Y-61286048D01*
X146355959Y-61286058D01*
X146407925Y-61434566D01*
X146413678Y-61451006D01*
X146506653Y-61598976D01*
X146630224Y-61722547D01*
X146778194Y-61815522D01*
X146943143Y-61873241D01*
X146943149Y-61873241D01*
X146943151Y-61873242D01*
X147116796Y-61892807D01*
X147116800Y-61892807D01*
X147116804Y-61892807D01*
X147290448Y-61873242D01*
X147290447Y-61873242D01*
X147290457Y-61873241D01*
X147455406Y-61815522D01*
X147603376Y-61722547D01*
X147726947Y-61598976D01*
X147819922Y-61451006D01*
X147877641Y-61286057D01*
X147882598Y-61242059D01*
X147897207Y-61112403D01*
X147897207Y-61112396D01*
X147877642Y-60938751D01*
X147877641Y-60938749D01*
X147877641Y-60938743D01*
X147819922Y-60773794D01*
X147726947Y-60625824D01*
X147603376Y-60502253D01*
X147455406Y-60409278D01*
X147455405Y-60409277D01*
X147455404Y-60409277D01*
X147290458Y-60351559D01*
X147290448Y-60351557D01*
X147116804Y-60331993D01*
X147116796Y-60331993D01*
X146943151Y-60351557D01*
X146943141Y-60351559D01*
X146778195Y-60409277D01*
X146630223Y-60502253D01*
X146506653Y-60625823D01*
X146413677Y-60773795D01*
X146355959Y-60938741D01*
X146355957Y-60938751D01*
X146336393Y-61112396D01*
X146336393Y-61112403D01*
X143876544Y-61112403D01*
X143886848Y-61111242D01*
X143886847Y-61111242D01*
X143886857Y-61111241D01*
X144051806Y-61053522D01*
X144199776Y-60960547D01*
X144323347Y-60836976D01*
X144416322Y-60689006D01*
X144474041Y-60524057D01*
X144486973Y-60409278D01*
X144493607Y-60350403D01*
X144493607Y-60350396D01*
X144474042Y-60176751D01*
X144474041Y-60176749D01*
X144474041Y-60176743D01*
X144416322Y-60011794D01*
X144323347Y-59863824D01*
X144199776Y-59740253D01*
X144051806Y-59647278D01*
X144051805Y-59647277D01*
X144051804Y-59647277D01*
X143886858Y-59589559D01*
X143886848Y-59589557D01*
X143713204Y-59569993D01*
X143713196Y-59569993D01*
X143539551Y-59589557D01*
X143539541Y-59589559D01*
X143374595Y-59647277D01*
X143226623Y-59740253D01*
X143103053Y-59863823D01*
X143010077Y-60011795D01*
X142952359Y-60176741D01*
X142952357Y-60176751D01*
X142932793Y-60350396D01*
X142932793Y-60350403D01*
X135189744Y-60350403D01*
X135200048Y-60349242D01*
X135200047Y-60349242D01*
X135200057Y-60349241D01*
X135365006Y-60291522D01*
X135512976Y-60198547D01*
X135636547Y-60074976D01*
X135723100Y-59937225D01*
X135775434Y-59890934D01*
X135844487Y-59880285D01*
X135908336Y-59908660D01*
X135933086Y-59937223D01*
X135991053Y-60029477D01*
X136114624Y-60153048D01*
X136262594Y-60246023D01*
X136427543Y-60303742D01*
X136427549Y-60303742D01*
X136427551Y-60303743D01*
X136601196Y-60323308D01*
X136601200Y-60323308D01*
X136601204Y-60323308D01*
X136774848Y-60303743D01*
X136774847Y-60303743D01*
X136774857Y-60303742D01*
X136939806Y-60246023D01*
X137087776Y-60153048D01*
X137211347Y-60029477D01*
X137304322Y-59881507D01*
X137362041Y-59716558D01*
X137367883Y-59664711D01*
X137381607Y-59542904D01*
X137381607Y-59542897D01*
X137362042Y-59369252D01*
X137362041Y-59369250D01*
X137362041Y-59369244D01*
X137356308Y-59352861D01*
X139547651Y-59352861D01*
X139567215Y-59526506D01*
X139567217Y-59526516D01*
X139624935Y-59691462D01*
X139624936Y-59691464D01*
X139717911Y-59839434D01*
X139841482Y-59963005D01*
X139989452Y-60055980D01*
X140154401Y-60113699D01*
X140154407Y-60113699D01*
X140154409Y-60113700D01*
X140328054Y-60133265D01*
X140328058Y-60133265D01*
X140328062Y-60133265D01*
X140501706Y-60113700D01*
X140501705Y-60113700D01*
X140501715Y-60113699D01*
X140666664Y-60055980D01*
X140814634Y-59963005D01*
X140938205Y-59839434D01*
X141031180Y-59691464D01*
X141088899Y-59526515D01*
X141095467Y-59468220D01*
X141108465Y-59352861D01*
X141108465Y-59352854D01*
X141088900Y-59179209D01*
X141088899Y-59179207D01*
X141088899Y-59179201D01*
X141031180Y-59014252D01*
X140938205Y-58866282D01*
X140814634Y-58742711D01*
X140666664Y-58649736D01*
X140666663Y-58649735D01*
X140666662Y-58649735D01*
X140501716Y-58592017D01*
X140501706Y-58592015D01*
X140328062Y-58572451D01*
X140328054Y-58572451D01*
X140154409Y-58592015D01*
X140154399Y-58592017D01*
X139989453Y-58649735D01*
X139841481Y-58742711D01*
X139717911Y-58866281D01*
X139624935Y-59014253D01*
X139567217Y-59179199D01*
X139567215Y-59179209D01*
X139547651Y-59352854D01*
X139547651Y-59352861D01*
X137356308Y-59352861D01*
X137304322Y-59204295D01*
X137211347Y-59056325D01*
X137087776Y-58932754D01*
X136939806Y-58839779D01*
X136939805Y-58839778D01*
X136939804Y-58839778D01*
X136774858Y-58782060D01*
X136774848Y-58782058D01*
X136601204Y-58762494D01*
X136601196Y-58762494D01*
X136427551Y-58782058D01*
X136427541Y-58782060D01*
X136262595Y-58839778D01*
X136114623Y-58932754D01*
X135991053Y-59056324D01*
X135904499Y-59194075D01*
X135852164Y-59240366D01*
X135783111Y-59251014D01*
X135719262Y-59222639D01*
X135694511Y-59194074D01*
X135636549Y-59101826D01*
X135512976Y-58978253D01*
X135495081Y-58967009D01*
X135365006Y-58885278D01*
X135365005Y-58885277D01*
X135365004Y-58885277D01*
X135200058Y-58827559D01*
X135200048Y-58827557D01*
X135026404Y-58807993D01*
X135026396Y-58807993D01*
X134852751Y-58827557D01*
X134852741Y-58827559D01*
X134687795Y-58885277D01*
X134539825Y-58978252D01*
X134514198Y-59003879D01*
X134452874Y-59037363D01*
X134383183Y-59032377D01*
X134349204Y-59013142D01*
X134344576Y-59009451D01*
X134259443Y-58955959D01*
X134196606Y-58916476D01*
X134196605Y-58916475D01*
X134196604Y-58916475D01*
X134031658Y-58858757D01*
X134031648Y-58858755D01*
X133858004Y-58839191D01*
X133857996Y-58839191D01*
X133684351Y-58858755D01*
X133684341Y-58858757D01*
X133519395Y-58916475D01*
X133371423Y-59009451D01*
X133247853Y-59133021D01*
X133154877Y-59280993D01*
X133097159Y-59445939D01*
X133097157Y-59445949D01*
X133077593Y-59619594D01*
X133077593Y-59619601D01*
X129908681Y-59619601D01*
X129958284Y-59602244D01*
X130106254Y-59509269D01*
X130229825Y-59385698D01*
X130322800Y-59237728D01*
X130380519Y-59072779D01*
X130391169Y-58978253D01*
X130400085Y-58899125D01*
X130400085Y-58899118D01*
X130380520Y-58725473D01*
X130380519Y-58725471D01*
X130380519Y-58725465D01*
X130322800Y-58560516D01*
X130229825Y-58412546D01*
X130106254Y-58288975D01*
X129958284Y-58196000D01*
X129958283Y-58195999D01*
X129958282Y-58195999D01*
X129793336Y-58138281D01*
X129793326Y-58138279D01*
X129619682Y-58118715D01*
X129619674Y-58118715D01*
X129446029Y-58138279D01*
X129446019Y-58138281D01*
X129281073Y-58195999D01*
X129133101Y-58288975D01*
X129078952Y-58343124D01*
X129017629Y-58376608D01*
X128947937Y-58371623D01*
X128892004Y-58329752D01*
X128867588Y-58264287D01*
X128874231Y-58214486D01*
X128878441Y-58202457D01*
X128890187Y-58098204D01*
X128898007Y-58028803D01*
X128898007Y-58028796D01*
X128878442Y-57855151D01*
X128878441Y-57855149D01*
X128878441Y-57855143D01*
X128820722Y-57690194D01*
X128727747Y-57542224D01*
X128604176Y-57418653D01*
X128456206Y-57325678D01*
X128456205Y-57325677D01*
X128456204Y-57325677D01*
X128291258Y-57267959D01*
X128291248Y-57267957D01*
X128117604Y-57248393D01*
X128117596Y-57248393D01*
X127943951Y-57267957D01*
X127943941Y-57267959D01*
X127778995Y-57325677D01*
X127631023Y-57418653D01*
X127507453Y-57542223D01*
X127414478Y-57690194D01*
X127405203Y-57716700D01*
X127364481Y-57773476D01*
X127299528Y-57799222D01*
X127230966Y-57785765D01*
X127183169Y-57741718D01*
X127177206Y-57732228D01*
X127175947Y-57730224D01*
X127052376Y-57606653D01*
X126904406Y-57513678D01*
X126904405Y-57513677D01*
X126904404Y-57513677D01*
X126739458Y-57455959D01*
X126739448Y-57455957D01*
X126602107Y-57440483D01*
X126537693Y-57413417D01*
X126510996Y-57383234D01*
X126441749Y-57273026D01*
X126318176Y-57149453D01*
X126252191Y-57107992D01*
X126170206Y-57056478D01*
X126170205Y-57056477D01*
X126170204Y-57056477D01*
X126005258Y-56998759D01*
X126005248Y-56998757D01*
X125831604Y-56979193D01*
X125831596Y-56979193D01*
X125657951Y-56998757D01*
X125657941Y-56998759D01*
X125492995Y-57056477D01*
X125345023Y-57149453D01*
X125221453Y-57273023D01*
X125128477Y-57420995D01*
X125070759Y-57585941D01*
X125070757Y-57585951D01*
X125051193Y-57759596D01*
X125051193Y-57759603D01*
X119328247Y-57759603D01*
X119267331Y-57612538D01*
X119143494Y-57410456D01*
X118708609Y-57845341D01*
X118647286Y-57878826D01*
X118577594Y-57873842D01*
X118521661Y-57831970D01*
X118515943Y-57823645D01*
X118511423Y-57816452D01*
X118383948Y-57688977D01*
X118376764Y-57684463D01*
X118330474Y-57632130D01*
X118319825Y-57563076D01*
X118348200Y-57499228D01*
X118355056Y-57491789D01*
X118789942Y-57056904D01*
X118587861Y-56933068D01*
X118362457Y-56839703D01*
X118125219Y-56782748D01*
X118125220Y-56782748D01*
X117882000Y-56763607D01*
X117638780Y-56782748D01*
X117401542Y-56839703D01*
X117176146Y-56933065D01*
X117176141Y-56933068D01*
X116974056Y-57056904D01*
X117408942Y-57491789D01*
X117442427Y-57553112D01*
X117437443Y-57622803D01*
X117395572Y-57678737D01*
X117387236Y-57684462D01*
X117380054Y-57688974D01*
X117252574Y-57816454D01*
X117248062Y-57823636D01*
X117195726Y-57869926D01*
X117126672Y-57880572D01*
X117062825Y-57852195D01*
X117055389Y-57845342D01*
X116620504Y-57410456D01*
X116496668Y-57612541D01*
X116496665Y-57612546D01*
X116403303Y-57837942D01*
X116346348Y-58075180D01*
X116327207Y-58318400D01*
X114327047Y-58318400D01*
X114327047Y-58318395D01*
X114306886Y-58049373D01*
X114306886Y-58049371D01*
X114246857Y-57786366D01*
X114246851Y-57786347D01*
X114148290Y-57535218D01*
X114148291Y-57535218D01*
X114013397Y-57301577D01*
X113959704Y-57234247D01*
X113959703Y-57234247D01*
X113524161Y-57669790D01*
X113462838Y-57703275D01*
X113393146Y-57698291D01*
X113340627Y-57660774D01*
X113268055Y-57572344D01*
X113179624Y-57499771D01*
X113140290Y-57442026D01*
X113138419Y-57372181D01*
X113170608Y-57316237D01*
X113607150Y-56879696D01*
X113424517Y-56755179D01*
X113424516Y-56755178D01*
X113181460Y-56638130D01*
X113181462Y-56638130D01*
X113029329Y-56591203D01*
X131776093Y-56591203D01*
X131795657Y-56764848D01*
X131795659Y-56764858D01*
X131851828Y-56925376D01*
X131853378Y-56929806D01*
X131944983Y-57075596D01*
X131945728Y-57076781D01*
X131964728Y-57144018D01*
X131945728Y-57208724D01*
X131894780Y-57289807D01*
X131837061Y-57454756D01*
X131837059Y-57454766D01*
X131817495Y-57628411D01*
X131817495Y-57628418D01*
X131837059Y-57802063D01*
X131837061Y-57802073D01*
X131894779Y-57967019D01*
X131894780Y-57967021D01*
X131987755Y-58114991D01*
X132111326Y-58238562D01*
X132259296Y-58331537D01*
X132424245Y-58389256D01*
X132424251Y-58389256D01*
X132424253Y-58389257D01*
X132597898Y-58408822D01*
X132597902Y-58408822D01*
X132597906Y-58408822D01*
X132771550Y-58389257D01*
X132771549Y-58389257D01*
X132771559Y-58389256D01*
X132936508Y-58331537D01*
X133084478Y-58238562D01*
X133208049Y-58114991D01*
X133301024Y-57967021D01*
X133358743Y-57802072D01*
X133366838Y-57730222D01*
X133368199Y-57718142D01*
X135414480Y-57718142D01*
X135434044Y-57891787D01*
X135434046Y-57891797D01*
X135489185Y-58049373D01*
X135491765Y-58056745D01*
X135584740Y-58204715D01*
X135708311Y-58328286D01*
X135856281Y-58421261D01*
X136021230Y-58478980D01*
X136021236Y-58478980D01*
X136021238Y-58478981D01*
X136194883Y-58498546D01*
X136194887Y-58498546D01*
X136194891Y-58498546D01*
X136368535Y-58478981D01*
X136368534Y-58478981D01*
X136368544Y-58478980D01*
X136533493Y-58421261D01*
X136681463Y-58328286D01*
X136805034Y-58204715D01*
X136898009Y-58056745D01*
X136955728Y-57891796D01*
X136964217Y-57816452D01*
X136975294Y-57718142D01*
X136975294Y-57718135D01*
X136955729Y-57544490D01*
X136955728Y-57544488D01*
X136955728Y-57544482D01*
X136898009Y-57379533D01*
X136805034Y-57231563D01*
X136681463Y-57107992D01*
X136533493Y-57015017D01*
X136533492Y-57015016D01*
X136533491Y-57015016D01*
X136368545Y-56957298D01*
X136368535Y-56957296D01*
X136194891Y-56937732D01*
X136194883Y-56937732D01*
X136021238Y-56957296D01*
X136021228Y-56957298D01*
X135856282Y-57015016D01*
X135708310Y-57107992D01*
X135584740Y-57231562D01*
X135491764Y-57379534D01*
X135434046Y-57544480D01*
X135434044Y-57544490D01*
X135414480Y-57718135D01*
X135414480Y-57718142D01*
X133368199Y-57718142D01*
X133378309Y-57628418D01*
X133378309Y-57628411D01*
X133358744Y-57454766D01*
X133358743Y-57454764D01*
X133358743Y-57454758D01*
X133301024Y-57289809D01*
X133208672Y-57142831D01*
X133189673Y-57075596D01*
X133208672Y-57010891D01*
X133259622Y-56929806D01*
X133317341Y-56764857D01*
X133318432Y-56755178D01*
X133336907Y-56591203D01*
X133336907Y-56591196D01*
X133319737Y-56438803D01*
X140700790Y-56438803D01*
X140720354Y-56612448D01*
X140720356Y-56612458D01*
X140773684Y-56764857D01*
X140778075Y-56777406D01*
X140871050Y-56925376D01*
X140994621Y-57048947D01*
X141142591Y-57141922D01*
X141307540Y-57199641D01*
X141307546Y-57199641D01*
X141307548Y-57199642D01*
X141481193Y-57219207D01*
X141481197Y-57219207D01*
X141481201Y-57219207D01*
X141654845Y-57199642D01*
X141654844Y-57199642D01*
X141654854Y-57199641D01*
X141819803Y-57141922D01*
X141967773Y-57048947D01*
X142091344Y-56925376D01*
X142184319Y-56777406D01*
X142242038Y-56612457D01*
X142244433Y-56591200D01*
X142261604Y-56438803D01*
X142261604Y-56438796D01*
X142242039Y-56265151D01*
X142242038Y-56265149D01*
X142242038Y-56265143D01*
X142184319Y-56100194D01*
X142091344Y-55952224D01*
X141967773Y-55828653D01*
X141819803Y-55735678D01*
X141819802Y-55735677D01*
X141819801Y-55735677D01*
X141654855Y-55677959D01*
X141654845Y-55677957D01*
X141481201Y-55658393D01*
X141481193Y-55658393D01*
X141307548Y-55677957D01*
X141307538Y-55677959D01*
X141142592Y-55735677D01*
X140994620Y-55828653D01*
X140871050Y-55952223D01*
X140778074Y-56100195D01*
X140720356Y-56265141D01*
X140720354Y-56265151D01*
X140700790Y-56438796D01*
X140700790Y-56438803D01*
X133319737Y-56438803D01*
X133317342Y-56417551D01*
X133317341Y-56417549D01*
X133317341Y-56417543D01*
X133259622Y-56252594D01*
X133166647Y-56104624D01*
X133043076Y-55981053D01*
X132895106Y-55888078D01*
X132895105Y-55888077D01*
X132895104Y-55888077D01*
X132730158Y-55830359D01*
X132730148Y-55830357D01*
X132556504Y-55810793D01*
X132556496Y-55810793D01*
X132382851Y-55830357D01*
X132382841Y-55830359D01*
X132217895Y-55888077D01*
X132069923Y-55981053D01*
X131946353Y-56104623D01*
X131853377Y-56252595D01*
X131795659Y-56417541D01*
X131795657Y-56417551D01*
X131776093Y-56591196D01*
X131776093Y-56591203D01*
X113029329Y-56591203D01*
X112923662Y-56558609D01*
X112923656Y-56558607D01*
X112656898Y-56518400D01*
X112387101Y-56518400D01*
X112120343Y-56558607D01*
X112120337Y-56558609D01*
X111862538Y-56638130D01*
X111619485Y-56755178D01*
X111619476Y-56755183D01*
X111403178Y-56902652D01*
X111336699Y-56924152D01*
X111269149Y-56906298D01*
X111221975Y-56854758D01*
X111210155Y-56785895D01*
X111214563Y-56764546D01*
X111333966Y-56366916D01*
X111334811Y-56364320D01*
X111627366Y-55528247D01*
X111628344Y-55525642D01*
X111958096Y-54703580D01*
X111959174Y-54701057D01*
X112087876Y-54417712D01*
X135589268Y-54417712D01*
X135608832Y-54591357D01*
X135608834Y-54591367D01*
X135647652Y-54702301D01*
X135666553Y-54756315D01*
X135759528Y-54904285D01*
X135883099Y-55027856D01*
X136031069Y-55120831D01*
X136196018Y-55178550D01*
X136196024Y-55178550D01*
X136196026Y-55178551D01*
X136369671Y-55198116D01*
X136369675Y-55198116D01*
X136369679Y-55198116D01*
X136543323Y-55178551D01*
X136543322Y-55178551D01*
X136543332Y-55178550D01*
X136708281Y-55120831D01*
X136856251Y-55027856D01*
X136979822Y-54904285D01*
X137072797Y-54756315D01*
X137130516Y-54591366D01*
X137150082Y-54417709D01*
X137130516Y-54244052D01*
X137072797Y-54079103D01*
X136979822Y-53931133D01*
X136856251Y-53807562D01*
X136708281Y-53714587D01*
X136708280Y-53714586D01*
X136708279Y-53714586D01*
X136543333Y-53656868D01*
X136543323Y-53656866D01*
X136369679Y-53637302D01*
X136369671Y-53637302D01*
X136196026Y-53656866D01*
X136196016Y-53656868D01*
X136031070Y-53714586D01*
X135883098Y-53807562D01*
X135759528Y-53931132D01*
X135666552Y-54079104D01*
X135608834Y-54244050D01*
X135608832Y-54244060D01*
X135589268Y-54417705D01*
X135589268Y-54417712D01*
X112087876Y-54417712D01*
X112325511Y-53894542D01*
X112326693Y-53892090D01*
X112359603Y-53827500D01*
X112728823Y-53102865D01*
X112730121Y-53100451D01*
X112795969Y-52984403D01*
X116567593Y-52984403D01*
X116587157Y-53158048D01*
X116587159Y-53158058D01*
X116644877Y-53323004D01*
X116644878Y-53323006D01*
X116737853Y-53470976D01*
X116861424Y-53594547D01*
X117009394Y-53687522D01*
X117174343Y-53745241D01*
X117174349Y-53745241D01*
X117174351Y-53745242D01*
X117347996Y-53764807D01*
X117348000Y-53764807D01*
X117348004Y-53764807D01*
X117521648Y-53745242D01*
X117521647Y-53745242D01*
X117521657Y-53745241D01*
X117686606Y-53687522D01*
X117834576Y-53594547D01*
X117958147Y-53470976D01*
X118051122Y-53323006D01*
X118108841Y-53158057D01*
X118119158Y-53066487D01*
X118128407Y-52984403D01*
X118128407Y-52984396D01*
X118108842Y-52810751D01*
X118108841Y-52810749D01*
X118108841Y-52810743D01*
X118062952Y-52679602D01*
X120652677Y-52679602D01*
X120671929Y-52899662D01*
X120671930Y-52899670D01*
X120729104Y-53113045D01*
X120729105Y-53113047D01*
X120729106Y-53113050D01*
X120810460Y-53287514D01*
X120822466Y-53313262D01*
X120822468Y-53313266D01*
X120949170Y-53494215D01*
X120949175Y-53494221D01*
X121105378Y-53650424D01*
X121105384Y-53650429D01*
X121286333Y-53777131D01*
X121286335Y-53777132D01*
X121286338Y-53777134D01*
X121486550Y-53870494D01*
X121699932Y-53927670D01*
X121857123Y-53941422D01*
X121919998Y-53946923D01*
X121920000Y-53946923D01*
X121920002Y-53946923D01*
X121975017Y-53942109D01*
X122140068Y-53927670D01*
X122353450Y-53870494D01*
X122553662Y-53777134D01*
X122734620Y-53650426D01*
X122890826Y-53494220D01*
X123017534Y-53313262D01*
X123077617Y-53184411D01*
X123123790Y-53131971D01*
X123190983Y-53112819D01*
X123257865Y-53133035D01*
X123302382Y-53184411D01*
X123362464Y-53313258D01*
X123362468Y-53313266D01*
X123489170Y-53494215D01*
X123489175Y-53494221D01*
X123645378Y-53650424D01*
X123645384Y-53650429D01*
X123826333Y-53777131D01*
X123826335Y-53777132D01*
X123826338Y-53777134D01*
X124026550Y-53870494D01*
X124239932Y-53927670D01*
X124397123Y-53941422D01*
X124459998Y-53946923D01*
X124460000Y-53946923D01*
X124460002Y-53946923D01*
X124515016Y-53942109D01*
X124680068Y-53927670D01*
X124893450Y-53870494D01*
X125093662Y-53777134D01*
X125274620Y-53650426D01*
X125430826Y-53494220D01*
X125557534Y-53313262D01*
X125650894Y-53113050D01*
X125708070Y-52899668D01*
X125722879Y-52730400D01*
X127612779Y-52730400D01*
X127632024Y-52950376D01*
X127632026Y-52950386D01*
X127689175Y-53163670D01*
X127689180Y-53163684D01*
X127782499Y-53363807D01*
X127782500Y-53363809D01*
X127827858Y-53428587D01*
X128264860Y-52991584D01*
X128326183Y-52958099D01*
X128395874Y-52963083D01*
X128451808Y-53004954D01*
X128456856Y-53012225D01*
X128491729Y-53066487D01*
X128491733Y-53066492D01*
X128608236Y-53167444D01*
X128646010Y-53226222D01*
X128646010Y-53296092D01*
X128614714Y-53348837D01*
X128181411Y-53782140D01*
X128181411Y-53782141D01*
X128246182Y-53827494D01*
X128246192Y-53827500D01*
X128446315Y-53920819D01*
X128446329Y-53920824D01*
X128659613Y-53977973D01*
X128659623Y-53977975D01*
X128879599Y-53997221D01*
X128879601Y-53997221D01*
X129099576Y-53977975D01*
X129099586Y-53977973D01*
X129312870Y-53920824D01*
X129312884Y-53920819D01*
X129513008Y-53827500D01*
X129513020Y-53827493D01*
X129577786Y-53782142D01*
X129577787Y-53782140D01*
X129144484Y-53348837D01*
X129110999Y-53287514D01*
X129115983Y-53217822D01*
X129150962Y-53167443D01*
X129157065Y-53162153D01*
X129157070Y-53162152D01*
X129267469Y-53066490D01*
X129302342Y-53012225D01*
X129355144Y-52966471D01*
X129424302Y-52956527D01*
X129487858Y-52985551D01*
X129494338Y-52991584D01*
X129931341Y-53428587D01*
X129931342Y-53428586D01*
X129976693Y-53363820D01*
X129976700Y-53363808D01*
X130036942Y-53234619D01*
X130083114Y-53182179D01*
X130150307Y-53163027D01*
X130217188Y-53183242D01*
X130261706Y-53234619D01*
X130322064Y-53364058D01*
X130322068Y-53364066D01*
X130448770Y-53545015D01*
X130448775Y-53545021D01*
X130604978Y-53701224D01*
X130604984Y-53701229D01*
X130785933Y-53827931D01*
X130785935Y-53827932D01*
X130785938Y-53827934D01*
X130986150Y-53921294D01*
X131199532Y-53978470D01*
X131356723Y-53992222D01*
X131419598Y-53997723D01*
X131419600Y-53997723D01*
X131419602Y-53997723D01*
X131474616Y-53992909D01*
X131639668Y-53978470D01*
X131853050Y-53921294D01*
X132053262Y-53827934D01*
X132234220Y-53701226D01*
X132390426Y-53545020D01*
X132517134Y-53364062D01*
X132610494Y-53163850D01*
X132667670Y-52950468D01*
X132686923Y-52730400D01*
X132682478Y-52679597D01*
X132679521Y-52645794D01*
X132667670Y-52510332D01*
X132610494Y-52296950D01*
X132517134Y-52096739D01*
X132390426Y-51915780D01*
X132234220Y-51759574D01*
X132234216Y-51759571D01*
X132234215Y-51759570D01*
X132053266Y-51632868D01*
X132053262Y-51632866D01*
X132053262Y-51632865D01*
X131853050Y-51539506D01*
X131853047Y-51539505D01*
X131853045Y-51539504D01*
X131639670Y-51482330D01*
X131639662Y-51482329D01*
X131419602Y-51463077D01*
X131419598Y-51463077D01*
X131199537Y-51482329D01*
X131199529Y-51482330D01*
X130986154Y-51539504D01*
X130986148Y-51539507D01*
X130785940Y-51632865D01*
X130785938Y-51632866D01*
X130604977Y-51759575D01*
X130448775Y-51915777D01*
X130322067Y-52096737D01*
X130322066Y-52096739D01*
X130321948Y-52096993D01*
X130261705Y-52226182D01*
X130215532Y-52278621D01*
X130148338Y-52297772D01*
X130081457Y-52277556D01*
X130036941Y-52226180D01*
X129976700Y-52096993D01*
X129976699Y-52096991D01*
X129931340Y-52032211D01*
X129494338Y-52469214D01*
X129433015Y-52502699D01*
X129363323Y-52497715D01*
X129307390Y-52455843D01*
X129302342Y-52448573D01*
X129267470Y-52394311D01*
X129267465Y-52394307D01*
X129190568Y-52327674D01*
X129150961Y-52293354D01*
X129113188Y-52234576D01*
X129113188Y-52164706D01*
X129144484Y-52111961D01*
X129577787Y-51678658D01*
X129513009Y-51633300D01*
X129513007Y-51633299D01*
X129312884Y-51539980D01*
X129312870Y-51539975D01*
X129099586Y-51482826D01*
X129099576Y-51482824D01*
X128879601Y-51463579D01*
X128879599Y-51463579D01*
X128659623Y-51482824D01*
X128659613Y-51482826D01*
X128446329Y-51539975D01*
X128446320Y-51539979D01*
X128246186Y-51633303D01*
X128181412Y-51678657D01*
X128181411Y-51678658D01*
X128614715Y-52111962D01*
X128648200Y-52173285D01*
X128643216Y-52242977D01*
X128608237Y-52293355D01*
X128491733Y-52394307D01*
X128491729Y-52394312D01*
X128456857Y-52448574D01*
X128404053Y-52494329D01*
X128334894Y-52504272D01*
X128271339Y-52475247D01*
X128264861Y-52469215D01*
X127827858Y-52032211D01*
X127827857Y-52032212D01*
X127782503Y-52096986D01*
X127689179Y-52297120D01*
X127689175Y-52297129D01*
X127632026Y-52510413D01*
X127632024Y-52510423D01*
X127612779Y-52730399D01*
X127612779Y-52730400D01*
X125722879Y-52730400D01*
X125727323Y-52679600D01*
X125725377Y-52657361D01*
X125712521Y-52510413D01*
X125708070Y-52459532D01*
X125650894Y-52246150D01*
X125557534Y-52045939D01*
X125430826Y-51864980D01*
X125274620Y-51708774D01*
X125274616Y-51708771D01*
X125274615Y-51708770D01*
X125093666Y-51582068D01*
X125093662Y-51582066D01*
X125079287Y-51575363D01*
X124893450Y-51488706D01*
X124893447Y-51488705D01*
X124893445Y-51488704D01*
X124680070Y-51431530D01*
X124680062Y-51431529D01*
X124460002Y-51412277D01*
X124459998Y-51412277D01*
X124239937Y-51431529D01*
X124239929Y-51431530D01*
X124026554Y-51488704D01*
X124026548Y-51488707D01*
X123826340Y-51582065D01*
X123826338Y-51582066D01*
X123645377Y-51708775D01*
X123489175Y-51864977D01*
X123362466Y-52045938D01*
X123362465Y-52045940D01*
X123302382Y-52174789D01*
X123256209Y-52227228D01*
X123189016Y-52246380D01*
X123122135Y-52226164D01*
X123077618Y-52174789D01*
X123048321Y-52111962D01*
X123017534Y-52045939D01*
X122890826Y-51864980D01*
X122734620Y-51708774D01*
X122734616Y-51708771D01*
X122734615Y-51708770D01*
X122553666Y-51582068D01*
X122553662Y-51582066D01*
X122539287Y-51575363D01*
X122353450Y-51488706D01*
X122353447Y-51488705D01*
X122353445Y-51488704D01*
X122140070Y-51431530D01*
X122140062Y-51431529D01*
X121920002Y-51412277D01*
X121919998Y-51412277D01*
X121699937Y-51431529D01*
X121699929Y-51431530D01*
X121486554Y-51488704D01*
X121486548Y-51488707D01*
X121286340Y-51582065D01*
X121286338Y-51582066D01*
X121105377Y-51708775D01*
X120949175Y-51864977D01*
X120822466Y-52045938D01*
X120822465Y-52045940D01*
X120729107Y-52246148D01*
X120729104Y-52246154D01*
X120671930Y-52459529D01*
X120671929Y-52459537D01*
X120652677Y-52679597D01*
X120652677Y-52679602D01*
X118062952Y-52679602D01*
X118051122Y-52645794D01*
X117958147Y-52497824D01*
X117834576Y-52374253D01*
X117686606Y-52281278D01*
X117686605Y-52281277D01*
X117686604Y-52281277D01*
X117521658Y-52223559D01*
X117521648Y-52223557D01*
X117348004Y-52203993D01*
X117347996Y-52203993D01*
X117174351Y-52223557D01*
X117174341Y-52223559D01*
X117009395Y-52281277D01*
X116861423Y-52374253D01*
X116737853Y-52497823D01*
X116644877Y-52645795D01*
X116587159Y-52810741D01*
X116587157Y-52810751D01*
X116567593Y-52984396D01*
X116567593Y-52984403D01*
X112795969Y-52984403D01*
X113167260Y-52330053D01*
X113168671Y-52327691D01*
X113639948Y-51577658D01*
X113641441Y-51575396D01*
X114145893Y-50847263D01*
X114147512Y-50845037D01*
X114684113Y-50140283D01*
X114685810Y-50138157D01*
X115253488Y-49458187D01*
X115255304Y-49456111D01*
X115338673Y-49364902D01*
X120398677Y-49364902D01*
X120417929Y-49584962D01*
X120417930Y-49584970D01*
X120475104Y-49798345D01*
X120475105Y-49798347D01*
X120475106Y-49798350D01*
X120481029Y-49811051D01*
X120568466Y-49998562D01*
X120568468Y-49998566D01*
X120695170Y-50179515D01*
X120695175Y-50179521D01*
X120851378Y-50335724D01*
X120851384Y-50335729D01*
X121032333Y-50462431D01*
X121032335Y-50462432D01*
X121032338Y-50462434D01*
X121232550Y-50555794D01*
X121445932Y-50612970D01*
X121591086Y-50625669D01*
X121665998Y-50632223D01*
X121666000Y-50632223D01*
X121666002Y-50632223D01*
X121721016Y-50627409D01*
X121886068Y-50612970D01*
X122099450Y-50555794D01*
X122299662Y-50462434D01*
X122480620Y-50335726D01*
X122636826Y-50179520D01*
X122763534Y-49998562D01*
X122856894Y-49798350D01*
X122914070Y-49584968D01*
X122932212Y-49377602D01*
X123497477Y-49377602D01*
X123516729Y-49597662D01*
X123516730Y-49597670D01*
X123573904Y-49811045D01*
X123573905Y-49811047D01*
X123573906Y-49811050D01*
X123661344Y-49998562D01*
X123667266Y-50011262D01*
X123667268Y-50011266D01*
X123793970Y-50192215D01*
X123793975Y-50192221D01*
X123950178Y-50348424D01*
X123950184Y-50348429D01*
X124131133Y-50475131D01*
X124131135Y-50475132D01*
X124131138Y-50475134D01*
X124331350Y-50568494D01*
X124544732Y-50625670D01*
X124701923Y-50639422D01*
X124764798Y-50644923D01*
X124764800Y-50644923D01*
X124764802Y-50644923D01*
X124819817Y-50640109D01*
X124984868Y-50625670D01*
X125198250Y-50568494D01*
X125398462Y-50475134D01*
X125579420Y-50348426D01*
X125735626Y-50192220D01*
X125862334Y-50011262D01*
X125955694Y-49811050D01*
X126012870Y-49597668D01*
X126032123Y-49377600D01*
X126012870Y-49157532D01*
X125955694Y-48944150D01*
X125862334Y-48743939D01*
X125735626Y-48562980D01*
X125579420Y-48406774D01*
X125579416Y-48406771D01*
X125579415Y-48406770D01*
X125398466Y-48280068D01*
X125398458Y-48280064D01*
X125269611Y-48219982D01*
X125217171Y-48173810D01*
X125198019Y-48106617D01*
X125218235Y-48039735D01*
X125269611Y-47995218D01*
X125296846Y-47982518D01*
X125398462Y-47935134D01*
X125579420Y-47808426D01*
X125635843Y-47752003D01*
X126676793Y-47752003D01*
X126696357Y-47925648D01*
X126696359Y-47925658D01*
X126754077Y-48090604D01*
X126754078Y-48090606D01*
X126847053Y-48238576D01*
X126970624Y-48362147D01*
X127118594Y-48455122D01*
X127283543Y-48512841D01*
X127283549Y-48512841D01*
X127283551Y-48512842D01*
X127457196Y-48532407D01*
X127457200Y-48532407D01*
X127457204Y-48532407D01*
X127630848Y-48512842D01*
X127630847Y-48512842D01*
X127630857Y-48512841D01*
X127795806Y-48455122D01*
X127943776Y-48362147D01*
X128067347Y-48238576D01*
X128160322Y-48090606D01*
X128218041Y-47925657D01*
X128231249Y-47808429D01*
X128237607Y-47752003D01*
X128237607Y-47751996D01*
X128218042Y-47578351D01*
X128218041Y-47578349D01*
X128218041Y-47578343D01*
X128160322Y-47413394D01*
X128067347Y-47265424D01*
X127995126Y-47193203D01*
X138868793Y-47193203D01*
X138888357Y-47366848D01*
X138888359Y-47366858D01*
X138909968Y-47428611D01*
X138946078Y-47531806D01*
X139039053Y-47679776D01*
X139162624Y-47803347D01*
X139310594Y-47896322D01*
X139475543Y-47954041D01*
X139475549Y-47954041D01*
X139475551Y-47954042D01*
X139649196Y-47973607D01*
X139649200Y-47973607D01*
X139649204Y-47973607D01*
X139822848Y-47954042D01*
X139822847Y-47954042D01*
X139822857Y-47954041D01*
X139987806Y-47896322D01*
X140135776Y-47803347D01*
X140259347Y-47679776D01*
X140352322Y-47531806D01*
X140410041Y-47366857D01*
X140410821Y-47359926D01*
X140429607Y-47193203D01*
X140429607Y-47193196D01*
X140410042Y-47019551D01*
X140410041Y-47019549D01*
X140410041Y-47019543D01*
X140352322Y-46854594D01*
X140259347Y-46706624D01*
X140135776Y-46583053D01*
X139987806Y-46490078D01*
X139987805Y-46490077D01*
X139987804Y-46490077D01*
X139822858Y-46432359D01*
X139822848Y-46432357D01*
X139649204Y-46412793D01*
X139649196Y-46412793D01*
X139475551Y-46432357D01*
X139475541Y-46432359D01*
X139310595Y-46490077D01*
X139162623Y-46583053D01*
X139039053Y-46706623D01*
X138946077Y-46854595D01*
X138888359Y-47019541D01*
X138888357Y-47019551D01*
X138868793Y-47193196D01*
X138868793Y-47193203D01*
X127995126Y-47193203D01*
X127943776Y-47141853D01*
X127795806Y-47048878D01*
X127795805Y-47048877D01*
X127795804Y-47048877D01*
X127630858Y-46991159D01*
X127630848Y-46991157D01*
X127457204Y-46971593D01*
X127457196Y-46971593D01*
X127283551Y-46991157D01*
X127283541Y-46991159D01*
X127118595Y-47048877D01*
X126970623Y-47141853D01*
X126847053Y-47265423D01*
X126754077Y-47413395D01*
X126696359Y-47578341D01*
X126696357Y-47578351D01*
X126676793Y-47751996D01*
X126676793Y-47752003D01*
X125635843Y-47752003D01*
X125735626Y-47652220D01*
X125862334Y-47471262D01*
X125955694Y-47271050D01*
X126012870Y-47057668D01*
X126032123Y-46837600D01*
X126012870Y-46617532D01*
X125955694Y-46404150D01*
X125862334Y-46203939D01*
X125735626Y-46022980D01*
X125579420Y-45866774D01*
X125579416Y-45866771D01*
X125579415Y-45866770D01*
X125398466Y-45740068D01*
X125398462Y-45740066D01*
X125371231Y-45727368D01*
X125198250Y-45646706D01*
X125198247Y-45646705D01*
X125198245Y-45646704D01*
X124984870Y-45589530D01*
X124984862Y-45589529D01*
X124764802Y-45570277D01*
X124764798Y-45570277D01*
X124544737Y-45589529D01*
X124544729Y-45589530D01*
X124331354Y-45646704D01*
X124331348Y-45646707D01*
X124131140Y-45740065D01*
X124131138Y-45740066D01*
X123950177Y-45866775D01*
X123793975Y-46022977D01*
X123667266Y-46203938D01*
X123667265Y-46203940D01*
X123573907Y-46404148D01*
X123573904Y-46404154D01*
X123516730Y-46617529D01*
X123516729Y-46617537D01*
X123497477Y-46837597D01*
X123497477Y-46837602D01*
X123516729Y-47057662D01*
X123516730Y-47057670D01*
X123573904Y-47271045D01*
X123573905Y-47271047D01*
X123573906Y-47271050D01*
X123618582Y-47366858D01*
X123667266Y-47471262D01*
X123667268Y-47471266D01*
X123793970Y-47652215D01*
X123793975Y-47652221D01*
X123950178Y-47808424D01*
X123950184Y-47808429D01*
X124131133Y-47935131D01*
X124131135Y-47935132D01*
X124131138Y-47935134D01*
X124171687Y-47954042D01*
X124259989Y-47995218D01*
X124312428Y-48041390D01*
X124331580Y-48108584D01*
X124311364Y-48175465D01*
X124259989Y-48219982D01*
X124131140Y-48280065D01*
X124131138Y-48280066D01*
X123950177Y-48406775D01*
X123793975Y-48562977D01*
X123667266Y-48743938D01*
X123667265Y-48743940D01*
X123573907Y-48944148D01*
X123573904Y-48944154D01*
X123516730Y-49157529D01*
X123516729Y-49157537D01*
X123497477Y-49377597D01*
X123497477Y-49377602D01*
X122932212Y-49377602D01*
X122933323Y-49364900D01*
X122914070Y-49144832D01*
X122856894Y-48931450D01*
X122763534Y-48731239D01*
X122700179Y-48640759D01*
X122636827Y-48550281D01*
X122599386Y-48512840D01*
X122480620Y-48394074D01*
X122480616Y-48394071D01*
X122480615Y-48394070D01*
X122299666Y-48267368D01*
X122299658Y-48267364D01*
X122170811Y-48207282D01*
X122118371Y-48161110D01*
X122099219Y-48093917D01*
X122119435Y-48027035D01*
X122170811Y-47982518D01*
X122176802Y-47979724D01*
X122299662Y-47922434D01*
X122480620Y-47795726D01*
X122636826Y-47639520D01*
X122763534Y-47458562D01*
X122856894Y-47258350D01*
X122914070Y-47044968D01*
X122933323Y-46824900D01*
X122914070Y-46604832D01*
X122856894Y-46391450D01*
X122763534Y-46191239D01*
X122700179Y-46100759D01*
X122636827Y-46010281D01*
X122585677Y-45959131D01*
X122480620Y-45854074D01*
X122480616Y-45854071D01*
X122480615Y-45854070D01*
X122299666Y-45727368D01*
X122299662Y-45727366D01*
X122126687Y-45646707D01*
X122099450Y-45634006D01*
X122099447Y-45634005D01*
X122099445Y-45634004D01*
X121886070Y-45576830D01*
X121886062Y-45576829D01*
X121666002Y-45557577D01*
X121665998Y-45557577D01*
X121445937Y-45576829D01*
X121445929Y-45576830D01*
X121232554Y-45634004D01*
X121232548Y-45634007D01*
X121032340Y-45727365D01*
X121032338Y-45727366D01*
X120851377Y-45854075D01*
X120695175Y-46010277D01*
X120568466Y-46191238D01*
X120568465Y-46191240D01*
X120475107Y-46391448D01*
X120475104Y-46391454D01*
X120417930Y-46604829D01*
X120417929Y-46604837D01*
X120398677Y-46824897D01*
X120398677Y-46824902D01*
X120417929Y-47044962D01*
X120417930Y-47044970D01*
X120475104Y-47258345D01*
X120475105Y-47258347D01*
X120475106Y-47258350D01*
X120525704Y-47366858D01*
X120568466Y-47458562D01*
X120568468Y-47458566D01*
X120695170Y-47639515D01*
X120695175Y-47639521D01*
X120851378Y-47795724D01*
X120851384Y-47795729D01*
X121032333Y-47922431D01*
X121032335Y-47922432D01*
X121032338Y-47922434D01*
X121100118Y-47954040D01*
X121161189Y-47982518D01*
X121213628Y-48028690D01*
X121232780Y-48095884D01*
X121212564Y-48162765D01*
X121161189Y-48207282D01*
X121032340Y-48267365D01*
X121032338Y-48267366D01*
X120851377Y-48394075D01*
X120695175Y-48550277D01*
X120568466Y-48731238D01*
X120568465Y-48731240D01*
X120475107Y-48931448D01*
X120475104Y-48931454D01*
X120417930Y-49144829D01*
X120417929Y-49144837D01*
X120398677Y-49364897D01*
X120398677Y-49364902D01*
X115338673Y-49364902D01*
X115852905Y-48802308D01*
X115854791Y-48800336D01*
X116481136Y-48173991D01*
X116483108Y-48172105D01*
X117136920Y-47574495D01*
X117138987Y-47572688D01*
X117818969Y-47005000D01*
X117821083Y-47003313D01*
X118525848Y-46466703D01*
X118528063Y-46465093D01*
X119256196Y-45960641D01*
X119258458Y-45959148D01*
X120008491Y-45487871D01*
X120010853Y-45486460D01*
X120781251Y-45049321D01*
X120783673Y-45048019D01*
X121194933Y-44838472D01*
X121572897Y-44645889D01*
X121575342Y-44644711D01*
X122381857Y-44278374D01*
X122384380Y-44277296D01*
X123206452Y-43947539D01*
X123209047Y-43946566D01*
X123939763Y-43690877D01*
X124045127Y-43654008D01*
X124047716Y-43653166D01*
X124896076Y-43398415D01*
X124898724Y-43397684D01*
X125757648Y-43181254D01*
X125760327Y-43180642D01*
X126628146Y-43002955D01*
X126630785Y-43002476D01*
X127505719Y-42863900D01*
X127508367Y-42863541D01*
X128388652Y-42764357D01*
X128391300Y-42764118D01*
X129275154Y-42704527D01*
X129277839Y-42704406D01*
X130163419Y-42684531D01*
X130166181Y-42684531D01*
X131051758Y-42704406D01*
G37*
%TD.AperFunction*%
%TD*%
M02*
