G04 #@! TF.GenerationSoftware,KiCad,Pcbnew,7.0.7*
G04 #@! TF.CreationDate,2024-10-24T15:21:26-07:00*
G04 #@! TF.ProjectId,ESP_POE_1.4b,4553505f-504f-4455-9f31-2e34622e6b69,K*
G04 #@! TF.SameCoordinates,Original*
G04 #@! TF.FileFunction,Soldermask,Top*
G04 #@! TF.FilePolarity,Negative*
%FSLAX46Y46*%
G04 Gerber Fmt 4.6, Leading zero omitted, Abs format (unit mm)*
G04 Created by KiCad (PCBNEW 7.0.7) date 2024-10-24 15:21:26*
%MOMM*%
%LPD*%
G01*
G04 APERTURE LIST*
G04 Aperture macros list*
%AMRoundRect*
0 Rectangle with rounded corners*
0 $1 Rounding radius*
0 $2 $3 $4 $5 $6 $7 $8 $9 X,Y pos of 4 corners*
0 Add a 4 corners polygon primitive as box body*
4,1,4,$2,$3,$4,$5,$6,$7,$8,$9,$2,$3,0*
0 Add four circle primitives for the rounded corners*
1,1,$1+$1,$2,$3*
1,1,$1+$1,$4,$5*
1,1,$1+$1,$6,$7*
1,1,$1+$1,$8,$9*
0 Add four rect primitives between the rounded corners*
20,1,$1+$1,$2,$3,$4,$5,0*
20,1,$1+$1,$4,$5,$6,$7,0*
20,1,$1+$1,$6,$7,$8,$9,0*
20,1,$1+$1,$8,$9,$2,$3,0*%
G04 Aperture macros list end*
%ADD10RoundRect,0.050800X-0.762000X-0.635000X0.762000X-0.635000X0.762000X0.635000X-0.762000X0.635000X0*%
%ADD11C,1.254000*%
%ADD12RoundRect,0.050800X0.250000X0.275000X-0.250000X0.275000X-0.250000X-0.275000X0.250000X-0.275000X0*%
%ADD13RoundRect,0.050800X-0.250000X-0.275000X0.250000X-0.275000X0.250000X0.275000X-0.250000X0.275000X0*%
%ADD14RoundRect,0.050800X0.508000X-0.508000X0.508000X0.508000X-0.508000X0.508000X-0.508000X-0.508000X0*%
%ADD15RoundRect,0.050800X0.275000X-0.600000X0.275000X0.600000X-0.275000X0.600000X-0.275000X-0.600000X0*%
%ADD16RoundRect,0.050800X-0.400000X-0.400000X0.400000X-0.400000X0.400000X0.400000X-0.400000X0.400000X0*%
%ADD17RoundRect,0.050800X0.400000X-0.400000X0.400000X0.400000X-0.400000X0.400000X-0.400000X-0.400000X0*%
%ADD18RoundRect,0.050800X-1.500000X0.800000X-1.500000X-0.800000X1.500000X-0.800000X1.500000X0.800000X0*%
%ADD19RoundRect,0.050800X-0.508000X-0.508000X0.508000X-0.508000X0.508000X0.508000X-0.508000X0.508000X0*%
%ADD20RoundRect,0.050800X0.762000X0.635000X-0.762000X0.635000X-0.762000X-0.635000X0.762000X-0.635000X0*%
%ADD21RoundRect,0.050800X0.700000X0.500000X-0.700000X0.500000X-0.700000X-0.500000X0.700000X-0.500000X0*%
%ADD22RoundRect,0.050800X-0.700000X-0.500000X0.700000X-0.500000X0.700000X0.500000X-0.700000X0.500000X0*%
%ADD23RoundRect,0.050800X-0.275000X0.250000X-0.275000X-0.250000X0.275000X-0.250000X0.275000X0.250000X0*%
%ADD24RoundRect,0.050800X0.275000X-0.250000X0.275000X0.250000X-0.275000X0.250000X-0.275000X-0.250000X0*%
%ADD25RoundRect,0.050800X-0.162500X-0.635000X0.162500X-0.635000X0.162500X0.635000X-0.162500X0.635000X0*%
%ADD26RoundRect,0.050800X-0.600000X0.700000X-0.600000X-0.700000X0.600000X-0.700000X0.600000X0.700000X0*%
%ADD27RoundRect,0.050800X0.700000X-0.500000X0.700000X0.500000X-0.700000X0.500000X-0.700000X-0.500000X0*%
%ADD28RoundRect,0.050800X-0.500000X-0.700000X0.500000X-0.700000X0.500000X0.700000X-0.500000X0.700000X0*%
%ADD29RoundRect,0.050800X0.500000X0.700000X-0.500000X0.700000X-0.500000X-0.700000X0.500000X-0.700000X0*%
%ADD30RoundRect,0.050800X-1.714151X0.330200X-1.714151X-0.330200X1.714151X-0.330200X1.714151X0.330200X0*%
%ADD31RoundRect,0.050800X-1.714151X0.292100X-1.714151X-0.292100X1.714151X-0.292100X1.714151X0.292100X0*%
%ADD32RoundRect,0.050800X-0.700000X0.700000X-0.700000X-0.700000X0.700000X-0.700000X0.700000X0.700000X0*%
%ADD33C,1.501600*%
%ADD34RoundRect,0.050800X0.355600X-0.495300X0.355600X0.495300X-0.355600X0.495300X-0.355600X-0.495300X0*%
%ADD35RoundRect,0.185800X-0.135000X-0.185000X0.135000X-0.185000X0.135000X0.185000X-0.135000X0.185000X0*%
%ADD36RoundRect,0.050800X-0.150000X-0.350000X0.150000X-0.350000X0.150000X0.350000X-0.150000X0.350000X0*%
%ADD37RoundRect,0.050800X-0.325000X-0.350000X0.325000X-0.350000X0.325000X0.350000X-0.325000X0.350000X0*%
%ADD38C,2.201600*%
%ADD39C,2.701600*%
%ADD40RoundRect,0.050800X0.279400X-1.460500X0.279400X1.460500X-0.279400X1.460500X-0.279400X-1.460500X0*%
%ADD41RoundRect,0.050800X0.546100X-0.520700X0.546100X0.520700X-0.546100X0.520700X-0.546100X-0.520700X0*%
%ADD42RoundRect,0.050800X0.596900X-0.520700X0.596900X0.520700X-0.596900X0.520700X-0.596900X-0.520700X0*%
%ADD43RoundRect,0.050800X1.193800X-0.520700X1.193800X0.520700X-1.193800X0.520700X-1.193800X-0.520700X0*%
%ADD44RoundRect,0.050800X0.495300X-0.254000X0.495300X0.254000X-0.495300X0.254000X-0.495300X-0.254000X0*%
%ADD45RoundRect,0.050800X0.393700X-0.355600X0.393700X0.355600X-0.393700X0.355600X-0.393700X-0.355600X0*%
%ADD46RoundRect,0.102000X-0.550000X0.550000X-0.550000X-0.550000X0.550000X-0.550000X0.550000X0.550000X0*%
%ADD47C,1.304000*%
%ADD48C,1.601600*%
G04 APERTURE END LIST*
D10*
X77571600Y-134874000D03*
X79603600Y-134874000D03*
D11*
X76555600Y-132283200D03*
D12*
X77266800Y-137972800D03*
D13*
X78282800Y-137972800D03*
D14*
X78892400Y-151942800D03*
X78892400Y-150164800D03*
D15*
X75626000Y-148102800D03*
X74676000Y-148102800D03*
X73726000Y-148102800D03*
X73726000Y-150702800D03*
X75626000Y-150702800D03*
D13*
X79349600Y-153822400D03*
D12*
X78333600Y-153822400D03*
D16*
X76441300Y-152425400D03*
X74917300Y-152425400D03*
D17*
X76504800Y-154279600D03*
X76504800Y-155803600D03*
D12*
X78333600Y-155346400D03*
D13*
X79349600Y-155346400D03*
D11*
X83312000Y-160934400D03*
D18*
X82245200Y-152838000D03*
X82245200Y-150438000D03*
D19*
X96469200Y-138785600D03*
X98247200Y-138785600D03*
D20*
X83515200Y-155752800D03*
X81483200Y-155752800D03*
D19*
X96443800Y-152095200D03*
X98221800Y-152095200D03*
D21*
X96367600Y-134975600D03*
X96367600Y-136878060D03*
X98577400Y-135923020D03*
D13*
X94945200Y-137769600D03*
D12*
X93929200Y-137769600D03*
D13*
X93980000Y-139598400D03*
D12*
X92964000Y-139598400D03*
D22*
X96916240Y-145831560D03*
X96916240Y-143929100D03*
X94706440Y-144884140D03*
D21*
X89773760Y-137327640D03*
X89773760Y-139230100D03*
X91983560Y-138275060D03*
D12*
X77266800Y-136652000D03*
D13*
X78282800Y-136652000D03*
D23*
X86106000Y-143002000D03*
D24*
X86106000Y-141986000D03*
D13*
X95961200Y-141173200D03*
D12*
X94945200Y-141173200D03*
D25*
X87905400Y-154190700D03*
X88555400Y-154190700D03*
X89205400Y-154190700D03*
X89855400Y-154190700D03*
X90505400Y-154190700D03*
X91155400Y-154190700D03*
X91805400Y-154190700D03*
X92455400Y-154190700D03*
X93105400Y-154190700D03*
X93755400Y-154190700D03*
X93755400Y-146951700D03*
X93105400Y-146951700D03*
X92455400Y-146951700D03*
X91805400Y-146951700D03*
X91155400Y-146951700D03*
X90505400Y-146951700D03*
X89855400Y-146951700D03*
X89205400Y-146951700D03*
X88555400Y-146951700D03*
X87905400Y-146951700D03*
D26*
X95859600Y-147832800D03*
X97459600Y-150032800D03*
X97459600Y-147832800D03*
X95859600Y-150032800D03*
D27*
X85140800Y-152542400D03*
X85140800Y-148742400D03*
D28*
X81513600Y-146507200D03*
X85313600Y-146507200D03*
X90078400Y-135280400D03*
X93878400Y-135280400D03*
D29*
X83688000Y-158242000D03*
X79888000Y-158242000D03*
D20*
X79603600Y-132638800D03*
X79603600Y-130606800D03*
D30*
X82429002Y-135877300D03*
X87128700Y-135877300D03*
X82429002Y-137147300D03*
X87128700Y-137147300D03*
X82429002Y-138417300D03*
X87128700Y-138417300D03*
D31*
X82429002Y-139649200D03*
D30*
X87128700Y-139687300D03*
X82429002Y-140957300D03*
X87128700Y-140957300D03*
D23*
X77063600Y-150825200D03*
D24*
X77063600Y-149809200D03*
D23*
X75844400Y-137668000D03*
D24*
X75844400Y-136652000D03*
D32*
X74389520Y-143148050D03*
D33*
X74392060Y-145177510D03*
D34*
X101845801Y-156428001D03*
X101845801Y-151927999D03*
X103995799Y-156428001D03*
X103995799Y-151927999D03*
D35*
X98753200Y-153162000D03*
X99773200Y-153162000D03*
D36*
X87576400Y-156179400D03*
X88076400Y-156179400D03*
X88576400Y-156179400D03*
X89076400Y-156179400D03*
X89576400Y-156179400D03*
X90076400Y-156179400D03*
X91076400Y-156179400D03*
X91576400Y-156179400D03*
X92076400Y-156179400D03*
X92576400Y-156179400D03*
X93076400Y-156179400D03*
X93576400Y-156179400D03*
D37*
X93501400Y-157479400D03*
D36*
X92826400Y-157479400D03*
X92326400Y-157479400D03*
X91826400Y-157479400D03*
X91326400Y-157479400D03*
X90826400Y-157479400D03*
X90326400Y-157479400D03*
X89826400Y-157479400D03*
X89326400Y-157479400D03*
X88826400Y-157479400D03*
X88326400Y-157479400D03*
D37*
X87651400Y-157479400D03*
D38*
X86256400Y-156589400D03*
D39*
X86256400Y-161949400D03*
D38*
X94896400Y-156589400D03*
D39*
X94896400Y-161949400D03*
D40*
X99863900Y-146417000D03*
X99863900Y-142227000D03*
D41*
X103148900Y-138946999D03*
D42*
X100538900Y-138946999D03*
X101108901Y-149596965D03*
D43*
X104293901Y-149597001D03*
D44*
X107098899Y-140721999D03*
X107098899Y-141822000D03*
X107098899Y-142922000D03*
X107098899Y-144022000D03*
X107098899Y-145122001D03*
X107098899Y-146222001D03*
X107098899Y-147322002D03*
X107098899Y-148421999D03*
D45*
X104418900Y-138962000D03*
D34*
X97621202Y-159033602D03*
X97621202Y-154533600D03*
X99771200Y-159033602D03*
X99771200Y-154533600D03*
D46*
X77927200Y-147218400D03*
D47*
X79197200Y-147218400D03*
X77927200Y-145948400D03*
X79197200Y-145948400D03*
X77927200Y-144678400D03*
X79197200Y-144678400D03*
X77927200Y-143408400D03*
X79197200Y-143408400D03*
X77927200Y-142138400D03*
X79197200Y-142138400D03*
X77927200Y-140868400D03*
X79197200Y-140868400D03*
D48*
X91888000Y-142420000D03*
D46*
X102920800Y-147218400D03*
D47*
X101650800Y-147218400D03*
X102920800Y-145948400D03*
X101650800Y-145948400D03*
X102920800Y-144678400D03*
X101650800Y-144678400D03*
X102920800Y-143408400D03*
X101650800Y-143408400D03*
X102920800Y-142138400D03*
X101650800Y-142138400D03*
X102920800Y-140868400D03*
X101650800Y-140868400D03*
M02*
