%TF.GenerationSoftware,KiCad,Pcbnew,8.0.8*%
%TF.CreationDate,2025-02-18T00:43:55-08:00*%
%TF.ProjectId,OuterBoard_rev3.1,4f757465-7242-46f6-9172-645f72657633,rev?*%
%TF.SameCoordinates,Original*%
%TF.FileFunction,Soldermask,Bot*%
%TF.FilePolarity,Negative*%
%FSLAX46Y46*%
G04 Gerber Fmt 4.6, Leading zero omitted, Abs format (unit mm)*
G04 Created by KiCad (PCBNEW 8.0.8) date 2025-02-18 00:43:55*
%MOMM*%
%LPD*%
G01*
G04 APERTURE LIST*
G04 Aperture macros list*
%AMRoundRect*
0 Rectangle with rounded corners*
0 $1 Rounding radius*
0 $2 $3 $4 $5 $6 $7 $8 $9 X,Y pos of 4 corners*
0 Add a 4 corners polygon primitive as box body*
4,1,4,$2,$3,$4,$5,$6,$7,$8,$9,$2,$3,0*
0 Add four circle primitives for the rounded corners*
1,1,$1+$1,$2,$3*
1,1,$1+$1,$4,$5*
1,1,$1+$1,$6,$7*
1,1,$1+$1,$8,$9*
0 Add four rect primitives between the rounded corners*
20,1,$1+$1,$2,$3,$4,$5,0*
20,1,$1+$1,$4,$5,$6,$7,0*
20,1,$1+$1,$6,$7,$8,$9,0*
20,1,$1+$1,$8,$9,$2,$3,0*%
G04 Aperture macros list end*
%ADD10C,1.854000*%
%ADD11C,0.650000*%
%ADD12C,0.904000*%
%ADD13O,1.204000X2.204000*%
%ADD14C,2.100000*%
%ADD15R,2.000000X2.000000*%
%ADD16R,0.850000X0.850000*%
%ADD17C,0.850000*%
%ADD18RoundRect,0.225000X-0.250000X0.225000X-0.250000X-0.225000X0.250000X-0.225000X0.250000X0.225000X0*%
%ADD19RoundRect,0.225000X0.225000X0.250000X-0.225000X0.250000X-0.225000X-0.250000X0.225000X-0.250000X0*%
%ADD20R,1.549400X0.558800*%
%ADD21R,1.117600X1.803400*%
%ADD22RoundRect,0.250000X-0.250000X-0.475000X0.250000X-0.475000X0.250000X0.475000X-0.250000X0.475000X0*%
%ADD23RoundRect,0.150000X0.512500X0.150000X-0.512500X0.150000X-0.512500X-0.150000X0.512500X-0.150000X0*%
%ADD24RoundRect,0.250000X1.000000X0.650000X-1.000000X0.650000X-1.000000X-0.650000X1.000000X-0.650000X0*%
%ADD25RoundRect,0.218750X-0.256250X0.218750X-0.256250X-0.218750X0.256250X-0.218750X0.256250X0.218750X0*%
%ADD26RoundRect,0.135000X-0.185000X0.135000X-0.185000X-0.135000X0.185000X-0.135000X0.185000X0.135000X0*%
%ADD27RoundRect,0.147500X0.172500X-0.147500X0.172500X0.147500X-0.172500X0.147500X-0.172500X-0.147500X0*%
%ADD28RoundRect,0.150000X-0.512500X-0.150000X0.512500X-0.150000X0.512500X0.150000X-0.512500X0.150000X0*%
%ADD29RoundRect,0.125000X-0.125000X-0.125000X0.125000X-0.125000X0.125000X0.125000X-0.125000X0.125000X0*%
%ADD30RoundRect,0.135000X0.135000X0.185000X-0.135000X0.185000X-0.135000X-0.185000X0.135000X-0.185000X0*%
%ADD31RoundRect,0.150000X0.587500X0.150000X-0.587500X0.150000X-0.587500X-0.150000X0.587500X-0.150000X0*%
%ADD32RoundRect,0.140000X0.170000X-0.140000X0.170000X0.140000X-0.170000X0.140000X-0.170000X-0.140000X0*%
%ADD33RoundRect,0.135000X0.185000X-0.135000X0.185000X0.135000X-0.185000X0.135000X-0.185000X-0.135000X0*%
%ADD34RoundRect,0.125000X-0.125000X0.125000X-0.125000X-0.125000X0.125000X-0.125000X0.125000X0.125000X0*%
G04 APERTURE END LIST*
D10*
%TO.C,J2*%
X115620800Y-104013000D03*
X118160800Y-104013000D03*
X120700800Y-104013000D03*
X123240800Y-104013000D03*
X125780800Y-104013000D03*
X128320800Y-104013000D03*
%TD*%
D11*
%TO.C,J42*%
X132203400Y-100203000D03*
X139653400Y-100203000D03*
D12*
X138978400Y-99503000D03*
X138328400Y-100203000D03*
X137528400Y-100203000D03*
X137128400Y-99503000D03*
X136728400Y-100203000D03*
X136328400Y-99503000D03*
X135528400Y-99503000D03*
X135128400Y-100203000D03*
X134728400Y-99503000D03*
X134328400Y-100203000D03*
X133528400Y-100203000D03*
X132878400Y-99503000D03*
D13*
X131428400Y-98703000D03*
X140428400Y-98703000D03*
X131428400Y-104303000D03*
X140428400Y-104303000D03*
%TD*%
D14*
%TO.C,H1*%
X110693200Y-102489000D03*
%TD*%
%TO.C,H2*%
X157149800Y-78282800D03*
%TD*%
D15*
%TO.C,TP1*%
X109728000Y-80137000D03*
%TD*%
D16*
%TO.C,J3*%
X119837200Y-77800200D03*
D17*
X118587200Y-77800200D03*
%TD*%
D16*
%TO.C,J4*%
X128117600Y-77749400D03*
D17*
X126867600Y-77749400D03*
%TD*%
D15*
%TO.C,TP2*%
X111683800Y-76962000D03*
%TD*%
D10*
%TO.C,J1*%
X109524800Y-96113600D03*
X109524800Y-93573600D03*
X109524800Y-91033600D03*
X109524800Y-88493600D03*
X109524800Y-85953600D03*
X109524800Y-83413600D03*
%TD*%
D18*
%TO.C,C16*%
X122453400Y-87093800D03*
X122453400Y-88643800D03*
%TD*%
%TO.C,C27*%
X122301000Y-90728800D03*
X122301000Y-92278800D03*
%TD*%
D19*
%TO.C,C12*%
X147244400Y-90627200D03*
X145694400Y-90627200D03*
%TD*%
D20*
%TO.C,U2*%
X135432900Y-91643200D03*
X135432900Y-92913200D03*
X135432900Y-94183200D03*
X135432900Y-95453200D03*
X128168500Y-95453200D03*
X128168500Y-94183200D03*
X128168500Y-92913200D03*
X128168500Y-91643200D03*
%TD*%
D18*
%TO.C,C7*%
X121183400Y-83235800D03*
X121183400Y-84785800D03*
%TD*%
D21*
%TO.C,F1*%
X113004600Y-100152200D03*
X116001800Y-100152200D03*
%TD*%
D18*
%TO.C,C24*%
X120700800Y-94411800D03*
X120700800Y-95961800D03*
%TD*%
%TO.C,C20*%
X113334800Y-90703400D03*
X113334800Y-92253400D03*
%TD*%
%TO.C,C21*%
X114833400Y-94411800D03*
X114833400Y-95961800D03*
%TD*%
D22*
%TO.C,FB1*%
X145973800Y-88163400D03*
X147873800Y-88163400D03*
%TD*%
D23*
%TO.C,U3*%
X118688700Y-79618800D03*
X118688700Y-80568800D03*
X118688700Y-81518800D03*
X116413700Y-81518800D03*
X116413700Y-79618800D03*
%TD*%
D18*
%TO.C,C11*%
X113131600Y-87043000D03*
X113131600Y-88593000D03*
%TD*%
D19*
%TO.C,C8*%
X115874800Y-83159600D03*
X114324800Y-83159600D03*
%TD*%
D24*
%TO.C,D7*%
X149142200Y-84937600D03*
X145142200Y-84937600D03*
%TD*%
D25*
%TO.C,D13*%
X112445800Y-79705100D03*
X112445800Y-81280100D03*
%TD*%
D26*
%TO.C,R25*%
X112903000Y-82651600D03*
X112903000Y-83671600D03*
%TD*%
D27*
%TO.C,L2*%
X131775200Y-87988000D03*
X131775200Y-87018000D03*
%TD*%
D19*
%TO.C,C14*%
X149199600Y-92481400D03*
X147649600Y-92481400D03*
%TD*%
D28*
%TO.C,U4*%
X116636800Y-88793400D03*
X116636800Y-87843400D03*
X116636800Y-86893400D03*
X118911800Y-86893400D03*
X118911800Y-88793400D03*
%TD*%
D19*
%TO.C,C4*%
X119100600Y-83159600D03*
X117550600Y-83159600D03*
%TD*%
D18*
%TO.C,C26*%
X122326400Y-94411800D03*
X122326400Y-95961800D03*
%TD*%
D29*
%TO.C,D11*%
X116459000Y-85013800D03*
X118659000Y-85013800D03*
%TD*%
D26*
%TO.C,R4*%
X114249200Y-80058800D03*
X114249200Y-81078800D03*
%TD*%
D30*
%TO.C,R5*%
X148742400Y-94183200D03*
X147722400Y-94183200D03*
%TD*%
D31*
%TO.C,U6*%
X118745000Y-90576400D03*
X118745000Y-92476400D03*
X116870000Y-91526400D03*
%TD*%
D18*
%TO.C,C25*%
X120650000Y-90728800D03*
X120650000Y-92278800D03*
%TD*%
D32*
%TO.C,C2*%
X119862600Y-85468400D03*
X119862600Y-84508400D03*
%TD*%
D18*
%TO.C,C22*%
X114985800Y-90703400D03*
X114985800Y-92253400D03*
%TD*%
%TO.C,C38*%
X130327400Y-87020400D03*
X130327400Y-88570400D03*
%TD*%
D29*
%TO.C,D10*%
X112946000Y-85191600D03*
X115146000Y-85191600D03*
%TD*%
D18*
%TO.C,C44*%
X126009400Y-91782600D03*
X126009400Y-93332600D03*
%TD*%
D28*
%TO.C,U5*%
X116647800Y-96134000D03*
X116647800Y-95184000D03*
X116647800Y-94234000D03*
X118922800Y-94234000D03*
X118922800Y-96134000D03*
%TD*%
D18*
%TO.C,C10*%
X114757200Y-87045800D03*
X114757200Y-88595800D03*
%TD*%
D33*
%TO.C,R1*%
X131267200Y-84888800D03*
X131267200Y-83868800D03*
%TD*%
D18*
%TO.C,C3*%
X122885200Y-83235800D03*
X122885200Y-84785800D03*
%TD*%
%TO.C,C19*%
X113233200Y-94411800D03*
X113233200Y-95961800D03*
%TD*%
%TO.C,C13*%
X120802400Y-87096600D03*
X120802400Y-88646600D03*
%TD*%
D34*
%TO.C,D6*%
X120954800Y-79400400D03*
X120954800Y-81600400D03*
%TD*%
D28*
%TO.C,U1*%
X126796800Y-84551600D03*
X126796800Y-83601600D03*
X126796800Y-82651600D03*
X129071800Y-82651600D03*
X129071800Y-84551600D03*
%TD*%
M02*
