%TF.GenerationSoftware,KiCad,Pcbnew,8.0.8*%
%TF.CreationDate,2025-02-18T00:43:55-08:00*%
%TF.ProjectId,OuterBoard_rev3.1,4f757465-7242-46f6-9172-645f72657633,rev?*%
%TF.SameCoordinates,Original*%
%TF.FileFunction,Legend,Top*%
%TF.FilePolarity,Positive*%
%FSLAX46Y46*%
G04 Gerber Fmt 4.6, Leading zero omitted, Abs format (unit mm)*
G04 Created by KiCad (PCBNEW 8.0.8) date 2025-02-18 00:43:55*
%MOMM*%
%LPD*%
G01*
G04 APERTURE LIST*
%ADD10C,0.150000*%
%ADD11C,0.120000*%
%ADD12C,0.200000*%
%ADD13C,0.127000*%
%ADD14C,0.304800*%
%ADD15C,0.152400*%
%ADD16C,0.508000*%
G04 APERTURE END LIST*
D10*
X137596342Y-81606580D02*
X137548723Y-81654200D01*
X137548723Y-81654200D02*
X137405866Y-81701819D01*
X137405866Y-81701819D02*
X137310628Y-81701819D01*
X137310628Y-81701819D02*
X137167771Y-81654200D01*
X137167771Y-81654200D02*
X137072533Y-81558961D01*
X137072533Y-81558961D02*
X137024914Y-81463723D01*
X137024914Y-81463723D02*
X136977295Y-81273247D01*
X136977295Y-81273247D02*
X136977295Y-81130390D01*
X136977295Y-81130390D02*
X137024914Y-80939914D01*
X137024914Y-80939914D02*
X137072533Y-80844676D01*
X137072533Y-80844676D02*
X137167771Y-80749438D01*
X137167771Y-80749438D02*
X137310628Y-80701819D01*
X137310628Y-80701819D02*
X137405866Y-80701819D01*
X137405866Y-80701819D02*
X137548723Y-80749438D01*
X137548723Y-80749438D02*
X137596342Y-80797057D01*
X137929676Y-80701819D02*
X138548723Y-80701819D01*
X138548723Y-80701819D02*
X138215390Y-81082771D01*
X138215390Y-81082771D02*
X138358247Y-81082771D01*
X138358247Y-81082771D02*
X138453485Y-81130390D01*
X138453485Y-81130390D02*
X138501104Y-81178009D01*
X138501104Y-81178009D02*
X138548723Y-81273247D01*
X138548723Y-81273247D02*
X138548723Y-81511342D01*
X138548723Y-81511342D02*
X138501104Y-81606580D01*
X138501104Y-81606580D02*
X138453485Y-81654200D01*
X138453485Y-81654200D02*
X138358247Y-81701819D01*
X138358247Y-81701819D02*
X138072533Y-81701819D01*
X138072533Y-81701819D02*
X137977295Y-81654200D01*
X137977295Y-81654200D02*
X137929676Y-81606580D01*
X138929676Y-80797057D02*
X138977295Y-80749438D01*
X138977295Y-80749438D02*
X139072533Y-80701819D01*
X139072533Y-80701819D02*
X139310628Y-80701819D01*
X139310628Y-80701819D02*
X139405866Y-80749438D01*
X139405866Y-80749438D02*
X139453485Y-80797057D01*
X139453485Y-80797057D02*
X139501104Y-80892295D01*
X139501104Y-80892295D02*
X139501104Y-80987533D01*
X139501104Y-80987533D02*
X139453485Y-81130390D01*
X139453485Y-81130390D02*
X138882057Y-81701819D01*
X138882057Y-81701819D02*
X139501104Y-81701819D01*
X114442267Y-101400676D02*
X114442267Y-101857819D01*
X114442267Y-101857819D02*
X114411790Y-101949247D01*
X114411790Y-101949247D02*
X114350838Y-102010200D01*
X114350838Y-102010200D02*
X114259409Y-102040676D01*
X114259409Y-102040676D02*
X114198457Y-102040676D01*
X114716552Y-101461628D02*
X114747028Y-101431152D01*
X114747028Y-101431152D02*
X114807981Y-101400676D01*
X114807981Y-101400676D02*
X114960362Y-101400676D01*
X114960362Y-101400676D02*
X115021314Y-101431152D01*
X115021314Y-101431152D02*
X115051790Y-101461628D01*
X115051790Y-101461628D02*
X115082267Y-101522580D01*
X115082267Y-101522580D02*
X115082267Y-101583533D01*
X115082267Y-101583533D02*
X115051790Y-101674961D01*
X115051790Y-101674961D02*
X114686076Y-102040676D01*
X114686076Y-102040676D02*
X115082267Y-102040676D01*
X136440942Y-91153980D02*
X136393323Y-91201600D01*
X136393323Y-91201600D02*
X136250466Y-91249219D01*
X136250466Y-91249219D02*
X136155228Y-91249219D01*
X136155228Y-91249219D02*
X136012371Y-91201600D01*
X136012371Y-91201600D02*
X135917133Y-91106361D01*
X135917133Y-91106361D02*
X135869514Y-91011123D01*
X135869514Y-91011123D02*
X135821895Y-90820647D01*
X135821895Y-90820647D02*
X135821895Y-90677790D01*
X135821895Y-90677790D02*
X135869514Y-90487314D01*
X135869514Y-90487314D02*
X135917133Y-90392076D01*
X135917133Y-90392076D02*
X136012371Y-90296838D01*
X136012371Y-90296838D02*
X136155228Y-90249219D01*
X136155228Y-90249219D02*
X136250466Y-90249219D01*
X136250466Y-90249219D02*
X136393323Y-90296838D01*
X136393323Y-90296838D02*
X136440942Y-90344457D01*
X137298085Y-90582552D02*
X137298085Y-91249219D01*
X137059990Y-90201600D02*
X136821895Y-90915885D01*
X136821895Y-90915885D02*
X137440942Y-90915885D01*
X137726657Y-90249219D02*
X138345704Y-90249219D01*
X138345704Y-90249219D02*
X138012371Y-90630171D01*
X138012371Y-90630171D02*
X138155228Y-90630171D01*
X138155228Y-90630171D02*
X138250466Y-90677790D01*
X138250466Y-90677790D02*
X138298085Y-90725409D01*
X138298085Y-90725409D02*
X138345704Y-90820647D01*
X138345704Y-90820647D02*
X138345704Y-91058742D01*
X138345704Y-91058742D02*
X138298085Y-91153980D01*
X138298085Y-91153980D02*
X138250466Y-91201600D01*
X138250466Y-91201600D02*
X138155228Y-91249219D01*
X138155228Y-91249219D02*
X137869514Y-91249219D01*
X137869514Y-91249219D02*
X137774276Y-91201600D01*
X137774276Y-91201600D02*
X137726657Y-91153980D01*
X144340342Y-98879819D02*
X144007009Y-98403628D01*
X143768914Y-98879819D02*
X143768914Y-97879819D01*
X143768914Y-97879819D02*
X144149866Y-97879819D01*
X144149866Y-97879819D02*
X144245104Y-97927438D01*
X144245104Y-97927438D02*
X144292723Y-97975057D01*
X144292723Y-97975057D02*
X144340342Y-98070295D01*
X144340342Y-98070295D02*
X144340342Y-98213152D01*
X144340342Y-98213152D02*
X144292723Y-98308390D01*
X144292723Y-98308390D02*
X144245104Y-98356009D01*
X144245104Y-98356009D02*
X144149866Y-98403628D01*
X144149866Y-98403628D02*
X143768914Y-98403628D01*
X145292723Y-98879819D02*
X144721295Y-98879819D01*
X145007009Y-98879819D02*
X145007009Y-97879819D01*
X145007009Y-97879819D02*
X144911771Y-98022676D01*
X144911771Y-98022676D02*
X144816533Y-98117914D01*
X144816533Y-98117914D02*
X144721295Y-98165533D01*
X145626057Y-97879819D02*
X146245104Y-97879819D01*
X146245104Y-97879819D02*
X145911771Y-98260771D01*
X145911771Y-98260771D02*
X146054628Y-98260771D01*
X146054628Y-98260771D02*
X146149866Y-98308390D01*
X146149866Y-98308390D02*
X146197485Y-98356009D01*
X146197485Y-98356009D02*
X146245104Y-98451247D01*
X146245104Y-98451247D02*
X146245104Y-98689342D01*
X146245104Y-98689342D02*
X146197485Y-98784580D01*
X146197485Y-98784580D02*
X146149866Y-98832200D01*
X146149866Y-98832200D02*
X146054628Y-98879819D01*
X146054628Y-98879819D02*
X145768914Y-98879819D01*
X145768914Y-98879819D02*
X145673676Y-98832200D01*
X145673676Y-98832200D02*
X145626057Y-98784580D01*
X143996580Y-85307466D02*
X144044200Y-85355085D01*
X144044200Y-85355085D02*
X144091819Y-85497942D01*
X144091819Y-85497942D02*
X144091819Y-85593180D01*
X144091819Y-85593180D02*
X144044200Y-85736037D01*
X144044200Y-85736037D02*
X143948961Y-85831275D01*
X143948961Y-85831275D02*
X143853723Y-85878894D01*
X143853723Y-85878894D02*
X143663247Y-85926513D01*
X143663247Y-85926513D02*
X143520390Y-85926513D01*
X143520390Y-85926513D02*
X143329914Y-85878894D01*
X143329914Y-85878894D02*
X143234676Y-85831275D01*
X143234676Y-85831275D02*
X143139438Y-85736037D01*
X143139438Y-85736037D02*
X143091819Y-85593180D01*
X143091819Y-85593180D02*
X143091819Y-85497942D01*
X143091819Y-85497942D02*
X143139438Y-85355085D01*
X143139438Y-85355085D02*
X143187057Y-85307466D01*
X144091819Y-84831275D02*
X144091819Y-84640799D01*
X144091819Y-84640799D02*
X144044200Y-84545561D01*
X144044200Y-84545561D02*
X143996580Y-84497942D01*
X143996580Y-84497942D02*
X143853723Y-84402704D01*
X143853723Y-84402704D02*
X143663247Y-84355085D01*
X143663247Y-84355085D02*
X143282295Y-84355085D01*
X143282295Y-84355085D02*
X143187057Y-84402704D01*
X143187057Y-84402704D02*
X143139438Y-84450323D01*
X143139438Y-84450323D02*
X143091819Y-84545561D01*
X143091819Y-84545561D02*
X143091819Y-84736037D01*
X143091819Y-84736037D02*
X143139438Y-84831275D01*
X143139438Y-84831275D02*
X143187057Y-84878894D01*
X143187057Y-84878894D02*
X143282295Y-84926513D01*
X143282295Y-84926513D02*
X143520390Y-84926513D01*
X143520390Y-84926513D02*
X143615628Y-84878894D01*
X143615628Y-84878894D02*
X143663247Y-84831275D01*
X143663247Y-84831275D02*
X143710866Y-84736037D01*
X143710866Y-84736037D02*
X143710866Y-84545561D01*
X143710866Y-84545561D02*
X143663247Y-84450323D01*
X143663247Y-84450323D02*
X143615628Y-84402704D01*
X143615628Y-84402704D02*
X143520390Y-84355085D01*
X118936580Y-86501093D02*
X118984200Y-86548712D01*
X118984200Y-86548712D02*
X119031819Y-86691569D01*
X119031819Y-86691569D02*
X119031819Y-86786807D01*
X119031819Y-86786807D02*
X118984200Y-86929664D01*
X118984200Y-86929664D02*
X118888961Y-87024902D01*
X118888961Y-87024902D02*
X118793723Y-87072521D01*
X118793723Y-87072521D02*
X118603247Y-87120140D01*
X118603247Y-87120140D02*
X118460390Y-87120140D01*
X118460390Y-87120140D02*
X118269914Y-87072521D01*
X118269914Y-87072521D02*
X118174676Y-87024902D01*
X118174676Y-87024902D02*
X118079438Y-86929664D01*
X118079438Y-86929664D02*
X118031819Y-86786807D01*
X118031819Y-86786807D02*
X118031819Y-86691569D01*
X118031819Y-86691569D02*
X118079438Y-86548712D01*
X118079438Y-86548712D02*
X118127057Y-86501093D01*
X118031819Y-86167759D02*
X118031819Y-85548712D01*
X118031819Y-85548712D02*
X118412771Y-85882045D01*
X118412771Y-85882045D02*
X118412771Y-85739188D01*
X118412771Y-85739188D02*
X118460390Y-85643950D01*
X118460390Y-85643950D02*
X118508009Y-85596331D01*
X118508009Y-85596331D02*
X118603247Y-85548712D01*
X118603247Y-85548712D02*
X118841342Y-85548712D01*
X118841342Y-85548712D02*
X118936580Y-85596331D01*
X118936580Y-85596331D02*
X118984200Y-85643950D01*
X118984200Y-85643950D02*
X119031819Y-85739188D01*
X119031819Y-85739188D02*
X119031819Y-86024902D01*
X119031819Y-86024902D02*
X118984200Y-86120140D01*
X118984200Y-86120140D02*
X118936580Y-86167759D01*
X119031819Y-84596331D02*
X119031819Y-85167759D01*
X119031819Y-84882045D02*
X118031819Y-84882045D01*
X118031819Y-84882045D02*
X118174676Y-84977283D01*
X118174676Y-84977283D02*
X118269914Y-85072521D01*
X118269914Y-85072521D02*
X118317533Y-85167759D01*
X125175180Y-88425257D02*
X125222800Y-88472876D01*
X125222800Y-88472876D02*
X125270419Y-88615733D01*
X125270419Y-88615733D02*
X125270419Y-88710971D01*
X125270419Y-88710971D02*
X125222800Y-88853828D01*
X125222800Y-88853828D02*
X125127561Y-88949066D01*
X125127561Y-88949066D02*
X125032323Y-88996685D01*
X125032323Y-88996685D02*
X124841847Y-89044304D01*
X124841847Y-89044304D02*
X124698990Y-89044304D01*
X124698990Y-89044304D02*
X124508514Y-88996685D01*
X124508514Y-88996685D02*
X124413276Y-88949066D01*
X124413276Y-88949066D02*
X124318038Y-88853828D01*
X124318038Y-88853828D02*
X124270419Y-88710971D01*
X124270419Y-88710971D02*
X124270419Y-88615733D01*
X124270419Y-88615733D02*
X124318038Y-88472876D01*
X124318038Y-88472876D02*
X124365657Y-88425257D01*
X124603752Y-87568114D02*
X125270419Y-87568114D01*
X124222800Y-87806209D02*
X124937085Y-88044304D01*
X124937085Y-88044304D02*
X124937085Y-87425257D01*
X124270419Y-86853828D02*
X124270419Y-86758590D01*
X124270419Y-86758590D02*
X124318038Y-86663352D01*
X124318038Y-86663352D02*
X124365657Y-86615733D01*
X124365657Y-86615733D02*
X124460895Y-86568114D01*
X124460895Y-86568114D02*
X124651371Y-86520495D01*
X124651371Y-86520495D02*
X124889466Y-86520495D01*
X124889466Y-86520495D02*
X125079942Y-86568114D01*
X125079942Y-86568114D02*
X125175180Y-86615733D01*
X125175180Y-86615733D02*
X125222800Y-86663352D01*
X125222800Y-86663352D02*
X125270419Y-86758590D01*
X125270419Y-86758590D02*
X125270419Y-86853828D01*
X125270419Y-86853828D02*
X125222800Y-86949066D01*
X125222800Y-86949066D02*
X125175180Y-86996685D01*
X125175180Y-86996685D02*
X125079942Y-87044304D01*
X125079942Y-87044304D02*
X124889466Y-87091923D01*
X124889466Y-87091923D02*
X124651371Y-87091923D01*
X124651371Y-87091923D02*
X124460895Y-87044304D01*
X124460895Y-87044304D02*
X124365657Y-86996685D01*
X124365657Y-86996685D02*
X124318038Y-86949066D01*
X124318038Y-86949066D02*
X124270419Y-86853828D01*
X132917961Y-76356523D02*
X133298914Y-76356523D01*
X132841771Y-76585095D02*
X133108438Y-75785095D01*
X133108438Y-75785095D02*
X133375104Y-76585095D01*
X133641771Y-76585095D02*
X133641771Y-75785095D01*
X133641771Y-75785095D02*
X134098914Y-76585095D01*
X134098914Y-76585095D02*
X134098914Y-75785095D01*
X134365580Y-75785095D02*
X134822723Y-75785095D01*
X134594151Y-76585095D02*
X134594151Y-75785095D01*
X135508437Y-76585095D02*
X135051294Y-76585095D01*
X135279866Y-76585095D02*
X135279866Y-75785095D01*
X135279866Y-75785095D02*
X135203675Y-75899380D01*
X135203675Y-75899380D02*
X135127485Y-75975571D01*
X135127485Y-75975571D02*
X135051294Y-76013666D01*
X122922180Y-88562457D02*
X122969800Y-88610076D01*
X122969800Y-88610076D02*
X123017419Y-88752933D01*
X123017419Y-88752933D02*
X123017419Y-88848171D01*
X123017419Y-88848171D02*
X122969800Y-88991028D01*
X122969800Y-88991028D02*
X122874561Y-89086266D01*
X122874561Y-89086266D02*
X122779323Y-89133885D01*
X122779323Y-89133885D02*
X122588847Y-89181504D01*
X122588847Y-89181504D02*
X122445990Y-89181504D01*
X122445990Y-89181504D02*
X122255514Y-89133885D01*
X122255514Y-89133885D02*
X122160276Y-89086266D01*
X122160276Y-89086266D02*
X122065038Y-88991028D01*
X122065038Y-88991028D02*
X122017419Y-88848171D01*
X122017419Y-88848171D02*
X122017419Y-88752933D01*
X122017419Y-88752933D02*
X122065038Y-88610076D01*
X122065038Y-88610076D02*
X122112657Y-88562457D01*
X122017419Y-88229123D02*
X122017419Y-87610076D01*
X122017419Y-87610076D02*
X122398371Y-87943409D01*
X122398371Y-87943409D02*
X122398371Y-87800552D01*
X122398371Y-87800552D02*
X122445990Y-87705314D01*
X122445990Y-87705314D02*
X122493609Y-87657695D01*
X122493609Y-87657695D02*
X122588847Y-87610076D01*
X122588847Y-87610076D02*
X122826942Y-87610076D01*
X122826942Y-87610076D02*
X122922180Y-87657695D01*
X122922180Y-87657695D02*
X122969800Y-87705314D01*
X122969800Y-87705314D02*
X123017419Y-87800552D01*
X123017419Y-87800552D02*
X123017419Y-88086266D01*
X123017419Y-88086266D02*
X122969800Y-88181504D01*
X122969800Y-88181504D02*
X122922180Y-88229123D01*
X123017419Y-87133885D02*
X123017419Y-86943409D01*
X123017419Y-86943409D02*
X122969800Y-86848171D01*
X122969800Y-86848171D02*
X122922180Y-86800552D01*
X122922180Y-86800552D02*
X122779323Y-86705314D01*
X122779323Y-86705314D02*
X122588847Y-86657695D01*
X122588847Y-86657695D02*
X122207895Y-86657695D01*
X122207895Y-86657695D02*
X122112657Y-86705314D01*
X122112657Y-86705314D02*
X122065038Y-86752933D01*
X122065038Y-86752933D02*
X122017419Y-86848171D01*
X122017419Y-86848171D02*
X122017419Y-87038647D01*
X122017419Y-87038647D02*
X122065038Y-87133885D01*
X122065038Y-87133885D02*
X122112657Y-87181504D01*
X122112657Y-87181504D02*
X122207895Y-87229123D01*
X122207895Y-87229123D02*
X122445990Y-87229123D01*
X122445990Y-87229123D02*
X122541228Y-87181504D01*
X122541228Y-87181504D02*
X122588847Y-87133885D01*
X122588847Y-87133885D02*
X122636466Y-87038647D01*
X122636466Y-87038647D02*
X122636466Y-86848171D01*
X122636466Y-86848171D02*
X122588847Y-86752933D01*
X122588847Y-86752933D02*
X122541228Y-86705314D01*
X122541228Y-86705314D02*
X122445990Y-86657695D01*
X131544402Y-102091719D02*
X131544402Y-102541893D01*
X131544402Y-102541893D02*
X131514391Y-102631928D01*
X131514391Y-102631928D02*
X131454367Y-102691952D01*
X131454367Y-102691952D02*
X131364333Y-102721963D01*
X131364333Y-102721963D02*
X131304309Y-102721963D01*
X132114623Y-102301800D02*
X132114623Y-102721963D01*
X131964565Y-102061708D02*
X131814507Y-102511882D01*
X131814507Y-102511882D02*
X132204658Y-102511882D01*
X132414739Y-102151742D02*
X132444751Y-102121731D01*
X132444751Y-102121731D02*
X132504774Y-102091719D01*
X132504774Y-102091719D02*
X132654832Y-102091719D01*
X132654832Y-102091719D02*
X132714855Y-102121731D01*
X132714855Y-102121731D02*
X132744867Y-102151742D01*
X132744867Y-102151742D02*
X132774878Y-102211766D01*
X132774878Y-102211766D02*
X132774878Y-102271789D01*
X132774878Y-102271789D02*
X132744867Y-102361824D01*
X132744867Y-102361824D02*
X132384727Y-102721963D01*
X132384727Y-102721963D02*
X132774878Y-102721963D01*
X128617742Y-101064219D02*
X128284409Y-100588028D01*
X128046314Y-101064219D02*
X128046314Y-100064219D01*
X128046314Y-100064219D02*
X128427266Y-100064219D01*
X128427266Y-100064219D02*
X128522504Y-100111838D01*
X128522504Y-100111838D02*
X128570123Y-100159457D01*
X128570123Y-100159457D02*
X128617742Y-100254695D01*
X128617742Y-100254695D02*
X128617742Y-100397552D01*
X128617742Y-100397552D02*
X128570123Y-100492790D01*
X128570123Y-100492790D02*
X128522504Y-100540409D01*
X128522504Y-100540409D02*
X128427266Y-100588028D01*
X128427266Y-100588028D02*
X128046314Y-100588028D01*
X128998695Y-100159457D02*
X129046314Y-100111838D01*
X129046314Y-100111838D02*
X129141552Y-100064219D01*
X129141552Y-100064219D02*
X129379647Y-100064219D01*
X129379647Y-100064219D02*
X129474885Y-100111838D01*
X129474885Y-100111838D02*
X129522504Y-100159457D01*
X129522504Y-100159457D02*
X129570123Y-100254695D01*
X129570123Y-100254695D02*
X129570123Y-100349933D01*
X129570123Y-100349933D02*
X129522504Y-100492790D01*
X129522504Y-100492790D02*
X128951076Y-101064219D01*
X128951076Y-101064219D02*
X129570123Y-101064219D01*
X130522504Y-101064219D02*
X129951076Y-101064219D01*
X130236790Y-101064219D02*
X130236790Y-100064219D01*
X130236790Y-100064219D02*
X130141552Y-100207076D01*
X130141552Y-100207076D02*
X130046314Y-100302314D01*
X130046314Y-100302314D02*
X129951076Y-100349933D01*
X123187619Y-99264694D02*
X122187619Y-99264694D01*
X122187619Y-99264694D02*
X122187619Y-99026599D01*
X122187619Y-99026599D02*
X122235238Y-98883742D01*
X122235238Y-98883742D02*
X122330476Y-98788504D01*
X122330476Y-98788504D02*
X122425714Y-98740885D01*
X122425714Y-98740885D02*
X122616190Y-98693266D01*
X122616190Y-98693266D02*
X122759047Y-98693266D01*
X122759047Y-98693266D02*
X122949523Y-98740885D01*
X122949523Y-98740885D02*
X123044761Y-98788504D01*
X123044761Y-98788504D02*
X123140000Y-98883742D01*
X123140000Y-98883742D02*
X123187619Y-99026599D01*
X123187619Y-99026599D02*
X123187619Y-99264694D01*
X122616190Y-98121837D02*
X122568571Y-98217075D01*
X122568571Y-98217075D02*
X122520952Y-98264694D01*
X122520952Y-98264694D02*
X122425714Y-98312313D01*
X122425714Y-98312313D02*
X122378095Y-98312313D01*
X122378095Y-98312313D02*
X122282857Y-98264694D01*
X122282857Y-98264694D02*
X122235238Y-98217075D01*
X122235238Y-98217075D02*
X122187619Y-98121837D01*
X122187619Y-98121837D02*
X122187619Y-97931361D01*
X122187619Y-97931361D02*
X122235238Y-97836123D01*
X122235238Y-97836123D02*
X122282857Y-97788504D01*
X122282857Y-97788504D02*
X122378095Y-97740885D01*
X122378095Y-97740885D02*
X122425714Y-97740885D01*
X122425714Y-97740885D02*
X122520952Y-97788504D01*
X122520952Y-97788504D02*
X122568571Y-97836123D01*
X122568571Y-97836123D02*
X122616190Y-97931361D01*
X122616190Y-97931361D02*
X122616190Y-98121837D01*
X122616190Y-98121837D02*
X122663809Y-98217075D01*
X122663809Y-98217075D02*
X122711428Y-98264694D01*
X122711428Y-98264694D02*
X122806666Y-98312313D01*
X122806666Y-98312313D02*
X122997142Y-98312313D01*
X122997142Y-98312313D02*
X123092380Y-98264694D01*
X123092380Y-98264694D02*
X123140000Y-98217075D01*
X123140000Y-98217075D02*
X123187619Y-98121837D01*
X123187619Y-98121837D02*
X123187619Y-97931361D01*
X123187619Y-97931361D02*
X123140000Y-97836123D01*
X123140000Y-97836123D02*
X123092380Y-97788504D01*
X123092380Y-97788504D02*
X122997142Y-97740885D01*
X122997142Y-97740885D02*
X122806666Y-97740885D01*
X122806666Y-97740885D02*
X122711428Y-97788504D01*
X122711428Y-97788504D02*
X122663809Y-97836123D01*
X122663809Y-97836123D02*
X122616190Y-97931361D01*
X122572542Y-97006580D02*
X122524923Y-97054200D01*
X122524923Y-97054200D02*
X122382066Y-97101819D01*
X122382066Y-97101819D02*
X122286828Y-97101819D01*
X122286828Y-97101819D02*
X122143971Y-97054200D01*
X122143971Y-97054200D02*
X122048733Y-96958961D01*
X122048733Y-96958961D02*
X122001114Y-96863723D01*
X122001114Y-96863723D02*
X121953495Y-96673247D01*
X121953495Y-96673247D02*
X121953495Y-96530390D01*
X121953495Y-96530390D02*
X122001114Y-96339914D01*
X122001114Y-96339914D02*
X122048733Y-96244676D01*
X122048733Y-96244676D02*
X122143971Y-96149438D01*
X122143971Y-96149438D02*
X122286828Y-96101819D01*
X122286828Y-96101819D02*
X122382066Y-96101819D01*
X122382066Y-96101819D02*
X122524923Y-96149438D01*
X122524923Y-96149438D02*
X122572542Y-96197057D01*
X122905876Y-96101819D02*
X123524923Y-96101819D01*
X123524923Y-96101819D02*
X123191590Y-96482771D01*
X123191590Y-96482771D02*
X123334447Y-96482771D01*
X123334447Y-96482771D02*
X123429685Y-96530390D01*
X123429685Y-96530390D02*
X123477304Y-96578009D01*
X123477304Y-96578009D02*
X123524923Y-96673247D01*
X123524923Y-96673247D02*
X123524923Y-96911342D01*
X123524923Y-96911342D02*
X123477304Y-97006580D01*
X123477304Y-97006580D02*
X123429685Y-97054200D01*
X123429685Y-97054200D02*
X123334447Y-97101819D01*
X123334447Y-97101819D02*
X123048733Y-97101819D01*
X123048733Y-97101819D02*
X122953495Y-97054200D01*
X122953495Y-97054200D02*
X122905876Y-97006580D01*
X123858257Y-96101819D02*
X124524923Y-96101819D01*
X124524923Y-96101819D02*
X124096352Y-97101819D01*
X111861695Y-105966419D02*
X111861695Y-104966419D01*
X111861695Y-105442609D02*
X112433123Y-105442609D01*
X112433123Y-105966419D02*
X112433123Y-104966419D01*
X113433123Y-105966419D02*
X112861695Y-105966419D01*
X113147409Y-105966419D02*
X113147409Y-104966419D01*
X113147409Y-104966419D02*
X113052171Y-105109276D01*
X113052171Y-105109276D02*
X112956933Y-105204514D01*
X112956933Y-105204514D02*
X112861695Y-105252133D01*
X140066733Y-94003019D02*
X139733400Y-93526828D01*
X139495305Y-94003019D02*
X139495305Y-93003019D01*
X139495305Y-93003019D02*
X139876257Y-93003019D01*
X139876257Y-93003019D02*
X139971495Y-93050638D01*
X139971495Y-93050638D02*
X140019114Y-93098257D01*
X140019114Y-93098257D02*
X140066733Y-93193495D01*
X140066733Y-93193495D02*
X140066733Y-93336352D01*
X140066733Y-93336352D02*
X140019114Y-93431590D01*
X140019114Y-93431590D02*
X139971495Y-93479209D01*
X139971495Y-93479209D02*
X139876257Y-93526828D01*
X139876257Y-93526828D02*
X139495305Y-93526828D01*
X140923876Y-93003019D02*
X140733400Y-93003019D01*
X140733400Y-93003019D02*
X140638162Y-93050638D01*
X140638162Y-93050638D02*
X140590543Y-93098257D01*
X140590543Y-93098257D02*
X140495305Y-93241114D01*
X140495305Y-93241114D02*
X140447686Y-93431590D01*
X140447686Y-93431590D02*
X140447686Y-93812542D01*
X140447686Y-93812542D02*
X140495305Y-93907780D01*
X140495305Y-93907780D02*
X140542924Y-93955400D01*
X140542924Y-93955400D02*
X140638162Y-94003019D01*
X140638162Y-94003019D02*
X140828638Y-94003019D01*
X140828638Y-94003019D02*
X140923876Y-93955400D01*
X140923876Y-93955400D02*
X140971495Y-93907780D01*
X140971495Y-93907780D02*
X141019114Y-93812542D01*
X141019114Y-93812542D02*
X141019114Y-93574447D01*
X141019114Y-93574447D02*
X140971495Y-93479209D01*
X140971495Y-93479209D02*
X140923876Y-93431590D01*
X140923876Y-93431590D02*
X140828638Y-93383971D01*
X140828638Y-93383971D02*
X140638162Y-93383971D01*
X140638162Y-93383971D02*
X140542924Y-93431590D01*
X140542924Y-93431590D02*
X140495305Y-93479209D01*
X140495305Y-93479209D02*
X140447686Y-93574447D01*
X155106019Y-90192123D02*
X155820304Y-90192123D01*
X155820304Y-90192123D02*
X155963161Y-90239742D01*
X155963161Y-90239742D02*
X156058400Y-90334980D01*
X156058400Y-90334980D02*
X156106019Y-90477837D01*
X156106019Y-90477837D02*
X156106019Y-90573075D01*
X156106019Y-89192123D02*
X156106019Y-89763551D01*
X156106019Y-89477837D02*
X155106019Y-89477837D01*
X155106019Y-89477837D02*
X155248876Y-89573075D01*
X155248876Y-89573075D02*
X155344114Y-89668313D01*
X155344114Y-89668313D02*
X155391733Y-89763551D01*
X155106019Y-88573075D02*
X155106019Y-88477837D01*
X155106019Y-88477837D02*
X155153638Y-88382599D01*
X155153638Y-88382599D02*
X155201257Y-88334980D01*
X155201257Y-88334980D02*
X155296495Y-88287361D01*
X155296495Y-88287361D02*
X155486971Y-88239742D01*
X155486971Y-88239742D02*
X155725066Y-88239742D01*
X155725066Y-88239742D02*
X155915542Y-88287361D01*
X155915542Y-88287361D02*
X156010780Y-88334980D01*
X156010780Y-88334980D02*
X156058400Y-88382599D01*
X156058400Y-88382599D02*
X156106019Y-88477837D01*
X156106019Y-88477837D02*
X156106019Y-88573075D01*
X156106019Y-88573075D02*
X156058400Y-88668313D01*
X156058400Y-88668313D02*
X156010780Y-88715932D01*
X156010780Y-88715932D02*
X155915542Y-88763551D01*
X155915542Y-88763551D02*
X155725066Y-88811170D01*
X155725066Y-88811170D02*
X155486971Y-88811170D01*
X155486971Y-88811170D02*
X155296495Y-88763551D01*
X155296495Y-88763551D02*
X155201257Y-88715932D01*
X155201257Y-88715932D02*
X155153638Y-88668313D01*
X155153638Y-88668313D02*
X155106019Y-88573075D01*
X143654542Y-91215380D02*
X143606923Y-91263000D01*
X143606923Y-91263000D02*
X143464066Y-91310619D01*
X143464066Y-91310619D02*
X143368828Y-91310619D01*
X143368828Y-91310619D02*
X143225971Y-91263000D01*
X143225971Y-91263000D02*
X143130733Y-91167761D01*
X143130733Y-91167761D02*
X143083114Y-91072523D01*
X143083114Y-91072523D02*
X143035495Y-90882047D01*
X143035495Y-90882047D02*
X143035495Y-90739190D01*
X143035495Y-90739190D02*
X143083114Y-90548714D01*
X143083114Y-90548714D02*
X143130733Y-90453476D01*
X143130733Y-90453476D02*
X143225971Y-90358238D01*
X143225971Y-90358238D02*
X143368828Y-90310619D01*
X143368828Y-90310619D02*
X143464066Y-90310619D01*
X143464066Y-90310619D02*
X143606923Y-90358238D01*
X143606923Y-90358238D02*
X143654542Y-90405857D01*
X144511685Y-90643952D02*
X144511685Y-91310619D01*
X144273590Y-90263000D02*
X144035495Y-90977285D01*
X144035495Y-90977285D02*
X144654542Y-90977285D01*
X145511685Y-90310619D02*
X145035495Y-90310619D01*
X145035495Y-90310619D02*
X144987876Y-90786809D01*
X144987876Y-90786809D02*
X145035495Y-90739190D01*
X145035495Y-90739190D02*
X145130733Y-90691571D01*
X145130733Y-90691571D02*
X145368828Y-90691571D01*
X145368828Y-90691571D02*
X145464066Y-90739190D01*
X145464066Y-90739190D02*
X145511685Y-90786809D01*
X145511685Y-90786809D02*
X145559304Y-90882047D01*
X145559304Y-90882047D02*
X145559304Y-91120142D01*
X145559304Y-91120142D02*
X145511685Y-91215380D01*
X145511685Y-91215380D02*
X145464066Y-91263000D01*
X145464066Y-91263000D02*
X145368828Y-91310619D01*
X145368828Y-91310619D02*
X145130733Y-91310619D01*
X145130733Y-91310619D02*
X145035495Y-91263000D01*
X145035495Y-91263000D02*
X144987876Y-91215380D01*
X115008819Y-81060694D02*
X114008819Y-81060694D01*
X114008819Y-81060694D02*
X114008819Y-80822599D01*
X114008819Y-80822599D02*
X114056438Y-80679742D01*
X114056438Y-80679742D02*
X114151676Y-80584504D01*
X114151676Y-80584504D02*
X114246914Y-80536885D01*
X114246914Y-80536885D02*
X114437390Y-80489266D01*
X114437390Y-80489266D02*
X114580247Y-80489266D01*
X114580247Y-80489266D02*
X114770723Y-80536885D01*
X114770723Y-80536885D02*
X114865961Y-80584504D01*
X114865961Y-80584504D02*
X114961200Y-80679742D01*
X114961200Y-80679742D02*
X115008819Y-80822599D01*
X115008819Y-80822599D02*
X115008819Y-81060694D01*
X114104057Y-80108313D02*
X114056438Y-80060694D01*
X114056438Y-80060694D02*
X114008819Y-79965456D01*
X114008819Y-79965456D02*
X114008819Y-79727361D01*
X114008819Y-79727361D02*
X114056438Y-79632123D01*
X114056438Y-79632123D02*
X114104057Y-79584504D01*
X114104057Y-79584504D02*
X114199295Y-79536885D01*
X114199295Y-79536885D02*
X114294533Y-79536885D01*
X114294533Y-79536885D02*
X114437390Y-79584504D01*
X114437390Y-79584504D02*
X115008819Y-80155932D01*
X115008819Y-80155932D02*
X115008819Y-79536885D01*
X128164419Y-82665866D02*
X127688228Y-82999199D01*
X128164419Y-83237294D02*
X127164419Y-83237294D01*
X127164419Y-83237294D02*
X127164419Y-82856342D01*
X127164419Y-82856342D02*
X127212038Y-82761104D01*
X127212038Y-82761104D02*
X127259657Y-82713485D01*
X127259657Y-82713485D02*
X127354895Y-82665866D01*
X127354895Y-82665866D02*
X127497752Y-82665866D01*
X127497752Y-82665866D02*
X127592990Y-82713485D01*
X127592990Y-82713485D02*
X127640609Y-82761104D01*
X127640609Y-82761104D02*
X127688228Y-82856342D01*
X127688228Y-82856342D02*
X127688228Y-83237294D01*
X127164419Y-82332532D02*
X127164419Y-81713485D01*
X127164419Y-81713485D02*
X127545371Y-82046818D01*
X127545371Y-82046818D02*
X127545371Y-81903961D01*
X127545371Y-81903961D02*
X127592990Y-81808723D01*
X127592990Y-81808723D02*
X127640609Y-81761104D01*
X127640609Y-81761104D02*
X127735847Y-81713485D01*
X127735847Y-81713485D02*
X127973942Y-81713485D01*
X127973942Y-81713485D02*
X128069180Y-81761104D01*
X128069180Y-81761104D02*
X128116800Y-81808723D01*
X128116800Y-81808723D02*
X128164419Y-81903961D01*
X128164419Y-81903961D02*
X128164419Y-82189675D01*
X128164419Y-82189675D02*
X128116800Y-82284913D01*
X128116800Y-82284913D02*
X128069180Y-82332532D01*
X136579780Y-85402657D02*
X136627400Y-85450276D01*
X136627400Y-85450276D02*
X136675019Y-85593133D01*
X136675019Y-85593133D02*
X136675019Y-85688371D01*
X136675019Y-85688371D02*
X136627400Y-85831228D01*
X136627400Y-85831228D02*
X136532161Y-85926466D01*
X136532161Y-85926466D02*
X136436923Y-85974085D01*
X136436923Y-85974085D02*
X136246447Y-86021704D01*
X136246447Y-86021704D02*
X136103590Y-86021704D01*
X136103590Y-86021704D02*
X135913114Y-85974085D01*
X135913114Y-85974085D02*
X135817876Y-85926466D01*
X135817876Y-85926466D02*
X135722638Y-85831228D01*
X135722638Y-85831228D02*
X135675019Y-85688371D01*
X135675019Y-85688371D02*
X135675019Y-85593133D01*
X135675019Y-85593133D02*
X135722638Y-85450276D01*
X135722638Y-85450276D02*
X135770257Y-85402657D01*
X136008352Y-84545514D02*
X136675019Y-84545514D01*
X135627400Y-84783609D02*
X136341685Y-85021704D01*
X136341685Y-85021704D02*
X136341685Y-84402657D01*
X135770257Y-84069323D02*
X135722638Y-84021704D01*
X135722638Y-84021704D02*
X135675019Y-83926466D01*
X135675019Y-83926466D02*
X135675019Y-83688371D01*
X135675019Y-83688371D02*
X135722638Y-83593133D01*
X135722638Y-83593133D02*
X135770257Y-83545514D01*
X135770257Y-83545514D02*
X135865495Y-83497895D01*
X135865495Y-83497895D02*
X135960733Y-83497895D01*
X135960733Y-83497895D02*
X136103590Y-83545514D01*
X136103590Y-83545514D02*
X136675019Y-84116942D01*
X136675019Y-84116942D02*
X136675019Y-83497895D01*
X116635305Y-83944619D02*
X116635305Y-82944619D01*
X116635305Y-82944619D02*
X116873400Y-82944619D01*
X116873400Y-82944619D02*
X117016257Y-82992238D01*
X117016257Y-82992238D02*
X117111495Y-83087476D01*
X117111495Y-83087476D02*
X117159114Y-83182714D01*
X117159114Y-83182714D02*
X117206733Y-83373190D01*
X117206733Y-83373190D02*
X117206733Y-83516047D01*
X117206733Y-83516047D02*
X117159114Y-83706523D01*
X117159114Y-83706523D02*
X117111495Y-83801761D01*
X117111495Y-83801761D02*
X117016257Y-83897000D01*
X117016257Y-83897000D02*
X116873400Y-83944619D01*
X116873400Y-83944619D02*
X116635305Y-83944619D01*
X117540067Y-82944619D02*
X118159114Y-82944619D01*
X118159114Y-82944619D02*
X117825781Y-83325571D01*
X117825781Y-83325571D02*
X117968638Y-83325571D01*
X117968638Y-83325571D02*
X118063876Y-83373190D01*
X118063876Y-83373190D02*
X118111495Y-83420809D01*
X118111495Y-83420809D02*
X118159114Y-83516047D01*
X118159114Y-83516047D02*
X118159114Y-83754142D01*
X118159114Y-83754142D02*
X118111495Y-83849380D01*
X118111495Y-83849380D02*
X118063876Y-83897000D01*
X118063876Y-83897000D02*
X117968638Y-83944619D01*
X117968638Y-83944619D02*
X117682924Y-83944619D01*
X117682924Y-83944619D02*
X117587686Y-83897000D01*
X117587686Y-83897000D02*
X117540067Y-83849380D01*
X156235495Y-82192019D02*
X156235495Y-81192019D01*
X156235495Y-81668209D02*
X156806923Y-81668209D01*
X156806923Y-82192019D02*
X156806923Y-81192019D01*
X157235495Y-81287257D02*
X157283114Y-81239638D01*
X157283114Y-81239638D02*
X157378352Y-81192019D01*
X157378352Y-81192019D02*
X157616447Y-81192019D01*
X157616447Y-81192019D02*
X157711685Y-81239638D01*
X157711685Y-81239638D02*
X157759304Y-81287257D01*
X157759304Y-81287257D02*
X157806923Y-81382495D01*
X157806923Y-81382495D02*
X157806923Y-81477733D01*
X157806923Y-81477733D02*
X157759304Y-81620590D01*
X157759304Y-81620590D02*
X157187876Y-82192019D01*
X157187876Y-82192019D02*
X157806923Y-82192019D01*
X124989419Y-83116657D02*
X124513228Y-83449990D01*
X124989419Y-83688085D02*
X123989419Y-83688085D01*
X123989419Y-83688085D02*
X123989419Y-83307133D01*
X123989419Y-83307133D02*
X124037038Y-83211895D01*
X124037038Y-83211895D02*
X124084657Y-83164276D01*
X124084657Y-83164276D02*
X124179895Y-83116657D01*
X124179895Y-83116657D02*
X124322752Y-83116657D01*
X124322752Y-83116657D02*
X124417990Y-83164276D01*
X124417990Y-83164276D02*
X124465609Y-83211895D01*
X124465609Y-83211895D02*
X124513228Y-83307133D01*
X124513228Y-83307133D02*
X124513228Y-83688085D01*
X124084657Y-82735704D02*
X124037038Y-82688085D01*
X124037038Y-82688085D02*
X123989419Y-82592847D01*
X123989419Y-82592847D02*
X123989419Y-82354752D01*
X123989419Y-82354752D02*
X124037038Y-82259514D01*
X124037038Y-82259514D02*
X124084657Y-82211895D01*
X124084657Y-82211895D02*
X124179895Y-82164276D01*
X124179895Y-82164276D02*
X124275133Y-82164276D01*
X124275133Y-82164276D02*
X124417990Y-82211895D01*
X124417990Y-82211895D02*
X124989419Y-82783323D01*
X124989419Y-82783323D02*
X124989419Y-82164276D01*
X123989419Y-81545228D02*
X123989419Y-81449990D01*
X123989419Y-81449990D02*
X124037038Y-81354752D01*
X124037038Y-81354752D02*
X124084657Y-81307133D01*
X124084657Y-81307133D02*
X124179895Y-81259514D01*
X124179895Y-81259514D02*
X124370371Y-81211895D01*
X124370371Y-81211895D02*
X124608466Y-81211895D01*
X124608466Y-81211895D02*
X124798942Y-81259514D01*
X124798942Y-81259514D02*
X124894180Y-81307133D01*
X124894180Y-81307133D02*
X124941800Y-81354752D01*
X124941800Y-81354752D02*
X124989419Y-81449990D01*
X124989419Y-81449990D02*
X124989419Y-81545228D01*
X124989419Y-81545228D02*
X124941800Y-81640466D01*
X124941800Y-81640466D02*
X124894180Y-81688085D01*
X124894180Y-81688085D02*
X124798942Y-81735704D01*
X124798942Y-81735704D02*
X124608466Y-81783323D01*
X124608466Y-81783323D02*
X124370371Y-81783323D01*
X124370371Y-81783323D02*
X124179895Y-81735704D01*
X124179895Y-81735704D02*
X124084657Y-81688085D01*
X124084657Y-81688085D02*
X124037038Y-81640466D01*
X124037038Y-81640466D02*
X123989419Y-81545228D01*
X136802019Y-93664066D02*
X136325828Y-93997399D01*
X136802019Y-94235494D02*
X135802019Y-94235494D01*
X135802019Y-94235494D02*
X135802019Y-93854542D01*
X135802019Y-93854542D02*
X135849638Y-93759304D01*
X135849638Y-93759304D02*
X135897257Y-93711685D01*
X135897257Y-93711685D02*
X135992495Y-93664066D01*
X135992495Y-93664066D02*
X136135352Y-93664066D01*
X136135352Y-93664066D02*
X136230590Y-93711685D01*
X136230590Y-93711685D02*
X136278209Y-93759304D01*
X136278209Y-93759304D02*
X136325828Y-93854542D01*
X136325828Y-93854542D02*
X136325828Y-94235494D01*
X135802019Y-93330732D02*
X135802019Y-92664066D01*
X135802019Y-92664066D02*
X136802019Y-93092637D01*
X128516142Y-97355819D02*
X128182809Y-96879628D01*
X127944714Y-97355819D02*
X127944714Y-96355819D01*
X127944714Y-96355819D02*
X128325666Y-96355819D01*
X128325666Y-96355819D02*
X128420904Y-96403438D01*
X128420904Y-96403438D02*
X128468523Y-96451057D01*
X128468523Y-96451057D02*
X128516142Y-96546295D01*
X128516142Y-96546295D02*
X128516142Y-96689152D01*
X128516142Y-96689152D02*
X128468523Y-96784390D01*
X128468523Y-96784390D02*
X128420904Y-96832009D01*
X128420904Y-96832009D02*
X128325666Y-96879628D01*
X128325666Y-96879628D02*
X127944714Y-96879628D01*
X128897095Y-96451057D02*
X128944714Y-96403438D01*
X128944714Y-96403438D02*
X129039952Y-96355819D01*
X129039952Y-96355819D02*
X129278047Y-96355819D01*
X129278047Y-96355819D02*
X129373285Y-96403438D01*
X129373285Y-96403438D02*
X129420904Y-96451057D01*
X129420904Y-96451057D02*
X129468523Y-96546295D01*
X129468523Y-96546295D02*
X129468523Y-96641533D01*
X129468523Y-96641533D02*
X129420904Y-96784390D01*
X129420904Y-96784390D02*
X128849476Y-97355819D01*
X128849476Y-97355819D02*
X129468523Y-97355819D01*
X130325666Y-96355819D02*
X130135190Y-96355819D01*
X130135190Y-96355819D02*
X130039952Y-96403438D01*
X130039952Y-96403438D02*
X129992333Y-96451057D01*
X129992333Y-96451057D02*
X129897095Y-96593914D01*
X129897095Y-96593914D02*
X129849476Y-96784390D01*
X129849476Y-96784390D02*
X129849476Y-97165342D01*
X129849476Y-97165342D02*
X129897095Y-97260580D01*
X129897095Y-97260580D02*
X129944714Y-97308200D01*
X129944714Y-97308200D02*
X130039952Y-97355819D01*
X130039952Y-97355819D02*
X130230428Y-97355819D01*
X130230428Y-97355819D02*
X130325666Y-97308200D01*
X130325666Y-97308200D02*
X130373285Y-97260580D01*
X130373285Y-97260580D02*
X130420904Y-97165342D01*
X130420904Y-97165342D02*
X130420904Y-96927247D01*
X130420904Y-96927247D02*
X130373285Y-96832009D01*
X130373285Y-96832009D02*
X130325666Y-96784390D01*
X130325666Y-96784390D02*
X130230428Y-96736771D01*
X130230428Y-96736771D02*
X130039952Y-96736771D01*
X130039952Y-96736771D02*
X129944714Y-96784390D01*
X129944714Y-96784390D02*
X129897095Y-96832009D01*
X129897095Y-96832009D02*
X129849476Y-96927247D01*
X127023019Y-89561894D02*
X126023019Y-89561894D01*
X126023019Y-89561894D02*
X126023019Y-89323799D01*
X126023019Y-89323799D02*
X126070638Y-89180942D01*
X126070638Y-89180942D02*
X126165876Y-89085704D01*
X126165876Y-89085704D02*
X126261114Y-89038085D01*
X126261114Y-89038085D02*
X126451590Y-88990466D01*
X126451590Y-88990466D02*
X126594447Y-88990466D01*
X126594447Y-88990466D02*
X126784923Y-89038085D01*
X126784923Y-89038085D02*
X126880161Y-89085704D01*
X126880161Y-89085704D02*
X126975400Y-89180942D01*
X126975400Y-89180942D02*
X127023019Y-89323799D01*
X127023019Y-89323799D02*
X127023019Y-89561894D01*
X127023019Y-88514275D02*
X127023019Y-88323799D01*
X127023019Y-88323799D02*
X126975400Y-88228561D01*
X126975400Y-88228561D02*
X126927780Y-88180942D01*
X126927780Y-88180942D02*
X126784923Y-88085704D01*
X126784923Y-88085704D02*
X126594447Y-88038085D01*
X126594447Y-88038085D02*
X126213495Y-88038085D01*
X126213495Y-88038085D02*
X126118257Y-88085704D01*
X126118257Y-88085704D02*
X126070638Y-88133323D01*
X126070638Y-88133323D02*
X126023019Y-88228561D01*
X126023019Y-88228561D02*
X126023019Y-88419037D01*
X126023019Y-88419037D02*
X126070638Y-88514275D01*
X126070638Y-88514275D02*
X126118257Y-88561894D01*
X126118257Y-88561894D02*
X126213495Y-88609513D01*
X126213495Y-88609513D02*
X126451590Y-88609513D01*
X126451590Y-88609513D02*
X126546828Y-88561894D01*
X126546828Y-88561894D02*
X126594447Y-88514275D01*
X126594447Y-88514275D02*
X126642066Y-88419037D01*
X126642066Y-88419037D02*
X126642066Y-88228561D01*
X126642066Y-88228561D02*
X126594447Y-88133323D01*
X126594447Y-88133323D02*
X126546828Y-88085704D01*
X126546828Y-88085704D02*
X126451590Y-88038085D01*
X112195780Y-86698057D02*
X112243400Y-86745676D01*
X112243400Y-86745676D02*
X112291019Y-86888533D01*
X112291019Y-86888533D02*
X112291019Y-86983771D01*
X112291019Y-86983771D02*
X112243400Y-87126628D01*
X112243400Y-87126628D02*
X112148161Y-87221866D01*
X112148161Y-87221866D02*
X112052923Y-87269485D01*
X112052923Y-87269485D02*
X111862447Y-87317104D01*
X111862447Y-87317104D02*
X111719590Y-87317104D01*
X111719590Y-87317104D02*
X111529114Y-87269485D01*
X111529114Y-87269485D02*
X111433876Y-87221866D01*
X111433876Y-87221866D02*
X111338638Y-87126628D01*
X111338638Y-87126628D02*
X111291019Y-86983771D01*
X111291019Y-86983771D02*
X111291019Y-86888533D01*
X111291019Y-86888533D02*
X111338638Y-86745676D01*
X111338638Y-86745676D02*
X111386257Y-86698057D01*
X111291019Y-86364723D02*
X111291019Y-85745676D01*
X111291019Y-85745676D02*
X111671971Y-86079009D01*
X111671971Y-86079009D02*
X111671971Y-85936152D01*
X111671971Y-85936152D02*
X111719590Y-85840914D01*
X111719590Y-85840914D02*
X111767209Y-85793295D01*
X111767209Y-85793295D02*
X111862447Y-85745676D01*
X111862447Y-85745676D02*
X112100542Y-85745676D01*
X112100542Y-85745676D02*
X112195780Y-85793295D01*
X112195780Y-85793295D02*
X112243400Y-85840914D01*
X112243400Y-85840914D02*
X112291019Y-85936152D01*
X112291019Y-85936152D02*
X112291019Y-86221866D01*
X112291019Y-86221866D02*
X112243400Y-86317104D01*
X112243400Y-86317104D02*
X112195780Y-86364723D01*
X111291019Y-85126628D02*
X111291019Y-85031390D01*
X111291019Y-85031390D02*
X111338638Y-84936152D01*
X111338638Y-84936152D02*
X111386257Y-84888533D01*
X111386257Y-84888533D02*
X111481495Y-84840914D01*
X111481495Y-84840914D02*
X111671971Y-84793295D01*
X111671971Y-84793295D02*
X111910066Y-84793295D01*
X111910066Y-84793295D02*
X112100542Y-84840914D01*
X112100542Y-84840914D02*
X112195780Y-84888533D01*
X112195780Y-84888533D02*
X112243400Y-84936152D01*
X112243400Y-84936152D02*
X112291019Y-85031390D01*
X112291019Y-85031390D02*
X112291019Y-85126628D01*
X112291019Y-85126628D02*
X112243400Y-85221866D01*
X112243400Y-85221866D02*
X112195780Y-85269485D01*
X112195780Y-85269485D02*
X112100542Y-85317104D01*
X112100542Y-85317104D02*
X111910066Y-85364723D01*
X111910066Y-85364723D02*
X111671971Y-85364723D01*
X111671971Y-85364723D02*
X111481495Y-85317104D01*
X111481495Y-85317104D02*
X111386257Y-85269485D01*
X111386257Y-85269485D02*
X111338638Y-85221866D01*
X111338638Y-85221866D02*
X111291019Y-85126628D01*
X130469233Y-96134819D02*
X130135900Y-95658628D01*
X129897805Y-96134819D02*
X129897805Y-95134819D01*
X129897805Y-95134819D02*
X130278757Y-95134819D01*
X130278757Y-95134819D02*
X130373995Y-95182438D01*
X130373995Y-95182438D02*
X130421614Y-95230057D01*
X130421614Y-95230057D02*
X130469233Y-95325295D01*
X130469233Y-95325295D02*
X130469233Y-95468152D01*
X130469233Y-95468152D02*
X130421614Y-95563390D01*
X130421614Y-95563390D02*
X130373995Y-95611009D01*
X130373995Y-95611009D02*
X130278757Y-95658628D01*
X130278757Y-95658628D02*
X129897805Y-95658628D01*
X131040662Y-95563390D02*
X130945424Y-95515771D01*
X130945424Y-95515771D02*
X130897805Y-95468152D01*
X130897805Y-95468152D02*
X130850186Y-95372914D01*
X130850186Y-95372914D02*
X130850186Y-95325295D01*
X130850186Y-95325295D02*
X130897805Y-95230057D01*
X130897805Y-95230057D02*
X130945424Y-95182438D01*
X130945424Y-95182438D02*
X131040662Y-95134819D01*
X131040662Y-95134819D02*
X131231138Y-95134819D01*
X131231138Y-95134819D02*
X131326376Y-95182438D01*
X131326376Y-95182438D02*
X131373995Y-95230057D01*
X131373995Y-95230057D02*
X131421614Y-95325295D01*
X131421614Y-95325295D02*
X131421614Y-95372914D01*
X131421614Y-95372914D02*
X131373995Y-95468152D01*
X131373995Y-95468152D02*
X131326376Y-95515771D01*
X131326376Y-95515771D02*
X131231138Y-95563390D01*
X131231138Y-95563390D02*
X131040662Y-95563390D01*
X131040662Y-95563390D02*
X130945424Y-95611009D01*
X130945424Y-95611009D02*
X130897805Y-95658628D01*
X130897805Y-95658628D02*
X130850186Y-95753866D01*
X130850186Y-95753866D02*
X130850186Y-95944342D01*
X130850186Y-95944342D02*
X130897805Y-96039580D01*
X130897805Y-96039580D02*
X130945424Y-96087200D01*
X130945424Y-96087200D02*
X131040662Y-96134819D01*
X131040662Y-96134819D02*
X131231138Y-96134819D01*
X131231138Y-96134819D02*
X131326376Y-96087200D01*
X131326376Y-96087200D02*
X131373995Y-96039580D01*
X131373995Y-96039580D02*
X131421614Y-95944342D01*
X131421614Y-95944342D02*
X131421614Y-95753866D01*
X131421614Y-95753866D02*
X131373995Y-95658628D01*
X131373995Y-95658628D02*
X131326376Y-95611009D01*
X131326376Y-95611009D02*
X131231138Y-95563390D01*
X115308142Y-95660380D02*
X115260523Y-95708000D01*
X115260523Y-95708000D02*
X115117666Y-95755619D01*
X115117666Y-95755619D02*
X115022428Y-95755619D01*
X115022428Y-95755619D02*
X114879571Y-95708000D01*
X114879571Y-95708000D02*
X114784333Y-95612761D01*
X114784333Y-95612761D02*
X114736714Y-95517523D01*
X114736714Y-95517523D02*
X114689095Y-95327047D01*
X114689095Y-95327047D02*
X114689095Y-95184190D01*
X114689095Y-95184190D02*
X114736714Y-94993714D01*
X114736714Y-94993714D02*
X114784333Y-94898476D01*
X114784333Y-94898476D02*
X114879571Y-94803238D01*
X114879571Y-94803238D02*
X115022428Y-94755619D01*
X115022428Y-94755619D02*
X115117666Y-94755619D01*
X115117666Y-94755619D02*
X115260523Y-94803238D01*
X115260523Y-94803238D02*
X115308142Y-94850857D01*
X115689095Y-94850857D02*
X115736714Y-94803238D01*
X115736714Y-94803238D02*
X115831952Y-94755619D01*
X115831952Y-94755619D02*
X116070047Y-94755619D01*
X116070047Y-94755619D02*
X116165285Y-94803238D01*
X116165285Y-94803238D02*
X116212904Y-94850857D01*
X116212904Y-94850857D02*
X116260523Y-94946095D01*
X116260523Y-94946095D02*
X116260523Y-95041333D01*
X116260523Y-95041333D02*
X116212904Y-95184190D01*
X116212904Y-95184190D02*
X115641476Y-95755619D01*
X115641476Y-95755619D02*
X116260523Y-95755619D01*
X116736714Y-95755619D02*
X116927190Y-95755619D01*
X116927190Y-95755619D02*
X117022428Y-95708000D01*
X117022428Y-95708000D02*
X117070047Y-95660380D01*
X117070047Y-95660380D02*
X117165285Y-95517523D01*
X117165285Y-95517523D02*
X117212904Y-95327047D01*
X117212904Y-95327047D02*
X117212904Y-94946095D01*
X117212904Y-94946095D02*
X117165285Y-94850857D01*
X117165285Y-94850857D02*
X117117666Y-94803238D01*
X117117666Y-94803238D02*
X117022428Y-94755619D01*
X117022428Y-94755619D02*
X116831952Y-94755619D01*
X116831952Y-94755619D02*
X116736714Y-94803238D01*
X116736714Y-94803238D02*
X116689095Y-94850857D01*
X116689095Y-94850857D02*
X116641476Y-94946095D01*
X116641476Y-94946095D02*
X116641476Y-95184190D01*
X116641476Y-95184190D02*
X116689095Y-95279428D01*
X116689095Y-95279428D02*
X116736714Y-95327047D01*
X116736714Y-95327047D02*
X116831952Y-95374666D01*
X116831952Y-95374666D02*
X117022428Y-95374666D01*
X117022428Y-95374666D02*
X117117666Y-95327047D01*
X117117666Y-95327047D02*
X117165285Y-95279428D01*
X117165285Y-95279428D02*
X117212904Y-95184190D01*
X107881895Y-77280419D02*
X108453323Y-77280419D01*
X108167609Y-78280419D02*
X108167609Y-77280419D01*
X108786657Y-78280419D02*
X108786657Y-77280419D01*
X108786657Y-77280419D02*
X109167609Y-77280419D01*
X109167609Y-77280419D02*
X109262847Y-77328038D01*
X109262847Y-77328038D02*
X109310466Y-77375657D01*
X109310466Y-77375657D02*
X109358085Y-77470895D01*
X109358085Y-77470895D02*
X109358085Y-77613752D01*
X109358085Y-77613752D02*
X109310466Y-77708990D01*
X109310466Y-77708990D02*
X109262847Y-77756609D01*
X109262847Y-77756609D02*
X109167609Y-77804228D01*
X109167609Y-77804228D02*
X108786657Y-77804228D01*
X110310466Y-78280419D02*
X109739038Y-78280419D01*
X110024752Y-78280419D02*
X110024752Y-77280419D01*
X110024752Y-77280419D02*
X109929514Y-77423276D01*
X109929514Y-77423276D02*
X109834276Y-77518514D01*
X109834276Y-77518514D02*
X109739038Y-77566133D01*
X117256666Y-75524819D02*
X117256666Y-76239104D01*
X117256666Y-76239104D02*
X117209047Y-76381961D01*
X117209047Y-76381961D02*
X117113809Y-76477200D01*
X117113809Y-76477200D02*
X116970952Y-76524819D01*
X116970952Y-76524819D02*
X116875714Y-76524819D01*
X117637619Y-75524819D02*
X118256666Y-75524819D01*
X118256666Y-75524819D02*
X117923333Y-75905771D01*
X117923333Y-75905771D02*
X118066190Y-75905771D01*
X118066190Y-75905771D02*
X118161428Y-75953390D01*
X118161428Y-75953390D02*
X118209047Y-76001009D01*
X118209047Y-76001009D02*
X118256666Y-76096247D01*
X118256666Y-76096247D02*
X118256666Y-76334342D01*
X118256666Y-76334342D02*
X118209047Y-76429580D01*
X118209047Y-76429580D02*
X118161428Y-76477200D01*
X118161428Y-76477200D02*
X118066190Y-76524819D01*
X118066190Y-76524819D02*
X117780476Y-76524819D01*
X117780476Y-76524819D02*
X117685238Y-76477200D01*
X117685238Y-76477200D02*
X117637619Y-76429580D01*
X122293142Y-95533380D02*
X122245523Y-95581000D01*
X122245523Y-95581000D02*
X122102666Y-95628619D01*
X122102666Y-95628619D02*
X122007428Y-95628619D01*
X122007428Y-95628619D02*
X121864571Y-95581000D01*
X121864571Y-95581000D02*
X121769333Y-95485761D01*
X121769333Y-95485761D02*
X121721714Y-95390523D01*
X121721714Y-95390523D02*
X121674095Y-95200047D01*
X121674095Y-95200047D02*
X121674095Y-95057190D01*
X121674095Y-95057190D02*
X121721714Y-94866714D01*
X121721714Y-94866714D02*
X121769333Y-94771476D01*
X121769333Y-94771476D02*
X121864571Y-94676238D01*
X121864571Y-94676238D02*
X122007428Y-94628619D01*
X122007428Y-94628619D02*
X122102666Y-94628619D01*
X122102666Y-94628619D02*
X122245523Y-94676238D01*
X122245523Y-94676238D02*
X122293142Y-94723857D01*
X123150285Y-94961952D02*
X123150285Y-95628619D01*
X122912190Y-94581000D02*
X122674095Y-95295285D01*
X122674095Y-95295285D02*
X123293142Y-95295285D01*
X124197904Y-95628619D02*
X123626476Y-95628619D01*
X123912190Y-95628619D02*
X123912190Y-94628619D01*
X123912190Y-94628619D02*
X123816952Y-94771476D01*
X123816952Y-94771476D02*
X123721714Y-94866714D01*
X123721714Y-94866714D02*
X123626476Y-94914333D01*
X122922180Y-92372457D02*
X122969800Y-92420076D01*
X122969800Y-92420076D02*
X123017419Y-92562933D01*
X123017419Y-92562933D02*
X123017419Y-92658171D01*
X123017419Y-92658171D02*
X122969800Y-92801028D01*
X122969800Y-92801028D02*
X122874561Y-92896266D01*
X122874561Y-92896266D02*
X122779323Y-92943885D01*
X122779323Y-92943885D02*
X122588847Y-92991504D01*
X122588847Y-92991504D02*
X122445990Y-92991504D01*
X122445990Y-92991504D02*
X122255514Y-92943885D01*
X122255514Y-92943885D02*
X122160276Y-92896266D01*
X122160276Y-92896266D02*
X122065038Y-92801028D01*
X122065038Y-92801028D02*
X122017419Y-92658171D01*
X122017419Y-92658171D02*
X122017419Y-92562933D01*
X122017419Y-92562933D02*
X122065038Y-92420076D01*
X122065038Y-92420076D02*
X122112657Y-92372457D01*
X122017419Y-92039123D02*
X122017419Y-91420076D01*
X122017419Y-91420076D02*
X122398371Y-91753409D01*
X122398371Y-91753409D02*
X122398371Y-91610552D01*
X122398371Y-91610552D02*
X122445990Y-91515314D01*
X122445990Y-91515314D02*
X122493609Y-91467695D01*
X122493609Y-91467695D02*
X122588847Y-91420076D01*
X122588847Y-91420076D02*
X122826942Y-91420076D01*
X122826942Y-91420076D02*
X122922180Y-91467695D01*
X122922180Y-91467695D02*
X122969800Y-91515314D01*
X122969800Y-91515314D02*
X123017419Y-91610552D01*
X123017419Y-91610552D02*
X123017419Y-91896266D01*
X123017419Y-91896266D02*
X122969800Y-91991504D01*
X122969800Y-91991504D02*
X122922180Y-92039123D01*
X122017419Y-90562933D02*
X122017419Y-90753409D01*
X122017419Y-90753409D02*
X122065038Y-90848647D01*
X122065038Y-90848647D02*
X122112657Y-90896266D01*
X122112657Y-90896266D02*
X122255514Y-90991504D01*
X122255514Y-90991504D02*
X122445990Y-91039123D01*
X122445990Y-91039123D02*
X122826942Y-91039123D01*
X122826942Y-91039123D02*
X122922180Y-90991504D01*
X122922180Y-90991504D02*
X122969800Y-90943885D01*
X122969800Y-90943885D02*
X123017419Y-90848647D01*
X123017419Y-90848647D02*
X123017419Y-90658171D01*
X123017419Y-90658171D02*
X122969800Y-90562933D01*
X122969800Y-90562933D02*
X122922180Y-90515314D01*
X122922180Y-90515314D02*
X122826942Y-90467695D01*
X122826942Y-90467695D02*
X122588847Y-90467695D01*
X122588847Y-90467695D02*
X122493609Y-90515314D01*
X122493609Y-90515314D02*
X122445990Y-90562933D01*
X122445990Y-90562933D02*
X122398371Y-90658171D01*
X122398371Y-90658171D02*
X122398371Y-90848647D01*
X122398371Y-90848647D02*
X122445990Y-90943885D01*
X122445990Y-90943885D02*
X122493609Y-90991504D01*
X122493609Y-90991504D02*
X122588847Y-91039123D01*
X112768142Y-100226019D02*
X112434809Y-99749828D01*
X112196714Y-100226019D02*
X112196714Y-99226019D01*
X112196714Y-99226019D02*
X112577666Y-99226019D01*
X112577666Y-99226019D02*
X112672904Y-99273638D01*
X112672904Y-99273638D02*
X112720523Y-99321257D01*
X112720523Y-99321257D02*
X112768142Y-99416495D01*
X112768142Y-99416495D02*
X112768142Y-99559352D01*
X112768142Y-99559352D02*
X112720523Y-99654590D01*
X112720523Y-99654590D02*
X112672904Y-99702209D01*
X112672904Y-99702209D02*
X112577666Y-99749828D01*
X112577666Y-99749828D02*
X112196714Y-99749828D01*
X113149095Y-99321257D02*
X113196714Y-99273638D01*
X113196714Y-99273638D02*
X113291952Y-99226019D01*
X113291952Y-99226019D02*
X113530047Y-99226019D01*
X113530047Y-99226019D02*
X113625285Y-99273638D01*
X113625285Y-99273638D02*
X113672904Y-99321257D01*
X113672904Y-99321257D02*
X113720523Y-99416495D01*
X113720523Y-99416495D02*
X113720523Y-99511733D01*
X113720523Y-99511733D02*
X113672904Y-99654590D01*
X113672904Y-99654590D02*
X113101476Y-100226019D01*
X113101476Y-100226019D02*
X113720523Y-100226019D01*
X114101476Y-99321257D02*
X114149095Y-99273638D01*
X114149095Y-99273638D02*
X114244333Y-99226019D01*
X114244333Y-99226019D02*
X114482428Y-99226019D01*
X114482428Y-99226019D02*
X114577666Y-99273638D01*
X114577666Y-99273638D02*
X114625285Y-99321257D01*
X114625285Y-99321257D02*
X114672904Y-99416495D01*
X114672904Y-99416495D02*
X114672904Y-99511733D01*
X114672904Y-99511733D02*
X114625285Y-99654590D01*
X114625285Y-99654590D02*
X114053857Y-100226019D01*
X114053857Y-100226019D02*
X114672904Y-100226019D01*
X139565142Y-92682219D02*
X139231809Y-92206028D01*
X138993714Y-92682219D02*
X138993714Y-91682219D01*
X138993714Y-91682219D02*
X139374666Y-91682219D01*
X139374666Y-91682219D02*
X139469904Y-91729838D01*
X139469904Y-91729838D02*
X139517523Y-91777457D01*
X139517523Y-91777457D02*
X139565142Y-91872695D01*
X139565142Y-91872695D02*
X139565142Y-92015552D01*
X139565142Y-92015552D02*
X139517523Y-92110790D01*
X139517523Y-92110790D02*
X139469904Y-92158409D01*
X139469904Y-92158409D02*
X139374666Y-92206028D01*
X139374666Y-92206028D02*
X138993714Y-92206028D01*
X139898476Y-91682219D02*
X140517523Y-91682219D01*
X140517523Y-91682219D02*
X140184190Y-92063171D01*
X140184190Y-92063171D02*
X140327047Y-92063171D01*
X140327047Y-92063171D02*
X140422285Y-92110790D01*
X140422285Y-92110790D02*
X140469904Y-92158409D01*
X140469904Y-92158409D02*
X140517523Y-92253647D01*
X140517523Y-92253647D02*
X140517523Y-92491742D01*
X140517523Y-92491742D02*
X140469904Y-92586980D01*
X140469904Y-92586980D02*
X140422285Y-92634600D01*
X140422285Y-92634600D02*
X140327047Y-92682219D01*
X140327047Y-92682219D02*
X140041333Y-92682219D01*
X140041333Y-92682219D02*
X139946095Y-92634600D01*
X139946095Y-92634600D02*
X139898476Y-92586980D01*
X141469904Y-92682219D02*
X140898476Y-92682219D01*
X141184190Y-92682219D02*
X141184190Y-91682219D01*
X141184190Y-91682219D02*
X141088952Y-91825076D01*
X141088952Y-91825076D02*
X140993714Y-91920314D01*
X140993714Y-91920314D02*
X140898476Y-91967933D01*
X141317742Y-96473180D02*
X141270123Y-96520800D01*
X141270123Y-96520800D02*
X141127266Y-96568419D01*
X141127266Y-96568419D02*
X141032028Y-96568419D01*
X141032028Y-96568419D02*
X140889171Y-96520800D01*
X140889171Y-96520800D02*
X140793933Y-96425561D01*
X140793933Y-96425561D02*
X140746314Y-96330323D01*
X140746314Y-96330323D02*
X140698695Y-96139847D01*
X140698695Y-96139847D02*
X140698695Y-95996990D01*
X140698695Y-95996990D02*
X140746314Y-95806514D01*
X140746314Y-95806514D02*
X140793933Y-95711276D01*
X140793933Y-95711276D02*
X140889171Y-95616038D01*
X140889171Y-95616038D02*
X141032028Y-95568419D01*
X141032028Y-95568419D02*
X141127266Y-95568419D01*
X141127266Y-95568419D02*
X141270123Y-95616038D01*
X141270123Y-95616038D02*
X141317742Y-95663657D01*
X142270123Y-96568419D02*
X141698695Y-96568419D01*
X141984409Y-96568419D02*
X141984409Y-95568419D01*
X141984409Y-95568419D02*
X141889171Y-95711276D01*
X141889171Y-95711276D02*
X141793933Y-95806514D01*
X141793933Y-95806514D02*
X141698695Y-95854133D01*
X142841552Y-95996990D02*
X142746314Y-95949371D01*
X142746314Y-95949371D02*
X142698695Y-95901752D01*
X142698695Y-95901752D02*
X142651076Y-95806514D01*
X142651076Y-95806514D02*
X142651076Y-95758895D01*
X142651076Y-95758895D02*
X142698695Y-95663657D01*
X142698695Y-95663657D02*
X142746314Y-95616038D01*
X142746314Y-95616038D02*
X142841552Y-95568419D01*
X142841552Y-95568419D02*
X143032028Y-95568419D01*
X143032028Y-95568419D02*
X143127266Y-95616038D01*
X143127266Y-95616038D02*
X143174885Y-95663657D01*
X143174885Y-95663657D02*
X143222504Y-95758895D01*
X143222504Y-95758895D02*
X143222504Y-95806514D01*
X143222504Y-95806514D02*
X143174885Y-95901752D01*
X143174885Y-95901752D02*
X143127266Y-95949371D01*
X143127266Y-95949371D02*
X143032028Y-95996990D01*
X143032028Y-95996990D02*
X142841552Y-95996990D01*
X142841552Y-95996990D02*
X142746314Y-96044609D01*
X142746314Y-96044609D02*
X142698695Y-96092228D01*
X142698695Y-96092228D02*
X142651076Y-96187466D01*
X142651076Y-96187466D02*
X142651076Y-96377942D01*
X142651076Y-96377942D02*
X142698695Y-96473180D01*
X142698695Y-96473180D02*
X142746314Y-96520800D01*
X142746314Y-96520800D02*
X142841552Y-96568419D01*
X142841552Y-96568419D02*
X143032028Y-96568419D01*
X143032028Y-96568419D02*
X143127266Y-96520800D01*
X143127266Y-96520800D02*
X143174885Y-96473180D01*
X143174885Y-96473180D02*
X143222504Y-96377942D01*
X143222504Y-96377942D02*
X143222504Y-96187466D01*
X143222504Y-96187466D02*
X143174885Y-96092228D01*
X143174885Y-96092228D02*
X143127266Y-96044609D01*
X143127266Y-96044609D02*
X143032028Y-95996990D01*
X137653733Y-96416019D02*
X137320400Y-95939828D01*
X137082305Y-96416019D02*
X137082305Y-95416019D01*
X137082305Y-95416019D02*
X137463257Y-95416019D01*
X137463257Y-95416019D02*
X137558495Y-95463638D01*
X137558495Y-95463638D02*
X137606114Y-95511257D01*
X137606114Y-95511257D02*
X137653733Y-95606495D01*
X137653733Y-95606495D02*
X137653733Y-95749352D01*
X137653733Y-95749352D02*
X137606114Y-95844590D01*
X137606114Y-95844590D02*
X137558495Y-95892209D01*
X137558495Y-95892209D02*
X137463257Y-95939828D01*
X137463257Y-95939828D02*
X137082305Y-95939828D01*
X138129924Y-96416019D02*
X138320400Y-96416019D01*
X138320400Y-96416019D02*
X138415638Y-96368400D01*
X138415638Y-96368400D02*
X138463257Y-96320780D01*
X138463257Y-96320780D02*
X138558495Y-96177923D01*
X138558495Y-96177923D02*
X138606114Y-95987447D01*
X138606114Y-95987447D02*
X138606114Y-95606495D01*
X138606114Y-95606495D02*
X138558495Y-95511257D01*
X138558495Y-95511257D02*
X138510876Y-95463638D01*
X138510876Y-95463638D02*
X138415638Y-95416019D01*
X138415638Y-95416019D02*
X138225162Y-95416019D01*
X138225162Y-95416019D02*
X138129924Y-95463638D01*
X138129924Y-95463638D02*
X138082305Y-95511257D01*
X138082305Y-95511257D02*
X138034686Y-95606495D01*
X138034686Y-95606495D02*
X138034686Y-95844590D01*
X138034686Y-95844590D02*
X138082305Y-95939828D01*
X138082305Y-95939828D02*
X138129924Y-95987447D01*
X138129924Y-95987447D02*
X138225162Y-96035066D01*
X138225162Y-96035066D02*
X138415638Y-96035066D01*
X138415638Y-96035066D02*
X138510876Y-95987447D01*
X138510876Y-95987447D02*
X138558495Y-95939828D01*
X138558495Y-95939828D02*
X138606114Y-95844590D01*
X144543542Y-97227819D02*
X144210209Y-96751628D01*
X143972114Y-97227819D02*
X143972114Y-96227819D01*
X143972114Y-96227819D02*
X144353066Y-96227819D01*
X144353066Y-96227819D02*
X144448304Y-96275438D01*
X144448304Y-96275438D02*
X144495923Y-96323057D01*
X144495923Y-96323057D02*
X144543542Y-96418295D01*
X144543542Y-96418295D02*
X144543542Y-96561152D01*
X144543542Y-96561152D02*
X144495923Y-96656390D01*
X144495923Y-96656390D02*
X144448304Y-96704009D01*
X144448304Y-96704009D02*
X144353066Y-96751628D01*
X144353066Y-96751628D02*
X143972114Y-96751628D01*
X145495923Y-97227819D02*
X144924495Y-97227819D01*
X145210209Y-97227819D02*
X145210209Y-96227819D01*
X145210209Y-96227819D02*
X145114971Y-96370676D01*
X145114971Y-96370676D02*
X145019733Y-96465914D01*
X145019733Y-96465914D02*
X144924495Y-96513533D01*
X146114971Y-96227819D02*
X146210209Y-96227819D01*
X146210209Y-96227819D02*
X146305447Y-96275438D01*
X146305447Y-96275438D02*
X146353066Y-96323057D01*
X146353066Y-96323057D02*
X146400685Y-96418295D01*
X146400685Y-96418295D02*
X146448304Y-96608771D01*
X146448304Y-96608771D02*
X146448304Y-96846866D01*
X146448304Y-96846866D02*
X146400685Y-97037342D01*
X146400685Y-97037342D02*
X146353066Y-97132580D01*
X146353066Y-97132580D02*
X146305447Y-97180200D01*
X146305447Y-97180200D02*
X146210209Y-97227819D01*
X146210209Y-97227819D02*
X146114971Y-97227819D01*
X146114971Y-97227819D02*
X146019733Y-97180200D01*
X146019733Y-97180200D02*
X145972114Y-97132580D01*
X145972114Y-97132580D02*
X145924495Y-97037342D01*
X145924495Y-97037342D02*
X145876876Y-96846866D01*
X145876876Y-96846866D02*
X145876876Y-96608771D01*
X145876876Y-96608771D02*
X145924495Y-96418295D01*
X145924495Y-96418295D02*
X145972114Y-96323057D01*
X145972114Y-96323057D02*
X146019733Y-96275438D01*
X146019733Y-96275438D02*
X146114971Y-96227819D01*
X125936666Y-75524819D02*
X125936666Y-76239104D01*
X125936666Y-76239104D02*
X125889047Y-76381961D01*
X125889047Y-76381961D02*
X125793809Y-76477200D01*
X125793809Y-76477200D02*
X125650952Y-76524819D01*
X125650952Y-76524819D02*
X125555714Y-76524819D01*
X126841428Y-75858152D02*
X126841428Y-76524819D01*
X126603333Y-75477200D02*
X126365238Y-76191485D01*
X126365238Y-76191485D02*
X126984285Y-76191485D01*
X144467342Y-81260619D02*
X144134009Y-80784428D01*
X143895914Y-81260619D02*
X143895914Y-80260619D01*
X143895914Y-80260619D02*
X144276866Y-80260619D01*
X144276866Y-80260619D02*
X144372104Y-80308238D01*
X144372104Y-80308238D02*
X144419723Y-80355857D01*
X144419723Y-80355857D02*
X144467342Y-80451095D01*
X144467342Y-80451095D02*
X144467342Y-80593952D01*
X144467342Y-80593952D02*
X144419723Y-80689190D01*
X144419723Y-80689190D02*
X144372104Y-80736809D01*
X144372104Y-80736809D02*
X144276866Y-80784428D01*
X144276866Y-80784428D02*
X143895914Y-80784428D01*
X145419723Y-81260619D02*
X144848295Y-81260619D01*
X145134009Y-81260619D02*
X145134009Y-80260619D01*
X145134009Y-80260619D02*
X145038771Y-80403476D01*
X145038771Y-80403476D02*
X144943533Y-80498714D01*
X144943533Y-80498714D02*
X144848295Y-80546333D01*
X146276866Y-80593952D02*
X146276866Y-81260619D01*
X146038771Y-80213000D02*
X145800676Y-80927285D01*
X145800676Y-80927285D02*
X146419723Y-80927285D01*
X113647695Y-77382019D02*
X114219123Y-77382019D01*
X113933409Y-78382019D02*
X113933409Y-77382019D01*
X114552457Y-78382019D02*
X114552457Y-77382019D01*
X114552457Y-77382019D02*
X114933409Y-77382019D01*
X114933409Y-77382019D02*
X115028647Y-77429638D01*
X115028647Y-77429638D02*
X115076266Y-77477257D01*
X115076266Y-77477257D02*
X115123885Y-77572495D01*
X115123885Y-77572495D02*
X115123885Y-77715352D01*
X115123885Y-77715352D02*
X115076266Y-77810590D01*
X115076266Y-77810590D02*
X115028647Y-77858209D01*
X115028647Y-77858209D02*
X114933409Y-77905828D01*
X114933409Y-77905828D02*
X114552457Y-77905828D01*
X115504838Y-77477257D02*
X115552457Y-77429638D01*
X115552457Y-77429638D02*
X115647695Y-77382019D01*
X115647695Y-77382019D02*
X115885790Y-77382019D01*
X115885790Y-77382019D02*
X115981028Y-77429638D01*
X115981028Y-77429638D02*
X116028647Y-77477257D01*
X116028647Y-77477257D02*
X116076266Y-77572495D01*
X116076266Y-77572495D02*
X116076266Y-77667733D01*
X116076266Y-77667733D02*
X116028647Y-77810590D01*
X116028647Y-77810590D02*
X115457219Y-78382019D01*
X115457219Y-78382019D02*
X116076266Y-78382019D01*
X118203742Y-95781019D02*
X117870409Y-95304828D01*
X117632314Y-95781019D02*
X117632314Y-94781019D01*
X117632314Y-94781019D02*
X118013266Y-94781019D01*
X118013266Y-94781019D02*
X118108504Y-94828638D01*
X118108504Y-94828638D02*
X118156123Y-94876257D01*
X118156123Y-94876257D02*
X118203742Y-94971495D01*
X118203742Y-94971495D02*
X118203742Y-95114352D01*
X118203742Y-95114352D02*
X118156123Y-95209590D01*
X118156123Y-95209590D02*
X118108504Y-95257209D01*
X118108504Y-95257209D02*
X118013266Y-95304828D01*
X118013266Y-95304828D02*
X117632314Y-95304828D01*
X119156123Y-95781019D02*
X118584695Y-95781019D01*
X118870409Y-95781019D02*
X118870409Y-94781019D01*
X118870409Y-94781019D02*
X118775171Y-94923876D01*
X118775171Y-94923876D02*
X118679933Y-95019114D01*
X118679933Y-95019114D02*
X118584695Y-95066733D01*
X119727552Y-95209590D02*
X119632314Y-95161971D01*
X119632314Y-95161971D02*
X119584695Y-95114352D01*
X119584695Y-95114352D02*
X119537076Y-95019114D01*
X119537076Y-95019114D02*
X119537076Y-94971495D01*
X119537076Y-94971495D02*
X119584695Y-94876257D01*
X119584695Y-94876257D02*
X119632314Y-94828638D01*
X119632314Y-94828638D02*
X119727552Y-94781019D01*
X119727552Y-94781019D02*
X119918028Y-94781019D01*
X119918028Y-94781019D02*
X120013266Y-94828638D01*
X120013266Y-94828638D02*
X120060885Y-94876257D01*
X120060885Y-94876257D02*
X120108504Y-94971495D01*
X120108504Y-94971495D02*
X120108504Y-95019114D01*
X120108504Y-95019114D02*
X120060885Y-95114352D01*
X120060885Y-95114352D02*
X120013266Y-95161971D01*
X120013266Y-95161971D02*
X119918028Y-95209590D01*
X119918028Y-95209590D02*
X119727552Y-95209590D01*
X119727552Y-95209590D02*
X119632314Y-95257209D01*
X119632314Y-95257209D02*
X119584695Y-95304828D01*
X119584695Y-95304828D02*
X119537076Y-95400066D01*
X119537076Y-95400066D02*
X119537076Y-95590542D01*
X119537076Y-95590542D02*
X119584695Y-95685780D01*
X119584695Y-95685780D02*
X119632314Y-95733400D01*
X119632314Y-95733400D02*
X119727552Y-95781019D01*
X119727552Y-95781019D02*
X119918028Y-95781019D01*
X119918028Y-95781019D02*
X120013266Y-95733400D01*
X120013266Y-95733400D02*
X120060885Y-95685780D01*
X120060885Y-95685780D02*
X120108504Y-95590542D01*
X120108504Y-95590542D02*
X120108504Y-95400066D01*
X120108504Y-95400066D02*
X120060885Y-95304828D01*
X120060885Y-95304828D02*
X120013266Y-95257209D01*
X120013266Y-95257209D02*
X119918028Y-95209590D01*
X115366127Y-89598878D02*
X115366127Y-90409217D01*
X115366127Y-90409217D02*
X115413794Y-90504551D01*
X115413794Y-90504551D02*
X115461461Y-90552219D01*
X115461461Y-90552219D02*
X115556795Y-90599886D01*
X115556795Y-90599886D02*
X115747463Y-90599886D01*
X115747463Y-90599886D02*
X115842797Y-90552219D01*
X115842797Y-90552219D02*
X115890464Y-90504551D01*
X115890464Y-90504551D02*
X115938131Y-90409217D01*
X115938131Y-90409217D02*
X115938131Y-89598878D01*
X116557803Y-90027881D02*
X116462469Y-89980214D01*
X116462469Y-89980214D02*
X116414802Y-89932547D01*
X116414802Y-89932547D02*
X116367135Y-89837213D01*
X116367135Y-89837213D02*
X116367135Y-89789546D01*
X116367135Y-89789546D02*
X116414802Y-89694212D01*
X116414802Y-89694212D02*
X116462469Y-89646545D01*
X116462469Y-89646545D02*
X116557803Y-89598878D01*
X116557803Y-89598878D02*
X116748471Y-89598878D01*
X116748471Y-89598878D02*
X116843805Y-89646545D01*
X116843805Y-89646545D02*
X116891472Y-89694212D01*
X116891472Y-89694212D02*
X116939139Y-89789546D01*
X116939139Y-89789546D02*
X116939139Y-89837213D01*
X116939139Y-89837213D02*
X116891472Y-89932547D01*
X116891472Y-89932547D02*
X116843805Y-89980214D01*
X116843805Y-89980214D02*
X116748471Y-90027881D01*
X116748471Y-90027881D02*
X116557803Y-90027881D01*
X116557803Y-90027881D02*
X116462469Y-90075548D01*
X116462469Y-90075548D02*
X116414802Y-90123215D01*
X116414802Y-90123215D02*
X116367135Y-90218549D01*
X116367135Y-90218549D02*
X116367135Y-90409217D01*
X116367135Y-90409217D02*
X116414802Y-90504551D01*
X116414802Y-90504551D02*
X116462469Y-90552219D01*
X116462469Y-90552219D02*
X116557803Y-90599886D01*
X116557803Y-90599886D02*
X116748471Y-90599886D01*
X116748471Y-90599886D02*
X116843805Y-90552219D01*
X116843805Y-90552219D02*
X116891472Y-90504551D01*
X116891472Y-90504551D02*
X116939139Y-90409217D01*
X116939139Y-90409217D02*
X116939139Y-90218549D01*
X116939139Y-90218549D02*
X116891472Y-90123215D01*
X116891472Y-90123215D02*
X116843805Y-90075548D01*
X116843805Y-90075548D02*
X116748471Y-90027881D01*
X133414819Y-82426666D02*
X133414819Y-82902856D01*
X133414819Y-82902856D02*
X132414819Y-82902856D01*
X133414819Y-81569523D02*
X133414819Y-82140951D01*
X133414819Y-81855237D02*
X132414819Y-81855237D01*
X132414819Y-81855237D02*
X132557676Y-81950475D01*
X132557676Y-81950475D02*
X132652914Y-82045713D01*
X132652914Y-82045713D02*
X132700533Y-82140951D01*
X124704142Y-92656819D02*
X124370809Y-92180628D01*
X124132714Y-92656819D02*
X124132714Y-91656819D01*
X124132714Y-91656819D02*
X124513666Y-91656819D01*
X124513666Y-91656819D02*
X124608904Y-91704438D01*
X124608904Y-91704438D02*
X124656523Y-91752057D01*
X124656523Y-91752057D02*
X124704142Y-91847295D01*
X124704142Y-91847295D02*
X124704142Y-91990152D01*
X124704142Y-91990152D02*
X124656523Y-92085390D01*
X124656523Y-92085390D02*
X124608904Y-92133009D01*
X124608904Y-92133009D02*
X124513666Y-92180628D01*
X124513666Y-92180628D02*
X124132714Y-92180628D01*
X125656523Y-92656819D02*
X125085095Y-92656819D01*
X125370809Y-92656819D02*
X125370809Y-91656819D01*
X125370809Y-91656819D02*
X125275571Y-91799676D01*
X125275571Y-91799676D02*
X125180333Y-91894914D01*
X125180333Y-91894914D02*
X125085095Y-91942533D01*
X126561285Y-91656819D02*
X126085095Y-91656819D01*
X126085095Y-91656819D02*
X126037476Y-92133009D01*
X126037476Y-92133009D02*
X126085095Y-92085390D01*
X126085095Y-92085390D02*
X126180333Y-92037771D01*
X126180333Y-92037771D02*
X126418428Y-92037771D01*
X126418428Y-92037771D02*
X126513666Y-92085390D01*
X126513666Y-92085390D02*
X126561285Y-92133009D01*
X126561285Y-92133009D02*
X126608904Y-92228247D01*
X126608904Y-92228247D02*
X126608904Y-92466342D01*
X126608904Y-92466342D02*
X126561285Y-92561580D01*
X126561285Y-92561580D02*
X126513666Y-92609200D01*
X126513666Y-92609200D02*
X126418428Y-92656819D01*
X126418428Y-92656819D02*
X126180333Y-92656819D01*
X126180333Y-92656819D02*
X126085095Y-92609200D01*
X126085095Y-92609200D02*
X126037476Y-92561580D01*
X114241342Y-96974819D02*
X113908009Y-96498628D01*
X113669914Y-96974819D02*
X113669914Y-95974819D01*
X113669914Y-95974819D02*
X114050866Y-95974819D01*
X114050866Y-95974819D02*
X114146104Y-96022438D01*
X114146104Y-96022438D02*
X114193723Y-96070057D01*
X114193723Y-96070057D02*
X114241342Y-96165295D01*
X114241342Y-96165295D02*
X114241342Y-96308152D01*
X114241342Y-96308152D02*
X114193723Y-96403390D01*
X114193723Y-96403390D02*
X114146104Y-96451009D01*
X114146104Y-96451009D02*
X114050866Y-96498628D01*
X114050866Y-96498628D02*
X113669914Y-96498628D01*
X115193723Y-96974819D02*
X114622295Y-96974819D01*
X114908009Y-96974819D02*
X114908009Y-95974819D01*
X114908009Y-95974819D02*
X114812771Y-96117676D01*
X114812771Y-96117676D02*
X114717533Y-96212914D01*
X114717533Y-96212914D02*
X114622295Y-96260533D01*
X116050866Y-95974819D02*
X115860390Y-95974819D01*
X115860390Y-95974819D02*
X115765152Y-96022438D01*
X115765152Y-96022438D02*
X115717533Y-96070057D01*
X115717533Y-96070057D02*
X115622295Y-96212914D01*
X115622295Y-96212914D02*
X115574676Y-96403390D01*
X115574676Y-96403390D02*
X115574676Y-96784342D01*
X115574676Y-96784342D02*
X115622295Y-96879580D01*
X115622295Y-96879580D02*
X115669914Y-96927200D01*
X115669914Y-96927200D02*
X115765152Y-96974819D01*
X115765152Y-96974819D02*
X115955628Y-96974819D01*
X115955628Y-96974819D02*
X116050866Y-96927200D01*
X116050866Y-96927200D02*
X116098485Y-96879580D01*
X116098485Y-96879580D02*
X116146104Y-96784342D01*
X116146104Y-96784342D02*
X116146104Y-96546247D01*
X116146104Y-96546247D02*
X116098485Y-96451009D01*
X116098485Y-96451009D02*
X116050866Y-96403390D01*
X116050866Y-96403390D02*
X115955628Y-96355771D01*
X115955628Y-96355771D02*
X115765152Y-96355771D01*
X115765152Y-96355771D02*
X115669914Y-96403390D01*
X115669914Y-96403390D02*
X115622295Y-96451009D01*
X115622295Y-96451009D02*
X115574676Y-96546247D01*
X140530171Y-88873209D02*
X140053980Y-88873209D01*
X141053980Y-88539876D02*
X140530171Y-88873209D01*
X140530171Y-88873209D02*
X141053980Y-89206542D01*
X140958742Y-89492257D02*
X141006361Y-89539876D01*
X141006361Y-89539876D02*
X141053980Y-89635114D01*
X141053980Y-89635114D02*
X141053980Y-89873209D01*
X141053980Y-89873209D02*
X141006361Y-89968447D01*
X141006361Y-89968447D02*
X140958742Y-90016066D01*
X140958742Y-90016066D02*
X140863504Y-90063685D01*
X140863504Y-90063685D02*
X140768266Y-90063685D01*
X140768266Y-90063685D02*
X140625409Y-90016066D01*
X140625409Y-90016066D02*
X140053980Y-89444638D01*
X140053980Y-89444638D02*
X140053980Y-90063685D01*
X127163533Y-83616019D02*
X126830200Y-83139828D01*
X126592105Y-83616019D02*
X126592105Y-82616019D01*
X126592105Y-82616019D02*
X126973057Y-82616019D01*
X126973057Y-82616019D02*
X127068295Y-82663638D01*
X127068295Y-82663638D02*
X127115914Y-82711257D01*
X127115914Y-82711257D02*
X127163533Y-82806495D01*
X127163533Y-82806495D02*
X127163533Y-82949352D01*
X127163533Y-82949352D02*
X127115914Y-83044590D01*
X127115914Y-83044590D02*
X127068295Y-83092209D01*
X127068295Y-83092209D02*
X126973057Y-83139828D01*
X126973057Y-83139828D02*
X126592105Y-83139828D01*
X127544486Y-82711257D02*
X127592105Y-82663638D01*
X127592105Y-82663638D02*
X127687343Y-82616019D01*
X127687343Y-82616019D02*
X127925438Y-82616019D01*
X127925438Y-82616019D02*
X128020676Y-82663638D01*
X128020676Y-82663638D02*
X128068295Y-82711257D01*
X128068295Y-82711257D02*
X128115914Y-82806495D01*
X128115914Y-82806495D02*
X128115914Y-82901733D01*
X128115914Y-82901733D02*
X128068295Y-83044590D01*
X128068295Y-83044590D02*
X127496867Y-83616019D01*
X127496867Y-83616019D02*
X128115914Y-83616019D01*
X112875219Y-81060694D02*
X111875219Y-81060694D01*
X111875219Y-81060694D02*
X111875219Y-80822599D01*
X111875219Y-80822599D02*
X111922838Y-80679742D01*
X111922838Y-80679742D02*
X112018076Y-80584504D01*
X112018076Y-80584504D02*
X112113314Y-80536885D01*
X112113314Y-80536885D02*
X112303790Y-80489266D01*
X112303790Y-80489266D02*
X112446647Y-80489266D01*
X112446647Y-80489266D02*
X112637123Y-80536885D01*
X112637123Y-80536885D02*
X112732361Y-80584504D01*
X112732361Y-80584504D02*
X112827600Y-80679742D01*
X112827600Y-80679742D02*
X112875219Y-80822599D01*
X112875219Y-80822599D02*
X112875219Y-81060694D01*
X112875219Y-79536885D02*
X112875219Y-80108313D01*
X112875219Y-79822599D02*
X111875219Y-79822599D01*
X111875219Y-79822599D02*
X112018076Y-79917837D01*
X112018076Y-79917837D02*
X112113314Y-80013075D01*
X112113314Y-80013075D02*
X112160933Y-80108313D01*
X133125380Y-83294457D02*
X133173000Y-83342076D01*
X133173000Y-83342076D02*
X133220619Y-83484933D01*
X133220619Y-83484933D02*
X133220619Y-83580171D01*
X133220619Y-83580171D02*
X133173000Y-83723028D01*
X133173000Y-83723028D02*
X133077761Y-83818266D01*
X133077761Y-83818266D02*
X132982523Y-83865885D01*
X132982523Y-83865885D02*
X132792047Y-83913504D01*
X132792047Y-83913504D02*
X132649190Y-83913504D01*
X132649190Y-83913504D02*
X132458714Y-83865885D01*
X132458714Y-83865885D02*
X132363476Y-83818266D01*
X132363476Y-83818266D02*
X132268238Y-83723028D01*
X132268238Y-83723028D02*
X132220619Y-83580171D01*
X132220619Y-83580171D02*
X132220619Y-83484933D01*
X132220619Y-83484933D02*
X132268238Y-83342076D01*
X132268238Y-83342076D02*
X132315857Y-83294457D01*
X132220619Y-82961123D02*
X132220619Y-82342076D01*
X132220619Y-82342076D02*
X132601571Y-82675409D01*
X132601571Y-82675409D02*
X132601571Y-82532552D01*
X132601571Y-82532552D02*
X132649190Y-82437314D01*
X132649190Y-82437314D02*
X132696809Y-82389695D01*
X132696809Y-82389695D02*
X132792047Y-82342076D01*
X132792047Y-82342076D02*
X133030142Y-82342076D01*
X133030142Y-82342076D02*
X133125380Y-82389695D01*
X133125380Y-82389695D02*
X133173000Y-82437314D01*
X133173000Y-82437314D02*
X133220619Y-82532552D01*
X133220619Y-82532552D02*
X133220619Y-82818266D01*
X133220619Y-82818266D02*
X133173000Y-82913504D01*
X133173000Y-82913504D02*
X133125380Y-82961123D01*
X132220619Y-81437314D02*
X132220619Y-81913504D01*
X132220619Y-81913504D02*
X132696809Y-81961123D01*
X132696809Y-81961123D02*
X132649190Y-81913504D01*
X132649190Y-81913504D02*
X132601571Y-81818266D01*
X132601571Y-81818266D02*
X132601571Y-81580171D01*
X132601571Y-81580171D02*
X132649190Y-81484933D01*
X132649190Y-81484933D02*
X132696809Y-81437314D01*
X132696809Y-81437314D02*
X132792047Y-81389695D01*
X132792047Y-81389695D02*
X133030142Y-81389695D01*
X133030142Y-81389695D02*
X133125380Y-81437314D01*
X133125380Y-81437314D02*
X133173000Y-81484933D01*
X133173000Y-81484933D02*
X133220619Y-81580171D01*
X133220619Y-81580171D02*
X133220619Y-81818266D01*
X133220619Y-81818266D02*
X133173000Y-81913504D01*
X133173000Y-81913504D02*
X133125380Y-81961123D01*
X120088819Y-101684057D02*
X119612628Y-102017390D01*
X120088819Y-102255485D02*
X119088819Y-102255485D01*
X119088819Y-102255485D02*
X119088819Y-101874533D01*
X119088819Y-101874533D02*
X119136438Y-101779295D01*
X119136438Y-101779295D02*
X119184057Y-101731676D01*
X119184057Y-101731676D02*
X119279295Y-101684057D01*
X119279295Y-101684057D02*
X119422152Y-101684057D01*
X119422152Y-101684057D02*
X119517390Y-101731676D01*
X119517390Y-101731676D02*
X119565009Y-101779295D01*
X119565009Y-101779295D02*
X119612628Y-101874533D01*
X119612628Y-101874533D02*
X119612628Y-102255485D01*
X119184057Y-101303104D02*
X119136438Y-101255485D01*
X119136438Y-101255485D02*
X119088819Y-101160247D01*
X119088819Y-101160247D02*
X119088819Y-100922152D01*
X119088819Y-100922152D02*
X119136438Y-100826914D01*
X119136438Y-100826914D02*
X119184057Y-100779295D01*
X119184057Y-100779295D02*
X119279295Y-100731676D01*
X119279295Y-100731676D02*
X119374533Y-100731676D01*
X119374533Y-100731676D02*
X119517390Y-100779295D01*
X119517390Y-100779295D02*
X120088819Y-101350723D01*
X120088819Y-101350723D02*
X120088819Y-100731676D01*
X119088819Y-100398342D02*
X119088819Y-99779295D01*
X119088819Y-99779295D02*
X119469771Y-100112628D01*
X119469771Y-100112628D02*
X119469771Y-99969771D01*
X119469771Y-99969771D02*
X119517390Y-99874533D01*
X119517390Y-99874533D02*
X119565009Y-99826914D01*
X119565009Y-99826914D02*
X119660247Y-99779295D01*
X119660247Y-99779295D02*
X119898342Y-99779295D01*
X119898342Y-99779295D02*
X119993580Y-99826914D01*
X119993580Y-99826914D02*
X120041200Y-99874533D01*
X120041200Y-99874533D02*
X120088819Y-99969771D01*
X120088819Y-99969771D02*
X120088819Y-100255485D01*
X120088819Y-100255485D02*
X120041200Y-100350723D01*
X120041200Y-100350723D02*
X119993580Y-100398342D01*
X141063742Y-81639580D02*
X141016123Y-81687200D01*
X141016123Y-81687200D02*
X140873266Y-81734819D01*
X140873266Y-81734819D02*
X140778028Y-81734819D01*
X140778028Y-81734819D02*
X140635171Y-81687200D01*
X140635171Y-81687200D02*
X140539933Y-81591961D01*
X140539933Y-81591961D02*
X140492314Y-81496723D01*
X140492314Y-81496723D02*
X140444695Y-81306247D01*
X140444695Y-81306247D02*
X140444695Y-81163390D01*
X140444695Y-81163390D02*
X140492314Y-80972914D01*
X140492314Y-80972914D02*
X140539933Y-80877676D01*
X140539933Y-80877676D02*
X140635171Y-80782438D01*
X140635171Y-80782438D02*
X140778028Y-80734819D01*
X140778028Y-80734819D02*
X140873266Y-80734819D01*
X140873266Y-80734819D02*
X141016123Y-80782438D01*
X141016123Y-80782438D02*
X141063742Y-80830057D01*
X142016123Y-81734819D02*
X141444695Y-81734819D01*
X141730409Y-81734819D02*
X141730409Y-80734819D01*
X141730409Y-80734819D02*
X141635171Y-80877676D01*
X141635171Y-80877676D02*
X141539933Y-80972914D01*
X141539933Y-80972914D02*
X141444695Y-81020533D01*
X142349457Y-80734819D02*
X143016123Y-80734819D01*
X143016123Y-80734819D02*
X142587552Y-81734819D01*
X129815419Y-82888057D02*
X129339228Y-83221390D01*
X129815419Y-83459485D02*
X128815419Y-83459485D01*
X128815419Y-83459485D02*
X128815419Y-83078533D01*
X128815419Y-83078533D02*
X128863038Y-82983295D01*
X128863038Y-82983295D02*
X128910657Y-82935676D01*
X128910657Y-82935676D02*
X129005895Y-82888057D01*
X129005895Y-82888057D02*
X129148752Y-82888057D01*
X129148752Y-82888057D02*
X129243990Y-82935676D01*
X129243990Y-82935676D02*
X129291609Y-82983295D01*
X129291609Y-82983295D02*
X129339228Y-83078533D01*
X129339228Y-83078533D02*
X129339228Y-83459485D01*
X129815419Y-81935676D02*
X129815419Y-82507104D01*
X129815419Y-82221390D02*
X128815419Y-82221390D01*
X128815419Y-82221390D02*
X128958276Y-82316628D01*
X128958276Y-82316628D02*
X129053514Y-82411866D01*
X129053514Y-82411866D02*
X129101133Y-82507104D01*
X129815419Y-81459485D02*
X129815419Y-81269009D01*
X129815419Y-81269009D02*
X129767800Y-81173771D01*
X129767800Y-81173771D02*
X129720180Y-81126152D01*
X129720180Y-81126152D02*
X129577323Y-81030914D01*
X129577323Y-81030914D02*
X129386847Y-80983295D01*
X129386847Y-80983295D02*
X129005895Y-80983295D01*
X129005895Y-80983295D02*
X128910657Y-81030914D01*
X128910657Y-81030914D02*
X128863038Y-81078533D01*
X128863038Y-81078533D02*
X128815419Y-81173771D01*
X128815419Y-81173771D02*
X128815419Y-81364247D01*
X128815419Y-81364247D02*
X128863038Y-81459485D01*
X128863038Y-81459485D02*
X128910657Y-81507104D01*
X128910657Y-81507104D02*
X129005895Y-81554723D01*
X129005895Y-81554723D02*
X129243990Y-81554723D01*
X129243990Y-81554723D02*
X129339228Y-81507104D01*
X129339228Y-81507104D02*
X129386847Y-81459485D01*
X129386847Y-81459485D02*
X129434466Y-81364247D01*
X129434466Y-81364247D02*
X129434466Y-81173771D01*
X129434466Y-81173771D02*
X129386847Y-81078533D01*
X129386847Y-81078533D02*
X129339228Y-81030914D01*
X129339228Y-81030914D02*
X129243990Y-80983295D01*
X117448105Y-101724619D02*
X117448105Y-100724619D01*
X117448105Y-100724619D02*
X117686200Y-100724619D01*
X117686200Y-100724619D02*
X117829057Y-100772238D01*
X117829057Y-100772238D02*
X117924295Y-100867476D01*
X117924295Y-100867476D02*
X117971914Y-100962714D01*
X117971914Y-100962714D02*
X118019533Y-101153190D01*
X118019533Y-101153190D02*
X118019533Y-101296047D01*
X118019533Y-101296047D02*
X117971914Y-101486523D01*
X117971914Y-101486523D02*
X117924295Y-101581761D01*
X117924295Y-101581761D02*
X117829057Y-101677000D01*
X117829057Y-101677000D02*
X117686200Y-101724619D01*
X117686200Y-101724619D02*
X117448105Y-101724619D01*
X118924295Y-100724619D02*
X118448105Y-100724619D01*
X118448105Y-100724619D02*
X118400486Y-101200809D01*
X118400486Y-101200809D02*
X118448105Y-101153190D01*
X118448105Y-101153190D02*
X118543343Y-101105571D01*
X118543343Y-101105571D02*
X118781438Y-101105571D01*
X118781438Y-101105571D02*
X118876676Y-101153190D01*
X118876676Y-101153190D02*
X118924295Y-101200809D01*
X118924295Y-101200809D02*
X118971914Y-101296047D01*
X118971914Y-101296047D02*
X118971914Y-101534142D01*
X118971914Y-101534142D02*
X118924295Y-101629380D01*
X118924295Y-101629380D02*
X118876676Y-101677000D01*
X118876676Y-101677000D02*
X118781438Y-101724619D01*
X118781438Y-101724619D02*
X118543343Y-101724619D01*
X118543343Y-101724619D02*
X118448105Y-101677000D01*
X118448105Y-101677000D02*
X118400486Y-101629380D01*
X112291019Y-95054657D02*
X111814828Y-95387990D01*
X112291019Y-95626085D02*
X111291019Y-95626085D01*
X111291019Y-95626085D02*
X111291019Y-95245133D01*
X111291019Y-95245133D02*
X111338638Y-95149895D01*
X111338638Y-95149895D02*
X111386257Y-95102276D01*
X111386257Y-95102276D02*
X111481495Y-95054657D01*
X111481495Y-95054657D02*
X111624352Y-95054657D01*
X111624352Y-95054657D02*
X111719590Y-95102276D01*
X111719590Y-95102276D02*
X111767209Y-95149895D01*
X111767209Y-95149895D02*
X111814828Y-95245133D01*
X111814828Y-95245133D02*
X111814828Y-95626085D01*
X112291019Y-94102276D02*
X112291019Y-94673704D01*
X112291019Y-94387990D02*
X111291019Y-94387990D01*
X111291019Y-94387990D02*
X111433876Y-94483228D01*
X111433876Y-94483228D02*
X111529114Y-94578466D01*
X111529114Y-94578466D02*
X111576733Y-94673704D01*
X111291019Y-93768942D02*
X111291019Y-93102276D01*
X111291019Y-93102276D02*
X112291019Y-93530847D01*
X115265238Y-85911714D02*
X115265238Y-86216476D01*
X115051905Y-85576476D02*
X115265238Y-85911714D01*
X115265238Y-85911714D02*
X115478572Y-85576476D01*
X116027143Y-86216476D02*
X115661428Y-86216476D01*
X115844285Y-86216476D02*
X115844285Y-85576476D01*
X115844285Y-85576476D02*
X115783333Y-85667904D01*
X115783333Y-85667904D02*
X115722381Y-85728857D01*
X115722381Y-85728857D02*
X115661428Y-85759333D01*
X112068780Y-83605666D02*
X112116400Y-83653285D01*
X112116400Y-83653285D02*
X112164019Y-83796142D01*
X112164019Y-83796142D02*
X112164019Y-83891380D01*
X112164019Y-83891380D02*
X112116400Y-84034237D01*
X112116400Y-84034237D02*
X112021161Y-84129475D01*
X112021161Y-84129475D02*
X111925923Y-84177094D01*
X111925923Y-84177094D02*
X111735447Y-84224713D01*
X111735447Y-84224713D02*
X111592590Y-84224713D01*
X111592590Y-84224713D02*
X111402114Y-84177094D01*
X111402114Y-84177094D02*
X111306876Y-84129475D01*
X111306876Y-84129475D02*
X111211638Y-84034237D01*
X111211638Y-84034237D02*
X111164019Y-83891380D01*
X111164019Y-83891380D02*
X111164019Y-83796142D01*
X111164019Y-83796142D02*
X111211638Y-83653285D01*
X111211638Y-83653285D02*
X111259257Y-83605666D01*
X112164019Y-82653285D02*
X112164019Y-83224713D01*
X112164019Y-82938999D02*
X111164019Y-82938999D01*
X111164019Y-82938999D02*
X111306876Y-83034237D01*
X111306876Y-83034237D02*
X111402114Y-83129475D01*
X111402114Y-83129475D02*
X111449733Y-83224713D01*
X145093799Y-104086931D02*
X145141418Y-103944074D01*
X145141418Y-103944074D02*
X145141418Y-103705979D01*
X145141418Y-103705979D02*
X145093799Y-103610741D01*
X145093799Y-103610741D02*
X145046179Y-103563122D01*
X145046179Y-103563122D02*
X144950941Y-103515503D01*
X144950941Y-103515503D02*
X144855703Y-103515503D01*
X144855703Y-103515503D02*
X144760465Y-103563122D01*
X144760465Y-103563122D02*
X144712846Y-103610741D01*
X144712846Y-103610741D02*
X144665227Y-103705979D01*
X144665227Y-103705979D02*
X144617608Y-103896455D01*
X144617608Y-103896455D02*
X144569989Y-103991693D01*
X144569989Y-103991693D02*
X144522370Y-104039312D01*
X144522370Y-104039312D02*
X144427132Y-104086931D01*
X144427132Y-104086931D02*
X144331894Y-104086931D01*
X144331894Y-104086931D02*
X144236656Y-104039312D01*
X144236656Y-104039312D02*
X144189037Y-103991693D01*
X144189037Y-103991693D02*
X144141418Y-103896455D01*
X144141418Y-103896455D02*
X144141418Y-103658360D01*
X144141418Y-103658360D02*
X144189037Y-103515503D01*
X144141418Y-103182169D02*
X145141418Y-102944074D01*
X145141418Y-102944074D02*
X144427132Y-102753598D01*
X144427132Y-102753598D02*
X145141418Y-102563122D01*
X145141418Y-102563122D02*
X144141418Y-102325027D01*
X144141418Y-102039312D02*
X144141418Y-101420265D01*
X144141418Y-101420265D02*
X144522370Y-101753598D01*
X144522370Y-101753598D02*
X144522370Y-101610741D01*
X144522370Y-101610741D02*
X144569989Y-101515503D01*
X144569989Y-101515503D02*
X144617608Y-101467884D01*
X144617608Y-101467884D02*
X144712846Y-101420265D01*
X144712846Y-101420265D02*
X144950941Y-101420265D01*
X144950941Y-101420265D02*
X145046179Y-101467884D01*
X145046179Y-101467884D02*
X145093799Y-101515503D01*
X145093799Y-101515503D02*
X145141418Y-101610741D01*
X145141418Y-101610741D02*
X145141418Y-101896455D01*
X145141418Y-101896455D02*
X145093799Y-101991693D01*
X145093799Y-101991693D02*
X145046179Y-102039312D01*
X136313942Y-80699180D02*
X136266323Y-80746800D01*
X136266323Y-80746800D02*
X136123466Y-80794419D01*
X136123466Y-80794419D02*
X136028228Y-80794419D01*
X136028228Y-80794419D02*
X135885371Y-80746800D01*
X135885371Y-80746800D02*
X135790133Y-80651561D01*
X135790133Y-80651561D02*
X135742514Y-80556323D01*
X135742514Y-80556323D02*
X135694895Y-80365847D01*
X135694895Y-80365847D02*
X135694895Y-80222990D01*
X135694895Y-80222990D02*
X135742514Y-80032514D01*
X135742514Y-80032514D02*
X135790133Y-79937276D01*
X135790133Y-79937276D02*
X135885371Y-79842038D01*
X135885371Y-79842038D02*
X136028228Y-79794419D01*
X136028228Y-79794419D02*
X136123466Y-79794419D01*
X136123466Y-79794419D02*
X136266323Y-79842038D01*
X136266323Y-79842038D02*
X136313942Y-79889657D01*
X136647276Y-79794419D02*
X137266323Y-79794419D01*
X137266323Y-79794419D02*
X136932990Y-80175371D01*
X136932990Y-80175371D02*
X137075847Y-80175371D01*
X137075847Y-80175371D02*
X137171085Y-80222990D01*
X137171085Y-80222990D02*
X137218704Y-80270609D01*
X137218704Y-80270609D02*
X137266323Y-80365847D01*
X137266323Y-80365847D02*
X137266323Y-80603942D01*
X137266323Y-80603942D02*
X137218704Y-80699180D01*
X137218704Y-80699180D02*
X137171085Y-80746800D01*
X137171085Y-80746800D02*
X137075847Y-80794419D01*
X137075847Y-80794419D02*
X136790133Y-80794419D01*
X136790133Y-80794419D02*
X136694895Y-80746800D01*
X136694895Y-80746800D02*
X136647276Y-80699180D01*
X137599657Y-79794419D02*
X138218704Y-79794419D01*
X138218704Y-79794419D02*
X137885371Y-80175371D01*
X137885371Y-80175371D02*
X138028228Y-80175371D01*
X138028228Y-80175371D02*
X138123466Y-80222990D01*
X138123466Y-80222990D02*
X138171085Y-80270609D01*
X138171085Y-80270609D02*
X138218704Y-80365847D01*
X138218704Y-80365847D02*
X138218704Y-80603942D01*
X138218704Y-80603942D02*
X138171085Y-80699180D01*
X138171085Y-80699180D02*
X138123466Y-80746800D01*
X138123466Y-80746800D02*
X138028228Y-80794419D01*
X138028228Y-80794419D02*
X137742514Y-80794419D01*
X137742514Y-80794419D02*
X137647276Y-80746800D01*
X137647276Y-80746800D02*
X137599657Y-80699180D01*
X120107305Y-83131819D02*
X120107305Y-82131819D01*
X120107305Y-82131819D02*
X120345400Y-82131819D01*
X120345400Y-82131819D02*
X120488257Y-82179438D01*
X120488257Y-82179438D02*
X120583495Y-82274676D01*
X120583495Y-82274676D02*
X120631114Y-82369914D01*
X120631114Y-82369914D02*
X120678733Y-82560390D01*
X120678733Y-82560390D02*
X120678733Y-82703247D01*
X120678733Y-82703247D02*
X120631114Y-82893723D01*
X120631114Y-82893723D02*
X120583495Y-82988961D01*
X120583495Y-82988961D02*
X120488257Y-83084200D01*
X120488257Y-83084200D02*
X120345400Y-83131819D01*
X120345400Y-83131819D02*
X120107305Y-83131819D01*
X121535876Y-82465152D02*
X121535876Y-83131819D01*
X121297781Y-82084200D02*
X121059686Y-82798485D01*
X121059686Y-82798485D02*
X121678733Y-82798485D01*
X121004819Y-87612457D02*
X120528628Y-87945790D01*
X121004819Y-88183885D02*
X120004819Y-88183885D01*
X120004819Y-88183885D02*
X120004819Y-87802933D01*
X120004819Y-87802933D02*
X120052438Y-87707695D01*
X120052438Y-87707695D02*
X120100057Y-87660076D01*
X120100057Y-87660076D02*
X120195295Y-87612457D01*
X120195295Y-87612457D02*
X120338152Y-87612457D01*
X120338152Y-87612457D02*
X120433390Y-87660076D01*
X120433390Y-87660076D02*
X120481009Y-87707695D01*
X120481009Y-87707695D02*
X120528628Y-87802933D01*
X120528628Y-87802933D02*
X120528628Y-88183885D01*
X121004819Y-86660076D02*
X121004819Y-87231504D01*
X121004819Y-86945790D02*
X120004819Y-86945790D01*
X120004819Y-86945790D02*
X120147676Y-87041028D01*
X120147676Y-87041028D02*
X120242914Y-87136266D01*
X120242914Y-87136266D02*
X120290533Y-87231504D01*
X120100057Y-86279123D02*
X120052438Y-86231504D01*
X120052438Y-86231504D02*
X120004819Y-86136266D01*
X120004819Y-86136266D02*
X120004819Y-85898171D01*
X120004819Y-85898171D02*
X120052438Y-85802933D01*
X120052438Y-85802933D02*
X120100057Y-85755314D01*
X120100057Y-85755314D02*
X120195295Y-85707695D01*
X120195295Y-85707695D02*
X120290533Y-85707695D01*
X120290533Y-85707695D02*
X120433390Y-85755314D01*
X120433390Y-85755314D02*
X121004819Y-86326742D01*
X121004819Y-86326742D02*
X121004819Y-85707695D01*
X149149600Y-79743132D02*
X149197219Y-79600275D01*
X149197219Y-79600275D02*
X149197219Y-79362180D01*
X149197219Y-79362180D02*
X149149600Y-79266942D01*
X149149600Y-79266942D02*
X149101980Y-79219323D01*
X149101980Y-79219323D02*
X149006742Y-79171704D01*
X149006742Y-79171704D02*
X148911504Y-79171704D01*
X148911504Y-79171704D02*
X148816266Y-79219323D01*
X148816266Y-79219323D02*
X148768647Y-79266942D01*
X148768647Y-79266942D02*
X148721028Y-79362180D01*
X148721028Y-79362180D02*
X148673409Y-79552656D01*
X148673409Y-79552656D02*
X148625790Y-79647894D01*
X148625790Y-79647894D02*
X148578171Y-79695513D01*
X148578171Y-79695513D02*
X148482933Y-79743132D01*
X148482933Y-79743132D02*
X148387695Y-79743132D01*
X148387695Y-79743132D02*
X148292457Y-79695513D01*
X148292457Y-79695513D02*
X148244838Y-79647894D01*
X148244838Y-79647894D02*
X148197219Y-79552656D01*
X148197219Y-79552656D02*
X148197219Y-79314561D01*
X148197219Y-79314561D02*
X148244838Y-79171704D01*
X148197219Y-78838370D02*
X149197219Y-78600275D01*
X149197219Y-78600275D02*
X148482933Y-78409799D01*
X148482933Y-78409799D02*
X149197219Y-78219323D01*
X149197219Y-78219323D02*
X148197219Y-77981228D01*
X149197219Y-77076466D02*
X149197219Y-77647894D01*
X149197219Y-77362180D02*
X148197219Y-77362180D01*
X148197219Y-77362180D02*
X148340076Y-77457418D01*
X148340076Y-77457418D02*
X148435314Y-77552656D01*
X148435314Y-77552656D02*
X148482933Y-77647894D01*
X125055780Y-92372457D02*
X125103400Y-92420076D01*
X125103400Y-92420076D02*
X125151019Y-92562933D01*
X125151019Y-92562933D02*
X125151019Y-92658171D01*
X125151019Y-92658171D02*
X125103400Y-92801028D01*
X125103400Y-92801028D02*
X125008161Y-92896266D01*
X125008161Y-92896266D02*
X124912923Y-92943885D01*
X124912923Y-92943885D02*
X124722447Y-92991504D01*
X124722447Y-92991504D02*
X124579590Y-92991504D01*
X124579590Y-92991504D02*
X124389114Y-92943885D01*
X124389114Y-92943885D02*
X124293876Y-92896266D01*
X124293876Y-92896266D02*
X124198638Y-92801028D01*
X124198638Y-92801028D02*
X124151019Y-92658171D01*
X124151019Y-92658171D02*
X124151019Y-92562933D01*
X124151019Y-92562933D02*
X124198638Y-92420076D01*
X124198638Y-92420076D02*
X124246257Y-92372457D01*
X124151019Y-92039123D02*
X124151019Y-91420076D01*
X124151019Y-91420076D02*
X124531971Y-91753409D01*
X124531971Y-91753409D02*
X124531971Y-91610552D01*
X124531971Y-91610552D02*
X124579590Y-91515314D01*
X124579590Y-91515314D02*
X124627209Y-91467695D01*
X124627209Y-91467695D02*
X124722447Y-91420076D01*
X124722447Y-91420076D02*
X124960542Y-91420076D01*
X124960542Y-91420076D02*
X125055780Y-91467695D01*
X125055780Y-91467695D02*
X125103400Y-91515314D01*
X125103400Y-91515314D02*
X125151019Y-91610552D01*
X125151019Y-91610552D02*
X125151019Y-91896266D01*
X125151019Y-91896266D02*
X125103400Y-91991504D01*
X125103400Y-91991504D02*
X125055780Y-92039123D01*
X124484352Y-90562933D02*
X125151019Y-90562933D01*
X124103400Y-90801028D02*
X124817685Y-91039123D01*
X124817685Y-91039123D02*
X124817685Y-90420076D01*
X124965619Y-85682057D02*
X124489428Y-86015390D01*
X124965619Y-86253485D02*
X123965619Y-86253485D01*
X123965619Y-86253485D02*
X123965619Y-85872533D01*
X123965619Y-85872533D02*
X124013238Y-85777295D01*
X124013238Y-85777295D02*
X124060857Y-85729676D01*
X124060857Y-85729676D02*
X124156095Y-85682057D01*
X124156095Y-85682057D02*
X124298952Y-85682057D01*
X124298952Y-85682057D02*
X124394190Y-85729676D01*
X124394190Y-85729676D02*
X124441809Y-85777295D01*
X124441809Y-85777295D02*
X124489428Y-85872533D01*
X124489428Y-85872533D02*
X124489428Y-86253485D01*
X124965619Y-84729676D02*
X124965619Y-85301104D01*
X124965619Y-85015390D02*
X123965619Y-85015390D01*
X123965619Y-85015390D02*
X124108476Y-85110628D01*
X124108476Y-85110628D02*
X124203714Y-85205866D01*
X124203714Y-85205866D02*
X124251333Y-85301104D01*
X124965619Y-83777295D02*
X124965619Y-84348723D01*
X124965619Y-84063009D02*
X123965619Y-84063009D01*
X123965619Y-84063009D02*
X124108476Y-84158247D01*
X124108476Y-84158247D02*
X124203714Y-84253485D01*
X124203714Y-84253485D02*
X124251333Y-84348723D01*
X112068780Y-88628457D02*
X112116400Y-88676076D01*
X112116400Y-88676076D02*
X112164019Y-88818933D01*
X112164019Y-88818933D02*
X112164019Y-88914171D01*
X112164019Y-88914171D02*
X112116400Y-89057028D01*
X112116400Y-89057028D02*
X112021161Y-89152266D01*
X112021161Y-89152266D02*
X111925923Y-89199885D01*
X111925923Y-89199885D02*
X111735447Y-89247504D01*
X111735447Y-89247504D02*
X111592590Y-89247504D01*
X111592590Y-89247504D02*
X111402114Y-89199885D01*
X111402114Y-89199885D02*
X111306876Y-89152266D01*
X111306876Y-89152266D02*
X111211638Y-89057028D01*
X111211638Y-89057028D02*
X111164019Y-88914171D01*
X111164019Y-88914171D02*
X111164019Y-88818933D01*
X111164019Y-88818933D02*
X111211638Y-88676076D01*
X111211638Y-88676076D02*
X111259257Y-88628457D01*
X111259257Y-88247504D02*
X111211638Y-88199885D01*
X111211638Y-88199885D02*
X111164019Y-88104647D01*
X111164019Y-88104647D02*
X111164019Y-87866552D01*
X111164019Y-87866552D02*
X111211638Y-87771314D01*
X111211638Y-87771314D02*
X111259257Y-87723695D01*
X111259257Y-87723695D02*
X111354495Y-87676076D01*
X111354495Y-87676076D02*
X111449733Y-87676076D01*
X111449733Y-87676076D02*
X111592590Y-87723695D01*
X111592590Y-87723695D02*
X112164019Y-88295123D01*
X112164019Y-88295123D02*
X112164019Y-87676076D01*
X111592590Y-87104647D02*
X111544971Y-87199885D01*
X111544971Y-87199885D02*
X111497352Y-87247504D01*
X111497352Y-87247504D02*
X111402114Y-87295123D01*
X111402114Y-87295123D02*
X111354495Y-87295123D01*
X111354495Y-87295123D02*
X111259257Y-87247504D01*
X111259257Y-87247504D02*
X111211638Y-87199885D01*
X111211638Y-87199885D02*
X111164019Y-87104647D01*
X111164019Y-87104647D02*
X111164019Y-86914171D01*
X111164019Y-86914171D02*
X111211638Y-86818933D01*
X111211638Y-86818933D02*
X111259257Y-86771314D01*
X111259257Y-86771314D02*
X111354495Y-86723695D01*
X111354495Y-86723695D02*
X111402114Y-86723695D01*
X111402114Y-86723695D02*
X111497352Y-86771314D01*
X111497352Y-86771314D02*
X111544971Y-86818933D01*
X111544971Y-86818933D02*
X111592590Y-86914171D01*
X111592590Y-86914171D02*
X111592590Y-87104647D01*
X111592590Y-87104647D02*
X111640209Y-87199885D01*
X111640209Y-87199885D02*
X111687828Y-87247504D01*
X111687828Y-87247504D02*
X111783066Y-87295123D01*
X111783066Y-87295123D02*
X111973542Y-87295123D01*
X111973542Y-87295123D02*
X112068780Y-87247504D01*
X112068780Y-87247504D02*
X112116400Y-87199885D01*
X112116400Y-87199885D02*
X112164019Y-87104647D01*
X112164019Y-87104647D02*
X112164019Y-86914171D01*
X112164019Y-86914171D02*
X112116400Y-86818933D01*
X112116400Y-86818933D02*
X112068780Y-86771314D01*
X112068780Y-86771314D02*
X111973542Y-86723695D01*
X111973542Y-86723695D02*
X111783066Y-86723695D01*
X111783066Y-86723695D02*
X111687828Y-86771314D01*
X111687828Y-86771314D02*
X111640209Y-86818933D01*
X111640209Y-86818933D02*
X111592590Y-86914171D01*
X147413742Y-93272780D02*
X147366123Y-93320400D01*
X147366123Y-93320400D02*
X147223266Y-93368019D01*
X147223266Y-93368019D02*
X147128028Y-93368019D01*
X147128028Y-93368019D02*
X146985171Y-93320400D01*
X146985171Y-93320400D02*
X146889933Y-93225161D01*
X146889933Y-93225161D02*
X146842314Y-93129923D01*
X146842314Y-93129923D02*
X146794695Y-92939447D01*
X146794695Y-92939447D02*
X146794695Y-92796590D01*
X146794695Y-92796590D02*
X146842314Y-92606114D01*
X146842314Y-92606114D02*
X146889933Y-92510876D01*
X146889933Y-92510876D02*
X146985171Y-92415638D01*
X146985171Y-92415638D02*
X147128028Y-92368019D01*
X147128028Y-92368019D02*
X147223266Y-92368019D01*
X147223266Y-92368019D02*
X147366123Y-92415638D01*
X147366123Y-92415638D02*
X147413742Y-92463257D01*
X148366123Y-93368019D02*
X147794695Y-93368019D01*
X148080409Y-93368019D02*
X148080409Y-92368019D01*
X148080409Y-92368019D02*
X147985171Y-92510876D01*
X147985171Y-92510876D02*
X147889933Y-92606114D01*
X147889933Y-92606114D02*
X147794695Y-92653733D01*
X149270885Y-92368019D02*
X148794695Y-92368019D01*
X148794695Y-92368019D02*
X148747076Y-92844209D01*
X148747076Y-92844209D02*
X148794695Y-92796590D01*
X148794695Y-92796590D02*
X148889933Y-92748971D01*
X148889933Y-92748971D02*
X149128028Y-92748971D01*
X149128028Y-92748971D02*
X149223266Y-92796590D01*
X149223266Y-92796590D02*
X149270885Y-92844209D01*
X149270885Y-92844209D02*
X149318504Y-92939447D01*
X149318504Y-92939447D02*
X149318504Y-93177542D01*
X149318504Y-93177542D02*
X149270885Y-93272780D01*
X149270885Y-93272780D02*
X149223266Y-93320400D01*
X149223266Y-93320400D02*
X149128028Y-93368019D01*
X149128028Y-93368019D02*
X148889933Y-93368019D01*
X148889933Y-93368019D02*
X148794695Y-93320400D01*
X148794695Y-93320400D02*
X148747076Y-93272780D01*
X108219267Y-98098676D02*
X108219267Y-98555819D01*
X108219267Y-98555819D02*
X108188790Y-98647247D01*
X108188790Y-98647247D02*
X108127838Y-98708200D01*
X108127838Y-98708200D02*
X108036409Y-98738676D01*
X108036409Y-98738676D02*
X107975457Y-98738676D01*
X108859267Y-98738676D02*
X108493552Y-98738676D01*
X108676409Y-98738676D02*
X108676409Y-98098676D01*
X108676409Y-98098676D02*
X108615457Y-98190104D01*
X108615457Y-98190104D02*
X108554505Y-98251057D01*
X108554505Y-98251057D02*
X108493552Y-98281533D01*
X135672319Y-89010704D02*
X136481842Y-89010704D01*
X136481842Y-89010704D02*
X136577080Y-88963085D01*
X136577080Y-88963085D02*
X136624700Y-88915466D01*
X136624700Y-88915466D02*
X136672319Y-88820228D01*
X136672319Y-88820228D02*
X136672319Y-88629752D01*
X136672319Y-88629752D02*
X136624700Y-88534514D01*
X136624700Y-88534514D02*
X136577080Y-88486895D01*
X136577080Y-88486895D02*
X136481842Y-88439276D01*
X136481842Y-88439276D02*
X135672319Y-88439276D01*
X136672319Y-87915466D02*
X136672319Y-87724990D01*
X136672319Y-87724990D02*
X136624700Y-87629752D01*
X136624700Y-87629752D02*
X136577080Y-87582133D01*
X136577080Y-87582133D02*
X136434223Y-87486895D01*
X136434223Y-87486895D02*
X136243747Y-87439276D01*
X136243747Y-87439276D02*
X135862795Y-87439276D01*
X135862795Y-87439276D02*
X135767557Y-87486895D01*
X135767557Y-87486895D02*
X135719938Y-87534514D01*
X135719938Y-87534514D02*
X135672319Y-87629752D01*
X135672319Y-87629752D02*
X135672319Y-87820228D01*
X135672319Y-87820228D02*
X135719938Y-87915466D01*
X135719938Y-87915466D02*
X135767557Y-87963085D01*
X135767557Y-87963085D02*
X135862795Y-88010704D01*
X135862795Y-88010704D02*
X136100890Y-88010704D01*
X136100890Y-88010704D02*
X136196128Y-87963085D01*
X136196128Y-87963085D02*
X136243747Y-87915466D01*
X136243747Y-87915466D02*
X136291366Y-87820228D01*
X136291366Y-87820228D02*
X136291366Y-87629752D01*
X136291366Y-87629752D02*
X136243747Y-87534514D01*
X136243747Y-87534514D02*
X136196128Y-87486895D01*
X136196128Y-87486895D02*
X136100890Y-87439276D01*
D11*
%TO.C,C32*%
X138098620Y-82167000D02*
X138379780Y-82167000D01*
X138098620Y-83187000D02*
X138379780Y-83187000D01*
D12*
%TO.C,J2*%
X114250800Y-102643000D02*
X129690800Y-102643000D01*
X114250800Y-105383000D02*
X114250800Y-102643000D01*
X129690800Y-102643000D02*
X129690800Y-105383000D01*
X129690800Y-105383000D02*
X114250800Y-105383000D01*
X114870800Y-104913000D02*
G75*
G02*
X114670800Y-104913000I-100000J0D01*
G01*
X114670800Y-104913000D02*
G75*
G02*
X114870800Y-104913000I100000J0D01*
G01*
D11*
%TO.C,R13*%
X142718200Y-98240964D02*
X142718200Y-98456636D01*
X143438200Y-98240964D02*
X143438200Y-98456636D01*
%TO.C,C9*%
X141628400Y-85395980D02*
X141628400Y-85114820D01*
X142648400Y-85395980D02*
X142648400Y-85114820D01*
%TO.C,C31*%
X117857000Y-85858236D02*
X117857000Y-85642564D01*
X118577000Y-85858236D02*
X118577000Y-85642564D01*
%TO.C,C40*%
X122756200Y-87779020D02*
X122756200Y-88060180D01*
X123776200Y-87779020D02*
X123776200Y-88060180D01*
D13*
%TO.C,ANT1*%
X132710000Y-77035000D02*
X135310000Y-77035000D01*
X132710000Y-77065000D02*
X132710000Y-77035000D01*
X132710000Y-79635000D02*
X132710000Y-79605000D01*
X133310000Y-79635000D02*
X132710000Y-79635000D01*
X134710000Y-79635000D02*
X135310000Y-79635000D01*
X135310000Y-77035000D02*
X135310000Y-77065000D01*
X135310000Y-79635000D02*
X135310000Y-79605000D01*
D11*
%TO.C,C39*%
X120622600Y-87779020D02*
X120622600Y-88060180D01*
X121642600Y-87779020D02*
X121642600Y-88060180D01*
D13*
%TO.C,J42*%
X131103400Y-99953000D02*
X131328400Y-99953000D01*
X131328400Y-99953000D02*
X131328400Y-100703000D01*
X131328400Y-107953000D02*
X131328400Y-105703000D01*
X132178400Y-97953000D02*
X132678400Y-97953000D01*
X139178400Y-97953000D02*
X139678400Y-97953000D01*
X140528400Y-99953000D02*
X140528400Y-100703000D01*
X140528400Y-105703000D02*
X140528400Y-107953000D01*
X140528400Y-107953000D02*
X131328400Y-107953000D01*
X140753400Y-99953000D02*
X140528400Y-99953000D01*
D12*
X132770400Y-97377000D02*
G75*
G02*
X132570400Y-97377000I-100000J0D01*
G01*
X132570400Y-97377000D02*
G75*
G02*
X132770400Y-97377000I100000J0D01*
G01*
D11*
%TO.C,R21*%
X129386841Y-98934000D02*
X129079559Y-98934000D01*
X129386841Y-99694000D02*
X129079559Y-99694000D01*
%TO.C,D8*%
X120372200Y-97980600D02*
X120372200Y-100265600D01*
X120372200Y-100265600D02*
X121842200Y-100265600D01*
X121842200Y-100265600D02*
X121842200Y-97980600D01*
%TO.C,C37*%
X124635800Y-94195020D02*
X124635800Y-94476180D01*
X125655800Y-94195020D02*
X125655800Y-94476180D01*
%TO.C,R6*%
X140026959Y-94438200D02*
X140334241Y-94438200D01*
X140026959Y-95198200D02*
X140334241Y-95198200D01*
D13*
%TO.C,J10*%
X146587500Y-85066600D02*
X146587500Y-104366600D01*
X146587500Y-104366600D02*
X151087500Y-104366600D01*
X151087500Y-85066600D02*
X146587500Y-85066600D01*
X151087500Y-85346600D02*
X151087500Y-85066600D01*
X151087500Y-104366600D02*
X151087500Y-104086600D01*
X153998500Y-85067600D02*
X153998500Y-85347600D01*
X153998500Y-104087600D02*
X153998500Y-104367600D01*
X153998500Y-104367600D02*
X158498500Y-104367600D01*
X158498500Y-85067600D02*
X153998500Y-85067600D01*
X158498500Y-104367600D02*
X158498500Y-85067600D01*
D12*
X152148500Y-101321600D02*
G75*
G02*
X151948500Y-101321600I-100000J0D01*
G01*
X151948500Y-101321600D02*
G75*
G02*
X152148500Y-101321600I100000J0D01*
G01*
X153137500Y-88112600D02*
G75*
G02*
X152937500Y-88112600I-100000J0D01*
G01*
X152937500Y-88112600D02*
G75*
G02*
X153137500Y-88112600I100000J0D01*
G01*
D11*
%TO.C,D2*%
X113704000Y-78712600D02*
X113704000Y-81372600D01*
X115404000Y-78712600D02*
X113704000Y-78712600D01*
X115404000Y-78712600D02*
X115404000Y-81372600D01*
%TO.C,R3*%
X128499600Y-82652841D02*
X128499600Y-82345559D01*
X129259600Y-82652841D02*
X129259600Y-82345559D01*
%TO.C,C42*%
X138137020Y-83995800D02*
X138418180Y-83995800D01*
X138137020Y-85015800D02*
X138418180Y-85015800D01*
%TO.C,D3*%
X119026400Y-82614400D02*
X116366400Y-82614400D01*
X119026400Y-84314400D02*
X116366400Y-84314400D01*
X119026400Y-84314400D02*
X119026400Y-82614400D01*
%TO.C,R20*%
X125324600Y-82627441D02*
X125324600Y-82320159D01*
X126084600Y-82627441D02*
X126084600Y-82320159D01*
%TO.C,R7*%
X138022841Y-93244400D02*
X137715559Y-93244400D01*
X138022841Y-94004400D02*
X137715559Y-94004400D01*
%TO.C,R26*%
X129386841Y-97587800D02*
X129079559Y-97587800D01*
X129386841Y-98347800D02*
X129079559Y-98347800D01*
%TO.C,D9*%
X124258400Y-88151700D02*
X124258400Y-90436700D01*
X125728400Y-88151700D02*
X124258400Y-88151700D01*
X125728400Y-90436700D02*
X125728400Y-88151700D01*
%TO.C,C30*%
X112573800Y-85835436D02*
X112573800Y-85619764D01*
X113293800Y-85835436D02*
X113293800Y-85619764D01*
%TO.C,R8*%
X128147064Y-94945000D02*
X127692936Y-94945000D01*
X128147064Y-96415000D02*
X127692936Y-96415000D01*
%TO.C,C29*%
X115893964Y-93645400D02*
X116109636Y-93645400D01*
X115893964Y-94365400D02*
X116109636Y-94365400D01*
%TO.C,TP1*%
X108528000Y-78937000D02*
X110928000Y-78937000D01*
X108528000Y-81337000D02*
X108528000Y-78937000D01*
X110928000Y-78937000D02*
X110928000Y-81337000D01*
X110928000Y-81337000D02*
X108528000Y-81337000D01*
D13*
%TO.C,J3*%
X117087205Y-76650199D02*
X117087205Y-79850200D01*
X117087205Y-79850200D02*
X121337197Y-79850200D01*
X119202200Y-75634199D02*
X119837200Y-76396199D01*
X119837200Y-76396199D02*
X120472200Y-75634199D01*
X120472200Y-75634199D02*
X119202200Y-75634199D01*
X121337197Y-76650199D02*
X117087205Y-76650199D01*
X121337197Y-79850200D02*
X121337197Y-76650199D01*
D11*
%TO.C,C41*%
X123221636Y-93594600D02*
X123005964Y-93594600D01*
X123221636Y-94314600D02*
X123005964Y-94314600D01*
%TO.C,C36*%
X120622600Y-91589020D02*
X120622600Y-91870180D01*
X121642600Y-91589020D02*
X121642600Y-91870180D01*
%TO.C,R22*%
X113537241Y-97892600D02*
X113229959Y-97892600D01*
X113537241Y-98652600D02*
X113229959Y-98652600D01*
%TO.C,R31*%
X137717559Y-92076000D02*
X138024841Y-92076000D01*
X137717559Y-92836000D02*
X138024841Y-92836000D01*
%TO.C,C18*%
X141577600Y-93942780D02*
X141577600Y-93661620D01*
X142597600Y-93942780D02*
X142597600Y-93661620D01*
%TO.C,R9*%
X137717559Y-94412800D02*
X138024841Y-94412800D01*
X137717559Y-95172800D02*
X138024841Y-95172800D01*
%TO.C,R10*%
X145413464Y-94388000D02*
X144959336Y-94388000D01*
X145413464Y-95858000D02*
X144959336Y-95858000D01*
D13*
%TO.C,J4*%
X125367605Y-76599399D02*
X125367605Y-79799400D01*
X125367605Y-79799400D02*
X129617597Y-79799400D01*
X127482600Y-75583399D02*
X128117600Y-76345399D01*
X128117600Y-76345399D02*
X128752600Y-75583399D01*
X128752600Y-75583399D02*
X127482600Y-75583399D01*
X129617597Y-76599399D02*
X125367605Y-76599399D01*
X129617597Y-79799400D02*
X129617597Y-76599399D01*
D11*
%TO.C,R14*%
X145281764Y-81605800D02*
X145497436Y-81605800D01*
X145281764Y-82325800D02*
X145497436Y-82325800D01*
%TO.C,TP2*%
X110483800Y-75762000D02*
X112883800Y-75762000D01*
X110483800Y-78162000D02*
X110483800Y-75762000D01*
X112883800Y-75762000D02*
X112883800Y-78162000D01*
X112883800Y-78162000D02*
X110483800Y-78162000D01*
%TO.C,R18*%
X118568441Y-93625400D02*
X118261159Y-93625400D01*
X118568441Y-94385400D02*
X118261159Y-94385400D01*
D13*
%TO.C,U8*%
X113550200Y-88331200D02*
X113550200Y-92131200D01*
X113550200Y-92131200D02*
X118750200Y-92131200D01*
X118750200Y-88331200D02*
X113550200Y-88331200D01*
X118750200Y-92131200D02*
X118750200Y-88331200D01*
D14*
X113202200Y-87437200D02*
G75*
G02*
X113002200Y-87437200I-100000J0D01*
G01*
X113002200Y-87437200D02*
G75*
G02*
X113202200Y-87437200I100000J0D01*
G01*
D11*
%TO.C,R15*%
X125193359Y-91822000D02*
X125500641Y-91822000D01*
X125193359Y-92582000D02*
X125500641Y-92582000D01*
%TO.C,R16*%
X112573800Y-96417159D02*
X112573800Y-96724441D01*
X113333800Y-96417159D02*
X113333800Y-96724441D01*
D15*
%TO.C,Y2*%
X140333388Y-90822600D02*
X140684212Y-90822600D01*
X140684212Y-87876200D02*
X140333388Y-87876200D01*
X141785800Y-86172800D02*
G75*
G02*
X141531800Y-86172800I-127000J0D01*
G01*
X141531800Y-86172800D02*
G75*
G02*
X141785800Y-86172800I127000J0D01*
G01*
D11*
%TO.C,R2*%
X127483841Y-81611200D02*
X127176559Y-81611200D01*
X127483841Y-82371200D02*
X127176559Y-82371200D01*
%TO.C,D1*%
X111570400Y-78712600D02*
X111570400Y-81372600D01*
X113270400Y-78712600D02*
X111570400Y-78712600D01*
X113270400Y-78712600D02*
X113270400Y-81372600D01*
%TO.C,C35*%
X134387764Y-83155200D02*
X134603436Y-83155200D01*
X134387764Y-83875200D02*
X134603436Y-83875200D01*
%TO.C,R23*%
X119203200Y-98758441D02*
X119203200Y-98451159D01*
X119963200Y-98758441D02*
X119963200Y-98451159D01*
%TO.C,C17*%
X141413620Y-82167000D02*
X141694780Y-82167000D01*
X141413620Y-83187000D02*
X141694780Y-83187000D01*
%TO.C,R19*%
X130150600Y-82398841D02*
X130150600Y-82091559D01*
X130910600Y-82398841D02*
X130910600Y-82091559D01*
%TO.C,D5*%
X116652400Y-100394400D02*
X116652400Y-102094400D01*
X116652400Y-100394400D02*
X119312400Y-100394400D01*
X116652400Y-102094400D02*
X119312400Y-102094400D01*
%TO.C,R17*%
X112573800Y-94283559D02*
X112573800Y-94590841D01*
X113333800Y-94283559D02*
X113333800Y-94590841D01*
D13*
%TO.C,Y1*%
X115950000Y-85178200D02*
X115190000Y-85178200D01*
X115950000Y-86678200D02*
X115190000Y-86678200D01*
D11*
%TO.C,C1*%
X114002452Y-82729400D02*
X113479948Y-82729400D01*
X114002452Y-84199400D02*
X113479948Y-84199400D01*
D15*
%TO.C,SW3*%
X142857799Y-100429499D02*
X142857799Y-105077699D01*
X144299940Y-105077699D02*
X145073258Y-105077699D01*
X145073258Y-100429499D02*
X144299940Y-100429499D01*
X146515399Y-105077699D02*
X146515399Y-100429499D01*
D16*
X143992599Y-106855699D02*
G75*
G02*
X143230599Y-106855699I-381000J0D01*
G01*
X143230599Y-106855699D02*
G75*
G02*
X143992599Y-106855699I381000J0D01*
G01*
D11*
%TO.C,C33*%
X134387764Y-80640000D02*
X134603436Y-80640000D01*
X134387764Y-81360000D02*
X134603436Y-81360000D01*
%TO.C,D4*%
X122506200Y-81877800D02*
X119846200Y-81877800D01*
X122506200Y-83577800D02*
X119846200Y-83577800D01*
X122506200Y-83577800D02*
X122506200Y-81877800D01*
%TO.C,R12*%
X119000000Y-86815959D02*
X119000000Y-87123241D01*
X119760000Y-86815959D02*
X119760000Y-87123241D01*
D15*
%TO.C,SW1*%
X146913600Y-76085700D02*
X146913600Y-80733900D01*
X148355741Y-80733900D02*
X149129059Y-80733900D01*
X149129059Y-76085700D02*
X148355741Y-76085700D01*
X150571200Y-80733900D02*
X150571200Y-76085700D01*
D16*
X148048400Y-82511900D02*
G75*
G02*
X147286400Y-82511900I-381000J0D01*
G01*
X147286400Y-82511900D02*
G75*
G02*
X148048400Y-82511900I381000J0D01*
G01*
D11*
%TO.C,C34*%
X122756200Y-91589020D02*
X122756200Y-91870180D01*
X123776200Y-91589020D02*
X123776200Y-91870180D01*
%TO.C,R11*%
X122962400Y-84912959D02*
X122962400Y-85220241D01*
X123722400Y-84912959D02*
X123722400Y-85220241D01*
%TO.C,C28*%
X112060400Y-88068036D02*
X112060400Y-87852364D01*
X112780400Y-88068036D02*
X112780400Y-87852364D01*
%TO.C,C15*%
X145187580Y-92504800D02*
X144906420Y-92504800D01*
X145187580Y-93524800D02*
X144906420Y-93524800D01*
D12*
%TO.C,J1*%
X108154800Y-82043600D02*
X110894800Y-82043600D01*
X108154800Y-97483600D02*
X108154800Y-82043600D01*
X110894800Y-82043600D02*
X110894800Y-97483600D01*
X110894800Y-97483600D02*
X108154800Y-97483600D01*
X110524800Y-96963600D02*
G75*
G02*
X110324800Y-96963600I-100000J0D01*
G01*
X110324800Y-96963600D02*
G75*
G02*
X110524800Y-96963600I100000J0D01*
G01*
D11*
%TO.C,U9*%
X127777500Y-84638800D02*
X128427500Y-84638800D01*
X127777500Y-85288800D02*
X127777500Y-84638800D01*
X127777500Y-91208800D02*
X127777500Y-91858800D01*
X127777500Y-91858800D02*
X128427500Y-91858800D01*
X134347500Y-84638800D02*
X134757500Y-84638800D01*
X134997500Y-85288800D02*
X134997500Y-84938800D01*
X134997500Y-91208800D02*
X134997500Y-91858800D01*
X134997500Y-91858800D02*
X134347500Y-91858800D01*
X135327500Y-84878800D02*
X134997500Y-84638800D01*
X135327500Y-84398800D01*
X135327500Y-84878800D01*
G36*
X135327500Y-84878800D02*
G01*
X134997500Y-84638800D01*
X135327500Y-84398800D01*
X135327500Y-84878800D01*
G37*
%TD*%
M02*
