G04 #@! TF.GenerationSoftware,KiCad,Pcbnew,7.0.7*
G04 #@! TF.CreationDate,2024-10-22T14:05:41-07:00*
G04 #@! TF.ProjectId,ESP_POE_1.4a,4553505f-504f-4455-9f31-2e34612e6b69,K*
G04 #@! TF.SameCoordinates,Original*
G04 #@! TF.FileFunction,Copper,L3,Inr*
G04 #@! TF.FilePolarity,Positive*
%FSLAX46Y46*%
G04 Gerber Fmt 4.6, Leading zero omitted, Abs format (unit mm)*
G04 Created by KiCad (PCBNEW 7.0.7) date 2024-10-22 14:05:41*
%MOMM*%
%LPD*%
G01*
G04 APERTURE LIST*
G04 Aperture macros list*
%AMRotRect*
0 Rectangle, with rotation*
0 The origin of the aperture is its center*
0 $1 length*
0 $2 width*
0 $3 Rotation angle, in degrees counterclockwise*
0 Add horizontal line*
21,1,$1,$2,0,0,$3*%
G04 Aperture macros list end*
G04 #@! TA.AperFunction,ComponentPad*
%ADD10R,1.524000X1.524000*%
G04 #@! TD*
G04 #@! TA.AperFunction,ComponentPad*
%ADD11C,1.524000*%
G04 #@! TD*
G04 #@! TA.AperFunction,ComponentPad*
%ADD12RotRect,1.524000X1.524000X230.000000*%
G04 #@! TD*
G04 #@! TA.AperFunction,ComponentPad*
%ADD13RotRect,1.524000X1.524000X305.000000*%
G04 #@! TD*
G04 #@! TA.AperFunction,ComponentPad*
%ADD14R,1.478000X1.478000*%
G04 #@! TD*
G04 #@! TA.AperFunction,ComponentPad*
%ADD15C,1.478000*%
G04 #@! TD*
G04 #@! TA.AperFunction,ComponentPad*
%ADD16C,1.650000*%
G04 #@! TD*
G04 #@! TA.AperFunction,ComponentPad*
%ADD17C,2.475000*%
G04 #@! TD*
G04 #@! TA.AperFunction,ComponentPad*
%ADD18R,1.530000X1.530000*%
G04 #@! TD*
G04 #@! TA.AperFunction,ComponentPad*
%ADD19C,1.530000*%
G04 #@! TD*
G04 #@! TA.AperFunction,ComponentPad*
%ADD20C,1.168400*%
G04 #@! TD*
G04 #@! TA.AperFunction,ComponentPad*
%ADD21R,0.600000X0.600000*%
G04 #@! TD*
G04 #@! TA.AperFunction,ComponentPad*
%ADD22R,1.422400X1.422400*%
G04 #@! TD*
G04 #@! TA.AperFunction,ComponentPad*
%ADD23C,1.800000*%
G04 #@! TD*
G04 #@! TA.AperFunction,ViaPad*
%ADD24C,0.550000*%
G04 #@! TD*
G04 #@! TA.AperFunction,ViaPad*
%ADD25C,0.700000*%
G04 #@! TD*
G04 #@! TA.AperFunction,Conductor*
%ADD26C,0.203200*%
G04 #@! TD*
G04 #@! TA.AperFunction,Conductor*
%ADD27C,0.406400*%
G04 #@! TD*
G04 APERTURE END LIST*
D10*
X106832400Y-150876000D03*
D11*
X109372400Y-150876000D03*
X114452400Y-150876000D03*
X116992400Y-150876000D03*
X119532400Y-150876000D03*
X122072400Y-150876000D03*
X100431600Y-129082800D03*
D12*
X98824630Y-130997912D03*
D11*
X97321258Y-145119720D03*
D13*
X98755200Y-147167600D03*
D14*
X108432600Y-133096000D03*
D15*
X109702600Y-135636000D03*
X110972600Y-133096000D03*
X112242600Y-135636000D03*
X113512600Y-133096000D03*
X114782600Y-135636000D03*
X116052600Y-133096000D03*
X117322600Y-135636000D03*
X118592600Y-133096000D03*
X119862600Y-135636000D03*
D16*
X107822600Y-146094000D03*
X117932600Y-146094000D03*
X110362600Y-146094000D03*
X120472600Y-146094000D03*
D17*
X106273600Y-138100000D03*
X122021600Y-138100000D03*
D18*
X113030000Y-156260800D03*
D19*
X113030000Y-158800800D03*
D20*
X126644400Y-143967200D03*
X125374400Y-143967200D03*
X126644400Y-142697200D03*
X125374400Y-142697200D03*
X126644400Y-141427200D03*
X125374400Y-141427200D03*
X126644400Y-140157200D03*
X125374400Y-140157200D03*
X126644400Y-138887200D03*
X125374400Y-138887200D03*
X126644400Y-137617200D03*
X125374400Y-137617200D03*
D21*
X113891924Y-129427277D03*
X114891924Y-129427277D03*
X113091924Y-128627277D03*
X115691924Y-128627277D03*
D22*
X114391924Y-128127277D03*
D21*
X113091924Y-127627277D03*
X115691924Y-127627277D03*
X113891924Y-126827277D03*
X114891924Y-126827277D03*
D23*
X127508000Y-148386800D03*
D20*
X101650800Y-143967200D03*
X102920800Y-143967200D03*
X101650800Y-142697200D03*
X102920800Y-142697200D03*
X101650800Y-141427200D03*
X102920800Y-141427200D03*
X101650800Y-140157200D03*
X102920800Y-140157200D03*
X101650800Y-138887200D03*
X102920800Y-138887200D03*
X101650800Y-137617200D03*
X102920800Y-137617200D03*
D24*
X101854000Y-135534400D03*
X108141076Y-129223076D03*
X104394000Y-150164800D03*
X98552000Y-132994400D03*
X122326400Y-128930400D03*
X103987600Y-155041600D03*
X107391200Y-126695200D03*
X115011200Y-157784800D03*
X113588800Y-140716000D03*
X97790000Y-140309600D03*
X102158800Y-146202400D03*
X110998000Y-128372300D03*
X120294400Y-139547600D03*
X122834400Y-133858000D03*
X115366800Y-146304000D03*
X112725200Y-142798800D03*
X111963200Y-151130000D03*
X124612400Y-151282400D03*
X111506000Y-147269200D03*
X129138500Y-144932400D03*
X131451591Y-141822001D03*
X122936000Y-146558000D03*
X115722400Y-152958800D03*
X114249200Y-149352000D03*
X128676400Y-134213600D03*
X132130800Y-139700000D03*
X130403600Y-142697200D03*
X133197600Y-139141200D03*
X127050800Y-152650440D03*
D25*
X111404400Y-122180100D03*
D24*
X117246400Y-137312400D03*
D25*
X114219534Y-124774043D03*
D24*
X120650000Y-134315200D03*
X122072400Y-130403600D03*
X120091200Y-138176000D03*
X108204000Y-137363200D03*
X109626400Y-137464800D03*
X114401600Y-131927600D03*
X104495600Y-132334000D03*
X113284000Y-136652000D03*
X106979900Y-147218400D03*
X111048800Y-129286000D03*
X104444800Y-134975600D03*
X130403600Y-135972298D03*
X129895600Y-133068900D03*
X133400800Y-142900400D03*
X129540000Y-141986000D03*
X115138824Y-124875775D03*
X111404400Y-125218440D03*
X126542800Y-127457200D03*
X121564400Y-124311160D03*
X109626400Y-122834400D03*
X107899200Y-123342400D03*
X117246400Y-124612400D03*
X126288800Y-125933200D03*
X112064800Y-124002800D03*
X120192800Y-127355600D03*
X126695200Y-126644400D03*
X118059200Y-129184400D03*
X118059200Y-128357897D03*
X117802243Y-127732095D03*
X117856000Y-125120400D03*
X125526800Y-125120400D03*
D25*
X106375200Y-134569200D03*
D24*
X107289600Y-128118100D03*
D26*
X105768160Y-128673840D02*
X103759000Y-130683000D01*
X110998000Y-128372300D02*
X110696460Y-128673840D01*
X110696460Y-128673840D02*
X105768160Y-128673840D01*
X103759000Y-130683000D02*
X103759000Y-144602200D01*
X103759000Y-144602200D02*
X102158800Y-146202400D01*
X126801700Y-147269200D02*
X111506000Y-147269200D01*
X129138500Y-144932400D02*
X126801700Y-147269200D01*
D27*
X96012000Y-141231717D02*
X96012000Y-145897600D01*
X96012000Y-145897600D02*
X97282000Y-147167600D01*
X104292400Y-152095200D02*
X108153200Y-152095200D01*
X99364800Y-147167600D02*
X104292400Y-152095200D01*
X97790000Y-139704400D02*
X97539317Y-139704400D01*
X108153200Y-152095200D02*
X109372400Y-150876000D01*
X97539317Y-139704400D02*
X96012000Y-141231717D01*
X98755200Y-147167600D02*
X99364800Y-147167600D01*
X98824630Y-130997912D02*
X97790000Y-132032542D01*
X97282000Y-147167600D02*
X98755200Y-147167600D01*
X97790000Y-132032542D02*
X97790000Y-139704400D01*
X127558800Y-133096000D02*
X128676400Y-134213600D01*
X100431600Y-129082800D02*
X104089200Y-125425200D01*
X109524800Y-125831600D02*
X115265200Y-125831600D01*
X117195600Y-131699000D02*
X118592600Y-133096000D01*
X104089200Y-125425200D02*
X109118400Y-125425200D01*
X115265200Y-125831600D02*
X117195600Y-127762000D01*
X118592600Y-133096000D02*
X127558800Y-133096000D01*
X117195600Y-127762000D02*
X117195600Y-131699000D01*
X109118400Y-125425200D02*
X109524800Y-125831600D01*
X125956357Y-135636000D02*
X130403600Y-140083243D01*
X130403600Y-140083243D02*
X131467043Y-139019800D01*
X127050800Y-152650440D02*
X130403600Y-149297640D01*
X130403600Y-149297640D02*
X130403600Y-142697200D01*
X130403600Y-140083243D02*
X130403600Y-142697200D01*
X133076200Y-139019800D02*
X133197600Y-139141200D01*
X119862600Y-135636000D02*
X125956357Y-135636000D01*
X131467043Y-139019800D02*
X133076200Y-139019800D01*
D26*
X114219534Y-122223001D02*
X114219534Y-124774043D01*
X114176633Y-122180100D02*
X114219534Y-122223001D01*
X111404400Y-122180100D02*
X114176633Y-122180100D01*
X106979900Y-147218400D02*
X106791010Y-147407290D01*
X106791010Y-147407290D02*
X102599307Y-147407290D01*
X100311737Y-145119720D02*
X97321258Y-145119720D01*
X102599307Y-147407290D02*
X100311737Y-145119720D01*
X108864088Y-129286000D02*
X111048800Y-129286000D01*
X104444800Y-133705288D02*
X108864088Y-129286000D01*
X104444800Y-134975600D02*
X104444800Y-133705288D01*
X130403600Y-135972298D02*
X129895600Y-135464298D01*
X129895600Y-135464298D02*
X129895600Y-133068900D01*
X126739380Y-153206180D02*
X127362220Y-153206180D01*
X127362220Y-153206180D02*
X131267200Y-149301200D01*
X126495060Y-152961860D02*
X126739380Y-153206180D01*
X131267200Y-149301200D02*
X131267200Y-143814800D01*
X132181600Y-142900400D02*
X133400800Y-142900400D01*
X129641600Y-142087600D02*
X129641600Y-149273704D01*
X131267200Y-143814800D02*
X132181600Y-142900400D01*
X129540000Y-141986000D02*
X129641600Y-142087600D01*
X126495060Y-152420244D02*
X126495060Y-152961860D01*
X129641600Y-149273704D02*
X126495060Y-152420244D01*
X125984000Y-128016000D02*
X118966186Y-128016000D01*
X116636800Y-125686614D02*
X116636800Y-123826464D01*
X120849640Y-123596400D02*
X121564400Y-124311160D01*
X116866864Y-123596400D02*
X120849640Y-123596400D01*
X118966186Y-128016000D02*
X116636800Y-125686614D01*
X126542800Y-127457200D02*
X125984000Y-128016000D01*
X116636800Y-123826464D02*
X116866864Y-123596400D01*
X117551200Y-125679200D02*
X126034800Y-125679200D01*
X117246400Y-124612400D02*
X117348000Y-124714000D01*
X126034800Y-125679200D02*
X126288800Y-125933200D01*
X117348000Y-124714000D02*
X117348000Y-125476000D01*
X117348000Y-125476000D02*
X117551200Y-125679200D01*
X126695200Y-126644400D02*
X120904000Y-126644400D01*
X120904000Y-126644400D02*
X120192800Y-127355600D01*
X125526800Y-125120400D02*
X117856000Y-125120400D01*
X112039400Y-134569200D02*
X106375200Y-134569200D01*
X113512600Y-130124200D02*
X113512600Y-133096000D01*
X107563900Y-127843800D02*
X111232200Y-127843800D01*
X107289600Y-128118100D02*
X107563900Y-127843800D01*
X113512600Y-133096000D02*
X112039400Y-134569200D01*
X111232200Y-127843800D02*
X113512600Y-130124200D01*
M02*
