G04 #@! TF.GenerationSoftware,KiCad,Pcbnew,7.0.7*
G04 #@! TF.CreationDate,2024-10-22T13:50:40-07:00*
G04 #@! TF.ProjectId,ESP_POE_1.4a,4553505f-504f-4455-9f31-2e34612e6b69,K*
G04 #@! TF.SameCoordinates,Original*
G04 #@! TF.FileFunction,Legend,Bot*
G04 #@! TF.FilePolarity,Positive*
%FSLAX46Y46*%
G04 Gerber Fmt 4.6, Leading zero omitted, Abs format (unit mm)*
G04 Created by KiCad (PCBNEW 7.0.7) date 2024-10-22 13:50:40*
%MOMM*%
%LPD*%
G01*
G04 APERTURE LIST*
%ADD10C,0.254000*%
%ADD11C,0.150000*%
%ADD12C,0.190500*%
%ADD13C,0.222250*%
%ADD14C,0.508000*%
%ADD15C,0.127000*%
%ADD16C,0.200000*%
%ADD17C,0.400000*%
%ADD18C,0.600000*%
%ADD19C,0.152400*%
G04 APERTURE END LIST*
D10*
X98607251Y-137675257D02*
X98655632Y-137626876D01*
X98655632Y-137626876D02*
X98704012Y-137481733D01*
X98704012Y-137481733D02*
X98704012Y-137384971D01*
X98704012Y-137384971D02*
X98655632Y-137239828D01*
X98655632Y-137239828D02*
X98558870Y-137143066D01*
X98558870Y-137143066D02*
X98462108Y-137094685D01*
X98462108Y-137094685D02*
X98268584Y-137046304D01*
X98268584Y-137046304D02*
X98123441Y-137046304D01*
X98123441Y-137046304D02*
X97929917Y-137094685D01*
X97929917Y-137094685D02*
X97833155Y-137143066D01*
X97833155Y-137143066D02*
X97736393Y-137239828D01*
X97736393Y-137239828D02*
X97688012Y-137384971D01*
X97688012Y-137384971D02*
X97688012Y-137481733D01*
X97688012Y-137481733D02*
X97736393Y-137626876D01*
X97736393Y-137626876D02*
X97784774Y-137675257D01*
X98704012Y-138642876D02*
X98704012Y-138062304D01*
X98704012Y-138352590D02*
X97688012Y-138352590D01*
X97688012Y-138352590D02*
X97833155Y-138255828D01*
X97833155Y-138255828D02*
X97929917Y-138159066D01*
X97929917Y-138159066D02*
X97978298Y-138062304D01*
X98704012Y-139126685D02*
X98704012Y-139320209D01*
X98704012Y-139320209D02*
X98655632Y-139416971D01*
X98655632Y-139416971D02*
X98607251Y-139465352D01*
X98607251Y-139465352D02*
X98462108Y-139562114D01*
X98462108Y-139562114D02*
X98268584Y-139610495D01*
X98268584Y-139610495D02*
X97881536Y-139610495D01*
X97881536Y-139610495D02*
X97784774Y-139562114D01*
X97784774Y-139562114D02*
X97736393Y-139513733D01*
X97736393Y-139513733D02*
X97688012Y-139416971D01*
X97688012Y-139416971D02*
X97688012Y-139223447D01*
X97688012Y-139223447D02*
X97736393Y-139126685D01*
X97736393Y-139126685D02*
X97784774Y-139078304D01*
X97784774Y-139078304D02*
X97881536Y-139029923D01*
X97881536Y-139029923D02*
X98123441Y-139029923D01*
X98123441Y-139029923D02*
X98220203Y-139078304D01*
X98220203Y-139078304D02*
X98268584Y-139126685D01*
X98268584Y-139126685D02*
X98316965Y-139223447D01*
X98316965Y-139223447D02*
X98316965Y-139416971D01*
X98316965Y-139416971D02*
X98268584Y-139513733D01*
X98268584Y-139513733D02*
X98220203Y-139562114D01*
X98220203Y-139562114D02*
X98123441Y-139610495D01*
D11*
X101543709Y-125369771D02*
X101543709Y-125036438D01*
X102067519Y-125036438D02*
X101067519Y-125036438D01*
X101067519Y-125036438D02*
X101067519Y-125512628D01*
X102067519Y-125893581D02*
X101067519Y-125893581D01*
X102067519Y-126369771D02*
X101067519Y-126369771D01*
X101067519Y-126369771D02*
X101067519Y-126607866D01*
X101067519Y-126607866D02*
X101115138Y-126750723D01*
X101115138Y-126750723D02*
X101210376Y-126845961D01*
X101210376Y-126845961D02*
X101305614Y-126893580D01*
X101305614Y-126893580D02*
X101496090Y-126941199D01*
X101496090Y-126941199D02*
X101638947Y-126941199D01*
X101638947Y-126941199D02*
X101829423Y-126893580D01*
X101829423Y-126893580D02*
X101924661Y-126845961D01*
X101924661Y-126845961D02*
X102019900Y-126750723D01*
X102019900Y-126750723D02*
X102067519Y-126607866D01*
X102067519Y-126607866D02*
X102067519Y-126369771D01*
X102067519Y-127893580D02*
X102067519Y-127322152D01*
X102067519Y-127607866D02*
X101067519Y-127607866D01*
X101067519Y-127607866D02*
X101210376Y-127512628D01*
X101210376Y-127512628D02*
X101305614Y-127417390D01*
X101305614Y-127417390D02*
X101353233Y-127322152D01*
D10*
X118190651Y-148420667D02*
X118239032Y-148372286D01*
X118239032Y-148372286D02*
X118287412Y-148227143D01*
X118287412Y-148227143D02*
X118287412Y-148130381D01*
X118287412Y-148130381D02*
X118239032Y-147985238D01*
X118239032Y-147985238D02*
X118142270Y-147888476D01*
X118142270Y-147888476D02*
X118045508Y-147840095D01*
X118045508Y-147840095D02*
X117851984Y-147791714D01*
X117851984Y-147791714D02*
X117706841Y-147791714D01*
X117706841Y-147791714D02*
X117513317Y-147840095D01*
X117513317Y-147840095D02*
X117416555Y-147888476D01*
X117416555Y-147888476D02*
X117319793Y-147985238D01*
X117319793Y-147985238D02*
X117271412Y-148130381D01*
X117271412Y-148130381D02*
X117271412Y-148227143D01*
X117271412Y-148227143D02*
X117319793Y-148372286D01*
X117319793Y-148372286D02*
X117368174Y-148420667D01*
X117368174Y-148807714D02*
X117319793Y-148856095D01*
X117319793Y-148856095D02*
X117271412Y-148952857D01*
X117271412Y-148952857D02*
X117271412Y-149194762D01*
X117271412Y-149194762D02*
X117319793Y-149291524D01*
X117319793Y-149291524D02*
X117368174Y-149339905D01*
X117368174Y-149339905D02*
X117464936Y-149388286D01*
X117464936Y-149388286D02*
X117561698Y-149388286D01*
X117561698Y-149388286D02*
X117706841Y-149339905D01*
X117706841Y-149339905D02*
X118287412Y-148759333D01*
X118287412Y-148759333D02*
X118287412Y-149388286D01*
X120236342Y-151007451D02*
X120284723Y-151055832D01*
X120284723Y-151055832D02*
X120429866Y-151104212D01*
X120429866Y-151104212D02*
X120526628Y-151104212D01*
X120526628Y-151104212D02*
X120671771Y-151055832D01*
X120671771Y-151055832D02*
X120768533Y-150959070D01*
X120768533Y-150959070D02*
X120816914Y-150862308D01*
X120816914Y-150862308D02*
X120865295Y-150668784D01*
X120865295Y-150668784D02*
X120865295Y-150523641D01*
X120865295Y-150523641D02*
X120816914Y-150330117D01*
X120816914Y-150330117D02*
X120768533Y-150233355D01*
X120768533Y-150233355D02*
X120671771Y-150136593D01*
X120671771Y-150136593D02*
X120526628Y-150088212D01*
X120526628Y-150088212D02*
X120429866Y-150088212D01*
X120429866Y-150088212D02*
X120284723Y-150136593D01*
X120284723Y-150136593D02*
X120236342Y-150184974D01*
X119849295Y-150184974D02*
X119800914Y-150136593D01*
X119800914Y-150136593D02*
X119704152Y-150088212D01*
X119704152Y-150088212D02*
X119462247Y-150088212D01*
X119462247Y-150088212D02*
X119365485Y-150136593D01*
X119365485Y-150136593D02*
X119317104Y-150184974D01*
X119317104Y-150184974D02*
X119268723Y-150281736D01*
X119268723Y-150281736D02*
X119268723Y-150378498D01*
X119268723Y-150378498D02*
X119317104Y-150523641D01*
X119317104Y-150523641D02*
X119897676Y-151104212D01*
X119897676Y-151104212D02*
X119268723Y-151104212D01*
X118639771Y-150088212D02*
X118543009Y-150088212D01*
X118543009Y-150088212D02*
X118446247Y-150136593D01*
X118446247Y-150136593D02*
X118397866Y-150184974D01*
X118397866Y-150184974D02*
X118349485Y-150281736D01*
X118349485Y-150281736D02*
X118301104Y-150475260D01*
X118301104Y-150475260D02*
X118301104Y-150717165D01*
X118301104Y-150717165D02*
X118349485Y-150910689D01*
X118349485Y-150910689D02*
X118397866Y-151007451D01*
X118397866Y-151007451D02*
X118446247Y-151055832D01*
X118446247Y-151055832D02*
X118543009Y-151104212D01*
X118543009Y-151104212D02*
X118639771Y-151104212D01*
X118639771Y-151104212D02*
X118736533Y-151055832D01*
X118736533Y-151055832D02*
X118784914Y-151007451D01*
X118784914Y-151007451D02*
X118833295Y-150910689D01*
X118833295Y-150910689D02*
X118881676Y-150717165D01*
X118881676Y-150717165D02*
X118881676Y-150475260D01*
X118881676Y-150475260D02*
X118833295Y-150281736D01*
X118833295Y-150281736D02*
X118784914Y-150184974D01*
X118784914Y-150184974D02*
X118736533Y-150136593D01*
X118736533Y-150136593D02*
X118639771Y-150088212D01*
X119474342Y-155731851D02*
X119522723Y-155780232D01*
X119522723Y-155780232D02*
X119667866Y-155828612D01*
X119667866Y-155828612D02*
X119764628Y-155828612D01*
X119764628Y-155828612D02*
X119909771Y-155780232D01*
X119909771Y-155780232D02*
X120006533Y-155683470D01*
X120006533Y-155683470D02*
X120054914Y-155586708D01*
X120054914Y-155586708D02*
X120103295Y-155393184D01*
X120103295Y-155393184D02*
X120103295Y-155248041D01*
X120103295Y-155248041D02*
X120054914Y-155054517D01*
X120054914Y-155054517D02*
X120006533Y-154957755D01*
X120006533Y-154957755D02*
X119909771Y-154860993D01*
X119909771Y-154860993D02*
X119764628Y-154812612D01*
X119764628Y-154812612D02*
X119667866Y-154812612D01*
X119667866Y-154812612D02*
X119522723Y-154860993D01*
X119522723Y-154860993D02*
X119474342Y-154909374D01*
X119087295Y-154909374D02*
X119038914Y-154860993D01*
X119038914Y-154860993D02*
X118942152Y-154812612D01*
X118942152Y-154812612D02*
X118700247Y-154812612D01*
X118700247Y-154812612D02*
X118603485Y-154860993D01*
X118603485Y-154860993D02*
X118555104Y-154909374D01*
X118555104Y-154909374D02*
X118506723Y-155006136D01*
X118506723Y-155006136D02*
X118506723Y-155102898D01*
X118506723Y-155102898D02*
X118555104Y-155248041D01*
X118555104Y-155248041D02*
X119135676Y-155828612D01*
X119135676Y-155828612D02*
X118506723Y-155828612D01*
X118168057Y-154812612D02*
X117539104Y-154812612D01*
X117539104Y-154812612D02*
X117877771Y-155199660D01*
X117877771Y-155199660D02*
X117732628Y-155199660D01*
X117732628Y-155199660D02*
X117635866Y-155248041D01*
X117635866Y-155248041D02*
X117587485Y-155296422D01*
X117587485Y-155296422D02*
X117539104Y-155393184D01*
X117539104Y-155393184D02*
X117539104Y-155635089D01*
X117539104Y-155635089D02*
X117587485Y-155731851D01*
X117587485Y-155731851D02*
X117635866Y-155780232D01*
X117635866Y-155780232D02*
X117732628Y-155828612D01*
X117732628Y-155828612D02*
X118022914Y-155828612D01*
X118022914Y-155828612D02*
X118119676Y-155780232D01*
X118119676Y-155780232D02*
X118168057Y-155731851D01*
D12*
X124815599Y-133464009D02*
X125069599Y-133101152D01*
X125251028Y-133464009D02*
X125251028Y-132702009D01*
X125251028Y-132702009D02*
X124960742Y-132702009D01*
X124960742Y-132702009D02*
X124888171Y-132738295D01*
X124888171Y-132738295D02*
X124851885Y-132774581D01*
X124851885Y-132774581D02*
X124815599Y-132847152D01*
X124815599Y-132847152D02*
X124815599Y-132956009D01*
X124815599Y-132956009D02*
X124851885Y-133028581D01*
X124851885Y-133028581D02*
X124888171Y-133064866D01*
X124888171Y-133064866D02*
X124960742Y-133101152D01*
X124960742Y-133101152D02*
X125251028Y-133101152D01*
X124561599Y-132702009D02*
X124089885Y-132702009D01*
X124089885Y-132702009D02*
X124343885Y-132992295D01*
X124343885Y-132992295D02*
X124235028Y-132992295D01*
X124235028Y-132992295D02*
X124162457Y-133028581D01*
X124162457Y-133028581D02*
X124126171Y-133064866D01*
X124126171Y-133064866D02*
X124089885Y-133137438D01*
X124089885Y-133137438D02*
X124089885Y-133318866D01*
X124089885Y-133318866D02*
X124126171Y-133391438D01*
X124126171Y-133391438D02*
X124162457Y-133427724D01*
X124162457Y-133427724D02*
X124235028Y-133464009D01*
X124235028Y-133464009D02*
X124452742Y-133464009D01*
X124452742Y-133464009D02*
X124525314Y-133427724D01*
X124525314Y-133427724D02*
X124561599Y-133391438D01*
X123529561Y-135922656D02*
X123493276Y-135958942D01*
X123493276Y-135958942D02*
X123456990Y-136067799D01*
X123456990Y-136067799D02*
X123456990Y-136140371D01*
X123456990Y-136140371D02*
X123493276Y-136249228D01*
X123493276Y-136249228D02*
X123565847Y-136321799D01*
X123565847Y-136321799D02*
X123638418Y-136358085D01*
X123638418Y-136358085D02*
X123783561Y-136394371D01*
X123783561Y-136394371D02*
X123892418Y-136394371D01*
X123892418Y-136394371D02*
X124037561Y-136358085D01*
X124037561Y-136358085D02*
X124110133Y-136321799D01*
X124110133Y-136321799D02*
X124182704Y-136249228D01*
X124182704Y-136249228D02*
X124218990Y-136140371D01*
X124218990Y-136140371D02*
X124218990Y-136067799D01*
X124218990Y-136067799D02*
X124182704Y-135958942D01*
X124182704Y-135958942D02*
X124146418Y-135922656D01*
X123456990Y-135196942D02*
X123456990Y-135632371D01*
X123456990Y-135414656D02*
X124218990Y-135414656D01*
X124218990Y-135414656D02*
X124110133Y-135487228D01*
X124110133Y-135487228D02*
X124037561Y-135559799D01*
X124037561Y-135559799D02*
X124001276Y-135632371D01*
X124218990Y-134725228D02*
X124218990Y-134652657D01*
X124218990Y-134652657D02*
X124182704Y-134580085D01*
X124182704Y-134580085D02*
X124146418Y-134543800D01*
X124146418Y-134543800D02*
X124073847Y-134507514D01*
X124073847Y-134507514D02*
X123928704Y-134471228D01*
X123928704Y-134471228D02*
X123747276Y-134471228D01*
X123747276Y-134471228D02*
X123602133Y-134507514D01*
X123602133Y-134507514D02*
X123529561Y-134543800D01*
X123529561Y-134543800D02*
X123493276Y-134580085D01*
X123493276Y-134580085D02*
X123456990Y-134652657D01*
X123456990Y-134652657D02*
X123456990Y-134725228D01*
X123456990Y-134725228D02*
X123493276Y-134797800D01*
X123493276Y-134797800D02*
X123529561Y-134834085D01*
X123529561Y-134834085D02*
X123602133Y-134870371D01*
X123602133Y-134870371D02*
X123747276Y-134906657D01*
X123747276Y-134906657D02*
X123928704Y-134906657D01*
X123928704Y-134906657D02*
X124073847Y-134870371D01*
X124073847Y-134870371D02*
X124146418Y-134834085D01*
X124146418Y-134834085D02*
X124182704Y-134797800D01*
X124182704Y-134797800D02*
X124218990Y-134725228D01*
X106026856Y-128717838D02*
X106063142Y-128754124D01*
X106063142Y-128754124D02*
X106171999Y-128790409D01*
X106171999Y-128790409D02*
X106244571Y-128790409D01*
X106244571Y-128790409D02*
X106353428Y-128754124D01*
X106353428Y-128754124D02*
X106425999Y-128681552D01*
X106425999Y-128681552D02*
X106462285Y-128608981D01*
X106462285Y-128608981D02*
X106498571Y-128463838D01*
X106498571Y-128463838D02*
X106498571Y-128354981D01*
X106498571Y-128354981D02*
X106462285Y-128209838D01*
X106462285Y-128209838D02*
X106425999Y-128137266D01*
X106425999Y-128137266D02*
X106353428Y-128064695D01*
X106353428Y-128064695D02*
X106244571Y-128028409D01*
X106244571Y-128028409D02*
X106171999Y-128028409D01*
X106171999Y-128028409D02*
X106063142Y-128064695D01*
X106063142Y-128064695D02*
X106026856Y-128100981D01*
X105301142Y-128790409D02*
X105736571Y-128790409D01*
X105518856Y-128790409D02*
X105518856Y-128028409D01*
X105518856Y-128028409D02*
X105591428Y-128137266D01*
X105591428Y-128137266D02*
X105663999Y-128209838D01*
X105663999Y-128209838D02*
X105736571Y-128246124D01*
X104865714Y-128354981D02*
X104938285Y-128318695D01*
X104938285Y-128318695D02*
X104974571Y-128282409D01*
X104974571Y-128282409D02*
X105010857Y-128209838D01*
X105010857Y-128209838D02*
X105010857Y-128173552D01*
X105010857Y-128173552D02*
X104974571Y-128100981D01*
X104974571Y-128100981D02*
X104938285Y-128064695D01*
X104938285Y-128064695D02*
X104865714Y-128028409D01*
X104865714Y-128028409D02*
X104720571Y-128028409D01*
X104720571Y-128028409D02*
X104648000Y-128064695D01*
X104648000Y-128064695D02*
X104611714Y-128100981D01*
X104611714Y-128100981D02*
X104575428Y-128173552D01*
X104575428Y-128173552D02*
X104575428Y-128209838D01*
X104575428Y-128209838D02*
X104611714Y-128282409D01*
X104611714Y-128282409D02*
X104648000Y-128318695D01*
X104648000Y-128318695D02*
X104720571Y-128354981D01*
X104720571Y-128354981D02*
X104865714Y-128354981D01*
X104865714Y-128354981D02*
X104938285Y-128391266D01*
X104938285Y-128391266D02*
X104974571Y-128427552D01*
X104974571Y-128427552D02*
X105010857Y-128500124D01*
X105010857Y-128500124D02*
X105010857Y-128645266D01*
X105010857Y-128645266D02*
X104974571Y-128717838D01*
X104974571Y-128717838D02*
X104938285Y-128754124D01*
X104938285Y-128754124D02*
X104865714Y-128790409D01*
X104865714Y-128790409D02*
X104720571Y-128790409D01*
X104720571Y-128790409D02*
X104648000Y-128754124D01*
X104648000Y-128754124D02*
X104611714Y-128717838D01*
X104611714Y-128717838D02*
X104575428Y-128645266D01*
X104575428Y-128645266D02*
X104575428Y-128500124D01*
X104575428Y-128500124D02*
X104611714Y-128427552D01*
X104611714Y-128427552D02*
X104648000Y-128391266D01*
X104648000Y-128391266D02*
X104720571Y-128354981D01*
X119728343Y-127060161D02*
X119692057Y-127023876D01*
X119692057Y-127023876D02*
X119583200Y-126987590D01*
X119583200Y-126987590D02*
X119510628Y-126987590D01*
X119510628Y-126987590D02*
X119401771Y-127023876D01*
X119401771Y-127023876D02*
X119329200Y-127096447D01*
X119329200Y-127096447D02*
X119292914Y-127169018D01*
X119292914Y-127169018D02*
X119256628Y-127314161D01*
X119256628Y-127314161D02*
X119256628Y-127423018D01*
X119256628Y-127423018D02*
X119292914Y-127568161D01*
X119292914Y-127568161D02*
X119329200Y-127640733D01*
X119329200Y-127640733D02*
X119401771Y-127713304D01*
X119401771Y-127713304D02*
X119510628Y-127749590D01*
X119510628Y-127749590D02*
X119583200Y-127749590D01*
X119583200Y-127749590D02*
X119692057Y-127713304D01*
X119692057Y-127713304D02*
X119728343Y-127677018D01*
X120018628Y-127677018D02*
X120054914Y-127713304D01*
X120054914Y-127713304D02*
X120127486Y-127749590D01*
X120127486Y-127749590D02*
X120308914Y-127749590D01*
X120308914Y-127749590D02*
X120381486Y-127713304D01*
X120381486Y-127713304D02*
X120417771Y-127677018D01*
X120417771Y-127677018D02*
X120454057Y-127604447D01*
X120454057Y-127604447D02*
X120454057Y-127531876D01*
X120454057Y-127531876D02*
X120417771Y-127423018D01*
X120417771Y-127423018D02*
X119982343Y-126987590D01*
X119982343Y-126987590D02*
X120454057Y-126987590D01*
X121179771Y-126987590D02*
X120744342Y-126987590D01*
X120962057Y-126987590D02*
X120962057Y-127749590D01*
X120962057Y-127749590D02*
X120889485Y-127640733D01*
X120889485Y-127640733D02*
X120816914Y-127568161D01*
X120816914Y-127568161D02*
X120744342Y-127531876D01*
X106865056Y-129505238D02*
X106901342Y-129541524D01*
X106901342Y-129541524D02*
X107010199Y-129577809D01*
X107010199Y-129577809D02*
X107082771Y-129577809D01*
X107082771Y-129577809D02*
X107191628Y-129541524D01*
X107191628Y-129541524D02*
X107264199Y-129468952D01*
X107264199Y-129468952D02*
X107300485Y-129396381D01*
X107300485Y-129396381D02*
X107336771Y-129251238D01*
X107336771Y-129251238D02*
X107336771Y-129142381D01*
X107336771Y-129142381D02*
X107300485Y-128997238D01*
X107300485Y-128997238D02*
X107264199Y-128924666D01*
X107264199Y-128924666D02*
X107191628Y-128852095D01*
X107191628Y-128852095D02*
X107082771Y-128815809D01*
X107082771Y-128815809D02*
X107010199Y-128815809D01*
X107010199Y-128815809D02*
X106901342Y-128852095D01*
X106901342Y-128852095D02*
X106865056Y-128888381D01*
X106139342Y-129577809D02*
X106574771Y-129577809D01*
X106357056Y-129577809D02*
X106357056Y-128815809D01*
X106357056Y-128815809D02*
X106429628Y-128924666D01*
X106429628Y-128924666D02*
X106502199Y-128997238D01*
X106502199Y-128997238D02*
X106574771Y-129033524D01*
X105885342Y-128815809D02*
X105377342Y-128815809D01*
X105377342Y-128815809D02*
X105703914Y-129577809D01*
X122745209Y-136347200D02*
X122745209Y-135984343D01*
X122745209Y-135984343D02*
X121983209Y-135984343D01*
X122745209Y-137000343D02*
X122745209Y-136564914D01*
X122745209Y-136782629D02*
X121983209Y-136782629D01*
X121983209Y-136782629D02*
X122092066Y-136710057D01*
X122092066Y-136710057D02*
X122164638Y-136637486D01*
X122164638Y-136637486D02*
X122200924Y-136564914D01*
X111255314Y-129723848D02*
X110638457Y-129723848D01*
X110638457Y-129723848D02*
X110565885Y-129687562D01*
X110565885Y-129687562D02*
X110529600Y-129651277D01*
X110529600Y-129651277D02*
X110493314Y-129578705D01*
X110493314Y-129578705D02*
X110493314Y-129433562D01*
X110493314Y-129433562D02*
X110529600Y-129360991D01*
X110529600Y-129360991D02*
X110565885Y-129324705D01*
X110565885Y-129324705D02*
X110638457Y-129288419D01*
X110638457Y-129288419D02*
X111255314Y-129288419D01*
X111001314Y-128598991D02*
X110493314Y-128598991D01*
X111291600Y-128780419D02*
X110747314Y-128961848D01*
X110747314Y-128961848D02*
X110747314Y-128490133D01*
X119773990Y-127453570D02*
X119773990Y-127018142D01*
X119011990Y-127235856D02*
X119773990Y-127235856D01*
X119011990Y-126364999D02*
X119011990Y-126800428D01*
X119011990Y-126582713D02*
X119773990Y-126582713D01*
X119773990Y-126582713D02*
X119665133Y-126655285D01*
X119665133Y-126655285D02*
X119592561Y-126727856D01*
X119592561Y-126727856D02*
X119556276Y-126800428D01*
X109753690Y-140926456D02*
X110116547Y-141180456D01*
X109753690Y-141361885D02*
X110515690Y-141361885D01*
X110515690Y-141361885D02*
X110515690Y-141071599D01*
X110515690Y-141071599D02*
X110479404Y-140999028D01*
X110479404Y-140999028D02*
X110443118Y-140962742D01*
X110443118Y-140962742D02*
X110370547Y-140926456D01*
X110370547Y-140926456D02*
X110261690Y-140926456D01*
X110261690Y-140926456D02*
X110189118Y-140962742D01*
X110189118Y-140962742D02*
X110152833Y-140999028D01*
X110152833Y-140999028D02*
X110116547Y-141071599D01*
X110116547Y-141071599D02*
X110116547Y-141361885D01*
X109753690Y-140200742D02*
X109753690Y-140636171D01*
X109753690Y-140418456D02*
X110515690Y-140418456D01*
X110515690Y-140418456D02*
X110406833Y-140491028D01*
X110406833Y-140491028D02*
X110334261Y-140563599D01*
X110334261Y-140563599D02*
X110297976Y-140636171D01*
X110443118Y-139910457D02*
X110479404Y-139874171D01*
X110479404Y-139874171D02*
X110515690Y-139801600D01*
X110515690Y-139801600D02*
X110515690Y-139620171D01*
X110515690Y-139620171D02*
X110479404Y-139547600D01*
X110479404Y-139547600D02*
X110443118Y-139511314D01*
X110443118Y-139511314D02*
X110370547Y-139475028D01*
X110370547Y-139475028D02*
X110297976Y-139475028D01*
X110297976Y-139475028D02*
X110189118Y-139511314D01*
X110189118Y-139511314D02*
X109753690Y-139946742D01*
X109753690Y-139946742D02*
X109753690Y-139475028D01*
X122847390Y-131521199D02*
X123210247Y-131775199D01*
X122847390Y-131956628D02*
X123609390Y-131956628D01*
X123609390Y-131956628D02*
X123609390Y-131666342D01*
X123609390Y-131666342D02*
X123573104Y-131593771D01*
X123573104Y-131593771D02*
X123536818Y-131557485D01*
X123536818Y-131557485D02*
X123464247Y-131521199D01*
X123464247Y-131521199D02*
X123355390Y-131521199D01*
X123355390Y-131521199D02*
X123282818Y-131557485D01*
X123282818Y-131557485D02*
X123246533Y-131593771D01*
X123246533Y-131593771D02*
X123210247Y-131666342D01*
X123210247Y-131666342D02*
X123210247Y-131956628D01*
X123536818Y-131230914D02*
X123573104Y-131194628D01*
X123573104Y-131194628D02*
X123609390Y-131122057D01*
X123609390Y-131122057D02*
X123609390Y-130940628D01*
X123609390Y-130940628D02*
X123573104Y-130868057D01*
X123573104Y-130868057D02*
X123536818Y-130831771D01*
X123536818Y-130831771D02*
X123464247Y-130795485D01*
X123464247Y-130795485D02*
X123391676Y-130795485D01*
X123391676Y-130795485D02*
X123282818Y-130831771D01*
X123282818Y-130831771D02*
X122847390Y-131267199D01*
X122847390Y-131267199D02*
X122847390Y-130795485D01*
X123155238Y-128612900D02*
X123191524Y-128576614D01*
X123191524Y-128576614D02*
X123227809Y-128467757D01*
X123227809Y-128467757D02*
X123227809Y-128395185D01*
X123227809Y-128395185D02*
X123191524Y-128286328D01*
X123191524Y-128286328D02*
X123118952Y-128213757D01*
X123118952Y-128213757D02*
X123046381Y-128177471D01*
X123046381Y-128177471D02*
X122901238Y-128141185D01*
X122901238Y-128141185D02*
X122792381Y-128141185D01*
X122792381Y-128141185D02*
X122647238Y-128177471D01*
X122647238Y-128177471D02*
X122574666Y-128213757D01*
X122574666Y-128213757D02*
X122502095Y-128286328D01*
X122502095Y-128286328D02*
X122465809Y-128395185D01*
X122465809Y-128395185D02*
X122465809Y-128467757D01*
X122465809Y-128467757D02*
X122502095Y-128576614D01*
X122502095Y-128576614D02*
X122538381Y-128612900D01*
X123227809Y-128975757D02*
X123227809Y-129120900D01*
X123227809Y-129120900D02*
X123191524Y-129193471D01*
X123191524Y-129193471D02*
X123155238Y-129229757D01*
X123155238Y-129229757D02*
X123046381Y-129302328D01*
X123046381Y-129302328D02*
X122901238Y-129338614D01*
X122901238Y-129338614D02*
X122610952Y-129338614D01*
X122610952Y-129338614D02*
X122538381Y-129302328D01*
X122538381Y-129302328D02*
X122502095Y-129266043D01*
X122502095Y-129266043D02*
X122465809Y-129193471D01*
X122465809Y-129193471D02*
X122465809Y-129048328D01*
X122465809Y-129048328D02*
X122502095Y-128975757D01*
X122502095Y-128975757D02*
X122538381Y-128939471D01*
X122538381Y-128939471D02*
X122610952Y-128903185D01*
X122610952Y-128903185D02*
X122792381Y-128903185D01*
X122792381Y-128903185D02*
X122864952Y-128939471D01*
X122864952Y-128939471D02*
X122901238Y-128975757D01*
X122901238Y-128975757D02*
X122937524Y-129048328D01*
X122937524Y-129048328D02*
X122937524Y-129193471D01*
X122937524Y-129193471D02*
X122901238Y-129266043D01*
X122901238Y-129266043D02*
X122864952Y-129302328D01*
X122864952Y-129302328D02*
X122792381Y-129338614D01*
X119161559Y-140634066D02*
X119415559Y-140634066D01*
X119415559Y-141033209D02*
X119415559Y-140271209D01*
X119415559Y-140271209D02*
X119052702Y-140271209D01*
X118762416Y-140634066D02*
X118508416Y-140634066D01*
X118399559Y-141033209D02*
X118762416Y-141033209D01*
X118762416Y-141033209D02*
X118762416Y-140271209D01*
X118762416Y-140271209D02*
X118399559Y-140271209D01*
X118181844Y-140271209D02*
X117746416Y-140271209D01*
X117964130Y-141033209D02*
X117964130Y-140271209D01*
X117564987Y-140271209D02*
X117093273Y-140271209D01*
X117093273Y-140271209D02*
X117347273Y-140561495D01*
X117347273Y-140561495D02*
X117238416Y-140561495D01*
X117238416Y-140561495D02*
X117165845Y-140597781D01*
X117165845Y-140597781D02*
X117129559Y-140634066D01*
X117129559Y-140634066D02*
X117093273Y-140706638D01*
X117093273Y-140706638D02*
X117093273Y-140888066D01*
X117093273Y-140888066D02*
X117129559Y-140960638D01*
X117129559Y-140960638D02*
X117165845Y-140996924D01*
X117165845Y-140996924D02*
X117238416Y-141033209D01*
X117238416Y-141033209D02*
X117456130Y-141033209D01*
X117456130Y-141033209D02*
X117528702Y-140996924D01*
X117528702Y-140996924D02*
X117564987Y-140960638D01*
X119107856Y-123507209D02*
X119361856Y-123144352D01*
X119543285Y-123507209D02*
X119543285Y-122745209D01*
X119543285Y-122745209D02*
X119252999Y-122745209D01*
X119252999Y-122745209D02*
X119180428Y-122781495D01*
X119180428Y-122781495D02*
X119144142Y-122817781D01*
X119144142Y-122817781D02*
X119107856Y-122890352D01*
X119107856Y-122890352D02*
X119107856Y-122999209D01*
X119107856Y-122999209D02*
X119144142Y-123071781D01*
X119144142Y-123071781D02*
X119180428Y-123108066D01*
X119180428Y-123108066D02*
X119252999Y-123144352D01*
X119252999Y-123144352D02*
X119543285Y-123144352D01*
X118817571Y-122817781D02*
X118781285Y-122781495D01*
X118781285Y-122781495D02*
X118708714Y-122745209D01*
X118708714Y-122745209D02*
X118527285Y-122745209D01*
X118527285Y-122745209D02*
X118454714Y-122781495D01*
X118454714Y-122781495D02*
X118418428Y-122817781D01*
X118418428Y-122817781D02*
X118382142Y-122890352D01*
X118382142Y-122890352D02*
X118382142Y-122962924D01*
X118382142Y-122962924D02*
X118418428Y-123071781D01*
X118418428Y-123071781D02*
X118853856Y-123507209D01*
X118853856Y-123507209D02*
X118382142Y-123507209D01*
X117692714Y-122745209D02*
X118055571Y-122745209D01*
X118055571Y-122745209D02*
X118091857Y-123108066D01*
X118091857Y-123108066D02*
X118055571Y-123071781D01*
X118055571Y-123071781D02*
X117983000Y-123035495D01*
X117983000Y-123035495D02*
X117801571Y-123035495D01*
X117801571Y-123035495D02*
X117729000Y-123071781D01*
X117729000Y-123071781D02*
X117692714Y-123108066D01*
X117692714Y-123108066D02*
X117656428Y-123180638D01*
X117656428Y-123180638D02*
X117656428Y-123362066D01*
X117656428Y-123362066D02*
X117692714Y-123434638D01*
X117692714Y-123434638D02*
X117729000Y-123470924D01*
X117729000Y-123470924D02*
X117801571Y-123507209D01*
X117801571Y-123507209D02*
X117983000Y-123507209D01*
X117983000Y-123507209D02*
X118055571Y-123470924D01*
X118055571Y-123470924D02*
X118091857Y-123434638D01*
X104375856Y-129048038D02*
X104412142Y-129084324D01*
X104412142Y-129084324D02*
X104520999Y-129120609D01*
X104520999Y-129120609D02*
X104593571Y-129120609D01*
X104593571Y-129120609D02*
X104702428Y-129084324D01*
X104702428Y-129084324D02*
X104774999Y-129011752D01*
X104774999Y-129011752D02*
X104811285Y-128939181D01*
X104811285Y-128939181D02*
X104847571Y-128794038D01*
X104847571Y-128794038D02*
X104847571Y-128685181D01*
X104847571Y-128685181D02*
X104811285Y-128540038D01*
X104811285Y-128540038D02*
X104774999Y-128467466D01*
X104774999Y-128467466D02*
X104702428Y-128394895D01*
X104702428Y-128394895D02*
X104593571Y-128358609D01*
X104593571Y-128358609D02*
X104520999Y-128358609D01*
X104520999Y-128358609D02*
X104412142Y-128394895D01*
X104412142Y-128394895D02*
X104375856Y-128431181D01*
X103650142Y-129120609D02*
X104085571Y-129120609D01*
X103867856Y-129120609D02*
X103867856Y-128358609D01*
X103867856Y-128358609D02*
X103940428Y-128467466D01*
X103940428Y-128467466D02*
X104012999Y-128540038D01*
X104012999Y-128540038D02*
X104085571Y-128576324D01*
X102997000Y-128358609D02*
X103142142Y-128358609D01*
X103142142Y-128358609D02*
X103214714Y-128394895D01*
X103214714Y-128394895D02*
X103251000Y-128431181D01*
X103251000Y-128431181D02*
X103323571Y-128540038D01*
X103323571Y-128540038D02*
X103359857Y-128685181D01*
X103359857Y-128685181D02*
X103359857Y-128975466D01*
X103359857Y-128975466D02*
X103323571Y-129048038D01*
X103323571Y-129048038D02*
X103287285Y-129084324D01*
X103287285Y-129084324D02*
X103214714Y-129120609D01*
X103214714Y-129120609D02*
X103069571Y-129120609D01*
X103069571Y-129120609D02*
X102997000Y-129084324D01*
X102997000Y-129084324D02*
X102960714Y-129048038D01*
X102960714Y-129048038D02*
X102924428Y-128975466D01*
X102924428Y-128975466D02*
X102924428Y-128794038D01*
X102924428Y-128794038D02*
X102960714Y-128721466D01*
X102960714Y-128721466D02*
X102997000Y-128685181D01*
X102997000Y-128685181D02*
X103069571Y-128648895D01*
X103069571Y-128648895D02*
X103214714Y-128648895D01*
X103214714Y-128648895D02*
X103287285Y-128685181D01*
X103287285Y-128685181D02*
X103323571Y-128721466D01*
X103323571Y-128721466D02*
X103359857Y-128794038D01*
X105468056Y-131851109D02*
X105722056Y-131488252D01*
X105903485Y-131851109D02*
X105903485Y-131089109D01*
X105903485Y-131089109D02*
X105613199Y-131089109D01*
X105613199Y-131089109D02*
X105540628Y-131125395D01*
X105540628Y-131125395D02*
X105504342Y-131161681D01*
X105504342Y-131161681D02*
X105468056Y-131234252D01*
X105468056Y-131234252D02*
X105468056Y-131343109D01*
X105468056Y-131343109D02*
X105504342Y-131415681D01*
X105504342Y-131415681D02*
X105540628Y-131451966D01*
X105540628Y-131451966D02*
X105613199Y-131488252D01*
X105613199Y-131488252D02*
X105903485Y-131488252D01*
X105177771Y-131161681D02*
X105141485Y-131125395D01*
X105141485Y-131125395D02*
X105068914Y-131089109D01*
X105068914Y-131089109D02*
X104887485Y-131089109D01*
X104887485Y-131089109D02*
X104814914Y-131125395D01*
X104814914Y-131125395D02*
X104778628Y-131161681D01*
X104778628Y-131161681D02*
X104742342Y-131234252D01*
X104742342Y-131234252D02*
X104742342Y-131306824D01*
X104742342Y-131306824D02*
X104778628Y-131415681D01*
X104778628Y-131415681D02*
X105214056Y-131851109D01*
X105214056Y-131851109D02*
X104742342Y-131851109D01*
X104089200Y-131089109D02*
X104234342Y-131089109D01*
X104234342Y-131089109D02*
X104306914Y-131125395D01*
X104306914Y-131125395D02*
X104343200Y-131161681D01*
X104343200Y-131161681D02*
X104415771Y-131270538D01*
X104415771Y-131270538D02*
X104452057Y-131415681D01*
X104452057Y-131415681D02*
X104452057Y-131705966D01*
X104452057Y-131705966D02*
X104415771Y-131778538D01*
X104415771Y-131778538D02*
X104379485Y-131814824D01*
X104379485Y-131814824D02*
X104306914Y-131851109D01*
X104306914Y-131851109D02*
X104161771Y-131851109D01*
X104161771Y-131851109D02*
X104089200Y-131814824D01*
X104089200Y-131814824D02*
X104052914Y-131778538D01*
X104052914Y-131778538D02*
X104016628Y-131705966D01*
X104016628Y-131705966D02*
X104016628Y-131524538D01*
X104016628Y-131524538D02*
X104052914Y-131451966D01*
X104052914Y-131451966D02*
X104089200Y-131415681D01*
X104089200Y-131415681D02*
X104161771Y-131379395D01*
X104161771Y-131379395D02*
X104306914Y-131379395D01*
X104306914Y-131379395D02*
X104379485Y-131415681D01*
X104379485Y-131415681D02*
X104415771Y-131451966D01*
X104415771Y-131451966D02*
X104452057Y-131524538D01*
X113418256Y-141278138D02*
X113454542Y-141314424D01*
X113454542Y-141314424D02*
X113563399Y-141350709D01*
X113563399Y-141350709D02*
X113635971Y-141350709D01*
X113635971Y-141350709D02*
X113744828Y-141314424D01*
X113744828Y-141314424D02*
X113817399Y-141241852D01*
X113817399Y-141241852D02*
X113853685Y-141169281D01*
X113853685Y-141169281D02*
X113889971Y-141024138D01*
X113889971Y-141024138D02*
X113889971Y-140915281D01*
X113889971Y-140915281D02*
X113853685Y-140770138D01*
X113853685Y-140770138D02*
X113817399Y-140697566D01*
X113817399Y-140697566D02*
X113744828Y-140624995D01*
X113744828Y-140624995D02*
X113635971Y-140588709D01*
X113635971Y-140588709D02*
X113563399Y-140588709D01*
X113563399Y-140588709D02*
X113454542Y-140624995D01*
X113454542Y-140624995D02*
X113418256Y-140661281D01*
X112692542Y-141350709D02*
X113127971Y-141350709D01*
X112910256Y-141350709D02*
X112910256Y-140588709D01*
X112910256Y-140588709D02*
X112982828Y-140697566D01*
X112982828Y-140697566D02*
X113055399Y-140770138D01*
X113055399Y-140770138D02*
X113127971Y-140806424D01*
X112438542Y-140588709D02*
X111966828Y-140588709D01*
X111966828Y-140588709D02*
X112220828Y-140878995D01*
X112220828Y-140878995D02*
X112111971Y-140878995D01*
X112111971Y-140878995D02*
X112039400Y-140915281D01*
X112039400Y-140915281D02*
X112003114Y-140951566D01*
X112003114Y-140951566D02*
X111966828Y-141024138D01*
X111966828Y-141024138D02*
X111966828Y-141205566D01*
X111966828Y-141205566D02*
X112003114Y-141278138D01*
X112003114Y-141278138D02*
X112039400Y-141314424D01*
X112039400Y-141314424D02*
X112111971Y-141350709D01*
X112111971Y-141350709D02*
X112329685Y-141350709D01*
X112329685Y-141350709D02*
X112402257Y-141314424D01*
X112402257Y-141314424D02*
X112438542Y-141278138D01*
X111493590Y-140672456D02*
X111856447Y-140926456D01*
X111493590Y-141107885D02*
X112255590Y-141107885D01*
X112255590Y-141107885D02*
X112255590Y-140817599D01*
X112255590Y-140817599D02*
X112219304Y-140745028D01*
X112219304Y-140745028D02*
X112183018Y-140708742D01*
X112183018Y-140708742D02*
X112110447Y-140672456D01*
X112110447Y-140672456D02*
X112001590Y-140672456D01*
X112001590Y-140672456D02*
X111929018Y-140708742D01*
X111929018Y-140708742D02*
X111892733Y-140745028D01*
X111892733Y-140745028D02*
X111856447Y-140817599D01*
X111856447Y-140817599D02*
X111856447Y-141107885D01*
X111493590Y-139946742D02*
X111493590Y-140382171D01*
X111493590Y-140164456D02*
X112255590Y-140164456D01*
X112255590Y-140164456D02*
X112146733Y-140237028D01*
X112146733Y-140237028D02*
X112074161Y-140309599D01*
X112074161Y-140309599D02*
X112037876Y-140382171D01*
X111493590Y-139221028D02*
X111493590Y-139656457D01*
X111493590Y-139438742D02*
X112255590Y-139438742D01*
X112255590Y-139438742D02*
X112146733Y-139511314D01*
X112146733Y-139511314D02*
X112074161Y-139583885D01*
X112074161Y-139583885D02*
X112037876Y-139656457D01*
X108508509Y-132529943D02*
X108145652Y-132275943D01*
X108508509Y-132094514D02*
X107746509Y-132094514D01*
X107746509Y-132094514D02*
X107746509Y-132384800D01*
X107746509Y-132384800D02*
X107782795Y-132457371D01*
X107782795Y-132457371D02*
X107819081Y-132493657D01*
X107819081Y-132493657D02*
X107891652Y-132529943D01*
X107891652Y-132529943D02*
X108000509Y-132529943D01*
X108000509Y-132529943D02*
X108073081Y-132493657D01*
X108073081Y-132493657D02*
X108109366Y-132457371D01*
X108109366Y-132457371D02*
X108145652Y-132384800D01*
X108145652Y-132384800D02*
X108145652Y-132094514D01*
X108508509Y-133255657D02*
X108508509Y-132820228D01*
X108508509Y-133037943D02*
X107746509Y-133037943D01*
X107746509Y-133037943D02*
X107855366Y-132965371D01*
X107855366Y-132965371D02*
X107927938Y-132892800D01*
X107927938Y-132892800D02*
X107964224Y-132820228D01*
X107746509Y-133727371D02*
X107746509Y-133799942D01*
X107746509Y-133799942D02*
X107782795Y-133872514D01*
X107782795Y-133872514D02*
X107819081Y-133908800D01*
X107819081Y-133908800D02*
X107891652Y-133945085D01*
X107891652Y-133945085D02*
X108036795Y-133981371D01*
X108036795Y-133981371D02*
X108218224Y-133981371D01*
X108218224Y-133981371D02*
X108363366Y-133945085D01*
X108363366Y-133945085D02*
X108435938Y-133908800D01*
X108435938Y-133908800D02*
X108472224Y-133872514D01*
X108472224Y-133872514D02*
X108508509Y-133799942D01*
X108508509Y-133799942D02*
X108508509Y-133727371D01*
X108508509Y-133727371D02*
X108472224Y-133654800D01*
X108472224Y-133654800D02*
X108435938Y-133618514D01*
X108435938Y-133618514D02*
X108363366Y-133582228D01*
X108363366Y-133582228D02*
X108218224Y-133545942D01*
X108218224Y-133545942D02*
X108036795Y-133545942D01*
X108036795Y-133545942D02*
X107891652Y-133582228D01*
X107891652Y-133582228D02*
X107819081Y-133618514D01*
X107819081Y-133618514D02*
X107782795Y-133654800D01*
X107782795Y-133654800D02*
X107746509Y-133727371D01*
X110680790Y-140487399D02*
X110680790Y-140051971D01*
X109918790Y-140269685D02*
X110680790Y-140269685D01*
X110680790Y-139906828D02*
X109918790Y-139652828D01*
X109918790Y-139652828D02*
X110680790Y-139398828D01*
X109955076Y-139181114D02*
X109918790Y-139072257D01*
X109918790Y-139072257D02*
X109918790Y-138890828D01*
X109918790Y-138890828D02*
X109955076Y-138818257D01*
X109955076Y-138818257D02*
X109991361Y-138781971D01*
X109991361Y-138781971D02*
X110063933Y-138745685D01*
X110063933Y-138745685D02*
X110136504Y-138745685D01*
X110136504Y-138745685D02*
X110209076Y-138781971D01*
X110209076Y-138781971D02*
X110245361Y-138818257D01*
X110245361Y-138818257D02*
X110281647Y-138890828D01*
X110281647Y-138890828D02*
X110317933Y-139035971D01*
X110317933Y-139035971D02*
X110354218Y-139108542D01*
X110354218Y-139108542D02*
X110390504Y-139144828D01*
X110390504Y-139144828D02*
X110463076Y-139181114D01*
X110463076Y-139181114D02*
X110535647Y-139181114D01*
X110535647Y-139181114D02*
X110608218Y-139144828D01*
X110608218Y-139144828D02*
X110644504Y-139108542D01*
X110644504Y-139108542D02*
X110680790Y-139035971D01*
X110680790Y-139035971D02*
X110680790Y-138854542D01*
X110680790Y-138854542D02*
X110644504Y-138745685D01*
X110608218Y-138455400D02*
X110644504Y-138419114D01*
X110644504Y-138419114D02*
X110680790Y-138346543D01*
X110680790Y-138346543D02*
X110680790Y-138165114D01*
X110680790Y-138165114D02*
X110644504Y-138092543D01*
X110644504Y-138092543D02*
X110608218Y-138056257D01*
X110608218Y-138056257D02*
X110535647Y-138019971D01*
X110535647Y-138019971D02*
X110463076Y-138019971D01*
X110463076Y-138019971D02*
X110354218Y-138056257D01*
X110354218Y-138056257D02*
X109918790Y-138491685D01*
X109918790Y-138491685D02*
X109918790Y-138019971D01*
X114706399Y-139128209D02*
X114270971Y-139128209D01*
X114488685Y-139890209D02*
X114488685Y-139128209D01*
X114125828Y-139128209D02*
X113871828Y-139890209D01*
X113871828Y-139890209D02*
X113617828Y-139128209D01*
X113400114Y-139853924D02*
X113291257Y-139890209D01*
X113291257Y-139890209D02*
X113109828Y-139890209D01*
X113109828Y-139890209D02*
X113037257Y-139853924D01*
X113037257Y-139853924D02*
X113000971Y-139817638D01*
X113000971Y-139817638D02*
X112964685Y-139745066D01*
X112964685Y-139745066D02*
X112964685Y-139672495D01*
X112964685Y-139672495D02*
X113000971Y-139599924D01*
X113000971Y-139599924D02*
X113037257Y-139563638D01*
X113037257Y-139563638D02*
X113109828Y-139527352D01*
X113109828Y-139527352D02*
X113254971Y-139491066D01*
X113254971Y-139491066D02*
X113327542Y-139454781D01*
X113327542Y-139454781D02*
X113363828Y-139418495D01*
X113363828Y-139418495D02*
X113400114Y-139345924D01*
X113400114Y-139345924D02*
X113400114Y-139273352D01*
X113400114Y-139273352D02*
X113363828Y-139200781D01*
X113363828Y-139200781D02*
X113327542Y-139164495D01*
X113327542Y-139164495D02*
X113254971Y-139128209D01*
X113254971Y-139128209D02*
X113073542Y-139128209D01*
X113073542Y-139128209D02*
X112964685Y-139164495D01*
X112710685Y-139128209D02*
X112238971Y-139128209D01*
X112238971Y-139128209D02*
X112492971Y-139418495D01*
X112492971Y-139418495D02*
X112384114Y-139418495D01*
X112384114Y-139418495D02*
X112311543Y-139454781D01*
X112311543Y-139454781D02*
X112275257Y-139491066D01*
X112275257Y-139491066D02*
X112238971Y-139563638D01*
X112238971Y-139563638D02*
X112238971Y-139745066D01*
X112238971Y-139745066D02*
X112275257Y-139817638D01*
X112275257Y-139817638D02*
X112311543Y-139853924D01*
X112311543Y-139853924D02*
X112384114Y-139890209D01*
X112384114Y-139890209D02*
X112601828Y-139890209D01*
X112601828Y-139890209D02*
X112674400Y-139853924D01*
X112674400Y-139853924D02*
X112710685Y-139817638D01*
D10*
X116726087Y-123482704D02*
X117209896Y-123821371D01*
X116726087Y-124063276D02*
X117742087Y-124063276D01*
X117742087Y-124063276D02*
X117742087Y-123676228D01*
X117742087Y-123676228D02*
X117693706Y-123579466D01*
X117693706Y-123579466D02*
X117645325Y-123531085D01*
X117645325Y-123531085D02*
X117548563Y-123482704D01*
X117548563Y-123482704D02*
X117403420Y-123482704D01*
X117403420Y-123482704D02*
X117306658Y-123531085D01*
X117306658Y-123531085D02*
X117258277Y-123579466D01*
X117258277Y-123579466D02*
X117209896Y-123676228D01*
X117209896Y-123676228D02*
X117209896Y-124063276D01*
X116726087Y-123047276D02*
X117742087Y-123047276D01*
X117742087Y-123047276D02*
X117016372Y-122708609D01*
X117016372Y-122708609D02*
X117742087Y-122369942D01*
X117742087Y-122369942D02*
X116726087Y-122369942D01*
X117645325Y-121934514D02*
X117693706Y-121886133D01*
X117693706Y-121886133D02*
X117742087Y-121789371D01*
X117742087Y-121789371D02*
X117742087Y-121547466D01*
X117742087Y-121547466D02*
X117693706Y-121450704D01*
X117693706Y-121450704D02*
X117645325Y-121402323D01*
X117645325Y-121402323D02*
X117548563Y-121353942D01*
X117548563Y-121353942D02*
X117451801Y-121353942D01*
X117451801Y-121353942D02*
X117306658Y-121402323D01*
X117306658Y-121402323D02*
X116726087Y-121982895D01*
X116726087Y-121982895D02*
X116726087Y-121353942D01*
D12*
X106032590Y-135948056D02*
X106395447Y-136202056D01*
X106032590Y-136383485D02*
X106794590Y-136383485D01*
X106794590Y-136383485D02*
X106794590Y-136093199D01*
X106794590Y-136093199D02*
X106758304Y-136020628D01*
X106758304Y-136020628D02*
X106722018Y-135984342D01*
X106722018Y-135984342D02*
X106649447Y-135948056D01*
X106649447Y-135948056D02*
X106540590Y-135948056D01*
X106540590Y-135948056D02*
X106468018Y-135984342D01*
X106468018Y-135984342D02*
X106431733Y-136020628D01*
X106431733Y-136020628D02*
X106395447Y-136093199D01*
X106395447Y-136093199D02*
X106395447Y-136383485D01*
X106032590Y-135222342D02*
X106032590Y-135657771D01*
X106032590Y-135440056D02*
X106794590Y-135440056D01*
X106794590Y-135440056D02*
X106685733Y-135512628D01*
X106685733Y-135512628D02*
X106613161Y-135585199D01*
X106613161Y-135585199D02*
X106576876Y-135657771D01*
X106794590Y-134968342D02*
X106794590Y-134496628D01*
X106794590Y-134496628D02*
X106504304Y-134750628D01*
X106504304Y-134750628D02*
X106504304Y-134641771D01*
X106504304Y-134641771D02*
X106468018Y-134569200D01*
X106468018Y-134569200D02*
X106431733Y-134532914D01*
X106431733Y-134532914D02*
X106359161Y-134496628D01*
X106359161Y-134496628D02*
X106177733Y-134496628D01*
X106177733Y-134496628D02*
X106105161Y-134532914D01*
X106105161Y-134532914D02*
X106068876Y-134569200D01*
X106068876Y-134569200D02*
X106032590Y-134641771D01*
X106032590Y-134641771D02*
X106032590Y-134859485D01*
X106032590Y-134859485D02*
X106068876Y-134932057D01*
X106068876Y-134932057D02*
X106105161Y-134968342D01*
X106001456Y-128921038D02*
X106037742Y-128957324D01*
X106037742Y-128957324D02*
X106146599Y-128993609D01*
X106146599Y-128993609D02*
X106219171Y-128993609D01*
X106219171Y-128993609D02*
X106328028Y-128957324D01*
X106328028Y-128957324D02*
X106400599Y-128884752D01*
X106400599Y-128884752D02*
X106436885Y-128812181D01*
X106436885Y-128812181D02*
X106473171Y-128667038D01*
X106473171Y-128667038D02*
X106473171Y-128558181D01*
X106473171Y-128558181D02*
X106436885Y-128413038D01*
X106436885Y-128413038D02*
X106400599Y-128340466D01*
X106400599Y-128340466D02*
X106328028Y-128267895D01*
X106328028Y-128267895D02*
X106219171Y-128231609D01*
X106219171Y-128231609D02*
X106146599Y-128231609D01*
X106146599Y-128231609D02*
X106037742Y-128267895D01*
X106037742Y-128267895D02*
X106001456Y-128304181D01*
X105275742Y-128993609D02*
X105711171Y-128993609D01*
X105493456Y-128993609D02*
X105493456Y-128231609D01*
X105493456Y-128231609D02*
X105566028Y-128340466D01*
X105566028Y-128340466D02*
X105638599Y-128413038D01*
X105638599Y-128413038D02*
X105711171Y-128449324D01*
X104586314Y-128231609D02*
X104949171Y-128231609D01*
X104949171Y-128231609D02*
X104985457Y-128594466D01*
X104985457Y-128594466D02*
X104949171Y-128558181D01*
X104949171Y-128558181D02*
X104876600Y-128521895D01*
X104876600Y-128521895D02*
X104695171Y-128521895D01*
X104695171Y-128521895D02*
X104622600Y-128558181D01*
X104622600Y-128558181D02*
X104586314Y-128594466D01*
X104586314Y-128594466D02*
X104550028Y-128667038D01*
X104550028Y-128667038D02*
X104550028Y-128848466D01*
X104550028Y-128848466D02*
X104586314Y-128921038D01*
X104586314Y-128921038D02*
X104622600Y-128957324D01*
X104622600Y-128957324D02*
X104695171Y-128993609D01*
X104695171Y-128993609D02*
X104876600Y-128993609D01*
X104876600Y-128993609D02*
X104949171Y-128957324D01*
X104949171Y-128957324D02*
X104985457Y-128921038D01*
X101095628Y-140964409D02*
X101095628Y-140202409D01*
X101095628Y-140202409D02*
X100914199Y-140202409D01*
X100914199Y-140202409D02*
X100805342Y-140238695D01*
X100805342Y-140238695D02*
X100732771Y-140311266D01*
X100732771Y-140311266D02*
X100696485Y-140383838D01*
X100696485Y-140383838D02*
X100660199Y-140528981D01*
X100660199Y-140528981D02*
X100660199Y-140637838D01*
X100660199Y-140637838D02*
X100696485Y-140782981D01*
X100696485Y-140782981D02*
X100732771Y-140855552D01*
X100732771Y-140855552D02*
X100805342Y-140928124D01*
X100805342Y-140928124D02*
X100914199Y-140964409D01*
X100914199Y-140964409D02*
X101095628Y-140964409D01*
X100224771Y-140528981D02*
X100297342Y-140492695D01*
X100297342Y-140492695D02*
X100333628Y-140456409D01*
X100333628Y-140456409D02*
X100369914Y-140383838D01*
X100369914Y-140383838D02*
X100369914Y-140347552D01*
X100369914Y-140347552D02*
X100333628Y-140274981D01*
X100333628Y-140274981D02*
X100297342Y-140238695D01*
X100297342Y-140238695D02*
X100224771Y-140202409D01*
X100224771Y-140202409D02*
X100079628Y-140202409D01*
X100079628Y-140202409D02*
X100007057Y-140238695D01*
X100007057Y-140238695D02*
X99970771Y-140274981D01*
X99970771Y-140274981D02*
X99934485Y-140347552D01*
X99934485Y-140347552D02*
X99934485Y-140383838D01*
X99934485Y-140383838D02*
X99970771Y-140456409D01*
X99970771Y-140456409D02*
X100007057Y-140492695D01*
X100007057Y-140492695D02*
X100079628Y-140528981D01*
X100079628Y-140528981D02*
X100224771Y-140528981D01*
X100224771Y-140528981D02*
X100297342Y-140565266D01*
X100297342Y-140565266D02*
X100333628Y-140601552D01*
X100333628Y-140601552D02*
X100369914Y-140674124D01*
X100369914Y-140674124D02*
X100369914Y-140819266D01*
X100369914Y-140819266D02*
X100333628Y-140891838D01*
X100333628Y-140891838D02*
X100297342Y-140928124D01*
X100297342Y-140928124D02*
X100224771Y-140964409D01*
X100224771Y-140964409D02*
X100079628Y-140964409D01*
X100079628Y-140964409D02*
X100007057Y-140928124D01*
X100007057Y-140928124D02*
X99970771Y-140891838D01*
X99970771Y-140891838D02*
X99934485Y-140819266D01*
X99934485Y-140819266D02*
X99934485Y-140674124D01*
X99934485Y-140674124D02*
X99970771Y-140601552D01*
X99970771Y-140601552D02*
X100007057Y-140565266D01*
X100007057Y-140565266D02*
X100079628Y-140528981D01*
X110319456Y-147577338D02*
X110355742Y-147613624D01*
X110355742Y-147613624D02*
X110464599Y-147649909D01*
X110464599Y-147649909D02*
X110537171Y-147649909D01*
X110537171Y-147649909D02*
X110646028Y-147613624D01*
X110646028Y-147613624D02*
X110718599Y-147541052D01*
X110718599Y-147541052D02*
X110754885Y-147468481D01*
X110754885Y-147468481D02*
X110791171Y-147323338D01*
X110791171Y-147323338D02*
X110791171Y-147214481D01*
X110791171Y-147214481D02*
X110754885Y-147069338D01*
X110754885Y-147069338D02*
X110718599Y-146996766D01*
X110718599Y-146996766D02*
X110646028Y-146924195D01*
X110646028Y-146924195D02*
X110537171Y-146887909D01*
X110537171Y-146887909D02*
X110464599Y-146887909D01*
X110464599Y-146887909D02*
X110355742Y-146924195D01*
X110355742Y-146924195D02*
X110319456Y-146960481D01*
X110029171Y-146960481D02*
X109992885Y-146924195D01*
X109992885Y-146924195D02*
X109920314Y-146887909D01*
X109920314Y-146887909D02*
X109738885Y-146887909D01*
X109738885Y-146887909D02*
X109666314Y-146924195D01*
X109666314Y-146924195D02*
X109630028Y-146960481D01*
X109630028Y-146960481D02*
X109593742Y-147033052D01*
X109593742Y-147033052D02*
X109593742Y-147105624D01*
X109593742Y-147105624D02*
X109630028Y-147214481D01*
X109630028Y-147214481D02*
X110065456Y-147649909D01*
X110065456Y-147649909D02*
X109593742Y-147649909D01*
X108904314Y-146887909D02*
X109267171Y-146887909D01*
X109267171Y-146887909D02*
X109303457Y-147250766D01*
X109303457Y-147250766D02*
X109267171Y-147214481D01*
X109267171Y-147214481D02*
X109194600Y-147178195D01*
X109194600Y-147178195D02*
X109013171Y-147178195D01*
X109013171Y-147178195D02*
X108940600Y-147214481D01*
X108940600Y-147214481D02*
X108904314Y-147250766D01*
X108904314Y-147250766D02*
X108868028Y-147323338D01*
X108868028Y-147323338D02*
X108868028Y-147504766D01*
X108868028Y-147504766D02*
X108904314Y-147577338D01*
X108904314Y-147577338D02*
X108940600Y-147613624D01*
X108940600Y-147613624D02*
X109013171Y-147649909D01*
X109013171Y-147649909D02*
X109194600Y-147649909D01*
X109194600Y-147649909D02*
X109267171Y-147613624D01*
X109267171Y-147613624D02*
X109303457Y-147577338D01*
X133789056Y-134099009D02*
X134043056Y-133736152D01*
X134224485Y-134099009D02*
X134224485Y-133337009D01*
X134224485Y-133337009D02*
X133934199Y-133337009D01*
X133934199Y-133337009D02*
X133861628Y-133373295D01*
X133861628Y-133373295D02*
X133825342Y-133409581D01*
X133825342Y-133409581D02*
X133789056Y-133482152D01*
X133789056Y-133482152D02*
X133789056Y-133591009D01*
X133789056Y-133591009D02*
X133825342Y-133663581D01*
X133825342Y-133663581D02*
X133861628Y-133699866D01*
X133861628Y-133699866D02*
X133934199Y-133736152D01*
X133934199Y-133736152D02*
X134224485Y-133736152D01*
X133498771Y-133409581D02*
X133462485Y-133373295D01*
X133462485Y-133373295D02*
X133389914Y-133337009D01*
X133389914Y-133337009D02*
X133208485Y-133337009D01*
X133208485Y-133337009D02*
X133135914Y-133373295D01*
X133135914Y-133373295D02*
X133099628Y-133409581D01*
X133099628Y-133409581D02*
X133063342Y-133482152D01*
X133063342Y-133482152D02*
X133063342Y-133554724D01*
X133063342Y-133554724D02*
X133099628Y-133663581D01*
X133099628Y-133663581D02*
X133535056Y-134099009D01*
X133535056Y-134099009D02*
X133063342Y-134099009D01*
X132773057Y-133409581D02*
X132736771Y-133373295D01*
X132736771Y-133373295D02*
X132664200Y-133337009D01*
X132664200Y-133337009D02*
X132482771Y-133337009D01*
X132482771Y-133337009D02*
X132410200Y-133373295D01*
X132410200Y-133373295D02*
X132373914Y-133409581D01*
X132373914Y-133409581D02*
X132337628Y-133482152D01*
X132337628Y-133482152D02*
X132337628Y-133554724D01*
X132337628Y-133554724D02*
X132373914Y-133663581D01*
X132373914Y-133663581D02*
X132809342Y-134099009D01*
X132809342Y-134099009D02*
X132337628Y-134099009D01*
X122618790Y-147378056D02*
X122981647Y-147632056D01*
X122618790Y-147813485D02*
X123380790Y-147813485D01*
X123380790Y-147813485D02*
X123380790Y-147523199D01*
X123380790Y-147523199D02*
X123344504Y-147450628D01*
X123344504Y-147450628D02*
X123308218Y-147414342D01*
X123308218Y-147414342D02*
X123235647Y-147378056D01*
X123235647Y-147378056D02*
X123126790Y-147378056D01*
X123126790Y-147378056D02*
X123054218Y-147414342D01*
X123054218Y-147414342D02*
X123017933Y-147450628D01*
X123017933Y-147450628D02*
X122981647Y-147523199D01*
X122981647Y-147523199D02*
X122981647Y-147813485D01*
X123308218Y-147087771D02*
X123344504Y-147051485D01*
X123344504Y-147051485D02*
X123380790Y-146978914D01*
X123380790Y-146978914D02*
X123380790Y-146797485D01*
X123380790Y-146797485D02*
X123344504Y-146724914D01*
X123344504Y-146724914D02*
X123308218Y-146688628D01*
X123308218Y-146688628D02*
X123235647Y-146652342D01*
X123235647Y-146652342D02*
X123163076Y-146652342D01*
X123163076Y-146652342D02*
X123054218Y-146688628D01*
X123054218Y-146688628D02*
X122618790Y-147124056D01*
X122618790Y-147124056D02*
X122618790Y-146652342D01*
X123380790Y-146398342D02*
X123380790Y-145926628D01*
X123380790Y-145926628D02*
X123090504Y-146180628D01*
X123090504Y-146180628D02*
X123090504Y-146071771D01*
X123090504Y-146071771D02*
X123054218Y-145999200D01*
X123054218Y-145999200D02*
X123017933Y-145962914D01*
X123017933Y-145962914D02*
X122945361Y-145926628D01*
X122945361Y-145926628D02*
X122763933Y-145926628D01*
X122763933Y-145926628D02*
X122691361Y-145962914D01*
X122691361Y-145962914D02*
X122655076Y-145999200D01*
X122655076Y-145999200D02*
X122618790Y-146071771D01*
X122618790Y-146071771D02*
X122618790Y-146289485D01*
X122618790Y-146289485D02*
X122655076Y-146362057D01*
X122655076Y-146362057D02*
X122691361Y-146398342D01*
X131686590Y-140088256D02*
X132049447Y-140342256D01*
X131686590Y-140523685D02*
X132448590Y-140523685D01*
X132448590Y-140523685D02*
X132448590Y-140233399D01*
X132448590Y-140233399D02*
X132412304Y-140160828D01*
X132412304Y-140160828D02*
X132376018Y-140124542D01*
X132376018Y-140124542D02*
X132303447Y-140088256D01*
X132303447Y-140088256D02*
X132194590Y-140088256D01*
X132194590Y-140088256D02*
X132122018Y-140124542D01*
X132122018Y-140124542D02*
X132085733Y-140160828D01*
X132085733Y-140160828D02*
X132049447Y-140233399D01*
X132049447Y-140233399D02*
X132049447Y-140523685D01*
X132376018Y-139797971D02*
X132412304Y-139761685D01*
X132412304Y-139761685D02*
X132448590Y-139689114D01*
X132448590Y-139689114D02*
X132448590Y-139507685D01*
X132448590Y-139507685D02*
X132412304Y-139435114D01*
X132412304Y-139435114D02*
X132376018Y-139398828D01*
X132376018Y-139398828D02*
X132303447Y-139362542D01*
X132303447Y-139362542D02*
X132230876Y-139362542D01*
X132230876Y-139362542D02*
X132122018Y-139398828D01*
X132122018Y-139398828D02*
X131686590Y-139834256D01*
X131686590Y-139834256D02*
X131686590Y-139362542D01*
X132448590Y-139108542D02*
X132448590Y-138600542D01*
X132448590Y-138600542D02*
X131686590Y-138927114D01*
D10*
X127558412Y-135166704D02*
X128380889Y-135166704D01*
X128380889Y-135166704D02*
X128477651Y-135215085D01*
X128477651Y-135215085D02*
X128526032Y-135263466D01*
X128526032Y-135263466D02*
X128574412Y-135360228D01*
X128574412Y-135360228D02*
X128574412Y-135553752D01*
X128574412Y-135553752D02*
X128526032Y-135650514D01*
X128526032Y-135650514D02*
X128477651Y-135698895D01*
X128477651Y-135698895D02*
X128380889Y-135747276D01*
X128380889Y-135747276D02*
X127558412Y-135747276D01*
X127655174Y-136182704D02*
X127606793Y-136231085D01*
X127606793Y-136231085D02*
X127558412Y-136327847D01*
X127558412Y-136327847D02*
X127558412Y-136569752D01*
X127558412Y-136569752D02*
X127606793Y-136666514D01*
X127606793Y-136666514D02*
X127655174Y-136714895D01*
X127655174Y-136714895D02*
X127751936Y-136763276D01*
X127751936Y-136763276D02*
X127848698Y-136763276D01*
X127848698Y-136763276D02*
X127993841Y-136714895D01*
X127993841Y-136714895D02*
X128574412Y-136134323D01*
X128574412Y-136134323D02*
X128574412Y-136763276D01*
X129072918Y-134326085D02*
X129012442Y-134205133D01*
X129012442Y-134205133D02*
X128951965Y-134144656D01*
X128951965Y-134144656D02*
X128831013Y-134084180D01*
X128831013Y-134084180D02*
X128468156Y-134084180D01*
X128468156Y-134084180D02*
X128347203Y-134144656D01*
X128347203Y-134144656D02*
X128286727Y-134205133D01*
X128286727Y-134205133D02*
X128226251Y-134326085D01*
X128226251Y-134326085D02*
X128226251Y-134507514D01*
X128226251Y-134507514D02*
X128286727Y-134628466D01*
X128286727Y-134628466D02*
X128347203Y-134688942D01*
X128347203Y-134688942D02*
X128468156Y-134749418D01*
X128468156Y-134749418D02*
X128831013Y-134749418D01*
X128831013Y-134749418D02*
X128951965Y-134688942D01*
X128951965Y-134688942D02*
X129012442Y-134628466D01*
X129012442Y-134628466D02*
X129072918Y-134507514D01*
X129072918Y-134507514D02*
X129072918Y-134326085D01*
X106328851Y-122130457D02*
X106377232Y-122082076D01*
X106377232Y-122082076D02*
X106425612Y-121936933D01*
X106425612Y-121936933D02*
X106425612Y-121840171D01*
X106425612Y-121840171D02*
X106377232Y-121695028D01*
X106377232Y-121695028D02*
X106280470Y-121598266D01*
X106280470Y-121598266D02*
X106183708Y-121549885D01*
X106183708Y-121549885D02*
X105990184Y-121501504D01*
X105990184Y-121501504D02*
X105845041Y-121501504D01*
X105845041Y-121501504D02*
X105651517Y-121549885D01*
X105651517Y-121549885D02*
X105554755Y-121598266D01*
X105554755Y-121598266D02*
X105457993Y-121695028D01*
X105457993Y-121695028D02*
X105409612Y-121840171D01*
X105409612Y-121840171D02*
X105409612Y-121936933D01*
X105409612Y-121936933D02*
X105457993Y-122082076D01*
X105457993Y-122082076D02*
X105506374Y-122130457D01*
X106425612Y-123098076D02*
X106425612Y-122517504D01*
X106425612Y-122807790D02*
X105409612Y-122807790D01*
X105409612Y-122807790D02*
X105554755Y-122711028D01*
X105554755Y-122711028D02*
X105651517Y-122614266D01*
X105651517Y-122614266D02*
X105699898Y-122517504D01*
X105748279Y-123968933D02*
X106425612Y-123968933D01*
X105361232Y-123727028D02*
X106086946Y-123485123D01*
X106086946Y-123485123D02*
X106086946Y-124114076D01*
X110020704Y-123519812D02*
X110359371Y-123036003D01*
X110601276Y-123519812D02*
X110601276Y-122503812D01*
X110601276Y-122503812D02*
X110214228Y-122503812D01*
X110214228Y-122503812D02*
X110117466Y-122552193D01*
X110117466Y-122552193D02*
X110069085Y-122600574D01*
X110069085Y-122600574D02*
X110020704Y-122697336D01*
X110020704Y-122697336D02*
X110020704Y-122842479D01*
X110020704Y-122842479D02*
X110069085Y-122939241D01*
X110069085Y-122939241D02*
X110117466Y-122987622D01*
X110117466Y-122987622D02*
X110214228Y-123036003D01*
X110214228Y-123036003D02*
X110601276Y-123036003D01*
X109585276Y-123519812D02*
X109585276Y-122503812D01*
X109585276Y-122503812D02*
X109246609Y-123229527D01*
X109246609Y-123229527D02*
X108907942Y-122503812D01*
X108907942Y-122503812D02*
X108907942Y-123519812D01*
X107891942Y-123519812D02*
X108472514Y-123519812D01*
X108182228Y-123519812D02*
X108182228Y-122503812D01*
X108182228Y-122503812D02*
X108278990Y-122648955D01*
X108278990Y-122648955D02*
X108375752Y-122745717D01*
X108375752Y-122745717D02*
X108472514Y-122794098D01*
X122601348Y-153357942D02*
X122552968Y-153406323D01*
X122552968Y-153406323D02*
X122504587Y-153551466D01*
X122504587Y-153551466D02*
X122504587Y-153648228D01*
X122504587Y-153648228D02*
X122552968Y-153793371D01*
X122552968Y-153793371D02*
X122649729Y-153890133D01*
X122649729Y-153890133D02*
X122746491Y-153938514D01*
X122746491Y-153938514D02*
X122940015Y-153986895D01*
X122940015Y-153986895D02*
X123085158Y-153986895D01*
X123085158Y-153986895D02*
X123278682Y-153938514D01*
X123278682Y-153938514D02*
X123375444Y-153890133D01*
X123375444Y-153890133D02*
X123472206Y-153793371D01*
X123472206Y-153793371D02*
X123520587Y-153648228D01*
X123520587Y-153648228D02*
X123520587Y-153551466D01*
X123520587Y-153551466D02*
X123472206Y-153406323D01*
X123472206Y-153406323D02*
X123423825Y-153357942D01*
X122504587Y-152390323D02*
X122504587Y-152970895D01*
X122504587Y-152680609D02*
X123520587Y-152680609D01*
X123520587Y-152680609D02*
X123375444Y-152777371D01*
X123375444Y-152777371D02*
X123278682Y-152874133D01*
X123278682Y-152874133D02*
X123230301Y-152970895D01*
X123423825Y-152003276D02*
X123472206Y-151954895D01*
X123472206Y-151954895D02*
X123520587Y-151858133D01*
X123520587Y-151858133D02*
X123520587Y-151616228D01*
X123520587Y-151616228D02*
X123472206Y-151519466D01*
X123472206Y-151519466D02*
X123423825Y-151471085D01*
X123423825Y-151471085D02*
X123327063Y-151422704D01*
X123327063Y-151422704D02*
X123230301Y-151422704D01*
X123230301Y-151422704D02*
X123085158Y-151471085D01*
X123085158Y-151471085D02*
X122504587Y-152051657D01*
X122504587Y-152051657D02*
X122504587Y-151422704D01*
D13*
X128028700Y-156177912D02*
X128325033Y-155754579D01*
X128536700Y-156177912D02*
X128536700Y-155288912D01*
X128536700Y-155288912D02*
X128198033Y-155288912D01*
X128198033Y-155288912D02*
X128113367Y-155331245D01*
X128113367Y-155331245D02*
X128071033Y-155373579D01*
X128071033Y-155373579D02*
X128028700Y-155458245D01*
X128028700Y-155458245D02*
X128028700Y-155585245D01*
X128028700Y-155585245D02*
X128071033Y-155669912D01*
X128071033Y-155669912D02*
X128113367Y-155712245D01*
X128113367Y-155712245D02*
X128198033Y-155754579D01*
X128198033Y-155754579D02*
X128536700Y-155754579D01*
X127732367Y-155288912D02*
X127182033Y-155288912D01*
X127182033Y-155288912D02*
X127478367Y-155627579D01*
X127478367Y-155627579D02*
X127351367Y-155627579D01*
X127351367Y-155627579D02*
X127266700Y-155669912D01*
X127266700Y-155669912D02*
X127224367Y-155712245D01*
X127224367Y-155712245D02*
X127182033Y-155796912D01*
X127182033Y-155796912D02*
X127182033Y-156008579D01*
X127182033Y-156008579D02*
X127224367Y-156093245D01*
X127224367Y-156093245D02*
X127266700Y-156135579D01*
X127266700Y-156135579D02*
X127351367Y-156177912D01*
X127351367Y-156177912D02*
X127605367Y-156177912D01*
X127605367Y-156177912D02*
X127690033Y-156135579D01*
X127690033Y-156135579D02*
X127732367Y-156093245D01*
X126885700Y-155288912D02*
X126335366Y-155288912D01*
X126335366Y-155288912D02*
X126631700Y-155627579D01*
X126631700Y-155627579D02*
X126504700Y-155627579D01*
X126504700Y-155627579D02*
X126420033Y-155669912D01*
X126420033Y-155669912D02*
X126377700Y-155712245D01*
X126377700Y-155712245D02*
X126335366Y-155796912D01*
X126335366Y-155796912D02*
X126335366Y-156008579D01*
X126335366Y-156008579D02*
X126377700Y-156093245D01*
X126377700Y-156093245D02*
X126420033Y-156135579D01*
X126420033Y-156135579D02*
X126504700Y-156177912D01*
X126504700Y-156177912D02*
X126758700Y-156177912D01*
X126758700Y-156177912D02*
X126843366Y-156135579D01*
X126843366Y-156135579D02*
X126885700Y-156093245D01*
D10*
X114951904Y-139217012D02*
X114951904Y-138201012D01*
X114951904Y-138201012D02*
X114709999Y-138201012D01*
X114709999Y-138201012D02*
X114564856Y-138249393D01*
X114564856Y-138249393D02*
X114468094Y-138346155D01*
X114468094Y-138346155D02*
X114419713Y-138442917D01*
X114419713Y-138442917D02*
X114371332Y-138636441D01*
X114371332Y-138636441D02*
X114371332Y-138781584D01*
X114371332Y-138781584D02*
X114419713Y-138975108D01*
X114419713Y-138975108D02*
X114468094Y-139071870D01*
X114468094Y-139071870D02*
X114564856Y-139168632D01*
X114564856Y-139168632D02*
X114709999Y-139217012D01*
X114709999Y-139217012D02*
X114951904Y-139217012D01*
X113452094Y-138201012D02*
X113935904Y-138201012D01*
X113935904Y-138201012D02*
X113984285Y-138684822D01*
X113984285Y-138684822D02*
X113935904Y-138636441D01*
X113935904Y-138636441D02*
X113839142Y-138588060D01*
X113839142Y-138588060D02*
X113597237Y-138588060D01*
X113597237Y-138588060D02*
X113500475Y-138636441D01*
X113500475Y-138636441D02*
X113452094Y-138684822D01*
X113452094Y-138684822D02*
X113403713Y-138781584D01*
X113403713Y-138781584D02*
X113403713Y-139023489D01*
X113403713Y-139023489D02*
X113452094Y-139120251D01*
X113452094Y-139120251D02*
X113500475Y-139168632D01*
X113500475Y-139168632D02*
X113597237Y-139217012D01*
X113597237Y-139217012D02*
X113839142Y-139217012D01*
X113839142Y-139217012D02*
X113935904Y-139168632D01*
X113935904Y-139168632D02*
X113984285Y-139120251D01*
D12*
X109517543Y-149669790D02*
X109263543Y-150032647D01*
X109082114Y-149669790D02*
X109082114Y-150431790D01*
X109082114Y-150431790D02*
X109372400Y-150431790D01*
X109372400Y-150431790D02*
X109444971Y-150395504D01*
X109444971Y-150395504D02*
X109481257Y-150359218D01*
X109481257Y-150359218D02*
X109517543Y-150286647D01*
X109517543Y-150286647D02*
X109517543Y-150177790D01*
X109517543Y-150177790D02*
X109481257Y-150105218D01*
X109481257Y-150105218D02*
X109444971Y-150068933D01*
X109444971Y-150068933D02*
X109372400Y-150032647D01*
X109372400Y-150032647D02*
X109082114Y-150032647D01*
X109771543Y-150431790D02*
X110243257Y-150431790D01*
X110243257Y-150431790D02*
X109989257Y-150141504D01*
X109989257Y-150141504D02*
X110098114Y-150141504D01*
X110098114Y-150141504D02*
X110170686Y-150105218D01*
X110170686Y-150105218D02*
X110206971Y-150068933D01*
X110206971Y-150068933D02*
X110243257Y-149996361D01*
X110243257Y-149996361D02*
X110243257Y-149814933D01*
X110243257Y-149814933D02*
X110206971Y-149742361D01*
X110206971Y-149742361D02*
X110170686Y-149706076D01*
X110170686Y-149706076D02*
X110098114Y-149669790D01*
X110098114Y-149669790D02*
X109880400Y-149669790D01*
X109880400Y-149669790D02*
X109807828Y-149706076D01*
X109807828Y-149706076D02*
X109771543Y-149742361D01*
X110678685Y-150105218D02*
X110606114Y-150141504D01*
X110606114Y-150141504D02*
X110569828Y-150177790D01*
X110569828Y-150177790D02*
X110533542Y-150250361D01*
X110533542Y-150250361D02*
X110533542Y-150286647D01*
X110533542Y-150286647D02*
X110569828Y-150359218D01*
X110569828Y-150359218D02*
X110606114Y-150395504D01*
X110606114Y-150395504D02*
X110678685Y-150431790D01*
X110678685Y-150431790D02*
X110823828Y-150431790D01*
X110823828Y-150431790D02*
X110896400Y-150395504D01*
X110896400Y-150395504D02*
X110932685Y-150359218D01*
X110932685Y-150359218D02*
X110968971Y-150286647D01*
X110968971Y-150286647D02*
X110968971Y-150250361D01*
X110968971Y-150250361D02*
X110932685Y-150177790D01*
X110932685Y-150177790D02*
X110896400Y-150141504D01*
X110896400Y-150141504D02*
X110823828Y-150105218D01*
X110823828Y-150105218D02*
X110678685Y-150105218D01*
X110678685Y-150105218D02*
X110606114Y-150068933D01*
X110606114Y-150068933D02*
X110569828Y-150032647D01*
X110569828Y-150032647D02*
X110533542Y-149960076D01*
X110533542Y-149960076D02*
X110533542Y-149814933D01*
X110533542Y-149814933D02*
X110569828Y-149742361D01*
X110569828Y-149742361D02*
X110606114Y-149706076D01*
X110606114Y-149706076D02*
X110678685Y-149669790D01*
X110678685Y-149669790D02*
X110823828Y-149669790D01*
X110823828Y-149669790D02*
X110896400Y-149706076D01*
X110896400Y-149706076D02*
X110932685Y-149742361D01*
X110932685Y-149742361D02*
X110968971Y-149814933D01*
X110968971Y-149814933D02*
X110968971Y-149960076D01*
X110968971Y-149960076D02*
X110932685Y-150032647D01*
X110932685Y-150032647D02*
X110896400Y-150068933D01*
X110896400Y-150068933D02*
X110823828Y-150105218D01*
D13*
X131457712Y-150249466D02*
X132177379Y-150249466D01*
X132177379Y-150249466D02*
X132262045Y-150291800D01*
X132262045Y-150291800D02*
X132304379Y-150334133D01*
X132304379Y-150334133D02*
X132346712Y-150418800D01*
X132346712Y-150418800D02*
X132346712Y-150588133D01*
X132346712Y-150588133D02*
X132304379Y-150672800D01*
X132304379Y-150672800D02*
X132262045Y-150715133D01*
X132262045Y-150715133D02*
X132177379Y-150757466D01*
X132177379Y-150757466D02*
X131457712Y-150757466D01*
X131457712Y-151604133D02*
X131457712Y-151180799D01*
X131457712Y-151180799D02*
X131881045Y-151138466D01*
X131881045Y-151138466D02*
X131838712Y-151180799D01*
X131838712Y-151180799D02*
X131796379Y-151265466D01*
X131796379Y-151265466D02*
X131796379Y-151477133D01*
X131796379Y-151477133D02*
X131838712Y-151561799D01*
X131838712Y-151561799D02*
X131881045Y-151604133D01*
X131881045Y-151604133D02*
X131965712Y-151646466D01*
X131965712Y-151646466D02*
X132177379Y-151646466D01*
X132177379Y-151646466D02*
X132262045Y-151604133D01*
X132262045Y-151604133D02*
X132304379Y-151561799D01*
X132304379Y-151561799D02*
X132346712Y-151477133D01*
X132346712Y-151477133D02*
X132346712Y-151265466D01*
X132346712Y-151265466D02*
X132304379Y-151180799D01*
X132304379Y-151180799D02*
X132262045Y-151138466D01*
D10*
X124393318Y-151090085D02*
X124332842Y-150969133D01*
X124332842Y-150969133D02*
X124272365Y-150908656D01*
X124272365Y-150908656D02*
X124151413Y-150848180D01*
X124151413Y-150848180D02*
X123788556Y-150848180D01*
X123788556Y-150848180D02*
X123667603Y-150908656D01*
X123667603Y-150908656D02*
X123607127Y-150969133D01*
X123607127Y-150969133D02*
X123546651Y-151090085D01*
X123546651Y-151090085D02*
X123546651Y-151271514D01*
X123546651Y-151271514D02*
X123607127Y-151392466D01*
X123607127Y-151392466D02*
X123667603Y-151452942D01*
X123667603Y-151452942D02*
X123788556Y-151513418D01*
X123788556Y-151513418D02*
X124151413Y-151513418D01*
X124151413Y-151513418D02*
X124272365Y-151452942D01*
X124272365Y-151452942D02*
X124332842Y-151392466D01*
X124332842Y-151392466D02*
X124393318Y-151271514D01*
X124393318Y-151271514D02*
X124393318Y-151090085D01*
D12*
X109639390Y-148978256D02*
X110002247Y-149232256D01*
X109639390Y-149413685D02*
X110401390Y-149413685D01*
X110401390Y-149413685D02*
X110401390Y-149123399D01*
X110401390Y-149123399D02*
X110365104Y-149050828D01*
X110365104Y-149050828D02*
X110328818Y-149014542D01*
X110328818Y-149014542D02*
X110256247Y-148978256D01*
X110256247Y-148978256D02*
X110147390Y-148978256D01*
X110147390Y-148978256D02*
X110074818Y-149014542D01*
X110074818Y-149014542D02*
X110038533Y-149050828D01*
X110038533Y-149050828D02*
X110002247Y-149123399D01*
X110002247Y-149123399D02*
X110002247Y-149413685D01*
X110401390Y-148724256D02*
X110401390Y-148252542D01*
X110401390Y-148252542D02*
X110111104Y-148506542D01*
X110111104Y-148506542D02*
X110111104Y-148397685D01*
X110111104Y-148397685D02*
X110074818Y-148325114D01*
X110074818Y-148325114D02*
X110038533Y-148288828D01*
X110038533Y-148288828D02*
X109965961Y-148252542D01*
X109965961Y-148252542D02*
X109784533Y-148252542D01*
X109784533Y-148252542D02*
X109711961Y-148288828D01*
X109711961Y-148288828D02*
X109675676Y-148325114D01*
X109675676Y-148325114D02*
X109639390Y-148397685D01*
X109639390Y-148397685D02*
X109639390Y-148615399D01*
X109639390Y-148615399D02*
X109675676Y-148687971D01*
X109675676Y-148687971D02*
X109711961Y-148724256D01*
X110147390Y-147599400D02*
X109639390Y-147599400D01*
X110437676Y-147780828D02*
X109893390Y-147962257D01*
X109893390Y-147962257D02*
X109893390Y-147490542D01*
X132346990Y-146527156D02*
X132709847Y-146781156D01*
X132346990Y-146962585D02*
X133108990Y-146962585D01*
X133108990Y-146962585D02*
X133108990Y-146672299D01*
X133108990Y-146672299D02*
X133072704Y-146599728D01*
X133072704Y-146599728D02*
X133036418Y-146563442D01*
X133036418Y-146563442D02*
X132963847Y-146527156D01*
X132963847Y-146527156D02*
X132854990Y-146527156D01*
X132854990Y-146527156D02*
X132782418Y-146563442D01*
X132782418Y-146563442D02*
X132746133Y-146599728D01*
X132746133Y-146599728D02*
X132709847Y-146672299D01*
X132709847Y-146672299D02*
X132709847Y-146962585D01*
X132854990Y-145874014D02*
X132346990Y-145874014D01*
X133145276Y-146055442D02*
X132600990Y-146236871D01*
X132600990Y-146236871D02*
X132600990Y-145765156D01*
X132854990Y-145148300D02*
X132346990Y-145148300D01*
X133145276Y-145329728D02*
X132600990Y-145511157D01*
X132600990Y-145511157D02*
X132600990Y-145039442D01*
D10*
X135407787Y-142004142D02*
X135891596Y-142342809D01*
X135407787Y-142584714D02*
X136423787Y-142584714D01*
X136423787Y-142584714D02*
X136423787Y-142197666D01*
X136423787Y-142197666D02*
X136375406Y-142100904D01*
X136375406Y-142100904D02*
X136327025Y-142052523D01*
X136327025Y-142052523D02*
X136230263Y-142004142D01*
X136230263Y-142004142D02*
X136085120Y-142004142D01*
X136085120Y-142004142D02*
X135988358Y-142052523D01*
X135988358Y-142052523D02*
X135939977Y-142100904D01*
X135939977Y-142100904D02*
X135891596Y-142197666D01*
X135891596Y-142197666D02*
X135891596Y-142584714D01*
X136085120Y-141133285D02*
X135407787Y-141133285D01*
X136472168Y-141375190D02*
X135746453Y-141617095D01*
X135746453Y-141617095D02*
X135746453Y-140988142D01*
X136423787Y-140697857D02*
X136423787Y-140068904D01*
X136423787Y-140068904D02*
X136036739Y-140407571D01*
X136036739Y-140407571D02*
X136036739Y-140262428D01*
X136036739Y-140262428D02*
X135988358Y-140165666D01*
X135988358Y-140165666D02*
X135939977Y-140117285D01*
X135939977Y-140117285D02*
X135843215Y-140068904D01*
X135843215Y-140068904D02*
X135601310Y-140068904D01*
X135601310Y-140068904D02*
X135504548Y-140117285D01*
X135504548Y-140117285D02*
X135456168Y-140165666D01*
X135456168Y-140165666D02*
X135407787Y-140262428D01*
X135407787Y-140262428D02*
X135407787Y-140552714D01*
X135407787Y-140552714D02*
X135456168Y-140649476D01*
X135456168Y-140649476D02*
X135504548Y-140697857D01*
D11*
X128477828Y-152292909D02*
X128811161Y-152292909D01*
X128811161Y-152816719D02*
X128811161Y-151816719D01*
X128811161Y-151816719D02*
X128334971Y-151816719D01*
X127954018Y-152816719D02*
X127954018Y-151816719D01*
X127477828Y-152816719D02*
X127477828Y-151816719D01*
X127477828Y-151816719D02*
X127239733Y-151816719D01*
X127239733Y-151816719D02*
X127096876Y-151864338D01*
X127096876Y-151864338D02*
X127001638Y-151959576D01*
X127001638Y-151959576D02*
X126954019Y-152054814D01*
X126954019Y-152054814D02*
X126906400Y-152245290D01*
X126906400Y-152245290D02*
X126906400Y-152388147D01*
X126906400Y-152388147D02*
X126954019Y-152578623D01*
X126954019Y-152578623D02*
X127001638Y-152673861D01*
X127001638Y-152673861D02*
X127096876Y-152769100D01*
X127096876Y-152769100D02*
X127239733Y-152816719D01*
X127239733Y-152816719D02*
X127477828Y-152816719D01*
X126525447Y-151911957D02*
X126477828Y-151864338D01*
X126477828Y-151864338D02*
X126382590Y-151816719D01*
X126382590Y-151816719D02*
X126144495Y-151816719D01*
X126144495Y-151816719D02*
X126049257Y-151864338D01*
X126049257Y-151864338D02*
X126001638Y-151911957D01*
X126001638Y-151911957D02*
X125954019Y-152007195D01*
X125954019Y-152007195D02*
X125954019Y-152102433D01*
X125954019Y-152102433D02*
X126001638Y-152245290D01*
X126001638Y-152245290D02*
X126573066Y-152816719D01*
X126573066Y-152816719D02*
X125954019Y-152816719D01*
X102830980Y-141125533D02*
X102116695Y-141125533D01*
X102116695Y-141125533D02*
X101973838Y-141173152D01*
X101973838Y-141173152D02*
X101878600Y-141268390D01*
X101878600Y-141268390D02*
X101830980Y-141411247D01*
X101830980Y-141411247D02*
X101830980Y-141506485D01*
X102497647Y-140220771D02*
X101830980Y-140220771D01*
X102878600Y-140458866D02*
X102164314Y-140696961D01*
X102164314Y-140696961D02*
X102164314Y-140077914D01*
D14*
X127025400Y-145364200D02*
G75*
G03*
X127025400Y-145364200I-381000J0D01*
G01*
D10*
X97231200Y-135661400D02*
X97231200Y-134645400D01*
X98755200Y-135661400D02*
X98755200Y-134645400D01*
X120243600Y-149733000D02*
X121767600Y-149733000D01*
X120243600Y-147447000D02*
X121767600Y-147447000D01*
X120345200Y-151536400D02*
X118821200Y-151536400D01*
X120345200Y-154076400D02*
X118821200Y-154076400D01*
X119583200Y-156260800D02*
X118059200Y-156260800D01*
X119583200Y-158800800D02*
X118059200Y-158800800D01*
X125641100Y-133502400D02*
X125641100Y-133756400D01*
X125641100Y-133502400D02*
X125641100Y-133248400D01*
X126530100Y-133502400D02*
X126530100Y-133756400D01*
X126530100Y-133502400D02*
X126530100Y-133248400D01*
X123037600Y-133273800D02*
X123037600Y-132257800D01*
X124561600Y-133273800D02*
X124561600Y-132257800D01*
X105918000Y-127749300D02*
X106172000Y-127749300D01*
X105918000Y-127749300D02*
X105664000Y-127749300D01*
X105918000Y-126860300D02*
X106172000Y-126860300D01*
X105918000Y-126860300D02*
X105664000Y-126860300D01*
X120218200Y-126695200D02*
X119202200Y-126695200D01*
X120218200Y-125171200D02*
X119202200Y-125171200D01*
X109550200Y-129997200D02*
X108534200Y-129997200D01*
X109550200Y-128473200D02*
X108534200Y-128473200D01*
D15*
X120878600Y-134239000D02*
X120878600Y-133400800D01*
X122656600Y-134239000D02*
X122656600Y-133400800D01*
D10*
X112067824Y-130626637D02*
X111892564Y-130451377D01*
X112293884Y-130626637D02*
X112067824Y-130626637D01*
X116891284Y-130626637D02*
X116489964Y-130626637D01*
X111892564Y-130451377D02*
X111892564Y-130225317D01*
X116891284Y-130225317D02*
X116891284Y-130626637D01*
X111892564Y-126029237D02*
X111892564Y-125627917D01*
X111892564Y-125627917D02*
X112293884Y-125627917D01*
X116489964Y-125627917D02*
X116891284Y-125627917D01*
X116891284Y-125627917D02*
X116891284Y-126029237D01*
D16*
X111669797Y-131025417D02*
G75*
G03*
X111669797Y-131025417I-176013J0D01*
G01*
D10*
X119532400Y-130175000D02*
X118821200Y-130175000D01*
X121666000Y-130175000D02*
X120954800Y-130175000D01*
X118821200Y-129336800D02*
X118821200Y-130175000D01*
X121666000Y-129336800D02*
X121666000Y-130175000D01*
X110350300Y-138023600D02*
X110350300Y-138277600D01*
X110350300Y-138023600D02*
X110350300Y-137769600D01*
X111239300Y-138023600D02*
X111239300Y-138277600D01*
X111239300Y-138023600D02*
X111239300Y-137769600D01*
X122745500Y-129743200D02*
X122745500Y-129997200D01*
X122745500Y-129743200D02*
X122745500Y-129489200D01*
X123634500Y-129743200D02*
X123634500Y-129997200D01*
X123634500Y-129743200D02*
X123634500Y-129489200D01*
X123647200Y-126009400D02*
X123647200Y-127025400D01*
X122123200Y-126009400D02*
X122123200Y-127025400D01*
X117129560Y-137754360D02*
X117129560Y-137043160D01*
X117129560Y-139887960D02*
X117129560Y-139176760D01*
X117967760Y-137043160D02*
X117129560Y-137043160D01*
X117967760Y-139887960D02*
X117129560Y-139887960D01*
X119126000Y-123863100D02*
X118872000Y-123863100D01*
X119126000Y-123863100D02*
X119380000Y-123863100D01*
X119126000Y-124752100D02*
X118872000Y-124752100D01*
X119126000Y-124752100D02*
X119380000Y-124752100D01*
X105918000Y-129222500D02*
X106172000Y-129222500D01*
X105918000Y-129222500D02*
X105664000Y-129222500D01*
X105918000Y-128333500D02*
X106172000Y-128333500D01*
X105918000Y-128333500D02*
X105664000Y-128333500D01*
X105867200Y-130746500D02*
X106121200Y-130746500D01*
X105867200Y-130746500D02*
X105613200Y-130746500D01*
X105867200Y-129857500D02*
X106121200Y-129857500D01*
X105867200Y-129857500D02*
X105613200Y-129857500D01*
X115722400Y-139166600D02*
X115722400Y-140182600D01*
X114198400Y-139166600D02*
X114198400Y-140182600D01*
X111772700Y-137769600D02*
X111772700Y-138023600D01*
X111772700Y-137769600D02*
X111772700Y-137515600D01*
X112661700Y-137769600D02*
X112661700Y-138023600D01*
X112661700Y-137769600D02*
X112661700Y-137515600D01*
X108038900Y-135432800D02*
X108038900Y-135178800D01*
X108038900Y-135432800D02*
X108038900Y-135686800D01*
X107149900Y-135432800D02*
X107149900Y-135178800D01*
X107149900Y-135432800D02*
X107149900Y-135686800D01*
X108864400Y-139280900D02*
X109118400Y-139280900D01*
X108864400Y-139280900D02*
X108610400Y-139280900D01*
X108864400Y-138391900D02*
X109118400Y-138391900D01*
X108864400Y-138391900D02*
X108610400Y-138391900D01*
X113880900Y-138023600D02*
X113880900Y-137769600D01*
X113880900Y-138023600D02*
X113880900Y-138277600D01*
X112991900Y-138023600D02*
X112991900Y-137769600D01*
X112991900Y-138023600D02*
X112991900Y-138277600D01*
X112318800Y-121259600D02*
X112534700Y-121259600D01*
X112331500Y-124206000D02*
X112331500Y-121259600D01*
X112344200Y-124206000D02*
X112522000Y-124206000D01*
X116141500Y-124206000D02*
X116332000Y-124206000D01*
X116332000Y-121259600D02*
X116116100Y-121259600D01*
X116332000Y-124206000D02*
X116332000Y-121259600D01*
X106438700Y-133045200D02*
X106438700Y-133299200D01*
X106438700Y-133045200D02*
X106438700Y-132791200D01*
X107327700Y-133045200D02*
X107327700Y-133299200D01*
X107327700Y-133045200D02*
X107327700Y-132791200D01*
X103479600Y-128714500D02*
X103733600Y-128714500D01*
X103479600Y-128714500D02*
X103225600Y-128714500D01*
X103479600Y-127825500D02*
X103733600Y-127825500D01*
X103479600Y-127825500D02*
X103225600Y-127825500D01*
X99595940Y-143121160D02*
X99595940Y-138122440D01*
D17*
X99468200Y-141571800D02*
X96468200Y-141571800D01*
D10*
X97358200Y-141002800D02*
X98628200Y-141002800D01*
X97358200Y-139986800D02*
X97993200Y-141002800D01*
X97358200Y-139986800D02*
X98628200Y-139986800D01*
X98628200Y-139986800D02*
X97993200Y-141002800D01*
X96390460Y-138122440D02*
X96390460Y-143121160D01*
X110528100Y-148640800D02*
X110528100Y-148386800D01*
X110528100Y-148640800D02*
X110528100Y-148894800D01*
X109639100Y-148640800D02*
X109639100Y-148386800D01*
X109639100Y-148640800D02*
X109639100Y-148894800D01*
X131267200Y-133438900D02*
X131521200Y-133438900D01*
X131267200Y-133438900D02*
X131013200Y-133438900D01*
X131267200Y-132549900D02*
X131521200Y-132549900D01*
X131267200Y-132549900D02*
X131013200Y-132549900D01*
X123786900Y-144475200D02*
X123786900Y-144221200D01*
X123786900Y-144475200D02*
X123786900Y-144729200D01*
X122897900Y-144475200D02*
X122897900Y-144221200D01*
X122897900Y-144475200D02*
X122897900Y-144729200D01*
X132346700Y-137566400D02*
X132346700Y-137820400D01*
X132346700Y-137566400D02*
X132346700Y-137312400D01*
X133235700Y-137566400D02*
X133235700Y-137820400D01*
X133235700Y-137566400D02*
X133235700Y-137312400D01*
X131903600Y-135518800D02*
X131903600Y-139918800D01*
X128903600Y-135518800D02*
X128903600Y-139918800D01*
X107175300Y-125069600D02*
X107175300Y-124815600D01*
X107175300Y-125069600D02*
X107175300Y-125323600D01*
X106286300Y-125069600D02*
X106286300Y-124815600D01*
X106286300Y-125069600D02*
X106286300Y-125323600D01*
X107797600Y-127990600D02*
X107797600Y-127774700D01*
X110744000Y-127977900D02*
X107797600Y-127977900D01*
X110744000Y-127965200D02*
X110744000Y-127787400D01*
X110744000Y-124167900D02*
X110744000Y-123977400D01*
X107797600Y-123977400D02*
X107797600Y-124193300D01*
X110744000Y-123977400D02*
X107797600Y-123977400D01*
X125120400Y-154609800D02*
X125120400Y-155625800D01*
X123596400Y-154609800D02*
X123596400Y-155625800D01*
X128727200Y-152539700D02*
X128981200Y-152539700D01*
X128727200Y-152539700D02*
X128473200Y-152539700D01*
X128727200Y-151650700D02*
X128981200Y-151650700D01*
X128727200Y-151650700D02*
X128473200Y-151650700D01*
X110602000Y-139597200D02*
X110602000Y-140697200D01*
X110602000Y-145797200D02*
X110602000Y-144697200D01*
X110602000Y-145797200D02*
X117802000Y-145797200D01*
D18*
X112702000Y-145597200D02*
X112702000Y-139797200D01*
D10*
X114002000Y-141697200D02*
X114002000Y-143697200D01*
X114002000Y-142697200D02*
X113402000Y-142697200D01*
X115402000Y-141697200D02*
X114002000Y-142697200D01*
X115402000Y-141697200D02*
X115402000Y-143697200D01*
X115402000Y-142697200D02*
X116202000Y-142697200D01*
X115402000Y-143697200D02*
X114002000Y-142697200D01*
X117802000Y-139597200D02*
X110602000Y-139597200D01*
X117802000Y-139597200D02*
X117802000Y-140697200D01*
X117802000Y-145797200D02*
X117802000Y-144697200D01*
X106895900Y-148640800D02*
X106895900Y-148894800D01*
X106895900Y-148640800D02*
X106895900Y-148386800D01*
X107784900Y-148640800D02*
X107784900Y-148894800D01*
X107784900Y-148640800D02*
X107784900Y-148386800D01*
X129508000Y-150886800D02*
X125508000Y-150886800D01*
X129508000Y-145886800D02*
X125508000Y-145886800D01*
X109156500Y-148640800D02*
X109156500Y-148386800D01*
X109156500Y-148640800D02*
X109156500Y-148894800D01*
X108267500Y-148640800D02*
X108267500Y-148386800D01*
X108267500Y-148640800D02*
X108267500Y-148894800D01*
X133134100Y-144068800D02*
X133134100Y-143814800D01*
X133134100Y-144068800D02*
X133134100Y-144322800D01*
X132245100Y-144068800D02*
X132245100Y-143814800D01*
X132245100Y-144068800D02*
X132245100Y-144322800D01*
X133134100Y-141732000D02*
X133134100Y-141478000D01*
X133134100Y-141732000D02*
X133134100Y-141986000D01*
X132245100Y-141732000D02*
X132245100Y-141478000D01*
X132245100Y-141732000D02*
X132245100Y-141986000D01*
D19*
X100444300Y-144729200D02*
X100444300Y-136855200D01*
X101140766Y-144729200D02*
X100444300Y-144729200D01*
X102410766Y-144729200D02*
X102160834Y-144729200D01*
X104127300Y-144729200D02*
X103430834Y-144729200D01*
X100444300Y-136855200D02*
X101140766Y-136855200D01*
X102160834Y-136855200D02*
X102410766Y-136855200D01*
X103430834Y-136855200D02*
X104127300Y-136855200D01*
X104127300Y-136855200D02*
X104127300Y-144729200D01*
D14*
X101446378Y-145042686D02*
G75*
G03*
X101855223Y-145042685I204423J-321514D01*
G01*
M02*
